<?xml version="1.0" encoding="utf-8"?>
<!-- Generator: Adobe Illustrator 15.1.0, SVG Export Plug-In . SVG Version: 6.00 Build 0)  -->
<!DOCTYPE svg PUBLIC "-//W3C//DTD SVG 1.1//EN" "http://www.w3.org/Graphics/SVG/1.1/DTD/svg11.dtd">
<svg version="1.1" id="Layer_1" xmlns="http://www.w3.org/2000/svg" xmlns:xlink="http://www.w3.org/1999/xlink" x="0px" y="0px"
	 width="24px" height="24px" viewBox="0 0 24 24" enable-background="new 0 0 24 24" xml:space="preserve">
<path d="M21.321,17.896l0.549-3.86c-0.549,0.202-1.273,0.383-2.158,0.538C17.646,14.939,14.908,15.14,12,15.14
	c-2.91,0-5.651-0.2-7.714-0.565c-0.88-0.155-1.6-0.335-2.146-0.533l0.561,3.854c0.023,0.117,0.113,0.283,0.21,0.362
	c0.738,0.586,2.331,1.29,5.454,1.604v-3.192c0-0.302,0.26-0.546,0.579-0.546h6.106c0.319,0,0.578,0.244,0.578,0.546v3.197
	c3.137-0.303,4.718-0.996,5.48-1.608C21.207,18.181,21.297,18.015,21.321,17.896z M22.323,10.865
	c-0.067,0.033-0.139,0.065-0.216,0.096c-0.568,0.238-1.375,0.45-2.396,0.631c-2.065,0.366-4.804,0.566-7.712,0.566
	c-2.91,0-5.651-0.201-7.714-0.566c-1.021-0.182-1.827-0.394-2.396-0.631c-0.074-0.031-0.146-0.063-0.213-0.096l0.353,2.416
	c0.043,0.02,0.089,0.041,0.143,0.063c0.514,0.215,1.288,0.418,2.241,0.586c2.023,0.359,4.719,0.556,7.587,0.556
	c2.867,0,5.562-0.196,7.585-0.556c0.954-0.168,1.729-0.371,2.24-0.586c0.056-0.023,0.106-0.045,0.152-0.067L22.323,10.865z
	 M18.034,11.175c-1.624-0.225-3.775-0.353-6.061-0.353c-2.269,0-4.414,0.127-6.037,0.35c1.768,0.216,3.866,0.333,6.063,0.333
	C14.187,11.503,16.27,11.389,18.034,11.175z M9.061,16.78v3.143v0.63l-0.347,0.109l-0.347,0.109l-0.444,0.137
	c-0.12,0.038-0.22,0.167-0.22,0.286v0.41c0,0.119,0.104,0.218,0.231,0.218h8.128c0.128,0,0.23-0.099,0.23-0.218v-0.41
	c0-0.119-0.098-0.248-0.219-0.286l-0.445-0.137l-0.347-0.109l-0.347-0.109v-0.626V16.78h-0.849v2.817H9.909V16.78H9.061z
	 M11.8,7.155c-0.363,0.027-0.71,0.173-0.982,0.435c-0.273,0.256-0.432,0.584-0.465,0.926c0.395,0.043,0.811,0.23,1.158,0.558
	c0.336,0.317,0.539,0.712,0.582,1.086c0.363-0.032,0.709-0.179,0.987-0.435c0.272-0.262,0.417-0.59,0.459-0.926
	c-0.395-0.045-0.816-0.235-1.153-0.557C12.04,7.918,11.843,7.523,11.8,7.155z M13.551,8.612C13.534,8.235,13.38,7.873,13.08,7.59
	c-0.299-0.286-0.688-0.43-1.083-0.443c0.043,0.328,0.225,0.672,0.529,0.96C12.84,8.396,13.197,8.569,13.551,8.612z M10.353,8.7
	c0.011,0.374,0.161,0.742,0.465,1.024c0.303,0.281,0.693,0.43,1.083,0.438c-0.048-0.323-0.229-0.672-0.534-0.961
	C11.063,8.914,10.694,8.746,10.353,8.7z M16.58,3.057c-0.458,0.186-0.868,0.458-1.221,0.81c-0.353,0.352-0.625,0.763-0.811,1.22
	c-0.179,0.442-0.27,0.909-0.27,1.388c0,0.479,0.091,0.945,0.27,1.387c0.186,0.458,0.458,0.869,0.811,1.221
	c0.353,0.351,0.763,0.624,1.221,0.81c0.441,0.18,0.908,0.27,1.388,0.27s0.946-0.091,1.387-0.27c0.459-0.186,0.869-0.458,1.221-0.81
	c0.353-0.352,0.625-0.763,0.811-1.221c0.18-0.442,0.27-0.909,0.27-1.387c0-0.479-0.09-0.946-0.27-1.388
	c-0.186-0.457-0.458-0.868-0.811-1.22c-0.352-0.352-0.762-0.624-1.221-0.81c-0.44-0.179-0.907-0.271-1.387-0.271
	S17.021,2.877,16.58,3.057z M15.202,8.028c-0.179-0.112-0.342-0.241-0.487-0.392c-0.222-0.623-0.259-1.298-0.111-1.938
	c0.068-0.136,0.147-0.267,0.235-0.392c0.027-0.039,0.053-0.079,0.083-0.116l0.832,0.493c0,0.006,0,0.013,0,0.021
	c-0.003,0.448,0.042,0.892,0.134,1.33c0,0.002,0,0.003,0,0.005L15.243,8.05C15.229,8.043,15.215,8.036,15.202,8.028z M17.676,9.738
	c0.144,0.073,0.291,0.135,0.443,0.186c-0.646,0.028-1.296-0.124-1.871-0.453l1.395,0.248C17.654,9.726,17.664,9.732,17.676,9.738z
	 M17.671,9.486l-1.646-0.293c-0.192-0.234-0.366-0.481-0.515-0.746c-0.038-0.067-0.081-0.133-0.113-0.203l0.646-1.011
	c0.015,0.004,0.03,0.008,0.048,0.013c0.404,0.108,0.814,0.185,1.228,0.245c0.023,0.003,0.044,0.007,0.062,0.009l0.773,1.336
	c-0.135,0.188-0.27,0.376-0.409,0.562C17.721,9.427,17.696,9.457,17.671,9.486z M20.41,8.917c-0.132,0.131-0.271,0.249-0.416,0.355
	C19.97,9.079,19.928,8.89,19.87,8.705l0.824-1.539c0.228-0.103,0.446-0.22,0.649-0.366c0.027-0.019,0.049-0.04,0.065-0.063
	C21.351,7.532,21.017,8.31,20.41,8.917z M20.373,6.921c0.031,0.059,0.062,0.118,0.092,0.178l-0.797,1.486
	c-0.004,0.001-0.008,0.002-0.014,0.002c-0.431,0.081-0.864,0.124-1.302,0.125l-0.796-1.375c0.124-0.229,0.247-0.46,0.368-0.691
	c0.083-0.156,0.164-0.314,0.244-0.472l1.646-0.169C20.017,6.303,20.208,6.604,20.373,6.921z M20.04,5.159
	c-0.078,0.206-0.163,0.41-0.244,0.614l-1.604,0.165c-0.02-0.025-0.039-0.05-0.061-0.073c-0.189-0.215-0.379-0.427-0.569-0.641
	c0.002-0.002,0.003-0.004,0.005-0.006c-0.076-0.077-0.153-0.153-0.23-0.23l0.446-1.344c0.03-0.008,0.063-0.015,0.093-0.019
	c0.243-0.024,0.485-0.053,0.729-0.066c0.148-0.008,0.298-0.013,0.449-0.002l1.104,1.244C20.121,4.921,20.084,5.042,20.04,5.159z
	 M20.41,4.032c0.306,0.305,0.54,0.652,0.707,1.024c-0.206-0.142-0.427-0.259-0.658-0.354c-0.037-0.015-0.074-0.028-0.111-0.041
	l-1.086-1.225c0.008-0.053,0.011-0.105,0.013-0.159C19.688,3.445,20.075,3.697,20.41,4.032z M16.861,3.212
	c0.004,0.004,0.007,0.006,0.01,0.006c0.247,0.086,0.473,0.213,0.687,0.363l-0.417,1.255c-0.002,0.001-0.004,0.001-0.006,0.002
	c-0.086,0.035-0.172,0.067-0.257,0.105c-0.346,0.158-0.683,0.332-1.001,0.541l-0.823-0.486c0.002-0.026,0.007-0.053,0.016-0.075
	c0.056-0.147,0.109-0.295,0.172-0.439c0.048-0.111,0.103-0.219,0.163-0.324c0.039-0.042,0.08-0.086,0.121-0.128
	c0.391-0.391,0.853-0.668,1.345-0.832C16.867,3.204,16.863,3.208,16.861,3.212z M5.241,7.878c0,0.001-0.001,0.002-0.002,0.002
	l0.067,0.383l0.383,0.067c0-0.001,0.001-0.002,0.001-0.003L5.617,7.952L5.241,7.878z M8.632,4.937
	c-1.486-1.485-2.34-0.723-2.477-0.204c-0.066,0.248-0.06,0.351-0.06,0.351C5.872,4.973,5.302,4.82,4.812,6.616L3.759,7.914
	c0.236,0.407,0.506,0.763,0.82,1.077c0.314,0.313,0.67,0.584,1.078,0.82l1.296-1.053c0.421-0.195,1.105-0.273,1.542-0.71
	C9.392,7.15,9.979,6.283,8.632,4.937z M6.531,8.128c-0.088,0.088-0.231,0.088-0.32,0C6.19,8.107,6.174,8.083,6.163,8.057
	L5.888,8.004L5.94,8.281c0.026,0.011,0.05,0.027,0.071,0.047c0.088,0.088,0.088,0.232,0,0.32c-0.088,0.088-0.232,0.088-0.32,0
	c-0.02-0.02-0.035-0.042-0.046-0.067l-0.292-0.05l0.051,0.292c0.024,0.011,0.047,0.025,0.066,0.045c0.089,0.089,0.089,0.232,0,0.321
	c-0.088,0.088-0.231,0.088-0.319,0c-0.089-0.089-0.089-0.232,0-0.321c0.001-0.001,0.002-0.001,0.002-0.001L5.086,8.483L4.703,8.416
	c0,0-0.001,0.001-0.002,0.002c-0.088,0.088-0.231,0.088-0.319,0c-0.089-0.088-0.089-0.232,0-0.32c0.088-0.088,0.231-0.088,0.319,0
	c0.02,0.02,0.036,0.043,0.046,0.067l0.292,0.051l-0.05-0.292C4.963,7.914,4.941,7.898,4.921,7.878c-0.088-0.088-0.088-0.232,0-0.32
	c0.088-0.088,0.232-0.088,0.32,0c0.02,0.021,0.036,0.045,0.047,0.071l0.276,0.053L5.512,7.407C5.487,7.395,5.462,7.379,5.441,7.358
	c-0.088-0.088-0.088-0.232,0-0.32c0.089-0.088,0.232-0.088,0.321,0c0.087,0.088,0.088,0.231,0,0.32l0.073,0.376l0.376,0.073
	c0.088-0.088,0.231-0.088,0.319,0C6.62,7.897,6.62,8.04,6.531,8.128z M4.219,6.984L4.123,6.86l-0.37,0.106c0,0.001,0,0.002,0,0.002
	l0.229,0.307L4.219,6.984z M3.371,7.406c0.026,0.008,0.051,0.021,0.072,0.038l0.283-0.085L3.548,7.12
	c-0.026,0.001-0.053-0.002-0.08-0.011C3.35,7.071,3.285,6.942,3.324,6.824C3.362,6.706,3.49,6.641,3.609,6.68
	c0.028,0.009,0.053,0.023,0.075,0.042l0.27-0.077L3.782,6.421C3.753,6.423,3.725,6.419,3.697,6.41
	C3.578,6.372,3.514,6.244,3.553,6.125S3.72,5.941,3.837,5.98c0.119,0.038,0.184,0.166,0.145,0.285l0.236,0.303l0.369-0.105
	c0.012-0.035,0.031-0.065,0.056-0.089c0.208-0.684,0.428-1.056,0.428-1.056S4.844,4.713,4.154,4.982
	c0.817-0.387,0.224-1.006,0.224-1.006S5.08,4.511,5.759,4.803C5.792,4.798,5.827,4.794,5.86,4.794c0.015,0,0.03,0.001,0.043,0.002
	c0.008-0.037,0.019-0.078,0.03-0.123c0.095-0.356,0.418-0.736,0.923-0.817C6.689,3.48,6.288,3.083,5.45,2.809
	C3.642,2.216,3.133,3.131,2.738,4.335C2.544,4.924,2.785,5.57,2.801,6.033L2.447,7.666c0.395,0.257,0.797,0.452,1.219,0.59
	C3.68,8.261,3.694,8.265,3.708,8.27c-0.05-0.078-0.1-0.159-0.147-0.241l-0.08-0.137l0.208-0.256L3.517,7.688
	C3.516,7.688,3.516,7.69,3.516,7.69C3.477,7.81,3.349,7.874,3.23,7.835C3.112,7.796,3.047,7.668,3.086,7.55
	C3.125,7.431,3.252,7.367,3.371,7.406z"/>
</svg>
