<?xml version="1.0" encoding="utf-8"?>
<!-- Generator: Adobe Illustrator 15.1.0, SVG Export Plug-In . SVG Version: 6.00 Build 0)  -->
<!DOCTYPE svg PUBLIC "-//W3C//DTD SVG 1.1//EN" "http://www.w3.org/Graphics/SVG/1.1/DTD/svg11.dtd">
<svg version="1.1" id="Layer_1" xmlns="http://www.w3.org/2000/svg" xmlns:xlink="http://www.w3.org/1999/xlink" x="0px" y="0px"
	 width="24px" height="24px" viewBox="0 0 24 24" enable-background="new 0 0 24 24" xml:space="preserve">
<path d="M13.104,7.768h-0.153c-0.008,0-0.014,0.005-0.018,0.012c0.056,0.01,0.111,0.015,0.171,0.018
	C13.126,7.799,13.126,7.768,13.104,7.768z M20.158,17.996c-0.006-0.021,0.004-0.031,0.022-0.02c0,0,0.001,0,0.001,0.002
	c0.019,0.012,0.029,0.004,0.023-0.018c-0.115-0.406-0.334-0.756-0.469-1.145c-0.007-0.02-0.003-0.021,0.011-0.004
	c0.03,0.037,0.058,0.076,0.088,0.115c0.014,0.016,0.025,0.027,0.029,0.027c0.002-0.002-0.005-0.018-0.016-0.037
	c-0.161-0.27-0.322-0.541-0.483-0.811c-0.01-0.018-0.014-0.037-0.006-0.043c0.007-0.004,0.023,0.008,0.036,0.025
	c0.035,0.047,0.07,0.096,0.106,0.146c0.013,0.018,0.025,0.029,0.028,0.029c0.004-0.002,0.002-0.016-0.004-0.035
	c-0.007-0.018-0.008-0.035-0.003-0.041c0.004-0.004,0.02,0.006,0.035,0.021c0.071,0.074,0.145,0.148,0.226,0.23
	c0.015,0.016,0.019,0.012,0.008-0.006c-0.019-0.035-0.035-0.064-0.051-0.092c-0.011-0.018-0.017-0.039-0.013-0.045
	c0.004-0.004,0.021-0.002,0.039,0.012c0.09,0.063,0.18,0.117,0.274,0.184c0.018,0.014,0.026-0.006,0.019-0.023
	s0.044-0.047,0.023-0.051c-0.097-0.02-0.181-0.146-0.181-0.146c-0.136-0.217-0.31-0.418-0.442-0.639
	c-0.183-0.299-0.317-0.623-0.378-0.971c-0.008-0.043-0.013-0.088-0.015-0.131c-0.001-0.021-0.007-0.027-0.01-0.014
	c-0.004,0.016-0.013,0.012-0.021-0.01c-0.086-0.248-0.169-0.486-0.252-0.725c-0.006-0.021-0.011-0.039-0.009-0.039
	s0.012,0.014,0.021,0.033c0.034,0.07,0.069,0.141,0.104,0.209c0.01,0.02,0.021,0.033,0.024,0.033
	c0.004-0.002,0.004-0.018-0.002-0.035c-0.003-0.012-0.007-0.023-0.012-0.031c-0.214-0.424-0.428-0.844-0.646-1.264
	c-0.043-0.08-0.104-0.158-0.172-0.223c-0.204-0.195-0.417-0.382-0.625-0.574c-0.073-0.068-0.14-0.145-0.21-0.216
	c-0.037-0.037-0.072-0.079-0.114-0.106c-0.282-0.184-0.533-0.396-0.743-0.664c-0.28-0.357-0.661-0.596-1.042-0.834
	c-0.091-0.056-0.182-0.117-0.279-0.16c-0.129-0.057-0.263-0.119-0.401-0.143c-0.197-0.033-0.402-0.023-0.603-0.05
	c-0.144-0.02-0.286-0.062-0.424-0.11c-0.329-0.113-0.655-0.239-0.983-0.354c-0.216-0.076-0.336-0.264-0.498-0.404
	c-0.01-0.009-0.016-0.021-0.021-0.036c-0.006-0.021-0.007-0.041-0.003-0.046c0.006-0.004,0.025-0.001,0.045,0.009
	c0.052,0.025,0.105,0.052,0.161,0.08c0.021,0.01,0.025,0.002,0.013-0.014c-0.015-0.02-0.027-0.037-0.041-0.055
	c-0.012-0.018-0.021-0.035-0.019-0.039c0.002-0.004,0.02,0,0.039,0.009c0.088,0.041,0.177,0.081,0.266,0.121
	c0.019,0.009,0.038,0.013,0.043,0.009c0.004-0.003-0.002-0.022-0.013-0.041c-0.011-0.017-0.021-0.035-0.037-0.059
	c-0.011-0.019-0.003-0.027,0.017-0.019c0.143,0.057,0.269,0.107,0.394,0.156c0.02,0.008,0.036,0.012,0.038,0.01
	c0.001-0.003-0.013-0.014-0.032-0.023C12.915,8.858,12.808,8.8,12.7,8.743c-0.02-0.011-0.032-0.024-0.029-0.031
	c0.004-0.007,0.023-0.007,0.043,0c0.044,0.015,0.088,0.029,0.133,0.044c0.02,0.007,0.038,0.009,0.04,0.003
	c0.003-0.004-0.009-0.019-0.025-0.033C12.85,8.717,12.839,8.708,12.829,8.7c-0.018-0.014-0.029-0.03-0.027-0.035
	c0-0.006,0.019-0.009,0.041-0.006c0.03,0.004,0.061,0.009,0.094,0.012c0.021,0.003,0.025-0.005,0.009-0.019
	c-0.01-0.007-0.019-0.015-0.028-0.023c-0.017-0.014-0.016-0.035,0.005-0.042c0.124-0.045,0.235,0.022,0.357,0.042
	c0.022,0.003,0.024-0.005,0.007-0.018c-0.116-0.082-0.225-0.159-0.332-0.234c-0.019-0.012-0.032-0.024-0.031-0.026
	c0.001-0.003,0.018,0.001,0.038,0.01l0.202,0.082c0.02,0.008,0.038,0.011,0.041,0.006c0.002-0.005-0.01-0.019-0.028-0.03
	c-0.08-0.05-0.16-0.099-0.24-0.148c-0.018-0.012-0.032-0.025-0.03-0.03c0.002-0.004,0.02-0.003,0.04,0.003
	c0.02,0.005,0.041,0.011,0.063,0.018c0.02,0.006,0.028-0.005,0.018-0.023c-0.09-0.127-0.249-0.15-0.354-0.248
	c-0.016-0.015-0.011-0.023,0.011-0.016c0.021,0.006,0.042,0.013,0.068,0.022c0.021,0.007,0.023,0.001,0.006-0.012
	c-0.012-0.009-0.022-0.017-0.033-0.025c-0.018-0.013-0.014-0.025,0.008-0.026c0.028-0.002,0.056-0.003,0.086-0.005
	c0.021-0.002,0.021-0.009,0.002-0.016c-0.038-0.013-0.071-0.024-0.103-0.036c-0.021-0.006-0.036-0.016-0.035-0.02
	s0.019-0.007,0.04-0.002c0.057,0.012,0.114,0.02,0.171,0.026c0.011,0.001,0.022-0.01,0.034-0.017
	c0.017-0.009,0.021-0.039,0.009-0.047c-0.008-0.006-0.008-0.024,0-0.036c-0.088-0.016-0.169-0.045-0.242-0.113
	c-0.017-0.014-0.011-0.026,0.011-0.024c0.02,0,0.039,0.001,0.061,0.002c0.021,0.001,0.022-0.004,0.002-0.013
	c-0.003-0.002-0.008-0.003-0.011-0.005c-0.02-0.008-0.02-0.022,0.001-0.029c0.081-0.03,0.163-0.06,0.246-0.09
	c0.021-0.008,0.036-0.018,0.035-0.023c-0.002-0.004-0.021-0.01-0.041-0.011c-0.007,0-0.013,0-0.019-0.001
	c-0.022-0.001-0.029-0.016-0.016-0.033c0.026-0.034,0.05-0.065,0.07-0.092c0.013-0.018,0.014-0.042,0.002-0.056
	c-0.008-0.01-0.015-0.02-0.012-0.029c0.006-0.022,0.034-0.046,0.059-0.055c0.047-0.017,0.097-0.028,0.144-0.051
	c0.02-0.01,0.017-0.02-0.004-0.021c-0.13-0.005-0.258-0.011-0.387-0.018c-0.021-0.001-0.04-0.008-0.041-0.015
	c-0.001-0.007,0.008-0.018,0.018-0.023c0.01-0.006,0.002-0.014-0.02-0.02c-0.022-0.004-0.044-0.009-0.066-0.013
	c-0.021-0.004-0.038-0.012-0.038-0.018s0.018-0.012,0.039-0.013c0.048-0.003,0.097-0.007,0.153-0.012c0.021,0,0.021-0.005,0-0.009
	c-0.092-0.016-0.176-0.031-0.258-0.045c-0.021-0.004-0.04-0.012-0.04-0.019c-0.002-0.007,0.015-0.016,0.036-0.021
	c0.009-0.001,0.018-0.003,0.026-0.005c0.021-0.005,0.023-0.019,0.005-0.029c-0.153-0.089-0.309-0.181-0.483-0.283
	c-0.019-0.011-0.018-0.019,0.005-0.016c0.135,0.017,0.255,0.045,0.365-0.007c0.02-0.01,0.017-0.023-0.004-0.026
	c-0.041-0.007-0.084-0.014-0.126-0.022c-0.021-0.003-0.037-0.011-0.034-0.016c0.003-0.005-0.011-0.014-0.032-0.021
	c-0.063-0.02-0.128-0.04-0.191-0.06c-0.02-0.006-0.036-0.018-0.035-0.026c0.001-0.009,0.02-0.017,0.041-0.019
	c0.048-0.004,0.097-0.008,0.146-0.013c0.021-0.002,0.038-0.007,0.038-0.011c0-0.003-0.018-0.01-0.039-0.013
	c-0.056-0.009-0.112-0.018-0.168-0.026c-0.021-0.003-0.038-0.012-0.038-0.021c0.001-0.008,0.019-0.018,0.039-0.02
	c0.036-0.005,0.072-0.012,0.107-0.017c0.022-0.004,0.03-0.014,0.019-0.023c-0.012-0.009-0.021-0.023-0.022-0.032
	s0.015-0.02,0.035-0.025c0.15-0.038,0.301-0.075,0.46-0.114c0.021-0.005,0.021-0.008,0-0.005c-0.188,0.02-0.237,0.024-0.26,0
	c-0.015-0.015-0.003-0.042,0.018-0.051c0.043-0.021,0.084-0.044,0.074-0.109c-0.003-0.021-0.027-0.036-0.049-0.035
	c-0.035,0.001-0.076,0.003-0.115,0.008c-0.151,0.019-0.163,0.021-0.222-0.088c-0.011-0.019-0.002-0.042,0.017-0.052
	c0.067-0.031,0.134-0.061,0.198-0.092c0.021-0.009,0.034-0.021,0.032-0.026c-0.002-0.006-0.021-0.004-0.041,0.004
	c-0.048,0.019-0.097,0.041-0.146,0.053c-0.065,0.015-0.141,0.064-0.195-0.026c-0.002-0.005-0.017-0.005-0.025-0.008
	c-0.292-0.098-0.584-0.194-0.875-0.292c-0.052-0.018-0.101-0.04-0.148-0.072c-0.018-0.013-0.014-0.023,0.008-0.021l0.022,0.001
	c0.022,0.002,0.042,0,0.043-0.004c0.002-0.003-0.011-0.015-0.031-0.024c-0.076-0.041-0.151-0.081-0.227-0.12
	c-0.02-0.01-0.034-0.021-0.033-0.025c0.002-0.003,0.021-0.005,0.042-0.002c0.005,0,0.011,0.001,0.018,0.001
	c0.021,0.003,0.023-0.002,0.002-0.011c-0.167-0.076-0.351-0.159-0.535-0.242c-0.019-0.009-0.034-0.022-0.032-0.03
	c0.001-0.008,0.02-0.013,0.042-0.012c0.046,0.003,0.095,0.004,0.155,0.008c0.021,0.001,0.022-0.001,0-0.007
	c-0.035-0.008-0.064-0.014-0.095-0.021c-0.021-0.004-0.022-0.017-0.003-0.026c0.093-0.048,0.175-0.092,0.256-0.133
	c0.019-0.01,0.018-0.015-0.004-0.011c-0.104,0.018-0.209,0.034-0.314,0.052c-0.021,0.003-0.041-0.001-0.042-0.009
	c-0.003-0.008,0.006-0.024,0.018-0.033c0.014-0.008,0.006-0.025-0.015-0.03c-0.057-0.011-0.111-0.036-0.166-0.047
	c0,0,0.143-0.042-0.063-0.071C9.851,4.428,9.688,4.356,9.525,4.251c-0.131-0.085-0.29-0.135-0.441-0.184
	C8.903,4.009,8.716,3.97,8.532,3.919C8.464,3.901,8.398,3.864,8.33,3.857C8.242,3.848,8.154,3.853,8.075,3.854
	C8.054,3.854,8.022,3.845,8.004,3.832C7.986,3.817,7.968,3.804,7.951,3.804c-0.38-0.007-0.761,0-1.131,0.099
	c-0.074,0.02-0.142,0.061-0.215,0.084C6.576,3.996,6.533,4,6.512,3.985C6.436,3.929,6.367,3.866,6.296,3.804
	C6.264,3.776,6.232,3.746,6.2,3.717c-0.016-0.015-0.034-0.023-0.04-0.02C6.154,3.7,6.149,3.72,6.149,3.739
	c0,0.012,0.001,0.024,0.004,0.036C6.171,3.844,6.192,3.912,6.212,3.98c0.042,0.143,0.042,0.14-0.101,0.187
	C6.05,4.187,5.984,4.21,5.937,4.251C5.874,4.305,5.808,4.303,5.737,4.3C5.676,4.297,5.614,4.305,5.553,4.306
	C5.354,4.309,5.166,4.269,4.988,4.177c-0.01-0.005-0.022-0.007-0.034-0.008c-0.02-0.001-0.035,0.014-0.033,0.033
	c0,0.012,0.002,0.025,0.008,0.034c0.079,0.122,0.16,0.238,0.303,0.294c0.078,0.032,0.152,0.077,0.223,0.122
	c0.124,0.081,0.151,0.177,0.111,0.32C5.504,5.188,5.434,5.403,5.395,5.624C5.376,5.73,5.417,5.847,5.433,5.959
	c0.008,0.051,0.03,0.102,0.03,0.151c-0.007,0.449-0.08,0.889-0.204,1.32c-0.021,0.073-0.036,0.148-0.049,0.21
	C5.205,7.663,5.195,7.688,5.192,7.702C5.189,7.71,5.188,7.718,5.188,7.726c0,0.009,0,0.018,0.003,0.025
	c0.003,0.014,0.012,0.031,0.018,0.041C5.215,7.8,5.223,7.813,5.226,7.821C5.229,7.825,5.231,7.83,5.234,7.834
	c0.022,0.032,0.047,0.059,0.072,0.087C5.32,7.937,5.322,7.965,5.309,7.982C5.298,7.995,5.287,8.008,5.275,8.022
	c-0.008,0.01-0.014,0.021-0.019,0.033C5.251,8.076,5.251,8.096,5.249,8.1C5.247,8.103,5.247,8.104,5.247,8.107
	c0,0.023,0.011,0.057,0.03,0.068c0.083,0.049,0.169,0.093,0.261,0.142c0.019,0.011,0.02,0.029,0.002,0.042
	C5.532,8.364,5.524,8.37,5.516,8.375C5.498,8.388,5.497,8.411,5.514,8.423c0.091,0.063,0.189,0.06,0.292,0.043
	c0.048-0.007,0.099,0.001,0.148,0c0.022,0,0.053,0.004,0.064-0.007c0.07-0.071,0.156-0.078,0.249-0.09
	c0.129-0.015,0.242-0.172,0.224-0.304C6.468,7.895,6.517,7.764,6.638,7.635c0.101-0.109,0.151-0.263,0.23-0.394
	C6.889,7.206,6.927,7.174,6.963,7.16c0.059-0.024,0.11-0.001,0.127,0.065c0.041,0.163,0.106,0.327,0.11,0.491
	c0.006,0.246-0.025,0.494-0.055,0.739C7.112,8.731,6.974,8.965,6.82,9.191C6.647,9.445,6.548,9.72,6.603,10.039
	c0.029,0.172,0.033,0.351,0.041,0.526c0.001,0.033-0.022,0.084-0.05,0.1c-0.492,0.282-0.921,0.648-1.352,1.012
	c-0.071,0.062-0.155,0.109-0.225,0.172c-0.183,0.163-0.206,0.374-0.164,0.6c0.009,0.051,0.023,0.104,0.05,0.147
	c0.128,0.201,0.134,0.414,0.079,0.639c-0.086,0.348-0.166,0.695-0.255,1.043c-0.026,0.1-0.014,0.189,0.037,0.271
	c0.117,0.188,0.193,0.391,0.233,0.607c0.033,0.184,0.132,0.33,0.238,0.477c0.081,0.113,0.153,0.234,0.231,0.35
	c0.066,0.096,0.131,0.125,0.233,0.07c0.083-0.047,0.171-0.105,0.222-0.182c0.143-0.215,0.182-0.457,0.132-0.711
	c-0.009-0.051-0.03-0.105-0.063-0.141c-0.128-0.129-0.258-0.256-0.396-0.375c-0.09-0.076-0.121-0.195-0.07-0.303
	c0.03-0.061,0.049-0.133,0.057-0.201c0.008-0.078,0.003-0.16,0.003-0.252c-0.001-0.02,0.014-0.029,0.031-0.018
	c0.128,0.094,0.223,0.201,0.245,0.344c0.04,0.264,0.202,0.377,0.437,0.451c0.41,0.129,0.82,0.232,1.254,0.217
	c0.202-0.008,0.203,0.006,0.188-0.199c-0.021-0.295-0.168-0.537-0.347-0.762c-0.02-0.025-0.061-0.047-0.091-0.045
	c-0.098,0-0.196,0.008-0.292,0.021c-0.031,0.006-0.059,0.035-0.084,0.059c-0.048,0.041-0.094,0.088-0.144,0.135
	c-0.016,0.016-0.036,0.014-0.045-0.002c-0.008-0.01-0.013-0.02-0.016-0.027c-0.068-0.172-0.068-0.174-0.244-0.174
	c-0.132,0-0.234-0.066-0.294-0.166c-0.138-0.229-0.26-0.465-0.38-0.703c-0.017-0.033-0.002-0.094,0.018-0.131
	c0.037-0.063,0.083-0.125,0.137-0.176c0.032-0.029,0.085-0.047,0.13-0.047c0.398-0.016,0.796-0.014,1.192-0.041
	c0.361-0.025,0.72-0.072,1.079-0.115c0.045-0.004,0.101-0.026,0.128-0.057c0.094-0.11,0.2-0.108,0.318-0.054
	c0.23,0.109,0.456,0.222,0.69,0.324c0.335,0.141,0.679,0.266,1.016,0.406c0.646,0.271,1.34,0.35,2.016,0.502
	c0.143,0.031,0.29,0.043,0.437,0.059c0.065,0.006,0.113,0.035,0.13,0.098c0.023,0.088,0.055,0.178,0.055,0.266
	c0.001,0.322,0.095,0.615,0.253,0.893c0.055,0.096,0.108,0.195,0.146,0.297c0.083,0.229,0.045,0.441-0.11,0.633
	c-0.303,0.369-0.658,0.686-1.018,0.998c-0.11,0.096-0.222,0.191-0.324,0.297c-0.036,0.037-0.063,0.094-0.065,0.145
	c-0.021,0.291-0.051,0.578-0.14,0.859c-0.063,0.197,0.023,0.375,0.104,0.547c0.068,0.15,0.141,0.297,0.221,0.463
	c0.009,0.02,0.028,0.023,0.043,0.008c0.091-0.1,0.176-0.184,0.25-0.277c0.153-0.191,0.253-0.412,0.316-0.646
	c0.02-0.072,0.005-0.156-0.012-0.23c-0.021-0.096-0.065-0.184-0.084-0.277c-0.006-0.033,0.03-0.1,0.061-0.109
	c0.122-0.039,0.166-0.141,0.235-0.23c0.133-0.174,0.287-0.328,0.437-0.486c0.16-0.17,0.352-0.297,0.561-0.404
	c0.223-0.115,0.436-0.25,0.646-0.385c0.053-0.033,0.088-0.096,0.13-0.154c0.013-0.018,0.04-0.023,0.06-0.014
	c0.166,0.082,0.291,0.227,0.376,0.424c0.171,0.387,0.102,0.752-0.076,1.109c-0.161,0.324-0.339,0.639-0.511,0.957
	c-0.104,0.195-0.272,0.33-0.449,0.455c-0.049,0.035-0.102,0.076-0.134,0.125c-0.229,0.346-0.409,0.717-0.578,1.094
	c-0.045,0.1-0.037,0.131,0.073,0.145c0.139,0.02,0.279,0.023,0.42,0.016c0.238-0.01,0.464-0.068,0.651-0.229
	c0.143-0.121,0.224-0.27,0.208-0.463c-0.001-0.008,0-0.018-0.003-0.029c-0.038-0.174,0.007-0.293,0.198-0.352
	c0.146-0.045,0.224-0.178,0.287-0.307c0.186-0.373,0.357-0.754,0.549-1.123c0.147-0.291,0.313-0.574,0.477-0.855
	c0.107-0.186,0.221-0.367,0.339-0.547c0.114-0.176,0.084-0.332-0.022-0.498c-0.142-0.223-0.268-0.455-0.401-0.682
	c-0.119-0.201-0.064-0.408,0.061-0.559c0.32-0.387,0.468-0.857,0.688-1.289c0.018-0.035,0.027-0.072,0.045-0.107
	c0.01-0.02,0.018-0.018,0.016,0.004c-0.004,0.025-0.007,0.049-0.006,0.072c0.014,0.303,0.032,0.605,0.042,0.91
	c0.003,0.143-0.025,0.289-0.01,0.43c0.022,0.215,0.072,0.424,0.11,0.635c0.009,0.047,0.018,0.096,0.036,0.143
	c0.007,0.02,0.013,0.018,0.01-0.004c-0.002-0.025-0.005-0.055-0.008-0.08c-0.002-0.021,0.001-0.021,0.007,0
	c0.082,0.342,0.158,0.686,0.346,0.99c0.012,0.02,0.015,0.018,0.009-0.004c-0.004-0.01-0.006-0.018-0.01-0.027
	c-0.007-0.02-0.002-0.023,0.012-0.006c0.106,0.131,0.21,0.258,0.325,0.4c0.014,0.016,0.028,0.014,0.033-0.008
	c0.002-0.012,0.004-0.023,0.006-0.033c0.005-0.021,0.023-0.033,0.044-0.023c0.051,0.023,0.099,0.043,0.144,0.07
	c0.05,0.029,0.096,0.07,0.145,0.111c0.017,0.014,0.029,0.014,0.029-0.002c0-0.014,0.007-0.027,0.016-0.023
	c0.006,0.002,0.009,0.004,0.014,0.008c0.238,0.193,0.446,0.416,0.61,0.68c0.109,0.174,0.251,0.334,0.406,0.469
	c0.06,0.049,0.107,0.109,0.172,0.154c0.019,0.014,0.023,0.008,0.013-0.012c-0.016-0.027-0.031-0.053-0.047-0.08
	c-0.011-0.02-0.017-0.037-0.014-0.039c0.004-0.002,0.018,0.008,0.032,0.023c0.041,0.049,0.084,0.1,0.133,0.154
	c0.014,0.018,0.022,0.014,0.019-0.008c-0.001-0.002-0.001-0.004-0.001-0.004c-0.005-0.021,0.006-0.027,0.024-0.016
	c0.104,0.074,0.202,0.145,0.309,0.223c0.018,0.012,0.033,0.004,0.034-0.018c0.003-0.041,0.005-0.072,0.007-0.104
	c0.002-0.02,0.01-0.039,0.018-0.041c0.008,0,0.025,0.012,0.039,0.027c0.004,0.006,0.006,0.01,0.01,0.012
	c0.013,0.018,0.026,0.031,0.029,0.031c0.003-0.002-0.002-0.018-0.01-0.039c-0.015-0.033-0.028-0.068-0.044-0.102
	c-0.008-0.02-0.011-0.039-0.008-0.041c0.005-0.002,0.019,0.01,0.031,0.027c0.022,0.031,0.045,0.061,0.066,0.09
	c0.014,0.016,0.027,0.031,0.029,0.029c0.004-0.002,0.002-0.02-0.003-0.041C20.196,18.135,20.178,18.066,20.158,17.996z"/>
</svg>
