<?xml version="1.0" encoding="utf-8"?>
<!-- Generator: Adobe Illustrator 15.1.0, SVG Export Plug-In . SVG Version: 6.00 Build 0)  -->
<!DOCTYPE svg PUBLIC "-//W3C//DTD SVG 1.1//EN" "http://www.w3.org/Graphics/SVG/1.1/DTD/svg11.dtd">
<svg version="1.1" id="Layer_1" xmlns="http://www.w3.org/2000/svg" xmlns:xlink="http://www.w3.org/1999/xlink" x="0px" y="0px"
	 width="24px" height="24px" viewBox="0 0 24 24" enable-background="new 0 0 24 24" xml:space="preserve">
<path d="M20.871,16.79c-0.208,0-0.29,0.34-0.29,0.756V18.3c0,0.415,0.082,0.755,0.29,0.755c0.207,0,0.289-0.34,0.289-0.755h0.554
	v-0.754H21.16C21.16,17.13,21.078,16.79,20.871,16.79z M19.448,15.658c-0.377,0-0.377,0.339-0.377,0.755v1.133h-3.775v-1.133
	c0-0.416,0-0.755-0.377-0.755c-0.415,0-0.755,0.339-0.755,0.755v3.02c0,0.415,0.34,0.755,0.755,0.755
	c0.377,0,0.377-0.34,0.377-0.755V18.3h3.775v1.133c0,0.415,0,0.755,0.377,0.755c0.416,0,0.755-0.34,0.755-0.755v-3.02
	C20.203,15.997,19.864,15.658,19.448,15.658z M13.496,16.79c0.209,0,0.291,0.34,0.291,0.756V18.3c0,0.415-0.082,0.755-0.291,0.755
	c-0.207,0-0.289-0.34-0.289-0.755h-0.553v-0.754h0.553C13.207,17.13,13.289,16.79,13.496,16.79z M10.503,16.79
	c-0.208,0-0.29,0.34-0.29,0.756V18.3c0,0.415,0.082,0.755,0.29,0.755c0.207,0,0.289-0.34,0.289-0.755h0.554v-0.754h-0.554
	C10.792,17.13,10.71,16.79,10.503,16.79z M9.08,15.658c-0.377,0-0.377,0.339-0.377,0.755v1.133H4.928v-1.133
	c0-0.416,0-0.755-0.377-0.755c-0.415,0-0.755,0.339-0.755,0.755v3.02c0,0.415,0.34,0.755,0.755,0.755
	c0.377,0,0.377-0.34,0.377-0.755V18.3h3.775v1.133c0,0.415,0,0.755,0.377,0.755c0.416,0,0.755-0.34,0.755-0.755v-3.02
	C9.835,15.997,9.496,15.658,9.08,15.658z M3.128,16.79c0.209,0,0.291,0.34,0.291,0.756V18.3c0,0.415-0.082,0.755-0.291,0.755
	c-0.207,0-0.289-0.34-0.289-0.755H2.286v-0.754h0.553C2.839,17.13,2.921,16.79,3.128,16.79z M20.695,6.581
	c-0.492,0-0.685,0.802-0.685,1.781v1.779c0,0.978,0.192,1.779,0.685,1.779c0.487,0,0.681-0.801,0.681-1.779h1.305V8.362h-1.305
	C21.376,7.383,21.183,6.581,20.695,6.581z M17.34,3.912c-0.889,0-0.889,0.8-0.889,1.779v2.671H7.548V5.691
	c0-0.979,0-1.779-0.888-1.779c-0.979,0-1.78,0.8-1.78,1.779v7.121c0,0.978,0.8,1.779,1.78,1.779c0.888,0,0.888-0.802,0.888-1.779
	v-2.671h8.903v2.671c0,0.978,0,1.779,0.889,1.779c0.979,0,1.779-0.802,1.779-1.779V5.691C19.119,4.712,18.319,3.912,17.34,3.912z
	 M3.306,6.581c0.491,0,0.685,0.802,0.685,1.781v1.779c0,0.978-0.193,1.779-0.685,1.779c-0.488,0-0.682-0.801-0.682-1.779H1.319
	V8.362h1.305C2.624,7.383,2.817,6.581,3.306,6.581z"/>
</svg>
