<?xml version="1.0" encoding="utf-8"?>
<!-- Generator: Adobe Illustrator 15.1.0, SVG Export Plug-In . SVG Version: 6.00 Build 0)  -->
<!DOCTYPE svg PUBLIC "-//W3C//DTD SVG 1.1//EN" "http://www.w3.org/Graphics/SVG/1.1/DTD/svg11.dtd">
<svg version="1.1" id="Layer_1" xmlns="http://www.w3.org/2000/svg" xmlns:xlink="http://www.w3.org/1999/xlink" x="0px" y="0px"
	 width="24px" height="24px" viewBox="0 0 24 24" enable-background="new 0 0 24 24" xml:space="preserve">
<path d="M12.943,4.567c0.209-0.277,0.176-0.865,0.146-1.383c-0.001-0.022-0.002-0.044-0.004-0.066
	c-0.293-0.028-0.589-0.043-0.889-0.043c-1.15,0-2.25,0.212-3.266,0.596c0.724,0.348,1.846,0.947,3.092,1.833
	C12.447,5.137,12.769,4.8,12.943,4.567z M17.624,9.838c-0.456,0.052-0.84,0.126-1.168,0.231c1.569,2.741,2.182,6.204,2.331,8.712
	c1.556-1.585,2.543-3.728,2.637-6.1C20.353,11.365,18.933,9.689,17.624,9.838z M8.291,7.472c1.103-0.229,2.14-0.785,2.966-1.371
	C9.533,4.915,8.095,4.298,7.809,4.181C6.021,5.147,4.59,6.688,3.757,8.554c1.082-0.431,2.254-0.65,3.405-0.864
	C7.535,7.621,7.92,7.549,8.291,7.472z M14.676,7.741c0.099,0.099,0.196,0.2,0.295,0.302c0.359,0.378,0.687,0.791,0.984,1.228
	c0.437-0.165,0.95-0.281,1.564-0.351c1.448-0.164,2.735,0.983,3.84,2.246c-0.237-1.914-1.058-3.646-2.281-5.013
	c-0.667,0.08-1.411,0.217-2.171,0.443C16.411,6.745,15.617,7.149,14.676,7.741z M13.461,12.512c0.379-1.284,0.817-2.209,1.668-2.809
	c-0.256-0.367-0.53-0.71-0.827-1.022c-0.139-0.145-0.277-0.284-0.417-0.421c-3.412,2.322-8.084,6.587-8.509,10.284
	c1.418,1.551,3.359,2.615,5.544,2.917c0.796-1.585,1.545-4.804,1.99-6.72C13.124,13.82,13.309,13.026,13.461,12.512z M9.593,10.476
	c1.189-1.096,2.445-2.079,3.594-2.869c-0.382-0.339-0.767-0.651-1.144-0.938c-0.954,0.717-2.204,1.424-3.564,1.707
	C8.098,8.456,7.708,8.528,7.331,8.598c-1.452,0.27-2.847,0.532-4.02,1.186c-0.229,0.804-0.354,1.652-0.354,2.528
	c0,1.963,0.614,3.781,1.657,5.277C5.291,14.912,7.608,12.305,9.593,10.476z M13.983,7.08c1.099-0.701,2.046-1.185,2.66-1.369
	c0.552-0.164,1.094-0.285,1.606-0.372c-1.185-1.03-2.634-1.764-4.231-2.083c0.034,0.646,0.051,1.354-0.338,1.868
	c-0.184,0.244-0.497,0.58-0.902,0.943C13.176,6.376,13.58,6.713,13.983,7.08z M14.346,12.773c-0.144,0.487-0.326,1.27-0.536,2.177
	c-0.622,2.673-1.216,5.066-1.91,6.591c0.098,0.004,0.196,0.01,0.296,0.01c2.153,0,4.132-0.738,5.702-1.975
	c-0.062-2.626-0.69-6.338-2.276-9.094C15.007,10.938,14.676,11.657,14.346,12.773z"/>
</svg>
