<?xml version="1.0" encoding="utf-8"?>
<!-- Generator: Adobe Illustrator 15.1.0, SVG Export Plug-In . SVG Version: 6.00 Build 0)  -->
<!DOCTYPE svg PUBLIC "-//W3C//DTD SVG 1.1//EN" "http://www.w3.org/Graphics/SVG/1.1/DTD/svg11.dtd">
<svg version="1.1" id="Layer_1" xmlns="http://www.w3.org/2000/svg" xmlns:xlink="http://www.w3.org/1999/xlink" x="0px" y="0px"
	 width="24px" height="24px" viewBox="0 0 24 24" enable-background="new 0 0 24 24" xml:space="preserve">
<path d="M12.018,2.794c-5.046,0-9.137,4.09-9.137,9.138c0,5.044,4.09,9.135,9.137,9.135c5.045,0,9.134-4.091,9.134-9.135
	C21.151,6.884,17.063,2.794,12.018,2.794z M12.019,17.172c-2.883,0-5.219-2.334-5.219-5.219c0-2.885,2.336-5.22,5.219-5.22
	c2.885,0,5.222,2.335,5.222,5.22C17.24,14.837,14.903,17.172,12.019,17.172z M13.123,11.686v-0.032c0.769-0.38,1.085-1,1.085-1.595
	c0-0.867-0.683-1.778-2.214-1.778c-1.333,0-2.355,0.781-2.355,1.931c0,0.618,0.337,1.205,1.075,1.56v0.034
	c-0.813,0.359-1.323,0.955-1.323,1.823c0,0.987,0.856,1.941,2.506,1.941c1.508,0,2.571-0.848,2.571-2.104
	C14.469,12.587,13.892,11.979,13.123,11.686z M11.93,9.202c0.715,0,1.009,0.511,1.009,0.999c0,0.532-0.391,0.921-0.878,1.063
	c-0.674-0.185-1.151-0.531-1.151-1.107C10.909,9.647,11.256,9.202,11.93,9.202z M11.941,14.626c-0.749,0-1.205-0.543-1.183-1.149
	c0-0.573,0.381-1.041,1.041-1.227c0.792,0.218,1.312,0.61,1.312,1.326C13.111,14.182,12.645,14.626,11.941,14.626z"/>
</svg>
