<?xml version="1.0" encoding="utf-8"?>
<!-- Generator: Adobe Illustrator 15.1.0, SVG Export Plug-In . SVG Version: 6.00 Build 0)  -->
<!DOCTYPE svg PUBLIC "-//W3C//DTD SVG 1.1//EN" "http://www.w3.org/Graphics/SVG/1.1/DTD/svg11.dtd">
<svg version="1.1" id="Layer_1" xmlns="http://www.w3.org/2000/svg" xmlns:xlink="http://www.w3.org/1999/xlink" x="0px" y="0px"
	 width="24px" height="24px" viewBox="0 0 24 24" enable-background="new 0 0 24 24" xml:space="preserve">
<path d="M8.418,9.253H5.757c0,0-1.769,3.318-1.769,6.166c0,1.514,0.644,4.022,0.649,4.022c0.462,1.837,0.79,1.693,2.536,1.693
	c1.609,0,2.066,0.145,2.43-1.691c-0.008,0.008,0.552-2.485,0.552-4.023C10.156,12.318,8.418,9.253,8.418,9.253z M8.31,7.167
	c0,0,0.427-1.412,0.427-2.28s-0.44-2.164-1.619-2.164S5.395,4.006,5.395,4.874s0.466,2.293,0.466,2.293H8.31z M8.206,8.527V7.801
	H5.939v0.727H8.206L8.206,8.527z M14.742,9.82c-2.928,0-5.301,2.373-5.301,5.302c0,2.927,2.373,5.3,5.301,5.3
	c2.928,0,5.301-2.373,5.301-5.3C20.043,12.193,17.67,9.82,14.742,9.82z M13.965,13.849c-0.352,0-0.637-0.285-0.637-0.636
	c0-0.352,0.285-0.636,0.637-0.636s0.635,0.284,0.635,0.636C14.6,13.563,14.316,13.849,13.965,13.849z M15.025,11.799
	c0-0.352,0.283-0.636,0.635-0.636s0.637,0.284,0.637,0.636c0,0.353-0.285,0.636-0.637,0.636S15.025,12.151,15.025,11.799z
	 M16.227,14.909c-0.469,0-0.848-0.38-0.848-0.848c0-0.469,0.379-0.849,0.848-0.849c0.467,0,0.848,0.38,0.848,0.849
	C17.074,14.529,16.693,14.909,16.227,14.909z"/>
</svg>
