<?xml version="1.0" encoding="utf-8"?>
<!-- Generator: Adobe Illustrator 15.1.0, SVG Export Plug-In . SVG Version: 6.00 Build 0)  -->
<!DOCTYPE svg PUBLIC "-//W3C//DTD SVG 1.1//EN" "http://www.w3.org/Graphics/SVG/1.1/DTD/svg11.dtd">
<svg version="1.1" id="Layer_1" xmlns="http://www.w3.org/2000/svg" xmlns:xlink="http://www.w3.org/1999/xlink" x="0px" y="0px"
	 width="24px" height="24px" viewBox="0 0 24 24" enable-background="new 0 0 24 24" xml:space="preserve">
<path d="M22.977,18.412c0.236-0.785,0.174-1.447-0.186-1.969c-0.686-0.99-2.207-1.117-2.496-1.133l-0.568-0.307l-0.039-0.015
	c-0.631-0.181-3.01-0.253-3.367-0.263c-0.563-0.277-1.029-0.537-1.441-0.767c-1.447-0.804-2.404-1.335-5.14-1.335
	c-3.314,0-6.019,1.437-6.382,1.637c-0.198,0.016-0.373,0.029-0.539,0.043l-0.455-0.616l0.517,0.055
	c0.205,0.022,0.3-0.087,0.213-0.243c-0.087-0.156-0.324-0.301-0.529-0.322L0.877,13c-0.205-0.021-0.301,0.088-0.213,0.244
	c0.087,0.156,0.324,0.299,0.529,0.321l0.259,0.027l0.575,0.778c-0.974,0.092-0.974,0.15-0.974,0.309
	c0,1.291-0.165,1.588-0.199,1.646l-0.268-0.214v1.34l0.159,0.203c-0.007,0.195,0.058,0.375,0.188,0.523
	c0.421,0.479,1.389,0.493,1.498,0.493c0.326,0,1-0.167,1.463-0.293C3.863,18.323,3.83,18.27,3.804,18.21
	c-0.025-0.057-0.042-0.117-0.062-0.178c-0.057-0.175-0.097-0.358-0.097-0.553c0-0.991,0.807-1.797,1.798-1.797
	c0.99,0,1.798,0.806,1.798,1.798c0,0.427-0.156,0.815-0.406,1.124c-0.054,0.066-0.108,0.129-0.169,0.187
	c-0.072,0.067-0.147,0.131-0.229,0.186c2.066,0.008,7.902,0.037,11.884,0.125c-0.059-0.058-0.107-0.125-0.156-0.19
	c-0.047-0.061-0.088-0.123-0.125-0.188c-0.152-0.264-0.246-0.565-0.246-0.893c0-0.99,0.807-1.797,1.797-1.797
	s1.797,0.807,1.797,1.797c0,0.361-0.107,0.696-0.291,0.978c-0.043,0.065-0.094,0.124-0.145,0.184
	c-0.055,0.064-0.113,0.125-0.178,0.182c0.367,0.011,0.684,0.017,0.953,0.017c1.379,0,1.648-0.119,1.682-0.354
	C23.42,18.765,23.445,18.588,22.977,18.412z M21.58,4.175c-0.146-1.097-3.578-0.413-3.578-0.413l-0.344,1.032l-2.443,0.362
	c-0.315-0.503-0.673-0.937-1.066-1.188c-1.525-0.978-4.094,0.792-4.094,0.792s2.657-2.831,0.729-1.934
	C4.685,5.958,7.13,6.48,7.13,6.48h1.715L8.572,6.922c-0.273-0.12-0.573-0.187-0.891-0.187c-1.228,0-2.224,0.996-2.224,2.224
	c0,1.228,0.996,2.224,2.224,2.224s2.224-0.996,2.224-2.223c0-0.689-0.313-1.306-0.806-1.713l0.235-0.381l0.96,2.643h1.411h0.206
	h4.301h0.532c0.245,0.962,1.115,1.675,2.152,1.675c1.229,0,2.224-0.996,2.224-2.223c0-1.228-0.994-2.224-2.223-2.224
	c-1.123,0-2.047,0.833-2.199,1.913h-0.022c0,0-0.193-0.716-0.54-1.6C17.292,6.663,21.708,5.128,21.58,4.175z M7.683,10.358
	c-0.771,0-1.397-0.627-1.397-1.398c0-0.771,0.627-1.398,1.397-1.398c0.157,0,0.309,0.027,0.45,0.076l-0.714,1.16l0.527,0.325
	L8.66,7.961c0.259,0.254,0.42,0.607,0.42,0.998C9.08,9.73,8.453,10.358,7.683,10.358z M10.463,9.167L9.646,6.697l0.332-0.11
	l0.816,2.469L10.463,9.167z M18.898,7.561c0.771,0,1.397,0.628,1.397,1.398c0,0.771-0.626,1.398-1.397,1.398
	c-0.577,0-1.073-0.351-1.286-0.85h1.696v-0.86h-1.772C17.679,8.027,18.234,7.561,18.898,7.561z"/>
</svg>
