<?xml version="1.0" encoding="utf-8"?>
<!-- Generator: Adobe Illustrator 15.1.0, SVG Export Plug-In . SVG Version: 6.00 Build 0)  -->
<!DOCTYPE svg PUBLIC "-//W3C//DTD SVG 1.1//EN" "http://www.w3.org/Graphics/SVG/1.1/DTD/svg11.dtd">
<svg version="1.1" id="Layer_1" xmlns="http://www.w3.org/2000/svg" xmlns:xlink="http://www.w3.org/1999/xlink" x="0px" y="0px"
	 width="24px" height="24px" viewBox="0 0 24 24" enable-background="new 0 0 24 24" xml:space="preserve">
<path d="M8.803,3.874c-1.055,0.427-2,1.057-2.811,1.867c-0.813,0.812-1.44,1.757-1.868,2.812C3.711,9.57,3.502,10.646,3.502,11.75
	c0,1.103,0.209,2.179,0.622,3.197c0.428,1.055,1.055,2.001,1.868,2.812c0.811,0.812,1.756,1.438,2.811,1.867
	c1.018,0.413,2.094,0.622,3.197,0.622c1.104,0,2.18-0.211,3.198-0.622c1.053-0.429,2-1.056,2.811-1.867
	c0.812-0.811,1.439-1.757,1.867-2.812c0.412-1.018,0.622-2.094,0.622-3.197c0-1.104-0.21-2.18-0.622-3.198
	c-0.428-1.055-1.056-2-1.867-2.812c-0.811-0.81-1.757-1.439-2.811-1.867C14.18,3.461,13.104,3.252,12,3.252
	C10.897,3.252,9.821,3.461,8.803,3.874z M5.626,15.328c-0.41-0.256-0.786-0.554-1.121-0.902c-0.51-1.434-0.597-2.989-0.258-4.464
	c0.159-0.313,0.34-0.615,0.544-0.904C4.854,8.97,4.913,8.877,4.98,8.791l1.918,1.135c0,0.015,0,0.031,0,0.048
	c-0.005,1.031,0.1,2.056,0.308,3.063c0,0.005,0.001,0.008,0.002,0.013l-1.487,2.331C5.689,15.366,5.657,15.347,5.626,15.328z
	 M11.328,19.27c0.332,0.17,0.671,0.311,1.021,0.428c-1.486,0.065-2.986-0.284-4.313-1.045l3.216,0.573
	C11.276,19.24,11.301,19.258,11.328,19.27z M11.316,18.69l-3.793-0.678c-0.444-0.538-0.843-1.107-1.187-1.719
	c-0.087-0.155-0.184-0.306-0.258-0.467l1.485-2.33c0.033,0.01,0.07,0.017,0.111,0.028c0.93,0.249,1.875,0.426,2.828,0.565
	c0.056,0.007,0.103,0.014,0.143,0.02l1.782,3.077c-0.31,0.435-0.623,0.869-0.942,1.294C11.432,18.554,11.375,18.62,11.316,18.69z
	 M17.628,17.379c-0.302,0.302-0.622,0.573-0.958,0.816c-0.056-0.446-0.152-0.881-0.286-1.308l1.899-3.544
	c0.522-0.239,1.027-0.51,1.497-0.845c0.061-0.043,0.112-0.091,0.151-0.144C19.794,14.187,19.026,15.979,17.628,17.379z
	 M17.543,12.779c0.071,0.137,0.141,0.272,0.211,0.409l-1.835,3.424c-0.011,0.003-0.021,0.006-0.031,0.008
	c-0.992,0.185-1.992,0.282-3.001,0.287l-1.832-3.167c0.285-0.528,0.566-1.062,0.846-1.592c0.191-0.36,0.377-0.724,0.564-1.086
	l3.792-0.389C16.722,11.353,17.161,12.048,17.543,12.779z M16.774,8.718c-0.18,0.476-0.372,0.945-0.563,1.417l-3.694,0.379
	c-0.042-0.059-0.089-0.116-0.138-0.171c-0.436-0.493-0.874-0.984-1.313-1.477c0.004-0.005,0.008-0.008,0.012-0.013
	c-0.177-0.177-0.354-0.354-0.531-0.53l1.028-3.096c0.071-0.019,0.142-0.035,0.214-0.042c0.559-0.058,1.119-0.122,1.678-0.155
	c0.344-0.019,0.688-0.03,1.038-0.004l2.543,2.867C16.962,8.17,16.876,8.448,16.774,8.718z M17.628,6.122
	c0.702,0.702,1.246,1.504,1.629,2.359c-0.475-0.327-0.983-0.596-1.517-0.816c-0.084-0.033-0.169-0.064-0.255-0.095L14.98,4.75
	c0.017-0.122,0.026-0.244,0.03-0.367C15.963,4.77,16.855,5.35,17.628,6.122z M9.451,4.234C9.46,4.241,9.465,4.247,9.472,4.25
	c0.572,0.197,1.094,0.489,1.584,0.834l-0.961,2.893c-0.005,0.001-0.01,0.003-0.015,0.005c-0.196,0.082-0.397,0.154-0.59,0.242
	C8.693,8.585,7.916,8.987,7.183,9.469L5.288,8.347c0.003-0.059,0.014-0.119,0.034-0.173c0.127-0.339,0.252-0.681,0.396-1.012
	c0.111-0.256,0.237-0.503,0.375-0.746c0.09-0.099,0.184-0.197,0.28-0.294c0.9-0.9,1.964-1.539,3.097-1.917
	C9.463,4.214,9.458,4.224,9.451,4.234z"/>
</svg>
