<?xml version="1.0" encoding="utf-8"?>
<!-- Generator: Adobe Illustrator 15.1.0, SVG Export Plug-In . SVG Version: 6.00 Build 0)  -->
<!DOCTYPE svg PUBLIC "-//W3C//DTD SVG 1.1//EN" "http://www.w3.org/Graphics/SVG/1.1/DTD/svg11.dtd">
<svg version="1.1" id="Layer_1" xmlns="http://www.w3.org/2000/svg" xmlns:xlink="http://www.w3.org/1999/xlink" x="0px" y="0px"
	 width="24px" height="24px" viewBox="0 0 24 24" enable-background="new 0 0 24 24" xml:space="preserve">
<path d="M9.042,10.375l8.803-3.792L8.365,2.52v4.401v11.85h0.677V10.375z M11.412,15.386c-0.609,0-1.151,0-1.692,0.067v2.167
	c0.406,0.203,0.677,0.474,0.677,0.812c0,0.542-0.745,1.017-1.693,1.017c-0.948,0-1.693-0.475-1.693-1.017
	c0-0.338,0.271-0.608,0.678-0.812v-1.896c-2.438,0.542-4.063,1.49-4.063,2.708c0,1.694,3.454,3.048,7.787,3.048
	c4.333,0,7.787-1.354,7.787-3.048C19.198,16.739,15.745,15.386,11.412,15.386z M14.12,18.771c-0.542,0-1.016-0.271-1.016-0.677
	s0.474-0.677,1.016-0.677s1.016,0.271,1.016,0.677S14.662,18.771,14.12,18.771z"/>
</svg>
