<?xml version="1.0" encoding="utf-8"?>
<!-- Generator: Adobe Illustrator 15.1.0, SVG Export Plug-In . SVG Version: 6.00 Build 0)  -->
<!DOCTYPE svg PUBLIC "-//W3C//DTD SVG 1.1//EN" "http://www.w3.org/Graphics/SVG/1.1/DTD/svg11.dtd">
<svg version="1.1" id="Layer_1" xmlns="http://www.w3.org/2000/svg" xmlns:xlink="http://www.w3.org/1999/xlink" x="0px" y="0px"
	 width="24px" height="24px" viewBox="0 0 24 24" enable-background="new 0 0 24 24" xml:space="preserve">
<path d="M21.634,16.015c0,2.117-1.782,3.896-3.896,3.896s-3.896-1.779-3.896-3.896c0-0.667,0.334-2.001,1.447-2.782l1.002,2.672
	l-1.113-0.668c-0.78,2.228,1.002,3.784,2.56,3.784c1.56,0,2.449-1.336,2.449-3.006c0-2.456-2.765-4.409-2.984-8.502
	c-0.339-0.192-0.577-0.54-0.577-0.958c0-0.613,0.498-1.112,1.112-1.112c0.615,0,1.112,0.499,1.112,1.112
	c0,0.304-0.121,0.577-0.318,0.778C18.688,11.439,21.634,13.415,21.634,16.015z M6.222,17.166v1.091l1.217-0.686
	c0.439,0.101,0.854,0.152,1.242,0.152c0.778,0,1.552-0.148,2.321-0.444c0.769-0.295,1.353-0.596,1.75-0.9
	c0.397-0.304,0.596-0.516,0.596-0.635c0-0.084-0.152-0.248-0.457-0.493c-0.304-0.245-0.756-0.511-1.356-0.8
	c-0.601-0.287-1.221-0.481-1.863-0.582l-2.359-1.192v1.293c-1.014,0.287-1.944,0.745-2.79,1.37l-1.927-1.37
	c-0.067-0.05-0.122-0.063-0.164-0.038c-0.043,0.025-0.064,0.072-0.064,0.141c0.051,0.084,0.11,0.189,0.178,0.316
	c0.067,0.126,0.152,0.342,0.253,0.646S2.95,15.59,2.95,15.783c0,0.194-0.046,0.431-0.139,0.71c-0.093,0.278-0.19,0.503-0.292,0.673
	l-0.152,0.278c0,0.067,0.025,0.114,0.077,0.14c0.05,0.025,0.101,0.013,0.151-0.038l1.927-1.369
	C4.591,16.227,5.156,16.557,6.222,17.166z M10.875,15.148c0.11-0.109,0.242-0.164,0.394-0.164c0.152,0,0.282,0.055,0.393,0.164
	c0.11,0.111,0.165,0.242,0.165,0.395s-0.055,0.283-0.165,0.393c-0.11,0.11-0.24,0.165-0.393,0.165c-0.152,0-0.283-0.055-0.394-0.165
	c-0.109-0.109-0.164-0.24-0.164-0.393S10.765,15.26,10.875,15.148z"/>
</svg>
