<?xml version="1.0" encoding="utf-8"?>
<!-- Generator: Adobe Illustrator 15.1.0, SVG Export Plug-In . SVG Version: 6.00 Build 0)  -->
<!DOCTYPE svg PUBLIC "-//W3C//DTD SVG 1.1//EN" "http://www.w3.org/Graphics/SVG/1.1/DTD/svg11.dtd">
<svg version="1.1" id="Layer_1" xmlns="http://www.w3.org/2000/svg" xmlns:xlink="http://www.w3.org/1999/xlink" x="0px" y="0px"
	 width="24px" height="24px" viewBox="0 0 24 24" enable-background="new 0 0 24 24" xml:space="preserve">
<path fill="#010002" d="M14.251,16.219L13.916,16.1l0.175-0.495c-0.141-0.055-0.285-0.121-0.424-0.197l-0.237,0.417l-0.31-0.177
	l0.243-0.429c-0.157-0.108-0.307-0.231-0.449-0.368l-0.34,0.339l-0.25-0.255l0.345-0.341c-0.126-0.145-0.235-0.296-0.329-0.45
	l-0.458,0.209l-0.146-0.325l0.433-0.197c-0.063-0.128-0.116-0.26-0.161-0.391l-0.587,0.137l-0.082-0.349l0.575-0.135
	c-0.012-0.068-0.023-0.137-0.032-0.205c-0.593,0.055-1.171,0.31-1.627,0.766C9.8,14.107,9.542,14.688,9.489,15.28
	c0.095,0.012,0.193,0.03,0.292,0.052l0.204-0.573l0.335,0.121l-0.197,0.555c0.142,0.051,0.279,0.111,0.419,0.186l0.263-0.467
	l0.312,0.177l-0.269,0.474c0.155,0.104,0.305,0.221,0.447,0.352l0.368-0.365l0.249,0.254l-0.366,0.365
	c0.125,0.14,0.235,0.285,0.332,0.435l0.477-0.218l0.149,0.325l-0.442,0.202c0.067,0.128,0.119,0.258,0.167,0.387l0.587-0.137
	l0.083,0.348l-0.567,0.133c0.021,0.097,0.04,0.19,0.05,0.287c0.594-0.056,1.174-0.31,1.628-0.766
	c0.454-0.455,0.71-1.034,0.766-1.628c-0.111-0.013-0.227-0.037-0.341-0.064L14.251,16.219z M12.212,12.877
	c0.005,0.047,0.016,0.094,0.025,0.142l0.329-0.077l0.081,0.348l-0.318,0.074c0.042,0.11,0.084,0.221,0.139,0.329l0.412-0.188
	l0.149,0.326l-0.387,0.174c0.079,0.121,0.166,0.24,0.261,0.354l0.315-0.309l0.25,0.252l-0.314,0.316
	c0.117,0.114,0.243,0.219,0.374,0.313l0.211-0.378l0.313,0.176l-0.222,0.392c0.125,0.067,0.247,0.126,0.371,0.176l0.137-0.382
	l0.337,0.119l-0.131,0.369c0.081,0.019,0.162,0.035,0.239,0.045c-0.018-0.652-0.275-1.299-0.774-1.796
	C13.513,13.154,12.864,12.895,12.212,12.877z M11.672,18.035l-0.083-0.349l0.314-0.073c-0.038-0.108-0.086-0.217-0.142-0.325
	l-0.402,0.184l-0.147-0.324l0.363-0.165c-0.078-0.116-0.167-0.23-0.265-0.341l-0.288,0.288l-0.252-0.254l0.288-0.286
	c-0.117-0.111-0.243-0.21-0.371-0.298l-0.188,0.334l-0.312-0.176l0.194-0.345c-0.121-0.063-0.244-0.117-0.367-0.162l-0.113,0.32
	l-0.337-0.119l0.109-0.303c-0.062-0.013-0.131-0.025-0.191-0.034c0.021,0.653,0.28,1.299,0.775,1.796
	c0.496,0.499,1.144,0.757,1.796,0.776c-0.009-0.073-0.023-0.148-0.04-0.223L11.672,18.035z M15.174,4.471
	c-0.65,0.264-1.234,0.652-1.734,1.152c-0.501,0.501-0.888,1.084-1.152,1.735c-0.255,0.628-0.384,1.292-0.384,1.973
	c0,0.681,0.129,1.345,0.384,1.973c0.264,0.649,0.651,1.233,1.152,1.733c0.5,0.502,1.084,0.889,1.734,1.152
	c0.628,0.256,1.292,0.385,1.973,0.385c0.682,0,1.345-0.129,1.974-0.385c0.65-0.264,1.234-0.65,1.734-1.152
	c0.501-0.5,0.889-1.082,1.152-1.733c0.255-0.628,0.383-1.292,0.383-1.973c0-0.681-0.128-1.345-0.383-1.973
	c-0.264-0.65-0.652-1.234-1.152-1.735c-0.5-0.5-1.084-0.888-1.734-1.152c-0.629-0.254-1.292-0.384-1.974-0.384
	C16.466,4.087,15.802,4.217,15.174,4.471z M13.214,11.538c-0.253-0.158-0.485-0.341-0.691-0.556
	c-0.314-0.885-0.368-1.844-0.159-2.754c0.098-0.194,0.21-0.379,0.336-0.558c0.039-0.055,0.074-0.112,0.116-0.166l1.184,0.701
	c0,0.009,0,0.019,0,0.029c-0.003,0.636,0.062,1.269,0.189,1.891c0.001,0.003,0.002,0.004,0.002,0.007l-0.918,1.439
	C13.253,11.561,13.233,11.55,13.214,11.538z M16.731,13.971c0.204,0.104,0.415,0.191,0.631,0.264
	c-0.917,0.039-1.842-0.176-2.661-0.646l1.983,0.355C16.7,13.953,16.716,13.961,16.731,13.971z M16.726,13.611l-2.341-0.418
	c-0.274-0.33-0.521-0.682-0.732-1.058c-0.055-0.096-0.114-0.189-0.16-0.289l0.917-1.438c0.021,0.005,0.043,0.011,0.068,0.017
	c0.574,0.153,1.158,0.263,1.745,0.349c0.034,0.004,0.063,0.009,0.087,0.012l1.101,1.899c-0.191,0.27-0.385,0.535-0.581,0.799
	C16.796,13.527,16.762,13.57,16.726,13.611z M20.62,12.803c-0.187,0.186-0.385,0.355-0.592,0.506
	c-0.034-0.277-0.094-0.545-0.177-0.809l1.172-2.186c0.323-0.147,0.634-0.313,0.924-0.521c0.037-0.027,0.068-0.057,0.094-0.089
	C21.956,10.834,21.481,11.94,20.62,12.803z M20.566,9.966c0.044,0.083,0.088,0.167,0.131,0.252l-1.132,2.113
	c-0.008,0.001-0.014,0.001-0.021,0.003c-0.611,0.114-1.229,0.175-1.852,0.179l-1.13-1.955c0.175-0.327,0.35-0.654,0.522-0.983
	c0.117-0.223,0.233-0.447,0.348-0.67l2.34-0.241C20.061,9.086,20.332,9.515,20.566,9.966z M20.093,7.46
	c-0.11,0.293-0.23,0.583-0.349,0.874l-2.278,0.234c-0.027-0.036-0.056-0.071-0.085-0.104c-0.27-0.305-0.539-0.608-0.811-0.912
	c0.003-0.003,0.006-0.005,0.007-0.008c-0.108-0.109-0.218-0.218-0.326-0.328l0.634-1.909c0.044-0.012,0.088-0.022,0.132-0.026
	c0.346-0.035,0.69-0.075,1.036-0.095c0.213-0.012,0.425-0.019,0.64-0.003l1.57,1.769C20.208,7.122,20.156,7.293,20.093,7.46z
	 M20.62,5.858c0.432,0.433,0.768,0.927,1.005,1.456c-0.294-0.202-0.607-0.368-0.937-0.503c-0.052-0.021-0.104-0.04-0.158-0.059
	l-1.544-1.741c0.011-0.076,0.016-0.15,0.019-0.226C19.593,5.024,20.144,5.383,20.62,5.858z M15.574,4.693
	c0.006,0.005,0.009,0.008,0.013,0.009c0.353,0.123,0.675,0.302,0.978,0.515l-0.593,1.784c-0.004,0.001-0.006,0.002-0.01,0.004
	c-0.121,0.05-0.244,0.094-0.363,0.149c-0.492,0.223-0.972,0.471-1.424,0.767l-1.169-0.691c0.001-0.036,0.008-0.073,0.021-0.106
	c0.078-0.209,0.154-0.42,0.244-0.625c0.068-0.158,0.146-0.31,0.231-0.459c0.056-0.061,0.113-0.123,0.173-0.182
	c0.556-0.555,1.211-0.95,1.91-1.183C15.581,4.681,15.578,4.688,15.574,4.693z M6.76,14.906c2.84,0,5.143-2.303,5.143-5.144
	S9.6,4.619,6.76,4.619c-2.841,0-5.144,2.303-5.144,5.144S3.919,14.906,6.76,14.906z M6.892,14.159
	c-0.056,0.098-0.104,0.179-0.135,0.229c-0.01,0.017-0.024,0.03-0.042,0.04L6.658,14.46c-0.016,0.009-0.035,0.014-0.053,0.014
	c-0.001,0-0.001,0-0.002,0c-0.1-0.002-0.171-0.005-0.211-0.008c-0.504-0.043-0.987-0.159-1.435-0.346
	c-0.053-0.022-0.08-0.081-0.063-0.135l0.039-0.126c0.017-0.055,0.072-0.088,0.129-0.075c0.392,0.083,0.804,0.125,1.224,0.125
	c0.145,0,0.293-0.004,0.442-0.014c0.041-0.003,0.08,0.017,0.102,0.051l0.062,0.101C6.912,14.081,6.912,14.124,6.892,14.159z
	 M9.27,12.986c-0.086,0.206-0.244,0.519-0.331,0.688c-0.011,0.021-0.027,0.037-0.047,0.047c-0.207,0.108-0.754,0.327-1.343,0.449
	c-0.007,0.002-0.015,0.002-0.022,0.002c-0.035,0-0.067-0.017-0.089-0.044c-0.025-0.035-0.029-0.081-0.008-0.12
	c0.042-0.075,0.078-0.145,0.108-0.211c0.491-1.053,0.541-2.112,0.147-3.148C7.56,10.32,7.375,10.012,7.133,9.735
	C7.106,9.703,7.099,9.658,7.115,9.62c0.186-0.445,0.521-0.893,0.941-1.26C8.078,8.34,8.107,8.33,8.137,8.332
	c0.03,0.003,0.057,0.017,0.076,0.04c0.089,0.106,0.182,0.22,0.268,0.336c0.507,0.688,0.841,1.425,0.993,2.188
	C9.618,11.617,9.549,12.32,9.27,12.986z M10.888,11.596c-0.105,0.334-0.222,0.514-0.403,0.769c-0.109,0.155-0.221,0.292-0.343,0.426
	c-0.021,0.023-0.051,0.036-0.082,0.036c-0.018,0-0.036-0.005-0.053-0.014c-0.044-0.024-0.067-0.075-0.054-0.125
	c0.028-0.104,0.052-0.212,0.071-0.319c0.18-0.99,0.005-2.005-0.52-3.015C9.504,9.354,9.503,9.353,9.502,9.351
	c-0.179-0.377-0.526-0.898-0.79-1.246C8.692,8.079,8.685,8.044,8.694,8.011c0.008-0.033,0.031-0.06,0.062-0.074
	c0.447-0.197,0.808-0.279,1.032-0.313c0.039-0.006,0.079,0.01,0.103,0.041c0.457,0.581,0.772,1.246,0.968,2.034
	C11.047,10.458,11.056,11.061,10.888,11.596z M10.354,7.566l0.055-0.104c0.019-0.036,0.056-0.059,0.097-0.059
	c0.088,0,0.179,0,0.266,0.001c0.02,0,0.039,0.006,0.055,0.016l0.057,0.034c0.017,0.01,0.031,0.024,0.04,0.041
	c0.034,0.06,0.078,0.141,0.099,0.187c0.218,0.456,0.36,0.932,0.425,1.413c0.006,0.051-0.015,0.169-0.153,0.201
	c-0.138,0.031-0.178-0.085-0.19-0.122C10.935,8.663,10.686,8.16,10.36,7.68C10.337,7.646,10.335,7.603,10.354,7.566z M9.109,5.892
	c0.023-0.001,0.045,0.005,0.064,0.017c0.198,0.125,0.66,0.491,1.06,0.938c0.029,0.033,0.036,0.079,0.019,0.118
	c-0.018,0.04-0.056,0.065-0.1,0.066c-0.086,0.001-0.164,0.006-0.237,0.012c-1.157,0.102-2.1,0.588-2.801,1.447
	C6.893,8.762,6.719,9.077,6.6,9.424c-0.014,0.04-0.048,0.068-0.09,0.073C6.39,9.513,6.266,9.521,6.139,9.521
	c-0.383,0-0.795-0.072-1.192-0.208c-0.028-0.009-0.051-0.03-0.064-0.057S4.869,9.198,4.879,9.17c0.048-0.13,0.1-0.268,0.158-0.4
	C5.379,7.986,5.85,7.329,6.436,6.816c0.553-0.484,1.197-0.776,1.913-0.868C8.57,5.92,8.92,5.901,9.109,5.892z M4.708,6.215
	c0.563-0.542,1.081-0.851,1.628-0.973c0.175-0.039,0.333-0.058,0.496-0.058c0.123,0,0.241,0.01,0.372,0.022
	C7.392,5.225,7.57,5.252,7.747,5.292c0.05,0.011,0.085,0.054,0.086,0.105c0.001,0.051-0.032,0.096-0.081,0.109
	C7.005,5.709,5.937,6.229,5.085,7.56c0,0.001-0.001,0.002-0.002,0.004C4.846,7.908,4.569,8.468,4.399,8.871
	C4.386,8.902,4.36,8.925,4.327,8.934C4.317,8.937,4.308,8.938,4.297,8.938c-0.023,0-0.046-0.007-0.065-0.022
	C3.838,8.628,3.587,8.356,3.445,8.18C3.42,8.148,3.414,8.106,3.429,8.069C3.704,7.385,4.122,6.778,4.708,6.215z M2.751,7.316
	c0-0.02,0.006-0.039,0.015-0.056c0.036-0.059,0.084-0.137,0.112-0.179c0.287-0.416,0.627-0.778,1.012-1.074
	C3.936,5.973,4,5.979,4.039,6.02l0.09,0.097c0.039,0.042,0.04,0.106,0.001,0.149C3.771,6.667,3.461,7.134,3.207,7.656
	c-0.018,0.036-0.054,0.06-0.095,0.062L2.996,7.722c-0.002,0-0.003,0-0.004,0c-0.04,0-0.076-0.021-0.096-0.054
	C2.851,7.591,2.807,7.514,2.764,7.438C2.755,7.42,2.75,7.401,2.75,7.382L2.751,7.316z M2.249,9.583
	c0.01-0.233,0.098-0.816,0.289-1.387c0.014-0.041,0.049-0.07,0.093-0.075c0.043-0.004,0.084,0.017,0.107,0.054
	c0.044,0.074,0.086,0.139,0.127,0.2c0.662,0.955,1.553,1.531,2.646,1.713c0.342,0.057,0.71,0.051,1.067-0.016
	c0.041-0.008,0.083,0.008,0.108,0.042c0.291,0.385,0.509,0.899,0.615,1.448c0.006,0.029-0.001,0.06-0.018,0.083
	c-0.017,0.024-0.043,0.041-0.072,0.046c-0.136,0.023-0.282,0.046-0.426,0.063c-0.226,0.024-0.451,0.036-0.668,0.036l0,0
	c-0.601,0-1.181-0.094-1.722-0.281C3.7,11.27,3.127,10.856,2.693,10.28c-0.135-0.179-0.326-0.473-0.427-0.632
	C2.253,9.628,2.248,9.606,2.249,9.583z M2.617,11.642c-0.078-0.171-0.142-0.338-0.195-0.511c-0.015-0.048,0.005-0.101,0.049-0.127
	c0.043-0.026,0.099-0.019,0.135,0.017c0.077,0.077,0.157,0.151,0.24,0.222c0.765,0.654,1.729,1.014,2.866,1.07
	c0.001,0,0.002,0,0.004,0c0.11,0.009,0.239,0.014,0.383,0.014c0.334,0,0.742-0.025,1.09-0.068c0.034-0.004,0.067,0.007,0.092,0.031
	c0.024,0.023,0.036,0.057,0.032,0.091c-0.055,0.485-0.166,0.837-0.25,1.048c-0.014,0.037-0.048,0.063-0.087,0.068
	c-0.224,0.031-0.452,0.047-0.678,0.047c-0.506,0-1.033-0.079-1.566-0.236c-0.75-0.22-1.275-0.515-1.653-0.93
	C2.842,12.118,2.747,11.927,2.617,11.642z"/>
</svg>
