<?xml version="1.0" encoding="utf-8"?>
<!-- Generator: Adobe Illustrator 15.1.0, SVG Export Plug-In . SVG Version: 6.00 Build 0)  -->
<!DOCTYPE svg PUBLIC "-//W3C//DTD SVG 1.1//EN" "http://www.w3.org/Graphics/SVG/1.1/DTD/svg11.dtd">
<svg version="1.1" id="Layer_1" xmlns="http://www.w3.org/2000/svg" xmlns:xlink="http://www.w3.org/1999/xlink" x="0px" y="0px"
	 width="24px" height="24px" viewBox="0 0 24 24" enable-background="new 0 0 24 24" xml:space="preserve">
<path d="M12,10.922c0.589,0,1.065,0.477,1.065,1.065c0,0.588-0.477,1.066-1.065,1.066c-0.588,0-1.065-0.478-1.065-1.066
	C10.935,11.399,11.412,10.922,12,10.922z M11.651,19.904h0.699c0.289,0,0.523-0.233,0.523-0.523v-0.893
	c0.575-0.077,1.137-0.229,1.675-0.458c0.779-0.33,1.479-0.801,2.08-1.403c0.601-0.599,1.073-1.3,1.402-2.079
	c0.229-0.538,0.381-1.101,0.458-1.675h0.893c0.29,0,0.524-0.234,0.524-0.523V11.65c0-0.289-0.234-0.523-0.524-0.523h-0.893
	c-0.077-0.576-0.229-1.137-0.458-1.675c-0.329-0.78-0.802-1.479-1.402-2.08s-1.301-1.073-2.08-1.403
	c-0.538-0.227-1.1-0.38-1.675-0.457V4.619c0-0.29-0.234-0.524-0.523-0.524h-0.699c-0.289,0-0.524,0.234-0.524,0.524v0.893
	c-0.575,0.077-1.136,0.23-1.674,0.457c-0.78,0.33-1.479,0.802-2.08,1.403s-1.073,1.3-1.403,2.08
	c-0.228,0.539-0.381,1.099-0.457,1.675H4.619c-0.289,0-0.524,0.234-0.524,0.523v0.699c0,0.289,0.235,0.523,0.524,0.523h0.894
	c0.076,0.574,0.229,1.137,0.457,1.675c0.33,0.78,0.802,1.48,1.403,2.079c0.601,0.603,1.3,1.073,2.08,1.403
	c0.539,0.229,1.099,0.381,1.675,0.458v0.893C11.127,19.671,11.362,19.904,11.651,19.904z M8.606,15.395
	c-0.697-0.698-1.153-1.572-1.327-2.521h0.757c0.289,0,0.524-0.234,0.524-0.523V11.65c0-0.289-0.235-0.523-0.524-0.523H7.28
	c0.173-0.95,0.629-1.824,1.327-2.521c0.697-0.698,1.571-1.153,2.52-1.327v0.757c0,0.289,0.235,0.524,0.524,0.524h0.699
	c0.289,0,0.523-0.235,0.523-0.524V7.279c0.949,0.174,1.822,0.629,2.521,1.327c0.697,0.697,1.153,1.571,1.327,2.521h-0.757
	c-0.29,0-0.524,0.234-0.524,0.523v0.699c0,0.289,0.234,0.523,0.524,0.523h0.757c-0.174,0.949-0.63,1.823-1.326,2.521
	c-0.698,0.696-1.572,1.152-2.521,1.326v-0.757c0-0.29-0.234-0.525-0.523-0.525h-0.699c-0.289,0-0.523,0.235-0.523,0.525v0.757
	C10.177,16.547,9.303,16.091,8.606,15.395z"/>
</svg>
