<?xml version="1.0" encoding="utf-8"?>
<!-- Generator: Adobe Illustrator 15.1.0, SVG Export Plug-In . SVG Version: 6.00 Build 0)  -->
<!DOCTYPE svg PUBLIC "-//W3C//DTD SVG 1.1//EN" "http://www.w3.org/Graphics/SVG/1.1/DTD/svg11.dtd">
<svg version="1.1" id="Layer_1" xmlns="http://www.w3.org/2000/svg" xmlns:xlink="http://www.w3.org/1999/xlink" x="0px" y="0px"
	 width="24px" height="24px" viewBox="0 0 24 24" enable-background="new 0 0 24 24" xml:space="preserve">
<path d="M5.559,7.469c-1.003,0-1.816-0.813-1.816-1.816c0-1.003,0.813-1.816,1.816-1.816c1.003,0,1.817,0.813,1.817,1.816
	C7.376,6.656,6.563,7.469,5.559,7.469z M19.293,6.451c-3.197-3.124-7.268-2.034-9.883,0.582c-0.945,0.944-1.526,2.107-1.745,3.343
	l7.704,7.702c1.235-0.218,2.397-0.871,3.342-1.816C21.328,13.718,22.418,9.577,19.293,6.451z M8.028,14.009
	c0,0.218,0.291,1.526-0.218,2.035c-1.09,1.018-2.543,2.034-3.052,2.543c-0.581,0.509-0.363,1.235,0.363,1.962
	s1.454,0.944,2.036,0.509c0.507-0.581,1.453-1.962,2.543-3.052c0.436-0.436,1.671-0.291,1.961-0.218
	c0.727,0.289,1.527,0.436,2.326,0.436l-6.466-6.467C7.521,12.556,7.665,13.282,8.028,14.009z"/>
</svg>
