<?xml version="1.0" encoding="utf-8"?>
<!-- Generator: Adobe Illustrator 15.1.0, SVG Export Plug-In . SVG Version: 6.00 Build 0)  -->
<!DOCTYPE svg PUBLIC "-//W3C//DTD SVG 1.1//EN" "http://www.w3.org/Graphics/SVG/1.1/DTD/svg11.dtd">
<svg version="1.1" id="Layer_1" xmlns="http://www.w3.org/2000/svg" xmlns:xlink="http://www.w3.org/1999/xlink" x="0px" y="0px"
	 width="24px" height="24px" viewBox="0 0 24 24" enable-background="new 0 0 24 24" xml:space="preserve">
<path fill="#010002" d="M17.367,11.637c-0.006-0.015-0.016-0.029-0.021-0.035l-2.519-5.007l-0.303,0.152l-0.347-0.683
	c-0.2-0.396-0.684-0.555-1.079-0.354c-0.396,0.2-0.554,0.685-0.355,1.08l0.346,0.68l-0.226,0.113l1.198,2.383h-3.63
	c-0.169,0-0.332,0.018-0.485,0.055C8.635,8.293,7.164,6.613,5.451,4.889L5.31,4.746L5.056,5L4.49,4.499
	C4.158,4.205,3.65,4.235,3.356,4.567c-0.294,0.333-0.264,0.84,0.068,1.135l0.493,0.437L3.614,6.441l0.14,0.141
	c1.923,1.937,3.478,3.736,4.753,5.502c0.029,0.04,0.059,0.078,0.094,0.116c0.011,0.065,0.023,0.131,0.039,0.193
	c-0.004,0.043-0.007,0.089-0.007,0.136v6.728h0.436l0.003,0.646c0.001,0.443,0.363,0.802,0.807,0.799
	c0.444-0.003,0.802-0.362,0.799-0.807l-0.003-0.639h0.355v-4.7c0.014,0.008,0.03,0.011,0.044,0.018
	c0.006,0.009,0.01,0.019,0.016,0.029c0.042,0.112,0.071,0.229,0.101,0.345c0.079,0.316,0.428,0.503,0.737,0.419
	c0.321-0.089,0.498-0.422,0.419-0.738c-0.004-0.015-0.009-0.028-0.013-0.043c0.176,0.11,0.339,0.235,0.476,0.393
	c0.509,0.585,1.354-0.268,0.848-0.848c-0.123-0.142-0.261-0.262-0.407-0.369h2.112c0.185,0,0.364-0.022,0.534-0.069l0.245,0.531
	l-0.242-0.073l-0.067,0.221l-0.657-0.227c-0.42-0.146-0.878,0.078-1.021,0.497c-0.146,0.419,0.076,0.878,0.495,1.022l0.712,0.245
	l-0.105,0.344l2.59,0.791c0.41,0.125,0.869-0.008,1.149-0.329c0.284-0.325,0.351-0.79,0.17-1.183L17.367,11.637z M11.029,14.518
	v-0.002c0.006,0.006,0.014,0.014,0.021,0.023C11.041,14.529,11.034,14.522,11.029,14.518z M18.695,16.454
	c-0.178,0.204-0.469,0.289-0.732,0.209l-2.207-0.675l0.408-1.338l0.714,0.219l-0.772-1.674l-0.175,0.066
	c-0.176,0.068-0.367,0.101-0.568,0.101h-2.786c-0.303-0.151-0.613-0.291-0.904-0.455c-0.02-0.011-0.036-0.018-0.055-0.024
	c-0.213-0.828-0.424-1.654-0.637-2.481c-0.004-0.013-0.009-0.024-0.013-0.036h3.742l-1.312-2.604l1.249-0.629l2.342,4.651
	c0.007,0.011,0.013,0.021,0.014,0.021l1.8,3.897C18.918,15.951,18.876,16.246,18.695,16.454z M19.067,8.49
	c0.982,0,1.779,0.796,1.779,1.779c0,0.984-0.797,1.779-1.779,1.779c-0.984,0-1.78-0.795-1.78-1.779
	C17.287,9.287,18.083,8.49,19.067,8.49z"/>
</svg>
