<?xml version="1.0" encoding="utf-8"?>
<!-- Generator: Adobe Illustrator 15.1.0, SVG Export Plug-In . SVG Version: 6.00 Build 0)  -->
<!DOCTYPE svg PUBLIC "-//W3C//DTD SVG 1.1//EN" "http://www.w3.org/Graphics/SVG/1.1/DTD/svg11.dtd">
<svg version="1.1" id="Layer_1" xmlns="http://www.w3.org/2000/svg" xmlns:xlink="http://www.w3.org/1999/xlink" x="0px" y="0px"
	 width="24px" height="24px" viewBox="0 0 24 24" enable-background="new 0 0 24 24" xml:space="preserve">
<path fill="#010002" d="M11.405,5.877C9.987,6.01,8.602,6.62,7.514,7.708c-1.088,1.087-1.699,2.473-1.831,3.893
	c1.558,0.18,3.214,0.978,4.575,2.337c1.36,1.359,2.157,3.017,2.336,4.574c1.421-0.132,2.804-0.742,3.892-1.831
	c1.089-1.086,1.698-2.473,1.83-3.892c-1.555-0.181-3.214-0.977-4.573-2.336C12.385,9.093,11.587,7.436,11.405,5.877z M18.34,12.002
	c-0.046-1.56-0.663-3.105-1.853-4.295c-1.189-1.19-2.735-1.806-4.295-1.854c0.174,1.362,0.897,2.826,2.109,4.039
	C15.516,11.105,16.978,11.827,18.34,12.002z M5.66,12.387c0.046,1.559,0.664,3.104,1.854,4.294c1.189,1.189,2.734,1.808,4.294,1.853
	c-0.176-1.359-0.898-2.822-2.111-4.034C8.484,13.284,7.021,12.563,5.66,12.387z"/>
</svg>
