<?xml version="1.0" encoding="utf-8"?>
<!-- Generator: Adobe Illustrator 15.1.0, SVG Export Plug-In . SVG Version: 6.00 Build 0)  -->
<!DOCTYPE svg PUBLIC "-//W3C//DTD SVG 1.1//EN" "http://www.w3.org/Graphics/SVG/1.1/DTD/svg11.dtd">
<svg version="1.1" id="Layer_1" xmlns="http://www.w3.org/2000/svg" xmlns:xlink="http://www.w3.org/1999/xlink" x="0px" y="0px"
	 width="24px" height="24px" viewBox="0 0 24 24" enable-background="new 0 0 24 24" xml:space="preserve">
<path d="M5.535,8.969l0.017,0.119c0.243,0.317,0.79,0.948,1.73,1.602l0.184-0.055c0.313-0.784,0.875-1.932,1.34-2.604l0.003-0.004
	c1.746-2.733,3.987-3.631,5.56-3.902l0.018-0.237c-0.565-0.185-1.137-0.303-1.747-0.36c-0.243-0.022-0.464-0.042-0.695-0.042
	c-0.307,0-0.604,0.034-0.937,0.108c-1.028,0.229-1.998,0.808-3.052,1.82c-1.113,1.07-1.902,2.227-2.414,3.538L5.535,8.969z
	 M7.417,15.348c1.008,0.348,2.088,0.524,3.208,0.524l0,0c0.404,0,0.823-0.023,1.244-0.068c0.298-0.032,0.592-0.082,0.903-0.135
	l0.069-0.011l0.101-0.141c-0.191-1.148-0.639-2.212-1.258-2.993l-0.12-0.044c-0.036,0.007-0.071,0.014-0.104,0.02
	c-0.654,0.125-1.31,0.135-1.938,0.03c-1.988-0.331-3.607-1.38-4.813-3.117C4.547,9.176,4.404,8.925,4.287,8.712L4.065,8.727
	c-0.461,1.2-0.669,2.565-0.677,3.03l0.019,0.068c0.157,0.247,0.551,0.86,0.823,1.22C5.044,14.124,6.117,14.898,7.417,15.348z
	 M5.077,8.056c0.476-0.979,1.06-1.857,1.733-2.61L6.645,5.267C5.952,5.8,5.339,6.451,4.822,7.201
	C4.773,7.273,4.687,7.414,4.623,7.521L4.621,7.643c0.078,0.14,0.158,0.281,0.241,0.422L5.077,8.056z M8.54,10.158
	c-0.12,0.275-0.223,0.555-0.332,0.852l-0.024,0.066l0.072,0.157c0.799,0.296,1.632,0.452,2.411,0.452c0.279,0,0.553-0.02,0.812-0.06
	l0.098-0.081c0.012-0.035,0.023-0.07,0.034-0.101c0.218-0.632,0.532-1.202,0.936-1.696c1.274-1.562,2.989-2.447,5.095-2.631
	c0.178-0.016,0.366-0.022,0.594-0.022c0.075,0,0.151,0.001,0.227,0.002l0.097-0.199c-0.813-0.996-1.895-1.854-2.294-2.092
	l-0.068-0.018c-0.293,0.014-1.021,0.051-1.468,0.108c-1.341,0.171-2.546,0.718-3.581,1.625C10.055,7.476,9.178,8.7,8.54,10.158z
	 M19.487,8.281c-0.038-0.078-0.117-0.224-0.178-0.332l-0.104-0.063c-0.159-0.003-0.324-0.004-0.486-0.003l-0.1,0.191
	c0.609,0.901,1.079,1.846,1.395,2.806l0.117-0.026v0.11v-0.11l0.12-0.027C20.136,9.961,19.879,9.104,19.487,8.281z M10.937,19.882
	c-0.789,0-1.563-0.08-2.301-0.237l-0.072,0.232c0.807,0.337,1.677,0.547,2.585,0.622c0.087,0.008,0.252,0.012,0.376,0.015
	l0.107-0.059c0.057-0.094,0.145-0.241,0.247-0.418l-0.114-0.184C11.485,19.872,11.207,19.882,10.937,19.882z M17.611,8.031
	L17.6,8.016l-0.111-0.045c-0.396,0.052-1.216,0.211-2.252,0.699l-0.044,0.186c0.522,0.664,1.235,1.724,1.587,2.463l0.002,0.004
	c0.958,1.844,1.277,3.693,0.95,5.497c-0.079,0.434-0.194,0.859-0.345,1.266l0.196,0.133c0.441-0.396,0.827-0.83,1.181-1.33
	c0.33-0.465,0.56-0.816,0.758-1.446c0.315-1.006,0.299-2.135-0.052-3.553C19.099,10.39,18.491,9.128,17.611,8.031z M15.067,10.024
	c-0.178-0.241-0.368-0.47-0.57-0.713l-0.045-0.055l-0.173-0.016c-0.896,0.744-1.588,1.666-1.951,2.595l0.022,0.126
	c0.024,0.027,0.048,0.055,0.069,0.079c0.438,0.504,0.775,1.063,1.002,1.659c0.716,1.884,0.626,3.811-0.267,5.728
	c-0.123,0.262-0.268,0.511-0.393,0.721l0.125,0.184c1.269-0.207,2.553-0.716,2.958-0.942l0.05-0.05
	c0.134-0.261,0.465-0.91,0.639-1.326c0.522-1.247,0.651-2.563,0.383-3.914C16.635,12.678,16.013,11.307,15.067,10.024z
	 M12.816,16.501c-0.68,0.095-1.532,0.155-2.225,0.155c-0.266,0-0.501-0.009-0.702-0.026H9.886c-2.076-0.103-3.835-0.758-5.228-1.949
	c-0.335-0.287-0.644-0.602-0.919-0.935l-0.214,0.103c0.119,0.579,0.3,1.132,0.554,1.689c0.235,0.518,0.423,0.895,0.868,1.383
	c0.71,0.779,1.693,1.334,3.095,1.745c0.992,0.291,1.974,0.439,2.917,0.439c0.451,0,0.906-0.034,1.351-0.1l0.019-0.003l0.096-0.074
	c0.155-0.368,0.431-1.155,0.531-2.297L12.816,16.501z"/>
</svg>
