<?xml version="1.0" encoding="UTF-8" standalone="yes"?>
<svg xmlns="http://www.w3.org/2000/svg" xmlns:xlink="http://www.w3.org/1999/xlink" width="24px" height="24px" viewBox="0 0 18 18" version="1.1">
  <g id="surface1">
    <path style=" stroke:none;fill-rule:nonzero;fill:rgb(0%,0%,0%);fill-opacity:1;" d="M 17.179688 8.542969 L 17.015625 8.542969 L 17.015625 4.375 C 17.015625 3.558594 16.378906 2.894531 15.597656 2.894531 C 14.910156 2.894531 14.113281 3.367188 13.746094 3.992188 L 13.226562 4.875 L 13.066406 4.785156 C 12.910156 4.695312 12.679688 4.730469 12.558594 4.863281 L 11.769531 5.71875 C 11.648438 5.851562 11.675781 6.03125 11.835938 6.121094 L 13.644531 7.132812 C 13.804688 7.222656 13.992188 7.160156 14.070312 6.996094 L 14.535156 5.992188 C 14.609375 5.824219 14.542969 5.621094 14.386719 5.53125 L 14.085938 5.359375 L 14.597656 4.492188 C 14.785156 4.171875 15.261719 3.882812 15.597656 3.882812 C 15.835938 3.882812 16.027344 4.105469 16.027344 4.375 L 16.027344 8.542969 L 0.820312 8.542969 C 0.367188 8.542969 0 8.910156 0 9.363281 C 0 9.816406 0.367188 10.1875 0.820312 10.1875 L 17.179688 10.1875 C 17.632812 10.1875 18 9.816406 18 9.363281 C 18 8.910156 17.632812 8.542969 17.179688 8.542969 Z M 17.179688 8.542969 "/>
    <path style=" stroke:none;fill-rule:nonzero;fill:rgb(0%,0%,0%);fill-opacity:1;" d="M 16.523438 10.707031 L 1.886719 10.707031 C 1.671875 10.707031 1.503906 10.792969 1.433594 10.9375 C 1.367188 11.074219 1.398438 11.238281 1.519531 11.390625 C 1.960938 11.941406 2.789062 12.699219 4.269531 13.253906 L 3.996094 14.507812 C 3.9375 14.773438 4.105469 15.035156 4.371094 15.09375 C 4.40625 15.101562 4.441406 15.105469 4.476562 15.105469 C 4.703125 15.105469 4.910156 14.949219 4.957031 14.71875 L 5.214844 13.550781 C 6.226562 13.820312 7.46875 13.996094 9 13.996094 C 11.273438 13.996094 12.964844 13.613281 14.207031 13.109375 L 14.558594 14.71875 C 14.609375 14.949219 14.816406 15.105469 15.042969 15.105469 C 15.078125 15.105469 15.113281 15.101562 15.148438 15.09375 C 15.414062 15.035156 15.582031 14.773438 15.523438 14.507812 L 15.152344 12.820312 C 15.144531 12.773438 15.125 12.730469 15.101562 12.6875 C 15.929688 12.238281 16.488281 11.75 16.839844 11.363281 C 16.972656 11.21875 17.015625 11.058594 16.960938 10.925781 C 16.898438 10.785156 16.738281 10.707031 16.523438 10.707031 Z M 16.523438 10.707031 "/>
  </g>
</svg>