<?xml version="1.0" encoding="UTF-8" standalone="yes"?>
<svg xmlns="http://www.w3.org/2000/svg" xmlns:xlink="http://www.w3.org/1999/xlink" width="24px" height="24px" viewBox="0 0 18 18" version="1.1">
  <g id="surface1">
    <path style=" stroke:none;fill-rule:nonzero;fill:rgb(0%,0%,0%);fill-opacity:1;" d="M 14.023438 2.15625 L 13.503906 2.15625 C 13.25 2.15625 13.011719 2.207031 12.785156 2.289062 L 12.785156 2.15625 L 1.785156 2.15625 C 1.785156 3.136719 2.550781 3.9375 3.445312 3.9375 L 12.785156 3.9375 L 12.785156 4.296875 L 3.445312 4.296875 L 3.445312 12.574219 L 12.785156 12.574219 L 12.785156 12.800781 C 13.011719 12.882812 13.25 12.933594 13.503906 12.933594 L 14.023438 12.933594 C 15.210938 12.933594 16.179688 11.96875 16.179688 10.777344 L 16.179688 4.3125 C 16.179688 3.121094 15.210938 2.15625 14.023438 2.15625 Z M 14.742188 10.777344 C 14.742188 11.171875 14.417969 11.496094 14.023438 11.496094 L 13.503906 11.496094 C 13.109375 11.496094 12.785156 11.171875 12.785156 10.777344 L 12.785156 4.3125 C 12.785156 3.914062 13.109375 3.59375 13.503906 3.59375 L 14.023438 3.59375 C 14.417969 3.59375 14.742188 3.914062 14.742188 4.3125 Z M 14.742188 10.777344 "/>
    <path style=" stroke:none;fill-rule:nonzero;fill:rgb(0%,0%,0%);fill-opacity:1;" d="M 12.785156 1.4375 C 12.785156 0.648438 12.140625 0 11.347656 0 L 4.882812 0 C 4.089844 0 3.445312 0.644531 3.445312 1.4375 L 3.445312 1.796875 L 12.785156 1.796875 Z M 12.785156 1.4375 "/>
    <path style=" stroke:none;fill-rule:nonzero;fill:rgb(0%,0%,0%);fill-opacity:1;" d="M 3.445312 12.933594 L 12.785156 12.933594 L 12.785156 14.011719 L 3.445312 14.011719 Z M 3.445312 12.933594 "/>
    <path style=" stroke:none;fill-rule:nonzero;fill:rgb(0%,0%,0%);fill-opacity:1;" d="M 3.445312 16.523438 C 3.445312 17.316406 4.089844 17.960938 4.882812 17.960938 L 11.347656 17.960938 C 12.140625 17.960938 12.785156 17.316406 12.785156 16.523438 L 12.785156 14.367188 L 3.445312 14.367188 Z M 3.445312 16.523438 "/>
  </g>
</svg>