<?xml version="1.0" encoding="UTF-8" standalone="yes"?>
<svg xmlns="http://www.w3.org/2000/svg" xmlns:xlink="http://www.w3.org/1999/xlink" width="24px" height="24px" viewBox="0 0 18 18" version="1.1">
  <g id="surface1">
    <path style=" stroke:none;fill-rule:nonzero;fill:rgb(0%,0%,0%);fill-opacity:1;" d="M 3.359375 4.804688 C 3.390625 4.789062 3.417969 4.777344 3.441406 4.761719 C 3.457031 4.78125 3.472656 4.796875 3.488281 4.8125 L 5.054688 6.382812 C 5.152344 6.265625 5.296875 6.195312 5.453125 6.195312 C 5.503906 6.195312 5.554688 6.199219 5.605469 6.214844 L 5.800781 6.273438 L 5.921875 5.863281 L 4.179688 4.121094 C 4.152344 4.09375 4.121094 4.070312 4.089844 4.050781 L 4.09375 4.035156 C 4.097656 4.015625 4.105469 4.003906 4.109375 3.992188 C 4.113281 3.980469 4.117188 3.96875 4.121094 3.957031 C 4.125 3.945312 4.132812 3.933594 4.136719 3.921875 C 4.144531 3.898438 4.152344 3.875 4.167969 3.851562 L 4.199219 3.789062 L 4.234375 3.722656 C 4.25 3.691406 4.269531 3.664062 4.289062 3.632812 C 4.300781 3.617188 4.3125 3.601562 4.320312 3.585938 C 4.332031 3.570312 4.34375 3.558594 4.351562 3.546875 C 4.378906 3.511719 4.402344 3.480469 4.429688 3.453125 L 4.445312 3.433594 C 4.480469 3.394531 4.511719 3.355469 4.554688 3.324219 C 4.566406 3.3125 4.574219 3.304688 4.585938 3.296875 C 4.597656 3.285156 4.613281 3.269531 4.625 3.257812 L 4.703125 3.203125 C 4.707031 3.203125 4.707031 3.199219 4.710938 3.199219 C 4.738281 3.175781 4.777344 3.152344 4.816406 3.132812 C 4.832031 3.121094 4.847656 3.117188 4.863281 3.105469 C 4.894531 3.085938 4.929688 3.070312 4.964844 3.058594 C 4.984375 3.046875 5 3.042969 5.019531 3.035156 C 5.03125 3.03125 5.039062 3.027344 5.050781 3.019531 C 5.0625 3.015625 5.074219 3.007812 5.085938 3.007812 L 5.167969 2.984375 C 5.183594 2.980469 5.203125 2.972656 5.222656 2.96875 C 5.25 2.960938 5.277344 2.953125 5.296875 2.949219 L 5.519531 2.917969 C 5.550781 2.914062 5.582031 2.898438 5.605469 2.875 C 5.628906 2.851562 5.644531 2.816406 5.648438 2.78125 C 5.652344 2.710938 5.609375 2.648438 5.539062 2.628906 L 5.320312 2.566406 C 5.28125 2.554688 5.238281 2.546875 5.199219 2.539062 C 5.183594 2.539062 5.164062 2.535156 5.144531 2.53125 L 5.046875 2.515625 C 5.015625 2.511719 4.988281 2.511719 4.964844 2.511719 C 4.953125 2.511719 4.945312 2.511719 4.933594 2.511719 C 4.90625 2.511719 4.890625 2.507812 4.871094 2.507812 C 4.8125 2.507812 4.75 2.503906 4.683594 2.511719 L 4.640625 2.515625 C 4.574219 2.519531 4.5 2.527344 4.425781 2.542969 L 4.304688 2.570312 C 4.269531 2.578125 4.238281 2.589844 4.207031 2.597656 L 4.167969 2.609375 C 4.082031 2.632812 4 2.667969 3.921875 2.703125 L 3.910156 2.707031 C 3.84375 2.734375 3.78125 2.765625 3.71875 2.796875 L 3.671875 2.824219 C 3.667969 2.828125 3.664062 2.828125 3.660156 2.828125 C 3.640625 2.84375 3.621094 2.855469 3.601562 2.867188 C 3.550781 2.898438 3.496094 2.929688 3.449219 2.964844 L 3.367188 3.027344 C 3.363281 3.027344 3.355469 3.03125 3.351562 3.035156 L 3.269531 3.101562 C 3.25 3.117188 3.230469 3.132812 3.210938 3.152344 C 3.0625 3.175781 2.917969 3.246094 2.804688 3.359375 L 2.632812 3.535156 C 2.550781 3.613281 2.472656 3.730469 2.410156 3.855469 C 2.136719 3.800781 1.761719 4.210938 1.207031 4.765625 L 2.449219 6.011719 C 2.878906 5.582031 3.414062 5.082031 3.359375 4.804688 Z M 13.128906 4.726562 L 13.914062 4.878906 L 14.714844 3.871094 C 14.859375 3.6875 15.101562 3.605469 15.328125 3.65625 L 15.328125 3.222656 L 14.148438 3.222656 L 14.148438 4.167969 L 12.878906 4.167969 Z M 6.007812 4.984375 L 6.25 4.167969 L 5.191406 4.167969 Z M 15.328125 9.238281 L 15.328125 6.214844 C 15.308594 6.246094 15.285156 6.277344 15.265625 6.304688 C 14.933594 6.71875 14.5 7.015625 14.011719 7.175781 L 14.148438 7.175781 L 14.148438 9.238281 L 10.988281 9.238281 L 12.46875 7.21875 C 12.496094 7.1875 12.519531 7.152344 12.546875 7.113281 C 13.371094 7.320312 14.28125 7.046875 14.84375 6.335938 C 15.257812 5.816406 15.417969 5.144531 15.285156 4.496094 C 15.269531 4.421875 15.210938 4.363281 15.140625 4.347656 C 15.066406 4.328125 14.992188 4.355469 14.941406 4.414062 L 13.988281 5.621094 L 12.746094 5.378906 L 12.226562 4.226562 L 13.183594 3.023438 C 13.230469 2.960938 13.238281 2.882812 13.203125 2.816406 C 13.171875 2.746094 13.101562 2.707031 13.027344 2.707031 C 12.363281 2.726562 11.746094 3.035156 11.335938 3.554688 C 10.773438 4.265625 10.714844 5.214844 11.101562 5.972656 C 11.074219 6.003906 11.046875 6.035156 11.015625 6.070312 L 9.101562 8.351562 L 9.5625 8.816406 C 9.683594 8.933594 9.765625 9.082031 9.8125 9.238281 L 9.609375 9.238281 C 9.570312 9.136719 9.507812 9.039062 9.425781 8.953125 L 6.785156 6.316406 L 6.71875 6.546875 L 6.898438 6.597656 C 7.03125 6.636719 7.144531 6.726562 7.210938 6.851562 C 7.277344 6.976562 7.292969 7.117188 7.25 7.25 C 7.230469 7.324219 7.191406 7.390625 7.144531 7.445312 C 7.15625 7.570312 7.148438 7.695312 7.109375 7.8125 L 6.875 8.613281 L 7.5 9.238281 L 6.421875 9.238281 L 6.886719 7.671875 C 6.925781 7.535156 6.921875 7.402344 6.886719 7.277344 C 6.953125 7.242188 7.003906 7.183594 7.027344 7.105469 C 7.070312 6.960938 6.984375 6.804688 6.835938 6.761719 L 6.421875 6.636719 L 7.550781 2.847656 L 7.585938 2.859375 L 7.875 2.296875 L 7.992188 1.414062 L 7.503906 1.269531 L 7.128906 2.074219 L 7.066406 2.707031 L 7.101562 2.714844 L 5.976562 6.503906 L 5.546875 6.375 C 5.398438 6.332031 5.242188 6.417969 5.199219 6.566406 C 5.175781 6.636719 5.1875 6.710938 5.21875 6.773438 C 5.113281 6.855469 5.03125 6.96875 4.992188 7.109375 L 4.359375 9.238281 L 3.769531 9.238281 L 3.769531 7.175781 L 4.550781 7.175781 L 4.691406 6.703125 C 4.726562 6.585938 4.75 6.554688 4.820312 6.453125 L 3.554688 5.160156 C 3.382812 5.398438 3.210938 5.644531 2.945312 5.910156 L 2.589844 6.265625 L 2.589844 9.238281 L 2.203125 9.238281 L 2.203125 13.371094 C 2.203125 14.671875 3.261719 15.730469 4.566406 15.730469 L 13.351562 15.730469 C 14.65625 15.730469 15.710938 14.671875 15.710938 13.371094 L 15.710938 9.238281 Z M 6.066406 7.773438 C 6.113281 7.617188 6.277344 7.527344 6.4375 7.574219 C 6.59375 7.621094 6.683594 7.785156 6.636719 7.941406 L 6.25 9.238281 L 5.632812 9.238281 Z M 5.113281 7.488281 C 5.160156 7.332031 5.324219 7.242188 5.480469 7.289062 C 5.636719 7.335938 5.726562 7.5 5.679688 7.660156 L 5.210938 9.238281 L 4.59375 9.238281 Z M 7.597656 4.167969 L 7.140625 5.703125 L 8.613281 7.175781 L 9.402344 7.175781 L 10.714844 5.613281 C 10.535156 5.148438 10.492188 4.644531 10.582031 4.167969 Z M 7.597656 4.167969 "/>
  </g>
</svg>