<?xml version="1.0" encoding="utf-8"?>
<!-- Generator: Adobe Illustrator 15.1.0, SVG Export Plug-In . SVG Version: 6.00 Build 0)  -->
<!DOCTYPE svg PUBLIC "-//W3C//DTD SVG 1.1//EN" "http://www.w3.org/Graphics/SVG/1.1/DTD/svg11.dtd">
<svg version="1.1" id="Layer_1" xmlns="http://www.w3.org/2000/svg" xmlns:xlink="http://www.w3.org/1999/xlink" x="0px" y="0px"
	 width="24px" height="24px" viewBox="0 0 24 24" enable-background="new 0 0 24 24" xml:space="preserve">
<path d="M6.741,9.673c0.379,0,0.751-0.06,1.109-0.173l2.128,2.128l2.331-2.332l-2.127-2.129c0.41-1.281,0.073-2.702-0.883-3.658
	c-0.681-0.68-1.586-1.055-2.548-1.055c-0.538,0-1.077,0.121-1.561,0.353C5.118,2.841,5.067,2.909,5.054,2.988
	C5.04,3.067,5.066,3.148,5.123,3.206l2.24,2.24C7.528,5.611,7.619,5.83,7.619,6.063c0,0.233-0.091,0.452-0.257,0.617
	c-0.328,0.33-0.904,0.33-1.233-0.001l-2.24-2.24C3.831,4.383,3.748,4.357,3.671,4.372c-0.08,0.013-0.147,0.064-0.183,0.137
	c-0.658,1.38-0.375,3.031,0.704,4.109C4.873,9.297,5.778,9.673,6.741,9.673z M18.116,13.816c-0.38,0-0.752,0.061-1.109,0.174
	l-2.355-2.354l-2.333,2.332l2.354,2.356c-0.409,1.281-0.071,2.701,0.884,3.657c0.681,0.681,1.587,1.055,2.548,1.055
	c0.539,0,1.078-0.121,1.562-0.353c0.072-0.034,0.123-0.103,0.137-0.181c0.015-0.08-0.013-0.161-0.068-0.218l-2.241-2.241
	c-0.163-0.165-0.255-0.385-0.255-0.616c0-0.234,0.092-0.453,0.256-0.617c0.331-0.331,0.905-0.331,1.234,0l2.239,2.239
	c0.058,0.058,0.138,0.083,0.218,0.069c0.08-0.015,0.147-0.064,0.183-0.138c0.658-1.378,0.376-3.029-0.704-4.108
	C19.983,14.192,19.079,13.816,18.116,13.816z M17.158,8.507c0,0,0.39,0.341,0.711,0.182c0.363-0.183,1.387,0.826,1.712,1.062
	c0.002,0,0.004,0,0.008,0.003L19.41,9.932c-0.235,0.234-0.235,0.614-0.001,0.847c0.235,0.233,0.612,0.233,0.848,0l1.413-1.411
	c0.233-0.235,0.233-0.614,0-0.849c-0.233-0.233-0.614-0.233-0.848,0l-0.236,0.235c-0.194-0.268-0.519-0.726-0.477-0.877
	c0.172-0.664-1.182-2.233-1.182-2.233c-3.36-3.36-5.606-3.284-6.675-2.917c-0.428,0.148-0.349,0.242,0.096,0.32
	c3.241,0.565,3.644,2.477,3.094,3.214c-0.212,0.285,0.097,0.628,0.097,0.628l0.116,0.116l-5.472,5.469
	c0.074,0.046,0.146,0.097,0.21,0.161l0.92,0.919c0.062,0.063,0.113,0.135,0.158,0.209l5.472-5.471L17.158,8.507z M10.025,13.002
	c-0.203-0.202-0.546-0.216-0.762-0.027l-6.081,5.452c-0.217,0.188-0.229,0.506-0.027,0.708l1.657,1.656
	c0.202,0.201,0.521,0.19,0.708-0.025l5.453-6.082c0.186-0.217,0.175-0.559-0.028-0.762L10.025,13.002z"/>
</svg>
