<?xml version="1.0" encoding="utf-8"?>
<!-- Generator: Adobe Illustrator 15.1.0, SVG Export Plug-In . SVG Version: 6.00 Build 0)  -->
<!DOCTYPE svg PUBLIC "-//W3C//DTD SVG 1.1//EN" "http://www.w3.org/Graphics/SVG/1.1/DTD/svg11.dtd">
<svg version="1.1" id="Layer_1" xmlns="http://www.w3.org/2000/svg" xmlns:xlink="http://www.w3.org/1999/xlink" x="0px" y="0px"
	 width="24px" height="24px" viewBox="0 0 24 24" enable-background="new 0 0 24 24" xml:space="preserve">
<path d="M21.727,20.456c-0.115-0.451-1.525-1.089-1.525-1.089c-0.559,0.063-0.887-0.356-0.887-0.356
	c-0.3-0.341-0.478,0.102-0.478,0.102c-0.27,0.499-1.396,0.788-1.396,0.788c-0.753,0.96-0.825,0.695-0.825,0.695
	c-0.323-0.847,1.538-3.786,1.538-3.786c-2.381-4.563-9.521-8.059-9.521-8.059c0.062-0.268,0.625-0.758,0.625-0.758L9.146,7.742
	c-0.867-0.049-1.665,3.429-1.665,3.429c-0.946-0.713-0.85-3.273-0.85-3.273c-0.54-0.39-2.446-0.963-3.31-1.014
	C2.694,6.848,2.43,6.767,2.263,6.546C1.607,5.683,3.771,5.318,3.771,5.318c2.073-3.664,7.825-0.993,7.825-0.993
	c1.718-1.392,3.273-0.85,3.273-0.85c1.179,0.363,0.463,0.484,0.463,0.484c-1.232,0.37-1.336,1.837-1.336,1.837
	c5.34,4.023,5.04,9.784,5.04,9.784c0.032,0.513-0.005,0.98-0.005,0.98c1.872,1.122,2.569,2.778,2.569,2.778
	C22.103,20.568,21.727,20.456,21.727,20.456z M8.484,14.209c-2.983,1.417-5.402,0.473-5.402,0.6c0,0.536,2.418,2.021,5.402,0.6
	c2.983-1.418,5.402-0.474,5.402-0.6C13.887,14.272,11.468,12.789,8.484,14.209z M8.484,16.78c-2.983,1.42-5.402,0.474-5.402,0.601
	c0,0.536,2.418,2.02,5.402,0.601c2.983-1.419,5.402-0.475,5.402-0.601C13.887,16.844,11.468,15.361,8.484,16.78z"/>
</svg>
