<?xml version="1.0" encoding="UTF-8" standalone="yes"?>
<svg xmlns="http://www.w3.org/2000/svg" xmlns:xlink="http://www.w3.org/1999/xlink" width="24px" height="24px" viewBox="0 0 18 18" version="1.1">
  <g id="surface1">
    <path style=" stroke:none;fill-rule:nonzero;fill:rgb(0.392157%,0%,0.784314%);fill-opacity:1;" d="M 3.019531 5.71875 C 3.605469 6.601562 4.117188 7.644531 4.195312 7.828125 C 4.21875 7.878906 4.253906 8 4.296875 8.152344 C 4.582031 7.75 4.925781 7.417969 5.339844 7.175781 C 5.933594 6.828125 6.613281 6.683594 7.34375 6.71875 C 7.167969 6.4375 7.007812 6.148438 6.929688 5.921875 C 6.730469 5.34375 6.007812 2.957031 5.585938 1.941406 C 5.164062 0.921875 3.558594 1.644531 2.625 2.175781 C 1.695312 2.707031 1.640625 3.359375 1.734375 3.542969 C 1.828125 3.722656 2.4375 4.835938 3.019531 5.71875 Z M 6.601562 9.003906 C 7.839844 8.488281 8.105469 9.113281 8.105469 9.113281 C 8.5 8.746094 8.226562 8.316406 8.226562 8.316406 C 8.226562 8.316406 8.324219 8.128906 8.164062 7.941406 C 8.066406 7.824219 7.75 7.40625 7.472656 6.964844 C 6.738281 6.929688 6.058594 7.074219 5.464844 7.421875 C 5.054688 7.664062 4.707031 7.996094 4.421875 8.398438 C 4.523438 8.765625 4.652344 9.308594 4.6875 9.40625 C 4.734375 9.539062 4.855469 9.71875 4.972656 9.742188 C 5.085938 9.765625 5.152344 9.875 5.152344 9.875 C 5.296875 10.171875 5.757812 10.191406 5.757812 10.191406 C 5.757812 10.191406 5.359375 9.515625 6.601562 9.003906 Z M 15.863281 11.632812 C 15.480469 11.335938 14.972656 11.191406 14.566406 10.929688 C 13.519531 10.25 14.875 9.625 15.328125 9.21875 C 16.089844 8.527344 16.289062 7.734375 15.972656 6.773438 C 15.875 6.472656 15.660156 6.152344 15.757812 6.457031 C 16.300781 8.101562 14.582031 8.890625 13.710938 9.8125 C 13.390625 10.148438 13.433594 10.519531 13.769531 10.855469 C 14.414062 11.511719 16.355469 12.0625 15.152344 13.082031 C 14.308594 13.796875 13 13.859375 12.0625 14.460938 C 11.9375 14.542969 11.921875 14.761719 12.046875 14.851562 C 12.96875 15.496094 14.238281 15.339844 15.144531 15.925781 C 13.582031 16.394531 11.945312 16.085938 10.339844 15.941406 C 10.34375 15.894531 10.339844 15.855469 10.339844 15.855469 C 10.136719 14.605469 10.113281 14.335938 10.210938 13.710938 C 10.304688 13.082031 10.210938 13.027344 10.210938 13.027344 C 9.242188 11.699219 8.070312 9.195312 8.070312 9.195312 C 7.910156 8.933594 7.289062 8.824219 6.523438 9.164062 C 5.726562 9.519531 5.785156 10.007812 5.785156 10.007812 L 7.136719 13.992188 C 7.183594 14.117188 7.402344 14.179688 7.402344 14.179688 C 8.667969 14.546875 9.699219 15.824219 9.835938 16.023438 C 9.972656 16.222656 10.074219 16.144531 10.074219 16.144531 L 8.597656 12.839844 C 8.484375 12.816406 8.371094 12.71875 8.300781 12.570312 C 8.203125 12.363281 8.242188 12.136719 8.386719 12.070312 C 8.535156 12 8.730469 12.117188 8.828125 12.328125 C 8.902344 12.484375 8.898438 12.652344 8.832031 12.753906 L 10.238281 15.933594 C 10.226562 15.929688 10.214844 15.929688 10.207031 15.929688 C 9.890625 15.902344 10.222656 16.304688 11.101562 16.414062 C 13.070312 16.660156 13.839844 16.644531 15.734375 16.246094 C 15.925781 16.203125 15.929688 15.953125 15.800781 15.824219 C 14.964844 14.96875 13.734375 15.152344 12.730469 14.683594 C 14.007812 14.140625 17.519531 12.929688 15.863281 11.632812 Z M 15.863281 11.632812 "/>
  </g>
</svg>