<?xml version="1.0" encoding="utf-8"?>
<!-- Generator: Adobe Illustrator 15.1.0, SVG Export Plug-In . SVG Version: 6.00 Build 0)  -->
<!DOCTYPE svg PUBLIC "-//W3C//DTD SVG 1.1//EN" "http://www.w3.org/Graphics/SVG/1.1/DTD/svg11.dtd">
<svg version="1.1" id="Layer_1" xmlns="http://www.w3.org/2000/svg" xmlns:xlink="http://www.w3.org/1999/xlink" x="0px" y="0px"
	 width="24px" height="24px" viewBox="0 0 24 24" enable-background="new 0 0 24 24" xml:space="preserve">
<path fill="#010202" d="M23.611,8.464c0,4.008-19.367,8.434-20.833,8.434c-0.821,0-1.754-0.189-1.754-0.945
	c0-0.254,0.293-0.619,0.806-1.06l0,0l-1.362-2.41c-0.184-0.327-0.039-0.74,0.31-0.879l0.234-0.093
	c0.424-0.168,0.9-0.144,1.303,0.069l2.468,1.304c0.96-0.57,2.051-1.164,3.2-1.75l-4.81-3.114c-0.38-0.246-0.376-0.803,0.008-1.044
	l0.393-0.247C4.231,6.32,5.026,6.2,5.774,6.396l8.001,2.106c2.492-0.989,4.748-1.663,6.084-1.663c0.354,0,0.711,0.009,1.057,0.035
	L18.5,7.959l-0.057,0.813l3.729-1.711C23.064,7.272,23.611,7.67,23.611,8.464z M13.877,15.383l2.986,3.385
	c0.182,0.205,0.477,0.268,0.726,0.148l0.399-0.184c0.729-0.338,1.158-1.105,1.063-1.9l-0.372-3.188
	c-0.023-0.197-0.227-0.321-0.411-0.255l-4.264,1.498C13.8,14.959,13.732,15.219,13.877,15.383z"/>
</svg>
