<?xml version="1.0" encoding="utf-8"?>
<!-- Generator: Adobe Illustrator 15.1.0, SVG Export Plug-In . SVG Version: 6.00 Build 0)  -->
<!DOCTYPE svg PUBLIC "-//W3C//DTD SVG 1.1//EN" "http://www.w3.org/Graphics/SVG/1.1/DTD/svg11.dtd">
<svg version="1.1" id="Layer_1" xmlns="http://www.w3.org/2000/svg" xmlns:xlink="http://www.w3.org/1999/xlink" x="0px" y="0px"
	 width="24px" height="24px" viewBox="0 0 24 24" enable-background="new 0 0 24 24" xml:space="preserve">
<path d="M12.817,12.053v10.14c-0.886-0.057-1.582-0.567-1.582-1.196v-7.748C11.236,12.619,11.931,12.107,12.817,12.053z
	 M13.118,22.205h0.157V12.042h-0.157V22.205z M20.858,22.205h0.158V12.042h-0.158V22.205z M21.315,12.053v10.14
	c0.89-0.057,1.583-0.567,1.583-1.196v-7.748C22.898,12.619,22.205,12.107,21.315,12.053z M19.966,12.042h0.384v10.164h-0.278v0.252
	h-0.796v-0.252h-4.418v0.252h-0.796v-0.252h-0.28V12.042h0.387v-1.611c0-0.166,0.194-0.301,0.436-0.301h4.926
	c0.24,0,0.437,0.136,0.437,0.301V12.042L19.966,12.042z M18.534,14.718c0.378,0,0.683-0.212,0.683-0.475
	c0-0.262-0.305-0.474-0.683-0.474c-0.377,0-0.684,0.212-0.684,0.474C17.851,14.506,18.157,14.718,18.534,14.718z M17.528,14.273
	l-1.366,0.373l0.762,1.345l1.368-0.373L17.528,14.273z M15.038,12.042h4.057v-1.308h-4.057V12.042z M14.876,15.499l0.832,0.128
	l0.187-0.577l-0.833-0.13L14.876,15.499z M15.301,16.916c0,0.495,0.425,0.896,0.953,0.896c0.527,0,0.953-0.401,0.953-0.896
	c0-0.494-0.426-0.896-0.953-0.896C15.726,16.021,15.301,16.422,15.301,16.916z M17.135,18.051H15.19v1.577h1.944V18.051z
	 M19.506,16.147h-1.944v1.201h1.944V16.147z M21.236,2.532c0,2.449-16.992,5.151-18.279,5.151c-0.722,0-1.541-0.116-1.541-0.579
	c0-0.154,0.256-0.376,0.707-0.646H2.123L0.931,4.986c-0.162-0.198-0.035-0.45,0.271-0.536l0.205-0.057
	c0.372-0.103,0.79-0.088,1.144,0.042l2.166,0.796c0.843-0.347,1.799-0.71,2.808-1.068L3.303,2.262
	c-0.333-0.149-0.329-0.49,0.008-0.638l0.345-0.15c0.575-0.25,1.273-0.325,1.93-0.204l7.019,1.285
	c2.189-0.603,4.169-1.015,5.338-1.015c0.314,0,0.628,0.007,0.929,0.022l-2.119,0.664l-0.05,0.495l3.272-1.045
	C20.759,1.805,21.236,2.047,21.236,2.532z M12.694,6.759l2.621,2.065c0.157,0.126,0.416,0.165,0.637,0.094l0.351-0.114
	c0.638-0.206,1.016-0.674,0.934-1.161l-0.328-1.947c-0.019-0.12-0.196-0.197-0.36-0.157l-3.737,0.916
	C12.627,6.5,12.568,6.659,12.694,6.759z M2.163,16.053c-0.006-0.187,0.006-0.371,0.021-0.565c0.004-0.073,0.009-0.145,0.014-0.216
	c0.002-0.094,0.017-0.185,0.032-0.278c0.007-0.049,0.015-0.094,0.021-0.144l0.063-0.413c0.023-0.092,0.045-0.186,0.068-0.278
	c0.043-0.177,0.083-0.347,0.131-0.51l0.126-0.374c0.011-0.033,0.024-0.069,0.035-0.105c0.028-0.083,0.054-0.161,0.086-0.229
	c0.041-0.088,0.075-0.17,0.108-0.251c0.064-0.148,0.124-0.289,0.189-0.417l0.314-0.581c0.071-0.112,0.148-0.228,0.22-0.338
	l0.104-0.158c0.08-0.132,0.171-0.246,0.26-0.356l0.326-0.411c0.116-0.127,0.214-0.23,0.294-0.316
	c0.027-0.028,0.051-0.054,0.074-0.079l0.185,0.209c-0.025,0.025-0.053,0.053-0.083,0.082c-0.086,0.083-0.192,0.186-0.311,0.305
	l-0.012,0.014l-0.31,0.36c-0.085,0.098-0.181,0.208-0.272,0.344l-0.318,0.445l-0.013,0.019l-0.317,0.533
	c-0.075,0.132-0.14,0.268-0.202,0.399c-0.036,0.074-0.071,0.15-0.11,0.227c-0.045,0.082-0.079,0.173-0.112,0.261
	c-0.011,0.029-0.022,0.063-0.035,0.093l-0.134,0.349c-0.058,0.167-0.104,0.331-0.148,0.49c-0.026,0.091-0.051,0.184-0.08,0.275
	l-0.007,0.027l-0.075,0.396c-0.009,0.044-0.017,0.083-0.024,0.122c-0.021,0.095-0.042,0.205-0.05,0.322
	c-0.004,0.06-0.013,0.128-0.02,0.196C2.184,15.68,2.166,15.863,2.163,16.053z M4.651,9.649c0,0-0.051,0.053-0.146,0.154
	c-0.095,0.103-0.234,0.245-0.412,0.44c-0.086,0.109-0.182,0.23-0.286,0.36c-0.104,0.132-0.22,0.27-0.319,0.434
	c-0.104,0.16-0.217,0.327-0.332,0.508c-0.102,0.189-0.209,0.387-0.321,0.594c-0.106,0.21-0.196,0.442-0.3,0.674
	c-0.055,0.115-0.09,0.24-0.134,0.366c-0.042,0.124-0.084,0.252-0.127,0.382c-0.08,0.26-0.136,0.537-0.207,0.814
	C2.045,14.521,2.022,14.663,2,14.809C1.981,14.955,1.949,15.1,1.944,15.25c-0.016,0.3-0.05,0.604-0.028,0.914
	c0.006,0.153,0.004,0.311,0.018,0.467c0.019,0.155,0.038,0.311,0.057,0.468c0.011,0.077,0.017,0.157,0.033,0.235l0.052,0.231
	c0.035,0.155,0.065,0.313,0.108,0.466l0.15,0.454c0.027,0.073,0.047,0.152,0.081,0.225l0.098,0.218
	c0.067,0.143,0.126,0.292,0.201,0.431l0.241,0.407c0.074,0.14,0.171,0.264,0.265,0.385c0.096,0.126,0.18,0.245,0.286,0.371
	c0.101,0.109,0.201,0.219,0.3,0.327c0.11,0.104,0.223,0.207,0.334,0.311c0.227,0.189,0.457,0.369,0.698,0.517
	c0.48,0.305,0.979,0.524,1.464,0.674c0.488,0.146,0.961,0.216,1.396,0.251c0.22,0.006,0.428,0.023,0.625,0.008
	c0.101-0.003,0.197-0.008,0.291-0.009c0.092-0.012,0.183-0.021,0.271-0.031c0.068-0.009,0.137-0.013,0.201-0.021
	c0.018-0.002,0.035-0.007,0.053-0.009c0.081-0.015,0.158-0.027,0.234-0.042c0.074-0.015,0.146-0.026,0.215-0.039
	c0.068-0.016,0.133-0.033,0.195-0.049c0.122-0.034,0.231-0.056,0.325-0.086c0.094-0.031,0.172-0.058,0.238-0.077
	c0.128-0.042,0.196-0.064,0.196-0.064s-0.069,0.019-0.199,0.056c-0.064,0.016-0.146,0.038-0.239,0.065
	c-0.095,0.027-0.207,0.044-0.33,0.069c-0.061,0.016-0.126,0.027-0.194,0.041c-0.069,0.009-0.14,0.019-0.216,0.028
	c-0.075,0.01-0.153,0.021-0.234,0.033c-0.081,0.008-0.167,0.012-0.253,0.017c-0.088,0.007-0.178,0.013-0.27,0.018
	c-0.093,0-0.188-0.001-0.287-0.001c-0.197,0.005-0.403-0.023-0.616-0.036c-0.427-0.055-0.886-0.143-1.354-0.308
	c-0.465-0.167-0.939-0.398-1.387-0.713c-0.224-0.151-0.438-0.334-0.646-0.521c-0.098-0.1-0.197-0.197-0.297-0.3
	c-0.095-0.112-0.191-0.226-0.288-0.338c-0.333-0.462-0.666-0.968-0.865-1.529l-0.084-0.206c-0.029-0.069-0.043-0.143-0.066-0.214
	l-0.124-0.427c-0.033-0.146-0.054-0.293-0.083-0.438l-0.039-0.216c-0.013-0.074-0.013-0.146-0.022-0.222
	c-0.012-0.146-0.024-0.291-0.036-0.434c-0.007-0.146,0-0.293,0-0.434c-0.009-0.288,0.035-0.57,0.06-0.845
	c0.009-0.141,0.044-0.273,0.068-0.408c0.026-0.133,0.052-0.265,0.077-0.396c0.077-0.254,0.138-0.509,0.22-0.745
	c0.044-0.119,0.089-0.233,0.133-0.346c0.045-0.114,0.081-0.229,0.137-0.334c0.106-0.21,0.196-0.418,0.302-0.608
	c0.11-0.186,0.217-0.364,0.318-0.533c0.113-0.159,0.222-0.31,0.324-0.452c0.097-0.146,0.205-0.263,0.301-0.374
	c0.095-0.111,0.183-0.213,0.262-0.307c0.178-0.181,0.329-0.321,0.426-0.417c0.1-0.098,0.153-0.149,0.153-0.149L4.651,9.649
	L4.651,9.649z M10.544,22.18L10.544,22.18L10.544,22.18z"/>
</svg>
