<?xml version="1.0" encoding="UTF-8" standalone="yes"?>
<svg xmlns="http://www.w3.org/2000/svg" xmlns:xlink="http://www.w3.org/1999/xlink" width="24px" height="24px" viewBox="0 0 18 18" version="1.1">
  <g id="surface1">
    <path style=" stroke:none;fill-rule:nonzero;fill:rgb(0%,0%,0%);fill-opacity:1;" d="M 16.355469 2.757812 L 14.855469 0.6875 C 14.550781 0.269531 14.074219 0.0117188 13.523438 0.0078125 C 13.488281 0.0078125 7.125 0 7.125 0 L 7.125 5.035156 C 7.125 5.121094 7.082031 5.199219 7.011719 5.246094 C 6.9375 5.292969 6.847656 5.300781 6.769531 5.265625 L 5.5 4.691406 C 5.433594 4.660156 5.359375 4.660156 5.292969 4.6875 L 3.953125 5.273438 C 3.875 5.308594 3.78125 5.300781 3.710938 5.253906 C 3.640625 5.207031 3.59375 5.125 3.59375 5.039062 L 3.59375 0 L 2.214844 0 C 1.730469 0 1.351562 0.390625 1.351562 0.871094 C 1.351562 0.871094 1.375 15.214844 1.378906 15.25 C 1.457031 15.707031 1.71875 16.117188 2.109375 16.367188 L 4.207031 17.742188 C 4.441406 17.898438 4.714844 17.980469 4.996094 17.980469 L 14.261719 17.980469 C 15.566406 17.980469 16.628906 16.914062 16.628906 15.609375 L 16.628906 3.601562 C 16.628906 3.296875 16.535156 3.003906 16.355469 2.757812 Z M 15.007812 15.609375 C 15.007812 16.027344 14.679688 16.355469 14.261719 16.355469 L 5.046875 16.355469 L 3.539062 15.378906 L 12.835938 15.378906 C 13.320312 15.378906 13.695312 14.980469 13.695312 14.5 L 13.695312 1.832031 L 15.007812 3.65625 Z M 15.007812 15.609375 "/>
  </g>
</svg>