<?xml version="1.0" encoding="UTF-8" standalone="yes"?>
<svg xmlns="http://www.w3.org/2000/svg" xmlns:xlink="http://www.w3.org/1999/xlink" width="24px" height="24px" viewBox="0 0 18 18" version="1.1">
  <g id="surface1">
    <path style=" stroke:none;fill-rule:nonzero;fill:rgb(0%,0%,0%);fill-opacity:1;" d="M 5.609375 11.875 L 10.332031 8.796875 L 10.332031 6.132812 L 5.609375 9.214844 Z M 5.609375 11.875 "/>
    <path style=" stroke:none;fill-rule:nonzero;fill:rgb(0%,0%,0%);fill-opacity:1;" d="M 2.363281 10.769531 L 5.3125 11.875 L 5.3125 9.214844 L 2.363281 8.109375 Z M 2.363281 10.769531 "/>
    <path style=" stroke:none;fill-rule:nonzero;fill:rgb(0%,0%,0%);fill-opacity:1;" d="M 5.460938 8.761719 L 9.890625 5.898438 L 6.992188 4.65625 L 2.546875 7.601562 Z M 5.460938 8.761719 "/>
    <path style=" stroke:none;fill-rule:nonzero;fill:rgb(0%,0%,0%);fill-opacity:1;" d="M 15.351562 2.886719 L 10.628906 5.96875 L 10.628906 8.628906 L 15.351562 5.546875 Z M 15.351562 2.886719 "/>
    <path style=" stroke:none;fill-rule:nonzero;fill:rgb(0%,0%,0%);fill-opacity:1;" d="M 14.910156 2.652344 L 12.011719 1.410156 L 7.566406 4.355469 L 10.480469 5.511719 Z M 14.910156 2.652344 "/>
    <path style=" stroke:none;fill-rule:nonzero;fill:rgb(0%,0%,0%);fill-opacity:1;" d="M 3.246094 16.601562 L 7.972656 13.519531 L 7.972656 10.855469 L 3.246094 13.9375 Z M 3.246094 16.601562 "/>
    <path style=" stroke:none;fill-rule:nonzero;fill:rgb(0%,0%,0%);fill-opacity:1;" d="M 2.953125 13.9375 L 0 12.832031 L 0 15.496094 L 2.953125 16.601562 Z M 2.953125 13.9375 "/>
    <path style=" stroke:none;fill-rule:nonzero;fill:rgb(0%,0%,0%);fill-opacity:1;" d="M 4.992188 12.316406 L 2.269531 11.152344 L 0.183594 12.429688 L 3.101562 13.484375 Z M 4.992188 12.316406 "/>
    <path style=" stroke:none;fill-rule:nonzero;fill:rgb(0%,0%,0%);fill-opacity:1;" d="M 15.648438 5.164062 L 15.796875 5.21875 L 17.6875 4.050781 L 15.648438 3.179688 Z M 15.648438 5.164062 "/>
    <path style=" stroke:none;fill-rule:nonzero;fill:rgb(0%,0%,0%);fill-opacity:1;" d="M 8.265625 13.351562 L 12.992188 10.269531 L 12.992188 7.609375 L 8.265625 10.691406 Z M 8.265625 13.351562 "/>
    <path style=" stroke:none;fill-rule:nonzero;fill:rgb(0%,0%,0%);fill-opacity:1;" d="M 13.285156 7.445312 L 13.285156 10.105469 L 18.007812 7.023438 L 18.007812 4.363281 Z M 13.285156 7.445312 "/>
  </g>
</svg>