<?xml version="1.0" encoding="UTF-8" standalone="yes"?>
<svg xmlns="http://www.w3.org/2000/svg" xmlns:xlink="http://www.w3.org/1999/xlink" width="24px" height="24px" viewBox="0 0 18 18" version="1.1">
  <g id="surface1">
    <path style=" stroke:none;fill-rule:nonzero;fill:rgb(0%,0%,0%);fill-opacity:1;" d="M 17.996094 4.832031 L 7.542969 11.957031 L 7.542969 16.558594 L 17.996094 9.285156 Z M 17.996094 4.832031 "/>
    <path style=" stroke:none;fill-rule:nonzero;fill:rgb(0%,0%,0%);fill-opacity:1;" d="M 6.71875 11.796875 L 0.015625 9.105469 L 0 14.207031 L 6.71875 16.722656 Z M 6.71875 11.796875 "/>
    <path style=" stroke:none;fill-rule:nonzero;fill:rgb(0%,0%,0%);fill-opacity:1;" d="M 7.175781 11.035156 L 17.714844 3.839844 L 10.816406 1.269531 L 0.238281 8.164062 Z M 10.316406 7.257812 L 7.5625 9.144531 C 7.164062 9.417969 6.558594 9.496094 6.226562 9.320312 L 5.636719 9.015625 C 5.324219 8.851562 5.386719 8.515625 5.773438 8.261719 L 8.441406 6.511719 C 8.796875 6.28125 9.347656 6.195312 9.6875 6.324219 L 10.320312 6.5625 C 10.675781 6.699219 10.683594 7.007812 10.316406 7.257812 Z M 13.882812 3.535156 L 14.546875 3.710938 C 14.925781 3.808594 14.980469 4.066406 14.664062 4.285156 L 12.25 5.9375 C 11.902344 6.175781 11.320312 6.261719 10.957031 6.132812 L 10.320312 5.902344 C 9.976562 5.78125 9.984375 5.5 10.320312 5.28125 L 12.675781 3.738281 C 12.988281 3.53125 13.523438 3.441406 13.882812 3.535156 Z M 7.699219 4.507812 L 9.972656 3.089844 C 10.273438 2.898438 10.769531 2.8125 11.082031 2.894531 L 11.664062 3.046875 C 11.992188 3.132812 12.015625 3.367188 11.707031 3.566406 L 9.371094 5.078125 C 9.035156 5.292969 8.503906 5.378906 8.191406 5.265625 L 7.636719 5.066406 C 7.339844 4.960938 7.371094 4.710938 7.699219 4.507812 Z M 3.332031 7.230469 L 5.890625 5.632812 C 6.230469 5.421875 6.738281 5.339844 7.03125 5.453125 L 7.578125 5.660156 C 7.886719 5.773438 7.859375 6.054688 7.511719 6.28125 L 4.867188 7.988281 C 4.488281 8.234375 3.941406 8.3125 3.652344 8.164062 L 3.148438 7.902344 C 2.878906 7.757812 2.964844 7.460938 3.332031 7.230469 Z M 3.332031 7.230469 "/>
  </g>
</svg>