<?xml version="1.0" encoding="UTF-8" standalone="yes"?>
<svg xmlns="http://www.w3.org/2000/svg" xmlns:xlink="http://www.w3.org/1999/xlink" width="24px" height="24px" viewBox="0 0 18 18" version="1.1">
  <g id="surface1">
    <path style=" stroke:none;fill-rule:nonzero;fill:rgb(0%,0%,0%);fill-opacity:1;" d="M 7.414062 2.070312 C 7.464844 2.1875 7.589844 2.457031 7.914062 2.457031 L 10.140625 2.457031 C 10.253906 2.457031 10.523438 2.414062 10.648438 2.054688 L 11.355469 0.695312 L 11.375 0.65625 C 11.425781 0.523438 11.402344 0.371094 11.316406 0.242188 C 11.210938 0.0976562 11.035156 0 10.863281 0 L 7.195312 0 C 7.019531 0 6.851562 0.0859375 6.75 0.222656 C 6.65625 0.347656 6.632812 0.496094 6.675781 0.636719 Z M 7.414062 2.070312 "/>
    <path style=" stroke:none;fill-rule:nonzero;fill:rgb(0%,0%,0%);fill-opacity:1;" d="M 10.832031 3.148438 L 10.832031 5.375 C 10.832031 5.488281 10.875 5.757812 11.234375 5.882812 L 12.59375 6.589844 L 12.632812 6.609375 C 12.679688 6.625 12.730469 6.636719 12.78125 6.636719 C 13.046875 6.636719 13.289062 6.378906 13.289062 6.097656 L 13.289062 2.425781 C 13.289062 2.136719 13.058594 1.886719 12.785156 1.886719 C 12.742188 1.886719 12.695312 1.894531 12.652344 1.90625 L 11.21875 2.648438 C 11.101562 2.699219 10.832031 2.824219 10.832031 3.148438 Z M 10.832031 3.148438 "/>
    <path style=" stroke:none;fill-rule:nonzero;fill:rgb(0%,0%,0%);fill-opacity:1;" d="M 5.269531 6.636719 C 5.3125 6.636719 5.359375 6.628906 5.402344 6.613281 L 6.835938 5.875 C 6.953125 5.824219 7.222656 5.699219 7.222656 5.375 L 7.222656 3.148438 C 7.222656 3.035156 7.179688 2.765625 6.820312 2.640625 L 5.460938 1.933594 L 5.421875 1.914062 C 5.375 1.898438 5.324219 1.886719 5.273438 1.886719 C 5.007812 1.886719 4.765625 2.144531 4.765625 2.425781 L 4.765625 6.09375 C 4.765625 6.386719 4.996094 6.636719 5.269531 6.636719 Z M 5.269531 6.636719 "/>
    <path style=" stroke:none;fill-rule:nonzero;fill:rgb(0%,0%,0%);fill-opacity:1;" d="M 12.882812 17.734375 C 12.894531 17.648438 12.878906 17.5625 12.828125 17.488281 L 11.394531 15.398438 C 11.429688 15.417969 11.476562 15.417969 11.511719 15.394531 C 11.5625 15.359375 11.574219 15.292969 11.539062 15.242188 L 11.042969 14.527344 C 11.007812 14.476562 10.941406 14.464844 10.890625 14.5 C 10.855469 14.523438 10.84375 14.5625 10.847656 14.597656 L 9.375 12.457031 L 9.375 11.523438 C 9.566406 11.433594 9.699219 11.246094 9.699219 11.023438 C 9.699219 10.800781 9.566406 10.609375 9.375 10.519531 L 9.375 8.523438 L 10.863281 8.523438 C 11.035156 8.523438 11.203125 8.4375 11.308594 8.300781 C 11.398438 8.179688 11.421875 8.027344 11.382812 7.886719 L 10.640625 6.453125 C 10.59375 6.335938 10.464844 6.066406 10.140625 6.066406 L 9.375 6.066406 L 9.375 5.800781 C 10.082031 5.644531 10.609375 5.011719 10.609375 4.261719 C 10.609375 3.390625 9.902344 2.679688 9.027344 2.679688 C 8.15625 2.679688 7.449219 3.390625 7.449219 4.261719 C 7.449219 5.011719 7.976562 5.644531 8.679688 5.800781 L 8.679688 6.066406 L 7.917969 6.066406 C 7.804688 6.066406 7.53125 6.105469 7.410156 6.464844 L 6.699219 7.828125 L 6.683594 7.867188 C 6.632812 8 6.652344 8.152344 6.742188 8.28125 C 6.847656 8.429688 7.019531 8.523438 7.195312 8.523438 L 8.679688 8.523438 L 8.679688 10.519531 C 8.492188 10.609375 8.359375 10.796875 8.359375 11.019531 C 8.359375 11.242188 8.492188 11.433594 8.679688 11.523438 L 8.679688 12.457031 L 7.207031 14.605469 C 7.210938 14.566406 7.195312 14.523438 7.160156 14.5 C 7.113281 14.464844 7.042969 14.476562 7.011719 14.527344 L 6.511719 15.242188 C 6.476562 15.292969 6.492188 15.359375 6.539062 15.394531 C 6.582031 15.421875 6.632812 15.417969 6.667969 15.386719 L 5.230469 17.484375 C 5.175781 17.5625 5.160156 17.648438 5.171875 17.730469 C 4.886719 17.757812 4.6875 17.820312 4.6875 17.886719 C 4.6875 17.980469 5.058594 18.058594 5.515625 18.058594 C 5.972656 18.058594 6.34375 17.980469 6.34375 17.886719 C 6.34375 17.820312 6.164062 17.765625 5.902344 17.738281 L 8.679688 13.6875 L 8.679688 16.71875 C 8.679688 16.757812 8.691406 16.796875 8.703125 16.832031 C 8.410156 16.859375 8.203125 16.921875 8.203125 16.992188 C 8.203125 17.085938 8.574219 17.160156 9.03125 17.160156 C 9.488281 17.160156 9.855469 17.085938 9.855469 16.992188 C 9.855469 16.921875 9.652344 16.859375 9.359375 16.832031 C 9.371094 16.796875 9.378906 16.757812 9.378906 16.71875 L 9.378906 13.6875 L 12.15625 17.738281 C 11.894531 17.765625 11.714844 17.824219 11.714844 17.886719 C 11.714844 17.980469 12.085938 18.058594 12.542969 18.058594 C 13 18.058594 13.371094 17.984375 13.371094 17.886719 C 13.367188 17.820312 13.167969 17.761719 12.882812 17.734375 Z M 9.027344 5.148438 C 8.539062 5.148438 8.144531 4.75 8.144531 4.261719 C 8.144531 3.773438 8.539062 3.375 9.027344 3.375 C 9.515625 3.375 9.910156 3.773438 9.910156 4.261719 C 9.910156 4.75 9.515625 5.148438 9.027344 5.148438 Z M 9.027344 5.148438 "/>
  </g>
</svg>