<?xml version="1.0" encoding="UTF-8" standalone="yes"?>
<svg xmlns="http://www.w3.org/2000/svg" xmlns:xlink="http://www.w3.org/1999/xlink" width="24px" height="24px" viewBox="0 0 18 18" version="1.1">
  <g id="surface1">
    <path style=" stroke:none;fill-rule:nonzero;fill:rgb(0%,0%,0%);fill-opacity:1;" d="M 12.726562 10.386719 C 12.542969 11.574219 11.574219 12.542969 10.386719 12.726562 C 8.480469 13.019531 6.863281 11.398438 7.152344 9.496094 C 7.335938 8.308594 8.308594 7.335938 9.496094 7.152344 C 11.398438 6.863281 13.015625 8.480469 12.726562 10.386719 Z M 16.519531 5.757812 L 16.519531 14.121094 C 16.519531 14.753906 16.007812 15.265625 15.375 15.265625 L 2.625 15.265625 C 1.992188 15.265625 1.480469 14.753906 1.480469 14.121094 L 1.480469 5.757812 C 1.480469 5.125 1.992188 4.613281 2.625 4.613281 L 2.734375 4.613281 L 2.734375 4.359375 C 2.734375 4.152344 2.902344 3.988281 3.105469 3.988281 L 4.867188 3.988281 C 5.074219 3.988281 5.242188 4.152344 5.242188 4.359375 L 5.242188 4.613281 L 6.210938 4.613281 L 6.980469 3.027344 C 7.066406 2.847656 7.246094 2.734375 7.445312 2.734375 L 12.433594 2.734375 C 12.632812 2.734375 12.816406 2.847656 12.902344 3.027344 L 13.667969 4.613281 L 15.375 4.613281 C 16.007812 4.613281 16.519531 5.125 16.519531 5.757812 Z M 4.769531 5.867188 C 4.769531 5.433594 4.417969 5.082031 3.988281 5.082031 C 3.554688 5.082031 3.203125 5.433594 3.203125 5.867188 C 3.203125 6.300781 3.554688 6.648438 3.988281 6.648438 C 4.417969 6.648438 4.769531 6.300781 4.769531 5.867188 Z M 9.007812 5.96875 C 7.511719 6.300781 6.304688 7.511719 5.972656 9.007812 C 5.3125 11.980469 7.902344 14.566406 10.871094 13.910156 C 12.371094 13.578125 13.578125 12.367188 13.910156 10.871094 C 14.566406 7.902344 11.980469 5.3125 9.007812 5.96875 Z M 9.007812 5.96875 "/>
  </g>
</svg>