<?xml version="1.0" encoding="UTF-8" standalone="yes"?>
<svg xmlns="http://www.w3.org/2000/svg" xmlns:xlink="http://www.w3.org/1999/xlink" width="24px" height="24px" viewBox="0 0 18 18" version="1.1">
  <g id="surface1">
    <path style=" stroke:none;fill-rule:nonzero;fill:rgb(0%,0%,0%);fill-opacity:1;" d="M 14.261719 0 L 3.738281 0 C 1.675781 0 0 1.675781 0 3.738281 L 0 14.261719 C 0 16.324219 1.675781 18 3.738281 18 L 14.261719 18 C 16.324219 18 18 16.324219 18 14.261719 L 18 3.738281 C 18 1.675781 16.324219 0 14.261719 0 Z M 3.738281 0.683594 L 14.261719 0.683594 C 15.945312 0.683594 17.316406 2.054688 17.316406 3.738281 L 17.316406 13.871094 C 16.875 13.914062 16.605469 14.050781 16.367188 14.171875 C 16.109375 14.300781 15.910156 14.402344 15.464844 14.402344 C 15.019531 14.402344 14.816406 14.300781 14.5625 14.171875 C 14.273438 14.023438 13.941406 13.855469 13.308594 13.855469 C 12.675781 13.855469 12.347656 14.023438 12.054688 14.171875 C 11.800781 14.300781 11.601562 14.402344 11.15625 14.402344 C 10.710938 14.402344 10.507812 14.300781 10.253906 14.171875 C 9.960938 14.023438 9.632812 13.855469 9 13.855469 C 8.367188 13.855469 8.035156 14.023438 7.746094 14.171875 C 7.492188 14.300781 7.289062 14.402344 6.84375 14.402344 C 6.398438 14.402344 6.199219 14.300781 5.945312 14.171875 C 5.652344 14.023438 5.320312 13.855469 4.691406 13.855469 C 4.058594 13.855469 3.726562 14.023438 3.4375 14.171875 C 3.179688 14.300781 2.980469 14.402344 2.535156 14.402344 C 2.089844 14.402344 1.890625 14.300781 1.632812 14.171875 C 1.394531 14.050781 1.125 13.914062 0.683594 13.871094 L 0.683594 3.738281 C 0.683594 2.054688 2.054688 0.683594 3.738281 0.683594 Z M 14.261719 17.316406 L 3.738281 17.316406 C 2.1875 17.316406 0.90625 16.15625 0.710938 14.660156 C 0.945312 14.699219 1.097656 14.777344 1.28125 14.867188 C 1.574219 15.015625 1.902344 15.183594 2.535156 15.183594 C 3.167969 15.183594 3.496094 15.015625 3.789062 14.867188 C 4.042969 14.738281 4.246094 14.636719 4.691406 14.636719 C 5.136719 14.636719 5.335938 14.738281 5.589844 14.867188 C 5.882812 15.015625 6.210938 15.183594 6.84375 15.183594 C 7.476562 15.183594 7.808594 15.015625 8.097656 14.867188 C 8.351562 14.738281 8.554688 14.636719 9 14.636719 C 9.445312 14.636719 9.644531 14.738281 9.898438 14.867188 C 10.191406 15.015625 10.523438 15.183594 11.15625 15.183594 C 11.785156 15.183594 12.117188 15.015625 12.410156 14.867188 C 12.664062 14.738281 12.863281 14.636719 13.308594 14.636719 C 13.753906 14.636719 13.957031 14.738281 14.210938 14.867188 C 14.5 15.015625 14.832031 15.183594 15.464844 15.183594 C 16.097656 15.183594 16.425781 15.015625 16.71875 14.867188 C 16.898438 14.777344 17.054688 14.699219 17.289062 14.660156 C 17.09375 16.15625 15.8125 17.316406 14.261719 17.316406 Z M 14.261719 17.316406 "/>
    <path style=" stroke:none;fill-rule:nonzero;fill:rgb(0%,0%,0%);fill-opacity:1;" d="M 2.78125 9.289062 C 3.015625 9.207031 3.230469 9.164062 3.449219 9.164062 C 3.953125 9.164062 4.402344 9.390625 4.957031 9.691406 C 5.175781 10.886719 6.144531 11.6875 6.1875 11.722656 C 6.230469 11.757812 6.28125 11.773438 6.332031 11.773438 C 6.347656 11.773438 6.363281 11.773438 6.378906 11.769531 C 6.445312 11.757812 6.5 11.714844 6.53125 11.652344 C 7.125 10.539062 7.304688 9.660156 7.398438 8.804688 C 8.414062 8.679688 9.382812 8.460938 10.292969 8.15625 L 10.234375 8.207031 C 10.1875 8.25 10.15625 8.308594 10.15625 8.371094 C 10.15625 8.433594 10.179688 8.496094 10.222656 8.539062 C 10.269531 8.585938 10.695312 9 11.167969 9 C 11.222656 9 11.273438 8.992188 11.324219 8.980469 C 11.515625 8.941406 11.765625 8.761719 12.1875 7.742188 C 12.261719 7.566406 12.328125 7.398438 12.382812 7.246094 C 13.574219 6.589844 14.617188 5.757812 15.46875 4.757812 C 15.550781 4.664062 15.539062 4.519531 15.445312 4.4375 C 14.550781 3.65625 13.359375 3.242188 11.996094 3.242188 C 11.445312 3.242188 10.886719 3.3125 10.347656 3.449219 C 9.867188 3.277344 8.972656 2.980469 8.480469 2.980469 C 8.308594 2.980469 8.183594 3.015625 8.09375 3.085938 C 7.671875 3.425781 7.730469 4.140625 7.738281 4.21875 C 7.746094 4.28125 7.777344 4.339844 7.828125 4.378906 C 7.867188 4.410156 7.914062 4.425781 7.964844 4.425781 C 7.976562 4.425781 7.988281 4.425781 8 4.421875 L 8.152344 4.398438 C 7.769531 4.648438 7.417969 4.9375 7.113281 5.257812 C 6.554688 5.839844 6.164062 6.5 5.949219 7.207031 C 5.628906 7.34375 5.273438 7.445312 4.847656 7.542969 C 3.847656 7.777344 3.222656 8.148438 2.53125 8.925781 C 2.464844 9.003906 2.457031 9.117188 2.515625 9.207031 C 2.574219 9.292969 2.683594 9.328125 2.78125 9.289062 Z M 13.398438 4.152344 C 13.585938 4.152344 13.738281 4.304688 13.738281 4.496094 C 13.738281 4.683594 13.585938 4.835938 13.398438 4.835938 C 13.207031 4.835938 13.054688 4.683594 13.054688 4.496094 C 13.054688 4.304688 13.207031 4.152344 13.398438 4.152344 Z M 13.398438 4.152344 "/>
  </g>
</svg>