<?xml version="1.0" encoding="utf-8"?>
<!-- Generator: Adobe Illustrator 15.1.0, SVG Export Plug-In . SVG Version: 6.00 Build 0)  -->
<!DOCTYPE svg PUBLIC "-//W3C//DTD SVG 1.1//EN" "http://www.w3.org/Graphics/SVG/1.1/DTD/svg11.dtd">
<svg version="1.1"
	 id="svg2" xmlns:rdf="http://www.w3.org/1999/02/22-rdf-syntax-ns#" xmlns:sodipodi="http://sodipodi.sourceforge.net/DTD/sodipodi-0.dtd" xmlns:inkscape="http://www.inkscape.org/namespaces/inkscape" xmlns:cc="http://creativecommons.org/ns#" xmlns:svg="http://www.w3.org/2000/svg" xmlns:dc="http://purl.org/dc/elements/1.1/" inkscape:version="0.48.5 r10040" sodipodi:docname="ambulance.svg"
	 xmlns="http://www.w3.org/2000/svg" xmlns:xlink="http://www.w3.org/1999/xlink" x="0px" y="0px" width="24px" height="24px"
	 viewBox="0 0 24 24" enable-background="new 0 0 24 24" xml:space="preserve">
<path fill="#010202" d="M9.463,6.441v0.098h11.654c1.906,0,2.304,1.546,2.306,3.455v4.8c0,1.801-1.378,3.278-3.139,3.438
	c0.043-0.18,0.065-0.366,0.065-0.559c0-1.377-1.12-2.496-2.495-2.496c-1.376,0-2.496,1.119-2.496,2.496
	c0,0.198,0.026,0.391,0.07,0.574H7.802c0.044-0.185,0.071-0.376,0.071-0.574c0-1.377-1.119-2.496-2.496-2.496
	c-1.375,0-2.496,1.119-2.496,2.496c0,0.132,0.014,0.26,0.033,0.386c-1.359-0.465-2.336-1.75-2.336-3.269l1.151-4.797
	C2.4,7.402,4.14,6.538,6.047,6.538h0.693V6.441 M7.775,11.779l0.001-3.898H5.345c0,0-1.311-0.101-1.541,1.065
	C3.73,9.207,3.688,9.354,3.666,9.43l-0.593,2.349h0.313H7.775L7.775,11.779z M17.283,10.75h-2.138V8.611h-2.061v2.138h-2.136v2.059
	h2.136v2.138h2.061v-2.138h2.138V10.75L17.283,10.75z M3.271,17.75c0,1.146,0.929,2.075,2.076,2.075s2.075-0.93,2.075-2.075
	c0-1.146-0.929-2.076-2.075-2.076S3.271,16.604,3.271,17.75z M15.822,17.75c0,1.146,0.93,2.075,2.076,2.075
	c1.146,0,2.075-0.93,2.075-2.075c0-1.146-0.93-2.076-2.075-2.076C16.752,15.674,15.822,16.604,15.822,17.75z M9.463,6.053
	c0-0.864-0.61-1.563-1.362-1.563s-1.361,0.7-1.361,1.563"/>
</svg>
