<?xml version="1.0" encoding="utf-8"?>
<!-- Generator: Adobe Illustrator 15.1.0, SVG Export Plug-In . SVG Version: 6.00 Build 0)  -->
<!DOCTYPE svg PUBLIC "-//W3C//DTD SVG 1.1//EN" "http://www.w3.org/Graphics/SVG/1.1/DTD/svg11.dtd">
<svg version="1.1" id="Layer_1" xmlns="http://www.w3.org/2000/svg" xmlns:xlink="http://www.w3.org/1999/xlink" x="0px" y="0px"
	 width="24px" height="24px" viewBox="0 0 24 24" enable-background="new 0 0 24 24" xml:space="preserve">
<path d="M20.998,13.64l-0.143-0.442c-0.08-0.247-0.328-0.446-0.557-0.446h-0.52c-0.388-1.158-0.862-2.563-1.002-2.89
	c-0.215-0.511-0.899-0.741-1.276-0.854c0,0-0.63-0.255-2.732-0.255c-2.102,0-2.731,0.255-2.731,0.255
	c-0.443,0.156-1.056,0.38-1.301,0.876c-0.115,0.234-0.599,1.674-0.989,2.867H9.241c-0.229,0-0.481,0.199-0.56,0.446L8.538,13.64
	c-0.079,0.245,0.043,0.444,0.275,0.444h0.499c-0.064,0.2-0.103,0.32-0.103,0.32c-0.04,0.071-0.069,0.404-0.069,0.493v2.521v0.175
	v1.353c0,0.26,0.199,0.471,0.442,0.471H11.2c0.244,0,0.441-0.211,0.441-0.471v-0.863h6.255v0.863c0,0.26,0.196,0.471,0.441,0.471
	h1.62c0.241,0,0.438-0.211,0.438-0.471v-1.353v-0.175v-2.521c0-0.089-0.028-0.421-0.067-0.493c0,0-0.041-0.121-0.106-0.32h0.504
	C20.956,14.084,21.078,13.883,20.998,13.64z M11.631,16.117h-0.668c-0.6,0-1.198-0.086-1.198-0.489v-0.494
	c0-0.472,0.26-0.488,0.536-0.488c0.273,0,0.812,0.244,1.166,0.412c0.387,0.185,0.82,0.338,0.82,0.646
	C12.286,15.989,12.137,16.117,11.631,16.117z M10.699,12.931c0.33-1.458,0.687-2.28,0.765-2.51c0.063-0.167,0.125-0.682,3.303-0.682
	c3.182,0,3.257,0.587,3.265,0.595c0.097,0.312,0.485,1.251,0.797,2.596c0,0-1.343,0.486-4.062,0.486
	C12.05,13.416,10.699,12.931,10.699,12.931z M17.25,15.703c0-0.308,0.434-0.459,0.818-0.643c0.354-0.168,0.892-0.415,1.166-0.415
	c0.278,0,0.534,0.018,0.534,0.49v0.493h0.003c0,0.405-0.6,0.491-1.196,0.491h-0.673C17.4,16.117,17.25,15.989,17.25,15.703z
	 M10.933,7.583c-0.087-0.062-0.183-0.102-0.284-0.105c-0.143-0.004-0.289,0.044-0.399,0.154c0,0-0.002,0.003-0.003,0.003
	l-0.067,0.047L9.569,8.097V7.919C9.457,6.576,7.9,6.595,7.9,6.595H7.225L6.657,7.528l-0.57-0.932H5.44
	C3.682,6.629,3.745,7.919,3.745,7.919v3.014h0.001c0,0.008-0.001,0.017-0.001,0.022c0,0.287,0.231,0.518,0.517,0.518
	c0.285,0,0.517-0.231,0.517-0.518c0-0.006,0-0.015-0.001-0.022h0.001V8.146h0.323l-0.004,8.78c0,0.385,0.313,0.699,0.698,0.699
	c0.387,0,0.699-0.314,0.699-0.699v-5.667h0.311v5.671l0.006,0.007c0.005,0.38,0.313,0.688,0.696,0.688s0.695-0.313,0.695-0.695
	L8.2,8.131h0.336v0.917c0,0,0,0.002,0,0.004c0,0.285,0.232,0.518,0.516,0.518c0.084,0,0.159-0.024,0.231-0.061l0.002,0.003
	l0.894-0.6l0.47-0.315l0.337-0.225h-0.001c0.001-0.001,0.001-0.001,0.003-0.003c0.17-0.17,0.195-0.422,0.091-0.62 M6.647,6.372
	c0.654,0,1.183-0.53,1.183-1.183c0-0.654-0.529-1.183-1.183-1.183c-0.653,0-1.183,0.53-1.183,1.183
	C5.464,5.841,5.994,6.372,6.647,6.372z"/>
</svg>
