<?xml version="1.0" encoding="UTF-8" standalone="yes"?>
<svg xmlns="http://www.w3.org/2000/svg" xmlns:xlink="http://www.w3.org/1999/xlink" width="24px" height="24px" viewBox="0 0 18 18" version="1.1">
  <g id="surface1">
    <path style=" stroke:none;fill-rule:nonzero;fill:rgb(0%,0%,0%);fill-opacity:1;" d="M 0 16.457031 L 0 17.402344 L 4.496094 17.402344 L 4.496094 16.457031 C 4.496094 15.808594 4.222656 15.226562 3.785156 14.816406 C 3.363281 15.203125 2.824219 15.417969 2.246094 15.417969 C 1.671875 15.417969 1.128906 15.203125 0.710938 14.816406 C 0.273438 15.226562 0 15.808594 0 16.457031 Z M 0 16.457031 "/>
    <path style=" stroke:none;fill-rule:nonzero;fill:rgb(0%,0%,0%);fill-opacity:1;" d="M 6.753906 16.457031 L 6.753906 17.402344 L 11.246094 17.402344 L 11.246094 16.457031 C 11.246094 15.808594 10.976562 15.226562 10.539062 14.816406 C 10.117188 15.203125 9.574219 15.417969 9 15.417969 C 8.425781 15.417969 7.882812 15.203125 7.460938 14.816406 C 7.023438 15.226562 6.753906 15.808594 6.753906 16.457031 Z M 6.753906 16.457031 "/>
    <path style=" stroke:none;fill-rule:nonzero;fill:rgb(0%,0%,0%);fill-opacity:1;" d="M 17.289062 14.816406 C 16.871094 15.203125 16.328125 15.417969 15.753906 15.417969 C 15.175781 15.417969 14.636719 15.203125 14.214844 14.816406 C 13.777344 15.226562 13.503906 15.808594 13.503906 16.457031 L 13.503906 17.402344 L 18 17.402344 L 18 16.457031 C 18 15.808594 17.726562 15.226562 17.289062 14.816406 Z M 17.289062 14.816406 "/>
    <path style=" stroke:none;fill-rule:nonzero;fill:rgb(0%,0%,0%);fill-opacity:1;" d="M 0 0.605469 L 0 11.152344 C 1.742188 10.769531 5.109375 10.507812 8.980469 10.507812 C 12.878906 10.507812 16.269531 10.773438 18 11.164062 L 18 0.597656 C 16.269531 0.988281 12.878906 1.253906 8.980469 1.253906 C 5.109375 1.253906 1.742188 0.992188 0 0.605469 Z M 0 0.605469 "/>
    <path style=" stroke:none;fill-rule:nonzero;fill:rgb(0%,0%,0%);fill-opacity:1;" d="M 1.332031 14.402344 C 1.589844 14.589844 1.90625 14.699219 2.246094 14.699219 C 2.589844 14.699219 2.90625 14.589844 3.164062 14.402344 C 3.550781 14.121094 3.804688 13.660156 3.804688 13.140625 C 3.804688 12.28125 3.109375 11.582031 2.246094 11.582031 C 1.386719 11.582031 0.6875 12.28125 0.6875 13.140625 C 0.6875 13.660156 0.941406 14.121094 1.332031 14.402344 Z M 1.332031 14.402344 "/>
    <path style=" stroke:none;fill-rule:nonzero;fill:rgb(0%,0%,0%);fill-opacity:1;" d="M 8.085938 14.402344 C 8.34375 14.589844 8.65625 14.699219 9 14.699219 C 9.34375 14.699219 9.65625 14.589844 9.914062 14.402344 C 10.304688 14.121094 10.558594 13.660156 10.558594 13.140625 C 10.558594 12.28125 9.859375 11.582031 9 11.582031 C 8.140625 11.582031 7.441406 12.28125 7.441406 13.140625 C 7.441406 13.660156 7.695312 14.121094 8.085938 14.402344 Z M 8.085938 14.402344 "/>
    <path style=" stroke:none;fill-rule:nonzero;fill:rgb(0%,0%,0%);fill-opacity:1;" d="M 14.835938 14.402344 C 15.09375 14.589844 15.410156 14.699219 15.753906 14.699219 C 16.09375 14.699219 16.410156 14.589844 16.667969 14.402344 C 17.058594 14.121094 17.3125 13.660156 17.3125 13.140625 C 17.3125 12.28125 16.613281 11.582031 15.753906 11.582031 C 14.890625 11.582031 14.195312 12.28125 14.195312 13.140625 C 14.195312 13.660156 14.449219 14.121094 14.835938 14.402344 Z M 14.835938 14.402344 "/>
  </g>
</svg>