<?xml version="1.0" encoding="utf-8"?>
<!-- Generator: Adobe Illustrator 15.1.0, SVG Export Plug-In . SVG Version: 6.00 Build 0)  -->
<!DOCTYPE svg PUBLIC "-//W3C//DTD SVG 1.1//EN" "http://www.w3.org/Graphics/SVG/1.1/DTD/svg11.dtd">
<svg version="1.1" id="Layer_1" xmlns="http://www.w3.org/2000/svg" xmlns:xlink="http://www.w3.org/1999/xlink" x="0px" y="0px"
	 width="24px" height="24px" viewBox="0 0 24 24" enable-background="new 0 0 24 24" xml:space="preserve">
<g>
	<g>
		<circle cx="5.399" cy="18.48" r="2.289"/>
		<circle cx="12.048" cy="18.48" r="2.289"/>
		<circle cx="18.587" cy="18.48" r="2.289"/>
		<rect x="17.388" y="13.638" width="0.484" height="0.988"/>
		<path d="M2.126,3.231v11.393H16.01v-0.987v-0.323v-0.438h-0.121l-0.181-3.517h-3.307V8.412h3.259h0.488h0.796l0.733,0.851
			l0.71-0.851l1.558,0.204l0.101,3.542h-0.661l-0.035,0.718h-0.102v0.438v0.323v0.987h2.625V3.231H2.126z M17.645,8.122
			c-1.062,0-1.925-0.861-1.925-1.924c0-1.062,0.862-1.923,1.925-1.923c1.063,0,1.924,0.862,1.924,1.923
			C19.568,7.261,18.706,8.122,17.645,8.122z"/>
	</g>
</g>
</svg>
