<?xml version="1.0" encoding="utf-8"?>
<!-- Generator: Adobe Illustrator 15.1.0, SVG Export Plug-In . SVG Version: 6.00 Build 0)  -->
<!DOCTYPE svg PUBLIC "-//W3C//DTD SVG 1.1//EN" "http://www.w3.org/Graphics/SVG/1.1/DTD/svg11.dtd">
<svg version="1.1" id="Layer_1" xmlns="http://www.w3.org/2000/svg" xmlns:xlink="http://www.w3.org/1999/xlink" x="0px" y="0px"
	 width="24px" height="24px" viewBox="0 0 24 24" enable-background="new 0 0 24 24" xml:space="preserve">
<path fill="#010002" d="M20.712,4.998v6.838c0,0.195-0.157,0.353-0.353,0.353h-9.301c-0.194,0-0.352-0.158-0.352-0.353v-0.54
	l0.706-0.474v0.661h8.593V5.35h-8.594v2.582c-0.032,0.023-0.065,0.044-0.094,0.071l-0.099,0.069
	c-0.119-0.312-0.301-0.557-0.512-0.758V4.998c0-0.194,0.158-0.353,0.352-0.353h9.301C20.555,4.645,20.712,4.803,20.712,4.998z
	 M12.384,9.632l0.423-0.282h-0.001c0.001-0.003,0.001-0.003,0.003-0.005c0.215-0.213,0.247-0.53,0.115-0.779l3.416-2.319
	l-0.154-0.229l-3.445,2.337c-0.108-0.078-0.229-0.127-0.357-0.132c-0.18-0.006-0.364,0.055-0.501,0.193c0,0-0.003,0.004-0.005,0.004
	l-0.083,0.059l-0.767,0.522V8.779c-0.141-1.69-2.099-1.665-2.099-1.665H8.08L7.367,8.288L6.651,7.116H5.837
	c-2.21,0.042-2.131,1.664-2.131,1.664v3.788h0.001c0,0.01-0.001,0.021-0.001,0.028c0,0.36,0.291,0.651,0.65,0.651
	c0.358,0,0.649-0.291,0.649-0.651c0-0.007,0-0.019-0.001-0.028h0.001V9.064h0.406L5.407,20.101c0,0.484,0.395,0.879,0.877,0.879
	c0.486,0,0.878-0.395,0.878-0.879v-7.123h0.391v7.131l0.007,0.007c0.006,0.477,0.395,0.864,0.875,0.864s0.873-0.393,0.873-0.873
	L9.306,9.045h0.423v1.153c0,0,0,0.003,0,0.005c0,0.358,0.292,0.65,0.649,0.65c0.106,0,0.2-0.03,0.291-0.076l0.002,0.004l1.123-0.754
	L12.384,9.632z M7.354,6.833c0.822,0,1.488-0.667,1.488-1.488S8.176,3.858,7.354,3.858c-0.821,0-1.487,0.667-1.487,1.487
	C5.867,6.166,6.533,6.833,7.354,6.833z"/>
</svg>
