<?xml version="1.0" encoding="UTF-8" standalone="yes"?>
<svg xmlns="http://www.w3.org/2000/svg" xmlns:xlink="http://www.w3.org/1999/xlink" width="24px" height="24px" viewBox="0 0 18 18" version="1.1">
  <g id="surface1">
    <path style=" stroke:none;fill-rule:nonzero;fill:rgb(0.392157%,0%,0.784314%);fill-opacity:1;" d="M 13.246094 3.371094 C 13.246094 3.230469 13.136719 3.121094 12.996094 3.121094 L 6.488281 3.121094 C 6.351562 3.121094 6.238281 3.230469 6.238281 3.371094 L 6.238281 5.019531 C 6.386719 5.160156 6.515625 5.335938 6.597656 5.558594 L 6.667969 5.507812 C 6.6875 5.488281 6.710938 5.472656 6.734375 5.457031 L 6.734375 3.621094 L 12.75 3.621094 L 12.75 7.984375 L 6.734375 7.984375 L 6.734375 7.515625 L 6.242188 7.851562 L 6.242188 8.238281 C 6.242188 8.375 6.351562 8.488281 6.488281 8.488281 C 6.488281 8.488281 12.222656 8.488281 12.746094 8.488281 C 13.273438 8.488281 13.246094 8.1875 13.246094 8.1875 Z M 13.246094 3.371094 "/>
    <path style=" stroke:none;fill-rule:nonzero;fill:rgb(0.392157%,0%,0.784314%);fill-opacity:1;" d="M 4.914062 3.617188 C 4.914062 3.03125 4.449219 2.558594 3.875 2.558594 C 3.296875 2.558594 2.832031 3.03125 2.832031 3.617188 C 2.832031 4.203125 3.296875 4.675781 3.875 4.675781 C 4.449219 4.675781 4.914062 4.203125 4.914062 3.617188 Z M 4.914062 3.617188 "/>
    <path style=" stroke:none;fill-rule:nonzero;fill:rgb(0.392157%,0%,0.784314%);fill-opacity:1;" d="M 17.246094 14.042969 L 16.21875 13.101562 L 16.066406 12.960938 L 15.375 12.324219 C 14.542969 11.558594 13.621094 11.859375 12.769531 12.597656 L 12.761719 12.605469 L 12.710938 12.664062 C 12.605469 12.644531 12.394531 12.585938 12.265625 12.414062 C 12.136719 12.238281 12.113281 11.980469 12.199219 11.644531 C 12.234375 11.503906 12.257812 11.375 12.269531 11.265625 L 13.8125 11.265625 C 14.359375 11.265625 14.796875 10.8125 14.796875 10.253906 L 14.796875 1.007812 C 14.796875 0.449219 14.359375 0 13.8125 0 L 1.007812 0 C 0.460938 0 0.0195312 0.449219 0.0195312 1.007812 L 0.0195312 10.253906 C 0.0195312 10.8125 0.460938 11.265625 1.007812 11.265625 L 5.921875 11.265625 C 5.921875 11.265625 6.132812 13.28125 4.429688 13.28125 L 4.429688 14.292969 L 10.390625 14.292969 L 10.390625 13.28125 C 8.621094 13.28125 8.898438 11.265625 8.898438 11.265625 L 11.960938 11.265625 C 11.949219 11.347656 11.929688 11.441406 11.898438 11.566406 C 11.792969 11.996094 11.832031 12.34375 12.019531 12.597656 C 12.152344 12.777344 12.332031 12.875 12.480469 12.925781 L 12.371094 13.054688 L 12.355469 13.070312 C 11.75 14 11.449219 14.839844 12.257812 15.585938 L 13.066406 16.328125 L 13.226562 16.476562 L 14.246094 17.414062 C 15.160156 18.253906 16.574219 18.183594 17.402344 17.253906 C 18.230469 16.324219 18.160156 14.886719 17.246094 14.042969 Z M 2.53125 8.867188 L 2.222656 8.867188 L 2.222656 6.261719 L 2.53125 6.261719 Z M 7.476562 10.636719 C 7.144531 10.636719 6.878906 10.363281 6.878906 10.027344 C 6.878906 9.691406 7.144531 9.421875 7.476562 9.421875 C 7.808594 9.421875 8.074219 9.691406 8.074219 10.027344 C 8.074219 10.367188 7.804688 10.636719 7.476562 10.636719 Z M 5.257812 8.867188 L 5.257812 6.25 L 5.554688 6.25 L 5.554688 7.070312 C 5.554688 7.070312 5.554688 7.074219 5.554688 7.074219 C 5.554688 7.328125 5.757812 7.539062 6.007812 7.539062 C 6.082031 7.539062 6.148438 7.515625 6.210938 7.484375 L 6.214844 7.484375 L 7 6.949219 L 7.414062 6.667969 L 7.710938 6.46875 C 7.710938 6.464844 7.710938 6.464844 7.710938 6.464844 C 7.863281 6.3125 7.890625 6.085938 7.796875 5.90625 L 9.40625 4.796875 L 8.957031 6.214844 L 9.390625 6.214844 L 9.589844 5.550781 L 10.316406 5.550781 L 10.527344 6.214844 L 10.980469 6.214844 L 10.929688 6.0625 C 11.019531 6.175781 11.160156 6.253906 11.34375 6.253906 C 11.566406 6.253906 11.738281 6.160156 11.835938 6.027344 L 11.847656 6.027344 L 11.878906 6.214844 L 12.257812 6.214844 C 12.238281 6.109375 12.230469 5.960938 12.230469 5.808594 L 12.230469 5.203125 C 12.230469 4.832031 12.078125 4.488281 11.542969 4.488281 C 11.28125 4.488281 11.066406 4.558594 10.941406 4.636719 L 11.023438 4.914062 C 11.136719 4.839844 11.308594 4.789062 11.472656 4.789062 C 11.765625 4.789062 11.808594 4.972656 11.808594 5.082031 L 11.808594 5.109375 C 11.207031 5.105469 10.835938 5.320312 10.824219 5.730469 L 10.230469 3.875 L 9.695312 3.875 L 9.503906 4.492188 L 7.671875 5.757812 C 7.59375 5.699219 7.503906 5.667969 7.414062 5.664062 C 7.289062 5.660156 7.160156 5.703125 7.0625 5.804688 C 7.0625 5.804688 7.0625 5.804688 7.058594 5.804688 L 7 5.847656 L 6.464844 6.21875 L 6.464844 6.0625 C 6.367188 4.859375 4.992188 4.878906 4.992188 4.878906 L 4.402344 4.878906 L 3.902344 5.714844 L 3.398438 4.878906 L 2.828125 4.878906 C 1.382812 4.878906 1.375 5.917969 1.375 6.3125 L 1.375 8.867188 L 1.078125 8.867188 L 1.078125 1.074219 L 13.742188 1.074219 L 13.742188 8.867188 Z M 9.914062 4.347656 C 9.925781 4.304688 9.9375 4.257812 9.945312 4.214844 L 9.953125 4.214844 C 9.988281 4.351562 10.023438 4.511719 10.070312 4.652344 L 10.25 5.230469 L 9.660156 5.230469 L 9.835938 4.652344 C 9.851562 4.59375 9.867188 4.527344 9.882812 4.464844 L 9.980469 4.402344 Z M 11.242188 5.703125 C 11.242188 5.449219 11.523438 5.382812 11.820312 5.386719 L 11.820312 5.621094 C 11.820312 5.652344 11.820312 5.683594 11.8125 5.714844 C 11.769531 5.835938 11.648438 5.945312 11.480469 5.945312 C 11.347656 5.949219 11.242188 5.871094 11.242188 5.703125 Z M 12.46875 15.351562 C 11.769531 14.714844 12.09375 14.054688 12.609375 13.253906 L 12.980469 12.832031 C 13.714844 12.199219 14.453125 11.902344 15.167969 12.558594 L 15.871094 13.203125 C 15.699219 13.785156 15.390625 14.332031 14.953125 14.820312 C 14.367188 15.480469 13.683594 15.894531 13.28125 16.101562 Z M 17.171875 17.042969 C 16.460938 17.84375 15.242188 17.90625 14.453125 17.179688 L 13.601562 16.398438 C 14.273438 16.019531 14.839844 15.574219 15.292969 15.066406 C 15.820312 14.472656 16.089844 13.90625 16.226562 13.53125 L 17.039062 14.277344 C 17.824219 15 17.886719 16.242188 17.171875 17.042969 Z M 17.171875 17.042969 "/>
    <path style=" stroke:none;fill-rule:nonzero;fill:rgb(0.392157%,0%,0.784314%);fill-opacity:1;" d="M 13.773438 13.210938 C 13.5625 13.015625 13.238281 13.03125 13.046875 13.246094 C 12.855469 13.460938 12.871094 13.789062 13.082031 13.984375 L 13.8125 14.65625 C 14.023438 14.851562 14.347656 14.835938 14.539062 14.621094 C 14.730469 14.40625 14.714844 14.074219 14.503906 13.882812 Z M 14.308594 14.410156 C 14.234375 14.496094 14.105469 14.5 14.019531 14.421875 L 13.289062 13.75 C 13.207031 13.671875 13.199219 13.539062 13.277344 13.457031 C 13.351562 13.371094 13.480469 13.363281 13.566406 13.441406 L 14.296875 14.113281 C 14.378906 14.191406 14.386719 14.324219 14.308594 14.410156 Z M 14.308594 14.410156 "/>
  </g>
</svg>