<?xml version="1.0" encoding="UTF-8" standalone="yes"?>
<svg xmlns="http://www.w3.org/2000/svg" xmlns:xlink="http://www.w3.org/1999/xlink" width="24px" height="24px" viewBox="0 0 18 18" version="1.1">
  <g id="surface1">
    <path style=" stroke:none;fill-rule:nonzero;fill:rgb(0%,0%,0%);fill-opacity:1;" d="M 13.507812 15.949219 L 17.984375 15.949219 L 17.980469 15.574219 L 13.480469 15.574219 L 13.480469 15.148438 L 17.980469 15.148438 L 17.980469 14.734375 L 13.480469 14.734375 L 13.480469 14.230469 L 17.984375 14.375 L 17.984375 13.984375 L 14.171875 13.507812 C 14.171875 13.507812 14.03125 13.496094 13.976562 13.496094 C 13.390625 13.496094 12.863281 13.769531 12.523438 14.195312 C 10.9375 15.597656 9.324219 14.640625 8.9375 14.640625 C 8.511719 14.640625 1.972656 14.640625 1.972656 14.640625 L 1.972656 14.644531 C 1.96875 14.644531 1.964844 14.640625 1.957031 14.640625 C 1.558594 14.640625 1.234375 14.964844 1.234375 15.367188 C 1.234375 15.765625 1.558594 16.09375 1.957031 16.09375 C 1.964844 16.09375 1.96875 16.089844 1.972656 16.089844 L 1.972656 16.09375 C 1.972656 16.09375 8.433594 16.09375 8.925781 16.09375 C 9.371094 16.089844 11.230469 15.28125 12.609375 16.636719 C 12.613281 16.636719 12.617188 16.640625 12.621094 16.640625 C 12.929688 16.972656 13.363281 17.191406 13.847656 17.222656 C 13.882812 17.226562 13.964844 17.222656 13.964844 17.222656 L 17.980469 16.761719 L 17.984375 16.332031 L 13.507812 16.460938 Z M 13.507812 15.949219 "/>
    <path style=" stroke:none;fill-rule:nonzero;fill:rgb(0%,0%,0%);fill-opacity:1;" d="M 2.867188 8.535156 L 2.867188 12.605469 C 2.867188 12.9375 3.136719 13.207031 3.464844 13.207031 L 11.414062 13.207031 C 11.746094 13.207031 12.015625 12.9375 12.015625 12.605469 L 12.015625 8.226562 C 12.742188 7.863281 13.351562 7.359375 13.714844 6.675781 C 14.464844 5.265625 14.523438 3.898438 13.882812 2.832031 C 13.238281 1.765625 11.988281 1.152344 10.445312 1.152344 C 9.34375 1.152344 8.355469 1.636719 7.546875 2.25 C 6.824219 1.449219 5.429688 0.722656 3.941406 0.761719 C 2.980469 0.785156 1.617188 1.140625 0.578125 2.699219 C 0.0429688 3.5 -0.121094 4.347656 0.0898438 5.21875 C 0.488281 6.859375 2.160156 8.082031 2.867188 8.535156 Z M 1.578125 3.367188 C 2.179688 2.457031 2.988281 1.988281 3.972656 1.960938 C 5.042969 1.9375 6.128906 2.472656 6.644531 3.042969 C 5.828125 3.875 5.332031 4.675781 5.289062 4.746094 C 5.117188 5.027344 5.207031 5.398438 5.492188 5.570312 C 5.773438 5.742188 6.144531 5.652344 6.316406 5.371094 C 6.335938 5.339844 8.179688 2.355469 10.445312 2.355469 C 11.554688 2.355469 12.429688 2.753906 12.847656 3.449219 C 13.265625 4.144531 13.195312 5.089844 12.652344 6.109375 C 11.65625 7.984375 7.40625 8.058594 5.851562 7.929688 C 5.523438 7.902344 5.230469 8.148438 5.203125 8.480469 C 5.175781 8.8125 5.421875 9.101562 5.753906 9.128906 C 5.820312 9.136719 6.273438 9.171875 6.9375 9.171875 C 7.949219 9.171875 9.449219 9.085938 10.8125 8.6875 L 10.8125 12.003906 L 4.066406 12.003906 L 4.066406 8.195312 C 4.066406 7.976562 3.949219 7.777344 3.757812 7.671875 C 3.738281 7.660156 1.628906 6.46875 1.257812 4.929688 C 1.128906 4.394531 1.234375 3.882812 1.578125 3.367188 Z M 1.578125 3.367188 "/>
  </g>
</svg>