<?xml version="1.0" encoding="UTF-8" standalone="yes"?>
<svg xmlns="http://www.w3.org/2000/svg" xmlns:xlink="http://www.w3.org/1999/xlink" width="24px" height="24px" viewBox="0 0 18 18" version="1.1">
  <g id="surface1">
    <path style=" stroke:none;fill-rule:nonzero;fill:rgb(0%,0%,0%);fill-opacity:1;" d="M 17.972656 2.460938 C 17.96875 2.457031 17.972656 2.457031 17.96875 2.457031 C 17.96875 2.453125 17.964844 2.453125 17.964844 2.449219 C 17.953125 2.433594 17.941406 2.417969 17.925781 2.40625 C 17.917969 2.402344 17.914062 2.398438 17.910156 2.398438 C 17.890625 2.386719 17.867188 2.378906 17.84375 2.378906 L 8.042969 2.378906 C 8 2.378906 7.957031 2.398438 7.933594 2.433594 L 0.6875 11.949219 C 0.652344 11.992188 0.648438 12.050781 0.671875 12.097656 C 0.695312 12.144531 0.746094 12.175781 0.796875 12.175781 L 0.894531 12.175781 C 0.351562 12.476562 0 13.070312 0 13.785156 C 0 14.789062 0.710938 15.605469 1.585938 15.605469 L 10.523438 15.605469 C 10.566406 15.605469 10.609375 15.585938 10.632812 15.550781 L 17.953125 6.210938 C 17.972656 6.183594 17.984375 6.15625 17.984375 6.121094 L 17.984375 2.519531 C 17.984375 2.496094 17.980469 2.476562 17.972656 2.460938 Z M 1.90625 11.21875 L 8.136719 3.039062 C 8.160156 3.003906 8.203125 2.980469 8.246094 2.980469 L 16.667969 2.980469 C 16.722656 2.980469 16.773438 3.011719 16.796875 3.0625 C 16.820312 3.109375 16.8125 3.167969 16.78125 3.210938 L 10.492188 11.386719 C 10.464844 11.421875 10.425781 11.441406 10.382812 11.441406 L 2.019531 11.441406 C 1.964844 11.441406 1.917969 11.414062 1.894531 11.367188 C 1.871094 11.316406 1.875 11.261719 1.90625 11.21875 Z M 17.703125 6.074219 L 10.453125 15.324219 L 1.585938 15.324219 C 0.867188 15.324219 0.28125 14.636719 0.28125 13.785156 C 0.28125 12.90625 0.902344 12.246094 1.726562 12.246094 C 1.777344 12.246094 1.820312 12.214844 1.84375 12.175781 L 10.527344 12.175781 C 10.570312 12.175781 10.613281 12.15625 10.640625 12.121094 L 17.703125 2.933594 Z M 17.703125 6.074219 "/>
    <path style=" stroke:none;fill-rule:nonzero;fill:rgb(0%,0%,0%);fill-opacity:1;" d="M 16.382812 3.265625 L 8.316406 3.265625 L 2.300781 11.160156 L 10.3125 11.160156 Z M 10.785156 4.292969 C 10.96875 4.058594 11.398438 3.890625 11.75 3.925781 C 12.101562 3.957031 12.238281 4.171875 12.054688 4.40625 C 11.871094 4.640625 11.4375 4.808594 11.089844 4.773438 C 10.738281 4.742188 10.601562 4.527344 10.785156 4.292969 Z M 7.75 9.945312 C 7.566406 10.175781 7.136719 10.34375 6.785156 10.3125 C 6.433594 10.28125 6.296875 10.0625 6.480469 9.828125 C 6.664062 9.59375 7.097656 9.429688 7.445312 9.460938 C 7.796875 9.492188 7.933594 9.707031 7.75 9.945312 Z M 9.09375 8.261719 C 8.664062 8.816406 8.039062 9.203125 7.636719 9.167969 C 7.234375 9.132812 7.253906 8.6875 7.683594 8.136719 C 7.695312 8.121094 7.707031 8.105469 7.722656 8.089844 C 7.308594 7.851562 7.25 7.433594 7.578125 7.011719 C 7.902344 6.589844 8.558594 6.238281 9.265625 6.101562 C 9.277344 6.085938 9.289062 6.070312 9.300781 6.054688 C 9.730469 5.503906 10.359375 5.113281 10.757812 5.148438 C 11.164062 5.1875 11.140625 5.628906 10.710938 6.183594 C 10.707031 6.191406 10.699219 6.199219 10.691406 6.207031 C 11.15625 6.4375 11.234375 6.867188 10.890625 7.3125 C 10.546875 7.753906 9.855469 8.113281 9.113281 8.238281 C 9.109375 8.246094 9.101562 8.253906 9.09375 8.261719 Z M 9.09375 8.261719 "/>
  </g>
</svg>