<?xml version="1.0" encoding="UTF-8" standalone="yes"?>
<svg xmlns="http://www.w3.org/2000/svg" xmlns:xlink="http://www.w3.org/1999/xlink" width="24px" height="24px" viewBox="0 0 18 18" version="1.1">
  <g id="surface1">
    <path style=" stroke:none;fill-rule:nonzero;fill:rgb(0%,0%,0%);fill-opacity:1;" d="M 17.78125 5.789062 L 9.210938 0.960938 C 9.082031 0.890625 8.917969 0.890625 8.789062 0.960938 L 0.21875 5.789062 C 0.0820312 5.863281 0 6.007812 0 6.160156 L 0 17.09375 L 2.113281 17.09375 L 2.113281 7.933594 L 15.886719 7.933594 L 15.886719 17.09375 L 18 17.09375 L 18 6.160156 C 18 6.007812 17.917969 5.863281 17.78125 5.789062 Z M 5.96875 6.449219 C 5.96875 6.550781 5.886719 6.632812 5.785156 6.632812 L 4.085938 6.632812 C 3.980469 6.632812 3.898438 6.550781 3.898438 6.449219 L 3.898438 5.929688 C 3.898438 5.828125 3.980469 5.746094 4.085938 5.746094 L 5.785156 5.746094 C 5.886719 5.746094 5.96875 5.828125 5.96875 5.929688 Z M 10.035156 6.449219 C 10.035156 6.550781 9.953125 6.632812 9.851562 6.632812 L 8.148438 6.632812 C 8.046875 6.632812 7.964844 6.550781 7.964844 6.449219 L 7.964844 5.929688 C 7.964844 5.828125 8.046875 5.746094 8.148438 5.746094 L 9.851562 5.746094 C 9.953125 5.746094 10.035156 5.828125 10.035156 5.929688 Z M 14.101562 6.449219 C 14.101562 6.550781 14.019531 6.632812 13.914062 6.632812 L 12.214844 6.632812 C 12.113281 6.632812 12.03125 6.550781 12.03125 6.449219 L 12.03125 5.929688 C 12.03125 5.828125 12.113281 5.746094 12.214844 5.746094 L 13.914062 5.746094 C 14.019531 5.746094 14.101562 5.828125 14.101562 5.929688 Z M 14.101562 6.449219 "/>
    <path style=" stroke:none;fill-rule:nonzero;fill:rgb(0%,0%,0%);fill-opacity:1;" d="M 14.722656 9.257812 L 3.277344 9.257812 C 3.207031 9.257812 3.148438 9.316406 3.148438 9.386719 L 3.148438 10.375 C 3.148438 10.445312 3.207031 10.503906 3.277344 10.503906 L 14.722656 10.503906 C 14.792969 10.503906 14.851562 10.445312 14.851562 10.375 L 14.851562 9.386719 C 14.851562 9.316406 14.792969 9.257812 14.722656 9.257812 Z M 14.722656 9.257812 "/>
    <path style=" stroke:none;fill-rule:nonzero;fill:rgb(0%,0%,0%);fill-opacity:1;" d="M 14.722656 11.46875 L 3.277344 11.46875 C 3.207031 11.46875 3.148438 11.527344 3.148438 11.597656 L 3.148438 12.585938 C 3.148438 12.65625 3.207031 12.714844 3.277344 12.714844 L 14.722656 12.714844 C 14.792969 12.714844 14.851562 12.65625 14.851562 12.585938 L 14.851562 11.597656 C 14.851562 11.527344 14.792969 11.46875 14.722656 11.46875 Z M 14.722656 11.46875 "/>
    <path style=" stroke:none;fill-rule:nonzero;fill:rgb(0%,0%,0%);fill-opacity:1;" d="M 14.722656 13.679688 L 3.277344 13.679688 C 3.207031 13.679688 3.148438 13.738281 3.148438 13.808594 L 3.148438 14.796875 C 3.148438 14.871094 3.207031 14.925781 3.277344 14.925781 L 14.722656 14.925781 C 14.792969 14.925781 14.851562 14.871094 14.851562 14.796875 L 14.851562 13.808594 C 14.851562 13.738281 14.792969 13.679688 14.722656 13.679688 Z M 14.722656 13.679688 "/>
  </g>
</svg>