<?xml version="1.0" encoding="UTF-8" standalone="no"?>
<!-- Generator: Adobe Illustrator 16.0.0, SVG Export Plug-In . SVG Version: 6.00 Build 0)  -->

<svg
   xmlns:dc="http://purl.org/dc/elements/1.1/"
   xmlns:cc="http://creativecommons.org/ns#"
   xmlns:rdf="http://www.w3.org/1999/02/22-rdf-syntax-ns#"
   xmlns:svg="http://www.w3.org/2000/svg"
   xmlns="http://www.w3.org/2000/svg"
   xmlns:sodipodi="http://sodipodi.sourceforge.net/DTD/sodipodi-0.dtd"
   xmlns:inkscape="http://www.inkscape.org/namespaces/inkscape"
   version="1.1"
   id="Capa_1"
   x="0px"
   y="0px"
   width="24"
   height="24"
   viewBox="0 0 24 24"
   enable-background="new 0 0 25.486 26.35"
   xml:space="preserve"
   inkscape:version="0.48.5 r10040"
   sodipodi:docname="home-animal.svg"><metadata
     id="metadata3036"><rdf:RDF><cc:Work
         rdf:about=""><dc:format>image/svg+xml</dc:format><dc:type
           rdf:resource="http://purl.org/dc/dcmitype/StillImage" /></cc:Work></rdf:RDF></metadata><defs
     id="defs3034" /><sodipodi:namedview
     pagecolor="#ffffff"
     bordercolor="#666666"
     borderopacity="1"
     objecttolerance="10"
     gridtolerance="10"
     guidetolerance="10"
     inkscape:pageopacity="0"
     inkscape:pageshadow="2"
     inkscape:window-width="657"
     inkscape:window-height="480"
     id="namedview3032"
     showgrid="false"
     inkscape:zoom="8.9563566"
     inkscape:cx="0.12626256"
     inkscape:cy="13.175"
     inkscape:window-x="0"
     inkscape:window-y="27"
     inkscape:window-maximized="0"
     inkscape:current-layer="Capa_1" /><path
     d="M 6.1364196,2.5720083 6.8294873,2.2787201 c 1.0142882,2.3899492 4.3844837,5.6475424 4.5354917,5.6964238 h 6.832043 v 0.7524237 l -6.929805,-0.00436 C 11.1197,8.7039998 7.4073348,5.5703557 6.1364196,2.5720083 z M 20.648073,7.6102794 21.997547,5.6192371 14.544013,3.3148303 11.999564,0.49978796 12.758098,7.6102794 h 7.889975 z m -2.297424,1.589517 h -6.14072 L 4.2230636,16.352187 C 2.954767,16.027475 1.9378602,15.193 1.4638857,14.021593 l -0.00611,0.04015 c -0.2906697,-0.827489 -0.4556443,-0.40065 -0.53158496,-0.05499 -0.0305509,0.197272 -0.0497542,0.40589 -0.0497542,0.61189 0.009602,1.825195 1.28226266,3.357975 3.00271186,3.826712 l 2.5400847,5.054857 h 8.7593649 c 0,0 0.254008,-0.446042 0.46961,-0.995958 v -0.02182 c 0.633711,-1.852254 -1.146093,-2.01461 -1.150457,-2.01461 h 0.01047 c -1.276152,-0.0052 -1.902008,-0.01833 -1.902008,-0.01833 0.07594,-1.110305 0.402398,-1.491755 0.696559,-1.606975 l 3.492401,-1.609595 2.355034,6.267288 h 3.973356 L 18.350649,9.1997964 z"
     id="path3030"
     inkscape:connector-curvature="0" /></svg>