<?xml version="1.0" encoding="UTF-8" standalone="no"?>
<!-- Generator: Adobe Illustrator 16.0.0, SVG Export Plug-In . SVG Version: 6.00 Build 0)  -->

<svg
   xmlns:dc="http://purl.org/dc/elements/1.1/"
   xmlns:cc="http://creativecommons.org/ns#"
   xmlns:rdf="http://www.w3.org/1999/02/22-rdf-syntax-ns#"
   xmlns:svg="http://www.w3.org/2000/svg"
   xmlns="http://www.w3.org/2000/svg"
   xmlns:sodipodi="http://sodipodi.sourceforge.net/DTD/sodipodi-0.dtd"
   xmlns:inkscape="http://www.inkscape.org/namespaces/inkscape"
   version="1.1"
   id="Capa_1"
   x="0px"
   y="0px"
   width="24"
   height="24"
   viewBox="0 0 24.000001 24.000001"
   xml:space="preserve"
   inkscape:version="0.48.5 r10040"
   sodipodi:docname="antique_ghadimi.svg"><metadata
     id="metadata41"><rdf:RDF><cc:Work
         rdf:about=""><dc:format>image/svg+xml</dc:format><dc:type
           rdf:resource="http://purl.org/dc/dcmitype/StillImage" /><dc:title></dc:title></cc:Work></rdf:RDF></metadata><defs
     id="defs39" /><sodipodi:namedview
     pagecolor="#ffffff"
     bordercolor="#666666"
     borderopacity="1"
     objecttolerance="10"
     gridtolerance="10"
     guidetolerance="10"
     inkscape:pageopacity="0"
     inkscape:pageshadow="2"
     inkscape:window-width="657"
     inkscape:window-height="480"
     id="namedview37"
     showgrid="false"
     inkscape:zoom="4.4741896"
     inkscape:cx="11.301151"
     inkscape:cy="17.485959"
     inkscape:window-x="0"
     inkscape:window-y="27"
     inkscape:window-maximized="0"
     inkscape:current-layer="Capa_1" /><g
     id="g3"
     transform="matrix(0.15214946,0,0,0.15214946,0.65032376,0.6503035)"><path
       d="m 125.099,110.146 c 0.447,-0.322 1.036,-0.36 1.524,-0.107 0.488,0.256 0.789,0.762 0.78,1.312 l -0.179,12.302 -21.163,15.189 -43.99,-12.568 v -11.52 c 0,-0.83 0.39,-1.612 1.054,-2.114 0.666,-0.5 1.525,-0.662 2.324,-0.434 l 38.706,11.057 c 1.205,0.342 2.496,0.123 3.513,-0.609 l 17.431,-12.508 z m 5.391,19.617 c 0,-0.915 -0.511,-1.748 -1.318,-2.165 -0.814,-0.415 -1.791,-0.34 -2.532,0.189 L 106.065,142.575 61.72,129.596 c -0.972,-0.285 -2.02,-0.096 -2.831,0.514 -0.811,0.606 -1.288,1.56 -1.288,2.575 v 2.603 l 48.464,13.903 24.381,-17.259 0.048,-0.536 v -1.633 H 130.49 z M 113.299,94.537 c 2.514,0.78 4.754,2.167 6.745,3.926 0.331,-4.602 0.864,-11.91 1.229,-15.92 0.603,-6.578 -2.669,-10.568 -4.749,-12.41 -0.114,0.768 -0.287,1.565 -0.584,2.394 -0.716,2.015 -1.605,3.527 -2.582,4.678 0.632,1.118 1.122,2.646 0.936,4.704 -0.29,3.154 -0.682,8.311 -0.995,12.628 z M 102.82,77.1 c 3.963,0.301 7.638,0.381 9.815,-5.754 2.519,-7.079 -5.217,-10.438 -5.217,-10.438 -6.528,-2.401 -11.047,-7.119 -13.424,-10.142 -0.44,4.136 -1.134,8.325 -2.144,12.513 -1.243,5.16 -2.882,10.05 -4.818,14.646 5.291,-1.356 12.485,-1.076 15.788,-0.825 z m -31.294,23.644 c 0.49,-5.396 11.903,-8.769 25.494,-7.537 13.588,1.234 24.208,6.602 23.721,11.998 -0.493,5.397 -11.905,8.769 -25.493,7.539 -13.587,-1.235 -24.213,-6.604 -23.722,-12 z m 18.867,1.713 c -0.114,1.259 2.363,2.509 5.534,2.796 3.173,0.288 5.835,-0.499 5.948,-1.759 0.114,-1.259 -2.362,-2.509 -5.533,-2.796 -3.177,-0.288 -5.835,0.499 -5.949,1.759 z m 5.712,0.864 c 0.468,0.043 0.859,-0.073 0.88,-0.26 0.019,-0.188 -0.351,-0.372 -0.823,-0.415 -0.472,-0.044 -0.864,0.072 -0.88,0.26 -0.017,0.186 0.353,0.372 0.823,0.415 z m 29.248,2.007 c 0.342,-0.267 0.488,-0.718 0.364,-1.136 -0.123,-0.417 -0.485,-0.719 -0.924,-0.757 l -1.938,-0.188 c 0.178,0.703 0.278,1.421 0.212,2.174 -0.068,0.753 -0.267,1.477 -0.584,2.16 l 2.87,-2.253 z m -59.4,-0.666 c -0.736,0.557 -1.093,1.485 -0.927,2.389 0.165,0.905 0.829,1.645 1.714,1.902 l 34.61,10.215 c 2.883,0.851 5.999,0.253 8.367,-1.602 l 5.721,-4.479 c -3.777,1.435 -8.782,2.239 -14.665,2.239 -1.882,0 -3.812,-0.089 -5.734,-0.26 C 82.894,113.96 70.387,109.127 69.27,102.139 l -3.317,2.523 z M 86.175,61.915 C 93.338,32.199 84.601,4.599 66.66,0.273 66.358,0.2 66.055,0.133 65.753,0.077 64.357,-0.195 62.919,0.268 61.94,1.3 c -0.976,1.035 -1.355,2.497 -1.007,3.878 2.113,8.365 7.108,21.992 18.196,29.807 1.052,0.743 1.309,2.2 0.561,3.259 -0.451,0.642 -1.177,0.99 -1.911,0.99 -0.463,0 -0.932,-0.137 -1.34,-0.426 C 64.437,30.348 58.978,16.306 56.596,7.213 56.148,5.501 54.918,4.099 53.279,3.434 51.639,2.768 49.78,2.908 48.264,3.822 c -3.673,2.207 -7.223,5.251 -10.517,8.993 -1.784,2.015 -1.873,5.007 -0.221,7.14 4.928,6.364 13.54,15.045 26.266,19.556 1.217,0.432 1.852,1.766 1.42,2.981 -0.339,0.955 -1.241,1.558 -2.2,1.558 -0.26,0 -0.523,-0.048 -0.78,-0.138 C 50.212,39.653 41.674,32.137 36.16,25.736 c -1.019,-1.182 -2.559,-1.779 -4.107,-1.598 -1.547,0.183 -2.907,1.119 -3.622,2.507 -3.027,5.86 -5.512,12.464 -7.234,19.6 -0.464,1.931 0.596,3.894 2.464,4.563 5.459,1.958 16.01,4.602 32.771,4.334 1.367,-0.017 2.353,1.008 2.374,2.296 0.022,1.289 -1.009,2.352 -2.298,2.375 -0.83,0.012 -1.649,0.019 -2.448,0.019 -14.046,0 -23.683,-1.972 -29.667,-3.836 -1.204,-0.376 -2.512,-0.185 -3.558,0.521 -1.049,0.7 -1.719,1.841 -1.827,3.092 -0.698,8.077 -0.205,15.721 1.323,22.467 0.292,1.291 1.179,2.362 2.389,2.888 1.209,0.531 2.602,0.454 3.747,-0.208 5.958,-3.438 14.953,-7.356 27.651,-9.87 1.273,-0.252 2.494,0.575 2.744,1.839 0.25,1.266 -0.573,2.493 -1.838,2.748 -12.707,2.512 -21.482,6.524 -27.016,9.836 -1.249,0.744 -2.142,1.969 -2.471,3.386 -0.331,1.414 -0.074,2.908 0.712,4.136 2.369,3.668 5.247,6.605 8.572,8.61 1.222,0.734 2.686,0.956 4.074,0.611 1.385,-0.342 2.574,-1.227 3.308,-2.454 3.087,-5.162 8.269,-11.255 16.904,-16.182 1.124,-0.637 2.547,-0.244 3.187,0.873 0.64,1.118 0.25,2.544 -0.871,3.185 -6.499,3.704 -10.817,8.148 -13.669,12.186 -0.649,0.922 -0.664,2.138 -0.04,3.07 0.624,0.932 1.756,1.387 2.855,1.136 15,-3.389 29.732,-21.596 35.606,-45.951 z"
       id="path5"
       inkscape:connector-curvature="0" /></g><g
     id="g7"
     transform="translate(0,-125.191)" /><g
     id="g9"
     transform="translate(0,-125.191)" /><g
     id="g11"
     transform="translate(0,-125.191)" /><g
     id="g13"
     transform="translate(0,-125.191)" /><g
     id="g15"
     transform="translate(0,-125.191)" /><g
     id="g17"
     transform="translate(0,-125.191)" /><g
     id="g19"
     transform="translate(0,-125.191)" /><g
     id="g21"
     transform="translate(0,-125.191)" /><g
     id="g23"
     transform="translate(0,-125.191)" /><g
     id="g25"
     transform="translate(0,-125.191)" /><g
     id="g27"
     transform="translate(0,-125.191)" /><g
     id="g29"
     transform="translate(0,-125.191)" /><g
     id="g31"
     transform="translate(0,-125.191)" /><g
     id="g33"
     transform="translate(0,-125.191)" /><g
     id="g35"
     transform="translate(0,-125.191)" /></svg>