<?xml version="1.0" encoding="UTF-8" standalone="no"?>
<!-- Generator: Adobe Illustrator 16.0.0, SVG Export Plug-In . SVG Version: 6.00 Build 0)  -->

<svg
   xmlns:dc="http://purl.org/dc/elements/1.1/"
   xmlns:cc="http://creativecommons.org/ns#"
   xmlns:rdf="http://www.w3.org/1999/02/22-rdf-syntax-ns#"
   xmlns:svg="http://www.w3.org/2000/svg"
   xmlns="http://www.w3.org/2000/svg"
   xmlns:sodipodi="http://sodipodi.sourceforge.net/DTD/sodipodi-0.dtd"
   xmlns:inkscape="http://www.inkscape.org/namespaces/inkscape"
   version="1.1"
   id="Capa_1"
   x="0px"
   y="0px"
   width="24"
   height="24"
   viewBox="0 0 24 24"
   xml:space="preserve"
   inkscape:version="0.48.5 r10040"
   sodipodi:docname="arayesh_mardaneh.svg"><metadata
     id="metadata41"><rdf:RDF><cc:Work
         rdf:about=""><dc:format>image/svg+xml</dc:format><dc:type
           rdf:resource="http://purl.org/dc/dcmitype/StillImage" /><dc:title></dc:title></cc:Work></rdf:RDF></metadata><defs
     id="defs39" /><sodipodi:namedview
     pagecolor="#ffffff"
     bordercolor="#666666"
     borderopacity="1"
     objecttolerance="10"
     gridtolerance="10"
     guidetolerance="10"
     inkscape:pageopacity="0"
     inkscape:pageshadow="2"
     inkscape:window-width="657"
     inkscape:window-height="480"
     id="namedview37"
     showgrid="false"
     inkscape:zoom="4.9150155"
     inkscape:cx="8.6004767"
     inkscape:cy="5.2989841"
     inkscape:window-x="0"
     inkscape:window-y="27"
     inkscape:window-maximized="0"
     inkscape:current-layer="Capa_1" /><g
     id="g3"
     transform="matrix(0.05941651,0,0,0.05941651,0.58819011,0.58816801)"><path
       d="m 304.726,335.239 c 0,0 -17.317,-33.234 -23.518,-60.289 -7.729,-38.465 56.973,-91.403 20.587,-133.435 -6.002,-5.261 12.133,-34.284 7.73,-41.897 -2.943,8.454 -12.868,22.046 -12.868,22.046 0,0 -0.456,-40.894 -8.536,-49.896 2.021,16.085 0.817,32.62 0.817,32.62 0,0 -12.308,-35.189 -24.627,-40.426 12.751,12.436 12.133,31.616 12.133,31.616 0,0 -20.587,-39.329 -49.266,-38.599 20.937,11.391 26.086,27.57 26.086,27.57 0,0 -135.628,-18.375 -111.001,-70.583 -19.116,4.782 -19.116,57.346 -19.116,57.346 0,0 -18.753,-31.616 12.495,-71.312 -65.065,40.8 -40.076,113.957 -40.076,113.957 0,0 -13.966,-1.104 -21.322,-52.57 -14.328,63.231 25.736,96.307 25.736,96.307 0,0 -15.811,27.932 -6.983,41.168 8.828,13.218 -11.771,43.018 -11.397,52.571 0.374,9.551 15.449,8.453 15.449,8.453 0,0 -5.897,15.811 6.982,17.645 -2.942,1.098 -8.08,11.396 6.621,17.282 -4.414,1.098 -13.23,52.559 49.99,20.213 23.518,12.121 36.386,69.104 36.386,69.104 l 107.698,-48.891 z"
       id="path5"
       inkscape:connector-curvature="0" /></g><g
     id="g7"
     transform="translate(0,-360.129)" /><g
     id="g9"
     transform="translate(0,-360.129)" /><g
     id="g11"
     transform="translate(0,-360.129)" /><g
     id="g13"
     transform="translate(0,-360.129)" /><g
     id="g15"
     transform="translate(0,-360.129)" /><g
     id="g17"
     transform="translate(0,-360.129)" /><g
     id="g19"
     transform="translate(0,-360.129)" /><g
     id="g21"
     transform="translate(0,-360.129)" /><g
     id="g23"
     transform="translate(0,-360.129)" /><g
     id="g25"
     transform="translate(0,-360.129)" /><g
     id="g27"
     transform="translate(0,-360.129)" /><g
     id="g29"
     transform="translate(0,-360.129)" /><g
     id="g31"
     transform="translate(0,-360.129)" /><g
     id="g33"
     transform="translate(0,-360.129)" /><g
     id="g35"
     transform="translate(0,-360.129)" /></svg>