<?xml version="1.0" encoding="UTF-8" standalone="no"?>
<!-- Generator: Adobe Illustrator 16.0.0, SVG Export Plug-In . SVG Version: 6.00 Build 0)  -->

<svg
   xmlns:dc="http://purl.org/dc/elements/1.1/"
   xmlns:cc="http://creativecommons.org/ns#"
   xmlns:rdf="http://www.w3.org/1999/02/22-rdf-syntax-ns#"
   xmlns:svg="http://www.w3.org/2000/svg"
   xmlns="http://www.w3.org/2000/svg"
   xmlns:sodipodi="http://sodipodi.sourceforge.net/DTD/sodipodi-0.dtd"
   xmlns:inkscape="http://www.inkscape.org/namespaces/inkscape"
   version="1.1"
   id="Capa_1"
   x="0px"
   y="0px"
   width="24"
   height="24"
   viewBox="0 0 24 24"
   xml:space="preserve"
   inkscape:version="0.48.5 r10040"
   sodipodi:docname="arayesh_zanane.svg"><metadata
     id="metadata3057"><rdf:RDF><cc:Work
         rdf:about=""><dc:format>image/svg+xml</dc:format><dc:type
           rdf:resource="http://purl.org/dc/dcmitype/StillImage" /><dc:title></dc:title></cc:Work></rdf:RDF></metadata><defs
     id="defs3055" /><sodipodi:namedview
     pagecolor="#ffffff"
     bordercolor="#666666"
     borderopacity="1"
     objecttolerance="10"
     gridtolerance="10"
     guidetolerance="10"
     inkscape:pageopacity="0"
     inkscape:pageshadow="2"
     inkscape:window-width="657"
     inkscape:window-height="480"
     id="namedview3053"
     showgrid="false"
     inkscape:zoom="7.4377562"
     inkscape:cx="15.865"
     inkscape:cy="15.865"
     inkscape:window-x="0"
     inkscape:window-y="27"
     inkscape:window-maximized="0"
     inkscape:current-layer="Capa_1" /><g
     id="g3019"
     transform="matrix(0.74531222,0,0,0.74531222,0.17563075,0.17549421)"><path
       d="m 11.334,17.389 c 0.718,0.104 2.554,-4.213 2.686,-4.309 0.132,-0.096 2.776,0.113 2.427,-1.295 -0.795,0.673 -1.168,-0.056 -1.132,-0.586 0.036,-0.531 0.709,-1.658 0.886,-1.582 0.177,0.077 0.482,0.705 1.118,0.123 -0.963,0.092 -0.736,-1.317 -0.437,-1.486 0.3,-0.168 1.463,-0.682 1.8,-1.009 0.337,-0.327 0.363,-1.358 1.05,-1.131 0.687,0.227 0.18,1.689 0.385,2.181 0.205,0.492 2.063,2.062 2.032,2.557 -0.031,0.496 -0.812,0.407 -0.795,1.099 0,0.28 0.487,0.489 0.5,0.816 0.014,0.327 -0.526,0.573 -0.526,0.573 0,0 0.463,0.127 0.373,0.618 -0.092,0.49 -0.685,0.342 -0.875,0.444 -0.089,0.049 0.911,1.146 0.166,1.973 -0.672,0.791 -4.035,-0.042 -4.682,0.209 -1.217,0.473 -2.225,2.114 -1.554,2.891 0.67,0.776 2.985,3.281 3.586,5.362 1.031,2.728 -1.496,7.49 -2.909,4.036 -2,1.346 2.182,6.289 8.048,-1.15 C 27.976,21.674 25.778,10.661 24.45,8.187 23.124,5.714 16.942,-2.83 10.308,0.952 2.056,5.46 5.981,16.367 11.334,17.389 z"
       id="path3021"
       inkscape:connector-curvature="0" /></g><g
     id="g3023"
     transform="translate(0,-7.7299997)" /><g
     id="g3025"
     transform="translate(0,-7.7299997)" /><g
     id="g3027"
     transform="translate(0,-7.7299997)" /><g
     id="g3029"
     transform="translate(0,-7.7299997)" /><g
     id="g3031"
     transform="translate(0,-7.7299997)" /><g
     id="g3033"
     transform="translate(0,-7.7299997)" /><g
     id="g3035"
     transform="translate(0,-7.7299997)" /><g
     id="g3037"
     transform="translate(0,-7.7299997)" /><g
     id="g3039"
     transform="translate(0,-7.7299997)" /><g
     id="g3041"
     transform="translate(0,-7.7299997)" /><g
     id="g3043"
     transform="translate(0,-7.7299997)" /><g
     id="g3045"
     transform="translate(0,-7.7299997)" /><g
     id="g3047"
     transform="translate(0,-7.7299997)" /><g
     id="g3049"
     transform="translate(0,-7.7299997)" /><g
     id="g3051"
     transform="translate(0,-7.7299997)" /></svg>