<?xml version="1.0" encoding="UTF-8" standalone="no"?>
<!-- Generator: Adobe Illustrator 16.0.0, SVG Export Plug-In . SVG Version: 6.00 Build 0)  -->

<svg
   xmlns:dc="http://purl.org/dc/elements/1.1/"
   xmlns:cc="http://creativecommons.org/ns#"
   xmlns:rdf="http://www.w3.org/1999/02/22-rdf-syntax-ns#"
   xmlns:svg="http://www.w3.org/2000/svg"
   xmlns="http://www.w3.org/2000/svg"
   xmlns:sodipodi="http://sodipodi.sourceforge.net/DTD/sodipodi-0.dtd"
   xmlns:inkscape="http://www.inkscape.org/namespaces/inkscape"
   version="1.1"
   id="Capa_1"
   x="0px"
   y="0px"
   width="24"
   height="24"
   viewBox="0 0 23.999999 23.999999"
   xml:space="preserve"
   inkscape:version="0.48.5 r10040"
   sodipodi:docname="ard_foroshi.svg"><metadata
     id="metadata3057"><rdf:RDF><cc:Work
         rdf:about=""><dc:format>image/svg+xml</dc:format><dc:type
           rdf:resource="http://purl.org/dc/dcmitype/StillImage" /><dc:title></dc:title></cc:Work></rdf:RDF></metadata><defs
     id="defs3055" /><sodipodi:namedview
     pagecolor="#ffffff"
     bordercolor="#666666"
     borderopacity="1"
     objecttolerance="10"
     gridtolerance="10"
     guidetolerance="10"
     inkscape:pageopacity="0"
     inkscape:pageshadow="2"
     inkscape:window-width="657"
     inkscape:window-height="480"
     id="namedview3053"
     showgrid="false"
     inkscape:zoom="4.1962682"
     inkscape:cx="5.3373542"
     inkscape:cy="27.133124"
     inkscape:window-x="0"
     inkscape:window-y="27"
     inkscape:window-maximized="0"
     inkscape:current-layer="Capa_1" /><g
     id="g3019"
     transform="matrix(0.28009992,0,0,0.28009992,0.86098588,0.86098588)"><path
       style="fill:#010002"
       d="M 67.932,6.612 H 11.606 V 0 h 56.325 v 6.612 z m 3.407,8.451 v 58.839 c 0,3.097 -2.537,5.634 -5.634,5.634 H 13.828 c -3.091,0 -5.631,-2.537 -5.631,-5.634 V 15.063 c 0,-3.097 2.54,-5.632 5.631,-5.632 h 51.877 c 3.097,-0.004 5.634,2.536 5.634,5.632 z M 47.146,32.36 c 4.671,4.676 9.704,-10.201 9.704,-10.201 -1.542,0.35 -14.353,5.547 -9.704,10.201 z m -7.57,2.238 c 1.968,1.962 6.866,0.365 4.267,-6.522 -2.31,-6.113 1.036,-8.774 1.036,-8.774 -1.595,0.535 -9.693,10.899 -5.303,15.296 z m -6.335,6.343 c 1.967,1.959 6.874,0.36 4.267,-6.522 -2.312,-6.121 1.035,-8.782 1.035,-8.782 -1.597,0.52 -9.714,10.902 -5.302,15.304 z m -6.374,10.991 c -0.849,-0.86 -1.067,-2.024 -1.59,-1.497 l -5.22,6.38 c -0.583,0.596 0.919,3.102 2.154,1.874 l 6.139,-5.178 c 0.525,-0.524 -0.629,-0.746 -1.483,-1.579 z M 30.98,40.951 c -2.312,-6.131 1.036,-8.782 1.036,-8.782 -1.608,0.531 -9.714,10.893 -5.313,15.294 1.965,1.983 6.887,0.362 4.277,-6.512 z m 15.752,5.943 c 0,0 -2.661,3.345 -8.779,1.02 -6.882,-2.594 -8.495,2.314 -6.507,4.293 4.392,4.38 14.769,-3.729 15.286,-5.313 z m 6.536,-6.539 c 0,0 -2.651,3.348 -8.793,1.018 -6.866,-2.592 -8.492,2.314 -6.504,4.298 4.391,4.391 14.768,-3.718 15.297,-5.316 z m 6.337,-6.325 c 0,0 -2.672,3.346 -8.782,1.023 -6.897,-2.597 -8.492,2.312 -6.524,4.28 4.401,4.401 14.778,-3.718 15.306,-5.303 z"
       id="path3021"
       inkscape:connector-curvature="0" /></g><g
     id="g3023"
     transform="translate(0,-55.536001)" /><g
     id="g3025"
     transform="translate(0,-55.536001)" /><g
     id="g3027"
     transform="translate(0,-55.536001)" /><g
     id="g3029"
     transform="translate(0,-55.536001)" /><g
     id="g3031"
     transform="translate(0,-55.536001)" /><g
     id="g3033"
     transform="translate(0,-55.536001)" /><g
     id="g3035"
     transform="translate(0,-55.536001)" /><g
     id="g3037"
     transform="translate(0,-55.536001)" /><g
     id="g3039"
     transform="translate(0,-55.536001)" /><g
     id="g3041"
     transform="translate(0,-55.536001)" /><g
     id="g3043"
     transform="translate(0,-55.536001)" /><g
     id="g3045"
     transform="translate(0,-55.536001)" /><g
     id="g3047"
     transform="translate(0,-55.536001)" /><g
     id="g3049"
     transform="translate(0,-55.536001)" /><g
     id="g3051"
     transform="translate(0,-55.536001)" /></svg>