<?xml version="1.0" encoding="UTF-8" standalone="no"?>
<!-- Generator: Adobe Illustrator 18.1.1, SVG Export Plug-In . SVG Version: 6.00 Build 0)  -->

<svg
   xmlns:dc="http://purl.org/dc/elements/1.1/"
   xmlns:cc="http://creativecommons.org/ns#"
   xmlns:rdf="http://www.w3.org/1999/02/22-rdf-syntax-ns#"
   xmlns:svg="http://www.w3.org/2000/svg"
   xmlns="http://www.w3.org/2000/svg"
   xmlns:sodipodi="http://sodipodi.sourceforge.net/DTD/sodipodi-0.dtd"
   xmlns:inkscape="http://www.inkscape.org/namespaces/inkscape"
   version="1.1"
   id="Capa_1"
   x="0px"
   y="0px"
   viewBox="0 0 24 24"
   xml:space="preserve"
   inkscape:version="0.48.5 r10040"
   width="100%"
   height="100%"
   sodipodi:docname="asal.svg"><metadata
     id="metadata3102"><rdf:RDF><cc:Work
         rdf:about=""><dc:format>image/svg+xml</dc:format><dc:type
           rdf:resource="http://purl.org/dc/dcmitype/StillImage" /><dc:title></dc:title></cc:Work></rdf:RDF></metadata><defs
     id="defs3100" /><sodipodi:namedview
     pagecolor="#ffffff"
     bordercolor="#666666"
     borderopacity="1"
     objecttolerance="10"
     gridtolerance="10"
     guidetolerance="10"
     inkscape:pageopacity="0"
     inkscape:pageshadow="2"
     inkscape:window-width="657"
     inkscape:window-height="480"
     id="namedview3098"
     showgrid="false"
     inkscape:zoom="8.1950135"
     inkscape:cx="-1.8986311"
     inkscape:cy="11.218103"
     inkscape:window-x="0"
     inkscape:window-y="27"
     inkscape:window-maximized="0"
     inkscape:current-layer="Capa_1" /><g
     id="g3060"
     transform="matrix(1.6186441,0,0,1.6186441,0.34637076,0.3465718)"><g
       id="g3062"><path
         style="fill:#030104"
         d="M 13.081,6.562 12.117,2.582 C 12.073,2.403 11.913,2.276 11.727,2.276 l -9.232,-0.011 0,0 c -0.187,0 -0.348,0.128 -0.39,0.309 L 1.254,6.202 C 1.223,6.333 1.26,6.47 1.351,6.567 1.442,6.665 1.575,6.71 1.709,6.689 c 0.002,0 0.13,-0.021 0.327,-0.042 v 5.749 c 0,1.105 0.898,2.003 2.003,2.003 h 5.853 c 1.104,0 2.003,-0.897 2.003,-2.003 V 6.284 c 0.236,0.133 0.355,0.334 0.417,0.503 l 0.053,0.223 c 0.05,0.204 0.248,0.336 0.458,0.3 C 13.03,7.275 13.175,7.085 13.154,6.875 13.152,6.851 13.136,6.729 13.081,6.562 z M 4.755,12.539 3.776,11.671 4.037,10.389 5.278,9.975 6.257,10.842 5.995,12.123 4.755,12.539 z M 5.331,9.432 5.613,8.051 6.951,7.604 8.006,8.538 7.724,9.921 6.387,10.368 5.331,9.432 z m 3.401,2.97 -1.24,0.416 -0.979,-0.867 0.262,-1.282 1.24,-0.415 0.979,0.868 -0.262,1.28 z M 10.5,10.358 9.261,10.773 8.281,9.905 8.543,8.625 9.783,8.209 10.763,9.076 10.5,10.358 z M 11.828,5.403 C 11.704,5.372 11.57,5.356 11.434,5.356 10.793,5.356 10.161,5.695 9.549,6.023 9.214,6.202 8.898,6.371 8.629,6.455 8.502,6.495 8.356,6.514 8.194,6.514 7.552,6.514 6.898,6.203 6.892,6.2 6.837,6.174 6.777,6.16 6.717,6.16 6.656,6.16 6.596,6.174 6.54,6.2 6.536,6.203 6.049,6.436 5.536,6.436 5.265,6.436 5.041,6.371 4.869,6.24 4.473,5.943 3.83,5.791 2.955,5.791 2.664,5.791 2.39,5.809 2.163,5.828 L 2.81,3.067 11.411,3.076 11.985,5.451 C 11.937,5.432 11.883,5.417 11.828,5.403 z"
         id="path3064"
         inkscape:connector-curvature="0" /><path
         style="fill:#030104"
         d="m 3.059,2.069 h 7.812 c 0.571,0 1.035,-0.463 1.035,-1.035 C 11.906,0.462 11.442,0 10.871,0 H 3.059 C 2.488,0 2.024,0.462 2.024,1.034 c 0,0.572 0.464,1.035 1.035,1.035 z"
         id="path3066"
         inkscape:connector-curvature="0" /></g></g><g
     id="g3068"
     transform="translate(0,9.601)" /><g
     id="g3070"
     transform="translate(0,9.601)" /><g
     id="g3072"
     transform="translate(0,9.601)" /><g
     id="g3074"
     transform="translate(0,9.601)" /><g
     id="g3076"
     transform="translate(0,9.601)" /><g
     id="g3078"
     transform="translate(0,9.601)" /><g
     id="g3080"
     transform="translate(0,9.601)" /><g
     id="g3082"
     transform="translate(0,9.601)" /><g
     id="g3084"
     transform="translate(0,9.601)" /><g
     id="g3086"
     transform="translate(0,9.601)" /><g
     id="g3088"
     transform="translate(0,9.601)" /><g
     id="g3090"
     transform="translate(0,9.601)" /><g
     id="g3092"
     transform="translate(0,9.601)" /><g
     id="g3094"
     transform="translate(0,9.601)" /><g
     id="g3096"
     transform="translate(0,9.601)" /></svg>