<?xml version="1.0" encoding="UTF-8" standalone="yes"?>
<svg xmlns="http://www.w3.org/2000/svg" xmlns:xlink="http://www.w3.org/1999/xlink" width="24px" height="24px" viewBox="0 0 18 18" version="1.1">
  <g id="surface1">
    <path style=" stroke:none;fill-rule:nonzero;fill:rgb(0%,0%,0%);fill-opacity:1;" d="M 12.761719 0.457031 L 5.152344 0.457031 C 4.59375 0.457031 4.148438 0.960938 4.148438 1.589844 L 4.148438 16.445312 C 4.148438 17.070312 4.59375 17.578125 5.152344 17.578125 L 12.761719 17.578125 C 13.316406 17.578125 13.769531 17.070312 13.769531 16.445312 L 13.769531 1.589844 C 13.769531 0.960938 13.316406 0.457031 12.761719 0.457031 Z M 12.765625 16.042969 C 12.765625 16.367188 12.539062 16.628906 12.25 16.628906 L 5.664062 16.628906 C 5.371094 16.628906 5.132812 16.367188 5.132812 16.042969 L 5.132812 2.90625 C 5.132812 2.582031 5.371094 2.3125 5.664062 2.3125 L 12.25 2.3125 C 12.539062 2.3125 12.765625 2.582031 12.765625 2.90625 Z M 12.765625 16.042969 "/>
    <path style=" stroke:none;fill-rule:nonzero;fill:rgb(0%,0%,0%);fill-opacity:1;" d="M 17.902344 8.058594 L 16.378906 6.535156 C 16.203125 6.359375 15.917969 6.359375 15.742188 6.535156 L 14.21875 8.058594 C 14.074219 8.203125 14.046875 8.425781 14.148438 8.605469 C 14.253906 8.78125 14.464844 8.867188 14.660156 8.8125 L 15.339844 8.621094 L 15.339844 11.179688 C 15.339844 11.429688 15.535156 11.628906 15.785156 11.628906 L 16.335938 11.628906 C 16.585938 11.628906 16.78125 11.429688 16.78125 11.179688 L 16.78125 8.621094 L 17.457031 8.808594 C 17.65625 8.867188 17.867188 8.78125 17.972656 8.605469 C 18.074219 8.425781 18.046875 8.203125 17.902344 8.058594 Z M 17.902344 8.058594 "/>
    <path style=" stroke:none;fill-rule:nonzero;fill:rgb(0%,0%,0%);fill-opacity:1;" d="M 3.378906 9.253906 L 2.707031 9.441406 L 2.707031 6.601562 C 2.707031 6.351562 2.5 6.15625 2.25 6.15625 L 1.699219 6.15625 C 1.449219 6.15625 1.25 6.351562 1.25 6.601562 L 1.25 9.441406 L 0.570312 9.253906 C 0.375 9.199219 0.164062 9.285156 0.0625 9.460938 C -0.0429688 9.636719 -0.0117188 9.863281 0.132812 10.007812 L 1.65625 11.53125 C 1.832031 11.707031 2.117188 11.707031 2.292969 11.53125 L 3.816406 10.007812 C 3.960938 9.863281 3.992188 9.636719 3.886719 9.460938 C 3.785156 9.285156 3.574219 9.199219 3.378906 9.253906 Z M 3.378906 9.253906 "/>
    <path style=" stroke:none;fill-rule:nonzero;fill:rgb(0%,0%,0%);fill-opacity:1;" d="M 10.691406 6.804688 C 10.648438 6.328125 10.25 5.96875 9.769531 5.96875 L 8.140625 5.96875 C 7.664062 5.96875 7.265625 6.328125 7.21875 6.804688 L 6.921875 9.984375 C 6.917969 10.0625 6.945312 10.140625 7 10.195312 C 7.050781 10.253906 7.128906 10.285156 7.207031 10.285156 L 7.761719 10.285156 L 7.773438 15.425781 C 7.773438 15.582031 7.910156 15.703125 8.066406 15.703125 L 8.542969 15.703125 C 8.699219 15.703125 8.824219 15.585938 8.824219 15.429688 L 8.824219 11.160156 C 8.824219 11.085938 8.886719 11.039062 8.960938 11.039062 C 9.03125 11.039062 9.089844 11.085938 9.089844 11.160156 L 9.089844 15.429688 C 9.089844 15.585938 9.210938 15.703125 9.367188 15.703125 L 9.84375 15.703125 C 10 15.703125 10.132812 15.585938 10.132812 15.429688 L 10.132812 10.285156 L 10.707031 10.285156 C 10.78125 10.285156 10.859375 10.253906 10.910156 10.195312 C 10.964844 10.140625 10.992188 10.0625 10.984375 9.984375 Z M 10.691406 6.804688 "/>
    <path style=" stroke:none;fill-rule:nonzero;fill:rgb(0%,0%,0%);fill-opacity:1;" d="M 10.125 4.394531 C 10.125 5.039062 9.601562 5.5625 8.957031 5.5625 C 8.308594 5.5625 7.785156 5.039062 7.785156 4.394531 C 7.785156 3.746094 8.308594 3.222656 8.957031 3.222656 C 9.601562 3.222656 10.125 3.746094 10.125 4.394531 Z M 10.125 4.394531 "/>
  </g>
</svg>