<?xml version="1.0" encoding="UTF-8" standalone="no"?>
<!-- Generator: Adobe Illustrator 16.0.0, SVG Export Plug-In . SVG Version: 6.00 Build 0)  -->

<svg
   xmlns:dc="http://purl.org/dc/elements/1.1/"
   xmlns:cc="http://creativecommons.org/ns#"
   xmlns:rdf="http://www.w3.org/1999/02/22-rdf-syntax-ns#"
   xmlns:svg="http://www.w3.org/2000/svg"
   xmlns="http://www.w3.org/2000/svg"
   xmlns:sodipodi="http://sodipodi.sourceforge.net/DTD/sodipodi-0.dtd"
   xmlns:inkscape="http://www.inkscape.org/namespaces/inkscape"
   version="1.1"
   id="Capa_1"
   x="0px"
   y="0px"
   width="24"
   height="24"
   viewBox="0 0 24 24"
   xml:space="preserve"
   inkscape:version="0.48.5 r10040"
   sodipodi:docname="asare_tarikhi.svg"><metadata
     id="metadata55"><rdf:RDF><cc:Work
         rdf:about=""><dc:format>image/svg+xml</dc:format><dc:type
           rdf:resource="http://purl.org/dc/dcmitype/StillImage" /><dc:title></dc:title></cc:Work></rdf:RDF></metadata><defs
     id="defs53" /><sodipodi:namedview
     pagecolor="#ffffff"
     bordercolor="#666666"
     borderopacity="1"
     objecttolerance="10"
     gridtolerance="10"
     guidetolerance="10"
     inkscape:pageopacity="0"
     inkscape:pageshadow="2"
     inkscape:window-width="657"
     inkscape:window-height="480"
     id="namedview51"
     showgrid="false"
     inkscape:zoom="6.1023238"
     inkscape:cx="14.714063"
     inkscape:cy="11.598803"
     inkscape:window-x="0"
     inkscape:window-y="27"
     inkscape:window-maximized="0"
     inkscape:current-layer="Capa_1" /><g
     id="g3"
     transform="matrix(0.05116243,0,0,0.05116243,0.80714425,0.80706728)"><g
       id="g5"><path
         d="M 372.18,164.796 H 194.204 l 20.041,49.802 2.028,-0.032 c 5.665,-0.092 11.435,-0.136 17.282,-0.136 55.788,0 112.613,4.456 168.886,13.261 l 4.291,0.677 -10.166,-44.147 c -2.454,-10.719 -13.385,-19.425 -24.386,-19.425 z"
         id="path7"
         inkscape:connector-curvature="0" /><path
         d="m 156.28,123.064 2.817,-0.395 -4.831,-45.442 c -1.192,-11.181 -11.13,-20.634 -22.436,-20.634 -0.008,0 -0.016,0 -0.022,0 -46.256,1.839 -84.4,27.667 -103.013,42.905 -7.786,6.366 -14.13,20.542 -14.13,31.613 v 40.358 l 4.488,-2.795 c 20.555,-12.733 65.71,-35.585 137.127,-45.61 z"
         id="path9"
         inkscape:connector-curvature="0" /><path
         d="m 14.666,221.218 c 0,3.867 -0.597,8.644 -1.671,13.405 l -1.07,4.677 4.651,-1.166 c 4.841,-1.21 16.06,-3.787 16.067,-3.787 l 2.489,-0.562 -0.212,-2.545 c -1.719,-20.878 0.212,-37.821 2.787,-38.497 2.833,1.477 5.528,18.19 5.755,35.769 l 0.046,3.502 19.414,-3.662 -0.329,-2.745 c -1.2,-10.043 -3.04,-37.738 2.817,-45.124 0.832,-1.052 1.541,-1.242 2.254,-1.304 0.383,0 0.982,0.092 1.759,0.906 5.37,5.588 6.516,29.1 5.971,42.617 l -0.14,3.542 24.711,-3.599 -0.188,-2.723 c -1.92,-28.048 0.739,-53.006 5.789,-53.415 4.953,0 11.587,23.734 14.182,50.784 l 0.285,2.929 21.983,-2.128 -0.403,-3.02 c -2.503,-19.127 -4.208,-52.217 1.901,-59.665 0.751,-0.92 1.373,-1.062 1.897,-1.092 6.424,0 15.184,24.98 20.836,59.388 l 0.431,2.615 2.649,-0.15 c 8.247,-0.471 16.673,-0.886 25.409,-1.176 l 4.458,-0.158 -39.359,-86.376 -2.186,0.307 C 79.295,139.753 32.461,166.683 15.966,177.742 l -1.302,0.87 v 42.606 z"
         id="path11"
         inkscape:connector-curvature="0" /><path
         d="M 9.325,246.044 8.732,247.21 C 8.409,247.832 8.086,248.469 7.78,248.974 3.415,255.95 0,269.496 0,279.839 v 38.76 l 3.633,-0.874 c 5.184,-1.234 18.645,-4.171 18.657,-4.171 l 2.473,-0.537 -0.165,-2.529 c -1.18,-18.138 0.413,-35.938 2.863,-37.397 2.314,1.443 4.972,14.876 5.392,34.854 l 0.083,3.466 3.41,-0.646 c 4.462,-0.841 12.854,-2.336 12.854,-2.336 l 2.747,-0.484 -0.345,-2.777 c -1.691,-13.613 -2.553,-37.502 2.331,-43.697 0.706,-0.89 1.289,-1.058 1.859,-1.11 0.336,0 0.802,0.085 1.461,0.773 5.105,5.306 6.231,28.257 5.747,41.478 l -0.132,3.526 23.997,-3.45 -0.203,-2.754 c -2.001,-26.581 0.261,-51.11 4.815,-51.479 4.488,0 10.766,23.383 13.163,49.062 l 0.276,2.953 23.221,-2.368 -0.331,-2.962 c -1.902,-17.096 -3.108,-46.365 1.757,-52.176 0.164,-0.201 0.417,-0.461 0.669,-0.478 4.617,0 12.766,24.013 17.435,51.367 l 0.449,2.605 21.155,-1.335 -0.315,-3.058 c -1.176,-11.321 -2.442,-42.679 5.677,-51.68 1.334,-1.471 2.763,-2.16 4.517,-2.16 9.127,0 21.902,31.17 28.046,53.295 l 0.615,2.18 2.268,-0.032 c 0,0 13.917,-0.184 21.337,-0.2 h 4.633 l -34.149,-72.841 -1.934,0.058 c -97.078,2.721 -164.773,18.407 -189.375,25.022 l -1.266,0.337 z"
         id="path13"
         inkscape:connector-curvature="0" /><path
         d="M 237.146,299.279 C 117.821,298.805 33.116,316.438 2.247,324.056 l -2.24,0.553 v 35.803 c 0,11.317 9.213,20.522 20.524,20.522 h 6.406 l -0.238,-3.158 c -1.575,-21.504 0.605,-34.323 2.342,-35.357 2.661,1.663 5.189,18.298 5.408,35.61 l 0.038,2.905 h 18.554 l -0.397,-3.303 c -1.504,-12.591 -2.112,-34.836 2.689,-40.88 0.773,-0.974 1.424,-1.158 1.843,-1.193 0.42,-0.041 0.854,0 1.491,0.589 5.258,4.877 6.42,28.188 5.925,41.729 l -0.118,3.058 h 23.414 l -0.223,-3.143 c -1.709,-24.918 0.824,-47.94 5.316,-48.293 0.032,0 0.062,0 0.092,0 3.961,0 10.113,19.46 13.072,48.798 l 0.269,2.646 h 23.251 l -0.345,-3.258 c -1.901,-17.642 -3.07,-47.833 2.451,-54.133 0.022,0 0.044,0 0.068,0 3.998,0 11.856,21.94 17.272,54.922 l 0.407,2.477 h 23.279 l -0.38,-3.282 c -1.633,-14.082 -3.978,-52.754 4.626,-62.411 1.108,-1.243 2.278,-1.823 3.672,-1.823 9.123,0 23.56,37.657 30.886,64.395 l 2.839,-0.781 13.826,0.781 c 0.084,0.325 0.147,0.602 0.224,0.922 l 5.703,-1.486 c -5.827,-22.462 -10.299,-48.65 -8.091,-53.651 5.814,2.713 24.445,30.544 39.016,55.859 l 0.846,1.479 h 20.506 l -47.647,-81.655 -1.677,-0.018 z"
         id="path15"
         inkscape:connector-curvature="0" /><path
         d="m 354.708,245.171 c 7.39,0 19.271,28.465 26.701,55.242 l 0.529,1.888 1.947,0.236 c 13.602,1.65 25.668,3.273 36.92,4.993 l 4.28,0.642 -16.936,-73.625 -1.955,-0.309 c -57.635,-9.277 -115.723,-13.972 -172.664,-13.972 -4.269,0 -8.484,0.022 -12.66,0.08 l -4.304,0.054 29.431,73.128 1.964,0.016 c 5.138,0.064 10.363,0.169 15.617,0.293 l 3.871,0.092 -0.95,-3.755 c -4.953,-19.568 -7.59,-42.559 -2.364,-49.796 0.981,-1.354 2.164,-2.04 4.172,-2.168 11.385,0 21.211,33.317 24.733,54.309 l 0.381,2.332 2.36,0.128 c 0,0 10.167,0.545 15.733,0.898 l 4.079,0.244 -1.042,-3.939 c -5.029,-19.016 -8.527,-42.311 -4.312,-48.53 0.629,-0.925 1.227,-1.118 2.012,-1.194 7.449,0 19.34,27.607 26.737,53.556 l 0.562,1.956 18.454,1.627 -1.09,-4.072 c -4.124,-15.296 -8.933,-42.149 -4.232,-49.127 0.663,-0.967 1.268,-1.151 2.026,-1.227 z"
         id="path17"
         inkscape:connector-curvature="0" /><path
         d="m 426.497,314.331 -1.973,-0.309 c -56.608,-8.793 -113.67,-13.714 -169.602,-14.604 l -5.306,-0.092 49.11,81.615 h 15.838 l -0.95,-3.679 c -5.963,-23.163 -9.514,-49.94 -4.031,-57.575 0.85,-1.19 1.823,-1.771 3.494,-1.879 10.127,0 20.378,31.47 25.624,60.708 l 0.429,2.425 h 21.816 l -0.91,-3.651 c -5.538,-22.321 -9.125,-47.729 -4.668,-54.192 0.564,-0.806 1.058,-0.966 1.698,-1.033 6.425,0 17.557,23.848 26.481,56.709 l 0.581,2.168 h 16.928 l -0.781,-3.571 c -4.577,-21.007 -7.174,-45.035 -2.653,-51.411 0.661,-0.921 1.259,-1.105 1.979,-1.174 6.408,0 17.188,21.283 26.217,51.756 l 1.106,3.747 3.298,-2.092 c 5.887,-3.747 8.508,-10.632 6.812,-17.985 l -10.537,-45.881 z"
         id="path19"
         inkscape:connector-curvature="0" /></g></g><g
     id="g21"
     transform="translate(0,-413.54401)" /><g
     id="g23"
     transform="translate(0,-413.54401)" /><g
     id="g25"
     transform="translate(0,-413.54401)" /><g
     id="g27"
     transform="translate(0,-413.54401)" /><g
     id="g29"
     transform="translate(0,-413.54401)" /><g
     id="g31"
     transform="translate(0,-413.54401)" /><g
     id="g33"
     transform="translate(0,-413.54401)" /><g
     id="g35"
     transform="translate(0,-413.54401)" /><g
     id="g37"
     transform="translate(0,-413.54401)" /><g
     id="g39"
     transform="translate(0,-413.54401)" /><g
     id="g41"
     transform="translate(0,-413.54401)" /><g
     id="g43"
     transform="translate(0,-413.54401)" /><g
     id="g45"
     transform="translate(0,-413.54401)" /><g
     id="g47"
     transform="translate(0,-413.54401)" /><g
     id="g49"
     transform="translate(0,-413.54401)" /></svg>