<?xml version="1.0" encoding="UTF-8" standalone="yes"?>
<svg xmlns="http://www.w3.org/2000/svg" xmlns:xlink="http://www.w3.org/1999/xlink" width="24px" height="24px" viewBox="0 0 18 18" version="1.1">
  <g id="surface1">
    <path style=" stroke:none;fill-rule:nonzero;fill:rgb(0%,0%,0%);fill-opacity:1;" d="M 15.253906 15.25 C 15.101562 14.703125 14.742188 14.234375 14.246094 13.953125 L 13.125 13.3125 C 13.328125 12.777344 13.441406 12.1875 13.441406 11.574219 C 13.441406 11.144531 13.386719 10.730469 13.285156 10.335938 L 13.789062 10.199219 C 14.191406 10.089844 14.535156 9.824219 14.742188 9.464844 C 14.949219 9.101562 15.003906 8.671875 14.894531 8.265625 C 14.664062 7.429688 13.800781 6.933594 12.960938 7.160156 L 11.597656 7.53125 C 12.558594 6.839844 13.171875 5.777344 13.171875 4.585938 C 13.171875 4.5625 13.171875 4.542969 13.171875 4.523438 C 14.117188 4.230469 14.804688 3.351562 14.804688 2.3125 C 14.804688 1.039062 13.765625 0 12.492188 0 C 11.667969 0 10.945312 0.433594 10.535156 1.082031 C 10.054688 0.90625 9.53125 0.8125 8.980469 0.8125 C 8.429688 0.8125 7.90625 0.90625 7.425781 1.082031 C 7.015625 0.433594 6.289062 0 5.46875 0 C 4.195312 0 3.15625 1.035156 3.15625 2.3125 C 3.15625 3.351562 3.84375 4.230469 4.789062 4.519531 C 4.789062 4.542969 4.789062 4.5625 4.789062 4.585938 C 4.789062 5.777344 5.402344 6.839844 6.363281 7.53125 L 5 7.160156 C 4.160156 6.933594 3.296875 7.429688 3.066406 8.265625 C 2.957031 8.667969 3.011719 9.101562 3.21875 9.460938 C 3.425781 9.824219 3.769531 10.089844 4.171875 10.199219 L 4.675781 10.335938 C 4.574219 10.730469 4.519531 11.144531 4.519531 11.574219 C 4.519531 12.1875 4.632812 12.777344 4.835938 13.3125 L 3.714844 13.953125 C 3.21875 14.234375 2.859375 14.703125 2.710938 15.25 C 2.558594 15.800781 2.632812 16.382812 2.914062 16.878906 C 3.5 17.90625 4.808594 18.265625 5.839844 17.679688 L 8.40625 16.214844 C 8.59375 16.242188 8.785156 16.253906 8.980469 16.253906 C 9.175781 16.253906 9.367188 16.242188 9.554688 16.214844 L 12.125 17.679688 C 13.152344 18.265625 14.460938 17.90625 15.046875 16.878906 C 15.328125 16.382812 15.402344 15.800781 15.253906 15.25 Z M 7.246094 3.976562 C 7.492188 3.976562 7.6875 4.171875 7.6875 4.417969 C 7.6875 4.660156 7.492188 4.859375 7.246094 4.859375 C 7 4.859375 6.804688 4.660156 6.804688 4.417969 C 6.804688 4.171875 7 3.976562 7.246094 3.976562 Z M 10.714844 4.007812 C 10.960938 4.007812 11.15625 4.207031 11.15625 4.449219 C 11.15625 4.695312 10.960938 4.894531 10.714844 4.894531 C 10.46875 4.894531 10.273438 4.695312 10.273438 4.449219 C 10.273438 4.207031 10.46875 4.007812 10.714844 4.007812 Z M 8.796875 14.472656 C 8.292969 13.972656 6.921875 12.609375 6.894531 12.582031 C 6.316406 12.003906 6.316406 11.070312 6.894531 10.492188 C 7.472656 9.917969 8.402344 9.914062 8.980469 10.488281 C 9.558594 9.914062 10.488281 9.917969 11.066406 10.492188 C 11.644531 11.070312 11.644531 12.003906 11.066406 12.582031 C 11.039062 12.609375 9.667969 13.972656 9.164062 14.472656 C 9.0625 14.574219 8.898438 14.574219 8.796875 14.472656 Z M 12.492188 1.167969 C 13.121094 1.167969 13.636719 1.679688 13.636719 2.3125 C 13.636719 2.78125 13.351562 3.183594 12.945312 3.359375 C 12.683594 2.667969 12.203125 2.070312 11.578125 1.625 C 11.785156 1.347656 12.117188 1.167969 12.492188 1.167969 Z M 8.980469 4.90625 C 9.75 4.90625 10.375 5.46875 10.375 6.160156 C 10.375 6.851562 9.75 7.414062 8.980469 7.414062 C 8.210938 7.414062 7.585938 6.851562 7.585938 6.160156 C 7.585938 5.46875 8.210938 4.90625 8.980469 4.90625 Z M 4.324219 2.3125 C 4.324219 1.679688 4.839844 1.167969 5.46875 1.167969 C 5.84375 1.167969 6.175781 1.347656 6.382812 1.625 C 5.757812 2.070312 5.277344 2.667969 5.015625 3.359375 C 4.609375 3.183594 4.324219 2.78125 4.324219 2.3125 Z M 4.324219 2.3125 "/>
    <path style=" stroke:none;fill-rule:nonzero;fill:rgb(0%,0%,0%);fill-opacity:1;" d="M 9.605469 5.671875 C 9.605469 5.363281 9.324219 5.109375 8.980469 5.109375 C 8.636719 5.109375 8.355469 5.363281 8.355469 5.671875 C 8.355469 5.984375 8.636719 6.234375 8.980469 6.234375 C 9.324219 6.234375 9.605469 5.984375 9.605469 5.671875 Z M 9.605469 5.671875 "/>
  </g>
</svg>