<?xml version="1.0" encoding="UTF-8" standalone="no"?>
<!-- Generator: Adobe Illustrator 18.1.1, SVG Export Plug-In . SVG Version: 6.00 Build 0)  -->

<svg
   xmlns:dc="http://purl.org/dc/elements/1.1/"
   xmlns:cc="http://creativecommons.org/ns#"
   xmlns:rdf="http://www.w3.org/1999/02/22-rdf-syntax-ns#"
   xmlns:svg="http://www.w3.org/2000/svg"
   xmlns="http://www.w3.org/2000/svg"
   xmlns:sodipodi="http://sodipodi.sourceforge.net/DTD/sodipodi-0.dtd"
   xmlns:inkscape="http://www.inkscape.org/namespaces/inkscape"
   version="1.1"
   id="Capa_1"
   x="0px"
   y="0px"
   viewBox="0 0 24 24"
   xml:space="preserve"
   inkscape:version="0.48.5 r10040"
   width="100%"
   height="100%"
   sodipodi:docname="kabab_ash.svg"><metadata
     id="metadata3216"><rdf:RDF><cc:Work
         rdf:about=""><dc:format>image/svg+xml</dc:format><dc:type
           rdf:resource="http://purl.org/dc/dcmitype/StillImage" /><dc:title></dc:title></cc:Work></rdf:RDF></metadata><defs
     id="defs3214" /><sodipodi:namedview
     pagecolor="#ffffff"
     bordercolor="#666666"
     borderopacity="1"
     objecttolerance="10"
     gridtolerance="10"
     guidetolerance="10"
     inkscape:pageopacity="0"
     inkscape:pageshadow="2"
     inkscape:window-width="657"
     inkscape:window-height="480"
     id="namedview3212"
     showgrid="false"
     inkscape:zoom="3.7115672"
     inkscape:cx="31.7925"
     inkscape:cy="31.7925"
     inkscape:window-x="0"
     inkscape:window-y="27"
     inkscape:window-maximized="0"
     inkscape:current-layer="Capa_1" /><g
     id="g3156"
     transform="matrix(0.34320368,0,0,0.34320368,1.0887544,1.0887185)"><g
       id="g3158"><path
         style="fill:#010002"
         d="m 33.153,13.638 c -2.499,-3.902 7.885,-9.273 1.316,-13.412 -1.508,-0.944 -3.168,1.32 -1.572,2.322 3.627,2.279 -5.914,6.629 -1.999,12.745 0.999,1.553 3.252,-0.096 2.255,-1.655 z"
         id="path3160"
         inkscape:connector-curvature="0" /><path
         style="fill:#010002"
         d="M 40.464,13.638 C 37.957,9.724 48.358,4.37 41.778,0.226 40.976,-0.278 39.869,0.185 39.616,1.067 c -0.652,2.274 3.575,0.756 -0.135,5.835 -1.995,2.729 -3.094,5.551 -1.275,8.392 1.013,1.561 3.242,-0.116 2.258,-1.656 z"
         id="path3162"
         inkscape:connector-curvature="0" /><path
         style="fill:#010002"
         d="m 25.802,13.638 c -2.508,-3.917 7.904,-9.264 1.315,-13.412 -1.503,-0.946 -3.17,1.319 -1.572,2.322 3.601,2.263 -5.892,6.665 -1.999,12.745 1.003,1.553 3.25,-0.093 2.256,-1.655 z"
         id="path3164"
         inkscape:connector-curvature="0" /><path
         style="fill:#010002"
         d="m 31.279,33.679 c 15.729,0 24.001,-4.011 24.001,-7.331 0,-3.832 -10.432,-7.489 -23.49,-7.322 -13.082,-0.168 -23.489,3.5 -23.489,7.322 0,3.541 9.233,7.331 22.978,7.331 z m 0.307,-12.687 c 0.048,0 0.096,0 0.145,0.002 v 0.001 c 0.02,0 0.04,-0.001 0.06,-0.001 0.021,0 0.04,0.001 0.06,0.001 v -0.001 c 0.049,-0.001 0.097,-0.002 0.145,-0.002 9.891,0 19.903,1.744 19.903,5.075 0,4.3 -15.53,5.176 -20.048,5.074 V 31.14 c 0,0 -0.118,0 -0.119,0 v 10e-4 c -4.641,0.106 -20.046,-0.805 -20.046,-5.074 -10e-4,-3.332 10.009,-5.075 19.9,-5.075 z"
         id="path3166"
         inkscape:connector-curvature="0" /><path
         style="fill:#010002"
         d="m 17.352,28.531 0.08,-4.949 c -2.973,0.763 -4.62,1.697 -4.62,2.484 0,0.781 1.618,1.706 4.54,2.465 z"
         id="path3168"
         inkscape:connector-curvature="0" /><path
         style="fill:#010002"
         d="m 24.207,22.463 c -1.673,0.164 -3.178,0.376 -4.511,0.625 l -0.094,5.941 c 1.332,0.251 2.84,0.468 4.516,0.634 l 0.089,-7.2 z"
         id="path3170"
         inkscape:connector-curvature="0" /><path
         style="fill:#010002"
         d="m 30.974,22.127 c -1.595,0.012 -3.098,0.067 -4.51,0.157 l -0.094,7.561 c 1.41,0.092 2.914,0.148 4.509,0.162 l 0.095,-7.88 z"
         id="path3172"
         inkscape:connector-curvature="0" /><path
         style="fill:#010002"
         d="M 55.822,28.463 C 55.818,28.395 55.8,28.329 55.792,28.261 52.422,33.559 38.519,34.898 31.85,34.8 v -0.002 c 0,0 -0.117,0 -0.119,0 V 34.8 c -8.507,0.125 -20.9,-1.76 -23.941,-6.539 -0.009,0.068 -0.027,0.134 -0.03,0.202 -2.588,0.566 -3.726,1.76 -3.654,3.796 0.061,1.724 2.262,3.215 5.128,4.063 1.798,4.475 5.129,8.107 9.418,10.506 l -6.173,14.399 c -0.369,0.857 0.029,1.854 0.889,2.221 0.216,0.092 0.442,0.137 0.665,0.137 0.656,0 1.28,-0.384 1.555,-1.024 l 6.126,-14.29 c 5.895,2.286 13.754,2.481 20.156,0 l 6.126,14.29 c 0.274,0.641 0.898,1.024 1.555,1.024 0.223,0 0.449,-0.045 0.665,-0.137 0.86,-0.367 1.259,-1.363 0.89,-2.221 L 44.932,46.828 c 4.289,-2.398 7.619,-6.031 9.419,-10.506 2.865,-0.848 5.065,-2.339 5.128,-4.063 0.068,-2.036 -1.069,-3.23 -3.657,-3.796 z M 6.935,32.578 C 6.886,31.652 7.029,31.112 7.852,30.763 7.967,31.902 8.19,32.996 8.477,34.06 7.551,33.7 6.966,33.208 6.935,32.578 z m 48.169,1.482 c 0.288,-1.064 0.511,-2.159 0.626,-3.297 0.821,0.349 0.965,0.889 0.916,1.815 -0.032,0.63 -0.617,1.122 -1.542,1.482 z"
         id="path3174"
         inkscape:connector-curvature="0" /><path
         style="fill:#010002"
         d="m 50.77,26.066 c 0,-0.787 -1.647,-1.722 -4.62,-2.484 l 0.079,4.949 c 2.922,-0.759 4.541,-1.684 4.541,-2.465 z"
         id="path3176"
         inkscape:connector-curvature="0" /><path
         style="fill:#010002"
         d="m 43.978,29.028 -0.093,-5.941 c -1.334,-0.248 -2.839,-0.461 -4.511,-0.625 l 0.089,7.199 c 1.676,-0.165 3.183,-0.381 4.515,-0.633 z"
         id="path3178"
         inkscape:connector-curvature="0" /><path
         style="fill:#010002"
         d="m 37.212,29.845 -0.095,-7.561 c -1.412,-0.09 -2.915,-0.145 -4.51,-0.157 l 0.096,7.879 c 1.595,-0.013 3.098,-0.069 4.509,-0.161 z"
         id="path3180"
         inkscape:connector-curvature="0" /></g></g><g
     id="g3182"
     transform="translate(0,-39.585001)" /><g
     id="g3184"
     transform="translate(0,-39.585001)" /><g
     id="g3186"
     transform="translate(0,-39.585001)" /><g
     id="g3188"
     transform="translate(0,-39.585001)" /><g
     id="g3190"
     transform="translate(0,-39.585001)" /><g
     id="g3192"
     transform="translate(0,-39.585001)" /><g
     id="g3194"
     transform="translate(0,-39.585001)" /><g
     id="g3196"
     transform="translate(0,-39.585001)" /><g
     id="g3198"
     transform="translate(0,-39.585001)" /><g
     id="g3200"
     transform="translate(0,-39.585001)" /><g
     id="g3202"
     transform="translate(0,-39.585001)" /><g
     id="g3204"
     transform="translate(0,-39.585001)" /><g
     id="g3206"
     transform="translate(0,-39.585001)" /><g
     id="g3208"
     transform="translate(0,-39.585001)" /><g
     id="g3210"
     transform="translate(0,-39.585001)" /></svg>