<?xml version="1.0" encoding="utf-8"?>
<!-- Generator: Adobe Illustrator 15.1.0, SVG Export Plug-In . SVG Version: 6.00 Build 0)  -->
<!DOCTYPE svg PUBLIC "-//W3C//DTD SVG 1.1//EN" "http://www.w3.org/Graphics/SVG/1.1/DTD/svg11.dtd">
<svg version="1.1" id="Layer_1" xmlns="http://www.w3.org/2000/svg" xmlns:xlink="http://www.w3.org/1999/xlink" x="0px" y="0px"
	 width="24px" height="24px" viewBox="0 0 24 24" enable-background="new 0 0 24 24" xml:space="preserve">
<path d="M10.788,3.706c0.468,1.089,1.259,2.167,2.365,2.631c0.126,0.053,0.27,0.092,0.417,0.125
	c0.294-0.439,0.633-0.796,1.028-1.088c0.341-0.25,0.697-0.446,1.064-0.6c-0.105-0.074-0.216-0.141-0.332-0.202
	c-0.46-0.241-0.958-0.452-1.443-0.68c0.456,0.124,0.979,0.169,1.416,0.329c0.272,0.1,0.523,0.238,0.758,0.402
	c0.698-0.238,1.429-0.353,2.157-0.439c-0.591-0.981-1.851-1.77-2.801-2.126c-0.991-0.373-2.115-0.418-3.219-0.533
	c-0.676-0.07-1.411-0.322-1.949-0.617c-0.122-0.067-0.253,0.045-0.211,0.18C10.304,1.935,10.438,2.893,10.788,3.706z M22.558,4.021
	c-1.245,0.676-2.672,0.759-4.07,0.919c-0.683,0.079-1.359,0.177-2.002,0.371c-0.14,0.042-0.279,0.089-0.416,0.142
	c-0.406,0.155-0.798,0.359-1.168,0.631C14.554,6.34,14.27,6.643,14.03,6.975c-0.381,0.531-0.647,1.143-0.865,1.778
	c-0.398,1.154-0.581,2.38-0.546,3.599c0.014,0.495,0.022,1.01,0.145,1.492c0.027,0.106,0.055,0.241,0.137,0.321
	c0.108,0.104,0.302-0.003,0.258-0.154c-0.313-1.066-0.118-2.314,0.314-3.333c0.497-1.172,1.458-1.869,2.631-2.294
	c0.312-0.113,0.63-0.212,0.954-0.305c0.006-0.003,0.013-0.003,0.02-0.003c0.064,0,0.092,0.095,0.025,0.125
	c-0.382,0.172-0.761,0.346-1.121,0.534c-1.766,0.921-2.536,3.065-1.875,3.065c0.055,0,0.117-0.014,0.189-0.044
	c1.021-0.422,2.234-0.426,3.356-0.634c0.395-0.072,0.778-0.171,1.139-0.321c1.432-0.597,2.455-1.766,3.063-3.17
	c0.454-1.048,0.631-2.286,0.974-3.375c0.045-0.14-0.054-0.259-0.175-0.259C22.623,3.994,22.591,4.002,22.558,4.021z M12.44,12.035
	c-0.367-0.009-0.738-0.013-1.117-0.013c-4.809,0-8.743,0.706-9.047,1.602H2.263c0,0-0.001,0.019-0.003,0.052
	c-0.003,0.018-0.006,0.033-0.006,0.051c0,0.011,0.001,0.018,0.002,0.027c-0.001,0.035-0.002,0.066-0.002,0.086
	c0,5.008,4.06,9.1,9.068,9.1c5.007,0,9.066-4.108,9.066-9.117c0-0.017,0-0.045-0.001-0.074c0.001-0.006,0.002-0.014,0.002-0.023
	c0-0.018-0.002-0.029-0.004-0.047c-0.001-0.033-0.004-0.053-0.004-0.053H20.37c-0.15-0.441-1.18-0.835-2.759-1.123 M17.102,13.322
	c1.063,0.223,1.701,0.51,1.701,0.822c0,0.715-3.349,1.295-7.48,1.295c-4.131,0-7.48-0.58-7.48-1.295c0-0.716,3.349-1.296,7.48-1.296
	c0.09,0,0.178,0,0.267,0.001 M11.403,8.627c-0.168,0.63-0.918,0.976-2.176,0.638C8.843,9.162,8.474,8.951,8.145,8.706
	c0.246,0.33,0.458,0.699,0.562,1.082c0.337,1.259-0.01,2.009-0.638,2.18c-0.63,0.168-1.305-0.311-1.642-1.57
	C6.322,10.015,6.322,9.589,6.37,9.182C6.206,9.56,5.994,9.928,5.713,10.207c-0.922,0.921-1.745,0.999-2.206,0.535
	c-0.461-0.46-0.385-1.283,0.537-2.205c0.281-0.279,0.648-0.493,1.027-0.654C4.663,7.931,4.236,7.929,3.854,7.826
	c-1.26-0.337-1.736-1.012-1.567-1.642c0.168-0.63,0.919-0.976,2.178-0.639C4.848,5.648,5.218,5.86,5.546,6.107
	c-0.244-0.33-0.458-0.699-0.56-1.082c-0.337-1.259,0.009-2.01,0.638-2.179c0.631-0.167,1.305,0.31,1.643,1.568
	c0.103,0.384,0.103,0.809,0.054,1.217c0.164-0.378,0.377-0.746,0.657-1.025C8.9,3.684,9.724,3.608,10.185,4.068
	c0.462,0.462,0.387,1.285-0.536,2.207C9.367,6.555,9,6.768,8.623,6.931c0.408-0.046,0.834-0.046,1.216,0.055
	C11.096,7.322,11.573,7.997,11.403,8.627z"/>
</svg>
