<?xml version="1.0" encoding="utf-8"?>
<!-- Generator: Adobe Illustrator 15.1.0, SVG Export Plug-In . SVG Version: 6.00 Build 0)  -->
<!DOCTYPE svg PUBLIC "-//W3C//DTD SVG 1.1//EN" "http://www.w3.org/Graphics/SVG/1.1/DTD/svg11.dtd">
<svg version="1.1" id="Layer_1" xmlns="http://www.w3.org/2000/svg" xmlns:xlink="http://www.w3.org/1999/xlink" x="0px" y="0px"
	 width="24px" height="24px" viewBox="0 0 24 24" enable-background="new 0 0 24 24" xml:space="preserve">
<path fill-rule="evenodd" clip-rule="evenodd" d="M10.202,21.515c-0.074-0.758-0.01-1.651-0.031-2.461
	c-1.292-0.146-1.932,0.085-3.124-0.031c-1.292-0.127-2.41-1.056-2.681-2.461c-0.179-0.93-0.063-2.071-0.063-3.154
	c0-2.167,0-4.216,0-6.404c0-1.153,0.161-1.964,0.599-2.587c0.527-0.749,1.278-1.262,2.46-1.325c2.557-0.136,4.952,0,7.54,0
	c0.85,0,1.818-0.077,2.46,0.094c1.364,0.364,2.212,1.331,2.366,2.745c0.158,1.445,0.032,3.239,0.032,5.047
	c0,1.524,0.09,3.515-0.032,5.079c-0.112,1.452-0.91,2.516-2.208,2.871c-0.808,0.221-1.779,0.095-2.682,0.095
	c-0.437,0-0.928,0-1.388,0c-0.479,0-1.01-0.088-1.388,0c-0.386,0.09-0.87,0.75-1.104,1.072
	C10.617,20.566,10.429,20.962,10.202,21.515z M7.899,6.908c0.021,2.776-0.042,5.637,0.031,8.359c0.747,0,1.494,0,2.24,0
	c-0.051-1.928-0.039-3.518,0.725-4.542c0.494-0.661,1.243-1.117,1.83-1.704c0.607-0.608,1.007-1.296,1.388-2.145
	c0,2.797,0,5.594,0,8.391c0.673,0,1.346,0,2.02,0c0.073-2.744,0.01-5.625,0.031-8.422c-2.682-0.074-5.5-0.011-8.234-0.032
	C7.894,6.819,7.896,6.863,7.899,6.908z"/>
</svg>
