<?xml version="1.0" encoding="utf-8"?>
<!-- Generator: Adobe Illustrator 15.1.0, SVG Export Plug-In . SVG Version: 6.00 Build 0)  -->
<!DOCTYPE svg PUBLIC "-//W3C//DTD SVG 1.1//EN" "http://www.w3.org/Graphics/SVG/1.1/DTD/svg11.dtd">
<svg version="1.1"
	 id="svg2990" xmlns:rdf="http://www.w3.org/1999/02/22-rdf-syntax-ns#" xmlns:sodipodi="http://sodipodi.sourceforge.net/DTD/sodipodi-0.dtd" xmlns:inkscape="http://www.inkscape.org/namespaces/inkscape" xmlns:cc="http://creativecommons.org/ns#" xmlns:svg="http://www.w3.org/2000/svg" xmlns:dc="http://purl.org/dc/elements/1.1/" inkscape:version="0.48.5 r10040" sodipodi:docname="gas.svg"
	 xmlns="http://www.w3.org/2000/svg" xmlns:xlink="http://www.w3.org/1999/xlink" x="0px" y="0px" width="24px" height="24px"
	 viewBox="0 0 24 24" enable-background="new 0 0 24 24" xml:space="preserve">
<path fill="#020203" d="M21.164,10.816l-1.165-3.858c-0.123-0.343-0.373-0.606-0.744-0.79c-0.373-0.184-0.776-0.227-1.212-0.129
	c-0.62,0.123-1.04,0.404-1.257,0.845c-0.714,1.396-1.102,2.131-1.165,2.204c-0.029,0.074-0.093,0.135-0.186,0.184L13.713,9.86
	c-0.342,0.124-0.513,0.332-0.513,0.625c0,0.195,0.084,0.361,0.257,0.495c0.17,0.135,0.379,0.203,0.629,0.203
	c0.092,0,0.2-0.013,0.325-0.037l2.049-0.661c0.218-0.099,0.404-0.245,0.56-0.441c0.062-0.049,0.201-0.281,0.419-0.698l1.21,4.115
	v6.392c0,0.345,0.133,0.625,0.396,0.848c0.265,0.218,0.598,0.329,1.001,0.329c0.404,0,0.738-0.111,1.002-0.329
	c0.264-0.223,0.396-0.491,0.396-0.81v-7.568C21.442,11.88,21.35,11.379,21.164,10.816z M16.503,5.818
	c0.456,0,0.844-0.135,1.162-0.404c0.319-0.27,0.477-0.606,0.477-1.01c0-0.405-0.157-0.747-0.477-1.029
	c-0.318-0.281-0.706-0.422-1.162-0.422s-0.844,0.141-1.162,0.422C15.022,3.657,14.864,4,14.864,4.404
	c0,0.404,0.158,0.741,0.477,1.01C15.659,5.684,16.047,5.818,16.503,5.818z M12.943,9.881L9.644,4.215
	C9.396,3.724,8.952,3.478,8.313,3.478H5.333c-0.426,0-0.781,0.13-1.065,0.391C3.985,4.13,3.843,4.43,3.843,4.768v9.905v6.356h9.259
	V10.526c0-0.246-0.07-0.461-0.212-0.645L12.943,9.881L12.943,9.881z M10.655,17.782c-0.426,0.414-1.046,0.684-1.863,0.806v0.968
	H7.94v-0.968c-0.709-0.063-1.277-0.284-1.703-0.668c-0.426-0.385-0.709-0.913-0.852-1.589l1.597-0.138
	c0.071,0.276,0.195,0.514,0.373,0.714c0.177,0.199,0.372,0.346,0.585,0.438v-2.167c-0.78-0.185-1.357-0.477-1.729-0.875
	c-0.372-0.399-0.559-0.876-0.559-1.427c0-0.554,0.213-1.023,0.639-1.406c0.426-0.384,0.976-0.607,1.649-0.667v-0.507h0.852v0.507
	c0.639,0.06,1.153,0.245,1.544,0.552c0.39,0.308,0.638,0.722,0.745,1.245l-1.543,0.184c-0.107-0.43-0.355-0.706-0.746-0.829v1.98
	c0.994,0.246,1.659,0.546,1.996,0.899c0.337,0.353,0.505,0.806,0.505,1.359C11.294,16.837,11.081,17.366,10.655,17.782z
	 M8.792,15.408v2.027c0.319-0.06,0.577-0.185,0.772-0.367c0.195-0.185,0.292-0.416,0.292-0.692c0-0.215-0.079-0.406-0.239-0.574
	C9.457,15.633,9.183,15.501,8.792,15.408z M7.355,12.253c-0.142,0.169-0.213,0.361-0.213,0.576c0,0.185,0.071,0.354,0.213,0.507
	c0.142,0.154,0.337,0.276,0.585,0.369v-1.797C7.692,11.969,7.497,12.084,7.355,12.253z"/>
</svg>
