<?xml version="1.0" encoding="UTF-8" standalone="no"?>
<!-- Generator: Adobe Illustrator 16.0.0, SVG Export Plug-In . SVG Version: 6.00 Build 0)  -->

<svg
   xmlns:dc="http://purl.org/dc/elements/1.1/"
   xmlns:cc="http://creativecommons.org/ns#"
   xmlns:rdf="http://www.w3.org/1999/02/22-rdf-syntax-ns#"
   xmlns:svg="http://www.w3.org/2000/svg"
   xmlns="http://www.w3.org/2000/svg"
   xmlns:sodipodi="http://sodipodi.sourceforge.net/DTD/sodipodi-0.dtd"
   xmlns:inkscape="http://www.inkscape.org/namespaces/inkscape"
   version="1.1"
   id="Capa_1"
   x="0px"
   y="0px"
   width="24"
   height="24"
   viewBox="0 0 24 24"
   xml:space="preserve"
   inkscape:version="0.48.5 r10040"
   sodipodi:docname="atr_odkolon.svg"><metadata
     id="metadata3147"><rdf:RDF><cc:Work
         rdf:about=""><dc:format>image/svg+xml</dc:format><dc:type
           rdf:resource="http://purl.org/dc/dcmitype/StillImage" /><dc:title></dc:title></cc:Work></rdf:RDF></metadata><defs
     id="defs3145" /><sodipodi:namedview
     pagecolor="#ffffff"
     bordercolor="#666666"
     borderopacity="1"
     objecttolerance="10"
     gridtolerance="10"
     guidetolerance="10"
     inkscape:pageopacity="0"
     inkscape:pageshadow="2"
     inkscape:window-width="657"
     inkscape:window-height="480"
     id="namedview3143"
     showgrid="false"
     inkscape:zoom="4.1142406"
     inkscape:cx="8.0614848"
     inkscape:cy="11.062218"
     inkscape:window-x="0"
     inkscape:window-y="27"
     inkscape:window-maximized="0"
     inkscape:current-layer="Capa_1" /><g
     id="g3107"
     transform="matrix(0.06955175,0,0,0.06955175,0.71568065,0.71568065)"><g
       id="g3109"><path
         d="m 162.246,324.487 c 51.259,0 74.783,-5.764 74.783,-5.764 1.444,-9.362 34.574,-43.217 34.574,-43.217 L 203.899,148.021 181.094,138.08 v -37.102 c 7.643,-1.51 12.604,-3.907 12.604,-6.615 0,-3.596 -8.715,-6.651 -20.868,-7.795 1.502,-4.236 4.671,-9.932 11.631,-13.818 l 16.56,-38.157 c 0,0 4.566,-6.499 -38.769,-34.593 -43.336,28.094 -38.771,34.593 -38.771,34.593 l 16.565,38.157 c 6.952,3.886 10.128,9.574 11.627,13.818 -12.158,1.144 -20.871,4.2 -20.871,7.795 0,2.708 4.963,5.111 12.604,6.615 v 37.102 l -22.804,9.941 -67.718,127.486 c 0,0 33.135,33.854 34.571,43.217 0.006,0 23.533,5.763 74.791,5.763 z"
         id="path3111"
         inkscape:connector-curvature="0" /></g></g><g
     id="g3113"
     transform="translate(0,-300.487)" /><g
     id="g3115"
     transform="translate(0,-300.487)" /><g
     id="g3117"
     transform="translate(0,-300.487)" /><g
     id="g3119"
     transform="translate(0,-300.487)" /><g
     id="g3121"
     transform="translate(0,-300.487)" /><g
     id="g3123"
     transform="translate(0,-300.487)" /><g
     id="g3125"
     transform="translate(0,-300.487)" /><g
     id="g3127"
     transform="translate(0,-300.487)" /><g
     id="g3129"
     transform="translate(0,-300.487)" /><g
     id="g3131"
     transform="translate(0,-300.487)" /><g
     id="g3133"
     transform="translate(0,-300.487)" /><g
     id="g3135"
     transform="translate(0,-300.487)" /><g
     id="g3137"
     transform="translate(0,-300.487)" /><g
     id="g3139"
     transform="translate(0,-300.487)" /><g
     id="g3141"
     transform="translate(0,-300.487)" /></svg>