<?xml version="1.0" encoding="UTF-8" standalone="yes"?>
<svg xmlns="http://www.w3.org/2000/svg" xmlns:xlink="http://www.w3.org/1999/xlink" width="24px" height="24px" viewBox="0 0 18 18" version="1.1">
  <g id="surface1">
    <path style=" stroke:none;fill-rule:nonzero;fill:rgb(0%,0%,0%);fill-opacity:1;" d="M 10.742188 7.976562 C 10.691406 7.976562 10.644531 7.984375 10.59375 7.996094 L 10.027344 8.152344 L 9.441406 6.722656 C 9.273438 6.316406 8.78125 5.988281 8.34375 5.988281 L 2.851562 5.988281 C 2.414062 5.988281 1.921875 6.316406 1.753906 6.722656 L 1.167969 8.152344 L 0.609375 7.996094 C 0.558594 7.984375 0.511719 7.976562 0.460938 7.976562 C 0.195312 7.976562 0 8.179688 0 8.460938 L 0 8.796875 C 0 9.125 0.265625 9.390625 0.59375 9.390625 L 0.660156 9.390625 L 0.566406 9.621094 C 0.410156 9.996094 0.285156 10.636719 0.285156 11.042969 L 0.285156 13.882812 C 0.285156 14.210938 0.550781 14.476562 0.878906 14.476562 L 1.65625 14.476562 C 1.984375 14.476562 2.253906 14.210938 2.253906 13.882812 L 2.253906 13.171875 L 8.941406 13.171875 L 8.941406 13.882812 C 8.941406 14.210938 9.210938 14.476562 9.539062 14.476562 L 10.316406 14.476562 C 10.644531 14.476562 10.910156 14.210938 10.910156 13.882812 L 10.910156 11.042969 C 10.910156 10.636719 10.785156 9.996094 10.628906 9.621094 L 10.535156 9.390625 L 10.605469 9.390625 C 10.9375 9.390625 11.203125 9.125 11.203125 8.796875 L 11.203125 8.460938 C 11.203125 8.179688 11.007812 7.976562 10.742188 7.976562 Z M 1.59375 9.066406 L 2.484375 6.902344 C 2.582031 6.660156 2.878906 6.464844 3.140625 6.464844 L 8.054688 6.464844 C 8.316406 6.464844 8.613281 6.660156 8.710938 6.902344 L 9.601562 9.066406 C 9.699219 9.308594 9.566406 9.507812 9.304688 9.507812 L 1.890625 9.507812 C 1.628906 9.507812 1.496094 9.308594 1.59375 9.066406 Z M 3.578125 11.804688 C 3.578125 11.933594 3.46875 12.042969 3.339844 12.042969 L 1.652344 12.042969 C 1.519531 12.042969 1.414062 11.933594 1.414062 11.804688 L 1.414062 10.992188 C 1.414062 10.863281 1.519531 10.753906 1.652344 10.753906 L 3.339844 10.753906 C 3.46875 10.753906 3.578125 10.863281 3.578125 10.992188 Z M 9.765625 11.804688 C 9.765625 11.933594 9.65625 12.042969 9.527344 12.042969 L 7.839844 12.042969 C 7.707031 12.042969 7.601562 11.933594 7.601562 11.804688 L 7.601562 10.992188 C 7.601562 10.863281 7.707031 10.753906 7.839844 10.753906 L 9.527344 10.753906 C 9.65625 10.753906 9.765625 10.863281 9.765625 10.992188 Z M 9.765625 11.804688 "/>
    <path style=" stroke:none;fill-rule:nonzero;fill:rgb(0%,0%,0%);fill-opacity:1;" d="M 18 9.730469 L 18 4.429688 C 18 3.929688 17.589844 3.519531 17.089844 3.519531 L 13.328125 3.519531 C 13.183594 3.519531 13.070312 3.636719 13.070312 3.78125 C 13.070312 3.925781 13.183594 4.039062 13.328125 4.039062 L 17.089844 4.039062 C 17.304688 4.039062 17.480469 4.214844 17.480469 4.429688 L 17.480469 9.492188 L 16.234375 9.492188 L 16.234375 7.707031 C 16.234375 6.832031 15.03125 6.96875 14.679688 7.140625 C 14.257812 7.347656 13.03125 8.054688 13.03125 8.054688 C 12.8125 8.175781 12.734375 8.449219 12.855469 8.664062 C 12.9375 8.8125 13.089844 8.894531 13.246094 8.894531 C 13.320312 8.894531 13.394531 8.875 13.464844 8.839844 L 14.472656 8.277344 L 14.472656 9.492188 L 12.484375 9.492188 C 12.347656 9.492188 12.234375 9.601562 12.234375 9.738281 L 12.234375 14.097656 C 12.234375 14.234375 12.347656 14.347656 12.484375 14.347656 L 17.75 14.347656 C 17.886719 14.347656 18 14.234375 18 14.097656 L 18 9.738281 C 18 9.738281 18 9.734375 18 9.730469 Z M 18 9.730469 "/>
    <path style=" stroke:none;fill-rule:nonzero;fill:rgb(0%,0%,0%);fill-opacity:1;" d="M 15.355469 6.753906 C 15.867188 6.753906 16.285156 6.339844 16.285156 5.824219 C 16.285156 5.3125 15.867188 4.894531 15.355469 4.894531 C 14.84375 4.894531 14.425781 5.3125 14.425781 5.824219 C 14.425781 6.339844 14.84375 6.753906 15.355469 6.753906 Z M 15.355469 6.753906 "/>
  </g>
</svg>