<?xml version="1.0" encoding="UTF-8" standalone="yes"?>
<svg xmlns="http://www.w3.org/2000/svg" xmlns:xlink="http://www.w3.org/1999/xlink" width="24px" height="24px" viewBox="0 0 18 18" version="1.1">
  <g id="surface1">
    <path style=" stroke:none;fill-rule:nonzero;fill:rgb(0%,0%,0%);fill-opacity:1;" d="M 5.550781 15.09375 C 5.542969 15.140625 5.554688 15.1875 5.585938 15.222656 C 5.613281 15.257812 5.660156 15.277344 5.707031 15.277344 L 8.542969 15.277344 L 8.542969 10.066406 L 6.367188 10.066406 Z M 5.550781 15.09375 "/>
    <path style=" stroke:none;fill-rule:nonzero;fill:rgb(0%,0%,0%);fill-opacity:1;" d="M 8.542969 2.722656 L 7.691406 2.722656 C 7.617188 2.722656 7.550781 2.777344 7.539062 2.855469 L 6.765625 7.617188 L 8.542969 7.617188 Z M 8.542969 2.722656 "/>
    <path style=" stroke:none;fill-rule:nonzero;fill:rgb(0%,0%,0%);fill-opacity:1;" d="M 11.632812 10.066406 L 9.457031 10.066406 L 9.457031 15.277344 L 12.292969 15.277344 C 12.339844 15.277344 12.386719 15.257812 12.414062 15.222656 C 12.445312 15.1875 12.457031 15.140625 12.449219 15.09375 Z M 11.632812 10.066406 "/>
    <path style=" stroke:none;fill-rule:nonzero;fill:rgb(0%,0%,0%);fill-opacity:1;" d="M 10.460938 2.855469 C 10.449219 2.777344 10.382812 2.722656 10.308594 2.722656 L 9.457031 2.722656 L 9.457031 7.617188 L 11.234375 7.617188 Z M 10.460938 2.855469 "/>
    <path style=" stroke:none;fill-rule:nonzero;fill:rgb(0%,0%,0%);fill-opacity:1;" d="M 14.925781 8.300781 L 3.074219 8.300781 C 2.988281 8.300781 2.917969 8.371094 2.917969 8.457031 L 2.917969 9.222656 C 2.917969 9.3125 2.988281 9.382812 3.074219 9.382812 L 4.472656 9.382812 L 4.472656 10.9375 C 4.472656 11.007812 4.53125 11.066406 4.601562 11.066406 L 5.210938 11.066406 C 5.28125 11.066406 5.339844 11.007812 5.339844 10.9375 L 5.339844 9.382812 L 12.660156 9.382812 L 12.660156 10.9375 C 12.660156 11.007812 12.71875 11.066406 12.789062 11.066406 L 13.398438 11.066406 C 13.46875 11.066406 13.527344 11.007812 13.527344 10.9375 L 13.527344 9.382812 L 14.925781 9.382812 C 15.011719 9.382812 15.082031 9.3125 15.082031 9.222656 L 15.082031 8.457031 C 15.082031 8.371094 15.011719 8.300781 14.925781 8.300781 Z M 14.925781 8.300781 "/>
    <path style=" stroke:none;fill-rule:nonzero;fill:rgb(0%,0%,0%);fill-opacity:1;" d="M 14.261719 0 L 3.738281 0 C 1.675781 0 0 1.675781 0 3.738281 L 0 14.261719 C 0 16.324219 1.675781 18 3.738281 18 L 14.261719 18 C 16.324219 18 18 16.324219 18 14.261719 L 18 3.738281 C 18 1.675781 16.324219 0 14.261719 0 Z M 17.316406 14.261719 C 17.316406 15.945312 15.945312 17.316406 14.261719 17.316406 L 3.738281 17.316406 C 2.054688 17.316406 0.683594 15.945312 0.683594 14.261719 L 0.683594 3.738281 C 0.683594 2.054688 2.054688 0.683594 3.738281 0.683594 L 14.261719 0.683594 C 15.945312 0.683594 17.316406 2.054688 17.316406 3.738281 Z M 17.316406 14.261719 "/>
  </g>
</svg>