<?xml version="1.0" encoding="UTF-8" standalone="yes"?>
<svg xmlns="http://www.w3.org/2000/svg" xmlns:xlink="http://www.w3.org/1999/xlink" width="24px" height="24px" viewBox="0 0 18 18" version="1.1">
  <g id="surface1">
    <path style=" stroke:none;fill-rule:nonzero;fill:rgb(1.176471%,0.392157%,1.568627%);fill-opacity:1;" d="M 11.808594 2.808594 C 11.109375 2.808594 10.4375 2.933594 9.808594 3.148438 C 10.558594 3.613281 11.210938 4.214844 11.730469 4.921875 C 11.757812 4.921875 11.78125 4.917969 11.808594 4.917969 C 14.058594 4.917969 15.890625 6.75 15.890625 9 C 15.890625 11.253906 14.058594 13.082031 11.808594 13.082031 C 9.558594 13.082031 7.726562 11.25 7.726562 9 C 7.726562 8.089844 8.027344 7.253906 8.535156 6.574219 C 8.019531 6.078125 7.347656 5.753906 6.601562 5.660156 C 5.984375 6.625 5.621094 7.769531 5.621094 9 C 5.621094 12.417969 8.390625 15.191406 11.808594 15.191406 C 15.230469 15.191406 18 12.417969 18 9 C 18 5.582031 15.226562 2.808594 11.808594 2.808594 Z M 11.808594 2.808594 "/>
    <path style=" stroke:none;fill-rule:nonzero;fill:rgb(1.176471%,0.392157%,1.568627%);fill-opacity:1;" d="M 6.191406 15.191406 C 6.890625 15.191406 7.5625 15.066406 8.1875 14.855469 C 7.441406 14.390625 6.789062 13.785156 6.265625 13.078125 C 6.238281 13.078125 6.214844 13.082031 6.191406 13.082031 C 3.9375 13.082031 2.105469 11.25 2.105469 9 C 2.105469 6.75 3.9375 4.917969 6.191406 4.917969 C 8.441406 4.917969 10.273438 6.75 10.273438 9 C 10.273438 9.910156 9.96875 10.746094 9.464844 11.425781 C 9.980469 11.921875 10.652344 12.246094 11.398438 12.339844 C 12.015625 11.375 12.378906 10.230469 12.378906 9 C 12.378906 5.582031 9.609375 2.808594 6.191406 2.808594 C 2.769531 2.808594 0 5.582031 0 9 C 0 12.417969 2.769531 15.191406 6.191406 15.191406 Z M 6.191406 15.191406 "/>
  </g>
</svg>