<?xml version="1.0" encoding="UTF-8" standalone="yes"?>
<svg xmlns="http://www.w3.org/2000/svg" xmlns:xlink="http://www.w3.org/1999/xlink" width="24px" height="24px" viewBox="0 0 18 18" version="1.1">
  <g id="surface1">
    <path style=" stroke:none;fill-rule:nonzero;fill:rgb(0%,0%,0%);fill-opacity:1;" d="M 7.261719 10.445312 L 8.167969 17.921875 C 8.171875 17.964844 8.210938 18.003906 8.257812 18.003906 L 8.65625 18.003906 C 8.699219 18.003906 8.742188 17.964844 8.75 17.921875 L 9.175781 15.183594 C 9.183594 15.140625 9.222656 15.085938 9.257812 15.0625 L 9.613281 14.859375 C 9.652344 14.835938 9.695312 14.777344 9.703125 14.738281 L 10.449219 10.449219 L 7.261719 10.449219 Z M 7.261719 10.445312 "/>
    <path style=" stroke:none;fill-rule:nonzero;fill:rgb(0%,0%,0%);fill-opacity:1;" d="M 6.140625 4.53125 L 6.488281 8.640625 C 6.488281 8.652344 6.488281 8.660156 6.488281 8.671875 C 7.144531 8.046875 7.609375 7.199219 7.742188 6.304688 C 7.753906 6.238281 7.761719 6.171875 7.769531 6.109375 C 7.855469 5.210938 7.65625 4.308594 7.203125 3.542969 C 7.097656 3.367188 6.980469 3.195312 6.847656 3.035156 C 6.414062 3.414062 6.140625 3.941406 6.140625 4.53125 Z M 6.140625 4.53125 "/>
    <path style=" stroke:none;fill-rule:nonzero;fill:rgb(0%,0%,0%);fill-opacity:1;" d="M 8.992188 0 C 8.003906 0 7.199219 0.933594 7.199219 2.085938 C 7.199219 2.085938 7.191406 2.8125 7.199219 2.824219 C 7.953125 3.78125 8.3125 5.015625 8.160156 6.234375 C 8.144531 6.359375 8.121094 6.488281 8.09375 6.613281 C 7.914062 7.441406 7.496094 8.203125 6.914062 8.808594 L 11.351562 8.808594 C 11.367188 8.753906 11.378906 8.695312 11.390625 8.640625 L 11.851562 4.53125 C 11.851562 3.714844 11.511719 3.011719 10.863281 2.664062 L 9.992188 2.671875 L 9.988281 2.671875 C 9.808594 2.671875 9.652344 2.578125 9.566406 2.433594 C 9.519531 2.363281 9.496094 2.277344 9.496094 2.1875 L 9.484375 0.28125 C 9.484375 0.214844 9.496094 0.148438 9.519531 0.0898438 C 9.351562 0.03125 9.175781 0 8.992188 0 Z M 8.761719 0.636719 C 9.023438 0.636719 9.023438 1.046875 8.761719 1.046875 C 8.496094 1.046875 8.496094 0.636719 8.761719 0.636719 Z M 8.761719 0.636719 "/>
    <path style=" stroke:none;fill-rule:nonzero;fill:rgb(0%,0%,0%);fill-opacity:1;" d="M 9.988281 2.265625 L 10.785156 2.257812 L 11.796875 2.246094 C 11.78125 0.839844 10.371094 0.191406 9.984375 0.191406 C 9.984375 0.191406 9.980469 0.191406 9.976562 0.191406 C 9.925781 0.191406 9.890625 0.234375 9.890625 0.277344 L 9.890625 0.28125 L 9.898438 2.1875 C 9.902344 2.226562 9.941406 2.265625 9.988281 2.265625 Z M 9.988281 2.265625 "/>
    <path style=" stroke:none;fill-rule:nonzero;fill:rgb(0%,0%,0%);fill-opacity:1;" d="M 3.171875 9.21875 C 2.722656 9.21875 2.722656 10.035156 3.171875 10.035156 L 14.832031 10.035156 C 15.28125 10.035156 15.28125 9.21875 14.832031 9.21875 Z M 3.171875 9.21875 "/>
  </g>
</svg>