<?xml version="1.0" encoding="UTF-8" standalone="yes"?>
<svg xmlns="http://www.w3.org/2000/svg" xmlns:xlink="http://www.w3.org/1999/xlink" width="24px" height="24px" viewBox="0 0 18 18" version="1.1">
  <g id="surface1">
    <path style=" stroke:none;fill-rule:nonzero;fill:rgb(0%,0%,0%);fill-opacity:1;" d="M 0.558594 11.902344 C 0.714844 11.714844 0.878906 11.539062 1.023438 11.34375 C 1.210938 11.09375 1.355469 10.820312 1.464844 10.53125 C 1.578125 10.242188 1.703125 9.964844 1.820312 9.679688 C 1.871094 9.558594 1.910156 9.429688 1.953125 9.304688 C 1.980469 9.222656 2.03125 9.171875 2.125 9.128906 C 2.125 9.175781 2.125 9.214844 2.125 9.253906 C 2.117188 9.851562 2.109375 10.445312 2.105469 11.042969 C 2.105469 11.332031 2.1875 11.605469 2.25 11.886719 C 2.269531 11.976562 2.296875 12.070312 2.320312 12.160156 C 2.367188 12.328125 2.339844 12.492188 2.289062 12.65625 C 2.21875 12.898438 2.15625 13.144531 2.089844 13.386719 C 2.046875 13.550781 1.996094 13.710938 1.960938 13.875 C 1.882812 14.253906 1.898438 14.636719 1.953125 15.015625 C 1.980469 15.214844 2.011719 15.414062 1.949219 15.617188 C 1.925781 15.695312 1.90625 15.78125 1.910156 15.859375 C 1.914062 16.011719 2.015625 16.105469 2.164062 16.121094 C 2.304688 16.136719 2.445312 16.148438 2.585938 16.15625 C 2.773438 16.164062 2.957031 16.175781 3.144531 16.167969 C 3.367188 16.160156 3.585938 16.128906 3.808594 16.109375 C 3.871094 16.105469 3.882812 16.070312 3.875 16.023438 C 3.867188 15.953125 3.851562 15.882812 3.839844 15.808594 C 3.851562 15.804688 3.863281 15.796875 3.875 15.792969 C 3.972656 15.757812 4.015625 15.660156 3.960938 15.570312 C 3.902344 15.480469 3.832031 15.402344 3.761719 15.324219 C 3.699219 15.253906 3.617188 15.195312 3.558594 15.121094 C 3.472656 15.007812 3.394531 14.882812 3.324219 14.761719 C 3.261719 14.652344 3.277344 14.53125 3.308594 14.417969 C 3.363281 14.234375 3.410156 14.046875 3.496094 13.878906 C 3.582031 13.703125 3.691406 13.53125 3.820312 13.382812 C 3.984375 13.195312 4.175781 13.035156 4.351562 12.859375 C 4.53125 12.679688 4.65625 12.472656 4.714844 12.222656 C 4.734375 12.125 4.765625 12.03125 4.796875 11.933594 C 4.804688 11.917969 4.839844 11.898438 4.859375 11.902344 C 5.09375 11.914062 5.324219 11.941406 5.558594 11.949219 C 5.710938 11.957031 5.863281 11.941406 6.015625 11.933594 C 6.054688 11.933594 6.09375 11.933594 6.128906 11.933594 C 6.4375 11.921875 6.742188 11.921875 7.046875 11.894531 C 7.25 11.875 7.4375 11.789062 7.617188 11.695312 C 7.75 11.625 7.878906 11.5625 8.015625 11.496094 C 8.105469 11.585938 8.152344 11.699219 8.179688 11.816406 C 8.269531 12.1875 8.296875 12.570312 8.320312 12.949219 C 8.332031 13.148438 8.351562 13.351562 8.351562 13.550781 C 8.351562 13.773438 8.328125 13.996094 8.320312 14.21875 C 8.316406 14.339844 8.339844 14.460938 8.332031 14.578125 C 8.316406 14.78125 8.289062 14.980469 8.257812 15.179688 C 8.25 15.242188 8.207031 15.304688 8.179688 15.363281 C 8.105469 15.53125 8.121094 15.679688 8.238281 15.789062 C 8.257812 15.808594 8.296875 15.828125 8.328125 15.828125 C 8.652344 15.816406 8.980469 15.796875 9.308594 15.78125 C 9.515625 15.773438 9.726562 15.773438 9.9375 15.773438 C 9.964844 15.773438 10 15.785156 10.019531 15.800781 C 10.09375 15.875 10.1875 15.875 10.277344 15.875 C 10.539062 15.878906 10.800781 15.878906 11.058594 15.878906 C 11.167969 15.878906 11.277344 15.882812 11.382812 15.875 C 11.457031 15.867188 11.523438 15.84375 11.59375 15.824219 C 11.632812 15.8125 11.671875 15.792969 11.710938 15.785156 C 11.875 15.753906 11.878906 15.714844 11.84375 15.546875 C 11.835938 15.488281 11.78125 15.441406 11.746094 15.390625 C 11.710938 15.34375 11.679688 15.296875 11.640625 15.25 C 11.628906 15.234375 11.605469 15.230469 11.589844 15.21875 C 11.46875 15.089844 11.324219 14.972656 11.253906 14.804688 C 11.238281 14.761719 11.226562 14.714844 11.222656 14.671875 C 11.1875 14.351562 11.140625 14.035156 11.121094 13.71875 C 11.109375 13.476562 11.132812 13.234375 11.132812 12.992188 C 11.136719 12.789062 11.132812 12.585938 11.136719 12.386719 C 11.144531 12.144531 11.148438 11.902344 11.175781 11.667969 C 11.222656 11.289062 11.21875 10.910156 11.199219 10.53125 C 11.179688 10.210938 11.136719 9.894531 11.109375 9.574219 C 11.109375 9.550781 11.132812 9.515625 11.152344 9.5 C 11.398438 9.355469 11.644531 9.210938 11.894531 9.066406 C 12.171875 8.910156 12.449219 8.753906 12.757812 8.582031 C 12.808594 8.640625 12.871094 8.714844 12.933594 8.785156 C 12.992188 8.847656 13.054688 8.902344 13.113281 8.964844 C 13.1875 9.042969 13.261719 9.121094 13.328125 9.203125 C 13.394531 9.289062 13.449219 9.316406 13.5 9.28125 C 13.558594 9.242188 13.578125 9.128906 13.53125 9.058594 C 13.515625 9.03125 13.496094 9.007812 13.472656 8.984375 C 13.300781 8.808594 13.21875 8.582031 13.128906 8.363281 C 13.117188 8.34375 13.109375 8.324219 13.09375 8.289062 C 13.199219 8.238281 13.300781 8.1875 13.40625 8.144531 C 13.480469 8.109375 13.554688 8.082031 13.628906 8.054688 C 13.769531 8.011719 13.875 7.917969 13.96875 7.808594 C 14.023438 7.742188 14.101562 7.703125 14.175781 7.753906 C 14.359375 7.878906 14.570312 7.882812 14.773438 7.917969 C 14.785156 7.921875 14.796875 7.921875 14.808594 7.925781 C 14.847656 7.941406 14.894531 7.960938 14.921875 7.910156 C 14.9375 7.878906 14.929688 7.84375 14.933594 7.785156 C 14.972656 7.730469 15.054688 7.753906 15.128906 7.742188 C 15.210938 7.734375 15.292969 7.726562 15.371094 7.730469 C 15.429688 7.730469 15.488281 7.75 15.546875 7.765625 C 15.894531 7.875 16.253906 7.910156 16.609375 7.851562 C 16.851562 7.8125 17.101562 7.769531 17.308594 7.617188 C 17.445312 7.515625 17.570312 7.40625 17.605469 7.226562 C 17.609375 7.1875 17.605469 7.148438 17.589844 7.097656 C 17.234375 7.429688 16.804688 7.425781 16.347656 7.417969 C 16.464844 7.300781 16.652344 7.265625 16.640625 7.046875 C 16.484375 7.105469 16.339844 7.160156 16.191406 7.210938 C 16.03125 7.265625 15.871094 7.3125 15.691406 7.234375 C 15.785156 7.199219 15.875 7.152344 15.96875 7.136719 C 16.296875 7.085938 16.53125 6.90625 16.71875 6.636719 C 16.835938 6.464844 16.925781 6.285156 16.984375 6.085938 C 17.046875 5.875 17.046875 5.660156 17.035156 5.445312 C 17.023438 5.179688 16.914062 4.945312 16.828125 4.703125 C 16.742188 4.453125 16.695312 4.191406 16.726562 3.929688 C 16.761719 3.65625 16.851562 3.394531 17 3.160156 C 17.0625 3.054688 17.121094 2.941406 17.195312 2.839844 C 17.335938 2.648438 17.519531 2.515625 17.75 2.445312 C 17.816406 2.425781 17.878906 2.402344 17.941406 2.382812 C 18 2.363281 17.992188 2.308594 17.976562 2.28125 C 17.917969 2.175781 17.9375 2.066406 17.933594 1.953125 C 17.933594 1.84375 17.863281 1.78125 17.777344 1.84375 C 17.636719 1.945312 17.476562 1.957031 17.324219 2.015625 C 17.027344 2.128906 16.761719 2.300781 16.535156 2.523438 C 16.296875 2.757812 16.089844 3.007812 15.964844 3.328125 C 15.863281 3.59375 15.734375 3.851562 15.6875 4.132812 C 15.632812 4.449219 15.640625 4.769531 15.703125 5.089844 C 15.734375 5.246094 15.738281 5.40625 15.742188 5.5625 C 15.742188 5.605469 15.714844 5.652344 15.6875 5.6875 C 15.609375 5.789062 15.523438 5.886719 15.457031 5.96875 C 15.320312 5.921875 15.195312 5.871094 15.070312 5.835938 C 14.941406 5.796875 14.824219 5.742188 14.714844 5.65625 C 14.632812 5.589844 14.535156 5.539062 14.445312 5.476562 C 14.289062 5.367188 14.136719 5.253906 13.980469 5.148438 C 13.871094 5.074219 13.757812 5.003906 13.640625 4.941406 C 13.449219 4.835938 13.253906 4.738281 13.058594 4.644531 C 12.878906 4.558594 12.679688 4.570312 12.488281 4.585938 C 12.21875 4.609375 11.964844 4.6875 11.734375 4.824219 C 11.523438 4.949219 11.320312 5.078125 11.113281 5.203125 C 11 5.269531 10.875 5.289062 10.746094 5.285156 C 10.671875 5.285156 10.597656 5.277344 10.527344 5.285156 C 10.410156 5.300781 10.324219 5.226562 10.230469 5.1875 C 10.003906 5.097656 9.777344 5.039062 9.535156 5.015625 C 9.34375 5 9.152344 4.96875 8.960938 4.949219 C 8.648438 4.917969 8.339844 4.921875 8.042969 5.046875 C 7.871094 5.121094 7.707031 5.210938 7.535156 5.28125 C 7.488281 5.300781 7.425781 5.292969 7.375 5.285156 C 7.175781 5.238281 6.980469 5.1875 6.78125 5.144531 C 6.605469 5.101562 6.425781 5.070312 6.25 5.027344 C 5.933594 4.945312 5.632812 5.039062 5.335938 5.128906 C 5.117188 5.191406 4.90625 5.269531 4.699219 5.355469 C 4.550781 5.414062 4.40625 5.488281 4.269531 5.574219 C 4.050781 5.710938 3.824219 5.84375 3.621094 6.003906 C 3.40625 6.179688 3.203125 6.378906 3.011719 6.582031 C 2.839844 6.765625 2.6875 6.960938 2.535156 7.160156 C 2.417969 7.308594 2.304688 7.464844 2.214844 7.628906 C 2.09375 7.839844 1.984375 8.058594 1.886719 8.285156 C 1.832031 8.414062 1.8125 8.554688 1.777344 8.691406 C 1.738281 8.835938 1.710938 8.984375 1.667969 9.128906 C 1.601562 9.347656 1.53125 9.566406 1.460938 9.785156 C 1.398438 9.960938 1.335938 10.132812 1.265625 10.304688 C 1.207031 10.449219 1.136719 10.59375 1.070312 10.734375 C 0.976562 10.933594 0.890625 11.132812 0.785156 11.320312 C 0.695312 11.480469 0.589844 11.628906 0.472656 11.769531 C 0.410156 11.839844 0.300781 11.871094 0.226562 11.933594 C 0.109375 12.023438 0.0234375 12.144531 0 12.324219 C 0.0820312 12.285156 0.152344 12.261719 0.21875 12.222656 C 0.355469 12.144531 0.457031 12.019531 0.558594 11.902344 Z M 9.523438 14.613281 C 9.566406 14.527344 9.589844 14.429688 9.605469 14.332031 C 9.652344 14.066406 9.6875 13.796875 9.722656 13.527344 C 9.75 13.300781 9.777344 13.074219 9.808594 12.851562 C 9.8125 12.851562 9.816406 12.851562 9.824219 12.851562 C 9.859375 13.007812 9.898438 13.160156 9.9375 13.316406 C 9.996094 13.578125 10.011719 13.84375 9.976562 14.113281 C 9.957031 14.269531 9.933594 14.433594 10.003906 14.582031 C 10.089844 14.757812 10.070312 14.933594 10.035156 15.113281 C 10.015625 15.222656 9.984375 15.324219 9.949219 15.457031 C 9.90625 15.402344 9.878906 15.371094 9.851562 15.339844 C 9.769531 15.230469 9.691406 15.121094 9.605469 15.015625 C 9.511719 14.894531 9.441406 14.777344 9.523438 14.613281 Z M 9.523438 14.613281 "/>
  </g>
</svg>