<?xml version="1.0" encoding="UTF-8" standalone="yes"?>
<svg xmlns="http://www.w3.org/2000/svg" xmlns:xlink="http://www.w3.org/1999/xlink" width="24px" height="24px" viewBox="0 0 18 18" version="1.1">
  <g id="surface1">
    <path style=" stroke:none;fill-rule:nonzero;fill:rgb(0%,0%,0%);fill-opacity:1;" d="M 18 10.085938 L 15.875 14.511719 C 15.609375 15.027344 15.078125 15.351562 14.5 15.351562 L 1.96875 15.351562 C 1.738281 15.351562 1.589844 15.109375 1.691406 14.902344 L 1.699219 14.890625 C 1.867188 14.554688 1.769531 14.144531 1.460938 13.925781 L 1.445312 13.914062 C 0.730469 13.402344 0.308594 12.582031 0.308594 11.707031 L 0.308594 10.703125 L 11.464844 10.703125 L 11.464844 10.699219 C 11.464844 10.359375 11.738281 10.085938 12.078125 10.085938 Z M 10.84375 6.367188 L 8.675781 6.367188 C 8.503906 6.367188 8.367188 6.503906 8.367188 6.675781 L 8.367188 10.085938 C 8.367188 10.253906 8.503906 10.394531 8.675781 10.394531 L 10.84375 10.394531 C 11.015625 10.394531 11.152344 10.253906 11.152344 10.085938 L 11.152344 6.675781 C 11.152344 6.503906 11.015625 6.367188 10.84375 6.367188 Z M 14.5625 7.605469 L 12.082031 7.605469 C 11.914062 7.605469 11.773438 7.746094 11.773438 7.914062 L 11.773438 9.15625 C 11.773438 9.324219 11.914062 9.464844 12.082031 9.464844 L 14.5625 9.464844 C 14.734375 9.464844 14.871094 9.324219 14.871094 9.15625 L 14.871094 7.914062 C 14.871094 7.746094 14.734375 7.605469 14.5625 7.605469 Z M 4.957031 10.394531 L 7.4375 10.394531 C 7.605469 10.394531 7.746094 10.253906 7.746094 10.085938 L 7.746094 7.605469 C 7.746094 7.433594 7.605469 7.296875 7.4375 7.296875 L 4.957031 7.296875 C 4.785156 7.296875 4.648438 7.433594 4.648438 7.605469 L 4.648438 10.085938 C 4.648438 10.253906 4.785156 10.394531 4.957031 10.394531 Z M 4.796875 5.746094 L 4.027344 6.367188 L 4.027344 10.394531 L 0.929688 10.394531 L 0.929688 6.367188 L 0 6.367188 L 0 5.746094 L 2.167969 5.746094 L 2.167969 4.847656 L 1.367188 4.847656 L 1.367188 4.488281 L 2.167969 4.488281 L 2.167969 2.648438 L 2.480469 2.648438 L 2.480469 4.488281 L 3.28125 4.488281 L 3.28125 4.847656 L 2.480469 4.847656 L 2.480469 5.746094 Z M 3.46875 8.296875 L 2.460938 8.296875 L 2.460938 9.222656 L 3.46875 9.222656 Z M 3.46875 6.8125 L 2.460938 6.8125 L 2.460938 7.738281 L 3.46875 7.738281 Z M 3.46875 6.8125 "/>
  </g>
</svg>