<?xml version="1.0" encoding="UTF-8" standalone="no"?>
<!-- Generator: Adobe Illustrator 15.1.0, SVG Export Plug-In . SVG Version: 6.00 Build 0)  -->

<svg
   xmlns:dc="http://purl.org/dc/elements/1.1/"
   xmlns:cc="http://creativecommons.org/ns#"
   xmlns:rdf="http://www.w3.org/1999/02/22-rdf-syntax-ns#"
   xmlns:svg="http://www.w3.org/2000/svg"
   xmlns="http://www.w3.org/2000/svg"
   xmlns:sodipodi="http://sodipodi.sourceforge.net/DTD/sodipodi-0.dtd"
   xmlns:inkscape="http://www.inkscape.org/namespaces/inkscape"
   version="1.1"
   id="Layer_1"
   x="0px"
   y="0px"
   width="24"
   height="24"
   viewBox="0 0 24 24"
   enable-background="new 0 0 500 500"
   xml:space="preserve"
   inkscape:version="0.48.5 r10040"
   sodipodi:docname="refah.svg"><metadata
     id="metadata3517"><rdf:RDF><cc:Work
         rdf:about=""><dc:format>image/svg+xml</dc:format><dc:type
           rdf:resource="http://purl.org/dc/dcmitype/StillImage" /><dc:title></dc:title></cc:Work></rdf:RDF></metadata><defs
     id="defs3515" /><sodipodi:namedview
     pagecolor="#ffffff"
     bordercolor="#666666"
     borderopacity="1"
     objecttolerance="10"
     gridtolerance="10"
     guidetolerance="10"
     inkscape:pageopacity="0"
     inkscape:pageshadow="2"
     inkscape:window-width="657"
     inkscape:window-height="480"
     id="namedview3513"
     showgrid="false"
     inkscape:zoom="3.776"
     inkscape:cx="13.181278"
     inkscape:cy="16.770077"
     inkscape:window-x="0"
     inkscape:window-y="27"
     inkscape:window-maximized="0"
     inkscape:current-layer="Layer_1" /><path
     clip-rule="evenodd"
     d="m 6.4547286,2.4772008 c 2.1519654,0 4.3039914,0 6.4559564,0 2.356241,1.9827096 2.760226,8.1593542 0.243621,10.2929872 -1.818692,-0.107559 -4.0255934,-0.0913 -5.8469035,0 C 9.1625152,12.064844 10.992292,9.8844976 10.657191,7.1059998 10.384518,4.8453187 8.2881596,3.213789 6.4547286,2.4772008 z M 2.8613187,5.4006529 c -0.939037,1.1732177 -1.89403151,2.8726574 -1.88806221,4.8724201 0.00645,2.181443 1.03624141,4.175115 2.19258891,5.298756 6.0971027,0.03874 12.2241706,-0.07766 18.0888596,0.0609 2.334376,-2.114935 2.411421,-8.2658769 -0.0609,-10.2929869 -2.030216,0.040567 -4.222745,-0.081186 -6.151431,0.060903 2.207998,0.8488365 4.338586,2.9215644 3.897936,5.9687149 -0.261101,1.805474 -1.526651,2.84872 -2.862547,3.71522 -2.679831,0 -5.359661,0 -8.0394927,0 C 6.7603535,14.180261 5.4682489,13.115089 5.2366259,11.308457 4.8113852,7.9915579 7.1224352,6.3497345 9.2563724,5.3397427 7.4001631,5.4440735 4.9951366,5.3859057 2.8613211,5.4006456 z M 14.676937,18.860713 c -0.02808,-2.307639 -3.067675,-3.359838 -4.567893,-1.827158 -1.5167843,1.549551 -0.5110564,4.907624 2.497114,4.446084 1.259095,-0.387297 2.086676,-1.314336 2.070779,-2.618926 z"
     id="path3511"
     inkscape:connector-curvature="0"
     style="fill-rule:evenodd" /></svg>