<?xml version="1.0" encoding="UTF-8" standalone="no"?>
<!-- Generator: Adobe Illustrator 15.1.0, SVG Export Plug-In . SVG Version: 6.00 Build 0)  -->

<svg
   xmlns:dc="http://purl.org/dc/elements/1.1/"
   xmlns:cc="http://creativecommons.org/ns#"
   xmlns:rdf="http://www.w3.org/1999/02/22-rdf-syntax-ns#"
   xmlns:svg="http://www.w3.org/2000/svg"
   xmlns="http://www.w3.org/2000/svg"
   xmlns:sodipodi="http://sodipodi.sourceforge.net/DTD/sodipodi-0.dtd"
   xmlns:inkscape="http://www.inkscape.org/namespaces/inkscape"
   version="1.1"
   id="Layer_1"
   x="0px"
   y="0px"
   width="24"
   height="24"
   viewBox="0 0 24 24"
   enable-background="new 0 0 500 500"
   xml:space="preserve"
   inkscape:version="0.48.5 r10040"
   sodipodi:docname="sepah.svg"><metadata
     id="metadata3622"><rdf:RDF><cc:Work
         rdf:about=""><dc:format>image/svg+xml</dc:format><dc:type
           rdf:resource="http://purl.org/dc/dcmitype/StillImage" /><dc:title></dc:title></cc:Work></rdf:RDF></metadata><defs
     id="defs3620" /><sodipodi:namedview
     pagecolor="#ffffff"
     bordercolor="#666666"
     borderopacity="1"
     objecttolerance="10"
     gridtolerance="10"
     guidetolerance="10"
     inkscape:pageopacity="0"
     inkscape:pageshadow="2"
     inkscape:window-width="657"
     inkscape:window-height="480"
     id="namedview3618"
     showgrid="false"
     inkscape:zoom="2.6700352"
     inkscape:cx="24.691373"
     inkscape:cy="7.4273874"
     inkscape:window-x="0"
     inkscape:window-y="27"
     inkscape:window-maximized="0"
     inkscape:current-layer="Layer_1" /><path
     clip-rule="evenodd"
     d="m 10.427568,4.9036818 c 0.252802,0.086105 0.219142,0.458726 0.48163,0.5351443 0.393332,0.036552 0.669734,-0.043772 0.802717,-0.2675721 0.502287,0.5051231 1.102772,0.1136117 1.444889,-0.2675722 0.378937,0.8609403 -0.817058,1.363976 -1.284346,0.7492021 -0.465897,0.6351096 -1.801135,0.1969867 -1.44489,-0.7492021 z m 4.976842,8.0806802 c -0.09472,0.143259 -0.474352,0.429935 -0.267572,0.535144 2.143949,-0.897704 2.729398,-4.4032215 1.123803,-6.2611894 C 15.674658,6.580182 14.871406,6.1564011 13.906006,6.0274849 15.840018,6.9680547 16.97934,10.721451 15.40441,12.984362 z M 9.5713372,6.0274849 C 7.9992976,6.5956477 6.6085643,7.7676671 6.5745294,9.8805242 6.5470739,11.585923 7.5218947,13.040605 8.8221351,13.519506 7.3193967,12.003924 7.2994891,8.0955511 9.0361928,6.8302011 9.0771299,6.4711733 9.840033,6.2885285 9.6248516,6.0274849 c -0.017818,0 -0.03569,0 -0.053514,0 z M 3.7917786,12.288675 c -0.057955,-0.387981 0.042382,-0.93431 -0.1605433,-1.177318 0.03045,0.415486 0.041048,0.850879 0.1605433,1.177318 z m 5.2979286,7.438506 C 8.8890819,20.168729 8.0470325,19.968852 8.072933,20.636926 8.4991221,20.617176 8.8040474,20.476115 8.9826784,20.20881 10.203557,20.26757 11.00226,20.009095 11.6584,19.513123 c 0.463703,-0.350466 0.978405,-0.781632 1.230833,-1.284347 -0.928369,0.587963 -1.971098,1.810448 -3.7995258,1.498405 z m 5.5655008,0.05351 c -0.832898,0.151767 -1.803489,-0.01359 -2.087063,-0.588659 -0.1873,0.04458 -0.217696,0.246113 -0.214057,0.48163 0.348111,0.548684 1.589111,0.575066 2.354635,0.374601 -0.08675,0.105638 -0.17237,0.389532 -0.05351,0.535144 0.276938,0.0094 0.48757,-0.04758 0.48163,-0.321086 0.03831,-0.145345 -0.252374,0.03832 -0.214058,-0.107029 0.03158,-0.806783 0.833648,-0.843173 1.284347,-1.230832 -0.790944,0.01177 -1.058248,0.547185 -1.551919,0.856231 z M 13.531406,19.40609 c 0.270087,0.06363 0.433305,-0.169801 0.321086,-0.321087 -0.23236,-0.01831 -0.280791,0.147326 -0.321086,0.321087 z m 2.033547,0.374601 c 0.05378,-0.106761 0.236641,-0.08445 0.214059,-0.267572 -0.04169,-0.01183 -0.06223,-0.04479 -0.05351,-0.107029 -0.341422,-0.0092 -0.465736,0.270194 -0.160544,0.374601 z m 0.10703,1.230832 c 0.258154,-0.04511 0.382093,-0.224386 0.481629,-0.428116 -0.08005,-0.0091 -0.197468,0.01911 -0.214057,-0.05351 -0.109759,-0.440691 0.49549,-0.704035 0.267572,-0.909745 -0.277419,0.317394 -0.866131,0.813312 -0.535144,1.391375 z M 8.7686206,20.743955 c -0.044842,0.115698 -0.1385489,0.182538 -0.1070288,0.374601 0.1934545,0.02066 0.3004834,0.127686 0.3210866,0.321086 0.071335,0 0.1427232,0 0.2140577,0 -0.00118,-0.126026 0.092206,-0.157545 0.053514,-0.321086 -0.036608,-0.106119 -0.3188386,0.03339 -0.2675722,-0.160543 0.062131,0.0449 0.1434724,0.07058 0.2675722,0.05351 0.031361,-0.111364 0.1124873,-0.172959 0.1605433,-0.267572 -0.2375503,-0.391832 -0.3758317,0.158617 -0.6421733,0 z m 6.4217324,0.535144 c -0.0083,0.13309 0.08407,0.16568 0.107029,0.267572 0.125116,-0.01761 0.221121,-0.06433 0.321086,-0.107029 0,-0.07134 0,-0.142722 0,-0.214057 -0.153693,-0.147325 -0.284108,0.03035 -0.428115,0.05351 z M 9.4643083,6.7231729 c -1.797764,1.7775883 -0.9960107,5.5565111 0.6421727,6.7428191 0.28748,0.17633 0.557567,0.369999 0.802717,0.588659 -0.401198,0.312363 -1.2914636,0.135551 -1.8730052,0.267572 0.7023775,0.280843 1.6405922,0.372728 2.5151792,0.214058 0.134963,0.239637 0.198484,0.550717 0.48163,0.642173 0.207689,-0.149092 0.198752,-0.514756 0.481629,-0.588659 0.951274,-0.01199 2.022043,0.09552 2.515179,-0.374601 -0.77018,-0.01471 -1.63888,0.06908 -2.087063,-0.267572 1.1999,-0.830598 2.450425,-2.167924 2.461663,-4.174126 0.008,-1.4250901 -0.664328,-2.5046368 -1.337861,-3.2643814 -0.189494,-0.2137364 -0.414522,-0.5729788 -0.588658,-0.4816297 0.365771,0.8587998 1.017256,1.5282654 1.123803,2.5686935 0.208706,2.0378296 -1.062422,3.6384456 -2.087063,4.4416986 0,-2.194092 0,-4.3881845 0,-6.5822765 C 12.300199,6.2419172 12.061525,6.0524764 11.765429,5.9204561 11.577379,6.1248276 11.24741,6.1872792 11.123256,6.4556005 11.214016,8.6838339 11.267852,10.948887 11.337314,13.19842 10.253754,12.253408 9.1826622,10.639788 9.3572794,8.5426634 9.441886,7.5265851 9.9358239,6.7626135 10.21351,6.0274849 9.9828098,6.2784142 9.7138999,6.4911342 9.4643083,6.7231729 z M 17.491474,18.924464 c 0.474886,-0.06025 0.895938,-0.17435 1.284346,-0.321087 0.25307,-0.08583 0.187996,-0.48987 0.48163,-0.535144 0.703554,-0.09702 0.908246,0.304765 1.123803,0.695688 -0.651752,1.363922 -1.18192,2.849484 -2.033549,4.013582 -0.861903,0.498755 -2.910008,0.857569 -3.103837,-0.48163 -1.593339,-0.78709 -4.508055,-0.767022 -6.0471309,0.05351 C 8.9874948,23.44092 7.1323637,23.556833 6.1464139,22.88453 5.716853,22.591593 5.2876673,21.48898 5.0226107,21.011525 4.6769071,20.388725 3.9630783,19.597567 3.9523219,19.085005 3.9389455,18.448612 5.1236453,17.679128 5.3436973,18.65689 5.8047776,18.74883 6.1180507,18.988466 6.6280431,19.031491 4.100717,17.21762 2.2449973,14.704635 1.9722877,11.164869 1.7375732,8.1179177 3.0979637,5.4237866 4.7550385,3.7263623 6.6260099,1.8098499 9.2529801,0.47734038 12.942747,0.72955455 17.83236,1.0637518 21.701239,5.0930145 22.0402,10.148095 c 0.01964,0.293419 0.01755,0.566183 0,0.856231 -0.232145,3.829707 -2.061215,6.033592 -4.548726,7.920136 z m -0.374602,-0.374601 c 2.633072,-1.878089 4.638311,-4.55151 4.334669,-8.7228529 C 21.276389,7.4201982 20.132731,5.4578776 18.722306,4.0474508 17.174722,2.4998669 14.787014,1.2615966 11.979486,1.2647007 6.7589933,1.2703989 2.3055219,5.5744322 2.5609465,11.004328 2.73626,14.731073 4.6423906,17.13462 7.3772452,18.710406 7.0093875,18.06149 6.0356387,18.018464 5.7718128,17.265516 4.9870768,16.944323 4.747118,16.078245 4.1663797,15.553055 c 0.018999,-0.141546 0.2727096,-0.04838 0.3210866,-0.160543 -0.7399981,-0.52653 -0.9731067,-1.559893 -1.3913754,-2.40815 0.089208,0 0.1783634,0 0.2675722,0 C 2.951923,12.373067 2.665995,10.921808 3.0425765,10.041067 2.7937875,9.2192997 3.3138942,8.53287 3.3636631,7.6864322 3.4553867,7.5353613 3.5740816,7.7063391 3.5777209,7.525889 3.6813245,6.5948986 4.1248523,6.0038318 4.701524,5.545855 5.0070379,4.8345945 5.523987,4.33477 6.039385,3.8333931 6.2264173,3.8960593 6.1423466,4.2298814 6.3069572,4.315023 6.5318248,4.0517321 6.853393,3.6216903 7.3237308,3.7798786 7.2840796,4.2040346 6.949612,4.3333254 6.8421009,4.689624 7.0038756,4.7062671 7.2582828,4.6302235 7.2702164,4.7966529 6.1829101,5.5467111 5.8007103,7.001822 4.8620673,7.9004905 4.550988,9.2115938 4.3101731,10.705022 4.5409807,12.449218 c 0.2851248,0.710189 0.4846264,1.373179 0.8027166,1.980034 0.3065305,0.584698 0.7028049,1.219326 1.1238032,1.712462 0.2664478,0.312042 0.643618,0.440905 0.9632592,0.695687 0.4751548,0.378721 0.6549101,0.913438 1.0702887,1.337861 1.7735756,-0.700129 4.4930726,-0.780722 6.5822756,-0.321087 0.829313,-1.121716 2.258791,-1.312387 2.729236,-2.78275 0.09461,0.04698 0.156209,0.16964 0.267573,0.05351 0.585447,-1.212102 1.402345,-2.717249 1.284346,-4.281155 0.0059,-0.101089 0.176919,-0.03714 0.160543,-0.160544 C 19.473547,9.6656107 19.185954,8.5796954 19.096906,7.9004905 18.275888,6.2473758 17.184889,4.9524868 15.832526,3.9404219 15.911781,3.8413136 16.109142,3.8602572 16.100098,3.6728497 15.966526,3.5210295 15.7895,3.4126094 15.779012,3.1377053 c 0.202338,-0.021299 0.459475,0.1791668 0.588658,0.053514 -0.08782,0.00878 -0.08782,-0.3298625 0,-0.3210866 0.292617,0.076045 0.467663,0.4626862 0.695688,0.1605433 0.595509,0.5283482 1.076442,1.1711636 1.712462,1.6589476 0.279666,0.7192879 0.85987,1.1379847 1.070289,1.92652 0.365718,0.1159124 0.277204,0.6860547 0.588659,0.8562312 0.01578,0.9118318 0.446952,1.408232 0.374601,2.4081493 0.02173,0.1031222 0.207474,0.04228 0.160543,0.2140579 -0.03554,1.024267 -0.204907,1.793858 -0.267573,2.782751 -0.296095,0.994297 -0.954002,1.891843 -1.230831,2.729236 -0.319535,0.522087 -0.97193,0.925478 -1.123804,1.444889 -0.192705,0.128382 -0.303748,0.338427 -0.588659,0.374602 -0.05116,0.09964 0.160277,0.178845 0,0.214057 -0.479489,0.162685 -0.634735,0.649613 -1.070288,0.856231 0.149305,0.121907 0.264307,-0.05394 0.428115,0.05351 z M 2.6679754,8.8102357 C 3.2395633,5.8628209 5.2730577,3.3583459 7.965904,2.120931 c 3.180471,-1.46147917 6.956716,-0.9386964 9.418541,0.7492021 2.284585,1.5664214 4.183651,4.0555922 4.174126,7.8131079 -0.0091,3.603555 -2.063518,6.397597 -4.388184,7.866622 -0.01177,0.06727 -0.08338,0.109384 0.05351,0.107028 2.301334,-1.661837 4.206715,-3.773141 4.441697,-7.277963 C 21.91305,7.6885197 20.444882,5.4518306 18.615277,3.6728497 16.973936,2.0769958 14.708669,1.0650379 12.033002,1.050643 9.3373726,1.0361404 7.049951,2.0879128 5.3972118,3.6193353 3.8668593,5.0373609 2.5386311,7.0970242 2.3468888,9.773496 c -0.3067452,4.282225 1.6537031,6.651791 3.9065539,8.508795 0.2704616,0.1241 0.6427083,0.649773 0.9097448,0.428115 C 4.1846278,17.048515 1.8075702,13.246797 2.6679754,8.8102357 z M 18.347704,5.9739706 c -0.16948,-0.044578 -0.272013,-0.1561016 -0.3746,-0.2675723 0.151606,0.00893 0.222994,0.098092 0.3746,0.107029 -0.04859,-0.2735658 -0.46916,-0.4570131 -0.749202,-0.3210867 0.183662,0.1917959 0.443207,0.5902648 0.749202,0.48163 z M 16.4747,3.0306765 C 16.4373,3.5826785 16.73419,3.1917556 16.902815,3.458792 16.884725,3.1914874 16.697426,3.0933956 16.4747,3.0306765 z M 19.73908,14.64331 c -0.207476,0.114734 -0.659887,0.266233 -0.535145,0.535144 0.0052,-0.07385 0.208867,-0.208813 0.214059,-0.107029 -0.02183,0.09023 -0.252161,0.240494 -0.10703,0.321087 0.182057,-0.175581 0.496347,-0.501378 0.428116,-0.749202 z M 16.4747,3.7263641 c -0.07872,-0.102373 -0.419876,-0.2187129 -0.321088,-0.3210865 0.176063,0.07369 0.359083,0.1403688 0.535145,0.2140577 -0.07241,-0.3021957 -0.458833,-0.2903692 -0.749202,-0.374601 0.01193,0.2925101 0.337408,0.5529116 0.535145,0.4816298 z m 0.749202,0.053514 c 0.06962,-0.1328758 -0.157013,-0.2220846 0,-0.2675722 0.08011,0.080379 0.09574,0.2253493 0.214057,0.2675722 0.108688,-0.2202653 -0.208974,-0.4169303 -0.374601,-0.5351443 -0.0086,0.2404403 0.0434,0.4204097 0.160544,0.5351443 z m -0.10703,0.5351444 c -0.0074,-0.1887987 -0.153105,-0.2393161 -0.160543,-0.4281155 0.08311,0.012258 0.249698,0.2057099 0.321087,0.053514 -0.152785,-0.1147882 -0.269713,-0.2654312 -0.588659,-0.2140578 -0.01343,0.3523392 0.209348,0.4685192 0.428115,0.5886589 z m 0.588659,0 c 0.02927,-0.077756 -0.06256,-0.2765622 0.05351,-0.2675722 0.07647,0.052604 0.171835,0.3576371 0.267573,0.2140578 -0.116822,-0.1686237 -0.233751,-0.337034 -0.374601,-0.48163 -0.06931,0.096058 -0.120782,0.5170033 0.05351,0.5351444 z M 16.046584,3.8869071 c -0.0048,0.1858023 0.2878,0.3508409 0.428116,0.2140578 -0.09964,-0.00739 -0.178846,-0.035211 -0.214059,-0.1070289 0.09526,-0.029596 0.222246,-0.027504 0.267573,-0.1070289 -0.151339,-0.065932 -0.330292,-0.065932 -0.48163,0 z M 6.7885864,4.4755662 C 6.9960086,4.3619018 7.0764407,4.1212474 7.1631875,3.8869074 6.9612245,3.9186436 6.568107,4.0385678 6.6815576,4.2079941 6.7239953,4.1550703 6.9331289,4.0041042 6.9491297,4.1009652 6.9041209,4.2022681 6.6911368,4.4089411 6.7885864,4.4755662 z M 4.9155818,5.545855 C 5.2057904,4.9951379 6.1467884,4.8182192 6.039385,4.0474508 5.6029744,4.4496117 4.9846155,4.9546278 4.9155818,5.545855 z M 16.528214,4.3685374 c 0.254461,0.155834 0.361061,0.459475 0.802716,0.4281155 -0.01135,-0.2205863 -0.333074,-0.1307355 -0.374601,-0.3210867 0.06299,-0.0084 0.151927,0.0092 0.160543,-0.053514 -0.08947,-0.1085271 -0.488479,-0.2886569 -0.588658,-0.053514 z m 1.498404,0.4281155 C 17.992048,4.4566226 17.681556,4.3925122 17.384445,4.315023 c 0.01691,0.2149681 0.0967,0.3671093 0.267572,0.4281155 0.07064,-0.1339466 -0.211543,-0.1675 -0.05351,-0.2140578 0.157439,0.074492 0.182002,0.2818073 0.428116,0.2675722 z m 0.107029,0.053514 c 0.225242,0.08252 0.0085,-0.2768832 0.160543,-0.2675722 0.09777,0.1341071 0.111363,0.3524462 0.267572,0.4281155 -0.05902,-0.3156282 -0.134534,-0.614667 -0.428115,-0.6956877 0,0.1783641 0,0.356781 0,0.5351444 z M 5.183154,5.7599128 C 5.6192963,5.5895762 5.671152,5.0348995 6.1464139,4.9036818 5.8921129,5.3093749 5.4355279,5.5127832 5.3436973,6.0809994 5.972117,5.74616 6.368659,5.179442 6.5745294,4.4220519 5.8567931,4.5785821 5.2869718,5.1678295 5.183154,5.7599128 z M 6.0928994,5.8669416 C 6.3774355,5.5093046 6.725761,5.2154574 6.9491297,4.7966529 6.340564,4.7949156 6.1603272,5.5057196 6.0928994,5.8669416 z M 17.116872,4.9036818 c 0.07797,0.2252421 0.22626,0.3802735 0.535145,0.374601 0.02066,-0.19902 -0.257726,-0.099055 -0.267572,-0.2675721 0.137103,-0.05801 0.255156,0.1625772 0.321086,0 -0.148075,-0.1938292 -0.256655,-0.097129 -0.588659,-0.1070289 z m 1.391375,0.4281155 C 18.361082,5.1578757 18.243779,4.9540928 17.919589,4.9571962 c 0.04961,0.2358381 0.144222,0.4265638 0.321087,0.5351444 0.06657,-0.1956484 -0.242742,-0.2866764 -0.107029,-0.3746011 0.123297,0.040298 0.251303,0.3511086 0.3746,0.2140578 z m 0.535145,0.2140577 c -0.134107,-0.187033 -0.103711,-0.5384618 -0.3746,-0.5886588 -0.061,0.3477368 0.263023,0.5914419 0.3746,0.5886588 z m -0.321086,0.5351444 c 0.01397,-0.1566901 -0.120997,-0.1643959 -0.107029,-0.3210866 0.121798,0.00728 0.207314,0.3221568 0.321086,0.1605433 -0.122441,-0.127311 -0.1949,-0.3045507 -0.428116,-0.3210866 -0.0048,0.2366942 0.07754,0.3862135 0.214059,0.4816299 z m 0.481629,0.1605433 c -0.0083,-0.4017328 0.108367,-0.069032 0.214059,0 -0.0388,-0.2466479 -0.06651,-0.5042664 -0.267573,-0.5886588 -0.05924,0.1545498 -0.111685,0.5099931 0.05351,0.5886588 z M 3.7917786,7.4723749 C 4.0886229,7.001929 4.6268714,6.4882975 4.5409807,5.8134273 4.1308993,6.1706363 3.7521775,6.8437943 3.7917786,7.4723749 z M 4.1128652,7.7934614 C 4.3770123,7.3972936 4.5398564,6.6154485 4.8620673,6.4556005 4.8398583,7.12908 4.2899445,7.2748527 4.326923,8.0075196 4.893748,7.5932644 5.0179548,6.7363911 5.2366684,5.9739706 5.2248412,5.9322833 5.191875,5.911735 5.1296395,5.9204561 4.712548,6.4008021 3.856103,6.994063 4.1128652,7.7934614 z M 18.829335,6.4020864 C 18.745745,6.234265 18.381578,6.0671931 18.187161,6.1880283 c 0.136408,0.1503216 0.332806,0.5217123 0.535145,0.4281154 -0.08969,-0.07396 -0.355283,-0.2471293 -0.267573,-0.3210866 0.09702,0.068337 0.311668,0.3261169 0.374602,0.1070293 z m 0.3746,0.4816297 c 0.03458,-0.212988 -0.141599,-0.2151276 -0.107029,-0.4281156 0.154443,0.023918 0.126508,0.2302723 0.267573,0.2675724 -0.04902,-0.2720675 -0.256709,-0.3854651 -0.428116,-0.5351446 -0.0093,0.3303985 0.07546,0.5666643 0.267572,0.6956878 z M 4.8620673,7.579404 C 5.3741466,7.3957962 5.4372402,6.7632017 5.7182984,6.3485714 5.0352934,6.3612563 5.1030963,7.124745 4.8620673,7.579404 z M 19.525022,7.0442593 c 0.225243,0.082522 0.0085,-0.2768836 0.160543,-0.2675723 0.09242,0.032434 -0.0041,0.2538199 0.107029,0.2675723 -0.01317,-0.3079213 -0.07229,-0.5698752 -0.267572,-0.6956879 0,0.2318786 0,0.4638103 0,0.6956879 z M 19.25745,7.3653458 c -0.07027,-0.1437932 -0.235891,-0.19217 -0.321087,-0.3210865 0.09322,-0.004 0.166431,0.011931 0.214058,0.053513 -0.05239,-0.233055 -0.264308,-0.3064769 -0.535144,-0.3210865 0.04094,0.3345197 0.381344,0.6521273 0.642173,0.5886588 z m 0.642173,0.1605432 c 0.257404,-0.1689983 0.04929,0.1673929 0.267573,0.1605432 0.01199,-0.315253 -0.02868,-0.5777951 -0.214059,-0.695687 0.01777,0.2140043 -0.09536,0.2970586 -0.05351,0.5351438 z m -0.321086,0.1070291 c -0.03174,-0.1930262 -0.09033,-0.3588676 0,-0.5351447 -0.101196,0.011987 -0.118053,-0.060307 -0.214058,-0.053513 0.08118,0.1863905 0.02633,0.5088153 0.214058,0.5886588 z m 0,0.5351447 C 19.557617,7.9214146 19.295499,7.9159563 19.25745,7.6864322 c 0.07914,0.027883 0.134909,0.079153 0.214058,0.1070292 -0.06154,-0.188157 -0.159794,-0.339656 -0.428116,-0.3210865 0.07011,0.3401911 0.194846,0.6257439 0.535145,0.6956879 z M 3.2566342,10.255126 C 3.0652129,9.118265 3.7077608,8.815427 3.6847497,7.8469755 3.6163571,7.8440904 3.6106317,7.7783669 3.5242064,7.7934623 3.4250438,8.5572208 2.8265382,9.4719433 3.2566342,10.255127 z M 20.113681,8.275091 c 0.09322,-0.004 0.16643,0.011931 0.214058,0.053513 -0.0076,-0.2064054 0.04179,-0.4699108 -0.107029,-0.5351447 -0.01353,0.1826986 -0.135285,0.2571368 -0.107029,0.4816297 z m -0.267572,0.2140583 c -0.04083,-0.2648427 -0.05764,-0.3423856 0.05351,-0.5351447 -0.106333,-6.952e-4 -0.06801,-0.1460407 -0.214058,-0.1070291 0.02065,0.2469693 -0.03323,0.5683768 0.160544,0.6421738 z M 3.4171776,10.30864 C 3.7510538,9.8576206 3.5642349,8.8859052 4.0058364,8.5426634 3.9515712,9.1483933 3.7914576,9.6483255 3.7382642,10.255126 4.2743717,9.9682346 4.3149887,8.623203 4.1128652,7.9540046 3.5377988,8.3957134 3.3755432,9.2502312 3.4171776,10.30864 z M 4.2734085,9.9875533 C 4.4707698,9.5067799 4.647528,8.720973 4.6480096,8.2215769 4.1837182,8.4354202 4.2562299,9.470497 4.2734085,9.9875533 z M 19.578537,8.4891493 c 0.05367,-0.249913 -0.09333,-0.2991461 -0.321087,-0.2675724 -0.0128,0.2090271 0.198806,0.1936684 0.321087,0.2675724 z m 0.695688,0.5886588 c 0.202176,-0.2367479 0.197949,0.090814 0.267571,0.053513 -0.05127,-0.1627908 0.114628,-0.5427427 -0.107028,-0.5351438 -0.10992,0.1041394 -0.08348,0.3446322 -0.160543,0.4816297 z m -0.642174,0.2675723 c 0.01397,-0.1566902 -0.120997,-0.1643971 -0.107029,-0.3210873 0.126187,0.016538 0.09954,0.1858563 0.267572,0.1605441 0.0122,-0.2797203 -0.233484,-0.3016607 -0.428115,-0.3746015 0.09087,0.1767042 0.01493,0.5202141 0.267572,0.5351447 z m 0.321086,0.2140574 c 0.09793,-0.1161264 -0.01006,-0.4381761 0.10703,-0.5351447 0.100232,0.096005 0.06395,0.3284722 0.214058,0.3746014 0.0011,-0.3043903 -0.139299,-0.4672341 -0.321088,-0.5886588 -0.02462,0.1914748 -0.131645,0.5791335 0,0.7492021 z m 0.428116,0.3746014 c 0.07128,0.1312168 0.16156,-0.096433 0.214058,0.053513 0.01199,0.041526 0.0015,0.1055838 0.05351,0.1070288 0.01815,-0.1804507 0.135338,-0.5393724 0,-0.6956876 -0.155406,0.1121664 -0.231396,0.3037482 -0.267572,0.5351447 z m -0.321086,0.2675718 c 0.02927,-0.2026058 0.174135,-0.2896732 0.160543,-0.5351441 -0.08434,-0.00484 -0.0419,-0.1364623 -0.160543,-0.1070291 0.07513,0.2561735 -0.154336,0.4843052 0,0.6421732 z M 19.846109,9.8805242 c 0.01911,-0.1975213 -0.13309,-0.2236366 -0.267572,-0.2675723 -0.03248,0.2109005 0.119711,0.2370158 0.267572,0.2675723 z M 19.73908,10.790269 c 0.04709,-0.18928 -0.137425,-0.275706 0.05351,-0.321086 0.02253,0.10232 0.01938,0.230326 0.160543,0.214058 0.0151,-0.300537 -0.132073,-0.438765 -0.3746,-0.48163 0.11452,0.135231 -0.0427,0.542155 0.160543,0.588658 z m 0.749202,0 c -0.0091,-0.133945 0.0822,-0.1675 0.160543,-0.214057 0.03077,0.09408 -0.0647,0.314398 0.05351,0.321087 0.0107,-0.170337 0.13946,-0.499129 0,-0.642173 -0.06571,0.150428 -0.413613,0.297218 -0.214057,0.535143 z M 3.4171776,12.770304 C 2.9944135,12.057171 3.7498767,10.72632 2.9890621,10.415669 c 0.020708,0.906909 0.027025,1.828107 0.4281155,2.354635 z m 0.3210866,0.160544 c 0.097931,-0.116127 -0.010118,-0.438177 0.1070288,-0.535145 -0.00786,0.132716 -0.00995,0.259705 0.1070289,0.267572 0.2015885,-0.685359 0.05373,-1.798031 -0.3210866,-2.247606 -0.2326812,0.785432 -0.4021074,1.897943 0.1070289,2.515179 z m 0.48163,-0.160544 c 0.3566731,-0.532415 0.1718882,-1.679336 0,-2.301121 -0.4702315,0.683166 0.1497868,1.614263 0,2.301121 z M 20.381253,11.164871 c -0.03901,-0.282128 -0.0096,-0.632594 -0.267572,-0.695688 -0.03008,0.22947 0.135713,0.478526 0.267572,0.695688 z m -0.695688,0.428116 c 0.02927,-0.07776 -0.06256,-0.276563 0.05351,-0.267573 0.125866,0.01686 0.03178,0.253658 0.214058,0.214059 -0.0048,-0.351912 -0.181254,-0.532309 -0.428116,-0.642174 0.07867,0.172744 0.05394,0.728813 0.160543,0.695688 z m 0.642174,0 c 0.217482,0.0213 0.164663,-0.227758 0.321086,-0.267573 0.101838,0.140957 -0.120247,0.315521 -0.160543,0.48163 0.228506,-0.0229 0.335054,-0.447701 0.214057,-0.642173 -0.167446,0.100126 -0.318143,0.217001 -0.3746,0.428116 z m -0.107029,0.481629 c 0.06095,-0.194846 0.13614,-0.69863 -0.107029,-0.749202 -0.132984,0.266878 0.05651,0.505979 0.107029,0.749202 z m -0.695688,0.374602 c 0.07048,-0.165895 -0.158617,-0.296846 0,-0.374602 0.207368,-0.02901 0.04629,0.310491 0.214058,0.321087 0.128434,-0.224546 -0.02066,-0.567948 -0.214058,-0.642173 -0.02092,0.161292 -0.263184,0.598826 0,0.695688 z m 0.749203,0 c -0.01632,-0.141172 0.111737,-0.138014 0.214057,-0.160543 0.02499,0.137103 -0.189281,0.303372 -0.05351,0.3746 0.08321,-0.202177 0.170336,-0.400502 0.214057,-0.642173 -0.256013,-0.02232 -0.490674,0.256067 -0.3746,0.428116 z m -0.535145,0.48163 c 0.114841,-0.13491 0.106225,-0.393225 0.374601,-0.374601 -0.01654,-0.125118 -0.104782,-0.221123 0,-0.321087 -0.30225,0.01991 -0.43748,0.48864 -0.374601,0.695688 z m -0.374601,0.321086 c 0.05603,-0.151393 -0.0883,-0.367109 0,-0.374601 0.123404,-0.01637 0.05946,0.154603 0.160543,0.160544 0.07444,-0.140744 0.0027,-0.515719 -0.267572,-0.48163 0.02248,0.245096 -0.06893,0.604071 0.107029,0.695687 z m 0.588658,-0.374601 c 0.162363,0.01964 0.111097,-0.17435 0.160544,-0.267572 -0.167179,-0.0245 -0.171085,0.11436 -0.160544,0.267572 z M 5.1296395,14.429252 C 4.9227525,13.851242 4.772805,13.216347 4.4339519,12.770304 4.282024,13.461443 4.8658664,14.154723 5.1296395,14.429252 z m -0.9632598,0.107029 c 0.133465,0.254996 0.360473,0.549539 0.5351443,0.481629 -0.1808789,-0.497255 -0.6204999,-1.020145 -0.5351443,-1.605433 0.2539792,0.513044 0.36652,1.167578 0.7492021,1.551919 -0.080004,-0.954644 -0.5019656,-1.567278 -1.0167743,-2.087063 -0.012418,0.681399 0.05694,1.256518 0.2675722,1.658948 z M 20.006652,13.412477 c 0.06881,-0.09173 0.110614,-0.210472 0.267573,-0.214057 -8.34e-4,0.159687 -0.139138,0.181949 -0.160544,0.321086 0.304657,-0.03425 0.232199,-0.445614 0.374601,-0.642173 -0.279453,0.02505 -0.586358,0.303963 -0.48163,0.535144 z M 4.1128652,14.803853 C 3.8432056,14.252976 4.0408344,13.23481 3.3101487,13.144906 c 0.2120237,0.608512 0.4432602,1.197866 0.8027165,1.658947 z M 19.364479,14.001136 c 0.149197,-0.100554 0.07358,-0.425868 0.321086,-0.428116 0.02927,0.07776 -0.06256,0.276616 0.05351,0.267573 0.03645,-0.213255 0.116608,-0.382843 0.107029,-0.642173 -0.341957,0.05132 -0.541995,0.527277 -0.48163,0.802716 z m -0.321087,-0.160543 c 0.248521,0.102213 0.384554,-0.497042 0.05351,-0.588659 0.0213,0.202338 -0.179166,0.459475 -0.05351,0.588659 z m 0.588659,0.428115 c 0.09964,0.05116 0.178845,-0.160275 0.214058,0 0.001,0.08006 -0.198807,0.218875 -0.05351,0.267573 0.15669,-0.217911 0.271104,-0.478099 0.374601,-0.749202 -0.30257,0.03639 -0.448558,0.229309 -0.535144,0.481629 z m -1.070289,0.428116 c 0.03521,-0.07182 0.114413,-0.09964 0.214058,-0.107029 -0.03356,-0.162631 0.0685,-0.46092 -0.05351,-0.535144 -0.01161,0.222084 -0.303642,0.443152 -0.160544,0.642173 z m 0.428116,0.05351 c 0.08439,-0.129666 0.191421,-0.236695 0.321086,-0.321086 0.0091,0.08005 -0.01911,0.197468 0.05351,0.214058 0.01354,-0.182699 0.135285,-0.257137 0.107029,-0.481631 -0.27897,0.04324 -0.543547,0.382575 -0.48163,0.588659 z M 6.1464139,16.302256 C 6.1311119,15.792798 5.7970176,15.20719 5.3972118,14.910881 c -0.056246,0.769751 0.4560498,0.97102 0.7492021,1.391375 z M 18.615277,15.392512 c 0.01819,-0.110882 0.202712,-0.326706 0.267572,-0.214058 -0.05218,0.09413 -0.245043,0.32098 -0.107029,0.428115 0.08552,-0.183555 0.344526,-0.474085 0.214058,-0.695687 -0.138014,0.113343 -0.508815,0.273886 -0.374601,0.48163 z m -0.588659,0.160543 c 0.212613,0.05207 0.02199,-0.299092 0.214058,-0.267572 0.03077,0.09408 -0.0647,0.314397 0.05351,0.321086 0.0899,-0.15396 0.149894,-0.397024 0.05351,-0.588659 -0.205602,0.07979 -0.234393,0.336446 -0.321086,0.535145 z M 6.1464139,17.051458 C 5.9128766,16.571435 5.4835305,16.287326 5.2366684,15.820627 5.7149802,15.993746 5.9593809,16.94047 6.3604716,16.837401 5.9766658,16.186612 5.4973903,15.631292 4.8620673,15.231969 c 0.153051,0.881542 0.6246201,1.444568 1.2843466,1.819489 z M 17.705531,15.927657 c 0.206673,-0.0074 0.219249,-0.208867 0.214058,-0.428116 -0.217804,-0.0037 -0.23038,0.197735 -0.214058,0.428116 z M 6.039385,17.158487 C 5.3067723,16.785118 5.1787122,15.807195 4.326923,15.553055 c 0.5545161,0.480238 0.8424239,1.51205 1.5519187,1.658947 -0.078666,-0.10232 -0.4198747,-0.218766 -0.3210866,-0.321087 0.1690516,0.0807 0.2102044,0.2893 0.4816299,0.267572 z m 12.522377,-1.177316 c 0.09526,0.032 0.222246,-0.156852 0.267573,0 -0.111096,0.03162 -0.182431,0.102961 -0.214058,0.214057 0.350358,-0.09563 0.484412,-0.407513 0.695687,-0.642173 -0.370909,0.02152 -0.69162,0.09322 -0.749202,0.428116 z m -0.107029,-0.267573 c -0.235302,0.121478 -0.505176,0.208385 -0.588658,0.48163 0.332592,-0.02419 0.45744,-0.256067 0.588658,-0.48163 z m -1.551918,1.123803 c 0.09365,-0.102534 0.06293,-0.329489 0.267572,-0.321086 -0.0449,0.06213 -0.07058,0.143472 -0.05351,0.267572 0.187194,-0.01076 0.338104,-0.562598 0.10703,-0.642173 -0.089,0.215449 -0.483826,0.406495 -0.321087,0.695687 z m 0.535144,-0.160543 c 0.136729,0.05769 0.187301,-0.23038 0.267572,-0.05351 -0.02183,0.09023 -0.252159,0.240494 -0.107029,0.321087 0.192973,-0.128113 0.336231,-0.305942 0.374602,-0.588659 -0.225992,0.05946 -0.40639,0.164396 -0.535145,0.321087 z m 0.642174,-0.107029 c 0.128915,0.02189 0.116339,-0.09772 0.267571,-0.05351 -0.05539,0.14085 -0.212185,0.180236 -0.267571,0.321086 0.295399,-0.06138 0.417733,-0.295774 0.588659,-0.48163 -0.261847,0.0057 -0.533005,0.0021 -0.588659,0.214058 z M 7.7518463,17.42606 C 7.6101939,17.121295 7.1256739,16.696873 6.6815576,16.516315 c 0.010972,0.617609 0.6437791,0.88454 1.0702887,0.909745 z m 8.5087947,-0.160544 c 0.05213,-0.211114 0.152303,-0.157118 0.214059,0 0.04987,-0.128541 0.215073,-0.141652 0.160543,-0.374601 -0.205656,-0.179326 -0.519946,0.209189 -0.374602,0.374601 z m 1.123804,0.160544 c 0.344525,-0.06577 0.700932,-0.119605 0.749202,-0.48163 -0.307173,0.01391 -0.560564,0.08161 -0.749202,0.214057 0.151392,0.05603 0.367109,-0.0883 0.3746,0 -0.109811,0.104247 -0.353409,0.07471 -0.3746,0.267573 z M 16.8493,17.586603 c 0.127044,-0.211917 0.382522,-0.295346 0.428116,-0.588659 -0.397934,-0.04115 -0.53461,0.178953 -0.695688,0.374602 0.225884,0.06223 0.305567,-0.296845 0.428115,-0.160544 -0.04501,0.101303 -0.257993,0.30803 -0.160543,0.374601 z M 8.1799618,18.175262 C 7.7491174,17.642847 7.2169701,17.211681 6.413986,17.051458 6.35774,17.447573 6.8179127,17.609508 6.7885864,17.800661 6.5919214,17.640546 6.3370319,17.538654 6.039385,17.479574 c 0.3476826,0.455033 0.8770475,0.728385 1.4448892,0.96326 0.070639,-0.133947 -0.2115958,-0.167554 -0.053514,-0.214058 0.127846,0.126455 0.4706594,0.345383 0.6421732,0.107029 -0.3330206,-0.256066 -0.9226426,-0.539532 -1.0702891,-0.802716 0.4035528,0.167661 0.7227124,0.703769 1.1773176,0.642173 z m 7.5455362,-0.48163 c 0.08257,-0.143846 0.432396,-0.02713 0.321086,-0.48163 -0.258207,-0.02451 -0.420196,0.326652 -0.321086,0.48163 z m 1.070288,0.05351 c 0.08006,0.0091 0.197468,-0.01911 0.214057,0.05351 -0.03281,0.07422 -0.20603,0.008 -0.214057,0.107029 0.382467,0.0079 0.571962,-0.177294 0.749202,-0.374601 -0.289032,-0.129933 -0.618146,0.02274 -0.749202,0.214057 z m -1.016774,0.321087 c 0.06812,-0.09542 0.306477,-0.295935 0.3746,-0.214058 -0.0214,0.139137 -0.159687,0.161401 -0.160543,0.321087 0.329863,0.02547 0.528883,-0.361436 0.428116,-0.588659 -0.267038,0.07289 -0.799345,0.162578 -0.642173,0.48163 z m -9.3115115,1.605434 c 0.3937588,1.069005 1.0083723,1.917048 1.4984035,2.88978 1.1569292,-0.687232 2.820532,-1.247582 4.548727,-1.230832 1.60843,0.01563 2.896629,0.588338 3.906554,1.177318 0.398736,-0.974766 0.926923,-1.820187 1.33786,-2.782751 C 15.674872,16.926286 8.8111111,17.500495 6.4675005,19.673668 z M 16.36767,18.06823 c 0.131592,0.196613 0.304016,0.01423 0.05351,0.267572 0.331415,0.01033 0.577742,-0.06443 0.642173,-0.321086 -0.29053,-0.04083 -0.414737,0.08476 -0.695687,0.05351 z m 2.943294,0.267572 c -0.380594,1.260533 -0.909317,2.372885 -1.284346,3.638982 0.170443,0.0258 0.223958,0.168464 0.428115,0.160543 0.531024,-1.163564 1.1778,-2.211484 1.551919,-3.531953 -0.144703,-0.176381 -0.374708,-0.267462 -0.695688,-0.267569 z M 4.8085529,18.549863 c -0.2770444,0.0975 -0.4699104,0.279292 -0.5886587,0.535144 0.6478991,0.975355 1.0913734,2.155133 1.7659764,3.103837 C 6.0750254,22.063943 6.2765608,22.05142 6.413986,21.974787 5.8874571,20.824494 5.4231656,19.612072 4.8085529,18.549863 z m 11.9337181,4.388184 c 0.369517,0.0913 0.835735,-0.106869 1.177318,-0.214058 -0.0639,-0.239371 -0.389532,-0.216947 -0.374601,-0.535145 0.369624,-1.057444 0.798703,-2.055382 1.177318,-3.103837 -0.006,-0.06529 -0.01601,-0.126668 -0.107029,-0.107028 -0.682577,1.261763 -1.259142,2.629592 -1.873006,3.960068 z M 6.8956153,22.295873 c -0.088192,0.232895 -0.2887632,0.35341 -0.4816293,0.48163 0.3105978,0.125439 0.7493085,0.381558 1.177317,0.214058 -0.5275984,-1.221253 -1.1680595,-2.791473 -1.9800335,-3.906554 -0.011827,-0.04168 -0.044794,-0.06223 -0.1070289,-0.05351 0.4059064,1.146012 0.9770127,2.126771 1.3913747,3.26438 z M 6.0928994,22.61696 c 0.2283991,-0.07482 0.527331,-0.0792 0.48163,-0.428116 -0.2537124,0.04956 -0.5111168,0.09536 -0.48163,0.428116 z M 18.347704,22.456417 c -0.0296,-0.220158 -0.199502,-0.299949 -0.481629,-0.267573 -0.03853,0.288283 0.218017,0.281433 0.481629,0.267573 z"
     id="path3616"
     inkscape:connector-curvature="0"
     style="fill-rule:evenodd" /></svg>