<?xml version="1.0" encoding="UTF-8" standalone="no"?>
<!-- Generator: Adobe Illustrator 15.1.0, SVG Export Plug-In . SVG Version: 6.00 Build 0)  -->

<svg
   xmlns:dc="http://purl.org/dc/elements/1.1/"
   xmlns:cc="http://creativecommons.org/ns#"
   xmlns:rdf="http://www.w3.org/1999/02/22-rdf-syntax-ns#"
   xmlns:svg="http://www.w3.org/2000/svg"
   xmlns="http://www.w3.org/2000/svg"
   xmlns:sodipodi="http://sodipodi.sourceforge.net/DTD/sodipodi-0.dtd"
   xmlns:inkscape="http://www.inkscape.org/namespaces/inkscape"
   version="1.1"
   id="Layer_1"
   x="0px"
   y="0px"
   width="24"
   height="24"
   viewBox="0 0 24 24"
   enable-background="new 0 0 500 500"
   xml:space="preserve"
   inkscape:version="0.48.5 r10040"
   sodipodi:docname="ansar.svg"><metadata
     id="metadata3037"><rdf:RDF><cc:Work
         rdf:about=""><dc:format>image/svg+xml</dc:format><dc:type
           rdf:resource="http://purl.org/dc/dcmitype/StillImage" /><dc:title></dc:title></cc:Work></rdf:RDF></metadata><defs
     id="defs3035" /><sodipodi:namedview
     pagecolor="#ffffff"
     bordercolor="#666666"
     borderopacity="1"
     objecttolerance="10"
     gridtolerance="10"
     guidetolerance="10"
     inkscape:pageopacity="0"
     inkscape:pageshadow="2"
     inkscape:window-width="657"
     inkscape:window-height="480"
     id="namedview3033"
     showgrid="false"
     inkscape:zoom="5.3400704"
     inkscape:cx="22.739672"
     inkscape:cy="18.248903"
     inkscape:window-x="0"
     inkscape:window-y="27"
     inkscape:window-maximized="0"
     inkscape:current-layer="Layer_1" /><path
     clip-rule="evenodd"
     d="m 11.836674,0.17253063 c 0.0187,0.00655 0.04726,-0.00822 0.06517,0 0.689645,0.3166695 1.238714,1.17347637 1.824801,1.75963127 0.638877,0.6388766 1.314639,1.1607673 1.759631,1.8247986 1.439704,-0.1042072 3.318988,-0.1114429 4.757517,0 0,1.5424154 0,3.084764 0,4.6271777 -2.289342,0.1187426 -4.630042,0.065172 -7.103691,0.065172 -0.756902,0 -1.696023,-0.1879547 -2.281003,-0.065172 C 10.35819,8.4892599 9.3347366,9.765774 8.9691246,10.143768 7.4598864,11.704301 6.1198301,12.995218 4.4722948,14.640602 4.1347717,14.977669 3.7500645,15.481835 3.5598935,15.487832 3.3293819,15.495075 2.7683857,14.825233 2.6474931,14.705773 2.2782314,14.340879 2.1026589,14.169542 1.8002637,13.858544 1.3963305,13.443075 0.27062313,12.618656 0.23614734,12.098914 0.19176185,11.430059 1.6061173,10.475557 1.9957778,10.078597 2.7415356,9.318697 3.2086194,8.885698 3.8205796,8.1234522 3.6807215,7.9901766 3.5944348,7.8647213 3.5598935,7.6672518 3.3609256,6.5304654 3.7527361,4.8698963 3.6250616,3.7569605 c 1.3184843,-0.1201089 3.3906121,-0.09215 4.496833,0 C 9.5011189,2.7031391 10.578534,1.3475066 11.836669,0.17253063 z M 20.243795,17.899177 c 0,-0.716234 -0.121803,-1.774359 0,-2.15066 0.106752,-0.329637 0.582698,-0.713041 0.847229,-0.977573 0.686194,-0.68619 1.164876,-1.150602 1.824803,-1.824801 0.325729,-0.332766 0.884966,-0.601793 0.847231,-0.977572 -0.02022,-0.20099 -0.539815,-0.617044 -0.782058,-0.84723 -0.959391,-0.911879 -1.803623,-1.649425 -2.54169,-2.5416882 -0.04348,0 -0.08688,0 -0.130344,0 -1.728738,1.6665002 -3.558687,3.5254522 -5.409232,5.3440622 -0.512313,0.503516 -1.279512,1.550626 -1.759631,1.69446 -0.211871,0.06354 -0.768241,-0.0057 -1.238258,0 -2.7533647,0.03331 -5.553849,-0.153674 -8.2767792,0 -0.104144,1.439703 -0.1114438,3.318989 0,4.757519 1.5641156,0 3.1282318,0 4.6923475,0 0.5856309,0.578202 1.0839975,1.08126 1.7596307,1.759629 0.293272,0.29451 1.447458,1.716292 1.889973,1.69446 0.437431,-0.02157 1.621141,-1.493339 1.889973,-1.759631 0.431044,-0.427003 1.245427,-1.631828 1.889974,-1.75963 0.702155,-0.139205 1.532049,0.06517 2.215832,0.06517 0.701373,0 1.403986,0.05638 2.280999,-0.06517 0,-0.949549 0,-1.68716 0,-2.411345 z"
     id="path3031"
     inkscape:connector-curvature="0"
     style="fill-rule:evenodd" /></svg>