<?xml version="1.0" encoding="utf-8"?>
<!-- Generator: Adobe Illustrator 15.1.0, SVG Export Plug-In . SVG Version: 6.00 Build 0)  -->
<!DOCTYPE svg PUBLIC "-//W3C//DTD SVG 1.1//EN" "http://www.w3.org/Graphics/SVG/1.1/DTD/svg11.dtd">
<svg version="1.1"
	 id="Layer_1" inkscape:version="0.48.5 r10040" sodipodi:docname="sina.svg" xmlns:inkscape="http://www.inkscape.org/namespaces/inkscape" xmlns:sodipodi="http://sodipodi.sourceforge.net/DTD/sodipodi-0.dtd" xmlns:rdf="http://www.w3.org/1999/02/22-rdf-syntax-ns#" xmlns:dc="http://purl.org/dc/elements/1.1/" xmlns:svg="http://www.w3.org/2000/svg" xmlns:cc="http://creativecommons.org/ns#"
	 xmlns="http://www.w3.org/2000/svg" xmlns:xlink="http://www.w3.org/1999/xlink" x="0px" y="0px" width="24px" height="24px"
	 viewBox="0 0 24 24" enable-background="new 0 0 24 24" xml:space="preserve">
<path d="M16.954,5.16c-3.234,1.57-6.423,3.188-9.671,4.746c0,1.482,0,2.964,0,4.444c1.265,0.939,3.23,1.496,4.326,2.404
	c-1.552,0.91-3.301,1.625-4.866,2.521c-1.469-0.732-2.987-1.418-4.445-2.162c0.044-3.307-0.097-6.43-0.06-9.731
	c2.826-1.46,6.489-3.138,9.311-4.565c0.68-0.344,2.051,0.585,2.944,1.021C15.409,4.286,16.34,4.654,16.954,5.16z M17.194,5.28
	c-1.19,0.66-2.505,1.249-3.724,1.862c-0.374,0.188-0.844,0.359-1.082,0.721c1.394,0.81,2.972,1.434,4.325,2.283
	c0,1.482,0,2.964,0,4.446c-2.785,1.412-5.862,2.803-8.59,4.203c-0.347,0.18-0.869,0.332-1.021,0.723
	c1.234,0.547,2.431,1.201,3.664,1.801c0.348,0.168,1.031,0.549,1.322,0.541c0.464-0.014,1.311-0.654,1.802-0.9
	c1.911-0.961,3.74-1.75,5.467-2.645c0.786-0.434,1.702-0.738,2.402-1.26c0.048-3.053-0.09-6.438-0.061-9.672
	C20.148,6.73,18.8,5.878,17.194,5.28L17.194,5.28z M9.356,9.811c-1.347,1.14-1.521,3.537-0.053,4.886
	c2.193,2.016,6.413,0.752,6.425-2.391c0.01-2.049-2.116-3.625-4.248-3.345C10.586,9.079,9.944,9.314,9.356,9.811z"/>
</svg>
