<?xml version="1.0" encoding="UTF-8" standalone="no"?>
<!-- Generator: Adobe Illustrator 15.1.0, SVG Export Plug-In . SVG Version: 6.00 Build 0)  -->

<svg
   xmlns:dc="http://purl.org/dc/elements/1.1/"
   xmlns:cc="http://creativecommons.org/ns#"
   xmlns:rdf="http://www.w3.org/1999/02/22-rdf-syntax-ns#"
   xmlns:svg="http://www.w3.org/2000/svg"
   xmlns="http://www.w3.org/2000/svg"
   xmlns:sodipodi="http://sodipodi.sourceforge.net/DTD/sodipodi-0.dtd"
   xmlns:inkscape="http://www.inkscape.org/namespaces/inkscape"
   version="1.1"
   id="Layer_1"
   x="0px"
   y="0px"
   width="24"
   height="24"
   viewBox="0 0 24 24"
   enable-background="new 0 0 500 500"
   xml:space="preserve"
   inkscape:version="0.48.5 r10040"
   sodipodi:docname="hekmat-e_iranian.svg"><metadata
     id="metadata3224"><rdf:RDF><cc:Work
         rdf:about=""><dc:format>image/svg+xml</dc:format><dc:type
           rdf:resource="http://purl.org/dc/dcmitype/StillImage" /><dc:title></dc:title></cc:Work></rdf:RDF></metadata><defs
     id="defs3222" /><sodipodi:namedview
     pagecolor="#ffffff"
     bordercolor="#666666"
     borderopacity="1"
     objecttolerance="10"
     gridtolerance="10"
     guidetolerance="10"
     inkscape:pageopacity="0"
     inkscape:pageshadow="2"
     inkscape:window-width="657"
     inkscape:window-height="480"
     id="namedview3220"
     showgrid="false"
     inkscape:zoom="3.776"
     inkscape:cx="12.841179"
     inkscape:cy="8.8719368"
     inkscape:window-x="0"
     inkscape:window-y="27"
     inkscape:window-maximized="0"
     inkscape:current-layer="Layer_1" /><path
     clip-rule="evenodd"
     d="M 12.239166,8.4281538 C 10.042897,8.0166594 8.1002401,6.3229505 8.3084826,4.0061398 8.4863469,2.0272065 11.165433,0.16152481 13.549396,1.4675707 15.060987,2.29572 16.066585,4.7772065 15.105291,6.6265932 14.597577,7.6033693 13.397158,8.0684995 12.239166,8.4281538 z m 5.650353,3.1936812 c 1.351094,-0.08918 2.478135,-1.427332 2.456679,-2.7023442 -0.02684,-1.5997895 -1.536569,-3.1942544 -3.11179,-3.0298999 -3.753639,0.391677 -2.427688,5.9357351 0.655111,5.7322441 z m -11.7101529,0 C 7.8505609,11.787658 9.2106585,10.227673 9.1273754,8.6738254 9.0582637,7.3848054 7.405248,5.7932076 5.8518103,6.0533657 2.3623441,6.6378094 3.4489314,11.350864 6.1793661,11.621835 z M 12.075385,14.8974 c 1.551887,0.05318 2.967751,-1.568094 2.702344,-3.193674 C 14.544181,10.273445 13.071159,8.9293143 11.502163,9.1651561 8.0460308,9.6845839 8.9841552,14.791439 12.075385,14.8974 z m -4.8314607,1.637786 c 0.946965,-0.02646 1.95175,-1.169625 1.8015606,-2.211007 -0.1302839,-0.902995 -1.3273377,-1.979916 -2.211007,-1.883451 -2.7777632,0.303151 -1.4121771,4.145391 0.4094464,4.094458 z m 9.7448177,-0.163781 c 2.713233,-0.08901 1.486696,-4.319405 -0.655118,-3.930677 -2.570006,0.466359 -1.238163,3.992832 0.655118,3.930677 z m -4.913357,3.275572 c 2.594335,-0.07583 1.728031,-4.503414 -0.737003,-3.930684 -2.4307991,0.564708 -1.093543,3.984156 0.737003,3.930684 z m -4.0944583,1.555895 c 1.6507221,0.0121 0.8365803,-2.509987 -0.491337,-2.211007 -1.5806212,0.355886 -0.3771779,2.204617 0.491337,2.211007 z M 17.070627,20.46587 c 0.194896,-1.330703 -2.304524,-2.346868 -2.211008,-0.327556 0.131841,0.913801 2.032822,1.544017 2.211008,0.327556 z m -5.896019,0.327555 c -0.859101,0.740525 0.128072,2.474367 1.310223,2.129117 1.290904,-0.718332 -0.299219,-3.00058 -1.310223,-2.129117 z"
     id="path3218"
     inkscape:connector-curvature="0"
     style="fill-rule:evenodd" /></svg>