<?xml version="1.0" encoding="UTF-8" standalone="no"?>
<!-- Generator: Adobe Illustrator 15.1.0, SVG Export Plug-In . SVG Version: 6.00 Build 0)  -->

<svg
   xmlns:dc="http://purl.org/dc/elements/1.1/"
   xmlns:cc="http://creativecommons.org/ns#"
   xmlns:rdf="http://www.w3.org/1999/02/22-rdf-syntax-ns#"
   xmlns:svg="http://www.w3.org/2000/svg"
   xmlns="http://www.w3.org/2000/svg"
   xmlns:sodipodi="http://sodipodi.sourceforge.net/DTD/sodipodi-0.dtd"
   xmlns:inkscape="http://www.inkscape.org/namespaces/inkscape"
   version="1.1"
   id="Layer_1"
   x="0px"
   y="0px"
   width="24"
   height="24"
   viewBox="0 0 24 24"
   enable-background="new 0 0 500 500"
   xml:space="preserve"
   inkscape:version="0.48.5 r10040"
   sodipodi:docname="resalat.svg"><metadata
     id="metadata3528"><rdf:RDF><cc:Work
         rdf:about=""><dc:format>image/svg+xml</dc:format><dc:type
           rdf:resource="http://purl.org/dc/dcmitype/StillImage" /><dc:title></dc:title></cc:Work></rdf:RDF></metadata><defs
     id="defs3526" /><sodipodi:namedview
     pagecolor="#ffffff"
     bordercolor="#666666"
     borderopacity="1"
     objecttolerance="10"
     gridtolerance="10"
     guidetolerance="10"
     inkscape:pageopacity="0"
     inkscape:pageshadow="2"
     inkscape:window-width="657"
     inkscape:window-height="480"
     id="namedview3524"
     showgrid="false"
     inkscape:zoom="2.6700352"
     inkscape:cx="28.104323"
     inkscape:cy="10.374936"
     inkscape:window-x="0"
     inkscape:window-y="27"
     inkscape:window-maximized="0"
     inkscape:current-layer="Layer_1" /><g
     id="g3520"
     transform="matrix(0.08756757,0,0,0.08756757,-9.3197725,-8.2163097)"><path
       clip-rule="evenodd"
       d="m 275,108 c 1.075,5.409 -2.711,5.956 -2,11 17.947,26.385 45.178,43.489 63,70 0,7.333 0,14.667 0,22 -4.879,14.368 -26.925,21.403 -46,15 -44.122,25.545 -62.863,76.47 -116,93 4.388,10.324 14.899,5.219 20,3 24.334,-10.586 49.189,-42.114 70,-62 7.559,-7.223 14.941,-16.873 22,-21 16.511,-9.654 45.959,-8.448 52,15 -23.376,4.402 -36.404,20.896 -52,36 -11.144,10.792 -21.742,21.49 -30,33 13.302,3.024 24.281,-13.281 33,-22 13.695,-13.695 25.242,-28.187 44,-37 20.092,-0.426 33.729,5.604 36,23 -2.202,2.646 -4.295,1.601 -8,1 -4.553,5.266 -11.386,6.2 -17,11 -10.799,9.232 -21.136,22.825 -32,33 -8.779,8.222 -19.209,18.926 -34,21 -15.776,2.213 -29.778,-3.646 -36,-16 -19.943,9.929 -35.635,19.48 -60,16 -12.987,-1.855 -23.233,-11.23 -29,-20 -2.022,-3.076 -1.999,-7.918 -5,-11 -5.052,-5.188 -14.53,-6.427 -20,-12 -6.525,-6.648 -7.437,-14.1 -10,-24 -0.73,-4.73 4.746,-3.254 5,-7 3.96,-31.373 16.43,-54.237 42,-64 3.682,-13.309 11.824,-24.522 26,-25 30.056,-1.012 27.537,44.295 -1,46 -4.933,18.182 -27.783,36.184 -47,22 -2.253,-2.08 -1.438,-7.229 -4,-9 -11.421,11.427 -9.821,38.791 7,41 7.745,1.017 15.005,-2.555 21,-6 25.686,-14.763 51.466,-50.541 76,-72 12.376,-10.826 27.191,-16.404 46,-12 -6.04,-11.717 -36.623,-29.442 -45,-49 -7.33,-17.113 10.136,-41.113 31,-43 z"
       id="path3522"
       inkscape:connector-curvature="0"
       style="fill-rule:evenodd" /></g></svg>