<?xml version="1.0" encoding="UTF-8" standalone="no"?>
<!-- Generator: Adobe Illustrator 15.1.0, SVG Export Plug-In . SVG Version: 6.00 Build 0)  -->

<svg
   xmlns:dc="http://purl.org/dc/elements/1.1/"
   xmlns:cc="http://creativecommons.org/ns#"
   xmlns:rdf="http://www.w3.org/1999/02/22-rdf-syntax-ns#"
   xmlns:svg="http://www.w3.org/2000/svg"
   xmlns="http://www.w3.org/2000/svg"
   xmlns:sodipodi="http://sodipodi.sourceforge.net/DTD/sodipodi-0.dtd"
   xmlns:inkscape="http://www.inkscape.org/namespaces/inkscape"
   version="1.1"
   id="Layer_1"
   x="0px"
   y="0px"
   width="24"
   height="24"
   viewBox="0 0 24 24"
   enable-background="new 0 0 500 500"
   xml:space="preserve"
   inkscape:version="0.48.5 r10040"
   sodipodi:docname="tejarat.svg"><metadata
     id="metadata3649"><rdf:RDF><cc:Work
         rdf:about=""><dc:format>image/svg+xml</dc:format><dc:type
           rdf:resource="http://purl.org/dc/dcmitype/StillImage" /><dc:title></dc:title></cc:Work></rdf:RDF></metadata><defs
     id="defs3647" /><sodipodi:namedview
     pagecolor="#ffffff"
     bordercolor="#666666"
     borderopacity="1"
     objecttolerance="10"
     gridtolerance="10"
     guidetolerance="10"
     inkscape:pageopacity="0"
     inkscape:pageshadow="2"
     inkscape:window-width="657"
     inkscape:window-height="480"
     id="namedview3645"
     showgrid="false"
     inkscape:zoom="7.552"
     inkscape:cx="14.254822"
     inkscape:cy="9.9131878"
     inkscape:window-x="0"
     inkscape:window-y="27"
     inkscape:window-maximized="0"
     inkscape:current-layer="Layer_1" /><path
     clip-rule="evenodd"
     d="m 15.79592,13.742915 c -0.03755,0.342426 -0.246038,0.513923 -0.379981,0.759961 -1.007518,-0.153575 -1.217838,-1.104287 -1.583252,-1.899903 0.0798,-0.236855 0.0052,-0.628044 0.37998,-0.569971 0.284542,-1.008278 -0.883708,-1.147731 -0.56997,-1.773242 C 13.451503,9.986554 13.142325,9.8312685 12.882735,9.6264592 12.736696,9.6070802 12.812375,9.8094198 12.692745,9.8164494 12.487682,9.7048617 12.083889,9.7920054 12.122774,9.4364686 11.239446,9.2708606 11.061995,9.8111296 10.602852,10.06977 10.363908,9.8654035 10.104951,9.6810497 10.032881,9.3098084 c 2.333651,-1.4250537 5.042912,0.090626 4.876417,2.8498536 -0.0494,0.818732 0.06073,1.354441 0.886622,1.583253 z M 7.8796581,9.753119 c 1.2456395,0.1617451 0.8137284,1.329679 0.9499512,2.406543 0.2770693,2.190335 3.0055197,3.348516 4.8764167,2.026563 -0.129826,-0.313483 -0.306707,-0.579913 -0.56997,-0.759961 -0.444704,0.294105 -0.638685,0.839061 -1.519922,0.696632 -0.09918,-0.417029 -0.704485,-0.456801 -1.013282,-0.316651 -0.202846,-0.219376 -0.472443,-0.371938 -0.633301,-0.633301 0.236665,-0.223555 -0.075743,-0.689031 -0.3799807,-0.759961 -0.1296366,-0.208103 -0.034196,-0.641281 -0.06333,-0.949952 0.084419,0 0.1689013,0 0.2533204,0 C 9.9252833,10.38775 9.3342232,9.239259 8.2596383,8.993158 8.2001713,9.3136718 7.9775662,9.4710469 7.879658,9.753119 z M 18.519115,21.975827 c 0.08569,0.01989 0.120959,0.09018 0.253319,0.06333 0.05523,-0.203036 -0.09747,-0.198097 -0.189992,-0.25332 0.0027,0.08721 -0.02984,0.139072 -0.06333,0.18999 z m -3.229836,0.759961 c 0.591059,0 1.182183,0 1.773241,0 0.01507,-0.268393 -0.005,-0.501638 -0.189989,-0.569971 -0.12552,0.161809 0.06567,0.291192 -0.06333,0.379981 -0.550085,0.135463 -0.59125,-0.530136 -1.076612,-0.253321 -0.05408,0.245025 0.410633,-0.09284 0.379981,0.253321 -0.232232,0 -0.4644,0 -0.696631,0 0.0022,-0.276626 0.02337,-0.572187 -0.12666,-0.696631 -0.139263,0.217729 -0.04097,0.64812 0,0.886621 z m 3.926467,0 c 0.2511,-0.02337 0.606889,0.05807 0.759959,-0.06333 -0.04503,-0.18714 -0.01743,-0.447047 -0.189988,-0.50664 -0.104559,0.140846 0.01347,0.343439 -0.06333,0.37998 -0.131156,-0.03768 -0.416017,0.07828 -0.443312,-0.06333 -0.06067,-0.19265 0.135656,-0.642294 -0.126659,-0.633301 -0.148254,0.244074 -0.02717,0.679152 0.06333,0.886621 z m -2.216555,-0.759961 c -0.08163,-0.08727 -0.275106,-0.06263 -0.44331,-0.06333 0.03958,0.241604 0.38131,0.207343 0.44331,0.06333 z m 0.88662,0.25332 c -0.02446,0.235588 0.305001,0.117224 0.316652,0.316651 -0.252119,-0.02235 -0.627856,0.07897 -0.696631,-0.126661 0,0.105572 0,0.21108 0,0.316651 0.410125,0.06333 0.898972,-0.03578 1.456594,0 -0.01952,-0.212663 0.08454,-0.548945 -0.189992,-0.506641 -0.149459,0.185747 0.121657,0.235208 0,0.316651 -0.426084,0.06726 -0.458195,-0.259527 -0.696631,-0.379981 0.180236,0.04756 0.448061,-0.134956 0.25332,-0.25332 -0.0632,0.190117 -0.453379,0.05326 -0.443312,0.31665 z m -4.179785,0 c 0.245024,-0.02723 0.225329,-0.06935 0.379981,0.06333 -0.0027,-0.08721 0.02983,-0.139072 0.06333,-0.18999 -0.158515,-0.120327 -0.248697,0.05256 -0.443311,-0.06333 0,0.06333 0,0.12666 0,0.18999 z m -7.9162612,0.696631 c 0.037683,-0.131156 -0.078276,-0.416015 0.06333,-0.44331 0.1728275,0.122733 0.1072808,0.483842 0.4433106,0.44331 -0.068397,-0.248254 0.1466088,-0.77991 -0.1266602,-0.823291 -0.1792875,-0.01039 0.052627,0.390367 -0.1266603,0.379981 -0.098732,-0.1335 -0.1132974,-0.351166 -0.3166504,-0.379981 -0.042241,0 -0.084419,0 -0.1266602,0 0.06048,0.277259 -0.1559188,0.831461 0.1899901,0.823291 z m 0.8232914,0 c 0.153702,-0.03629 -0.029701,-0.409745 0.1899901,-0.37998 0.047688,0.205633 0.1050645,0.401639 0.3799807,0.37998 0.012985,-0.266303 -0.2406545,-0.265986 -0.2533205,-0.506641 0.063837,-0.126153 0.1581987,-0.221782 0.2533205,-0.31665 -0.3206405,-0.06732 -0.3194372,0.187204 -0.5066409,0.253321 0,-0.08442 0,-0.168902 0,-0.253321 -0.06333,0 -0.1266603,0 -0.1899902,0 0.068397,0.248254 -0.1466093,0.77991 0.1266603,0.823291 z m 1.3299318,0 c -0.053704,-0.412595 0.00848,-0.709297 0.2533205,-0.823291 -0.2110793,0 -0.4222218,0 -0.6333012,0 0.3383728,0.0627 0.00576,0.79644 0.3799807,0.823291 z m 0.3799807,0 c 0.1926498,-0.06067 0.6422937,0.135654 0.6333008,-0.12666 -0.015199,-0.19588 -0.5212066,0.09898 -0.4433106,-0.18999 0.00792,-0.139896 0.2686461,-0.02692 0.3799807,-0.06333 0.090879,-0.301958 -0.4708593,0.04864 -0.3799807,-0.25332 0.015199,-0.19588 0.5212066,0.09899 0.4433106,-0.189991 -0.2110794,0 -0.4222218,0 -0.6333008,0 0,0.27441 0,0.548882 0,0.823292 z m 0.9499512,-0.18999 c -0.099428,-0.02723 -0.054084,-0.199236 -0.2533201,-0.12666 -0.049018,0.337612 0.286125,0.361108 0.5066406,0.25332 -0.066307,-0.229254 0.1436961,-0.734756 -0.1266603,-0.759961 -0.033818,0.219565 0.094045,0.600686 -0.1266602,0.633301 z m 3.0398441,0.18999 c 0.374218,-0.02685 0.04155,-0.760594 0.379981,-0.823291 -0.211079,0 -0.422222,0 -0.633301,0 0.244834,0.113994 0.307025,0.410696 0.25332,0.823291 z m 1.899903,-0.37998 c -0.342299,0.07435 -0.631211,0.0874 -0.696631,-0.253321 -0.343629,0.560092 0.506957,0.588273 0.886622,0.443311 -0.0197,-0.191447 0.0703,-0.492518 -0.126661,-0.506641 -0.161682,0.08062 0.05877,0.310191 -0.06333,0.316651 z m 0.25332,0.44331 c 0.152119,0.05902 0.167635,0.254524 0.443311,0.189991 0.163139,-0.149079 0.33508,-0.72931 0,-0.823291 0.09633,0.349265 -0.0014,0.693211 -0.443311,0.6333 z m 1.393263,0.126661 c 0.119757,-0.01419 0.139706,0.07137 0.25332,0.06333 0,-0.06333 0,-0.126661 0,-0.189991 -0.08721,0.0027 -0.139073,-0.02983 -0.18999,-0.06333 0.0027,0.08721 -0.02983,0.139073 -0.06333,0.18999 z m 3.673143,0 c 0.08569,0.01989 0.120963,0.09018 0.253324,0.06333 0,-0.06333 0,-0.126661 0,-0.189991 -0.144331,-0.01767 -0.238058,0.01526 -0.253324,0.126661 z M 4.0165225,22.925778 c 0.244644,0.01241 0.466679,0.0022 0.633301,-0.06333 0.0015,-0.361171 -0.04883,-0.382767 0,-0.69663 -0.119884,-0.112348 -0.418296,-0.04617 -0.633301,-0.06333 0,0.274409 0,0.548882 0,0.823291 z m 0.12666,-0.696631 c 0.146862,-0.0202 0.243124,0.0102 0.31665,0.06333 -0.0055,0.188471 -0.377637,0.169472 -0.31665,-0.06333 z m 0.31665,0.506641 c -0.119693,-0.02805 -0.38169,0.08613 -0.31665,-0.12666 0.09461,-0.100505 0.361045,-0.09259 0.31665,0.12666 z m 0.253321,0.18999 c 0.328873,-0.183024 0.5073373,-0.225835 0.8232908,0 0.00646,-0.365351 -0.2417306,-0.476052 -0.25332,-0.823291 -0.5036008,-0.0392 -0.3797272,0.549135 -0.5699708,0.823291 z m 0.3799802,-0.56997 c 0.068776,0.01564 0.042939,0.1259 0.1266603,0.12666 -0.027233,0.175234 -0.1992365,0.0033 -0.1266603,-0.12666 z m 4.5597669,0.56997 c 0.2478108,0.100062 0.1310933,-0.164468 0.2533205,-0.18999 0.3462259,-0.152626 0.3517349,0.361172 0.5699709,0.12666 -0.154906,-0.203986 -0.202467,-0.515254 -0.316651,-0.759961 -0.08442,0 -0.1689013,0 -0.2533199,0 -0.041543,0.317347 -0.2406545,0.477066 -0.2533205,0.823291 z M 9.969551,22.419137 c 0.042241,0 0.084419,0 0.12666,0 0,0.04224 0,0.08442 0,0.126661 -0.04224,0 -0.08442,0 -0.12666,0 0,-0.04224 0,-0.08442 0,-0.126661 z m 0.696631,0.506641 c 0.179288,0.01039 -0.05263,-0.390366 0.12666,-0.37998 0.109562,0.101518 0.185494,0.236664 0.253321,0.37998 0.509427,0.04357 0.665979,-0.38834 1.013281,0 -0.07859,-0.343629 -0.08765,-0.756794 -0.44331,-0.823291 -0.171498,0.208483 -0.179541,0.580357 -0.379981,0.759961 -0.219122,-0.3176 -0.104621,-0.267189 0,-0.633301 -0.110068,-0.164404 -0.420575,-0.128307 -0.696631,-0.12666 0.0684,0.248254 -0.146609,0.77991 0.12666,0.823291 z m 0.06333,-0.696631 c 0.100252,0.0053 0.241541,-0.0304 0.253321,0.06333 0.06916,0.222352 -0.388531,0.169599 -0.253321,-0.06333 z m 0.949952,0.126661 c 0.12286,-0.02508 0.09253,0.288468 -0.06333,0.18999 0,-0.04224 0,-0.08442 0,-0.126661 0.05389,0.01165 0.05972,-0.0247 0.06333,-0.06333 z M 1.9266286,17.986031 c 1.768177,1.081615 3.6119059,2.087803 5.3830588,3.166505 -0.1899906,0 -0.3799808,0 -0.5699709,0 -1.3664103,-0.723547 -2.7364299,-1.443293 -4.1164559,-2.153223 0.242491,0.70746 0.874778,1.025187 1.519922,1.329932 -0.254017,0.37922 -0.752741,0.51386 -0.949951,0.949951 0,0.84438 0,1.688824 0,2.533204 5.8896351,0 11.7794604,0 17.6690964,0 0,-0.886622 0,-1.773243 0,-2.659864 -0.308483,-0.346479 -0.833234,-0.812652 -0.949951,-1.139942 0.733553,-0.301071 1.595852,-0.810435 1.709909,-1.519922 -0.802199,0.534189 -1.634926,0.931839 -2.469872,1.393262 -0.791941,0.437674 -1.545003,1.140195 -2.596533,1.266602 1.893378,-1.294214 3.886441,-2.48881 5.826369,-3.736476 0.09322,-0.309051 0.462055,-0.676302 0.379979,-0.949951 -2.326746,1.55754 -4.503024,3.265489 -6.966309,4.686427 2.463476,-2.054049 5.1184,-3.916713 7.53628,-6.016359 0.09582,-0.26453 0.31988,-0.733742 0.189992,-1.013281 -2.792163,2.337576 -5.422322,4.837152 -8.359573,7.02964 0.733299,-0.892195 1.728721,-1.522266 2.406545,-2.469874 -1.163312,0.12438 -2.537575,0.03787 -3.799808,0.06333 0.043,-0.676302 -0.389226,-0.877375 -0.6333,-1.266602 0.187267,-0.08714 0.09037,-0.45851 0.18999,-0.633301 -0.966607,0.173335 -0.691501,1.588382 -1.456592,1.963233 -0.612529,-0.04186 -1.392819,0.08398 -1.899903,-0.06333 0.045028,-0.7839 -0.080303,-1.397379 -0.4433106,-1.773243 -0.2486971,0.263073 -0.5348225,0.190877 -0.3799808,0.633301 -1.1107463,-1.17756 -1.8141535,-1.989895 -2.4698735,-3.609815 0.5762404,-0.32026 0.9439985,-0.332737 1.5832523,-0.443311 0.2956883,0.759771 0.7367822,1.3742 1.0132815,2.153223 0.5022079,-0.01666 0.7631281,0.207913 0.8232911,0.633301 0.667943,0.09202 1.100931,0.418929 1.773243,0.506641 0.516077,-0.180554 0.717656,-0.675605 1.456592,-0.633301 0.245277,0.345783 0.255664,0.926519 0.44331,1.329932 0.978514,0.305884 2.144611,0.267633 3.419824,0.379981 0.25497,0.06498 0.281313,-0.09867 0.379984,-0.189991 -0.006,0.322604 0.379281,0.254017 0.569967,0.379981 2.028971,-1.580782 3.691704,-3.527929 5.636381,-5.193068 0.03673,-0.301008 0.09151,-0.58403 0.06333,-0.949951 -1.474765,1.335569 -3.040098,2.976768 -4.496434,4.433107 -0.518295,0.518293 -0.906381,1.16388 -1.583255,1.456592 0.03131,-0.802203 0.987318,-1.200612 1.329935,-1.899903 1.602758,-1.753737 3.22217,-3.490818 4.686426,-5.383058 -0.03375,-0.346225 -0.151549,-0.6084118 -0.12666,-1.0132811 -0.528745,0.3276065 -0.910498,0.9180331 -1.329935,1.4565921 -1.270715,1.631573 -2.650174,3.451237 -3.926462,4.813087 -0.121026,-0.819301 0.615062,-1.409855 1.013278,-1.963233 1.334493,-1.854685 2.661194,-3.643823 3.926467,-5.5097177 -0.134513,-0.2665566 -0.244519,-0.5576215 -0.316651,-0.8866213 -1.866021,2.3349169 -3.264918,5.13683 -5.129738,7.47295 -0.05022,-0.139769 -0.29765,-0.08233 -0.316647,-0.25332 1.569633,-2.863533 3.305828,-5.5603182 4.876413,-8.422902 -0.276688,-0.2932817 -0.316207,-0.8237343 -0.696631,-1.0132815 -1.495286,3.0221753 -3.050103,5.9849475 -4.623093,8.9295425 -0.04149,-0.169597 -0.181379,-0.240844 -0.253322,-0.37998 1.38642,-3.194433 2.902607,-6.2591663 4.306448,-9.4361835 -0.265797,-0.283086 -0.428494,-0.669273 -0.823291,-0.823292 -1.151851,2.922431 -2.296476,5.8519547 -3.546487,8.6762235 -0.337423,-0.176058 -0.179034,-0.625639 -0.25332,-0.949952 1.022466,-2.8195819 2.031947,-5.6520836 2.976512,-8.5495615 -0.301132,-0.226659 -0.538114,-0.517407 -0.949951,-0.633302 -0.592196,2.152147 -1.21296,4.2756051 -1.899901,6.3330097 -0.07308,-0.4391306 0.03268,-0.8790216 -0.379981,-1.0766114 0.512151,-1.9154823 1.00359,-3.8517363 1.456591,-5.8263693 -0.410253,-0.159718 -0.785925,-0.353952 -1.20327,-0.50664 -0.366682,2.018773 -0.685169,4.0856773 -1.203272,5.9530286 -0.0073,-0.3305197 -0.381184,-0.2943583 -0.569971,-0.4433106 0.220326,-1.996228 0.587514,-3.845593 0.823291,-5.82636902 -0.367694,-0.09677 -0.717213,-0.211649 -1.139942,-0.25332 C 14.267196,2.3768735 14.047314,4.2891885 13.896019,6.269964 13.760872,5.9391277 13.283933,6.304605 13.072728,6.0166439 c 0.05877,-1.9467044 0.211015,-3.7998694 0.25332,-5.76303842 -0.429251,0.04927 -0.673516,-0.08645 -1.076612,-0.06333 -0.147242,1.94265102 -0.02153,4.15825502 -0.06333,6.20634972 -0.264592,0.1575655 -0.335459,0.508984 -0.759961,0.506641 -0.01222,-0.5188636 0.0031,-1.0101785 0.126661,-1.3932622 -0.156616,-0.075616 -0.247621,-0.2168421 -0.316651,-0.3799807 0.04275,-1.2344938 -0.182644,-3.2723298 -0.18999,-4.87641682 -0.232232,-0.04319 -0.865153,0.0068 -1.1399416,0.12666 C 10.059609,1.6201425 10.10584,2.9671735 10.286204,4.1800725 9.9288321,4.1604425 9.7230094,4.2923565 9.3362525,4.2434025 9.2033858,2.9830065 8.9686848,1.8244455 8.8296116,0.57025648 8.4436783,0.69096348 8.0146167,0.76854248 7.6896698,0.95023648 7.8211434,2.4207625 8.505615,3.7746325 8.1963108,5.1300233 7.9545166,5.0931013 7.8679443,5.3817607 7.7530002,5.6366642 7.4999332,4.1587295 7.0418666,2.8857315 6.8030486,1.3935475 6.2674662,1.4701775 5.9768441,1.7917035 5.599777,2.0268485 5.9097144,3.0065015 6.3433989,4.1939415 6.4863982,5.1300233 6.2549901,5.1730243 6.025925,5.2183693 5.7264372,5.1933533 5.4154864,4.3432105 5.1194814,3.4781845 4.839816,2.5968195 4.4639518,2.7697745 4.1649068,3.0196115 3.9531948,3.3567805 4.2640188,4.2235165 4.7507738,5.114824 4.3965048,6.2066348 4.9318979,6.7218884 4.7255678,8.2037493 5.599777,8.2965276 5.4479115,8.4401606 5.640564,8.928372 5.3464565,8.9298288 4.6315868,7.3225741 3.8678258,5.764274 3.1932338,4.1167415 c -0.384288,0.185684 -0.59391,0.546032 -0.823292,0.8866212 1.501304,2.9318668 3.0520677,5.8140823 4.4964371,8.8028833 -0.2189956,-0.05016 -0.2673796,0.07036 -0.3799807,0.12666 C 4.84203,11.334155 3.4258425,8.5072265 1.7999685,5.8899837 1.5889525,6.2489384 1.4070055,6.6369621 1.2299975,7.0299254 4.2738325,11.670184 7.431154,16.534632 10.286201,21.152536 6.9631447,16.960464 4.0397015,12.368715 0.78668754,8.1065368 c -0.04838,0.3738374 -0.238374,0.6060691 -0.25332,1.0132815 C 3.5500325,13.189093 6.9970898,17.155963 9.8428907,21.152536 8.1528005,19.401712 6.6302184,17.483317 5.0298038,15.642818 3.8077225,14.289517 2.6653745,12.856357 1.4199885,11.526362 1.2610925,11.263035 1.0602105,11.04176 0.85001754,10.829731 c -0.167381,-0.124507 -0.443627,-0.756921 -0.569971,-0.506641 -0.146672,0.25446 0.02628,0.828484 -0.12666,1.076611 C 3.2141935,14.629726 6.507675,17.964689 9.3995801,21.152536 6.9779643,19.140982 4.808655,16.877248 2.4965995,14.756196 2.0890075,14.42498 1.7603875,14.014664 1.3566585,13.679585 0.98054054,13.458309 0.52367754,12.66339 0.21671654,12.792964 c -0.04414,0.31855 0.107471,0.44141 0.06333,0.759961 C 3.0750575,16.098731 6.1940009,18.658343 8.8296093,21.152536 7.6501497,20.521452 6.6809459,19.612854 5.6631046,18.809322 4.6345605,17.997304 3.6276125,17.176039 2.5599305,16.402779 c -0.297398,-0.314751 -0.65686,-0.567501 -1.013282,-0.823291 -0.171878,-0.123621 -0.288152,-0.302972 -0.506641,-0.379981 -0.08163,-0.09829 -0.42925096,-0.497331 -0.44330996,-0.253321 0.09493,0.32729 0.240907,0.603473 0.31665,0.949952 2.31845196,1.776852 5.02188636,3.506524 7.15630076,5.256398 -2.3368806,-1.146275 -4.4270898,-2.87696 -6.5863298,-3.989796 0.150599,0.271559 0.277639,0.566741 0.44331,0.823291 z M 10.666182,4.3067315 c -0.06466,0.296828 0.104242,0.360221 0.18999,0.5066404 0.166559,0.018744 0.04984,-0.2457204 0.253321,-0.1899904 0.0247,0.3413493 -0.368075,0.2652267 -0.253321,0.6966313 0.04376,0.1581351 0.168902,-0.1175406 0.316651,-0.06333 0.436407,0.5242465 -0.158579,1.4971234 0.18999,2.1532232 C 10.346175,7.407326 9.0970526,7.8472005 8.7029491,6.7766052 8.3427911,6.7990262 8.1609072,6.6431053 7.9429881,6.5232848 7.7920725,5.9659799 7.9065731,5.3671938 8.3862987,5.2566828 8.2733179,4.8757522 8.4244217,4.7509915 8.4496287,4.3700615 c 0.8023288,0.04237 1.4610883,-0.05883 2.2165533,-0.06333 z m -5.8263682,0.31665 C 5.203455,4.7452285 5.2246705,5.2095649 5.5997748,5.3200128 6.5014686,5.4617452 6.7667583,4.9670739 7.3730173,4.8133719 7.3487593,5.132999 7.4955611,5.3207092 7.246357,5.510003 7.3709272,5.6809308 7.45389,5.8935301 7.752998,5.8899837 7.707653,6.5475398 7.9484346,6.9189074 8.5762889,6.9032652 c 0.4322913,1.1639436 1.9215621,0.5371023 2.9131841,0.6966311 0.116528,-0.1155142 0.03356,-0.3549654 -0.06333,-0.4433111 0.421652,-0.211649 0.73653,-0.5300728 1.076612,-0.8232909 0.398663,0.210319 0.628108,-0.1303969 1.076612,-0.06333 0.370038,0.4954949 1.527078,0.2039861 1.709912,0.8866212 0.52412,0.045851 0.616582,0.5233603 1.203272,0.506641 0.234891,1.03893 -0.162315,1.6247335 -0.316651,2.5332035 -0.01153,0.138186 0.0518,0.201516 0.189991,0.18999 0.03059,0.19949 -0.19436,0.14338 -0.12666,0.379981 0.290558,0.656353 -0.04553,1.636893 0.94995,1.646582 0.07296,0.45984 -0.397839,0.848434 -0.6333,1.203272 0.45148,0.58289 0.694604,1.374136 1.58325,1.519922 0.07625,0.409303 0.03549,0.935576 0.506644,0.949951 -0.327925,0.643117 -1.438545,0.503538 -1.266603,1.646583 -1.139182,0.01057 -2.308699,-0.09879 -3.483155,-0.253321 -0.238818,-0.478902 -0.108991,-1.326512 -0.696631,-1.456592 -0.585614,0.08993 -0.955778,0.395307 -1.329932,0.696631 -0.317347,-0.08056 -0.481436,-0.370861 -0.886621,-0.18999 -0.642167,-0.19379 -0.910181,-0.98472 -1.5832529,-0.949951 C 9.0842598,14.775955 8.7126387,14.028787 8.2596384,13.362934 8.03849,13.501437 7.9224689,13.457296 7.6263376,13.426264 7.4473032,13.41613 7.4788417,13.616508 7.3096873,13.616254 6.766125,13.44083 6.989997,12.78948 6.6130562,12.539643 7.0744793,11.076464 5.3764096,10.929222 5.0931337,9.816449 5.2599455,9.1253275 5.7044595,8.7943013 5.8530952,8.2331966 5.7221282,8.0686016 5.3862887,8.1088794 5.219794,7.9798761 4.8633722,7.3940727 5.0032686,6.6773027 4.5864935,6.2066337 c 0.139832,-0.344389 0.106521,-0.7912464 0,-1.2032721 C 4.5731335,4.7789199 4.8835748,4.8782218 4.8398137,4.6233815 z M 7.8163279,16.339449 c -0.06162,-0.0017 -0.049144,-0.07752 -0.06333,-0.126661 1.2531756,1.364511 2.046005,3.18924 2.9131841,4.939748 C 9.570825,19.693537 8.7698257,17.940243 7.8163278,16.339449 z m 1.5832523,0.886621 c 0.2524974,0.401956 0.4200687,0.888711 0.4433106,1.519922 C 9.6263018,18.299705 9.2234594,17.87533 9.3995802,17.22607 z m 3.6731458,0.506641 c 0.146039,-0.01938 0.07036,0.18296 0.18999,0.18999 -0.180364,1.10739 -0.378904,2.196478 -0.633301,3.229835 0.01342,-1.021198 0.324377,-2.29312 0.443311,-3.419825 z m -0.443311,0.12666 c 0.07612,1.005175 -0.195563,2.21079 -0.25332,3.293165 -0.04566,-0.974777 -0.0613,-2.467657 0.25332,-3.293165 z m 0.886621,0.569971 c 0.254777,0.886558 -0.465666,1.785022 -0.56997,2.723194 -0.03021,-0.874842 0.442487,-1.794965 0.56997,-2.723194 z m 1.836573,0.443311 c -0.494862,0.792829 -0.882758,1.692686 -1.583253,2.279883 0.523044,-0.764648 0.731273,-1.844173 1.583253,-2.279883 z m 0.696631,0 c -0.629691,0.76357 -1.132659,1.653865 -1.899903,2.279883 0.485615,-0.802076 1.095484,-1.479898 1.583252,-2.279883 0.105572,0 0.21108,0 0.316651,0 z m 0.886621,0 c -0.704484,0.794285 -1.511056,1.486547 -2.216553,2.279883 -0.09601,-0.160922 0.166178,-0.396573 0.31665,-0.569971 0.443311,-0.510947 1.100234,-1.161791 1.519923,-1.709912 0.12666,0 0.25332,0 0.37998,0 z m -6.96631,0.06333 c 0.06333,0 0.12666,0 0.18999,0 0.239895,0.773387 0.571048,1.455515 0.823292,2.216553 -0.411139,-0.626018 -0.840581,-1.562227 -1.013282,-2.216554 z m 0.506641,0 c 0.06333,0 0.12666,0 0.18999,0 0.186127,0.763824 0.454077,1.445826 0.633301,2.216553 C 10.880935,20.55774 10.720519,19.705 10.476192,18.935982 z m 0.506641,0 c 0.06333,0 0.12666,0 0.18999,0 0.06751,0.798022 0.327226,1.403775 0.37998,2.216553 -0.25427,-0.674593 -0.391316,-1.466345 -0.56997,-2.216554 z m 0.50664,0 c 0.33622,0.487071 0.200693,1.445889 0.316651,2.153223 -0.158072,-0.66522 -0.243441,-1.403142 -0.316651,-2.153224 z m 0.443311,0 c 0.06333,0 0.12666,0 0.18999,0 0,0.738872 0,1.477681 0,2.216553 -0.236474,-0.565728 -0.141226,-1.463115 -0.18999,-2.216554 z m 1.963233,0 c 0.06333,0 0.12666,0 0.18999,0 -0.280805,0.774716 -0.505437,1.605607 -0.949951,2.216553 0.234764,-0.757365 0.532986,-1.451336 0.759961,-2.216554 z m 0.759961,0 c -0.367631,0.77231 -0.699481,1.580402 -1.203272,2.216553 0.419435,-0.720507 0.541282,-1.738602 1.203272,-2.216554 z m 5.95303,2.216553 c -0.992196,0 -1.984325,0 -2.976516,0 0.673134,-0.382324 1.407132,-0.703851 2.089893,-1.076612 0.300438,0.312344 0.789473,0.771867 0.886623,1.076612 z M 5.979755,21.089206 c -0.7179729,0.147496 -1.7097225,0.02128 -2.5332035,0.06333 0.193473,-0.313168 0.579597,-0.433685 0.759961,-0.759961 0.6689556,0.154335 1.1114431,0.535075 1.7732425,0.696631 z m -2.5965335,0.18999 c 5.8052793,0 11.6105595,0 17.4157735,0 0,0.802203 0,1.604342 0,2.406544 -5.826367,0 -11.6527354,0 -17.4791035,0 0,-0.738873 0,-1.477681 0,-2.216553 -0.0054,-0.08987 -0.01045,-0.179351 0.06333,-0.189991 z M 11.362813,9.9431099 c -0.403286,-0.091765 -0.682951,0.5618011 -0.886621,0.2533201 -0.72038,0.165228 -0.07283,1.130379 -0.7599615,1.456592 0,0.168902 0,0.337739 0,0.506641 0.3412865,0.152119 0.7414055,0.750651 0.5066415,1.076612 0.448757,0.380867 0.823417,0.252243 1.583252,0.44331 0,0.08442 0,0.168902 0,0.25332 0.260793,0.04972 0.32501,-0.09721 0.569971,-0.06333 -0.09613,-0.205443 0.731589,-0.686941 0.823291,-0.696631 0.05769,-0.0061 0.151992,0.151613 0.18999,0.12666 0.45053,-0.295688 0.02489,-1.157484 0.569971,-1.456592 0,-0.18999 0,-0.37998 0,-0.56997 -0.403286,-0.158706 -0.766991,-0.771424 -0.633301,-1.076612 -0.150979,-0.102405 -0.279159,-0.2274816 -0.443311,-0.3166504 0.01153,0.1381864 -0.0518,0.2015164 -0.18999,0.1899904 -0.187647,-0.1290036 -0.407212,-0.2260882 -0.759961,-0.1899904 0,-0.084419 0,-0.1689014 0,-0.2533201 -0.168901,0 -0.33774,0 -0.506641,0 -0.05313,0.073526 -0.08353,0.1697876 -0.06333,0.3166504 z m 0.759961,0.6966311 c 0.173081,0.239324 -0.358448,0.314877 -0.18999,0.759961 0.1879,-0.02318 0.312471,-0.109751 0.37998,-0.253321 0.186824,0.273839 -0.189547,0.526273 -0.37998,0.633301 -0.008,0.113551 0.07752,0.133564 0.06333,0.253321 0.370608,0.05396 0.389544,-0.243758 0.633301,-0.316651 -0.04883,0.436661 -0.333369,0.637671 -0.633301,0.823291 -0.02679,0.13236 0.04345,0.167699 0.06333,0.253321 0.331343,-0.09088 0.587893,-0.25655 0.696631,-0.569971 0.340146,1.276418 -1.930871,1.42252 -1.836573,0.06333 0.255474,0.166748 0.387137,0.457244 0.759961,0.506641 0.08594,-0.01963 0.05256,-0.158579 0.06333,-0.25332 -0.288785,-0.196767 -0.661862,-0.309241 -0.6333,-0.823292 0.167381,0.149269 0.350088,0.283212 0.56997,0.379981 0.323807,-0.4644 -0.558001,-0.563765 -0.31665,-0.949952 0.09487,0.09512 0.190497,0.189484 0.31665,0.253321 0.221149,-0.245911 -0.07156,-0.516774 -0.12666,-0.696631 0.143759,0.04199 0.531086,0.163708 0.569971,-0.06333 z"
     id="path3643"
     inkscape:connector-curvature="0"
     style="fill-rule:evenodd" /></svg>