<?xml version="1.0" encoding="UTF-8" standalone="no"?>
<!-- Generator: Adobe Illustrator 15.1.0, SVG Export Plug-In . SVG Version: 6.00 Build 0)  -->

<svg
   xmlns:dc="http://purl.org/dc/elements/1.1/"
   xmlns:cc="http://creativecommons.org/ns#"
   xmlns:rdf="http://www.w3.org/1999/02/22-rdf-syntax-ns#"
   xmlns:svg="http://www.w3.org/2000/svg"
   xmlns="http://www.w3.org/2000/svg"
   xmlns:sodipodi="http://sodipodi.sourceforge.net/DTD/sodipodi-0.dtd"
   xmlns:inkscape="http://www.inkscape.org/namespaces/inkscape"
   version="1.1"
   id="Layer_1"
   x="0px"
   y="0px"
   width="24"
   height="24"
   viewBox="0 0 24 24"
   enable-background="new 0 0 500 500"
   xml:space="preserve"
   inkscape:version="0.48.5 r10040"
   sodipodi:docname="parsian.svg"><metadata
     id="metadata3490"><rdf:RDF><cc:Work
         rdf:about=""><dc:format>image/svg+xml</dc:format><dc:type
           rdf:resource="http://purl.org/dc/dcmitype/StillImage" /><dc:title></dc:title></cc:Work></rdf:RDF></metadata><defs
     id="defs3488" /><sodipodi:namedview
     pagecolor="#ffffff"
     bordercolor="#666666"
     borderopacity="1"
     objecttolerance="10"
     gridtolerance="10"
     guidetolerance="10"
     inkscape:pageopacity="0"
     inkscape:pageshadow="2"
     inkscape:window-width="657"
     inkscape:window-height="480"
     id="namedview3486"
     showgrid="false"
     inkscape:zoom="2.6700352"
     inkscape:cx="17.851449"
     inkscape:cy="31.473176"
     inkscape:window-x="0"
     inkscape:window-y="27"
     inkscape:window-maximized="0"
     inkscape:current-layer="Layer_1" /><path
     clip-rule="evenodd"
     d="m 11.331227,1.1850407 c 0.0075,1.1760784 -0.138261,2.1988882 -0.615039,2.8906847 C 10.277357,3.7343788 10.032756,3.2547098 9.6706208,2.8456471 9.3583661,2.4929221 8.7508302,2.1582172 8.8710699,1.4310564 9.4088602,1.0897097 10.804263,0.59177438 11.331227,1.1850407 z M 14.22191,2.907151 c 0.304443,-0.3411011 1.012048,-0.7239631 0.922562,-1.2915829 -0.0981,-0.622112 -1.846409,-0.90478402 -2.460156,-0.4920314 -0.07897,1.0265007 0.05927,2.197351 0.55353,2.9521887 0.428746,-0.2438629 0.57666,-0.7121543 0.984064,-1.1685744 z M 7.5179838,1.8615838 C 7.1483449,1.1749543 4.4180017,1.661327 5.1808351,2.907151 6.0534525,3.244131 6.6118466,3.8953342 7.394976,4.3217411 7.4543877,3.6348654 7.8990003,2.5694326 7.5179838,1.8615838 z m 8.9180692,0 C 16.348534,2.6886891 16.330451,3.6456896 16.559064,4.3217411 17.354551,3.9076965 17.908886,3.2524339 18.773198,2.907151 19.319785,1.5496363 17.074214,1.2656112 16.436053,1.8615838 z M 7.8870073,4.6292607 C 8.5586302,5.2901818 9.0908849,6.0905322 9.6706208,6.8434016 10.007047,6.2572693 10.307802,5.6354646 10.59318,4.9982841 9.7987957,4.1320631 9.1197918,3.1504605 8.3175347,2.2921119 8.4893768,3.0735189 8.1585471,3.9414011 7.8870073,4.6292607 z m 5.5968607,0.3690234 c 0.318276,0.645238 0.573517,1.3535784 0.984057,1.9066214 0.417614,-0.9354745 1.177865,-1.5282492 1.722114,-2.3371488 -0.443632,-0.4994734 -0.301123,-1.584956 -0.61504,-2.214141 -0.585213,0.9934114 -1.410961,1.7462188 -2.091131,2.6446684 z m -3.382719,2.3986534 c 0.640009,0.6307841 0.926185,1.5854477 1.107067,2.5216606 0.425549,-0.3468203 1.060087,-0.3459594 1.537602,-0.061505 0.0762,-1.0923093 0.446519,-1.8906307 1.107068,-2.3986524 -0.843831,-1.4728322 -1.369749,-3.2635186 -1.90662,-5.043319 -0.315822,1.9598224 -0.950848,3.6004395 -1.845117,4.9818179 z M 3.2127092,2.8456471 c -0.0147,-0.094409 -0.1012969,-0.00904 -0.1230079,0.061502 2.128651,1.8631995 3.662866,4.235283 3.6902355,8.0570131 C 7.2073888,10.612544 7.1650127,9.7911598 7.8255034,9.6725806 8.0817905,9.7853169 8.1804423,10.055688 8.3175347,10.287619 8.7242603,9.7663737 9.4407194,9.3430424 10.224157,9.5495727 9.0210168,6.1809411 7.0303192,3.5998674 3.2127092,2.8456451 z m 17.6516278,0 c -3.706103,0.660675 -5.969323,3.2972865 -7.072953,6.7654312 0.869971,-0.3458978 1.509246,0.1875872 1.906619,0.6765427 0.147302,-0.262744 0.242453,-0.5775824 0.61504,-0.6150387 0.501138,0.2164319 0.570203,0.8649297 0.861059,1.2915817 0.123747,-3.8125045 1.693388,-6.1791143 3.690235,-8.1185169 z M 3.5817326,4.7522685 C 2.6865434,5.2572774 2.1409418,6.3053041 2.0441347,7.5814493 1.7041412,12.06244 2.2557698,19.009185 2.105637,23.080437 c 3.1777234,0 6.3553848,0 9.533104,0 -0.189305,-4.13663 0.935908,-10.120348 -1.230074,-12.485296 -0.4112159,0.503901 -0.4099247,1.06537 -0.7380482,1.599102 -0.68829,-0.377757 -0.966288,-1.165869 -1.8451175,-1.353087 -0.779193,2.783853 1.1134056,4.438124 2.8906837,5.412346 0,1.927103 0,3.854266 0,5.781368 -2.5626832,0 -5.1253055,0 -7.6879897,0 0,-3.289045 0,-7.753183 0,-11.255217 0,-2.7185346 -0.2559179,-4.8856874 1.5375978,-5.6583611 C 4.2256154,4.7888636 4.0072766,4.5122187 3.5817305,4.7522685 z M 19.449746,5.059788 c 0.780177,0.6042762 1.438147,1.3182133 1.537595,2.5216613 0.332371,4.0214337 -0.203021,10.4223307 -0.06147,14.4534207 -2.542204,-0.04096 -5.248312,0.08199 -7.687994,-0.06151 0,-1.927102 0,-3.854266 0,-5.781369 1.844259,-0.849062 3.587281,-2.429712 2.952193,-5.350841 -0.960199,0.167352 -1.231186,1.023979 -1.968129,1.414591 -0.08008,-0.320313 -0.349339,-1.683855 -0.738042,-1.660606 -0.119814,0.0072 -0.502432,0.744259 -0.61504,0.984061 -1.200809,2.557396 -0.391288,8.28747 -0.553537,11.439731 3.075381,0.143304 6.416764,0.02067 9.594612,0.06151 0.111199,-2.250429 0.06147,-4.94996 0.06147,-7.687991 0,-2.693749 0.218773,-5.4890407 0,-7.7494936 -0.12356,-1.2769441 -0.773967,-2.9147319 -2.029629,-3.0136917 -0.201488,0.1060327 -0.29054,0.3244946 -0.492029,0.4305273 z"
     id="path3484"
     inkscape:connector-curvature="0"
     style="fill-rule:evenodd" /></svg>