<?xml version="1.0" encoding="UTF-8" standalone="no"?>
<!-- Generator: Adobe Illustrator 15.1.0, SVG Export Plug-In . SVG Version: 6.00 Build 0)  -->

<svg
   xmlns:dc="http://purl.org/dc/elements/1.1/"
   xmlns:cc="http://creativecommons.org/ns#"
   xmlns:rdf="http://www.w3.org/1999/02/22-rdf-syntax-ns#"
   xmlns:svg="http://www.w3.org/2000/svg"
   xmlns="http://www.w3.org/2000/svg"
   xmlns:sodipodi="http://sodipodi.sourceforge.net/DTD/sodipodi-0.dtd"
   xmlns:inkscape="http://www.inkscape.org/namespaces/inkscape"
   version="1.1"
   id="Layer_1"
   x="0px"
   y="0px"
   width="24"
   height="24"
   viewBox="0 0 24 24"
   enable-background="new 0 0 500 500"
   xml:space="preserve"
   inkscape:version="0.48.5 r10040"
   sodipodi:docname="keshavarzi.svg"><metadata
     id="metadata3251"><rdf:RDF><cc:Work
         rdf:about=""><dc:format>image/svg+xml</dc:format><dc:type
           rdf:resource="http://purl.org/dc/dcmitype/StillImage" /><dc:title></dc:title></cc:Work></rdf:RDF></metadata><defs
     id="defs3249" /><sodipodi:namedview
     pagecolor="#ffffff"
     bordercolor="#666666"
     borderopacity="1"
     objecttolerance="10"
     gridtolerance="10"
     guidetolerance="10"
     inkscape:pageopacity="0"
     inkscape:pageshadow="2"
     inkscape:window-width="657"
     inkscape:window-height="480"
     id="namedview3247"
     showgrid="false"
     inkscape:zoom="5.3400704"
     inkscape:cx="13.81946"
     inkscape:cy="-1.1395642"
     inkscape:window-x="0"
     inkscape:window-y="27"
     inkscape:window-maximized="0"
     inkscape:current-layer="Layer_1" /><path
     clip-rule="evenodd"
     d="m 11.150627,0.65691915 c 0.566222,0 1.132499,0 1.698722,0 0,0.40183035 0,0.80371535 0,1.20554485 0.365335,0 0.730615,0 1.09595,0 0,0.8219624 0,1.6439258 0,2.4658882 0.767163,0 1.534328,0 2.301493,0 0.536358,0.3220996 0.841854,0.8751154 1.36994,1.2055449 -0.01922,0.1817083 -0.315855,0.085975 -0.493178,0.1095954 -0.335088,0.4503255 -0.59028,0.9805459 -0.876762,1.4795318 0.076,0.143241 0.465015,-0.026632 0.547975,0.1095952 -0.0178,0.2013807 0.0468,0.4851223 -0.05479,0.6027726 0.230644,0.1164444 0.667543,0.026575 0.986355,0.054798 0,0.2739872 0,0.5479746 0,0.8219624 0.292235,0 0.584525,0 0.876761,0 0,0.584525 0,1.1689951 0,1.7535205 0.05825,0.124389 0.344457,0.02088 0.493175,0.05479 1.181162,0.718504 2.407693,1.391637 2.630281,3.06866 -0.413008,-0.262808 -0.755658,-0.596033 -1.150748,-0.87676 -0.602771,0 -1.205543,0 -1.808315,0 -0.186642,0.123897 -0.240672,0.38035 -0.383582,0.547975 0.292232,0 0.584525,0 0.876757,0 0.105047,0.132446 0.03459,0.440298 0.0548,0.65757 0.219189,0 0.438379,0 0.657569,0 0.08696,0.154913 0.08696,0.612253 0,0.767165 -0.200943,0 -0.40183,0 -0.602773,0 -0.125758,0.111678 -0.01983,0.455093 -0.05479,0.657569 -0.255743,0 -0.511425,0 -0.767165,0 -0.152556,-0.02465 0.04296,0.298647 -0.109596,0.273988 -0.200943,0 -0.40183,0 -0.602772,0 -0.127187,1.425392 -0.01874,3.086414 -0.05479,4.60299 -1.333391,0 -2.66683,0 -4.000219,0 0,0.62102 0,1.242095 0,1.863115 -0.18264,0 -0.365335,0 -0.547975,0 0,0.420132 0,0.840211 0,1.260343 -0.840211,0 -1.680475,0 -2.520685,0 0,-0.40183 0,-0.803716 0,-1.205545 -0.09376,-0.125377 -0.418269,-0.02011 -0.602772,-0.0548 0,-0.621021 0,-1.242096 0,-1.863115 -1.3151403,0 -2.6302802,0 -3.9454202,0 0,-1.516083 0,-3.03211 0,-4.548193 -0.1117323,-0.12576 -0.4550934,-0.01984 -0.6575701,-0.05479 0,-0.09135 0,-0.18264 0,-0.273988 -0.2739873,0 -0.5479751,0 -0.8219625,0 0,-0.21919 0,-0.43838 0,-0.65757 -0.2191902,0 -0.43838,0 -0.6575706,0 -0.086964,-0.154912 -0.086964,-0.612252 0,-0.767165 0.2009429,0 0.4018306,0 0.6027731,0 0.1257603,-0.111677 0.019836,-0.455092 0.054798,-0.65757 0.2739874,0 0.5479751,0 0.8219625,0 0.101211,-0.140555 -0.1882296,-0.357608 -0.2191903,-0.547974 -0.62102,0 -1.2420947,0 -1.8631152,0 -0.409556,0.211846 -0.794837,0.738998 -1.1507471,0.821962 0.2313553,-1.59521 1.3850616,-2.268124 2.5206852,-2.959065 0.1535972,-0.0656 0.3781024,-0.06028 0.6027723,-0.05479 0,-0.6027733 0,-1.2055455 0,-1.8083181 0.2739877,0 0.547975,0 0.8219623,0 0.1264728,-0.1657624 0.019345,-0.5651815 0.054798,-0.8219624 0.2922351,0 0.5845249,0 0.8767599,0 0.1260344,-0.129706 0.019617,-0.4918078 0.054798,-0.7123678 0.18264,0 0.3653352,0 0.5479752,0 C 7.5242496,6.621353 7.1542021,6.2059331 6.9312312,5.6434925 c -0.1826399,0 -0.365335,0 -0.547975,0 0.3428132,-0.5156993 0.8262917,-0.8907337 1.2603424,-1.3151403 0.8037151,0 1.607375,0 2.4110904,0 0.127678,-0.7125322 0.01841,-1.6620633 0.0548,-2.4658882 0.328785,0 0.657569,0 0.986355,0 0.127185,-0.2929468 0.0188,-0.8214687 0.05479,-1.20554485 z m 0.493177,0.43838005 c -0.03606,0.4023233 0.07244,0.9492026 -0.05479,1.2603426 -0.365335,0 -0.730615,0 -1.09595,0 0,0.7671656 0,1.5343303 0,2.3014951 1.003506,1.2066958 0.471971,3.9483793 0.602772,6.0277261 0.157215,0.164228 0.517453,0.673241 0.65757,0.493177 -0.316401,-2.478272 -0.102636,-5.4867096 -0.164392,-8.2196258 0.238643,0.035342 0.619485,-0.071453 0.767165,0.054793 -0.0559,2.7570817 0.143295,5.7691905 -0.164393,8.2744218 0.173763,-0.06471 0.591649,-0.357443 0.712367,-0.657569 0,-1.5891277 0,-3.178255 0,-4.767383 0.201436,-0.4561343 0.495425,-0.8196605 0.65757,-1.3151394 -0.03457,-0.7143404 0.07042,-1.5681957 -0.05479,-2.1919005 -0.365884,-0.035943 -0.875993,0.072336 -1.150748,-0.054793 0,-0.4018294 0,-0.8037145 0,-1.2055448 -0.237437,0 -0.47493,0 -0.712367,0 z M 7.9175743,4.7119346 C 7.8386659,4.7426217 7.7838682,4.797415 7.7531817,4.8763269 7.5040724,5.0190192 6.9823999,5.4460016 7.0956115,5.5886948 c 0.365335,0 0.7306154,0 1.0959502,0 0.3237983,0.5347138 0.6486378,1.0683317 0.9315575,1.6439247 0,1.1507477 0,2.3014949 0,3.4522435 0.3790892,0.49767 0.9268448,0.826674 1.2603428,1.369937 0,1.095949 0,2.191899 0,3.28785 0.456627,0 0.91331,0 1.369937,0 0,-1.1325 0,-2.264946 0,-3.397446 -0.368403,-0.417008 -0.914624,-0.656255 -1.205545,-1.150747 -0.115733,-2.0579203 0.326265,-4.6735142 -0.43838,-6.0825224 -0.7306148,0 -1.4612846,0 -2.1918997,0 z m 8.0552327,0 c -0.563648,-0.1358429 -1.316236,0.099293 -2.027508,0 -0.993479,1.2166687 -0.377774,4.042521 -0.547975,6.0825224 -0.332457,0.434708 -0.888049,0.646281 -1.205545,1.09595 0,1.150748 0,2.301495 0,3.452243 0.456627,0 0.91331,0 1.369937,0 0,-1.114198 0,-2.228451 0,-3.342648 0.386377,-0.50863 0.992111,-0.797961 1.315139,-1.369937 0,-1.150748 0,-2.3014954 0,-3.4522431 0.335035,-0.5234258 0.560963,-1.156008 0.986354,-1.5891271 0.347033,0 0.694123,0 1.041155,0 -0.219246,-0.21804 -0.402433,-0.7492463 -0.931557,-0.8767602 z M 8.1915617,7.1778219 c 0,0.87676 0,1.75352 0,2.6302803 C 8.253154,10.038745 8.0226759,10.561458 8.4107518,10.465673 8.6652312,9.5694041 8.4482344,8.2016586 8.5203465,7.1230243 8.2237278,6.7803758 8.2161109,6.1486155 7.6983841,6.0270746 7.6558611,6.0393486 7.5902686,6.0285346 7.588789,6.0818726 7.7888,6.4480843 8.017251,6.7858558 8.1915617,7.1778223 z m 7.2880653,-0.054798 c 0,0.87676 0,1.7535205 0,2.6302803 0.06993,0.2223133 -0.162966,0.7474928 0.164393,0.7123668 0.254426,-0.8598271 0.03755,-2.1909133 0.109596,-3.233052 0.128991,-0.3879114 0.672203,-0.9278859 0.547976,-1.2055449 -0.0548,0 -0.109596,0 -0.164393,0 -0.282646,0.3018794 -0.457396,0.7116549 -0.657572,1.0959498 z M 7.3695992,10.520469 c 0.023015,-0.121979 0.2907555,-0.0429 0.3287849,0 0,-0.328784 0,-0.6575698 0,-0.9863547 -0.1278424,0 -0.25574,0 -0.3835825,0 0.035783,0.3112499 -0.072059,0.7661787 0.054798,0.9863547 z m 8.8771928,-0.0548 c 0.07343,0.09672 0.317169,-0.08965 0.438382,0.0548 0,-0.328784 0,-0.6575698 0,-0.9863546 -0.146146,0 -0.292235,0 -0.438382,0 0,0.3105376 0,0.6210196 0,0.9315576 z m -6.356508,1.75352 C 9.4475752,11.766893 9.0543484,11.265057 8.5203465,10.904052 c -1.168995,0 -2.3380448,0 -3.5070399,0 -0.4479148,0.520302 -1.5590432,0.669187 -1.6439247,1.369937 1.0047118,-0.127788 2.2466427,-0.0183 3.3426471,-0.05479 0.8279903,0.92553 1.4869302,2.02011 2.2466975,3.013863 0.3105376,0 0.6210204,0 0.9315575,0 0,-1.004603 0,-2.009261 0,-3.013863 z m 9.041589,-1.315139 c -1.168998,0 -2.338049,0 -3.507042,0 -0.452571,0.424242 -0.916324,0.837196 -1.315139,1.31514 0,1.004603 0,2.00926 0,3.013862 0.310537,0 0.621021,0 0.931557,0 0.749631,-1.00389 1.400351,-2.106689 2.246698,-3.013862 1.114197,0 2.228447,0 3.342645,0 -0.278369,-0.726231 -1.213982,-0.795276 -1.698719,-1.31514 z M 6.1092568,12.821965 c 0.4515313,0.674448 0.9769297,1.334757 1.4247351,1.97271 0.1449941,0.206586 0.2597948,0.630992 0.6575698,0.493177 C 7.5827615,14.38057 7.0316631,13.41564 6.273649,12.657572 c -0.07962,0.02997 -0.2831933,-0.06406 -0.2739873,0.05479 0.061483,0.01161 0.08532,0.06077 0.1095951,0.109594 z M 17.616732,12.657572 c -0.631873,0.86591 -1.253714,1.741903 -1.863116,2.63028 0.686885,-0.03315 0.905365,-0.776754 1.205544,-1.205545 0.330595,-0.472299 0.734233,-0.917968 0.986354,-1.424735 -0.109592,0 -0.219189,0 -0.328782,0 z M 6.3284466,14.575484 C 6.2253177,14.441176 6.1016947,14.327307 6.0544593,14.137105 c -0.18264,0 -0.3653352,0 -0.5479751,0 0,0.146144 0,0.292235 0,0.438379 0.2631375,-0.02384 0.7306151,0.03409 0.8219624,0 z m 11.3978784,0.05479 c 0.151025,-0.07771 0.388789,-0.03731 0.712369,-0.05479 0,-0.146144 0,-0.292235 0,-0.438379 -0.494769,-0.128555 -0.757028,0.264562 -0.712369,0.493177 z M 6.6024344,15.945422 c 0,1.27859 0,2.557235 0,3.835825 3.5618376,0 7.1236746,0 10.6855126,0 0,-1.333388 0,-2.66683 0,-4.000218 -3.543536,0 -7.08718,0 -10.6307155,0 -0.063839,0.0092 -0.05951,0.08664 -0.054797,0.164393 z m 4.0550156,5.698941 c 0.217217,0.02022 0.525123,-0.05025 0.657569,0.0548 0,0.456627 0,0.913309 0,1.369937 0.456628,0 0.91331,0 1.369937,0 0,-0.47493 0,-0.949805 0,-1.424735 0.219191,0 0.43838,0 0.65757,0 -0.06866,-0.442764 0.140172,-1.163078 -0.109595,-1.424736 -0.248287,0.20834 -0.04198,0.871281 -0.109595,1.260343 -0.730779,-0.03639 -1.60721,0.07282 -2.246697,-0.0548 -0.06718,-0.371198 0.138145,-1.014905 -0.109595,-1.205545 -0.03655,0 -0.07304,0 -0.109594,0 0,0.47493 0,0.949805 0,1.424735 z m 1.808317,-3.561839 c -0.221054,0.144282 -0.425722,0.304949 -0.767166,0.328786 -0.177762,-0.252781 0.136117,-0.725136 0,-0.931557 -0.18264,0.262534 -0.312674,0.951009 -0.109595,1.260341 0.559757,-0.22571 1.178694,-0.392185 1.041153,-1.315139 0.389994,-0.505233 1.297221,-0.78481 1.369937,-1.424735 -0.4666,0.738944 -1.643541,0.767548 -1.534329,2.082304 z m 2.246695,0.65757 c 0.115351,-0.06998 0.306866,-0.347087 0.164393,-0.493177 -0.05847,0.05113 -0.01711,0.202093 -0.164393,0.164393 -0.295522,-1.320291 1.172177,-1.347142 1.479534,-2.246698 -0.714287,0.564304 -1.527425,1.02981 -1.808317,2.027508 -0.362157,0.149323 -0.723272,0.299578 -1.260343,0.273987 -0.142254,-0.04039 -0.185434,-0.1799 -0.328785,-0.21919 0,0.146145 0,0.292235 0,0.43838 0.632583,0.298098 1.449723,-0.05425 1.753522,-0.43838 -0.109049,0.149104 -0.06143,0.507699 0.164389,0.493177 z m -0.219189,-1.753519 c 0.08105,0.02855 0.138147,0.08105 0.219189,0.109594 0.155189,-0.102964 0.152176,-0.455313 -0.109593,-0.438379 0.01431,0.160446 -0.123897,0.168337 -0.109596,0.328785 z m -4.6577861,0.328784 c 0.1232394,-0.134911 0.1681731,-0.439311 -0.1095951,-0.43838 -0.1232399,0.134912 -0.1681737,0.439312 0.1095951,0.43838 z m 5.2605581,1.424735 c 0.306375,0.06707 0.44408,-0.320675 0.328786,-0.493177 -0.05847,0.05113 -0.01711,0.202093 -0.164393,0.164393 -0.199245,-0.274262 0.131735,-0.729519 0,-0.931557 -0.200339,0.259137 -0.288673,0.851114 -0.164393,1.260341 z M 8.575144,18.520905 c 0.01748,0.128664 0.1695982,0.122636 0.2191903,0.219189 -0.060606,0.224944 -0.5240288,0.402433 -0.7123677,0.164393 -0.043454,-0.372294 0.1968876,-0.460627 0.2191901,-0.767165 -0.2691654,0.205765 -0.4018301,0.547975 -0.3835824,1.041152 0.4852318,0.45208 1.105101,-0.0982 1.0411522,-0.712367 0.016767,-0.126363 -0.1583097,-0.06088 -0.1643922,-0.164392 0.135514,-0.332457 0.4887934,-0.110418 0.4931775,-0.547976 -0.4106526,0.08252 -0.6284179,0.357883 -0.7123678,0.767166 z m 2.356293,-0.21919 c 0.06477,0.02657 0.124226,0.05842 0.164392,0.109595 -0.0959,0.123294 -0.312181,0.126253 -0.328785,0.328784 0.407201,-0.03113 0.587484,-0.289221 0.547975,-0.767165 -0.103622,0.01227 -0.120937,-0.06175 -0.21919,-0.0548 -0.04554,0.137158 -0.150145,0.215191 -0.164392,0.383583 z M 9.2875118,18.740094 C 9.754167,18.750124 9.8753795,18.414652 9.890284,17.972929 9.6618882,18.201161 9.5411693,18.53707 9.2875118,18.740094 z m 0.7671652,0 c 0.382815,0.04395 0.696531,-0.5317 0.43838,-0.767165 0.02329,0.425119 -0.355143,0.448572 -0.43838,0.767165 z m 5.260561,0.87676 c 0.112772,-0.128884 0.05671,-0.421173 -0.109597,-0.43838 -0.108007,0.177928 -0.27311,0.447751 0.109597,0.43838 z m -3.561839,-2.685077 c 0.285714,-0.01064 0.367855,0.08094 0.602772,-0.0548 -0.09913,-0.347635 -0.08225,-0.471094 -0.328784,-0.657569 -0.08017,0.24856 -0.226369,0.431146 -0.273988,0.712367 z"
     id="path3245"
     inkscape:connector-curvature="0"
     style="fill-rule:evenodd" /></svg>