<?xml version="1.0" encoding="utf-8"?>
<!-- Generator: Adobe Illustrator 15.1.0, SVG Export Plug-In . SVG Version: 6.00 Build 0)  -->
<!DOCTYPE svg PUBLIC "-//W3C//DTD SVG 1.1//EN" "http://www.w3.org/Graphics/SVG/1.1/DTD/svg11.dtd">
<svg version="1.1"
	 id="Layer_1" inkscape:version="0.48.5 r10040" sodipodi:docname="bank-kar-afarin.svg" xmlns:dc="http://purl.org/dc/elements/1.1/" xmlns:cc="http://creativecommons.org/ns#" xmlns:rdf="http://www.w3.org/1999/02/22-rdf-syntax-ns#" xmlns:svg="http://www.w3.org/2000/svg" xmlns:sodipodi="http://sodipodi.sourceforge.net/DTD/sodipodi-0.dtd" xmlns:inkscape="http://www.inkscape.org/namespaces/inkscape"
	 xmlns="http://www.w3.org/2000/svg" xmlns:xlink="http://www.w3.org/1999/xlink" x="0px" y="0px" width="24px" height="24px"
	 viewBox="0 0 24 24" enable-background="new 0 0 24 24" xml:space="preserve">
<path fill-rule="evenodd" clip-rule="evenodd" d="M14.711,6.305c-0.4,1.038-0.821,2.056-1.272,3.043
	c-0.549-0.136-1.436-0.159-2.047-0.056c-0.421-0.961-0.736-2.03-1.162-2.988C10.992,4.931,13.936,4.994,14.711,6.305z M6.245,10.178
	c1.052,0.332,2.037,0.73,3.154,0.996c0.359-0.637,0.903-1.088,1.328-1.66c-0.6-0.876-0.975-1.977-1.66-2.767
	C7.196,6.961,6.268,8.117,6.245,10.178z M15.763,6.748c-0.652,0.841-1.143,1.846-1.66,2.822c0.464,0.532,0.842,1.15,1.328,1.66
	c1.022-0.306,2.034-0.623,3.043-0.941C18.678,8.22,17.483,7.076,15.763,6.748z M10.34,12.503c0.097,1.124,1.04,1.847,2.047,1.825
	c2.593-0.054,2.516-4.368-0.332-3.984C10.972,10.491,10.228,11.193,10.34,12.503z M6.079,11.34c-1.165,1.27-0.537,3.883,0.941,4.372
	c0.903-0.572,1.781-1.17,2.656-1.771c-0.244-0.604-0.362-1.335-0.442-2.103C8.124,11.73,7.125,11.513,6.079,11.34z M19.249,13.664
	c0.078-0.657-0.159-2.31-0.72-2.213c-0.869,0.149-2.096,0.308-3.043,0.498c0.03,0.843-0.258,1.366-0.443,1.992
	c0.846,0.685,1.772,1.289,2.712,1.881C18.396,15.38,19.123,14.719,19.249,13.664z M10.119,14.494
	c-0.391,0.338-0.778,0.655-1.328,1.162c-0.391,0.361-1.027,0.81-1.051,1.107c-0.031,0.383,0.642,1.207,0.83,1.383
	c0.688,0.641,2.049,0.924,3.154,0.554c0.115-1.065,0.187-2.175,0.277-3.265C11.29,15.204,10.704,14.85,10.119,14.494z M14.545,14.55
	c-0.533,0.352-1.109,0.66-1.825,0.83c-0.027,1.17,0.21,2.077,0.166,3.265c1.871,0.776,3.668-0.354,4.095-1.881
	C16.181,16.013,15.452,15.192,14.545,14.55z"/>
</svg>
