<?xml version="1.0" encoding="UTF-8" standalone="no"?>
<!-- Generator: Adobe Illustrator 15.1.0, SVG Export Plug-In . SVG Version: 6.00 Build 0)  -->

<svg
   xmlns:dc="http://purl.org/dc/elements/1.1/"
   xmlns:cc="http://creativecommons.org/ns#"
   xmlns:rdf="http://www.w3.org/1999/02/22-rdf-syntax-ns#"
   xmlns:svg="http://www.w3.org/2000/svg"
   xmlns="http://www.w3.org/2000/svg"
   xmlns:sodipodi="http://sodipodi.sourceforge.net/DTD/sodipodi-0.dtd"
   xmlns:inkscape="http://www.inkscape.org/namespaces/inkscape"
   version="1.1"
   id="Layer_1"
   x="0px"
   y="0px"
   width="24"
   height="24"
   viewBox="0 0 24 24"
   enable-background="new 0 0 500 500"
   xml:space="preserve"
   inkscape:version="0.48.5 r10040"
   sodipodi:docname="Bankmelli.svg"><metadata
     id="metadata3073"><rdf:RDF><cc:Work
         rdf:about=""><dc:format>image/svg+xml</dc:format><dc:type
           rdf:resource="http://purl.org/dc/dcmitype/StillImage" /><dc:title></dc:title></cc:Work></rdf:RDF></metadata><defs
     id="defs3071" /><sodipodi:namedview
     pagecolor="#ffffff"
     bordercolor="#666666"
     borderopacity="1"
     objecttolerance="10"
     gridtolerance="10"
     guidetolerance="10"
     inkscape:pageopacity="0"
     inkscape:pageshadow="2"
     inkscape:window-width="657"
     inkscape:window-height="480"
     id="namedview3069"
     showgrid="false"
     inkscape:zoom="5.3400704"
     inkscape:cx="11.718139"
     inkscape:cy="19.071972"
     inkscape:window-x="0"
     inkscape:window-y="27"
     inkscape:window-maximized="0"
     inkscape:current-layer="Layer_1" /><path
     clip-rule="evenodd"
     d="m 12.227026,1.5170887 c -0.0056,0.1306659 -0.171272,0.101515 -0.306848,0.1022824 0.03923,-0.2332043 0.141508,-0.1064765 0.306848,-0.1022824 z m -0.255707,1.1251104 c 0.120439,0.0011 0.150561,-0.088116 0.306849,-0.05114 0.02296,-0.1846201 0.131126,-0.2475236 0.05114,-0.4091312 -0.127189,0.00556 -0.158333,0.095839 -0.255706,0 -0.03044,-0.1059644 0.06321,-0.3359475 -0.05114,-0.3579896 -0.08638,0.2034402 -0.04015,0.539439 -0.05114,0.8182624 z m -1.227393,0.7159792 c 0.002,-0.4111765 -0.06894,-0.7493233 -0.255706,-0.9716864 0.02255,0.3865777 0.07139,0.7468687 0.255706,0.9716864 z m 1.125111,-0.306848 c 0.02143,0.1831376 0.297284,0.1118971 0.306848,0.306848 C 12.02916,3.6205848 11.82168,3.8222359 11.357623,3.7673095 11.090307,3.5517999 11.331291,3.1814857 11.25534,2.9490479 c -0.108471,0.33743 -0.199246,0.7435447 -0.05114,1.0739688 0.704727,0.6142081 1.462387,-0.9046915 0.715978,-1.2785352 0.03708,0.1564422 -0.08822,0.1504075 -0.05114,0.3068488 z m 3.068484,0.2557072 c 0.128671,0.1031012 0.350369,-0.028337 0.357989,-0.2045656 -0.07298,-0.012223 -0.08628,-0.084177 -0.153424,-0.1022832 -0.06607,0.1043799 -0.247933,0.093026 -0.204565,0.3068488 z M 9.6699568,3.9718759 C 9.5905345,3.642167 9.5336653,3.2899047 9.3119671,3.1024719 c 0.027667,0.3814638 0.1289276,0.6893344 0.3579897,0.869404 z m 0.2045657,0.306848 C 10.26913,4.2124973 10.269487,3.4811222 10.232512,3.1536127 10.016644,3.5128818 10.148384,3.944617 9.8745225,4.2787239 z M 15.244369,3.6138863 c -0.32127,0.059884 -0.370827,0.4751541 -0.664839,0.5625552 -0.739658,0.2198562 -1.672067,-0.3964991 -1.994514,-0.7671216 -0.464671,0.7112746 1.251021,1.2102616 1.892232,0.8182624 0.165493,0.2365805 -0.318304,0.4148079 -0.153424,0.6648384 0.120949,0.1666702 0.289665,-0.047206 0.40913,-0.05114 0.06986,-0.2232828 -0.198018,-0.1088291 -0.153424,-0.3068479 0.166722,-0.3106327 0.37323,-0.5814267 0.613697,-0.8182624 0.511415,-0.070118 1.078982,0.298154 1.380818,0.1022824 C 16.193247,3.6878375 15.785445,3.584225 15.244369,3.613888 z M 8.6982706,5.4038343 C 9.5949837,5.3180193 9.3514485,3.8517447 8.8005534,3.5627447 9.1195221,4.0172381 9.412051,4.9659111 8.5448463,5.0458447 8.3369566,5.0661962 8.3874843,4.8281871 8.237998,4.7901375 8.2654608,5.1206644 8.4638895,5.2802258 8.6982706,5.4038343 z m 1.6365244,-1.329676 c -0.01632,0.1200799 -0.0808,0.1919335 -0.05114,0.3579896 0.144526,-0.042244 0.132507,0.072056 0.255707,0.05114 0.05211,-0.1626807 0.09911,-0.3301688 0.306848,-0.2045656 0.02946,-0.1069364 0.12678,-0.1459572 0.102284,-0.3068479 -0.09753,-0.021792 -0.09257,-0.1461115 -0.255708,-0.1022833 -0.06771,0.2226697 -0.08167,0.2668046 -0.357989,0.2045656 z m 4.909574,1.0739696 c 0.193059,0.022601 0.240058,-0.1008512 0.357989,-0.1534248 -0.398544,-0.3844802 0.427594,-0.7785256 0.204566,-0.9716864 -0.201957,0.3313962 -0.680232,0.6426944 -0.562555,1.1251112 z M 8.5448463,4.5344311 c 0.068172,0 0.1363942,0 0.2045656,0 0.058864,-0.060448 0.057892,-0.1807848 0.051142,-0.3068488 -0.060449,-0.058864 -0.1807849,-0.057896 -0.3068484,-0.05114 5.122e-4,0.1358312 -0.019331,0.2920679 0.051142,0.3579896 z M 8.237998,4.7901375 c 0.059017,-0.32756 -0.156237,-0.1123057 0,0 l 0,0 z m 6.699523,0.5625552 c -0.01146,0.096709 0.05763,0.1128187 0.05114,0.2045665 0.259951,0.026897 0.404732,-0.1179327 0.306848,-0.3068489 -0.212033,-0.058612 -0.199247,0.1076019 -0.35799,0.1022824 z M 6.7037561,8.0631871 c 0.01882,0.08699 -0.03989,0.0965 -0.1022828,0.102283 0.00629,0.227886 -0.1261658,0.317077 -0.1534242,0.511414 0.034112,0 0.068172,0 0.1022828,0 -0.00767,-0.214385 0.02644,-0.123149 0.1022828,-0.05114 0.066535,-0.126984 -0.1500489,-0.212237 0,-0.255707 0.067609,6.12e-4 0.046744,0.08965 0.1022828,0.102283 0,-0.05114 0,-0.102283 0,-0.153424 -0.061779,0.0052 -0.031452,-0.07436 0,0 0.034112,0 0.068172,0 0.1022828,0 0.011455,-0.09671 -0.057636,-0.112869 -0.051142,-0.204566 0.065359,0.0028 0.070831,0.06556 0.1534242,0.05114 0,-0.06817 0,-0.136394 0,-0.204565 -0.068172,0 -0.1363942,0 -0.2045656,0 0.00834,0.05948 -0.011302,0.09098 -0.051142,0.102282 z m 0,0 c -0.031451,-0.07436 -0.061779,0.0052 0,0 l 0,0 z m -0.1022828,0.102283 c 0.00941,-0.04352 -0.019945,-0.04823 -0.051142,-0.05114 -0.00941,0.04352 0.019945,0.04823 0.051142,0.05114 z m -1.5342419,0.255707 c -0.021428,-0.02143 0.033498,0.0335 0,0 l 0,0 z m 6.0346846,0.715979 c 0.172705,0.281636 0.581682,0.04853 0.920545,0.05114 0.569868,0.0043 1.203715,0.207634 0.971686,-0.664838 -0.181705,0.142224 -0.198531,0.449277 -0.511413,0.460273 -0.269464,-0.0033 -0.271459,-0.274067 -0.511415,-0.306849 -0.03309,0.188558 -0.175005,0.268237 -0.357989,0.306849 -0.353285,-0.0047 -0.407649,-0.308332 -0.562555,-0.511414 -0.08755,0.247064 -0.02363,0.451271 0.05114,0.664837 z M 6.294625,9.0348741 c 0.115733,-0.05559 0.2875169,-0.208862 0.1534241,-0.35799 -0.01703,0 -0.034111,0 -0.051142,0 0.050579,0.204003 -0.1528616,0.153987 -0.1022828,0.35799 z m 0.3068483,-0.255707 c 0.00834,-0.05948 -0.011302,-0.09098 -0.051142,-0.102283 -0.00834,0.05948 0.011302,0.09098 0.051142,0.102283 z m -0.4091311,0.357989 c 0.045516,-0.02266 0.091492,-0.0449 0.1022828,-0.102282 -0.086992,-0.01882 -0.096504,0.03989 -0.1022828,0.102282 z m 0,0 c -0.01703,0 -0.034112,0 -0.051142,0 0.00972,0.05805 0.051295,0.02838 0.051142,0 z m 6.2903918,0.511415 c -0.210754,-0.486662 -0.738073,-0.438078 -0.920546,0.05114 -0.0065,1.3191419 0.09297,2.8049519 0.05114,3.9890289 -1.177121,-0.521181 -1.538998,-3.146423 -0.562555,-4.1935939 -0.755461,0.454903 -1.1923616,1.2283139 -1.1762522,2.4547869 0.1225861,1.155949 0.7718262,1.785193 1.3808182,2.454787 -0.321782,0.140639 -0.810643,0.203543 -1.227394,0.102283 0.18682,0.460988 1.032289,0.263275 1.636525,0.306848 0.208913,0.06383 0.193212,0.352313 0.409131,0.409132 0.04879,-0.820615 1.677693,-0.06111 1.943373,-0.664839 -0.369753,0.04158 -0.925199,0.02097 -1.176252,-0.204565 0.812943,-0.700177 1.553879,-1.701321 1.278535,-3.324191 -0.166006,-0.294267 -0.256117,-0.664429 -0.460273,-0.920545 -0.155521,-0.1772049 -0.472086,-0.7092289 -0.613697,-0.5625549 0.881882,1.1218889 0.517449,3.5724309 -0.613697,4.1424519 -0.0383,-1.402041 0.08146,-2.646106 0.05114,-4.0401689 z m -1.738808,-0.255708 c -0.06536,-0.0028 -0.07083,-0.06556 -0.153424,-0.05114 -0.993984,0.608429 -1.9835188,1.2213589 -1.9433728,2.8639179 0.1738295,0.883058 0.5271141,1.586713 1.1762519,1.994515 C 8.8969036,12.554834 9.4212562,10.197165 10.743926,9.3928641 z m 3.989028,2.8127769 c -0.08296,0.786452 -0.328378,1.410429 -0.613696,1.994515 0.695677,-0.24374 1.170473,-1.14659 1.278535,-2.147939 -0.08003,-1.471236 -0.901367,-2.2012279 -1.994515,-2.6593529 0.604236,0.7765829 1.355401,1.4062869 1.329676,2.8127769 z M 5.9366352,10.466833 c 0.07436,-0.03145 -0.00521,-0.06178 0,0 l 0,0 z m 12.5296418,0.102282 c -0.203799,-0.03334 -0.14647,0.19444 -0.153425,0.35799 0.135627,0.01632 -0.04787,-0.286494 0.153425,-0.204565 0,-0.05114 0,-0.102283 0,-0.153425 z m 0,1.534242 c 0,-0.05114 0,-0.102282 0,-0.153424 -0.06511,0.01156 -0.06704,0.152657 0,0.153424 z m 0.255707,0.664838 c 0.0079,-0.127188 -0.08035,-0.158334 -0.102283,-0.255707 -0.03119,-0.0029 -0.06055,-0.0076 -0.05114,-0.05114 0.03119,0.0029 0.06055,0.0076 0.05114,0.05114 0.262713,-0.06479 -0.138337,-0.241489 -0.102282,-0.409131 -0.01703,0 -0.03411,0 -0.05114,0 -0.135423,0.287517 0.08045,0.532025 0.255707,0.664838 z m -0.511414,0.971687 c -0.01703,0 -0.03411,0 -0.05114,0 -0.05723,0.07365 -0.05513,0.124785 0.05114,0.153425 0.0058,-0.06239 0.01529,-0.121052 0.102282,-0.102284 0.01146,-0.03968 0.0013,-0.100902 0.05114,-0.102283 -1.53e-4,0.05129 0.04143,0.06086 0.05114,0.102283 0.05738,-0.01084 0.07963,-0.05672 0.102283,-0.102283 -0.170761,-0.09205 -0.0097,-0.251002 -0.153424,-0.40913 -0.108573,0.09599 -0.0011,0.408056 -0.153424,0.460272 z M 6.0900594,13.944447 c -0.1381329,-0.01534 -0.091697,-0.215151 -0.2045656,-0.255707 -0.062239,0.185592 0.082338,0.423605 0.2045656,0.255707 z M 18.21057,13.893307 c 0,0.03411 0,0.06817 0,0.102283 0.04112,-0.02706 0.083,-0.05334 0.153424,-0.05114 0.01146,-0.03968 0.0013,-0.100902 0.05114,-0.102283 0,-0.01703 0,-0.03411 0,-0.05114 -0.03411,0 -0.06817,0 -0.102283,0 0.01877,0.08699 -0.03989,0.0965 -0.102282,0.102283 z m 2.045656,-0.05114 c -0.214283,-0.04378 -0.112,0.22896 -0.204566,0.306849 -0.01703,0 -0.03411,0 -0.05114,0 0,0.01703 0,0.03411 0,0.05114 0.183035,0.04178 0.253866,-0.108881 0.153424,-0.204566 0.03411,0 0.06817,0 0.102283,0 0,-0.05114 0,-0.102283 0,-0.153424 z m -2.301364,0.869403 c -0.04976,0.0013 -0.03968,0.0626 -0.05114,0.102282 0.04976,-0.0013 0.03968,-0.0626 0.05114,-0.102282 z m 1.687667,0.102282 c 0.01687,0.388419 0.33201,0.514279 -0.153424,0.613697 0,0.03412 0,0.06817 0,0.102283 0.03411,0 0.06817,0 0.102282,0 -0.0086,-0.110926 0.181399,-0.02316 0.255708,-0.05114 -0.0011,-0.120437 0.08812,-0.15056 0.05114,-0.306848 -0.0918,0.0066 -0.11967,-0.05079 -0.102282,-0.153424 -0.07569,-0.0095 -0.04689,-0.123609 -0.05114,-0.204566 -0.03411,0 -0.06817,0 -0.102283,0 z M 4.7603831,15.478689 c 0.1608908,-0.05861 0.1242736,0.08029 0.2045656,0.102283 0.037078,-0.156442 -0.088219,-0.150406 -0.051142,-0.306849 -0.034112,0 -0.068172,0 -0.1022828,0 0.00649,0.09175 -0.062597,0.107858 -0.051142,0.204566 z m 14.4218729,0.255707 c 0.191065,0.05467 0.145805,-0.126984 0.306849,-0.102282 0,-0.03412 0,-0.06817 0,-0.102283 -0.151737,0.01872 -0.252332,0.08863 -0.306849,0.204565 z M 5.0672314,15.683255 c 0.01882,-0.08699 -0.03989,-0.0965 -0.1022827,-0.102283 0.022655,0.04556 0.044902,0.09144 0.1022827,0.102283 z m 12.1205106,0.869404 c -0.0023,0.08745 0.038,0.132456 0.102283,0.153424 0.0023,-0.08745 -0.038,-0.132456 -0.102283,-0.153424 z m -0.153424,0.409131 c 0.120284,0.105249 0.393073,0.05293 0.409131,-0.102283 -0.06434,-0.01263 -0.0516,-0.101669 0,-0.102283 -0.0083,-0.05993 -0.09323,-0.04316 -0.153424,-0.05114 -0.07656,0.09395 -0.213464,0.127496 -0.255707,0.255707 z m 0.204565,0 c 0.03349,0.03349 -0.02143,-0.02143 0,0 l 0,0 z m -0.818262,0.920545 c 0.0049,0.08034 -0.0068,0.177307 0.102283,0.153424 0.01146,-0.03968 0.0013,-0.100901 0.05114,-0.102283 0.05129,-1.53e-4 0.06086,0.04143 0.102282,0.05114 0,-0.05114 0,-0.102282 0,-0.153424 -0.08259,0.01442 -0.08807,-0.04833 -0.153424,-0.05114 0.01877,0.08699 -0.03989,0.0965 -0.102283,0.102283 z M 5.9366352,18.905163 c 0.086991,0.01877 0.096504,-0.03989 0.1022828,-0.102283 -0.086991,-0.01877 -0.096504,0.03989 -0.1022828,0.102283 z m 0.3068484,0 c -0.00972,-0.05805 -0.051295,-0.02844 -0.051142,0 0.01703,0 0.034111,0 0.051142,0 z m -0.1534242,0 c 0.027053,0.04111 0.05334,0.083 0.051142,0.153425 0.1337347,0.01442 0.2199591,-0.01867 0.2045655,-0.153425 -0.034111,0 -0.068172,0 -0.1022827,0 1.534e-4,0.02844 -0.041424,0.05805 -0.051142,0 -0.034112,0 -0.068172,0 -0.1022828,0 z m 0.3579897,0.153425 c -0.087452,-0.0023 -0.1324562,0.038 -0.1534241,0.102282 0.1337347,-0.01442 0.2199591,0.01867 0.2045656,0.153424 0.051142,0 0.1022827,0 0.1534241,0 -0.034623,-0.118801 -0.1699428,-0.136905 -0.2045656,-0.255706 z m 0.3579899,0.40913 c 0.07436,-0.03145 -0.00521,-0.06183 0,0 l 0,0 z m 1.7388073,-0.05114 c -0.020763,0.259389 0.2054862,0.271868 0.2557071,0.460273 0.1069876,0.06346 0.1921892,0.148719 0.2557068,0.255706 0.1042773,0.01504 0.1002883,0.138389 0.2045655,0.153425 -0.038098,-0.157413 0.1403832,-0.09829 0.1022829,-0.255707 -0.1016181,-6.51e-4 -0.065,-0.139565 -0.2045656,-0.102283 0,0.03411 0,0.06817 0,0.102283 0.083105,-0.01529 0.1379282,0.06909 0.051142,0.102282 -0.039839,-0.0113 -0.059478,-0.04281 -0.051142,-0.102282 -0.039686,-0.01146 -0.100902,-0.0013 -0.1022828,-0.05114 0.011302,-0.03984 0.042806,-0.05948 0.1022828,-0.05114 0,-0.05114 0,-0.102283 0,-0.153425 -0.065359,0.0029 -0.070831,0.06556 -0.1534242,0.05114 -0.011455,0.03968 -0.00138,0.100903 -0.051142,0.102283 0.011455,-0.03968 0.00138,-0.100902 0.051142,-0.102283 0,-0.03411 0,-0.06817 0,-0.102282 -0.2415406,0.0029 -0.2906364,-0.186667 -0.409131,-0.306848 -0.01703,0 -0.034112,0 -0.051142,0 z m 0.7159794,0.869404 c 0,0.03411 0,0.06817 0,0.102282 0.034111,0 0.068172,0 0.1022829,0 0.00291,-0.03119 0.00762,-0.06055 0.051142,-0.05114 -1.537e-4,-0.05129 0.041424,-0.06086 0.051142,-0.102282 -0.1042774,-0.102743 -0.1002883,0.02261 -0.2045658,0.05114 z m 0.1022829,0.102282 c 0.00578,0.06239 0.01529,0.121052 0.1022829,0.102284 0.00972,-0.04143 0.051295,-0.05099 0.051142,-0.102284 -0.00137,-0.04976 -0.062597,-0.03968 -0.1022829,-0.05114 0.00941,0.04353 -0.019945,0.04823 -0.051142,0.05114 z m 5.0118564,0.511415 c 0.0074,-0.06045 0.09103,-0.11599 0,-0.153425 -0.0074,0.06045 -0.09103,0.115938 0,0.153425 z m 1.483101,0.971686 c 0.03119,0.0029 0.06055,0.0076 0.05114,0.05114 0.07042,0.0022 0.112306,-0.02409 0.153424,-0.05114 0,-0.01703 0,-0.03411 0,-0.05114 -0.01585,-0.0694 -0.128058,-0.0424 -0.204566,-0.05114 0,0.03411 0,0.06817 0,0.102283 z M 11.971319,0.49426074 c 0.08259,-0.014421 0.08807,0.048326 0.153425,0.05114 -0.04224,0.1445261 0.07206,0.1325081 0.05114,0.2557072 1.246725,1.24212236 3.546963,1.43083386 4.602726,2.86391846 0.535603,0.879274 0.897327,1.9324802 1.892232,2.352504 -0.104482,0.355791 -0.55156,0.3689858 -0.869404,0.5114144 0.144576,0.3873452 0.82578,0.4031471 0.76712,-0.153424 0.41041,-0.069453 0.400694,0.2811753 0.511415,0.5114136 0.332726,0.1075505 0.569715,0.6334375 0.357989,0.9716867 0.07139,0.184364 0.172245,0.339169 0.255708,0.511414 -0.04331,0.382844 -0.346739,0.505584 -0.35799,0.920545 0.181909,0.210191 0.326231,0.457971 0.255706,0.9205449 0.269209,-0.03764 0.203748,-0.4098979 0.460273,-0.4602729 0.350421,0.153476 0.510289,0.8686369 0.255707,1.1762519 0.4346,0.503334 -0.0052,0.904078 -0.153424,1.380819 -0.246399,0.179761 -0.612265,0.240057 -0.71598,0.562555 0.336562,0.0896 0.216329,0.636045 0.511414,0.767121 0.172194,-0.03237 0.262253,-0.146878 0.511414,-0.102284 0.195872,0.448664 -0.183597,0.759501 -0.05114,1.176252 -0.124683,0.07993 -0.303423,0.10571 -0.409132,0.204566 0.252434,0.165136 0.223386,0.575443 0.05114,0.818262 -0.510493,-0.05022 -0.514993,0.405552 -1.022828,0.357992 -0.299739,0.215816 -0.05564,0.394862 -0.153424,0.76712 0.163755,0.126473 0.302042,-0.114352 0.562555,-0.05114 0.227376,0.49648 -0.184978,1.319959 -0.715979,1.227392 0.264503,0.490703 -0.130973,0.693274 -0.255707,1.07397 -0.638398,-0.122177 -1.009991,0.178943 -1.431959,0.409131 0.492133,0.61472 -0.326998,0.999661 -0.409131,1.636525 0.126779,0.180069 0.603059,0.01064 0.664838,0.255707 -0.154857,0.335232 -0.58066,0.570891 -0.971686,0.511414 -0.05953,0.264401 -0.287108,0.3607 -0.460273,0.511414 -0.55156,-0.0221 -0.907402,-0.159715 -1.534242,-0.05114 -0.08771,0.105607 0.143656,0.261588 -0.05114,0.409131 0.520364,-0.103255 1.224632,-0.149435 1.687666,0.05114 -0.05549,0.251359 -0.626636,-0.01294 -0.767121,0.153424 -0.08136,0.151634 0.282607,0.295393 0.306849,0.511414 -0.654355,-0.163908 -1.774148,0.137621 -2.199081,-0.255707 -0.02419,-0.160584 0.137621,-0.135116 0.153424,-0.255707 -0.768962,-0.02787 -1.161677,-0.4839 -1.84109,-0.460273 -0.153015,0.273146 -0.521028,0.331345 -0.920546,0.35799 -0.182216,0.108727 0.225637,0.19045 0.05114,0.306848 -0.446719,0.383459 -1.3949317,0.323623 -2.0456548,0.153424 0.015138,-0.172346 0.2267608,-0.14831 0.2557068,-0.306848 -0.2081445,-0.183954 -0.6440737,-0.140076 -0.7671199,-0.40913 0.4104097,-0.1008 1.1139618,0.158641 1.585383,0 0.029047,-0.126064 -0.020251,-0.406319 0.2045658,-0.460273 C 8.4383685,22.30172 7.6836749,21.641535 6.8571788,21.053103 6.6797693,21.012083 6.6605912,21.129253 6.499189,21.104243 6.495759,20.769369 7.0213425,20.540921 7.4708754,20.490547 7.4867314,20.287157 7.3527405,20.233663 7.3685943,20.030274 6.232437,19.444705 5.0862049,18.869159 4.7603831,17.473203 4.6996781,17.329343 4.378408,17.446053 4.4023933,17.217497 c 0.2370915,-0.134809 0.7890095,-0.153783 1.0228279,0 0.160942,-0.06541 0.085355,-0.435418 0.2045657,-0.664838 C 4.753837,15.843225 3.911487,15.100192 3.7375552,13.68874 3.7253325,13.547539 3.5474112,13.572036 3.4818483,13.484175 3.6562918,13.11923 4.301747,13.436101 4.5046761,13.535315 4.5973443,13.372276 4.6881203,13.207345 4.7092417,12.972759 3.8924625,12.367452 3.6487223,10.90578 3.839838,9.5974291 4.1446407,9.7870111 4.2766878,10.149296 4.5046761,10.415691 4.6216365,10.157632 4.8260486,9.9869731 4.9649487,9.7508531 4.1931738,8.8469291 4.7890734,7.2956064 5.2206557,6.4266623 5.561871,6.4945822 5.7504293,6.715151 5.783211,7.0915008 5.9840433,7.0358121 6.28813,6.6423766 6.5503319,6.4778039 6.3320093,6.2017941 5.8539396,6.18548 5.7320696,5.8129664 5.7133009,5.6578029 5.8986372,5.7067965 5.9877766,5.6595415 6.7439021,4.949597 7.1921053,3.9317811 7.8800083,3.1536127 8.8609511,2.0377591 10.83235,1.9123605 11.869037,0.85225034 c -0.0065,-0.091696 0.0626,-0.1078572 0.05114,-0.2045656 -0.01442,-0.082594 0.04833,-0.088066 0.05114,-0.153424 z m 4.602726,3.32419036 c 0,-0.017033 0,-0.034107 0,-0.05114 C 15.523089,2.3463988 13.244536,2.153136 11.971319,0.95453524 11.897781,1.221953 11.63711,1.3021941 11.459906,1.4659488 10.409564,2.0691616 9.0223023,2.3355061 8.1868566,3.1536144 7.3409779,3.9442607 6.8907802,5.1305882 6.038918,5.9152504 6.7570455,6.2029203 7.2309216,6.7347916 7.8288668,7.1426441 8.882942,5.8271846 9.946683,4.52134 12.278168,4.4832912 14.287207,4.6903629 15.294436,5.8992944 16.267197,7.1426441 16.958935,6.777443 17.577951,6.3395703 18.363994,6.0686744 17.453575,5.6323357 17.190759,4.5484456 16.574045,3.8184528 z m 0.818262,8.4894719 C 17.432909,9.6501561 16.414228,7.4447344 15.142086,6.0686727 14.678745,5.6626103 14.173826,5.2981252 13.607844,4.9947031 13.055773,4.8478765 12.556326,4.648323 11.817895,4.6878551 c -0.06536,0.00286 -0.07083,0.065561 -0.153424,0.05114 -3.0489983,0.5776419 -4.7005075,3.355438 -4.9607149,6.6995229 -0.2209308,2.839217 0.6107817,5.595943 2.4036455,7.057512 2.0220284,0.04408 4.1416854,-0.08541 5.9835434,-0.05114 1.372379,-1.299401 2.261728,-3.540621 2.301362,-6.136967 z m -7.057512,9.15431 c 0.03145,0.07436 0.06178,-0.0052 0,0 -0.06526,-0.265527 -0.145753,-0.954656 0.102283,-1.073969 1.105319,-0.143656 1.905579,-0.151073 3.221908,-0.05114 0.180068,0.14386 0.24103,0.406778 0.204565,0.76712 -0.154651,0.220369 -0.426928,0.323112 -0.562555,0.562556 0.683811,-0.168562 0.80517,-0.899577 0.971686,-1.585384 0.399722,-0.282198 0.867205,-0.496583 1.278536,-0.76712 0.233255,-0.0628 0.161606,0.179352 0.306848,0.204565 0.389799,-0.28859 0.607508,-1.047836 0.306848,-1.585383 0.112562,-0.228346 0.225022,-0.456846 0.511414,-0.511414 -0.08469,-0.522819 0.263787,-0.976801 0.562555,-1.278535 0.203492,0.103357 0.234074,0.379622 0.460273,0.460273 0.517806,-0.519136 0.207736,-1.386495 -0.102283,-1.892232 0.11517,-0.208708 0.165238,-0.482519 0.357989,-0.613697 0.01406,-0.201599 -0.218628,-0.15639 -0.204565,-0.357989 0.241541,-0.13348 0.29795,-0.452141 0.409132,-0.715981 0.207633,-0.111999 0.356353,0.228859 0.35799,0 -0.349603,-0.315235 -0.354871,-0.974805 -0.664839,-1.329676 0.0076,-0.464261 0.28675,-1.024105 0,-1.585382 0.09042,-0.04593 0.149282,-0.1234559 0.255707,-0.1534249 0.221391,0.01724 0.17879,0.2985639 0.409132,0.3068479 0.07656,-0.07681 0.09149,-0.215356 0.204565,-0.255706 -0.156493,-0.3378919 -0.354308,-0.6344609 -0.869404,-0.6136969 -0.278516,-0.335181 -0.626329,-0.601014 -0.869404,-0.971687 0.141867,-0.50993 -0.283885,-0.6396762 -0.306848,-1.1251103 0.2151,-0.1085218 0.589711,0.00844 0.818263,0.051142 0,-0.2215957 0,-0.4432427 0,-0.6648384 -0.486049,0.1106192 -0.662639,0.5306431 -1.125112,0.6648384 0.845061,1.5940263 1.424851,3.6638202 1.176253,6.1881082 -0.591451,3.227125 -1.871059,5.766039 -4.960716,6.494957 -0.392101,0 -0.784151,0 -1.176252,0 C 6.8055275,19.281154 5.0709648,11.731917 7.7265841,7.4494909 7.4144681,7.1308796 7.1817236,6.7328465 6.7037561,6.5800863 6.5552415,6.9088745 6.5411265,7.3721138 6.4991906,7.8074805 6.749272,7.715784 7.0696728,7.4245338 7.4197357,7.6029148 7.0571432,8.5870801 6.611497,9.4880891 5.5786454,9.8019951 5.6362304,9.9489751 5.5890274,10.200744 5.6809282,10.313409 5.8639121,10.155484 6.0607554,10.011368 6.294625,9.9042781 6.5431722,11.499633 5.652289,12.22804 5.5786454,13.330751 c 0.200014,-0.226198 0.3052118,-0.547111 0.5625554,-0.71598 0.12949,0.179507 -4.091e-4,0.453165 0,0.664839 0.4599657,0.884541 0.1755684,2.154944 -0.1022828,3.017341 0.1541913,0.169688 0.2416942,0.406115 0.4602726,0.511415 0.1110791,-0.298052 0.2283463,-0.589916 0.4091311,-0.818263 0.3376355,1.025436 1.1405554,2.017733 0.8182624,3.375332 0.1523501,0.137469 0.3815147,0.198071 0.5625553,0.306849 -0.072672,-0.278362 -0.072416,-0.868381 -0.051142,-1.073969 0.3959366,0.422326 0.7131155,0.923409 1.2785349,1.176252 0.2962109,0.47091 0.4389976,1.095244 0.6648377,1.636525 0.04112,0.02705 0.08305,0.05334 0.153424,0.05114 z M 18.875408,7.0403591 c -0.0381,0.1574135 0.140383,0.098294 0.102282,0.2557073 0.139566,0.00463 0.102948,-0.085202 0.204566,0 0.09921,0.3156445 -0.04081,0.3983401 -0.102282,0.6648387 0.20569,0.05002 0.186001,0.325412 0.306848,0.460272 -0.08878,0.132865 -0.08218,0.361058 -0.255707,0.409131 0.04664,-0.237194 0.139258,-0.72631 -0.102283,-0.818262 0.07006,0.358706 0.08929,0.974448 0,1.329676 0.282505,-0.440123 0.586541,-1.051723 0.153424,-1.5342418 0.148055,-0.088628 0.210294,-0.4125575 0,-0.5114139 0.0097,-0.041427 0.05129,-0.050988 0.05114,-0.1022833 -0.227528,0.057079 -0.205639,-0.1353199 -0.35799,-0.153424 -0.01964,-0.2019568 -0.05922,-0.3840203 -0.204565,-0.4602728 0.02475,0.195207 -0.01452,0.3264363 -0.102283,0.4091312 0.164164,0.044856 0.106016,-0.1326091 0.204566,-0.153424 0.01166,0.090622 -0.05155,0.2561166 0.102282,0.2045656 z M 5.271797,6.8869352 c -0.01703,0 -0.034111,0 -0.051142,0 0.037998,0.2085036 -0.1648287,0.1760802 -0.1022828,0.4091312 -0.01703,0 -0.034111,0 -0.051142,0 -0.1274435,0.4712167 -0.3904637,1.1086947 -0.2045648,1.5853827 -0.038203,0.345051 0.099317,0.514381 0.255707,0.664839 0,-0.306849 0,-0.613697 0,-0.920546 -0.1424287,0.209067 0.011813,0.514023 -0.1022828,0.664839 -0.068069,-0.119416 -0.086889,-0.288131 -0.1534242,-0.409132 0.048021,-0.552275 0.096555,-0.919215 0.255707,-1.5853827 0.2147939,0.118648 0.079269,-0.1919849 0.1534242,-0.4091312 0.095225,0.00708 0.1709146,0.033652 0.2045656,0.1022823 -0.0224,0.3295042 -0.07615,0.3353856 -0.1022828,0.6136971 -0.01703,0 -0.034111,0 -0.051142,0 -0.099368,0.088117 -0.07707,0.2979495 -0.1534242,0.4091315 -0.031452,-0.07436 -0.061779,0.0052 0,0 0.0717,0.326435 -0.1380818,0.219192 -0.1534242,0.35799 -0.015547,0.13491 0.1067832,0.131893 0.2045656,0.153424 C 5.1593368,8.1041511 5.3821595,7.9689851 5.3740792,7.6029146 5.6509587,7.4532237 5.6369971,6.5848432 5.2717964,6.7335112 c 0,0.05114 0,0.1022823 0,0.153424 z m 12.631925,0.8694037 c -0.0061,0.2015992 -0.222312,0.1563902 -0.102284,0.3579892 0.515352,0.234688 0.53044,0.969744 1.07397,1.176253 C 19.026837,8.4835701 18.59408,8.0970431 18.773126,7.5517732 18.566667,7.3832115 18.146183,7.4286249 18.21057,6.9892175 17.988923,6.921045 17.78804,6.832163 17.648014,6.6823696 c -0.0025,0.4919288 -0.01381,0.7914642 0.255708,1.0739693 z M 5.4763626,9.4951461 C 6.2268626,9.0692921 6.4115854,7.80523 6.3969078,6.7846528 5.7074706,7.2572502 5.1388294,8.3291741 5.4763626,9.4951461 z M 18.926549,7.3983492 c -0.0094,0.043522 0.01995,0.048226 0.05114,0.051142 0.213516,0.2024174 -0.265986,0.4650789 0,0.5625549 -0.0083,-0.153578 0.269004,-0.4792458 0,-0.5625549 0.0094,-0.043522 -0.01995,-0.048226 -0.05114,-0.051142 -0.134553,-0.2695662 -0.246195,-0.2574463 -0.511414,-0.4091317 0,0.068173 0,0.1363948 0,0.2045656 0.283068,-0.044443 0.290228,0.1871268 0.511414,0.2045661 z M 5.271797,7.4494909 c 0.059222,0.2020593 0.059222,-0.2020601 0,0 l 0,0 z m 12.018228,0.6136962 c 0.03145,0.07436 0.06183,-0.0052 0,0 0.07298,-0.2775441 -0.237041,-0.17209 -0.153424,-0.4602723 0.04143,-0.00972 0.05099,-0.051295 0.102282,-0.051142 0.04127,0.043981 0.140077,0.030377 0.153424,0.1022828 -0.02706,0.041118 -0.05334,0.083054 -0.05114,0.1534243 0.124939,-0.010944 0.18682,-0.2079922 0.255708,0 -0.01703,0 -0.03411,0 -0.05114,0 -0.02235,0.062905 -0.06541,0.1050442 -0.153424,0.1022832 -0.0381,0.157413 0.140382,0.09829 0.102282,0.255707 -0.08699,-0.01882 -0.0965,0.03989 -0.102282,0.102283 0.03411,0 0.06817,0 0.102282,0 -0.0027,0.198786 0.2621,0.01386 0.102283,-0.05114 -0.0013,0.04976 -0.0626,0.03969 -0.102283,0.05114 0.02266,-0.04552 0.04491,-0.09149 0.102283,-0.102283 -0.05334,-0.144883 -0.05334,-0.213106 0,-0.3579902 0.01703,0 0.03411,0 0.05114,0 -0.140178,-0.3733831 -0.564908,-0.3279185 -0.767121,-0.3068486 0.211777,0.1121533 0.193468,0.4542898 0.409132,0.5625558 z M 6.9594631,7.9609051 c 0,-0.03411 0,-0.06817 0,-0.102283 -0.090622,0.01166 -0.2561161,-0.051551 -0.2045656,0.102283 -0.1068855,-0.02163 -0.1354224,0.03508 -0.2045656,0.05114 0,0.03411 0,0.06817 0,0.102283 -0.01703,0 -0.034111,0 -0.051142,0 0.070064,0.291659 -0.1341439,0.309047 -0.1022828,0.562555 -0.01703,0 -0.034111,0 -0.051142,0 -0.041424,0.180171 -0.2059464,0.237296 -0.2045655,0.460272 -0.1123577,0.07518 -0.2064067,0.168665 -0.2557071,0.306849 -0.07436,0.03145 0.00521,0.06178 0,0 0.3110421,-0.149231 0.5708914,-0.349654 0.7159796,-0.664838 0.059938,-0.0083 0.043112,-0.09323 0.051142,-0.153424 0.1391557,-0.0313 0.2004231,-0.140486 0.2045656,-0.306849 0.047766,-0.03749 0.077479,-0.09298 0.1022828,-0.153424 0.01703,0 0.034111,0 0.051142,0 -0.031554,-0.219038 0.1665164,-0.208503 0.1534242,-0.409131 -0.2315682,-0.095174 -0.088935,0.183853 -0.2045656,0.204566 z m -1.8922317,-0.05114 c 0.033498,0.0335 -0.021428,-0.02143 0,0 l 0,0 z m 12.1716516,0.409131 c -0.126575,-0.0065 -0.08694,0.0626 0,0.05114 0.01964,0.170096 0.195923,0.448919 0.35799,0.306848 -0.175159,-0.04644 -0.211726,-0.231517 -0.35799,-0.306848 0,-0.01703 0,-0.03411 0,-0.05114 0.155368,-0.06045 -0.05544,-0.271254 0,0 z m 0.102283,0.05114 c 0.03349,0.0335 -0.02143,-0.02143 0,0 l 0,0 z m 0.613696,0.562555 c -0.04352,-0.0094 -0.04823,0.01994 -0.05114,0.05114 -0.109136,0.02388 -0.09737,-0.07308 -0.102283,-0.153425 0.07436,-0.03145 -0.0052,-0.06178 0,0 -0.03411,0 -0.06817,0 -0.102282,0 -0.03145,-0.07436 -0.06183,0.0052 0,0 0.0092,0.168664 0.211009,0.488912 0.306848,0.255707 -0.08699,0.01882 -0.0965,-0.03989 -0.102283,-0.102282 0.04352,0.0094 0.04822,-0.01995 0.05114,-0.05114 0.174393,0.01314 0.270794,0.104226 0.306849,0.255707 -0.04112,-0.02705 -0.083,-0.05334 -0.153424,-0.05114 -0.03145,-0.07436 -0.06183,0.0052 0,0 0,0.01703 0,0.03411 0,0.05114 0.263173,0.04362 0.405909,0.207787 0.562556,0.35799 -0.111694,-0.467893 -0.67026,-0.488963 -0.664839,-1.07397 -0.130666,0.03953 -0.235148,-0.200116 -0.306848,-0.05114 0.146009,0.09461 0.371184,0.318559 0.255706,0.511414 z m 1.278536,-0.511414 c 0.05922,0.20206 0.05922,-0.20206 0,0 l 0,0 z m -1.738807,0.05114 c 0.03349,0.0335 -0.02143,-0.02143 0,0 l 0,0 z m 0.204565,0.255706 c 0.03349,0.0335 -0.02143,-0.02143 0,0 l 0,0 z m -12.6830659,0.05114 c -0.039686,0.01146 -0.100902,0.0014 -0.1022828,0.05114 0.039685,-0.01146 0.100902,-0.0014 0.1022828,-0.05114 z M 18.619701,10.364547 c 0.11829,0.103305 0.273299,0.169942 0.306848,0.357989 -0.06669,0.120847 -0.324696,0.05032 -0.306848,0.255707 0.09998,0.320197 0.340397,0.684681 0.05114,0.971686 0.40862,0.08576 0.244712,0.744057 0.357989,1.125111 0.164574,-0.551406 0.386681,-1.045278 0.613697,-1.534241 -0.178995,-0.162528 -0.20344,-0.565113 0,-0.71598 -0.432093,-0.164523 0.05625,-1.2495379 -0.460273,-1.3296769 -0.221391,0.255912 -0.313343,0.6413129 -0.562555,0.8694039 z M 4.5558175,11.029388 C 4.67063,11.630556 4.6920582,12.325107 5.1695142,12.56363 5.0913192,11.465624 5.7307399,10.552291 5.3229385,9.5974301 5.0248864,10.032438 4.5674265,10.307988 4.5558175,11.029388 z M 19.847095,10.875964 c -0.143503,-0.0097 -0.0052,0.362951 0.05114,0.153424 -0.05993,-0.0083 -0.04316,-0.09323 -0.05114,-0.153424 0.220368,-0.140281 0.146059,-0.260361 0.255707,-0.511414 -0.200066,0.0045 -0.133786,0.275345 -0.255707,0.35799 0.03713,-0.156442 -0.08827,-0.150407 -0.05114,-0.306849 0.175006,0.02158 0.15368,-0.153168 0.255707,-0.204565 0.23571,0.215664 0.03595,0.614413 -0.102283,0.767121 0.09967,-0.02521 0.184058,0.253763 0,0.204565 -0.03145,-0.07436 -0.06183,0.0052 0,0 0.01585,0.0694 0.128058,0.04245 0.204565,0.05114 0.08674,0.193314 0.04577,0.248343 0.102283,0.409131 -0.211674,-0.04117 -0.262458,0.0785 -0.255707,0.255707 -0.05114,0 -0.102282,0 -0.153424,0 0.0358,-0.157413 0.0358,-0.09829 0,-0.255707 0.03411,0 0.06817,0 0.102283,0 0,-0.03411 0,-0.06817 0,-0.102283 -0.08699,-0.01882 -0.0965,0.03989 -0.102283,0.102283 -0.01703,0 -0.03411,0 -0.05114,0 0.02654,0.26522 -0.187075,0.290228 -0.204565,0.511414 0.165851,-0.0046 0.165032,-0.175926 0.255707,-0.255707 -0.01442,0.08259 0.04833,0.08807 0.05114,0.153425 -0.02286,0.147594 -0.220062,0.120897 -0.255707,0.255707 -0.05554,-0.01264 -0.03472,-0.10167 -0.102284,-0.102283 0.03948,0.130666 -0.200116,0.235147 -0.05114,0.306848 0.02235,-0.06291 0.06541,-0.105044 0.153425,-0.102283 0,-0.03411 0,-0.06817 0,-0.102282 0.299228,0.04353 0.330322,-0.181093 0.35799,-0.409132 0.08551,-0.085 0.170709,-0.170198 0.255707,-0.255707 0.114352,-0.02204 0.02071,-0.252025 0.05114,-0.357989 -0.08259,0.01442 -0.08807,-0.04833 -0.153425,-0.05114 -0.105914,-0.392101 0.186615,-0.830281 -0.05114,-1.227394 -0.174239,0.14964 -0.284806,0.36295 -0.460273,0.511414 0.10392,0.08356 0.189787,0.185285 0.204567,0.357989 z M 4.3512519,12.103357 c -0.017388,0.102641 0.010484,0.160022 0.1022828,0.153425 0.010228,0.26256 0.2236413,0.321833 0.3579898,0.460272 -0.047305,-0.123149 -0.093333,-0.247627 -0.1534242,-0.35799 0.00834,0.05948 -0.011302,0.09098 -0.051142,0.102283 -0.029406,-0.08991 0.061779,-0.300456 -0.051142,-0.306848 0.014269,0.149179 -0.012326,0.175824 -0.1022828,0.102283 0.08111,-0.108881 0.1633456,-0.325669 0,-0.409132 -0.022655,0.09666 0.069552,0.308178 -0.1022828,0.255707 -0.0046,-0.139565 0.085202,-0.102947 0,-0.204566 0.07436,-0.03145 -0.00521,-0.06178 0,0 -0.2617928,-0.377167 -0.3095589,-0.923357 -0.2045655,-1.4831 0.068632,0.03365 0.095225,0.109341 0.1022827,0.204566 -0.2123902,-0.04889 -0.010331,0.153168 0,0 0.1509694,0.261486 -0.1072435,0.642182 0.1022828,0.869403 0.00333,-0.548849 0.071547,-1.162546 -0.3068483,-1.329675 -0.111386,0.703244 -0.065052,1.566409 0.3068483,1.943372 z M 18.466277,11.285095 c -0.07993,0.239699 0.163345,0.290892 0.05114,0.409132 -0.239495,-0.05564 0.05565,0.239495 0,0 0.237705,-0.02859 -0.02163,-0.319993 -0.05114,-0.409132 -0.07916,-0.104737 -0.07916,-0.457818 0,-0.562555 0.01703,0 0.03411,0 0.05114,0 0.01161,-0.07364 0.152606,-0.01785 0.153424,-0.102283 -0.268799,-0.08924 -0.431532,-0.284499 -0.613697,-0.460272 0.254991,0.341368 0.139565,0.884848 0.35799,1.12511 0.01703,0 0.03411,0 0.05114,0 z M 5.783211,10.671399 c 0.031452,0.07436 0.061779,-0.0052 0,0 -0.00834,-0.05948 0.011302,-0.09098 0.051142,-0.102284 0.010331,0.153169 0.2123902,-0.04889 0,0 0.022655,-0.04551 0.044902,-0.09149 0.1022828,-0.102282 0.052164,0.06719 0.050118,0.188507 0.1022828,0.255707 -0.01703,0 -0.034112,0 -0.051142,0 -0.2069181,0.09957 0.068069,0.159561 0.051142,0.35799 -0.1255522,0.104124 -0.1825237,0.620498 -0.3068484,0.40913 0.044596,0.20339 0.044596,0.256884 0,0.460273 -0.051142,0 -0.1022828,0 -0.1534242,0 -0.00864,0.128007 0.078553,0.160073 0.1534242,0.204566 0,-0.06817 0,-0.136394 0,-0.204566 0.1910131,-0.301734 0.4530616,-0.753005 0.3068484,-1.227393 0.01703,0 0.034111,0 0.051142,0 -0.031657,-0.138798 0.06495,-0.405858 -0.051142,-0.460273 -0.1080618,0.130615 -0.2690549,0.208299 -0.4091312,0.306848 0.053851,0.360701 -0.090367,0.52333 -0.1022828,0.818263 0.2449162,-0.10126 0.1068855,-0.663968 0.2557069,-0.715979 z m 0.1022828,0.409131 c -0.07436,0.03145 0.00521,0.06178 0,0 0.07436,-0.03145 -0.00521,-0.06178 0,0 z m 12.2739352,0.460272 c -0.04143,0.0097 -0.05099,0.05129 -0.102283,0.05114 0.0471,0.124222 0.204667,0.29171 0.306848,0.204565 -0.230341,0.622544 0.266242,0.914613 0.409132,1.329676 -0.01427,-0.411892 0.09415,-0.946525 -0.255707,-1.022827 0.0044,-0.07257 0.0084,-0.144833 -0.05114,-0.153425 0.0023,-0.08745 -0.038,-0.132456 -0.102284,-0.153424 -0.03462,-0.118801 -0.169942,-0.136905 -0.204565,-0.255707 0.104686,-0.131995 0.02941,-0.402789 0,-0.460272 -0.193468,0.149589 0.05938,0.176591 0,0.460272 z m 1.738807,-0.05114 c -0.01472,-0.189837 -0.05785,-0.351341 -0.204565,-0.40913 0.01381,0.190756 0.07001,0.339118 0.204565,0.40913 z M 5.6809282,11.285095 c 0.059222,0.202059 0.059222,-0.202059 0,0 l 0,0 z m -0.2045656,0.613696 c -0.1817565,-0.04838 -0.1413036,0.661975 0,0.460273 0.014269,0.14918 -0.012325,0.175824 -0.1022828,0.102283 0.032065,0.155419 -0.065461,0.440481 0.051142,0.511414 0.00205,-0.253712 0.1180856,-0.393328 0.1534243,-0.613697 0.01703,0 0.034111,0 0.051142,0 -0.01166,-0.09062 0.05155,-0.256116 -0.1022829,-0.204565 -0.00649,0.09175 0.062597,0.107857 0.051142,0.204565 -0.034111,0 -0.068172,0 -0.1022828,0 -0.029662,-0.195411 -0.07932,-0.275089 0,-0.460273 0.086378,-0.101157 0.055846,-0.319173 0.1022828,-0.460272 -0.2073272,-0.01985 -0.056357,0.318713 -0.1022828,0.460272 z M 18.312852,11.48966 c 0.03349,0.0335 -0.02143,-0.02143 0,0 l 0,0 z M 4.3512519,11.796509 c 0.1571575,0.07825 0.1571575,-0.333954 0,-0.255707 0,0.08525 0,0.170454 0,0.255707 z M 18.363994,11.643085 c 0.03349,0.03349 -0.02143,-0.02143 0,0 l 0,0 z M 5.6809282,15.938962 c 0.088986,-1.401632 -0.050579,-2.574713 -0.7159795,-3.221908 -0.6394209,1.191288 -0.032628,2.548017 0.7159795,3.221908 z M 18.773126,13.535316 c 0.01632,0.12008 0.0808,0.191985 0.05114,0.357991 -0.185082,0.08771 -0.313906,0.231567 -0.460273,0.357989 -0.01953,0.190041 0.207225,0.133683 0.153424,0.35799 -0.07334,0.08008 -0.2666,0.04025 -0.255707,0.204565 0.182268,0.60664 0.31856,1.36614 -0.102283,1.789949 0.605361,-0.264043 0.579329,-1.159478 1.227393,-1.380817 0.03519,-0.20564 -0.04899,-0.291967 -0.05114,-0.460273 0.320504,-0.190911 0.508499,-0.514329 0.460273,-1.07397 -0.257139,-0.08377 -0.219193,-0.462676 -0.409131,-0.613697 -0.184314,0.173677 -0.381669,0.334312 -0.613697,0.460273 z M 5.9366352,13.177327 c -0.01703,0 -0.034112,0 -0.051142,0 -0.021939,0.09737 -0.1101586,0.128518 -0.1022828,0.255707 0.1438097,0.0075 0.1474918,-0.125245 0.1534242,-0.255707 0.07436,-0.03145 -0.00521,-0.06183 0,0 z m 12.2227938,0.562555 c -0.08096,0.0042 -0.195054,-0.02455 -0.204567,0.05114 0.164778,0.03979 0.177973,0.231159 0.255708,0.357989 0.01504,-0.104277 0.138388,-0.100287 0.153424,-0.204564 0.04976,-0.0013 0.03968,-0.0626 0.05114,-0.102284 0.106886,0.02168 0.135422,-0.03508 0.204565,-0.05114 -0.05544,-0.200269 -0.06694,-0.44447 -0.255706,-0.511413 0,-0.01703 0,-0.03411 0,-0.05114 -0.190502,0.04812 -0.06403,0.413324 -0.204566,0.511414 z M 5.7320696,13.586458 c 0.2941653,0.558208 0.049965,1.654731 0.2045656,2.352504 0.044902,-0.449942 0.3183552,-0.942536 0.2045656,-1.380818 -0.1096983,0.214181 0.016979,0.664736 -0.2045656,0.767121 0.1323028,-0.439253 -0.100544,-0.927449 0.1022828,-1.278535 0.136701,0.05084 -0.067814,0.442834 0.1534242,0.409132 -0.009,-0.434242 -0.1399229,-0.746562 -0.255707,-1.07397 -0.023678,0.12591 -0.059171,0.350779 -0.2045656,0.204566 z m -1.5853832,0.05114 c 0,0.05114 0,0.102282 0,0.153424 -0.041117,-0.02705 -0.083054,-0.05334 -0.1534243,-0.05114 0.073899,0.198837 0.082747,0.462779 0.1534243,0.664838 0.060039,-0.09881 -0.046897,-0.259185 0.1022827,-0.35799 -0.1375192,0.03518 -0.098856,-0.105708 -0.1534242,-0.153424 0.1656981,-0.02997 0.095635,-0.107499 0.1534242,-0.153424 0.074718,0.0446 0.1980706,0.04061 0.1534242,0.204565 -0.082594,0.01442 -0.088065,-0.04833 -0.1534242,-0.05114 0.1914223,0.204105 0.1713749,0.643614 0.2045656,0.869404 0.022655,-0.04556 0.044902,-0.09144 0.1022828,-0.102284 0.027719,0.210908 0.1308708,0.346433 0.255707,0.460273 0,0.05114 0,0.102283 0,0.153424 -0.041117,0.02706 -0.083054,0.05334 -0.1534242,0.05114 0.00225,-0.08745 -0.037998,-0.132456 -0.1022828,-0.153424 -0.08827,-0.252638 -0.3029616,-0.378906 -0.3068484,-0.71598 0.1531685,-0.01034 -0.048942,-0.21239 0,0 -0.01703,0 -0.034111,0 -0.051142,0 -0.00245,0.360496 0.1373657,0.578563 0.3579898,0.71598 -0.00225,0.08745 0.037998,0.132456 0.1022828,0.153424 -0.00225,0.08745 0.037998,0.132457 0.1022828,0.153424 0,0.01703 0,0.03412 0,0.05114 0.094867,0.03856 0.3883677,0.41491 0.3068483,0.153424 0.034111,0 0.068172,0 0.1022828,0 0.021633,0.106886 -0.035083,0.135423 -0.051142,0.204566 0.1896834,0.03192 0.2026734,0.240569 0.4091311,0.255707 0.031452,0.07435 0.061779,-0.0052 0,0 C 5.4142765,15.984017 5.2795189,15.846038 5.1695137,15.683255 5.0954607,15.535712 5.0297954,15.379731 4.9138068,15.274123 4.8698252,15.232853 4.8834286,15.134048 4.811524,15.120699 4.684387,14.668201 4.3793797,14.393622 4.4535347,13.739882 4.2924393,13.76458 4.3377506,13.582929 4.1466864,13.637599 c -0.00767,-0.09461 -0.1731648,-0.03134 -0.2045656,-0.102283 0,0.03411 0,0.06817 0,0.102283 -0.00941,0.04353 0.019945,0.04823 0.051142,0.05114 0.00829,-0.05993 0.093231,-0.04316 0.1534242,-0.05114 z m 15.8538326,0.511413 c -0.07927,0.125297 -0.07625,0.33288 -0.102283,0.511415 -0.148361,0.03917 -0.294165,0.08091 -0.35799,0.204565 0.0759,0.09456 0.09799,0.242973 0.102283,0.409132 -0.137468,-0.03519 -0.09886,0.105709 -0.153424,0.153424 -0.179609,0.07753 -0.554015,0.228295 -0.409131,0.460272 0.108573,-0.113022 0.434599,-0.0086 0.409131,-0.255707 0.04556,-0.02265 0.09144,-0.04491 0.102282,-0.102282 0.119314,0 0.238677,0 0.35799,0 0.0026,-0.224255 0.03575,-0.478991 -0.153424,-0.511415 -0.0042,-0.08096 0.02455,-0.195053 -0.05114,-0.204565 -0.02025,-0.122535 0.232949,0.02838 0.153425,-0.153424 0.05114,0 0.102282,0 0.153424,0 0.03059,-0.09103 -0.149896,-0.212391 0,-0.255707 0.08157,0.03775 -0.01171,0.250337 0.153424,0.204565 0.01335,-0.149742 -0.115631,-0.157106 -0.102283,-0.306848 0.0987,-0.06101 0.27913,-0.175108 0.153424,-0.306849 0.01703,0 0.03411,0 0.05114,0 0,-0.08525 0,-0.170454 0,-0.255707 -0.113738,0.03968 -0.27734,0.02951 -0.306848,0.153425 0.149895,0.04331 -0.03059,0.164675 0,0.255706 z m -1.738808,0.306849 c -0.141252,0.02188 -0.04797,-0.190706 -0.153424,-0.204565 -0.05559,0.146724 0.05462,0.380543 0.153424,0.204565 z m -0.357989,0.35799 c 0.03815,0.251666 0.15015,0.429434 0.255707,0.613697 -0.06848,-0.397983 -0.158948,-0.825628 -0.204567,-1.022828 0.0042,0.12279 -0.26573,0.403709 -0.05114,0.409131 z M 4.5046761,14.916135 c 0.059222,0.202059 0.059222,-0.202061 0,0 l 0,0 z m 0.1022828,0.153424 c 0.033497,0.03349 -0.021428,-0.02143 0,0 l 0,0 z m 13.5524701,0.460272 c 0.03349,0.03349 -0.02143,-0.02143 0,0 l 0,0 z m 0,0.613697 c -0.07436,0.03145 0.0052,0.06183 0,0 0.01703,0 0.03411,0 0.05114,0 0.138644,-0.13261 -0.01877,-0.743699 0,-0.204566 -0.03968,0.04551 -0.05498,0.115478 -0.05114,0.204566 z m -0.102283,0.153423 c 0.03349,0.0335 -0.02143,-0.02143 0,0 l 0,0 z M 7.0617459,19.16087 C 6.832479,18.009268 6.5840341,16.876946 5.783211,16.296951 5.30867,17.74093 6.2877209,18.700239 7.0617459,19.16087 z m 9.9725721,-2.19908 c -0.03749,0.09103 -0.09297,0.0074 -0.153424,0 0.03059,0.09103 -0.149896,0.21239 0,0.255707 0.01028,-0.263737 0.777553,-0.03902 0.562555,-0.35799 0.13711,-0.214487 -0.183291,-0.34321 -0.306848,-0.460272 0.116755,0.30649 -0.20876,0.436031 -0.102283,0.562555 z M 6.7037561,16.859507 c 0.1060673,-0.07175 0.3704171,-0.329453 0.1534242,-0.409131 -0.025929,0.161556 -0.1505091,0.224511 -0.1534242,0.409131 z m 9.3588749,2.91506 c -0.11159,-0.0093 -0.162732,0.04183 -0.153424,0.153424 -0.07436,0.03145 0.0052,0.06183 0,0 0.137468,0.03519 0.09886,-0.105709 0.153424,-0.153424 0.46641,-0.402994 0.982733,-0.756074 1.43196,-1.176252 -0.0026,-0.224255 -0.03575,-0.47899 0.153423,-0.511415 0.256833,-0.03355 0.412762,0.06429 0.562556,0 0.10975,-0.418745 -0.0245,-1.081435 0.511414,-1.073969 0,-0.170454 0,-0.340959 0,-0.511414 -0.621624,0.162527 -0.899884,0.668419 -1.585383,0.767121 -0.14202,0.355689 -0.295138,0.460222 -0.102283,0.818262 -0.296978,0.589508 -0.503078,1.269841 -0.971687,1.687667 z M 7.1640287,17.319779 c -0.021786,0.09753 -0.146111,0.09257 -0.1022828,0.255708 -0.2872612,-0.07447 0.1467758,-0.321731 -0.1022828,-0.35799 0.00931,0.196076 -0.041834,0.01851 -0.1534241,0.05114 -0.00921,-0.166772 0.1202334,-0.246143 -0.1022829,-0.255706 0.028282,0.09103 0.026287,0.21239 0.1022829,0.255706 0.082286,0.191678 0.209833,0.606741 0.2557069,0.664838 0,-0.119313 0,-0.238677 0,-0.357989 0.101618,-6.5e-4 0.065001,-0.139565 0.2045656,-0.102283 -0.039737,0.04551 -0.054977,0.115477 -0.051142,0.204565 0.1424288,0.08198 0.141406,-0.220828 0.051142,-0.204565 0.017388,-0.102641 -0.010484,-0.160022 -0.1022828,-0.153424 -0.00696,-0.282812 -0.1538845,-0.425702 -0.2045656,-0.664838 -0.1212051,0.227783 0.1223814,0.475819 0.2045656,0.664838 z M 18.97769,17.166355 c -0.04352,0.0094 -0.04823,-0.01995 -0.05114,-0.05114 -0.03411,0 -0.06817,0 -0.102283,0 0,0.03411 0,0.06817 0,0.102283 -0.156442,-0.03713 -0.150407,0.08827 -0.306849,0.05114 0.04598,0.403966 -0.05902,0.656962 -0.102282,0.971686 -0.05948,-0.0083 -0.09098,0.01131 -0.102283,0.05114 -0.04352,-0.0094 -0.04823,0.01995 -0.05114,0.05114 -0.242308,0.03775 -0.351597,-0.05753 -0.562555,-0.05114 0.03089,0.122535 0.07354,0.233358 0.05114,0.409131 -0.128007,-0.0087 -0.160124,0.07855 -0.204565,0.153425 -0.153374,0.102333 -0.319378,0.192035 -0.409131,0.35799 -0.128008,-0.0087 -0.160125,0.07855 -0.204566,0.153424 -0.130667,0.0056 -0.178996,0.09374 -0.255707,0.153424 -0.06633,0.09006 -0.372821,0.202878 -0.255707,0.306848 0.07574,-0.108061 0.371747,-0.165187 0.255707,-0.306848 0.160635,0.02429 0.208963,-0.06378 0.255707,-0.153424 0.128006,0.0087 0.160123,-0.07855 0.204566,-0.153424 0.207224,-0.133684 0.501952,-0.179916 0.664837,-0.35799 0.20968,-0.0051 0.419156,-0.01002 0.562555,0.05114 -0.07237,-0.213311 -0.409028,-0.136241 -0.562555,-0.05114 -0.09103,-0.03059 -0.21239,0.149895 -0.255706,0 0.128006,0.0087 0.160123,-0.07855 0.204565,-0.153425 0.236835,0.06086 -0.08965,-0.215561 0.102283,-0.255707 0.144014,-0.02726 0.572323,0.07595 0.409131,-0.102282 0.04353,0.0094 0.04823,-0.01995 0.05114,-0.05114 0.05948,0.0083 0.09098,-0.01131 0.102283,-0.05114 0.05554,0.01263 0.03472,0.101669 0.102283,0.102283 -0.0094,0.04352 0.01995,0.04822 0.05114,0.05114 -0.02266,0.04556 -0.04491,0.09144 -0.102282,0.102282 0.0095,-0.225277 -0.201344,-0.01447 0,0 -0.0873,0.04909 -0.112051,0.160687 -0.153425,0.255708 0.07405,-0.09896 0.3965,-0.213771 0.255707,-0.35799 0.0094,-0.04352 -0.01995,-0.04823 -0.05114,-0.05114 -0.04879,-0.321577 0.07707,-0.468403 0.204565,-0.613697 0.06045,0.05887 0.180785,0.0579 0.306848,0.05114 -0.01442,-0.08259 0.04833,-0.08807 0.05114,-0.153424 0.01703,0 0.03411,0 0.05114,0 0.04005,-0.03549 0.113841,-0.285368 0,-0.306849 0.03697,0.156288 -0.05227,0.186411 -0.05114,0.306849 -0.163857,0.01043 -0.08341,-0.223437 -0.255707,-0.204565 -0.03917,0.114659 0.236171,0.163038 0.05114,0.255707 -0.181808,0.07953 -0.03089,-0.173676 -0.153423,-0.153425 0,0.06817 0,0.136395 0,0.204566 -0.244712,0.07425 -0.127087,-0.213873 -0.153425,-0.35799 0.130462,-0.0059 0.263174,-0.0096 0.255707,-0.153424 0.07257,0.0044 0.144832,0.0084 0.153424,-0.05114 0.176847,-0.0405 0.215919,0.05682 0.306849,0.102282 -0.02521,-0.160583 0.176284,-0.135115 0.05114,-0.255706 -0.12008,0.01632 -0.191985,0.08081 -0.357991,0.05114 0,0.03411 0,0.06817 0,0.102282 z m -0.102282,0.204566 c 0.08802,0.0028 0.131075,-0.03938 0.153424,-0.102283 -0.08801,-0.0028 -0.131075,0.03938 -0.153424,0.102283 z M 5.271797,18.138042 c -0.014269,0.116551 0.012326,0.192241 0.1022828,0.204565 0.066126,0.223693 0.2580595,0.321527 0.4091312,0.460273 0.022349,0.0629 0.065461,0.105045 0.1534242,0.102283 0.044493,0.07487 0.076558,0.162119 0.2045656,0.153425 0.022349,0.06291 0.065461,0.105044 0.1534242,0.102282 0.044493,0.07487 0.076559,0.162118 0.2045656,0.153424 0.011558,0.06511 0.152657,0.06704 0.1534241,0 0.091083,0.03749 0.00736,0.09297 0,0.153424 0.051142,0 0.1022828,0 0.1534243,0 0.046487,0.106989 0.1509182,0.155931 0.3068483,0.153425 0.014473,0.201343 0.2252778,-0.0095 0,0 -0.2429217,-0.251463 -0.5071693,-0.481548 -0.767121,-0.71598 -0.02864,-0.07364 -0.07978,-0.124785 -0.1534241,-0.153424 0.00941,-0.04352 -0.019945,-0.04823 -0.051142,-0.05114 -0.029252,-0.192345 -0.2263515,-0.216842 -0.3068481,-0.357992 -0.059478,-0.141815 -0.2256358,-0.558463 -0.3579897,-0.306848 -0.1553676,0.06045 0.055438,0.271254 0,0 0.2412339,-0.01964 0.097169,0.346074 0.3579897,0.306848 -0.133837,0.183854 0.172142,0.281432 0.3068484,0.35799 -0.00941,0.04353 0.019945,0.04823 0.051142,0.05114 -0.00829,0.05993 -0.093231,0.04316 -0.1534242,0.05114 0,-0.01703 0,-0.03411 0,-0.05114 -0.1445256,-0.04224 -0.1325074,0.07206 -0.255707,0.05114 0,-0.03411 0,-0.06817 0,-0.102282 0.07436,-0.03145 -0.00521,-0.06183 0,0 -0.069399,-0.01585 -0.042448,-0.128059 -0.051142,-0.204566 -0.2488539,0.07835 -0.1925473,-0.148413 -0.3579897,-0.153424 -0.01166,-0.09062 0.05155,-0.256117 -0.1022828,-0.204567 0.068478,-0.440173 -0.1813985,-0.552889 -0.2045656,-0.76712 0.079422,0.074 0.2386769,0.06822 0.3068484,0.153424 0,0.03411 0,0.06817 0,0.102283 -0.034111,0 -0.068172,0 -0.1022828,0 -0.01882,0.08699 0.03989,0.0965 0.1022828,0.102283 -0.00834,0.05948 0.011302,0.09098 0.051142,0.102283 0.054568,-0.174086 0.015905,0.142275 0.1534242,0.05114 0.015393,-0.134758 -0.070831,-0.167846 -0.2045656,-0.153424 0,-0.03411 0,-0.06817 0,-0.102283 0.041424,0.0097 0.050988,0.05129 0.1022828,0.05114 0,-0.08525 0,-0.170454 0,-0.255707 -0.2239481,0.03422 -0.4091312,-0.235659 -0.6136968,-0.05114 0.2581108,0.133991 0.2493655,0.534786 0.4091312,0.767122 z m 2.1479387,-0.204566 c 0.1096472,0.09272 0.026645,0.299331 -0.1022828,0.153424 0.00425,0.08096 -0.024599,0.195054 0.051142,0.204567 -0.00834,-0.05948 0.011302,-0.09098 0.051142,-0.102284 0.041424,0.0097 0.050988,0.05129 0.1022828,0.05114 -0.030941,-0.105452 0.082542,-0.355278 -0.1022828,-0.306847 0.061216,-0.382639 -0.1565438,-0.16493 0,0 z m 9.1031683,-0.153424 c -0.04556,0.02266 -0.09144,0.04491 -0.102283,0.102283 -0.01703,0 -0.03411,0 -0.05114,0 0.163192,0.336561 0.160175,0.598763 0.153424,0.971687 0.09927,-0.227529 0.162937,-0.611038 0,-0.818263 0.07257,0.0044 0.144833,0.0084 0.153424,-0.05114 0.04976,0.0013 0.03968,0.0626 0.05114,0.102282 -0.153168,0.01034 0.04889,0.21239 0,0 0.232591,3.58e-4 -0.01519,-0.205435 -0.05114,-0.255707 0,-0.05114 0,-0.102283 0,-0.153424 -0.05114,0 -0.102282,0 -0.153424,0 0,0.03411 0,0.06817 0,0.102283 z m -9.4100167,0.05114 c -0.053851,0.296825 0.2216468,0.02133 0,0 l 0,0 z m 0.1022828,1.125112 c -0.042243,0.144526 0.072058,0.132508 0.051142,0.255707 0.1185969,-0.01632 0.1963317,0.0083 0.255707,0.05114 0.045618,-0.325209 0.1773072,-0.697876 0,-0.971686 -0.1389001,0.06357 0.1789948,0.79576 -0.2045656,0.869403 -0.030583,-0.09103 0.1498954,-0.21239 0,-0.255707 -0.00138,0.04976 -0.062597,0.03968 -0.1022828,0.05114 0.035083,-0.359012 0.011763,-0.669696 -0.1534244,-0.920545 -0.00205,0.359984 0.07037,0.645558 0.1534242,0.920545 z M 5.527504,18.291467 c 0.059222,0.202058 0.059222,-0.202061 0,0 l 0,0 z m 1.7899489,0.255706 c 0.033497,0.03349 -0.021428,-0.02143 0,0 l 0,0 z m 1.8410901,0.153424 c 0.439816,0.48073 1.675444,0.165596 2.505928,0.255707 0.161402,0.02501 0.18058,-0.09216 0.35799,-0.05114 0.852374,0 1.704696,0 2.557069,0 0.12141,-0.05272 0.512336,-0.311502 0.306849,-0.357989 -1.882668,0.07773 -3.896872,0.02399 -5.727836,0.153424 z m -1.7388073,0.05114 c 0.033497,0.0335 -0.021428,-0.02143 0,0 l 0,0 z m 9.0008853,0.204566 c 0.03349,0.03349 -0.02143,-0.02143 0,0 l 0,0 z m -6.6995227,0.102283 c 0.030174,0.191422 0.2849597,0.158282 0.3579897,0.306848 1.352179,0.0054 2.605143,-0.08827 3.989029,-0.05114 0.05938,-0.16222 0.317179,-0.126012 0.357989,-0.306848 -1.58794,0.02618 -3.34751,0.08827 -4.7050077,0.05114 z m -0.9205449,0.818262 c 0.022553,0.147901 0.1078058,0.233153 0.2557068,0.255707 0.00348,0.149998 0.1169094,0.189939 0.2045655,0.255707 0,0.01703 0,0.03411 0,0.05114 0.090111,0.04628 0.084486,0.188251 0.2045658,0.204565 0.078144,0.177563 0.2082988,0.303115 0.3579896,0.409132 0.00839,-0.161812 -0.1359338,-0.170915 -0.1022828,-0.35799 -0.1185969,0.01632 -0.1963318,-0.0083 -0.2557068,-0.05114 0,-0.05114 0,-0.102283 0,-0.153424 0.1643172,-0.04501 0.070064,0.168561 0.2045653,0.153424 C 9.6352328,20.474179 9.6232648,20.28153 9.4653915,20.234838 9.4943355,19.950184 9.2871634,19.901652 9.158543,19.774565 9.150253,19.714635 9.065312,19.731405 9.0051188,19.723425 8.9403228,19.549596 8.7636804,19.487561 8.5959878,19.416577 8.5902578,19.28591 8.5022458,19.237581 8.4425635,19.16087 c -0.018513,0.376503 0.048482,0.667498 0.3579899,0.715979 z m 1.3808176,1.687666 C 9.1513832,20.923919 8.7060441,19.698622 7.3174529,19.416577 c 0.136701,1.499875 1.4923571,2.053378 2.8639181,2.147939 z m 0.306849,-2.096796 c 0.76712,0.589098 2.512627,0.455057 3.273048,-0.05114 -1.10762,-0.02629 -2.25242,0.158231 -3.273048,0.05114 z m 5.062998,0.409132 c -0.08714,0.03217 -0.08418,0.154498 -0.153425,0.204565 -0.09471,-0.07973 -0.403608,-0.06346 -0.35799,0.153425 -0.09175,-0.0065 -0.107857,0.06265 -0.204565,0.05114 -0.01447,-0.201344 -0.225278,0.0095 0,0 0,0.05114 0,0.102283 0,0.153424 -0.09635,0.07415 -0.265731,0.07518 -0.306849,0.204566 0.105914,-0.03043 0.335948,0.06321 0.35799,-0.05114 -0.05993,-0.0083 -0.04316,-0.09323 -0.05114,-0.153424 0.144322,0.0079 0.128212,-0.144577 0.204566,-0.204565 0.0897,-0.125042 0.308433,-0.120796 0.460273,-0.05114 -0.08173,-0.172859 0.217043,-0.218221 0.05114,-0.306849 -0.02368,-0.248803 -0.03417,-0.192547 0.05114,-0.35799 -0.128979,-0.113994 -0.211367,0.128774 -0.255708,0.255707 0.07564,0.02664 0.128928,0.07564 0.204567,0.102283 z m -1.994516,1.943373 c -0.271253,-0.05544 -0.06045,0.155367 0,0 0.930825,0.162118 1.41314,-0.802307 2.096798,-0.255707 0.215101,-0.02358 0.06761,-0.409694 0.255707,-0.460273 0.233409,-0.04587 0.28987,0.08515 0.460272,0.102283 0.1904,-0.577079 0.585212,-0.877637 0.664839,-1.380818 -0.424628,-0.05988 -0.73797,0.416342 -1.329676,0.35799 -0.07124,0.06511 -0.02225,0.25049 -0.153424,0.255707 -0.219039,0.01146 -0.208504,-0.170147 -0.409132,-0.05114 -0.05344,0.117011 -0.03247,0.308485 -0.102283,0.409131 -0.06822,0.0852 -0.289767,0.01708 -0.357989,0.102283 -0.09292,0.588945 -0.667447,0.69629 -1.125112,0.920545 z m 1.125112,-1.687667 c -0.316822,0.09231 -0.234688,0.583575 -0.460273,0.767122 0.01161,0.07364 0.152606,0.01785 0.153424,0.102282 -6.5e-4,0.101618 -0.139565,0.06501 -0.102283,0.204566 -0.106221,0.04577 -0.01396,-0.348324 -0.102283,-0.153424 0.0405,0.176847 -0.05682,0.215919 -0.102282,0.306848 -0.21239,-0.04889 -0.01034,0.153169 0,0 0.128006,0.0087 0.160123,-0.07855 0.204565,-0.153424 0.355945,-0.243024 0.125859,-0.758325 0.409132,-1.07397 0.257957,0.02363 0.265986,-0.347147 0.460272,-0.102282 -0.07942,-0.215766 0.283988,0.0112 0.204565,-0.204566 -0.312474,0.01141 -0.567106,0.0807 -0.664837,0.306848 z m -3.375333,0.409131 c -0.272737,0 -0.545525,0 -0.818261,0 -0.04899,0.307053 0.0018,0.394761 -0.05114,0.767122 0.338146,0.08996 0.664582,0.614822 0.971686,0.409131 0.03605,-0.417416 -0.574114,-0.614515 -0.71598,-1.022829 0.334976,0.006 0.319123,0.362747 0.613697,0.409132 0.335999,-0.331038 1.100256,-0.187791 1.4831,0 0.231109,-0.02603 0.411228,-0.371082 0.613697,-0.255707 -0.161863,0.366582 -0.754029,0.30286 -0.767121,0.818263 0.468148,0.303575 0.586285,-0.460529 1.022828,-0.511415 0,-0.204565 0,-0.409131 0,-0.613697 -0.865466,0.118648 -1.649668,-0.414091 -2.352504,0 z m 3.324191,-0.153423 c 0.03349,0.03349 -0.02143,-0.02143 0,0 l 0,0 z m -6.5972396,1.073969 c 0.043522,0.0094 0.048226,-0.01995 0.051142,-0.05114 0.043522,0.0094 0.048226,-0.01995 0.051142,-0.05114 0.091697,0.0065 0.1078573,-0.0626 0.2045656,-0.05114 -0.027053,0.04112 -0.05334,0.08301 -0.051142,0.153424 0.082594,0.01442 0.088066,-0.04833 0.1534242,-0.05114 -0.061932,0.203185 0.3416757,0.02102 0.1534242,0.204566 -0.07436,0.03145 0.00521,0.06183 0,0 0.1375193,0.03519 0.098856,-0.105709 0.1534242,-0.153425 -0.1426845,-0.04485 -0.2525874,-0.122432 -0.4091311,-0.153423 0,-0.01703 0,-0.03411 0,-0.05114 -0.090623,0.01166 -0.2561161,-0.05155 -0.2045656,0.102282 -0.043522,-0.0094 -0.048226,0.01995 -0.051142,0.05114 -0.043522,-0.0094 -0.048226,0.01995 -0.051142,0.05114 -0.1165513,0.01427 -0.1922405,-0.01232 -0.2045657,-0.102283 0.271254,0.05544 0.060449,-0.155367 0,0 -0.086991,0.01877 -0.096504,-0.03989 -0.1022827,-0.102282 0.2123902,0.04889 0.010331,-0.153169 0,0 -0.2684923,-0.05539 -0.4081084,-0.2397 -0.6136968,-0.357991 0.3228046,-0.264247 0.4508626,0.06163 0.767121,0.153425 -0.020354,0.163857 0.2176578,0.291966 0.255707,0.102283 -0.1574133,0.0381 -0.098294,-0.140384 -0.255707,-0.102283 0,-0.01703 0,-0.03411 0,-0.05114 C 7.706383,20.688872 7.2272393,20.644073 6.9083215,20.899677 7.5213534,21.224272 7.9860242,21.697176 8.7494118,21.871363 8.4991771,21.654781 8.2384583,21.632585 8.0334324,21.462233 z M 7.5220185,21.053102 c 0.033497,0.03349 -0.021428,-0.02143 0,0 l 0,0 z m 3.8867455,0.255707 c 0.161198,0.373996 0.776224,-0.03289 1.07397,0.204566 0.02046,-0.132968 0.152605,-0.154243 0.153424,-0.306849 -0.367861,-0.11737 -1.030142,-0.293756 -1.227394,0.102283 z m 5.267564,0.204566 c 0.007,0.102538 -0.347455,0.237705 -0.102283,0.255706 0.0584,-0.164982 0.453062,-0.260565 0.460273,-0.306848 -0.166005,-0.02966 -0.23791,0.03482 -0.35799,0.05114 0.0097,-0.04143 0.05129,-0.05099 0.05114,-0.102283 -0.281994,0.02669 -0.632466,-0.135627 -0.767121,0 0.180324,0.08418 0.413733,0.14248 0.562555,0 -0.02388,0.109136 0.07308,0.09737 0.153424,0.102283 z m -7.1086536,0.255706 c 0,0.01703 0,0.03411 0,0.05114 0.059477,-0.0083 0.09098,0.01131 0.1022824,0.05114 -0.470961,-0.03197 -1.3194477,0.04797 -0.3579897,0.05114 0.060449,0.05886 0.1807849,0.0579 0.3068483,0.05114 -0.023065,0.08356 0.278772,0.08356 0.2557071,0 0.2858805,-0.09446 0.4415555,0.05477 0.6648375,-0.102283 -0.259593,0.04731 -0.5979956,-0.196945 -0.6648375,0.102283 -0.085252,0 -0.1704542,0 -0.2557071,0 0.060756,-0.109749 0.2215957,-0.119364 0.3068486,-0.204565 -0.1193128,0 -0.2386769,0 -0.3579896,0 -0.1685109,-0.122433 -0.560152,-0.290688 -0.767121,-0.204566 0.2678273,0.0561 0.4321958,0.215612 0.767121,0.204566 z m 6.2903916,0 c -0.170454,0 -0.34096,0 -0.511415,0 -0.0097,-0.05805 -0.05129,-0.02844 -0.05114,0 -0.07436,0.03145 0.0052,0.06183 0,0 0.01703,0 0.03411,0 0.05114,0 0.01161,0.07364 0.152606,0.01785 0.153425,0.102283 -0.08745,-0.0023 -0.132457,0.038 -0.153425,0.102283 0.216687,0.01948 0.279795,-0.296569 0.511415,-0.102283 -0.0094,0.04352 0.01995,0.04823 0.05114,0.05114 0.102743,0.104277 -0.02261,0.100288 -0.05114,0.204566 -0.105351,-0.04485 -0.229625,0.13266 -0.102284,0.153424 0.0181,-0.06715 0.09006,-0.08039 0.102284,-0.153425 0.14386,-0.0096 0.217913,-0.08893 0.204565,-0.255706 0.01703,0 0.03411,0 0.05114,0 0,-0.05114 0,-0.102284 0,-0.153424 -0.07257,0.0044 -0.144833,0.0084 -0.153424,-0.05114 0.119313,-0.01504 0.119313,-0.138389 0,-0.153425 0.0381,0.157413 -0.140383,0.09829 -0.102283,0.255707 z m -4.347018,0.153424 c 0.08162,0.498987 0.356863,0.568949 0.869402,0.562556 0.127445,-0.179404 0.248036,-0.365661 0.306849,-0.613697 -0.263225,-0.330629 -0.981506,-0.415524 -1.176251,0.05114 z m 3.579897,-0.255706 c -0.382385,0.04378 -0.601577,0.250797 -0.920546,0.357989 -0.105657,-0.01002 -0.587,-0.0018 -0.306848,0.05114 0.18416,-0.01371 0.246451,0.09451 0.409131,0.102283 0.491469,-0.105965 1.083584,0.04178 1.380818,-0.05114 -0.376452,-0.113891 -0.981046,-0.06802 -1.380818,-0.05114 0.256884,-0.152247 0.589405,-0.228858 0.818263,-0.409131 0.09062,-0.01166 0.256116,0.05155 0.204565,-0.102283 -0.116551,-0.01427 -0.19224,0.01232 -0.204565,0.102283 z m 1.431959,-0.102283 c -0.144884,0.05334 -0.213106,0.05334 -0.35799,0 0.04449,0.182319 0.34142,0.173369 0.35799,0 z M 8.8516946,21.71794 c 0.031452,0.07436 0.061779,-0.0052 0,0 -0.01033,-0.153168 -0.21239,0.04889 0,0 z m 6.3926744,0.153424 c -0.172296,-0.155316 -0.155061,0.18907 0,0 l 0,0 z m 0.409131,0.102283 c -0.07436,0.03145 0.0052,0.06183 0,0 0.01703,0 0.03411,0 0.05114,0 0.01034,0.153168 0.21239,-0.04889 0,0 0.0065,-0.126575 -0.0626,-0.08694 -0.05114,0 z m -0.767121,-0.05114 c -0.03968,0.01146 -0.100902,0.0013 -0.102283,0.05114 0.03968,-0.01146 0.100902,-0.0013 0.102283,-0.05114 z m -4.398159,0.204565 c -0.05139,0.0672 -0.6343587,0.03509 -0.35799,0.102284 0.192752,-0.03933 0.244455,0.06239 0.40913,0.05114 0.247474,-0.110517 0.72089,0.0049 0.869404,-0.204566 -0.359268,-0.03534 -0.561276,0.08648 -0.920544,0.05114 z m 3.682179,0.204567 c -0.41087,-0.117575 -0.94811,-0.108779 -1.431958,-0.153425 0.212389,0.282403 1.025128,0.235762 1.431958,0.153425 z m -4.2958765,0.153424 c 0.1664655,0.123352 0.2442515,0.335385 0.4602725,0.409131 0.278925,-0.300661 1.107672,-0.05155 1.176253,-0.562555 -0.451426,0.04055 -1.199522,0.01729 -1.6365255,0.153424 z m 3.8356045,0.511413 c 0.211061,-0.09579 0.436799,-0.176898 0.460272,-0.460272 -0.604287,0.04173 -1.064508,-0.0606 -1.585383,-0.102283 0.02143,0.541127 0.934507,0.190604 1.125111,0.562555 z M 9.8745225,22.740768 c -0.1745966,0.162322 -0.7244178,0.119927 -0.9716865,0.05114 0.1107723,0.186411 0.2806639,0.227222 0.1022828,0.460273 0.4508112,0.05922 1.2932632,0.15818 1.5342412,-0.153424 -0.285931,-0.05498 -0.456897,-0.224969 -0.6648375,-0.357988 z m 3.6310395,0.511414 c 0.52517,0.09998 1.244014,-0.02491 1.687665,0 -0.132865,-0.09144 -0.211623,-0.29258 -0.05114,-0.409131 -0.756278,0.0268 -1.17124,0.0852 -1.636524,0.409131 z"
     id="path3067"
     inkscape:connector-curvature="0"
     style="fill-rule:evenodd" /></svg>