<?xml version="1.0" encoding="UTF-8" standalone="no"?>
<!-- Generator: Adobe Illustrator 15.1.0, SVG Export Plug-In . SVG Version: 6.00 Build 0)  -->

<svg
   xmlns:dc="http://purl.org/dc/elements/1.1/"
   xmlns:cc="http://creativecommons.org/ns#"
   xmlns:rdf="http://www.w3.org/1999/02/22-rdf-syntax-ns#"
   xmlns:svg="http://www.w3.org/2000/svg"
   xmlns="http://www.w3.org/2000/svg"
   xmlns:sodipodi="http://sodipodi.sourceforge.net/DTD/sodipodi-0.dtd"
   xmlns:inkscape="http://www.inkscape.org/namespaces/inkscape"
   version="1.1"
   id="Layer_1"
   x="0px"
   y="0px"
   width="24"
   height="24"
   viewBox="0 0 24 24"
   enable-background="new 0 0 500 500"
   xml:space="preserve"
   inkscape:version="0.48.5 r10040"
   sodipodi:docname="pasargad.svg"><metadata
     id="metadata3499"><rdf:RDF><cc:Work
         rdf:about=""><dc:format>image/svg+xml</dc:format><dc:type
           rdf:resource="http://purl.org/dc/dcmitype/StillImage" /><dc:title></dc:title></cc:Work></rdf:RDF></metadata><defs
     id="defs3497" /><sodipodi:namedview
     pagecolor="#ffffff"
     bordercolor="#666666"
     borderopacity="1"
     objecttolerance="10"
     gridtolerance="10"
     guidetolerance="10"
     inkscape:pageopacity="0"
     inkscape:pageshadow="2"
     inkscape:window-width="657"
     inkscape:window-height="480"
     id="namedview3495"
     showgrid="false"
     inkscape:zoom="3.776"
     inkscape:cx="1.3102885"
     inkscape:cy="26.084745"
     inkscape:window-x="0"
     inkscape:window-y="27"
     inkscape:window-maximized="0"
     inkscape:current-layer="Layer_1" /><path
     clip-rule="evenodd"
     d="m 14.325863,0.85972108 c -0.202552,0.49466612 -0.902472,0.29123782 -1.31057,0.29123782 -3.3585439,0 -7.3230103,0.05969 -10.6301609,-0.072832 0,-0.072832 0,-0.14561889 0,-0.2184329 3.8110622,-0.1215879 8.1295319,-0.12085775 11.9407309,0 z M 3.1132265,5.3010928 c 2.1653543,0 5.2063021,0 7.8634115,0 0.561721,0 2.203285,0.2265831 2.548326,0 -0.07977,0.052388 0.229567,-0.6247056 0.218423,-0.5824756 0.252577,-0.9541666 0.22913,-2.1812259 0.436857,-3.2036065 -3.39182,-0.034956 -7.7575395,-0.018254 -11.649493,0 0.2277514,0.2679369 0.1197716,3.2073941 0.5096706,3.4220303 0.207718,0.1143138 0.3871245,-0.3070364 0.5096616,-0.1456098 -0.058503,-0.4407904 0.3337598,-0.048555 0,0 C 3.471136,5.0279809 3.1497796,5.0220849 3.1132265,5.3010928 z M 3.841321,4.5001934 C 3.572946,4.2018914 3.5337005,3.9158194 3.4044643,3.553666 3.2183678,3.0322035 2.768332,2.053942 3.768507,1.9518582 4.0577825,1.9223785 4.645862,2.1976625 4.7150344,2.3887149 4.789692,2.5949908 4.5480039,2.8653281 4.4966015,3.0440045 4.335257,3.6045574 4.2869851,4.3081919 3.841321,4.5001934 z m 2.2570883,0 C 5.798072,4.2672762 5.2024173,2.791136 5.2975099,2.4615289 5.4840445,1.8150559 6.7190351,1.913854 6.8993086,2.3886966 7.1540025,3.0595658 6.2853089,3.8059322 6.3168422,4.5001752 6.5705777,4.7318511 6.8757979,4.9119786 7.1177415,5.1554556 6.7252231,5.0625534 6.3416672,4.9607616 6.3168422,4.5001752 c -0.051019,-0.028202 -0.1729265,0.03523 -0.2184329,0 z m 4.4413717,0 C 10.43442,4.2315263 10.186216,4.0650069 10.102924,3.8449038 9.9984401,3.5688166 9.6717445,2.6868708 9.7388725,2.4615289 c 0.1962273,-0.6584201 1.5232525,-0.5060291 1.6746215,0 0.113292,0.3786821 -0.590927,1.8417071 -0.873713,2.0386645 z m 2.402707,0 C 12.637341,4.4039325 12.397871,4.0087308 12.287208,3.6992849 12.239565,3.565969 11.958541,2.7152645 11.99597,2.5343338 c 0.07457,-0.3606201 0.726415,-0.6597253 1.164942,-0.5096616 -0.160688,-0.054944 0.456005,0.3325186 0.436856,0.2912378 0.247411,0.5336926 -0.621063,1.7295837 -0.65528,2.1842834 z m -2.548326,0.072832 C 10.374174,5.1263775 9.4327123,5.3201953 8.9379731,5.0826872 8.7107328,4.9735484 8.6722175,4.6401537 8.5011164,4.5002208 8.4376848,4.4483803 8.1930579,4.5075223 8.1370738,4.4273885 7.9096144,4.1029473 7.864619,3.491713 7.7002171,2.9711996 7.6607891,2.8466272 7.474793,2.5695087 7.4817842,2.5343429 7.5367278,2.2579636 8.1844695,1.9276264 8.6467353,2.0246813 8.6665406,2.0292447 9.1472244,2.296771 9.156406,2.3159191 9.4209934,2.8666515 8.5487312,3.771524 8.5739305,4.2817696 8.6174655,5.1640714 9.790786,5.2107461 10.394162,4.5730074 z m -6.3344172,0 C 4.2186159,4.5597917 4.2914299,4.632624 4.2781777,4.7914586 4.8119432,5.2949321 5.6521611,4.7513917 5.9527904,4.6458397 5.8569767,5.2055164 4.4858318,5.41652 4.2781777,4.7914586 4.1193066,4.8046925 4.0464926,4.7318602 4.0597448,4.5730257 z m 3.9317101,0 C 8.3192366,4.7001536 7.5864874,5.2915096 7.3361653,5.0826872 7.571994,4.9302323 7.9514793,4.9213428 7.9914549,4.5730257 z m 2.8395641,0 c 0.124134,0.3127132 0.608249,0.2654635 0.728094,0.5824755 -0.393102,-0.043809 -0.671307,-0.2024061 -0.728094,-0.5824755 z m 1.820231,0 C 12.473085,4.9045311 12.182285,5.123393 11.704732,5.1555012 12.041257,4.9823558 12.291789,4.7232354 12.65125,4.5730257 z m 0.364043,0 c 0.262625,-0.019988 0.197459,0.2879615 0.436857,0.2912381 -0.141321,0.3466468 -0.404886,-0.084971 -0.436857,-0.2912378 z M 8.1370738,2.9712178 C 8.3962033,3.42286 8.8581041,2.4695605 8.3554976,2.6071752 8.1926289,2.6517142 7.9596387,2.6620275 8.1370738,2.9712178 z M 4.1325588,2.6799801 c -0.1025128,-0.1652782 -0.2449282,-0.069638 -0.3640518,0 -0.6076657,0.3553082 0.7475346,0.6181524 0.3640518,0 z M 6.2440282,3.1168367 C 6.4639853,3.0189147 6.3351142,2.520607 6.0256044,2.6799801 c -0.2961207,0.152464 0.0554,0.5094516 0.2184238,0.4368566 z M 13.088107,2.6799801 c -0.101062,-0.1742316 -0.317669,-0.1191876 -0.436857,0 -0.399938,0.3999477 0.729619,0.5047148 0.436857,0 z m -2.257088,0.072832 c -0.105726,-0.1696499 -0.317597,-0.1192605 -0.436857,0 -0.296267,0.2962576 0.75605,0.5120711 0.436857,0 z m 1.674612,2.9123688 C 9.5995967,5.60467 5.7742601,5.6532249 3.1860405,5.7380133 c 0,0.072832 0,0.1456189 0,0.2184238 C 6.7879884,6.0441461 10.035285,6.1964915 13.524964,5.8836048 13.352767,5.4893432 12.804152,5.6713599 12.505631,5.6651719 z m -0.291237,9.4652171 c 0.19003,-2.641086 0.914483,-5.9451004 1.164951,-8.8099274 -2.814812,-0.024825 -5.6935483,0.032583 -8.8099295,0 C 4.1854945,6.3168206 3.4525902,6.2162055 3.4044643,6.2476386 3.0825786,6.45762 3.5346497,8.4617759 3.6228881,9.0143975 3.9053185,10.783226 4.1977245,12.744417 4.4966015,14.402287 5.3414101,19.088295 6.6224913,22.862586 12.360012,22.411314 12.041111,21.90507 11.345928,21.775033 11.34068,20.955127 10.666252,20.911373 8.0277159,22.105005 9.156406,20.663889 8.5633707,20.778491 8.8437567,20.083526 8.9379731,19.862987 8.4449863,19.87111 8.4397384,19.335628 8.7195493,19.134893 8.6617764,18.974203 8.3772651,19.040242 8.3554976,18.843656 8.4136356,18.707648 8.4771676,18.577028 8.5011164,18.4068 8.3346792,18.30625 8.046864,18.327077 8.0642598,18.042754 8.0968426,17.832625 8.3775572,17.870632 8.4283116,17.678706 7.7205335,17.806851 7.6219452,17.17989 8.1370738,17.023422 7.3244464,17.234861 7.5376314,16.75461 7.3361653,16.440948 7.1626639,16.170898 6.5745844,16.135877 6.8993086,15.785663 6.6037082,15.814276 6.3919744,15.759086 6.3896471,15.494427 6.3978612,15.211635 6.8723023,15.394604 6.8993086,15.130379 6.3438485,15.391984 5.4441419,15.020001 6.0256044,14.547905 5.737132,14.569453 5.5805883,14.458936 5.4431288,14.329477 5.3652768,14.057462 5.6239135,14.121897 5.5887477,13.892621 5.0151526,14.022658 4.7785207,13.411497 5.079077,13.164528 5.3963811,12.903798 6.0702347,13.47688 6.2440282,13.018909 5.7420058,12.873872 5.042743,13.252845 4.7878392,12.946104 4.5068692,12.607977 5.0484291,12.220268 4.9334581,11.999589 4.2352906,11.259848 5.3794143,10.942618 5.8799855,11.489918 5.8321608,10.995471 5.1185415,11.272443 5.0062721,10.834638 4.9234916,10.511949 5.194413,10.195521 5.6615526,10.106544 5.6332594,9.541984 6.1466082,9.1732045 6.4624519,9.3056443 6.5709428,9.3511872 6.9223174,10.57267 7.0449275,10.689019 6.8921075,10.924482 6.3837511,10.804492 6.535266,11.344299 6.9834034,10.567139 7.3219,11.218193 7.773022,11.562732 7.758419,11.140944 7.2631414,11.084229 7.4089793,10.689019 7.4819941,10.491121 8.1806089,10.200322 8.4283116,10.5434 8.626711,10.818109 8.1615337,11.036971 8.5739305,11.271485 8.4900547,10.775003 8.7026556,10.575061 8.7195493,10.179357 7.8290882,10.008393 7.6129188,10.664404 7.1905464,10.470595 7.0130383,10.389092 6.5370822,9.4109225 6.6080708,9.1600254 6.6601852,8.9756721 7.3930347,8.5356119 7.6274031,8.7231687 7.9299308,8.9652493 7.41284,9.8696836 7.9186409,10.033739 7.577534,8.9522983 8.3456679,8.006501 9.083592,8.8687876 c 0.5379183,-0.4302306 0.7802271,0.096252 1.164951,0.3640426 0.269616,0.1877028 0.826163,0.1525371 0.728095,0.6552896 -0.04071,0.2085212 -1.6773146,1.2979652 -1.6746131,0.3640422 -0.095166,0.147517 -0.3853812,0.10004 -0.4368567,0.291238 1.0978141,-0.149772 0.5281526,1.560154 -0.2184329,0.946518 -0.1230482,0.22411 -0.445372,0.361067 -0.7280944,0.218433 -0.2994611,0.654332 -0.2722357,1.54195 0.3640518,1.820228 0.06334,-0.455932 -0.3914963,-0.58961 -0.3640518,-1.019331 0.029753,-0.464742 0.8127003,-1.073936 1.383384,-0.728092 0.1603953,0.0972 0.3941157,0.899777 0.6552805,1.310567 0.2578156,0.405402 0.6046806,0.737704 0.8737136,1.09214 0.75343,0.992683 1.237537,2.073246 1.601807,2.985183 0.297499,0.744766 0.283079,2.016382 0.582467,2.475517 0.298083,0.457024 2.518846,1.088209 2.184283,-0.436856 -0.147873,-0.67436 -1.409149,-1.023408 -1.674612,-1.528996 0.938952,0.363173 1.927481,0.648731 2.111469,1.601806 0.03797,0.196439 -0.172342,0.939021 -0.07283,1.09214 0.176705,0.271578 1.736356,0.140376 2.111469,0.364046 -0.146495,-1.552368 -0.410425,-2.987294 -0.509671,-4.586988 -0.530197,-0.05228 -0.605767,-0.559175 -1.092137,-0.655284 0.03797,-0.107685 0.107688,-0.183553 0.145619,-0.291238 -0.717608,0.01384 -0.602792,-0.972587 -0.364052,-1.310568 -0.81699,-0.08752 0.04454,-0.813862 0,-1.237759 -0.03094,-0.294877 -0.464885,-0.460373 -0.436847,-0.728091 0.03094,-0.295236 0.408016,-0.577009 0.728085,-0.582476 0.405552,-0.0073 0.427757,0.382981 0.728095,0.291238 0.155302,-0.04737 0.231685,-0.339145 0.218433,-0.364043 -0.144889,-0.272527 -1.154757,-0.228618 -1.456189,-0.145619 -1.090613,0.300265 -2.24704,1.630269 -2.766759,2.912369 -0.303176,0.747825 -0.32895,1.617532 -0.436848,2.402708 0.170152,0.09684 0.208594,0.325312 0.291229,0.509665 -0.174305,-0.09269 -0.296404,-0.237503 -0.291229,-0.509665 -0.298886,-0.383122 -0.253818,-0.818376 -0.218433,-1.310568 z m 1.96585,-1.747424 c 0.01479,0.72154 -0.2956,1.360078 -0.218424,2.111471 0.116203,1.131384 0.888052,1.685827 1.528994,2.329898 -1.92624,-0.146201 -2.360915,-2.980595 -1.31057,-4.441369 z m -1.31057,4.004514 c 0.0018,-0.07084 0.08908,-0.0565 0.145619,-0.0728 -0.0018,0.07084 -0.08908,0.0565 -0.145619,0.0728 z m 0.436857,0.291237 c 0.04773,0.04769 -0.03048,-0.03051 0,0 l 0,0 z M 9.0107871,9.0872205 c -0.030484,-0.030484 0.047734,0.047733 0,0 l 0,0 z m -0.072832,0.4368567 c 0.041983,-0.044083 0.1703709,-0.3453327 0,-0.3640427 -0.041892,0.044083 -0.1703709,0.3453326 0,0.3640427 z m 0.9465182,0.072832 C 10.043344,9.6101434 10.116158,9.5373111 10.102906,9.3784765 9.9440349,9.3652426 9.8712301,9.4380749 9.8844731,9.5969094 z M 8.6467171,10.106571 c 0.2324061,0.102731 0.1839882,-0.4356885 0.072832,-0.4368567 0.052753,0.2227225 -0.1256037,0.2141342 -0.072832,0.4368567 z m 0.8737133,-0.07283 C 9.712286,10.055643 9.7593896,9.9328962 9.7388542,9.7425009 9.5467888,9.7203227 9.5510875,9.8945269 9.5204304,10.033739 z m -0.2184237,0.218423 c 0.1058623,-0.04481 -0.0073,-0.08798 0,0 l 0,0 z M 5.9527721,10.5434 c 0.064801,0.05659 0.164402,0.07831 0.2912378,0.07283 C 6.2632676,10.403476 5.9615065,10.33664 5.9527721,10.5434 z m 0.4368567,0.291238 c 0.1043382,-0.106593 0.055856,-0.230736 -0.1456189,-0.218424 0.06261,0.05878 0.043261,0.199422 0.1456189,0.218424 z M 6.098391,11.562732 c 0.1566898,0.06179 0.2575232,0.179324 0.2184329,0.436857 0.00456,0.247477 -0.3739544,0.11147 -0.3640518,0.364045 0.2870121,-0.170884 0.2226495,0.137027 0.5096616,0.145619 0.044356,-0.174087 -0.091369,-0.528228 0.072832,-0.582478 0.3857463,-0.06781 0.6242674,0.391717 0.8737133,0.218431 -0.268521,-0.289712 -0.7912249,-0.325243 -0.8737133,-0.800907 -0.1657163,0.203292 -0.2820653,0.0046 -0.4368567,0.218433 z m 10.77578,1.456186 c 0.08607,0.0838 0.257386,0.08243 0.436856,0.07281 -0.02866,-0.238306 -0.385089,-0.148822 -0.291237,-0.509666 1.320618,0.09698 -0.532452,1.241691 0.218433,1.310568 0.227304,0.02083 0.847647,-0.645819 0.800899,-1.09214 -0.02902,-0.278058 -0.538128,-0.160763 -0.291238,-0.509665 0.151953,0.242892 0.722272,0.484255 0.728095,-0.0728 -0.409038,-0.0074 -0.956129,-0.177365 -1.383375,-0.218426 0.412095,-0.53289 0.648216,0.03404 1.237756,0.07281 -0.197387,-0.16506 -0.412096,-0.598567 -0.873714,-0.582476 -0.329461,0.0115 -0.461097,0.42062 -0.728094,0.436857 -0.165059,0.01004 -1.042332,-0.674502 -1.092137,0.07283 -0.02473,0.371687 0.661112,0.712071 1.237756,0.364043 0.01661,-0.129018 -0.07338,-0.364627 0.145619,-0.291238 0.02035,0.165932 -0.01752,0.27369 -0.145619,0.291238 0.181953,0.220757 -0.167387,0.419963 0,0.655284 z M 5.5887295,12.145206 c -0.086066,-0.0838 -0.2573863,-0.08243 -0.4368567,-0.07281 0.0073,0.282354 0.3202155,0.206269 0.4368567,0.07281 z M 16.21889,13.747012 c 0.04089,0.332156 -0.274563,0.30791 -0.218433,0.655284 0.193024,0.0012 0.42878,-0.04041 0.436857,0.145618 -0.08871,0.154065 -0.273979,0.211439 -0.291238,0.436856 0.150794,0.04333 0.478293,-0.08999 0.509671,0.07281 -0.03797,0.114602 -0.280386,0.389894 -0.07283,0.509666 0.08972,-0.10441 0.250322,-0.137975 0.436856,-0.145619 0.05266,0.222505 -0.07438,0.265389 -0.07283,0.436855 0.305284,0.06211 0.643781,-0.355236 0.728095,-0.364046 0.188789,-0.01973 0.457967,0.273982 0.65528,0.145619 0.190249,-0.123703 0.100916,-0.404238 0.218433,-0.655284 -0.775572,0.477338 -1.588483,-0.417708 -0.728094,-0.800903 -0.727155,-0.150424 -0.621137,0.86199 -0.218433,1.237759 -0.861402,-0.37475 -1.098837,-1.823364 -1.019333,-2.693946 -0.633367,-0.05461 -1.178559,0.881066 -0.364042,1.019331 z M 6.8264855,13.237346 c 0.2358287,-0.7586 -0.8200566,-0.148531 0,0 l 0,0 z m 0.4368567,-0.291237 c 0.1089198,0.115402 0.2977908,0.05358 0.3640426,-0.07281 -0.1089198,-0.115403 -0.2977908,-0.05358 -0.3640426,0.07281 z m 12.0863498,0.509665 c 0.272382,-0.201463 0.126763,-0.656959 -0.291238,-0.582475 -0.02647,0.317668 0.132294,0.45018 0.291238,0.582475 z m -0.218433,0.145619 c 0.104046,-0.689068 -1.312386,-0.572573 -1.310561,0.291237 0.408892,0.119043 1.254431,0.08038 1.310561,-0.291237 z M 6.3896288,13.81982 c 0.3141006,0.01777 0.8133575,-0.01485 0.7280945,0.582476 0.3359411,0.0281 0.5369691,0.191124 0.5096615,0.582474 -0.2059747,0.01245 -0.4994668,-0.06262 -0.5096615,0.145618 0.3351379,0.0514 0.7887424,-0.191706 1.0921371,0.145619 C 8.061111,14.787457 8.6813717,15.067991 8.6467171,14.693533 8.286097,14.908466 7.493859,14.942031 7.6273848,14.256677 7.1647539,14.306701 7.2234396,13.835475 7.1177233,13.528583 6.7380189,13.649811 6.6502825,13.647044 6.3896288,13.81982 z m 1.0193323,-0.291237 c -0.00639,0.0064 0,0.06277 0,0.07281 0,0.374459 0.2618949,-0.334777 0,-0.07281 z m 2.2570882,1.601805 c -0.067904,0.07769 -0.268594,0.02272 -0.2184237,0.218429 0.6792384,0.0088 1.0737194,0.662419 1.0193234,1.164949 0.446029,-0.04944 0.315706,0.319998 0.436856,0.655284 0.182245,0.504642 0.473264,0.534639 0.07283,0.873713 0.618152,-0.03837 0.528517,1.354908 0.145618,1.456186 0.705816,-0.153191 0.433727,0.72154 0.07283,0.728093 0.165716,0.03531 0.37191,0.144455 0.50967,0 0.137533,-3.290254 -1.557396,-5.058938 -3.2764198,-6.698459 0.2280344,0.71841 0.8632997,1.029816 1.2377561,1.601805 z M 5.8799672,13.89263 c 0.1290172,-0.0166 0.3646268,0.07339 0.2912378,-0.145618 -0.1659352,-0.02032 -0.2736959,0.01755 -0.2912378,0.145618 z m 12.5960118,0.145619 c 0.05668,0.558011 0.749131,0.510175 0.65528,-0.145619 -0.297572,-0.03058 -0.294295,0.239688 -0.65528,0.145619 z m -0.364043,0.509665 c 0.257377,0.03386 0.25599,0.326477 0.582475,0.291238 C 18.5576,14.61701 18.375647,14.25209 18.111936,14.547914 z m -11.4310694,-0.0728 c -0.1089198,0.01245 -0.2686671,-0.02599 -0.2912378,0.0728 0.096763,0.09458 0.2709214,0.09596 0.2912378,-0.0728 z m 2.3299023,0.218428 c -0.085701,0.01136 -0.206641,-0.01252 -0.2184329,0.07281 0.085701,-0.01135 0.2066319,0.01252 0.2184329,-0.07281 z m -1.0921463,1.019326 c 0.3279369,-0.255851 0.6946081,0.207143 0.8737134,0.07281 -0.1703709,-0.01871 -0.041983,-0.319925 0,-0.364047 -0.4077329,-0.01944 -0.6924176,0.08417 -0.8737134,0.291237 z m -0.5096615,0 c -0.00639,0.0064 0,0.06277 0,0.07281 0,0.374459 0.2618949,-0.334778 0,-0.07281 z m 2.1842742,0.291237 c 0.1290263,-0.0166 0.3646359,0.07339 0.2912378,-0.145618 -0.1355702,0.01005 -0.2433218,0.04791 -0.2912378,0.145618 z m -0.1456097,1.456188 c 0.1690566,0.05839 0.4134098,0.233208 0.5824664,0.0728 0,-0.09705 0,-0.194182 0,-0.291237 -0.4306595,0.0988 -0.3939696,-0.350213 -0.2912378,-0.582475 -0.4770422,0.06844 -0.6184353,-0.392807 -0.3640426,-0.655284 -0.231603,0.111326 -0.3202886,0.02556 -0.5824756,0 0.1061544,0.54658 0.9495848,0.976591 0.6552896,1.456187 z M 7.8458177,16.440961 c 0.1659262,0.02032 0.2736869,-0.01754 0.2912378,-0.145618 -0.1290171,0.0166 -0.3646359,-0.07339 -0.2912378,0.145618 z m 1.1649512,0.436857 c -0.084515,-0.06109 -0.1952051,-0.09604 -0.3640518,-0.07281 -5.111e-4,0.253231 0.292479,0.238232 0.3640518,0.07281 z m -0.6552896,0.145618 c -0.030484,-0.0305 0.047733,0.04769 0,0 l 0,0 z m 2.0386647,0.145619 c -0.0064,0.0064 0,0.06276 0,0.0728 0,0.413775 0.363677,-0.436492 0,-0.0728 z M 8.5739122,17.67872 C 8.6706752,17.7733 8.8448336,17.77468 8.86515,17.60591 8.768387,17.51133 8.5942194,17.50995 8.5739122,17.67872 z m 0.5096616,-0.07281 c -0.030484,-0.0305 0.047733,0.04769 0,0 l 0,0 z m 0.8008993,0.509666 c -0.1805656,-0.01071 -0.3533369,-0.01362 -0.3640427,0.145618 0.7414926,-0.181077 0.4138479,0.18166 0.4368567,0.655284 0.00913,0.182607 0.2603619,0.308566 0.2184239,0.509665 -0.06471,0.310314 -0.03395,1.028433 0.218433,1.237759 0.03623,-0.255051 0.406053,-0.176416 0.509661,-0.364046 -0.622004,0.122611 -0.541331,-0.499181 -0.364042,-0.800903 -0.5678455,-0.240416 0.142342,-1.601223 -0.7280948,-1.820234 -0.052753,0.222725 0.1255946,0.214133 0.072832,0.436857 z m 0.5824759,-0.07281 c 0.42062,0.26124 0.172123,-0.382249 0,0 l 0,0 z m -1.4561801,0.364048 c 0.1659261,0.02032 0.2736868,-0.01755 0.2912378,-0.145619 -0.1290263,0.0166 -0.3646359,-0.07339 -0.2912378,0.145619 z m -0.3640518,0 c 0.1061544,0.24129 0.1811497,-0.283957 0,0 l 0,0 z m 2.4755209,0.291237 c -0.05649,0.01631 -0.143656,0.002 -0.145619,0.07281 0.05649,-0.01631 0.143648,-0.002 0.145619,-0.07281 z m -1.6746124,0.291237 c 0.104402,0.111108 0.3794761,0.07092 0.3640426,-0.145619 -0.1805656,-0.0107 -0.353346,-0.01362 -0.3640426,0.145619 z M 8.792336,19.134907 c 0.1456189,0 0.2912378,0 0.4368567,0 0.039428,-0.292184 -0.4224363,-0.108267 -0.4368567,0 z m 1.893045,0.436856 c -0.03048,-0.03051 0.04773,0.04769 0,0 l 0,0 z m -1.5289932,0.291238 c 0.2059747,-0.01245 0.4994668,0.06262 0.5096615,-0.145619 -0.1843532,0.130911 -0.4128256,-0.138484 -0.5096615,0.145619 z m 8.6643102,1.310568 c -0.485932,-0.06575 -1.257853,-0.264954 -2.038664,-0.364047 -0.9233,-0.117151 -1.847466,-0.467655 -2.402708,-0.509666 -0.885213,-0.06698 -1.51764,0.4188 -1.456188,1.019331 0.02108,0.205468 0.532095,0.808475 0.655289,0.873712 1.406895,0.745131 5.296731,-0.25658 6.989689,0.145619 -0.795515,-0.541556 -2.429495,-0.935746 -3.713277,-1.09214 -0.604609,-0.07368 -2.585236,-0.387128 -2.76675,0 -0.282723,0.602934 1.765406,0.380793 2.76675,0.436856 0.709311,0.03968 1.230408,0.100623 1.747426,0.364046 -1.143247,-0.0099 -2.959335,0.236703 -4.222939,0 -0.336233,-0.06298 -1.018237,-0.446102 -1.019332,-0.800902 -0.0027,-0.796316 1.074523,-0.491608 1.674613,-0.436856 1.81565,0.165568 4.047767,0.454549 5.38789,0.946522 0.243623,-0.132004 -0.316428,-0.450472 -0.07283,-0.582475 0.307328,-0.03721 0.503035,0.41494 0.800899,0.145618 -0.655719,-0.709308 -1.308307,-0.0074 -2.329893,-0.145618 z M 9.8116682,20.518285 c -0.056495,0.01631 -0.1436566,0.002 -0.1456189,0.0728 0.056495,-0.01631 0.1436567,-0.002 0.1456189,-0.0728 z M 20.441829,22.04728 c -0.348098,0.08111 -0.307182,-0.226728 -0.65528,-0.145618 0,0.145618 0,0.291237 0,0.436856 0.566239,-0.03976 0.993485,0.203356 1.237756,-0.07281 -0.125522,-0.312862 -0.449379,-0.810659 -0.8009,-0.655284 0.157265,0.01835 0.3347,0.385671 0.218424,0.436856 z m -0.728094,1.09214 c 0.512436,-0.0067 1.887222,0.288399 1.965859,-0.145618 0.09596,-0.529542 -0.590124,-0.357203 -0.728094,-0.364047 -5.040303,-0.250318 -11.1101239,-0.06903 -16.0180601,0 -0.8450186,0.01187 -1.8333378,-0.199206 -2.4755121,-0.0728 -0.1928777,0.03793 -0.1365194,0.419383 -0.1456189,0.582475 5.3735425,0.153045 11.8120791,0.07317 17.4014261,0 z"
     id="path3493"
     inkscape:connector-curvature="0"
     style="fill-rule:evenodd" /></svg>