<?xml version="1.0" encoding="utf-8"?>
<!-- Generator: Adobe Illustrator 15.1.0, SVG Export Plug-In . SVG Version: 6.00 Build 0)  -->
<!DOCTYPE svg PUBLIC "-//W3C//DTD SVG 1.1//EN" "http://www.w3.org/Graphics/SVG/1.1/DTD/svg11.dtd">
<svg version="1.1" id="Layer_1" xmlns="http://www.w3.org/2000/svg" xmlns:xlink="http://www.w3.org/1999/xlink" x="0px" y="0px"
	 width="24px" height="24px" viewBox="0 0 24 24" enable-background="new 0 0 24 24" xml:space="preserve">
<path d="M3.12,8.29c1.913,0.423,2.725-0.597,3.71-1.582c1.643-1.643,3.592-3.632,5.049-5.109c0.301,0.285,0.666,0.606,1.216,1.155
	c0.244,0.244,1.09,0.98,1.095,1.095c0.011,0.249-1.217,1.217-1.521,1.52c-1.146,1.147-1.844,1.906-2.98,3.041
	c-0.494,0.494-1.083,1.198-1.521,1.46C6.314,10.98,3.664,9.962,3.12,8.29z M17.413,6.952c-1.005-1.004-2.088-1.898-1.764-3.832
	c-1.568,0.761-2.541,3.063-1.581,4.927c0.267,0.518,0.947,1.069,1.459,1.581c1.487,1.487,3.294,3.302,4.684,4.562
	c0.704-0.756,1.434-1.486,2.189-2.19C20.927,10.326,19.066,8.605,17.413,6.952z M9.081,13.52c1.081,2.156,4.658,2.357,5.839,0
	c1.305-2.604-0.961-5.042-3.407-4.683C9.643,9.111,7.925,11.214,9.081,13.52z M9.871,15.893c-0.292-0.482-0.942-0.943-1.459-1.461
	C6.959,12.98,5.107,11.04,3.85,9.871c-0.786,0.694-1.465,1.495-2.25,2.189c1.472,1.67,3.335,3.397,4.987,5.049
	c1.01,1.008,2.103,1.871,1.764,3.83C9.859,20.313,10.948,17.67,9.871,15.893z M15.771,14.189c-0.507,0.344-0.942,1.006-1.461,1.52
	c-1.479,1.469-3.193,3.037-4.439,4.502c0.743,0.736,1.425,1.535,2.25,2.189c1.674-1.506,3.352-3.434,5.049-5.109
	c0.96-0.947,1.878-1.941,3.71-1.582C20.368,14.072,17.466,13.033,15.771,14.189z"/>
</svg>
