<?xml version="1.0" encoding="utf-8"?>
<!-- Generator: Adobe Illustrator 15.1.0, SVG Export Plug-In . SVG Version: 6.00 Build 0)  -->
<!DOCTYPE svg PUBLIC "-//W3C//DTD SVG 1.1//EN" "http://www.w3.org/Graphics/SVG/1.1/DTD/svg11.dtd">
<svg version="1.1"
	 id="svg2990" inkscape:version="0.48.5 r10040" sodipodi:docname="gas.svg" xmlns:inkscape="http://www.inkscape.org/namespaces/inkscape" xmlns:sodipodi="http://sodipodi.sourceforge.net/DTD/sodipodi-0.dtd" xmlns:rdf="http://www.w3.org/1999/02/22-rdf-syntax-ns#" xmlns:dc="http://purl.org/dc/elements/1.1/" xmlns:svg="http://www.w3.org/2000/svg" xmlns:cc="http://creativecommons.org/ns#"
	 xmlns="http://www.w3.org/2000/svg" xmlns:xlink="http://www.w3.org/1999/xlink" x="0px" y="0px" width="24px" height="24px"
	 viewBox="0 0 24 24" enable-background="new 0 0 24 24" xml:space="preserve">
<path id="path3128" inkscape:connector-curvature="0" d="M5.646,2.975C7.709,2.744,9.51,4.358,9.283,6.569
	c-0.193,1.887-2.072,3.498-4.33,2.814C2.991,8.789,2.099,6.237,3.179,4.448C3.586,3.772,4.451,3.11,5.646,2.975z M9.066,20.424
	c0.68,0,1.357,0,2.035,0c1.192-5.777,2.455-11.487,3.594-17.319c-0.497,0.018-1.274-0.012-1.905,0
	C11.496,8.825,10.321,14.664,9.066,20.424z M11.838,20.25c3.023-5.75,6.175-11.375,9.179-17.145c-1.876,0-3.752,0-5.628,0
	C14.162,8.75,12.905,14.594,11.838,20.25z M3.006,20.424c1.804,0,3.607,0,5.412,0c1.171-5.539,2.474-11.178,3.507-16.712
	C8.961,9.292,5.954,14.828,3.006,20.424z M14.695,17.523c0.143,1.273,1.079,2.311,2.121,2.684c1.97,0.705,4.286-0.561,4.46-2.857
	c0.1-1.311-0.604-2.33-1.126-2.771c-0.562-0.475-1.529-0.855-2.554-0.736C15.864,14.045,14.467,15.479,14.695,17.523z"/>
</svg>
