<?xml version="1.0" encoding="UTF-8" standalone="no"?>
<!-- Generator: Adobe Illustrator 15.1.0, SVG Export Plug-In . SVG Version: 6.00 Build 0)  -->

<svg
   xmlns:dc="http://purl.org/dc/elements/1.1/"
   xmlns:cc="http://creativecommons.org/ns#"
   xmlns:rdf="http://www.w3.org/1999/02/22-rdf-syntax-ns#"
   xmlns:svg="http://www.w3.org/2000/svg"
   xmlns="http://www.w3.org/2000/svg"
   xmlns:sodipodi="http://sodipodi.sourceforge.net/DTD/sodipodi-0.dtd"
   xmlns:inkscape="http://www.inkscape.org/namespaces/inkscape"
   version="1.1"
   id="Layer_1"
   x="0px"
   y="0px"
   width="24"
   height="24"
   viewBox="0 0 24 24"
   enable-background="new 0 0 500 500"
   xml:space="preserve"
   inkscape:version="0.48.5 r10040"
   sodipodi:docname="day.svg"><metadata
     id="metadata3123"><rdf:RDF><cc:Work
         rdf:about=""><dc:format>image/svg+xml</dc:format><dc:type
           rdf:resource="http://purl.org/dc/dcmitype/StillImage" /><dc:title></dc:title></cc:Work></rdf:RDF></metadata><defs
     id="defs3121" /><sodipodi:namedview
     pagecolor="#ffffff"
     bordercolor="#666666"
     borderopacity="1"
     objecttolerance="10"
     gridtolerance="10"
     guidetolerance="10"
     inkscape:pageopacity="0"
     inkscape:pageshadow="2"
     inkscape:window-width="657"
     inkscape:window-height="480"
     id="namedview3119"
     showgrid="false"
     inkscape:zoom="5.3400704"
     inkscape:cx="12.733522"
     inkscape:cy="6.8163761"
     inkscape:window-x="0"
     inkscape:window-y="27"
     inkscape:window-maximized="0"
     inkscape:current-layer="Layer_1" /><path
     clip-rule="evenodd"
     d="m 18.154103,6.2391456 c 0.01321,1.0364108 -0.04236,2.1416065 0.06174,3.0871321 -2.840776,0.5711822 -4.89477,2.6879063 -6.729948,4.6924423 -1.463238,1.598332 -3.5705787,3.845951 -6.4212372,3.766303 C 2.6017423,17.716244 0.69086915,15.971515 0.92789898,13.216067 1.1436897,10.707585 3.1891627,9.3450461 5.8055694,9.5732486 7.4478628,9.7164921 8.6512884,10.562427 9.8805836,11.42553 9.7174607,11.818089 9.4494983,12.105809 9.2631588,12.475154 7.7069347,11.270247 4.1687718,9.9314184 2.7801789,12.042954 c -1.0806204,1.643222 -0.084896,3.919982 1.6670516,4.198504 2.445442,0.38873 4.3031551,-1.591913 5.4333531,-3.087135 1.9415624,-2.568681 3.4191254,-6.6275194 7.4708634,-6.9151774 0.243143,-0.017298 0.347613,-0.052234 0.802657,0 z m 0.987881,11.5458774 c 5.381492,-0.183499 5.425577,-8.9395356 -0.864395,-8.2735156 -0.143924,0.9056996 -0.02067,2.0785666 -0.06174,3.0871326 2.433402,0.12929 2.329365,3.642818 0,3.642818 -0.967569,0 -1.911552,-0.765426 -2.654936,-1.234854 -0.87909,-0.555068 -1.539057,-1.059938 -2.284478,-1.605311 -0.257837,0.380211 -0.690159,0.585813 -0.864397,1.049625 1.784794,1.228434 3.752904,3.435672 6.72995,3.334105 z"
     id="path3117"
     inkscape:connector-curvature="0"
     style="fill-rule:evenodd" /></svg>