<?xml version="1.0" encoding="UTF-8" standalone="no"?>
<!-- Generator: Adobe Illustrator 15.1.0, SVG Export Plug-In . SVG Version: 6.00 Build 0)  -->

<svg
   xmlns:dc="http://purl.org/dc/elements/1.1/"
   xmlns:cc="http://creativecommons.org/ns#"
   xmlns:rdf="http://www.w3.org/1999/02/22-rdf-syntax-ns#"
   xmlns:svg="http://www.w3.org/2000/svg"
   xmlns="http://www.w3.org/2000/svg"
   xmlns:sodipodi="http://sodipodi.sourceforge.net/DTD/sodipodi-0.dtd"
   xmlns:inkscape="http://www.inkscape.org/namespaces/inkscape"
   version="1.1"
   id="Layer_1"
   x="0px"
   y="0px"
   width="24"
   height="24"
   viewBox="0 0 24 24"
   enable-background="new 0 0 500 500"
   xml:space="preserve"
   inkscape:version="0.48.5 r10040"
   sodipodi:docname="gardeshgari.svg"><metadata
     id="metadata3206"><rdf:RDF><cc:Work
         rdf:about=""><dc:format>image/svg+xml</dc:format><dc:type
           rdf:resource="http://purl.org/dc/dcmitype/StillImage" /><dc:title></dc:title></cc:Work></rdf:RDF></metadata><defs
     id="defs3204" /><sodipodi:namedview
     pagecolor="#ffffff"
     bordercolor="#666666"
     borderopacity="1"
     objecttolerance="10"
     gridtolerance="10"
     guidetolerance="10"
     inkscape:pageopacity="0"
     inkscape:pageshadow="2"
     inkscape:window-width="657"
     inkscape:window-height="480"
     id="namedview3202"
     showgrid="false"
     inkscape:zoom="3.776"
     inkscape:cx="12.413403"
     inkscape:cy="11.128232"
     inkscape:window-x="0"
     inkscape:window-y="27"
     inkscape:window-maximized="0"
     inkscape:current-layer="Layer_1" /><g
     id="g3192"
     transform="matrix(0.06954009,0,0,0.06954009,-5.3502525,-4.4487309)"><path
       clip-rule="evenodd"
       d="m 168,87 c 37.543,-0.21 75.012,-0.346 109,3 21.188,28.479 36.665,62.668 54,95 -4.844,13.823 -13.855,23.478 -20,36 -10.261,-11.739 -14.624,-29.376 -24,-42 -38.485,-5.497 -90.813,-3.312 -131,-1 -21.584,27.082 -35.482,61.851 -56,90 -9.926,-7.407 -13.386,-21.28 -21,-31 17.773,-31.228 34.926,-63.074 55,-92 43.066,-0.601 88.577,1.244 130,-1 -0.305,-8.695 -5.259,-12.742 -9,-18 -32.369,-4.631 -74.171,0.171 -108,-3 5.18,-13.82 12.372,-25.628 21,-36 z"
       id="path3194"
       inkscape:connector-curvature="0"
       style="fill-rule:evenodd" /><path
       clip-rule="evenodd"
       d="m 386,181 c -14.973,29.544 -30.479,58.193 -47,88 -5.021,9.058 -13.003,17.272 -14,28 1.975,3.635 13.452,2.168 17,1 22.996,-27.004 35.852,-64.149 57,-93 8.627,9.707 14.13,22.537 21,34 -17.826,33.507 -35.845,66.822 -57,97 -33.887,1.812 -74.053,1.441 -108,0 -7.987,-11.013 -15.157,-22.843 -21,-36 10.058,-1.032 31.054,0.66 47,0 26.521,-33.813 45.135,-75.531 66,-115 -16.299,-31.701 -36.611,-59.389 -52,-92 9.709,-2.367 24.869,-4.362 36,-2 21.27,27.064 36.566,60.1 55,90 z"
       id="path3196"
       inkscape:connector-curvature="0"
       style="fill-rule:evenodd" /><path
       clip-rule="evenodd"
       d="m 203,194 c -3.356,7.455 -7.503,13.473 -12,21 -3.972,6.647 -11.928,13.688 -12,21 -0.075,7.568 10.314,21.583 15,30 15.478,27.803 34.857,60.478 51,83 29.166,3.117 72.636,-1.079 105,2 -2.194,14.806 -10.56,23.44 -17,34 -32.355,2.312 -68.984,0.35 -103,1 -27.422,-33.912 -43.582,-79.085 -71,-113 -15.825,11.582 -5.595,25.718 3,41 12.704,22.588 29.758,49.933 40,71 -11.382,2.285 -26.964,0.369 -40,1 -20.48,-30.52 -37.367,-64.634 -56,-97 17.068,-33.932 36.37,-65.63 57,-96 13.036,0.631 28.618,-1.285 40,1 z"
       id="path3198"
       inkscape:connector-curvature="0"
       style="fill-rule:evenodd" /><path
       clip-rule="evenodd"
       d="m 247,199 c 26.703,-0.055 45.418,19.671 40,52 -8.393,13.595 -19.801,26.617 -39,26 -20.01,-0.644 -32.079,-15.123 -38,-32 -0.653,-28.32 12.516,-42.817 37,-46 z"
       id="path3200"
       inkscape:connector-curvature="0"
       style="fill-rule:evenodd" /></g></svg>