<?xml version="1.0" encoding="UTF-8" standalone="no"?>
<!-- Generator: Adobe Illustrator 15.1.0, SVG Export Plug-In . SVG Version: 6.00 Build 0)  -->

<svg
   xmlns:dc="http://purl.org/dc/elements/1.1/"
   xmlns:cc="http://creativecommons.org/ns#"
   xmlns:rdf="http://www.w3.org/1999/02/22-rdf-syntax-ns#"
   xmlns:svg="http://www.w3.org/2000/svg"
   xmlns="http://www.w3.org/2000/svg"
   xmlns:sodipodi="http://sodipodi.sourceforge.net/DTD/sodipodi-0.dtd"
   xmlns:inkscape="http://www.inkscape.org/namespaces/inkscape"
   version="1.1"
   id="Layer_1"
   x="0px"
   y="0px"
   width="24"
   height="24"
   viewBox="0 0 24 24"
   enable-background="new 0 0 500 500"
   xml:space="preserve"
   inkscape:version="0.48.5 r10040"
   sodipodi:docname="iran_zamin.svg"><metadata
     id="metadata3233"><rdf:RDF><cc:Work
         rdf:about=""><dc:format>image/svg+xml</dc:format><dc:type
           rdf:resource="http://purl.org/dc/dcmitype/StillImage" /><dc:title></dc:title></cc:Work></rdf:RDF></metadata><defs
     id="defs3231" /><sodipodi:namedview
     pagecolor="#ffffff"
     bordercolor="#666666"
     borderopacity="1"
     objecttolerance="10"
     gridtolerance="10"
     guidetolerance="10"
     inkscape:pageopacity="0"
     inkscape:pageshadow="2"
     inkscape:window-width="657"
     inkscape:window-height="480"
     id="namedview3229"
     showgrid="false"
     inkscape:zoom="5.3400704"
     inkscape:cx="10.631053"
     inkscape:cy="17.443063"
     inkscape:window-x="0"
     inkscape:window-y="27"
     inkscape:window-maximized="0"
     inkscape:current-layer="Layer_1" /><path
     clip-rule="evenodd"
     d="M 19.895349,19.880513 C 21.802926,16.953585 21.349552,11.981076 19.608831,9.4701803 17.620265,6.6018031 13.710277,5.1800744 9.4850208,6.4139364 12.995593,3.293419 19.912831,3.8572 22.187533,8.1330744 24.431297,12.350691 22.553997,17.505525 19.895349,19.880513 z M 7.7658828,11.475841 c -0.5377041,4.52878 5.8240562,6.073905 7.9271352,2.578707 C 17.593999,10.89525 14.6049,7.3478137 11.10865,8.0375696 9.3481591,8.3849305 7.9547985,9.8852584 7.7658828,11.475841 z M 7.4793598,2.211605 c -3.4029346,2.391889 -3.8965166,8.627489 -1.1460877,11.938448 -2.881e-4,0.0531 0.077361,0.108404 0.095505,0 C 6.1732019,13.005204 5.8762655,11.795505 6.0467493,10.425258 6.8269495,4.152795 13.457854,0.98404601 19.608831,3.930738 17.30165,0.84670301 11.084775,-0.32259399 7.47936,2.211605 z M 0.88933515,12.812947 C 1.5378332,18.043711 7.0248424,20.943036 12.254742,18.829926 13.050893,18.508259 13.959171,18.094613 14.260403,17.49282 9.0098701,19.121703 4.6387742,16.232026 3.2770282,12.239901 2.3935802,9.6501187 3.1071202,6.1540617 3.9455792,4.121757 2.0703822,6.3403032 0.44121515,9.1982713 0.88933515,12.812947 z M 10.726622,23.127771 c 5.286825,0.456908 8.44335,-2.729895 8.977714,-7.354089 C 19.431756,13.308443 18.861767,11.140515 17.60317,9.6611985 19.289739,16.043016 15.212041,21.176073 9.2940069,21.217619 7.3084977,21.231549 5.4867865,20.470654 4.1365972,19.976018 5.8857199,21.5029 7.8795401,22.881741 10.726622,23.127771 z"
     id="path3227"
     inkscape:connector-curvature="0"
     style="fill-rule:evenodd" /></svg>