<?xml version="1.0" encoding="utf-8"?>
<!-- Generator: Adobe Illustrator 15.1.0, SVG Export Plug-In . SVG Version: 6.00 Build 0)  -->
<!DOCTYPE svg PUBLIC "-//W3C//DTD SVG 1.1//EN" "http://www.w3.org/Graphics/SVG/1.1/DTD/svg11.dtd">
<svg version="1.1"
	 id="svg2990" inkscape:version="0.48.5 r10040" sodipodi:docname="gas.svg" xmlns:inkscape="http://www.inkscape.org/namespaces/inkscape" xmlns:sodipodi="http://sodipodi.sourceforge.net/DTD/sodipodi-0.dtd" xmlns:rdf="http://www.w3.org/1999/02/22-rdf-syntax-ns#" xmlns:dc="http://purl.org/dc/elements/1.1/" xmlns:svg="http://www.w3.org/2000/svg" xmlns:cc="http://creativecommons.org/ns#"
	 xmlns="http://www.w3.org/2000/svg" xmlns:xlink="http://www.w3.org/1999/xlink" x="0px" y="0px" width="24px" height="24px"
	 viewBox="0 0 24 24" enable-background="new 0 0 24 24" xml:space="preserve">
<path id="path3058" inkscape:connector-curvature="0" d="M3.067,2.352c5.996,0.04,12.147-0.079,18.044,0.059
	c0,2.071,0,4.142,0,6.212c-0.112,0.183-0.225,0.365-0.354,0.532c-0.188,0.109-0.132,0.459-0.354,0.533
	c-0.197,0.376-0.473,0.67-0.71,1.006c-0.356,0.137-0.604,0.382-0.889,0.592c-0.316-0.021-0.425,0.164-0.65,0.236
	c-0.814,0.086-1.326-0.132-2.011-0.177c-0.256-0.199-0.599-0.309-0.889-0.473c-0.259,0.044-0.241-0.191-0.414-0.237
	c-0.287,0.072-0.159-0.274-0.473-0.177c-0.245-0.209-0.534-0.373-0.887-0.474c-0.221-0.214-0.482-0.385-0.77-0.532
	C12.6,9.327,12.42,9.269,12.238,9.215C12.2,9.037,11.969,9.05,11.882,8.919c-0.15-0.067-0.288-0.146-0.414-0.237
	c-0.277,0.061-0.197-0.237-0.473-0.177c-0.173-0.064-0.223-0.25-0.474-0.237c-0.136-0.08-0.196-0.237-0.473-0.177
	C9.869,7.837,9.382,7.89,9.162,7.677C8.623,7.663,8.168,7.565,7.683,7.5c-0.305,0.07-0.612,0.138-0.947,0.177
	C6.464,7.662,6.49,7.944,6.204,7.914C6.044,7.992,5.889,8.072,5.73,8.15c-0.332,0.2-0.586,0.479-0.828,0.769
	C4.577,9.108,4.41,9.453,4.133,9.688c-0.201,0.313-0.454,0.572-0.592,0.947c-0.089,0.167-0.261,0.252-0.295,0.473
	c-0.059,0.08-0.098,0.179-0.178,0.237c0.043,0.096-0.118,0.257-0.118,0.119C2.844,9.576,2.89,6.923,2.89,4.66
	c0-0.781,0.041-1.52,0-2.13C2.923,2.445,2.982,2.385,3.067,2.352z M20.757,14.362c-0.209,0.048-0.167,0.346-0.354,0.414
	c-0.227,0.286-0.47,0.556-0.65,0.888c-0.551,0.496-1.031,1.06-1.716,1.42c-0.258-0.021-0.331,0.144-0.532,0.177
	c-0.633,0-1.263,0-1.894,0c-0.523-0.245-1.031-0.508-1.539-0.769c-0.465-0.323-1.065-0.513-1.479-0.888
	c-0.508-0.279-1.007-0.569-1.479-0.888c-0.252-0.142-0.568-0.219-0.768-0.414c-0.317-0.077-0.581-0.207-0.769-0.415
	c-0.394,0.04-0.532-0.177-0.828-0.236c-0.699,0.067-1.086-0.176-1.776-0.118c-0.188,0.127-0.5,0.132-0.828,0.118
	c-0.156,0.16-0.449,0.183-0.533,0.414c-0.401-0.064-0.392,0.28-0.65,0.356c-0.407,0.263-0.782,0.559-1.183,0.828
	c-0.129,0.187-0.312,0.318-0.415,0.531c-0.068,0.089-0.171,0.145-0.177,0.297c-0.151,0.007-0.229,0.085-0.237,0.237
	c-0.091,1.689-0.07,4.099,0,5.62c1.464,0.009,2.97,0,4.497,0c1.488,0,2.995,0.021,4.437,0c3.089-0.045,6.159,0.034,9.169,0
	c0.139-2.505,0.021-5.266,0.06-7.87C20.953,13.936,20.831,14.222,20.757,14.362z"/>
</svg>
