<?xml version="1.0" encoding="utf-8"?>
<!-- Generator: Adobe Illustrator 15.1.0, SVG Export Plug-In . SVG Version: 6.00 Build 0)  -->
<!DOCTYPE svg PUBLIC "-//W3C//DTD SVG 1.1//EN" "http://www.w3.org/Graphics/SVG/1.1/DTD/svg11.dtd">
<svg version="1.1"
	 id="svg2990" xmlns:rdf="http://www.w3.org/1999/02/22-rdf-syntax-ns#" xmlns:sodipodi="http://sodipodi.sourceforge.net/DTD/sodipodi-0.dtd" xmlns:inkscape="http://www.inkscape.org/namespaces/inkscape" xmlns:cc="http://creativecommons.org/ns#" xmlns:svg="http://www.w3.org/2000/svg" xmlns:dc="http://purl.org/dc/elements/1.1/" inkscape:version="0.48.5 r10040" sodipodi:docname="gas.svg"
	 xmlns="http://www.w3.org/2000/svg" xmlns:xlink="http://www.w3.org/1999/xlink" x="0px" y="0px" width="24px" height="24px"
	 viewBox="0 0 24 24" enable-background="new 0 0 24 24" xml:space="preserve">
<path d="M21.378,14.229V2.953H3.844v11.277h2.279c0.061,0.197,0.148,0.387,0.269,0.563c-0.23,0.34-0.356,0.718-0.356,1.128
	c0,0.408,0.126,0.789,0.356,1.128c-0.23,0.339-0.356,0.717-0.356,1.126c0,1.662,2.028,2.82,4.931,2.82
	c2.904,0,4.932-1.158,4.932-2.82c0-0.409-0.125-0.787-0.355-1.126h-0.001c0.23-0.339,0.356-0.72,0.356-1.128
	c0-0.41-0.125-0.788-0.355-1.128h-0.001c0.12-0.176,0.208-0.366,0.269-0.563H21.378L21.378,14.229z M7.131,4.644
	C6.311,5.75,6.607,6.409,5.7,6.409l0.428,4.223c-0.103,1.127-0.195-0.173,0.885,1.282c-0.439,0.336-0.752,0.733-0.889,1.187H4.94
	v-9.02h15.342v9.02h-4.472c-0.061-0.198-0.148-0.387-0.269-0.563c0,0.001,0.001,0.001,0.001,0.001h2.548
	c1.353-0.018,0.736-1.693,1.643-1.693v-4.51c-0.906,0-0.153-1.709-1.643-1.691h-4.18c0.854,0.764,1.439,2.235,1.439,3.947
	c0,1.205-0.295,2.283-0.764,3.088c-0.874-0.521-2.127-0.833-3.62-0.833c-0.246,0-0.478,0.02-0.71,0.035c0.001,0,0.002,0,0.002,0
	c-0.245-0.669-0.388-1.449-0.388-2.291c0-1.711,0.586-3.183,1.439-3.947 M15.176,12.124c-0.017-0.016-0.026-0.033-0.043-0.048
	C15.149,12.091,15.159,12.107,15.176,12.124z M7.131,8.591c0-0.467,0.368-0.846,0.822-0.846c0.453,0,0.821,0.379,0.821,0.846
	c0,0.466-0.368,0.846-0.821,0.846C7.5,9.437,7.131,9.058,7.131,8.591z M10.966,19.867c-2.118,0-3.835-0.757-3.835-1.692
	c0-0.123,0.033-0.24,0.09-0.356c0.875,0.574,2.175,0.921,3.745,0.921c1.573,0,2.871-0.347,3.747-0.921
	c0.057,0.116,0.09,0.233,0.09,0.356C14.803,19.11,13.086,19.867,10.966,19.867z M10.966,17.612c-2.118,0-3.835-0.759-3.835-1.691
	c0-0.124,0.033-0.241,0.09-0.357c0.875,0.573,2.175,0.922,3.745,0.922c1.573,0,2.871-0.349,3.747-0.922
	c0.057,0.116,0.09,0.233,0.09,0.357C14.803,16.854,13.086,17.612,10.966,17.612z M10.966,15.357c-2.118,0-3.835-0.76-3.835-1.69
	c0-0.937,1.717-1.694,3.835-1.694c2.12,0,3.836,0.757,3.836,1.694C14.803,14.598,13.086,15.357,10.966,15.357z M7.132,4.644
	C5.779,4.662,6.396,6.335,5.488,6.335v4.51c0.908,0,0.154,1.71,1.644,1.692"/>
</svg>
