<?xml version="1.0" encoding="UTF-8" standalone="no"?>
<!-- Generator: Adobe Illustrator 15.1.0, SVG Export Plug-In . SVG Version: 6.00 Build 0)  -->

<svg
   xmlns:dc="http://purl.org/dc/elements/1.1/"
   xmlns:cc="http://creativecommons.org/ns#"
   xmlns:rdf="http://www.w3.org/1999/02/22-rdf-syntax-ns#"
   xmlns:svg="http://www.w3.org/2000/svg"
   xmlns="http://www.w3.org/2000/svg"
   xmlns:sodipodi="http://sodipodi.sourceforge.net/DTD/sodipodi-0.dtd"
   xmlns:inkscape="http://www.inkscape.org/namespaces/inkscape"
   version="1.1"
   id="Layer_1"
   x="0px"
   y="0px"
   width="24"
   height="24"
   viewBox="0 0 24 24"
   enable-background="new 0 0 500 500"
   xml:space="preserve"
   inkscape:version="0.48.5 r10040"
   sodipodi:docname="bank-kar-afarin.svg"><metadata
     id="metadata3242"><rdf:RDF><cc:Work
         rdf:about=""><dc:format>image/svg+xml</dc:format><dc:type
           rdf:resource="http://purl.org/dc/dcmitype/StillImage" /><dc:title></dc:title></cc:Work></rdf:RDF></metadata><defs
     id="defs3240" /><sodipodi:namedview
     pagecolor="#ffffff"
     bordercolor="#666666"
     borderopacity="1"
     objecttolerance="10"
     gridtolerance="10"
     guidetolerance="10"
     inkscape:pageopacity="0"
     inkscape:pageshadow="2"
     inkscape:window-width="657"
     inkscape:window-height="480"
     id="namedview3238"
     showgrid="false"
     inkscape:zoom="3.776"
     inkscape:cx="11.206743"
     inkscape:cy="7.6652765"
     inkscape:window-x="0"
     inkscape:window-y="27"
     inkscape:window-maximized="0"
     inkscape:current-layer="Layer_1" /><path
     clip-rule="evenodd"
     d="m 11.958958,1.124173 c 0.888124,0.491014 1.977925,1.7563832 2.872862,2.6266135 0.962245,0.9354856 1.846346,1.8161417 2.626614,2.708698 0.973161,0.8052231 1.785604,1.7713228 2.708698,2.6266135 0.799802,0.978577 1.907087,1.649763 2.544533,2.790778 -0.604451,1.228681 -1.751053,1.915294 -2.626618,2.872862 -0.86867,0.937127 -1.771571,1.840023 -2.708698,2.708698 -1.782154,1.829354 -3.557256,3.665932 -5.417391,5.417391 C 10.20528,21.017906 8.4023556,19.209155 6.5415668,17.458436 5.6884901,16.505711 4.8074236,15.58098 3.8328688,14.749738 3.084527,13.692278 1.8878577,13.08315 1.288335,11.876876 1.461279,11.225396 2.0973324,10.903714 2.5195596,10.481487 2.9573039,10.043747 3.3351226,9.5460012 3.8328688,9.1681825 4.6742075,8.2584678 5.5497724,7.382903 6.4594823,6.5415642 8.184841,4.7920759 9.852493,2.9850478 11.712714,1.370417 c 0.02896,-0.107774 0.144544,-0.129113 0.164164,-0.246244 0.02734,0 0.05475,0 0.08208,0 z m -4.9249033,15.84177 c 3.1199273,0.136666 6.8119643,0.136666 9.9318863,0 -0.05442,-3.393092 0.109006,-7.0038698 -0.08208,-10.2602145 -3.255934,0 -6.511788,0 -9.7677221,0 C 6.8062762,9.81564 6.9877611,13.79373 7.0340549,16.965943 z m 0.6566522,-4.596575 c 0.3623924,2.008129 1.6376152,3.70681 3.7757631,3.939923 1.995074,0.217434 3.30896,-0.899208 4.268246,-2.134126 1.314784,-3.031357 -0.39982,-6.2866381 -3.611594,-6.3202916 2.44e-4,-0.045568 -0.06649,-0.093164 -0.08208,0 C 9.2207998,7.9895687 7.8743286,9.5980442 7.6907109,12.369368 z"
     id="path3236"
     inkscape:connector-curvature="0"
     style="fill-rule:evenodd" /></svg>