<?xml version="1.0" encoding="UTF-8" standalone="no"?>
<!-- Generator: Adobe Illustrator 15.1.0, SVG Export Plug-In . SVG Version: 6.00 Build 0)  -->

<svg
   xmlns:dc="http://purl.org/dc/elements/1.1/"
   xmlns:cc="http://creativecommons.org/ns#"
   xmlns:rdf="http://www.w3.org/1999/02/22-rdf-syntax-ns#"
   xmlns:svg="http://www.w3.org/2000/svg"
   xmlns="http://www.w3.org/2000/svg"
   xmlns:sodipodi="http://sodipodi.sourceforge.net/DTD/sodipodi-0.dtd"
   xmlns:inkscape="http://www.inkscape.org/namespaces/inkscape"
   version="1.1"
   id="Layer_1"
   x="0px"
   y="0px"
   width="24"
   height="24"
   viewBox="0 0 24 24"
   enable-background="new 0 0 500 500"
   xml:space="preserve"
   inkscape:version="0.48.5 r10040"
   sodipodi:docname="sarmaye.svg"><metadata
     id="metadata3613"><rdf:RDF><cc:Work
         rdf:about=""><dc:format>image/svg+xml</dc:format><dc:type
           rdf:resource="http://purl.org/dc/dcmitype/StillImage" /><dc:title></dc:title></cc:Work></rdf:RDF></metadata><defs
     id="defs3611" /><sodipodi:namedview
     pagecolor="#ffffff"
     bordercolor="#666666"
     borderopacity="1"
     objecttolerance="10"
     gridtolerance="10"
     guidetolerance="10"
     inkscape:pageopacity="0"
     inkscape:pageshadow="2"
     inkscape:window-width="657"
     inkscape:window-height="480"
     id="namedview3609"
     showgrid="false"
     inkscape:zoom="5.3400704"
     inkscape:cx="12.190552"
     inkscape:cy="0.68857835"
     inkscape:window-x="0"
     inkscape:window-y="27"
     inkscape:window-maximized="0"
     inkscape:current-layer="Layer_1" /><path
     clip-rule="evenodd"
     d="m 22.695804,0.06613668 c 0.965232,-0.0538851 0.566861,1.88581592 0.528461,2.73038372 -0.07667,1.6884265 0.147002,3.8087087 -0.08811,4.932297 -1.426488,1.7736122 -3.3404,3.0598856 -5.196532,4.4038456 0.0085,1.329788 -0.02912,2.61315 -0.176157,3.787306 -3.029663,0.141103 -5.716098,0.62552 -8.0149936,1.497304 C 8.1443334,18.42602 6.264596,19.159263 4.9042443,20.411892 4.0531661,20.881959 3.5149206,21.664871 2.7904031,22.261501 2.0747813,22.725754 1.5161067,23.798265 0.76463714,23.934963 0.56011975,21.643903 0.73448042,18.974126 0.67653036,16.536508 2.0898123,14.867102 3.8004452,13.495122 5.6969153,12.308819 5.5563415,11.1529 5.5469164,9.4117042 5.6969153,8.2572785 13.524739,8.0848274 18.509805,4.5631653 22.431512,0.33036248 22.480862,0.2035341 22.568919,0.11545568 22.695747,0.06613668 z M 9.3081211,19.707274 c -0.6183924,5.57456 9.4759209,5.610672 8.5434549,-0.264235 -0.787317,-1.620257 -2.339585,-2.944931 -4.844228,-2.554227 -2.011151,0.161362 -3.0515097,1.293676 -3.6992269,2.818462 z"
     id="path3607"
     inkscape:connector-curvature="0"
     style="fill-rule:evenodd" /></svg>