<?xml version="1.0" encoding="UTF-8" standalone="no"?>
<!-- Generator: Adobe Illustrator 15.1.0, SVG Export Plug-In . SVG Version: 6.00 Build 0)  -->

<svg
   xmlns:dc="http://purl.org/dc/elements/1.1/"
   xmlns:cc="http://creativecommons.org/ns#"
   xmlns:rdf="http://www.w3.org/1999/02/22-rdf-syntax-ns#"
   xmlns:svg="http://www.w3.org/2000/svg"
   xmlns="http://www.w3.org/2000/svg"
   xmlns:sodipodi="http://sodipodi.sourceforge.net/DTD/sodipodi-0.dtd"
   xmlns:inkscape="http://www.inkscape.org/namespaces/inkscape"
   version="1.1"
   id="Layer_1"
   x="0px"
   y="0px"
   width="24"
   height="24"
   viewBox="0 0 24 24"
   enable-background="new 0 0 500 500"
   xml:space="preserve"
   inkscape:version="0.48.5 r10040"
   sodipodi:docname="bank-post-bank.svg"><metadata
     id="metadata3508"><rdf:RDF><cc:Work
         rdf:about=""><dc:format>image/svg+xml</dc:format><dc:type
           rdf:resource="http://purl.org/dc/dcmitype/StillImage" /><dc:title></dc:title></cc:Work></rdf:RDF></metadata><defs
     id="defs3506" /><sodipodi:namedview
     pagecolor="#ffffff"
     bordercolor="#666666"
     borderopacity="1"
     objecttolerance="10"
     gridtolerance="10"
     guidetolerance="10"
     inkscape:pageopacity="0"
     inkscape:pageshadow="2"
     inkscape:window-width="657"
     inkscape:window-height="480"
     id="namedview3504"
     showgrid="false"
     inkscape:zoom="5.3400704"
     inkscape:cx="17.775381"
     inkscape:cy="2.1288856"
     inkscape:window-x="0"
     inkscape:window-y="27"
     inkscape:window-maximized="0"
     inkscape:current-layer="Layer_1" /><path
     clip-rule="evenodd"
     d="M 18.532818,7.3009042 C 18.982911,6.9424027 19.334845,6.4856232 19.716185,6.0583691 19.289521,5.6130683 19.12669,5.1744534 18.591986,4.8750026 18.101954,4.6005799 17.435423,4.6615232 16.935273,4.4016557 15.97793,3.9042871 15.930417,2.5687988 15.160223,1.8574179 19.46821,3.1956281 22.973339,6.9251846 22.674599,12.803558 22.391422,18.375972 17.471397,23.229491 10.959272,22.684668 6.9751731,22.351314 3.7897276,19.752227 2.3206968,16.708668 0.64546381,13.237854 1.0666238,8.3065873 3.4448946,5.4666855 4.208462,6.5899957 5.6920485,6.3342706 6.6399844,7.1825671 c 1.0225469,0.9150384 1.6481338,2.3728868 2.3667328,3.7276049 0.7284807,1.373355 1.4988528,2.751149 2.0708908,4.023446 0.712743,-0.510032 1.254843,-1.190763 1.834219,-1.834219 C 11.525868,11.23542 10.519178,8.2699031 8.6517072,6.7683887 8.026594,6.265754 6.8574277,6.140435 6.1074694,5.585022 6.0523244,5.5441986 4.8051152,4.272432 4.805766,4.1058142 4.8071427,3.7509228 5.7929898,3.4514715 5.8116279,3.2182893 c 0.5738735,0.6323319 0.8111386,1.2475051 1.242535,1.7750498 0.6936302,0.848237 1.4987333,0.9765729 2.6625742,1.4200398 0.8332089,0.3174383 1.8083029,1.9060482 2.3075649,2.721743 0.640497,1.0465101 1.162007,2.0477561 1.715882,3.0767531 0.619137,-0.42619 0.997519,-1.093076 1.597544,-1.538377 C 14.184952,9.2368317 13.710008,7.4858048 12.260976,6.3542103 11.698462,5.9149447 11.022878,5.8223464 10.367589,5.5258541 8.9579035,4.8880783 8.4946156,3.3959128 7.5866773,2.2124278 7.9426345,2.0753347 8.3195362,1.9591281 8.6517072,1.7982493 9.6054415,2.9506115 9.9305124,4.2029092 11.018441,5.0525076 11.671777,5.5627752 12.821358,5.6170914 13.50351,6.1767054 14.585225,7.064112 15.24016,8.6834302 16.106917,9.785973 16.604937,9.3372995 17.078283,8.8639533 17.526956,8.3659337 16.77901,7.4219622 16.436721,6.4572818 15.574402,5.762527 15.030526,5.3243264 14.355594,5.3562778 13.681015,5.0525076 12.238018,4.4027208 11.860583,2.6572555 10.900104,1.5024079 c -0.05757,-0.00159 -0.04592,-0.072422 -0.05917,-0.1183365 0.368323,0.00941 0.889477,-0.2060836 1.360871,-0.059169 0.344893,0.1075085 0.906044,1.0610655 1.242535,1.5383763 0.709665,1.0068674 1.023611,1.9098947 2.307564,2.2483964 0.19632,0.051771 0.432106,-0.019467 0.650851,0.059168 0.970361,0.348738 1.453411,1.516307 2.13006,2.1300601 z"
     id="path3502"
     inkscape:connector-curvature="0"
     style="fill-rule:evenodd" /></svg>