<?xml version="1.0" encoding="UTF-8" standalone="no"?>
<!-- Generator: Adobe Illustrator 15.1.0, SVG Export Plug-In . SVG Version: 6.00 Build 0)  -->

<svg
   xmlns:dc="http://purl.org/dc/elements/1.1/"
   xmlns:cc="http://creativecommons.org/ns#"
   xmlns:rdf="http://www.w3.org/1999/02/22-rdf-syntax-ns#"
   xmlns:svg="http://www.w3.org/2000/svg"
   xmlns="http://www.w3.org/2000/svg"
   xmlns:sodipodi="http://sodipodi.sourceforge.net/DTD/sodipodi-0.dtd"
   xmlns:inkscape="http://www.inkscape.org/namespaces/inkscape"
   version="1.1"
   id="Layer_1"
   x="0px"
   y="0px"
   width="24"
   height="24"
   viewBox="0 0 24 24"
   enable-background="new 0 0 500 500"
   xml:space="preserve"
   inkscape:version="0.48.5 r10040"
   sodipodi:docname="saman.svg"><metadata
     id="metadata3586"><rdf:RDF><cc:Work
         rdf:about=""><dc:format>image/svg+xml</dc:format><dc:type
           rdf:resource="http://purl.org/dc/dcmitype/StillImage" /><dc:title></dc:title></cc:Work></rdf:RDF></metadata><defs
     id="defs3584" /><sodipodi:namedview
     pagecolor="#ffffff"
     bordercolor="#666666"
     borderopacity="1"
     objecttolerance="10"
     gridtolerance="10"
     guidetolerance="10"
     inkscape:pageopacity="0"
     inkscape:pageshadow="2"
     inkscape:window-width="657"
     inkscape:window-height="480"
     id="namedview3582"
     showgrid="false"
     inkscape:zoom="3.776"
     inkscape:cx="-7.661036"
     inkscape:cy="8.3234549"
     inkscape:window-x="0"
     inkscape:window-y="27"
     inkscape:window-maximized="0"
     inkscape:current-layer="Layer_1" /><path
     clip-rule="evenodd"
     d="m 3.808408,18.463534 c -0.01252,0.277471 -0.278575,-0.08523 -0.429521,-0.06185 0.375463,0.362209 0.382826,1.049996 0.306801,1.66998 -0.242005,0.03774 -0.07216,-0.339568 -0.122721,-0.494809 -0.05461,0.04805 -0.138551,0.06651 -0.245441,0.06185 -0.06786,0.336438 0.20838,0.326007 0.184081,0.618511 0.08867,0.0049 0.295081,-0.094 0.429522,0.123764 -0.09842,-0.780502 -0.0516,-1.562907 0.06136,-2.288491 -0.768782,0.225376 -1.266843,0.06799 -1.963527,0 C 2.004422,17.931664 1.845863,17.905954 1.844881,17.721321 1.092666,17.593017 0.758314,17.043536 0.188155,16.731703 c 0.211509,-0.735157 0.387122,-1.506516 0.859043,-1.979235 0.100692,0.442714 0.116585,0.605564 0,1.051468 0.09167,0.03314 0.07228,0.06161 0.245441,0.123764 -0.03197,0.09149 -0.09075,0.155855 -0.12272,0.247404 -0.228199,0.0651 -0.120328,-0.208563 -0.245441,-0.247404 -0.190462,0.216111 0.114621,0.459036 0.12272,0.680362 0.22507,-0.203348 0.587831,-0.709263 0.184081,-0.865915 0.133213,-0.05124 0.136526,-0.233476 0.306801,-0.247343 -0.09922,-0.268329 -0.07627,0.06799 -0.306801,0 0.03872,-0.372948 0.522053,-0.227156 0.552242,0.06185 -0.187087,-0.0031 -0.312385,0.05614 -0.368161,0.185492 0.140208,0.157266 0.426637,-0.06118 0.490881,-0.185492 0.265383,0.02111 0.295388,0.279496 0.613603,0.247343 0.05068,0.174876 -0.08646,0.160211 -0.06136,0.309255 -0.141496,0.01896 -0.06817,-0.178681 -0.18408,-0.185492 -0.164752,0.09014 0.230101,0.323062 0,0.494748 -0.194021,-0.03841 -0.01154,-0.317232 -0.184081,-0.06185 -0.09259,-0.181811 0.03639,-0.340795 -0.184081,-0.309256 -0.05492,-0.199666 0.200157,-0.08689 0.245441,-0.185492 -0.05216,-0.09173 -0.154443,-0.133029 -0.306801,-0.123763 -0.279373,0.381476 0.244459,0.578627 -0.06136,0.742274 0.151007,0.114928 0.137385,-0.155793 0.368161,0 -0.27385,0.08897 -0.08989,0.307354 -0.18408,0.61845 -0.165857,-0.245134 -0.405714,-0.415654 -0.797683,-0.432958 -0.08327,0.01921 -0.05093,0.154874 -0.06136,0.247405 0.344109,-0.245809 0.441242,0.06449 0.736323,0.185492 0,0.103146 0,0.20617 0,0.309255 -0.20212,-0.04062 -0.105908,-0.285938 -0.368161,-0.123702 0.02595,-0.129225 -0.04209,-0.16377 -0.06136,-0.247404 C 1.072297,17.199207 1.053889,16.938364 0.801759,16.855467 1.1771,17.311557 1.394376,17.235593 1.844883,17.59768 2.165184,16.992791 2.390498,16.292118 2.826647,15.803998 2.176658,15.51088 1.590606,15.15315 1.0472,14.752529 1.179309,13.731127 2.038352,13.442488 2.765286,13.020698 1.509979,11.758457 1.43739,10.066817 1.415362,7.577801 2.069093,7.249278 2.897027,6.971685 3.68569,6.95929 3.532842,7.246333 3.553581,8.222083 3.562969,8.876674 3.386375,8.715972 3.372016,8.713517 3.317528,8.505567 3.075585,8.488447 3.299798,8.941225 3.133448,9.000376 3.407483,9.186543 3.594509,9.378662 3.68569,9.866292 3.465652,9.888872 3.460866,10.032394 3.256168,9.928142 3.330228,9.837882 3.524435,9.868682 3.440249,9.618886 2.920344,9.883103 2.95624,9.9398 2.274405,9.866291 c 0.02497,0.119161 0.237893,0.04884 0.18408,0.247404 -0.33024,0.134502 -0.597341,-0.02884 -0.674962,0.309256 0.457195,-0.04577 1.40202,-0.426454 2.086248,-0.247405 C 3.765949,9.288891 3.572726,7.848767 3.808411,6.897438 3.975863,6.942478 3.931929,6.774533 4.053852,6.773736 4.23554,5.245682 4.846504,4.150341 5.281057,2.877116 c 1.071042,0.219301 2.146748,0.433817 2.76121,1.11332 0.07124,-0.05191 0.164506,-0.08161 0.306801,-0.06185 0.652566,0.826645 1.297155,1.661389 1.472645,2.968853 1.169158,-1.171858 2.315305,-2.366848 3.742974,-3.278109 -0.2968,-0.208011 0.05528,-0.412095 -0.245441,-0.680362 -0.164936,-0.04258 -0.118609,0.127875 -0.184081,0.185553 0.351717,-0.0075 -0.04485,0.365953 0.184081,0.432958 -0.873586,0.643792 -1.974204,1.486206 -2.82257,2.350342 0.0053,-0.08774 0.01012,-0.175122 -0.06136,-0.185553 -0.159229,-0.06504 -0.177147,0.41547 -0.245441,0.06185 -0.08738,0.0756 -0.13941,0.236053 -0.06136,0.309255 0.278453,0.115726 0.08351,-0.245686 0.306801,-0.185553 0.08008,0.191751 -0.249183,0.429092 -0.429521,0.55666 -0.212552,-0.142969 0.239121,-0.53862 -0.184081,-0.742213 -0.148369,0.0497 0.192549,0.254583 0,0.371106 C 9.549336,5.614518 9.599651,5.254947 9.821714,4.7945 9.659355,4.951214 9.732864,5.207577 9.392193,5.289309 9.287451,4.94514 9.645181,4.847209 9.514913,4.670798 9.345313,4.685398 9.492943,5.019754 9.269472,4.980053 9.113249,4.721236 9.243942,4.483527 8.839951,4.423394 8.866271,4.305643 8.97212,4.268029 8.962671,4.114138 9.264625,4.101068 8.966271,4.404311 9.208112,4.361542 9.37673,4.167399 8.959173,4.037867 8.962671,3.804882 8.673848,3.846302 9.179211,4.083703 8.839951,4.175989 8.56205,4.222009 8.933771,4.006205 8.65587,4.052287 8.69293,3.7804 8.788408,3.567418 9.024031,3.495627 9.006911,3.636633 9.038821,3.728182 9.146752,3.743031 9.314204,3.788071 9.27027,3.620127 9.392193,3.619329 9.342063,3.566439 9.002617,3.601719 9.024031,3.310074 8.669062,3.385244 8.754967,3.904716 8.349069,3.928585 c 0.933105,-1.574688 2.246029,-2.76661 3.558893,-3.958471 0.894509,0.871377 1.489949,2.044216 1.779446,3.525513 -0.01878,0.142662 0.17727,0.06872 0.184081,0.185553 1.654149,-1.028642 3.886679,-1.750852 5.890581,-2.226639 -0.253111,2.033355 -0.429214,4.14433 -1.349925,5.504748 0.0146,-0.262131 -0.0048,-0.4899 -0.18408,-0.55666 -0.08836,0.01399 -0.02141,0.184571 -0.122721,0.185553 0.0713,0.113639 0.325639,0.04283 0.245441,0.309256 -0.290786,0.145914 -0.712269,-0.04835 -0.981763,-0.123702 -0.02847,0.08204 -0.02921,0.163831 -0.306802,0.123702 0.01516,-0.06719 0.121985,-0.04197 0.122721,-0.123702 -0.292934,0.05798 -0.615627,0.523525 -0.920403,0.185553 -0.113517,0.0093 -0.03761,0.209422 -0.122721,0.247404 -0.816704,-0.01914 -1.367658,0.229549 -1.902167,0.494809 -0.172422,-0.05302 -0.118118,-0.334536 -0.12272,-0.55666 0.139594,-0.03001 0.313428,-0.12272 0.429521,0 -0.05743,-0.280907 -0.313612,-0.03952 -0.368161,-0.247404 -0.07081,0.134808 -0.185676,0.22513 -0.245441,0.371106 -0.07928,0.306679 0.148492,0.303918 0.122721,0.55666 -0.151437,-0.180031 -0.200158,-0.03504 -0.368162,0.06185 -0.06915,-0.297842 0.286737,-0.699629 0.184081,-1.237022 0.130943,-0.0289 0.11683,0.08836 0.12272,0.185554 0.08333,-0.204575 0.200096,-0.375586 0.245441,-0.618511 -0.01393,-0.07879 -0.183099,-0.08106 -0.18408,0 -0.138797,-0.250657 0.0559,-0.646799 0.24544,-0.618511 -0.07431,-0.275569 -0.109773,-0.590347 -0.18408,-0.865916 0.262928,0.245625 0.163586,-0.07283 0.18408,-0.371107 -0.162727,-0.0197 0.05743,0.346502 -0.18408,0.247405 -0.07069,-0.421729 0.108485,-0.591635 0.12272,-0.927767 0.143706,0.203778 0.409334,0.07057 0.490882,-0.123702 -0.404855,-0.09873 -0.566723,0.307292 -0.797683,0.185553 0.21022,1.244202 -0.144135,3.189137 -0.552242,4.391429 1.361031,-0.463086 3.111147,-1.069754 5.092899,-1.11332 -0.117076,1.185664 -1.000111,2.122082 -1.718087,2.907002 -0.374911,0.652934 -0.92071,1.13363 -1.472645,1.608129 0.386263,0.103453 0.869045,0.202059 1.104484,0.123702 -0.0017,0.06013 -0.0751,0.04798 -0.12272,0.06185 1.140747,0.417004 2.330093,0.785043 3.190731,1.484365 0.08891,-0.07529 0.08222,-0.246975 0.245441,-0.247404 0.01049,-0.175491 -0.20752,-0.120696 -0.12272,-0.371107 0.599919,-0.05522 1.161487,-0.257958 1.288564,-0.804064 -0.05866,0.124806 -0.352453,0.385465 -0.613602,0.494809 -0.02639,-0.09713 -0.193039,-0.05283 -0.12272,-0.247405 -0.117014,0.02632 -0.111062,0.176718 -0.306801,0.123702 0,-0.06185 0,-0.123702 0,-0.185553 -0.132048,0.15021 -0.481924,0.06154 -0.368162,-0.185553 -0.359448,0.182608 -0.446027,0.256608 -0.736322,0.494809 -0.06185,0.186044 0.13671,0.109589 0.24544,0.123702 0.07811,-0.01399 0.08044,-0.184633 0,-0.185554 0.170091,-0.138428 0.304224,0.0083 0.490882,0.123703 -0.129838,0.07013 -0.17819,0.02393 -0.368161,0.123702 -0.02964,0.194819 0.188314,0.140024 0.12272,0.371106 -0.314348,-0.260412 -0.744851,-0.40375 -1.043124,-0.680362 -0.0281,-0.193223 0.131127,-0.197702 0.306802,-0.185553 -0.03982,-0.06289 -0.141068,-0.06394 -0.122721,-0.185553 -0.275139,0.06136 -0.273973,0.07946 -0.490882,0.123702 0.139288,0.09934 0.2544,0.06584 0.245441,0.185553 -0.727364,-0.01749 -1.446628,-0.398228 -2.086247,-0.804064 -0.03694,0.222737 0.187332,0.182301 0.18408,0.371106 -0.18451,-0.0408 -0.214147,-0.237709 -0.490881,-0.185553 -0.0039,-0.251393 0.356932,-0.135054 0.306801,-0.432958 0.159536,0.02473 0.185062,0.184572 0.368161,0.185554 -0.01,-0.07191 0.01356,-0.110019 0.06136,-0.123702 -0.09241,-0.198133 -0.264708,-0.027 -0.368161,-0.123703 0.11818,-0.148921 0.328154,-0.205311 0.429521,-0.371106 0.166593,0.05627 -0.06259,0.216724 -0.06136,0.309255 0.07259,0.112412 0.319932,0.0486 0.429522,0.123702 0.06296,-0.207827 -0.19083,-0.09627 -0.306801,-0.123702 0.120941,-0.328277 0.300603,-0.08468 0.490881,0 -0.121922,-0.30269 -0.20574,-0.290356 -0.429521,-0.432958 0.429521,-0.639189 1.002135,-1.133998 1.349925,-1.855533 0.09707,0.20206 0.200034,0.162973 0.245441,0.309256 0.146405,-0.111921 -0.08805,-0.360676 -0.122721,-0.494809 0.0162,-0.210466 0.276367,-0.174999 0.368162,-0.309256 -0.02853,-0.379267 0.13217,-0.567704 0.18408,-0.865915 2.131409,-0.01301 3.7315,0.709201 5.46106,1.237022 -1.288258,1.814545 -2.742863,3.461576 -4.602017,4.700623 -0.01669,0.455293 0.449771,0.607159 0.674963,0.865915 0.787558,0.905125 1.378028,1.921373 1.840807,3.154407 -0.65815,0.113086 -1.392693,0.762953 -1.963528,0.556659 -0.08597,0.02178 -0.0053,0.108854 0.06136,0.123703 -0.996552,0.398903 -2.304261,0.809096 -3.436173,0.865915 -0.01878,-0.142662 0.17727,-0.06872 0.184081,-0.185553 -0.02718,-0.05504 -0.05387,-0.110633 -0.122721,-0.123702 -0.332572,0.03596 -0.0052,0.479775 -0.306801,0.618511 -1.344218,0.02608 -3.071938,-0.01559 -4.172495,-0.433019 0.195801,0.951451 0.127507,2.183687 -0.184081,2.968853 0.229979,-0.108424 0.321467,0.01178 0.736323,0.123763 -0.01405,-0.212613 -0.182608,-0.269555 -0.368161,-0.309255 0.129961,-0.455293 -0.03608,-1.554009 0.306801,-2.102938 0.01644,0.428172 0.589058,1.124365 0.245441,1.670041 0.195616,0.05277 0.232923,-0.05387 0.306801,-0.123763 -0.204943,-0.117321 -0.0767,-0.708895 -0.122721,-0.804065 0.01393,-0.0891 0.183099,-0.0216 0.184081,-0.123763 0.07191,0.01 0.05179,0.11278 0.06136,0.185553 0.191015,-0.117996 -0.09591,-0.268574 -0.06136,-0.432958 0.243293,-0.130083 0.794554,0.357301 0.981764,-0.06191 0.223474,0.02221 0.366504,0.12542 0.552242,0.185553 -0.166348,0.100324 -0.452777,0.07971 -0.674963,0.123702 0.31803,0.187272 0.612682,-0.116154 0.981764,0 0.180031,-0.05252 -0.07983,-0.155609 0,-0.309255 0.143337,0.04578 0.345765,0.04295 0.490882,-0.06185 -0.52641,-0.01111 -1.609725,-0.168189 -2.454409,-0.06185 -0.147572,0.05743 0.03712,0.44977 -0.245441,0.371106 -0.057,-0.329872 -0.0459,-0.604152 0,-0.804064 0.04577,0.222431 0.334536,0.49757 0.490882,0.247343 0.05872,-0.224088 -0.264831,-0.06283 -0.306802,-0.185492 0.572184,-0.03639 1.035516,0.144197 1.472646,0.123702 -0.0017,0.06013 -0.0751,0.04798 -0.122721,0.06185 0.594765,0.06977 1.601686,-0.05381 1.963527,-0.185492 0.199483,1.220333 -0.152602,2.607871 -0.368161,3.40175 -1.468841,-0.148062 -2.905652,-0.328584 -4.049775,-0.804065 -0.152357,-0.0093 -0.254645,0.03197 -0.306801,0.123703 -0.979309,-0.538498 -1.941376,-1.094421 -2.638489,-1.917385 -0.39743,0.795229 -0.839592,1.545296 -1.472646,2.102938 0.525305,0.0087 0.678767,-0.547885 0.981764,-0.927767 0.222676,-0.05952 0.05154,0.277901 0.245441,0.247405 0.205066,-0.113332 -0.0416,-0.280846 -0.122721,-0.309256 0.0197,-0.371904 0.352024,-0.428539 0.368162,-0.804064 0.261885,0.02467 0.223105,0.352392 0.552242,0.309255 0.05492,0.199667 -0.200157,0.08695 -0.245441,0.185554 0.03651,0.12812 -0.07584,0.406327 0.06136,0.432958 0.196598,-0.0146 -0.195064,-0.348956 0.12272,-0.309256 -0.129286,0.170275 0.08081,0.09511 0.184081,0.06185 0.06032,-0.224394 -0.32208,-0.05197 -0.12272,-0.247343 0.163034,0.163648 0.616609,0.300972 0.490881,0.556599 0.193531,0.06381 0.340918,-0.01448 0.490882,0.185553 -0.07989,0.111491 -0.331652,-0.07756 -0.490882,0.06185 -0.01614,0.201814 0.190892,0.178681 0.245441,0.309256 0.154199,-0.05074 0.328768,-0.08094 0.306801,-0.309256 0.147817,-0.02528 0.133398,0.112964 0.306802,0.06185 0.0983,0.243416 -0.265015,0.02154 -0.245441,0.185553 0.156346,0.172177 0.417863,0.197335 0.613602,0.185492 -0.04762,0.05504 -0.06596,0.139656 -0.06136,0.247405 -0.128243,0.0262 -0.162482,-0.04234 -0.245441,-0.06185 -0.17549,0.0087 -0.112228,0.258019 -0.122721,0.432957 0.459527,-0.01098 0.358712,-0.586787 0.736323,-0.680362 -0.290111,0.965197 -1.037724,1.469271 -1.595366,2.164789 C 8.416809,23.009465 6.640799,21.736486 6.20146,19.638458 5.677198,20.058468 5.050281,20.374903 4.360653,20.628075 3.758403,20.405829 2.784432,20.52591 2.028965,20.31882 1.955515,19.869908 1.822979,18.884647 1.967605,18.215943 c 0.103514,-0.04387 0.436332,0.108669 0.552242,0.247405 0.136035,0.03406 0.08738,-0.118119 0.18408,-0.123764 0.732825,-0.05719 0.626734,0.1326 0.122721,0.06191 -0.02301,0.141742 -0.245441,0.08247 -0.306801,0.185492 0.451365,0.196414 0.853398,-0.435842 1.288564,-0.123457 z M 15.22141,7.144782 c -0.346072,-0.0085 -0.878801,-0.07971 -0.981764,0.371106 0.06136,0 0.122721,0 0.184081,0 0.05479,-0.336499 0.583352,-0.195432 0.797683,-0.371106 z m 1.411285,8.782857 c 0.02424,-0.271887 -0.583474,-0.175122 -0.368161,-0.55666 0.285447,0.365584 0.6911,0.0181 0.920403,-0.185492 -0.208809,-0.162359 -0.50794,0.374052 -0.797683,0.123702 1.028643,-0.488796 2.142638,-0.891503 3.006651,-1.546278 -0.02626,0.09965 0.228812,0.207582 0.245441,0.06185 -0.107933,-0.01485 -0.13984,-0.106398 -0.122721,-0.247343 -1.47105,0.826339 -3.027881,1.566036 -4.786097,2.102877 0.695764,0.556291 1.147498,1.358576 1.595366,2.164788 0.01601,-0.08695 0.134563,-0.0705 0.18408,-0.123763 0.166409,0.263051 0.04228,0.388165 -0.12272,0.123763 0.03332,0.255013 0.03455,0.542425 0.245441,0.618511 0.03356,-0.08989 -0.07173,-0.319686 0.06136,-0.309255 0.142294,-0.01976 0.235562,0.0099 0.306801,0.06185 -0.08369,0.08339 -0.116952,0.431792 0.06136,0.432958 0.130084,-0.153278 -0.133213,-0.421668 0.122721,-0.556599 0.04669,0.310176 0.62839,0.06572 0.797683,-0.06191 -0.05934,-0.08713 -0.422404,0.0116 -0.674963,0.06191 0.05259,-0.197396 -0.09658,-0.191321 -0.12272,-0.309255 -0.184081,0 -0.368161,0 -0.552242,0 -0.641583,-0.610903 -0.941511,-1.56622 -1.656726,-2.102938 0.393442,0.03639 0.54402,0.317539 0.736323,0.55666 0.02454,-0.160825 0.183098,-0.186535 0.18408,-0.371107 -0.182485,-0.06351 -0.490513,-3.68e-4 -0.552242,-0.185553 0.269003,-0.03811 0.403014,-0.212245 0.674963,-0.247404 0.05449,0.316066 0.353741,0.385526 0.613602,0.494686 z m -0.797683,0.618511 c 0.187333,-0.05087 0.147142,-0.173895 0.368161,-0.06185 -0.10241,-0.2066 0.03964,-0.370309 0.122721,-0.55666 -0.08449,0.0026 -0.134747,-0.02915 -0.184081,-0.06185 -0.10419,0.162972 -0.113148,0.421974 -0.368161,0.432957 -0.01375,0.116953 0.06915,0.136465 0.06136,0.247405 z m -5.3997,5.442897 c 0.06817,0.194144 0.02872,0.163402 -0.06136,0.309256 0.152174,-0.08032 0.297781,0.137999 0.306801,0 -0.125052,-0.08676 0.06032,-0.213105 -0.06136,-0.371168 0.08983,0.08866 0.194451,0.04743 0.184081,-0.123703 -0.183099,0.0011 -0.208625,0.160887 -0.368162,0.185615 z M 11.846598,4.114078 c -0.145486,0.224517 -0.303304,0.436455 -0.552242,0.55666 0.421728,0.197334 0.622131,-0.629556 1.043123,-0.432958 0.0058,-0.220958 0.228628,-0.223167 0.245441,-0.432958 -0.348035,0.107565 -0.383563,0.508922 -0.736322,0.309256 z M 9.82171,5.598504 C 9.76814,5.400249 9.91614,5.405035 10.005791,5.3511 c -0.009,0.1534 -0.01141,0.300174 0.12272,0.309255 0.05504,-0.302874 -0.202611,-0.29054 -0.12272,-0.618511 -0.06136,0 -0.122721,0 -0.184081,0 0.0494,0.185492 -0.20795,0.416636 0,0.55666 z m 1.595366,-4.886237 c 0.338217,-0.0096 0.377304,-0.320669 0.613602,-0.432958 -0.269494,-0.142724 -0.440014,0.279925 -0.613602,0.432958 z m 0.429522,0 c 0.228628,-0.06547 0.19807,0.130206 0.306801,0.185553 -0.0091,-0.08235 0.249429,-0.186658 0.06136,-0.247404 -0.179172,0.178926 -0.06744,-0.103883 -0.06136,-0.247405 -0.177454,0.02731 -0.279742,0.130391 -0.306801,0.309256 z m -0.552242,0.371107 c 0.01381,-0.116953 -0.06915,-0.136466 -0.06136,-0.247405 0.08836,0.06921 0.149719,0.0667 0.184081,-0.06185 -0.171563,-0.142172 -0.445721,0.256363 -0.12272,0.309256 z m 0.981763,0.432957 c -0.169477,0.02651 -0.05756,-0.230591 -0.184081,-0.247404 0.153708,0.264524 -0.06148,0.504442 0.06136,0.55666 0,-0.06185 0,-0.123702 0,-0.185554 0.192732,0.102902 0.250717,-0.230039 0.306801,-0.06185 -0.200219,0.352944 -0.308397,0.423325 -0.245441,0.865916 0.327479,-0.09707 -0.02356,-0.634158 0.368161,-0.742213 0.01921,-0.148922 -0.267714,-0.2995 -0.06136,-0.432958 0.105355,0.07934 0.123273,0.246852 0.245441,0.309255 -0.278576,0.406082 0.06664,0.862173 0.368161,1.175171 -0.09038,-0.241207 0.01442,-0.197395 0.122721,-0.06185 -0.164691,-0.512848 -0.496159,-1.01772 -0.674963,-1.66998 -0.233414,-0.09094 -0.01203,0.27649 -0.245441,0.185554 0.05351,-0.198255 -0.09443,-0.193408 -0.18408,-0.247405 -0.06498,0.254584 0.378715,0.314533 0.12272,0.55666 z m -1.718086,0.06185 c 0.0964,0.0059 0.212736,-0.0083 0.18408,0.123703 -0.01669,0.127506 -0.271703,0.01479 -0.24544,0.185553 0.268819,-0.04504 -0.04946,0.122904 0.12272,0.123702 0.02246,-0.224824 0.263051,-0.22961 0.306801,-0.432958 -0.07222,-0.0097 -0.17414,0.01062 -0.184081,-0.06185 0.0921,-0.100017 0.494871,-0.452163 0.245441,-0.494809 -0.08959,0.239551 -0.400743,0.255811 -0.429521,0.55666 z m 0.490882,0 c 0.01368,-0.155302 0.310973,-0.340733 0.18408,-0.432957 -0.03277,0.169477 -0.51561,0.273175 -0.18408,0.432957 z M 9.944431,2.07299 c 0.176717,0.0074 0.10646,0.263726 0.306801,0.247405 0.08885,-0.233844 -0.168618,-0.118671 -0.122721,-0.309256 0.227279,0.03191 0.154383,0.105417 0.122721,-0.123702 0.08443,-0.0026 0.134747,0.02915 0.18408,0.06185 -0.130942,-0.256424 0.127261,-0.232248 0,-0.371107 -0.12634,0.20255 -0.317477,0.339691 -0.490881,0.494809 z m 1.104484,-0.247404 c 0.151253,0.198439 0.379022,-0.144197 0.12272,-0.185554 -0.01466,0.08824 -0.10106,0.104313 -0.12272,0.185554 z m 8.34499,0.804064 c -0.04817,-0.357853 0.170888,-0.446211 0.12272,-0.804064 -0.06136,0 -0.12272,0 -0.18408,0 0.01129,0.356809 -0.108669,0.54991 0.06136,0.804064 z M 19.025744,2.134841 c -0.102227,-0.122904 0.0056,-0.07866 0,-0.247404 -0.480696,-0.06584 -0.504259,0.423999 -0.981764,0.185553 -0.0902,0.235255 0.27428,0.01215 0.184081,0.247405 -0.228628,0.06547 -0.198071,-0.130207 -0.306801,-0.185554 0.01927,0.199421 -0.4556,0.03007 -0.368162,0.185554 0.632808,0.182853 1.013548,0.115664 1.411285,-0.247405 -0.0026,0.06578 0.0289,0.157082 0.06136,0.06185 z M 9.637629,2.444097 C 9.651439,2.69819 9.789803,2.826678 9.944431,2.938906 10.171157,2.679413 9.71795,2.709234 9.76035,2.444097 10.013338,2.378197 10.077582,2.820542 10.251232,2.62965 10.061874,2.5319 10.056658,2.248542 9.76035,2.258544 9.75455,2.355734 9.76855,2.472997 9.637629,2.444097 z m 7.056426,0.123702 c 0.211079,0.05001 0.31214,-0.03485 0.429522,0.185553 0.230775,-0.31128 -0.273115,-0.367179 -0.429522,-0.185553 z m 0.981764,0.06185 c -0.143154,0.02068 -0.264401,0.06338 -0.306801,0.185553 0.07253,0.07124 0.216908,0.07001 0.368161,0.06185 -0.0067,-0.153892 -0.114989,-0.191506 0,-0.309256 -0.03761,-0.0181 -0.236237,-0.15383 -0.245441,0 0.07222,0.0097 0.174202,-0.01062 0.184081,0.06185 z m -1.472646,0.247405 c 0.141068,0.143153 0.28238,-0.02933 0.368162,-0.123703 -0.03737,0.166532 0.527268,0.22826 0.429521,0.06185 -0.227769,-0.117934 -0.703188,-0.339874 -0.797683,0.06185 z m -6.872345,0.06185 c -0.0035,-0.03774 -0.0091,-0.0732 -0.06136,-0.06185 0.0021,0.345642 0.308458,0.01313 0.306801,-0.185554 -0.06136,0 -0.12272,0 -0.18408,0 -0.01043,0.09253 0.02191,0.22826 -0.06136,0.247405 z M 9.085387,3.248159 C 9.247072,3.266809 9.286772,3.162499 9.269468,3.000755 9.107784,2.982105 9.068084,3.086415 9.085387,3.248159 z M 18.289421,2.877053 C 18.459266,2.821463 18.865471,3.00413 18.841663,2.75335 18.706548,2.6013 18.318444,2.71715 18.289421,2.877053 z m 0.920403,0.989617 c -0.09112,-0.113946 0.423447,-0.999374 0.06136,-0.989617 0.168372,0.06989 -0.0027,0.445966 -0.122721,0.247404 0.160518,0.419704 -0.258511,0.829836 0.06136,0.742213 z M 15.466851,3.124457 c -0.009,0.153401 -0.01148,0.300174 0.12272,0.309256 -0.01043,-0.244521 0.09425,0.01982 0.184081,-0.123703 -0.116707,-0.344415 0.233046,-0.218626 0.245441,-0.432957 -0.102288,0 -0.204514,0 -0.306801,0 -0.0075,0.157389 -0.08928,0.239857 -0.245441,0.247404 z m 0.368161,0.432958 c 0.01479,0.108791 0.105601,0.141006 0.245441,0.123702 -0.01712,-0.161562 -0.02074,-0.309501 0.184081,-0.247404 0.04436,-0.18899 -0.06271,-0.225377 -0.06136,-0.371107 0.04762,-0.01387 0.121064,-0.0017 0.122721,-0.06185 -0.377488,-0.03001 -0.28373,0.414979 -0.490882,0.55666 z m -1.043124,-0.06185 c -0.0048,-0.160764 0.304838,-0.229181 0.429522,0 -0.09032,0.218258 -0.45517,0.159782 -0.490882,0.432957 0.303426,-0.0034 0.358589,-0.257038 0.552242,-0.371106 0.02614,0.117934 0.175306,0.111921 0.12272,0.309255 0.08179,0 0.163648,0 0.245441,0 C 15.676641,3.520784 15.244481,3.60362 15.40549,3.433714 15.32014,3.299887 14.534114,3.18588 14.791888,3.495564 z M 5.403774,3.80482 C 5.675293,3.85471 5.614731,3.88103 5.771935,3.990373 5.885206,3.56214 6.55661,3.601718 6.692339,3.371862 6.441007,3.311732 6.299204,3.524956 6.140097,3.371862 5.985653,3.665103 5.492992,3.603436 5.403774,3.80482 z m 1.779447,0 C 6.943548,3.79662 6.648528,3.522318 6.446898,3.681118 6.687307,3.667498 7.00319,4.161384 7.183221,3.80482 z m 0,0.309256 C 7.38393,4.069036 7.453635,3.891829 7.551382,3.742969 7.322631,3.759779 7.2671,3.951226 7.183221,4.114076 z m 4.049774,-0.185554 c 0.105294,-0.180706 0.152419,0.211632 0.122721,0.371107 0.156161,-0.0076 0.237955,-0.09001 0.245441,-0.247404 -0.02197,-0.174877 -0.485728,-0.348711 -0.368162,-0.123703 z m 0.490882,0.06185 c 0.193039,0.07081 0.149105,-0.09713 0.245441,-0.123702 0.116032,-0.01387 0.135361,0.0697 0.245441,0.06185 0.03743,-0.243968 -0.336868,-0.07277 -0.490882,-0.123702 0,0.06185 0,0.123702 0,0.185553 z M 7.244581,4.361479 C 7.517634,4.525679 7.67625,4.116284 7.735463,3.86667 7.424059,3.88262 7.528679,4.318036 7.244581,4.361479 z M 7.0605,4.97999 c 0.241514,0.0991 0.02135,-0.267162 0.184081,-0.247404 0.06136,0 0.12272,0 0.18408,0 C 7.251576,5.007664 7.137691,5.346433 6.93778,5.598501 6.937043,5.516711 6.830277,5.541991 6.815059,5.474799 6.808659,5.282864 7.008098,5.298266 6.93778,5.041841 6.435914,5.379507 6.550903,5.783134 6.446898,6.340714 6.855802,6.224621 6.481448,5.670354 6.815059,5.53665 6.987236,6.270887 6.286073,6.910812 6.262817,7.454034 6.104999,7.25897 6.216797,7.359724 5.956016,7.268481 c 0.188928,-0.145485 0.02448,-0.03669 0,-0.247404 0.102288,-0.0076 0.390497,0.200402 0.368161,-0.06185 C 6.241587,6.931797 6.167341,6.924067 6.017376,6.835525 5.900362,6.861905 5.906314,7.012243 5.710575,6.959227 5.620375,7.194483 5.984855,6.971377 5.894656,7.206632 5.703703,7.151712 5.47262,7.137232 5.403774,6.959227 5.644245,6.992427 6.017315,6.839575 5.894656,6.711823 5.736101,6.922411 5.294614,6.743673 5.342414,6.588121 5.089057,6.816074 5.430344,6.666171 5.403774,6.959227 5.013953,6.963627 4.777777,6.757843 4.790172,6.52627 4.705132,6.667337 4.363105,6.54934 4.17657,6.58812 4.17917,6.67329 4.14767,6.72391 4.11521,6.773673 5.133545,6.881115 5.727205,7.416667 6.446899,7.825142 6.692094,6.278619 7.413077,5.211687 7.980904,3.990373 7.723498,4.208448 7.363007,4.75799 7.121861,4.608884 c 0.02817,0.05983 -0.0416,0.155119 -0.06136,0.371107 z M 19.087104,4.608883 c 0.113394,-0.121615 0.0189,-0.382458 -0.06136,-0.494808 -0.04541,0.144442 -0.04258,0.348526 0.06136,0.494808 z M 4.912892,4.918139 C 4.955842,4.711048 4.707151,5.748588 5.035613,5.53665 4.928907,5.216227 5.107223,4.273673 5.342414,4.856288 5.299764,4.63128 5.339514,4.32319 5.158333,4.237777 5.223253,4.573295 4.771027,4.710496 4.912892,4.918139 z M 9.576269,4.485181 C 9.514659,4.402961 9.518219,4.255019 9.392189,4.237777 9.247072,4.376021 9.262105,4.847207 9.453549,4.547032 9.405929,4.533162 9.332485,4.545332 9.330828,4.485182 c 0.127384,-0.207459 0.209177,0.149474 0.245441,0 z m 8.406351,0.680362 c 0.105601,-0.02442 0.157266,0.0918 0.18408,0 -0.06885,-0.01307 -0.09554,-0.06866 -0.12272,-0.123702 0.131127,-0.05185 0.09971,-0.262928 0.306801,-0.371106 -0.333861,-0.04792 -0.295449,0.279434 -0.368161,0.494808 z m 0.368161,-0.06185 c 0.01301,-0.07474 0.06805,-0.03804 0.122721,0 -0.02706,-0.137508 0.18948,-0.335395 0.06136,-0.371106 -0.10149,0.04688 -0.303856,0.305635 -0.184081,0.371106 z M 6.753699,4.856289 C 6.583977,4.710252 6.425176,4.911879 6.201457,4.794439 6.073091,5.082955 6.796835,5.052152 6.753699,4.856289 z m 4.417936,0.371107 c -0.0632,-0.29048 0.286552,-0.164753 0.245441,-0.432958 -0.262376,0.171686 -0.622684,-0.136159 -0.797683,0.123702 -0.07584,0.200157 0.198562,0.04731 0.12272,0.247404 -0.05578,0.129348 -0.181074,0.18856 -0.368161,0.185554 -0.182117,-0.157328 0.156285,-0.301647 0,-0.432958 -0.06136,0 -0.12272,0 -0.184081,0 -0.04805,0.275201 0.08173,0.371229 0.06136,0.618511 0.477566,0.148983 0.57924,-0.442714 0.920403,-0.618511 0.03669,0.110142 -0.179847,0.256854 0,0.309256 z m 7.485947,-0.185554 c 0.05216,0.359448 -0.03369,0.581511 0.122721,0.742213 -0.03314,-0.322079 0.117873,-0.458483 0.12272,-0.742213 -0.167452,-0.0056 -0.123518,0.103024 -0.245441,0 z M 6.201457,5.4748 C 6.546486,5.620101 6.613184,5.096882 6.385538,5.041842 6.401058,5.263659 6.201273,5.268446 6.201457,5.4748 z M 4.422011,5.845907 C 4.727462,5.883647 4.806187,5.370058 4.667451,5.165544 4.542706,5.349012 4.537306,5.652867 4.422011,5.845907 z m 13.80605,-0.123703 c 0.09002,-0.09799 0.126586,-0.491065 -0.122721,-0.432957 0,0.04123 0,0.08247 0,0.123702 0.0035,0.03774 0.0091,0.0732 0.06136,0.06185 0.01375,-0.04798 0.0017,-0.121984 0.06136,-0.123702 0.01694,0.108423 -0.172729,0.30858 0,0.371106 z M 5.158333,5.598502 c -0.01356,0.04817 -0.05136,0.07191 -0.12272,0.06185 0.0216,0.184388 0.03547,0.376629 0.18408,0.432958 0.04682,-0.09627 0.181013,-0.627163 0.06136,-0.494809 -0.0085,0.256854 -0.04037,0.01252 -0.122721,0 z m 13.437889,0.494809 c 0.0026,0.08511 -0.0289,0.13579 -0.06136,0.185553 0.254522,0.05038 0.0308,-0.381292 0.184081,-0.432957 -0.240103,0.09768 -0.127016,-0.16058 -0.245441,-0.185554 -0.08707,0.09505 0.0033,0.360185 0.12272,0.432958 z M 6.324177,6.155161 C 6.392347,5.960956 6.352897,5.991759 6.262817,5.845906 6.337677,5.838906 6.408118,5.827436 6.385538,5.722203 6.133899,5.649983 6.138992,6.152216 6.324178,6.155161 z m 12.149325,0.123702 c 0.007,-0.216294 -0.25532,-0.480757 -0.368162,-0.371106 0.175981,0.07001 0.06645,0.427803 0.368162,0.371106 z M 4.790172,6.217013 c 0.03835,0.146897 0.08253,0.287964 0.245441,0.309256 -0.0055,-0.231083 -0.06878,-0.176288 0,-0.371107 -0.10689,-0.0047 -0.190831,0.01381 -0.245441,0.06185 z m 1.288565,0.494809 c 0.193284,-0.06934 0.138919,-0.0056 0.368161,0 0,-0.103085 0,-0.20617 0,-0.309255 -0.296554,-0.07216 -0.200709,0.25127 -0.368161,0.309255 z m 9.940356,0.309256 C 15.79028,7.086858 15.921963,6.789136 15.712292,6.835524 15.59405,6.860684 15.663822,7.07532 15.466851,7.021078 15.323145,6.877311 15.122313,6.791099 14.791888,6.835524 c 0.290664,0.207398 0.750006,0.30447 1.227205,0.185554 z M 3.440247,7.454035 c 0.01927,-0.08363 0.08732,-0.118118 0.06136,-0.247404 -0.08179,0 -0.163648,0 -0.245441,0 -0.05357,0.198255 0.09443,0.193469 0.184081,0.247404 z M 2.949365,7.639589 c 0.04841,-0.157021 0.214638,0.173956 0.306801,0 C 3.237636,7.452133 3.019439,7.465878 3.010725,7.268482 2.767616,7.250202 2.635692,7.344012 2.519844,7.454035 c 0.237586,0.02025 0.4448,0.07081 0.429521,0.185554 z M 2.642564,7.701439 C 2.393012,7.782189 2.33429,7.573503 2.458483,7.454034 2.161868,7.339045 2.118057,7.474344 1.844881,7.515884 1.826041,7.94289 2.009633,8.015295 1.722161,8.134395 c 0.04399,0.161807 0.200218,0.210527 0.245441,0.371107 0.08959,-0.115848 0.0025,-0.409886 0.12272,-0.494809 0.0967,0.0056 0.04805,0.157757 0.184081,0.123702 0.08425,-0.140944 -0.158187,-0.232493 0,-0.247404 0.04314,0.09879 0.352698,-0.05197 0.368161,-0.185553 z M 1.59944,7.886992 c 0.161684,0.01865 0.201384,-0.08566 0.184081,-0.247404 -0.06136,0 -0.122721,0 -0.184081,0 0,0.08247 0,0.164936 0,0.247404 z m 1.411285,0.123702 c 0.152174,-0.08026 0.297782,0.137999 0.306801,0 -0.03743,-0.0035 -0.07265,-0.0092 -0.06136,-0.06185 C 3.237386,7.806243 3.433436,7.880124 3.440247,7.763291 3.226897,7.57921 3.240826,8.020267 3.010725,8.010695 z M 1.6608,9.247716 C 1.834082,9.306746 1.963797,8.845439 1.72216,8.87661 1.65153,8.94969 1.6527,9.095236 1.6608,9.247716 z m 0.368162,0.804065 c 0.136956,-0.21789 -0.130329,-0.286921 0,-0.55666 -0.296186,0.08885 0.08431,0.736445 -0.306801,0.371106 0,0.04123 0,0.08247 0,0.123703 -0.03743,0.0035 -0.07265,0.0092 -0.06136,0.06185 0.104497,0.08431 0.602742,0.08946 0.429522,-0.06185 -0.0035,0.03774 -0.0091,0.0732 -0.06136,0.06185 z m 5.276979,2.102937 C 7.006258,11.673409 6.639937,11.259166 6.140097,10.979547 c -0.03381,0.77633 0.265444,1.216835 0.368161,1.855533 -0.411604,-0.203593 -0.89635,-0.333492 -1.534005,-0.309255 0.206477,0.554758 0.756203,0.763444 1.043123,1.237022 -0.558071,0.117873 -1.152897,0.198623 -1.411285,0.618511 0.436455,0.137263 0.91979,0.227401 1.411285,0.309256 -0.313919,0.446395 -0.809771,0.709446 -1.043123,1.237022 0.447684,0.112289 1.114731,-0.395037 1.472645,-0.371107 -0.160334,0.498122 -0.338586,0.978143 -0.429522,1.546216 0.619125,-0.159352 0.813882,-0.746447 1.227205,-1.11332 0.103576,0.555372 0.166225,1.151855 0.368161,1.608129 0.453882,-0.305328 0.377611,-1.144982 0.674963,-1.608129 0.316434,0.526287 0.720553,0.964276 1.227204,1.298874 0.01712,-0.759456 -0.231512,-1.251013 -0.368161,-1.855534 0.574945,0.245135 1.18824,0.451612 1.963527,0.494809 -0.323369,-0.601882 -0.886533,-0.961944 -1.349925,-1.422636 0.743931,-0.198501 1.648197,-0.235317 2.086248,-0.742214 -0.634895,-0.164138 -1.325934,-0.27158 -2.024888,-0.371106 0.576111,-0.51199 1.210637,-0.965074 1.595366,-1.66998 -0.826093,0.09824 -1.550634,0.618143 -2.147608,0.742213 C 9.557861,11.888354 9.953757,11.092266 9.88307,10.360914 9.289656,10.83486 8.900877,11.515038 8.349065,12.030893 8.332555,11.284692 8.244077,10.611018 7.919543,10.17536 7.613724,10.733125 7.573103,11.558113 7.305941,12.154718 z m 11.290281,2.412193 c 0.314839,0.02872 0.377059,-0.197211 0.613602,-0.247404 0.142417,0.257958 -0.259431,0.457318 -0.552242,0.309255 0.04093,0.406328 -0.382213,-0.0227 -0.429521,0.247405 0.392767,0.201446 0.623849,-0.250779 1.043124,-0.06191 -0.03719,-0.359877 0.312875,-0.730309 0.06136,-0.927766 -0.08774,0.385894 -0.621579,0.321896 -0.736323,0.680423 z m 1.656726,1.11332 c 0.104067,0.101245 0.152358,0.258756 0.368161,0.247405 -0.06713,-0.07793 -0.406634,-0.440689 0,-0.432958 0.01313,-0.38436 -0.298149,-0.441671 -0.368161,-0.742275 0.312876,-0.09087 -0.364909,-0.672569 -0.613602,-0.804064 -0.01068,0.232555 0.383317,0.595317 0.552242,0.680362 -0.15653,0.0071 -0.31576,0.0116 -0.306801,0.185492 0.338217,-0.175061 0.164322,0.579057 0.552242,0.371168 0.103085,0.330732 -0.183897,0.268267 -0.184081,0.49487 z m -0.859043,-1.298873 c 0.0058,0.201262 0.247957,0.350367 0.368161,0.247404 0.0039,-0.211017 -0.185246,-0.413629 -0.368161,-0.247404 z m -1.349925,0.371107 c 0.123027,0.116645 0.285202,-0.0759 0.306801,-0.247405 -0.149903,0.03442 -0.22421,0.145117 -0.306801,0.247405 z m 1.349925,0.185553 c -0.02964,-0.155364 0.281337,0.149105 0.306801,-0.06185 -0.03215,-0.11008 -0.547701,-0.08112 -0.306801,0.06185 z m -18.592148,0.92777 c 0.0017,-0.24808 0.301402,-0.517758 0.122721,-0.742275 0.0069,0.256731 -0.320423,0.498613 -0.122721,0.742275 z m 19.26711,-0.309256 c -0.0075,-0.103146 0.198746,-0.393626 -0.06136,-0.371107 0.03528,0.108731 -0.07418,0.363376 0.06136,0.371107 z m 0.674963,0.185553 c 0.06547,-0.05768 0.01914,-0.228137 0.184081,-0.185492 -1.85e-4,0.06204 0.0497,0.07357 0.06136,0.123703 -7.98e-4,0.122904 -0.167452,0.07866 -0.122721,0.247404 0.230531,0.04682 0.207582,-0.161868 0.306801,-0.247404 -0.166715,-0.0794 -0.176594,-0.316803 -0.368161,-0.371107 0.120266,0.302629 -0.375524,0.299929 -0.06136,0.432896 z m -4.049775,0 c 0.07866,0.08511 0.366873,0.107688 0.368161,-0.06185 -0.07866,-0.08505 -0.366872,-0.107687 -0.368161,0.06185 z M 0.433596,16.484299 c 0.159537,0.04534 0.160764,0.250227 0.245441,0.371106 0.09904,-0.180828 0.194328,-0.02436 0.306801,-0.123763 -0.04001,-0.298334 -0.221633,-0.132232 -0.368161,-0.247343 -0.04559,-0.25213 0.197764,-0.213043 0.12272,-0.494809 -0.07842,-0.0034 -0.08498,-0.07928 -0.184081,-0.06185 0.06007,0.28735 -0.07952,0.373377 -0.12272,0.55666 z m 20.371594,0.494808 c 0.267899,-0.08449 0.130575,0.239489 0.368161,0.185554 -0.06774,-0.385772 0.32251,-0.914206 -0.06136,-1.237022 0.02773,0.452654 0.139411,0.94507 -0.306801,1.051468 z m 0.736323,0.123703 c -0.115603,0.08971 -0.318828,0.09094 -0.368162,0.247404 0.310667,0.0039 0.408414,-0.206784 0.613603,-0.309255 -0.183774,-0.04068 0.05866,-0.13217 0,-0.247343 -0.243785,0.06013 -0.02522,-0.345704 -0.245441,-0.309256 0.0886,0.365707 -0.233537,0.442039 0,0.61845 z m -5.276979,0.06185 c 0.233537,0.02626 0.438602,0.08897 0.552242,0.371106 0.156161,-0.0075 0.237955,-0.09002 0.24544,-0.247404 -0.310175,-0.07909 -0.38393,-0.396448 -0.736322,-0.432958 0.05068,0.174816 -0.08646,0.160273 -0.06136,0.309256 z m -0.122721,-0.618511 c -0.08504,0.103821 -0.141742,0.554144 0.122721,0.494747 -0.07817,-0.269064 0.04872,-0.342328 0,-0.432958 -0.02976,0.110142 -0.06541,-0.02675 -0.122721,-0.06179 z m 4.602017,0.371106 c -0.199728,0.03375 -0.474683,0.137815 -0.674963,0.123703 0.159046,0.217153 0.625322,0.127997 0.674963,-0.123703 z m -0.674963,0.618511 c 0.243846,0.246055 0.765899,-0.02154 0.920404,-0.247404 -0.08449,0.0027 -0.134747,-0.02915 -0.184081,-0.06185 -0.09419,0.29367 -0.569852,0.257958 -0.736323,0.309255 z m -1.595365,0.432958 c -0.08449,0.0027 -0.134747,-0.02915 -0.184081,-0.06185 -0.01049,0.17549 0.20752,0.120696 0.12272,0.371107 0.122721,0 0.245441,0 0.368162,0 -0.116032,-0.238937 -0.353558,-0.18402 -0.245441,-0.371107 -0.0035,0.03774 -0.0091,0.0732 -0.06136,0.06185 z m 0.490881,0.123702 c 0.237342,0.05369 0.265506,-0.103514 0.368162,-0.185553 -0.107872,0.03559 -0.360492,-0.0748 -0.368162,0.06185 0.07418,0.01307 0.03774,0.06866 0,0.123702 z m -1.656726,0.432958 c 0.267715,-0.121861 0.703495,-0.07437 0.920404,-0.247404 -0.220529,-0.09996 -0.965013,0.08468 -0.920404,0.247404 z M 2.151682,18.896491 c -0.05142,0.150516 -0.09511,0.401418 0.122721,0.432957 -0.01049,-0.174938 0.05277,-0.424305 -0.122721,-0.432957 z m 1.411285,0.371106 c -0.01957,-0.143398 0.0099,-0.237464 0.06136,-0.309255 -0.148369,-0.03952 -0.386079,-0.307047 -0.490882,-0.185492 0.186412,0.121309 0.155855,0.461367 0.429521,0.494747 z m 12.272045,0.185554 c 0.06296,0.279802 0.426699,0.13806 0.552242,0 -0.09946,-0.0929 -0.452777,-0.0929 -0.552242,0 z m 0.368161,0.371106 c -0.385465,0.05829 -0.575497,-0.06289 -0.859043,0.06185 0.150885,0.05854 0.810078,0.179786 0.859043,-0.06185 z m -13.92877,0.309256 c 0.01927,-0.08363 0.08731,-0.11818 0.06136,-0.247405 -0.06136,0 -0.122721,0 -0.184081,0 -0.01712,0.141006 0.01479,0.232494 0.122721,0.247405 z m 10.308517,0.494809 c 0.420011,-0.15831 0.200157,-0.411727 0.306801,-0.680362 -0.116032,0.01393 -0.13536,-0.06971 -0.245441,-0.06185 10e-4,0.269065 0.02031,0.556476 -0.06136,0.742214 z m 3.558893,-0.432958 c 0.03847,0.187946 -0.07854,0.532791 0.06136,0.618511 0.06977,-0.220222 0.33288,-0.569116 0.122721,-0.865915 -0.07909,0.258081 0.08866,0.33699 -0.184081,0.247404 z M 2.581204,20.133514 c 0.167759,-6.2e-5 0.393748,0.257283 0.552242,0.06185 -0.178988,0.01552 -0.211693,-0.116462 -0.306801,-0.185492 0.04387,0.167882 -0.289314,-0.0443 -0.245441,0.123641 z m 10.369878,0.804064 c -0.03712,-0.127445 0.09897,-0.429644 -0.122721,-0.371106 9.82e-4,0.164015 -0.03405,0.364172 0.122721,0.371106 z M 9.085387,21.06128 c 0.136282,-0.02571 0.05891,-0.339138 -0.06136,-0.309255 -0.04737,0.04228 -0.159782,0.368468 0.06136,0.309255 z m 6.933706,0.804065 c 0.172299,-0.09707 0.250165,-0.986673 0,-0.927767 0.06946,0.352392 0.0018,0.445169 0,0.927767 z m -2.822571,-0.309256 c 0.131189,-0.177331 -0.245993,-0.255688 -0.24544,-0.494747 -0.08179,0 -0.163648,0 -0.245441,0 -0.0095,0.339322 0.315514,0.341715 0.490881,0.494747 z m -4.786097,0.06185 c 0.006,0.200157 0.278085,0.132048 0.184081,0.433019 -0.305574,-0.01939 -0.569178,0.0036 -0.613603,0.247405 0.537209,-0.3627 0.7362,0.165918 1.165845,0.371106 0.16242,0.0024 0.251147,-0.718405 -0.06136,-0.618511 0.04467,0.143706 0.155365,0.462104 -0.12272,0.432958 -0.02479,-0.243048 -0.26974,-0.264156 -0.306801,-0.494747 0.253111,0.07106 0.422097,0.06204 0.490882,-0.185554 -0.188867,-0.04608 -0.117935,0.169784 -0.306801,0.123703 -0.08983,-0.05375 -0.194451,-0.09259 -0.184081,-0.247343 0.107933,0.08891 0.13984,0.05676 0.12272,-0.123764 -0.2355,0.08664 -0.13266,0.235194 -0.368161,0.06173 z m 5.092899,0.371107 c 0.466644,-0.09811 0.773875,0.290295 1.165844,0.06185 -0.0964,-0.006 -0.212736,0.0083 -0.184081,-0.123763 -0.36675,0.08167 -0.624524,-0.155303 -0.981763,0.06191 z m 1.227204,0 c 0.08922,0.09566 0.314103,0.05449 0.490882,0.06185 0.04909,-0.287411 -0.445046,-0.20795 -0.490882,-0.06185 z m 0.920403,0.247404 c 0.120635,-0.01847 0.121678,0.08351 0.184081,0.123764 0.01356,-0.04817 0.05136,-0.07191 0.12272,-0.06185 -0.01663,-0.256486 0.08057,-0.241023 0,-0.433019 -0.07222,0.0097 -0.174201,-0.01062 -0.18408,0.06185 0.120818,0.02829 -0.05498,0.267346 -0.122721,0.309255 z m -0.736322,0 c 0.203838,0.145485 0.400314,-0.176533 0.613602,0 0.01853,-0.162911 -0.08498,-0.202979 -0.245441,-0.185492 0.08652,0.272685 -0.367118,9.82e-4 -0.368161,0.185492 z m -6.626904,0.185554 c 0.109221,0.199175 0.326375,0.289497 0.490881,0.432957 -0.0227,-0.268082 -0.275875,-0.556169 -0.490881,-0.432957 z m 2.024887,1.11332 c 0.258204,-0.110817 0.339138,-0.400253 0.552242,-0.556599 0.06737,-0.275017 -0.148308,-0.450875 0,-0.618511 -0.248938,0.06596 -0.157389,0.337727 -0.245441,0.432958 -0.04762,0.01387 -0.121064,0.0017 -0.12272,0.06185 0.152173,0.08032 0.297781,-0.137999 0.306801,0 -0.121125,0.269555 -0.433449,0.34644 -0.490882,0.680301 z m -1.411285,-0.55666 c 0.247097,-0.24176 0.113148,0.249306 0.306801,0.247343 0.0096,-0.07277 -0.01055,-0.175491 0.06136,-0.185492 0.07222,-0.0097 0.17414,0.01061 0.184081,-0.06185 -0.175613,-0.07038 -0.323798,-0.168434 -0.490882,-0.247405 0.124132,0.198255 -0.242802,0.193408 -0.06136,0.247405 z m 0.368161,0.371106 c 0.328216,-0.03921 0.428601,-0.319257 0.736323,-0.06185 -0.03694,-0.222799 0.187333,-0.182301 0.18408,-0.371106 -0.176349,0.08633 -0.311709,-0.168618 -0.368161,0 0.0964,0.182178 -0.56795,0.126586 -0.552242,0.432957 z m 0.981764,-0.185553 c 0.19488,0.09222 0.365952,-0.283914 0.12272,-0.247343 0.07584,0.200034 -0.198562,0.04719 -0.12272,0.247343 z m -0.245441,0.55666 C 9.995171,23.463594 9.77796,23.414505 9.576269,23.34977 c 0.01019,0.257775 0.317662,0.215804 0.429522,0.371107 z m 0.06136,-0.06185 c 0.190155,0.02387 0.249859,-0.297843 0.06136,-0.309256 -0.05148,0.07179 -0.08093,0.165796 -0.06136,0.309256 z M 18.596222,7.886995 c 0.200709,-0.04504 0.270353,-0.222247 0.368161,-0.371107 -0.01301,-0.0694 -0.06805,-0.09627 -0.12272,-0.123702 -0.107749,0.138797 -0.151928,0.341654 -0.245441,0.494809 z m 0.368161,0.247404 c -0.155118,-0.444984 0.455845,-0.117811 0.552242,-0.309255 -0.08179,-0.147081 0.495546,-0.158125 0.613603,-0.309256 -0.204514,0 -0.409089,0 -0.613603,0 -0.124684,0.204146 -0.308764,0.31349 -0.552242,0.185554 0.02798,0.250534 -0.236421,0.28465 0,0.432957 z m 1.349925,-0.309255 c 0.117014,0.116093 0.111062,-0.03669 0.306801,0 0.0069,0.07547 0.01835,0.146467 0.122721,0.123702 0.139533,-0.148001 -0.110755,-0.251822 -0.306801,-0.247404 -7.37e-4,0.08173 -0.107565,0.05651 -0.122721,0.123702 z m 1.043124,0.185553 c 0.131863,0.0053 0.716872,-0.05142 0.06136,-0.06185 -0.01479,-0.108792 -0.105601,-0.141006 -0.245441,-0.123702 -0.01117,0.237157 0.05019,0.02246 0.184081,0.06185 0.0063,0.0694 -0.08922,0.09627 0,0.123702 z m 1.411285,0.432958 c -0.227585,0.05921 -0.400927,0.173159 -0.552242,0.309256 0.180522,0.0071 0.423018,0.2698 0.613602,0.06185 -0.09683,-0.103392 -0.281766,0.0805 -0.306801,-0.185554 0.35049,0.08032 0.47634,-0.309071 0.736323,-0.123702 -0.300911,-0.232678 -0.730432,-0.335824 -1.104484,-0.494809 0.02534,0.324964 0.49033,0.206723 0.613602,0.432958 z m -0.368161,0.06185 c 0.01853,-0.162973 -0.08498,-0.203041 -0.245441,-0.185553 -0.06161,0.206477 0.08517,0.202795 0.245441,0.185553 z m -4.049775,0.371107 c 0.122721,0 0.245441,0 0.368162,0 -0.03651,-0.12812 0.07584,-0.406328 -0.06136,-0.432958 0.06547,0.313428 -0.390742,0.100876 -0.306801,0.432958 z m 5.33834,-0.123702 c 0.06136,0 0.12272,0 0.18408,0 -0.07118,-0.175613 -0.249245,-0.243601 -0.490882,-0.247405 -0.09388,0.280171 0.400683,-0.03277 0.306802,0.247405 z M 23.5664,8.938463 c -0.09204,0.07216 -0.150026,0.178681 -0.306801,0.185553 0,-0.06185 0,-0.123702 0,-0.185553 -0.301217,0.09456 -0.232739,0.251945 -0.368161,0.432958 0.147816,-0.02534 0.133397,0.112964 0.306801,0.06185 0.07964,-0.153401 -0.136895,-0.300175 0,-0.309256 0.07148,0.01043 0.06664,0.09781 0.06136,0.185553 0.258511,-0.0281 0.272746,-0.302321 0.429522,-0.432957 -0.131373,-0.0354 -0.293302,-0.254093 -0.368162,0 0.0918,0.01055 0.226419,-0.02209 0.245441,0.06185 z m -5.52242,0.309255 c -0.0251,-0.149044 0.112044,-0.13444 0.06136,-0.309255 -0.22556,-0.05952 -0.243968,0.303856 -0.06136,0.309255 z m 4.479296,0.247405 c 0.126893,-0.09223 0.08492,-0.535 -0.12272,-0.494809 0.0505,0.155241 -0.119284,0.532545 0.12272,0.494809 z m -4.233855,0 c -0.107565,-0.09259 0.05418,-0.258143 -0.184081,-0.309256 -0.06253,0.192549 0.126893,0.441426 0.184081,0.309256 z m -0.674963,0.06185 c 0.277042,-0.07308 0.137141,0.274096 0.429522,0.185553 -0.0026,-0.08517 0.0289,-0.13579 0.06136,-0.185553 -0.156407,-0.04854 -0.29772,-0.112289 -0.368161,-0.247405 -0.03197,0.09149 -0.09075,0.155917 -0.122721,0.247405 z m 4.908818,0.06185 c 0.201753,0.104803 0.01902,0.412954 0.122721,0.494809 0.09971,-0.12628 0.199175,-0.252804 0.245441,-0.432958 -0.134256,0.03626 -0.150394,-0.292381 -0.122721,-0.123702 -0.0071,0.190707 -0.426883,-0.115235 -0.245441,0.06185 z m -5.215619,0.309256 c 0.09179,-0.01049 0.22642,0.02209 0.245441,-0.06185 -0.144994,-0.01724 0.07032,-0.165181 0.06136,-0.247404 -0.08179,0 -0.163647,0 -0.24544,0 0.0251,0.148983 -0.112044,0.13444 -0.06136,0.309256 z m 4.908818,0.618511 c 0.02841,-0.160457 0.43713,-0.255627 0.245441,-0.432958 -0.11775,0.07044 -0.427128,0.26569 -0.245441,0.432958 z m -0.368161,0.185553 c 0.162727,-0.0197 -0.05743,0.346501 0.184081,0.247404 -0.106154,-0.294283 -0.0178,-0.14978 0.12272,-0.247404 -0.0478,-0.01362 -0.07136,-0.05179 -0.06136,-0.123702 -0.114253,0.0085 -0.205066,0.04068 -0.245441,0.123702 z m -0.490882,0.371107 c -0.128365,-0.09726 -0.230653,-0.14702 -0.306801,-0.06185 0.180706,0.04461 0.299929,0.151253 0.368161,0.309256 0.119591,0.02927 0.313796,-0.16647 0.184081,-0.185553 -7.36e-4,0.0624 -0.107564,0.0778 -0.12272,0 0.07148,-0.01037 0.06664,-0.09775 0.06136,-0.185554 0.0964,-0.0059 0.212736,0.0083 0.18408,-0.123702 -0.215435,-0.01098 -0.201813,0.208932 -0.368161,0.247405 z m -4.049775,0.371106 c -0.12769,0.135484 -0.198316,-0.0543 -0.306801,0.06185 0,0.06185 0,0.123702 0,0.185554 0.217031,-0.108608 0.316128,0.207704 0.368162,0.06185 -0.290112,-0.03712 0.04277,-0.317233 -0.06136,-0.309256 z m -0.06136,-0.432958 c -0.147817,0.02534 -0.133397,-0.112964 -0.306801,-0.06185 0.05492,0.302752 -0.325209,0.167023 -0.245441,0.494809 0.173404,-0.05111 0.158984,0.08719 0.306801,0.06185 -0.124806,-0.31036 0.02681,-0.388655 0.245441,-0.494809 z m 2.883931,0.804065 c -0.01853,0.162973 0.08498,0.202979 0.245441,0.185553 0.0173,-0.161745 -0.0224,-0.266058 -0.184081,-0.247404 -0.0035,0.03774 -0.0091,0.0732 -0.06136,0.06185 z m -1.656726,0.247404 c 0.203961,0.106215 0.374665,0.0189 0.429521,-0.185553 -0.182792,0.132906 -0.23323,0.0405 -0.429521,0.185553 z M 6.140097,20.442766 c 0.02166,0.08664 0.108055,0.0053 0.12272,-0.06185 0.07805,0.127445 0.09192,0.319687 0.184081,0.432958 -0.02068,0.205925 -0.250534,0.200955 -0.245441,0.432958 0.313305,0.05694 0.04596,-0.28281 0.368161,-0.309256 0.04835,0.378593 -0.232555,0.425411 -0.368161,0.618511 0.004,0.222799 0.162666,0.28962 0.306801,0.371107 0.144749,-0.09063 -0.241636,-0.163832 -0.12272,-0.432958 0.241943,0.07891 0.159352,-0.169293 0.245441,-0.247404 0.153707,0.216172 0.30453,0.435289 0.429521,0.680362 -0.188867,0.04332 -0.117934,0.04332 -0.306801,0 -0.0073,0.461367 0.390067,-0.127139 0.552242,0.123763 -0.50794,0.477567 -1.330903,0.637717 -2.086248,0.865916 -0.327356,-0.742091 -0.786147,-1.351766 -0.981763,-2.22664 0.641276,-0.104067 0.806887,-0.06234 1.411285,0.06185 -0.04547,-0.222185 -0.393933,-0.139042 -0.552242,-0.247404 0.435228,-0.09738 0.60538,-0.461859 1.043124,-0.55666 4.29e-4,0.2066 -0.246484,0.163954 -0.306801,0.309255 0.02718,0.05504 0.05387,0.110633 0.12272,0.123764 0.130943,0.0289 0.116891,-0.08836 0.122721,-0.185553 0.04093,0 0.08179,0 0.12272,0 -0.01129,0.05259 0.02393,0.05835 0.06136,0.06185 0.03375,0.137017 -0.117198,0.08793 -0.12272,0.18543 z m -0.06136,0.494809 c 0.04093,0 0.08179,0 0.12272,0 0.0035,-0.03768 0.0091,-0.0732 0.06136,-0.06185 -0.0875,-0.222738 -0.441855,-0.500761 -0.674962,-0.371107 0.223535,0.135913 0.555617,0.167575 0.490882,0.432958 z m -0.981764,0.123702 c -0.0281,-0.253847 0.131127,0.02516 0.306801,-0.06185 0,-0.06191 0,-0.123763 0,-0.185553 -0.309255,0.127752 -0.305512,-0.05547 -0.552242,-0.123702 0.01454,0.191444 0.170766,0.240225 0.245441,0.371106 z m 0.859043,-0.247404 c -0.102287,0 -0.204514,0 -0.306801,0 -0.06572,0.336561 0.308028,0.141128 0.306801,0 z m -1.227204,0.494809 c -0.01651,-0.184449 0.171747,-0.376629 -0.06136,-0.433019 -0.08369,0.08345 -0.116952,0.431853 0.06136,0.433019 z m 0.12272,0.371106 c -0.01712,-0.141005 0.01479,-0.232493 0.122721,-0.247404 -0.0026,0.08517 0.0289,0.13579 0.06136,0.185492 -0.01804,0.126157 -0.166041,0.121371 -0.184081,0.247404 0.122414,0.06222 0.09683,0.273483 0.306801,0.247405 -1.23e-4,-0.13984 -0.311035,-0.398596 0.06136,-0.371107 0.01773,-0.327111 -0.173281,-0.443818 -0.306801,-0.618511 -0.04025,0.12855 -0.22918,0.423263 -0.06136,0.556721 z m 1.963527,0.123703 c -0.02583,-0.118303 -0.02221,-0.266242 -0.18408,-0.247405 -0.01712,0.161562 -0.02074,0.309563 0.18408,0.247405 z m -1.288564,0.06185 c -0.08179,0 -0.163648,0 -0.245441,0 0,0.04123 0,0.08253 0,0.123763 0.07664,0.173895 0.359264,0.09713 0.429521,-0.06191 -0.195739,-0.05295 -0.189787,0.09738 -0.306801,0.123763 -0.148246,-0.231389 0.09584,0.04571 0.122721,-0.185614 z m -0.06136,0.371106 c 0.294038,0.17727 0.311035,-0.09842 0.429522,-0.185492 0.447377,-0.100508 0.350305,0.347852 0.797683,0.247405 -0.05989,-0.248939 -0.469529,-0.14524 -0.490882,-0.433019 -0.220222,-0.05118 -0.296861,0.13941 -0.429522,0 0.04657,0.273728 -0.239059,0.212674 -0.306801,0.371106 z m 0,0.185554 c 0.0018,-0.208073 -0.284098,-0.125973 -0.368161,-0.247405 -0.05627,0.262867 0.147019,0.264095 0.368161,0.247405 z m 0.552242,0.06185 c 0.160457,0.01743 0.263911,-0.02258 0.245441,-0.185492 -0.160457,-0.01749 -0.26391,0.02258 -0.245441,0.185492 z M 5.281055,22.669404 C 5.569816,22.651184 5.865818,22.640254 5.956017,22.422 5.628783,22.40138 5.369782,22.44955 5.281055,22.669404 z M 1.354,12.092865 C 1.218333,12.044085 1.200477,11.87657 1.108559,11.78361 0.999461,11.83859 0.952582,11.956277 0.740398,11.907312 0.899873,11.676291 1.074873,11.460978 1.29264,11.288801 c -0.261149,-0.0017 -1.068404,0.68705 -0.552242,0.927766 0.194144,0.01013 0.205066,-0.164384 0.429522,-0.123702 0.05473,0.370432 0.110571,0.386263 0.12272,0.742213 0.151989,-0.09793 0.02503,-0.432712 0,-0.556659 0.133029,-0.09272 0.142969,-0.309501 0.368161,-0.309256 -0.07823,-0.154812 0.03123,-0.193592 -0.06136,-0.247404 0.243968,0.106337 0.407064,0.482905 0.552242,0.927766 -0.11683,-0.02651 -0.154137,-0.133213 -0.306801,-0.123702 -0.05068,0.174815 0.08646,0.160211 0.06136,0.309255 0.106951,-0.05713 0.329321,0.0021 0.306801,-0.185553 0.331039,0.140822 0.331039,0.536043 0,0.185553 -0.159475,0.162666 0.09916,0.04866 0.06136,0.247405 C 2.084431,13.171823 2.03608,13.072293 1.906241,12.958781 1.682706,13.083956 1.43567,13.185445 1.353999,13.45359 1.278529,13.42665 1.227965,13.37443 1.231279,13.268098 1.245819,13.081747 1.402044,13.236678 1.47672,13.020693 1.42119,12.839987 1.250853,13.002713 1.231279,12.896991 c -0.0039,0.125543 -0.0956,0.46057 -0.184081,0.680362 -0.317907,-0.112535 -0.455109,-0.407248 -0.552242,-0.742275 0.254891,0.03172 0.225254,0.350245 0.490882,0.371107 -0.06277,-0.203041 -0.186167,-0.272685 0,-0.432958 -0.127384,-0.160273 -0.443389,-0.130329 -0.368161,-0.494808 -0.0092,-0.114376 -0.207766,-0.03798 -0.245441,-0.123703 -0.0624,0.04019 -0.06345,0.142233 -0.184081,0.123703 -0.02062,0.268205 0.1669,0.326559 0.306801,0.432957 -0.313551,0.395037 0.272808,0.684903 0.306801,1.11332 0.141681,-0.06338 0.326559,-0.08314 0.306801,-0.309255 0.162912,0.02135 0.207091,0.162359 0.245441,0.309255 C 1.240238,13.978097 0.998908,14.002825 1.047198,14.319505 0.44685,13.873171 0.243809,13.0264 -0.118646,12.34027 0.384201,11.836932 0.762978,11.208542 1.47672,10.917694 c 0.06492,0.512604 0.195371,0.835788 -0.122721,1.175171 z m 0,-0.185553 C 1.3469,11.749555 1.34247,11.589036 1.16992,11.598056 1.040634,11.727465 1.25073,11.83055 1.354,11.907312 z m 0.245441,0.494809 c 0.116032,-0.01387 0.135422,0.0697 0.245441,0.06185 0.03706,-0.243539 -0.09045,-0.32116 -0.184081,-0.432958 -0.07062,0.07308 -0.06946,0.218627 -0.06136,0.371107 z"
     id="path3580"
     inkscape:connector-curvature="0"
     style="fill-rule:evenodd" /></svg>