<?xml version="1.0" encoding="UTF-8" standalone="no"?>
<!-- Generator: Adobe Illustrator 15.1.0, SVG Export Plug-In . SVG Version: 6.00 Build 0)  -->

<svg
   xmlns:dc="http://purl.org/dc/elements/1.1/"
   xmlns:cc="http://creativecommons.org/ns#"
   xmlns:rdf="http://www.w3.org/1999/02/22-rdf-syntax-ns#"
   xmlns:svg="http://www.w3.org/2000/svg"
   xmlns="http://www.w3.org/2000/svg"
   xmlns:sodipodi="http://sodipodi.sourceforge.net/DTD/sodipodi-0.dtd"
   xmlns:inkscape="http://www.inkscape.org/namespaces/inkscape"
   version="1.1"
   id="Layer_1"
   x="0px"
   y="0px"
   width="24"
   height="24"
   viewBox="0 0 24 24"
   enable-background="new 0 0 500 500"
   xml:space="preserve"
   inkscape:version="0.48.5 r10040"
   sodipodi:docname="shahr.svg"><metadata
     id="metadata3631"><rdf:RDF><cc:Work
         rdf:about=""><dc:format>image/svg+xml</dc:format><dc:type
           rdf:resource="http://purl.org/dc/dcmitype/StillImage" /><dc:title></dc:title></cc:Work></rdf:RDF></metadata><defs
     id="defs3629" /><sodipodi:namedview
     pagecolor="#ffffff"
     bordercolor="#666666"
     borderopacity="1"
     objecttolerance="10"
     gridtolerance="10"
     guidetolerance="10"
     inkscape:pageopacity="0"
     inkscape:pageshadow="2"
     inkscape:window-width="657"
     inkscape:window-height="480"
     id="namedview3627"
     showgrid="false"
     inkscape:zoom="3.776"
     inkscape:cx="23.163649"
     inkscape:cy="-4.620719"
     inkscape:window-x="0"
     inkscape:window-y="27"
     inkscape:window-maximized="0"
     inkscape:current-layer="Layer_1" /><path
     clip-rule="evenodd"
     d="M 16.488449,0.38195998 C 17.763227,0.03252606 18.990448,1.0346812 19.175507,1.9591448 19.477625,3.468394 18.160442,5.0761874 16.371621,4.529372 14.622175,3.994589 14.444187,0.97048344 16.488449,0.38195998 z M 11.640066,6.0481423 c 0.506802,0.086278 1.339501,-0.1934098 1.694015,-0.4673142 1.666268,-1.2872162 0.347274,-3.995593 -1.635599,-3.738512 -2.4106397,0.3125747 -2.3549702,3.8149178 -0.05842,4.2058262 z M 5.1560864,6.1649706 C 5.1470898,9.0136584 9.7950543,8.9244597 9.4203282,5.6976568 8.9993952,3.3985306 5.164381,3.550933 5.1560864,6.1649706 z M 20.752694,4.7046144 C 14.843564,5.5000997 9.6011186,7.2412533 6.3827858,10.896524 c -0.3867025,0.968509 -0.9523862,1.903838 -0.7593853,3.15437 0.4185962,2.712291 3.3511653,3.695929 6.2503235,3.504856 0.112214,-0.779539 0.0361,-2.158465 0.05842,-3.212784 -0.987207,-0.163327 -2.7190121,-0.08365 -2.9207186,-0.876214 -0.130555,-0.513111 0.3123408,-1.069974 0.5257316,-1.285113 0.730001,-0.735845 2.080946,-1.525722 3.504854,-2.102914 C 15.43133,9.1101589 17.911597,8.5763695 20.869522,8.3847123 20.794049,7.1945218 21.02198,5.700928 20.752694,4.7046144 z M 8.9530131,22.520961 c 1.2330649,-0.376596 2.5012979,-0.882698 3.6800959,-1.460356 2.530095,-1.239902 5.388832,-2.822168 5.666184,-5.724597 0.31865,-3.334169 -2.773157,-4.618289 -6.133495,-4.556311 -0.0586,-1.77e-4 -0.06952,0.04731 -0.116829,0.05842 0.03785,1.09147 -0.07646,2.335168 0.05841,3.329612 1.088319,0.0099 2.654228,0.02529 2.803887,0.817799 0.125881,0.666507 -0.683684,1.316073 -1.2267,1.752428 -2.629286,2.112609 -6.4855011,2.871119 -10.5729798,3.271197 0,1.226699 0,2.453399 0,3.680098 2.0850383,-0.257315 3.9504391,-0.590744 5.8414255,-1.168285 z"
     id="path3625"
     inkscape:connector-curvature="0"
     style="fill-rule:evenodd" /></svg>