<?xml version="1.0" encoding="UTF-8" standalone="no"?>
<!-- Generator: Adobe Illustrator 15.1.0, SVG Export Plug-In . SVG Version: 6.00 Build 0)  -->

<svg
   xmlns:dc="http://purl.org/dc/elements/1.1/"
   xmlns:cc="http://creativecommons.org/ns#"
   xmlns:rdf="http://www.w3.org/1999/02/22-rdf-syntax-ns#"
   xmlns:svg="http://www.w3.org/2000/svg"
   xmlns="http://www.w3.org/2000/svg"
   xmlns:sodipodi="http://sodipodi.sourceforge.net/DTD/sodipodi-0.dtd"
   xmlns:inkscape="http://www.inkscape.org/namespaces/inkscape"
   version="1.1"
   id="Layer_1"
   x="0px"
   y="0px"
   width="24"
   height="24"
   viewBox="0 0 24 24"
   enable-background="new 0 0 500 500"
   xml:space="preserve"
   inkscape:version="0.48.5 r10040"
   sodipodi:docname="khavar-e-miane.svg"><metadata
     id="metadata3260"><rdf:RDF><cc:Work
         rdf:about=""><dc:format>image/svg+xml</dc:format><dc:type
           rdf:resource="http://purl.org/dc/dcmitype/StillImage" /><dc:title></dc:title></cc:Work></rdf:RDF></metadata><defs
     id="defs3258" /><sodipodi:namedview
     pagecolor="#ffffff"
     bordercolor="#666666"
     borderopacity="1"
     objecttolerance="10"
     gridtolerance="10"
     guidetolerance="10"
     inkscape:pageopacity="0"
     inkscape:pageshadow="2"
     inkscape:window-width="657"
     inkscape:window-height="480"
     id="namedview3256"
     showgrid="false"
     inkscape:zoom="3.776"
     inkscape:cx="11.306524"
     inkscape:cy="8.2137585"
     inkscape:window-x="0"
     inkscape:window-y="27"
     inkscape:window-maximized="0"
     inkscape:current-layer="Layer_1" /><path
     clip-rule="evenodd"
     d="M 0.93147122,0.89267844 C 3.0495721,0.61527034 4.2586465,1.3546419 5.6853756,2.0112391 8.1076306,3.1259827 10.527553,4.2276785 12.956056,5.3669409 12.622167,5.9650922 12.515898,6.7910617 12.583201,7.7904968 8.6615071,8.8402705 4.7413053,9.8914434 0.83825732,10.95977 1.0291592,10.311747 0.88851712,9.3321599 0.93147092,8.5362083 3.2161391,7.9312506 6.263955,8.0894344 8.3885798,7.3244271 7.7401819,6.6452753 6.4800264,6.9056213 5.4057337,6.8583639 3.8505563,6.7900369 2.5958012,6.5741495 0.93147122,6.5787221 c -0.05026,-0.3571076 0.034557,-1.3126426 0,-1.9574926 C 3.3587588,4.7524766 6.4871087,5.4544653 8.9478635,5.5533688 8.8336718,5.1378217 8.3500802,4.9249171 8.0157241,4.8076573 5.8632297,4.0525311 3.078276,3.7373723 0.93147122,2.8501646 c 0,-0.6524976 0,-1.3049952 0,-1.95748616 z M 13.235698,4.7144434 C 13.847179,4.2694368 14.170262,3.5362213 15.006762,3.3162343 14.874208,2.3612578 14.344943,1.8029992 14.167837,0.89267844 c -0.341819,0 -0.68354,0 -1.025353,0 0.05834,0.28746656 0.503636,0.67160286 0.186427,1.02534666 -0.530198,-0.1533352 -0.759042,-0.6080324 -1.025352,-1.02534666 -0.435027,0 -0.869962,0 -1.304995,0 0.167881,0.67169476 1.25727,0.81169966 1.025353,1.58463036 C 10.967428,2.5035878 10.474797,1.1435112 9.5071473,0.89267844 8.6789371,0.67790794 7.646876,0.96724744 6.6175149,0.98589244 8.8316219,2.2206945 10.977875,3.5233574 13.235698,4.7144433 z m 1.864279,-3.72855096 c 0.296139,0.60495766 0.350945,1.45124136 0.652491,2.05069996 0.746644,-0.439317 1.544462,-0.2514897 2.423562,0 0.164799,-0.7983759 0.594052,-1.3323982 0.745712,-2.14391396 -0.2486,0 -0.497113,0 -0.745712,0 C 17.997059,1.3661984 17.85733,1.8789736 17.430318,2.104453 17.253772,1.700837 17.255546,1.3632157 17.337108,0.89267844 c -0.217465,0 -0.435027,0 -0.652498,0 C 16.69979,1.3118587 16.70537,1.7213483 16.404968,1.8248112 16.115166,1.648547 16.044231,1.2534127 15.938896,0.89267844 c -0.291665,0.018987 -0.684283,-0.0628079 -0.838919,0.0932136 z m 5.965685,4.84711816 c 0.242726,0.9393137 0.313851,1.9132115 -0.09321,2.7964116 0.574289,0.4200212 1.445743,0.5427866 2.0507,0.9321392 0.129473,-0.2952977 0.129473,-0.8232626 0,-1.1185671 -0.466254,-0.062019 -0.968307,-0.088181 -0.932139,-0.6524975 0.226977,-0.3068544 0.460761,-0.030747 0.932139,-0.093214 0.183728,-0.1947192 0.07131,-0.6190305 0,-0.838919 -1.513978,0.3026628 -1.353461,-1.0452075 0,-0.8389254 0.06183,-0.2115972 0.240958,-0.781603 -0.09321,-0.8389254 -0.471194,0.3677246 -1.333889,0.3439546 -1.864272,0.6524975 z M 12.676414,8.4429943 C 8.785764,9.9898814 4.9100272,11.551582 0.93147122,13.01047 c 0,0.901103 0,1.802108 0,2.703204 C 2.9662328,14.742477 5.154152,13.690003 7.0835846,12.637621 7.6873335,12.308291 8.4084341,11.650393 9.1342914,11.985124 6.5127445,14.272965 3.5903942,16.25972 0.93147122,18.510092 0.88232822,19.92135 1.0379235,21.537206 0.83825722,22.797927 3.3190498,20.585403 5.8011502,18.114675 8.1089376,15.806889 8.8665801,15.049246 9.4570905,13.94261 10.532494,13.662968 c -0.7826221,1.785886 -2.1004809,3.199383 -3.1692679,4.75391 -1.0691615,1.555086 -2.0916241,3.162094 -3.169274,4.753905 0.8146891,-0.09871 1.856546,0.05959 2.7964182,-0.09321 2.3291335,-4.25811 4.8969907,-8.277208 7.2706807,-12.490658 -0.76184,-0.481076 -1.118475,-1.3671663 -1.584637,-2.1439207 z m 7.923179,0.9321394 c -0.463744,0.8412573 -1.197052,1.4129383 -2.143921,1.7710643 1.449474,3.863714 3.076711,7.549665 4.660691,11.278873 0,-1.553593 0,-3.107096 0,-4.66069 -0.245992,-0.375471 -0.434752,-0.808166 -0.745712,-1.118567 -0.415265,-1.325033 -1.700031,-2.276751 -1.771058,-3.635344 1.098988,0.334921 1.588178,1.761374 2.51677,1.957493 0.356265,-2.082302 -1.499531,-2.392146 -1.584638,-3.728551 0.575971,-0.173097 0.973064,0.474459 1.584638,0.559283 0,-0.341818 0,-0.68354 0,-1.025353 -0.860272,-0.444724 -1.557885,-1.0521056 -2.51677,-1.3982083 z M 9.7867823,23.077569 c 0.7747037,0.25783 1.6741257,-0.06439 2.4235617,0.09321 0.614656,-1.589952 1.299871,-3.652307 1.771066,-5.499616 0.175521,-0.688107 0.0052,-1.751118 0.838925,-2.050706 0.218772,2.498688 -0.405107,5.211117 -0.372856,7.550322 0.724366,-0.06908 1.141214,-0.02274 1.957486,0 0.467377,-2.266962 -0.116701,-5.585282 0.372856,-7.829964 0.536354,0.277966 0.628543,1.129939 0.745711,1.67785 0.439225,2.054341 0.701437,4.208977 1.211782,6.0589 0.494123,0.175429 1.695465,0.08343 2.050706,0.09321 -1.001491,-3.938756 -2.076809,-7.803862 -3.07606,-11.744943 -1.11111,0.282434 -2.139256,-0.10095 -2.889625,-0.46607 -1.619871,4.097307 -3.411166,8.023008 -5.0335527,12.117799 z M 18.735314,3.2230203 c 0.9574,0.3786373 1.419462,1.2526987 2.143921,1.8642787 0.766215,-0.1969593 1.349919,-0.5765295 2.143913,-0.7457114 0.07681,-0.2901734 0.259512,-1.1696483 -0.09321,-1.3049952 -0.699105,0.3498349 -1.495148,1.411165 -2.423556,0.9321395 0.769574,-0.8150636 1.798836,-1.3705235 2.609985,-2.1439207 -0.02522,-0.3164595 0.07215,-0.7556846 -0.09321,-0.93213276 -1.774139,0.030944 -1.833511,2.26388066 -3.262481,2.33034186 0.185587,-1.0260957 0.992445,-1.4311111 1.304995,-2.33034186 -1.815248,-0.2616534 -1.537846,1.56925026 -2.330348,2.33034186 z"
     id="path3254"
     inkscape:connector-curvature="0"
     style="fill-rule:evenodd" /></svg>