<?xml version="1.0" encoding="UTF-8" standalone="no"?>
<!-- Generator: Adobe Illustrator 15.1.0, SVG Export Plug-In . SVG Version: 6.00 Build 0)  -->

<svg
   xmlns:dc="http://purl.org/dc/elements/1.1/"
   xmlns:cc="http://creativecommons.org/ns#"
   xmlns:rdf="http://www.w3.org/1999/02/22-rdf-syntax-ns#"
   xmlns:svg="http://www.w3.org/2000/svg"
   xmlns="http://www.w3.org/2000/svg"
   xmlns:sodipodi="http://sodipodi.sourceforge.net/DTD/sodipodi-0.dtd"
   xmlns:inkscape="http://www.inkscape.org/namespaces/inkscape"
   version="1.1"
   id="Layer_1"
   x="0px"
   y="0px"
   width="24"
   height="24"
   viewBox="0 0 24 24"
   enable-background="new 0 0 500 500"
   xml:space="preserve"
   inkscape:version="0.48.5 r10040"
   sodipodi:docname="mehr.svg"><metadata
     id="metadata3278"><rdf:RDF><cc:Work
         rdf:about=""><dc:format>image/svg+xml</dc:format><dc:type
           rdf:resource="http://purl.org/dc/dcmitype/StillImage" /><dc:title></dc:title></cc:Work></rdf:RDF></metadata><defs
     id="defs3276" /><sodipodi:namedview
     pagecolor="#ffffff"
     bordercolor="#666666"
     borderopacity="1"
     objecttolerance="10"
     gridtolerance="10"
     guidetolerance="10"
     inkscape:pageopacity="0"
     inkscape:pageshadow="2"
     inkscape:window-width="657"
     inkscape:window-height="480"
     id="namedview3274"
     showgrid="false"
     inkscape:zoom="3.776"
     inkscape:cx="1.5435453"
     inkscape:cy="24.410747"
     inkscape:window-x="0"
     inkscape:window-y="27"
     inkscape:window-maximized="0"
     inkscape:current-layer="Layer_1" /><path
     clip-rule="evenodd"
     d="M 2.1197837,7.8719644 C 4.2475491,8.3425605 5.1515889,7.2087039 6.2478191,6.1124737 8.0754561,4.2848368 10.244503,2.0715322 11.864654,0.42796525 c 0.335386,0.3169796 0.741828,0.67415525 1.353453,1.28578085 0.271436,0.2713692 1.212628,1.0902778 1.218112,1.2181115 0.01185,0.2771201 -1.35427,1.354265 -1.691821,1.6918163 C 11.468295,5.8997785 10.692291,6.7434541 9.4284368,8.0073098 8.879002,8.5567444 8.2236595,9.3400564 7.736619,9.6314551 5.6732099,10.865941 2.7246421,9.7333022 2.1197837,7.8719644 z M 18.022872,6.3831645 c -1.117481,-1.1174118 -2.323001,-2.1117266 -1.96251,-4.2633828 -1.744604,0.8464513 -2.827229,3.407932 -1.75949,5.4814918 0.296744,0.5763007 1.054816,1.1900926 1.624143,1.7594907 1.654936,1.6549358 3.664749,3.6751698 5.2108,5.0754538 C 21.919667,13.595926 22.731743,12.783853 23.572034,12 21.931578,10.138121 19.862892,8.2231856 18.022872,6.3831645 z M 8.7517098,13.691818 c 1.2026794,2.399404 5.1827162,2.621168 6.4965802,0 C 16.700613,10.79441 14.179129,8.0816819 11.458618,8.4810189 9.3776147,8.7864936 7.4657249,11.126277 8.7517098,13.691818 z m 0.8797453,2.639236 C 9.306626,15.795086 8.5827311,15.28233 8.0073098,14.706909 6.3913529,13.090952 4.3308539,10.93226 2.9318563,9.6314551 2.0576603,10.404007 1.3021619,11.295121 0.42796575,12.067673 c 1.63801785,1.859443 3.71096875,3.778641 5.54916265,5.616836 1.1237053,1.123705 2.3391073,2.083237 1.9625085,4.263381 1.6788925,-0.6973 2.8899641,-3.63971 1.6918182,-5.616836 z m 6.5642539,-1.894836 c -0.563106,0.383975 -1.048049,1.120322 -1.624147,1.691817 -1.646407,1.633282 -3.553901,3.377682 -4.940107,5.007782 0.826486,0.820194 1.5853,1.70806 2.503892,2.436218 1.862149,-1.675509 3.727479,-3.820192 5.616831,-5.684508 1.067538,-1.053326 2.089737,-2.159572 4.12804,-1.759492 -0.569402,-1.822696 -3.799215,-2.977261 -5.684509,-1.691817 z"
     id="path3272"
     inkscape:connector-curvature="0"
     style="fill-rule:evenodd" /></svg>