<?xml version="1.0" encoding="UTF-8" standalone="no"?>
<!-- Generator: Adobe Illustrator 15.1.0, SVG Export Plug-In . SVG Version: 6.00 Build 0)  -->

<svg
   xmlns:dc="http://purl.org/dc/elements/1.1/"
   xmlns:cc="http://creativecommons.org/ns#"
   xmlns:rdf="http://www.w3.org/1999/02/22-rdf-syntax-ns#"
   xmlns:svg="http://www.w3.org/2000/svg"
   xmlns="http://www.w3.org/2000/svg"
   xmlns:sodipodi="http://sodipodi.sourceforge.net/DTD/sodipodi-0.dtd"
   xmlns:inkscape="http://www.inkscape.org/namespaces/inkscape"
   version="1.1"
   id="Layer_1"
   x="0px"
   y="0px"
   width="24"
   height="24"
   viewBox="0 0 24 24"
   enable-background="new 0 0 500 500"
   xml:space="preserve"
   inkscape:version="0.48.5 r10040"
   sodipodi:docname="gavamin-bank.svg"><metadata
     id="metadata3215"><rdf:RDF><cc:Work
         rdf:about=""><dc:format>image/svg+xml</dc:format><dc:type
           rdf:resource="http://purl.org/dc/dcmitype/StillImage" /><dc:title></dc:title></cc:Work></rdf:RDF></metadata><defs
     id="defs3213" /><sodipodi:namedview
     pagecolor="#ffffff"
     bordercolor="#666666"
     borderopacity="1"
     objecttolerance="10"
     gridtolerance="10"
     guidetolerance="10"
     inkscape:pageopacity="0"
     inkscape:pageshadow="2"
     inkscape:window-width="657"
     inkscape:window-height="480"
     id="namedview3211"
     showgrid="false"
     inkscape:zoom="2.6700352"
     inkscape:cx="13.056314"
     inkscape:cy="18.907312"
     inkscape:window-x="0"
     inkscape:window-y="27"
     inkscape:window-maximized="0"
     inkscape:current-layer="Layer_1" /><path
     clip-rule="evenodd"
     d="M 14.389794,0.87740736 C 15.363477,2.0592461 17.04783,3.1043411 18.03229,4.5199068 14.337586,4.8723911 9.9897338,4.571733 6.0424018,4.6716748 5.4877556,6.989746 5.7966098,11.051588 5.8147456,13.702035 c 0.2262914,3.301468 7.3292374,4.81204 8.3473924,1.365938 -0.881712,0.506152 -1.338164,0.667715 -2.276562,0.834737 C 9.9313011,15.340704 8.1447325,13.876496 8.7742763,11.425473 8.9085167,11.176417 8.4753656,10.943144 8.5466201,10.514848 9.593003,4.2011855 21.552461,4.4714133 22.585414,10.590737 c -0.04713,3.817109 0.101838,8.752843 -0.07589,12.445197 -4.417818,0.120127 -8.780845,0.110869 -12.9763971,0 -1.2449715,-0.803929 -2.3611717,-1.736636 -3.1871809,-2.959529 0.6781863,-0.387698 1.6840466,-0.220674 2.6559866,-0.227656 2.7799094,-0.02003 6.3192794,0.0255 9.3339014,0 0.470792,-2.490559 0.183716,-6.137608 0.151768,-8.878588 -0.57779,-1.9011554 -1.941602,-3.0162164 -3.94604,-3.4907272 -2.139053,-0.064882 -3.942924,0.2054223 -4.401348,1.8212497 0.58758,0.081275 0.850827,-0.5453871 1.593594,-0.5311965 1.315165,0.050007 1.686473,0.474205 2.73187,0.8347368 0.859024,1.1700762 1.271382,2.4172552 1.365938,4.2495792 -0.473525,2.030694 -1.766839,3.241599 -3.338955,4.173696 -1.658098,0.718332 -4.0107698,0.885432 -6.146715,0.531197 C 4.9370546,17.980983 3.8391469,17.493722 3.006987,16.509793 0.38021473,13.404035 1.8821391,7.0367941 1.4133975,2.3192289 1.6652601,1.7110854 1.9426217,1.1283604 2.5516748,0.87740736 c 3.9460394,0 7.8920792,0 11.8381192,0 z"
     id="path3209"
     inkscape:connector-curvature="0"
     style="fill-rule:evenodd" /></svg>