<?xml version="1.0" encoding="UTF-8" standalone="no"?>
<!-- Generator: Adobe Illustrator 15.1.0, SVG Export Plug-In . SVG Version: 6.00 Build 0)  -->

<svg
   xmlns:dc="http://purl.org/dc/elements/1.1/"
   xmlns:cc="http://creativecommons.org/ns#"
   xmlns:rdf="http://www.w3.org/1999/02/22-rdf-syntax-ns#"
   xmlns:svg="http://www.w3.org/2000/svg"
   xmlns="http://www.w3.org/2000/svg"
   xmlns:sodipodi="http://sodipodi.sourceforge.net/DTD/sodipodi-0.dtd"
   xmlns:inkscape="http://www.inkscape.org/namespaces/inkscape"
   version="1.1"
   id="Layer_1"
   x="0px"
   y="0px"
   width="24"
   height="24"
   viewBox="0 0 24 24"
   enable-background="new 0 0 500 500"
   xml:space="preserve"
   inkscape:version="0.48.5 r10040"
   sodipodi:docname="sanat_o_madan.svg"><metadata
     id="metadata3604"><rdf:RDF><cc:Work
         rdf:about=""><dc:format>image/svg+xml</dc:format><dc:type
           rdf:resource="http://purl.org/dc/dcmitype/StillImage" /><dc:title></dc:title></cc:Work></rdf:RDF></metadata><defs
     id="defs3602" /><sodipodi:namedview
     pagecolor="#ffffff"
     bordercolor="#666666"
     borderopacity="1"
     objecttolerance="10"
     gridtolerance="10"
     guidetolerance="10"
     inkscape:pageopacity="0"
     inkscape:pageshadow="2"
     inkscape:window-width="657"
     inkscape:window-height="480"
     id="namedview3600"
     showgrid="false"
     inkscape:zoom="2.6700352"
     inkscape:cx="-3.8533055"
     inkscape:cy="23.251068"
     inkscape:window-x="0"
     inkscape:window-y="27"
     inkscape:window-maximized="0"
     inkscape:current-layer="Layer_1" /><path
     clip-rule="evenodd"
     d="m 12.037774,5.0492331 c 1.582671,-1.4135618 2.905197,-3.0897355 4.558187,-4.43229205 2.194756,0 4.389421,0 6.584085,0 0.14064,7.38769415 0.14064,15.37033895 0,22.75812395 C 15.723654,23.318322 8.0424035,23.488599 0.72664353,23.289823 0.77652945,16.041489 0.62307929,7.5006277 0.81103051,0.78741011 2.3042877,0.59051024 4.1579248,0.75747875 5.7913035,0.7021707 6.1982259,0.54474529 6.8595727,0.64428852 7.3951163,0.6169388 9.1584871,1.8763882 10.414532,3.6482891 12.037774,5.0492309 z m 5.655519,-2.2161498 c -1.525983,1.3570501 -2.974495,2.7923483 -4.30495,4.34706 1.076197,0.9021458 1.892334,2.0668968 3.038768,2.8980377 1.322694,0.05666 2.869736,-0.1134501 4.051706,0.08524 -0.547303,0.612254 -1.071933,1.247348 -1.772571,1.704727 -0.92328,0.01523 -2.219387,-0.02132 -2.870086,0 C 14.383306,10.834915 13.476903,9.2499444 11.953304,8.2882171 10.778492,9.3465166 9.7516465,10.554147 8.5768352,11.612439 8.0766685,11.1231 7.5014905,10.709444 7.1418797,10.078181 8.2322204,8.90618 9.3576868,7.7697231 10.518348,6.6687276 9.3721727,5.382675 8.2818318,4.0402022 6.8886432,3.0035628 c -0.7767617,0.011272 -3.1032085,-0.042803 -3.8829481,0 -0.1968086,5.8530136 -0.028332,12.0750132 -0.084471,18.0701202 5.8244603,0.198683 12.0145019,0.02856 17.9796859,0.08523 0.140815,-5.910204 0.140296,-12.4155383 0,-18.3258327 -1.069122,0 -2.138328,0 -3.207618,0 z M 8.4924484,12.03862 c -1.0661367,-0.03603 -1.8770797,0.0768 -2.7856081,0 -0.8982239,0.542017 -1.5710787,1.31162 -2.1946724,2.130909 1.0385206,0.03831 2.6630417,-0.02673 3.9673349,0 1.5819012,1.414415 2.9063842,3.088548 4.5582712,4.432293 1.581475,-1.840934 3.526574,-3.314754 4.98028,-5.284652 -0.351942,-0.440167 -0.792275,-0.79108 -1.181803,-1.193311 -1.4936,0.878361 -2.384237,2.365647 -3.798477,3.324221 C 10.79281,14.375462 9.8078155,13.040232 8.4924484,12.03862 z"
     id="path3598"
     inkscape:connector-curvature="0"
     style="fill-rule:evenodd" /></svg>