<?xml version="1.0" encoding="UTF-8" standalone="no"?>
<!-- Generator: Adobe Illustrator 15.1.0, SVG Export Plug-In . SVG Version: 6.00 Build 0)  -->

<svg
   xmlns:dc="http://purl.org/dc/elements/1.1/"
   xmlns:cc="http://creativecommons.org/ns#"
   xmlns:rdf="http://www.w3.org/1999/02/22-rdf-syntax-ns#"
   xmlns:svg="http://www.w3.org/2000/svg"
   xmlns="http://www.w3.org/2000/svg"
   xmlns:sodipodi="http://sodipodi.sourceforge.net/DTD/sodipodi-0.dtd"
   xmlns:inkscape="http://www.inkscape.org/namespaces/inkscape"
   version="1.1"
   id="Layer_1"
   x="0px"
   y="0px"
   width="24"
   height="24"
   viewBox="0 0 24 24"
   enable-background="new 0 0 612 792"
   xml:space="preserve"
   inkscape:version="0.48.5 r10040"
   sodipodi:docname="Bank Saderat.svg"><metadata
     id="metadata3283"><rdf:RDF><cc:Work
         rdf:about=""><dc:format>image/svg+xml</dc:format><dc:type
           rdf:resource="http://purl.org/dc/dcmitype/StillImage" /><dc:title></dc:title></cc:Work></rdf:RDF></metadata><defs
     id="defs3281" /><sodipodi:namedview
     pagecolor="#ffffff"
     bordercolor="#666666"
     borderopacity="1"
     objecttolerance="10"
     gridtolerance="10"
     guidetolerance="10"
     inkscape:pageopacity="0"
     inkscape:pageshadow="2"
     inkscape:window-width="1920"
     inkscape:window-height="942"
     id="namedview3279"
     showgrid="false"
     inkscape:zoom="4.7676768"
     inkscape:cx="-33.854676"
     inkscape:cy="24.83688"
     inkscape:window-x="0"
     inkscape:window-y="27"
     inkscape:window-maximized="1"
     inkscape:current-layer="Layer_1" /><path
     clip-rule="evenodd"
     d="m 15.132915,14.022259 v 7.671499 l 6.265628,-3.4e-5 V 6.35426 c 0,-0.3183061 -0.176621,-1.0152477 -0.379182,-1.2823177 -0.80627,-1.062986 -3.943412,-5.14920397 -10.381518,-0.813165 0,0 4.495072,-1.498355 4.495072,2.0431605 V 10.023403 C 14.472709,8.9910781 13.316253,8.3066962 12.000017,8.3066962 c -1.316236,0 -2.4727263,0.6843476 -3.1329325,1.7167068 V 2.3517703 H 2.6014572 c 0,5.1350089 0.0047,10.3434897 0.0047,15.4784647 0,0.169422 0.08216,0.599567 0.158728,0.749297 0.519948,0.661056 3.7494416,5.749382 10.5972858,1.207352 0,0 -4.4950721,1.498256 -4.4950721,-2.043126 v -3.721499 c 0.6602062,1.032294 1.8166281,1.716706 3.1329321,1.716706 1.316237,0 2.472693,-0.684412 3.132899,-1.716706 z"
     id="path3277"
     inkscape:connector-curvature="0"
     style="fill:#010202;fill-rule:evenodd" /></svg>