<?xml version="1.0" encoding="UTF-8" standalone="yes"?>
<svg xmlns="http://www.w3.org/2000/svg" xmlns:xlink="http://www.w3.org/1999/xlink" width="24px" height="24px" viewBox="0 0 18 18" version="1.1">
  <g id="surface1">
    <path style=" stroke:none;fill-rule:nonzero;fill:rgb(0%,0%,0%);fill-opacity:1;" d="M 5.3125 12.996094 C 5.3125 13.648438 4.78125 14.175781 4.128906 14.175781 C 3.480469 14.175781 2.949219 13.648438 2.949219 12.996094 C 2.949219 12.34375 3.480469 11.816406 4.128906 11.816406 C 4.78125 11.816406 5.3125 12.34375 5.3125 12.996094 Z M 5.3125 12.996094 "/>
    <path style=" stroke:none;fill-rule:nonzero;fill:rgb(0%,0%,0%);fill-opacity:1;" d="M 16.53125 12.996094 C 16.53125 13.648438 16.003906 14.175781 15.351562 14.175781 C 14.699219 14.175781 14.167969 13.648438 14.167969 12.996094 C 14.167969 12.34375 14.699219 11.816406 15.351562 11.816406 C 16.003906 11.816406 16.53125 12.34375 16.53125 12.996094 Z M 16.53125 12.996094 "/>
    <path style=" stroke:none;fill-rule:nonzero;fill:rgb(0%,0%,0%);fill-opacity:1;" d="M 5.941406 3.90625 L 5.941406 12.429688 L 13.992188 12.429688 C 14.203125 11.859375 14.75 11.453125 15.394531 11.453125 C 16.035156 11.453125 16.585938 11.859375 16.796875 12.429688 L 18.085938 12.429688 L 18.085938 3.90625 Z M 14.554688 9.273438 C 13.640625 10.527344 12.171875 10.128906 11.378906 9.625 C 11.515625 9.417969 11.777344 9.179688 11.949219 8.925781 C 12.058594 8.929688 12.496094 8.980469 12.882812 8.941406 C 12.992188 8.929688 13.109375 8.914062 13.214844 8.890625 C 13.320312 8.871094 13.417969 8.84375 13.496094 8.808594 C 13.535156 8.792969 13.570312 8.777344 13.601562 8.757812 C 13.628906 8.738281 13.65625 8.726562 13.671875 8.707031 C 13.710938 8.671875 13.730469 8.652344 13.730469 8.652344 C 13.730469 8.652344 13.707031 8.667969 13.667969 8.699219 C 13.652344 8.714844 13.621094 8.722656 13.589844 8.738281 C 13.5625 8.757812 13.523438 8.765625 13.484375 8.777344 C 13.402344 8.800781 13.304688 8.816406 13.203125 8.824219 C 13.101562 8.835938 12.988281 8.835938 12.875 8.835938 C 12.652344 8.832031 12.429688 8.808594 12.265625 8.785156 C 12.210938 8.777344 12.125 8.761719 12.085938 8.757812 C 12.238281 8.535156 12.433594 8.316406 12.585938 8.09375 C 12.679688 8.101562 13.019531 8.113281 13.359375 8.082031 C 13.460938 8.070312 13.558594 8.058594 13.652344 8.039062 C 13.742188 8.019531 13.828125 7.996094 13.894531 7.964844 C 13.929688 7.949219 13.960938 7.9375 13.988281 7.917969 C 14.011719 7.902344 14.035156 7.890625 14.050781 7.875 C 14.082031 7.84375 14.101562 7.828125 14.101562 7.828125 C 14.101562 7.828125 14.082031 7.84375 14.046875 7.867188 C 14.03125 7.882812 14.003906 7.890625 13.980469 7.902344 C 13.953125 7.917969 13.921875 7.925781 13.886719 7.9375 C 13.816406 7.957031 13.730469 7.972656 13.640625 7.980469 C 13.550781 7.988281 13.453125 7.988281 13.355469 7.988281 C 13.160156 7.984375 12.96875 7.960938 12.824219 7.941406 C 12.777344 7.9375 12.734375 7.929688 12.703125 7.925781 C 12.867188 7.683594 13.027344 7.453125 13.167969 7.242188 L 13.167969 7.257812 C 13.167969 7.257812 13.476562 7.28125 13.785156 7.25 C 13.863281 7.242188 13.941406 7.230469 14.011719 7.214844 C 14.082031 7.199219 14.148438 7.183594 14.199219 7.160156 C 14.226562 7.148438 14.253906 7.136719 14.273438 7.125 C 14.292969 7.109375 14.308594 7.101562 14.320312 7.089844 C 14.347656 7.066406 14.359375 7.054688 14.359375 7.054688 C 14.359375 7.054688 14.34375 7.066406 14.316406 7.085938 C 14.304688 7.097656 14.285156 7.101562 14.265625 7.113281 C 14.246094 7.125 14.21875 7.128906 14.195312 7.136719 C 14.140625 7.152344 14.074219 7.164062 14.003906 7.171875 C 13.933594 7.175781 13.859375 7.179688 13.78125 7.175781 C 13.632812 7.171875 13.480469 7.15625 13.371094 7.144531 C 13.320312 7.136719 13.28125 7.128906 13.25 7.125 C 13.777344 6.351562 14.03125 5.96875 13.382812 6.859375 C 13.320312 6.945312 13.183594 7.128906 13.183594 7.128906 C 13.183594 7.128906 13.179688 7.128906 13.179688 7.132812 C 13.160156 7.109375 13.128906 7.074219 13.085938 7.023438 C 13.023438 6.941406 12.9375 6.835938 12.863281 6.71875 C 12.828125 6.664062 12.792969 6.605469 12.761719 6.546875 C 12.734375 6.488281 12.710938 6.433594 12.699219 6.386719 C 12.691406 6.359375 12.683594 6.339844 12.683594 6.316406 C 12.679688 6.296875 12.675781 6.277344 12.679688 6.265625 C 12.683594 6.234375 12.683594 6.21875 12.683594 6.21875 C 12.683594 6.21875 12.679688 6.234375 12.675781 6.261719 C 12.667969 6.277344 12.671875 6.296875 12.671875 6.320312 C 12.667969 6.339844 12.671875 6.363281 12.679688 6.390625 C 12.683594 6.441406 12.703125 6.5 12.722656 6.5625 C 12.746094 6.625 12.777344 6.691406 12.804688 6.753906 C 12.929688 7.003906 13.09375 7.234375 13.09375 7.234375 L 13.113281 7.21875 C 12.914062 7.480469 12.714844 7.730469 12.519531 7.96875 C 12.496094 7.941406 12.457031 7.894531 12.402344 7.832031 C 12.320312 7.730469 12.214844 7.597656 12.125 7.453125 C 12.078125 7.382812 12.035156 7.308594 11.996094 7.238281 C 11.964844 7.164062 11.933594 7.097656 11.917969 7.035156 C 11.90625 7.003906 11.898438 6.976562 11.898438 6.949219 C 11.898438 6.925781 11.890625 6.902344 11.894531 6.882812 C 11.898438 6.847656 11.898438 6.824219 11.898438 6.824219 C 11.898438 6.824219 11.894531 6.84375 11.886719 6.882812 C 11.878906 6.902344 11.882812 6.925781 11.882812 6.949219 C 11.882812 6.980469 11.886719 7.007812 11.890625 7.042969 C 11.898438 7.105469 11.921875 7.179688 11.949219 7.257812 C 11.976562 7.335938 12.015625 7.414062 12.050781 7.492188 C 12.207031 7.808594 12.414062 8.09375 12.414062 8.09375 L 12.417969 8.09375 C 12.234375 8.3125 12.050781 8.519531 11.878906 8.714844 C 11.847656 8.679688 11.792969 8.617188 11.71875 8.527344 C 11.613281 8.398438 11.476562 8.222656 11.355469 8.035156 C 11.296875 7.941406 11.238281 7.84375 11.191406 7.753906 C 11.144531 7.660156 11.105469 7.570312 11.085938 7.488281 C 11.074219 7.449219 11.0625 7.410156 11.0625 7.378906 C 11.058594 7.34375 11.050781 7.3125 11.054688 7.289062 C 11.058594 7.242188 11.0625 7.214844 11.0625 7.214844 C 11.0625 7.214844 11.054688 7.242188 11.046875 7.289062 C 11.039062 7.3125 11.042969 7.34375 11.042969 7.378906 C 11.039062 7.414062 11.046875 7.453125 11.054688 7.496094 C 11.066406 7.582031 11.09375 7.679688 11.128906 7.777344 C 11.167969 7.878906 11.214844 7.984375 11.261719 8.085938 C 11.464844 8.496094 11.730469 8.867188 11.734375 8.871094 C 11.558594 9.0625 9.863281 10.875 9.863281 10.875 L 9.171875 10.566406 C 9.289062 10.476562 9.253906 10.882812 10.960938 9.289062 C 10.398438 8.667969 9.96875 7.539062 10.726562 6.492188 C 11.710938 5.132812 14.457031 5.019531 14.519531 4.484375 C 14.589844 3.949219 15.539062 7.914062 14.554688 9.273438 Z M 14.554688 9.273438 "/>
    <path style=" stroke:none;fill-rule:nonzero;fill:rgb(0%,0%,0%);fill-opacity:1;" d="M 0.191406 8.808594 L 0.191406 11.148438 L 2.160156 11.148438 L 2.773438 11.363281 L 2.773438 11.417969 L 5.355469 11.417969 L 5.355469 6.464844 L 1.628906 6.464844 Z M 4.664062 6.886719 L 4.664062 8.628906 L 1.058594 8.628906 L 2.066406 6.886719 Z M 4.664062 6.886719 "/>
    <path style=" stroke:none;fill-rule:nonzero;fill:rgb(0%,0%,0%);fill-opacity:1;" d="M 0 11.308594 L 0 12.277344 L 2.769531 12.277344 L 2.773438 12.273438 L 2.773438 11.578125 L 2.046875 11.308594 Z M 0 11.308594 "/>
  </g>
</svg>