<?xml version="1.0" encoding="UTF-8" standalone="yes"?>
<svg xmlns="http://www.w3.org/2000/svg" xmlns:xlink="http://www.w3.org/1999/xlink" width="24px" height="24px" viewBox="0 0 18 18" version="1.1">
  <g id="surface1">
    <path style=" stroke:none;fill-rule:nonzero;fill:rgb(0%,0%,0%);fill-opacity:1;" d="M 14.742188 6.71875 L 14.742188 6.152344 L 16.835938 6.054688 L 16.835938 5.003906 L 14.742188 4.90625 L 14.742188 4.46875 L 13.101562 4.46875 L 13.101562 2.546875 C 13.101562 2.113281 12.75 1.757812 12.3125 1.757812 L 5.6875 1.757812 C 5.25 1.757812 4.894531 2.109375 4.894531 2.546875 L 4.894531 4.46875 L 3.257812 4.46875 L 3.257812 4.90625 L 1.164062 5.003906 L 1.164062 6.054688 L 3.257812 6.152344 L 3.257812 6.71875 L 4.894531 6.71875 L 4.894531 7.941406 L 3.257812 7.941406 L 3.257812 8.375 L 1.164062 8.472656 L 1.164062 9.527344 L 3.257812 9.625 L 3.257812 10.191406 L 4.894531 10.191406 L 4.894531 11.542969 L 3.257812 11.542969 L 3.257812 11.980469 L 1.164062 12.078125 L 1.164062 13.128906 L 3.257812 13.226562 L 3.257812 13.792969 L 4.894531 13.792969 L 4.894531 15.453125 C 4.894531 15.890625 5.25 16.242188 5.6875 16.242188 L 12.3125 16.242188 C 12.75 16.242188 13.101562 15.890625 13.101562 15.453125 L 13.101562 13.792969 L 14.742188 13.792969 L 14.742188 13.226562 L 16.835938 13.128906 L 16.835938 12.078125 L 14.742188 11.980469 L 14.742188 11.542969 L 13.101562 11.542969 L 13.101562 10.191406 L 14.742188 10.191406 L 14.742188 9.625 L 16.835938 9.527344 L 16.835938 8.472656 L 14.742188 8.375 L 14.742188 7.941406 L 13.101562 7.941406 L 13.101562 6.71875 Z M 13.167969 4.886719 L 14.324219 4.886719 L 14.324219 5.304688 L 16.421875 5.402344 L 16.421875 5.660156 L 14.324219 5.757812 L 14.324219 6.304688 L 13.167969 6.304688 Z M 4.832031 6.304688 L 3.671875 6.304688 L 3.671875 5.757812 L 1.578125 5.660156 L 1.578125 5.402344 L 3.671875 5.304688 L 3.671875 4.886719 L 4.832031 4.886719 Z M 4.832031 9.773438 L 3.671875 9.773438 L 3.671875 9.226562 L 1.578125 9.128906 L 1.578125 8.871094 L 3.671875 8.773438 L 3.671875 8.355469 L 4.832031 8.355469 Z M 4.832031 13.375 L 3.671875 13.375 L 3.671875 12.828125 L 1.578125 12.730469 L 1.578125 12.472656 L 3.671875 12.375 L 3.671875 11.957031 L 4.832031 11.957031 Z M 6.347656 3.816406 C 6.066406 3.816406 5.835938 3.585938 5.835938 3.304688 C 5.835938 3.019531 6.066406 2.789062 6.347656 2.789062 C 6.632812 2.789062 6.863281 3.019531 6.863281 3.304688 C 6.863281 3.585938 6.632812 3.816406 6.347656 3.816406 Z M 13.167969 11.957031 L 14.324219 11.957031 L 14.324219 12.375 L 16.421875 12.472656 L 16.421875 12.730469 L 14.324219 12.828125 L 14.324219 13.375 L 13.167969 13.375 Z M 13.167969 8.355469 L 14.324219 8.355469 L 14.324219 8.773438 L 16.421875 8.871094 L 16.421875 9.128906 L 14.324219 9.226562 L 14.324219 9.773438 L 13.167969 9.773438 Z M 13.167969 8.355469 "/>
  </g>
</svg>