<?xml version="1.0" encoding="utf-8"?>
<!-- Generator: Adobe Illustrator 15.1.0, SVG Export Plug-In . SVG Version: 6.00 Build 0)  -->
<!DOCTYPE svg PUBLIC "-//W3C//DTD SVG 1.1//EN" "http://www.w3.org/Graphics/SVG/1.1/DTD/svg11.dtd">
<svg version="1.1"
	 id="Layer_1" inkscape:version="0.48.5 r10040" sodipodi:docname="bank-kar-afarin.svg" xmlns:dc="http://purl.org/dc/elements/1.1/" xmlns:cc="http://creativecommons.org/ns#" xmlns:rdf="http://www.w3.org/1999/02/22-rdf-syntax-ns#" xmlns:svg="http://www.w3.org/2000/svg" xmlns:sodipodi="http://sodipodi.sourceforge.net/DTD/sodipodi-0.dtd" xmlns:inkscape="http://www.inkscape.org/namespaces/inkscape"
	 xmlns="http://www.w3.org/2000/svg" xmlns:xlink="http://www.w3.org/1999/xlink" x="0px" y="0px" width="24px" height="24px"
	 viewBox="0 0 24 24" enable-background="new 0 0 24 24" xml:space="preserve">
<path fill="#333333" d="M6.024,2.754c1.618,0,2.929,1.436,2.929,3.207S7.642,9.168,6.024,9.168S3.095,7.732,3.095,5.961
	S4.407,2.754,6.024,2.754z M17.011,4.357c0.403,0,0.731,0.359,0.731,0.801c0,0.443-0.328,0.803-0.731,0.803
	c-0.405,0-0.733-0.36-0.733-0.803C16.277,4.716,16.605,4.357,17.011,4.357z M12.878,14.354l-2.487-4.007
	c-0.355-0.392-2.065-0.378-2.333-0.378l-2.045,8.817L3.967,9.969c-0.175,0-0.975-0.003-1.604,0.104v11.092h7.742V14.47l1.945,2.611
	c0.229,0.252,0.528,0.376,0.83,0.376c0.301,0,0.601-0.124,0.83-0.376l2.529-3.8c0.456-0.503,2.97-0.856,2.97-1.71h-4.395
	L12.878,14.354z M21.037,9.168h-0.439c-0.34-1.831-1.817-3.208-3.587-3.208c-1.773,0-3.249,1.377-3.59,3.208h-0.44
	c-0.2,0-0.365,0.178-0.365,0.4c0,0.22,0,0.58,0,0.802c0,0.221,0.163,0.4,0.365,0.4h8.057c0.201,0,0.366-0.179,0.366-0.4
	c0-0.222,0-0.58,0-0.802C21.403,9.347,21.238,9.168,21.037,9.168z"/>
</svg>
