<?xml version="1.0" encoding="UTF-8" standalone="yes"?>
<svg xmlns="http://www.w3.org/2000/svg" xmlns:xlink="http://www.w3.org/1999/xlink" width="24px" height="24px" viewBox="0 0 18 18" version="1.1">
  <g id="surface1">
    <path style=" stroke:none;fill-rule:nonzero;fill:rgb(0.392157%,0%,0.784314%);fill-opacity:1;" d="M 16.855469 7.585938 C 16.222656 7.585938 15.707031 8.101562 15.707031 8.730469 L 15.707031 9.070312 L 14.085938 9.070312 L 14.085938 6.757812 C 14.085938 6.554688 14.007812 6.367188 13.863281 6.222656 C 13.722656 6.078125 13.53125 6 13.328125 6 L 6.984375 6 C 6.714844 6 6.464844 6.144531 6.328125 6.378906 L 4.777344 9.070312 L 4.457031 9.070312 L 4.457031 8.261719 C 4.457031 7.886719 4.15625 7.585938 3.785156 7.585938 C 3.410156 7.585938 3.109375 7.886719 3.109375 8.261719 L 3.109375 9.070312 L 2.835938 9.070312 L 2.835938 8.261719 C 2.835938 7.886719 2.53125 7.585938 2.160156 7.585938 C 1.789062 7.585938 1.484375 7.886719 1.484375 8.261719 L 1.484375 9.070312 L 1.195312 9.070312 C 0.535156 9.070312 0 9.605469 0 10.265625 C 0 10.921875 0.535156 11.457031 1.195312 11.457031 L 1.484375 11.457031 L 1.484375 12.578125 C 1.484375 12.949219 1.789062 13.253906 2.160156 13.253906 C 2.53125 13.253906 2.835938 12.949219 2.835938 12.578125 L 2.835938 11.457031 L 3.109375 11.457031 L 3.109375 12.578125 C 3.109375 12.949219 3.410156 13.253906 3.785156 13.253906 C 4.15625 13.253906 4.457031 12.949219 4.457031 12.578125 L 4.457031 11.457031 L 4.597656 11.457031 L 6.328125 14.460938 C 6.464844 14.691406 6.714844 14.835938 6.984375 14.835938 L 11.210938 14.835938 C 11.484375 14.835938 11.734375 14.691406 11.867188 14.460938 L 13.601562 11.457031 L 15.707031 11.457031 L 15.707031 12.390625 C 15.707031 13.023438 16.222656 13.535156 16.855469 13.535156 C 17.484375 13.535156 18 13.023438 18 12.390625 L 18 8.730469 C 18 8.101562 17.484375 7.585938 16.855469 7.585938 Z M 9.914062 9.695312 L 11.625 9.699219 L 6.851562 13.027344 L 6.71875 12.867188 L 8.953125 10.632812 L 7.222656 10.632812 L 10.957031 7.8125 L 12.296875 7.8125 Z M 9.914062 9.695312 "/>
    <path style=" stroke:none;fill-rule:nonzero;fill:rgb(0.392157%,0%,0.784314%);fill-opacity:1;" d="M 8.027344 4.675781 L 8.957031 4.675781 L 8.957031 5.25 C 8.957031 5.648438 9.285156 5.972656 9.683594 5.972656 C 10.082031 5.972656 10.40625 5.648438 10.40625 5.25 L 10.40625 4.675781 L 11.339844 4.675781 C 11.753906 4.675781 12.09375 4.335938 12.09375 3.917969 C 12.09375 3.5 11.753906 3.164062 11.339844 3.164062 L 8.027344 3.164062 C 7.609375 3.164062 7.269531 3.5 7.269531 3.917969 C 7.269531 4.335938 7.609375 4.675781 8.027344 4.675781 Z M 8.027344 4.675781 "/>
  </g>
</svg>