<?xml version="1.0" encoding="UTF-8" standalone="yes"?>
<svg xmlns="http://www.w3.org/2000/svg" xmlns:xlink="http://www.w3.org/1999/xlink" width="24px" height="24px" viewBox="0 0 18 18" version="1.1">
  <g id="surface1">
    <path style=" stroke:none;fill-rule:nonzero;fill:rgb(0%,0%,0%);fill-opacity:1;" d="M 16.476562 17.480469 C 16.480469 17.507812 16.484375 17.535156 16.484375 17.566406 C 16.484375 17.804688 16.289062 18 16.046875 18 L 13.414062 18 C 13.292969 18 13.175781 17.949219 13.089844 17.855469 C 13.007812 17.765625 12.96875 17.644531 12.980469 17.519531 L 14.296875 4.722656 C 14.300781 4.695312 14.304688 4.667969 14.3125 4.640625 C 13.625 4.484375 13.082031 3.945312 12.917969 3.257812 L 10.542969 3.257812 L 9.894531 5.554688 C 9.84375 5.742188 9.671875 5.871094 9.476562 5.871094 C 9.476562 5.871094 9.472656 5.871094 9.46875 5.871094 C 9.273438 5.867188 9.101562 5.730469 9.054688 5.542969 L 8.105469 1.773438 L 7.570312 2.996094 C 7.5 3.15625 7.34375 3.257812 7.171875 3.257812 L 5.082031 3.257812 C 4.917969 3.945312 4.375 4.484375 3.6875 4.640625 C 3.695312 4.667969 3.699219 4.695312 3.703125 4.722656 L 5.015625 17.480469 C 5.019531 17.507812 5.023438 17.535156 5.023438 17.566406 C 5.023438 17.804688 4.828125 18 4.585938 18 L 1.953125 18 C 1.832031 18 1.714844 17.949219 1.628906 17.855469 C 1.546875 17.765625 1.507812 17.644531 1.519531 17.519531 L 2.835938 4.722656 C 2.839844 4.695312 2.84375 4.667969 2.851562 4.644531 C 2.023438 4.453125 1.402344 3.710938 1.402344 2.824219 C 1.402344 1.792969 2.238281 0.957031 3.269531 0.957031 C 4.148438 0.957031 4.886719 1.570312 5.082031 2.390625 L 6.886719 2.390625 L 7.816406 0.261719 C 7.890625 0.0898438 8.066406 -0.0117188 8.25 0 C 8.4375 0.015625 8.59375 0.148438 8.636719 0.328125 L 9.5 3.753906 L 9.796875 2.707031 C 9.851562 2.519531 10.023438 2.390625 10.214844 2.390625 L 12.917969 2.390625 C 13.113281 1.570312 13.851562 0.957031 14.730469 0.957031 C 15.761719 0.957031 16.597656 1.792969 16.597656 2.824219 C 16.597656 3.710938 15.976562 4.453125 15.148438 4.644531 C 15.15625 4.667969 15.160156 4.695312 15.164062 4.722656 Z M 16.476562 17.480469 "/>
  </g>
</svg>