<?xml version="1.0" encoding="UTF-8" standalone="yes"?>
<svg xmlns="http://www.w3.org/2000/svg" xmlns:xlink="http://www.w3.org/1999/xlink" width="24px" height="24px" viewBox="0 0 18 18" version="1.1">
  <g id="surface1">
    <path style=" stroke:none;fill-rule:nonzero;fill:rgb(0%,0%,0%);fill-opacity:1;" d="M 14.453125 17.671875 C 14.453125 17.65625 14.453125 17.640625 14.445312 17.628906 L 13.304688 15.007812 L 12.429688 10.6875 L 12.429688 9.226562 C 12.789062 9.347656 13.167969 9.453125 13.570312 9.542969 L 13.570312 9.722656 C 13.570312 9.769531 13.609375 9.8125 13.660156 9.8125 L 14.109375 9.8125 C 14.160156 9.8125 14.199219 9.769531 14.199219 9.722656 L 14.199219 9.351562 L 14.40625 9.351562 C 14.480469 9.351562 14.542969 9.289062 14.542969 9.214844 C 14.542969 9.140625 14.480469 9.082031 14.40625 9.082031 L 14.199219 9.082031 L 14.199219 8.957031 L 14.40625 8.957031 C 14.480469 8.957031 14.542969 8.894531 14.542969 8.820312 C 14.542969 8.746094 14.480469 8.6875 14.40625 8.6875 L 14.199219 8.6875 L 14.199219 8.480469 L 14.613281 8.480469 C 14.664062 8.480469 14.710938 8.445312 14.722656 8.394531 C 14.734375 8.34375 14.710938 8.292969 14.667969 8.269531 L 12.429688 7.058594 L 12.429688 6.335938 C 12.714844 6.402344 13.011719 6.460938 13.324219 6.511719 L 13.324219 6.761719 C 13.324219 6.808594 13.363281 6.851562 13.414062 6.851562 L 13.863281 6.851562 C 13.914062 6.851562 13.953125 6.808594 13.953125 6.761719 L 13.953125 6.390625 L 14.160156 6.390625 C 14.234375 6.390625 14.292969 6.328125 14.292969 6.253906 C 14.292969 6.179688 14.234375 6.117188 14.160156 6.117188 L 13.953125 6.117188 L 13.953125 5.996094 L 14.160156 5.996094 C 14.234375 5.996094 14.292969 5.933594 14.292969 5.859375 C 14.292969 5.785156 14.234375 5.726562 14.160156 5.726562 L 13.953125 5.726562 L 13.953125 5.539062 L 14.207031 5.539062 C 14.257812 5.539062 14.304688 5.503906 14.316406 5.457031 C 14.328125 5.40625 14.308594 5.355469 14.261719 5.328125 L 12.429688 4.292969 L 12.429688 4.171875 C 12.429688 4.148438 12.425781 4.128906 12.410156 4.109375 L 11.597656 2.878906 L 11.597656 2.164062 C 11.597656 2.101562 11.546875 2.050781 11.484375 2.050781 C 11.421875 2.050781 11.371094 2.101562 11.371094 2.164062 L 11.371094 2.878906 L 10.558594 4.109375 C 10.546875 4.128906 10.539062 4.148438 10.539062 4.171875 L 10.539062 4.273438 L 9.324219 4.972656 C 8.164062 4.253906 7.605469 3.511719 7.410156 3.203125 L 7.410156 3.074219 L 7.554688 3.074219 C 7.609375 3.074219 7.652344 3.03125 7.652344 2.976562 C 7.652344 2.925781 7.609375 2.882812 7.554688 2.882812 L 7.410156 2.882812 L 7.410156 2.792969 L 7.554688 2.792969 C 7.609375 2.792969 7.652344 2.75 7.652344 2.699219 C 7.652344 2.644531 7.609375 2.601562 7.554688 2.601562 L 7.410156 2.601562 L 7.410156 2.472656 L 7.589844 2.472656 C 7.625 2.472656 7.65625 2.449219 7.667969 2.414062 C 7.675781 2.378906 7.660156 2.339844 7.628906 2.324219 L 6.332031 1.589844 L 6.332031 1.503906 C 6.332031 1.488281 6.328125 1.472656 6.316406 1.460938 L 5.742188 0.585938 L 5.742188 0.078125 C 5.742188 0.0351562 5.707031 0 5.660156 0 C 5.617188 0 5.582031 0.0351562 5.582031 0.078125 L 5.582031 0.585938 L 5.003906 1.460938 C 4.996094 1.472656 4.992188 1.488281 4.992188 1.503906 L 4.992188 1.574219 L 3.6875 2.324219 C 3.65625 2.339844 3.640625 2.378906 3.652344 2.414062 C 3.660156 2.449219 3.691406 2.472656 3.730469 2.472656 L 3.992188 2.472656 L 3.992188 2.601562 L 3.867188 2.601562 C 3.816406 2.601562 3.773438 2.644531 3.773438 2.699219 C 3.773438 2.75 3.816406 2.792969 3.867188 2.792969 L 3.992188 2.792969 L 3.992188 2.882812 L 3.867188 2.882812 C 3.816406 2.882812 3.773438 2.925781 3.773438 2.976562 C 3.773438 3.03125 3.816406 3.074219 3.867188 3.074219 L 3.992188 3.074219 L 3.992188 3.335938 C 3.992188 3.371094 4.023438 3.398438 4.058594 3.398438 L 4.269531 3.398438 C 4.3125 3.515625 4.378906 3.65625 4.472656 3.816406 L 3.402344 4.402344 C 3.371094 4.421875 3.355469 4.457031 3.363281 4.492188 C 3.375 4.527344 3.40625 4.554688 3.441406 4.554688 L 3.753906 4.554688 L 3.753906 4.714844 L 3.628906 4.714844 C 3.578125 4.714844 3.535156 4.757812 3.535156 4.8125 C 3.535156 4.863281 3.578125 4.90625 3.628906 4.90625 L 3.753906 4.90625 L 3.753906 4.996094 L 3.628906 4.996094 C 3.578125 4.996094 3.535156 5.039062 3.535156 5.089844 C 3.535156 5.144531 3.578125 5.1875 3.628906 5.1875 L 3.753906 5.1875 L 3.753906 5.449219 C 3.753906 5.484375 3.785156 5.511719 3.820312 5.511719 L 3.960938 5.511719 C 4.019531 5.832031 4.203125 6.503906 4.734375 7.230469 L 4.277344 9.175781 L 3.46875 11.03125 C 3.464844 11.042969 3.464844 11.054688 3.464844 11.066406 L 3.238281 11.066406 L 3.238281 11.296875 L 4.433594 11.296875 L 4.433594 11.066406 L 4.148438 11.066406 L 5.402344 9.28125 L 5.828125 9.28125 L 7.0625 11.066406 L 6.789062 11.066406 L 6.789062 11.296875 L 7.984375 11.296875 L 7.984375 11.066406 L 7.765625 11.066406 C 7.765625 11.054688 7.761719 11.042969 7.757812 11.03125 L 6.949219 9.175781 L 6.90625 8.960938 C 7.433594 9.210938 8.058594 9.421875 8.792969 9.574219 L 8.792969 9.742188 C 8.792969 9.792969 8.832031 9.835938 8.882812 9.835938 L 9.332031 9.835938 C 9.382812 9.835938 9.421875 9.792969 9.421875 9.742188 L 9.421875 9.371094 L 9.628906 9.371094 C 9.703125 9.371094 9.765625 9.3125 9.765625 9.238281 C 9.765625 9.164062 9.703125 9.101562 9.628906 9.101562 L 9.421875 9.101562 L 9.421875 8.980469 L 9.628906 8.980469 C 9.703125 8.980469 9.765625 8.917969 9.765625 8.84375 C 9.765625 8.769531 9.703125 8.707031 9.628906 8.707031 L 9.421875 8.707031 L 9.421875 8.480469 L 10.539062 8.480469 L 10.539062 10.683594 L 9.53125 15.003906 L 8.390625 17.628906 C 8.382812 17.640625 8.382812 17.65625 8.382812 17.671875 L 8.066406 17.671875 L 8.066406 18.003906 L 9.753906 18.003906 L 9.753906 17.671875 L 9.351562 17.671875 L 11.117188 15.152344 L 11.71875 15.152344 L 13.464844 17.671875 L 13.074219 17.671875 L 13.074219 18.003906 L 14.761719 18.003906 L 14.761719 17.671875 Z M 13.058594 14.925781 L 13.03125 14.925781 L 11.621094 14.261719 L 12.816406 13.722656 Z M 8.910156 6.253906 C 8.910156 6.230469 8.929688 6.207031 8.953125 6.207031 L 9.96875 6.207031 C 9.992188 6.207031 10.011719 6.230469 10.011719 6.253906 C 10.011719 6.277344 9.992188 6.296875 9.96875 6.296875 L 8.953125 6.296875 C 8.929688 6.296875 8.910156 6.277344 8.910156 6.253906 Z M 9.128906 6.5 L 9.128906 6.761719 C 9.128906 6.808594 9.171875 6.851562 9.21875 6.851562 L 9.671875 6.851562 C 9.71875 6.851562 9.761719 6.808594 9.761719 6.761719 L 9.761719 6.390625 L 9.964844 6.390625 C 10.042969 6.390625 10.101562 6.328125 10.101562 6.253906 C 10.101562 6.179688 10.042969 6.117188 9.964844 6.117188 L 9.761719 6.117188 L 9.761719 5.996094 L 9.964844 5.996094 C 10.042969 5.996094 10.101562 5.933594 10.101562 5.859375 C 10.101562 5.785156 10.042969 5.726562 9.964844 5.726562 L 9.761719 5.726562 L 9.761719 5.539062 L 10.097656 5.539062 C 10.238281 5.605469 10.386719 5.671875 10.539062 5.738281 L 10.539062 7.039062 L 9.558594 7.574219 C 8.949219 7.113281 8.484375 6.644531 8.152344 6.253906 C 8.453125 6.34375 8.78125 6.425781 9.128906 6.5 Z M 8.953125 5.90625 C 8.929688 5.90625 8.910156 5.882812 8.910156 5.859375 C 8.910156 5.835938 8.929688 5.816406 8.953125 5.816406 L 9.96875 5.816406 C 9.992188 5.816406 10.011719 5.835938 10.011719 5.859375 C 10.011719 5.882812 9.992188 5.90625 9.96875 5.90625 Z M 9.179688 5.316406 L 9.414062 5.179688 C 9.492188 5.222656 9.574219 5.269531 9.65625 5.316406 Z M 10.539062 5.597656 C 10.496094 5.578125 10.453125 5.558594 10.410156 5.539062 L 10.539062 5.539062 Z M 11.109375 8.683594 C 11.296875 8.777344 11.488281 8.863281 11.691406 8.949219 L 11.492188 9.234375 Z M 12.160156 10.515625 C 12.171875 10.53125 12.1875 10.542969 12.207031 10.546875 L 12.207031 10.585938 L 10.765625 10.585938 L 10.765625 10.570312 C 10.78125 10.5625 10.796875 10.554688 10.804688 10.539062 L 11.492188 9.550781 Z M 10.992188 8.480469 L 12.015625 8.480469 L 11.765625 8.839844 C 11.492188 8.726562 11.234375 8.605469 10.992188 8.480469 Z M 12.207031 8.523438 L 12.207031 9.011719 C 12.113281 8.976562 12.023438 8.945312 11.9375 8.910156 Z M 12.207031 7.921875 L 11.589844 7.132812 L 12.207031 6.34375 Z M 12.203125 8.210938 L 12.171875 8.253906 L 10.8125 8.253906 L 10.765625 8.1875 L 11.476562 7.28125 Z M 10.765625 7.894531 L 10.765625 6.371094 L 11.359375 7.132812 Z M 10.765625 5.828125 C 10.769531 5.832031 10.773438 5.832031 10.773438 5.832031 L 10.765625 5.84375 Z M 10.539062 7.292969 L 10.539062 8.230469 C 10.257812 8.066406 10 7.894531 9.757812 7.722656 Z M 10.765625 8.507812 L 11.382812 9.394531 L 10.765625 10.28125 Z M 10.742188 10.808594 L 12.226562 10.808594 L 12.324219 11.300781 L 10.628906 11.300781 Z M 12.050781 11.480469 L 11.46875 11.769531 L 10.878906 11.480469 Z M 11.46875 11.96875 L 12.457031 12.457031 L 11.460938 12.875 L 10.488281 12.460938 Z M 12.675781 13.589844 L 11.40625 14.160156 L 10.203125 13.589844 L 11.457031 13.070312 Z M 12.753906 13.425781 L 11.691406 12.972656 L 12.585938 12.597656 Z M 12.523438 12.292969 L 11.671875 11.871094 L 12.371094 11.523438 Z M 12.207031 10.265625 L 11.601562 9.394531 L 11.859375 9.019531 C 11.972656 9.0625 12.089844 9.109375 12.207031 9.148438 Z M 12.429688 9.089844 L 12.429688 8.480469 L 13.570312 8.480469 L 13.570312 8.6875 L 13.394531 8.6875 C 13.320312 8.6875 13.257812 8.746094 13.257812 8.820312 C 13.257812 8.894531 13.320312 8.957031 13.394531 8.957031 L 13.570312 8.957031 L 13.570312 9.082031 L 13.394531 9.082031 C 13.320312 9.082031 13.257812 9.140625 13.257812 9.214844 C 13.257812 9.289062 13.320312 9.351562 13.394531 9.351562 L 13.570312 9.351562 L 13.570312 9.410156 C 13.167969 9.320312 12.789062 9.210938 12.429688 9.089844 Z M 14.40625 9.171875 C 14.433594 9.171875 14.453125 9.191406 14.453125 9.214844 C 14.453125 9.238281 14.433594 9.261719 14.40625 9.261719 L 13.394531 9.261719 C 13.371094 9.261719 13.347656 9.238281 13.347656 9.214844 C 13.347656 9.191406 13.371094 9.171875 13.394531 9.171875 Z M 14.40625 8.777344 C 14.433594 8.777344 14.453125 8.796875 14.453125 8.820312 C 14.453125 8.847656 14.433594 8.867188 14.40625 8.867188 L 13.394531 8.867188 C 13.371094 8.867188 13.347656 8.847656 13.347656 8.820312 C 13.347656 8.796875 13.371094 8.777344 13.394531 8.777344 Z M 14.167969 8.253906 L 12.429688 8.253906 L 12.429688 7.316406 Z M 11.476562 6.988281 L 10.769531 6.085938 L 10.960938 5.902344 C 11.296875 6.027344 11.664062 6.140625 12.054688 6.246094 Z M 12.207031 5.824219 L 11.910156 5.539062 L 12.207031 5.539062 Z M 12.207031 5.316406 L 11.671875 5.316406 L 11.625 5.269531 L 12.207031 4.714844 Z M 11.496094 5.144531 L 10.792969 4.472656 L 12.199219 4.472656 Z M 11.648438 5.539062 L 12.195312 6.0625 L 12.144531 6.132812 C 11.757812 6.035156 11.398438 5.921875 11.066406 5.804688 L 11.34375 5.539062 Z M 14.160156 6.207031 C 14.183594 6.207031 14.203125 6.230469 14.203125 6.253906 C 14.203125 6.277344 14.183594 6.296875 14.160156 6.296875 L 13.148438 6.296875 C 13.121094 6.296875 13.101562 6.277344 13.101562 6.253906 C 13.101562 6.230469 13.121094 6.207031 13.148438 6.207031 Z M 14.160156 5.816406 C 14.183594 5.816406 14.203125 5.835938 14.203125 5.859375 C 14.203125 5.882812 14.183594 5.90625 14.160156 5.90625 L 13.148438 5.90625 C 13.121094 5.90625 13.101562 5.882812 13.101562 5.859375 C 13.101562 5.835938 13.121094 5.816406 13.148438 5.816406 Z M 12.429688 4.550781 L 13.78125 5.316406 L 12.429688 5.316406 Z M 13.324219 5.539062 L 13.324219 5.726562 L 13.148438 5.726562 C 13.074219 5.726562 13.011719 5.785156 13.011719 5.859375 C 13.011719 5.933594 13.074219 5.996094 13.148438 5.996094 L 13.324219 5.996094 L 13.324219 6.117188 L 13.148438 6.117188 C 13.074219 6.117188 13.011719 6.179688 13.011719 6.253906 C 13.011719 6.28125 13.023438 6.308594 13.039062 6.332031 C 12.828125 6.292969 12.625 6.25 12.429688 6.203125 L 12.429688 5.539062 Z M 10.765625 4.207031 L 11.484375 3.117188 L 12.207031 4.207031 L 12.207031 4.289062 C 12.203125 4.289062 12.203125 4.289062 12.203125 4.292969 L 10.773438 4.292969 C 10.773438 4.285156 10.769531 4.277344 10.769531 4.273438 C 10.765625 4.273438 10.765625 4.269531 10.765625 4.269531 Z M 10.765625 4.695312 L 11.363281 5.269531 L 11.316406 5.316406 L 10.765625 5.316406 Z M 11.082031 5.539062 L 10.878906 5.734375 C 10.839844 5.71875 10.804688 5.703125 10.765625 5.6875 L 10.765625 5.539062 Z M 10.539062 4.53125 L 10.539062 5.316406 L 9.933594 5.316406 C 9.796875 5.246094 9.667969 5.175781 9.546875 5.105469 Z M 7.554688 2.945312 C 7.574219 2.945312 7.585938 2.960938 7.585938 2.976562 C 7.585938 2.996094 7.574219 3.007812 7.554688 3.007812 L 6.839844 3.007812 C 6.820312 3.007812 6.804688 2.996094 6.804688 2.976562 C 6.804688 2.960938 6.820312 2.945312 6.839844 2.945312 Z M 7.554688 2.667969 C 7.574219 2.667969 7.585938 2.679688 7.585938 2.699219 C 7.585938 2.714844 7.574219 2.730469 7.554688 2.730469 L 6.839844 2.730469 C 6.820312 2.730469 6.804688 2.714844 6.804688 2.699219 C 6.804688 2.679688 6.820312 2.667969 6.839844 2.667969 Z M 6.332031 1.773438 L 7.289062 2.3125 L 6.332031 2.3125 Z M 6.332031 2.472656 L 6.964844 2.472656 L 6.964844 2.601562 L 6.839844 2.601562 C 6.785156 2.601562 6.742188 2.644531 6.742188 2.699219 C 6.742188 2.75 6.785156 2.792969 6.839844 2.792969 L 6.964844 2.792969 L 6.964844 2.882812 L 6.839844 2.882812 C 6.785156 2.882812 6.742188 2.925781 6.742188 2.976562 C 6.742188 3.03125 6.785156 3.074219 6.839844 3.074219 L 6.964844 3.074219 L 6.964844 3.335938 C 6.964844 3.371094 6.992188 3.398438 7.027344 3.398438 L 7.347656 3.398438 C 7.359375 3.398438 7.367188 3.394531 7.378906 3.390625 C 7.628906 3.75 8.179688 4.40625 9.195312 5.046875 L 8.699219 5.328125 C 8.65625 5.355469 8.632812 5.40625 8.648438 5.457031 C 8.660156 5.503906 8.707031 5.539062 8.757812 5.539062 L 9.132812 5.539062 L 9.132812 5.726562 L 8.953125 5.726562 C 8.878906 5.726562 8.820312 5.785156 8.820312 5.859375 C 8.820312 5.933594 8.878906 5.996094 8.953125 5.996094 L 9.132812 5.996094 L 9.132812 6.117188 L 8.953125 6.117188 C 8.878906 6.117188 8.820312 6.179688 8.820312 6.253906 C 8.820312 6.269531 8.824219 6.28125 8.828125 6.296875 C 8.53125 6.226562 8.253906 6.148438 7.996094 6.066406 C 7.796875 5.820312 7.65625 5.617188 7.566406 5.480469 C 7.578125 5.46875 7.585938 5.453125 7.585938 5.433594 L 7.585938 5.171875 L 7.730469 5.171875 C 7.785156 5.171875 7.828125 5.128906 7.828125 5.074219 C 7.828125 5.023438 7.785156 4.980469 7.730469 4.980469 L 7.585938 4.980469 L 7.585938 4.890625 L 7.730469 4.890625 C 7.785156 4.890625 7.828125 4.847656 7.828125 4.796875 C 7.828125 4.742188 7.785156 4.699219 7.730469 4.699219 L 7.585938 4.699219 L 7.585938 4.554688 L 7.878906 4.554688 C 7.914062 4.554688 7.945312 4.527344 7.953125 4.492188 C 7.964844 4.457031 7.949219 4.421875 7.914062 4.402344 L 6.332031 3.546875 Z M 7.015625 5.105469 C 6.996094 5.105469 6.980469 5.09375 6.980469 5.074219 C 6.980469 5.058594 6.996094 5.042969 7.015625 5.042969 L 7.730469 5.042969 C 7.75 5.042969 7.761719 5.058594 7.761719 5.074219 C 7.761719 5.09375 7.75 5.105469 7.730469 5.105469 Z M 7.015625 4.828125 C 6.996094 4.828125 6.980469 4.8125 6.980469 4.796875 C 6.980469 4.777344 6.996094 4.765625 7.015625 4.765625 L 7.730469 4.765625 C 7.75 4.765625 7.761719 4.777344 7.761719 4.796875 C 7.761719 4.8125 7.75 4.828125 7.730469 4.828125 Z M 6.332031 3.730469 L 7.5625 4.394531 L 6.332031 4.394531 Z M 7.136719 4.554688 L 7.136719 4.699219 L 7.015625 4.699219 C 6.960938 4.699219 6.917969 4.742188 6.917969 4.796875 C 6.917969 4.847656 6.960938 4.890625 7.015625 4.890625 L 7.136719 4.890625 L 7.136719 4.980469 L 7.015625 4.980469 C 6.960938 4.980469 6.917969 5.023438 6.917969 5.074219 C 6.917969 5.128906 6.960938 5.171875 7.015625 5.171875 L 7.136719 5.171875 L 7.136719 5.433594 C 7.136719 5.46875 7.167969 5.496094 7.203125 5.496094 L 7.421875 5.496094 C 7.496094 5.609375 7.609375 5.78125 7.773438 5.992188 C 7.203125 5.800781 6.730469 5.582031 6.332031 5.351562 L 6.332031 4.554688 Z M 4.894531 7.230469 L 5.015625 6.714844 L 5.507812 6.957031 L 4.910156 7.25 C 4.90625 7.246094 4.902344 7.238281 4.894531 7.230469 Z M 4.992188 4.289062 C 4.867188 4.148438 4.765625 4.011719 4.679688 3.886719 L 4.992188 3.714844 Z M 5.292969 4.554688 L 6.039062 4.554688 L 5.746094 4.972656 C 5.613281 4.875 5.488281 4.773438 5.378906 4.675781 Z M 5.054688 6.550781 L 5.136719 6.203125 L 6.1875 6.203125 L 6.257812 6.550781 Z M 6.0625 6.679688 L 5.648438 6.882812 L 5.230469 6.679688 Z M 6.171875 6.046875 L 5.152344 6.046875 L 5.152344 6.035156 C 5.164062 6.03125 5.171875 6.023438 5.179688 6.011719 L 5.667969 5.3125 L 6.140625 5.996094 C 6.148438 6.007812 6.160156 6.015625 6.171875 6.019531 Z M 5.324219 4.820312 L 5.589844 5.199219 L 5.152344 5.828125 L 5.152344 4.664062 C 5.207031 4.714844 5.265625 4.769531 5.324219 4.820312 Z M 5.648438 7.027344 L 6.351562 7.371094 L 5.644531 7.664062 L 5.039062 7.40625 C 5.023438 7.390625 5.007812 7.371094 4.992188 7.351562 Z M 5.480469 7.734375 L 5.382812 7.773438 C 5.332031 7.726562 5.285156 7.679688 5.242188 7.632812 Z M 5.351562 7.925781 C 5.53125 8.09375 5.734375 8.257812 5.960938 8.417969 L 5.605469 8.578125 L 4.753906 8.175781 Z M 5.484375 7.871094 L 5.644531 7.804688 L 6.507812 8.171875 L 6.101562 8.355469 C 5.871094 8.199219 5.664062 8.035156 5.484375 7.871094 Z M 6.601562 8.269531 L 6.691406 8.707031 C 6.527344 8.621094 6.371094 8.53125 6.226562 8.4375 Z M 5.808594 7.734375 L 6.441406 7.472656 L 6.558594 8.058594 Z M 5.792969 6.953125 L 6.289062 6.707031 L 6.398438 7.253906 Z M 6.171875 5.816406 L 5.742188 5.199219 L 5.769531 5.164062 C 5.894531 5.25 6.027344 5.335938 6.171875 5.421875 Z M 5.851562 5.046875 L 6.171875 4.585938 L 6.171875 5.257812 C 6.058594 5.1875 5.953125 5.117188 5.851562 5.046875 Z M 5.796875 2.3125 L 5.761719 2.28125 L 6.171875 1.886719 L 6.171875 2.3125 Z M 6.171875 2.472656 L 6.171875 2.671875 L 5.960938 2.472656 Z M 5.667969 2.191406 L 5.171875 1.714844 L 6.167969 1.714844 Z M 5.777344 2.472656 L 6.164062 2.84375 L 5.652344 3.496094 L 5.15625 2.859375 L 5.5625 2.472656 Z M 6.171875 3.042969 L 6.171875 4.160156 L 5.734375 3.601562 Z M 5.152344 1.527344 L 5.660156 0.753906 L 6.171875 1.527344 L 6.171875 1.585938 C 6.171875 1.585938 6.171875 1.585938 6.167969 1.589844 L 5.15625 1.589844 C 5.15625 1.582031 5.15625 1.578125 5.152344 1.574219 Z M 5.152344 1.875 L 5.578125 2.28125 L 5.542969 2.3125 L 5.152344 2.3125 Z M 5.152344 2.472656 L 5.375 2.472656 L 5.152344 2.6875 Z M 5.152344 3.0625 L 5.574219 3.601562 L 5.152344 4.140625 Z M 5.152344 4.347656 L 5.65625 3.703125 L 6.167969 4.363281 L 6.148438 4.394531 L 5.183594 4.394531 Z M 4.992188 1.757812 L 4.992188 2.3125 L 4.027344 2.3125 Z M 3.867188 2.730469 C 3.851562 2.730469 3.835938 2.714844 3.835938 2.699219 C 3.835938 2.679688 3.851562 2.667969 3.867188 2.667969 L 4.585938 2.667969 C 4.605469 2.667969 4.617188 2.679688 4.617188 2.699219 C 4.617188 2.714844 4.605469 2.730469 4.585938 2.730469 Z M 3.867188 3.007812 C 3.851562 3.007812 3.835938 2.996094 3.835938 2.976562 C 3.835938 2.960938 3.851562 2.945312 3.867188 2.945312 L 4.585938 2.945312 C 4.605469 2.945312 4.617188 2.960938 4.617188 2.976562 C 4.617188 2.996094 4.605469 3.007812 4.585938 3.007812 Z M 4.410156 3.386719 C 4.429688 3.375 4.441406 3.359375 4.441406 3.335938 L 4.441406 3.074219 L 4.585938 3.074219 C 4.640625 3.074219 4.683594 3.03125 4.683594 2.976562 C 4.683594 2.925781 4.640625 2.882812 4.585938 2.882812 L 4.441406 2.882812 L 4.441406 2.792969 L 4.585938 2.792969 C 4.640625 2.792969 4.683594 2.75 4.683594 2.699219 C 4.683594 2.644531 4.640625 2.601562 4.585938 2.601562 L 4.441406 2.601562 L 4.441406 2.472656 L 4.992188 2.472656 L 4.992188 3.535156 L 4.597656 3.75 C 4.515625 3.613281 4.453125 3.488281 4.410156 3.386719 Z M 3.753906 4.394531 L 4.554688 3.953125 C 4.644531 4.09375 4.753906 4.238281 4.890625 4.394531 Z M 3.628906 4.84375 C 3.613281 4.84375 3.597656 4.828125 3.597656 4.8125 C 3.597656 4.792969 3.613281 4.78125 3.628906 4.78125 L 4.347656 4.78125 C 4.363281 4.78125 4.378906 4.792969 4.378906 4.8125 C 4.378906 4.828125 4.363281 4.84375 4.347656 4.84375 Z M 3.628906 5.121094 C 3.613281 5.121094 3.597656 5.109375 3.597656 5.089844 C 3.597656 5.074219 3.613281 5.058594 3.628906 5.058594 L 4.347656 5.058594 C 4.363281 5.058594 4.378906 5.074219 4.378906 5.089844 C 4.378906 5.109375 4.363281 5.121094 4.347656 5.121094 Z M 4.089844 5.511719 L 4.136719 5.511719 C 4.171875 5.511719 4.199219 5.484375 4.199219 5.449219 L 4.199219 5.1875 L 4.347656 5.1875 C 4.398438 5.1875 4.441406 5.144531 4.441406 5.089844 C 4.441406 5.039062 4.398438 4.996094 4.347656 4.996094 L 4.199219 4.996094 L 4.199219 4.90625 L 4.347656 4.90625 C 4.398438 4.90625 4.441406 4.863281 4.441406 4.8125 C 4.441406 4.757812 4.398438 4.714844 4.347656 4.714844 L 4.199219 4.714844 L 4.199219 4.554688 L 4.992188 4.554688 L 4.992188 6.113281 L 4.773438 7.0625 C 4.316406 6.410156 4.152344 5.8125 4.089844 5.511719 Z M 4.84375 7.460938 L 4.953125 7.511719 C 5.042969 7.617188 5.144531 7.722656 5.25 7.828125 L 4.703125 8.054688 Z M 4.652344 8.269531 L 5.453125 8.644531 L 4.460938 9.09375 Z M 4.011719 10.984375 L 3.664062 10.984375 L 4.40625 9.28125 L 5.207031 9.28125 Z M 4.710938 9.121094 L 5.605469 8.71875 L 6.460938 9.121094 Z M 7.5625 10.984375 L 7.203125 10.984375 L 6.019531 9.28125 L 6.820312 9.28125 Z M 6.777344 9.121094 L 6.757812 9.121094 L 5.757812 8.648438 L 6.085938 8.5 C 6.28125 8.632812 6.492188 8.757812 6.726562 8.875 Z M 6.875 8.800781 L 6.332031 6.117188 L 6.332031 5.515625 C 6.765625 5.753906 7.292969 5.984375 7.921875 6.183594 C 8.261719 6.597656 8.761719 7.121094 9.4375 7.644531 L 8.296875 8.269531 C 8.25 8.292969 8.230469 8.34375 8.242188 8.394531 C 8.253906 8.445312 8.300781 8.480469 8.351562 8.480469 L 8.792969 8.480469 L 8.792969 8.707031 L 8.617188 8.707031 C 8.542969 8.707031 8.480469 8.769531 8.480469 8.84375 C 8.480469 8.917969 8.542969 8.980469 8.617188 8.980469 L 8.792969 8.980469 L 8.792969 9.101562 L 8.617188 9.101562 C 8.542969 9.101562 8.480469 9.164062 8.480469 9.238281 C 8.480469 9.3125 8.542969 9.371094 8.617188 9.371094 L 8.792969 9.371094 L 8.792969 9.441406 C 8.039062 9.28125 7.40625 9.0625 6.875 8.800781 Z M 9.628906 9.191406 C 9.652344 9.191406 9.675781 9.210938 9.675781 9.238281 C 9.675781 9.261719 9.652344 9.28125 9.628906 9.28125 L 8.617188 9.28125 C 8.589844 9.28125 8.570312 9.261719 8.570312 9.238281 C 8.570312 9.214844 8.589844 9.191406 8.617188 9.191406 Z M 9.628906 8.800781 C 9.652344 8.800781 9.675781 8.820312 9.675781 8.84375 C 9.675781 8.867188 9.652344 8.890625 9.628906 8.890625 L 8.617188 8.890625 C 8.589844 8.890625 8.570312 8.867188 8.570312 8.84375 C 8.570312 8.820312 8.589844 8.800781 8.617188 8.800781 Z M 8.789062 8.253906 L 9.632812 7.792969 C 9.847656 7.949219 10.078125 8.101562 10.324219 8.253906 Z M 10.574219 11.53125 L 11.265625 11.871094 L 10.394531 12.304688 Z M 10.328125 12.585938 L 11.226562 12.96875 L 10.132812 13.425781 Z M 10.0625 13.726562 L 11.191406 14.257812 L 9.792969 14.890625 Z M 9.15625 17.558594 L 8.664062 17.558594 L 9.714844 15.152344 L 10.839844 15.152344 Z M 10.144531 14.925781 L 11.40625 14.359375 L 12.613281 14.925781 Z M 13.660156 17.558594 L 11.992188 15.152344 L 13.121094 15.152344 L 14.171875 17.558594 Z M 13.660156 17.558594 "/>
  </g>
</svg>