<?xml version="1.0" encoding="UTF-8" standalone="no"?>
<!-- Generator: Adobe Illustrator 16.0.0, SVG Export Plug-In . SVG Version: 6.00 Build 0)  -->

<svg
   xmlns:dc="http://purl.org/dc/elements/1.1/"
   xmlns:cc="http://creativecommons.org/ns#"
   xmlns:rdf="http://www.w3.org/1999/02/22-rdf-syntax-ns#"
   xmlns:svg="http://www.w3.org/2000/svg"
   xmlns="http://www.w3.org/2000/svg"
   xmlns:sodipodi="http://sodipodi.sourceforge.net/DTD/sodipodi-0.dtd"
   xmlns:inkscape="http://www.inkscape.org/namespaces/inkscape"
   version="1.1"
   id="Capa_1"
   x="0px"
   y="0px"
   width="24"
   height="24"
   viewBox="0 0 24.000001 24.000001"
   xml:space="preserve"
   inkscape:version="0.48.5 r10040"
   sodipodi:docname="barname_nevisi.svg"><metadata
     id="metadata49"><rdf:RDF><cc:Work
         rdf:about=""><dc:format>image/svg+xml</dc:format><dc:type
           rdf:resource="http://purl.org/dc/dcmitype/StillImage" /><dc:title></dc:title></cc:Work></rdf:RDF></metadata><defs
     id="defs47" /><sodipodi:namedview
     pagecolor="#ffffff"
     bordercolor="#666666"
     borderopacity="1"
     objecttolerance="10"
     gridtolerance="10"
     guidetolerance="10"
     inkscape:pageopacity="0"
     inkscape:pageshadow="2"
     inkscape:window-width="657"
     inkscape:window-height="480"
     id="namedview45"
     showgrid="false"
     inkscape:zoom="7.3616573"
     inkscape:cx="16.028999"
     inkscape:cy="16.028999"
     inkscape:window-x="0"
     inkscape:window-y="27"
     inkscape:window-maximized="0"
     inkscape:current-layer="Capa_1" /><g
     id="g3"
     transform="matrix(0.73069025,0,0,0.73069025,0.28776648,0.28813188)"><g
       id="g5"><circle
         cx="23.587"
         cy="4.0209999"
         r="3.881"
         id="circle7"
         sodipodi:cx="23.587"
         sodipodi:cy="4.0209999"
         sodipodi:rx="3.881"
         sodipodi:ry="3.881"
         d="M 27.468,4.0209999 C 27.468,6.164417 25.730417,7.902 23.587,7.902 c -2.143417,0 -3.881,-1.737583 -3.881,-3.8810001 0,-2.1434171 1.737583,-3.88100003 3.881,-3.88100003 2.143417,0 3.881,1.73758293 3.881,3.88100003 z" /><path
         d="m 15.613,24.533 v -0.959 c 0,-0.774 0.378,-1.523 0.998,-2.002 v -3.275 h -3.583 c -1.385,0 -2.498,-1.094 -2.498,-2.477 0,-0.227 0.102,-0.414 0.102,-0.623 V 14.31 h 0.417 c 0.46,-0.665 1.174,-0.997 1.979,-0.997 h 3.284 c 0.036,-0.166 0.133,-0.221 0.133,-0.353 V 4.07 c 0,-0.742 -0.685,-1.388 -1.426,-1.388 H 3.951 c -0.742,0 -1.293,0.646 -1.293,1.388 v 8.891 c 0,0.742 0.551,1.35 1.293,1.35 h 4.521 v 1.162 h -1.52 c -0.667,0 -1.208,0.498 -1.208,1.329 H 0.576 C 0.232,16.802 0,16.996 0,17.341 v 1.406 c 0,0.343 0.231,0.546 0.576,0.546 h 1.749 v 12.624 h 14.617 v -5.686 c 0.001,10e-4 -1.329,-0.28 -1.329,-1.698 z M 5.904,12.317 c -0.741,0 -1.419,-0.529 -1.419,-1.269 V 5.985 c 0,-0.742 0.678,-1.309 1.419,-1.309 h 7.198 c 0.742,0 1.35,0.567 1.35,1.309 v 5.063 c 0,0.74 -0.607,1.269 -1.35,1.269 H 5.904 z"
         id="path9"
         inkscape:connector-curvature="0" /><path
         d="m 26.173,8.547 h -5.136 c -3.147,0 -3.346,3.151 -3.346,3.151 0,0 -0.42,2.124 -0.77,2.368 -0.107,0.075 -0.233,0.129 -0.38,0.129 h -3.516 c -0.832,0 -1.506,0.662 -1.506,1.496 0,0.832 0.674,1.494 1.506,1.494 h 3.516 c 0.546,0 1.028,0.002 1.093,-0.014 l -0.032,3.669 h 1.997 v -8.118 c 0,-1.636 1.054,-3.51 2.706,-3.51 h 6.123 C 27.818,8.713 27.029,8.547 26.173,8.547 z"
         id="path11"
         inkscape:connector-curvature="0" /><path
         d="m 30.049,25.107 c 1.107,0 2.009,-0.899 2.009,-2.01 V 12.789 c 0,-1.241 -1.051,-2.299 -2.291,-2.299 h -6.958 c -1.24,0 -2.211,1.058 -2.211,2.299 v 9.162 h -2.242 c -0.863,0 -1.579,0.664 -1.579,1.525 v 0.566 c 0,0.587 0.476,1.062 1.063,1.062 h 4.752 v 1.328 h -0.761 c 0,0 -1.897,0.045 -1.897,1.809 v 2.531 c 0,0.57 0.426,1.035 1,1.035 0.573,0 1.021,-0.469 1.021,-1.041 l -0.016,-2.34 h 3.476 v 2.346 c 0,0.57 0.505,1.035 1.079,1.035 0.574,0 1.08,-0.465 1.08,-1.035 v -2.531 c 0,-1.916 -2.037,-1.809 -2.037,-1.809 h -0.789 v -1.328 h 5.301 v 0.003 z"
         id="path13"
         inkscape:connector-curvature="0" /></g></g><g
     id="g15"
     transform="translate(0,-8.057999)" /><g
     id="g17"
     transform="translate(0,-8.057999)" /><g
     id="g19"
     transform="translate(0,-8.057999)" /><g
     id="g21"
     transform="translate(0,-8.057999)" /><g
     id="g23"
     transform="translate(0,-8.057999)" /><g
     id="g25"
     transform="translate(0,-8.057999)" /><g
     id="g27"
     transform="translate(0,-8.057999)" /><g
     id="g29"
     transform="translate(0,-8.057999)" /><g
     id="g31"
     transform="translate(0,-8.057999)" /><g
     id="g33"
     transform="translate(0,-8.057999)" /><g
     id="g35"
     transform="translate(0,-8.057999)" /><g
     id="g37"
     transform="translate(0,-8.057999)" /><g
     id="g39"
     transform="translate(0,-8.057999)" /><g
     id="g41"
     transform="translate(0,-8.057999)" /><g
     id="g43"
     transform="translate(0,-8.057999)" /></svg>