<?xml version="1.0" encoding="UTF-8" standalone="no"?>
<!-- Generated by IcoMoon.io -->

<svg
   xmlns:dc="http://purl.org/dc/elements/1.1/"
   xmlns:cc="http://creativecommons.org/ns#"
   xmlns:rdf="http://www.w3.org/1999/02/22-rdf-syntax-ns#"
   xmlns:svg="http://www.w3.org/2000/svg"
   xmlns="http://www.w3.org/2000/svg"
   xmlns:sodipodi="http://sodipodi.sourceforge.net/DTD/sodipodi-0.dtd"
   xmlns:inkscape="http://www.inkscape.org/namespaces/inkscape"
   version="1.1"
   width="24"
   height="24"
   viewBox="0 0 24 24"
   id="svg3008"
   inkscape:version="0.48.5 r10040"
   sodipodi:docname="basecamp.svg">
  <metadata
     id="metadata3016">
    <rdf:RDF>
      <cc:Work
         rdf:about="">
        <dc:format>image/svg+xml</dc:format>
        <dc:type
           rdf:resource="http://purl.org/dc/dcmitype/StillImage" />
      </cc:Work>
    </rdf:RDF>
  </metadata>
  <defs
     id="defs3014" />
  <sodipodi:namedview
     pagecolor="#ffffff"
     bordercolor="#666666"
     borderopacity="1"
     objecttolerance="10"
     gridtolerance="10"
     guidetolerance="10"
     inkscape:pageopacity="0"
     inkscape:pageshadow="2"
     inkscape:window-width="657"
     inkscape:window-height="480"
     id="namedview3012"
     showgrid="false"
     inkscape:zoom="11.8"
     inkscape:cx="20.29661"
     inkscape:cy="13.389831"
     inkscape:window-x="0"
     inkscape:window-y="27"
     inkscape:window-maximized="0"
     inkscape:current-layer="svg3008" />
  <path
     d="m 12.000001,2.6016949 c -5.4897858,0 -10.9255305,7.6138021 -10.9255305,14.5932181 0,1.617683 5.3264894,4.203392 10.9255305,4.203392 5.599039,0 10.925528,-2.585709 10.925528,-4.203392 0,-6.979416 -5.435744,-14.5932181 -10.925528,-14.5932181 z m 0.007,15.9947401 c -6.1065488,0 -7.8393613,-2.429462 -7.8393613,-3.197773 0,-1.511952 2.5022987,-5.268925 3.4139343,-5.268925 0.8446727,0 1.8115233,2.127542 2.71846,2.127542 1.457912,0 3.015681,-4.6451127 4.204567,-4.6451127 1.188886,0 5.405199,6.0830527 5.405199,7.9286447 0,0.318368 -1.27347,3.055624 -7.902799,3.055624 z"
     id="path3010"
     inkscape:connector-curvature="0"
     style="fill:#444444" />
</svg>
