<?xml version="1.0" encoding="UTF-8" standalone="yes"?>
<svg xmlns="http://www.w3.org/2000/svg" xmlns:xlink="http://www.w3.org/1999/xlink" width="24px" height="24px" viewBox="0 0 18 18" version="1.1">
  <g id="surface1">
    <path style=" stroke:none;fill-rule:nonzero;fill:rgb(0%,0%,0%);fill-opacity:1;" d="M 17.027344 14.449219 L 14.496094 6.628906 C 14.382812 6.28125 14.0625 6.046875 13.699219 6.046875 L 11.027344 6.046875 C 11.242188 5.691406 11.371094 5.273438 11.371094 4.824219 C 11.371094 3.515625 10.308594 2.453125 9 2.453125 C 7.691406 2.453125 6.628906 3.515625 6.628906 4.824219 C 6.628906 5.273438 6.753906 5.691406 6.972656 6.046875 L 4.300781 6.046875 C 3.9375 6.046875 3.617188 6.28125 3.503906 6.628906 L 0.972656 14.449219 C 0.796875 14.992188 1.203125 15.546875 1.769531 15.546875 L 16.230469 15.546875 C 16.796875 15.546875 17.203125 14.992188 17.027344 14.449219 Z M 7.746094 4.824219 C 7.746094 4.132812 8.308594 3.570312 9 3.570312 C 9.691406 3.570312 10.253906 4.132812 10.253906 4.824219 C 10.253906 5.421875 9.832031 5.921875 9.269531 6.046875 L 8.730469 6.046875 C 8.167969 5.921875 7.746094 5.421875 7.746094 4.824219 Z M 7.890625 12.824219 L 7.167969 11.433594 L 6.820312 11.433594 L 6.820312 12.824219 L 5.984375 12.824219 L 5.984375 9.394531 L 6.820312 9.394531 L 6.820312 10.71875 L 7.167969 10.71875 L 7.878906 9.394531 L 8.777344 9.394531 L 7.851562 11.035156 L 7.851562 11.046875 L 8.832031 12.824219 Z M 12.304688 12.824219 L 11.605469 12.824219 L 11.605469 12.726562 C 11.605469 12.65625 11.609375 12.585938 11.609375 12.585938 L 11.601562 12.585938 C 11.601562 12.585938 11.269531 12.882812 10.699219 12.882812 C 9.820312 12.882812 9.015625 12.222656 9.015625 11.101562 C 9.015625 10.105469 9.769531 9.335938 10.8125 9.335938 C 11.691406 9.335938 12.132812 9.792969 12.132812 9.792969 L 11.730469 10.421875 C 11.730469 10.421875 11.378906 10.105469 10.894531 10.105469 C 10.175781 10.105469 9.882812 10.566406 9.882812 11.074219 C 9.882812 11.726562 10.335938 12.113281 10.867188 12.113281 C 11.269531 12.113281 11.5625 11.863281 11.5625 11.863281 L 11.5625 11.601562 L 11.078125 11.601562 L 11.078125 10.886719 L 12.308594 10.886719 L 12.308594 12.824219 Z M 12.304688 12.824219 "/>
  </g>
</svg>