<?xml version="1.0" encoding="UTF-8" standalone="yes"?>
<svg xmlns="http://www.w3.org/2000/svg" xmlns:xlink="http://www.w3.org/1999/xlink" width="24px" height="24px" viewBox="0 0 18 18" version="1.1">
  <g id="surface1">
    <path style=" stroke:none;fill-rule:nonzero;fill:rgb(0%,0%,0%);fill-opacity:1;" d="M 10.796875 11.246094 L 12.632812 11.246094 L 8.777344 13.140625 L 6.117188 11.246094 L 7.964844 11.246094 L 9.039062 9.378906 L 6.769531 9.378906 L 9.027344 5.648438 L 11.59375 5.648438 L 10.121094 8.167969 L 12.523438 8.167969 Z M 15.46875 4.136719 L 15.46875 14.652344 C 15.46875 15.304688 14.578125 15.835938 13.476562 15.835938 L 5.367188 15.835938 C 4.265625 15.835938 3.375 15.304688 3.375 14.652344 L 3.375 4.136719 C 3.375 3.484375 4.269531 2.953125 5.367188 2.953125 L 7.054688 2.953125 L 7.054688 2.167969 L 11.699219 2.167969 L 11.699219 2.953125 L 13.476562 2.953125 C 14.578125 2.953125 15.46875 3.484375 15.46875 4.136719 Z M 14.140625 4.136719 C 14.140625 3.921875 13.84375 3.742188 13.476562 3.742188 L 5.367188 3.742188 C 5 3.742188 4.703125 3.921875 4.703125 4.136719 L 4.703125 14.652344 C 4.703125 14.867188 5 15.046875 5.367188 15.046875 L 13.476562 15.046875 C 13.84375 15.046875 14.140625 14.867188 14.140625 14.652344 Z M 14.140625 4.136719 "/>
  </g>
</svg>