<?xml version="1.0" encoding="UTF-8" standalone="yes"?>
<svg xmlns="http://www.w3.org/2000/svg" xmlns:xlink="http://www.w3.org/1999/xlink" width="24px" height="24px" viewBox="0 0 18 18" version="1.1">
  <g id="surface1">
    <path style=" stroke:none;fill-rule:nonzero;fill:rgb(0%,0%,0%);fill-opacity:1;" d="M 1.253906 14.167969 C 1.253906 14.414062 1.453125 14.617188 1.703125 14.617188 L 16.296875 14.617188 C 16.546875 14.617188 16.746094 14.414062 16.746094 14.167969 L 16.746094 6.601562 L 1.253906 6.601562 Z M 12.347656 9.144531 C 12.347656 9.027344 12.445312 8.929688 12.5625 8.929688 L 14.640625 8.929688 C 14.757812 8.929688 14.855469 9.027344 14.855469 9.144531 L 14.855469 9.65625 C 14.855469 9.773438 14.757812 9.871094 14.640625 9.871094 L 12.5625 9.871094 C 12.445312 9.871094 12.347656 9.773438 12.347656 9.65625 Z M 3.144531 9.136719 C 3.144531 9.023438 3.234375 8.929688 3.347656 8.929688 L 4.03125 8.929688 L 4.03125 8.25 C 4.03125 8.136719 4.121094 8.046875 4.234375 8.046875 L 4.765625 8.046875 C 4.878906 8.046875 4.96875 8.136719 4.96875 8.25 L 4.96875 8.929688 L 5.652344 8.929688 C 5.765625 8.929688 5.855469 9.023438 5.855469 9.136719 L 5.855469 9.667969 C 5.855469 9.78125 5.765625 9.871094 5.652344 9.871094 L 4.96875 9.871094 L 4.96875 10.550781 C 4.96875 10.664062 4.878906 10.757812 4.765625 10.757812 L 4.234375 10.757812 C 4.121094 10.757812 4.03125 10.664062 4.03125 10.550781 L 4.03125 9.871094 L 3.347656 9.871094 C 3.234375 9.871094 3.144531 9.78125 3.144531 9.667969 Z M 3.144531 9.136719 "/>
    <path style=" stroke:none;fill-rule:nonzero;fill:rgb(0%,0%,0%);fill-opacity:1;" d="M 17.265625 6.140625 C 17.5 6.140625 17.6875 5.953125 17.6875 5.71875 L 17.6875 5.011719 C 17.6875 4.78125 17.5 4.589844 17.265625 4.589844 L 14.917969 4.589844 L 14.917969 3.804688 C 14.917969 3.570312 14.730469 3.382812 14.496094 3.382812 L 12.6875 3.382812 C 12.453125 3.382812 12.265625 3.570312 12.265625 3.804688 L 12.265625 4.589844 L 5.898438 4.589844 L 5.898438 3.804688 C 5.898438 3.570312 5.710938 3.382812 5.480469 3.382812 L 3.667969 3.382812 C 3.433594 3.382812 3.246094 3.570312 3.246094 3.804688 L 3.246094 4.589844 L 0.734375 4.589844 C 0.5 4.589844 0.3125 4.78125 0.3125 5.011719 L 0.3125 5.71875 C 0.3125 5.953125 0.5 6.140625 0.734375 6.140625 Z M 17.265625 6.140625 "/>
  </g>
</svg>