<?xml version="1.0" encoding="UTF-8" standalone="yes"?>
<svg xmlns="http://www.w3.org/2000/svg" xmlns:xlink="http://www.w3.org/1999/xlink" width="24px" height="24px" viewBox="0 0 18 18" version="1.1">
  <g id="surface1">
    <path style=" stroke:none;fill-rule:nonzero;fill:rgb(0.392157%,0%,0.784314%);fill-opacity:1;" d="M 10.351562 1.613281 C 10.351562 2.363281 9.746094 2.96875 9 2.96875 C 8.25 2.96875 7.644531 2.363281 7.644531 1.613281 C 7.644531 0.867188 8.25 0.261719 9 0.261719 C 9.746094 0.261719 10.351562 0.867188 10.351562 1.613281 Z M 10.351562 1.613281 "/>
    <path style=" stroke:none;fill-rule:nonzero;fill:rgb(0.392157%,0%,0.784314%);fill-opacity:1;" d="M 10.351562 16.386719 C 10.351562 17.132812 9.746094 17.738281 9 17.738281 C 8.25 17.738281 7.644531 17.132812 7.644531 16.386719 C 7.644531 15.636719 8.25 15.03125 9 15.03125 C 9.746094 15.03125 10.351562 15.636719 10.351562 16.386719 Z M 10.351562 16.386719 "/>
    <path style=" stroke:none;fill-rule:nonzero;fill:rgb(0.392157%,0%,0.784314%);fill-opacity:1;" d="M 17.738281 9 C 17.738281 9.75 17.132812 10.355469 16.382812 10.355469 C 15.636719 10.355469 15.03125 9.75 15.03125 9 C 15.03125 8.253906 15.636719 7.648438 16.382812 7.648438 C 17.132812 7.648438 17.738281 8.253906 17.738281 9 Z M 17.738281 9 "/>
    <path style=" stroke:none;fill-rule:nonzero;fill:rgb(0.392157%,0%,0.784314%);fill-opacity:1;" d="M 2.96875 9 C 2.96875 9.75 2.363281 10.355469 1.617188 10.355469 C 0.867188 10.355469 0.261719 9.75 0.261719 9 C 0.261719 8.253906 0.867188 7.648438 1.617188 7.648438 C 2.363281 7.648438 2.96875 8.253906 2.96875 9 Z M 2.96875 9 "/>
    <path style=" stroke:none;fill-rule:nonzero;fill:rgb(0.392157%,0%,0.784314%);fill-opacity:1;" d="M 12.988281 12.988281 L 12.664062 11.871094 L 12.394531 12.136719 L 11.085938 10.828125 C 11.46875 10.378906 11.710938 9.8125 11.738281 9.183594 L 13.621094 9.183594 L 13.621094 9.5625 L 14.640625 9 L 13.621094 8.441406 L 13.621094 8.816406 L 11.730469 8.816406 C 11.679688 8.203125 11.429688 7.648438 11.039062 7.214844 L 12.394531 5.863281 L 12.664062 6.128906 L 12.988281 5.011719 L 11.871094 5.335938 L 12.136719 5.605469 L 10.78125 6.960938 C 10.34375 6.585938 9.792969 6.351562 9.179688 6.3125 L 9.179688 4.382812 L 9.558594 4.382812 L 9 3.359375 L 8.4375 4.382812 L 8.820312 4.382812 L 8.820312 6.308594 C 8.207031 6.351562 7.65625 6.585938 7.21875 6.960938 L 5.859375 5.605469 L 6.128906 5.335938 L 5.011719 5.011719 L 5.335938 6.128906 L 5.605469 5.863281 L 6.957031 7.210938 C 6.566406 7.644531 6.316406 8.203125 6.265625 8.816406 L 4.378906 8.816406 L 4.378906 8.4375 L 3.359375 9 L 4.378906 9.558594 L 4.378906 9.183594 L 6.257812 9.183594 C 6.289062 9.8125 6.527344 10.378906 6.914062 10.828125 L 5.605469 12.136719 L 5.335938 11.871094 L 5.011719 12.988281 L 6.128906 12.664062 L 5.859375 12.394531 L 7.164062 11.089844 C 7.609375 11.488281 8.183594 11.742188 8.816406 11.785156 L 8.816406 13.621094 L 8.4375 13.621094 L 8.996094 14.640625 L 9.558594 13.621094 L 9.179688 13.621094 L 9.179688 11.785156 C 9.816406 11.742188 10.386719 11.488281 10.832031 11.089844 L 12.136719 12.394531 L 11.867188 12.664062 Z M 12.988281 12.988281 "/>
    <path style=" stroke:none;fill-rule:nonzero;fill:rgb(0.392157%,0%,0.784314%);fill-opacity:1;" d="M 15.574219 3.777344 C 15.574219 4.527344 14.96875 5.132812 14.222656 5.132812 C 13.472656 5.132812 12.867188 4.527344 12.867188 3.777344 C 12.867188 3.03125 13.472656 2.425781 14.222656 2.425781 C 14.96875 2.425781 15.574219 3.03125 15.574219 3.777344 Z M 15.574219 3.777344 "/>
    <path style=" stroke:none;fill-rule:nonzero;fill:rgb(0.392157%,0%,0.784314%);fill-opacity:1;" d="M 5.132812 14.222656 C 5.132812 14.96875 4.527344 15.578125 3.777344 15.578125 C 3.03125 15.578125 2.425781 14.96875 2.425781 14.222656 C 2.425781 13.476562 3.03125 12.867188 3.777344 12.867188 C 4.527344 12.867188 5.132812 13.476562 5.132812 14.222656 Z M 5.132812 14.222656 "/>
    <path style=" stroke:none;fill-rule:nonzero;fill:rgb(0.392157%,0%,0.784314%);fill-opacity:1;" d="M 15.574219 14.222656 C 15.574219 14.96875 14.96875 15.578125 14.222656 15.578125 C 13.472656 15.578125 12.867188 14.96875 12.867188 14.222656 C 12.867188 13.476562 13.472656 12.867188 14.222656 12.867188 C 14.96875 12.867188 15.574219 13.476562 15.574219 14.222656 Z M 15.574219 14.222656 "/>
    <path style=" stroke:none;fill-rule:nonzero;fill:rgb(0.392157%,0%,0.784314%);fill-opacity:1;" d="M 5.132812 3.777344 C 5.132812 4.527344 4.523438 5.132812 3.777344 5.132812 C 3.027344 5.132812 2.421875 4.527344 2.421875 3.777344 C 2.421875 3.03125 3.027344 2.421875 3.777344 2.421875 C 4.523438 2.421875 5.132812 3.03125 5.132812 3.777344 Z M 5.132812 3.777344 "/>
  </g>
</svg>