<?xml version="1.0" encoding="UTF-8" standalone="no"?>
<!-- Generator: Adobe Illustrator 16.0.0, SVG Export Plug-In . SVG Version: 6.00 Build 0)  -->

<svg
   xmlns:dc="http://purl.org/dc/elements/1.1/"
   xmlns:cc="http://creativecommons.org/ns#"
   xmlns:rdf="http://www.w3.org/1999/02/22-rdf-syntax-ns#"
   xmlns:svg="http://www.w3.org/2000/svg"
   xmlns="http://www.w3.org/2000/svg"
   xmlns:sodipodi="http://sodipodi.sourceforge.net/DTD/sodipodi-0.dtd"
   xmlns:inkscape="http://www.inkscape.org/namespaces/inkscape"
   version="1.1"
   id="Capa_1"
   x="0px"
   y="0px"
   width="24"
   height="24"
   viewBox="0 0 24 24"
   xml:space="preserve"
   inkscape:version="0.48.5 r10040"
   sodipodi:docname="bazyabi_etelat.svg"><metadata
     id="metadata3075"><rdf:RDF><cc:Work
         rdf:about=""><dc:format>image/svg+xml</dc:format><dc:type
           rdf:resource="http://purl.org/dc/dcmitype/StillImage" /><dc:title></dc:title></cc:Work></rdf:RDF></metadata><defs
     id="defs3073" /><sodipodi:namedview
     pagecolor="#ffffff"
     bordercolor="#666666"
     borderopacity="1"
     objecttolerance="10"
     gridtolerance="10"
     guidetolerance="10"
     inkscape:pageopacity="0"
     inkscape:pageshadow="2"
     inkscape:window-width="657"
     inkscape:window-height="480"
     id="namedview3071"
     showgrid="false"
     inkscape:zoom="2.3871901"
     inkscape:cx="49.4305"
     inkscape:cy="49.4305"
     inkscape:window-x="0"
     inkscape:window-y="27"
     inkscape:window-maximized="0"
     inkscape:current-layer="Capa_1" /><g
     id="g3027"
     transform="matrix(0.22369728,0,0,0.22369728,0.9425316,0.9425316)"><g
       id="g3029"><path
         d="M 73.847,30.236 H 25.016 c -1.562,0 -2.836,1.263 -2.836,2.828 v 9.628 c 0,1.565 1.274,2.828 2.836,2.828 h 48.831 c 1.559,0 2.832,-1.263 2.832,-2.828 v -9.628 c 0,-1.565 -1.275,-2.828 -2.832,-2.828 z m -46.56,6.706 c -0.965,0 -1.747,-0.78 -1.747,-1.746 0,-0.963 0.782,-1.745 1.747,-1.745 0.967,0 1.746,0.782 1.746,1.745 0,0.967 -0.779,1.746 -1.746,1.746 z m 41.944,5.034 H 56.895 v -4.097 h 12.337 v 4.097 z"
         id="path3031"
         inkscape:connector-curvature="0" /><path
         d="M 73.847,47.075 H 25.016 c -1.562,0 -2.836,1.265 -2.836,2.83 v 9.627 c 0,1.563 1.274,2.829 2.836,2.829 h 48.831 c 1.559,0 2.832,-1.266 2.832,-2.829 v -9.627 c 0,-1.565 -1.275,-2.83 -2.832,-2.83 z m -46.56,6.708 c -0.965,0 -1.747,-0.777 -1.747,-1.746 0,-0.962 0.782,-1.748 1.747,-1.748 0.967,0 1.746,0.785 1.746,1.748 0,0.968 -0.779,1.746 -1.746,1.746 z m 41.944,5.033 H 56.895 v -4.098 h 12.337 v 4.098 z"
         id="path3033"
         inkscape:connector-curvature="0" /><path
         d="M 73.847,63.915 H 25.016 c -1.562,0 -2.836,1.265 -2.836,2.829 v 9.627 c 0,1.564 1.274,2.83 2.836,2.83 h 48.831 c 1.559,0 2.832,-1.266 2.832,-2.83 v -9.627 c 0,-1.564 -1.275,-2.829 -2.832,-2.829 z m -46.56,6.706 c -0.965,0 -1.747,-0.775 -1.747,-1.746 0,-0.964 0.782,-1.744 1.747,-1.744 0.967,0 1.746,0.779 1.746,1.744 0,0.971 -0.779,1.746 -1.746,1.746 z m 41.944,5.033 H 56.895 v -4.098 h 12.337 v 4.098 z"
         id="path3035"
         inkscape:connector-curvature="0" /><polygon
         points="40.994,96.863 40.994,98.861 57.864,98.861 57.864,96.863 76.079,96.863 76.079,90.404 57.864,90.404 57.864,88.409 52.66,88.409 52.66,80.838 46.204,80.838 46.204,88.409 40.994,88.409 40.994,90.404 22.778,90.404 22.778,96.863 "
         id="polygon3037" /><path
         d="M 78.253,14.706 C 77.554,14.647 76.912,14.29 76.496,13.727 72.581,8.44 66.304,5.179 59.624,5.179 59.206,5.179 58.787,5.192 58.368,5.217 57.788,5.252 57.218,5.079 56.755,4.729 52.688,1.662 47.76,0 42.602,0 33.36,0 25.157,5.354 21.323,13.461 20.971,14.204 20.269,14.72 19.455,14.834 9.269,16.267 1.405,25.039 1.405,35.613 c 0,10.081 7.147,18.519 16.641,20.526 v -6.234 c 0,-0.777 0.144,-1.518 0.383,-2.215 -5.077,-1.669 -8.757,-6.448 -8.757,-12.076 0,-7.011 5.704,-12.715 12.716,-12.715 0.354,0 0.702,0.028 1.049,0.056 2.021,0.157 3.849,-1.154 4.342,-3.114 1.709,-6.814 7.806,-11.573 14.822,-11.573 4.01,0 7.805,1.548 10.685,4.36 0.984,0.96 2.383,1.369 3.729,1.088 0.859,-0.179 1.736,-0.27 2.609,-0.27 4.909,0 9.293,2.76 11.44,7.202 0.755,1.562 2.405,2.492 4.132,2.314 0.43,-0.043 0.859,-0.064 1.275,-0.064 7.012,0 12.717,5.704 12.717,12.715 0,5.629 -3.682,10.407 -8.758,12.076 0.238,0.698 0.382,1.438 0.382,2.215 v 6.233 C 90.305,54.131 97.456,45.694 97.456,35.612 97.455,24.643 88.991,15.612 78.253,14.706 z"
         id="path3039"
         inkscape:connector-curvature="0" /></g></g><g
     id="g3041"
     transform="translate(0,-74.861)" /><g
     id="g3043"
     transform="translate(0,-74.861)" /><g
     id="g3045"
     transform="translate(0,-74.861)" /><g
     id="g3047"
     transform="translate(0,-74.861)" /><g
     id="g3049"
     transform="translate(0,-74.861)" /><g
     id="g3051"
     transform="translate(0,-74.861)" /><g
     id="g3053"
     transform="translate(0,-74.861)" /><g
     id="g3055"
     transform="translate(0,-74.861)" /><g
     id="g3057"
     transform="translate(0,-74.861)" /><g
     id="g3059"
     transform="translate(0,-74.861)" /><g
     id="g3061"
     transform="translate(0,-74.861)" /><g
     id="g3063"
     transform="translate(0,-74.861)" /><g
     id="g3065"
     transform="translate(0,-74.861)" /><g
     id="g3067"
     transform="translate(0,-74.861)" /><g
     id="g3069"
     transform="translate(0,-74.861)" /></svg>