<?xml version="1.0" encoding="UTF-8" standalone="no"?>
<!-- Generator: Adobe Illustrator 16.0.0, SVG Export Plug-In . SVG Version: 6.00 Build 0)  -->

<svg
   xmlns:dc="http://purl.org/dc/elements/1.1/"
   xmlns:cc="http://creativecommons.org/ns#"
   xmlns:rdf="http://www.w3.org/1999/02/22-rdf-syntax-ns#"
   xmlns:svg="http://www.w3.org/2000/svg"
   xmlns="http://www.w3.org/2000/svg"
   xmlns:sodipodi="http://sodipodi.sourceforge.net/DTD/sodipodi-0.dtd"
   xmlns:inkscape="http://www.inkscape.org/namespaces/inkscape"
   version="1.1"
   id="Capa_1"
   x="0px"
   y="0px"
   width="24"
   height="24"
   viewBox="0 0 24 24"
   xml:space="preserve"
   inkscape:version="0.48.5 r10040"
   sodipodi:docname="behdashti_arayeshi_group.svg"><metadata
     id="metadata3194"><rdf:RDF><cc:Work
         rdf:about=""><dc:format>image/svg+xml</dc:format><dc:type
           rdf:resource="http://purl.org/dc/dcmitype/StillImage" /><dc:title></dc:title></cc:Work></rdf:RDF></metadata><defs
     id="defs3192" /><sodipodi:namedview
     pagecolor="#ffffff"
     bordercolor="#666666"
     borderopacity="1"
     objecttolerance="10"
     gridtolerance="10"
     guidetolerance="10"
     inkscape:pageopacity="0"
     inkscape:pageshadow="2"
     inkscape:window-width="657"
     inkscape:window-height="480"
     id="namedview3190"
     showgrid="false"
     inkscape:zoom="4.9982395"
     inkscape:cx="11.379074"
     inkscape:cy="11.094657"
     inkscape:window-x="0"
     inkscape:window-y="27"
     inkscape:window-maximized="0"
     inkscape:current-layer="Capa_1" /><g
     id="g3150"
     transform="matrix(0.06166921,0,0,0.06166921,0.35275256,0.3527323)"><g
       id="g3152"><path
         d="m 354.273,131.125 c -2.009,-3.935 -5.336,-7.8 -9.225,-5.803 -0.187,0.087 -1.098,0.566 -2.558,1.302 -1.133,0.578 -2.51,1.296 -4.32,2.23 l -147.435,75.562 c 0.164,-0.689 0.263,-1.354 0.456,-2.032 C 193.947,195.786 235.879,22.2 235.879,22.2 l -1.344,-8.308 -62.431,152.876 9.096,21.667 -11.216,26.618 -115.351,59.122 c -4.133,2.125 -6.562,3.363 -6.86,3.503 -3.888,2.009 -2.703,6.983 -0.695,10.883 2.009,3.936 22.216,41.454 24.978,46.849 6.673,-2.615 7.07,-6.645 4.916,-10.859 -2.166,-4.204 -16.546,-32.275 -16.546,-32.275 0,0 0.993,-0.502 2.773,-1.425 l 3.538,-1.821 18.859,36.794 5.319,-2.744 -18.858,-36.782 4.461,-2.277 18.87,36.795 5.318,-2.732 -18.853,-36.783 3.743,-1.928 18.853,36.795 5.324,-2.732 -18.859,-36.786 4.473,-2.288 18.858,36.782 5.331,-2.732 -18.859,-36.782 4.607,-2.382 18.858,36.807 5.319,-2.732 -18.858,-36.807 4.461,-2.289 18.724,36.537 c -0.344,0.678 -0.741,1.344 -1.062,2.056 -8.682,18.648 -4.974,40.11 8.992,52.161 2.534,2.207 5.372,4.041 8.408,5.441 9.85,4.602 21.095,4.555 31.639,-0.116 10.265,-4.53 18.66,-12.938 23.658,-23.657 7.38,-15.881 5.757,-33.771 -3.492,-46.207 -0.922,-1.786 -4.542,-9.26 -7.906,-20.236 l 2.651,-1.354 -6.043,-11.794 c -1.074,-5.114 -1.968,-10.591 -2.47,-16.43 l 13.23,25.807 5.313,-2.721 -18.87,-36.807 4.473,-2.277 18.858,36.795 5.336,-2.732 -18.858,-36.783 3.76,-1.938 18.846,36.783 5.337,-2.721 -18.858,-36.795 4.461,-2.289 18.87,36.783 5.324,-2.721 -18.882,-36.748 4.613,-2.359 18.869,36.794 5.325,-2.721 -18.858,-36.794 4.473,-2.277 18.858,36.783 5.312,-2.732 -18.87,-36.794 4.367,-2.253 18.859,36.806 5.324,-2.721 -18.858,-36.796 4.472,-2.289 18.859,36.783 5.312,-2.732 -18.847,-36.783 4.612,-2.37 18.858,36.795 5.325,-2.732 -18.858,-36.789 4.448,-2.295 18.871,36.807 5.324,-2.721 -18.87,-36.801 4.718,-2.417 18.858,36.788 5.325,-2.732 -18.871,-36.794 4.473,-2.283 18.858,36.789 5.337,-2.721 -18.858,-36.795 3.76,-1.938 18.847,36.806 5.324,-2.732 -18.869,-36.795 4.472,-2.289 18.858,36.783 5.325,-2.721 -18.858,-36.794 4.612,-2.371 18.858,36.795 5.324,-2.721 -18.856,-36.802 4.448,-2.283 18.858,36.794 5.313,-2.744 -18.858,-36.789 4.671,-2.394 18.858,36.795 5.312,-2.727 -18.858,-36.795 2.885,-1.483 c 1.798,-0.905 2.79,-1.418 2.79,-1.418 0,0 14.387,28.072 16.547,32.27 2.148,4.221 5.641,6.253 11.666,2.359 -2.778,-5.359 -21.439,-43.672 -23.459,-47.589 z m -172.4,32.223 c 2.476,-2.861 6.79,-3.182 9.657,-0.707 2.849,2.476 3.176,6.802 0.701,9.663 -2.476,2.855 -6.796,3.182 -9.663,0.707 -2.861,-2.476 -3.171,-6.808 -0.695,-9.663 z m -23.232,78.575 -0.274,0.7 -0.216,-0.433 0.49,-0.267 z m -5.827,2.989 2.517,4.904 -2.552,6.025 -4.42,-8.617 4.455,-2.312 z m -9.779,5.033 6.72,13.102 -2.125,5.068 -8.337,-16.243 3.742,-1.927 z m -9.085,4.647 10.626,20.728 -2.534,6.014 -12.529,-24.464 4.437,-2.278 z m -9.768,5.022 14.824,28.913 -2.143,5.078 -16.441,-32.076 3.76,-1.915 z m 69.508,71.604 c -3.673,7.857 -9.751,13.988 -17.125,17.246 -7.082,3.13 -14.503,3.223 -20.925,0.234 -1.938,-0.911 -3.766,-2.091 -5.395,-3.492 -9.599,-8.303 -11.958,-23.459 -5.716,-36.864 3.673,-7.87 9.745,-14.001 17.125,-17.259 7.064,-3.129 14.503,-3.211 20.913,-0.233 1.962,0.923 3.766,2.078 5.407,3.491 9.604,8.28 11.963,23.459 5.716,36.877 z"
         id="path3154"
         inkscape:connector-curvature="0" /><path
         d="m 202.039,181.774 134.638,-79.603 -8.816,0.158 c 0,0 -67.798,27.657 -118.044,48.442 -2.944,11.858 -5.629,22.572 -7.778,31.003 z"
         id="path3156"
         inkscape:connector-curvature="0" /><path
         d="m 65.171,244.375 c 0.059,-0.047 0.128,-0.093 0.187,-0.14 -0.07,0.163 -0.105,0.269 -0.105,0.269 l 106.886,-63.325 0.07,0.012 -5.249,-12.5 c -5.569,2.371 -9.154,3.958 -9.96,4.437 -42.079,17.253 -86.521,1.688 -89.692,0.526 -13.44,-6.971 -30.944,-6.014 -45.318,3.17 -9.973,6.376 -17.183,15.811 -20.312,26.589 -3.229,11.07 -1.757,22.21 4.087,31.365 1.892,2.966 4.198,5.628 6.854,7.916 13.796,11.933 35.428,12.634 52.552,1.681 z M 21.084,232.861 c -1.699,-1.471 -3.17,-3.188 -4.379,-5.067 -3.812,-5.979 -4.724,-13.335 -2.557,-20.785 2.248,-7.73 7.52,-14.567 14.824,-19.244 12.331,-7.882 27.587,-7.643 37.093,0.572 1.71,1.472 3.182,3.182 4.402,5.08 3.801,5.956 4.711,13.324 2.557,20.75 -2.248,7.741 -7.52,14.573 -14.836,19.255 -12.342,7.894 -27.587,7.66 -37.104,-0.561 z"
         id="path3158"
         inkscape:connector-curvature="0" /></g></g><g
     id="g3160"
     transform="translate(0,-353.733)" /><g
     id="g3162"
     transform="translate(0,-353.733)" /><g
     id="g3164"
     transform="translate(0,-353.733)" /><g
     id="g3166"
     transform="translate(0,-353.733)" /><g
     id="g3168"
     transform="translate(0,-353.733)" /><g
     id="g3170"
     transform="translate(0,-353.733)" /><g
     id="g3172"
     transform="translate(0,-353.733)" /><g
     id="g3174"
     transform="translate(0,-353.733)" /><g
     id="g3176"
     transform="translate(0,-353.733)" /><g
     id="g3178"
     transform="translate(0,-353.733)" /><g
     id="g3180"
     transform="translate(0,-353.733)" /><g
     id="g3182"
     transform="translate(0,-353.733)" /><g
     id="g3184"
     transform="translate(0,-353.733)" /><g
     id="g3186"
     transform="translate(0,-353.733)" /><g
     id="g3188"
     transform="translate(0,-353.733)" /></svg>