<?xml version="1.0" encoding="UTF-8" standalone="no"?>
<!-- Generator: Adobe Illustrator 16.0.0, SVG Export Plug-In . SVG Version: 6.00 Build 0)  -->

<svg
   xmlns:dc="http://purl.org/dc/elements/1.1/"
   xmlns:cc="http://creativecommons.org/ns#"
   xmlns:rdf="http://www.w3.org/1999/02/22-rdf-syntax-ns#"
   xmlns:svg="http://www.w3.org/2000/svg"
   xmlns="http://www.w3.org/2000/svg"
   xmlns:sodipodi="http://sodipodi.sourceforge.net/DTD/sodipodi-0.dtd"
   xmlns:inkscape="http://www.inkscape.org/namespaces/inkscape"
   version="1.1"
   id="Capa_1"
   x="0px"
   y="0px"
   width="24"
   height="24"
   viewBox="0 0 24 24"
   xml:space="preserve"
   inkscape:version="0.48.5 r10040"
   sodipodi:docname="bicycle_stop.svg"><metadata
     id="metadata42"><rdf:RDF><cc:Work
         rdf:about=""><dc:format>image/svg+xml</dc:format><dc:type
           rdf:resource="http://purl.org/dc/dcmitype/StillImage" /><dc:title></dc:title></cc:Work></rdf:RDF></metadata><defs
     id="defs40" /><sodipodi:namedview
     pagecolor="#ffffff"
     bordercolor="#666666"
     borderopacity="1"
     objecttolerance="10"
     gridtolerance="10"
     guidetolerance="10"
     inkscape:pageopacity="0"
     inkscape:pageshadow="2"
     inkscape:window-width="657"
     inkscape:window-height="480"
     id="namedview38"
     showgrid="false"
     inkscape:zoom="3.0849673"
     inkscape:cx="18.014299"
     inkscape:cy="19.318159"
     inkscape:window-x="0"
     inkscape:window-y="27"
     inkscape:window-maximized="0"
     inkscape:current-layer="Capa_1" /><g
     id="g3"
     transform="matrix(0.03654661,0,0,0.03654661,0.81673734,0.81673734)"><g
       id="directions-bike"><path
         d="m 408,132.6 c 25.5,0 45.9,-20.4 45.9,-45.9 0,-25.5 -20.4,-45.9 -45.9,-45.9 -25.5,0 -45.9,20.4 -45.9,45.9 0,25.5 20.4,45.9 45.9,45.9 z m 76.5,183.6 c -71.4,0 -127.5,56.1 -127.5,127.5 0,71.4 56.1,127.5 127.5,127.5 71.4,0 127.5,-56.099 127.5,-127.5 0,-71.401 -56.1,-127.5 -127.5,-127.5 z m 0,216.75 c -48.45,0 -89.25,-40.801 -89.25,-89.25 0,-48.451 40.8,-89.25 89.25,-89.25 48.45,0 89.25,40.799 89.25,89.25 0,48.449 -40.8,89.25 -89.25,89.25 z M 377.4,265.2 h 107.1 v -45.9 h -81.6 l -48.45,-84.15 c -7.65,-12.75 -20.4,-20.4 -38.25,-20.4 -12.75,0 -22.95,5.1 -30.6,12.75 l -94.35,94.35 c -7.65,7.65 -12.75,17.85 -12.75,30.6 0,15.3 7.65,30.6 20.4,38.25 l 86.7,51 v 127.5 h 45.9 V 303.45 l -56.1,-43.35 58.65,-58.65 43.35,63.75 z m -249.9,51 C 56.1,316.2 0,372.3 0,443.7 0,515.1 56.1,571.2 127.5,571.2 198.9,571.2 255,515.101 255,443.7 255,372.299 198.9,316.2 127.5,316.2 z m 0,216.75 c -48.45,0 -89.25,-40.801 -89.25,-89.25 0,-48.451 40.8,-89.25 89.25,-89.25 48.45,0 89.25,40.799 89.25,89.25 0,48.449 -40.8,89.25 -89.25,89.25 z"
         id="path6"
         inkscape:connector-curvature="0" /></g></g><g
     id="g8"
     transform="translate(0,-588)" /><g
     id="g10"
     transform="translate(0,-588)" /><g
     id="g12"
     transform="translate(0,-588)" /><g
     id="g14"
     transform="translate(0,-588)" /><g
     id="g16"
     transform="translate(0,-588)" /><g
     id="g18"
     transform="translate(0,-588)" /><g
     id="g20"
     transform="translate(0,-588)" /><g
     id="g22"
     transform="translate(0,-588)" /><g
     id="g24"
     transform="translate(0,-588)" /><g
     id="g26"
     transform="translate(0,-588)" /><g
     id="g28"
     transform="translate(0,-588)" /><g
     id="g30"
     transform="translate(0,-588)" /><g
     id="g32"
     transform="translate(0,-588)" /><g
     id="g34"
     transform="translate(0,-588)" /><g
     id="g36"
     transform="translate(0,-588)" /></svg>