<?xml version="1.0" encoding="UTF-8" standalone="no"?>
<!-- Generated by IcoMoon.io -->

<svg
   xmlns:dc="http://purl.org/dc/elements/1.1/"
   xmlns:cc="http://creativecommons.org/ns#"
   xmlns:rdf="http://www.w3.org/1999/02/22-rdf-syntax-ns#"
   xmlns:svg="http://www.w3.org/2000/svg"
   xmlns="http://www.w3.org/2000/svg"
   xmlns:sodipodi="http://sodipodi.sourceforge.net/DTD/sodipodi-0.dtd"
   xmlns:inkscape="http://www.inkscape.org/namespaces/inkscape"
   version="1.1"
   width="24"
   height="24"
   viewBox="0 0 24 24"
   id="svg3018"
   inkscape:version="0.48.5 r10040"
   sodipodi:docname="bicycle.svg">
  <metadata
     id="metadata3026">
    <rdf:RDF>
      <cc:Work
         rdf:about="">
        <dc:format>image/svg+xml</dc:format>
        <dc:type
           rdf:resource="http://purl.org/dc/dcmitype/StillImage" />
      </cc:Work>
    </rdf:RDF>
  </metadata>
  <defs
     id="defs3024" />
  <sodipodi:namedview
     pagecolor="#ffffff"
     bordercolor="#666666"
     borderopacity="1"
     objecttolerance="10"
     gridtolerance="10"
     guidetolerance="10"
     inkscape:pageopacity="0"
     inkscape:pageshadow="2"
     inkscape:window-width="657"
     inkscape:window-height="480"
     id="namedview3022"
     showgrid="false"
     inkscape:zoom="8.4285714"
     inkscape:cx="18"
     inkscape:cy="14"
     inkscape:window-x="0"
     inkscape:window-y="27"
     inkscape:window-maximized="0"
     inkscape:current-layer="svg3018" />
  <path
     d="M 8.1476689,14.528813 H 5.046079 q -0.3951271,0 -0.5677186,-0.345815 -0.1725916,-0.345815 0.064485,-0.661917 L 6.4002587,11.041579 Q 5.75794,10.735593 5.0467112,10.735593 q -1.3042356,0 -2.2323102,0.928707 -0.9280746,0.928707 -0.9287068,2.23231 -6.322e-4,1.303603 0.9287068,2.23231 0.929339,0.928707 2.2323102,0.928707 1.1360695,0 2.0053492,-0.716286 0.8692797,-0.716287 1.0962407,-1.812528 z M 6.3104858,13.264407 H 8.1476689 Q 7.9700197,12.424841 7.4067265,11.802752 z m 4.7415252,0 2.844915,-3.7932208 H 9.1554011 L 8.1773825,10.775422 q 1.0374457,1.017215 1.2448084,2.489617 h 1.6298201 z m 11.06356,0.632203 q 0,-1.304236 -0.928707,-2.23231 -0.928707,-0.928075 -2.23231,-0.928707 -0.593007,0 -1.195497,0.237076 l 1.718961,2.568011 q 0.147936,0.226961 0.09862,0.484267 -0.04931,0.257307 -0.26679,0.395127 -0.147936,0.108739 -0.355298,0.108739 -0.345816,0 -0.523465,-0.286388 l -1.718957,-2.56801 q -0.918591,0.93819 -0.918591,2.222827 0,1.304236 0.928706,2.232311 0.928707,0.928074 2.232311,0.928706 1.303603,6.33e-4 2.23231,-0.928706 0.928707,-0.92934 0.928707,-2.232311 z m 1.264406,0 q 0,1.8277 -1.299178,3.126246 -1.299178,1.298546 -3.126245,1.299178 -1.827068,6.32e-4 -3.126246,-1.299178 -1.299178,-1.29981 -1.299178,-3.126246 0,-0.95842 0.390069,-1.812527 0.39007,-0.854107 1.0817,-1.476827 L 15.358581,9.6393523 11.871347,14.272139 q -0.177649,0.256674 -0.503866,0.256674 H 9.4215587 q -0.226961,1.619706 -1.4717695,2.706463 -1.2448085,1.086758 -2.9043424,1.086758 -1.8277,0 -3.1262458,-1.299178 Q 0.62065527,15.723678 0.62002306,13.89661 0.61939086,12.069542 1.919201,10.770364 3.2190112,9.4711862 5.0454468,9.4711862 q 1.1259543,0 2.1235712,0.5430628 L 8.5225655,8.2067794 H 6.3098536 q -0.2566746,0 -0.444439,-0.1877644 -0.1877644,-0.1877644 -0.1877644,-0.444439 0,-0.2566746 0.1877644,-0.444439 Q 6.053179,6.9423726 6.3098536,6.9423726 H 10.103074 V 8.2067794 H 14.40016 L 13.560594,6.9423726 h -2.193113 q -0.256675,0 -0.444439,-0.1877644 -0.187765,-0.1877644 -0.187765,-0.444439 0,-0.2566745 0.187765,-0.4444389 0.187764,-0.1877645 0.444439,-0.1877645 h 2.528813 q 0.326217,0 0.523465,0.2769051 l 2.637552,3.9512712 q 0.898993,-0.4349559 1.89661,-0.4349559 1.8277,0 3.126246,1.2991778 1.298546,1.299178 1.299178,3.126246 z"
     id="path3020"
     inkscape:connector-curvature="0"
     style="fill:#444444" />
</svg>
