<?xml version="1.0" encoding="UTF-8" standalone="no"?>
<!-- Generated by IcoMoon.io -->

<svg
   xmlns:dc="http://purl.org/dc/elements/1.1/"
   xmlns:cc="http://creativecommons.org/ns#"
   xmlns:rdf="http://www.w3.org/1999/02/22-rdf-syntax-ns#"
   xmlns:svg="http://www.w3.org/2000/svg"
   xmlns="http://www.w3.org/2000/svg"
   xmlns:sodipodi="http://sodipodi.sourceforge.net/DTD/sodipodi-0.dtd"
   xmlns:inkscape="http://www.inkscape.org/namespaces/inkscape"
   version="1.1"
   width="24"
   height="24"
   viewBox="0 0 24 24"
   id="svg3028"
   inkscape:version="0.48.5 r10040"
   sodipodi:docname="bike.svg">
  <metadata
     id="metadata3036">
    <rdf:RDF>
      <cc:Work
         rdf:about="">
        <dc:format>image/svg+xml</dc:format>
        <dc:type
           rdf:resource="http://purl.org/dc/dcmitype/StillImage" />
      </cc:Work>
    </rdf:RDF>
  </metadata>
  <defs
     id="defs3034" />
  <sodipodi:namedview
     pagecolor="#ffffff"
     bordercolor="#666666"
     borderopacity="1"
     objecttolerance="10"
     gridtolerance="10"
     guidetolerance="10"
     inkscape:pageopacity="0"
     inkscape:pageshadow="2"
     inkscape:window-width="657"
     inkscape:window-height="480"
     id="namedview3032"
     showgrid="false"
     inkscape:zoom="7.375"
     inkscape:cx="32.474576"
     inkscape:cy="16"
     inkscape:window-x="0"
     inkscape:window-y="27"
     inkscape:window-maximized="0"
     inkscape:current-layer="svg3028" />
  <path
     d="M 17.005303,9.0557048 H 14.649867 V 7.8779865 h 2.355436 c 0.32505,0 0.588859,0.26322 0.588859,0.5888591 0,0.3250503 -0.263809,0.5888592 -0.588859,0.5888592 z M 15.238726,3.7559724 c 0,-0.9757399 -0.790839,-1.7665775 -1.766579,-1.7665775 h -2.944295 c -0.9757395,0 -1.7665774,0.7908376 -1.7665774,1.7665775 v 3.533155 H 8.1724155 v -3.533155 c 0,-1.3007901 1.0546467,-2.3554367 2.3554365,-2.3554367 h 2.944295 c 1.30079,0 2.355438,1.0546466 2.355438,2.3554367 v 3.533155 H 15.238726 V 3.7559724 z M 9.3501338,9.0557048 H 6.9946971 c -0.3256391,0 -0.5888591,-0.2638089 -0.5888591,-0.5888592 0,-0.3256391 0.26322,-0.5888591 0.5888591,-0.5888591 H 9.3501338 V 9.0557048 z M 12,10.527853 c -1.138853,0 -2.0610071,-0.9227426 -2.0610071,-2.0610074 0,-1.1388536 0.9221541,-2.061007 2.0610071,-2.061007 1.138853,0 2.061007,0.9221534 2.061007,2.061007 0,1.1382648 -0.922742,2.0610074 -2.061007,2.0610074 z m 0,-3.2387256 c -0.6501,0 -1.177718,0.5276178 -1.177718,1.1777182 0,0.6501006 0.527618,1.1777184 1.177718,1.1777184 0.650101,0 1.177718,-0.5276178 1.177718,-1.1777184 C 13.177718,7.8167452 12.650101,7.2891274 12,7.2891274 z M 10.004945,9.706983 C 10.42068,10.37416 11.155576,10.822282 12,10.822282 c 0.844424,0 1.578732,-0.448122 1.995055,-1.115299 1.048169,0.238488 1.83253,1.172418 1.83253,2.293017 v 5.888591 c 0,1.095867 -0.752563,2.009188 -1.766578,2.27182 v -3.192206 c 0,-1.138264 -0.922742,-2.061007 -2.061007,-2.061007 -1.138265,0 -2.0610071,0.922743 -2.0610071,2.061007 v 3.192206 C 8.9243886,19.897779 8.1724155,18.984458 8.1724155,17.888591 V 12 c 0,-1.120599 0.7843604,-2.054529 1.8325295,-2.293017 z M 12,15.533155 c 0.813214,0 1.472147,0.658934 1.472147,1.472148 v 4.122014 c 0,0.813214 -0.658933,1.472147 -1.472147,1.472147 -0.813215,0 -1.472148,-0.658933 -1.472148,-1.472147 v -4.122014 c 0,-0.813214 0.658933,-1.472148 1.472148,-1.472148 z"
     id="path3030"
     inkscape:connector-curvature="0"
     style="fill:#444444" />
</svg>
