<?xml version="1.0" encoding="UTF-8" standalone="yes"?>
<svg xmlns="http://www.w3.org/2000/svg" xmlns:xlink="http://www.w3.org/1999/xlink" width="24px" height="24px" viewBox="0 0 18 18" version="1.1">
  <g id="surface1">
    <path style=" stroke:none;fill-rule:nonzero;fill:rgb(0%,0%,0%);fill-opacity:1;" d="M 11.21875 17.925781 L 6.78125 17.925781 C 6.640625 17.925781 6.511719 17.867188 6.417969 17.761719 C 6.183594 17.5 6.230469 16.988281 6.25 16.839844 C 6.402344 12.285156 6.011719 8.699219 5.050781 5.894531 C 4.199219 3.40625 5.011719 0.410156 5.046875 0.28125 L 5.105469 0.0742188 L 12.894531 0.0742188 L 12.953125 0.28125 C 12.988281 0.410156 13.800781 3.402344 12.949219 5.894531 C 11.988281 8.699219 11.597656 12.285156 11.753906 16.867188 C 11.769531 16.988281 11.816406 17.5 11.582031 17.761719 C 11.488281 17.867188 11.363281 17.925781 11.21875 17.925781 Z M 6.832031 17.355469 L 11.167969 17.355469 C 11.195312 17.269531 11.203125 17.074219 11.183594 16.914062 C 11.023438 12.238281 11.425781 8.578125 12.40625 5.710938 C 13.078125 3.746094 12.617188 1.359375 12.453125 0.648438 L 5.546875 0.648438 C 5.382812 1.359375 4.921875 3.75 5.59375 5.707031 C 6.578125 8.578125 6.976562 12.234375 6.820312 16.886719 C 6.796875 17.070312 6.804688 17.269531 6.832031 17.355469 Z M 6.832031 17.355469 "/>
    <path style=" stroke:none;fill-rule:nonzero;fill:rgb(0%,0%,0%);fill-opacity:1;" d="M 10.28125 9.035156 C 10.28125 9.035156 10.277344 9.035156 10.277344 9.035156 C 10.203125 9.035156 10.148438 9.082031 10.144531 9.144531 C 10.140625 9.175781 10.148438 9.207031 10.171875 9.234375 C 10.191406 9.261719 10.21875 9.277344 10.253906 9.28125 L 10.265625 9.28125 C 10.328125 9.28125 10.382812 9.234375 10.390625 9.171875 C 10.394531 9.105469 10.347656 9.046875 10.28125 9.035156 Z M 10.28125 9.035156 "/>
    <path style=" stroke:none;fill-rule:nonzero;fill:rgb(0%,0%,0%);fill-opacity:1;" d="M 9.914062 10.230469 C 9.871094 10.230469 9.839844 10.257812 9.835938 10.292969 C 9.832031 10.332031 9.859375 10.367188 9.898438 10.371094 L 9.90625 10.371094 C 9.941406 10.371094 9.972656 10.34375 9.976562 10.308594 C 9.980469 10.269531 9.953125 10.234375 9.914062 10.230469 Z M 9.914062 10.230469 "/>
    <path style=" stroke:none;fill-rule:nonzero;fill:rgb(0%,0%,0%);fill-opacity:1;" d="M 9.617188 9.410156 C 9.558594 9.410156 9.523438 9.445312 9.515625 9.488281 C 9.511719 9.539062 9.546875 9.582031 9.597656 9.589844 L 9.609375 9.589844 C 9.65625 9.589844 9.695312 9.554688 9.699219 9.507812 C 9.703125 9.484375 9.695312 9.460938 9.679688 9.441406 C 9.664062 9.421875 9.644531 9.410156 9.617188 9.410156 Z M 9.617188 9.410156 "/>
    <path style=" stroke:none;fill-rule:nonzero;fill:rgb(0%,0%,0%);fill-opacity:1;" d="M 9.769531 8.390625 L 9.785156 8.390625 C 9.863281 8.390625 9.925781 8.332031 9.933594 8.257812 C 9.9375 8.21875 9.925781 8.179688 9.902344 8.148438 C 9.878906 8.117188 9.84375 8.097656 9.804688 8.09375 C 9.800781 8.09375 9.800781 8.09375 9.800781 8.09375 C 9.707031 8.09375 9.648438 8.148438 9.636719 8.226562 C 9.628906 8.304688 9.691406 8.378906 9.769531 8.390625 Z M 9.769531 8.390625 "/>
    <path style=" stroke:none;fill-rule:nonzero;fill:rgb(0%,0%,0%);fill-opacity:1;" d="M 10.554688 7.574219 C 10.554688 7.574219 10.554688 7.574219 10.550781 7.574219 C 10.457031 7.574219 10.390625 7.632812 10.382812 7.710938 C 10.378906 7.753906 10.390625 7.792969 10.414062 7.824219 C 10.441406 7.859375 10.476562 7.878906 10.519531 7.882812 L 10.539062 7.882812 C 10.617188 7.882812 10.683594 7.824219 10.691406 7.746094 C 10.695312 7.707031 10.683594 7.664062 10.660156 7.632812 C 10.632812 7.601562 10.597656 7.578125 10.554688 7.574219 Z M 10.554688 7.574219 "/>
    <path style=" stroke:none;fill-rule:nonzero;fill:rgb(0%,0%,0%);fill-opacity:1;" d="M 12.167969 5.507812 C 11.601562 5.542969 10.921875 5.46875 10.121094 5.226562 C 8.273438 4.671875 6.789062 4.761719 5.695312 5.003906 C 5.738281 5.210938 5.796875 5.414062 5.863281 5.617188 C 6.859375 8.519531 7.265625 12.210938 7.105469 16.898438 L 7.101562 16.949219 C 7.097656 16.988281 7.09375 17.027344 7.09375 17.070312 L 10.90625 17.070312 C 10.90625 17.027344 10.902344 16.984375 10.898438 16.949219 L 10.894531 16.894531 C 10.734375 12.207031 11.140625 8.519531 12.136719 5.613281 C 12.148438 5.582031 12.15625 5.546875 12.167969 5.507812 Z M 9.976562 6.679688 C 10.058594 6.691406 10.132812 6.738281 10.179688 6.804688 C 10.230469 6.875 10.25 6.957031 10.238281 7.039062 C 10.210938 7.195312 10.082031 7.304688 9.925781 7.304688 C 9.910156 7.304688 9.890625 7.304688 9.875 7.300781 C 9.703125 7.273438 9.585938 7.113281 9.613281 6.941406 C 9.644531 6.773438 9.800781 6.652344 9.976562 6.679688 Z M 9.816406 7.953125 C 9.894531 7.960938 9.964844 8 10.011719 8.058594 C 10.0625 8.121094 10.082031 8.195312 10.074219 8.273438 C 10.058594 8.421875 9.933594 8.53125 9.785156 8.53125 C 9.773438 8.53125 9.765625 8.53125 9.753906 8.53125 C 9.59375 8.511719 9.476562 8.367188 9.496094 8.210938 C 9.515625 8.050781 9.65625 7.929688 9.816406 7.953125 Z M 9.582031 9.730469 C 9.453125 9.714844 9.359375 9.601562 9.375 9.472656 C 9.390625 9.34375 9.507812 9.25 9.632812 9.265625 C 9.695312 9.273438 9.753906 9.304688 9.792969 9.351562 C 9.832031 9.402344 9.847656 9.460938 9.84375 9.523438 C 9.828125 9.644531 9.730469 9.730469 9.609375 9.730469 C 9.597656 9.730469 9.589844 9.730469 9.582031 9.730469 Z M 9.90625 10.515625 L 9.882812 10.511719 C 9.765625 10.5 9.679688 10.394531 9.695312 10.277344 C 9.707031 10.167969 9.796875 10.085938 9.90625 10.085938 L 9.929688 10.089844 C 10.046875 10.101562 10.132812 10.207031 10.117188 10.324219 C 10.105469 10.433594 10.015625 10.515625 9.90625 10.515625 Z M 10.265625 9.425781 C 10.257812 9.425781 10.246094 9.421875 10.238281 9.421875 C 10.167969 9.414062 10.101562 9.378906 10.058594 9.324219 C 10.015625 9.269531 9.996094 9.199219 10.003906 9.128906 C 10.019531 8.984375 10.148438 8.878906 10.296875 8.894531 C 10.441406 8.910156 10.546875 9.042969 10.53125 9.1875 C 10.515625 9.320312 10.402344 9.425781 10.265625 9.425781 Z M 10.539062 8.027344 C 10.527344 8.027344 10.515625 8.027344 10.503906 8.027344 C 10.425781 8.015625 10.355469 7.980469 10.304688 7.917969 C 10.253906 7.855469 10.230469 7.777344 10.242188 7.695312 C 10.257812 7.535156 10.410156 7.414062 10.570312 7.433594 C 10.648438 7.441406 10.722656 7.480469 10.769531 7.542969 C 10.820312 7.605469 10.84375 7.683594 10.835938 7.761719 C 10.816406 7.914062 10.691406 8.027344 10.539062 8.027344 Z M 10.566406 6.554688 C 10.554688 6.554688 10.546875 6.554688 10.53125 6.554688 C 10.449219 6.542969 10.371094 6.503906 10.320312 6.4375 C 10.265625 6.371094 10.242188 6.289062 10.253906 6.207031 C 10.273438 6.03125 10.425781 5.90625 10.601562 5.925781 C 10.6875 5.933594 10.761719 5.976562 10.816406 6.042969 C 10.867188 6.109375 10.890625 6.191406 10.882812 6.273438 C 10.863281 6.433594 10.730469 6.554688 10.566406 6.554688 Z M 10.566406 6.554688 "/>
    <path style=" stroke:none;fill-rule:nonzero;fill:rgb(0%,0%,0%);fill-opacity:1;" d="M 9.898438 7.160156 C 9.992188 7.175781 10.082031 7.109375 10.097656 7.019531 C 10.105469 6.972656 10.09375 6.925781 10.066406 6.890625 C 10.039062 6.851562 10 6.828125 9.953125 6.820312 C 9.945312 6.820312 9.9375 6.820312 9.929688 6.820312 C 9.84375 6.820312 9.773438 6.878906 9.757812 6.964844 C 9.742188 7.058594 9.804688 7.144531 9.898438 7.160156 Z M 9.898438 7.160156 "/>
    <path style=" stroke:none;fill-rule:nonzero;fill:rgb(0%,0%,0%);fill-opacity:1;" d="M 10.585938 6.066406 C 10.578125 6.066406 10.574219 6.066406 10.566406 6.066406 C 10.476562 6.066406 10.40625 6.132812 10.394531 6.222656 C 10.390625 6.265625 10.402344 6.3125 10.433594 6.347656 C 10.460938 6.382812 10.503906 6.40625 10.550781 6.414062 C 10.648438 6.421875 10.730469 6.355469 10.742188 6.261719 C 10.746094 6.214844 10.730469 6.167969 10.703125 6.132812 C 10.671875 6.09375 10.632812 6.074219 10.585938 6.066406 Z M 10.585938 6.066406 "/>
  </g>
</svg>