<?xml version="1.0" encoding="UTF-8" standalone="yes"?>
<svg xmlns="http://www.w3.org/2000/svg" xmlns:xlink="http://www.w3.org/1999/xlink" width="24px" height="24px" viewBox="0 0 18 18" version="1.1">
  <g id="surface1">
    <path style=" stroke:none;fill-rule:nonzero;fill:rgb(0%,0%,0%);fill-opacity:1;" d="M 12.234375 16.546875 L 9.539062 16.546875 L 9.539062 11.105469 C 10.714844 10.984375 11.816406 10.5 12.679688 9.667969 C 14.710938 7.707031 14.847656 2.679688 12.929688 0.554688 L 12.765625 0.375 L 5.230469 0.375 L 5.070312 0.554688 C 3.152344 2.679688 3.289062 7.707031 5.320312 9.667969 C 6.179688 10.5 7.285156 10.984375 8.460938 11.105469 L 8.460938 16.546875 L 5.765625 16.546875 C 5.46875 16.546875 5.226562 16.789062 5.226562 17.085938 C 5.226562 17.382812 5.46875 17.625 5.765625 17.625 L 12.234375 17.625 C 12.53125 17.625 12.773438 17.382812 12.773438 17.085938 C 12.773438 16.789062 12.53125 16.546875 12.234375 16.546875 Z M 5.722656 1.453125 L 12.273438 1.453125 C 13.660156 3.265625 13.5 7.375 11.929688 8.894531 C 10.351562 10.417969 7.648438 10.421875 6.070312 8.894531 C 4.5 7.375 4.339844 3.265625 5.722656 1.453125 Z M 6.445312 8.507812 C 5.660156 7.75 5.28125 6.1875 5.324219 4.6875 L 12.675781 4.6875 C 12.71875 6.1875 12.339844 7.75 11.554688 8.507812 C 10.25 9.769531 7.75 9.769531 6.445312 8.507812 Z M 6.445312 8.507812 "/>
  </g>
</svg>