<?xml version="1.0" encoding="UTF-8" standalone="yes"?>
<svg xmlns="http://www.w3.org/2000/svg" xmlns:xlink="http://www.w3.org/1999/xlink" width="24px" height="24px" viewBox="0 0 18 18" version="1.1">
  <g id="surface1">
    <path style=" stroke:none;fill-rule:nonzero;fill:rgb(0%,0%,0%);fill-opacity:1;" d="M 13.371094 1.132812 L 4.628906 1.132812 C 3.667969 1.132812 2.878906 1.917969 2.878906 2.878906 L 2.878906 16.867188 L 9 14.242188 L 15.117188 16.867188 L 15.117188 2.878906 C 15.117188 1.917969 14.332031 1.132812 13.371094 1.132812 Z M 11.996094 7.628906 C 11.996094 7.894531 11.777344 8.113281 11.511719 8.113281 L 9.765625 8.113281 L 9.765625 9.855469 C 9.765625 10.117188 9.546875 10.335938 9.28125 10.335938 L 8.804688 10.335938 C 8.539062 10.335938 8.324219 10.117188 8.324219 9.855469 L 8.324219 8.113281 L 6.574219 8.113281 C 6.3125 8.113281 6.097656 7.894531 6.097656 7.628906 L 6.097656 7.148438 C 6.097656 6.882812 6.3125 6.664062 6.574219 6.664062 L 8.324219 6.664062 L 8.324219 4.921875 C 8.324219 4.652344 8.539062 4.441406 8.804688 4.441406 L 9.28125 4.441406 C 9.546875 4.441406 9.765625 4.652344 9.765625 4.921875 L 9.765625 6.664062 L 11.511719 6.664062 C 11.777344 6.664062 11.996094 6.882812 11.996094 7.148438 Z M 11.996094 7.628906 "/>
  </g>
</svg>