<?xml version="1.0" encoding="UTF-8" standalone="no"?>
<!-- Generated by IcoMoon.io -->

<svg
   xmlns:dc="http://purl.org/dc/elements/1.1/"
   xmlns:cc="http://creativecommons.org/ns#"
   xmlns:rdf="http://www.w3.org/1999/02/22-rdf-syntax-ns#"
   xmlns:svg="http://www.w3.org/2000/svg"
   xmlns="http://www.w3.org/2000/svg"
   xmlns:sodipodi="http://sodipodi.sourceforge.net/DTD/sodipodi-0.dtd"
   xmlns:inkscape="http://www.inkscape.org/namespaces/inkscape"
   version="1.1"
   width="24"
   height="24"
   viewBox="0 0 24 24"
   id="svg3038"
   inkscape:version="0.48.5 r10040"
   sodipodi:docname="book.svg">
  <metadata
     id="metadata3052">
    <rdf:RDF>
      <cc:Work
         rdf:about="">
        <dc:format>image/svg+xml</dc:format>
        <dc:type
           rdf:resource="http://purl.org/dc/dcmitype/StillImage" />
      </cc:Work>
    </rdf:RDF>
  </metadata>
  <defs
     id="defs3050" />
  <sodipodi:namedview
     pagecolor="#ffffff"
     bordercolor="#666666"
     borderopacity="1"
     objecttolerance="10"
     gridtolerance="10"
     guidetolerance="10"
     inkscape:pageopacity="0"
     inkscape:pageshadow="2"
     inkscape:window-width="657"
     inkscape:window-height="480"
     id="namedview3048"
     showgrid="false"
     inkscape:zoom="7.375"
     inkscape:cx="8.0713415"
     inkscape:cy="16"
     inkscape:window-x="0"
     inkscape:window-y="27"
     inkscape:window-maximized="0"
     inkscape:current-layer="svg3038" />
  <path
     d="M 5.0169491,3.7288136 H 0.94915254 c -0.3728814,0 -0.6779661,0.3050847 -0.6779661,0.6779661 V 19.322034 C 0.27118644,19.694915 0.57627114,20 0.94915254,20 H 5.0169491 c 0.3728814,0 0.6779661,-0.305085 0.6779661,-0.677966 V 4.4067797 c 0,-0.3728814 -0.3050847,-0.6779661 -0.6779661,-0.6779661 z M 4.338983,7.7966102 H 1.6271186 V 6.440678 H 4.338983 v 1.3559322 z"
     id="path3040"
     inkscape:connector-curvature="0"
     style="fill:#444444" />
  <path
     d="M 11.79661,3.7288136 H 7.7288135 c -0.3728813,0 -0.6779661,0.3050847 -0.6779661,0.6779661 V 19.322034 C 7.0508474,19.694915 7.3559322,20 7.7288135,20 H 11.79661 c 0.372881,0 0.677966,-0.305085 0.677966,-0.677966 V 4.4067797 c 0,-0.3728814 -0.305085,-0.6779661 -0.677966,-0.6779661 z M 11.118644,7.7966102 H 8.4067794 V 6.440678 h 2.7118646 v 1.3559322 z"
     id="path3042"
     inkscape:connector-curvature="0"
     style="fill:#444444" />
  <path
     d="m 16.480678,4.7769492 -3.632543,1.8305084 c -0.332881,0.1674577 -0.468474,0.5776271 -0.300339,0.9105085 l 6.101017,12.1091529 c 0.167458,0.332881 0.577627,0.468474 0.910509,0.300339 l 3.632542,-1.830509 c 0.332881,-0.167457 0.468475,-0.577627 0.300339,-0.910508 L 17.391186,5.0772881 C 17.223728,4.7444068 16.813559,4.6088136 16.480678,4.7769492 z"
     id="path3044"
     inkscape:connector-curvature="0"
     style="fill:#444444" />
  <path
     d="M 19.932203,19.322034 C 19.932203,19.696271 19.628474,20 19.254237,20 18.88,20 18.576271,19.696271 18.576271,19.322034 c 0,-0.374237 0.303729,-0.677966 0.677966,-0.677966 0.374237,0 0.677966,0.303729 0.677966,0.677966 z"
     id="path3046"
     inkscape:connector-curvature="0"
     style="fill:#444444" />
</svg>
