<?xml version="1.0" encoding="UTF-8" standalone="yes"?>
<svg xmlns="http://www.w3.org/2000/svg" xmlns:xlink="http://www.w3.org/1999/xlink" width="24px" height="24px" viewBox="0 0 18 18" version="1.1">
  <g id="surface1">
    <path style=" stroke:none;fill-rule:nonzero;fill:rgb(0%,0%,0%);fill-opacity:1;" d="M 13.371094 1.132812 L 4.628906 1.132812 C 3.667969 1.132812 2.878906 1.917969 2.878906 2.878906 L 2.878906 16.867188 L 9 14.242188 L 15.117188 16.867188 L 15.117188 2.878906 C 15.117188 1.917969 14.332031 1.132812 13.371094 1.132812 Z M 11.910156 6.785156 L 8.820312 9.871094 C 8.691406 10.003906 8.511719 10.078125 8.328125 10.078125 C 8.140625 10.078125 7.964844 10.003906 7.832031 9.871094 L 6.300781 8.339844 C 6.027344 8.070312 6.027344 7.625 6.300781 7.351562 C 6.433594 7.222656 6.609375 7.148438 6.796875 7.148438 C 6.980469 7.148438 7.15625 7.222656 7.289062 7.351562 L 8.203125 8.265625 C 8.234375 8.296875 8.277344 8.316406 8.324219 8.316406 C 8.371094 8.316406 8.417969 8.296875 8.449219 8.265625 L 10.921875 5.796875 C 11.054688 5.664062 11.230469 5.589844 11.414062 5.589844 C 11.601562 5.589844 11.777344 5.664062 11.910156 5.796875 C 12.183594 6.066406 12.183594 6.511719 11.910156 6.785156 Z M 11.910156 6.785156 "/>
  </g>
</svg>