<?xml version="1.0" encoding="UTF-8" standalone="yes"?>
<svg xmlns="http://www.w3.org/2000/svg" xmlns:xlink="http://www.w3.org/1999/xlink" width="24px" height="24px" viewBox="0 0 18 18" version="1.1">
  <g id="surface1">
    <path style=" stroke:none;fill-rule:nonzero;fill:rgb(0%,0%,0%);fill-opacity:1;" d="M 12.394531 3.105469 L 12.394531 0.855469 L 9.097656 0.0585938 L 9.097656 0.0546875 L 9.085938 0.0585938 L 9.078125 0.0546875 L 9.078125 0.0585938 L 5.621094 0.886719 L 5.621094 3.152344 L 4.679688 3.332031 L 4.679688 17.425781 L 9.097656 17.945312 L 13.320312 17.445312 L 13.320312 3.285156 Z M 5.160156 4.121094 L 8.421875 3.558594 L 8.421875 4.261719 L 5.160156 4.773438 Z M 5.160156 5.457031 L 8.421875 4.988281 L 8.421875 5.691406 L 5.160156 6.109375 Z M 5.15625 6.8125 L 8.414062 6.441406 L 8.414062 7.144531 L 5.15625 7.46875 Z M 5.15625 8.148438 L 8.414062 7.875 L 8.414062 8.574219 L 5.15625 8.804688 Z M 8.414062 14.609375 L 5.15625 14.4375 L 5.15625 13.785156 L 8.414062 13.90625 Z M 8.414062 13.179688 L 5.15625 13.105469 L 5.15625 12.449219 L 8.414062 12.476562 Z M 8.421875 11.609375 L 5.160156 11.640625 L 5.160156 10.984375 L 8.421875 10.910156 Z M 8.421875 10.179688 L 5.160156 10.304688 L 5.160156 9.648438 L 8.421875 9.480469 Z M 9.769531 3.59375 L 12.890625 4.132812 L 12.890625 4.804688 L 9.769531 4.3125 Z M 12.898438 5.464844 L 12.898438 6.136719 L 9.78125 5.734375 L 9.78125 5.015625 Z M 9.75 6.515625 L 12.871094 6.867188 L 12.871094 7.542969 L 9.75 7.234375 Z M 9.761719 7.9375 L 12.878906 8.199219 L 12.878906 8.871094 L 9.761719 8.65625 Z M 12.898438 9.679688 L 12.898438 10.355469 L 9.78125 10.238281 L 9.78125 9.519531 Z M 9.78125 12.492188 L 12.898438 12.464844 L 12.898438 13.136719 L 9.78125 13.210938 Z M 12.90625 14.464844 L 9.789062 14.632812 L 9.789062 13.914062 L 12.90625 13.792969 Z M 12.90625 11.683594 L 9.789062 11.65625 L 9.789062 10.941406 L 12.90625 11.011719 Z M 12.90625 11.683594 "/>
  </g>
</svg>