<?xml version="1.0" encoding="UTF-8" standalone="yes"?>
<svg xmlns="http://www.w3.org/2000/svg" xmlns:xlink="http://www.w3.org/1999/xlink" width="24px" height="24px" viewBox="0 0 18 18" version="1.1">
  <g id="surface1">
    <path style=" stroke:none;fill-rule:nonzero;fill:rgb(0%,0%,0%);fill-opacity:1;" d="M 10.9375 14.601562 C 10.679688 14.414062 10.652344 14.125 10.652344 14.125 L 10.554688 13.5 L 7.445312 13.5 L 7.347656 14.125 C 7.347656 14.125 7.320312 14.414062 7.0625 14.601562 C 6.800781 14.792969 6.597656 14.957031 6.800781 14.988281 C 7 15.011719 8.863281 14.988281 9 14.988281 C 9.136719 14.988281 11 15.011719 11.199219 14.988281 C 11.402344 14.957031 11.199219 14.796875 10.9375 14.601562 Z M 10.9375 14.601562 "/>
    <path style=" stroke:none;fill-rule:nonzero;fill:rgb(0%,0%,0%);fill-opacity:1;" d="M 4.914062 8.027344 L 6.113281 8.027344 L 6.113281 10.277344 L 4.914062 10.277344 Z M 4.914062 8.027344 "/>
    <path style=" stroke:none;fill-rule:nonzero;fill:rgb(0%,0%,0%);fill-opacity:1;" d="M 7.460938 6.976562 L 8.664062 6.976562 L 8.664062 10.277344 L 7.460938 10.277344 Z M 7.460938 6.976562 "/>
    <path style=" stroke:none;fill-rule:nonzero;fill:rgb(0%,0%,0%);fill-opacity:1;" d="M 9.863281 8.027344 L 11.0625 8.027344 L 11.0625 10.277344 L 9.863281 10.277344 Z M 9.863281 8.027344 "/>
    <path style=" stroke:none;fill-rule:nonzero;fill:rgb(0%,0%,0%);fill-opacity:1;" d="M 12.113281 6.976562 L 13.3125 6.976562 L 13.3125 10.277344 L 12.113281 10.277344 Z M 12.113281 6.976562 "/>
    <path style=" stroke:none;fill-rule:nonzero;fill:rgb(0%,0%,0%);fill-opacity:1;" d="M 10.625 7.261719 L 13.976562 4.835938 L 13.625 4.351562 L 10.601562 6.539062 L 8.226562 5.015625 L 4.023438 7.179688 L 4.300781 7.710938 L 8.195312 5.710938 Z M 10.625 7.261719 "/>
    <path style=" stroke:none;fill-rule:nonzero;fill:rgb(0%,0%,0%);fill-opacity:1;" d="M 15.898438 3 L 2.101562 3 C 1.769531 3 1.5 3.269531 1.5 3.601562 L 1.5 12.300781 C 1.5 12.632812 1.769531 12.902344 2.101562 12.902344 L 15.898438 12.902344 C 16.230469 12.902344 16.5 12.632812 16.5 12.300781 L 16.5 3.601562 C 16.5 3.269531 16.230469 3 15.898438 3 Z M 15.601562 11.101562 L 2.398438 11.101562 L 2.398438 3.902344 L 15.601562 3.902344 Z M 15.601562 11.101562 "/>
  </g>
</svg>