<?xml version="1.0" encoding="UTF-8" standalone="yes"?>
<svg xmlns="http://www.w3.org/2000/svg" xmlns:xlink="http://www.w3.org/1999/xlink" width="24px" height="24px" viewBox="0 0 18 18" version="1.1">
  <g id="surface1">
    <path style=" stroke:none;fill-rule:nonzero;fill:rgb(0%,0%,0%);fill-opacity:1;" d="M 4.382812 13.328125 C 4.382812 12.683594 3.851562 12.164062 3.195312 12.164062 C 2.539062 12.164062 2.007812 12.683594 2.007812 13.328125 C 2.007812 13.96875 2.539062 14.488281 3.195312 14.488281 C 3.851562 14.488281 4.382812 13.96875 4.382812 13.328125 Z M 4.382812 13.328125 "/>
    <path style=" stroke:none;fill-rule:nonzero;fill:rgb(0%,0%,0%);fill-opacity:1;" d="M 7.519531 13.464844 C 7.519531 12.824219 6.988281 12.304688 6.332031 12.304688 C 5.675781 12.304688 5.144531 12.824219 5.144531 13.464844 C 5.144531 14.105469 5.675781 14.628906 6.332031 14.628906 C 6.988281 14.628906 7.519531 14.105469 7.519531 13.464844 Z M 7.519531 13.464844 "/>
    <path style=" stroke:none;fill-rule:nonzero;fill:rgb(0%,0%,0%);fill-opacity:1;" d="M 15.414062 13.328125 C 15.414062 12.683594 14.882812 12.164062 14.226562 12.164062 C 13.570312 12.164062 13.039062 12.683594 13.039062 13.328125 C 13.039062 13.96875 13.570312 14.488281 14.226562 14.488281 C 14.882812 14.488281 15.414062 13.96875 15.414062 13.328125 Z M 15.414062 13.328125 "/>
    <path style=" stroke:none;fill-rule:nonzero;fill:rgb(0%,0%,0%);fill-opacity:1;" d="M 11.003906 7.894531 C 11.003906 7.894531 10.355469 10.457031 9.984375 10.679688 L 11.003906 10.679688 Z M 11.003906 7.894531 "/>
    <path style=" stroke:none;fill-rule:nonzero;fill:rgb(0%,0%,0%);fill-opacity:1;" d="M 0.738281 9.296875 L 0.738281 10.644531 L 3.597656 10.644531 L 2.011719 9.296875 Z M 0.738281 9.296875 "/>
    <path style=" stroke:none;fill-rule:nonzero;fill:rgb(0%,0%,0%);fill-opacity:1;" d="M 10.433594 5.117188 C 10.433594 5.117188 6.878906 2.15625 1.5 3.949219 C 1.5 3.949219 0.207031 4.878906 0.738281 7.59375 C 0.738281 7.59375 2.859375 10.058594 5.804688 10.558594 L 5.953125 10.644531 L 9.683594 10.644531 C 9.683594 10.644531 10.832031 9.054688 10.863281 6.722656 C 10.863281 6.722656 10.886719 5.777344 10.433594 5.117188 Z M 10.433594 5.117188 "/>
    <path style=" stroke:none;fill-rule:nonzero;fill:rgb(0%,0%,0%);fill-opacity:1;" d="M 17.058594 10.972656 L 17.058594 8.203125 C 17.058594 7.671875 16.792969 7.203125 16.386719 6.910156 C 16.113281 6.714844 15.78125 6.59375 15.414062 6.59375 L 12.464844 6.59375 L 12.464844 10.972656 L 11.96875 10.972656 L 11.96875 6.9375 L 11.28125 6.9375 L 11.28125 10.972656 L 0.636719 10.972656 L 0.636719 12.992188 L 1.324219 12.992188 C 1.484375 12.125 2.261719 11.464844 3.195312 11.464844 L 6.332031 11.464844 C 7.265625 11.464844 8.039062 12.125 8.203125 12.992188 L 12.355469 12.992188 C 12.515625 12.125 13.292969 11.464844 14.226562 11.464844 C 15.160156 11.464844 15.933594 12.125 16.097656 12.992188 L 17.390625 12.992188 L 17.390625 10.972656 Z M 13.925781 9.792969 L 13.039062 9.792969 L 13.039062 7.207031 L 13.925781 7.207031 Z M 14.226562 9.792969 L 14.226562 7.207031 L 15.414062 7.207031 C 15.414062 7.207031 16.34375 7.289062 16.34375 8.015625 L 16.34375 9.792969 Z M 14.226562 9.792969 "/>
  </g>
</svg>