<?xml version="1.0" encoding="UTF-8" standalone="no"?>
<!-- Generated by IcoMoon.io -->

<svg
   xmlns:dc="http://purl.org/dc/elements/1.1/"
   xmlns:cc="http://creativecommons.org/ns#"
   xmlns:rdf="http://www.w3.org/1999/02/22-rdf-syntax-ns#"
   xmlns:svg="http://www.w3.org/2000/svg"
   xmlns="http://www.w3.org/2000/svg"
   xmlns:sodipodi="http://sodipodi.sourceforge.net/DTD/sodipodi-0.dtd"
   xmlns:inkscape="http://www.inkscape.org/namespaces/inkscape"
   version="1.1"
   width="24"
   height="24"
   viewBox="0 0 24 24"
   id="svg3054"
   inkscape:version="0.48.5 r10040"
   sodipodi:docname="bowling.svg">
  <metadata
     id="metadata3062">
    <rdf:RDF>
      <cc:Work
         rdf:about="">
        <dc:format>image/svg+xml</dc:format>
        <dc:type
           rdf:resource="http://purl.org/dc/dcmitype/StillImage" />
      </cc:Work>
    </rdf:RDF>
  </metadata>
  <defs
     id="defs3060" />
  <sodipodi:namedview
     pagecolor="#ffffff"
     bordercolor="#666666"
     borderopacity="1"
     objecttolerance="10"
     gridtolerance="10"
     guidetolerance="10"
     inkscape:pageopacity="0"
     inkscape:pageshadow="2"
     inkscape:window-width="657"
     inkscape:window-height="480"
     id="namedview3058"
     showgrid="false"
     inkscape:zoom="7.375"
     inkscape:cx="16"
     inkscape:cy="16"
     inkscape:window-x="0"
     inkscape:window-y="27"
     inkscape:window-maximized="0"
     inkscape:current-layer="svg3054" />
  <g
     id="g5181"
     transform="matrix(0.89480936,0,0,0.89480936,-0.21514512,1.3960467)">
    <path
       style="fill:#444444"
       inkscape:connector-curvature="0"
       d="M 8.6749373,8.1466969 H 4.9922039 c 0,0 -2.4461877,4.5912451 -2.4461877,8.5308991 0,2.093164 0.8892885,5.564468 0.8989006,5.564468 0.6381345,2.541009 1.0923896,2.342393 3.5078235,2.342393 2.2264261,0 2.8594373,0.200539 3.3617437,-2.339831 -0.01151,0.01088 0.763073,-3.437347 0.763073,-5.566388 0,-4.291399 -2.4026197,-8.5315411 -2.4026197,-8.5315411 z M 8.5237339,5.2609914 c 0,0 0.5907241,-1.9541319 0.5907241,-3.1548006 0,-1.20066874 -0.6093058,-2.99334289 -2.2398829,-2.99334289 -1.6312171,0 -2.3840391,1.77473558 -2.3840391,2.97604359 0,1.2013102 0.6451842,3.1720999 0.6451842,3.1720999 H 8.5237339 z M 8.3795753,7.1427223 V 6.1387477 H 5.243358 v 1.0033338 h 3.1362173 z"
       id="path3250" />
    <path
       style="fill:#444444"
       inkscape:connector-curvature="0"
       d="m 17.422353,8.931536 c -4.050637,0 -7.33386,3.283222 -7.33386,7.333861 0,4.050049 3.283223,7.333858 7.33386,7.333858 4.05005,0 7.33386,-3.283809 7.33386,-7.333858 0,-4.050639 -3.28381,-7.333861 -7.33386,-7.333861 z m -1.076025,5.573734 c -0.485793,0 -0.880061,-0.394267 -0.880061,-0.880063 0,-0.486383 0.394268,-0.880064 0.880061,-0.880064 0.486383,0 0.880065,0.393681 0.880065,0.880064 0,0.485796 -0.393682,0.880063 -0.880065,0.880063 z m 1.466773,-2.835564 c 0,-0.486382 0.394269,-0.880063 0.880063,-0.880063 0.486382,0 0.880064,0.393681 0.880064,0.880063 0,0.486381 -0.393682,0.880064 -0.880064,0.880064 -0.485794,0 -0.880063,-0.394269 -0.880063,-0.880064 z m 1.662733,4.302335 c -0.647727,0 -1.173418,-0.525691 -1.173418,-1.173417 0,-0.647727 0.525691,-1.173417 1.173418,-1.173417 0.647726,0 1.173417,0.52569 1.173417,1.173417 0,0.647726 -0.525691,1.173417 -1.173417,1.173417 z"
       id="path3280" />
  </g>
</svg>
