<?xml version="1.0" encoding="utf-8"?>
<!-- Generator: Adobe Illustrator 15.1.0, SVG Export Plug-In . SVG Version: 6.00 Build 0)  -->
<!DOCTYPE svg PUBLIC "-//W3C//DTD SVG 1.1//EN" "http://www.w3.org/Graphics/SVG/1.1/DTD/svg11.dtd">
<svg version="1.1"
	 id="svg2" sodipodi:docname="bank-maskansvg.svg" inkscape:version="0.48.5 r10040" xmlns:dc="http://purl.org/dc/elements/1.1/" xmlns:cc="http://creativecommons.org/ns#" xmlns:rdf="http://www.w3.org/1999/02/22-rdf-syntax-ns#" xmlns:svg="http://www.w3.org/2000/svg" xmlns:sodipodi="http://sodipodi.sourceforge.net/DTD/sodipodi-0.dtd" xmlns:inkscape="http://www.inkscape.org/namespaces/inkscape"
	 xmlns="http://www.w3.org/2000/svg" xmlns:xlink="http://www.w3.org/1999/xlink" x="0px" y="0px" width="24px" height="24px"
	 viewBox="0 0 24 24" enable-background="new 0 0 24 24" xml:space="preserve">
<path d="M7.689,21.229h3.515v-4.43h2.112v4.43h3.515V1.396H7.689V21.229z M12.901,3.733h2.113v2.604h-2.113V3.733z M12.901,7.917
	h2.113v2.604h-2.113V7.917z M12.901,12.103h2.113v2.603h-2.113V12.103z M9.506,3.733h2.113v2.604H9.506V3.733z M9.506,7.917h2.113
	v2.604H9.506V7.917z M9.506,12.103h2.113v2.603H9.506V12.103z M17.651,3.173v14.023h1.357v4.032h3.2V3.173H17.651z M20.555,15.29
	h-1.924v-2.369h1.924V15.29L20.555,15.29z M20.555,11.481h-1.924V9.111h1.924V11.481L20.555,11.481z M20.555,7.671h-1.924V5.3h1.924
	V7.671L20.555,7.671z M2.312,21.229h3.2v-4.032h1.358V3.173H2.312V21.229z M3.966,5.3h1.923v2.371H3.966V5.3z M3.966,9.111h1.923
	v2.371H3.966V9.111z M3.966,12.92h1.923v2.37H3.966V12.92z"/>
</svg>
