<?xml version="1.0" encoding="utf-8"?>
<!-- Generator: Adobe Illustrator 15.1.0, SVG Export Plug-In . SVG Version: 6.00 Build 0)  -->
<!DOCTYPE svg PUBLIC "-//W3C//DTD SVG 1.1//EN" "http://www.w3.org/Graphics/SVG/1.1/DTD/svg11.dtd">
<svg version="1.1"
	 id="svg2" sodipodi:docname="bank-maskansvg.svg" inkscape:version="0.48.5 r10040" xmlns:dc="http://purl.org/dc/elements/1.1/" xmlns:cc="http://creativecommons.org/ns#" xmlns:rdf="http://www.w3.org/1999/02/22-rdf-syntax-ns#" xmlns:svg="http://www.w3.org/2000/svg" xmlns:sodipodi="http://sodipodi.sourceforge.net/DTD/sodipodi-0.dtd" xmlns:inkscape="http://www.inkscape.org/namespaces/inkscape"
	 xmlns="http://www.w3.org/2000/svg" xmlns:xlink="http://www.w3.org/1999/xlink" x="0px" y="0px" width="24px" height="24px"
	 viewBox="0 0 24 24" enable-background="new 0 0 24 24" xml:space="preserve">
<path d="M16.403,9.349V7.063l0.581,0.089V5.439L9.966,4.04L2.052,6.003v2.001l0.734-0.132v5.565h2.128v5.193l10.104,1.595
	l1.787-0.282v-6.668l3.175,0.014v6.15l1.475-0.23V11.08l0.493,0.032V9.894L16.403,9.349z M15.688,7.854v2.005l-2.113,0.051V7.574
	L15.688,7.854z M3.885,8.182l4.799-0.793v4.462l-4.799,0.208V8.182z M5.857,17.447v-4.013h1.978v4.247L5.857,17.447z M8.338,17.727
	v-4.294h1.628v-0.005h0.661v4.569L8.338,17.727z M11.109,18.08v-4.652l2.666,0.001v4.968L11.109,18.08z"/>
</svg>
