<?xml version="1.0" encoding="utf-8"?>
<!-- Generator: Adobe Illustrator 15.1.0, SVG Export Plug-In . SVG Version: 6.00 Build 0)  -->
<!DOCTYPE svg PUBLIC "-//W3C//DTD SVG 1.1//EN" "http://www.w3.org/Graphics/SVG/1.1/DTD/svg11.dtd">
<svg version="1.1"
	 id="svg2" sodipodi:docname="bank-maskansvg.svg" inkscape:version="0.48.5 r10040" xmlns:dc="http://purl.org/dc/elements/1.1/" xmlns:cc="http://creativecommons.org/ns#" xmlns:rdf="http://www.w3.org/1999/02/22-rdf-syntax-ns#" xmlns:svg="http://www.w3.org/2000/svg" xmlns:sodipodi="http://sodipodi.sourceforge.net/DTD/sodipodi-0.dtd" xmlns:inkscape="http://www.inkscape.org/namespaces/inkscape"
	 xmlns="http://www.w3.org/2000/svg" xmlns:xlink="http://www.w3.org/1999/xlink" x="0px" y="0px" width="24px" height="24px"
	 viewBox="0 0 24 24" enable-background="new 0 0 24 24" xml:space="preserve">
<path d="M11.134,2.926H2.473c-0.159,0-0.289,0.137-0.289,0.307v18.101h1.155v-2.762c0-0.169,0.129-0.306,0.289-0.306h1.155
	c0.16,0,0.289,0.137,0.289,0.306v2.762h6.352V3.233C11.423,3.063,11.293,2.926,11.134,2.926z M5.071,16.579
	c0,0.085-0.065,0.152-0.145,0.152H3.483c-0.08,0-0.145-0.067-0.145-0.152v-1.535c0-0.084,0.064-0.152,0.145-0.152h1.443
	c0.08,0,0.145,0.068,0.145,0.152V16.579z M5.071,13.204c0,0.084-0.065,0.153-0.145,0.153H3.483c-0.08,0-0.145-0.069-0.145-0.153
	V11.67c0-0.085,0.064-0.153,0.145-0.153h1.443c0.08,0,0.145,0.068,0.145,0.153V13.204z M5.071,9.829
	c0,0.085-0.065,0.154-0.145,0.154H3.483c-0.08,0-0.145-0.069-0.145-0.154V8.295c0-0.085,0.064-0.154,0.145-0.154h1.443
	c0.08,0,0.145,0.068,0.145,0.154V9.829z M5.071,6.454c0,0.084-0.065,0.154-0.145,0.154H3.483c-0.08,0-0.145-0.07-0.145-0.154V4.92
	c0-0.085,0.064-0.154,0.145-0.154h1.443c0.08,0,0.145,0.069,0.145,0.154V6.454z M7.669,16.579c0,0.085-0.064,0.152-0.145,0.152
	H6.082c-0.08,0-0.145-0.067-0.145-0.152v-1.535c0-0.084,0.065-0.152,0.145-0.152h1.443c0.08,0,0.145,0.068,0.145,0.152V16.579z
	 M7.669,13.204c0,0.084-0.064,0.153-0.145,0.153H6.082c-0.08,0-0.145-0.069-0.145-0.153V11.67c0-0.085,0.065-0.153,0.145-0.153
	h1.443c0.08,0,0.145,0.068,0.145,0.153V13.204z M7.669,9.829c0,0.085-0.064,0.154-0.145,0.154H6.082
	c-0.08,0-0.145-0.069-0.145-0.154V8.295c0-0.085,0.065-0.154,0.145-0.154h1.443c0.08,0,0.145,0.068,0.145,0.154V9.829z M7.669,6.454
	c0,0.084-0.064,0.154-0.145,0.154H6.082c-0.08,0-0.145-0.07-0.145-0.154V4.92c0-0.085,0.065-0.154,0.145-0.154h1.443
	c0.08,0,0.145,0.069,0.145,0.154V6.454z M10.268,16.579c0,0.085-0.064,0.152-0.145,0.152H8.68c-0.08,0-0.144-0.067-0.144-0.152
	v-1.535c0-0.084,0.064-0.152,0.144-0.152h1.443c0.08,0,0.145,0.068,0.145,0.152V16.579z M10.268,13.204
	c0,0.084-0.064,0.153-0.145,0.153H8.68c-0.08,0-0.144-0.069-0.144-0.153V11.67c0-0.085,0.064-0.153,0.144-0.153h1.443
	c0.08,0,0.145,0.068,0.145,0.153V13.204z M10.268,9.829c0,0.085-0.064,0.154-0.145,0.154H8.68c-0.08,0-0.144-0.069-0.144-0.154
	V8.295c0-0.085,0.064-0.154,0.144-0.154h1.443c0.08,0,0.145,0.068,0.145,0.154V9.829z M10.268,6.454
	c0,0.084-0.064,0.154-0.145,0.154H8.68c-0.08,0-0.144-0.07-0.144-0.154V4.92c0-0.085,0.064-0.154,0.144-0.154h1.443
	c0.08,0,0.145,0.069,0.145,0.154V6.454z M21.605,11.76l-8.661-2.589c-0.185-0.055-0.367,0.092-0.367,0.295v11.867h1.155V18.88
	c0-0.169,0.129-0.308,0.288-0.308h1.155c0.159,0,0.289,0.139,0.289,0.308v2.454h6.351v-9.278
	C21.815,11.918,21.729,11.797,21.605,11.76z M15.465,17.192c0,0.085-0.065,0.153-0.145,0.153h-1.443
	c-0.08,0-0.145-0.068-0.145-0.153v-1.534c0-0.085,0.064-0.153,0.145-0.153h1.443c0.079,0,0.145,0.068,0.145,0.153V17.192z
	 M15.465,13.817c0,0.085-0.065,0.153-0.145,0.153h-1.443c-0.08,0-0.145-0.068-0.145-0.153v-1.534c0-0.085,0.064-0.154,0.145-0.154
	h1.443c0.079,0,0.145,0.068,0.145,0.154V13.817z M18.063,17.192c0,0.085-0.064,0.153-0.145,0.153h-1.443
	c-0.08,0-0.145-0.068-0.145-0.153v-1.534c0-0.085,0.064-0.153,0.145-0.153h1.443c0.08,0,0.145,0.068,0.145,0.153V17.192z
	 M18.063,13.817c0,0.085-0.064,0.153-0.145,0.153h-1.443c-0.08,0-0.145-0.068-0.145-0.153v-1.534c0-0.085,0.064-0.154,0.145-0.154
	h1.443c0.08,0,0.145,0.068,0.145,0.154V13.817z M20.661,17.192c0,0.085-0.064,0.153-0.145,0.153h-1.443
	c-0.079,0-0.145-0.068-0.145-0.153v-1.534c0-0.085,0.065-0.153,0.145-0.153h1.443c0.08,0,0.145,0.068,0.145,0.153V17.192z
	 M20.661,13.817c0,0.085-0.064,0.153-0.145,0.153h-1.443c-0.079,0-0.145-0.068-0.145-0.153v-1.534c0-0.085,0.065-0.154,0.145-0.154
	h1.443c0.08,0,0.145,0.068,0.145,0.154V13.817z"/>
</svg>
