<?xml version="1.0" encoding="utf-8"?>
<!-- Generator: Adobe Illustrator 15.1.0, SVG Export Plug-In . SVG Version: 6.00 Build 0)  -->
<!DOCTYPE svg PUBLIC "-//W3C//DTD SVG 1.1//EN" "http://www.w3.org/Graphics/SVG/1.1/DTD/svg11.dtd">
<svg version="1.1"
	 id="svg2" sodipodi:docname="bank-maskansvg.svg" inkscape:version="0.48.5 r10040" xmlns:dc="http://purl.org/dc/elements/1.1/" xmlns:cc="http://creativecommons.org/ns#" xmlns:rdf="http://www.w3.org/1999/02/22-rdf-syntax-ns#" xmlns:svg="http://www.w3.org/2000/svg" xmlns:sodipodi="http://sodipodi.sourceforge.net/DTD/sodipodi-0.dtd" xmlns:inkscape="http://www.inkscape.org/namespaces/inkscape"
	 xmlns="http://www.w3.org/2000/svg" xmlns:xlink="http://www.w3.org/1999/xlink" x="0px" y="0px" width="24px" height="24px"
	 viewBox="0 0 24 24" enable-background="new 0 0 24 24" xml:space="preserve">
<path d="M11.327,8.216h1.767v1.986h1.164v-6.69c0-0.461-0.373-0.836-0.834-0.836H5.172c-0.461,0-0.836,0.375-0.836,0.836v16.975
	c0,0.462,0.375,0.836,0.836,0.836h2.969v-5.435h2.3V11.34c0-0.494,0.363-0.904,0.886-1.064V8.216L11.327,8.216L11.327,8.216z
	 M11.327,4.35h1.767v2.508h-1.767V4.35z M7.299,18.453H5.532v-2.509h1.767V18.453L7.299,18.453z M7.299,14.78H5.532v-2.509h1.767
	V14.78L7.299,14.78z M7.299,10.725H5.532V8.216h1.767V10.725L7.299,10.725z M7.299,6.858H5.532V4.35h1.767V6.858L7.299,6.858z
	 M10.246,14.78H8.479v-2.509h1.767V14.78z M10.246,10.725H8.479V8.216h1.767V10.725z M10.246,6.858H8.479V4.35h1.767V6.858z
	 M18.955,10.872h-6.987c-0.391,0-0.709,0.209-0.709,0.468v9.515c0,0.259,0.318,0.469,0.709,0.469h2.514v-3.047h2.02v3.047h2.453
	c0.393,0,0.709-0.21,0.709-0.469V11.34C19.664,11.081,19.348,10.872,18.955,10.872z M13.768,19.714h-1.495v-1.405h1.495V19.714z
	 M13.768,17.656h-1.495V16.25h1.495V17.656z M13.768,15.383h-1.495v-1.406h1.495V15.383z M13.768,13.215h-1.495v-1.406h1.495V13.215
	z M16.264,17.656H14.77V16.25h1.494V17.656z M16.264,15.383H14.77v-1.406h1.494V15.383z M16.264,13.215H14.77v-1.406h1.494V13.215z
	 M18.676,19.745h-1.494v-1.406h1.494V19.745z M18.676,17.656h-1.494V16.25h1.494V17.656z M18.676,15.383h-1.494v-1.406h1.494V15.383
	z M18.676,13.215h-1.494v-1.406h1.494V13.215z"/>
</svg>
