<?xml version="1.0" encoding="utf-8"?>
<!-- Generator: Adobe Illustrator 15.1.0, SVG Export Plug-In . SVG Version: 6.00 Build 0)  -->
<!DOCTYPE svg PUBLIC "-//W3C//DTD SVG 1.1//EN" "http://www.w3.org/Graphics/SVG/1.1/DTD/svg11.dtd">
<svg version="1.1" id="Layer_1" xmlns="http://www.w3.org/2000/svg" xmlns:xlink="http://www.w3.org/1999/xlink" x="0px" y="0px"
	 width="24px" height="24px" viewBox="0 0 24 24" enable-background="new 0 0 24 24" xml:space="preserve">
<path fill="#030104" d="M20.311,4.619c-0.092,0-0.186,0.001-0.279,0.002c0.011-0.077,0.018-0.155,0.018-0.235
	c0.076-0.613-0.31-1.013-0.695-1.257c-0.15-0.116-0.321-0.204-0.51-0.25c-0.12-0.043-0.201-0.065-0.201-0.065
	s-2.363-0.554-6.677-0.554c-4.315,0-6.609,0.419-6.609,0.419c-0.88,0.092-1.403,0.84-1.403,1.708c0,0.052,0.003,0.103,0.006,0.152
	C3.946,4.568,3.931,4.594,3.918,4.621C3.842,4.62,3.766,4.62,3.691,4.62c-0.639,0-1.433,0-1.433,0.903v4.73
	c0,0.493,0.236,0.716,0.553,0.818c0.009,3.557,0.752,6.984,1.651,7.671v1.826c0,0.646,0.515,1.172,1.151,1.172
	c0.636,0,1.151-0.526,1.151-1.172v-1.138c1.606,0.259,3.737,0.393,5.62,0.393h0.001c1.794,0,3.387-0.109,4.682-0.316v1.062
	c0,0.646,0.518,1.172,1.151,1.172c0.636,0,1.149-0.526,1.149-1.172v-1.656c0.123-0.05,0.24-0.102,0.345-0.155l0.037-0.021
	l0.02-0.036c0.526-0.965,1.237-4.099,1.252-7.585c0.396-0.075,0.721-0.284,0.721-0.861V5.523C21.744,4.619,20.95,4.619,20.311,4.619
	z M5.414,3.232l0.02-0.002l0.019-0.004c0.024-0.004,2.308-0.411,6.513-0.411c4.187,0,6.534,0.534,6.545,0.539
	c0.011,0.002,1.081,0.296,0.996,0.962l-0.004,0.036v0.035c0,0.531-0.344,0.966-0.781,1.012c-0.456-0.142-2.179-0.551-6.839-0.551
	c-4.529,0-6.145,0.393-6.609,0.55C4.84,5.347,4.5,4.912,4.5,4.386C4.499,3.898,4.739,3.304,5.414,3.232z M18.877,5.972v0.557H5.125
	V5.972H18.877z M2.531,10.252V5.523c0-0.564,0.372-0.626,1.161-0.626c0.036,0,0.067,0,0.101,0c-0.676,1.612-0.961,3.754-0.979,5.88
	C2.623,10.69,2.531,10.534,2.531,10.252z M19.552,18.527c-1.271,0.648-3.879,1.019-7.166,1.019h-0.001
	c-3.598,0-7.006-0.451-7.757-1.024c-0.348-0.266-0.694-1.134-0.97-2.336c2.452,0.212,10.964,0.619,16.911-3.213
	c0,0,0.041-0.052,0.097-0.082C20.48,15.531,19.958,17.739,19.552,18.527z M21.471,10.252c0,0.356-0.148,0.511-0.452,0.579
	c-0.014-1.99-0.261-4.077-0.901-5.931c0.062-0.002,0.124-0.004,0.193-0.004c0.789,0,1.16,0.063,1.16,0.627V10.252z M5.27,16.955
	c0.358,0,0.649,0.296,0.649,0.661c0,0.363-0.291,0.661-0.649,0.661c-0.357,0-0.648-0.298-0.648-0.661
	C4.622,17.251,4.913,16.955,5.27,16.955z M7.207,17.506c0.244,0,0.442,0.202,0.442,0.451s-0.198,0.449-0.442,0.449
	c-0.245,0-0.442-0.2-0.442-0.449S6.962,17.506,7.207,17.506z M18.73,16.952c0.358,0,0.649,0.295,0.649,0.66
	s-0.291,0.661-0.649,0.661s-0.648-0.296-0.648-0.661S18.372,16.952,18.73,16.952z M16.795,17.503c0.245,0,0.441,0.202,0.441,0.451
	s-0.196,0.45-0.441,0.45s-0.441-0.201-0.441-0.45S16.55,17.503,16.795,17.503z"/>
</svg>
