<?xml version="1.0" encoding="utf-8"?>
<!-- Generator: Adobe Illustrator 15.1.0, SVG Export Plug-In . SVG Version: 6.00 Build 0)  -->
<!DOCTYPE svg PUBLIC "-//W3C//DTD SVG 1.1//EN" "http://www.w3.org/Graphics/SVG/1.1/DTD/svg11.dtd">
<svg version="1.1" id="Layer_1" xmlns="http://www.w3.org/2000/svg" xmlns:xlink="http://www.w3.org/1999/xlink" x="0px" y="0px"
	 width="24px" height="24px" viewBox="0 0 24 24" enable-background="new 0 0 24 24" xml:space="preserve">
<path d="M16.367,20.738c0,0.46,0.324,0.832,0.725,0.832h1.268c0.399,0,0.725-0.372,0.725-0.832V19.7h-2.717V20.738z M4.916,20.738
	c0,0.46,0.324,0.832,0.725,0.832h1.267c0.4,0,0.725-0.372,0.725-0.832V19.7H4.916V20.738z M4.282,9.889V4.854
	C4.112,4.73,3.911,4.632,3.671,4.572c-0.283-0.07-0.549,0.177-0.549,0.507v3.159C3.123,9.049,3.619,9.725,4.282,9.889z
	 M20.328,4.572c-0.237,0.06-0.44,0.158-0.61,0.283v5.034c0.662-0.164,1.159-0.839,1.159-1.649V5.079
	C20.877,4.749,20.611,4.501,20.328,4.572z M19.065,16.137V7.609l0.019-1.955V2.669c0-0.459-0.325-0.832-0.725-0.832H5.641
	c-0.4,0-0.725,0.372-0.725,0.832v2.986v4.272v8.526v0.52h2.716h8.735h2.717L19.065,16.137z M6.416,17.08v-1.788
	c2.172,0,2.707,1.788,2.707,1.788H6.416z M11.306,11.712H6.415l0.018-8.13h11.131l-0.019,7.897v0.239h-3.877 M14.86,17.08
	c0,0,0.535-1.788,2.707-1.788v1.788H14.86z"/>
</svg>
