<?xml version="1.0" encoding="utf-8"?>
<!-- Generator: Adobe Illustrator 15.1.0, SVG Export Plug-In . SVG Version: 6.00 Build 0)  -->
<!DOCTYPE svg PUBLIC "-//W3C//DTD SVG 1.1//EN" "http://www.w3.org/Graphics/SVG/1.1/DTD/svg11.dtd">
<svg version="1.1" id="Layer_1" xmlns="http://www.w3.org/2000/svg" xmlns:xlink="http://www.w3.org/1999/xlink" x="0px" y="0px"
	 width="24px" height="24px" viewBox="0 0 24 24" enable-background="new 0 0 24 24" xml:space="preserve">
<path fill="#030104" d="M21.097,5.282H19.67v4.906h0.572v2.252h-1.086V4.997c0.001-1.512-1.225-2.737-2.737-2.737H7.408
	c-1.511,0-2.738,1.226-2.738,2.737v7.3h-0.94V9.901h0.599V4.997H2.903v4.904h0.599v2.626h1.168v5.36
	c0,1.036,0.576,1.938,1.427,2.403v1.418h2.396v-1.083h6.786v1.083h2.396v-1.391c0.881-0.453,1.481-1.372,1.481-2.431v-5.22h1.313
	v-2.48h0.627V5.282L21.097,5.282z M8.778,2.829h6.386v1.484H8.778V2.829z M9.461,17.774H5.925v-1.597h3.537V17.774z M18.017,17.774
	H14.48v-1.597h3.536V17.774z M18.017,12.641c0,0-0.685,2.167-6.159,2.167c-5.477,0-6.047-2.167-6.047-2.167V5.11h12.207V12.641z"/>
</svg>
