<?xml version="1.0" encoding="utf-8"?>
<!-- Generator: Adobe Illustrator 15.1.0, SVG Export Plug-In . SVG Version: 6.00 Build 0)  -->
<!DOCTYPE svg PUBLIC "-//W3C//DTD SVG 1.1//EN" "http://www.w3.org/Graphics/SVG/1.1/DTD/svg11.dtd">
<svg version="1.1" id="Layer_1" xmlns="http://www.w3.org/2000/svg" xmlns:xlink="http://www.w3.org/1999/xlink" x="0px" y="0px"
	 width="24px" height="24px" viewBox="0 0 24 24" enable-background="new 0 0 24 24" xml:space="preserve">
<path d="M16.996,18.776c-0.1,0.687-0.162,1.166-0.184,1.443c-0.02-0.214-0.057-0.539-0.114-0.975
	c-0.057-0.436-0.112-0.817-0.168-1.15l-0.324-2.07h-0.945l-0.334,2.07c-0.05,0.288-0.104,0.651-0.162,1.087
	c-0.058,0.437-0.097,0.782-0.12,1.038c-0.034-0.36-0.099-0.842-0.192-1.449l-0.41-2.746h-0.934h-0.052h-0.934l-0.419,2.752
	c-0.101,0.687-0.162,1.165-0.184,1.443c-0.019-0.214-0.057-0.54-0.114-0.975c-0.056-0.436-0.113-0.818-0.168-1.15l-0.323-2.07H9.969
	l-0.334,2.07c-0.05,0.288-0.104,0.651-0.162,1.087s-0.098,0.782-0.121,1.038c-0.034-0.36-0.098-0.844-0.191-1.451L8.75,16.024H7.817
	H7.765H6.832l-0.419,2.752c-0.1,0.687-0.161,1.165-0.183,1.443c-0.02-0.214-0.057-0.54-0.114-0.975
	c-0.057-0.436-0.113-0.818-0.168-1.15l-0.324-2.07H4.677l-0.333,2.07c-0.05,0.288-0.104,0.651-0.162,1.087
	c-0.058,0.436-0.098,0.782-0.121,1.038c-0.035-0.36-0.098-0.842-0.191-1.451l-0.411-2.744H2.473L3.41,21.5h1.208
	c0.221-1.437,0.346-2.255,0.376-2.456c0.03-0.203,0.061-0.423,0.092-0.665c0.031-0.241,0.054-0.443,0.067-0.605
	c0.017,0.2,0.044,0.447,0.082,0.746c0.037,0.298,0.064,0.493,0.081,0.596L5.678,21.5h1.208l0.905-5.324l0.91,5.324h1.208
	c0.22-1.437,0.346-2.255,0.376-2.456c0.029-0.203,0.061-0.423,0.091-0.665c0.032-0.241,0.054-0.443,0.067-0.605
	c0.017,0.2,0.044,0.447,0.082,0.746c0.037,0.298,0.064,0.493,0.082,0.596L10.97,21.5h1.208l0.906-5.324l0.91,5.324h1.208
	c0.221-1.437,0.346-2.255,0.377-2.456c0.029-0.203,0.06-0.423,0.092-0.665c0.03-0.241,0.053-0.443,0.066-0.605
	c0.018,0.2,0.044,0.447,0.082,0.746c0.036,0.298,0.064,0.493,0.082,0.596l0.361,2.385h1.208l0.931-5.476h-0.986L16.996,18.776z
	 M17.222,3.116c0.81,0,1.466,0.951,1.466,2.124c0,1.172-0.656,2.123-1.466,2.123s-1.467-0.951-1.467-2.123
	C15.755,4.067,16.412,3.116,17.222,3.116z M21.823,8.66C21.69,8.586,21.54,8.683,21.49,8.875l-1.023,3.836h-0.516
	c0.074-0.142,0.116-0.323,0.104-0.515c-0.023-0.413-0.274-0.72-0.558-0.685c-0.811,0.098-0.93-0.154-0.994-0.287
	c-0.334-0.391-0.266-2.103-0.266-2.103c0-0.87-0.527-1.453-1.018-1.627c0,0-0.154-0.068-0.318-0.063
	c-0.157,0.004-0.333,0.058-0.333,0.058l-0.003,0c-0.494,0.177-1.02,0.758-1.02,1.631v4.687c0,1.019,0.699,1.649,1.346,1.649
	c0.036,0,0.072-0.006,0.109-0.009l1.804-0.001l0.386,4.813c0.038,0.495,0.33,0.861,0.667,0.861c0.025,0,0.052-0.005,0.079-0.007
	c0.368-0.063,0.634-0.546,0.59-1.081l-0.454-5.675c-0.039-0.492-0.327-0.862-0.668-0.862c-0.001,0-0.001,0-0.001,0L18.238,13.5
	v-0.713c0.128,0.081,0.272,0.143,0.436,0.184c-0.008,0.036-0.013,0.074-0.013,0.115c0,0.205,0.115,0.374,0.258,0.374h1.726
	c0.106,0,0.202-0.094,0.241-0.239l1.087-4.075C22.023,8.952,21.957,8.734,21.823,8.66z"/>
</svg>
