<?xml version="1.0" encoding="UTF-8" standalone="no"?>
<!-- Generated by IcoMoon.io -->

<svg
   xmlns:dc="http://purl.org/dc/elements/1.1/"
   xmlns:cc="http://creativecommons.org/ns#"
   xmlns:rdf="http://www.w3.org/1999/02/22-rdf-syntax-ns#"
   xmlns:svg="http://www.w3.org/2000/svg"
   xmlns="http://www.w3.org/2000/svg"
   xmlns:sodipodi="http://sodipodi.sourceforge.net/DTD/sodipodi-0.dtd"
   xmlns:inkscape="http://www.inkscape.org/namespaces/inkscape"
   version="1.1"
   width="24"
   height="24"
   viewBox="0 0 24 24"
   id="svg3074"
   inkscape:version="0.48.5 r10040"
   sodipodi:docname="cake.svg">
  <metadata
     id="metadata3082">
    <rdf:RDF>
      <cc:Work
         rdf:about="">
        <dc:format>image/svg+xml</dc:format>
        <dc:type
           rdf:resource="http://purl.org/dc/dcmitype/StillImage" />
      </cc:Work>
    </rdf:RDF>
  </metadata>
  <defs
     id="defs3080" />
  <sodipodi:namedview
     pagecolor="#ffffff"
     bordercolor="#666666"
     borderopacity="1"
     objecttolerance="10"
     gridtolerance="10"
     guidetolerance="10"
     inkscape:pageopacity="0"
     inkscape:pageshadow="2"
     inkscape:window-width="657"
     inkscape:window-height="480"
     id="namedview3078"
     showgrid="false"
     inkscape:zoom="8.4285714"
     inkscape:cx="14"
     inkscape:cy="14"
     inkscape:window-x="0"
     inkscape:window-y="27"
     inkscape:window-maximized="0"
     inkscape:current-layer="svg3074" />
  <path
     d="m 23.686106,18.678013 v 5.00851 H 0.3130595 v -5.00851 q 0.58683042,0 1.1085502,-0.182811 0.5217198,-0.18281 0.769641,-0.358943 0.2479213,-0.176132 0.6127078,-0.489164 0.3914985,-0.352265 0.6719751,-0.495843 0.2804765,-0.143577 0.7370857,-0.143577 0.4566091,0 0.7237297,0.143577 0.2671205,0.143578 0.6844963,0.495843 0.3781425,0.326388 0.6127078,0.495842 0.2345652,0.169455 0.756285,0.352265 0.5217198,0.182811 1.1219062,0.182811 0.5868304,0 1.1085502,-0.189489 0.5217198,-0.189488 0.756285,-0.352265 0.2345655,-0.162776 0.6260645,-0.489164 0.273797,-0.247922 0.424054,-0.352265 0.150255,-0.104344 0.404019,-0.195332 0.253764,-0.09099 0.567632,-0.09099 0.456609,0 0.737085,0.143577 0.280476,0.143577 0.671975,0.495842 0.365622,0.313032 0.612707,0.489165 0.247088,0.176133 0.769641,0.358943 0.522556,0.182811 1.10855,0.182811 0.585997,0 1.108551,-0.182811 0.522554,-0.18281 0.769641,-0.358943 0.247086,-0.176133 0.612707,-0.489165 0.391499,-0.352265 0.671975,-0.495842 0.280477,-0.143577 0.737086,-0.143577 0.443253,0 0.72373,0.143577 0.280476,0.143577 0.671975,0.495842 0.365621,0.313032 0.612708,0.489165 0.247086,0.176133 0.769641,0.358943 0.522554,0.182811 1.10855,0.182811 z m 0,-4.173758 v 2.504255 q -0.45661,0 -0.72373,-0.143578 -0.26712,-0.143577 -0.684495,-0.495842 -0.378144,-0.326388 -0.612709,-0.495843 -0.234565,-0.169454 -0.756285,-0.352265 -0.521719,-0.18281 -1.10855,-0.18281 -0.600187,0 -1.121907,0.18281 -0.521719,0.182811 -0.756285,0.352265 -0.234564,0.169455 -0.612707,0.495843 -0.287155,0.247921 -0.430732,0.352265 -0.143577,0.104344 -0.404019,0.195332 -0.260443,0.09099 -0.574309,0.09099 -0.456609,0 -0.737086,-0.143577 -0.280476,-0.143578 -0.671975,-0.495843 -0.378142,-0.326388 -0.612708,-0.495842 -0.234565,-0.169455 -0.756285,-0.352266 -0.521719,-0.18281 -1.121906,-0.18281 -0.58683,0 -1.10855,0.189488 -0.52172,0.189489 -0.756286,0.352266 -0.2345649,0.162776 -0.6260634,0.489164 -0.2737986,0.247921 -0.4240539,0.352265 -0.1502553,0.104344 -0.4040198,0.195332 -0.2537645,0.09099 -0.5676311,0.09099 -0.4566092,0 -0.7370857,-0.143577 Q 7.0962515,16.719686 6.704753,16.36742 6.3391318,16.054389 6.0920453,15.878256 5.8449588,15.702123 5.3224042,15.519313 4.7998497,15.336502 4.213854,15.336502 q -0.6001864,0 -1.1219062,0.182811 -0.5217198,0.18281 -0.756285,0.352265 Q 2.1010976,16.041033 1.7229551,16.36742 1.3314565,16.719686 1.05098,16.863263 0.77050341,17.00684 0.31389425,17.00684 v -2.504255 q 0,-1.043439 0.73040775,-1.773847 Q 1.7747097,11.99833 2.8181492,11.99833 H 3.6529009 V 6.1550688 H 6.9919076 V 11.99833 H 10.330915 V 6.1550688 h 3.339006 V 11.99833 h 3.339006 V 6.1550688 h 3.339007 V 11.99833 h 0.834751 q 1.043441,0 1.773848,0.730408 0.730407,0.730408 0.730407,1.773847 z M 6.9910728,3.2351075 q 0,1.0042063 -0.4691304,1.5459601 -0.4691305,0.5417538 -1.1995382,0.5409191 -0.6911743,0 -1.1803388,-0.4891645 -0.4891645,-0.4891645 -0.4891645,-1.1803388 0,-0.3781426 0.1235433,-0.6652971 Q 3.8999874,2.7000317 4.082798,2.5439331 4.2656086,2.3878346 4.4868178,2.1783119 4.708027,1.9687892 4.8908376,1.7676141 5.0736482,1.5664389 5.1971915,1.1874617 5.3207347,0.8084844 5.3207347,0.3134767 q 0.4958425,0 1.0826729,0.9649729 0.5868305,0.9649729 0.5868305,1.9566579 z m 6.6780142,0 q 0,1.0042063 -0.469131,1.5459601 -0.46913,0.5417538 -1.199539,0.5409191 -0.691174,0 -1.180339,-0.4891645 -0.489164,-0.4891645 -0.489164,-1.1803388 0,-0.3781426 0.123543,-0.6652971 0.123543,-0.2871546 0.306354,-0.4432532 0.18281,-0.1560985 0.40402,-0.3656212 0.221209,-0.2095227 0.404019,-0.4106978 0.182811,-0.2011752 0.306354,-0.5801524 0.123545,-0.3789773 0.123545,-0.873985 0.495841,0 1.082672,0.9649729 0.586831,0.9649729 0.586831,1.9566579 z m 6.678012,0 q 0,1.0042063 -0.46913,1.5459601 -0.46913,0.5417538 -1.199539,0.5409191 -0.691174,0 -1.180338,-0.4891645 -0.489165,-0.4891645 -0.489165,-1.1803388 0,-0.3781426 0.123544,-0.6652971 0.123543,-0.2871546 0.306354,-0.4432532 0.182811,-0.1560985 0.404019,-0.3656212 0.221209,-0.2095227 0.40402,-0.4106978 0.18281,-0.2011752 0.306354,-0.5801524 0.123543,-0.3789773 0.123543,-0.873985 0.495842,0 1.082673,0.9649729 0.58683,0.9649729 0.58683,1.9566579 z"
     id="path3076"
     inkscape:connector-curvature="0"
     style="fill:#444444" />
</svg>
