<?xml version="1.0" encoding="utf-8"?>
<!-- Generator: Adobe Illustrator 15.1.0, SVG Export Plug-In . SVG Version: 6.00 Build 0)  -->
<!DOCTYPE svg PUBLIC "-//W3C//DTD SVG 1.1//EN" "http://www.w3.org/Graphics/SVG/1.1/DTD/svg11.dtd">
<svg version="1.1" id="Layer_1" xmlns="http://www.w3.org/2000/svg" xmlns:xlink="http://www.w3.org/1999/xlink" x="0px" y="0px"
	 width="24px" height="24px" viewBox="0 0 24 24" enable-background="new 0 0 24 24" xml:space="preserve">
<path d="M18.268,15.636l-0.144-0.503c-0.08-0.28-0.333-0.505-0.564-0.505h-0.522c-0.392-1.316-0.871-2.909-1.011-3.281
	c-0.216-0.579-0.907-0.84-1.289-0.968c0,0-0.635-0.29-2.756-0.29c-2.12,0-2.756,0.29-2.756,0.29
	C8.78,10.556,8.16,10.81,7.914,11.373c-0.116,0.265-0.603,1.9-0.998,3.255H6.404c-0.231,0-0.485,0.225-0.564,0.505l-0.144,0.503
	c-0.08,0.278,0.043,0.505,0.276,0.505h0.505c-0.065,0.226-0.104,0.363-0.104,0.363c-0.041,0.081-0.07,0.459-0.07,0.561v2.859v0.2
	v1.536c0,0.293,0.2,0.533,0.445,0.533h1.634c0.246,0,0.445-0.24,0.445-0.533v-0.981h6.311v0.981c0,0.293,0.199,0.533,0.445,0.533
	h1.634c0.245,0,0.444-0.24,0.444-0.533v-1.536v-0.2v-2.859c0-0.102-0.028-0.479-0.069-0.561c0,0-0.04-0.138-0.107-0.363h0.509
	C18.224,16.141,18.348,15.913,18.268,15.636z M8.817,18.449H8.142c-0.605,0-1.208-0.098-1.208-0.557v-0.559
	c0-0.537,0.261-0.556,0.541-0.556c0.275,0,0.818,0.278,1.176,0.47c0.39,0.209,0.827,0.384,0.827,0.732
	C9.477,18.303,9.326,18.449,8.817,18.449z M7.876,14.831c0.332-1.653,0.693-2.588,0.773-2.848c0.063-0.19,0.125-0.774,3.332-0.774
	c3.208,0,3.284,0.667,3.292,0.675c0.099,0.354,0.49,1.42,0.804,2.946c0,0-1.354,0.553-4.096,0.553
	C9.24,15.383,7.876,14.831,7.876,14.831z M14.485,17.979c0-0.348,0.437-0.521,0.827-0.73c0.356-0.191,0.9-0.471,1.175-0.471
	c0.281,0,0.541,0.019,0.541,0.556v0.56h0.001c0,0.46-0.604,0.557-1.208,0.557h-0.676C14.637,18.449,14.485,18.303,14.485,17.979z
	 M11.246,6.806c0,0.521,0.352,0.945,0.788,0.945c0.435,0,0.786-0.423,0.786-0.945c0-0.521-0.786-2.177-0.786-2.177
	S11.246,6.286,11.246,6.806z M8.874,5.246c0,0.522,0.352,0.945,0.788,0.945c0.435,0,0.788-0.422,0.788-0.945
	c0-0.523-0.788-2.178-0.788-2.178S8.874,4.723,8.874,5.246z M13.615,5.246c0,0.522,0.353,0.945,0.789,0.945
	c0.435,0,0.787-0.422,0.787-0.945c0-0.523-0.787-2.178-0.787-2.178S13.615,4.723,13.615,5.246z M24,11.025V9.624h-1.558V1.74H1.624
	v7.884H0.066v1.401h1.557v0.224H0.066v1.398h1.557v0.223H0.066v1.4h1.557v0.224H0.066v1.4h1.557v0.222H0.066v1.401h1.557v0.222
	H0.066v1.4h1.557v0.221H0.066v1.399h1.557v0.227H0.066v1.398h3.698v-1.398H2.207v-0.227h1.558v-1.399H2.207v-0.221h1.558v-1.4H2.207
	v-0.222h1.558v-1.401H2.207v-0.222h1.558v-1.4H2.207V14.27h1.558v-1.4H2.207v-0.223h1.558v-1.398H2.207v-0.224h1.558V9.624H2.207
	V2.44h19.652v7.184h-1.557v1.401h1.557v0.224h-1.557v1.398h1.557v0.223h-1.557v1.4h1.557v0.224h-1.557v1.4h1.557v0.222h-1.557v1.401
	h1.557v0.222h-1.557v1.4h1.557v0.221h-1.557v1.399h1.557v0.227h-1.557v1.398H24v-1.398h-1.558v-0.227H24v-1.399h-1.558v-0.221H24
	v-1.4h-1.558v-0.222H24v-1.401h-1.558v-0.222H24v-1.4h-1.558V14.27H24v-1.4h-1.558v-0.223H24v-1.398h-1.558v-0.224H24L24,11.025z
	 M4.873,1.083h14.32v0.617H4.873V1.083z"/>
</svg>
