<?xml version="1.0" encoding="UTF-8" standalone="no"?>
<!-- Generator: Adobe Illustrator 18.1.1, SVG Export Plug-In . SVG Version: 6.00 Build 0)  -->

<svg
   xmlns:dc="http://purl.org/dc/elements/1.1/"
   xmlns:cc="http://creativecommons.org/ns#"
   xmlns:rdf="http://www.w3.org/1999/02/22-rdf-syntax-ns#"
   xmlns:svg="http://www.w3.org/2000/svg"
   xmlns="http://www.w3.org/2000/svg"
   xmlns:sodipodi="http://sodipodi.sourceforge.net/DTD/sodipodi-0.dtd"
   xmlns:inkscape="http://www.inkscape.org/namespaces/inkscape"
   version="1.1"
   id="Capa_1"
   x="0px"
   y="0px"
   viewBox="0 0 24 24"
   xml:space="preserve"
   inkscape:version="0.48.5 r10040"
   width="100%"
   height="100%"
   sodipodi:docname="carvash.svg"><metadata
     id="metadata3173"><rdf:RDF><cc:Work
         rdf:about=""><dc:format>image/svg+xml</dc:format><dc:type
           rdf:resource="http://purl.org/dc/dcmitype/StillImage" /><dc:title></dc:title></cc:Work></rdf:RDF></metadata><defs
     id="defs3171" /><sodipodi:namedview
     pagecolor="#ffffff"
     bordercolor="#666666"
     borderopacity="1"
     objecttolerance="10"
     gridtolerance="10"
     guidetolerance="10"
     inkscape:pageopacity="0"
     inkscape:pageshadow="2"
     inkscape:window-width="657"
     inkscape:window-height="480"
     id="namedview3169"
     showgrid="false"
     inkscape:zoom="7.4579489"
     inkscape:cx="12.500419"
     inkscape:cy="14.100308"
     inkscape:window-x="0"
     inkscape:window-y="27"
     inkscape:window-maximized="0"
     inkscape:current-layer="Capa_1" /><g
     id="g3119"
     transform="matrix(0.12823918,0,0,0.12823918,0.52220867,0.52220869)"><g
       id="g3121"><path
         style="fill:#010002"
         d="M 133.067,104.665 C 131.205,89.497 122.84,78.375 112.487,78.375 H 66.519 c -10.353,0 -18.724,11.128 -20.586,26.29 -6.54,3.741 -9.983,10.866 -9.983,19.148 0,5.185 1.402,9.893 4.004,13.658 v 16.63 h 21.833 v -8.324 h 55.432 v 8.324 h 21.827 v -16.63 c 2.602,-3.753 4.01,-8.461 4.01,-13.658 0,-8.288 -3.455,-15.407 -9.989,-19.148 z m -78.613,26.278 c -3.938,0 -7.136,-3.18 -7.136,-7.13 0,-3.95 3.198,-7.136 7.136,-7.136 3.944,0 7.142,3.186 7.142,7.136 0,3.95 -3.198,7.13 -7.142,7.13 z m 2.553,-29.1 c -1.42,0 -2.733,0.167 -4.01,0.364 2.059,-9.953 7.411,-17.28 13.527,-17.28 h 45.975 c 6.104,0 11.456,7.327 13.521,17.28 -0.686,-0.101 -1.408,-0.137 -2.13,-0.185 0,-0.06 0.024,-0.119 0.024,-0.173 0,-6.295 -5.12,-11.415 -11.421,-11.415 -6.289,0 -11.409,5.12 -11.409,11.415 H 57.007 v -0.006 z m 53.231,28.312 H 68.78 c -1.211,0 -2.184,-0.979 -2.184,-2.184 0,-1.199 0.979,-2.178 2.184,-2.178 h 41.458 c 1.205,0 2.178,0.979 2.178,2.178 0,1.206 -0.979,2.184 -2.178,2.184 z m 0,-6.247 H 68.78 c -1.211,0 -2.184,-0.979 -2.184,-2.184 0,-1.205 0.979,-2.184 2.184,-2.184 h 41.458 c 1.205,0 2.178,0.979 2.178,2.184 0,1.205 -0.979,2.184 -2.178,2.184 z m -4.791,-22.065 c 0,-3.878 3.162,-7.047 7.053,-7.047 3.878,0 7.047,3.162 7.047,7.047 h -14.1 z m 19.105,29.1 c -3.944,0 -7.142,-3.18 -7.142,-7.13 0,-3.95 3.198,-7.136 7.142,-7.136 3.938,0 7.136,3.186 7.136,7.136 -0.011,3.95 -3.197,7.13 -7.136,7.13 z"
         id="path3123"
         inkscape:connector-curvature="0" /><g
         id="g3125"><rect
           x="35.950001"
           y="24.011"
           style="fill:#010002"
           width="107.105"
           height="8.7299995"
           id="rect3127" /></g><g
         id="g3129"><path
           style="fill:#010002"
           d="m 83.614,57.807 c 0,3.252 2.631,5.895 5.889,5.895 3.252,0 5.883,-2.637 5.883,-5.895 0,-3.258 -5.883,-13.581 -5.883,-13.581 0,0 -5.889,10.329 -5.889,13.581 z"
           id="path3131"
           inkscape:connector-curvature="0" /><path
           style="fill:#010002"
           d="m 65.874,48.075 c 0,3.252 2.631,5.889 5.895,5.889 3.252,0 5.895,-2.637 5.895,-5.889 0,-3.264 -5.895,-13.593 -5.895,-13.593 0,0 -5.895,10.323 -5.895,13.593 z"
           id="path3133"
           inkscape:connector-curvature="0" /><path
           style="fill:#010002"
           d="m 101.341,48.075 c 0,3.252 2.631,5.889 5.895,5.889 3.252,0 5.889,-2.637 5.889,-5.889 0,-3.264 -5.889,-13.593 -5.889,-13.593 0,0 -5.895,10.323 -5.895,13.593 z"
           id="path3135"
           inkscape:connector-curvature="0" /><polygon
           style="fill:#010002"
           points="11.647,104.367 11.647,105.769 0,105.769 0,114.498 11.647,114.498 11.647,115.889 0,115.889 0,124.618 11.647,124.618 11.647,126.014 0,126.014 0,134.744 11.647,134.744 11.647,136.128 0,136.128 0,144.864 11.647,144.864 11.647,146.266 0,146.266 0,154.995 27.656,154.995 27.656,146.266 16.009,146.266 16.009,144.864 27.656,144.864 27.656,136.128 16.009,136.128 16.009,134.744 27.656,134.744 27.656,126.014 16.009,126.014 16.009,124.618 27.656,124.618 27.656,115.889 16.009,115.889 16.009,114.498 27.656,114.498 27.656,105.769 16.009,105.769 16.009,104.367 27.656,104.367 27.656,95.637 16.009,95.637 16.009,94.247 27.656,94.247 27.656,85.523 16.009,85.523 16.009,84.127 27.656,84.127 27.656,75.385 16.009,75.385 16.009,30.568 162.991,30.568 162.991,75.385 151.35,75.385 151.35,84.127 162.991,84.127 162.991,85.523 151.35,85.523 151.35,94.247 162.991,94.247 162.991,95.637 151.35,95.637 151.35,104.367 162.991,104.367 162.991,105.769 151.35,105.769 151.35,114.498 162.991,114.498 162.991,115.889 151.35,115.889 151.35,124.618 162.991,124.618 162.991,126.014 151.35,126.014 151.35,134.744 162.991,134.744 162.991,136.128 151.35,136.128 151.35,144.864 162.991,144.864 162.991,146.266 151.35,146.266 151.35,154.995 179.006,154.995 179.006,146.266 167.359,146.266 167.359,144.864 179.006,144.864 179.006,136.128 167.359,136.128 167.359,134.744 179.006,134.744 179.006,126.014 167.359,126.014 167.359,124.618 179.006,124.618 179.006,115.889 167.359,115.889 167.359,114.498 179.006,114.498 179.006,105.769 167.359,105.769 167.359,104.367 179.006,104.367 179.006,95.637 167.359,95.637 167.359,94.247 179.006,94.247 179.006,85.523 167.359,85.523 167.359,84.127 179.006,84.127 179.006,75.385 167.359,75.385 167.359,26.201 11.647,26.201 11.647,75.385 0,75.385 0,84.127 11.647,84.127 11.647,85.523 0,85.523 0,94.247 11.647,94.247 11.647,95.637 0,95.637 0,104.367 "
           id="polygon3137" /></g></g></g><g
     id="g3139"
     transform="translate(0,-155.006)" /><g
     id="g3141"
     transform="translate(0,-155.006)" /><g
     id="g3143"
     transform="translate(0,-155.006)" /><g
     id="g3145"
     transform="translate(0,-155.006)" /><g
     id="g3147"
     transform="translate(0,-155.006)" /><g
     id="g3149"
     transform="translate(0,-155.006)" /><g
     id="g3151"
     transform="translate(0,-155.006)" /><g
     id="g3153"
     transform="translate(0,-155.006)" /><g
     id="g3155"
     transform="translate(0,-155.006)" /><g
     id="g3157"
     transform="translate(0,-155.006)" /><g
     id="g3159"
     transform="translate(0,-155.006)" /><g
     id="g3161"
     transform="translate(0,-155.006)" /><g
     id="g3163"
     transform="translate(0,-155.006)" /><g
     id="g3165"
     transform="translate(0,-155.006)" /><g
     id="g3167"
     transform="translate(0,-155.006)" /></svg>