<?xml version="1.0" encoding="utf-8"?>
<!-- Generator: Adobe Illustrator 15.1.0, SVG Export Plug-In . SVG Version: 6.00 Build 0)  -->
<!DOCTYPE svg PUBLIC "-//W3C//DTD SVG 1.1//EN" "http://www.w3.org/Graphics/SVG/1.1/DTD/svg11.dtd">
<svg version="1.1" id="Layer_1" xmlns="http://www.w3.org/2000/svg" xmlns:xlink="http://www.w3.org/1999/xlink" x="0px" y="0px"
	 width="24px" height="24px" viewBox="0 0 24 24" enable-background="new 0 0 24 24" xml:space="preserve">
<path d="M12.125,11.842v-1.683c0-0.226-0.184-0.408-0.408-0.408H7.649v1.79h0.929l0.961,1.229v4.27H5.375v-4.27l0.961-1.229h0.929
	V9.75H3.253c-0.225,0-0.407,0.183-0.407,0.408v10.837c0,0.226,0.183,0.408,0.407,0.408h8.463c0.225,0,0.407-0.183,0.407-0.408v-2.43
	 M12.124,17.48v-4.552 M23.129,3.954h-1.081V3.568c0-0.411-0.335-0.745-0.745-0.745h-7.271c-0.41,0-0.746,0.334-0.746,0.745v0.386
	h-1.081c-0.411,0-0.745,0.333-0.745,0.745v0.935c0,0.412,0.333,0.745,0.745,0.745l0.601,0.004l1.091,14.342
	c0.034,0.384,0.356,0.68,0.743,0.68h6.056c0.387,0,0.709-0.296,0.742-0.68l1.092-14.346h0.6c0.413,0,0.745-0.333,0.745-0.745V4.699
	C23.874,4.288,23.542,3.954,23.129,3.954z M15.926,16.056c-0.696-0.693-0.479-2.037,0.484-2.998c0.887-0.889,2.098-1.141,2.825-0.63
	c-0.21,0.391-0.503,0.751-0.902,1.059c-0.257,0.197-0.522,0.345-0.756,0.475c-0.158,0.089-0.309,0.173-0.435,0.259
	c-0.613,0.423-1.042,1.111-1.193,1.861C15.941,16.072,15.934,16.064,15.926,16.056z M18.925,15.572
	c-0.863,0.861-2.031,1.126-2.764,0.671c0.858-1.23,1.699-1.61,1.699-1.61c0.879-0.438,1.342-1.202,1.537-2.074
	c0.003,0.005,0.007,0.01,0.012,0.014C20.105,13.267,19.887,14.609,18.925,15.572z M12.87,7.229l-0.064-0.846l9.724-0.004
	l-0.063,0.839L12.87,7.229z M3.113,12.114H1.757c-0.899,0-1.632,0.73-1.632,1.628v3.467c0,0.898,0.731,1.629,1.632,1.629h1.355
	 M3.113,17.752H1.757c-0.301,0-0.544-0.242-0.544-0.543v-3.467c0-0.299,0.242-0.543,0.544-0.543h1.356"/>
</svg>
