<?xml version="1.0" encoding="UTF-8" standalone="yes"?>
<svg xmlns="http://www.w3.org/2000/svg" xmlns:xlink="http://www.w3.org/1999/xlink" width="24px" height="24px" viewBox="0 0 18 18" version="1.1">
  <g id="surface1">
    <path style=" stroke:none;fill-rule:nonzero;fill:rgb(0%,0%,0%);fill-opacity:1;" d="M 3.9375 16.066406 C 4.25 16.488281 4.625 17.398438 4.625 17.398438 L 7.476562 17.398438 L 7.476562 15.929688 C 8.304688 15.980469 9.210938 16.238281 10.199219 16.996094 C 12.183594 18.523438 15.871094 16.472656 15.871094 16.472656 C 15.871094 16.472656 16.097656 16.109375 15.3125 15.585938 C 14.523438 15.0625 12.625 16.175781 12.097656 14.535156 C 11.574219 12.898438 9.34375 12.4375 9.804688 10.765625 C 10.261719 9.09375 10.753906 2.339844 10.753906 2.339844 C 9.550781 1.5 8.355469 1.15625 7.25 1.097656 L 7.25 2.335938 C 7.25 2.644531 6.996094 2.898438 6.683594 2.898438 L 6.015625 2.898438 C 5.703125 2.898438 5.453125 2.644531 5.453125 2.335938 L 5.453125 1.242188 C 3.472656 1.65625 2.097656 2.765625 2.097656 2.765625 C 2.097656 2.765625 4.066406 11.292969 4.035156 12.472656 C 4 13.640625 2.902344 15.738281 3.9375 16.066406 Z M 3.9375 16.066406 "/>
    <path style=" stroke:none;fill-rule:nonzero;fill:rgb(0%,0%,0%);fill-opacity:1;" d="M 6.015625 2.601562 L 6.683594 2.601562 C 6.832031 2.601562 6.953125 2.484375 6.953125 2.335938 L 6.953125 0.707031 C 6.953125 0.558594 6.832031 0.4375 6.683594 0.4375 L 6.015625 0.4375 C 5.867188 0.4375 5.75 0.558594 5.75 0.707031 L 5.75 2.335938 C 5.75 2.484375 5.867188 2.601562 6.015625 2.601562 Z M 6.015625 2.601562 "/>
  </g>
</svg>