<?xml version="1.0" encoding="UTF-8" standalone="yes"?>
<svg xmlns="http://www.w3.org/2000/svg" xmlns:xlink="http://www.w3.org/1999/xlink" width="24px" height="24px" viewBox="0 0 18 18" version="1.1">
  <g id="surface1">
    <path style=" stroke:none;fill-rule:nonzero;fill:rgb(0%,0%,0%);fill-opacity:1;" d="M 15.386719 4.527344 L 15.386719 1.726562 C 15.386719 1.386719 15.113281 1.113281 14.773438 1.113281 L 9.15625 1.113281 C 8.816406 1.113281 8.542969 1.386719 8.542969 1.726562 L 8.542969 4.527344 L 9.769531 4.527344 L 9.769531 2.339844 L 14.160156 2.339844 L 14.160156 4.527344 Z M 15.386719 4.527344 "/>
    <path style=" stroke:none;fill-rule:nonzero;fill:rgb(0%,0%,0%);fill-opacity:1;" d="M 16.351562 5.050781 L 7.578125 5.050781 C 7.289062 5.050781 7.054688 5.289062 7.054688 5.578125 L 7.054688 6.734375 L 8.03125 6.734375 C 8.636719 6.734375 9.125 7.226562 9.125 7.832031 L 9.125 9.089844 L 11.511719 9.089844 C 12.09375 9.089844 12.5625 9.558594 12.5625 10.140625 L 12.5625 16.363281 C 12.5625 16.546875 12.515625 16.71875 12.433594 16.871094 L 16.351562 16.871094 C 16.640625 16.871094 16.878906 16.636719 16.878906 16.34375 L 16.878906 5.578125 C 16.878906 5.289062 16.640625 5.050781 16.351562 5.050781 Z M 16.351562 5.050781 "/>
    <path style=" stroke:none;fill-rule:nonzero;fill:rgb(0%,0%,0%);fill-opacity:1;" d="M 8.601562 9.089844 L 8.601562 7.832031 C 8.601562 7.515625 8.34375 7.261719 8.03125 7.261719 L 5.128906 7.261719 C 4.816406 7.261719 4.5625 7.515625 4.5625 7.832031 L 4.5625 9.089844 L 5.699219 9.089844 L 5.699219 8.402344 L 7.460938 8.402344 L 7.460938 9.089844 Z M 8.601562 9.089844 "/>
    <path style=" stroke:none;fill-rule:nonzero;fill:rgb(0%,0%,0%);fill-opacity:1;" d="M 1.648438 9.613281 C 1.359375 9.613281 1.121094 9.851562 1.121094 10.140625 L 1.121094 16.363281 C 1.121094 16.652344 1.359375 16.886719 1.648438 16.886719 L 11.511719 16.886719 C 11.558594 16.886719 11.601562 16.882812 11.648438 16.871094 C 11.871094 16.8125 12.039062 16.605469 12.039062 16.363281 L 12.039062 10.140625 C 12.039062 9.851562 11.804688 9.613281 11.511719 9.613281 Z M 5.070312 15.15625 C 4.425781 15.5 3.691406 15.386719 3.4375 14.90625 C 3.183594 14.425781 3.503906 13.757812 4.148438 13.414062 C 4.796875 13.070312 5.527344 13.183594 5.78125 13.667969 C 6.039062 14.148438 5.71875 14.816406 5.070312 15.15625 Z M 10.320312 12.894531 C 10.628906 13.128906 10.695312 13.566406 10.464844 13.878906 L 10.144531 14.308594 C 9.914062 14.617188 9.476562 14.683594 9.164062 14.453125 L 7.175781 12.976562 C 7.128906 12.945312 7.089844 12.90625 7.054688 12.863281 C 6.851562 12.621094 6.832031 12.261719 7.03125 11.996094 L 7.054688 11.960938 L 7.347656 11.566406 C 7.445312 11.4375 7.570312 11.351562 7.710938 11.3125 C 7.839844 11.273438 7.972656 11.273438 8.105469 11.308594 C 8.183594 11.332031 8.261719 11.367188 8.332031 11.421875 Z M 10.320312 12.894531 "/>
  </g>
</svg>