<?xml version="1.0" encoding="UTF-8" standalone="yes"?>
<svg xmlns="http://www.w3.org/2000/svg" xmlns:xlink="http://www.w3.org/1999/xlink" width="24px" height="24px" viewBox="0 0 18 18" version="1.1">
  <g id="surface1">
    <path style=" stroke:none;fill-rule:nonzero;fill:rgb(0%,0%,0%);fill-opacity:1;" d="M 1.644531 6.6875 L 8.839844 9.765625 C 8.890625 9.789062 8.945312 9.796875 9 9.796875 C 9.054688 9.796875 9.109375 9.789062 9.160156 9.765625 L 16.355469 6.6875 C 16.507812 6.621094 16.605469 6.472656 16.601562 6.304688 C 16.597656 6.140625 16.496094 5.992188 16.339844 5.933594 L 9.144531 3.199219 C 9.050781 3.164062 8.949219 3.164062 8.855469 3.199219 L 1.660156 5.933594 C 1.503906 5.992188 1.402344 6.140625 1.398438 6.304688 C 1.394531 6.472656 1.492188 6.621094 1.644531 6.6875 Z M 9 4.011719 L 15.113281 6.335938 L 9 8.953125 L 2.886719 6.335938 Z M 1.644531 8.441406 L 9 11.585938 L 16.355469 8.441406 C 16.5625 8.351562 16.65625 8.113281 16.566406 7.90625 C 16.480469 7.703125 16.242188 7.605469 16.035156 7.695312 L 9 10.707031 L 1.964844 7.695312 C 1.757812 7.605469 1.519531 7.703125 1.433594 7.90625 C 1.34375 8.113281 1.4375 8.351562 1.644531 8.441406 Z M 1.644531 10.058594 L 9 13.207031 L 16.355469 10.058594 C 16.5625 9.972656 16.65625 9.734375 16.566406 9.527344 C 16.480469 9.324219 16.242188 9.226562 16.035156 9.316406 L 9 12.328125 L 1.964844 9.316406 C 1.757812 9.226562 1.519531 9.324219 1.433594 9.527344 C 1.34375 9.734375 1.4375 9.972656 1.644531 10.058594 Z M 1.644531 11.679688 L 9 14.828125 L 16.355469 11.679688 C 16.5625 11.59375 16.65625 11.351562 16.566406 11.148438 C 16.480469 10.945312 16.242188 10.847656 16.035156 10.9375 L 9 13.949219 L 1.964844 10.9375 C 1.757812 10.847656 1.519531 10.941406 1.433594 11.148438 C 1.34375 11.355469 1.4375 11.59375 1.644531 11.679688 Z M 1.644531 11.679688 "/>
  </g>
</svg>