<?xml version="1.0" encoding="UTF-8" standalone="yes"?>
<svg xmlns="http://www.w3.org/2000/svg" xmlns:xlink="http://www.w3.org/1999/xlink" width="24px" height="24px" viewBox="0 0 18 18" version="1.1">
  <g id="surface1">
    <path style=" stroke:none;fill-rule:nonzero;fill:rgb(0%,0%,0%);fill-opacity:1;" d="M 17.625 17.664062 C 16.878906 17.285156 16.421875 16.761719 16.265625 16.101562 C 16.023438 15.066406 16.5625 13.921875 16.929688 13.300781 C 16.9375 13.300781 16.941406 13.300781 16.949219 13.300781 C 17.113281 13.027344 17.238281 12.855469 17.242188 12.851562 C 17.28125 12.800781 17.289062 12.734375 17.269531 12.675781 C 15.203125 7.101562 17.707031 3.144531 17.730469 3.105469 C 17.757812 3.066406 17.765625 3.015625 17.753906 2.964844 C 17.742188 2.917969 17.714844 2.875 17.671875 2.851562 L 17.65625 2.84375 L 14.445312 0.933594 C 14.390625 0.902344 14.328125 0.898438 14.273438 0.925781 C 14.253906 0.9375 12.398438 1.851562 10.191406 1.851562 C 9.296875 1.851562 8.472656 1.703125 7.722656 1.414062 C 7.699219 1.402344 7.675781 1.394531 7.652344 1.386719 C 7.585938 1.359375 7.523438 1.332031 7.457031 1.300781 C 7.402344 1.277344 7.351562 1.253906 7.296875 1.226562 C 6.691406 0.9375 6.136719 0.546875 5.636719 0.0507812 C 5.59375 0.0117188 5.535156 -0.0078125 5.472656 0.00390625 C 5.414062 0.015625 5.363281 0.0585938 5.34375 0.113281 C 4.652344 1.808594 2.371094 2.820312 2.347656 2.832031 C 2.277344 2.863281 2.234375 2.933594 2.242188 3.011719 C 2.242188 3.027344 2.335938 4.84375 0.464844 7.183594 C 0.40625 7.257812 0.410156 7.359375 0.476562 7.425781 C 2.503906 9.453125 0.304688 13.496094 0.28125 13.535156 C 0.253906 13.585938 0.25 13.648438 0.273438 13.699219 L 2.257812 17.914062 C 2.277344 17.957031 2.320312 17.992188 2.367188 18.007812 C 2.414062 18.023438 2.46875 18.019531 2.511719 17.992188 C 2.523438 17.988281 3.101562 17.664062 4.222656 17.34375 C 4.222656 17.347656 4.21875 17.355469 4.214844 17.359375 C 5.335938 17.035156 7.007812 16.710938 9.203125 16.707031 C 9.199219 16.707031 9.203125 16.703125 9.199219 16.699219 C 9.207031 16.699219 9.214844 16.699219 9.222656 16.699219 C 10.363281 16.699219 11.542969 16.785156 12.753906 16.953125 C 12.753906 16.957031 12.753906 16.960938 12.753906 16.960938 C 13.425781 17.054688 14.113281 17.175781 14.804688 17.324219 C 14.804688 17.320312 14.804688 17.320312 14.804688 17.316406 C 15.691406 17.503906 16.597656 17.738281 17.511719 18.007812 C 17.527344 18.015625 17.546875 18.015625 17.5625 18.015625 C 17.5625 18.015625 17.566406 18.015625 17.566406 18.015625 C 17.667969 18.015625 17.746094 17.933594 17.746094 17.835938 C 17.75 17.757812 17.695312 17.6875 17.625 17.664062 Z M 5.570312 0.398438 C 5.828125 0.636719 6.105469 0.847656 6.390625 1.035156 C 6.191406 0.945312 5.945312 0.894531 5.675781 0.894531 C 5.519531 0.894531 5.371094 0.910156 5.238281 0.941406 C 5.363281 0.769531 5.476562 0.589844 5.570312 0.398438 Z M 15.40625 14.695312 C 15.179688 14.804688 15.046875 14.996094 14.972656 15.230469 C 14.804688 15.757812 14.738281 16.296875 14.765625 16.847656 C 14.0625 16.703125 13.371094 16.582031 12.6875 16.488281 C 12.667969 16.445312 12.644531 16.402344 12.617188 16.359375 C 12.441406 16.109375 12.222656 15.917969 11.898438 15.886719 C 11.855469 15.882812 11.816406 15.871094 11.773438 15.863281 C 11.558594 15.839844 11.390625 15.730469 11.253906 15.570312 C 11.171875 15.46875 11.089844 15.367188 10.992188 15.285156 C 10.910156 15.21875 10.816406 15.152344 10.71875 15.132812 C 10.367188 15.050781 9.964844 15.378906 9.945312 15.75 C 9.929688 16 9.867188 16.082031 9.632812 16.164062 C 9.554688 16.191406 9.476562 16.214844 9.402344 16.246094 C 9.34375 16.246094 9.28125 16.246094 9.222656 16.246094 C 6.996094 16.246094 5.308594 16.5625 4.160156 16.886719 C 3.996094 16.742188 3.800781 16.65625 3.589844 16.59375 C 3.289062 16.503906 2.980469 16.453125 2.667969 16.515625 C 2.484375 16.550781 2.421875 16.621094 2.394531 16.808594 C 2.378906 16.914062 2.367188 17.023438 2.34375 17.128906 L 2.515625 17.492188 C 2.511719 17.492188 2.507812 17.496094 2.507812 17.496094 L 2.339844 17.144531 C 2.34375 17.140625 2.34375 17.132812 2.34375 17.128906 L 0.660156 13.546875 C 0.839844 13.203125 1.484375 11.894531 1.671875 10.441406 C 1.691406 10.441406 1.710938 10.441406 1.730469 10.4375 C 1.859375 10.429688 1.988281 10.417969 2.117188 10.40625 C 2.371094 10.386719 2.628906 10.375 2.882812 10.34375 C 3.109375 10.320312 3.191406 10.210938 3.140625 9.992188 C 3.101562 9.8125 3.027344 9.644531 2.960938 9.472656 C 2.871094 9.25 2.84375 9.023438 2.929688 8.792969 C 2.949219 8.734375 2.964844 8.675781 2.992188 8.625 C 3.101562 8.414062 3.113281 8.195312 3.066406 7.96875 C 3.023438 7.78125 3.019531 7.59375 3.148438 7.433594 C 3.226562 7.339844 3.324219 7.261719 3.421875 7.1875 C 3.59375 7.054688 3.730469 6.894531 3.800781 6.683594 C 3.839844 6.566406 3.878906 6.445312 3.914062 6.324219 C 4.011719 6.003906 4.199219 5.789062 4.550781 5.757812 C 4.644531 5.746094 4.738281 5.738281 4.824219 5.710938 C 4.929688 5.671875 5.046875 5.636719 5.128906 5.566406 C 5.320312 5.402344 5.316406 5.113281 5.140625 4.886719 C 4.945312 4.636719 4.695312 4.457031 4.414062 4.316406 C 4.148438 4.175781 3.878906 4.167969 3.609375 4.289062 C 3.46875 4.351562 3.332031 4.425781 3.207031 4.503906 C 2.886719 4.707031 2.5625 4.878906 2.179688 4.90625 C 2.191406 4.878906 2.203125 4.851562 2.210938 4.820312 C 2.21875 4.820312 2.226562 4.820312 2.234375 4.820312 C 2.566406 3.9375 2.617188 3.292969 2.621094 3.03125 C 2.925781 2.886719 3.789062 2.441406 4.554688 1.730469 C 4.644531 1.933594 4.890625 2.097656 5.214844 2.179688 C 5.214844 2.535156 5.304688 2.878906 5.464844 3.195312 C 5.609375 3.484375 5.75 3.515625 6.011719 3.46875 C 6.039062 3.464844 6.0625 3.460938 6.089844 3.457031 C 6.308594 3.425781 6.5 3.460938 6.65625 3.644531 C 6.796875 3.804688 7.328125 3.859375 7.511719 3.75 C 7.511719 3.75 7.515625 3.75 7.519531 3.746094 C 7.699219 3.632812 7.742188 3.460938 7.714844 3.269531 C 7.683594 3.027344 7.582031 2.8125 7.386719 2.664062 C 7.277344 2.582031 7.21875 2.476562 7.203125 2.347656 C 7.191406 2.242188 7.1875 2.140625 7.164062 2.039062 C 7.136719 1.921875 7.09375 1.804688 7.050781 1.691406 C 7.03125 1.644531 6.992188 1.617188 6.933594 1.632812 C 6.898438 1.640625 6.859375 1.648438 6.824219 1.65625 C 6.828125 1.625 6.835938 1.59375 6.835938 1.5625 C 6.835938 1.429688 6.765625 1.304688 6.648438 1.199219 C 6.746094 1.257812 6.84375 1.3125 6.945312 1.367188 C 6.945312 1.367188 6.945312 1.367188 6.941406 1.367188 C 6.957031 1.375 6.972656 1.382812 6.988281 1.390625 C 7.066406 1.429688 7.148438 1.46875 7.230469 1.507812 C 7.269531 1.527344 7.3125 1.546875 7.355469 1.566406 C 7.40625 1.585938 7.460938 1.609375 7.515625 1.628906 C 8.332031 1.960938 9.226562 2.132812 10.207031 2.132812 C 11.214844 2.132812 12.144531 1.953125 12.871094 1.75 C 12.878906 1.742188 12.882812 1.738281 12.886719 1.730469 C 13.121094 1.667969 13.328125 1.601562 13.515625 1.535156 C 13.523438 1.535156 13.535156 1.539062 13.542969 1.539062 C 13.9375 1.402344 14.222656 1.277344 14.359375 1.214844 L 14.894531 1.53125 L 17.023438 2.796875 L 17.316406 2.972656 C 17.265625 3.0625 17.195312 3.195312 17.117188 3.359375 C 17.148438 3.171875 17.121094 2.984375 17.023438 2.796875 L 14.894531 1.53125 C 14.847656 1.574219 14.804688 1.613281 14.757812 1.648438 C 14.589844 1.78125 14.402344 1.800781 14.203125 1.738281 C 14.105469 1.710938 14.015625 1.664062 13.917969 1.636719 C 13.792969 1.601562 13.667969 1.566406 13.542969 1.539062 C 13.34375 1.609375 13.121094 1.679688 12.871094 1.75 C 12.859375 1.765625 12.847656 1.785156 12.835938 1.804688 C 12.722656 2.011719 12.730469 2.214844 12.859375 2.414062 C 12.890625 2.46875 12.925781 2.519531 12.964844 2.574219 C 13.085938 2.738281 13.222656 2.898438 13.332031 3.074219 C 13.507812 3.359375 13.570312 3.667969 13.460938 3.996094 C 13.398438 4.1875 13.335938 4.375 13.292969 4.566406 C 13.230469 4.839844 13.304688 5.015625 13.546875 5.160156 C 13.722656 5.269531 13.910156 5.359375 14.089844 5.460938 C 14.265625 5.554688 14.433594 5.667969 14.570312 5.820312 C 14.714844 5.980469 14.726562 6.171875 14.675781 6.371094 C 14.640625 6.5 14.660156 6.589844 14.769531 6.667969 C 14.804688 6.691406 14.84375 6.714844 14.882812 6.730469 C 15.050781 6.808594 15.222656 6.894531 15.417969 6.839844 C 15.460938 6.828125 15.511719 6.839844 15.554688 6.839844 C 15.59375 6.835938 15.636719 6.835938 15.667969 6.816406 C 15.828125 6.714844 15.925781 6.5625 15.972656 6.382812 C 16.03125 6.160156 15.910156 6.003906 15.679688 5.988281 C 15.597656 5.980469 15.515625 5.980469 15.433594 5.96875 C 15.257812 5.9375 15.144531 5.777344 15.191406 5.605469 C 15.21875 5.515625 15.269531 5.417969 15.335938 5.347656 C 15.511719 5.160156 15.652344 4.953125 15.777344 4.734375 C 15.890625 4.539062 16.027344 4.375 16.257812 4.316406 C 16.535156 4.242188 16.738281 4.078125 16.898438 3.851562 C 16.261719 5.414062 15.425781 8.605469 16.878906 12.609375 C 16.785156 12.746094 16.589844 13.042969 16.390625 13.429688 C 16.363281 13.453125 16.335938 13.476562 16.308594 13.503906 C 16.140625 13.667969 16.058594 13.882812 15.964844 14.089844 C 15.84375 14.351562 15.675781 14.566406 15.40625 14.695312 Z M 13.148438 9.5625 C 12.921875 9.625 12.808594 9.769531 12.742188 9.988281 C 12.699219 10.144531 12.621094 10.296875 12.542969 10.441406 C 12.453125 10.613281 12.214844 10.683594 12.011719 10.609375 C 11.746094 10.519531 11.574219 10.324219 11.464844 10.074219 C 11.421875 9.980469 11.394531 9.878906 11.359375 9.78125 C 11.265625 9.53125 11.070312 9.40625 10.824219 9.355469 C 10.644531 9.316406 10.449219 9.476562 10.4375 9.660156 C 10.433594 9.695312 10.460938 9.734375 10.480469 9.765625 C 10.496094 9.785156 10.527344 9.796875 10.554688 9.8125 C 10.699219 9.882812 10.785156 10 10.8125 10.160156 C 10.878906 10.558594 10.847656 10.945312 10.652344 11.300781 C 10.578125 11.4375 10.453125 11.550781 10.351562 11.667969 C 10.269531 11.761719 10.183594 11.855469 10.09375 11.9375 C 10.066406 11.96875 10.011719 11.988281 9.972656 11.988281 C 9.789062 11.984375 9.609375 11.96875 9.429688 11.960938 C 9.300781 11.957031 9.175781 11.957031 9.050781 11.945312 C 8.875 11.925781 8.804688 11.847656 8.785156 11.675781 C 8.78125 11.660156 8.765625 11.640625 8.75 11.632812 C 8.582031 11.550781 8.53125 11.460938 8.554688 11.277344 C 8.566406 11.207031 8.578125 11.140625 8.597656 11.074219 C 8.640625 10.90625 8.628906 10.738281 8.632812 10.566406 C 8.636719 10.167969 8.707031 9.78125 8.886719 9.355469 C 8.972656 9.214844 9.082031 9.023438 9.203125 8.832031 C 9.40625 8.515625 9.46875 8.179688 9.394531 7.8125 C 9.359375 7.640625 9.332031 7.464844 9.355469 7.285156 C 9.378906 7.117188 9.46875 6.992188 9.585938 6.875 C 9.621094 6.839844 9.660156 6.789062 9.675781 6.738281 C 9.753906 6.503906 9.789062 6.257812 9.796875 6.011719 C 9.796875 5.941406 9.785156 5.867188 9.777344 5.796875 C 9.753906 5.566406 9.875 5.390625 10.074219 5.363281 C 10.195312 5.34375 10.304688 5.386719 10.402344 5.449219 C 10.636719 5.601562 10.894531 5.695312 11.164062 5.757812 C 11.183594 5.761719 11.207031 5.765625 11.226562 5.761719 C 11.371094 5.738281 11.488281 5.800781 11.589844 5.890625 C 11.882812 6.136719 12.175781 6.386719 12.464844 6.640625 C 12.597656 6.757812 12.714844 6.894531 12.789062 7.058594 C 12.886719 7.265625 12.851562 7.453125 12.675781 7.601562 C 12.632812 7.636719 12.589844 7.671875 12.546875 7.707031 C 12.46875 7.777344 12.429688 7.863281 12.445312 7.972656 C 12.46875 8.160156 12.484375 8.351562 12.613281 8.507812 C 12.71875 8.636719 12.820312 8.765625 12.929688 8.894531 C 13.011719 8.996094 13.097656 9.09375 13.183594 9.195312 C 13.207031 9.222656 13.230469 9.257812 13.25 9.289062 C 13.328125 9.425781 13.296875 9.523438 13.148438 9.5625 Z M 7.386719 8.441406 C 7.414062 8.570312 7.410156 8.703125 7.40625 8.832031 C 7.40625 8.894531 7.371094 8.953125 7.351562 9.015625 C 7.238281 9.246094 7.058594 9.421875 6.894531 9.617188 C 6.703125 9.847656 6.511719 10.082031 6.335938 10.328125 C 6.195312 10.527344 6.03125 10.683594 5.777344 10.714844 C 5.472656 10.75 5.21875 10.898438 4.980469 11.082031 C 4.878906 11.160156 4.777344 11.242188 4.660156 11.296875 C 4.484375 11.375 4.273438 11.25 4.238281 11.0625 C 4.222656 10.988281 4.226562 10.910156 4.222656 10.835938 C 4.195312 10.445312 4.066406 10.078125 3.949219 9.710938 C 3.9375 9.671875 3.9375 9.617188 3.953125 9.578125 C 4.066406 9.242188 4.324219 9.039062 4.625 8.871094 C 4.914062 8.707031 4.996094 8.503906 4.933594 8.175781 C 4.910156 8.054688 4.878906 7.9375 4.867188 7.8125 C 4.839844 7.578125 5.023438 7.332031 5.21875 7.265625 C 5.332031 7.230469 5.46875 7.246094 5.589844 7.25 C 5.78125 7.257812 5.972656 7.289062 6.164062 7.285156 C 6.515625 7.28125 6.796875 7.40625 7.011719 7.683594 C 7.1875 7.910156 7.328125 8.160156 7.386719 8.441406 Z M 16.253906 12.964844 C 16.253906 12.96875 16.253906 12.972656 16.253906 12.972656 C 16.191406 13.179688 15.765625 13.5 15.554688 13.476562 C 15.316406 13.449219 15.152344 13.554688 15.011719 13.726562 C 14.996094 13.746094 14.976562 13.765625 14.960938 13.785156 C 14.804688 14 14.679688 14.070312 14.378906 13.960938 C 13.992188 13.816406 13.65625 13.59375 13.398438 13.265625 C 13.28125 13.117188 13.230469 12.953125 13.3125 12.757812 C 13.363281 12.660156 13.441406 12.582031 13.554688 12.535156 C 13.664062 12.496094 13.777344 12.460938 13.882812 12.40625 C 14.046875 12.316406 14.148438 12.164062 14.25 12.011719 C 14.292969 11.945312 14.34375 11.882812 14.386719 11.816406 C 14.421875 11.761719 14.46875 11.757812 14.511719 11.777344 C 14.621094 11.832031 14.730469 11.886719 14.832031 11.957031 C 14.917969 12.011719 14.992188 12.085938 15.070312 12.15625 C 15.171875 12.238281 15.285156 12.277344 15.421875 12.261719 C 15.667969 12.238281 15.886719 12.324219 16.074219 12.480469 C 16.222656 12.605469 16.3125 12.761719 16.253906 12.964844 Z M 6.378906 13.921875 C 6.519531 14.066406 6.492188 14.257812 6.3125 14.34375 C 6.203125 14.390625 6.078125 14.429688 5.964844 14.429688 C 5.703125 14.425781 5.542969 14.546875 5.4375 14.777344 C 5.351562 14.964844 5.1875 15.070312 4.984375 15.097656 C 4.84375 15.117188 4.699219 15.140625 4.558594 15.121094 C 4.167969 15.074219 3.964844 14.644531 4.152344 14.222656 C 4.285156 13.980469 4.53125 13.820312 4.851562 13.785156 C 4.96875 13.773438 5.09375 13.777344 5.210938 13.773438 C 5.441406 13.765625 5.671875 13.761719 5.902344 13.75 C 6.082031 13.746094 6.25 13.785156 6.378906 13.921875 Z M 6.570312 13.027344 C 6.585938 13.039062 6.589844 13.09375 6.578125 13.117188 C 6.507812 13.25 6.386719 13.3125 6.246094 13.335938 C 6.128906 13.355469 6.019531 13.367188 5.90625 13.304688 C 5.730469 13.207031 5.539062 13.132812 5.363281 13.027344 C 5.253906 12.960938 5.234375 12.859375 5.269531 12.757812 C 5.292969 12.679688 5.34375 12.636719 5.425781 12.621094 C 5.640625 12.578125 5.847656 12.601562 6.136719 12.734375 C 6.226562 12.796875 6.402344 12.90625 6.570312 13.027344 Z M 6.570312 13.027344 "/>
  </g>
</svg>