<?xml version="1.0" encoding="UTF-8" standalone="yes"?>
<svg xmlns="http://www.w3.org/2000/svg" xmlns:xlink="http://www.w3.org/1999/xlink" width="24px" height="24px" viewBox="0 0 18 18" version="1.1">
  <g id="surface1">
    <path style=" stroke:none;fill-rule:nonzero;fill:rgb(0%,0%,0%);fill-opacity:1;" d="M 17.234375 4.933594 C 16.949219 4.933594 16.71875 4.933594 16.71875 4.933594 L 16.71875 7.46875 L 17.234375 7.46875 C 17.519531 7.46875 17.75 7.214844 17.75 6.902344 L 17.75 5.496094 C 17.75 5.183594 17.519531 4.933594 17.234375 4.933594 Z M 17.234375 4.933594 "/>
    <path style=" stroke:none;fill-rule:nonzero;fill:rgb(0%,0%,0%);fill-opacity:1;" d="M 15.890625 15.195312 C 16.199219 15.195312 16.453125 14.941406 16.453125 14.628906 L 16.453125 4.121094 C 16.453125 3.808594 16.199219 3.558594 15.890625 3.558594 L 15.339844 3.558594 L 15.339844 2.992188 L 15.632812 2.992188 L 15.632812 2.804688 L 14.671875 2.804688 L 14.671875 2.992188 L 14.964844 2.992188 L 14.964844 3.558594 L 2.261719 3.558594 C 1.949219 3.558594 1.695312 3.808594 1.695312 4.121094 L 1.695312 7.9375 C 1.695312 8.246094 1.949219 8.5 2.261719 8.5 L 3.582031 8.5 L 3.582031 9.984375 L 3.734375 9.984375 L 3.734375 10.5625 L 0.8125 10.5625 C 0.5 10.5625 0.25 10.816406 0.25 11.128906 L 0.25 14.628906 C 0.25 14.941406 0.5 15.191406 0.8125 15.191406 L 15.890625 15.191406 Z M 15.453125 7.46875 L 15.453125 8.484375 L 12.777344 8.484375 L 12.777344 7.46875 Z M 14.984375 4.707031 C 15.164062 4.707031 15.3125 4.851562 15.3125 5.035156 C 15.3125 5.214844 15.164062 5.363281 14.984375 5.363281 C 14.800781 5.363281 14.65625 5.214844 14.65625 5.035156 C 14.65625 4.851562 14.800781 4.707031 14.984375 4.707031 Z M 14.984375 6.089844 C 15.164062 6.089844 15.3125 6.238281 15.3125 6.417969 C 15.3125 6.601562 15.164062 6.746094 14.984375 6.746094 C 14.800781 6.746094 14.65625 6.601562 14.65625 6.417969 C 14.65625 6.238281 14.800781 6.089844 14.984375 6.089844 Z M 13.949219 4.707031 C 14.132812 4.707031 14.28125 4.851562 14.28125 5.035156 C 14.28125 5.214844 14.132812 5.363281 13.949219 5.363281 C 13.769531 5.363281 13.621094 5.214844 13.621094 5.035156 C 13.621094 4.851562 13.769531 4.707031 13.949219 4.707031 Z M 13.949219 6.089844 C 14.132812 6.089844 14.28125 6.238281 14.28125 6.417969 C 14.28125 6.601562 14.132812 6.746094 13.949219 6.746094 C 13.769531 6.746094 13.621094 6.601562 13.621094 6.417969 C 13.621094 6.238281 13.769531 6.089844 13.949219 6.089844 Z M 12.917969 4.707031 C 13.097656 4.707031 13.246094 4.851562 13.246094 5.035156 C 13.246094 5.214844 13.097656 5.363281 12.917969 5.363281 C 12.738281 5.363281 12.589844 5.214844 12.589844 5.035156 C 12.589844 4.851562 12.738281 4.707031 12.917969 4.707031 Z M 12.917969 6.089844 C 13.097656 6.089844 13.246094 6.238281 13.246094 6.417969 C 13.246094 6.601562 13.097656 6.746094 12.917969 6.746094 C 12.738281 6.746094 12.589844 6.601562 12.589844 6.417969 C 12.589844 6.238281 12.738281 6.089844 12.917969 6.089844 Z M 3.921875 9.984375 L 4.074219 9.984375 L 4.074219 9.445312 L 4.613281 9.445312 L 4.613281 9.304688 L 4.074219 9.304688 L 4.074219 8.5 L 5.941406 8.5 C 6.253906 8.5 6.503906 8.246094 6.503906 7.9375 L 6.503906 6.746094 L 9.445312 6.746094 C 10.171875 6.746094 10.757812 7.335938 10.757812 8.0625 L 10.757812 10 C 10.757812 10.3125 10.507812 10.5625 10.195312 10.5625 L 3.921875 10.5625 Z M 3.921875 9.984375 "/>
  </g>
</svg>