<?xml version="1.0" encoding="UTF-8" standalone="yes"?>
<svg xmlns="http://www.w3.org/2000/svg" xmlns:xlink="http://www.w3.org/1999/xlink" width="24px" height="24px" viewBox="0 0 18 18" version="1.1">
  <g id="surface1">
    <path style=" stroke:none;fill-rule:nonzero;fill:rgb(0%,0%,0%);fill-opacity:1;" d="M 15.765625 3.640625 L 15.765625 7.035156 L 17.371094 7.035156 L 17.371094 3.640625 C 17.371094 3.136719 16.957031 2.726562 16.453125 2.726562 C 16.453125 2.726562 15.863281 2.726562 15.421875 2.726562 C 15.128906 2.726562 15.765625 2.929688 15.765625 3.640625 Z M 15.765625 3.640625 "/>
    <path style=" stroke:none;fill-rule:nonzero;fill:rgb(0%,0%,0%);fill-opacity:1;" d="M 15.765625 10.957031 L 15.765625 14.351562 C 15.765625 15.113281 15.167969 15.269531 15.566406 15.269531 C 15.839844 15.269531 16.453125 15.269531 16.453125 15.269531 C 16.957031 15.269531 17.371094 14.855469 17.371094 14.351562 L 17.371094 10.957031 Z M 15.765625 10.957031 "/>
    <path style=" stroke:none;fill-rule:nonzero;fill:rgb(0%,0%,0%);fill-opacity:1;" d="M 17.417969 7.519531 L 12.921875 7.519531 C 12.601562 7.519531 12.34375 7.777344 12.34375 8.097656 L 12.34375 9.898438 C 12.34375 10.214844 12.601562 10.476562 12.921875 10.476562 L 17.417969 10.476562 C 17.734375 10.476562 17.996094 10.214844 17.996094 9.898438 L 17.996094 8.097656 C 17.996094 7.777344 17.734375 7.519531 17.417969 7.519531 Z M 13.910156 9.671875 C 13.539062 9.671875 13.238281 9.371094 13.238281 8.996094 C 13.238281 8.625 13.539062 8.324219 13.910156 8.324219 C 14.285156 8.324219 14.585938 8.625 14.585938 8.996094 C 14.585938 9.371094 14.285156 9.671875 13.910156 9.671875 Z M 13.910156 9.671875 "/>
    <path style=" stroke:none;fill-rule:nonzero;fill:rgb(0%,0%,0%);fill-opacity:1;" d="M 12.441406 7.035156 L 15.167969 7.035156 L 15.167969 3.640625 C 15.167969 3.136719 14.757812 2.726562 14.25 2.726562 L 0.917969 2.726562 C 0.414062 2.726562 0 3.136719 0 3.640625 L 0 14.351562 C 0 14.855469 0.414062 15.269531 0.917969 15.269531 L 14.25 15.269531 C 14.757812 15.269531 15.167969 14.855469 15.167969 14.351562 L 15.167969 10.957031 L 12.441406 10.957031 C 12.121094 10.957031 11.863281 10.695312 11.863281 10.378906 L 11.863281 7.613281 C 11.863281 7.296875 12.121094 7.035156 12.441406 7.035156 Z M 13.246094 3.605469 L 13.628906 3.605469 C 13.777344 3.605469 13.894531 3.726562 13.894531 3.871094 C 13.894531 4.019531 13.777344 4.136719 13.628906 4.136719 L 13.246094 4.136719 C 13.097656 4.136719 12.980469 4.019531 12.980469 3.871094 C 12.980469 3.726562 13.097656 3.605469 13.246094 3.605469 Z M 13.480469 13.671875 L 13.863281 13.671875 C 14.011719 13.671875 14.128906 13.789062 14.128906 13.933594 C 14.128906 14.082031 14.011719 14.199219 13.863281 14.199219 L 13.480469 14.199219 C 13.332031 14.199219 13.214844 14.082031 13.214844 13.933594 C 13.214844 13.789062 13.332031 13.671875 13.480469 13.671875 Z M 1.476562 13.785156 C 1.476562 13.929688 1.359375 14.050781 1.210938 14.050781 C 1.066406 14.050781 0.945312 13.929688 0.945312 13.785156 L 0.945312 13.398438 C 0.945312 13.253906 1.066406 13.136719 1.210938 13.136719 C 1.359375 13.136719 1.476562 13.253906 1.476562 13.398438 Z M 1.476562 11.957031 C 1.476562 12.101562 1.359375 12.222656 1.210938 12.222656 C 1.066406 12.222656 0.945312 12.101562 0.945312 11.957031 L 0.945312 11.570312 C 0.945312 11.425781 1.066406 11.304688 1.210938 11.304688 C 1.359375 11.304688 1.476562 11.425781 1.476562 11.570312 Z M 1.476562 10.128906 C 1.476562 10.273438 1.359375 10.390625 1.210938 10.390625 C 1.066406 10.390625 0.945312 10.273438 0.945312 10.128906 L 0.945312 9.742188 C 0.945312 9.597656 1.066406 9.476562 1.210938 9.476562 C 1.359375 9.476562 1.476562 9.597656 1.476562 9.742188 Z M 1.476562 8.296875 C 1.476562 8.445312 1.359375 8.5625 1.210938 8.5625 C 1.066406 8.5625 0.945312 8.445312 0.945312 8.296875 L 0.945312 7.914062 C 0.945312 7.765625 1.066406 7.648438 1.210938 7.648438 C 1.359375 7.648438 1.476562 7.765625 1.476562 7.914062 Z M 1.476562 6.46875 C 1.476562 6.617188 1.359375 6.734375 1.210938 6.734375 C 1.066406 6.734375 0.945312 6.617188 0.945312 6.46875 L 0.945312 6.085938 C 0.945312 5.9375 1.066406 5.820312 1.210938 5.820312 C 1.359375 5.820312 1.476562 5.9375 1.476562 6.085938 Z M 1.476562 4.640625 C 1.476562 4.785156 1.359375 4.90625 1.210938 4.90625 C 1.066406 4.90625 0.945312 4.785156 0.945312 4.640625 L 0.945312 4.253906 C 0.945312 4.109375 1.066406 3.992188 1.210938 3.992188 C 1.359375 3.992188 1.476562 4.109375 1.476562 4.253906 Z M 2.007812 3.871094 C 2.007812 3.726562 2.125 3.605469 2.269531 3.605469 L 2.65625 3.605469 C 2.800781 3.605469 2.921875 3.726562 2.921875 3.871094 C 2.921875 4.019531 2.800781 4.136719 2.65625 4.136719 L 2.269531 4.136719 C 2.125 4.136719 2.007812 4.019531 2.007812 3.871094 Z M 2.890625 14.199219 L 2.503906 14.199219 C 2.359375 14.199219 2.242188 14.082031 2.242188 13.933594 C 2.242188 13.789062 2.359375 13.671875 2.503906 13.671875 L 2.890625 13.671875 C 3.035156 13.671875 3.15625 13.789062 3.15625 13.933594 C 3.15625 14.082031 3.035156 14.199219 2.890625 14.199219 Z M 3.835938 3.871094 C 3.835938 3.726562 3.953125 3.605469 4.101562 3.605469 L 4.484375 3.605469 C 4.632812 3.605469 4.75 3.726562 4.75 3.871094 C 4.75 4.019531 4.632812 4.136719 4.484375 4.136719 L 4.101562 4.136719 C 3.953125 4.136719 3.835938 4.019531 3.835938 3.871094 Z M 4.71875 14.199219 L 4.335938 14.199219 C 4.1875 14.199219 4.070312 14.082031 4.070312 13.933594 C 4.070312 13.789062 4.1875 13.671875 4.335938 13.671875 L 4.71875 13.671875 C 4.867188 13.671875 4.984375 13.789062 4.984375 13.933594 C 4.984375 14.082031 4.867188 14.199219 4.71875 14.199219 Z M 5.664062 3.871094 C 5.664062 3.726562 5.78125 3.605469 5.929688 3.605469 L 6.3125 3.605469 C 6.460938 3.605469 6.578125 3.726562 6.578125 3.871094 C 6.578125 4.019531 6.460938 4.136719 6.3125 4.136719 L 5.929688 4.136719 C 5.78125 4.136719 5.664062 4.019531 5.664062 3.871094 Z M 6.546875 14.199219 L 6.164062 14.199219 C 6.015625 14.199219 5.898438 14.082031 5.898438 13.933594 C 5.898438 13.789062 6.015625 13.671875 6.164062 13.671875 L 6.546875 13.671875 C 6.695312 13.671875 6.8125 13.789062 6.8125 13.933594 C 6.8125 14.082031 6.695312 14.199219 6.546875 14.199219 Z M 7.492188 3.871094 C 7.492188 3.726562 7.613281 3.605469 7.757812 3.605469 L 8.144531 3.605469 C 8.289062 3.605469 8.40625 3.726562 8.40625 3.871094 C 8.40625 4.019531 8.289062 4.136719 8.144531 4.136719 L 7.757812 4.136719 C 7.613281 4.136719 7.492188 4.019531 7.492188 3.871094 Z M 8.378906 14.199219 L 7.992188 14.199219 C 7.847656 14.199219 7.726562 14.082031 7.726562 13.933594 C 7.726562 13.789062 7.847656 13.671875 7.992188 13.671875 L 8.378906 13.671875 C 8.523438 13.671875 8.640625 13.789062 8.640625 13.933594 C 8.640625 14.082031 8.523438 14.199219 8.378906 14.199219 Z M 9.320312 3.871094 C 9.320312 3.726562 9.441406 3.605469 9.585938 3.605469 L 9.972656 3.605469 C 10.117188 3.605469 10.238281 3.726562 10.238281 3.871094 C 10.238281 4.019531 10.117188 4.136719 9.972656 4.136719 L 9.585938 4.136719 C 9.441406 4.136719 9.320312 4.019531 9.320312 3.871094 Z M 10.207031 14.199219 L 9.820312 14.199219 C 9.675781 14.199219 9.554688 14.082031 9.554688 13.933594 C 9.554688 13.789062 9.675781 13.671875 9.820312 13.671875 L 10.207031 13.671875 C 10.351562 13.671875 10.472656 13.789062 10.472656 13.933594 C 10.472656 14.082031 10.351562 14.199219 10.207031 14.199219 Z M 12.035156 13.671875 C 12.179688 13.671875 12.300781 13.789062 12.300781 13.933594 C 12.300781 14.082031 12.179688 14.199219 12.035156 14.199219 L 11.648438 14.199219 C 11.503906 14.199219 11.386719 14.082031 11.386719 13.933594 C 11.386719 13.789062 11.503906 13.671875 11.648438 13.671875 Z M 11.800781 4.136719 L 11.414062 4.136719 C 11.269531 4.136719 11.152344 4.019531 11.152344 3.871094 C 11.152344 3.726562 11.269531 3.605469 11.414062 3.605469 L 11.800781 3.605469 C 11.945312 3.605469 12.066406 3.726562 12.066406 3.871094 C 12.066406 4.019531 11.945312 4.136719 11.800781 4.136719 Z M 11.800781 4.136719 "/>
  </g>
</svg>