<?xml version="1.0" encoding="UTF-8" standalone="yes"?>
<svg xmlns="http://www.w3.org/2000/svg" xmlns:xlink="http://www.w3.org/1999/xlink" width="24px" height="24px" viewBox="0 0 18 18" version="1.1">
  <g id="surface1">
    <path style=" stroke:none;fill-rule:nonzero;fill:rgb(0%,0%,0%);fill-opacity:1;" d="M 15.375 8.0625 C 15.375 7.746094 15.125 7.5 14.8125 7.5 L 13.125 7.5 L 13.125 5.417969 C 14.121094 4.542969 15.375 3.1875 15.375 2.8125 C 15.375 2.496094 15.125 2.25 14.8125 2.25 L 13.125 2.25 L 13.125 1.996094 C 13.125 1.722656 12.921875 1.5 12.667969 1.5 L 12.308594 1.5 C 12.171875 1.5 12.050781 1.429688 11.964844 1.316406 C 11.371094 0.53125 10.269531 0 9 0 C 7.730469 0 6.628906 0.53125 6.035156 1.316406 C 5.949219 1.429688 5.828125 1.5 5.691406 1.5 L 5.332031 1.5 C 5.078125 1.5 4.875 1.722656 4.875 1.996094 L 4.875 2.25 L 3.1875 2.25 C 2.875 2.25 2.625 2.496094 2.625 2.8125 C 2.625 3.1875 3.878906 4.542969 4.875 5.417969 L 4.875 7.5 L 3.1875 7.5 C 2.875 7.5 2.625 7.746094 2.625 8.0625 C 2.625 8.4375 3.878906 9.792969 4.875 10.667969 L 4.875 12.75 L 3.1875 12.75 C 2.875 12.75 2.625 12.996094 2.625 13.3125 C 2.625 13.6875 3.878906 15.042969 4.875 15.917969 L 4.875 17.503906 C 4.875 17.777344 5.078125 18 5.332031 18 L 12.667969 18 C 12.921875 18 13.125 17.777344 13.125 17.503906 L 13.125 15.917969 C 14.121094 15.042969 15.375 13.6875 15.375 13.3125 C 15.375 12.996094 15.125 12.75 14.8125 12.75 L 13.125 12.75 L 13.125 10.667969 C 14.121094 9.792969 15.375 8.4375 15.375 8.0625 Z M 9 16.5 C 7.964844 16.5 7.125 15.660156 7.125 14.625 C 7.125 13.589844 7.964844 12.75 9 12.75 C 10.035156 12.75 10.875 13.589844 10.875 14.625 C 10.875 15.660156 10.035156 16.5 9 16.5 Z M 9 11.25 C 7.964844 11.25 7.125 10.410156 7.125 9.375 C 7.125 8.339844 7.964844 7.5 9 7.5 C 10.035156 7.5 10.875 8.339844 10.875 9.375 C 10.875 10.410156 10.035156 11.25 9 11.25 Z M 9 6 C 7.964844 6 7.125 5.160156 7.125 4.125 C 7.125 3.089844 7.964844 2.25 9 2.25 C 10.035156 2.25 10.875 3.089844 10.875 4.125 C 10.875 5.160156 10.035156 6 9 6 Z M 9 6 "/>
  </g>
</svg>