<?xml version="1.0" encoding="utf-8"?>
<!-- Generator: Adobe Illustrator 15.1.0, SVG Export Plug-In . SVG Version: 6.00 Build 0)  -->
<!DOCTYPE svg PUBLIC "-//W3C//DTD SVG 1.1//EN" "http://www.w3.org/Graphics/SVG/1.1/DTD/svg11.dtd">
<svg version="1.1" id="Layer_1" xmlns="http://www.w3.org/2000/svg" xmlns:xlink="http://www.w3.org/1999/xlink" x="0px" y="0px"
	 width="24px" height="24px" viewBox="0 0 24 24" enable-background="new 0 0 24 24" xml:space="preserve">
<path fill="#010002" d="M18.92,8.931l0.941-1.136l-1.215-1.007l-0.959,1.156c-0.887-0.61-1.844-1.073-2.842-1.38l0.186-1.643
	l-1.568-0.177l-0.166,1.472c-0.428-0.059-0.861-0.09-1.296-0.09c-0.403,0-0.805,0.029-1.202,0.08l-0.165-1.462L9.066,4.92
	l0.182,1.612c-1.009,0.3-1.977,0.76-2.873,1.368L5.452,6.787L4.236,7.794l0.9,1.085c-0.819,0.741-1.556,1.615-2.178,2.612
	l-0.521,0.835l0.521,0.836C5.054,16.524,8.434,18.53,12,18.53c3.566,0,6.947-2.006,9.042-5.367l0.521-0.836l-0.521-0.835
	C20.436,10.518,19.717,9.661,18.92,8.931z M12,16.952c-3.154,0-5.953-1.818-7.704-4.625C6.048,9.521,8.847,7.703,12,7.703
	s5.953,1.818,7.703,4.624C17.953,15.134,15.154,16.952,12,16.952z M15.166,11.396c0.074,0.272,0.115,0.557,0.115,0.852
	c0,1.809-1.471,3.281-3.281,3.281c-1.81,0-3.281-1.473-3.281-3.281c0-1.81,1.472-3.282,3.281-3.282c0.192,0,0.381,0.02,0.564,0.052
	c0.184-0.209,0.414-0.375,0.676-0.479C12.85,8.408,12.434,8.335,12,8.335c-2.162,0-3.914,1.751-3.914,3.913
	c0,2.16,1.752,3.913,3.914,3.913c2.16,0,3.914-1.753,3.914-3.913c0-0.559-0.119-1.088-0.328-1.567
	C15.502,10.953,15.357,11.197,15.166,11.396z M12.129,10.177c0-0.173,0.026-0.339,0.072-0.497C12.135,9.675,12.068,9.669,12,9.669
	c-1.425,0-2.579,1.155-2.579,2.579s1.154,2.578,2.579,2.578c1.423,0,2.578-1.154,2.578-2.578c0-0.147-0.014-0.291-0.039-0.431
	c-0.199,0.078-0.418,0.124-0.645,0.124C12.92,11.941,12.129,11.151,12.129,10.177z"/>
</svg>
