<?xml version="1.0" encoding="UTF-8" standalone="yes"?>
<svg xmlns="http://www.w3.org/2000/svg" xmlns:xlink="http://www.w3.org/1999/xlink" width="24px" height="24px" viewBox="0 0 18 18" version="1.1">
  <g id="surface1">
    <path style=" stroke:none;fill-rule:nonzero;fill:rgb(0%,0%,0%);fill-opacity:1;" d="M 12.84375 10.5 L 15.289062 7.5625 L 9.433594 7.5625 L 9.433594 6.246094 L 9.9375 6.246094 L 9.9375 5.699219 L 8.054688 5.699219 L 8.054688 6.246094 L 8.5625 6.246094 L 8.5625 7.5625 L 2.703125 7.5625 L 5.152344 10.5 L 7.121094 10.5 L 7.121094 15.054688 L 5.152344 15.054688 L 2.703125 17.996094 L 15.289062 17.996094 L 12.84375 15.054688 L 10.871094 15.054688 L 10.871094 10.5 Z M 12.84375 10.5 "/>
    <path style=" stroke:none;fill-rule:nonzero;fill:rgb(0%,0%,0%);fill-opacity:1;" d="M 16.085938 3.710938 C 16.085938 3.710938 16.035156 3.675781 15.859375 3.675781 C 15.722656 3.675781 15.574219 3.695312 15.449219 3.71875 C 15.511719 4.058594 15.609375 4.28125 15.664062 4.316406 C 15.726562 4.363281 15.800781 4.382812 15.875 4.382812 C 15.996094 4.382812 16.109375 4.324219 16.179688 4.226562 C 16.296875 4.058594 16.253906 3.824219 16.085938 3.710938 Z M 16.085938 3.710938 "/>
    <path style=" stroke:none;fill-rule:nonzero;fill:rgb(0%,0%,0%);fill-opacity:1;" d="M 13.5625 3 C 13.832031 3.253906 14.058594 3.390625 14.148438 3.390625 L 14.152344 3.390625 C 14.261719 3.386719 14.363281 3.34375 14.4375 3.261719 C 14.511719 3.183594 14.550781 3.078125 14.546875 2.96875 C 14.542969 2.742188 14.355469 2.566406 14.125 2.574219 C 14.039062 2.574219 13.8125 2.734375 13.5625 3 Z M 13.5625 3 "/>
    <path style=" stroke:none;fill-rule:nonzero;fill:rgb(0%,0%,0%);fill-opacity:1;" d="M 11.554688 3.550781 C 11.714844 3.597656 11.957031 3.65625 12.152344 3.65625 C 12.269531 3.65625 12.316406 3.632812 12.324219 3.628906 C 12.425781 3.570312 12.5 3.472656 12.53125 3.359375 C 12.5625 3.242188 12.546875 3.121094 12.488281 3.015625 C 12.410156 2.878906 12.261719 2.789062 12.097656 2.789062 C 12.019531 2.789062 11.945312 2.8125 11.875 2.851562 C 11.777344 2.90625 11.644531 3.195312 11.554688 3.550781 Z M 11.554688 3.550781 "/>
    <path style=" stroke:none;fill-rule:nonzero;fill:rgb(0%,0%,0%);fill-opacity:1;" d="M 9.871094 3.734375 C 9.742188 3.855469 9.691406 4.289062 9.6875 4.625 C 9.765625 4.628906 9.863281 4.632812 9.964844 4.632812 C 10.421875 4.632812 10.558594 4.539062 10.589844 4.511719 C 10.691406 4.414062 10.753906 4.285156 10.757812 4.144531 C 10.761719 4.003906 10.714844 3.871094 10.617188 3.765625 C 10.515625 3.65625 10.378906 3.597656 10.230469 3.597656 C 10.097656 3.597656 9.96875 3.644531 9.871094 3.734375 Z M 9.871094 3.734375 "/>
    <path style=" stroke:none;fill-rule:nonzero;fill:rgb(0%,0%,0%);fill-opacity:1;" d="M 1.90625 3.710938 C 1.738281 3.824219 1.699219 4.058594 1.816406 4.226562 C 1.882812 4.324219 1.996094 4.382812 2.121094 4.382812 C 2.195312 4.382812 2.269531 4.363281 2.332031 4.316406 C 2.382812 4.28125 2.480469 4.058594 2.542969 3.71875 C 2.417969 3.695312 2.269531 3.675781 2.136719 3.675781 C 1.960938 3.675781 1.90625 3.710938 1.90625 3.710938 Z M 1.90625 3.710938 "/>
    <path style=" stroke:none;fill-rule:nonzero;fill:rgb(0%,0%,0%);fill-opacity:1;" d="M 3.839844 3.390625 L 3.84375 3.390625 C 3.933594 3.390625 4.164062 3.253906 4.429688 3 C 4.183594 2.734375 3.957031 2.574219 3.867188 2.574219 C 3.640625 2.566406 3.453125 2.742188 3.445312 2.96875 C 3.441406 3.078125 3.480469 3.183594 3.558594 3.261719 C 3.632812 3.34375 3.734375 3.386719 3.839844 3.390625 Z M 3.839844 3.390625 "/>
    <path style=" stroke:none;fill-rule:nonzero;fill:rgb(0%,0%,0%);fill-opacity:1;" d="M 5.671875 3.628906 C 5.679688 3.632812 5.726562 3.65625 5.84375 3.65625 C 6.039062 3.65625 6.28125 3.597656 6.441406 3.550781 C 6.351562 3.195312 6.21875 2.90625 6.117188 2.851562 C 6.050781 2.8125 5.972656 2.789062 5.894531 2.789062 C 5.734375 2.789062 5.585938 2.878906 5.503906 3.015625 C 5.445312 3.121094 5.429688 3.242188 5.460938 3.359375 C 5.492188 3.472656 5.566406 3.570312 5.671875 3.628906 Z M 5.671875 3.628906 "/>
    <path style=" stroke:none;fill-rule:nonzero;fill:rgb(0%,0%,0%);fill-opacity:1;" d="M 8.027344 4.632812 C 8.132812 4.632812 8.230469 4.628906 8.304688 4.625 C 8.304688 4.289062 8.253906 3.855469 8.121094 3.734375 C 8.023438 3.644531 7.898438 3.597656 7.765625 3.597656 C 7.613281 3.597656 7.476562 3.65625 7.375 3.765625 C 7.28125 3.871094 7.230469 4.003906 7.238281 4.144531 C 7.242188 4.285156 7.300781 4.414062 7.40625 4.511719 C 7.4375 4.539062 7.574219 4.632812 8.027344 4.632812 Z M 8.027344 4.632812 "/>
    <path style=" stroke:none;fill-rule:nonzero;fill:rgb(0%,0%,0%);fill-opacity:1;" d="M 15.664062 1.179688 C 15.742188 0.988281 15.652344 0.773438 15.460938 0.695312 C 15.460938 0.695312 15.402344 0.675781 15.230469 0.714844 C 15.101562 0.742188 14.960938 0.792969 14.839844 0.84375 C 14.976562 1.160156 15.121094 1.355469 15.179688 1.382812 C 15.25 1.410156 15.328125 1.417969 15.402344 1.402344 C 15.519531 1.375 15.617188 1.292969 15.664062 1.179688 Z M 15.664062 1.179688 "/>
    <path style=" stroke:none;fill-rule:nonzero;fill:rgb(0%,0%,0%);fill-opacity:1;" d="M 13.5 0.808594 L 13.503906 0.808594 C 13.609375 0.78125 13.699219 0.714844 13.753906 0.621094 C 13.808594 0.523438 13.824219 0.414062 13.800781 0.308594 C 13.742188 0.0898438 13.523438 -0.0429688 13.300781 0.0117188 C 13.214844 0.0351562 13.027344 0.238281 12.84375 0.554688 C 13.160156 0.742188 13.414062 0.828125 13.5 0.808594 Z M 13.5 0.808594 "/>
    <path style=" stroke:none;fill-rule:nonzero;fill:rgb(0%,0%,0%);fill-opacity:1;" d="M 11.609375 1.503906 C 11.722656 1.476562 11.765625 1.445312 11.769531 1.4375 C 11.859375 1.359375 11.910156 1.246094 11.917969 1.128906 C 11.921875 1.007812 11.878906 0.890625 11.800781 0.804688 C 11.691406 0.683594 11.527344 0.632812 11.371094 0.667969 C 11.292969 0.683594 11.222656 0.722656 11.164062 0.773438 C 11.078125 0.851562 11.015625 1.164062 11.003906 1.53125 C 11.167969 1.539062 11.417969 1.542969 11.609375 1.503906 Z M 11.609375 1.503906 "/>
    <path style=" stroke:none;fill-rule:nonzero;fill:rgb(0%,0%,0%);fill-opacity:1;" d="M 9.691406 2.933594 C 10.132812 2.832031 10.246094 2.710938 10.269531 2.675781 C 10.351562 2.5625 10.378906 2.421875 10.355469 2.28125 C 10.332031 2.144531 10.253906 2.023438 10.136719 1.941406 C 10.015625 1.859375 9.867188 1.828125 9.722656 1.863281 C 9.589844 1.890625 9.476562 1.96875 9.402344 2.078125 C 9.300781 2.222656 9.34375 2.652344 9.417969 2.980469 C 9.492188 2.972656 9.589844 2.953125 9.691406 2.933594 Z M 9.691406 2.933594 "/>
    <path style=" stroke:none;fill-rule:nonzero;fill:rgb(0%,0%,0%);fill-opacity:1;" d="M 3.152344 0.84375 C 3.035156 0.792969 2.894531 0.742188 2.761719 0.714844 C 2.589844 0.675781 2.53125 0.695312 2.53125 0.695312 C 2.34375 0.773438 2.253906 0.988281 2.328125 1.179688 C 2.375 1.292969 2.472656 1.375 2.59375 1.402344 C 2.667969 1.417969 2.742188 1.410156 2.8125 1.382812 C 2.875 1.355469 3.015625 1.160156 3.152344 0.84375 Z M 3.152344 0.84375 "/>
    <path style=" stroke:none;fill-rule:nonzero;fill:rgb(0%,0%,0%);fill-opacity:1;" d="M 4.488281 0.808594 L 4.492188 0.808594 C 4.582031 0.828125 4.832031 0.742188 5.148438 0.554688 C 4.964844 0.238281 4.777344 0.0351562 4.695312 0.0117188 C 4.472656 -0.0429688 4.25 0.0898438 4.195312 0.308594 C 4.167969 0.414062 4.183594 0.523438 4.238281 0.621094 C 4.296875 0.714844 4.386719 0.78125 4.488281 0.808594 Z M 4.488281 0.808594 "/>
    <path style=" stroke:none;fill-rule:nonzero;fill:rgb(0%,0%,0%);fill-opacity:1;" d="M 6.386719 1.503906 C 6.574219 1.542969 6.824219 1.539062 6.992188 1.53125 C 6.980469 1.164062 6.914062 0.851562 6.828125 0.773438 C 6.769531 0.722656 6.699219 0.683594 6.625 0.667969 C 6.46875 0.632812 6.304688 0.683594 6.195312 0.804688 C 6.113281 0.890625 6.074219 1.007812 6.078125 1.128906 C 6.082031 1.246094 6.136719 1.359375 6.222656 1.4375 C 6.230469 1.445312 6.269531 1.476562 6.386719 1.503906 Z M 6.386719 1.503906 "/>
    <path style=" stroke:none;fill-rule:nonzero;fill:rgb(0%,0%,0%);fill-opacity:1;" d="M 8.304688 2.933594 C 8.40625 2.953125 8.5 2.972656 8.578125 2.980469 C 8.648438 2.652344 8.691406 2.222656 8.589844 2.078125 C 8.515625 1.964844 8.402344 1.890625 8.273438 1.863281 C 8.128906 1.828125 7.980469 1.859375 7.859375 1.941406 C 7.742188 2.023438 7.664062 2.144531 7.640625 2.28125 C 7.613281 2.421875 7.644531 2.5625 7.722656 2.675781 C 7.75 2.710938 7.863281 2.832031 8.304688 2.933594 Z M 8.304688 2.933594 "/>
  </g>
</svg>