<?xml version="1.0" encoding="UTF-8" standalone="no"?>
<!-- Generated by IcoMoon.io -->

<svg
   xmlns:dc="http://purl.org/dc/elements/1.1/"
   xmlns:cc="http://creativecommons.org/ns#"
   xmlns:rdf="http://www.w3.org/1999/02/22-rdf-syntax-ns#"
   xmlns:svg="http://www.w3.org/2000/svg"
   xmlns="http://www.w3.org/2000/svg"
   xmlns:sodipodi="http://sodipodi.sourceforge.net/DTD/sodipodi-0.dtd"
   xmlns:inkscape="http://www.inkscape.org/namespaces/inkscape"
   version="1.1"
   width="24"
   height="24"
   viewBox="0 0 24 24"
   id="svg3105"
   inkscape:version="0.48.5 r10040"
   sodipodi:docname="child.svg">
  <metadata
     id="metadata3113">
    <rdf:RDF>
      <cc:Work
         rdf:about="">
        <dc:format>image/svg+xml</dc:format>
        <dc:type
           rdf:resource="http://purl.org/dc/dcmitype/StillImage" />
      </cc:Work>
    </rdf:RDF>
  </metadata>
  <defs
     id="defs3111" />
  <sodipodi:namedview
     pagecolor="#ffffff"
     bordercolor="#666666"
     borderopacity="1"
     objecttolerance="10"
     gridtolerance="10"
     guidetolerance="10"
     inkscape:pageopacity="0"
     inkscape:pageshadow="2"
     inkscape:window-width="657"
     inkscape:window-height="480"
     id="namedview3109"
     showgrid="false"
     inkscape:zoom="8.4285714"
     inkscape:cx="11.008475"
     inkscape:cy="14"
     inkscape:window-x="0"
     inkscape:window-y="27"
     inkscape:window-maximized="0"
     inkscape:current-layer="svg3105" />
  <path
     d="m 19.194149,6.4863339 -3.833182,3.8331831 v 10.818111 q 0,0.604134 -0.433565,1.036859 -0.433565,0.432724 -1.036858,0.433564 -0.603294,8.41e-4 -1.036858,-0.433564 -0.433565,-0.434405 -0.433565,-1.036859 v -5.04145 h -0.840242 v 5.04145 q 0,0.604134 -0.433564,1.036859 -0.433565,0.432724 -1.036859,0.433564 Q 9.5061628,22.608892 9.072598,22.174487 8.6390333,21.740082 8.6390333,21.137628 V 10.319517 L 4.8058509,6.4863339 Q 4.437825,6.118308 4.437825,5.5939972 q 0,-0.5243108 0.3680259,-0.8923366 0.3680258,-0.3680259 0.8923366,-0.3680259 0.5243108,0 0.8923367,0.3680259 l 2.993781,2.9937811 h 4.8313898 l 2.993781,-2.9937811 q 0.368026,-0.3680259 0.892337,-0.3680259 0.52431,0 0.892336,0.3680259 0.368026,0.3680258 0.368026,0.8923366 0,0.5243108 -0.368026,0.8923367 z M 14.940846,4.3327945 q 0,1.2208711 -0.859567,2.0812786 Q 13.221711,7.2744806 12,7.2736403 10.778289,7.2728001 9.9187214,6.4140731 9.0591542,5.5553461 9.0591542,4.3327945 q 0,-1.2225516 0.8595672,-2.0812786 Q 10.778289,1.3927889 12,1.3919486 q 1.221711,-8.402e-4 2.081279,0.8595673 0.859567,0.8604074 0.859567,2.0812786 z"
     id="path3107"
     inkscape:connector-curvature="0"
     style="fill:#444444" />
</svg>
