<?xml version="1.0" encoding="utf-8"?>
<!-- Generator: Adobe Illustrator 15.1.0, SVG Export Plug-In . SVG Version: 6.00 Build 0)  -->
<!DOCTYPE svg PUBLIC "-//W3C//DTD SVG 1.1//EN" "http://www.w3.org/Graphics/SVG/1.1/DTD/svg11.dtd">
<svg version="1.1" id="Layer_1" xmlns="http://www.w3.org/2000/svg" xmlns:xlink="http://www.w3.org/1999/xlink" x="0px" y="0px"
	 width="24px" height="24px" viewBox="0 0 24 24" enable-background="new 0 0 24 24" xml:space="preserve">
<g>
	<g>
		<path d="M3.648,21.101h3.307l0.612,0.917h8.259l0.612-0.917h2.848c0.371,0,0.67-0.919,0.67-0.919H2.979
			C2.979,20.182,3.279,21.101,3.648,21.101z"/>
		<path d="M3.648,18.807h3.307l0.612,0.917h8.259l0.612-0.917h2.848c0.371,0,0.67-0.919,0.67-0.919H2.979
			C2.979,17.888,3.279,18.807,3.648,18.807z"/>
		<path d="M3.648,16.513h3.307l0.612,0.916h8.259l0.612-0.916h2.848c0.371,0,0.67-0.919,0.67-0.919H2.979
			C2.979,15.594,3.279,16.513,3.648,16.513z"/>
		<path d="M3.648,14.218h3.307l0.612,0.917h8.259l0.612-0.917h2.848c0.371,0,0.67-0.919,0.67-0.919h-6.1
			c2.33-0.936,3.978-3.212,3.978-5.877c0-3.5-2.837-6.338-6.338-6.338c-3.5,0-6.337,2.837-6.337,6.338
			c0,2.665,1.647,4.941,3.978,5.877H2.979C2.979,13.299,3.279,14.218,3.648,14.218z M8.026,7.421c0-1.914,1.557-3.47,3.47-3.47
			c1.913,0,3.47,1.557,3.47,3.47c0,1.913-1.557,3.469-3.47,3.469C9.583,10.891,8.026,9.334,8.026,7.421z"/>
		<path d="M14.508,7.421c0-1.661-1.352-3.011-3.012-3.011c-1.661,0-3.011,1.351-3.011,3.011c0,1.661,1.351,3.011,3.011,3.011
			C13.156,10.432,14.508,9.082,14.508,7.421z"/>
	</g>
</g>
</svg>
