<?xml version="1.0" encoding="UTF-8" standalone="yes"?>
<svg xmlns="http://www.w3.org/2000/svg" xmlns:xlink="http://www.w3.org/1999/xlink" width="24px" height="24px" viewBox="0 0 18 18" version="1.1">
  <g id="surface1">
    <path style=" stroke:none;fill-rule:nonzero;fill:rgb(0%,0%,0%);fill-opacity:1;" d="M 17.441406 0.75 C 17.441406 0.71875 17.4375 0.691406 17.433594 0.664062 C 17.429688 0.636719 17.421875 0.613281 17.414062 0.589844 C 17.410156 0.5625 17.402344 0.535156 17.390625 0.511719 C 17.382812 0.488281 17.371094 0.464844 17.359375 0.441406 C 17.347656 0.417969 17.335938 0.394531 17.320312 0.375 C 17.308594 0.351562 17.289062 0.332031 17.277344 0.308594 C 17.257812 0.289062 17.246094 0.269531 17.226562 0.25 C 17.207031 0.230469 17.183594 0.210938 17.160156 0.191406 C 17.148438 0.179688 17.136719 0.167969 17.121094 0.15625 C 17.117188 0.152344 17.113281 0.152344 17.105469 0.148438 C 17.082031 0.128906 17.054688 0.117188 17.027344 0.101562 C 17.007812 0.0898438 16.988281 0.078125 16.96875 0.0703125 C 16.945312 0.0585938 16.917969 0.0507812 16.890625 0.0429688 C 16.867188 0.0351562 16.84375 0.0273438 16.816406 0.0195312 C 16.796875 0.015625 16.773438 0.0117188 16.75 0.0117188 C 16.71875 0.0078125 16.691406 0 16.660156 0 C 16.652344 0 16.648438 0 16.640625 0 L 8.589844 0 C 8.582031 0 8.574219 0.00390625 8.5625 0.00390625 C 8.535156 0.00390625 8.503906 0.0078125 8.476562 0.0117188 C 8.449219 0.015625 8.425781 0.0195312 8.402344 0.0234375 C 8.378906 0.03125 8.355469 0.0390625 8.328125 0.046875 C 8.300781 0.0546875 8.277344 0.0664062 8.25 0.078125 C 8.242188 0.0820312 8.234375 0.0820312 8.226562 0.0859375 L 0.964844 3.765625 C 0.953125 3.773438 0.941406 3.78125 0.925781 3.789062 C 0.902344 3.804688 0.878906 3.820312 0.855469 3.835938 C 0.835938 3.851562 0.816406 3.867188 0.796875 3.886719 C 0.777344 3.902344 0.757812 3.917969 0.742188 3.9375 C 0.722656 3.957031 0.707031 3.980469 0.6875 4 C 0.675781 4.019531 0.660156 4.039062 0.648438 4.0625 C 0.632812 4.085938 0.621094 4.105469 0.609375 4.132812 C 0.597656 4.152344 0.585938 4.175781 0.578125 4.203125 C 0.570312 4.226562 0.5625 4.25 0.554688 4.277344 C 0.546875 4.300781 0.542969 4.324219 0.539062 4.351562 C 0.535156 4.378906 0.53125 4.40625 0.53125 4.4375 C 0.527344 4.453125 0.523438 4.46875 0.523438 4.484375 L 0.523438 9.933594 C 0.484375 10.203125 0.460938 10.484375 0.453125 10.78125 L 0.523438 10.78125 L 0.523438 17.09375 C 0.523438 17.539062 0.886719 17.898438 1.328125 17.898438 L 13.9375 17.898438 C 13.941406 17.898438 13.941406 17.898438 13.941406 17.898438 C 13.992188 17.898438 14.039062 17.894531 14.089844 17.886719 C 14.105469 17.882812 14.117188 17.878906 14.132812 17.875 C 14.164062 17.867188 14.195312 17.855469 14.226562 17.84375 C 14.246094 17.839844 14.257812 17.832031 14.277344 17.824219 C 14.304688 17.8125 14.335938 17.792969 14.363281 17.777344 C 14.375 17.769531 14.386719 17.765625 14.398438 17.757812 C 14.4375 17.730469 14.472656 17.699219 14.507812 17.667969 C 14.511719 17.660156 14.515625 17.65625 14.519531 17.652344 C 14.546875 17.621094 14.574219 17.589844 14.597656 17.558594 C 14.605469 17.542969 14.617188 17.53125 14.625 17.515625 C 14.640625 17.488281 14.65625 17.460938 14.667969 17.433594 C 14.675781 17.417969 14.683594 17.398438 14.691406 17.378906 C 14.695312 17.367188 14.703125 17.359375 14.707031 17.347656 L 17.40625 9.109375 C 17.410156 9.097656 17.414062 9.082031 17.414062 9.066406 C 17.421875 9.039062 17.429688 9.011719 17.433594 8.988281 C 17.4375 8.957031 17.441406 8.929688 17.441406 8.902344 C 17.441406 8.886719 17.445312 8.875 17.445312 8.859375 L 17.445312 0.804688 C 17.449219 0.785156 17.445312 0.769531 17.441406 0.75 Z M 2.136719 5.289062 L 3.9375 5.289062 C 3.28125 5.640625 2.664062 6.078125 2.136719 6.621094 Z M 5.765625 5.355469 C 5.832031 5.332031 5.902344 5.308594 5.96875 5.289062 L 8.988281 5.289062 C 8.5 5.378906 7.992188 5.492188 7.484375 5.632812 C 4.824219 6.359375 3.015625 7.558594 2.136719 9.148438 L 2.136719 7.882812 C 2.878906 6.769531 4.089844 5.921875 5.765625 5.355469 Z M 2.578125 16.289062 L 2.136719 16.289062 L 2.136719 13.972656 L 2.320312 11.5 C 2.480469 5.648438 13.027344 5.695312 13.132812 5.691406 L 13.136719 5.289062 L 13.136719 6.199219 C 12.183594 6.222656 10.273438 6.328125 8.328125 6.816406 C 4.636719 7.734375 2.648438 9.589844 2.578125 12.1875 Z M 3.644531 16.289062 L 3.386719 16.289062 L 3.386719 12.199219 L 3.382812 12.199219 C 3.507812 7.597656 10.941406 7.066406 13.136719 7.007812 L 13.136719 7.28125 C 12.386719 7.296875 10.570312 7.386719 8.714844 7.886719 C 5.460938 8.761719 3.707031 10.488281 3.644531 12.882812 Z M 4.578125 16.289062 L 4.449219 16.289062 L 4.449219 12.894531 C 4.566406 8.554688 11.5 8.128906 13.136719 8.089844 L 13.136719 8.476562 C 12.445312 8.492188 10.859375 8.574219 9.242188 9.011719 C 6.335938 9.804688 4.769531 11.382812 4.710938 13.5625 Z M 7.480469 16.289062 C 7.496094 14.84375 7.941406 13.707031 8.804688 12.917969 C 10.273438 11.574219 12.550781 11.570312 13.136719 11.59375 L 13.136719 11.894531 C 12.492188 11.8125 11.351562 11.929688 10.4375 12.332031 C 9.320312 12.820312 8.019531 13.902344 7.960938 16.289062 Z M 8.769531 16.289062 C 8.804688 15.078125 9.207031 14.152344 9.972656 13.539062 C 11.097656 12.636719 12.667969 12.648438 13.082031 12.695312 L 13.078125 12.761719 C 13.097656 12.761719 13.117188 12.761719 13.136719 12.761719 L 13.136719 13.121094 C 11.566406 13.179688 9.082031 13.886719 8.96875 16.289062 Z M 13.136719 16.289062 L 11.027344 16.289062 C 11.253906 15.863281 11.671875 15.546875 12.292969 15.332031 C 12.585938 15.230469 12.882812 15.171875 13.136719 15.136719 Z M 13.136719 14.316406 C 12 14.453125 10.585938 14.972656 10.15625 16.289062 L 9.773438 16.289062 C 9.835938 15.304688 10.4375 14.609375 11.566406 14.222656 C 12.167969 14.019531 12.773438 13.953125 13.136719 13.929688 Z M 13.136719 10.785156 C 12.402344 10.757812 9.945312 10.785156 8.265625 12.320312 C 7.226562 13.269531 6.691406 14.605469 6.675781 16.289062 L 6.578125 16.289062 L 6.578125 14.289062 C 6.667969 10.859375 11.761719 10.484375 13.136719 10.445312 Z M 13.136719 9.640625 C 12.507812 9.652344 11.152344 9.734375 9.765625 10.121094 C 7.207031 10.84375 5.828125 12.277344 5.773438 14.28125 L 5.773438 16.289062 L 5.386719 16.289062 L 5.515625 13.59375 C 5.617188 9.707031 11.628906 9.320312 13.136719 9.285156 Z M 13.535156 3.675781 L 4.699219 3.675781 L 7.78125 2.113281 L 8.78125 1.609375 L 15.050781 1.609375 Z M 15.53125 9.664062 L 14.746094 12.054688 L 14.746094 4.746094 L 15.839844 3.261719 L 15.839844 8.050781 C 15.839844 8.050781 15.882812 8.59375 15.878906 8.605469 Z M 15.53125 9.664062 "/>
  </g>
</svg>