<?xml version="1.0" encoding="UTF-8" standalone="no"?>
<!-- Generator: Adobe Illustrator 16.0.0, SVG Export Plug-In . SVG Version: 6.00 Build 0)  -->

<svg
   xmlns:dc="http://purl.org/dc/elements/1.1/"
   xmlns:cc="http://creativecommons.org/ns#"
   xmlns:rdf="http://www.w3.org/1999/02/22-rdf-syntax-ns#"
   xmlns:svg="http://www.w3.org/2000/svg"
   xmlns="http://www.w3.org/2000/svg"
   xmlns:sodipodi="http://sodipodi.sourceforge.net/DTD/sodipodi-0.dtd"
   xmlns:inkscape="http://www.inkscape.org/namespaces/inkscape"
   version="1.1"
   id="Layer_1"
   x="0px"
   y="0px"
   width="24"
   height="24"
   viewBox="0 0 24 24"
   enable-background="new 0 0 512 512"
   xml:space="preserve"
   inkscape:version="0.48.5 r10040"
   sodipodi:docname="chruch.svg"><metadata
     id="metadata9"><rdf:RDF><cc:Work
         rdf:about=""><dc:format>image/svg+xml</dc:format><dc:type
           rdf:resource="http://purl.org/dc/dcmitype/StillImage" /><dc:title></dc:title></cc:Work></rdf:RDF></metadata><defs
     id="defs7" /><sodipodi:namedview
     pagecolor="#ffffff"
     bordercolor="#666666"
     borderopacity="1"
     objecttolerance="10"
     gridtolerance="10"
     guidetolerance="10"
     inkscape:pageopacity="0"
     inkscape:pageshadow="2"
     inkscape:window-width="657"
     inkscape:window-height="480"
     id="namedview5"
     showgrid="false"
     inkscape:zoom="3.6875"
     inkscape:cx="24"
     inkscape:cy="4.1401136"
     inkscape:window-x="0"
     inkscape:window-y="27"
     inkscape:window-maximized="0"
     inkscape:current-layer="Layer_1" /><path
     d="M 14.018253,12 V 7.9634939 h 1.345502 L 12.672751,5.2724899 V 3.926988 h 1.345502 V 2.581486 H 12.672751 V 1.235984 H 11.327249 V 2.581486 H 9.9817469 v 1.345502 h 1.3455021 v 1.3455019 l -2.6910041,2.691004 h 1.345502 V 12 l -6.7275097,5.382008 h 2.691004 v 5.382008 h 4.0365057 v -3.363755 c 0,-1.114244 0.9033361,-2.018253 2.0182531,-2.018253 1.114243,0 2.018253,0.904009 2.018253,2.018253 v 3.363755 h 4.036505 v -5.382008 h 2.691005 L 14.018253,12 z M 12.672751,10.654498 H 11.327249 V 8.636245 c 0,-0.371863 0.300888,-0.6727511 0.672751,-0.6727511 0.371863,0 0.672751,0.3008881 0.672751,0.6727511 v 2.018253 z"
     id="path3"
     inkscape:connector-curvature="0" /></svg>