<?xml version="1.0" encoding="UTF-8" standalone="no"?>
<!-- Generator: Adobe Illustrator 16.0.0, SVG Export Plug-In . SVG Version: 6.00 Build 0)  -->

<svg
   xmlns:dc="http://purl.org/dc/elements/1.1/"
   xmlns:cc="http://creativecommons.org/ns#"
   xmlns:rdf="http://www.w3.org/1999/02/22-rdf-syntax-ns#"
   xmlns:svg="http://www.w3.org/2000/svg"
   xmlns="http://www.w3.org/2000/svg"
   xmlns:sodipodi="http://sodipodi.sourceforge.net/DTD/sodipodi-0.dtd"
   xmlns:inkscape="http://www.inkscape.org/namespaces/inkscape"
   version="1.1"
   id="Capa_1"
   x="0px"
   y="0px"
   width="24"
   height="24"
   viewBox="0 0 24 24"
   xml:space="preserve"
   inkscape:version="0.48.5 r10040"
   sodipodi:docname="cigarettes.svg"><metadata
     id="metadata3242"><rdf:RDF><cc:Work
         rdf:about=""><dc:format>image/svg+xml</dc:format><dc:type
           rdf:resource="http://purl.org/dc/dcmitype/StillImage" /><dc:title></dc:title></cc:Work></rdf:RDF></metadata><defs
     id="defs3240" /><sodipodi:namedview
     pagecolor="#ffffff"
     bordercolor="#666666"
     borderopacity="1"
     objecttolerance="10"
     gridtolerance="10"
     guidetolerance="10"
     inkscape:pageopacity="0"
     inkscape:pageshadow="2"
     inkscape:window-width="657"
     inkscape:window-height="480"
     id="namedview3238"
     showgrid="false"
     inkscape:zoom="3.2006076"
     inkscape:cx="36.868"
     inkscape:cy="36.868"
     inkscape:window-x="0"
     inkscape:window-y="27"
     inkscape:window-maximized="0"
     inkscape:current-layer="Capa_1" /><g
     id="g3201"
     transform="matrix(0.30508475,0,0,0.30508475,0.75213544,0.75213544)"><g
       id="_x32_7_1_"><g
         id="g3204"><path
           d="M 46.082,12.29 H 23.047 v -1.536 c 0,-0.85 -0.687,-1.536 -1.535,-1.536 H 16.905 V 1.536 C 16.904,0.688 16.218,0 15.368,0 H 9.226 C 8.377,0 7.691,0.688 7.691,1.536 V 12.29 H 3.083 c -0.848,0 -1.535,0.687 -1.535,1.536 v 51.462 c 0,4.659 3.788,8.448 8.446,8.448 h 29.178 c 4.658,0 8.446,-3.789 8.446,-8.448 V 13.826 c 0,-0.849 -0.687,-1.536 -1.536,-1.536 z m -10.75,3.072 h 3.071 v 6.145 h -3.071 v -6.145 z m -6.142,0 h 3.071 v 6.145 H 29.19 v -6.145 z m -6.143,0 h 3.071 v 6.145 H 23.047 V 15.362 z M 16.904,12.29 h 3.071 v 9.217 H 16.904 V 12.29 z M 10.762,3.073 h 3.071 V 15.362 H 10.762 V 3.073 z m 0,15.362 h 3.071 v 3.072 h -3.071 v -3.072 z m 33.785,46.853 c 0,2.964 -2.412,5.377 -5.375,5.377 H 9.994 c -2.964,0 -5.375,-2.413 -5.375,-5.377 V 15.362 H 7.69 v 7.681 c 0,0.85 0.687,1.536 1.535,1.536 h 30.714 c 0.85,0 1.536,-0.687 1.536,-1.536 v -7.681 h 3.071 l 10e-4,49.926 0,0 z M 38.403,46.086 H 10.762 c -0.849,0 -1.536,0.688 -1.536,1.536 0,0.848 0.688,1.536 1.536,1.536 h 27.644 c 0.849,0 1.535,-0.688 1.535,-1.536 0,-0.848 -0.688,-1.536 -1.538,-1.536 z m 0,-6.145 H 10.762 c -0.849,0 -1.536,0.687 -1.536,1.535 0,0.85 0.688,1.537 1.536,1.537 h 27.644 c 0.849,0 1.535,-0.688 1.535,-1.537 0,-0.849 -0.688,-1.535 -1.538,-1.535 z m 0,12.289 H 10.762 c -0.849,0 -1.536,0.687 -1.536,1.535 0,0.85 0.688,1.536 1.536,1.536 h 27.644 c 0.849,0 1.535,-0.687 1.535,-1.536 C 39.94,52.917 39.253,52.23 38.403,52.23 z m 32.25,-6.144 H 55.296 c -0.85,0 -1.535,0.688 -1.535,1.536 v 24.579 c 0,0.849 0.688,1.535 1.535,1.535 h 15.357 c 0.849,0 1.535,-0.688 1.535,-1.535 V 47.622 c 0,-0.851 -0.686,-1.536 -1.535,-1.536 z M 69.116,70.665 H 56.832 V 55.303 h 12.284 v 15.362 z m 0,-18.435 H 56.832 v -3.072 h 12.284 v 3.072 z m -5.887,-6.936 c 4.096,0 7.424,-3.33 7.424,-7.426 0,-3.619 -5.194,-10.147 -6.235,-11.42 l -1.188,-1.452 -1.188,1.452 c -1.041,1.271 -6.232,7.801 -6.232,11.42 0,4.096 3.329,7.426 7.419,7.426 z m 0,-15.38 c 2.088,2.784 4.354,6.394 4.354,7.954 0,2.399 -1.953,4.354 -4.354,4.354 -2.399,0 -4.349,-1.953 -4.349,-4.354 10e-4,-1.557 2.266,-5.167 4.349,-7.954 z"
           id="path3206"
           inkscape:connector-curvature="0" /></g></g></g><g
     id="g3208"
     transform="translate(0,-49.736)" /><g
     id="g3210"
     transform="translate(0,-49.736)" /><g
     id="g3212"
     transform="translate(0,-49.736)" /><g
     id="g3214"
     transform="translate(0,-49.736)" /><g
     id="g3216"
     transform="translate(0,-49.736)" /><g
     id="g3218"
     transform="translate(0,-49.736)" /><g
     id="g3220"
     transform="translate(0,-49.736)" /><g
     id="g3222"
     transform="translate(0,-49.736)" /><g
     id="g3224"
     transform="translate(0,-49.736)" /><g
     id="g3226"
     transform="translate(0,-49.736)" /><g
     id="g3228"
     transform="translate(0,-49.736)" /><g
     id="g3230"
     transform="translate(0,-49.736)" /><g
     id="g3232"
     transform="translate(0,-49.736)" /><g
     id="g3234"
     transform="translate(0,-49.736)" /><g
     id="g3236"
     transform="translate(0,-49.736)" /></svg>