<?xml version="1.0" encoding="UTF-8" standalone="yes"?>
<svg xmlns="http://www.w3.org/2000/svg" xmlns:xlink="http://www.w3.org/1999/xlink" width="24px" height="24px" viewBox="0 0 18 18" version="1.1">
  <g id="surface1">
    <path style=" stroke:none;fill-rule:nonzero;fill:rgb(0%,0%,0%);fill-opacity:1;" d="M 0 11 L 0 12.960938 C 0 13.5625 0.492188 14.054688 1.09375 14.054688 L 15.058594 14.054688 L 15.058594 9.90625 L 1.09375 9.90625 C 0.492188 9.90625 0 10.398438 0 11 Z M 1.199219 11.105469 L 4.527344 11.105469 L 4.527344 12.855469 L 1.199219 12.855469 Z M 1.199219 11.105469 "/>
    <path style=" stroke:none;fill-rule:nonzero;fill:rgb(0%,0%,0%);fill-opacity:1;" d="M 17.515625 9.894531 L 15.832031 9.894531 L 15.832031 14.058594 L 17.515625 14.058594 C 17.789062 14.058594 18.007812 13.839844 18.007812 13.566406 L 18.007812 10.390625 C 18.007812 10.117188 17.789062 9.894531 17.515625 9.894531 Z M 17.515625 9.894531 "/>
    <path style=" stroke:none;fill-rule:nonzero;fill:rgb(0%,0%,0%);fill-opacity:1;" d="M 16.609375 8.953125 C 16.941406 8.953125 17.207031 8.683594 17.207031 8.351562 C 17.207031 7.027344 16.132812 5.949219 14.808594 5.949219 L 9.929688 5.949219 C 9.15625 5.949219 8.53125 5.320312 8.53125 4.550781 C 8.53125 4.21875 8.261719 3.949219 7.929688 3.949219 C 7.597656 3.949219 7.328125 4.21875 7.328125 4.550781 C 7.328125 5.984375 8.496094 7.152344 9.929688 7.152344 L 14.808594 7.152344 C 15.46875 7.152344 16.007812 7.6875 16.007812 8.351562 C 16.007812 8.683594 16.277344 8.953125 16.609375 8.953125 Z M 16.609375 8.953125 "/>
  </g>
</svg>