<?xml version="1.0" encoding="UTF-8" standalone="no"?>
<!-- Generated by IcoMoon.io -->

<svg
   xmlns:dc="http://purl.org/dc/elements/1.1/"
   xmlns:cc="http://creativecommons.org/ns#"
   xmlns:rdf="http://www.w3.org/1999/02/22-rdf-syntax-ns#"
   xmlns:svg="http://www.w3.org/2000/svg"
   xmlns="http://www.w3.org/2000/svg"
   xmlns:sodipodi="http://sodipodi.sourceforge.net/DTD/sodipodi-0.dtd"
   xmlns:inkscape="http://www.inkscape.org/namespaces/inkscape"
   version="1.1"
   width="24"
   height="24"
   viewBox="0 0 24 24"
   id="svg3126"
   inkscape:version="0.48.5 r10040"
   sodipodi:docname="circuit-board.svg">
  <metadata
     id="metadata3134">
    <rdf:RDF>
      <cc:Work
         rdf:about="">
        <dc:format>image/svg+xml</dc:format>
        <dc:type
           rdf:resource="http://purl.org/dc/dcmitype/StillImage" />
      </cc:Work>
    </rdf:RDF>
  </metadata>
  <defs
     id="defs3132" />
  <sodipodi:namedview
     pagecolor="#ffffff"
     bordercolor="#666666"
     borderopacity="1"
     objecttolerance="10"
     gridtolerance="10"
     guidetolerance="10"
     inkscape:pageopacity="0"
     inkscape:pageshadow="2"
     inkscape:window-width="1920"
     inkscape:window-height="942"
     id="namedview3130"
     showgrid="false"
     inkscape:zoom="7.375"
     inkscape:cx="-0.47457627"
     inkscape:cy="16"
     inkscape:window-x="0"
     inkscape:window-y="27"
     inkscape:window-maximized="1"
     inkscape:current-layer="svg3126" />
  <path
     d="m 7.5980629,6.1307507 c 0.8106901,0 1.4673123,0.6566222 1.4673123,1.4673123 0,0.8106901 -0.6566222,1.4673124 -1.4673123,1.4673124 -0.8106901,0 -1.4673124,-0.6566223 -1.4673124,-1.4673124 0,-0.8106901 0.6566223,-1.4673123 1.4673124,-1.4673123 z M 22.271186,17.869249 c 0,2.431337 -1.970601,4.401937 -4.401936,4.401937 H 7.5980629 L 12,17.869249 h 1.859818 c 0.507691,0.877453 1.455575,1.467312 2.542118,1.467312 1.620648,0 2.934626,-1.313978 2.934626,-2.934624 0,-1.620647 -1.313978,-2.934625 -2.934626,-2.934625 -1.086543,0 -2.034427,0.589859 -2.542118,1.467312 h -3.32713 L 3.8388087,21.628503 C 2.5732518,20.85523 1.7288135,19.461283 1.7288135,17.869249 V 6.1307507 c 0,-2.4313366 1.9706005,-4.4019371 4.401937,-4.4019371 v 3.3271308 c -0.8774527,0.50769 -1.4673123,1.4555738 -1.4673123,2.5421186 0,1.6206465 1.3139782,2.934624 2.9346247,2.934624 1.0836102,0 2.0307603,-0.5876579 2.5384511,-1.4614424 l 3.723305,-0.00514 c 0.50769,0.8767191 1.455574,1.4665784 2.541384,1.4665784 1.620647,0 2.934625,-1.3139779 2.934625,-2.9346244 0,-1.6206465 -1.313978,-2.9346247 -2.934625,-2.9346247 -1.086545,0 -2.035161,0.5905932 -2.542118,1.468046 l -3.716702,0.00514 C 9.8848695,5.688356 9.5121719,5.314925 9.0646416,5.056678 V 1.7295473 h 8.8038734 c 2.431337,0 4.401937,1.9706005 4.401937,4.401937 V 17.869983 z m -7.336561,-1.467312 c 0,-0.81069 0.656622,-1.467313 1.467311,-1.467313 0.810691,0 1.467314,0.656623 1.467314,1.467313 0,0.81069 -0.656622,1.467312 -1.467314,1.467312 -0.810689,0 -1.467311,-0.656622 -1.467311,-1.467312 z m 0,-8.803874 c 0,-0.8106901 0.656622,-1.4673123 1.467311,-1.4673123 0.810691,0 1.467314,0.6566222 1.467314,1.4673123 0,0.8106901 -0.656622,1.4673124 -1.467314,1.4673124 -0.810689,0 -1.467311,-0.6566223 -1.467311,-1.4673124 z"
     id="path3128"
     inkscape:connector-curvature="0"
     style="fill:#444444" />
</svg>
