<?xml version="1.0" encoding="utf-8"?>
<!-- Generator: Adobe Illustrator 15.1.0, SVG Export Plug-In . SVG Version: 6.00 Build 0)  -->
<!DOCTYPE svg PUBLIC "-//W3C//DTD SVG 1.1//EN" "http://www.w3.org/Graphics/SVG/1.1/DTD/svg11.dtd">
<svg version="1.1" id="Layer_1" xmlns="http://www.w3.org/2000/svg" xmlns:xlink="http://www.w3.org/1999/xlink" x="0px" y="0px"
	 width="24px" height="24px" viewBox="0 0 24 24" enable-background="new 0 0 24 24" xml:space="preserve">
<path fill-rule="evenodd" clip-rule="evenodd" d="M16.212,2.241c0.005-0.112,0.064-0.171,0.176-0.176
	C16.383,2.177,16.324,2.236,16.212,2.241z M18.413,2.373c0.014,0.138-0.127-0.112-0.132,0.044c0.119-0.031-0.032,0.208,0.088,0.176
	C18.368,2.527,18.532,2.413,18.413,2.373z M21.715,2.505c0.151-0.023,0.396,0.043,0.748-0.044c0.108,0.052-0.09,0.167,0.044,0.22
	c0.032-0.1,0.039-0.225,0.088-0.308C22.296,2.475,21.93,2.271,21.715,2.505z M21.891,2.901c0-0.044,0-0.088,0-0.132
	c0.044,0,0.088,0,0.132,0c0-0.03,0-0.059,0-0.088c-0.044,0-0.052-0.036-0.088-0.044C21.903,2.684,21.763,2.84,21.891,2.901z
	 M18.545,3.342c0.027-0.002,0.052-0.007,0.044-0.044c-0.057-0.102,0.059-0.314-0.132-0.396c-0.01,0.034-0.037,0.051-0.088,0.044
	c0.064,0.221,0.222,0.166,0.088,0.396C18.486,3.342,18.516,3.342,18.545,3.342z M17.841,3.078c0.164,0.003,0.304-0.019,0.396-0.088
	C18.068,2.982,17.916,2.992,17.841,3.078z M18.148,3.122c-0.023,0.156,0.038,0.227,0.133,0.264c0.047-0.113-0.189-0.154-0.044-0.22
	c0.01,0.034,0.001,0.087,0.044,0.088c-0.02-0.122,0.164-0.041,0.176-0.132C18.296,3.112,18.288,3.061,18.148,3.122z M22.551,3.43
	c0.364,0.2-0.214,0.33,0.044,0.572c0.01-0.053,0.049-0.027,0.089,0c-0.096-0.138,0.031-0.37,0.132-0.176
	c-0.015-0.106,0.037-0.503-0.044-0.396C22.777,3.626,22.658,3.391,22.551,3.43z M22.287,3.738c0.102,0.014,0.169-0.007,0.22-0.044
	c0.007-0.109,0.009-0.214-0.088-0.22C22.31,3.584,22.437,3.568,22.287,3.738z M20.482,3.87c-0.033-0.204,0.049-0.18,0.176-0.132
	c0.025-0.256-0.119-0.087-0.221-0.176C20.378,3.621,20.354,3.869,20.482,3.87z M21.538,3.65c-0.043-0.049-0.254-0.151-0.308-0.044
	C21.235,3.692,21.522,3.854,21.538,3.65z M17.532,3.782c-0.052-0.051-0.155-0.05-0.264-0.044
	C17.206,3.878,17.532,3.849,17.532,3.782z M22.375,4.398c0.003-0.121,0.134-0.245,0.044-0.44c-0.021-0.316-0.065,0.098-0.044,0.22
	c-0.033,0.069-0.14,0.065-0.132,0.176C22.304,4.352,22.34,4.375,22.375,4.398z M17.356,4.134c0.061-0.056,0.076-0.263-0.044-0.264
	C17.338,3.947,17.259,4.128,17.356,4.134z M22.639,4.178c0.202,0.081,0.228-0.238,0.133-0.308
	C22.843,4.088,22.618,4.01,22.639,4.178z M8.112,7.832C7.298,8.031,6.371,8.116,5.603,8.36c0.582,0.65,1.228,1.237,1.761,1.937
	c-0.094,0.801-0.308,1.716-0.264,2.509c0.766-0.379,1.546-0.743,2.333-1.101c0.745,0.399,1.537,0.753,2.333,1.101
	c-0.045-0.427-0.125-0.813-0.176-1.233c-0.05-0.417-0.215-0.974-0.132-1.321c0.065-0.273,0.615-0.729,0.836-0.968
	c0.321-0.349,0.689-0.619,0.88-0.969c-0.837-0.16-1.678-0.317-2.509-0.484C10.198,7.11,9.882,6.237,9.344,5.587
	C8.967,6.368,8.554,7.114,8.112,7.832z M21.099,5.587c-0.978,0.153-2.144,0.116-3.082,0.308c0.404,0.608,0.561,1.464,1.013,2.025
	c0.607,0.006,1.503-0.006,2.201,0.044C21.215,7.317,21.27,6.224,21.099,5.587z M22.551,6.159c0.109,0.045,0.328,0.066,0.133,0.176
	c0.029,0,0.059,0,0.088,0c0.002,0.027,0.006,0.052,0.044,0.044c-0.027-0.12,0.056-0.35-0.044-0.396
	C22.736,6.081,22.499,5.975,22.551,6.159z M22.815,6.599c-0.021-0.125-0.167-0.126-0.265-0.176
	C22.562,6.56,22.707,6.561,22.815,6.599z M22.463,6.819c0.089-0.09-0.02-0.086-0.044-0.176c0.052-0.007,0.125,0.008,0.132-0.044
	c-0.06-0.014-0.084-0.063-0.176-0.044C22.404,6.72,22.253,6.813,22.463,6.819z M20.482,9.064c-0.132-0.074-0.285-0.116-0.353,0.044
	C20.277,9.042,20.407,9.126,20.482,9.064z M22.728,9.769c0.033-0.11,0.066-0.417,0-0.617C22.695,9.378,22.548,9.653,22.728,9.769z
	 M21.935,9.989c0.019-0.055,0.057-0.09,0.132-0.088c0.01-0.126-0.011-0.224-0.088-0.264C22.028,9.793,21.794,9.887,21.935,9.989z
	 M22.287,10.341c0.138-0.022,0.18,0.104,0.22-0.044c-0.105,0.017,0.024-0.201-0.132-0.132
	C22.426,10.304,22.306,10.272,22.287,10.341z M21.759,10.87c0.134-0.028,0.379,0.056,0.44-0.044
	c-0.143-0.083-0.241,0.045-0.309-0.132c-0.011,0.048-0.072,0.105-0.088,0.044c-0.003-0.027-0.007-0.052-0.044-0.044
	C21.759,10.752,21.759,10.811,21.759,10.87z M20.13,11.398c-0.122,0.019-0.041-0.165-0.132-0.176c-0.011,0.113-0.076-0.061-0.177,0
	c0,0.117,0,0.235,0,0.352C20.027,11.618,20.016,11.445,20.13,11.398z M21.847,11.574c0.073,0,0.146,0,0.22,0
	c-0.026-0.105,0.056-0.319-0.044-0.352c0.017,0.377-0.116-0.029-0.132,0.044C21.926,11.418,21.825,11.435,21.847,11.574z
	 M22.243,11.354c-0.069,0.004-0.153-0.006-0.133,0.088c0.074,0,0.147,0,0.221,0c-0.093-0.107,0.069-0.227-0.088-0.22
	C22.243,11.266,22.243,11.31,22.243,11.354z M19.47,12.41c0.092,0.025,0.142,0.126,0.22,0.044c-0.019-0.098-0.078-0.157-0.176-0.176
	C19.516,12.339,19.493,12.375,19.47,12.41z M16.74,12.982c-0.073,0.088,0.004,0.056,0,0.176c0.198-0.032,0.145-0.118,0.308,0
	c-0.002-0.061,0.021-0.097,0.044-0.132c-0.162,0.028-0.336-0.159-0.439-0.044C16.682,12.982,16.711,12.982,16.74,12.982z
	 M22.771,13.467c0.004-0.12-0.073-0.089,0-0.176c-0.3,0.086-0.484-0.23-0.528,0.088C22.45,13.313,22.594,13.334,22.771,13.467z
	 M16.96,13.775c-0.006-0.124-0.179-0.305-0.22-0.133C16.844,13.656,16.822,13.796,16.96,13.775z M22.331,13.643
	c0,0.029,0,0.059,0,0.088c0.044,0,0.053,0.036,0.088,0.045c0.016-0.205,0.104,0.156,0.265,0.088
	c-0.008-0.125,0.148-0.086,0.088-0.265C22.591,13.664,22.466,13.581,22.331,13.643z M16.652,14.039
	c0.01-0.034,0.036-0.051,0.088-0.044c-0.028-0.134-0.202-0.121-0.265-0.22C16.486,13.911,16.599,13.946,16.652,14.039z
	 M21.583,14.259c-0.117,0.14,0.091,0.235,0.132,0.353c0.049-0.083,0.056-0.208,0.088-0.309
	C21.564,14.449,21.744,14.413,21.583,14.259z M22.463,14.436c0.048-0.166,0.365,0.105,0.309-0.088
	C22.726,14.302,22.343,14.286,22.463,14.436z M22.639,14.787c0.18,0.01,0.113-0.196,0.089-0.264
	C22.688,14.602,22.604,14.635,22.639,14.787z M17.973,16.064c0.238,0.363,0.477,0.726,0.792,1.012
	c0.396-0.161,0.735-0.38,1.101-0.572c-0.451-0.708-1.005-1.313-1.584-1.893C18.201,15.119,18.071,15.575,17.973,16.064z
	 M21.627,14.831c0.126,0.126,0.305-0.106,0.132-0.176c-0.01,0.054-0.049,0.027-0.088,0C21.681,14.738,21.621,14.753,21.627,14.831z
	 M4.942,16.813c-0.175,0.023,0.048-0.156-0.176-0.132C4.708,16.816,4.891,16.93,4.942,16.813z M12.778,17.297
	c-0.126-0.006,0.038-0.303-0.088-0.309C12.587,17.058,12.669,17.449,12.778,17.297z M4.59,17.517c0.154-0.062,0.282,0.124,0.352,0
	c-0.122-0.011-0.1-0.163-0.176-0.22C4.736,17.399,4.62,17.415,4.59,17.517z M16.916,17.869c0.213-0.173,0.393-0.01,0.484-0.221
	c-0.182,0.104-0.33,0.003-0.484-0.044C16.916,17.693,16.916,17.781,16.916,17.869z M7.099,18.354
	c-0.005-0.073,0.143-0.28-0.044-0.265C7.081,18.167,7.002,18.348,7.099,18.354z M16.564,18.266c-0.082,0.077,0.019,0.128,0.044,0.22
	c0.061,0.002,0.097-0.021,0.132-0.044C16.734,18.329,16.676,18.271,16.564,18.266z M7.54,18.529
	c0.042-0.159-0.173-0.062-0.264-0.088C7.233,18.601,7.449,18.503,7.54,18.529z M4.59,18.794c0.005-0.163,0.081-0.128,0.132-0.045
	c0.03-0.147-0.074-0.16-0.176-0.176C4.57,18.638,4.495,18.801,4.59,18.794z M4.282,19.454c0.177-0.058,0.108-0.087,0.264,0
	c0.119-0.125-0.109-0.15-0.176-0.221c0.068-0.01,0.007-0.072-0.044-0.088C4.285,19.233,4.183,19.355,4.282,19.454z M4.81,19.277
	c-0.077-0.003-0.137,0.01-0.176,0.044c-0.013,0.087,0.06,0.088,0.088,0.133c-0.059,0-0.041,0.077-0.088,0.088
	c-0.107-0.135-0.027,0.051-0.088,0.044c-0.063-0.011-0.074-0.072-0.132-0.088c0.042,0.267-0.12,0.169-0.22,0.352
	c0.051,0.008,0.048,0.07,0.044,0.133c0.088,0,0.176,0,0.264,0c0.019-0.219-0.132-0.025-0.176-0.133
	c0.08-0.041,0.258-0.054,0.132-0.176c0.077-0.025,0.258,0.054,0.264-0.044C4.634,19.567,4.899,19.487,4.81,19.277z M19.558,19.718
	c-0.098,0.034-0.239,0.025-0.265,0.132c0.104,0.088-0.004,0.088-0.044,0c-0.01,0.063-0.072,0.074-0.088,0.133
	c0.086,0.09,0.26-0.084,0.265,0.088c0.157-0.07,0.19-0.063,0.22-0.176c0.003,0.026,0.007,0.052,0.044,0.044
	C19.71,19.8,19.571,19.822,19.558,19.718z M19.558,19.806c0,0.044,0,0.089,0,0.133c-0.078-0.011-0.221,0.044-0.176-0.089
	C19.46,19.855,19.475,19.796,19.558,19.806z M22.684,20.246c-0.004-0.143-0.057-0.237-0.177-0.264
	C22.521,20.114,22.574,20.208,22.684,20.246z M4.458,20.114c0.044-0.151-0.331-0.104-0.353-0.044
	C4.271,20.036,4.316,20.124,4.458,20.114z M4.458,20.555c-0.078-0.025-0.259,0.053-0.264-0.044c0.116-0.053,0.12-0.271-0.088-0.221
	c0.02,0.15,0.054,0.316,0,0.44c-0.004-0.069,0.006-0.152-0.088-0.132c0,0.059,0,0.117,0,0.176c0.083,0.049,0.208,0.057,0.308,0.088
	c0.033-0.135-0.121-0.084-0.088-0.22c0.167-0.063,0.084,0.121,0.22,0.088C4.458,20.672,4.458,20.613,4.458,20.555z M20.306,21.347
	c-0.003-0.144-0.056-0.237-0.176-0.264C20.145,21.215,20.197,21.309,20.306,21.347z M18.854,21.171
	c-0.01,0.034-0.002,0.087-0.044,0.088c-0.063-0.011-0.074-0.072-0.133-0.088C18.611,21.438,19.026,21.317,18.854,21.171z
	 M19.338,21.919c0.207,0.062,0.16-0.132,0.264-0.176c-0.135,0.032-0.13-0.076-0.264-0.044
	C19.255,21.783,19.363,21.778,19.338,21.919z M19.689,21.875c0.059,0,0.117,0,0.176,0c-0.019-0.084-0.016-0.189-0.132-0.176
	C19.743,21.782,19.684,21.796,19.689,21.875z M19.954,21.787c0.091-0.026,0.306,0.071,0.264-0.088
	C20.102,21.699,19.959,21.675,19.954,21.787z M19.998,21.919c-0.038,0.167,0.197,0.156,0.264,0.088
	C20.3,21.841,20.064,21.852,19.998,21.919z M7.011,22.271c0.066-0.008,0.163,0.016,0.176-0.044c-0.051-0.008-0.047-0.07-0.044-0.133
	c-0.052,0.008-0.125-0.007-0.132,0.045C7.08,22.15,7.042,22.235,7.011,22.271z M17.62,22.403c-0.044,0-0.052-0.035-0.088-0.044
	c-0.006,0.079,0.044,0.103,0.133,0.088c-0.057-0.144,0.055-0.212-0.089-0.22C17.573,22.304,17.586,22.364,17.62,22.403z
	 M7.275,22.447c0.068-0.162,0.304,0.099,0.352-0.044C7.567,22.36,7.122,22.304,7.275,22.447z M13.835,2.153
	c-1.196-0.714-2.325-1.149-4.05-1.276C5.012,0.525,1.42,4.316,1.156,8.492c-0.128,2.029,0.537,3.709,1.409,5.371
	c-0.044,0-0.052-0.036-0.088-0.044c0.061,0.26,0.246,0.269,0.22,0.528c0.11,0.058,0.107-0.205,0.176-0.045
	c-0.117,0.058-0.097,0.183-0.132,0.221c-0.124-0.009-0.12-0.144-0.22-0.176c-0.006,0.185,0.08,0.245,0,0.396
	c0.091-0.026,0.289,0.055,0.308-0.044c-0.063-0.098-0.107,0.056-0.132-0.044c0.053-0.009,0.027-0.049,0-0.088
	c0.11-0.059,0.138,0.174,0.176,0.044c-0.121-0.014-0.093-0.153,0.044-0.132c0.004,0.049-0.064,0.068,0,0.088
	c0.153-0.18-0.124-0.086-0.132-0.132c0.227-0.211,0.479,0.426,0.616,0.44c-0.126-0.052,0.071-0.052,0.088,0
	c-0.004,0.112-0.172,0.063-0.176,0.176c0.044,0.062,0.257,0.178,0.176,0.22c0.033,0.073-0.359-0.186-0.44,0.044
	c0.193-0.001,0.412-0.001,0.44,0.044c-0.047,0.129-0.393-0.04-0.44,0.089c0.078-0.015,0.078,0.246-0.044,0.176
	c0.014-0.06,0.063-0.084,0.044-0.176c-0.103,0-0.206,0-0.309,0c-0.039,0.205,0.146-0.03,0.132,0.088
	c-0.177,0.058-0.182,0.288-0.176,0.528c-0.1-0.013-0.166,0.011-0.176,0.088c0.14,0.178-0.095,0.462,0.132,0.528
	c-0.083,0.01-0.097-0.05-0.176-0.044c0.175,0.309,0.607,0.36,0.836,0.616c0.138-0.728,0.169-1.563,0.396-2.201
	c0.897,0.863,2.367,1.39,3.169,2.201c-0.064-0.068-0.225-0.039-0.352-0.044c-0.101,0.75-0.28,1.422-0.396,2.157
	c0.562,0.567,1.143,1.116,1.717,1.673c0-0.998,0-1.996,0-2.994c0.128,0.265,0.704,0.413,0.836,0.925
	c0.099,0.381-0.022,0.977,0,1.452c0.024,0.514,0.167,1.295,0.088,1.453c-0.011,0.023-0.098-0.078-0.088,0
	c0.154,0.209,0.187,0.096,0.264,0.309c0.164-0.03,0.115-0.021,0.308-0.044c-0.151,0.163-0.014,0.131,0.088,0.176
	c-0.09-0.039-0.198,0.114-0.088,0.132c-0.014-0.054,0.127-0.151,0.132-0.044c-0.21,0.027-0.063,0.06-0.044,0.176
	c-0.897,0.003-1.776-0.014-2.597-0.088c0.149-0.32,0.132-0.808,0.264-1.145c0.036,0.082,0.057,0.178,0.132,0.221
	c-0.104,0.057-0.125,0.197-0.176,0.308c0.135-0.06,0.231-0.212,0.308,0c-0.131,0.001-0.269-0.004-0.264,0.132
	c0.194-0.011,0.264-0.146,0.44-0.176c0.137,0.272,0.11,0.14,0.264,0.309c-0.078,0.01-0.22-0.045-0.176,0.088
	c0.204-0.087,0.061,0.041,0.132,0.088c0.011-0.077,0.076-0.101,0.176-0.088C7.62,22.46,7.66,22.413,7.936,22.315
	C7.854,22.4,7.855,22.35,7.892,22.491c0.248-0.052,0.033-0.3,0-0.352c-0.207-0.334-0.858-0.666-1.013-1.057
	c-0.399-0.202-0.569-0.635-0.968-0.837c-0.156,0.783-0.234,1.645-0.484,2.333c-0.242-0.021-0.577,0.049-0.749-0.044
	c0.396-1.835,0.692-3.77,1.101-5.591c-0.496-0.399-0.885-0.905-1.409-1.276c-0.313,2.313-0.742,4.511-1.056,6.823
	c0.295-0.235,0.086-0.509,0.264-0.704c0.005,0.054,0.013,0.104,0.088,0.088c0.109-0.081-0.167-0.154,0.044-0.22
	c0.014,0.104,0.069,0.165,0.044,0.308c-0.1-0.012-0.166,0.011-0.176,0.088c0.078,0.135,0.137-0.12,0.176,0
	c0,0.26-0.208,0.051-0.264,0.221c0.132,0.028-0.042,0.094,0,0.176c0.11-0.085,0.181,0.067,0.264-0.044
	c-0.032-0.07-0.215,0.01-0.176-0.132c0.136-0.098,0.567,0.139,0.617-0.132c-0.171-0.003-0.319,0.085-0.44,0.044
	c0.18-0.179,0.166-0.628-0.132-0.705c-0.008,0.125,0.173,0.11,0,0.177c0.001-0.104-0.076-0.13-0.044-0.265
	c0.083,0.01,0.097-0.05,0.176-0.044c-0.083,0.052-0.119,0.127,0.044,0.132c0.094-0.037,0.032-0.229,0.088-0.352
	c-0.001,0.415,0.223,0.624,0.22,0.924c0.037-0.007,0.173,0,0.264,0.044c-0.235,0.024,0.007,0.291-0.264,0.309
	c0-0.044-0.077-0.056-0.088,0c0.105,0.026,0.201,0.063,0.352,0.044c0.024-0.063-0.051-0.228,0.044-0.22
	c0.088,0.146,0.188-0.109,0.22,0c0.054,0.248-0.154-0.019-0.176,0.176c0.141-0.038,0.138,0.067,0.176,0.132
	c-0.497,0.062-1.252-0.137-1.541,0.133c6.413-0.059,13.038,0.116,19.282-0.089c-2.036-0.077-4.178,0.049-6.251-0.088
	c0.15-0.09,0.257,0.081,0.176-0.132c0.074,0.096,0.244,0.065,0.309,0.044c-0.052-0.008-0.048-0.069-0.044-0.132
	c0.197,0.185,0.328,0.037,0.439-0.044c0.01,0.034,0.037,0.051,0.088,0.044c0.002,0.065-0.18,0.196,0,0.176
	c0.189,0-0.034-0.154,0.089-0.22c0.083,0.01,0.097-0.05,0.176-0.044c-0.021,0.186-0.003,0.285-0.132,0.132
	c-0.045,0.146,0.061,0.145,0.176,0.132c0.026-0.091-0.071-0.306,0.088-0.264c-0.034,0.03-0.098,0.245,0,0.264
	c0.028-0.164,0.094-0.316,0.088-0.396c0.169,0.15,0.082,0.537,0.353,0.396c-0.258-0.344-0.481-0.722-0.704-1.101
	c-0.482,0.34-0.813,0.832-1.232,1.232c-0.294-0.028-0.704,0.059-0.925-0.044c0.59-0.675,1.33-1.538,2.024-2.157
	c1.517-1.35,3.024-2.735,5.768-1.98c0-0.353,0-0.704,0-1.057c-0.243-0.08-0.588-0.058-0.837-0.132
	c0.257-0.14,0.531-0.262,0.837-0.353c0-0.323,0-0.646,0-0.969c-3.806,1.404-6.61,3.81-8.937,6.691
	c-0.265-0.028-0.646,0.059-0.837-0.044c0.829-1.21,1.859-2.22,2.861-3.258c-0.543-0.836-1.119-1.639-1.584-2.553
	c-0.387,0.557-0.635,1.286-0.925,1.98c-0.284,0.68-0.649,1.352-0.881,2.025c-0.225,0.659-0.542,1.136-0.572,1.849
	c-0.25,0-0.499,0-0.749,0c0-1.644,0-3.287,0-4.931c0.285-0.184,0.493-0.445,0.792-0.616c0.003,0.972-0.004,2.168,0,2.994
	c0.383-0.953,0.841-2.015,1.233-2.95c0.16-0.383,0.259-0.869,0.439-1.101c0.311-0.396,1.017-0.604,1.321-0.968
	c-0.112,0.283-0.228,0.565-0.353,0.836c0.674,0.926,1.21,1.989,1.894,2.905c0.469-0.455,1.021-0.826,1.54-1.232
	c-0.854-1.01-1.642-2.085-2.421-3.169c0.221-0.176,0.346-0.446,0.528-0.661c0.407,0.548,0.79,1.117,1.232,1.629
	C17.747,13.076,17.991,11,18.369,8.8c-0.265-0.029-0.646,0.058-0.837-0.044c0.027-0.321-0.076-0.51-0.044-0.836
	c0.117,0,0.235,0,0.353,0c-0.735-1.671-1.525-3.523-2.642-4.667c0.694,0.495,1.489,0.889,2.157,1.409
	c0.8-0.565,1.498-1.231,2.113-1.981c-0.145-0.129-0.456-0.215-0.705-0.352c-0.186-0.102-0.534-0.486-0.572-0.176
	c-0.021-0.004,0.114,0.03,0.221,0.044c-0.513,0.082-0.704-0.229-1.365-0.132c0.024,0.064-0.051,0.228,0.044,0.22
	c-0.069-0.306,0.366-0.14,0.396-0.132c-0.075,0.132-0.16,0.049-0.308,0.044c-0.076,0.026,0.003,0.208-0.089,0.22
	c-0.147-0.013-0.381,0.059-0.352-0.132c0.096-0.028,0.14,0.125,0.132-0.044c-0.117-0.122-0.096,0.052-0.22,0.044
	c0.028-0.107,0.089-0.227-0.088-0.22c-0.079,0.111,0.066,0.292,0.176,0.352c-0.187,0.058-0.349-0.134-0.396,0.044
	c0.088,0.074,0.056-0.004,0.176,0c-0.067,0.101-0.115,0.171-0.044,0.264c0.008-0.121,0.326-0.022,0.221-0.176
	c-0.013,0.041-0.119,0.041-0.132,0c0.037-0.065,0.142-0.064,0.22-0.088C16.763,2.6,16.863,2.617,16.828,2.77
	c0.186,0.068-0.01-0.245,0.176-0.176c0.011,0.078-0.044,0.22,0.088,0.176c-0.004-0.232,0.021-0.15,0.089-0.044
	c0.027-0.134-0.057-0.379,0.044-0.44c0.15,0.09-0.038,0.291,0.132,0.308c0.182-0.109-0.177-0.274,0.044-0.308
	c0.172,0.093-0.038,0.422,0.132,0.572c0.135-0.313,0.395,0.204,0.66,0c-0.149-0.041-0.362-0.019-0.439-0.132
	c0.243,0.087,0.002-0.138,0.044-0.308c-0.088,0-0.177,0-0.265,0c-0.007-0.144-0.102-0.285,0.088-0.308
	c-0.055,0.238,0.275,0.297,0.353,0.528c0.098-0.018,0.34-0.325,0.044-0.22c0.082-0.002,0.094,0.034,0.044,0.088
	c-0.179-0.082-0.125-0.133-0.22-0.264c0.076,0.003,0.137-0.01,0.176-0.044c0.063,0.068,0.111,0.153,0.221,0.176
	c-0.017-0.133,0.143-0.091,0.22-0.132c-0.014,0.086,0.06,0.087,0.088,0.132c-0.053,0.015-0.141,0.282-0.044,0.176
	c0.063-0.201,0.077,0.027,0.132,0.132c0.137,0.005,0.126-0.138,0.309-0.088c0.051,0.065,0.051,0.111,0,0.176
	c0.077-0.041,0.22-0.015,0.264-0.088c-0.182,0.021-0.219-0.104-0.308-0.176c0.154,0.08,0.365,0.104,0.44,0.264
	c-0.242-0.015-0.687,0.138-0.793-0.088c-0.006,0.183-0.029,0.009-0.088,0c0,0.161-0.259,0.065-0.22,0.264
	c0.213-0.212,0.297-0.029,0.616-0.088c0.044,0.059,0.041,0.164,0.132,0.176c0.058-0.11-0.174-0.138-0.044-0.176
	c0.185,0.112,0.109-0.005,0.264,0c-0.067,0.108-0.177,0.175-0.264,0.264c0.002-0.076-0.034-0.113-0.088-0.132
	c-0.149,0.316-0.176,0.282-0.265,0.484c-0.137-0.025-0.115-0.207-0.264-0.22c0.063,0.277,0.111,0.198,0.088,0.353
	c0.075-0.042,0.089-0.18,0.176-0.088c-0.215,0.196-0.429,0.393-0.66,0.572c-0.087-0.03-0.117-0.117-0.132-0.22
	c0.185-0.042,0.44-0.084,0.528-0.264c-0.276,0.143-0.081-0.13-0.177-0.22c0.021,0.137-0.094,0.141-0.22,0.132
	c0.095-0.136,0.017-0.215-0.088-0.088c0.085-0.158-0.018-0.161-0.044-0.308c-0.152,0.083-0.112,0.083-0.265,0
	c-0.007,0.139,0.117,0.147,0.088,0.308c0.161,0.028,0.055-0.21,0.177-0.22c-0.104,0.207,0.213,0.363,0,0.396
	c0.027,0.223,0.098-0.128,0.264-0.044c-0.01,0.083,0.05,0.097,0.044,0.176c-0.248,0.026-0.357,0.074-0.528,0.088
	c0.297,0.006,0.016,0.337,0.177,0.44c-0.109,0.009-0.318-0.24-0.221-0.044c-0.259,0.008,0.184,0.156,0.044,0.176
	c-0.23-0.081-0.289-0.184-0.396-0.308c-0.062,0.126,0.12,0.224,0,0.264c-0.06-0.107-0.088-0.027-0.133-0.088
	c0.239-0.187-0.084-0.379,0.133-0.528c-0.085-0.086-0.271-0.225-0.309,0c0.098-0.019,0.239-0.101,0.265,0.044
	c-0.074,0-0.147,0-0.221,0c0.128,0.452,0.119,0.502-0.176,0.352c0.126-0.138,0.092-0.208-0.044-0.22
	c0.04-0.012,0.147-0.164,0.044-0.176c-0.05,0.097-0.051,0.243-0.176,0.264c0.05-0.09-0.069-0.21-0.089-0.088
	c0.132,0.07-0.144,0.032-0.132-0.044c0.066-0.147,0.162-0.098,0.265-0.132c0.031-0.134-0.045-0.16-0.044-0.264
	C16.71,3.6,16.923,3.266,16.74,3.209c-0.087,0.031,0.011,0.246-0.088,0.264c-0.116-0.033-0.248-0.19-0.572-0.132
	c0.008,0.284-0.1,0.052-0.221,0.22C15.69,3.5,15.553,3.309,15.464,3.297C15.478,3.124,15.6,3.33,15.64,3.209
	c-0.056-0.062-0.232-0.002-0.176-0.176c0.103,0.013,0.189,0.094,0.22-0.044c-0.048-0.182-0.144-0.062-0.265-0.132
	c0.072-0.218-0.005-0.025-0.088-0.132c0.043-0.045,0.087-0.089,0.133-0.132c0.065,0.052,0.052,0.183,0.176,0.176
	c-0.063-0.163-0.099-0.158-0.132-0.396c-0.161-0.041-0.202,0.264-0.265,0.176c-0.009-0.053-0.049-0.027-0.088,0
	c0.064-0.087,0.286-0.423,0.22-0.528c-0.252,0.247-0.329,0.668-0.572,0.924c-0.179-0.217-0.466-0.327-0.616-0.572
	c0.083-0.108,0.138-0.244,0.221-0.352c-0.193,0.026-0.553,0.136-0.353,0.176c0.001-0.188,0.06,0.083,0.176-0.088
	c-0.052,0.065-0.038,0.197-0.176,0.176c-0.052-0.066-0.183-0.052-0.176-0.176c0.063,0.049,0.107,0.047,0.132-0.044
	C13.863,2.115,13.751,2.023,13.835,2.153z M16.212,3.782c-0.093-0.068-0.244-0.079-0.265-0.22c0.132,0.044,0.27,0.049,0.309,0
	c0.059,0.044,0.087,0.119,0.176,0.132C16.371,3.911,16.217,3.604,16.212,3.782z M18.501,2.285c0.081-0.12,0.12,0.17,0.309,0.088
	c-0.008,0.051,0.01,0.079,0.044,0.088c-0.011,0.063-0.132,0.016-0.133,0.088C18.729,2.467,18.628,2.351,18.501,2.285z M4.59,21.743
	c-0.196,0.136,0.048,0.145,0.044,0.396c-0.214-0.248-0.333-0.113-0.528-0.221c0.014-0.06,0.11-0.036,0.176-0.044
	c-0.104-0.071-0.177-0.175-0.264-0.264c-0.007-0.129,0.179-0.134,0.22-0.089c-0.007,0.052-0.081,0.037-0.132,0.045
	c0.038,0.035,0.026,0.12,0.088,0.132c0.178-0.035-0.036-0.295,0.132-0.265c-0.084-0.137-0.191,0.069-0.308,0.044
	c0.069-0.206-0.141-0.25-0.044-0.352c-0.05-0.033-0.217-0.287-0.22-0.088c-0.068-0.064-0.092-0.172-0.088-0.309
	c0.059-0.108,0.133,0.079,0.176-0.044c0.028,0.052,0.022,0.115,0.132,0.176c0.011-0.074-0.032-0.326-0.044-0.44
	c-0.052,0.008-0.037,0.081-0.044,0.133c-0.15-0.03-0.043-0.146,0.044-0.177c0.098-0.023,0.063,0.084,0.132,0.089
	c0.109-0.155-0.294-0.239-0.308,0c-0.102,0.067,0.059-0.269,0.176-0.265c-0.005-0.107-0.146-0.009-0.132,0.044
	c-0.129-0.037,0.058-0.11,0-0.22c0.051,0.037,0.118,0.058,0.22,0.044c0,0.059,0,0.117,0,0.176c0.064-0.023,0.228,0.052,0.22-0.044
	c-0.139-0.058-0.293-0.189-0.132-0.308c-0.005-0.108-0.146-0.01-0.132,0.044c-0.141-0.188,0.283-0.186,0.308-0.353
	c-0.105-0.215-0.235,0.273-0.264,0c-0.104,0.014-0.026,0.209-0.176,0.176c0.14-0.152,0.055-0.171,0-0.264
	c0.176,0.024,0.133,0.024,0.309,0c-0.034-0.03-0.115-0.263,0.044-0.221c-0.04-0.159-0.13-0.026-0.264-0.044
	C3.979,19,3.987,18.945,4.018,18.749c0.039,0.121,0.07,0.282-0.044,0.396c0.077,0.131,0.091-0.168,0.22-0.132
	c-0.023,0.035-0.046,0.071-0.044,0.132c0.197-0.162,0.234-0.015,0.396-0.132c-0.117-0.097-0.276,0.017-0.176-0.22
	c-0.136,0.011-0.074,0.219-0.264,0.176c0.116-0.134,0.253-0.246,0.353-0.396c-0.05-0.047-0.259,0.12-0.308,0.221
	c-0.064-0.039-0.14-0.066-0.132-0.177c0.084,0.083,0.111,0.005,0.22,0c-0.026-0.037-0.264-0.113-0.044-0.132
	c-0.011-0.056-0.088-0.044-0.088,0c-0.06-0.014-0.036-0.11-0.044-0.176c0.252,0.328,0.531-0.059,0.661-0.396
	c0.112-0.005,0.209-0.025,0.264-0.088c-0.089,0.029-0.597-0.06-0.661,0.22c0.114-0.073,0.079-0.12,0.308-0.132
	c-0.072,0.219-0.19,0.323-0.308,0.396c-0.11,0.058-0.138-0.175-0.176-0.044c-0.06-0.014-0.037-0.11-0.044-0.177
	c0.059,0,0.118,0,0.176,0c-0.132-0.251-0.057-0.22-0.088-0.616c0.079,0.171,0.233,0.037,0.352,0
	c-0.019-0.069-0.139-0.037-0.088-0.176c-0.052,0.007-0.037,0.08-0.044,0.132c-0.138,0.021-0.196-0.038-0.176-0.176
	c0.169,0.041,0.543,0.063,0.704,0c-0.075-0.071-0.109-0.185-0.088-0.353c-0.248,0.027-0.012,0.098-0.044,0.265
	c-0.128-0.048-0.172-0.181-0.22-0.309C4.511,16.851,4.497,16.91,4.414,16.9c-0.081,0.007-0.027,0.149-0.088,0.176
	c-0.053-0.002-0.055-0.337,0.088-0.22c0.047-0.164-0.109-0.125-0.088-0.264c0.19-0.031,0.172-0.269,0.396-0.265
	c-0.007-0.125-0.081-0.184-0.088-0.308c-0.051-0.008-0.078,0.01-0.088,0.044c-0.022-0.057-0.046-0.092-0.088-0.221
	c0.209,0.114,0.296,0.35,0.528,0.44c-0.031,0.138-0.118,0.058-0.22,0.044c0,0.044,0,0.088,0,0.132
	c0.053-0.2,0.166,0.114,0.176-0.088c0.103,0.012,0.025,0.193,0,0.221c0.005,0.084,0.164-0.068,0.22,0.044
	c0.002-0.075-0.033-0.114-0.088-0.133c0.057-0.067,0.264,0.086,0.264,0.221c-0.071,0.013-0.076-0.042-0.132-0.044
	c-0.011,0.163,0.009,0.176,0.22,0.044c0.042,0.135,0.214,0.138,0.22,0.308c-0.135-0.096-0.141-0.09-0.044,0.044
	c0.029,0.464-0.184,0.527-0.044,0c-0.045,0.029-0.046,0.102-0.132,0.089c0-0.089,0-0.177,0-0.265c-0.109,0.005-0.136,0.083-0.22,0
	c0.026,0.143-0.03,0.205-0.044,0.309c-0.311-0.066,0.065-0.147,0-0.353c-0.12,0.057-0.25,0.103-0.22,0.309
	c0.066,0.026,0.184,0.221,0.22,0.132c0.184,0.292-0.03,0.435,0,0.572c-0.034,0.039-0.318-0.025-0.352,0.132
	c0.032,0.099,0.132-0.097,0.22-0.088c0.11,0.019-0.073,0.095-0.132,0.088c-0.007,0.11,0.068,0.138,0.132,0.176
	c0.08-0.07-0.031-0.139,0.088-0.22c0.197,0.099-0.084,0.245,0.044,0.44c0.16-0.04,0.027-0.13,0.044-0.265c0.059,0,0.118,0,0.176,0
	c-0.064-0.103-0.109-0.099,0-0.176c-0.228,0.034,0.024-0.22-0.22-0.132c0.115-0.091,0.24-0.171,0.352-0.265
	c-0.037,0.428-0.218,0.843-0.264,1.013c-0.052-0.221-0.216-0.056-0.44-0.088c-0.03,0.118,0.091,0.085,0.132,0.132
	c0.045-0.028,0.046-0.101,0.132-0.088c-0.04,0.078-0.106,0.129-0.132,0.22c-0.071,0.013-0.076-0.041-0.132-0.044
	c-0.134,0.082,0.051,0.21,0,0.353c-0.148-0.126-0.256,0.069-0.352,0.132c0.109,0.059,0.539,0.005,0.66-0.176
	c0.176,0.289-0.04,0.608-0.044,0.925c-0.06-0.014-0.037-0.11-0.044-0.177c-0.106,0.04-0.019,0.249,0.044,0.265
	c-0.037,0.095-0.114,0.15-0.088,0.308C4.794,20.18,4.96,20.332,4.81,20.422c0.053,0.064,0.192,0.043,0.132,0.221
	c-0.109-0.113-0.157,0.029-0.22,0.088c0.013,0.06,0.11,0.036,0.176,0.044c0.062,0.164-0.213,0.362-0.044,0.353
	c-0.023,0.035-0.046,0.071-0.044,0.132c-0.173,0.07-0.015-0.19-0.132-0.176c0.021,0.09-0.115,0.102-0.308,0.088
	c0.071-0.062,0.055-0.21,0.22-0.177c-0.215-0.167-0.224,0.283-0.44,0c-0.071-0.012-0.076,0.042-0.132,0.045
	c0.002,0.145,0.074,0.219,0.044,0.396c0.076-0.046,0.055-0.258,0.176-0.132c0.005-0.079-0.054-0.093-0.044-0.176
	c0.129,0.018,0.149,0.145,0.264,0.176C4.302,21.418,4.38,21.738,4.59,21.743z M4.59,21.479c0.039,0.066,0.066-0.012,0.176,0.044
	c-0.032,0.146-0.021,0.332-0.176,0.353c0.045-0.058,0.043-0.162,0.088-0.22c-0.004-0.033-0.171-0.033-0.176,0
	c-0.012-0.143-0.041-0.321,0.308-0.353C4.794,21.511,4.678,21.344,4.59,21.479z M5.118,18.617c0.059,0,0.117,0,0.176,0
	c0.08,0.034-0.026,0.048-0.088,0.044c-0.059,0.029-0.082,0.095-0.088,0.177c0.209-0.257,0.07,0.103,0.132,0.044
	c0.132,0.028-0.042,0.094,0,0.176c-0.101-0.105-0.142-0.067-0.308-0.044C4.957,18.769,5.074,18.862,5.118,18.617z M5.294,17.604
	c0.134-0.156-0.106-0.203,0-0.352c0.044,0.028,0.045,0.101,0.132,0.088C5.428,17.475,5.452,17.631,5.294,17.604z M4.502,15.976
	c0.008,0.038-0.017,0.042-0.044,0.045c0.005,0.126,0.188,0.076,0.176,0.22c-0.167-0.063-0.084,0.121-0.22,0.088
	C4.632,16.146,4.256,16.157,4.502,15.976z M7.143,21.611c0.142-0.039,0.091,0.114,0.176,0.132c-0.058,0.084-0.145-0.102-0.264,0
	C7.071,21.686,7.133,21.674,7.143,21.611z M15.111,2.725c0.038,0.13,0.065-0.102,0.176-0.044c-0.081,0.078,0.012,0.136,0.088,0.176
	c-0.003,0.227-0.044,0.218,0.044,0.352c-0.039-0.027-0.078-0.053-0.088,0c-0.14-0.068,0.01-0.179-0.22-0.088
	c0.117-0.145,0.061-0.185-0.088-0.264c0.038-0.108,0.039-0.254,0.176-0.264C15.161,2.629,15.173,2.714,15.111,2.725z M8.948,3.826
	c2.715-0.223,4.597,1.451,5.415,3.038c1.922,3.727-0.838,7.86-4.491,8.145c-3.152,0.245-5.625-1.892-6.075-4.623
	C3.304,7.388,5.019,5.122,7.099,4.222C7.602,4.005,8.16,3.891,8.948,3.826z M17.4,7.568c0.056-0.008,0.133-0.193,0.044-0.088
	c-0.065-0.019,0.018-0.056,0-0.132c0.14,0.051,0.093,0.289,0.221,0.352c-0.066,0.103-0.108,0.067-0.221,0.044
	c-0.051-0.138,0.069-0.107,0.088-0.176C17.514,7.502,17.477,7.585,17.4,7.568z M17.532,8.977c0.039-0.119,0.14,0.093,0.044,0.132
	c0.165-0.035,0.003-0.154,0.089-0.22c0.152-0.006,0.255,0.038,0.22,0.22c-0.102,0.014-0.049-0.127-0.132-0.132
	c-0.043,0.001-0.034,0.054-0.044,0.088c0.019,0.086,0.125-0.072,0.088,0.132c-0.109,0.057-0.183-0.129-0.221,0
	C17.427,9.178,17.644,8.955,17.532,8.977z M17.665,9.197c-0.002,0.042-0.055,0.034-0.089,0.044c0.038,0.129,0.111-0.057,0.221,0
	c-0.084,0.289,0.172,0.239,0.264,0.352c0.16-0.027-0.118-0.222,0.088-0.176c0.034,0.166-0.054,0.21-0.044,0.353
	c-0.143-0.161-0.258-0.096-0.308-0.308c-0.125,0.065-0.063-0.076-0.265,0C17.53,9.327,17.507,9.171,17.665,9.197z M18.192,8.889
	c0.002,0.033,0.064,0.502-0.132,0.484c-0.005-0.079,0.054-0.093,0.044-0.176c-0.21,0.006-0.059,0.1-0.088,0.264
	C17.82,9.456,17.79,9.16,17.929,9.064c0.058,0.016,0.069,0.078,0.132,0.088C18.19,9.059,18.07,8.989,18.192,8.889z M17.62,9.505
	c0.064,0.02-0.004,0.039,0,0.088c0.04,0.05,0.099-0.003,0.177,0.088c-0.023,0.065-0.065,0.111-0.088,0.176
	c0.01,0.063,0.131,0.015,0.132,0.088c0.041-0.032,0.066-0.08,0.088-0.132c0.039,0.034,0.1,0.047,0.176,0.044
	c-0.109,0.106-0.041,0.117-0.044,0.308c-0.102,0.129-0.245-0.04-0.22,0.176c-0.193-0.014-0.298-0.347-0.176-0.528
	c-0.025-0.1-0.069,0.053-0.133-0.044C17.676,9.718,17.517,9.617,17.62,9.505z M17.4,10.473c0.077,0.151,0.283,0.163,0.353,0
	c0.135-0.033,0.084,0.121,0.22,0.088c0.023,0.152-0.122,0.371-0.044,0.528c-0.056,0.199-0.177-0.115-0.264,0.088
	c0.04,0.12,0.153-0.078,0.22,0.044c-0.082,0.085-0.081,0.035-0.044,0.176c-0.11-0.008-0.138,0.067-0.176,0.132
	c-0.12-0.049-0.338-0.083-0.309,0.132c0.143,0.054,0.033-0.143,0.176-0.088c0.01,0.186-0.067,0.284-0.088,0.44
	c0.161-0.001,0.198-0.125,0.309-0.176c0.007-0.139-0.117-0.147-0.088-0.308c0.24,0.041,0.114,0.491,0.088,0.396
	c0.067,0.246-0.067,0.496-0.088,0.837c-0.177-0.271,0.139-0.421,0-0.749c-0.096-0.007-0.021,0.156-0.045,0.22
	c-0.153-0.104-0.139-0.207-0.396-0.132c0.187,0.192,0.373,0.346,0.264,0.704c0.122,0.063,0.041,0.299,0.132,0.044
	c0.118,0.051,0.004,0.233-0.132,0.176c0.019,0.092-0.03,0.117-0.044,0.177c0.038,0.13,0.066-0.103,0.176-0.045
	c-0.036,0.101-0.099,0.084-0.22,0.177c0.038,0.035,0.026,0.12,0.088,0.132c0.124-0.043-0.063-0.117,0.044-0.176
	c0.094,0.133-0.012,0.208,0.044,0.396c-0.036-0.094-0.166-0.105-0.176,0.044c0.014,0.076,0.153-0.057,0.132,0.133
	c-0.092-0.019-0.116,0.03-0.176,0.044c0.009,0.035,0.044,0.044,0.044,0.088c0.045-0.028,0.046-0.102,0.132-0.088
	c-0.075,0.284-0.097,0.748-0.176,1.145c-0.156-0.122,0.024-0.244,0-0.484c-0.097,0.007-0.095,0.111-0.088,0.22
	c-0.039-0.026-0.079-0.053-0.088,0c-0.082,0.042-0.027-0.252-0.089-0.088c-0.127-0.024,0.068-0.068,0.045-0.132
	c-0.042-0.04-0.215,0.112-0.221-0.132c0.059,0,0.117,0,0.176,0c-0.001,0.043-0.054,0.034-0.088,0.044
	c0.205,0.145,0.136-0.368,0.044-0.44c0.104,0.107,0.082-0.065,0.221-0.044c0.031,0.163-0.075,0.188-0.044,0.353
	c0.063-0.055,0.066-0.168,0.132-0.221c-0.045-0.181-0.112-0.294,0-0.396c-0.028-0.089-0.206-0.028-0.22-0.132
	c-0.036,0.009-0.044,0.044-0.089,0.044c0.213,0.048-0.143,0.191,0.089,0.221c-0.024,0.302-0.455,0.183-0.353,0.396
	c-0.184-0.095-0.201-0.355-0.396-0.439c0.04-0.077,0.154-0.114,0.221-0.044c-0.102-0.165,0.076-0.003,0.132-0.089
	c-0.103-0.253-0.329,0.129-0.484-0.044c-0.023-0.063,0.172-0.107,0.044-0.132c0.024-0.128,0.068,0.067,0.132,0.044
	c-0.085-0.198,0.026-0.252,0.088-0.572c0.139,0.067,0.042,0.269-0.044,0.353c0.155,0.331,0.441,0.088,0.661-0.044
	c-0.071-0.042-0.212-0.039-0.309,0c0.02,0.065,0.057-0.018,0.132,0c-0.005,0.112-0.147,0.087-0.264,0.088
	c0.059-0.192-0.04-0.293-0.132-0.44c0.024-0.041,0.122-0.066,0.044-0.088c0.056-0.09,0.293,0.079,0.439-0.044
	c-0.042-0.064-0.364-0.071-0.352-0.044c-0.038-0.181,0.119-0.213,0.176-0.177c-0.02-0.039-0.038-0.078-0.088-0.088
	c0.062-0.013,0.253-0.105,0.308,0.088c0.108-0.177-0.041-0.352-0.22-0.176c0-0.059,0-0.117,0-0.176
	c0.15,0.086,0.104,0.025,0.088-0.132c0.052,0.007,0.078-0.01,0.088-0.044c0.134,0.171-0.145,0.05,0.044,0.22
	c0.055-0.105-0.02-0.276,0.177-0.353c-0.031-0.083-0.2,0.06-0.221,0.132c-0.114-0.062,0.032-0.228,0.044-0.308
	c0.043,0.001,0.034,0.054,0.045,0.088c0.115-0.102-0.106-0.433,0.132-0.22c-0.259-0.194,0.204-0.554,0.044-0.484
	c-0.119-0.039,0.093-0.14,0.132-0.044c-0.074-0.147,0.081-0.21,0.132-0.352C17.468,10.537,17.397,10.726,17.4,10.473z
	 M17.444,10.429c0.019-0.098,0.233-0.035,0.265,0C17.673,10.592,17.527,10.466,17.444,10.429z M16.916,14.127
	c0.197,0.002,0.008,0.233,0,0.309C16.783,14.369,16.953,14.242,16.916,14.127z M17.841,10.385c0.143,0.054,0.033-0.143,0.176-0.088
	c0.063,0.166-0.121,0.084-0.088,0.22C17.875,10.498,17.838,10.461,17.841,10.385z M15.419,14.655c0.035-0.111,0.154,0.124,0.221,0
	c-0.116-0.038-0.166,0.317-0.265,0.528c0.119,0.172,0.124-0.137,0.265-0.088c0-0.117,0-0.235,0-0.353
	c0.262-0.034,0.105,0.277,0.308,0.088c-0.004,0.194,0.113,0.302,0.089,0.617c-0.044,0-0.089,0-0.133,0
	c0.012-0.29-0.058-0.387,0.044-0.572c-0.145,0.146-0.205,0.309-0.132,0.572c-0.059,0-0.117,0-0.176,0
	c0.011-0.048,0.088-0.03,0.088-0.089c-0.118-0.171-0.124,0.137-0.264,0.089c0,0.087,0.12,0.056,0.088,0.176
	c-0.039,0.034-0.1,0.047-0.177,0.044c0.008-0.125-0.037-0.302,0.089-0.309c-0.148-0.026-0.229-0.112-0.353,0
	c-0.035,0.153,0.065,0.17,0.044,0.309c-0.143,0.014-0.08-0.403-0.22-0.132c-0.114-0.062,0.102-0.158,0.176-0.177
	c-0.143-0.057-0.044-0.197,0-0.308c0.145,0.118,0.105-0.104,0.264,0c-0.032-0.041-0.08-0.066-0.132-0.088
	c0.032-0.079,0.08-0.007,0.132,0c-0.052-0.117-0.038-0.137-0.176-0.088C15.212,14.768,15.552,14.762,15.419,14.655z M15.992,17.781
	c0.008-0.05,0.044-0.024,0.044,0c0.046-0.203,0.317-0.182,0.396-0.353c0.055,0.02,0.091,0.057,0.088,0.132
	c0.034-0.069,0.14-0.065,0.133-0.176c0.119,0.04-0.045,0.154-0.044,0.22c0.167,0.065,0.008-0.196,0.176-0.132
	c0.008-0.11-0.067-0.138-0.132-0.176c-0.118,0.107-0.257-0.001-0.353,0.176c-0.155-0.075,0.144-0.089,0-0.176
	c-0.045,0.028-0.046,0.102-0.132,0.088c-0.031-0.109,0.188-0.187,0.22-0.088c0.096,0.007,0.021-0.156,0.044-0.221
	c0.039,0.034,0.1,0.048,0.177,0.045c0.016,0.074-0.035,0.083-0.089,0.088c0.069,0.044,0.276,0.083,0.265-0.133
	c0.075-0.009,0.114,0.075,0.132,0c0.038,0.08,0.113,0.122,0.132,0.221c-0.1,0.104-0.131-0.055-0.176-0.132
	c-0.24,0.137,0.112,0.286,0.176,0.396c0.011-0.045-0.096-0.283,0.133-0.308c-0.137-0.104-0.314-0.457-0.484-0.177
	c-0.038,0.009-0.042-0.017-0.044-0.044c0.008-0.037-0.018-0.041-0.044-0.044c0.082-0.108,0.248-0.133,0.22-0.352
	c-0.058,0.053-0.069,0.017-0.132,0c-0.006,0.079,0.054,0.093,0.044,0.176c-0.171-0.006-0.17-0.183-0.353-0.176
	c0.09-0.169,0.009-0.337,0-0.528c-0.174,0.067-0.262-0.009-0.264,0.176c-0.146-0.016-0.087-0.271,0.088-0.22
	c0.002-0.075-0.033-0.114-0.088-0.133c-0.158-0.025-0.001,0.264-0.177,0.221c-0.054,0.143,0.143,0.033,0.089,0.176
	c-0.088,0.073-0.057-0.004-0.177,0c0-0.088,0-0.176,0-0.264c0.044,0,0.088,0,0.133,0c0.063-0.195-0.149-0.115-0.133-0.265
	c-0.149,0.056-0.27,0.141-0.396,0.221c0.097-0.103,0.038-0.118,0.088-0.221c-0.076,0.057-0.174,0.091-0.177,0.221
	c0.238,0.123,0.257-0.03,0.484-0.045c-0.049,0.068-0.143,0.092-0.132,0.221c-0.042-0.074-0.146-0.138-0.176,0
	c0.331,0.008,0.135,0.273,0.44,0.308c0.016-0.101,0.192-0.042,0.176-0.176c0.053,0.05,0.08,0.126,0.22,0.088
	c-0.14,0.195-0.007,0.194,0.044,0.396c-0.097-0.135-0.195,0.007-0.352,0.044c-0.118-0.055,0.133-0.226,0.176-0.132
	c-0.034-0.039-0.047-0.1-0.044-0.176c-0.088,0-0.176,0-0.265,0c-0.021,0.094,0.063,0.083,0.133,0.088
	c-0.094,0.08-0.128,0.151-0.265,0.088c0.103,0.138-0.011,0.187,0.177,0.132c-0.173,0.092,0.019,0.472,0.22,0.309
	c-0.095-0.131-0.224,0.027-0.176-0.265c0.109-0.037,0.235-0.058,0.396-0.044c0,0.059,0,0.117,0,0.176
	c-0.094,0.021-0.084-0.063-0.088-0.132c-0.071-0.013-0.075,0.042-0.132,0.044c-0.008,0.11,0.067,0.138,0.132,0.177
	c-0.133,0.247-0.293,0.06-0.44,0.176c0.103-0.102-0.081-0.142-0.044-0.309c-0.22,0.075-0.046,0.184-0.044,0.353
	c-0.146,0-0.116-0.177-0.22-0.22c0.182,0.002,0.148-0.194,0.176-0.44c-0.102,0.045,0.001,0.295-0.176,0.264
	c0.1-0.12,0.089-0.435,0.308-0.308c0-0.044,0-0.088,0-0.133c-0.126,0.048-0.209,0.072-0.176-0.132
	c-0.136-0.033-0.054,0.152-0.22,0.088c-0.002-0.075,0.032-0.113,0.088-0.132c-0.267,0.014-0.199-0.43-0.44-0.308
	c0.004-0.225,0.049-0.31,0.088-0.572c0.032,0.251,0.381,0.374,0.484,0.088c0.146,0.001,0.312-0.019,0.309,0.132
	c-0.104,0.001-0.13-0.076-0.265-0.044c-0.06,0.014-0.036,0.11-0.044,0.176c0.097-0.152,0.518,0.02,0.484-0.264
	c0.115-0.052,0.189,0.136,0.176-0.044c0.056,0.076,0.149,0.115,0.132,0.264c-0.042-0.001-0.034-0.054-0.044-0.088
	c-0.133,0.064-0.123,0.094-0.264,0c-0.022,0.272,0.307-0.007,0.308,0.176c0.1-0.024-0.053-0.068,0.045-0.132
	c0.105,0.144,0.19,0.309,0.352,0.396c-0.025,0.045-0.235-0.019-0.176,0.22c0.06-0.028,0.436,0.072,0.308,0.221
	c0.045-0.029,0.046-0.102,0.133-0.089c0.051,0.101-0.023,0.132,0.132,0.177c-0.092,0.155-0.002,0.08,0.088,0.132
	c-0.062,0.191-0.152-0.032-0.22-0.088c-0.06,0.028-0.082,0.094-0.089,0.176c-0.103-0.014-0.098-0.136-0.176-0.176
	c-0.182,0.05,0.182,0.126,0,0.176c-0.031,0.119,0.208-0.031,0.176,0.088c0.061-0.014,0.037-0.11,0.045-0.176
	c0.06,0.069,0.138,0.239,0.264,0.044c0.165,0.246,0.268,0.436,0.572,0.704c-0.08,0.159-0.121-0.077-0.22-0.044
	c-0.041,0.032-0.067,0.08-0.088,0.132c0.174,0.05,0.109,0.021-0.045,0.133c-0.063-0.02,0.005-0.039,0-0.089
	c-0.15,0.135-0.041,0.103-0.132,0.265c-0.216,0.015-0.244,0.171-0.264-0.044c-0.177,0.057,0.012,0.091,0,0.22
	c-0.102-0.096-0.142,0.117-0.221,0.177c-0.065-0.053-0.196-0.038-0.176-0.177c0.09,0.014,0.086,0.119,0.176,0.133
	c-0.022-0.065-0.064-0.111-0.088-0.177c-0.149-0.003-0.164,0.13-0.22,0.221c0.142,0.026,0.061-0.159,0.176-0.044
	c-0.008,0.037,0.018,0.041,0.044,0.044c0.007,0.061-0.179-0.02-0.044,0.088c-0.04,0.077-0.162,0.072-0.176,0.176
	c-0.12,0.032-0.089-0.087-0.177-0.088c-0.005,0.079,0.055,0.093,0.045,0.176c-0.151-0.142-0.139-0.252-0.221-0.396
	c0.065,0.051,0.111,0.051,0.176,0c-0.039-0.068-0.161-0.023-0.176,0c-0.089-0.059-0.148-0.145-0.176-0.265
	c-0.084-0.112,0.112,0.113,0.132,0.176c0.082-0.079,0.161-0.161,0.132-0.352c0.172,0.141,0.362-0.072,0.353,0.22
	c0.035-0.008,0.044-0.044,0.088-0.044c-0.031-0.129-0.147-0.13,0-0.22c-0.039-0.121-0.195,0.086-0.088-0.089
	c-0.164-0.021-0.441,0.072-0.309-0.132c-0.064,0.023-0.11,0.065-0.176,0.088c0.104,0.127-0.028,0.234,0.044,0.353
	C16.195,17.93,16.147,17.801,15.992,17.781z M15.243,16.504c-0.082-0.049-0.094-0.17-0.176-0.22c0.048-0.09,0.111-0.279,0.22-0.176
	C15.013,16.203,15.34,16.37,15.243,16.504z M15.287,16.46c0.029,0,0.059,0,0.088,0c-0.073,0.206,0.075,0.222,0.221,0.309
	c-0.075,0.121-0.106,0.184,0.088,0.22c-0.222,0.069-0.355-0.271-0.353-0.439c-0.029,0-0.059,0-0.088,0
	C15.252,16.513,15.287,16.505,15.287,16.46z M15.992,17.297c0.069,0.189,0.178,0.08,0.22,0.264
	c-0.247-0.021-0.211-0.032-0.132,0.088c-0.093,0.02-0.117-0.029-0.177-0.044c0.034-0.039,0.048-0.099,0.044-0.176
	c-0.042,0.001-0.034,0.054-0.044,0.088c-0.035-0.008-0.044-0.044-0.088-0.044c0-0.029,0-0.059,0-0.088
	C15.916,17.397,15.981,17.374,15.992,17.297z M16.256,15.271c-0.015,0.156-0.121,0.108-0.044,0.265c-0.044,0-0.088,0-0.132,0
	c0.03-0.136,0.03-0.085,0-0.221c0.044,0,0.088,0,0.132,0c-0.096-0.088-0.153-0.081-0.176-0.308
	C16.17,15.035,16.122,15.244,16.256,15.271z M2.917,16.549c0.075,0.009,0.114-0.075,0.132,0c0.113-0.005,0.07-0.164,0.132-0.221
	c-0.192-0.119-0.103-0.371-0.088-0.616c0.135-0.031,0.084-0.031,0.22,0c-0.132,0.094-0.075,0.278-0.044,0.44
	c0.094-0.112,0.074-0.337,0.132-0.484c0.007-0.096-0.156-0.02-0.22-0.044c0.056-0.135,0.144-0.022,0.308-0.088
	c-0.125,0.315-0.027,0.854-0.308,1.013c0.349-0.01-0.192,0.357-0.308,0.132c-0.065,0.019,0.018,0.056,0,0.132
	c-0.098-0.02-0.157-0.078-0.176-0.176c0.133,0.123,0.082-0.108,0-0.133c-0.124,0.001,0.105,0.12-0.088,0.089
	c0.045-0.116,0.053-0.271,0.044-0.44c0.127,0.131,0.077-0.11,0.22-0.088c-0.209-0.203,0.132-0.228-0.044-0.396
	c0.078,0.083,0.128-0.053,0.22,0.044c-0.102,0.016-0.042,0.192-0.176,0.176c0.102,0.155,0.083,0.299-0.044,0.396
	C2.843,16.387,2.882,16.466,2.917,16.549z M14.979,15.712c-0.002,0.043-0.054,0.034-0.088,0.044
	c-0.009,0.037,0.017,0.042,0.044,0.044c-0.02,0.064-0.039-0.004-0.089,0c0.009,0.036,0.045,0.044,0.045,0.088
	c0.064-0.038,0.139-0.065,0.132-0.176c0.048,0.011,0.029,0.088,0.088,0.088c-0.007,0.052-0.08,0.037-0.132,0.044
	c0.073,0.116,0.179,0.148,0.044,0.265C14.884,16.035,14.687,15.73,14.979,15.712z M13.526,16.108
	c0.067-0.072-0.109,0.248-0.088,0.308c-0.078,0.013-0.137-0.207-0.176-0.088C13.201,16.203,13.493,16.2,13.526,16.108z
	 M13.174,16.328c-0.022,0.207-0.09,0.324,0.133,0.353c-0.016,0.102-0.028,0.206-0.177,0.176c0.029,0.045,0.102,0.046,0.089,0.132
	c-0.043,0.002-0.034,0.054-0.045,0.088c-0.199-0.23,0.082,0.246-0.176,0.221c0.132-0.095-0.004-0.229,0.088-0.396
	c-0.011-0.113-0.075,0.061-0.176,0c0,0.059,0,0.117,0,0.176c-0.113-0.053,0.064-0.456-0.088-0.616
	C12.986,16.603,13.001,16.313,13.174,16.328z M12.646,16.813c0.013,0.06,0.109,0.036,0.176,0.044
	c0.035,0.152-0.065,0.169-0.044,0.309c0.023,0.035,0.046,0.071,0.044,0.132c0.039-0.02,0.078-0.039,0.088-0.088
	c0.051,0.07,0.173,0.139,0.088,0.22c-0.09-0.185-0.246,0.029-0.22,0.22c-0.059,0-0.117,0-0.177,0c0.027-0.039,0.054-0.078,0-0.088
	c0.02-0.063,0.039,0.005,0.089,0c0-0.044,0-0.088,0-0.132c-0.181,0.069-0.153,0.346-0.309,0.44c0.191,0.088,0.212,0.069,0.309,0.176
	c-0.023,0.035-0.046,0.071-0.044,0.132c-0.135-0.1-0.199-0.271-0.441-0.264c0.006-0.079-0.054-0.093-0.044-0.176
	c0.09-0.089,0.086,0.02,0.176,0.044c-0.024-0.147-0.13-0.419,0-0.572c-0.054-0.063-0.168-0.067-0.22-0.133
	c0.03-0.059,0.118,0.022,0.22-0.044c-0.046,0.193,0.148,0.145,0.132,0.309c0.039-0.027,0.079-0.054,0.088,0
	c0.099-0.019,0.019-0.217,0.044-0.309c-0.045,0.043-0.089,0.088-0.132,0.133c-0.138-0.062,0.061-0.218-0.044-0.265
	c-0.138,0.03-0.18-0.005-0.22,0.044c-0.114-0.075,0.187-0.103,0.176-0.22c0.128,0.024-0.067,0.068-0.044,0.132
	c0.088-0.001,0.056-0.12,0.176-0.088c-0.097,0.144,0.077-0.011,0.088,0.176c-0.026-0.101,0.174-0.363-0.044-0.264
	c0.04-0.078,0.162-0.073,0.177-0.177c0.025,0.048,0.044,0.134,0.088,0.265c-0.085-0.082-0.035-0.081-0.176-0.044
	C12.655,16.783,12.829,16.807,12.646,16.813z M12.206,17.648c-0.053-0.083-0.005-0.178-0.044-0.352
	C12.283,17.354,12.25,17.535,12.206,17.648z M12.382,17.957c0.039,0.093,0.001,0.263,0.176,0.22c0.008,0.14-0.116,0.147-0.088,0.309
	c0.06-0.029,0.082-0.094,0.088-0.176c0.12-0.061-0.064,0.229-0.044,0.352c-0.074,0.017-0.083-0.034-0.088-0.088
	c-0.146,0.045,0.154,0.32-0.132,0.265c0.123,0.037,0.102,0.255-0.088,0.22c0.113,0.018,0.018,0.254-0.088,0.309
	c-0.01-0.143,0.078-0.187,0.044-0.353c0.058-0.053,0.069-0.018,0.132,0c-0.028-0.107-0.089-0.227,0.088-0.22
	c-0.036-0.135-0.124-0.106-0.044-0.265c-0.085,0.082-0.035,0.081-0.176,0.044C12.173,18.229,12.056,18.008,12.382,17.957z
	 M12.47,17.825c-0.018-0.105,0.201,0.024,0.132-0.132c0.064,0.038,0.14,0.065,0.133,0.176C12.645,17.963,12.56,17.856,12.47,17.825z
	 M13.351,16.593c-0.077,0.141-0.178-0.181-0.088-0.221C13.446,16.383,13.212,16.536,13.351,16.593z M3.225,16.856
	c-0.01-0.113-0.076,0.061-0.176,0c0.025-0.106,0.166-0.098,0.264-0.132c-0.025,0.121-0.047,0.247-0.22,0.22
	C3.125,16.903,3.173,16.878,3.225,16.856z M4.59,17.032c0.038,0.036,0.026,0.121,0.088,0.133c-0.043,0.135-0.117-0.051-0.176-0.044
	c-0.043,0.001-0.034,0.054-0.044,0.088C4.347,17.164,4.493,17.014,4.59,17.032z M6.659,18.001c-0.174-0.109-0.099-0.248-0.088-0.484
	C6.711,17.559,6.671,17.946,6.659,18.001z M6.703,17.385c-0.022-0.058,0.218-0.02,0.176,0.088c0.129-0.113,0.014-0.089,0.176-0.132
	c0.105,0.101,0.218,0.193,0.308,0.308c-0.051-0.007-0.078,0.01-0.088,0.045c-0.061-0.116-0.23-0.122-0.308-0.221
	c-0.18,0.068-0.057,0.423-0.044,0.572c0.034-0.112,0.127-0.167,0.309-0.132c-0.03,0.147,0.074,0.161,0.176,0.176
	c-0.063,0.068-0.177,0.087-0.132,0.265c0.084,0.06,0.195,0.002,0.352-0.044c0.005,0.233,0.008,0.035,0.132,0.044
	c0,0.059,0,0.117,0,0.176c-0.141-0.009-0.19,0.074-0.22,0.176c-0.183-0.148-0.645-0.138-0.705-0.088
	c-0.117-0.133-0.144-0.156-0.308-0.176c-0.077,0.04-0.081,0.154-0.132,0.22c-0.124,0.037,0.142-0.217,0.088-0.396
	c0.002,0.115,0.254,0.132,0.44,0c-0.015-0.059-0.077-0.069-0.088-0.133c-0.105-0.018,0.024,0.201-0.132,0.133
	C6.758,17.995,6.86,17.517,6.703,17.385z M6.703,19.102c-0.036-0.008-0.044-0.044-0.088-0.044c-0.012,0.071,0.042,0.076,0.044,0.132
	c0.077-0.04,0.08-0.154,0.132-0.22c0.082,0.007,0.027,0.149,0.088,0.176c-0.029-0.164,0.095-0.048,0.264-0.132
	c-0.019-0.099-0.217-0.018-0.308-0.044c-0.059-0.426,0.371-0.228,0.528-0.353c0.051,0.285-0.4,0.069-0.44,0.265
	c0.081,0.05,0.354-0.042,0.396,0.088c0.094-0.066-0.032-0.107,0.044-0.221c0.17-0.023,0.181,0.112,0.308,0.133
	c0.001-0.104-0.076-0.13-0.044-0.265c0.051,0.008,0.078-0.01,0.088-0.044c0.154,0.06-0.071,0.331,0.044,0.353
	c0.018,0.105-0.2-0.024-0.132,0.132c-0.12,0.032-0.088-0.088-0.176-0.088c-0.087,0-0.056,0.12-0.176,0.088
	c0.029,0.06,0.094,0.082,0.176,0.088c0.129,0.012,0.135-0.1,0.264-0.088c0.068,0.155-0.023,0.197,0.044,0.353
	c-0.198,0.088-0.096,0.204-0.044,0.264C7.6,19.6,7.338,19.67,7.231,19.586c0.213,0.134-0.039,0.219-0.176,0.353
	c0.012,0.154,0.164-0.111,0.176,0.044c0.063-0.054,0.066-0.168,0.132-0.221c0.126-0.009,0.24-0.005,0.22,0.133
	c-0.188-0.054-0.381,0.113-0.308,0.176c0.093-0.065-0.058,0.106-0.132-0.044c-0.005,0.079,0.054,0.093,0.044,0.176
	c-0.184-0.059-0.369-0.356-0.528-0.44c0.103,0.038,0.359-0.029,0.44,0.088c0.082-0.006,0.027-0.148,0.088-0.176
	c-0.104,0.025-0.205,0.067-0.22-0.088c-0.052,0.007-0.037,0.08-0.044,0.132c-0.059,0-0.117,0-0.176,0
	c0.255-0.061-0.035-0.216-0.044-0.044c-0.098-0.034-0.239-0.025-0.264-0.132c0.104-0.175,0.059-0.132,0.044-0.396
	c0.102,0.135,0.092,0.266,0.044,0.396c0.054-0.049,0.09-0.038,0.088,0.044c0.036-0.009,0.044-0.044,0.088-0.044
	c0.054-0.143-0.143-0.034-0.088-0.176c0.114-0.102,0.298-0.006,0.264,0.176c0.26-0.107,0.406-0.261,0.705-0.176
	c0.065-0.038,0.063-0.143,0.088-0.221c-0.162,0.292-0.547-0.086-0.616,0.265c-0.154,0.007-0.139-0.155-0.22-0.221
	c-0.059,0.044-0.133,0.073-0.176,0.132c-0.134-0.085-0.105-0.546,0.088-0.572c0.003,0.07-0.021,0.168,0.044,0.177
	C6.772,18.995,6.652,18.963,6.703,19.102z M7.363,17.825c0.112,0.19-0.313-0.054-0.396,0.088c-0.119-0.107,0.097-0.253,0.176-0.309
	C7.118,17.75,7.339,17.875,7.363,17.825z M7.496,17.781c0.013-0.09-0.127,0.009-0.132,0.044c-0.167-0.075,0.096-0.072,0.088-0.132
	c0.143,0.044-0.043,0.242,0.264,0.176c-0.107,0.104,0.066,0.082,0.044,0.22c-0.044,0-0.088,0-0.132,0
	c0.04,0.078,0.179,0.057,0.132,0.221c-0.029,0-0.059,0-0.088,0c0.008-0.038-0.017-0.042-0.044-0.044
	c0.008-0.051,0.044-0.024,0.044,0c0.127-0.025-0.067-0.069-0.044-0.133c-0.063,0.025-0.107,0.069-0.132,0.133
	c-0.096,0.007-0.02-0.156-0.044-0.221c0.129,0.04,0.135,0.04,0.264,0c-0.016-0.05-0.077-0.111-0.088-0.044
	c-0.024-0.013-0.027-0.177-0.132-0.044C7.424,17.988,7.424,17.749,7.496,17.781z M11.149,17.781
	c0.112,0.087-0.161,0.159-0.176,0.264c0.198,0.051,0.061-0.064,0.22,0.088c0,0.029,0,0.059,0,0.089
	c-0.038-0.009-0.042,0.017-0.044,0.044c-0.088-0.09-0.046-0.113-0.22-0.089c0.049-0.063,0.047-0.107-0.044-0.132
	C10.814,18.096,11.08,17.937,11.149,17.781z M10.841,18.177c-0.058,0.016-0.069,0.078-0.132,0.089c0,0.087,0.12,0.056,0.088,0.176
	c-0.034,0.08-0.047-0.026-0.044-0.088c-0.037-0.009-0.042,0.017-0.044,0.044c-0.063-0.053-0.018-0.15,0.044-0.265
	c0.136-0.032,0.085,0.121,0.22,0.089C10.968,18.329,10.828,18.23,10.841,18.177z M10.577,18.441
	C10.978,18.492,10.499,18.796,10.577,18.441L10.577,18.441z M6.527,18.926c0.125,0.059-0.113,0.116-0.22,0.088
	c0.001-0.131-0.004-0.269,0.132-0.265c-0.115,0.275,0.217-0.153,0.044,0.221C6.521,18.978,6.524,18.952,6.527,18.926z M6.263,19.058
	c0.186-0.068-0.01,0.244,0.176,0.176c0.018,0.106-0.081,0.096-0.044,0.221c-0.03,0-0.059,0-0.088,0
	c-0.023-0.036-0.046-0.071-0.044-0.133c0.036,0.009,0.044,0.045,0.088,0.045C6.271,19.223,6.305,19.239,6.263,19.058z M7.671,19.762
	c0.145,0.192-0.013,0.612,0.088,0.837c-0.063-0.05-0.107-0.048-0.132,0.044c-0.129-0.037,0.057-0.111,0-0.221
	c-0.223-0.019-0.262-0.255-0.44-0.132c-0.007-0.237,0.425-0.135,0.309-0.352c0.114-0.026,0.158,0.018,0.132,0.132
	C7.771,19.998,7.547,19.831,7.671,19.762z M9.477,19.85c0.019-0.064,0.056,0.018,0.132,0c-0.154,0.12-0.005,0.096,0.088,0.133
	c-0.056,0.176-0.209-0.131-0.22,0c-0.075-0.029-0.028-0.102,0.044-0.088C9.528,19.856,9.503,19.853,9.477,19.85z M7.319,20.378
	c-0.11-0.134,0.181,0.193,0.22,0.044c0.113,0.011-0.061,0.076,0,0.177C7.447,20.544,7.374,20.471,7.319,20.378z M3.753,21.083
	c0.129,0.037-0.057,0.11,0,0.22c-0.063-0.004-0.125-0.007-0.132,0.044c-0.121-0.093,0.118-0.076,0-0.22
	C3.663,21.153,3.784,21.229,3.753,21.083z M8.948,21.787c0.099,0.068,0.013,0.187,0.044,0.308c-0.089-0.027-0.029-0.205-0.132-0.22
	c0.009-0.05,0.044-0.024,0.044,0C8.947,21.874,8.938,21.821,8.948,21.787z M17.092,21.611c0.014,0.06,0.11,0.036,0.177,0.044
	c-0.004,0.063-0.008,0.124,0.044,0.132c-0.147,0.052-0.017,0.253,0.088,0.308c-0.117,0.157-0.195-0.094-0.22-0.176
	c-0.065,0.037-0.095,0.111-0.089,0.221c-0.263,0.001-0.416,0.111-0.66,0.132c0.057-0.114,0.092-0.139,0.221-0.088
	c-0.02-0.039-0.039-0.079-0.088-0.089c-0.014-0.078,0.17-0.002,0.132,0.089c0.085-0.082,0.034-0.081,0.176-0.044
	c0.032-0.098-0.162-0.182-0.176-0.089c0.029-0.162,0.326-0.436,0.528-0.572c-0.008,0.052,0.01,0.079,0.044,0.089
	C17.23,21.634,17.202,21.555,17.092,21.611z M17.576,2.461c0.029,0,0.059,0,0.089,0c-0.088,0.03,0.027,0.263-0.133,0.22
	C17.557,2.617,17.481,2.454,17.576,2.461z M15.419,16.549c0.001-0.067,0.327-0.097,0.265,0.044
	C15.552,16.529,15.534,16.628,15.419,16.549z M3.093,14.655c0.125,0.023-0.071,0.065-0.088,0.088
	c-0.01-0.083,0.05-0.097,0.044-0.176c-0.163,0.005-0.111,0.064-0.088,0.176c-0.079-0.006-0.103,0.044-0.088,0.133
	c0.141,0.037,0.136-0.069,0.22-0.089c0,0.045,0.036,0.053,0.044,0.089c-0.044,0-0.088,0-0.132,0
	c0.008,0.065-0.016,0.162,0.044,0.176c0.044-0.059,0.042-0.164,0.132-0.176c-0.023,0.064-0.065,0.11-0.088,0.176
	c0.11-0.057,0.138,0.022,0.176-0.044c-0.087-0.055-0.188-0.311-0.044-0.309C3.162,14.723,3.118,14.528,3.093,14.655z M7.451,21.919
	c-0.009,0.054-0.049,0.027-0.088,0c-0.013,0.077,0.141,0.236-0.044,0.221c0.063-0.098-0.042-0.11-0.044-0.177
	c-0.01,0.034-0.037,0.052-0.088,0.044c-0.047,0.165,0.109,0.126,0.088,0.265c0.136-0.059,0.244,0.13,0.308,0
	c-0.027-0.062-0.169-0.007-0.176-0.088C7.478,22.13,7.609,21.946,7.451,21.919z M17.4,3.122c-0.025-0.078,0.054-0.259-0.044-0.264
	c-0.076,0.295-0.117,0.428-0.132,0.704c0.218,0.045,0.14-0.139,0.308-0.044c-0.014-0.133,0.049-0.342-0.088-0.352
	c-0.052,0.117,0.085,0.259,0,0.264c-0.063-0.025-0.107-0.069-0.132-0.132c0.063-0.04,0.258-0.318,0.132-0.264
	C17.435,3.067,17.443,3.12,17.4,3.122z M16.872,3.122c0.074,0.058,0.147,0.117,0.309,0.088c-0.013-0.077,0.124-0.22,0-0.264
	c0.026,0.218-0.316,0.065-0.396,0.176c0.208,0.153-0.007,0.4-0.132,0.484c0.088,0,0.176,0,0.264,0C16.76,3.469,17,3.34,16.872,3.122
	z M15.947,2.417c-0.003,0.226,0.109,0.365-0.044,0.44c0.007-0.197-0.133-0.249-0.176-0.396c0.071-0.075,0.276-0.017,0.265-0.176
	c-0.252,0.026-0.14-0.065-0.045-0.132c-0.124,0.008-0.086-0.149-0.264-0.088c-0.015,0.289-0.067-0.007-0.176,0
	c0.06,0.23-0.105,0.125-0.133,0.176c0.027,0.002,0.053,0.006,0.044,0.044c-0.026,0.002-0.052,0.006-0.044,0.044
	c0.134-0.005,0.463-0.114,0.309,0.088c0.068-0.108-0.149-0.129-0.132-0.044c0.022,0.078,0.125,0.305,0.264,0.396
	c-0.17,0.125,0.056,0.306-0.22,0.396c0.234-0.008-0.028,0.252,0.176,0.308c0.026-0.172-0.007-0.365,0.132-0.572
	c-0.056,0.203,0.08,0.213,0.133,0.308c-0.033,0.07-0.216-0.01-0.177,0.132c0.273-0.02,0.278-0.112,0.572-0.044
	c0.043-0.148,0.169-0.214,0.265-0.088c0.003-0.077-0.01-0.137-0.044-0.176c0.103-0.088,0.28-0.102,0.484-0.088
	c-0.268-0.137-0.724-0.182-0.925-0.088c0.189,0.026,0.087,0.026,0,0.176c0.075,0.017,0.112-0.065,0.132,0
	c-0.021,0.125-0.138,0.155-0.264,0.176c-0.012-0.081-0.188-0.217-0.044-0.308c0.136-0.005-0.009,0.321,0.176,0.176
	c-0.083-0.139-0.054-0.474,0.088-0.705c-0.088,0-0.056-0.12-0.176-0.088C16.163,2.427,15.98,2.347,15.947,2.417z M16.432,2.901
	c0.06,0.044,0.087,0.119,0.177,0.132c-0.029,0.059-0.095,0.082-0.177,0.088C16.432,3.048,16.432,2.975,16.432,2.901z M16.08,2.329
	c0.087-0.102,0.087-0.118,0-0.22c0.034-0.01,0.087-0.001,0.088-0.044C16.021,2.047,15.922,2.302,16.08,2.329z M21.671,4.266
	c-0.021,0.181,0.094-0.018,0.22,0.044c0.077,0.09-0.032,0.086,0.044,0.176c-0.197-0.063-0.377,0.119-0.484,0
	c0.138-0.039,0.155-0.197,0.221-0.308c-0.029,0-0.059,0-0.088,0c-0.034,0.01-0.087,0.001-0.089,0.044
	c0.075,0.379-0.298,0.201-0.396,0.352c-0.072-0.197-0.228,0.075-0.309-0.044c0.2,0-0.078-0.111-0.088-0.176
	c0.129-0.011,0.135,0.1,0.264,0.088c0.067-0.095,0.081-0.066,0.221-0.088c0-0.226-0.283-0.006-0.309-0.264
	c-0.077,0.041-0.22,0.015-0.264,0.088c0.145,0.001,0.312-0.018,0.308,0.132c-0.217-0.016-0.39-0.038-0.616-0.132
	c-0.073-0.139,0.164-0.18,0.044-0.22c-0.01,0.122-0.163,0.101-0.22,0.176c0.063,0.098,0.107-0.055,0.132,0.044
	c0,0.044,0,0.088,0,0.132c-0.073,0-0.146,0-0.22,0c0.031,0.293-0.073,0.214-0.088,0.308c-0.031-0.117-0.168-0.259-0.309-0.132
	c-0.013,0.086,0.06,0.087,0.088,0.132c-0.151,0.027-0.266,0.054-0.352,0c0.171-0.116,0.208,0.004,0.22-0.176
	c-0.109-0.007-0.137,0.069-0.22,0.088c0.007-0.109-0.069-0.136-0.089-0.22c0.12-0.027,0.11-0.184,0.265-0.176
	c0,0.044,0.035,0.053,0.044,0.088c-0.147-0.082-0.038,0.011,0,0.088c-0.146-0.046-0.191-0.13-0.264,0.044
	c0.184-0.008,0.292,0.029,0.616,0c0-0.274,0.17-0.579,0.396-0.484c0.026-0.141-0.082-0.136,0-0.22c-0.075-0.018-0.112,0.065-0.132,0
	c0.139-0.149-0.012-0.167,0-0.353c0.261-0.223,0.47-0.499,0.66-0.792c0.007,0.096,0.111,0.094,0.221,0.088
	c-0.014-0.221-0.17-0.025-0.177-0.088c0.073-0.074,0.096-0.198,0.177-0.264c0.076,0.056,0.115,0.148,0.264,0.132
	c0.001-0.117-0.017-0.251,0.044-0.308c-0.155,0.077-0.108-0.029-0.264-0.044c-0.765,1.04-1.608,2.001-2.554,2.861
	c1.396-0.177,2.971-0.159,4.271-0.396c-0.07-0.044-0.178-0.042-0.088-0.132c-0.206,0.082-0.265,0.051-0.528,0.088
	c-0.11-0.211,0.123-0.307,0.088-0.572c-0.168-0.065-0.009,0.197-0.176,0.132c-0.032,0.12,0.087,0.088,0.088,0.176
	C22.021,4.177,21.948,4.324,21.671,4.266z M20.174,3.474c-0.055,0.092-0.173,0.121-0.22,0.22c0.173,0.012,0.134-0.188,0.308-0.176
	c-0.019,0.054-0.057,0.09-0.132,0.088c-0.002,0.075,0.032,0.114,0.088,0.132c-0.264-0.103-0.119,0.536-0.528,0.528
	c-0.044-0.059-0.041-0.164-0.132-0.176c0.038-0.066,0.065,0.012,0.176-0.044c0,0.044,0,0.088,0,0.132
	c0.142,0.027,0.061-0.159,0.177-0.044c-0.037-0.11-0.311-0.117-0.177-0.264c0.128,0.177,0.028-0.123,0.265,0
	C19.897,3.648,19.941,3.552,20.174,3.474z M20.658,4.31c0,0.059,0,0.118,0,0.176c-0.108,0.006-0.212,0.006-0.265-0.044
	C20.419,4.335,20.561,4.344,20.658,4.31z M21.935,4.442c-0.013-0.116,0.171-0.035,0.132-0.176c0.146,0.025,0.063,0.166,0.044,0.264
	C22.046,4.507,22,4.465,21.935,4.442z M19.249,4.398c0.051,0.009,0.024,0.044,0,0.044c0.002,0.042,0.055,0.034,0.089,0.044
	c-0.114,0.063-0.188,0.164-0.309,0.22c0.097-0.092-0.039-0.143,0.044-0.22C19.153,4.642,19.177,4.481,19.249,4.398z M20.306,4.53
	c-0.039,0.027-0.078,0.053-0.088,0c-0.045,0.028-0.046,0.101-0.132,0.088C20.037,4.501,20.36,4.47,20.13,4.442
	c0.014-0.06,0.11-0.037,0.176-0.044C20.306,4.442,20.306,4.486,20.306,4.53z M20.482,3.518c0.126-0.263,0.234,0.229,0.352-0.044
	c-0.218,0.095,0.007-0.573-0.352-0.396C20.546,3.267,20.482,3.462,20.482,3.518z M20.526,3.078c0.169-0.035,0.169,0.21,0,0.176
	C20.526,3.195,20.526,3.136,20.526,3.078z M20.79,2.725c0.07,0.069,0.013,0.236-0.044,0.309c-0.027-0.024-0.133-0.179-0.176-0.044
	c0.165-0.033,0.096,0.168,0.22,0.176c-0.038-0.141,0.068-0.138,0.132-0.176c-0.129,0.177,0.211,0.451,0.133,0.572
	c-0.091-0.012-0.042-0.164-0.133-0.176C20.912,3.527,21,3.572,20.966,3.738C21.108,3.792,21,3.595,21.143,3.65
	c0.104,0.182,0.018,0.187,0.176,0.22c-0.064,0.097-0.134,0.189-0.132,0.352c0.153-0.052,0.133-0.278,0.22-0.396
	c-0.154-0.05-0.264-0.146-0.264-0.352c0.151,0.035,0.193-0.041,0.22-0.132c-0.118,0.104-0.257,0.088-0.308-0.088
	c0.08-0.138,0.148,0.148,0.22,0c-0.092-0.026-0.15-0.084-0.176-0.176c0.096-0.028,0.14,0.125,0.132-0.044
	c-0.185,0.023-0.175-0.148-0.22-0.264C20.858,2.856,20.816,2.619,20.79,2.725z M22.507,2.241c-0.104-0.057-0.099,0.022-0.176-0.088
	c-0.01,0.034-0.001,0.087-0.044,0.088c-0.02-0.118-0.038-0.146-0.177-0.22c-0.037,0.141,0.069,0.136,0.089,0.22
	c-0.063-0.017-0.074-0.053-0.133,0c-0.007-0.066,0.017-0.163-0.044-0.176c-0.012,0.154-0.164-0.11-0.176,0.044
	c0.088,0.059,0.19,0.103,0.22,0.22C22.271,2.254,22.395,2.348,22.507,2.241z M21.45,2.373c0.076-0.017,0.113,0.065,0.133,0
	c-0.108-0.005-0.01-0.146,0.044-0.132c-0.009,0.096,0.036,0.14,0.132,0.132c0.017-0.149-0.195-0.069-0.132-0.264
	c0.024,0,0.05-0.036,0-0.044C21.552,2.152,21.404,2.166,21.45,2.373z M22.595,2.77c-0.106-0.025-0.227-0.038-0.22-0.176
	c-0.151,0.083-0.112,0.083-0.265,0c-0.077,0.157,0.009,0.478-0.176,0.528c-0.004-0.282-0.022-0.097-0.088,0
	c-0.008-0.066,0.016-0.163-0.044-0.176c-0.03,0.161-0.176-0.009-0.353,0.044c0.103-0.102-0.129-0.094-0.132-0.22
	c-0.007,0.052,0.008,0.125-0.044,0.132c0.089-0.224-0.259-0.182-0.132-0.088c0.096,0.003,0.165,0.236,0.264,0.308
	c0.103,0,0.206,0,0.309,0c0.005,0.113,0.024,0.21,0.088,0.264c0.01-0.034,0.037-0.051,0.088-0.044
	c0.047-0.165-0.165-0.07-0.132-0.22c0.259,0.177,0.557-0.253,0.352-0.396c0.113,0.087,0.203-0.045,0.265,0.044
	c-0.065,0.116-0.279,0.25-0.176,0.396C22.411,3.114,22.369,2.808,22.595,2.77z M22.022,3.166c0.173,0.117-0.023,0.144-0.132,0.308
	c0.241-0.032,0.467,0.021,0.572-0.22C22.269,3.262,22.168,3.134,22.022,3.166z M22.859,3.122c-0.049-0.04-0.03-0.099,0-0.176
	c-0.079,0-0.256-0.119-0.309,0c0.148-0.031,0.145,0.091,0.221,0.132c-0.086-0.021-0.281,0.063-0.177,0.088
	C22.651,3.051,22.858,3.199,22.859,3.122z M17.181,3.65c0.031-0.135-0.045-0.161-0.044-0.264c-0.109-0.006-0.214-0.008-0.221,0.088
	c0.073,0,0.146,0,0.221,0C17.079,3.532,17.109,3.606,17.181,3.65z M21.715,3.562c-0.07,0.173,0.189,0.016,0.176,0.132
	c-0.066,0.159-0.269-0.044-0.353,0.132c0.177-0.029,0.178,0.117,0.177,0.264c0.227,0.005,0.108-0.237,0-0.264
	c0.19-0.015,0.32,0.032,0.396,0.132c0.037-0.125-0.062-0.114-0.044-0.22c0.124,0.045,0.188,0.05,0.177-0.132
	c-0.139-0.051-0.107,0.069-0.177,0.088c-0.127-0.22,0.326-0.08,0.177-0.176C22.056,3.521,21.935,3.591,21.715,3.562z M21.099,4.178
	c-0.05-0.097-0.051-0.243-0.177-0.264c0,0.044,0,0.088,0,0.132C21.09,3.981,20.931,4.243,21.099,4.178z M22.155,7.392
	c-0.063-0.129-0.081-0.534,0-0.66c0.026,0.091-0.071,0.306,0.088,0.264c0.099-0.019,0.018-0.217,0.044-0.308
	c-0.146,0.02-0.289-0.355-0.088-0.396c0.001,0.104-0.076,0.13-0.044,0.264c0.142-0.054,0.033,0.143,0.176,0.088
	c-0.015-0.156-0.121-0.108-0.044-0.264c0.131,0.058,0.217,0.039,0.264-0.088c-0.195,0.012-0.249-0.093-0.396-0.22
	c0.054-0.005,0.104-0.013,0.088-0.088c-0.076-0.017-0.113,0.065-0.133,0c0.12-0.077-0.095-0.311,0-0.352
	c0.181-0.013-0.007,0.061,0.045,0.176c0.156,0.069,0.026-0.149,0.132-0.132c0.082,0.159-0.041,0.294,0.044,0.396
	c0.107-0.237-0.016-0.212,0.044-0.44c0.115-0.02,0.462-0.033,0.396-0.088c-0.3-0.021-0.536,0.021-0.793,0.044
	c-0.005,0.811,0.095,1.667,0.044,2.333c0.265-0.044,0.714,0.097,0.837-0.088c-0.175-0.091-0.646-0.017-0.704-0.088
	c0.006-0.109,0.148-0.013,0.176,0c0.026-0.091-0.055-0.289,0.044-0.308c0.187,0,0.283,0.084,0.396-0.044
	c-0.105-0.027-0.319,0.055-0.353-0.044c0.225,0.063,0.102-0.222,0.132-0.352c0.253-0.029,0.106-0.185,0.221-0.353
	c-0.237,0.012-0.16,0.339-0.396,0.353c-0.007-0.052,0.008-0.125-0.044-0.132C22.436,7.077,22.487,7.4,22.155,7.392z M22.551,5.675
	c-0.067,0.067-0.078,0.302,0.088,0.264c0.058-0.109-0.129-0.183,0-0.22c0.065,0.052,0.069,0.167,0.133,0.22
	c0.04-0.063,0.04-0.348,0-0.264C22.765,5.773,22.66,5.618,22.551,5.675z M21.891,15.271c-0.119-0.054-0.157-0.122-0.176-0.176
	c-0.121,0.117,0.035,0.112,0.088,0.176c-0.144,0.056-0.448,0.309-0.44,0.132c-0.149-0.032-0.072,0.163-0.176,0.177
	c0.086-0.204-0.042-0.062-0.088-0.132c0.09-0.117,0.183-0.148,0.044-0.177c-0.038-0.198,0.073-0.203,0.132-0.088
	c-0.247-0.401,0.177-0.648,0-1.057c0.226,0.079,0.336-0.059,0.484-0.088c0.079,0.17,0.278,0.221,0.352,0.396
	c-0.19-0.163,0.032,0.326,0.045,0.22c-0.144-0.273,0.361-0.157,0.22-0.44c-0.01,0.034-0.001,0.087-0.044,0.088
	c0.006-0.081,0.029-0.146,0.088-0.176c0.095,0.132,0.212,0.013,0.396,0.088c0-0.088,0-0.176,0-0.264
	c-0.132,0.246-0.646,0.027-0.66,0.396c-0.008-0.071-0.148-0.228-0.045-0.265c0,0.029,0,0.059,0,0.088
	c0.098-0.022,0.318-0.147,0.221-0.22c-0.099,0.176-0.702,0.129-0.748-0.044c0.051,0.187-0.324,0.2-0.309,0.088
	c0.181-0.202-0.015-0.706,0.176-0.837c0.011,0.078-0.044,0.221,0.088,0.177c0.083-0.313-0.201-0.229-0.088-0.44
	c0.163,0.182,0.158,0.039,0.396,0.088c-0.034-0.166,0.054-0.21,0.044-0.353c-0.091-0.025-0.15-0.084-0.176-0.176
	c0.19,0.047,0.053-0.419,0.352-0.22c0.034-0.128,0.07-0.253,0.177-0.309c0.052,0.021,0.1,0.047,0.132,0.088
	c0.009,0.126-0.011,0.223-0.088,0.264c-0.125,0.036-0.114-0.063-0.221-0.044c-0.018,0.114-0.131,0.133-0.132,0.264
	c0.143-0.004,0.094-0.199,0.309-0.132c-0.081,0.216,0.183,0.313,0.088,0.396c-0.096-0.052-0.169-0.125-0.221-0.221
	c-0.109,0.005-0.136,0.083-0.22,0c0.074,0.146,0.026,0.282,0,0.44c0.12,0.004,0.089-0.073,0.176,0
	c0.002-0.145-0.018-0.312,0.133-0.308c-0.039,0.107-0.132,0.161-0.089,0.352c0.164-0.126,0.484,0.293,0.661,0
	c-0.17-0.006-0.387,0.034-0.44-0.088c0.018-0.139,0.173-0.271,0-0.353c0.044-0.059,0.072-0.133,0.132-0.176
	c0.191,0,0.102,0.064,0.309,0.088c0.022-0.201-0.148-0.178-0.265-0.132c0.089-0.102-0.018-0.102-0.088-0.044
	c0.032-0.233-0.08-0.402-0.132-0.66c-0.176-0.014-0.067,0.255-0.177,0.308c-0.103-0.043-0.216-0.078-0.352-0.088
	c-0.054,0.186,0.071,0.193,0.088,0.309c-0.099,0.019-0.141,0.094-0.22,0.132c0.097,0.006,0.019,0.187,0.044,0.264
	c-0.219-0.147-0.063,0.155-0.177,0.221c-0.208-0.159,0.346-0.544,0.044-0.396c0.08-0.211,0.187-0.329,0.177-0.528
	c-0.063-0.097-0.107,0.056-0.132-0.044c0.059-0.108,0.133,0.08,0.176-0.044c-0.183-0.116,0.075-0.08,0.088-0.132
	c0.008-0.031-0.181-0.538,0.132-0.573c-0.161-0.029-0.169,0.096-0.308,0.088c0.004-0.113,0.172-0.063,0.176-0.176
	c-0.139-0.05-0.107,0.069-0.176,0.088c0.104-0.163-0.073-0.479,0.22-0.616c-0.335-0.167,0.175-0.825-0.044-0.88
	c0.044-0.059,0.042-0.164,0.132-0.176c0.122-0.019,0.042,0.165,0.132,0.176c0.003-0.027,0.007-0.052,0.045-0.044
	c-0.001-0.044,0.035-0.052,0.044-0.088c-0.15-0.012-0.233-0.09-0.265-0.22c0.063,0.01,0.074,0.072,0.132,0.088
	c0.008-0.177,0.03-0.339,0.044-0.396c0.084,0.02,0.266-0.06,0.221,0.088c-0.059-0.057-0.133-0.027-0.176,0.044
	c0.109,0.056,0.138-0.022,0.176,0.044c-0.113,0.113-0.034,0.19-0.176,0.308c0.229-0.028,0.063,0.386,0.22,0.309
	c-0.059,0-0.04,0.077-0.088,0.088c-0.059,0-0.04-0.077-0.088-0.088c-0.03,0.19-0.117,0.407-0.133,0.484
	c-0.055-0.018-0.128-0.05-0.22-0.132c-0.033,0.135,0.121,0.084,0.088,0.22c0.259-0.066,0.071,0.039,0.309,0.088
	c0.01-0.26,0.145-0.487,0.308-0.705c-0.205,0.017-0.12-0.208-0.044-0.264c-0.113-0.117-0.063,0.085-0.176,0.088
	c-0.217-0.367,0.252-0.509,0.484-0.44c-0.027-0.002-0.053-0.006-0.044-0.044c0.024,0,0.05-0.036,0-0.044
	c-0.047,0.057-0.478,0.128-0.396-0.088c0.108,0.065,0.496,0.105,0.484-0.088c-0.338,0-0.675,0-1.013,0
	c-0.277,2.378-0.582,4.73-0.925,7.043c0.589-0.364,1.368-0.539,1.938-0.924c-0.127,0.062-0.224-0.12-0.265,0
	c-0.005,0.226-0.335,0.017-0.484-0.089c0.059,0.137-0.13,0.244,0,0.309c0.021-0.052,0.048-0.1,0.089-0.132
	c0.052,0.021,0.1,0.047,0.132,0.088c-0.201-0.025-0.244,0.107-0.396,0.132c0-0.044-0.035-0.052-0.044-0.088
	c0.034-0.01,0.087-0.001,0.088-0.044C21.78,15.065,21.878,15.17,21.891,15.271z M22.066,8.977c0.059,0.11-0.174,0.138-0.044,0.176
	c-0.019,0.065-0.056-0.017-0.132,0c-0.007-0.059,0.179-0.133,0.044-0.176C21.967,8.898,22.015,8.97,22.066,8.977z M21.715,11.662
	c-0.155-0.012-0.036-0.199-0.044-0.264C21.794,11.474,21.712,11.513,21.715,11.662z M21.627,12.63
	c0.156-0.068,0.026,0.15,0.132,0.133c-0.013,0.153-0.119-0.004-0.132,0.088C21.528,12.844,21.684,12.739,21.627,12.63z
	 M21.406,15.184c-0.013,0.052-0.232,0.11-0.088,0.176c0.035-0.073,0.212-0.052,0.309-0.088c-0.132-0.092,0.058-0.231,0-0.396
	c-0.059,0-0.118,0-0.177,0c-0.023,0.063,0.052,0.228-0.044,0.22c-0.042-0.023-0.146-0.197-0.176-0.088
	C21.282,15.073,21.341,15.132,21.406,15.184z M21.406,14.348c0.008,0.163-0.132,0.339-0.176,0.572
	c0.061-0.002,0.097,0.021,0.132,0.044c-0.071-0.23,0.018-0.103,0.265-0.221c0-0.059,0-0.117,0-0.176
	c-0.139,0.023-0.17,0.152-0.309,0.176C21.383,14.655,21.629,14.451,21.406,14.348z M21.715,13.335
	c-0.094,0.053-0.24,0.054-0.265,0.176c0.101-0.021,0.226-0.087,0.309,0c0.021-0.084-0.136-0.189,0.044-0.176
	c0.05,0.039-0.003,0.099,0.088,0.176c0.197-0.103,0.21-0.078,0.353-0.088c-0.063-0.202-0.422-0.107-0.528-0.265
	c0.117,0,0.234,0,0.352,0c0.045-0.206-0.33,0.008-0.352-0.132c-0.003-0.026-0.007-0.052-0.044-0.044
	C21.759,13.117,21.614,13.212,21.715,13.335z M22.771,12.982c0.098-0.072-0.006-0.314-0.044-0.396
	c-0.059,0.112-0.195-0.064-0.309-0.044c0.072,0.148,0.041,0.399,0.22,0.44c0.037-0.184-0.085-0.208-0.088-0.353
	c0.029,0,0.059,0,0.088,0C22.664,12.767,22.627,12.965,22.771,12.982z M19.205,8.8c-0.335,1.425-0.404,3.118-0.704,4.579
	c0.242,0.35,0.545,0.709,0.837,1.057c0.288,0.344,0.565,0.726,0.88,0.924c0.201-2.169,0.544-4.409,0.837-6.559
	C20.438,8.8,19.821,8.8,19.205,8.8z M19.47,9.064c0.162-0.195-0.057,0.025-0.221,0c0.099-0.272,0.571-0.11,0.749-0.132
	C19.937,9.092,19.613,8.988,19.47,9.064z M20.042,9.021C19.969,9.14,19.92,9.22,20.086,9.285c0.185-0.103,0.136-0.034,0.352,0
	c-0.148,0.148,0.104,0.119,0.177,0.176c0.148-0.04,0.005-0.099,0.088-0.176c0.09,0.079,0.013,0.163,0.176,0.088
	c-0.053,0.178-0.15,0.055-0.264,0.132c0.011,0.091,0.193,0.012,0.22,0.088c-0.028,0.045-0.101,0.045-0.088,0.132
	c-0.18-0.037-0.151-0.007-0.353,0c0.037,0.109,0.058,0.236,0.044,0.396c0.096,0.007,0.021-0.156,0.045-0.22
	c0.064,0.063,0.139,0.034,0.132-0.088c0.099,0.019,0.018,0.217,0.044,0.308c-0.039-0.02-0.079-0.039-0.088-0.088
	c-0.063,0.01-0.016,0.131-0.088,0.132c0.132-0.056,0.156,0.168,0.176,0.132c0.11,0.083-0.035,0.16-0.132,0.088
	c0,0.044,0,0.088,0,0.132c0.075,0.002,0.113-0.033,0.132-0.088c0.083,0.27-0.036,0.516-0.044,0.924
	c-0.213-0.076-0.145,0.039-0.265,0.132c0.041,0.12,0.082-0.117,0.221-0.044c0,0.073,0,0.146,0,0.22
	c-0.072-0.003-0.247-0.218-0.265,0c0.14-0.073,0.099,0.128,0.265,0.132c0.064,0.139-0.253,0.212-0.221,0.044
	c-0.162,0.096,0.132,0.098,0.088,0.22c-0.159-0.025-0.188-0.046-0.439-0.044c0.247-0.078-0.043-0.117-0.044-0.308
	c0.104-0.001,0.129,0.076,0.264,0.044c0.008-0.11-0.067-0.138-0.132-0.176c-0.154,0.053-0.145,0.064-0.265,0.088
	c0.097,0.091-0.131,0.33,0.133,0.308c0.068,0.157-0.149,0.026-0.133,0.132c0.062,0.132,0.229-0.092,0.309,0.044
	c-0.023,0.035-0.046,0.071-0.044,0.132c-0.149-0.051-0.069-0.088-0.265-0.044c0.1,0.061,0.187,0.091,0.044,0.176
	c0.009,0.036,0.045,0.044,0.045,0.088c0.079-0.109,0.674-0.129,0.396-0.308c0.038-0.128,0.066-0.05,0.177-0.044
	c-0.037,0.108-0.13,1.298-0.133,0.396c-0.194,0.29,0.229,0.686-0.132,0.793c-0.024-0.098,0.084-0.063,0.088-0.132
	c-0.032-0.1-0.247-0.018-0.352-0.045c-0.012-0.264-0.048-0.274,0-0.528c0.114,0.062-0.021,0.374,0.088,0.44
	c0.253,0.048,0.042-0.368,0.176-0.44c-0.047-0.038-0.375,0.014-0.44-0.132c-0.113,0.079-0.187,0.224-0.352,0.132
	c0.056,0.06,0.132,0.087,0.044,0.177c-0.102-0.046-0.091-0.202-0.265-0.177c0.002,0.146,0.188,0.105,0.177,0.265
	c-0.141-0.146-0.098-0.022-0.177,0.088c0.068,0.126,0.121,0.016,0.177,0.176c0.132-0.028-0.043-0.094,0-0.176
	c0.109,0.008,0.138-0.067,0.176-0.132c0.115,0.069,0.14,0.229,0.308,0.132c-0.054,0.093-0.121,0.172-0.176,0.265
	c-0.103-0.015-0.043-0.192-0.132-0.221c-0.128,0.16,0.01,0.429,0.132,0.484c0.115-0.146-0.031-0.268,0.176-0.44
	c0.077,0.041,0.098,0.138,0.089,0.265c-0.116-0.014-0.145,0.061-0.133,0.176c0.207-0.139,0.3-0.098,0.528-0.132
	c0.037,0.124-0.062,0.114-0.044,0.22c-0.252-0.14-0.393,0.098-0.616,0c0.008,0.125,0.081,0.184,0.088,0.309
	c0.096,0.007,0.021-0.156,0.044-0.221c0.091,0.013,0.088,0.118,0.133,0.177c0.129-0.038-0.058-0.111,0-0.221
	c0.104,0.044,0.072,0.221,0.22,0.221c-0.034,0.039-0.047,0.1-0.044,0.176c-0.136-0.031-0.085-0.031-0.22,0c0,0.117,0,0.234,0,0.353
	c0.029-0.234,0.273-0.255,0.308-0.484c0.11-0.002,0,0.483-0.088,0.572c0.095-0.041,0.121,0.186-0.044,0.22
	c0.008-0.035,0.044-0.044,0.044-0.088c-0.04-0.12-0.099,0.134-0.176,0c-0.023-0.208-0.195-0.497,0-0.66
	c-0.132-0.01-0.15,0.162-0.265,0.044c0.1,0.091-0.027,0.408,0.132,0.44c0.119,0.081-0.093-0.02-0.132-0.044
	c-0.178,0.106,0.015,0.249,0.132,0.308c0.008-0.11-0.067-0.138-0.132-0.176c0.029-0.132,0.095,0.042,0.176,0
	c0.015,0.102-0.007,0.169-0.044,0.22c0.104,0.108,0.082-0.065,0.221-0.044c0.039,0.108,0.132,0.162,0.088,0.353
	c-0.141,0.037-0.136-0.069-0.22-0.088c0.038-0.13,0.065,0.102,0.176,0.044c0.007-0.109-0.069-0.137-0.088-0.221
	c-0.164,0.174-0.337-0.194-0.484-0.308c0.127-0.063,0.109-0.214,0.176-0.66c-0.074,0.215-0.281,0.268-0.22,0.483
	c-0.213,0.088-0.059-0.511-0.309-0.616c-0.228,0.191-0.179,0.161-0.396-0.088c-0.05-0.129,0.212-0.163,0.089-0.22
	c-0.008-0.096,0.156-0.021,0.22-0.044c-0.066,0.205-0.196,0.075-0.22,0.308c0.037-0.123,0.255-0.067,0.22-0.264
	c0.124,0.044,0.11,0.064,0.176,0.088c0.009-0.093,0.089-0.372-0.132-0.396c0.026-0.105,0.063-0.2,0.044-0.352
	c-0.082-0.073-0.257-0.082-0.088-0.177c-0.105-0.093-0.13,0.097-0.309,0c0.002-0.145-0.018-0.312,0.133-0.308
	c0.004,0.12-0.073,0.089,0,0.176c0.169-0.103,0.004-0.233,0.088-0.396c0.248,0.114,0.115-0.176,0.088-0.352
	c0.084-0.019,0.08-0.126,0.22-0.088c-0.008-0.036-0.044-0.044-0.044-0.088c-0.139-0.021-0.1,0.135-0.264,0.088
	c0-0.044,0-0.088,0-0.132c-0.08,0.189,0.188,0.557-0.176,0.616c0.096-0.171,0.066-0.269,0.088-0.705
	c0.174-0.057,0.09,0.145,0.264,0.088c0.033-0.136-0.121-0.085-0.088-0.22c-0.088,0-0.056,0.12-0.176,0.088
	c0.031-0.262,0.159-0.23,0.088-0.528c0.153-0.039,0.075,0.144,0.044,0.176c0.063,0.004,0.125,0.007,0.132-0.044
	c0.109,0.006,0.013,0.149,0,0.176c0.007,0.052,0.08,0.037,0.132,0.044c0.026-0.079-0.129-0.183,0-0.22
	c-0.057-0.09-0.213-0.08-0.176-0.264c0.071-0.013,0.076,0.042,0.132,0.044c-0.039-0.226,0.053-0.442-0.088-0.484
	c0.02-0.098,0.217-0.018,0.309-0.044c-0.03-0.138-0.117-0.057-0.221-0.044c0.007-0.082,0.029-0.147,0.089-0.176
	c-0.014-0.06-0.11-0.036-0.177-0.044c0.001,0.043,0.054,0.034,0.088,0.044c-0.168,0.084-0.066,0.317-0.088,0.353
	c-0.222-0.246,0.06-0.595,0-0.881c0.116-0.013,0.145,0.061,0.132,0.176c0.188-0.137,0.217,0.01,0.396-0.044
	c0.03,0.067-0.335,0.203-0.44,0.044c-0.031,0.12,0.088,0.089,0.089,0.176c0.077-0.041,0.219-0.015,0.264-0.088
	c0.077,0.08-0.096,0.284-0.176,0.353c0.086,0.126,0.188-0.103,0.22-0.176c0.124-0.036,0.114,0.062,0.22,0.044
	c-0.01,0.068-0.163,0.211-0.22,0.088c-0.045,0.043-0.089,0.087-0.132,0.132c0.05,0.047,0.407,0.028,0.396-0.132
	c0.142,0.071-0.155,0.165,0,0.264c0.084-0.166,0.18-0.318,0.308-0.44c-0.037-0.129-0.11,0.057-0.22,0
	c-0.083-0.084-0.005-0.111,0-0.22c-0.029,0-0.059,0-0.088,0c-0.027,0.043-0.096,0.22,0.044,0.22
	c-0.05,0.103-0.226-0.035-0.265-0.088c0.17-0.087,0.065-0.191,0.309-0.22c-0.075-0.028-0.072-0.133-0.133-0.176
	c-0.007,0.14-0.182,0.111-0.264,0.176c-0.12-0.041,0.062-0.138,0-0.264c0.048,0.011,0.03,0.087,0.088,0.088
	c0.065-0.055-0.106-0.128,0.044-0.22c-0.15-0.033-0.056,0.179-0.22,0.132C19.476,8.953,19.899,9.127,20.042,9.021z M18.897,12.982
	c-0.02,0.069-0.139,0.038-0.088,0.176c0.235-0.059,0.006-0.224,0.088-0.308c0.139,0.022,0.121,0.201,0.176,0.308
	c-0.192-0.015-0.288,0.513-0.44,0.221c0.043,0.001,0.034,0.054,0.044,0.088c0.056-0.21-0.107-0.429,0.133-0.572
	c-0.037-0.096-0.114-0.15-0.089-0.309c0.122,0.011,0.017,0.249,0.177,0.221C18.885,12.858,18.703,12.989,18.897,12.982z
	 M19.117,13.995c-0.096,0.008-0.02-0.156-0.044-0.22c0.051,0.007,0.078-0.01,0.088-0.045C19.289,13.792,19.148,13.948,19.117,13.995
	z M20.482,8.977c0.028,0.059,0.094,0.082,0.176,0.088c-0.081,0.085,0.162,0.264-0.132,0.264c0.1-0.247-0.27-0.024-0.221-0.22
	c-0.093,0.078-0.13,0.1-0.264,0.044c0.094-0.136,0.146-0.116,0.044-0.264c0.354-0.084,0.633,0.224,0.748,0
	c0.048,0.011,0.03,0.087,0.088,0.088c-0.104,0.167-0.073,0.104-0.132,0.264C20.757,9.083,20.681,8.969,20.482,8.977z M19.426,9.108
	c0,0.118,0,0.235,0,0.353c-0.11-0.066-0.241-0.112-0.221-0.309C19.319,9.27,19.252,9.051,19.426,9.108z M20.174,12.103
	c0.168-0.033,0.095,0.284-0.044,0.22C20.167,12.271,20.188,12.204,20.174,12.103z M19.646,12.895c0-0.088,0-0.176,0-0.265
	C19.782,12.628,19.842,12.931,19.646,12.895z M19.382,11.134c0.151-0.083,0.112-0.083,0.264,0c0.055-0.143-0.143-0.034-0.088-0.176
	c-0.152,0.083-0.112,0.083-0.265,0C19.239,11.1,19.436,10.991,19.382,11.134z M19.777,10.165c0.048,0.18-0.047,0.217-0.132,0.264
	c0.16-0.028,0.173,0.091,0.176,0.22c0.207,0.046-0.072-0.148,0.089-0.176c0.067,0.064,0.038,0.226,0.044,0.352
	c0.093,0.059,0.13-0.021,0.264,0.044c-0.023-0.096-0.106-0.285,0.044-0.308c-0.006,0.058-0.007,0.318,0.044,0.176
	c-0.094-0.226,0.225-0.04,0.177-0.22c-0.098-0.058-0.41-0.006-0.528-0.044c0.01-0.063,0.072-0.074,0.088-0.132
	C19.789,10.461,19.937,10.226,19.777,10.165z M22.639,10.121c-0.052,0.079,0.017,0.274-0.088,0.396
	c-0.218-0.127-0.396-0.038-0.616-0.088c0.044,0.088,0.086,0.178,0.132,0.264c0.098-0.308,0.604-0.111,0.705-0.044
	c-0.207-0.281,0.088-0.473-0.044-0.705c0.002,0.076-0.034,0.113-0.089,0.132c0.001-0.044-0.035-0.052-0.044-0.088
	c-0.021-0.139,0.219-0.016,0.177-0.176c-0.073,0-0.147,0-0.221,0c-0.109,0.116-0.029,0.167-0.132,0.308
	C22.497,10.147,22.602,9.992,22.639,10.121z M20.438,10.297c-0.125-0.167-0.067-0.322-0.176-0.44
	c-0.081,0.142,0.083,0.256-0.176,0.22c-0.061,0.139-0.01,0.147,0,0.308c0.135-0.032,0.16,0.045,0.264,0.044
	c-0.027-0.105-0.156-0.064-0.176-0.264c0.059,0,0.117,0,0.176,0C20.354,10.234,20.344,10.318,20.438,10.297z M17.797,10.562
	c-0.083,0.042-0.298,0.347-0.132,0.352c0.099-0.018-0.023-0.258,0.176-0.176c-0.04,0.077-0.016,0.22-0.088,0.264
	c-0.059-0.006-0.318-0.007-0.177,0.044C17.937,11.154,17.944,10.706,17.797,10.562z M17.269,11.266
	c0.124-0.007,0.11,0.125,0.176,0.176c-0.172,0.069-0.091-0.114-0.176-0.132c-0.031,0.136-0.031,0.085,0,0.22
	c0.186-0.007,0.223-0.211,0.352-0.044c0.059-0.11-0.174-0.138-0.044-0.176c0.063,0.011,0.074,0.073,0.133,0.088
	c-0.046-0.26-0.28-0.174-0.309-0.044C17.439,11.263,17.286,11.156,17.269,11.266z M22.771,10.87
	c-0.104-0.093-0.418-0.073-0.309,0.176c-0.033-0.167,0.179-0.067,0.132,0.044c-0.059,0-0.117,0-0.176,0
	c-0.014,0.103,0.007,0.169,0.044,0.22c0.082,0.042,0.147-0.132,0.176,0c-0.046,0.113-0.253,0.024-0.264-0.044
	c0.024,0.064-0.052,0.228,0.044,0.22c-0.025-0.17,0.29-0.064,0.265,0.044c-0.077-0.003-0.138,0.01-0.177,0.044
	c0,0.088,0,0.176,0,0.264c0.228,0.048,0.063-0.262,0.132-0.264c0.07,0.004,0.035,0.112,0.133,0.088
	c0.062-0.188-0.074-0.271,0.044-0.44c-0.053-0.108-0.167,0.09-0.221-0.044c0.239-0.052-0.119-0.217,0.044-0.308
	C22.64,10.927,22.761,10.926,22.771,10.87z M19.293,11.178c0.044,0.162,0.212,0.199,0.221,0.396c-0.298,0.101-0.33,0.543-0.265,0.88
	c0.275-0.096-0.172-0.288,0.089-0.528c0,0.03,0,0.059,0,0.088c0.083,0.01,0.097-0.05,0.176-0.044
	c0.002,0.061-0.021,0.096-0.044,0.132c0.073-0.059,0.28,0.016,0.264-0.132c-0.116-0.001-0.259,0.024-0.264-0.088
	c0.026-0.002,0.052-0.006,0.044-0.044c0.069,0.019,0.037,0.139,0.176,0.088c-0.047-0.164,0.109-0.125,0.088-0.264
	c-0.087-0.105-0.284-0.126-0.176-0.309C19.395,11.399,19.484,11.148,19.293,11.178z M19.602,11.75
	c-0.138-0.021-0.124,0.111-0.176,0.176c-0.078-0.01-0.101-0.076-0.088-0.176c0.114,0.026,0.158-0.018,0.132-0.132
	c0.091,0.026,0.149,0.085,0.176,0.176C19.622,11.862,19.6,11.797,19.602,11.75z M16.96,13.995c0-0.059,0-0.117,0-0.176
	c-0.12-0.032-0.088,0.087-0.176,0.088c0.002-0.076-0.034-0.113-0.088-0.132C16.724,13.909,16.794,14,16.96,13.995z M17.444,12.895
	c0.03-0.177-0.042-0.251-0.044-0.396c-0.183,0.056-0.33,0.233-0.22,0.44c-0.013-0.022,0.019-0.096,0.044-0.088
	c0.032,0.136-0.121,0.085-0.088,0.22c0.163-0.136,0.119,0.005,0.308,0.044c-0.064-0.141-0.189-0.221-0.132-0.484
	c0.029,0,0.059,0,0.088,0C17.34,12.687,17.324,12.894,17.444,12.895z M21.406,13.687c0.09,0.028,0.013,0.223,0.177,0.177
	c-0.052-0.117,0.084-0.26,0-0.265C21.614,13.719,21.375,13.567,21.406,13.687z M21.671,13.687c0.006,0.082,0.028,0.147,0.088,0.177
	c-0.019-0.111,0.2-0.205,0.088-0.265C21.807,13.676,21.748,13.769,21.671,13.687z M19.514,13.951
	c0.025-0.077-0.054-0.259,0.044-0.265c0.005,0.054,0.013,0.104,0.088,0.089c0-0.045,0-0.089,0-0.133c-0.044,0-0.088,0-0.132,0
	C19.468,13.756,19.382,13.884,19.514,13.951z M22.419,14.92c-0.014-0.102,0.127-0.049,0.132-0.133
	c-0.052-0.007-0.125,0.008-0.132-0.044c0.061,0.002,0.097-0.021,0.132-0.044c0-0.132-0.079-0.185-0.176-0.22
	c-0.02,0.101-0.243,0.223-0.132,0.308C22.385,14.624,22.418,14.905,22.419,14.92z M16.52,16.108
	c0.031,0.175-0.076,0.487,0.089,0.528c-0.033-0.136,0.12-0.085,0.088-0.221c-0.185-0.141-0.014-0.296,0.044-0.44
	C16.576,15.941,16.658,16.247,16.52,16.108z M17.665,17.341c0.008,0.096-0.036,0.14-0.133,0.132c0-0.059,0-0.117,0-0.176
	c-0.239,0.032-0.018,0.271-0.044,0.396c0.084-0.122,0.18-0.231,0.265-0.353c-0.117-0.045-0.119-0.204-0.221-0.265
	C17.393,17.222,17.599,17.27,17.665,17.341z M17.313,17.297c-0.054,0.005-0.104,0.013-0.088,0.088
	c0.107-0.024,0.16-0.104,0.22-0.176c-0.172,0.057-0.172-0.146,0-0.088c-0.026-0.259-0.274-0.114-0.353-0.045
	C17.291,17.024,17.283,17.18,17.313,17.297z M7.011,18.441c-0.01-0.078,0.044-0.221-0.088-0.176c0,0.237,0.004,0.126-0.132,0.088
	c0.066,0.103-0.015,0.189,0.044,0.22C6.874,18.509,6.901,18.434,7.011,18.441z M4.854,17.693c-0.061-0.164-0.383-0.023-0.44-0.045
	C4.434,17.764,4.78,17.778,4.854,17.693z M2.521,18.001c0.014,0.271,0.047,0.693,0,0.969c0.162-0.023,0.132-0.237,0.088-0.353
	c0.146,0.137,0.052,0.091,0.264,0.044c0.052,0.229-0.169,0.184-0.22,0.309c0.073,0,0.147,0,0.22,0
	c0.004-0.069-0.006-0.152,0.088-0.132c-0.117,0.226-0.03,0.505-0.22,0.66c-0.039-0.107,0.078-0.345,0-0.221
	c-0.069,0.137-0.09,0.321-0.22,0.396c0.193,0.057,0.148,0.123,0.264,0.088c-0.017,0.211-0.169,0.398-0.044,0.484
	c-0.163,0.619-0.345,1.145-0.176,1.805c-0.042-0.082,0.132-0.146,0-0.176c-0.01,0.034-0.001,0.087-0.044,0.088
	c0.246-1.055,0.378-2.578,0.66-3.741c-0.275-0.049-0.485-0.395-0.704-0.353c0.048,0.143,0.244,0.138,0.264,0.308
	c-0.044,0-0.052,0.036-0.088,0.045C2.684,18.073,2.563,18.077,2.521,18.001z M2.653,18.31c0.078,0.011,0.101,0.075,0.088,0.176
	c0.066-0.065,0.067-0.197,0.22-0.176c0.005,0.109,0.083,0.136,0,0.22c-0.042-0.189-0.255,0.024-0.044,0.044
	c-0.056,0.177-0.209-0.131-0.22,0C2.6,18.568,2.678,18.387,2.653,18.31z M4.81,20.334c-0.118,0-0.235,0-0.352,0
	c0.05,0.139-0.069,0.107-0.088,0.177c0.128,0.011,0.152-0.083,0.22-0.133c-0.031,0.164,0.075,0.189,0.044,0.353
	c-0.089-0.037-0.273,0.038-0.132,0.088c0.011-0.091,0.193-0.012,0.22-0.088C4.675,20.321,4.712,20.596,4.81,20.334z M16.74,18.001
	c-0.088,0-0.056-0.12-0.176-0.088c-0.103,0.047,0.021,0.314,0.088,0.176c-0.05-0.009-0.068-0.049-0.088-0.088
	c0.044,0,0.052-0.035,0.088-0.044C16.639,18.028,16.712,18.076,16.74,18.001z M12.426,18.222c-0.084-0.019-0.034-0.171-0.176-0.133
	c-0.02,0.15-0.054,0.316,0,0.44c-0.019-0.121,0.164-0.041,0.176-0.132c-0.124,0.007-0.11-0.125-0.176-0.176
	c0.044,0,0.052-0.036,0.088-0.045C12.349,18.225,12.41,18.283,12.426,18.222z M4.942,18.31c-0.164,0.046-0.086-0.148-0.176-0.177
	c-0.005,0.145-0.35,0.176-0.22,0.309c0.058-0.089,0.145-0.149,0.264-0.176C4.753,18.438,4.938,18.421,4.942,18.31z M22.859,19.321
	c-0.631-0.207-1.679-0.227-2.466-0.132c0.743,1.092,1.575,2.129,2.29,3.038c-0.087-0.17-0.144-0.297-0.089-0.44
	c0.11,0.006,0.138,0.084,0.177-0.044c-0.173-0.018-0.142-0.187-0.044-0.265c-0.176-0.112-0.334,0.019-0.396-0.22
	c0.002,0.082-0.034,0.093-0.088,0.044c-0.022,0.139,0.104,0.18-0.044,0.22c-0.019-0.138-0.159-0.18,0-0.264
	c-0.257-0.094-0.056-0.288-0.309-0.265c0.005-0.083,0.146-0.03,0.132-0.132c-0.169-0.021-0.388-0.259-0.484-0.308
	c0.014,0.106,0.271,0.194,0.177,0.264c-0.092-0.084-0.184-0.169-0.221-0.308c0.065-0.023,0.111-0.065,0.177-0.089
	c-0.006,0.11-0.084,0.139,0.044,0.177c-0.006-0.108-0.007-0.212,0.044-0.265c-0.159,0.003-0.213,0.11-0.353,0.133
	c-0.116-0.206-0.236-0.409-0.396-0.572c0.279,0.104,0.107,0.061,0.264-0.089c-0.063,0.167,0.121,0.085,0.088,0.221
	c-0.065,0.007-0.162-0.016-0.176,0.044c0.164-0.073,0.188,0.365,0.352,0.264c-0.067-0.053-0.237-0.228-0.132-0.308
	c0.119,0.057,0.111,0.24,0.265,0.264c-0.018-0.174-0.18-0.202-0.265-0.308c0.09-0.072,0.18-0.144,0.309-0.177
	c-0.033-0.167,0.206-0.289-0.044-0.308c0.139,0.202-0.197,0.414-0.309,0.352c0.065-0.141,0.369-0.274,0.221-0.483
	c-0.051,0.052-0.05,0.155-0.045,0.264c-0.111,0.021-0.178,0.086-0.22,0.176c0.039-0.256-0.274,0.007-0.353,0.044
	c-0.125-0.227-0.335-0.368-0.439-0.616c0.271,0.047,0.479-0.11,0.616,0.044c-0.134,0.028-0.38-0.056-0.44,0.044
	c0.298,0.215,0.605-0.04,0.792,0.177c-0.007-0.109,0.069-0.137,0.089-0.221c-0.066-0.007-0.163,0.017-0.177-0.044
	c0.148,0.028,0.409-0.057,0.484,0.044c-0.079-0.005-0.103,0.044-0.088,0.133c0.168,0.035,0.135-0.129,0.264-0.133
	c-0.039,0.114,0.364-0.041,0.484,0.133c-0.311,0.007-0.044,0.323-0.264,0.396c-0.01-0.034-0.037-0.051-0.088-0.044
	c0.038-0.077,0.147-0.136,0-0.176c-0.011,0.077-0.076,0.101-0.177,0.088c-0.023-0.063,0.172-0.107,0.044-0.132
	c-0.079,0.151-0.225,0.037-0.088,0.22c-0.213,0.102-0.267,0.13-0.396,0.265c0.171,0.032,0.055,0.005,0.132,0.132
	c0.018-0.056,0.057-0.09,0.132-0.088c0.032,0.12-0.088,0.089-0.088,0.176c0.211-0.089,0.322-0.297,0.528-0.176
	c0.038-0.265-0.328,0.038-0.44-0.132c0.211-0.109,0.374-0.066,0.66-0.044c0.019-0.106-0.08-0.096-0.044-0.221
	C22.826,19.771,22.735,19.637,22.859,19.321z M22.331,21.479c0.081-0.092,0.234,0.116,0.264,0.221
	c-0.124-0.036-0.113,0.062-0.22,0.044c-0.025-0.092-0.109-0.126-0.088-0.265C22.338,21.603,22.495,21.552,22.331,21.479z
	 M22.771,19.41c-0.069,0.063-0.153,0.11-0.177,0.22C22.397,19.561,22.604,19.378,22.771,19.41z M22.11,20.862
	c0.108-0.061,0.337-0.037,0.309,0.088c0.122-0.065-0.076-0.18,0.044-0.22c0.043,0.173,0.189-0.031,0.265,0.088
	c-0.191-0.012-0.019,0.171,0.044,0.176c-0.066-0.134,0.014-0.171-0.044-0.264c-0.246,0.07-0.164-0.188-0.309-0.22
	c-0.001,0.116,0.024,0.259-0.088,0.264c-0.104-0.082-0.253,0.054-0.353-0.088c0-0.117,0-0.234,0-0.353
	c-0.247-0.057-0.162,0.22-0.176,0.396C21.978,20.702,22.04,20.786,22.11,20.862z M4.854,19.321c0.087,0.001,0.056,0.12,0.176,0.089
	c0.007-0.066-0.016-0.163,0.044-0.177c0.027-0.002,0.052-0.006,0.044-0.044C5.008,19.212,4.938,19.272,4.854,19.321z M21.318,19.498
	c-0.202,0.07-0.283-0.013-0.528,0c0.036,0.172,0.199-0.03,0.088,0.22c0.061-0.002,0.097,0.021,0.133,0.044
	C21.035,19.653,21.269,19.688,21.318,19.498z M20.262,22.315c0.01,0.083-0.05,0.097-0.044,0.176
	c0.333-0.298,0.536-0.726,0.748-1.145c-0.5-0.586-0.941-1.23-1.408-1.849c-0.521,0.229-1.095,0.776-1.453,1.057
	c-0.372,0.29-0.265,0.301,0,0.704c0.303,0.461,0.54,0.907,0.881,1.232c-0.099-0.171,0.074-0.104,0.132-0.22
	c0.042,0.082-0.132,0.146,0,0.176c-0.006-0.079,0.044-0.103,0.132-0.088c-0.122-0.166-0.183-0.13-0.132-0.44
	c-0.196-0.05,0.027,0.32-0.22,0.221c0.103-0.104,0.07-0.354-0.044-0.265c0.103,0.05,0.03,0.29-0.044,0.309
	c0.031-0.12-0.088-0.089-0.089-0.177c0.045,0,0.053-0.035,0.089-0.044c0.01,0.034,0.001,0.087,0.044,0.088
	c0.03-0.198-0.074-0.101-0.177-0.088c0.002-0.061-0.021-0.097-0.044-0.132c0.104,0.107,0.099-0.049,0.177-0.088
	c0.061,0.101,0.306,0.017,0.439,0.044c0.118-0.184,0.049-0.28,0.265-0.353c-0.089-0.055-0.5,0.132-0.528,0.133
	c0.121-0.007,0.227-0.009,0.132,0.088c0.087,0.013,0.088-0.06,0.132-0.088c0.037,0.255-0.448,0.13-0.439,0
	c-0.037,0.125-0.176,0.147-0.265,0.22c0.023-0.096,0.106-0.285-0.044-0.309c-0.042,0.082,0.132,0.147,0,0.177
	c-0.14-0.263-0.12-0.206-0.309-0.44c0.156,0.089,0.319-0.135,0.484-0.176c-0.234,0.054-0.352-0.04-0.439,0.132
	c0.017-0.177-0.077-0.201-0.133-0.088c-0.076-0.076,0.017-0.207,0.088-0.265c-0.14-0.037-0.136,0.069-0.22,0.088
	c0.002-0.061-0.021-0.097-0.044-0.132c0.225,0.008,0.392,0.006,0.484,0.044c-0.025,0.107-0.285-0.021-0.265,0.132
	c0.302,0.104,0.336-0.207,0.572-0.22c-0.084-0.106-0.095-0.287-0.264-0.309c0.045,0.181-0.059,0.083-0.132,0.221
	c0.109,0.057,0.183-0.129,0.22,0c0.003,0.075-0.034,0.112-0.088,0.132c-0.078-0.152-0.219,0.013-0.309-0.088
	c0.157-0.092,0.367-0.513,0.616-0.484c-0.071-0.032-0.191,0.088-0.088,0.088c0.005-0.032,0.172-0.032,0.177,0
	c-0.001,0.134-0.083,0.012-0.177,0.088c0.103,0.133,0.255,0.216,0.309,0.396c0.135,0.032,0.16-0.045,0.264-0.044
	c0.039,0.107,0.103,0.19,0.089,0.353c-0.149,0.043-0.3,0.314-0.265,0.396c0.142-0.264,0.228-0.104,0.22-0.088
	c0.041-0.093-0.116-0.133,0.045-0.22c0.004,0.069-0.007,0.152,0.088,0.132c0.094-0.156,0.07-0.661,0.308-0.528
	c-0.136,0.08-0.201,0.352-0.132,0.396c0.034-0.2,0.27-0.2,0.309-0.396c-0.182-0.071-0.267-0.118-0.353-0.088
	c0.083-0.005,0.03-0.146,0.132-0.132c0.157-0.033,0.417,0.16,0.132,0.044c0.029,0.231,0.151,0.107,0.309,0.176
	c-0.006-0.125,0.223-0.168,0.22-0.044c-0.044,0-0.052-0.035-0.088-0.044c0.283,0.194,0.064,0.397,0.044,0.353
	c0.081,0.017,0.149,0.069,0.221,0c-0.034-0.011-0.087-0.002-0.089-0.045c0.193,0.032-0.035-0.087,0.089-0.088
	c0.072,0.191,0.229,0.3,0.308,0.484c-0.183,0.006-0.009,0.029,0,0.088c-0.038,0.112-0.309-0.13-0.22,0
	c0.041,0.047,0.162,0.014,0.132,0.133c-0.158,0.083-0.239,0.591-0.44,0.352c0.005,0.148,0.088,0.233-0.044,0.309
	c-0.002-0.061,0.021-0.097,0.044-0.132c-0.109,0.021-0.181,0.083-0.264,0.132C20.295,22.264,19.959,22.414,20.262,22.315z
	 M19.998,20.422c-0.112-0.022-0.171-0.074-0.177,0.089c-0.127-0.021-0.104-0.189-0.22-0.221c0.078-0.145,0.179,0.052,0.22,0.088
	c0.082-0.006,0.027-0.148,0.089-0.176c-0.043-0.045-0.088-0.089-0.133-0.132c-0.132,0.028,0.042,0.094,0,0.176
	c-0.082-0.086-0.161-0.014-0.264,0c0.028,0.045,0.101,0.046,0.088,0.132c-0.106-0.127-0.471,0.144-0.353-0.044
	c-0.07-0.012-0.075,0.042-0.132,0.044c0.016,0.059,0.077,0.069,0.088,0.133c0.183-0.168,0.233,0.069,0.396-0.089
	c-0.007,0.052,0.01,0.079,0.044,0.089c-0.123,0.053-0.193,0.158-0.176,0.352c-0.168,0.065-0.009-0.196-0.177-0.132
	c-0.005-0.079,0.055-0.093,0.045-0.176c-0.095-0.021-0.084,0.063-0.089,0.132c-0.137-0.039-0.307-0.045-0.308-0.22
	c0.075,0.002,0.114-0.033,0.132-0.089c-0.029-0.132-0.094,0.043-0.176,0c-0.109-0.051,0.106-0.183-0.088-0.176
	c0.026-0.039,0.053-0.079,0-0.088c0.091-0.042,0.115,0.022,0.132-0.132c0.079-0.006,0.093,0.054,0.176,0.044
	c-0.081-0.085-0.08-0.035-0.044-0.177c0.173,0.082,0.297-0.218,0.484-0.264c0.017,0.174,0.143,0.239,0.22,0.353
	c-0.024,0.099-0.068-0.054-0.132,0.044C19.858,20.033,19.982,20.174,19.998,20.422z M19.998,20.334
	c0.188-0.118,0.04,0.23,0.176,0.265c-0.064-0.143,0.085-0.136,0.044,0.044c-0.106,0.018-0.096-0.08-0.22-0.044
	c0.007-0.052-0.01-0.078-0.044-0.088c0.008-0.051,0.044-0.024,0.044,0C20.074,20.471,20.119,20.349,19.998,20.334z M19.205,21.127
	c-0.157-0.13,0.034-0.204-0.044-0.309c-0.018,0.056-0.057,0.09-0.132,0.088c-0.01-0.049-0.049-0.068-0.088-0.088
	c0.163,0.187-0.119,0.337,0.176,0.44c0.033-0.136-0.121-0.085-0.088-0.22C19.149,21.007,19.118,21.126,19.205,21.127z M20.13,21.347
	c-0.164-0.173-0.159-0.479-0.176-0.528c0,0.118-0.14,0.096-0.133,0.221c0.087,0.013,0.088-0.06,0.133-0.089
	C19.896,21.093,19.893,21.374,20.13,21.347z M19.998,21.522c0.05-0.09-0.069-0.209-0.088-0.088c0.065,0.037,0.063,0.142,0.088,0.221
	c0.146,0.014,0.166-0.098,0.264-0.133c-0.069-0.004-0.152,0.006-0.132-0.088c0.101-0.061,0.165,0.114,0.176,0
	c-0.087,0-0.056-0.12-0.176-0.088C20.138,21.457,20.031,21.454,19.998,21.522z M4.81,20.158c-0.076-0.002-0.113,0.034-0.132,0.088
	c0.077,0.004,0.137-0.01,0.176-0.044c-0.107-0.123,0.063-0.268-0.044-0.353c-0.025,0.1-0.069-0.053-0.132,0.045
	c-0.01-0.034-0.001-0.087-0.044-0.089c0.032,0.135-0.045,0.161-0.044,0.265C4.668,20.095,4.773,20.093,4.81,20.158z M22.287,21.171
	c-0.014-0.09,0.127,0.009,0.132,0.044c0.007,0.052-0.008,0.125,0.044,0.132c0.119-0.114-0.054-0.133-0.044-0.264
	c0.145,0.031,0.067-0.088,0-0.089C22.494,21.148,22.094,21.044,22.287,21.171z M17.137,21.743c0.01,0.034,0.001,0.087,0.044,0.088
	c-0.037-0.277-0.319,0.044-0.396,0.132C16.989,21.978,16.969,21.766,17.137,21.743z M20.306,21.919
	c0.147,0.046,0.326-0.25,0.132-0.264c0.092,0.158-0.048,0.218-0.132,0.088c0.045-0.001,0.056-0.077,0-0.088
	C20.169,21.772,20.421,21.822,20.306,21.919z M19.338,22.271c0.059,0,0.117,0,0.176,0c0.023-0.064-0.052-0.228,0.044-0.221
	c0.043,0.075,0.122,0.113,0.264,0.089c0.025,0.091,0.126,0.142,0.044,0.22c0.228-0.069,0.094-0.375-0.088-0.396
	c-0.203,0.111-0.168-0.01-0.439,0.088c0.007-0.11-0.099-0.106-0.133-0.176C19.074,22.127,19.407,21.955,19.338,22.271z
	 M21.538,22.447c0.018-0.125,0.208,0.164,0.265,0c-0.141-0.064-0.138-0.273-0.309-0.308c-0.084,0.092-0.142,0.21-0.176,0.352
	c0.173,0.025,0.112-0.181,0.22-0.22C21.673,22.349,21.418,22.407,21.538,22.447z"/>
</svg>
