<?xml version="1.0" encoding="utf-8"?>
<!-- Generator: Adobe Illustrator 15.1.0, SVG Export Plug-In . SVG Version: 6.00 Build 0)  -->
<!DOCTYPE svg PUBLIC "-//W3C//DTD SVG 1.1//EN" "http://www.w3.org/Graphics/SVG/1.1/DTD/svg11.dtd">
<svg version="1.1"
	 id="svg3038" xmlns:svg="http://www.w3.org/2000/svg" xmlns:inkscape="http://www.inkscape.org/namespaces/inkscape" xmlns:sodipodi="http://sodipodi.sourceforge.net/DTD/sodipodi-0.dtd" xmlns:rdf="http://www.w3.org/1999/02/22-rdf-syntax-ns#" xmlns:dc="http://purl.org/dc/elements/1.1/" xmlns:cc="http://creativecommons.org/ns#" inkscape:version="0.48.5 r10040" sodipodi:docname="hospital.svg"
	 xmlns="http://www.w3.org/2000/svg" xmlns:xlink="http://www.w3.org/1999/xlink" x="0px" y="0px" width="24px" height="24px"
	 viewBox="0 0 24 24" enable-background="new 0 0 24 24" xml:space="preserve">
<path d="M20.81,6.394v16.017c0,0.217-0.079,0.404-0.238,0.563c-0.158,0.158-0.347,0.237-0.563,0.237H3.992
	c-0.217,0-0.405-0.079-0.563-0.237C3.27,22.815,3.19,22.628,3.19,22.411V6.394c0-0.217,0.08-0.404,0.238-0.563
	c0.158-0.159,0.346-0.238,0.563-0.238h4.004V1.989c0-0.333,0.117-0.617,0.351-0.851c0.234-0.233,0.517-0.35,0.851-0.351h5.605
	c0.334,0,0.617,0.117,0.851,0.351c0.233,0.234,0.351,0.518,0.351,0.851v3.604h4.004c0.217,0,0.405,0.079,0.563,0.238
	C20.73,5.99,20.81,6.177,20.81,6.394z"/>
<path fill="#FFFFFF" d="M14.402,21.61h4.805V7.195h-3.203v0.4c0,0.334-0.117,0.617-0.351,0.851s-0.517,0.35-0.851,0.351H9.197
	c-0.334,0-0.617-0.117-0.851-0.351S7.996,7.929,7.996,7.595v-0.4H4.792V21.61h4.805v-2.804c0-0.107,0.039-0.201,0.118-0.281
	s0.173-0.119,0.282-0.119h4.004c0.108,0,0.203,0.04,0.282,0.119s0.119,0.173,0.118,0.281V21.61z"/>
<path d="M7.996,17.205v0.801c0,0.109-0.04,0.203-0.118,0.282c-0.079,0.079-0.173,0.119-0.282,0.118H6.794
	c-0.108,0-0.202-0.039-0.282-0.118s-0.119-0.173-0.119-0.282v-0.801c0-0.107,0.04-0.202,0.119-0.281
	c0.079-0.08,0.173-0.119,0.282-0.119h0.801c0.108,0,0.203,0.04,0.282,0.119C7.957,17.002,7.996,17.097,7.996,17.205z"/>
<path d="M7.996,14.002v0.801c0,0.108-0.04,0.203-0.118,0.282c-0.079,0.079-0.173,0.119-0.282,0.118H6.794
	c-0.108,0-0.202-0.039-0.282-0.118s-0.119-0.173-0.119-0.282v-0.801c0-0.108,0.04-0.202,0.119-0.281
	c0.079-0.08,0.173-0.119,0.282-0.119h0.801c0.108,0,0.203,0.039,0.282,0.119C7.957,13.799,7.996,13.893,7.996,14.002z"/>
<path d="M11.199,14.002v0.801c0,0.108-0.04,0.203-0.119,0.282s-0.173,0.119-0.282,0.118H9.998c-0.108,0-0.203-0.039-0.282-0.118
	s-0.119-0.173-0.118-0.282v-0.801c0-0.108,0.039-0.202,0.118-0.281c0.079-0.08,0.173-0.119,0.282-0.119h0.801
	c0.108,0,0.202,0.039,0.282,0.119C11.16,13.799,11.2,13.893,11.199,14.002z"/>
<path d="M7.996,10.799V11.6c0,0.108-0.04,0.202-0.118,0.282C7.798,11.961,7.704,12,7.595,12H6.794c-0.108,0-0.202-0.04-0.282-0.119
	S6.394,11.708,6.394,11.6v-0.801c0-0.108,0.04-0.203,0.119-0.282c0.079-0.079,0.173-0.119,0.282-0.118h0.801
	c0.108,0,0.203,0.04,0.282,0.118C7.957,10.596,7.996,10.69,7.996,10.799z"/>
<path d="M17.605,17.205v0.801c0,0.109-0.039,0.203-0.118,0.282s-0.173,0.119-0.282,0.118h-0.801c-0.107,0-0.202-0.039-0.281-0.118
	c-0.08-0.079-0.119-0.173-0.119-0.282v-0.801c0-0.107,0.04-0.202,0.119-0.281c0.078-0.08,0.173-0.119,0.281-0.119h0.801
	c0.109,0,0.203,0.04,0.282,0.119C17.566,17.002,17.606,17.097,17.605,17.205z"/>
<path d="M14.402,14.002v0.801c0,0.108-0.039,0.203-0.118,0.282s-0.173,0.119-0.282,0.118h-0.801c-0.108,0-0.202-0.039-0.281-0.118
	c-0.08-0.079-0.119-0.173-0.119-0.282v-0.801c0-0.108,0.039-0.202,0.119-0.281c0.078-0.08,0.172-0.119,0.281-0.119h0.801
	c0.108,0,0.203,0.039,0.282,0.119C14.363,13.799,14.403,13.893,14.402,14.002z"/>
<path d="M11.199,10.799V11.6c0,0.108-0.04,0.202-0.119,0.282S10.908,12,10.799,12H9.998c-0.108,0-0.203-0.04-0.282-0.119
	S9.597,11.708,9.598,11.6v-0.801c0-0.108,0.039-0.203,0.118-0.282c0.079-0.079,0.173-0.119,0.282-0.118h0.801
	c0.108,0,0.202,0.04,0.282,0.118C11.16,10.596,11.2,10.69,11.199,10.799z"/>
<path d="M17.605,14.002v0.801c0,0.108-0.039,0.203-0.118,0.282s-0.173,0.119-0.282,0.118h-0.801c-0.107,0-0.202-0.039-0.281-0.118
	c-0.08-0.079-0.119-0.173-0.119-0.282v-0.801c0-0.108,0.04-0.202,0.119-0.281c0.078-0.08,0.173-0.119,0.281-0.119h0.801
	c0.109,0,0.203,0.039,0.282,0.119C17.566,13.799,17.606,13.893,17.605,14.002z"/>
<path d="M14.402,10.799V11.6c0,0.108-0.039,0.202-0.118,0.282S14.111,12,14.002,12h-0.801c-0.108,0-0.202-0.04-0.281-0.119
	c-0.08-0.079-0.119-0.173-0.119-0.282v-0.801c0-0.108,0.039-0.203,0.119-0.282c0.078-0.079,0.172-0.119,0.281-0.118h0.801
	c0.108,0,0.203,0.04,0.282,0.118C14.363,10.596,14.403,10.69,14.402,10.799z"/>
<path d="M17.605,10.799V11.6c0,0.108-0.039,0.202-0.118,0.282S17.314,12,17.205,12h-0.801c-0.107,0-0.202-0.04-0.281-0.119
	c-0.08-0.079-0.119-0.173-0.119-0.282v-0.801c0-0.108,0.04-0.203,0.119-0.282c0.078-0.079,0.173-0.119,0.281-0.118h0.801
	c0.109,0,0.203,0.04,0.282,0.118C17.566,10.596,17.606,10.69,17.605,10.799z"/>
<polygon fill="#FFFFFF" points="12.576,2.794 13.465,2.794 13.465,4.243 12.576,4.243 12.576,5.362 11.425,5.362 11.425,4.243 
	10.536,4.243 10.536,2.794 11.425,2.794 11.425,1.674 12.576,1.674 "/>
</svg>
