<?xml version="1.0" encoding="utf-8"?>
<!-- Generator: Adobe Illustrator 15.1.0, SVG Export Plug-In . SVG Version: 6.00 Build 0)  -->
<!DOCTYPE svg PUBLIC "-//W3C//DTD SVG 1.1//EN" "http://www.w3.org/Graphics/SVG/1.1/DTD/svg11.dtd">
<svg version="1.1"
	 id="svg2" sodipodi:docname="bank-maskansvg.svg" inkscape:version="0.48.5 r10040" xmlns:dc="http://purl.org/dc/elements/1.1/" xmlns:cc="http://creativecommons.org/ns#" xmlns:rdf="http://www.w3.org/1999/02/22-rdf-syntax-ns#" xmlns:svg="http://www.w3.org/2000/svg" xmlns:sodipodi="http://sodipodi.sourceforge.net/DTD/sodipodi-0.dtd" xmlns:inkscape="http://www.inkscape.org/namespaces/inkscape"
	 xmlns="http://www.w3.org/2000/svg" xmlns:xlink="http://www.w3.org/1999/xlink" x="0px" y="0px" width="24px" height="24px"
	 viewBox="0 0 24 24" enable-background="new 0 0 24 24" xml:space="preserve">
<path d="M21.373,8.263c0,0-5.604,0-7.454,0c-0.15,0-0.145-0.156-0.145-0.156V4.676c0-0.564-0.457-1.021-1.023-1.021
	c0,0-1.107,0-1.478,0c-0.193,0-0.168-0.151-0.168-0.151V2.417c0-0.564-0.457-1.021-1.021-1.021h-3.98
	c-0.564,0-1.021,0.457-1.021,1.021v1.065c0,0,0.032,0.171-0.194,0.171c-0.35,0-1.452,0-1.452,0c-0.564,0-1.022,0.457-1.022,1.021
	v15.531c0,0.564,0.458,1.021,1.022,1.021h17.935c0.564,0,1.021-0.457,1.021-1.021V9.285C22.395,8.721,21.932,8.263,21.373,8.263z
	 M6.896,3.439H7.46c0,0,0.125,0.005,0.125-0.119c0-0.145,0-0.575,0-0.575c0-0.28,0.226-0.5,0.5-0.5c0.279,0,0.5,0.226,0.5,0.5
	c0,0,0,0.462,0,0.612c0,0.081,0.108,0.075,0.108,0.075h0.592c0.279,0,0.5,0.227,0.5,0.5c0,0.28-0.226,0.5-0.5,0.5H8.718
	c0,0-0.124,0-0.124,0.102c0,0.151,0,0.592,0,0.592c0,0.28-0.226,0.5-0.5,0.5c-0.279,0-0.5-0.227-0.5-0.5c0,0,0-0.436,0-0.586
	c0-0.119-0.107-0.108-0.107-0.108H6.907c-0.279,0-0.5-0.226-0.5-0.5C6.396,3.665,6.622,3.439,6.896,3.439z M4.282,7.139
	c0-0.15,0.119-0.268,0.269-0.268h2.291c0.151,0,0.269,0.118,0.269,0.268v1.227c0,0.151-0.118,0.269-0.269,0.269H4.551
	c-0.15,0-0.269-0.118-0.269-0.269V7.139z M4.282,12.958v-1.227c0-0.15,0.119-0.269,0.269-0.269h2.291
	c0.151,0,0.269,0.119,0.269,0.269v1.227c0,0.15-0.118,0.269-0.269,0.269H4.551C4.4,13.227,4.282,13.104,4.282,12.958z M9.633,19.465
	c0,0.151-0.119,0.269-0.269,0.269H6.821c-0.151,0-0.27-0.117-0.27-0.269v-3.727c0-0.15,0.119-0.269,0.27-0.269h2.543
	c0.15,0,0.269,0.118,0.269,0.269V19.465z M11.902,12.958c0,0.15-0.118,0.269-0.27,0.269h-2.29c-0.15,0-0.268-0.118-0.268-0.269
	v-1.227c0-0.15,0.118-0.269,0.268-0.269h2.29c0.152,0,0.27,0.119,0.27,0.269V12.958L11.902,12.958z M11.902,8.365
	c0,0.151-0.118,0.269-0.27,0.269h-2.29c-0.15,0-0.268-0.118-0.268-0.269V7.139c0-0.15,0.118-0.268,0.268-0.268h2.29
	c0.152,0,0.27,0.118,0.27,0.268V8.365L11.902,8.365z M16.866,16.958c0,0.152-0.118,0.27-0.271,0.27h-2.29
	c-0.151,0-0.268-0.117-0.268-0.27v-1.225c0-0.151,0.116-0.27,0.268-0.27h2.29c0.152,0,0.271,0.118,0.271,0.27V16.958z
	 M16.866,12.366c0,0.151-0.118,0.27-0.271,0.27h-2.29c-0.151,0-0.268-0.119-0.268-0.27V11.14c0-0.15,0.116-0.268,0.268-0.268h2.29
	c0.152,0,0.271,0.118,0.271,0.268V12.366z M21.012,16.958c0,0.152-0.118,0.27-0.269,0.27h-2.291c-0.15,0-0.27-0.117-0.27-0.27
	v-1.225c0-0.151,0.119-0.27,0.27-0.27h2.291c0.15,0,0.269,0.118,0.269,0.27V16.958z M21.012,12.366c0,0.151-0.118,0.27-0.269,0.27
	h-2.291c-0.15,0-0.27-0.119-0.27-0.27V11.14c0-0.15,0.119-0.268,0.27-0.268h2.291c0.15,0,0.269,0.118,0.269,0.268V12.366z"/>
</svg>
