<?xml version="1.0" encoding="UTF-8" standalone="no"?>
<!-- Generated by IcoMoon.io -->

<svg
   xmlns:dc="http://purl.org/dc/elements/1.1/"
   xmlns:cc="http://creativecommons.org/ns#"
   xmlns:rdf="http://www.w3.org/1999/02/22-rdf-syntax-ns#"
   xmlns:svg="http://www.w3.org/2000/svg"
   xmlns="http://www.w3.org/2000/svg"
   xmlns:sodipodi="http://sodipodi.sourceforge.net/DTD/sodipodi-0.dtd"
   xmlns:inkscape="http://www.inkscape.org/namespaces/inkscape"
   version="1.1"
   width="24"
   height="24"
   viewBox="0 0 24 24"
   id="svg2"
   inkscape:version="0.48.5 r10040"
   sodipodi:docname="coffee.svg">
  <metadata
     id="metadata10">
    <rdf:RDF>
      <cc:Work
         rdf:about="">
        <dc:format>image/svg+xml</dc:format>
        <dc:type
           rdf:resource="http://purl.org/dc/dcmitype/StillImage" />
      </cc:Work>
    </rdf:RDF>
  </metadata>
  <defs
     id="defs8" />
  <sodipodi:namedview
     pagecolor="#ffffff"
     bordercolor="#666666"
     borderopacity="1"
     objecttolerance="10"
     gridtolerance="10"
     guidetolerance="10"
     inkscape:pageopacity="0"
     inkscape:pageshadow="2"
     inkscape:window-width="657"
     inkscape:window-height="480"
     id="namedview6"
     showgrid="false"
     inkscape:zoom="7.375"
     inkscape:cx="0.6779661"
     inkscape:cy="16"
     inkscape:window-x="0"
     inkscape:window-y="27"
     inkscape:window-maximized="0"
     inkscape:current-layer="svg2" />
  <path
     d="M 22.681421,11.809806 C 22.392693,9.0302252 19.577976,9.0462656 18.116003,9.0959146 c 0.0069,-0.4223985 0.01146,-0.7630671 0.01146,-0.7630671 L 1.3025554,8.3275007 c 0,0 0,2.3021863 0,2.3594743 0,3.26996 1.8675668,6.098426 4.5913881,7.492418 v 0.815771 h 7.6528225 v -0.815771 c 0.763831,-0.391082 1.448988,-0.904376 2.055469,-1.497873 3.75423,-0.898265 7.691778,-2.194486 7.079186,-4.871714 z m -5.907469,3.450988 c 0.857782,-1.317608 1.364202,-2.883462 1.364202,-4.573819 0,0.01299 7.64e-4,-0.02215 0.0015,-0.0886 1.363438,-0.04507 2.868185,-0.181028 3.208854,1.176299 0.342196,1.493289 -2.151712,2.709308 -4.574584,3.486124 z M 6.5233402,5.2729406 c 0,0.763831 -1.2526828,1.577311 -1.2526828,1.577311 0,0 2.4549528,-0.438439 2.4549528,-1.5841855 0,-1.1457465 -2.4343294,-0.3819155 -2.4343294,-1.2412254 0,-0.8593098 1.2045615,-1.6727898 1.2045615,-1.6727898 0,0 -2.3105887,0.4865603 -2.3105887,1.6796642 0,1.193104 2.3380866,0.4773945 2.3380866,1.2412255 z m 3.8191548,0.763831 c 0,0.7638309 -1.2526827,1.5773109 -1.2526827,1.5773109 0,0 2.4549527,-0.4384389 2.4549527,-1.5841854 0,-1.1457465 -2.4343293,-0.3819155 -2.4343293,-1.2412254 0,-0.8593098 1.2045613,-1.6727898 1.2045613,-1.6727898 0,0 -2.3113524,0.4865603 -2.3113524,1.6796643 0,1.193104 2.3388504,0.4773944 2.3388504,1.2412254 z m 3.055324,-0.763831 c 0,0.763831 -1.252683,1.577311 -1.252683,1.577311 0,0 2.454953,-0.438439 2.454953,-1.5841855 0,-1.1457465 -2.434329,-0.3819155 -2.434329,-1.2412254 0,-0.8593098 1.204561,-1.6727898 1.204561,-1.6727898 0,0 -2.311352,0.4865603 -2.311352,1.6796642 0,1.193104 2.33885,0.4773945 2.33885,1.2412255 z M 1.2551979,19.738372 c 0,1.05485 3.7618676,1.909577 8.402141,1.909577 4.6402731,0 8.4021411,-0.854727 8.4021411,-1.909577 0,0.02215 -16.8042821,0.02215 -16.8042821,0 z"
     id="path4"
     inkscape:connector-curvature="0"
     style="fill:#444444" />
</svg>
