<?xml version="1.0" encoding="UTF-8" standalone="no"?>
<!-- Generator: Adobe Illustrator 16.0.0, SVG Export Plug-In . SVG Version: 6.00 Build 0)  -->

<svg
   xmlns:dc="http://purl.org/dc/elements/1.1/"
   xmlns:cc="http://creativecommons.org/ns#"
   xmlns:rdf="http://www.w3.org/1999/02/22-rdf-syntax-ns#"
   xmlns:svg="http://www.w3.org/2000/svg"
   xmlns="http://www.w3.org/2000/svg"
   xmlns:sodipodi="http://sodipodi.sourceforge.net/DTD/sodipodi-0.dtd"
   xmlns:inkscape="http://www.inkscape.org/namespaces/inkscape"
   version="1.1"
   id="Capa_1"
   x="0px"
   y="0px"
   width="24"
   height="24"
   viewBox="0 0 24 24"
   xml:space="preserve"
   inkscape:version="0.48.5 r10040"
   sodipodi:docname="forosh.svg"><metadata
     id="metadata3122"><rdf:RDF><cc:Work
         rdf:about=""><dc:format>image/svg+xml</dc:format><dc:type
           rdf:resource="http://purl.org/dc/dcmitype/StillImage" /><dc:title></dc:title></cc:Work></rdf:RDF></metadata><defs
     id="defs3120" /><sodipodi:namedview
     pagecolor="#ffffff"
     bordercolor="#666666"
     borderopacity="1"
     objecttolerance="10"
     gridtolerance="10"
     guidetolerance="10"
     inkscape:pageopacity="0"
     inkscape:pageshadow="2"
     inkscape:window-width="657"
     inkscape:window-height="480"
     id="namedview3118"
     showgrid="false"
     inkscape:zoom="5.5028332"
     inkscape:cx="10.111234"
     inkscape:cy="12.034402"
     inkscape:window-x="0"
     inkscape:window-y="27"
     inkscape:window-maximized="0"
     inkscape:current-layer="Capa_1" /><g
     id="g3078"
     transform="matrix(0.04632913,0,0,0.04632913,0.76029825,0.76027509)"><g
       id="g3080"><path
         d="M 121.304,75.816 H 30.327 C 13.564,75.816 0,89.409 0,106.141 v 333.586 c 0,16.76 13.564,30.322 30.327,30.322 h 90.978 c 16.762,0 30.324,-13.562 30.324,-30.322 V 106.141 C 151.628,89.409 138.066,75.816 121.304,75.816 z M 45.49,379.073 c -8.382,0 -15.163,-6.781 -15.163,-15.168 0,-8.377 6.781,-15.158 15.163,-15.158 8.38,0 15.161,6.781 15.161,15.158 0,8.387 -6.781,15.168 -15.161,15.168 z M 121.304,197.118 H 30.327 v -30.324 h 90.978 v 30.324 z m 0,-60.651 H 30.327 v -30.326 h 90.978 v 30.326 z"
         id="path3082"
         inkscape:connector-curvature="0" /><path
         d="m 318.423,409.396 v -30.322 h -90.98 v 30.322 c -16.759,0 -30.327,13.567 -30.327,30.331 h 151.629 c 0,-16.764 -13.562,-30.331 -30.322,-30.331 z"
         id="path3084"
         inkscape:connector-curvature="0" /><path
         d="M 454.889,15.163 H 90.978 c -16.762,0 -30.327,13.593 -30.327,30.327 H 90.978 181.956 454.89 V 288.094 H 181.955 v 60.653 h 272.934 c 16.759,0 30.322,-13.562 30.322,-30.332 V 45.489 c 0,-16.734 -13.564,-30.326 -30.322,-30.326 z M 272.933,333.584 c -8.382,0 -15.163,-6.777 -15.163,-15.169 0,-8.377 6.781,-15.158 15.163,-15.158 8.383,0 15.164,6.781 15.164,15.158 0,8.392 -6.782,15.169 -15.164,15.169 z"
         id="path3086"
         inkscape:connector-curvature="0" /></g></g><g
     id="g3088"
     transform="translate(0,-461.211)" /><g
     id="g3090"
     transform="translate(0,-461.211)" /><g
     id="g3092"
     transform="translate(0,-461.211)" /><g
     id="g3094"
     transform="translate(0,-461.211)" /><g
     id="g3096"
     transform="translate(0,-461.211)" /><g
     id="g3098"
     transform="translate(0,-461.211)" /><g
     id="g3100"
     transform="translate(0,-461.211)" /><g
     id="g3102"
     transform="translate(0,-461.211)" /><g
     id="g3104"
     transform="translate(0,-461.211)" /><g
     id="g3106"
     transform="translate(0,-461.211)" /><g
     id="g3108"
     transform="translate(0,-461.211)" /><g
     id="g3110"
     transform="translate(0,-461.211)" /><g
     id="g3112"
     transform="translate(0,-461.211)" /><g
     id="g3114"
     transform="translate(0,-461.211)" /><g
     id="g3116"
     transform="translate(0,-461.211)" /></svg>