<?xml version="1.0" encoding="utf-8"?>
<!-- Generator: Adobe Illustrator 15.1.0, SVG Export Plug-In . SVG Version: 6.00 Build 0)  -->
<!DOCTYPE svg PUBLIC "-//W3C//DTD SVG 1.1//EN" "http://www.w3.org/Graphics/SVG/1.1/DTD/svg11.dtd">
<svg version="1.1" id="Layer_1" xmlns="http://www.w3.org/2000/svg" xmlns:xlink="http://www.w3.org/1999/xlink" x="0px" y="0px"
	 width="24px" height="24px" viewBox="0 0 24 24" enable-background="new 0 0 24 24" xml:space="preserve">
<path fill="#010002" d="M10.247,18.173l0.068-0.077c0,0,2.745-3.134,5.206-5.941V4.893c0-0.378-0.269-0.682-0.597-0.682L4.739,4.205
	c0-0.47,0.306-0.707,0.618-0.707c0.311,0,10.165,0,10.165,0c0.637,0,0.618,0.641,0.618,0.641v7.31
	c0.326-0.374,0.643-0.733,0.941-1.074V3.041c0-0.511-0.379-0.64-0.56-0.64c-0.1,0-11.276,0-11.276,0c-1.683,0-1.683,1.78-1.683,1.78
	v16.382c0,0.377,0.267,0.684,0.598,0.684h5.091c0.124-0.563,0.404-1.463,0.958-2.969L10.247,18.173z M6.501,8.078V6.747h6.174v1.331
	H6.501z M17.081,16.524c-0.318,0.364-0.634,0.723-0.94,1.074c0,0,0,1.341,0,1.441c0,0.077,0.022,0.526-0.305,0.526
	c0,0-0.186,0.002-0.313,0.002v-1.265c-0.941,1.074-1.736,1.981-2.167,2.474l-0.396,0.471h1.965c0.327,0,0.598-0.307,0.598-0.684
	l0.961-0.001c0.644,0,0.599-0.724,0.599-0.724v-3.314L17.081,16.524L17.081,16.524L17.081,16.524z M19.633,8.167
	C18.925,8.978,10.667,18.4,10.667,18.4s-1.169,3.176-0.976,3.395c0.193,0.218,2.991-1.146,2.991-1.146
	c0.449-0.512,8.41-9.601,8.942-10.208c0.096-0.106,0.135-0.243,0.135-0.4C21.76,9.093,20.241,7.473,19.633,8.167z M21.278,10.071
	c-0.473,0.534-7.043,8.031-8.619,9.833l-1.315-1.502l8.628-9.849c0.01-0.016,0.094-0.016,0.222,0.046
	c0.153,0.072,0.303,0.191,0.447,0.333l-7.782,8.88c-0.033,0.04-0.052,0.093-0.052,0.145s0.019,0.104,0.052,0.145
	c0.07,0.078,0.186,0.078,0.255,0l7.779-8.882c0.227,0.297,0.387,0.618,0.387,0.822C21.28,10.061,21.278,10.071,21.278,10.071z"/>
</svg>
