<?xml version="1.0" encoding="UTF-8" standalone="yes"?>
<svg xmlns="http://www.w3.org/2000/svg" xmlns:xlink="http://www.w3.org/1999/xlink" width="24px" height="24px" viewBox="0 0 18 18" version="1.1">
  <g id="surface1">
    <path style=" stroke:none;fill-rule:nonzero;fill:rgb(0%,0%,0%);fill-opacity:1;" d="M 16.226562 11.867188 L 14.222656 5.863281 C 14.324219 5.75 14.390625 5.605469 14.390625 5.445312 C 14.390625 5.089844 14.101562 4.800781 13.746094 4.800781 C 13.59375 4.800781 13.460938 4.863281 13.351562 4.953125 C 13.175781 4.835938 12.988281 4.675781 12.796875 4.515625 C 12.242188 4.046875 11.609375 3.515625 10.855469 3.515625 C 10.683594 3.515625 10.527344 3.535156 10.382812 3.566406 C 10.167969 3.15625 9.746094 2.875 9.25 2.875 C 8.753906 2.875 8.332031 3.15625 8.117188 3.566406 C 7.972656 3.535156 7.816406 3.515625 7.644531 3.515625 C 6.890625 3.515625 6.261719 4.046875 5.703125 4.515625 C 5.515625 4.675781 5.320312 4.835938 5.148438 4.953125 C 5.039062 4.863281 4.90625 4.800781 4.753906 4.800781 C 4.398438 4.800781 4.109375 5.089844 4.109375 5.445312 C 4.109375 5.605469 4.175781 5.75 4.273438 5.863281 L 2.273438 11.867188 L 1.542969 11.867188 C 1.542969 11.867188 2.121094 14.4375 4.753906 14.4375 C 7.386719 14.4375 7.964844 11.867188 7.964844 11.867188 L 7.230469 11.867188 L 5.230469 5.863281 C 5.304688 5.78125 5.347656 5.675781 5.371094 5.566406 C 5.617188 5.421875 5.863281 5.222656 6.117188 5.007812 C 6.589844 4.609375 7.125 4.160156 7.644531 4.160156 C 7.761719 4.160156 7.867188 4.171875 7.96875 4.191406 C 7.988281 4.886719 8.550781 5.445312 9.25 5.445312 C 9.949219 5.445312 10.515625 4.886719 10.53125 4.191406 C 10.632812 4.171875 10.738281 4.160156 10.855469 4.160156 C 11.375 4.160156 11.910156 4.613281 12.382812 5.007812 C 12.636719 5.222656 12.882812 5.421875 13.128906 5.566406 C 13.152344 5.675781 13.195312 5.78125 13.269531 5.863281 L 11.269531 11.867188 L 10.535156 11.867188 C 10.535156 11.867188 11.113281 14.4375 13.746094 14.4375 C 16.378906 14.4375 16.957031 11.867188 16.957031 11.867188 Z M 2.949219 11.867188 L 4.753906 6.460938 L 6.554688 11.867188 Z M 11.941406 11.867188 L 13.746094 6.460938 L 15.546875 11.867188 Z M 11.941406 11.867188 "/>
  </g>
</svg>