<?xml version="1.0" encoding="UTF-8" standalone="yes"?>
<svg xmlns="http://www.w3.org/2000/svg" xmlns:xlink="http://www.w3.org/1999/xlink" width="24px" height="24px" viewBox="0 0 18 18" version="1.1">
  <g id="surface1">
    <path style=" stroke:none;fill-rule:nonzero;fill:rgb(0%,0%,0%);fill-opacity:1;" d="M 6.792969 1.136719 C 6.03125 0.546875 4.996094 0.480469 4.054688 0.757812 C 3.757812 0.84375 3.472656 0.960938 3.210938 1.113281 C 1.96875 1.808594 0.5625 3.199219 0.195312 4.605469 C -0.160156 5.972656 0.0390625 7.414062 0.25 8.800781 C 0.316406 8.554688 0.402344 8.320312 0.507812 8.097656 C 1.203125 6.628906 2.746094 5.929688 3.90625 4.894531 L 3.90625 4.300781 C 3.90625 4.097656 4.074219 3.933594 4.273438 3.933594 C 4.472656 3.933594 4.640625 4.101562 4.640625 4.300781 L 4.640625 4.925781 C 5.222656 5.460938 5.75 6.085938 6.273438 6.675781 C 6.558594 7 6.839844 7.328125 7.121094 7.65625 C 7.230469 7.785156 7.34375 7.910156 7.449219 8.046875 C 7.527344 7.054688 7.691406 6.09375 7.847656 5.054688 C 8.0625 3.648438 7.917969 2 6.792969 1.136719 Z M 6.792969 1.136719 "/>
    <path style=" stroke:none;fill-rule:nonzero;fill:rgb(0%,0%,0%);fill-opacity:1;" d="M 2.273438 12.941406 C 1.683594 12.753906 1.191406 12.332031 0.824219 11.824219 C 1.136719 13.082031 1.523438 14.332031 1.90625 15.496094 C 2.621094 17.695312 5.03125 17.726562 6.597656 16.902344 C 8.058594 16.136719 7.839844 13.605469 7.597656 11.566406 C 7.441406 11.804688 7.257812 12.027344 7.148438 12.289062 C 7.074219 12.476562 6.90625 12.601562 6.695312 12.546875 C 6.519531 12.496094 6.359375 12.28125 6.4375 12.09375 C 6.703125 11.445312 7.273438 10.949219 7.328125 10.214844 C 7.375 9.648438 7.300781 9.109375 6.972656 8.632812 C 6.5625 8.050781 6.046875 7.511719 5.566406 6.988281 C 5.128906 6.511719 4.710938 6.007812 4.246094 5.5625 C 3.242188 6.394531 1.945312 7.035156 1.285156 8.183594 C 0.90625 8.839844 0.714844 9.753906 0.953125 10.492188 C 1.183594 11.191406 1.734375 11.996094 2.46875 12.230469 C 2.921875 12.375 2.726562 13.085938 2.273438 12.941406 Z M 2.273438 12.941406 "/>
    <path style=" stroke:none;fill-rule:nonzero;fill:rgb(0%,0%,0%);fill-opacity:1;" d="M 17.746094 8.800781 C 17.960938 7.414062 18.15625 5.972656 17.800781 4.605469 C 17.433594 3.199219 16.023438 1.808594 14.78125 1.113281 C 14.519531 0.960938 14.234375 0.84375 13.9375 0.757812 C 13 0.480469 11.964844 0.546875 11.203125 1.136719 C 10.082031 2.003906 9.933594 3.648438 10.144531 5.054688 C 10.296875 6.089844 10.46875 7.050781 10.546875 8.046875 C 10.652344 7.914062 10.761719 7.785156 10.871094 7.65625 C 11.152344 7.328125 11.433594 7 11.71875 6.675781 C 12.246094 6.085938 12.769531 5.460938 13.355469 4.925781 L 13.355469 4.300781 C 13.355469 4.097656 13.523438 3.933594 13.722656 3.933594 C 13.925781 3.933594 14.089844 4.101562 14.089844 4.300781 L 14.089844 4.890625 C 15.253906 5.925781 16.789062 6.628906 17.488281 8.09375 C 17.59375 8.316406 17.683594 8.550781 17.746094 8.800781 Z M 17.746094 8.800781 "/>
    <path style=" stroke:none;fill-rule:nonzero;fill:rgb(0%,0%,0%);fill-opacity:1;" d="M 11.300781 12.546875 C 11.089844 12.601562 10.921875 12.476562 10.84375 12.289062 C 10.742188 12.027344 10.558594 11.800781 10.394531 11.566406 C 10.15625 13.605469 9.933594 16.132812 11.398438 16.902344 C 12.957031 17.726562 15.367188 17.691406 16.089844 15.496094 C 16.46875 14.332031 16.855469 13.082031 17.167969 11.824219 C 16.800781 12.332031 16.308594 12.753906 15.71875 12.941406 C 15.265625 13.085938 15.074219 12.375 15.527344 12.226562 C 16.261719 11.992188 16.808594 11.191406 17.039062 10.488281 C 17.28125 9.753906 17.085938 8.839844 16.707031 8.179688 C 16.046875 7.03125 14.75 6.390625 13.75 5.558594 C 13.28125 6.007812 12.863281 6.507812 12.429688 6.984375 C 11.949219 7.511719 11.429688 8.050781 11.023438 8.632812 C 10.691406 9.105469 10.625 9.640625 10.664062 10.210938 C 10.722656 10.945312 11.292969 11.4375 11.558594 12.089844 C 11.628906 12.28125 11.476562 12.496094 11.300781 12.546875 Z M 11.300781 12.546875 "/>
  </g>
</svg>