<?xml version="1.0" encoding="UTF-8" standalone="no"?>
<!-- Generator: Adobe Illustrator 18.1.1, SVG Export Plug-In . SVG Version: 6.00 Build 0)  -->

<svg
   xmlns:dc="http://purl.org/dc/elements/1.1/"
   xmlns:cc="http://creativecommons.org/ns#"
   xmlns:rdf="http://www.w3.org/1999/02/22-rdf-syntax-ns#"
   xmlns:svg="http://www.w3.org/2000/svg"
   xmlns="http://www.w3.org/2000/svg"
   xmlns:sodipodi="http://sodipodi.sourceforge.net/DTD/sodipodi-0.dtd"
   xmlns:inkscape="http://www.inkscape.org/namespaces/inkscape"
   version="1.1"
   id="Capa_1"
   x="0px"
   y="0px"
   viewBox="0 0 24 24"
   xml:space="preserve"
   inkscape:version="0.48.5 r10040"
   width="100%"
   height="100%"
   sodipodi:docname="dandan.svg"><metadata
     id="metadata3216"><rdf:RDF><cc:Work
         rdf:about=""><dc:format>image/svg+xml</dc:format><dc:type
           rdf:resource="http://purl.org/dc/dcmitype/StillImage" /><dc:title></dc:title></cc:Work></rdf:RDF></metadata><defs
     id="defs3214" /><sodipodi:namedview
     pagecolor="#ffffff"
     bordercolor="#666666"
     borderopacity="1"
     objecttolerance="10"
     gridtolerance="10"
     guidetolerance="10"
     inkscape:pageopacity="0"
     inkscape:pageshadow="2"
     inkscape:window-width="657"
     inkscape:window-height="480"
     id="namedview3212"
     showgrid="false"
     inkscape:zoom="5.5126608"
     inkscape:cx="20.194841"
     inkscape:cy="5.3387731"
     inkscape:window-x="0"
     inkscape:window-y="27"
     inkscape:window-maximized="0"
     inkscape:current-layer="Capa_1" /><g
     id="g3176"
     transform="matrix(0.04638514,0,0,0.04638514,0.76675073,0.76677316)"><g
       id="g3178"><path
         style="fill:#010002"
         d="m 421.819,67.348 c -6.666,-32.667 -23,-53.667 -49,-63 -18.001,-6.667 -41.001,-5.667 -69.001,3 -28,8.667 -48.5,13 -61.5,13 -13,0 -33.5,-4.333 -61.5,-13 -28,-8.667 -51,-9.667 -69,-3 -26,9.333 -42.667,30.333 -50,63 -4,20 -3.333,40 2,60 5.333,20 12.667,40.333 22,61 9.333,20.667 15,37.333 17,50 1.334,7.334 1.668,23.667 1,49 -0.667,25.331 0.333,50.331 3,74.999 11.333,81.331 29.333,121.999 54,121.999 5.333,0 10,-1.5 14,-4.5 4,-3 7,-7.834 9,-14.5 2,-6.668 3.5,-13.168 4.5,-19.5 1,-6.334 1.333,-14.834 1,-25.5 -0.335,-10.668 -0.668,-19.334 -1,-25.999 -0.333,-6.668 -0.833,-15.666 -1.5,-27 -1.336,-19.334 -1.67,-32.334 -1,-39 4,-44.667 22.833,-66.999 56.5,-66.999 33.667,0 52.5,22.332 56.5,66.999 0.669,7.332 0.334,20.332 -1,39 -0.67,11.332 -1.338,20.332 -2,27 -0.666,6.665 -1,15.331 -1,25.999 0,10.666 0.5,19.166 1.5,25.5 1,6.332 2.5,12.832 4.5,19.5 2,6.666 5,11.5 9,14.5 4,3 8.67,4.5 14,4.5 24.675,0 42.675,-40.666 54.001,-121.999 2.668,-24 3.668,-49.168 3,-75.499 -0.648,-26.334 -0.314,-42.5 1,-48.5 2,-12.667 7.668,-29.334 17,-50 9.334,-20.667 16.668,-41 22,-61 5.353,-20 5.686,-40 1,-60 z"
         id="path3180"
         inkscape:connector-curvature="0" /></g></g><g
     id="g3182"
     transform="translate(0,-460.346)" /><g
     id="g3184"
     transform="translate(0,-460.346)" /><g
     id="g3186"
     transform="translate(0,-460.346)" /><g
     id="g3188"
     transform="translate(0,-460.346)" /><g
     id="g3190"
     transform="translate(0,-460.346)" /><g
     id="g3192"
     transform="translate(0,-460.346)" /><g
     id="g3194"
     transform="translate(0,-460.346)" /><g
     id="g3196"
     transform="translate(0,-460.346)" /><g
     id="g3198"
     transform="translate(0,-460.346)" /><g
     id="g3200"
     transform="translate(0,-460.346)" /><g
     id="g3202"
     transform="translate(0,-460.346)" /><g
     id="g3204"
     transform="translate(0,-460.346)" /><g
     id="g3206"
     transform="translate(0,-460.346)" /><g
     id="g3208"
     transform="translate(0,-460.346)" /><g
     id="g3210"
     transform="translate(0,-460.346)" /></svg>