<?xml version="1.0" encoding="UTF-8" standalone="no"?>
<!-- Generator: Adobe Illustrator 16.0.0, SVG Export Plug-In . SVG Version: 6.00 Build 0)  -->

<svg
   xmlns:dc="http://purl.org/dc/elements/1.1/"
   xmlns:cc="http://creativecommons.org/ns#"
   xmlns:rdf="http://www.w3.org/1999/02/22-rdf-syntax-ns#"
   xmlns:svg="http://www.w3.org/2000/svg"
   xmlns="http://www.w3.org/2000/svg"
   xmlns:sodipodi="http://sodipodi.sourceforge.net/DTD/sodipodi-0.dtd"
   xmlns:inkscape="http://www.inkscape.org/namespaces/inkscape"
   version="1.1"
   id="Capa_1"
   x="0px"
   y="0px"
   width="24"
   height="24"
   viewBox="0 0 24 24"
   xml:space="preserve"
   inkscape:version="0.48.5 r10040"
   sodipodi:docname="daneshga.svg"><metadata
     id="metadata3261"><rdf:RDF><cc:Work
         rdf:about=""><dc:format>image/svg+xml</dc:format><dc:type
           rdf:resource="http://purl.org/dc/dcmitype/StillImage" /><dc:title></dc:title></cc:Work></rdf:RDF></metadata><defs
     id="defs3259" /><sodipodi:namedview
     pagecolor="#ffffff"
     bordercolor="#666666"
     borderopacity="1"
     objecttolerance="10"
     gridtolerance="10"
     guidetolerance="10"
     inkscape:pageopacity="0"
     inkscape:pageshadow="2"
     inkscape:window-width="657"
     inkscape:window-height="480"
     id="namedview3257"
     showgrid="false"
     inkscape:zoom="7.4004392"
     inkscape:cx="15.945"
     inkscape:cy="15.945"
     inkscape:window-x="0"
     inkscape:window-y="27"
     inkscape:window-maximized="0"
     inkscape:current-layer="Capa_1" /><g
     id="g3219"
     transform="matrix(0.7403591,0,0,0.7403591,0.19500737,0.19476043)"><g
       id="g3221"><path
         d="m 7.247,17.634 v 4.5 c 0,0 3.816,4.219 9.185,4.219 6.753,0 9.184,-4.219 9.184,-4.219 v -4.882 l -7.929,4.634 c -0.566,0.331 -1.265,0.354 -1.852,0.059 L 7.247,17.634 z"
         id="path3223"
         inkscape:connector-curvature="0" /><path
         d="m 16.63,12.277 c -0.991,0 -1.978,-0.207 -2.511,-0.637 l -9.533,3.302 11.313,5.663 c 0.585,0.293 1.281,0.271 1.844,-0.06 L 30.926,12.86 c 0.615,-0.358 0.984,-1.025 0.963,-1.737 -0.021,-0.712 -0.435,-1.354 -1.07,-1.672 L 17.166,2.619 C 16.581,2.326 15.887,2.348 15.322,2.678 L 2.139,10.362 C 1.524,10.72 1.155,11.387 1.177,12.099 1.2,12.81 1.611,13.452 2.248,13.771 l -0.029,6.977 c -0.682,0.239 -1.17,0.892 -1.17,1.653 0,0.565 0.266,1.067 0.682,1.391 -0.132,0.963 -0.581,1.656 -1.113,2.152 -0.426,0.396 -0.651,0.963 -0.614,1.545 0.037,0.58 0.333,1.115 0.807,1.453 l 0.242,0.174 c 0.449,0.32 1.013,0.436 1.552,0.312 0.539,-0.124 1,-0.465 1.269,-0.945 0.928,-1.658 0.478,-3.811 0.171,-4.844 0.317,-0.316 0.514,-0.755 0.514,-1.238 0,-0.758 -0.482,-1.405 -1.157,-1.649 L 3.43,14.09 13.779,10.506 c 0.09,-0.439 0.533,-0.843 0.533,-0.843 -0.034,0.119 0.033,1.564 2.222,1.564 1.258,0 2.275,-0.401 2.275,-1.221 0,-0.15 -0.035,-0.313 -0.1,-0.481 0.354,0.436 0.565,0.928 0.565,1.331 0.002,0.954 -1.183,1.421 -2.644,1.421 z"
         id="path3225"
         inkscape:connector-curvature="0" /></g></g><g
     id="g3227"
     transform="translate(0,-7.8899995)" /><g
     id="g3229"
     transform="translate(0,-7.8899995)" /><g
     id="g3231"
     transform="translate(0,-7.8899995)" /><g
     id="g3233"
     transform="translate(0,-7.8899995)" /><g
     id="g3235"
     transform="translate(0,-7.8899995)" /><g
     id="g3237"
     transform="translate(0,-7.8899995)" /><g
     id="g3239"
     transform="translate(0,-7.8899995)" /><g
     id="g3241"
     transform="translate(0,-7.8899995)" /><g
     id="g3243"
     transform="translate(0,-7.8899995)" /><g
     id="g3245"
     transform="translate(0,-7.8899995)" /><g
     id="g3247"
     transform="translate(0,-7.8899995)" /><g
     id="g3249"
     transform="translate(0,-7.8899995)" /><g
     id="g3251"
     transform="translate(0,-7.8899995)" /><g
     id="g3253"
     transform="translate(0,-7.8899995)" /><g
     id="g3255"
     transform="translate(0,-7.8899995)" /></svg>