<?xml version="1.0" encoding="UTF-8" standalone="yes"?>
<svg xmlns="http://www.w3.org/2000/svg" xmlns:xlink="http://www.w3.org/1999/xlink" width="24px" height="24px" viewBox="0 0 18 18" version="1.1">
  <g id="surface1">
    <path style=" stroke:none;fill-rule:nonzero;fill:rgb(13.72549%,12.156863%,12.54902%);fill-opacity:1;" d="M 0.890625 8.300781 C 1.878906 8.300781 2.828125 7.972656 3.59375 7.378906 C 4.359375 7.972656 5.308594 8.300781 6.296875 8.300781 C 7.285156 8.300781 8.230469 7.972656 9 7.378906 C 9.765625 7.972656 10.714844 8.300781 11.703125 8.300781 C 12.691406 8.300781 13.640625 7.972656 14.40625 7.378906 C 15.171875 7.972656 16.121094 8.300781 17.109375 8.300781 C 17.601562 8.300781 18 7.902344 18 7.410156 C 18 6.917969 17.601562 6.519531 17.109375 6.519531 C 16.328125 6.519531 15.59375 6.175781 15.089844 5.578125 C 14.917969 5.375 14.667969 5.257812 14.40625 5.257812 C 14.144531 5.257812 13.894531 5.375 13.726562 5.578125 C 13.222656 6.175781 12.484375 6.519531 11.703125 6.519531 C 10.921875 6.519531 10.1875 6.175781 9.683594 5.578125 C 9.511719 5.375 9.265625 5.257812 9 5.257812 C 8.738281 5.257812 8.488281 5.375 8.320312 5.578125 C 7.8125 6.175781 7.078125 6.519531 6.296875 6.519531 C 5.515625 6.519531 4.777344 6.175781 4.273438 5.578125 C 4.105469 5.375 3.855469 5.257812 3.59375 5.257812 C 3.320312 5.253906 3.078125 5.375 2.910156 5.578125 C 2.40625 6.175781 1.671875 6.519531 0.890625 6.519531 C 0.398438 6.519531 0 6.917969 0 7.410156 C 0 7.902344 0.398438 8.300781 0.890625 8.300781 Z M 0.890625 8.300781 "/>
    <path style=" stroke:none;fill-rule:nonzero;fill:rgb(13.72549%,12.156863%,12.54902%);fill-opacity:1;" d="M 17.109375 10.960938 C 16.328125 10.960938 15.589844 10.617188 15.089844 10.015625 C 14.917969 9.816406 14.667969 9.699219 14.40625 9.699219 C 14.144531 9.699219 13.894531 9.816406 13.726562 10.015625 C 13.21875 10.617188 12.484375 10.960938 11.703125 10.960938 C 10.921875 10.960938 10.183594 10.617188 9.679688 10.015625 C 9.511719 9.816406 9.261719 9.699219 9 9.699219 C 8.738281 9.699219 8.488281 9.816406 8.320312 10.015625 C 7.8125 10.617188 7.078125 10.960938 6.296875 10.960938 C 5.515625 10.960938 4.777344 10.617188 4.273438 10.015625 C 4.105469 9.816406 3.855469 9.699219 3.59375 9.699219 C 3.59375 9.699219 3.589844 9.699219 3.589844 9.699219 C 3.328125 9.699219 3.078125 9.816406 2.910156 10.015625 C 2.40625 10.617188 1.671875 10.960938 0.890625 10.960938 C 0.398438 10.960938 0 11.359375 0 11.851562 C 0 12.34375 0.398438 12.742188 0.890625 12.742188 C 1.878906 12.742188 2.828125 12.410156 3.59375 11.816406 C 4.359375 12.410156 5.308594 12.742188 6.296875 12.742188 C 7.285156 12.742188 8.230469 12.410156 9 11.816406 C 9.765625 12.410156 10.714844 12.742188 11.703125 12.742188 C 12.691406 12.742188 13.640625 12.410156 14.40625 11.816406 C 15.171875 12.410156 16.121094 12.742188 17.109375 12.742188 C 17.601562 12.742188 18 12.34375 18 11.851562 C 18 11.359375 17.601562 10.960938 17.109375 10.960938 Z M 17.109375 10.960938 "/>
  </g>
</svg>