<?xml version="1.0" encoding="UTF-8" standalone="no"?>
<!-- Generator: Adobe Illustrator 18.1.1, SVG Export Plug-In . SVG Version: 6.00 Build 0)  -->

<svg
   xmlns:dc="http://purl.org/dc/elements/1.1/"
   xmlns:cc="http://creativecommons.org/ns#"
   xmlns:rdf="http://www.w3.org/1999/02/22-rdf-syntax-ns#"
   xmlns:svg="http://www.w3.org/2000/svg"
   xmlns="http://www.w3.org/2000/svg"
   xmlns:sodipodi="http://sodipodi.sourceforge.net/DTD/sodipodi-0.dtd"
   xmlns:inkscape="http://www.inkscape.org/namespaces/inkscape"
   version="1.1"
   id="Capa_1"
   x="0px"
   y="0px"
   viewBox="0 0 24 24"
   xml:space="preserve"
   inkscape:version="0.48.5 r10040"
   width="100%"
   height="100%"
   sodipodi:docname="dast_saz.svg"><metadata
     id="metadata3283"><rdf:RDF><cc:Work
         rdf:about=""><dc:format>image/svg+xml</dc:format><dc:type
           rdf:resource="http://purl.org/dc/dcmitype/StillImage" /><dc:title></dc:title></cc:Work></rdf:RDF></metadata><defs
     id="defs3281" /><sodipodi:namedview
     pagecolor="#ffffff"
     bordercolor="#666666"
     borderopacity="1"
     objecttolerance="10"
     gridtolerance="10"
     guidetolerance="10"
     inkscape:pageopacity="0"
     inkscape:pageshadow="2"
     inkscape:window-width="657"
     inkscape:window-height="480"
     id="namedview3279"
     showgrid="false"
     inkscape:zoom="8.4821186"
     inkscape:cx="2.5164984"
     inkscape:cy="10.078715"
     inkscape:window-x="0"
     inkscape:window-y="27"
     inkscape:window-maximized="0"
     inkscape:current-layer="Capa_1" /><g
     id="g3245"
     transform="matrix(1.1857685,0,0,1.1857685,0.33575382,0.33539893)"><path
       style="fill:#030104"
       d="m 12.294,18.468 c 1.149,-0.475 1.888,-1.908 1.749,-3.004 -0.234,-1.801 -1.146,-1.728 -1.146,-3.051 0,-1.326 1.424,-3.407 1.76,-3.726 0.336,-0.318 0.291,-0.279 -0.11,-0.5 -0.404,-0.215 -0.983,0.067 -0.983,0.067 l -0.437,0.18 c 0,0 -0.058,-0.309 -0.142,-0.844 -0.081,-0.536 -0.762,-1.463 -0.762,-1.463 0,0 1.125,0.112 1.274,-0.257 C 13.648,5.5 13.396,5.316 13.396,5.316 V 4.931 L 13.229,5.015 12.943,5.032 12.877,4.847 c 0,0 -0.184,0.152 -0.386,0.152 -0.201,0 -0.903,-0.078 -1.031,-0.334 -0.295,-0.588 -0.138,-0.727 0.381,-0.95 0.789,-0.34 1.435,0.338 1.435,0.338 l 0.066,0.218 c 0,0 0.117,-0.133 0.303,-0.148 0.184,-0.018 0.291,0.035 0.291,0.035 0,0 0.132,-0.016 0.266,-0.352 0.135,-0.334 0.067,-0.486 0.067,-0.654 0,-0.168 0,-0.217 0.067,-0.434 0.067,-0.219 -0.085,-0.471 -0.37,-0.621 -0.285,-0.152 -1.14,-0.219 -1.14,-0.219 0,0 0.05,-0.117 -0.033,-0.266 C 12.709,1.456 12.56,1.342 12.122,1.157 11.686,0.972 11.669,0.467 10.714,0.101 9.755,-0.269 7.861,0.5 7.861,0.5 7.861,0.5 7.661,0.385 7.424,0.416 7.188,0.454 6.753,0.334 6.704,0.37 6.653,0.4 6.873,0.972 6.873,0.972 c 0,0 -0.304,0.185 -0.555,0.536 C 6.066,1.859 5.75,2.667 5.715,3.521 5.681,4.377 5.412,5.064 5.347,5.215 5.28,5.365 6.12,5.096 6.12,5.096 6.12,5.096 6.05,5.35 5.884,6.055 5.715,6.758 5.295,8.051 5.195,8.336 5.093,8.622 6.012,8.217 6.012,8.217 c 0,0 -0.082,0.434 -0.324,1.27 -0.228,0.785 -0.809,1.504 -0.891,1.756 -0.084,0.252 0.987,0.365 0.987,0.365 0,0 -1.337,1.768 -0.663,3.82 0.795,2.416 2.267,3.039 2.267,3.039 H 5.596 v 1.207 h 9.055 v -1.207 h -2.357 v 0.001 z M 14.12,2.396 c 0.116,0.121 0.082,0.337 0.03,0.472 C 14.102,3.002 13.8,2.351 13.8,2.351 13.936,2.179 14.002,2.282 14.12,2.396 z M 11.249,1.961 c 0,0 0.219,-0.148 0.571,-0.066 0.353,0.084 0.268,0.219 0.268,0.219 0,0 -0.167,0.049 -0.436,0.065 C 11.384,2.195 11.082,2.03 11.082,2.03 L 11.249,1.961 z M 8.939,1.206 c 0,0 -0.855,2.453 0.072,4.922 0.765,2.031 2.403,4.125 2.403,4.125 0,0 -2.491,-0.652 -3.527,-3.764 C 7.069,4.034 8.939,1.206 8.939,1.206 z m 2.377,14.961 c 0,0 -0.051,-0.199 -0.084,-0.148 -0.035,0.051 -0.133,0.082 -0.233,0.148 -0.586,0.397 -1.189,-1.67 -0.315,-2.144 0,0 1.213,-0.032 1.459,0.757 0.27,0.866 -0.827,1.387 -0.827,1.387 z m 0.739,-6.183 c 0,0 -0.168,-1.279 -1.031,-2.418 C 8.484,4.213 9.657,1.793 9.657,1.793 c 0,0 -0.033,0.47 0.065,1.142 0.103,0.671 0.2,1.541 1.062,2.403 2.085,2.084 1.271,4.646 1.271,4.646 z"
       id="path3247"
       inkscape:connector-curvature="0" /></g><g
     id="g3249"
     transform="translate(0,4.326)" /><g
     id="g3251"
     transform="translate(0,4.326)" /><g
     id="g3253"
     transform="translate(0,4.326)" /><g
     id="g3255"
     transform="translate(0,4.326)" /><g
     id="g3257"
     transform="translate(0,4.326)" /><g
     id="g3259"
     transform="translate(0,4.326)" /><g
     id="g3261"
     transform="translate(0,4.326)" /><g
     id="g3263"
     transform="translate(0,4.326)" /><g
     id="g3265"
     transform="translate(0,4.326)" /><g
     id="g3267"
     transform="translate(0,4.326)" /><g
     id="g3269"
     transform="translate(0,4.326)" /><g
     id="g3271"
     transform="translate(0,4.326)" /><g
     id="g3273"
     transform="translate(0,4.326)" /><g
     id="g3275"
     transform="translate(0,4.326)" /><g
     id="g3277"
     transform="translate(0,4.326)" /></svg>