<?xml version="1.0" encoding="UTF-8" standalone="no"?>
<!-- Generated by IcoMoon.io -->

<svg
   xmlns:dc="http://purl.org/dc/elements/1.1/"
   xmlns:cc="http://creativecommons.org/ns#"
   xmlns:rdf="http://www.w3.org/1999/02/22-rdf-syntax-ns#"
   xmlns:svg="http://www.w3.org/2000/svg"
   xmlns="http://www.w3.org/2000/svg"
   xmlns:sodipodi="http://sodipodi.sourceforge.net/DTD/sodipodi-0.dtd"
   xmlns:inkscape="http://www.inkscape.org/namespaces/inkscape"
   version="1.1"
   width="24"
   height="24"
   viewBox="0 0 24 24"
   id="svg3033"
   inkscape:version="0.48.5 r10040"
   sodipodi:docname="device-mobile.svg">
  <metadata
     id="metadata3041">
    <rdf:RDF>
      <cc:Work
         rdf:about="">
        <dc:format>image/svg+xml</dc:format>
        <dc:type
           rdf:resource="http://purl.org/dc/dcmitype/StillImage" />
      </cc:Work>
    </rdf:RDF>
  </metadata>
  <defs
     id="defs3039" />
  <sodipodi:namedview
     pagecolor="#ffffff"
     bordercolor="#666666"
     borderopacity="1"
     objecttolerance="10"
     gridtolerance="10"
     guidetolerance="10"
     inkscape:pageopacity="0"
     inkscape:pageshadow="2"
     inkscape:window-width="657"
     inkscape:window-height="480"
     id="namedview3037"
     showgrid="false"
     inkscape:zoom="7.375"
     inkscape:cx="10"
     inkscape:cy="16"
     inkscape:window-x="0"
     inkscape:window-y="27"
     inkscape:window-maximized="0"
     inkscape:current-layer="svg3033" />
  <path
     d="M 17.728814,0.5423729 H 6.2711864 C 5.4813262,0.5423729 4.838983,1.184 4.838983,1.9745763 V 22.025424 c 0,0.791292 0.6416271,1.432203 1.4322034,1.432203 H 17.728814 c 0.791292,0 1.432203,-0.640911 1.432203,-1.432203 V 1.9745763 c 0,-0.7898602 -0.640911,-1.4322034 -1.432203,-1.4322034 z m -6.444916,1.4322034 h 1.432204 c 0.394572,0 0.716101,0.3208135 0.716101,0.7161016 0,0.3952882 -0.321529,0.7161017 -0.716101,0.7161017 h -1.432204 c -0.395288,0 -0.716101,-0.3208135 -0.716101,-0.7161017 0,-0.3952881 0.320813,-0.7161016 0.716101,-0.7161016 z m 1.432204,20.0508477 h -1.432204 c -0.395288,0 -0.716101,-0.32153 -0.716101,-0.716102 0,-0.394572 0.320813,-0.716102 0.716101,-0.716102 h 1.432204 c 0.394572,0 0.716101,0.32153 0.716101,0.716102 0,0.394572 -0.321529,0.716102 -0.716101,0.716102 z m 5.012712,-2.864407 H 6.2711864 V 4.838983 H 17.728814 v 14.322034 z"
     id="path3035"
     inkscape:connector-curvature="0"
     style="fill:#444444" />
</svg>
