<?xml version="1.0" encoding="utf-8"?>
<!-- Generator: Adobe Illustrator 15.1.0, SVG Export Plug-In . SVG Version: 6.00 Build 0)  -->
<!DOCTYPE svg PUBLIC "-//W3C//DTD SVG 1.1//EN" "http://www.w3.org/Graphics/SVG/1.1/DTD/svg11.dtd">
<svg version="1.1"
	 id="Layer_1" inkscape:version="0.48.5 r10040" sodipodi:docname="bank-kar-afarin.svg" xmlns:dc="http://purl.org/dc/elements/1.1/" xmlns:cc="http://creativecommons.org/ns#" xmlns:rdf="http://www.w3.org/1999/02/22-rdf-syntax-ns#" xmlns:svg="http://www.w3.org/2000/svg" xmlns:sodipodi="http://sodipodi.sourceforge.net/DTD/sodipodi-0.dtd" xmlns:inkscape="http://www.inkscape.org/namespaces/inkscape"
	 xmlns="http://www.w3.org/2000/svg" xmlns:xlink="http://www.w3.org/1999/xlink" x="0px" y="0px" width="24px" height="24px"
	 viewBox="0 0 24 24" enable-background="new 0 0 24 24" xml:space="preserve">
<path d="M10.184,10.184H8.677c-0.181,0-0.353,0-0.517,0.017c0.172,1.109,0.931,3.962,4.206,4.002
	c0.054-0.013,0.108-0.011,0.16,0.006c0.545-0.001,3.287-0.235,3.951-3.897c-0.334-0.088-0.712-0.128-1.139-0.128h-1.581
	c1.277-0.729,2.153-2.179,2.153-3.857c0-0.138-0.007-0.283-0.018-0.415h-2.229c0.326-0.373,0.551-0.854,0.619-1.388h1.273
	c-0.388-0.926-1.063-1.676-1.903-2.11c-0.419-0.472-1.003-0.764-1.648-0.764c-0.617,0-1.177,0.268-1.59,0.701
	C9.517,2.772,8.79,3.551,8.384,4.524h1.344c0.069,0.534,0.293,1.016,0.619,1.388H8.045C8.034,6.046,8.028,6.189,8.028,6.326
	C8.028,8.005,8.904,9.454,10.184,10.184z M12.006,2.352c0.914,0,1.658,0.815,1.658,1.816s-0.744,1.816-1.658,1.816
	c-0.915,0-1.659-0.814-1.659-1.816S11.091,2.352,12.006,2.352z M18.998,14.143c0,0,0.123-2.623-1.893-3.608
	c-0.779,4.28-4.174,4.538-4.63,4.544c-0.013,0.041-0.02,0.088-0.021,0.137c-0.005,0.303,0.232,0.688,0.671,1.088
	c0.78,0.711,0.934,1.742,0.393,2.621c-0.422,0.686-1.214,1.162-2.183,1.162c-0.466,0-0.974-0.11-1.502-0.362
	c-0.161,0.194-0.394,0.317-0.651,0.317c-0.485,0-0.881-0.431-0.881-0.964c0-0.532,0.395-0.964,0.881-0.964
	c0.482,0,0.874,0.426,0.881,0.952c1.312,0.636,2.447,0.239,2.922-0.534c0.355-0.578,0.255-1.208-0.271-1.688
	c-0.616-0.563-0.919-1.123-0.9-1.664c0.001-0.046,0.006-0.09,0.011-0.133c-3.332-0.348-4.125-3.558-4.304-4.74
	c-2.545,0.673-2.524,3.565-2.529,3.835l0.002,6.817H19.01L18.998,14.143z M12.006,3.329c0.423,0,0.766,0.376,0.766,0.839
	s-0.343,0.838-0.766,0.838c-0.424,0-0.766-0.375-0.766-0.838S11.582,3.329,12.006,3.329z"/>
</svg>
