<?xml version="1.0" encoding="utf-8"?>
<!-- Generator: Adobe Illustrator 15.1.0, SVG Export Plug-In . SVG Version: 6.00 Build 0)  -->
<!DOCTYPE svg PUBLIC "-//W3C//DTD SVG 1.1//EN" "http://www.w3.org/Graphics/SVG/1.1/DTD/svg11.dtd">
<svg version="1.1" id="Layer_1" xmlns="http://www.w3.org/2000/svg" xmlns:xlink="http://www.w3.org/1999/xlink" x="0px" y="0px"
	 width="24px" height="24px" viewBox="0 0 24 24" enable-background="new 0 0 24 24" xml:space="preserve">
<path d="M11.95,12.2c1.402,0,2.543-1.158,2.543-2.544H9.404C9.404,11.042,10.545,12.2,11.95,12.2z M11.948,2.095
	c1.807,0,3.271,1.464,3.271,3.271s-1.464,3.271-3.271,3.271c-1.806,0-3.271-1.464-3.271-3.271C8.678,3.56,10.143,2.095,11.948,2.095
	z M15.759,9.682c-0.013,1.87-1.383,3.423-3.169,3.722v3.07c0,1.582-1.194,2.971-2.774,3.062c-1.634,0.092-3.008-1.161-3.105-2.753
	c-0.433-0.251-0.703-0.757-0.598-1.313c0.094-0.496,0.504-0.899,1.001-0.983c0.782-0.133,1.459,0.466,1.459,1.223
	c0,0.453-0.243,0.848-0.604,1.064c0.093,0.896,0.888,1.584,1.825,1.5c0.878-0.08,1.521-0.875,1.521-1.758v-3.113
	c-1.784-0.298-3.154-1.851-3.168-3.721C6.386,9.909,5.03,11.414,5.03,13.237v6.59c0,0.871,0.706,1.577,1.577,1.577h10.689
	c0.872,0,1.577-0.706,1.577-1.577v-6.589C18.877,11.415,17.521,9.909,15.759,9.682z"/>
</svg>
