<?xml version="1.0" encoding="UTF-8" standalone="no"?>
<!-- Generated by IcoMoon.io -->

<svg
   xmlns:dc="http://purl.org/dc/elements/1.1/"
   xmlns:cc="http://creativecommons.org/ns#"
   xmlns:rdf="http://www.w3.org/1999/02/22-rdf-syntax-ns#"
   xmlns:svg="http://www.w3.org/2000/svg"
   xmlns="http://www.w3.org/2000/svg"
   xmlns:sodipodi="http://sodipodi.sourceforge.net/DTD/sodipodi-0.dtd"
   xmlns:inkscape="http://www.inkscape.org/namespaces/inkscape"
   version="1.1"
   width="24"
   height="24"
   viewBox="0 0 24 24"
   id="svg3054"
   inkscape:version="0.48.5 r10040"
   sodipodi:docname="dollar.svg">
  <metadata
     id="metadata3062">
    <rdf:RDF>
      <cc:Work
         rdf:about="">
        <dc:format>image/svg+xml</dc:format>
        <dc:type
           rdf:resource="http://purl.org/dc/dcmitype/StillImage" />
      </cc:Work>
    </rdf:RDF>
  </metadata>
  <defs
     id="defs3060" />
  <sodipodi:namedview
     pagecolor="#ffffff"
     bordercolor="#666666"
     borderopacity="1"
     objecttolerance="10"
     gridtolerance="10"
     guidetolerance="10"
     inkscape:pageopacity="0"
     inkscape:pageshadow="2"
     inkscape:window-width="657"
     inkscape:window-height="480"
     id="namedview3058"
     showgrid="false"
     inkscape:zoom="8.4285714"
     inkscape:cx="8"
     inkscape:cy="14"
     inkscape:window-x="0"
     inkscape:window-y="27"
     inkscape:window-maximized="0"
     inkscape:current-layer="svg3054" />
  <path
     d="m 17.899142,15.654031 q 0,1.935056 -1.258475,3.331923 -1.258474,1.396866 -3.268796,1.726254 v 2.21265 q 0,0.177238 -0.114113,0.290542 -0.114112,0.113303 -0.290542,0.114112 h -1.706831 q -0.16429,0 -0.284877,-0.119778 -0.120587,-0.119777 -0.119777,-0.284876 v -2.21265 Q 10.021334,20.598096 9.2435883,20.320503 8.4658428,20.04291 7.9600251,19.758034 7.4542073,19.473157 7.0244645,19.151052 6.5947217,18.828948 6.4360972,18.676798 6.2774727,18.524648 6.215156,18.449382 5.9998799,18.183929 6.1900674,17.930615 l 1.3021774,-1.706831 q 0.088215,-0.126252 0.2905417,-0.151341 0.1893782,-0.02509 0.3034907,0.114113 l 0.025089,0.02509 q 1.4292388,1.252 3.0729438,1.58058 0.467781,0.101163 0.935561,0.101163 1.024584,0 1.80233,-0.543855 0.777745,-0.543855 0.777745,-1.542542 0,-0.354477 -0.189378,-0.670108 Q 14.321189,14.821252 14.087299,14.605976 13.853409,14.3907 13.347591,14.131721 12.841774,13.872743 12.513194,13.727067 12.184615,13.581392 11.501559,13.315938 11.00869,13.113611 10.723813,12.999499 10.438937,12.885386 9.946068,12.664445 9.4531992,12.443504 9.1553737,12.27274 8.8575481,12.101976 8.4407543,11.823574 8.0239604,11.545172 7.7641724,11.286193 7.5043844,11.027214 7.2138427,10.666263 6.9233009,10.305311 6.7646765,9.9330288 6.606052,9.5607468 6.4992233,9.0921574 6.3923945,8.6235678 6.3915852,8.1056104 q 0,-1.744869 1.2390513,-3.0599953 Q 8.8696878,3.7304889 10.854921,3.3509232 V 1.0751478 q 0,-0.1642896 0.119778,-0.2848766 0.119778,-0.1205869 0.284877,-0.1197776 h 1.706831 q 0.177239,0 0.290542,0.1141125 0.113303,0.1141125 0.114112,0.2905417 v 2.2255983 q 0.721094,0.076075 1.397676,0.2905417 0.676582,0.2144667 1.09985,0.4232683 0.423268,0.2088016 0.802834,0.4742548 0.379566,0.2654532 0.492869,0.3666167 0.113303,0.1011636 0.189378,0.1772386 0.215276,0.2274156 0.06313,0.4807292 L 16.39221,7.359428 Q 16.291046,7.5488062 16.101668,7.5617551 15.924429,7.5997926 15.76014,7.4735405 15.722102,7.435503 15.576427,7.3221998 15.430751,7.2088966 15.083558,6.9871461 14.736365,6.7653956 14.34385,6.5824919 13.951336,6.3995882 13.401815,6.2539126 12.852295,6.1082371 12.320579,6.1082371 q -1.201014,0 -1.960145,0.5438553 -0.7591314,0.5438553 -0.7591314,1.4033409 0,0.3285792 0.107638,0.6069813 0.1076381,0.2784021 0.3730914,0.5244319 0.265453,0.2460293 0.499343,0.4176033 0.23389,0.171573 0.708145,0.391705 0.474255,0.2201322 0.764796,0.3415282 0.290542,0.121397 0.885384,0.348003 0.670107,0.253314 1.024584,0.39818 0.354478,0.144866 0.961459,0.442691 0.606981,0.297826 0.954984,0.537381 0.348002,0.239556 0.78422,0.63207 0.436217,0.392515 0.670107,0.802834 0.23389,0.41032 0.39818,0.967124 0.164289,0.556804 0.164289,1.188874 z"
     id="path3056"
     inkscape:connector-curvature="0"
     style="fill:#444444" />
</svg>
