<?xml version="1.0" encoding="UTF-8" standalone="yes"?>
<svg xmlns="http://www.w3.org/2000/svg" xmlns:xlink="http://www.w3.org/1999/xlink" width="24px" height="24px" viewBox="0 0 18 18" version="1.1">
  <g id="surface1">
    <path style=" stroke:none;fill-rule:nonzero;fill:rgb(0%,0%,0%);fill-opacity:1;" d="M 10.710938 7.839844 L 8.175781 9.214844 C 8.117188 9.246094 8.082031 9.3125 8.085938 9.378906 C 8.109375 9.667969 8.832031 10.816406 9.820312 10.816406 C 10.128906 10.816406 10.429688 10.707031 10.722656 10.492188 C 11.121094 10.191406 11.351562 9.824219 11.40625 9.402344 C 11.503906 8.609375 10.953125 7.910156 10.925781 7.882812 C 10.875 7.816406 10.785156 7.796875 10.710938 7.839844 Z M 9.882812 10.078125 C 9.554688 10.078125 9.285156 9.8125 9.285156 9.480469 C 9.285156 9.152344 9.554688 8.882812 9.882812 8.882812 C 10.214844 8.882812 10.484375 9.148438 10.484375 9.480469 C 10.484375 9.8125 10.214844 10.078125 9.882812 10.078125 Z M 2.136719 10.199219 C 1.914062 10.054688 1.640625 9.871094 1.773438 8.902344 C 1.78125 8.839844 1.75 8.773438 1.695312 8.734375 C 1.675781 8.722656 1.492188 8.605469 1.289062 8.605469 C 1.160156 8.605469 1.046875 8.65625 0.964844 8.746094 C 0.824219 8.902344 0.78125 9.167969 0.828125 9.558594 C 0.960938 10.660156 1.488281 10.851562 1.640625 10.882812 C 1.714844 10.921875 1.925781 11.011719 2.105469 11.011719 C 2.246094 11.011719 2.332031 10.953125 2.375 10.902344 C 2.441406 10.828125 2.464844 10.726562 2.449219 10.597656 C 2.417969 10.386719 2.269531 10.285156 2.136719 10.199219 Z M 4.445312 10.023438 C 4.445312 9.945312 4.394531 9.878906 4.320312 9.855469 C 4.25 9.835938 4.171875 9.863281 4.128906 9.925781 C 4.003906 10.109375 3.886719 10.210938 3.796875 10.210938 C 3.578125 10.210938 3.320312 9.648438 3.21875 9.246094 C 3.199219 9.160156 3.117188 9.105469 3.03125 9.117188 C 2.949219 9.125 2.867188 9.128906 2.789062 9.128906 C 2.359375 9.128906 2.117188 8.988281 2.117188 8.988281 C 2.066406 8.953125 1.996094 8.953125 1.941406 8.980469 C 1.886719 9.011719 1.851562 9.070312 1.851562 9.132812 C 1.851562 9.703125 2.292969 10.367188 2.585938 10.636719 C 3.011719 11.015625 3.363281 11.203125 3.664062 11.203125 C 4.28125 11.203125 4.445312 10.460938 4.445312 10.023438 Z M 2.671875 9.023438 C 3.078125 9.023438 3.554688 8.882812 4.078125 8.609375 C 5.765625 7.726562 13.105469 3.828125 13.171875 3.789062 C 13.265625 3.746094 13.71875 3.507812 13.726562 3.171875 C 13.730469 3.058594 13.683594 2.890625 13.433594 2.75 L 12.851562 2.421875 C 12.800781 2.390625 12.738281 2.390625 12.6875 2.417969 L 1.710938 8.304688 C 1.671875 8.324219 1.640625 8.363281 1.628906 8.40625 C 1.613281 8.453125 1.621094 8.5 1.644531 8.539062 C 1.65625 8.558594 1.925781 9.023438 2.671875 9.023438 Z M 13.617188 4.558594 L 13.304688 3.996094 C 13.261719 3.914062 13.15625 3.882812 13.074219 3.929688 L 4.054688 8.785156 C 4.003906 8.8125 3.972656 8.859375 3.964844 8.914062 C 3.957031 8.96875 3.976562 9.027344 4.015625 9.0625 C 4.023438 9.070312 4.847656 9.871094 4.628906 10.59375 C 4.609375 10.660156 4.628906 10.730469 4.683594 10.773438 C 4.714844 10.800781 4.753906 10.816406 4.792969 10.816406 C 4.820312 10.816406 4.847656 10.808594 4.871094 10.792969 L 12.421875 6.789062 C 12.480469 6.757812 12.515625 6.695312 12.511719 6.628906 C 12.511719 6.617188 12.488281 5.585938 13.566406 4.78125 C 13.636719 4.726562 13.65625 4.632812 13.617188 4.558594 Z M 9.882812 9.226562 C 10.023438 9.226562 10.136719 9.339844 10.136719 9.480469 C 10.136719 9.621094 10.023438 9.734375 9.882812 9.734375 C 9.742188 9.734375 9.628906 9.621094 9.628906 9.480469 C 9.628906 9.339844 9.742188 9.226562 9.882812 9.226562 Z M 15.628906 11.011719 L 14.816406 11.03125 C 14.722656 11.035156 14.648438 11.109375 14.648438 11.203125 L 14.648438 11.804688 L 11.992188 11.804688 C 10.820312 11.804688 10.484375 11 10.472656 10.96875 C 10.445312 10.902344 10.378906 10.855469 10.308594 10.855469 L 9.457031 10.855469 C 9.363281 10.855469 9.285156 10.933594 9.285156 11.03125 C 9.285156 12.398438 10.679688 12.886719 11.871094 12.886719 L 14.628906 12.882812 L 14.625 13.292969 C 14.621094 13.339844 14.640625 13.382812 14.671875 13.414062 C 14.707031 13.449219 14.75 13.464844 14.796875 13.464844 L 15.632812 13.464844 C 15.726562 13.464844 15.804688 13.390625 15.804688 13.292969 L 15.804688 11.183594 C 15.804688 11.136719 15.785156 11.09375 15.753906 11.0625 C 15.71875 11.027344 15.671875 11.011719 15.628906 11.011719 Z M 17.015625 10.472656 L 16.058594 10.472656 C 15.964844 10.472656 15.886719 10.550781 15.886719 10.644531 L 15.886719 13.839844 C 15.886719 13.9375 15.964844 14.011719 16.058594 14.011719 L 17.015625 14.011719 C 17.113281 14.011719 17.1875 13.933594 17.1875 13.839844 L 17.1875 10.644531 C 17.1875 10.546875 17.113281 10.472656 17.015625 10.472656 Z M 17.015625 10.472656 "/>
  </g>
</svg>