<?xml version="1.0" encoding="UTF-8" standalone="yes"?>
<svg xmlns="http://www.w3.org/2000/svg" xmlns:xlink="http://www.w3.org/1999/xlink" width="24px" height="24px" viewBox="0 0 18 18" version="1.1">
  <g id="surface1">
    <path style=" stroke:none;fill-rule:nonzero;fill:rgb(0%,0%,0%);fill-opacity:1;" d="M 2.5 9.246094 L 5.839844 11.007812 C 5.804688 11.019531 5.769531 11.027344 5.730469 11.035156 L 3.898438 11.378906 C 3.367188 11.480469 2.855469 11.128906 2.753906 10.597656 Z M 17.992188 10.875 L 17.992188 10.136719 L 17.011719 10.136719 L 17.011719 11.125 L 14.351562 11.125 L 13.011719 9.785156 L 12.953125 9.785156 L 14.1875 9.554688 L 14.148438 9.34375 L 14.773438 9.226562 L 14.792969 4.992188 L 13.390625 5.3125 L 13.355469 5.121094 L 0 7.625 L 6.714844 10.957031 L 11.835938 9.996094 L 13.945312 12.105469 L 17.019531 12.105469 L 17.019531 13.007812 L 18 13.007812 L 18 10.875 Z M 17.992188 10.875 "/>
  </g>
</svg>