<?xml version="1.0" encoding="UTF-8" standalone="yes"?>
<svg xmlns="http://www.w3.org/2000/svg" xmlns:xlink="http://www.w3.org/1999/xlink" width="24px" height="24px" viewBox="0 0 18 18" version="1.1">
  <g id="surface1">
    <path style=" stroke:none;fill-rule:nonzero;fill:rgb(0.392157%,0%,0.784314%);fill-opacity:1;" d="M 11.933594 4.4375 C 11.828125 4.375 11.707031 4.34375 11.589844 4.34375 C 11.390625 4.34375 11.207031 4.429688 11.074219 4.578125 L 8.492188 3.050781 L 1.828125 14.320312 L 8.054688 18 L 14.71875 6.730469 L 12.226562 5.257812 C 12.335938 4.953125 12.214844 4.605469 11.933594 4.4375 Z M 6.058594 13.621094 C 5.910156 13.871094 5.636719 14.027344 5.34375 14.027344 C 5.195312 14.027344 5.050781 13.988281 4.925781 13.910156 C 4.53125 13.679688 4.402344 13.171875 4.632812 12.777344 C 4.78125 12.527344 5.054688 12.371094 5.347656 12.371094 C 5.496094 12.371094 5.640625 12.410156 5.765625 12.488281 C 6.160156 12.71875 6.292969 13.226562 6.058594 13.621094 Z M 6.457031 12.148438 C 6.308594 12.148438 6.164062 12.105469 6.035156 12.03125 C 5.644531 11.800781 5.515625 11.289062 5.746094 10.898438 C 5.894531 10.648438 6.167969 10.492188 6.460938 10.492188 C 6.609375 10.492188 6.753906 10.53125 6.878906 10.605469 C 7.273438 10.839844 7.402344 11.347656 7.171875 11.742188 C 7.023438 11.992188 6.75 12.148438 6.457031 12.148438 Z M 8.054688 14.800781 C 7.90625 15.050781 7.632812 15.207031 7.339844 15.207031 C 7.191406 15.207031 7.046875 15.164062 6.917969 15.089844 C 6.527344 14.859375 6.394531 14.351562 6.628906 13.957031 C 6.777344 13.707031 7.050781 13.550781 7.339844 13.550781 C 7.488281 13.550781 7.636719 13.589844 7.761719 13.664062 C 7.953125 13.777344 8.085938 13.957031 8.140625 14.171875 C 8.195312 14.386719 8.164062 14.609375 8.054688 14.800781 Z M 9.164062 12.917969 C 9.015625 13.171875 8.742188 13.324219 8.453125 13.324219 C 8.304688 13.324219 8.160156 13.285156 8.03125 13.210938 C 7.839844 13.097656 7.707031 12.917969 7.652344 12.703125 C 7.597656 12.488281 7.628906 12.265625 7.742188 12.078125 C 7.886719 11.828125 8.164062 11.671875 8.453125 11.671875 C 8.601562 11.671875 8.746094 11.710938 8.875 11.785156 C 9.265625 12.019531 9.398438 12.527344 9.164062 12.917969 Z M 11.8125 9.371094 C 11.371094 10.117188 10.558594 10.578125 9.691406 10.578125 C 9.253906 10.578125 8.820312 10.460938 8.445312 10.238281 C 7.277344 9.546875 6.886719 8.035156 7.578125 6.867188 C 8.019531 6.125 8.832031 5.660156 9.699219 5.660156 C 10.136719 5.660156 10.566406 5.777344 10.945312 6.003906 C 11.511719 6.335938 11.910156 6.871094 12.074219 7.507812 C 12.238281 8.144531 12.144531 8.804688 11.8125 9.371094 Z M 11.8125 9.371094 "/>
    <path style=" stroke:none;fill-rule:nonzero;fill:rgb(0.392157%,0%,0.784314%);fill-opacity:1;" d="M 12.441406 3.324219 C 12.1875 3.175781 11.898438 3.09375 11.601562 3.09375 L 11.46875 3.097656 L 11.503906 3.191406 C 11.511719 3.210938 11.519531 3.234375 11.527344 3.253906 L 11.550781 3.316406 C 11.554688 3.324219 11.554688 3.332031 11.558594 3.339844 L 11.574219 3.40625 L 11.628906 3.40625 C 11.859375 3.414062 12.085938 3.476562 12.28125 3.59375 C 12.488281 3.714844 12.660156 3.894531 12.773438 4.105469 L 12.816406 4.179688 L 12.882812 4.125 C 12.917969 4.097656 12.960938 4.066406 13.011719 4.035156 L 13.074219 4 L 13.039062 3.941406 C 12.898438 3.683594 12.691406 3.472656 12.441406 3.324219 Z M 12.441406 3.324219 "/>
    <path style=" stroke:none;fill-rule:nonzero;fill:rgb(0.392157%,0%,0.784314%);fill-opacity:1;" d="M 13.691406 3.765625 L 13.714844 3.8125 L 13.765625 3.804688 C 13.824219 3.800781 13.882812 3.792969 13.941406 3.785156 L 14.039062 3.777344 L 14 3.6875 C 13.773438 3.175781 13.410156 2.761719 12.9375 2.484375 C 12.53125 2.242188 12.085938 2.121094 11.613281 2.121094 C 11.476562 2.121094 11.335938 2.132812 11.199219 2.152344 L 11.117188 2.167969 L 11.140625 2.246094 C 11.144531 2.261719 11.152344 2.28125 11.15625 2.296875 C 11.160156 2.320312 11.167969 2.34375 11.175781 2.371094 L 11.214844 2.464844 L 11.269531 2.457031 C 11.382812 2.441406 11.496094 2.433594 11.609375 2.433594 C 12.023438 2.433594 12.417969 2.542969 12.777344 2.753906 C 13.175781 2.988281 13.492188 3.339844 13.691406 3.765625 Z M 13.691406 3.765625 "/>
    <path style=" stroke:none;fill-rule:nonzero;fill:rgb(0.392157%,0%,0.784314%);fill-opacity:1;" d="M 13.476562 1.570312 C 12.914062 1.238281 12.269531 1.0625 11.605469 1.0625 C 11.390625 1.0625 11.171875 1.082031 10.957031 1.121094 L 10.890625 1.132812 L 10.910156 1.269531 C 10.917969 1.304688 10.921875 1.335938 10.929688 1.371094 L 10.945312 1.441406 L 11.015625 1.429688 C 11.210938 1.394531 11.410156 1.375 11.609375 1.375 C 12.214844 1.375 12.804688 1.539062 13.320312 1.839844 C 14.019531 2.253906 14.542969 2.910156 14.800781 3.683594 L 14.816406 3.734375 L 14.875 3.734375 C 14.933594 3.730469 14.992188 3.726562 15.050781 3.71875 L 15.140625 3.710938 L 15.113281 3.628906 C 14.835938 2.761719 14.253906 2.03125 13.476562 1.570312 Z M 13.476562 1.570312 "/>
    <path style=" stroke:none;fill-rule:nonzero;fill:rgb(0.392157%,0%,0.784314%);fill-opacity:1;" d="M 16.152344 3.394531 C 15.808594 2.242188 15.050781 1.269531 14.015625 0.660156 C 13.289062 0.226562 12.453125 0 11.601562 0 C 11.332031 0 11.058594 0.0234375 10.792969 0.0703125 L 10.722656 0.0820312 L 10.738281 0.167969 C 10.746094 0.21875 10.753906 0.269531 10.761719 0.316406 L 10.773438 0.390625 L 10.84375 0.378906 C 11.09375 0.335938 11.351562 0.3125 11.601562 0.3125 C 12.398438 0.3125 13.175781 0.527344 13.855469 0.929688 C 14.824219 1.496094 15.53125 2.40625 15.851562 3.484375 L 15.871094 3.554688 L 16.007812 3.511719 C 16.039062 3.503906 16.074219 3.492188 16.105469 3.484375 L 16.171875 3.460938 Z M 16.152344 3.394531 "/>
  </g>
</svg>