<?xml version="1.0" encoding="UTF-8" standalone="no"?>
<!-- Generator: Adobe Illustrator 16.0.0, SVG Export Plug-In . SVG Version: 6.00 Build 0)  -->

<svg
   xmlns:dc="http://purl.org/dc/elements/1.1/"
   xmlns:cc="http://creativecommons.org/ns#"
   xmlns:rdf="http://www.w3.org/1999/02/22-rdf-syntax-ns#"
   xmlns:svg="http://www.w3.org/2000/svg"
   xmlns="http://www.w3.org/2000/svg"
   xmlns:sodipodi="http://sodipodi.sourceforge.net/DTD/sodipodi-0.dtd"
   xmlns:inkscape="http://www.inkscape.org/namespaces/inkscape"
   version="1.1"
   id="Capa_1"
   x="0px"
   y="0px"
   width="24"
   height="24"
   viewBox="0 0 24 24"
   xml:space="preserve"
   inkscape:version="0.48.5 r10040"
   sodipodi:docname="darokhane.svg"><metadata
     id="metadata3306"><rdf:RDF><cc:Work
         rdf:about=""><dc:format>image/svg+xml</dc:format><dc:type
           rdf:resource="http://purl.org/dc/dcmitype/StillImage" /><dc:title></dc:title></cc:Work></rdf:RDF></metadata><defs
     id="defs3304" /><sodipodi:namedview
     pagecolor="#ffffff"
     bordercolor="#666666"
     borderopacity="1"
     objecttolerance="10"
     gridtolerance="10"
     guidetolerance="10"
     inkscape:pageopacity="0"
     inkscape:pageshadow="2"
     inkscape:window-width="657"
     inkscape:window-height="480"
     id="namedview3302"
     showgrid="false"
     inkscape:zoom="7.4069426"
     inkscape:cx="0.67454264"
     inkscape:cy="15.931"
     inkscape:window-x="0"
     inkscape:window-y="27"
     inkscape:window-maximized="0"
     inkscape:current-layer="Capa_1" /><g
     id="g3264"
     transform="matrix(0.74460053,0,0,0.74460053,0.1379683,0.13767958)"><g
       id="g3266"><path
         d="M 31.737,9.582 C 31.396,7.816 30.387,6.287 28.897,5.281 27.777,4.523 26.475,4.123 25.128,4.123 c -2.243,0 -4.33,1.108 -5.585,2.961 l -6.917,10.231 c -1.008,1.491 -1.375,3.284 -1.033,5.052 0.341,1.766 1.35,3.294 2.84,4.3 1.119,0.759 2.422,1.158 3.769,1.158 2.242,0 4.329,-1.108 5.583,-2.962 l 6.917,-10.229 c 1.01,-1.493 1.376,-3.285 1.035,-5.052 z M 26.059,8.197 C 25.886,8.158 24.433,7.879 23.213,9.68 l -1.834,2.713 c -0.218,0.32 -0.571,0.494 -0.932,0.494 -0.217,0 -0.436,-0.062 -0.628,-0.194 -0.514,-0.347 -0.648,-1.045 -0.301,-1.559 l 1.834,-2.712 c 2.176,-3.218 5.168,-2.426 5.294,-2.39 0.598,0.167 0.947,0.785 0.78,1.382 -0.165,0.591 -0.777,0.937 -1.367,0.783 z m -4.132,15.406 c -0.836,1.237 -2.229,1.977 -3.725,1.977 -0.896,0 -1.766,-0.268 -2.511,-0.772 -0.993,-0.671 -1.666,-1.689 -1.894,-2.868 -0.228,-1.178 0.018,-2.373 0.689,-3.365 l 2.76,-4.084 c 0.41,-0.606 1.235,-0.766 1.843,-0.356 l 5.241,3.543 c 0.292,0.196 0.493,0.502 0.56,0.847 0.066,0.347 -0.006,0.703 -0.203,0.995 l -2.76,4.083 z"
         id="path3268"
         inkscape:connector-curvature="0" /><path
         d="M 13.819,11.05 C 13.875,7.235 10.829,4.096 7.013,4.038 3.198,3.982 0.058,7.028 0.001,10.845 c -0.057,3.815 2.99,6.954 6.806,7.009 3.816,0.058 6.955,-2.987 7.012,-6.804 z m -3.04,1.125 c -0.009,0 -0.02,0 -0.03,0 L 3.013,11.971 C 2.394,11.954 1.904,11.438 1.921,10.817 1.938,10.199 2.428,9.716 3.072,9.725 l 7.736,0.202 c 0.619,0.016 1.108,0.532 1.092,1.152 -0.017,0.611 -0.515,1.096 -1.121,1.096 z"
         id="path3270"
         inkscape:connector-curvature="0" /></g></g><g
     id="g3272"
     transform="translate(0,-7.8619996)" /><g
     id="g3274"
     transform="translate(0,-7.8619996)" /><g
     id="g3276"
     transform="translate(0,-7.8619996)" /><g
     id="g3278"
     transform="translate(0,-7.8619996)" /><g
     id="g3280"
     transform="translate(0,-7.8619996)" /><g
     id="g3282"
     transform="translate(0,-7.8619996)" /><g
     id="g3284"
     transform="translate(0,-7.8619996)" /><g
     id="g3286"
     transform="translate(0,-7.8619996)" /><g
     id="g3288"
     transform="translate(0,-7.8619996)" /><g
     id="g3290"
     transform="translate(0,-7.8619996)" /><g
     id="g3292"
     transform="translate(0,-7.8619996)" /><g
     id="g3294"
     transform="translate(0,-7.8619996)" /><g
     id="g3296"
     transform="translate(0,-7.8619996)" /><g
     id="g3298"
     transform="translate(0,-7.8619996)" /><g
     id="g3300"
     transform="translate(0,-7.8619996)" /></svg>