<?xml version="1.0" encoding="utf-8"?>
<!-- Generator: Adobe Illustrator 15.1.0, SVG Export Plug-In . SVG Version: 6.00 Build 0)  -->
<!DOCTYPE svg PUBLIC "-//W3C//DTD SVG 1.1//EN" "http://www.w3.org/Graphics/SVG/1.1/DTD/svg11.dtd">
<svg version="1.1"
	 id="svg2" sodipodi:docname="bank-maskansvg.svg" inkscape:version="0.48.5 r10040" xmlns:dc="http://purl.org/dc/elements/1.1/" xmlns:cc="http://creativecommons.org/ns#" xmlns:rdf="http://www.w3.org/1999/02/22-rdf-syntax-ns#" xmlns:svg="http://www.w3.org/2000/svg" xmlns:sodipodi="http://sodipodi.sourceforge.net/DTD/sodipodi-0.dtd" xmlns:inkscape="http://www.inkscape.org/namespaces/inkscape"
	 xmlns="http://www.w3.org/2000/svg" xmlns:xlink="http://www.w3.org/1999/xlink" x="0px" y="0px" width="24px" height="24px"
	 viewBox="0 0 24 24" enable-background="new 0 0 24 24" xml:space="preserve">
<path d="M15.181,12.259c0-0.1-0.082-0.18-0.183-0.18h-2.531V7.377h1.475L8.533,3.669l-5.41,3.708H4.51v5.064h0.361h4.702V8.823
	h1.808v3.618h0.73v1.807c0,0.101,0.082,0.182,0.181,0.182s0.18-0.081,0.18-0.182v-1.807h2.524
	C15.099,12.441,15.181,12.359,15.181,12.259z M8.489,10.631H8.308H6.319V9.004V8.823h2.17V10.631z M8.721,3.704l0.047,0.041
	C8.788,3.753,8.827,3.76,8.851,3.76h6.147c0.101,0,0.183-0.082,0.183-0.181s-0.082-0.181-0.183-0.181H8.851
	c-0.1,0-0.181,0.081-0.181,0.181c0,0.004,0.002,0.008,0.002,0.012C8.675,3.634,8.692,3.673,8.721,3.704z M15.371,5.207L14.818,4.25
	l-0.552,0.957h0.371v5.424h-0.371l0.552,0.957l0.553-0.957h-0.373V5.207H15.371z M11.021,13.887H6.319v-0.371l-0.957,0.553
	l0.957,0.552v-0.372h4.701v0.372l0.957-0.552l-0.957-0.553V13.887z M14.252,19.495l0.214,2.36l1.931-1.267l4.593-9l-2.144-1.094
	L14.252,19.495z M21.534,8.62l-0.108-0.055c-0.503-0.257-1.236-0.353-1.49,0.141l-0.51,1l2.145,1.094l0.509-1
	C22.331,9.306,22.037,8.876,21.534,8.62z"/>
</svg>
