<?xml version="1.0" encoding="UTF-8" standalone="no"?>
<!-- Generator: Adobe Illustrator 16.0.0, SVG Export Plug-In . SVG Version: 6.00 Build 0)  -->

<svg
   xmlns:dc="http://purl.org/dc/elements/1.1/"
   xmlns:cc="http://creativecommons.org/ns#"
   xmlns:rdf="http://www.w3.org/1999/02/22-rdf-syntax-ns#"
   xmlns:svg="http://www.w3.org/2000/svg"
   xmlns="http://www.w3.org/2000/svg"
   xmlns:sodipodi="http://sodipodi.sourceforge.net/DTD/sodipodi-0.dtd"
   xmlns:inkscape="http://www.inkscape.org/namespaces/inkscape"
   version="1.1"
   id="Capa_1"
   x="0px"
   y="0px"
   width="24"
   height="24"
   viewBox="0 0 24 24"
   xml:space="preserve"
   inkscape:version="0.48.5 r10040"
   sodipodi:docname="edare.svg"><metadata
     id="metadata3421"><rdf:RDF><cc:Work
         rdf:about=""><dc:format>image/svg+xml</dc:format><dc:type
           rdf:resource="http://purl.org/dc/dcmitype/StillImage" /><dc:title></dc:title></cc:Work></rdf:RDF></metadata><defs
     id="defs3419" /><sodipodi:namedview
     pagecolor="#ffffff"
     bordercolor="#666666"
     borderopacity="1"
     objecttolerance="10"
     gridtolerance="10"
     guidetolerance="10"
     inkscape:pageopacity="0"
     inkscape:pageshadow="2"
     inkscape:window-width="657"
     inkscape:window-height="480"
     id="namedview3417"
     showgrid="false"
     inkscape:zoom="5.0212766"
     inkscape:cx="0.99626244"
     inkscape:cy="23.5"
     inkscape:window-x="0"
     inkscape:window-y="27"
     inkscape:window-maximized="0"
     inkscape:current-layer="Capa_1" /><g
     id="g3356"
     transform="matrix(0.4915257,0,0,0.4915257,0.44890029,0.44914605)"><g
       id="Layer_1_135_"><g
         id="g3359"><path
           d="M 44.863,0 H 14.421 C 13.24,0 12.284,0.957 12.284,2.136 V 21.365 H 2.137 C 0.957,21.365 0,22.32 0,23.5 V 44.864 C 0,46.044 0.957,47 2.137,47 h 20.295 22.431 c 1.181,0 2.138,-0.957 2.138,-2.136 V 23.5 2.136 C 47,0.958 46.043,0 44.863,0 z M 16.557,4.273 h 26.171 v 15.602 l -8.045,-4.453 c -0.646,-0.355 -1.426,-0.355 -2.07,0 L 21.88,21.365 h -5.322 l -0.001,-17.092 0,0 z M 4.272,25.636 H 14.42 20.295 V 42.727 H 4.272 V 25.636 z M 42.729,42.727 H 24.568 V 24.759 l 9.079,-5.026 9.08,5.026 v 17.968 h 0.002 z"
           id="path3361"
           inkscape:connector-curvature="0" /><path
           d="M 10.147,28.307 H 6.943 c -0.295,0 -0.534,0.239 -0.534,0.534 v 3.205 c 0,0.295 0.239,0.534 0.534,0.534 h 3.204 c 0.296,0 0.534,-0.239 0.534,-0.534 v -3.205 c 0.001,-0.295 -0.238,-0.534 -0.534,-0.534 z"
           id="path3363"
           inkscape:connector-curvature="0" /><path
           d="m 17.625,28.307 h -3.204 c -0.296,0 -0.534,0.239 -0.534,0.534 v 3.205 c 0,0.295 0.238,0.534 0.534,0.534 h 3.204 c 0.295,0 0.534,-0.239 0.534,-0.534 v -3.205 c 0,-0.295 -0.239,-0.534 -0.534,-0.534 z"
           id="path3365"
           inkscape:connector-curvature="0" /><path
           d="M 10.147,35.785 H 6.943 c -0.295,0 -0.534,0.239 -0.534,0.534 v 3.205 c 0,0.295 0.239,0.533 0.534,0.533 h 3.204 c 0.296,0 0.534,-0.238 0.534,-0.533 v -3.205 c 0.001,-0.295 -0.238,-0.534 -0.534,-0.534 z"
           id="path3367"
           inkscape:connector-curvature="0" /><path
           d="m 17.625,35.785 h -3.204 c -0.296,0 -0.534,0.239 -0.534,0.534 v 3.205 c 0,0.295 0.238,0.533 0.534,0.533 h 3.204 c 0.295,0 0.534,-0.238 0.534,-0.533 v -3.205 c 0,-0.295 -0.239,-0.534 -0.534,-0.534 z"
           id="path3369"
           inkscape:connector-curvature="0" /><path
           d="m 31.512,28.307 h -3.205 c -0.295,0 -0.533,0.239 -0.533,0.534 v 3.205 c 0,0.295 0.238,0.534 0.533,0.534 h 3.205 c 0.295,0 0.534,-0.239 0.534,-0.534 v -3.205 c 0,-0.295 -0.239,-0.534 -0.534,-0.534 z"
           id="path3371"
           inkscape:connector-curvature="0" /><path
           d="m 35.784,32.581 h 3.204 c 0.296,0 0.533,-0.239 0.533,-0.534 v -3.205 c 0,-0.295 -0.237,-0.534 -0.533,-0.534 h -3.204 c -0.296,0 -0.534,0.239 -0.534,0.534 v 3.205 c 0,0.294 0.238,0.534 0.534,0.534 z"
           id="path3373"
           inkscape:connector-curvature="0" /><path
           d="m 31.512,35.785 h -3.205 c -0.295,0 -0.533,0.239 -0.533,0.534 v 3.205 c 0,0.295 0.238,0.533 0.533,0.533 h 3.205 c 0.295,0 0.534,-0.238 0.534,-0.533 v -3.205 c 0,-0.295 -0.239,-0.534 -0.534,-0.534 z"
           id="path3375"
           inkscape:connector-curvature="0" /><path
           d="m 35.784,40.057 h 3.204 c 0.296,0 0.533,-0.238 0.533,-0.533 v -3.205 c 0,-0.295 -0.237,-0.534 -0.533,-0.534 h -3.204 c -0.296,0 -0.534,0.239 -0.534,0.534 v 3.205 c 0,0.295 0.238,0.533 0.534,0.533 z"
           id="path3377"
           inkscape:connector-curvature="0" /><path
           d="m 20.829,11.951 h 3.205 c 0.295,0 0.534,-0.239 0.534,-0.534 V 8.211 c 0,-0.295 -0.239,-0.534 -0.534,-0.534 h -3.205 c -0.295,0 -0.533,0.239 -0.533,0.534 v 3.205 c 0,0.295 0.238,0.535 0.533,0.535 z"
           id="path3379"
           inkscape:connector-curvature="0" /><path
           d="m 28.307,11.951 h 3.205 c 0.295,0 0.534,-0.239 0.534,-0.534 V 8.211 c 0,-0.295 -0.239,-0.534 -0.534,-0.534 h -3.205 c -0.295,0 -0.533,0.239 -0.533,0.534 v 3.205 c -0.003,0.295 0.238,0.535 0.533,0.535 z"
           id="path3381"
           inkscape:connector-curvature="0" /><path
           d="m 24.034,19.428 c 0.295,0 0.534,-0.239 0.534,-0.534 v -3.205 c 0,-0.295 -0.239,-0.534 -0.534,-0.534 h -3.205 c -0.295,0 -0.533,0.239 -0.533,0.534 v 3.205 c 0,0.295 0.238,0.534 0.533,0.534 h 3.205 z"
           id="path3383"
           inkscape:connector-curvature="0" /><path
           d="m 35.784,11.951 h 3.204 c 0.296,0 0.533,-0.239 0.533,-0.534 V 8.211 c 0,-0.295 -0.237,-0.534 -0.533,-0.534 h -3.204 c -0.296,0 -0.534,0.239 -0.534,0.534 v 3.205 c 0,0.295 0.238,0.535 0.534,0.535 z"
           id="path3385"
           inkscape:connector-curvature="0" /></g></g></g><g
     id="g3387"
     transform="translate(0,-23)" /><g
     id="g3389"
     transform="translate(0,-23)" /><g
     id="g3391"
     transform="translate(0,-23)" /><g
     id="g3393"
     transform="translate(0,-23)" /><g
     id="g3395"
     transform="translate(0,-23)" /><g
     id="g3397"
     transform="translate(0,-23)" /><g
     id="g3399"
     transform="translate(0,-23)" /><g
     id="g3401"
     transform="translate(0,-23)" /><g
     id="g3403"
     transform="translate(0,-23)" /><g
     id="g3405"
     transform="translate(0,-23)" /><g
     id="g3407"
     transform="translate(0,-23)" /><g
     id="g3409"
     transform="translate(0,-23)" /><g
     id="g3411"
     transform="translate(0,-23)" /><g
     id="g3413"
     transform="translate(0,-23)" /><g
     id="g3415"
     transform="translate(0,-23)" /></svg>