<?xml version="1.0" encoding="UTF-8" standalone="yes"?>
<svg xmlns="http://www.w3.org/2000/svg" xmlns:xlink="http://www.w3.org/1999/xlink" width="24px" height="24px" viewBox="0 0 18 18" version="1.1">
  <g id="surface1">
    <path style=" stroke:none;fill-rule:nonzero;fill:rgb(0.392157%,0%,0.784314%);fill-opacity:1;" d="M 8.953125 0 C 3.980469 0.0273438 -0.0273438 4.078125 0 9.046875 C 0.0273438 14.019531 4.078125 18.027344 9.046875 18 C 14.019531 17.972656 18.027344 13.921875 18 8.953125 C 17.972656 3.980469 13.925781 -0.0273438 8.953125 0 Z M 9.042969 16.53125 C 4.878906 16.554688 1.492188 13.199219 1.46875 9.039062 C 1.449219 4.878906 4.800781 1.488281 8.960938 1.464844 C 13.121094 1.445312 16.511719 4.800781 16.535156 8.957031 C 16.554688 13.121094 13.199219 16.511719 9.042969 16.53125 Z M 10.375 12.9375 L 10.335938 6.210938 L 6.867188 6.234375 L 6.871094 7.707031 L 7.816406 7.699219 L 7.84375 12.953125 L 6.84375 12.957031 L 6.851562 14.363281 L 11.207031 14.339844 L 11.199219 12.933594 Z M 9.050781 5.21875 C 9.902344 5.214844 10.414062 4.644531 10.410156 3.949219 C 10.386719 3.230469 9.886719 2.6875 9.070312 2.6875 C 8.253906 2.695312 7.722656 3.246094 7.726562 3.964844 C 7.730469 4.660156 8.25 5.222656 9.050781 5.21875 Z M 9.050781 5.21875 "/>
  </g>
</svg>