<?xml version="1.0" encoding="UTF-8" standalone="yes"?>
<svg xmlns="http://www.w3.org/2000/svg" xmlns:xlink="http://www.w3.org/1999/xlink" width="24px" height="24px" viewBox="0 0 18 18" version="1.1">
  <g id="surface1">
    <path style=" stroke:none;fill-rule:nonzero;fill:rgb(0%,0%,0%);fill-opacity:1;" d="M 12.546875 5.550781 C 11.410156 5.660156 10.230469 6.246094 8.941406 6.132812 C 7.984375 6.046875 6.996094 5.640625 6.101562 5.550781 C 5.492188 5.488281 4.566406 5.550781 4.097656 5.605469 C 3.210938 5.703125 1.867188 5.898438 1.65625 6.714844 C 1.40625 7.671875 2.003906 8 2.136719 8.402344 C 2.328125 8.988281 2.304688 9.59375 2.457031 10.089844 C 2.597656 10.546875 2.777344 11.050781 3.015625 11.464844 C 3.878906 12.945312 6.34375 13.089844 7.460938 11.886719 C 7.8125 11.503906 8.179688 10.703125 8.421875 9.984375 C 8.589844 9.480469 8.78125 7.980469 9.300781 7.980469 C 9.703125 7.980469 9.757812 8.453125 9.863281 8.929688 C 10.15625 10.261719 10.648438 11.503906 11.34375 12.097656 C 12.433594 13.03125 14.363281 12.964844 15.230469 11.992188 C 15.75 11.40625 16.109375 10.378906 16.3125 9.511719 C 16.390625 9.167969 16.363281 8.730469 16.472656 8.402344 C 16.632812 7.910156 17.03125 7.820312 16.992188 7.027344 C 16.921875 5.535156 13.960938 5.417969 12.546875 5.550781 Z M 7.140625 11.253906 C 6.359375 12.113281 4.707031 12.25 3.855469 11.464844 C 3.347656 10.992188 2.417969 8.605469 3.015625 7.136719 C 3.230469 6.613281 3.613281 6.480469 4.175781 6.398438 C 5.640625 6.179688 7.859375 6.46875 8.183594 7.820312 C 8.488281 9.101562 7.621094 10.726562 7.140625 11.253906 Z M 15.710938 8.773438 C 15.644531 9.800781 15.222656 11.140625 14.667969 11.515625 C 13.457031 12.339844 11.796875 11.9375 11.066406 10.671875 C 10.6875 10.023438 10.203125 8.765625 10.425781 7.820312 C 10.65625 6.835938 11.757812 6.511719 12.828125 6.394531 C 14.710938 6.191406 15.878906 6.261719 15.710938 8.773438 Z M 14.519531 6.765625 C 14.492188 6.6875 14.421875 6.65625 14.363281 6.691406 C 14.308594 6.726562 14.28125 6.816406 14.308594 6.894531 L 15.054688 9.011719 C 15.082031 9.089844 15.152344 9.121094 15.210938 9.085938 C 15.269531 9.050781 15.292969 8.960938 15.265625 8.882812 Z M 14.132812 7.277344 C 14.105469 7.203125 14.035156 7.167969 13.976562 7.203125 C 13.917969 7.238281 13.894531 7.332031 13.917969 7.40625 L 14.433594 9.011719 C 14.460938 9.089844 14.53125 9.121094 14.589844 9.089844 C 14.648438 9.050781 14.671875 8.960938 14.644531 8.882812 Z M 14.132812 7.277344 "/>
  </g>
</svg>