<?xml version="1.0" encoding="utf-8"?>
<!-- Generator: Adobe Illustrator 15.1.0, SVG Export Plug-In . SVG Version: 6.00 Build 0)  -->
<!DOCTYPE svg PUBLIC "-//W3C//DTD SVG 1.1//EN" "http://www.w3.org/Graphics/SVG/1.1/DTD/svg11.dtd">
<svg version="1.1" id="Layer_1" xmlns="http://www.w3.org/2000/svg" xmlns:xlink="http://www.w3.org/1999/xlink" x="0px" y="0px"
	 width="24px" height="24px" viewBox="0 0 24 24" enable-background="new 0 0 24 24" xml:space="preserve">
<path d="M7.631,2.967C5.607,5.123,4.49,8.989,5.279,12.856c0.672,3.292,2.958,7.146,7.249,6.815c3.361-0.26,5.558-3.633,6.191-6.672
	c0.801-3.834-0.207-7.736-2.352-9.937c0.138-0.067,0.263,0.122,0.336,0.192c2.003,1.905,3.449,5.333,3.119,9.552
	c-0.326,4.187-2.957,8.925-7.151,9.265c-2.804,0.227-4.649-1.064-6-2.736c-1.136-1.404-1.964-3.217-2.304-5.088
	C3.547,9.733,4.93,5.354,7.486,3.111C7.525,3.079,7.549,2.97,7.631,2.967z M12.383,7.289c2.18-0.024,1.995-3.378-0.096-3.265
	C10.158,4.14,10.287,7.312,12.383,7.289z M8.207,7.527c0.126,0.646,0.829,1.102,1.392,1.104c2.034,0.012,1.787-3.195-0.239-2.832
	C8.619,5.934,8.002,6.484,8.207,7.527z M13.535,7.336c0.041,1.972,3.207,1.48,2.592-0.48c-0.159-0.507-0.85-0.951-1.536-0.816
	C13.951,6.166,13.52,6.59,13.535,7.336z M9.07,8.729c-0.393-0.12-0.582-0.512-0.912-0.721c-0.646,1.15-1.105,2.425-1.104,4.129
	c0.004,2.402,0.915,4.259,2.16,5.376c0.787,0.706,1.971,1.2,3.12,1.104c3.955-0.33,5.762-6.273,3.744-10.225
	c-0.394,0.105-0.628,0.398-1.058,0.432c-0.896,0.068-1.668-0.599-1.632-1.584c-0.305,0.018-0.628,0.248-1.056,0.24
	c-0.441-0.008-0.758-0.24-1.104-0.336C11.285,8.305,10.199,9.072,9.07,8.729z M13.199,10.647c0,0.353,0,0.704,0,1.056
	c-0.198,0.047-0.471-0.391-0.816-0.432c-0.648-0.077-0.955,0.441-1.296,0.816c0.036-0.596-0.058-1.063-0.048-1.633
	C11.624,10.06,12.794,10.188,13.199,10.647z M10.607,10.84c0.233,1.062-0.014,2.604,0.336,3.552
	c0.028-0.802,0.056-1.892,0.815-2.063c1.429-0.324,1.739,2.254,0.672,2.784c-0.108,0.113-0.397,0.052-0.528,0.144
	c0.358,0.604,1.088-0.086,1.393-0.287c-0.1,0.439,0.124,0.754,0.048,1.057c-0.098,0.387-0.634,0.614-1.008,0.672
	C9.566,17.119,8.939,12.314,10.607,10.84z M13.535,11.08c1.02,0.92,1.027,3.836,0,4.752C13.588,14.427,13.598,12.609,13.535,11.08z
	 M13.055,12.424c-0.324-0.318-0.793-0.627-1.439-0.479C11.974,11.295,13.085,11.699,13.055,12.424z M12.095,14.201
	c0.468-0.031,0.409-1.187-0.144-0.961C11.578,13.392,11.66,14.229,12.095,14.201z M18.623,10.84c0.066-3.394-1-6.375-3.072-8.16
	c-0.854-0.736-2.113-1.301-3.456-1.344C8.236,1.211,5.893,5.28,5.471,8.584c-0.567,4.44,1,8.135,3.648,9.791
	c-2.084-1.635-3.291-4.539-3.072-8.063c0.21-3.386,2.281-6.917,5.568-7.152c2.537-0.182,3.99,1.35,4.992,2.976
	c0.965,1.566,1.481,3.586,1.344,5.808c-0.168,2.709-1.309,4.849-2.783,6.191c-0.047,0.043-0.271,0.11-0.191,0.239
	C17.156,16.817,18.558,14.162,18.623,10.84z"/>
</svg>
