<?xml version="1.0" encoding="utf-8"?>
<!-- Generator: Adobe Illustrator 15.1.0, SVG Export Plug-In . SVG Version: 6.00 Build 0)  -->
<!DOCTYPE svg PUBLIC "-//W3C//DTD SVG 1.1//EN" "http://www.w3.org/Graphics/SVG/1.1/DTD/svg11.dtd">
<svg version="1.1" id="Layer_1" xmlns="http://www.w3.org/2000/svg" xmlns:xlink="http://www.w3.org/1999/xlink" x="0px" y="0px"
	 width="24px" height="24px" viewBox="0 0 24 24" enable-background="new 0 0 24 24" xml:space="preserve">
<path d="M11.361,0.544c0.104,0,0.209,0,0.313,0c0.739,0.449,0.699,1.3,1.298,1.879c0.352,0.339,1.008,0.611,1.611,0.896
	c0.611,0.288,1.217,0.617,1.699,0.85c0.76,0.367,3,1.14,2.998,2.103c0,0.462-0.424,0.794-0.627,0.984
	c-0.283,0.265-0.6,0.48-0.76,0.849c-0.184,0.418-0.27,1.125-0.357,1.791c-0.18,1.346-0.352,2.505-0.582,3.712
	c-0.113,0.594-0.125,1.381-0.627,1.565c-0.779,0.289-1.398-0.622-2.191-0.715c-0.584-0.067-1.225,0.158-1.879,0.269
	c-1.284,0.214-2.433,0.474-3.579,0.627c-0.602,0.078-1.328,0.174-1.88-0.181c-0.28-0.782,0.128-1.553,0.045-2.235
	c-0.064-0.535-0.504-1.137-0.761-1.655c-0.285-0.579-0.603-1.123-0.85-1.612C4.659,8.53,4.013,7.504,3.846,6.137
	c0.392-0.59,1.365-0.335,1.969-0.538C6.327,5.427,6.757,4.83,7.202,4.391C8.505,3.101,9.992,1.437,11.361,0.544z M11.048,1.215
	c-0.979,0.581-2.367,2.203-3.266,3.176C7.453,4.75,6.816,5.301,6.754,5.554C6.59,6.237,7.16,6.478,7.515,6.583
	C6.59,5.248,8.836,3.484,9.841,3.317c1.309-0.219,1.425,0.802,1.923,1.521c0.102-0.912,0.004-2.024,0.851-2.192
	C12.297,1.993,11.929,0.691,11.048,1.215z M18.879,6.315c-0.025-0.342-0.758-0.834-1.164-1.074
	c-0.977-0.579-1.992-1.025-2.998-1.476c-0.436-0.196-1.162-0.652-1.566-0.672c-0.666-0.031-0.758,0.572-0.803,1.029
	c0.282-0.23,0.491-0.45,0.893-0.492c0.879-0.09,2.574,0.897,2.998,1.746c0.545,1.089-0.406,1.649-0.939,2.236
	c0.734-0.174,1.883-0.596,2.416,0.045C17.994,7.148,18.939,7.077,18.879,6.315z M10.511,3.899C9.7,3.593,8.151,4.786,7.917,5.331
	c-0.583,1.357,1.629,1.949,2.327,2.46c-0.069,0.14-0.07,0.348-0.179,0.448C9.169,8.017,6.947,7.583,6.576,8.507
	C6.422,8.884,6.562,9.481,6.665,9.849c0.235,0.843,0.637,1.874,1.744,1.521c0.695-0.221,1.482-1.239,1.969-1.7
	c0.084,0.169,0.298,0.209,0.403,0.358c-0.546,0.84-1.17,1.603-1.164,2.998c0.184,0.54,1.068,0.714,1.744,0.716
	c0.944,0.003,1.789-0.232,1.789-1.073c0.002-0.867-0.708-1.874-0.985-2.55c0.229-0.011,0.313-0.166,0.493-0.223
	c0.566,0.656,1.279,1.737,2.283,1.923c0.17,0.031,0.355,0.062,0.537,0c0.588-0.203,1.145-1.737,1.117-2.416
	c-0.061-1.476-2.254-1.072-3.4-0.761c0.082-0.277-0.127-0.495-0.09-0.581c0.582-0.211,1.088-0.364,1.654-0.716
	c0.387-0.239,1.09-0.754,1.074-1.297c-0.02-0.677-1.291-1.669-1.969-1.835c-1.612-0.393-1.562,1.892-1.833,2.953
	c-0.16-0.134-0.336,0.019-0.493-0.089C11.469,5.985,11.319,4.204,10.511,3.899z M4.383,6.315c0.064,1.404,0.633,2.317,1.297,3.49
	c0.254,0.446,0.453,0.814,0.761,1.342c0.21,0.36,0.573,1.182,0.85,1.298c0.373,0.156,0.85-0.12,1.028-0.492
	c-1.36,0.316-2.264-1.537-2.371-2.773C5.831,7.826,6.816,7.485,8.006,7.435C7.471,7.029,6.561,7,6.261,6.36
	C6.143,6.254,6.26,5.914,6.082,5.867C5.435,5.936,4.724,5.942,4.383,6.315z M16.283,7.925c0.15,0.221,0.33,0.261,0.492,0.492
	c0.605,0.862,0.066,3.053-0.672,3.668c-0.76,0.635-1.791,0.022-2.416-0.268c0.369,0.62,1.193,1.33,0.76,2.325
	c0.559,0.076,1.035,0.866,1.656,0.582c0.42-0.192,0.543-1.372,0.67-2.059c0.277-1.472,0.414-3.083,0.537-4.563
	C17.148,7.864,16.646,7.828,16.283,7.925z M7.202,13.027c-0.016,0.593-0.203,1.297,0,1.833c0.371,0.217,1.016,0.214,1.61,0.136
	c0.611-0.082,1.746-0.313,2.64-0.493c0.509-0.101,2.322-0.32,2.505-0.671c0.174-0.332-0.063-0.825-0.313-1.029
	c0.104,1.393-2.476,1.807-3.714,1.299c-0.979-0.403-0.8-1.36-0.761-2.326C8.68,12.335,8.345,13.264,7.202,13.027z M11.944,7.3
	c0.088,0.255,0.025,0.659,0.044,0.985c0.348-0.004,0.76-0.237,1.03-0.045c0,0.104,0,0.209,0,0.313
	c-0.264,0.154-0.611,0.224-0.895,0.359c0.087,0.313,0.526,0.657,0.268,1.028c-0.524,0.017-0.558-0.458-0.805-0.715
	c-0.327,0.149-0.375,0.579-0.85,0.581c-0.025-0.063-0.069-0.109-0.134-0.134c-0.181-0.334,0.518-0.665,0.492-0.85
	c-0.043-0.316-0.756-0.167-0.806-0.671c0.194-0.375,0.773-0.06,1.03,0.044C11.518,7.908,11.352,7.052,11.944,7.3z M11.496,8.507
	c-0.137,0.006-0.201-0.158-0.313-0.045c-0.051,0.214,0.171,0.158,0.224,0.269c-0.04,0.094-0.136,0.132-0.135,0.268
	c0.14,0.119,0.195-0.135,0.359-0.134c0.019,0.13,0.094,0.205,0.223,0.224c0.05-0.198-0.076-0.223-0.09-0.358
	c0.134-0.031,0.274-0.054,0.313-0.179c-0.104-0.104-0.22,0.008-0.357,0c0.039-0.163-0.08-0.237,0-0.313c-0.06,0-0.121,0-0.18,0
	C11.516,8.317,11.594,8.502,11.496,8.507z M12.211,17.275c0.168,0.191,0.447,0.271,0.718,0.359c-0.021,0.32-0.195,0.491-0.314,0.715
	c0.6,0.207,1.238,0.372,1.521,0.896c0.156-0.202,0.232-0.483,0.404-0.671c0.717,0.281,1.377,0.618,2.057,0.938
	c-0.576,0.72-0.848,1.877-1.521,2.551c-0.637,0.638-1.689,0.575-2.817,0.805c-0.212,0.007,0.021-0.181-0.092-0.223
	c-1.222,0.104-2.756,0.294-2.997-0.806c-0.668,1.497-4.053,0.857-3.267-1.163c0.125-0.322,0.854-1.864,1.119-2.058
	c0.551-0.406,0.915,0.084,1.163,0.402c0.292,0.375,0.624,0.784,0.939,1.208c0.434-0.758,0.777-1.608,1.208-2.371
	c-0.381-0.32-0.604-0.603-0.582-1.163C9.828,14.835,12.973,15.324,12.211,17.275z M10.198,16.203
	c-0.375,0.58,0.033,1.322,0.537,1.566c-0.21,0.409-0.522,0.951-0.805,1.52c-0.263,0.531-0.654,1.147-0.716,1.612
	c-0.066,0.5,0.335,1.179,0.582,1.341c0.601,0.399,1.743,0.029,2.64,0.045c0.392-0.311,0.523-0.763,0.804-1.298
	c0.209-0.393,0.758-0.955,0.672-1.477c-0.066-0.413-0.961-0.923-1.431-0.805c-0.324,0.081-0.822,1.08-0.76,1.388
	c0.063,0.324,0.381,0.286,0.626,0.581c-0.37,0.038-0.938,0.098-1.297,0c0.499-0.947,1.019-1.875,1.475-2.864
	c-0.273-0.111-0.56-0.214-0.76-0.402C12.666,16.268,10.869,15.168,10.198,16.203z M6.665,20.006c-0.22,0.436-0.51,0.81-0.537,1.117
	c-0.049,0.527,0.422,1.061,0.716,1.163c0.345,0.121,1.176,0.134,1.565-0.044c0.212-0.097,0.737-0.769,0.716-1.253
	c-0.019-0.46-0.878-1.386-1.163-1.745c-0.225-0.283-0.274-0.518-0.626-0.402C6.954,18.967,6.913,19.513,6.665,20.006z
	 M14.627,18.977c-0.578,1.195-1.406,2.381-1.879,3.533c0.725-0.198,1.629-0.219,2.104-0.67c0.443-0.72,0.893-1.435,1.299-2.193
	C15.639,19.428,15.188,19.148,14.627,18.977z M11.407,16.203c-0.925-0.561-1.415,1.007-0.583,1.207
	c0.43,0.104,0.787-0.15,0.896-0.671C11.582,16.521,11.579,16.307,11.407,16.203z M11.183,17.544
	c-0.261,0.538-0.546,1.086-0.895,1.79c-0.256,0.518-0.794,1.268-0.76,1.789c0.013,0.216,0.253,0.744,0.536,0.895
	c0.384,0.206,1.895,0.15,2.237-0.044c0.267-0.152,0.472-0.789,0.671-1.163c0.166-0.309,0.711-0.882,0.58-1.298
	c-0.096-0.311-0.619-0.308-0.938-0.492c-0.245,0.277-0.444,0.602-0.583,0.985c0.183,0.313,0.651,0.186,0.67,0.581
	c0.02,0.385-0.444,0.421-0.894,0.446c-0.429,0.025-1.008,0.076-1.208-0.134c0.445-1.031,1.039-1.915,1.476-2.953
	C11.74,17.851,11.486,17.674,11.183,17.544z M6.932,21.974c0.478-0.03,1.09,0.077,1.433-0.09c0.124-0.396,0.446-0.541,0.402-0.939
	c-0.053-0.483-0.745-1.012-0.985-1.342c-0.579,0.493,0.313,0.803,0.359,1.342c-0.395-0.052-1.003,0.108-1.252-0.09
	c0.183-0.592,0.563-0.988,0.67-1.654c-0.057-0.004-0.061-0.059-0.134-0.046C7.111,19.997,5.88,21.225,6.932,21.974z M14.807,19.378
	c-0.453,0.888-1.117,1.807-1.432,2.686c1.428-0.095,1.732-1.309,2.281-2.281C15.391,19.632,15.078,19.525,14.807,19.378z
	 M7.335,20.632c0.047,0.052,0.206,0.018,0.269-0.045c-0.105-0.015-0.084-0.155-0.224-0.135C7.391,20.537,7.329,20.552,7.335,20.632z
	"/>
</svg>
