<?xml version="1.0" encoding="utf-8"?>
<!-- Generator: Adobe Illustrator 15.1.0, SVG Export Plug-In . SVG Version: 6.00 Build 0)  -->
<!DOCTYPE svg PUBLIC "-//W3C//DTD SVG 1.1//EN" "http://www.w3.org/Graphics/SVG/1.1/DTD/svg11.dtd">
<svg version="1.1" id="Layer_1" xmlns="http://www.w3.org/2000/svg" xmlns:xlink="http://www.w3.org/1999/xlink" x="0px" y="0px"
	 width="24px" height="24px" viewBox="0 0 24 24" enable-background="new 0 0 24 24" xml:space="preserve">
<path d="M18.838,8.945c-0.127-0.367-0.229-0.769-0.429-1.021c0.796-1.215,2.339-0.498,2.569,1.385
	c0.096,0.772,0.074,1.469,0.62,1.53c1.229,0.142,0.77-3.13-0.382-1.895c-0.116-0.479-0.375-0.739-0.429-1.313
	c1.301-1.161,2.747,0.361,2.57,2.479c-0.251,3.005-3.534,2.683-3.379-0.657C19.791,8.875,19.292,8.513,18.838,8.945z M9.603,10.987
	c-0.41-0.129-0.382-0.787-0.475-1.386C8.959,8.513,8.489,7.781,7.89,7.414C6.647,7.238,5.921,8.013,5.795,9.383
	c-0.203,2.213,1.277,3.718,2.571,2.551c-0.083-0.456-0.279-0.742-0.382-1.166c-1.192,1.09-1.726-1.92-0.571-1.969
	c0.885-0.036,0.64,1.848,1.048,2.699c0.366,0.435,0.908,0.884,1.522,0.801c0.248-0.034,0.471-0.444,0.666-0.072
	c-0.146,0.851-1.436,0.467-1.713,0.292c0,0.776,0,1.553,0,2.334c0.723,0.681,1.634,0.569,2.095-0.149
	c0.521-0.813,0.372-2.733,0.333-4.447c-0.037-1.621-0.349-2.458-1.094-2.842c-0.541,0-1.145-0.1-1.381,0.365
	c0.127,0.438,0.213,0.937,0.477,1.168C10.697,8.039,10.918,11.397,9.603,10.987z M19.075,10.84c-0.765-0.58-0.409-2.414-1.284-3.134
	c-1.015-0.834-2.226,0.001-2.379,1.677c-0.197,2.118,1.172,3.451,2.522,2.406c-0.095-0.415-0.275-0.696-0.431-1.021
	c-1.144,1.027-1.687-1.719-0.761-2.042c1.085-0.378,0.851,1.651,1.381,2.625c0.546,1.005,1.256,0.929,2,0.51
	c0.055-0.303-0.293-0.556-0.286-1.021C19.583,10.84,19.329,10.84,19.075,10.84z M4.701,7.487c0.002,0.1-0.022,0.16-0.047,0.219
	c0.549,4.276-1.418,5.689-4.046,5.103c0.187,1.451,0.98,2.537,2.047,2.697c1.221,0.182,2.227-0.683,2.665-1.97
	c0.545,0.438,1.095,1.249,1.905,1.387c0.405,0.067,0.883,0.015,1.285-0.221c-0.09-0.431-0.012-1.576-0.047-2.113
	C6.338,14.07,4.998,10.84,5.462,7.56C5.292,7.408,4.948,7.522,4.701,7.487z M15.029,10.84c-0.145-0.824-0.024-1.479-0.237-2.114
	c-0.498-1.481-2.301-1.503-2.809,0c-0.449,1.331,0.069,3.598-0.19,5.103c-0.314,1.818-1.646,2.758-3.047,1.532
	c-0.312,0.251-0.719,0.354-1.237,0.291c0.523,4.271,5.024,3.763,5.141-0.875c0.041-1.615-0.154-3.674,0-5.32
	c0.195-0.545,0.602-1.025,1.047-0.729c0.914,0.605,0.642,3.669-0.095,4.302c0.14,0.811-0.056,1.905,0.048,2.477
	c0.936,0.172,1.159-0.749,1.618-1.311c0.383,0.899,1.271,1.712,2.236,1.311c0.239-0.097,0.428-0.452,0.669-0.581
	c0.581,0.769,1.836,0.704,2.378-0.073c1.41,1.539,3.103-0.27,2.809-3.135c-0.514,0.649-1.339,1.336-2.237,1.022
	c-0.232-0.083-0.413-0.395-0.666-0.438c-0.525,0.705-1.796,0.633-2.334,0C17.049,13.503,15.34,12.62,15.029,10.84z"/>
</svg>
