<?xml version="1.0" encoding="utf-8"?>
<!-- Generator: Adobe Illustrator 15.1.0, SVG Export Plug-In . SVG Version: 6.00 Build 0)  -->
<!DOCTYPE svg PUBLIC "-//W3C//DTD SVG 1.1//EN" "http://www.w3.org/Graphics/SVG/1.1/DTD/svg11.dtd">
<svg version="1.1"
	 id="svg2" sodipodi:docname="bank-maskansvg.svg" inkscape:version="0.48.5 r10040" xmlns:dc="http://purl.org/dc/elements/1.1/" xmlns:cc="http://creativecommons.org/ns#" xmlns:rdf="http://www.w3.org/1999/02/22-rdf-syntax-ns#" xmlns:svg="http://www.w3.org/2000/svg" xmlns:sodipodi="http://sodipodi.sourceforge.net/DTD/sodipodi-0.dtd" xmlns:inkscape="http://www.inkscape.org/namespaces/inkscape"
	 xmlns="http://www.w3.org/2000/svg" xmlns:xlink="http://www.w3.org/1999/xlink" x="0px" y="0px" width="24px" height="24px"
	 viewBox="0 0 24 24" enable-background="new 0 0 24 24" xml:space="preserve">
<path d="M13.585,3.981c-0.085-0.13-0.111-0.218-0.111-0.218l0.04-0.037c0,0,0.078,0.033,0.215,0.089
	c0.065,0.026,0.144,0.057,0.234,0.093c0.089,0.032,0.187,0.07,0.291,0.095c0.052,0.016,0.103,0.032,0.158,0.038
	c0.026,0.003,0.053,0.011,0.08,0.016c0.025,0.001,0.053,0.002,0.08,0.006c0.107,0.014,0.206,0.003,0.314-0.002
	c0.05-0.019,0.106-0.024,0.161-0.048c0.05-0.03,0.115-0.047,0.162-0.085c0.025-0.017,0.05-0.035,0.077-0.052
	c0.029-0.016,0.059-0.028,0.09-0.061l0.191-0.161c0.002-0.003-0.011,0.016-0.006,0.007l0.002-0.001l0.004-0.003l0.005-0.006
	l0.013-0.011l0.026-0.022l0.05-0.044l0.096-0.09c0.06-0.062,0.135-0.109,0.194-0.168c0.06-0.061,0.139-0.099,0.202-0.159
	c0.068-0.053,0.147-0.093,0.224-0.145c0.16-0.076,0.349-0.131,0.517-0.108c0.042,0.004,0.082,0.011,0.122,0.019
	c0.04,0.011,0.076,0.024,0.111,0.038c0.075,0.024,0.139,0.06,0.198,0.094c0.121,0.069,0.217,0.149,0.292,0.228
	c0.077,0.078,0.134,0.154,0.175,0.22c0.042,0.065,0.066,0.122,0.085,0.161c0.015,0.04,0.023,0.062,0.023,0.062l-0.042,0.038
	c0,0-0.085-0.029-0.219-0.084c-0.063-0.026-0.143-0.058-0.231-0.094c-0.088-0.036-0.184-0.075-0.284-0.109
	c-0.05-0.019-0.102-0.038-0.154-0.05c-0.027-0.007-0.053-0.017-0.08-0.024c-0.026-0.005-0.053-0.012-0.079-0.021
	c-0.108-0.035-0.221-0.07-0.358-0.084c-0.064,0.008-0.141,0.006-0.207,0.033c-0.063,0.032-0.137,0.057-0.188,0.115
	c-0.051,0.056-0.11,0.104-0.146,0.174L15.86,3.721l-0.024,0.053L15.824,3.8l-0.006,0.014L15.815,3.82l-0.001,0.003l-0.001,0.002
	c0.005-0.008-0.009,0.011-0.008,0.01l-0.104,0.229c-0.032,0.073-0.109,0.156-0.174,0.229c-0.063,0.08-0.151,0.126-0.228,0.188
	c-0.081,0.056-0.179,0.089-0.269,0.13c-0.19,0.054-0.391,0.064-0.56,0.019c-0.085-0.019-0.164-0.043-0.234-0.08
	c-0.072-0.031-0.136-0.069-0.195-0.106c-0.117-0.078-0.21-0.161-0.284-0.241C13.683,4.125,13.626,4.047,13.585,3.981z
	 M21.843,16.908v4.693H2.158v-4.693h1.341v-5.271l3.778-2.651v2.651l3.778-2.651v2.651l3.779-2.651v5.211h1.305l0.707-9.219h2.161
	l0.62,9.219h1.454v2.711H21.843L21.843,16.908L21.843,16.908z M8.329,14.882H5.357v2.743h2.971V14.882z M13.448,14.882h-2.971v2.743
	h2.971V14.882z M18.631,14.882H15.66v2.743h2.971V14.882z"/>
</svg>
