<?xml version="1.0" encoding="utf-8"?>
<!-- Generator: Adobe Illustrator 15.1.0, SVG Export Plug-In . SVG Version: 6.00 Build 0)  -->
<!DOCTYPE svg PUBLIC "-//W3C//DTD SVG 1.1//EN" "http://www.w3.org/Graphics/SVG/1.1/DTD/svg11.dtd">
<svg version="1.1"
	 id="svg2" sodipodi:docname="bank-maskansvg.svg" inkscape:version="0.48.5 r10040" xmlns:dc="http://purl.org/dc/elements/1.1/" xmlns:cc="http://creativecommons.org/ns#" xmlns:rdf="http://www.w3.org/1999/02/22-rdf-syntax-ns#" xmlns:svg="http://www.w3.org/2000/svg" xmlns:sodipodi="http://sodipodi.sourceforge.net/DTD/sodipodi-0.dtd" xmlns:inkscape="http://www.inkscape.org/namespaces/inkscape"
	 xmlns="http://www.w3.org/2000/svg" xmlns:xlink="http://www.w3.org/1999/xlink" x="0px" y="0px" width="24px" height="24px"
	 viewBox="0 0 24 24" enable-background="new 0 0 24 24" xml:space="preserve">
<path fill="#030104" d="M6.682,11.234l2.517-0.738V5.752H6.682V11.234z M13.578,11.234l2.518-0.738V5.752h-2.518V11.234z M3.608,21
	h18.059v-5.107H3.608V21z M12.258,16.679h1.937v2.577h-1.937V16.679z M8.834,16.679h1.936v2.577H8.834V16.679z M5.284,16.679h1.935
	v2.577H5.284V16.679z M17.403,12.868l-0.493-2.086l-6.279,2.086L9.88,10.782l-6.271,2.086v2.226h18.058v-2.226H17.403z M5.545,5.412
	c0.316-0.049,0.561-0.197,0.753-0.358c0.2-0.164,0.354-0.328,0.583-0.425c0.218-0.101,0.494-0.13,0.672-0.101
	c0.17,0.024,0.281,0.086,0.406,0.249C8.08,4.931,8.165,5.129,8.271,5.335h0.05c0.091-0.222,0.095-0.459,0.003-0.697
	C8.277,4.52,8.194,4.397,8.056,4.3C7.921,4.201,7.721,4.155,7.554,4.171C7.209,4.206,7.007,4.387,6.792,4.512
	C6.579,4.639,6.36,4.777,6.136,4.86C5.907,4.942,5.679,5,5.479,5.01C5.277,5.014,5.119,4.96,4.961,4.86
	C4.637,4.659,4.375,4.288,4.103,3.912L4.051,3.92C4.018,4.371,4.147,4.851,4.616,5.215C4.854,5.394,5.232,5.474,5.545,5.412z
	 M13.338,5.449c0.237-0.04,0.406-0.155,0.541-0.282c0.129-0.122,0.235-0.242,0.394-0.306c0.151-0.067,0.354-0.063,0.453-0.034
	c0.089,0.028,0.131,0.039,0.227,0.14c0.088,0.095,0.163,0.225,0.266,0.367h0.052c0.093-0.157,0.105-0.327,0.048-0.505
	c-0.031-0.088-0.092-0.183-0.198-0.258c-0.104-0.08-0.264-0.115-0.393-0.1c-0.264,0.033-0.396,0.182-0.544,0.272
	c-0.146,0.097-0.304,0.182-0.467,0.232c-0.163,0.041-0.322,0.07-0.44,0.071c-0.124-0.006-0.202-0.041-0.298-0.098
	c-0.204-0.115-0.405-0.356-0.643-0.605l-0.052,0.009c-0.071,0.323,0,0.674,0.348,0.953C12.81,5.441,13.104,5.501,13.338,5.449z"/>
</svg>
