<?xml version="1.0" encoding="utf-8"?>
<!-- Generator: Adobe Illustrator 15.1.0, SVG Export Plug-In . SVG Version: 6.00 Build 0)  -->
<!DOCTYPE svg PUBLIC "-//W3C//DTD SVG 1.1//EN" "http://www.w3.org/Graphics/SVG/1.1/DTD/svg11.dtd">
<svg version="1.1" id="Layer_1" xmlns="http://www.w3.org/2000/svg" xmlns:xlink="http://www.w3.org/1999/xlink" x="0px" y="0px"
	 width="24px" height="24px" viewBox="0 0 24 24" enable-background="new 0 0 24 24" xml:space="preserve">
<path fill-rule="evenodd" clip-rule="evenodd" d="M13.599,5.757c0.91,3.177,3.502,7.841,0.904,10.954c-1.004,0-2.01,0-3.015,0
	c4.084-2.083,0.857-7.363,0.201-10.854C12.129,5.508,13.191,5.683,13.599,5.757z M14.403,5.958
	c0.702,3.291,3.237,7.483,0.804,10.753c5.4-0.888,2.307-7.758,1.105-11.055c-0.636,0-1.273,0-1.909,0
	C14.364,5.799,14.282,5.826,14.403,5.958z M16.915,5.656c0,0.101,0,0.201,0,0.301c1.153,3.094,3.478,8.091,0.302,10.453
	c-0.479,0.355-1.313,0.789-2.109,0.904c-4.485,0.648-9.438,0.13-10.453-2.814c-1.467-4.255,3.704-6.849,6.834-4.924
	c0.253,0.155,0.574,0.624,0.905,0.402c-0.351-0.856-0.588-1.825-0.905-2.713C7.46,6.09,3.785,8.104,2.745,10.983
	c-1.481,4.098,1.832,7.877,5.125,8.14c3.101,0.248,7.814,0.266,9.648-0.703c4.606-2.433,3.657-8.083,1.307-12.764
	C18.188,5.656,17.553,5.656,16.915,5.656z M7.469,9.676c-0.073,0.308,0.173,0.296,0.101,0.603c-0.46,0.076-0.67,0.402-1.005,0.603
	c-0.151-0.117-0.246-0.291-0.502-0.302c-0.307,0.363-0.672,0.669-0.804,1.206c0.179,0.056,0.417,0.052,0.502,0.201
	c-0.184,0.486,0.08,1.419-0.804,1.207c-0.029,0.598,0.209,0.93,0.302,1.406c0.348,0.081,0.386-0.149,0.703-0.101
	c0.027,0.477,0.439,0.566,0.603,0.904c-0.176,0.092-0.349,0.188-0.301,0.503c0.414,0.189,0.705,0.501,1.206,0.603
	c0.258-0.009,0.144-0.392,0.402-0.401c0.313,0.122,0.637,0.234,1.105,0.201c-0.032,0.233,0.016,0.386,0.101,0.503
	c0.627,0.057,0.982-0.158,1.507-0.201c0.016-0.25-0.158-0.312-0.201-0.503c0.426-0.177,0.765-0.442,1.105-0.704
	c0.233,0.045,0.27,0.444,0.503,0.201c0.306-0.297,0.592-0.613,0.704-1.105c-0.188-0.014-0.337-0.065-0.402-0.201
	c-0.033-0.468,0.2-0.67,0.2-1.104c0.233,0.031,0.386-0.017,0.503-0.101c0.038-0.608-0.099-1.041-0.301-1.408
	c-0.308-0.073-0.296,0.173-0.604,0.101c-0.007-0.529-0.539-0.533-0.604-1.004c0.041-0.194,0.39-0.08,0.302-0.402
	c-0.468-0.236-0.846-0.562-1.407-0.704c0.048,0.316-0.125,0.411-0.301,0.502c-0.123-0.28-0.617-0.187-1.005-0.201
	C8.937,9.85,9.015,9.503,8.875,9.375C8.325,9.394,7.923,9.561,7.469,9.676z M10.685,12.893c-0.2,0.142,0.405,0.324,0.201,0.804
	c-0.146,0.242-0.845,0.288-1.105,0.101c0.024-0.177,0.172-0.229,0.402-0.201c-0.297-0.387-0.497,0.165-0.704,0.201
	c0.05-0.485-0.313-0.558-0.302-1.005c0.379-0.281,0.668,0.224,1.206,0.101c-0.183-0.286-0.587-0.351-0.804-0.603
	c0.101-0.134,0.166-0.304,0.302-0.402c-0.057-0.145-0.157-0.245-0.302-0.301c-0.651,0.354-1.264,0.746-2.01,1.005
	c-0.031,0.265,0.209,0.259,0.402,0.302c-0.122,0.447-0.526,0.613-0.905,0.804c-0.968-2.897,4.06-3.063,3.819-0.704
	C10.769,13.01,10.707,12.971,10.685,12.893z M8.373,12.49c0.411-0.047,0.015,0.271-0.101,0.302c0.084,0.284,0.618,0.119,0.804,0.302
	c0.041,0.241-0.184,0.218-0.101,0.502c-0.751-0.182-0.823,0.315-1.407,0.302c0.023-0.479,0.654-0.352,0.904-0.603
	c-0.01-0.325-0.456-0.215-0.302-0.704C8.289,12.607,8.351,12.568,8.373,12.49z M8.272,13.696c0.497,0.374,1.426,0.316,2.312,0.302
	c-0.344,1.305-2.973,1.305-3.316,0C7.604,13.898,8.394,14.253,8.272,13.696z"/>
</svg>
