<?xml version="1.0" encoding="UTF-8" standalone="yes"?>
<svg xmlns="http://www.w3.org/2000/svg" xmlns:xlink="http://www.w3.org/1999/xlink" width="24px" height="24px" viewBox="0 0 18 18" version="1.1">
  <g id="surface1">
    <path style=" stroke:none;fill-rule:nonzero;fill:rgb(0%,0%,0%);fill-opacity:1;" d="M 12.824219 0 L 3.472656 0 C 3.054688 0 2.714844 0.453125 2.714844 0.871094 L 2.714844 14.9375 L 13.578125 14.9375 L 13.578125 8.488281 L 13.917969 8.488281 L 13.921875 13.320312 C 13.914062 13.398438 13.859375 14.085938 14.265625 14.53125 C 14.472656 14.761719 14.765625 14.882812 15.113281 14.882812 C 15.441406 14.882812 15.71875 14.765625 15.917969 14.542969 C 16.308594 14.109375 16.269531 13.421875 16.257812 13.273438 L 16.335938 5.757812 L 15.65625 5.753906 L 15.578125 13.304688 L 15.582031 13.324219 C 15.589844 13.433594 15.597656 13.882812 15.414062 14.085938 C 15.367188 14.136719 15.289062 14.203125 15.113281 14.203125 C 14.910156 14.203125 14.820312 14.128906 14.769531 14.074219 C 14.59375 13.886719 14.585938 13.511719 14.597656 13.355469 L 14.597656 7.808594 L 13.578125 7.808594 L 13.578125 0.871094 C 13.578125 0.453125 13.242188 0 12.824219 0 Z M 11.882812 6.109375 L 4.753906 6.109375 L 4.753906 2.035156 L 11.882812 2.035156 Z M 8.878906 13.332031 C 8.445312 12.746094 7.710938 11.644531 7.636719 10.859375 C 7.636719 10.859375 7.652344 12.390625 8.183594 13.558594 C 8.160156 13.558594 8.144531 13.5625 8.132812 13.5625 C 7.945312 13.5625 6.355469 13.523438 6.339844 11.367188 C 6.324219 9.210938 8.464844 7.988281 8.464844 7.988281 C 8.03125 10.164062 9.855469 10.269531 9.867188 11.765625 C 9.875 12.632812 9.355469 13.09375 8.878906 13.332031 Z M 8.878906 13.332031 "/>
    <path style=" stroke:none;fill-rule:nonzero;fill:rgb(0%,0%,0%);fill-opacity:1;" d="M 1.359375 15.617188 L 14.597656 15.617188 L 14.597656 17.992188 L 1.359375 17.992188 Z M 1.359375 15.617188 "/>
    <path style=" stroke:none;fill-rule:nonzero;fill:rgb(0%,0%,0%);fill-opacity:1;" d="M 13.917969 2.710938 L 14.230469 2.820312 C 14.21875 3.183594 14.261719 3.75 14.601562 4.144531 C 14.773438 4.347656 15.027344 4.476562 15.277344 4.539062 L 15.277344 5.433594 L 16.636719 5.433594 L 16.636719 2.230469 L 13.917969 1.363281 Z M 15.277344 4.199219 C 15.109375 4.148438 14.972656 4.0625 14.855469 3.925781 C 14.617188 3.648438 14.570312 3.246094 14.574219 2.941406 L 15.277344 3.191406 Z M 15.277344 4.199219 "/>
  </g>
</svg>