<?xml version="1.0" encoding="utf-8"?>
<!-- Generator: Adobe Illustrator 15.1.0, SVG Export Plug-In . SVG Version: 6.00 Build 0)  -->
<!DOCTYPE svg PUBLIC "-//W3C//DTD SVG 1.1//EN" "http://www.w3.org/Graphics/SVG/1.1/DTD/svg11.dtd">
<svg version="1.1" id="Layer_1" xmlns="http://www.w3.org/2000/svg" xmlns:xlink="http://www.w3.org/1999/xlink" x="0px" y="0px"
	 width="24px" height="24px" viewBox="0 0 24 24" enable-background="new 0 0 24 24" xml:space="preserve">
<path d="M20.223,16.006l-1.828-1.828l-0.148-0.149l-3.721-3.721c0.75-0.905,0.715-2.25-0.133-3.098l-4.151-4.149l-0.148-0.148
	L8.266,1.084c-0.082-0.081-0.215-0.081-0.297,0c-0.082,0.083-0.082,0.215,0,0.297l1.829,1.827l-0.55,0.55L7.419,1.931
	c-0.082-0.082-0.215-0.082-0.297,0c-0.082,0.083-0.082,0.215,0,0.297l1.827,1.828L8.4,4.605L6.572,2.779
	c-0.083-0.083-0.215-0.083-0.296,0c-0.083,0.081-0.083,0.214,0,0.296l1.827,1.827l-0.549,0.55L5.726,3.625
	c-0.083-0.081-0.215-0.081-0.297,0c-0.083,0.082-0.083,0.215,0,0.297L7.257,5.75L6.704,6.302L4.877,4.475
	c-0.083-0.083-0.215-0.083-0.297,0c-0.082,0.083-0.082,0.215,0,0.296l1.827,1.828l-0.55,0.549L4.031,5.321
	c-0.083-0.083-0.216-0.083-0.297,0c-0.082,0.081-0.082,0.215,0,0.296l1.827,1.827L5.011,7.996L3.182,6.168
	c-0.081-0.082-0.214-0.082-0.296,0c-0.082,0.082-0.082,0.216,0,0.297l1.828,1.828l-0.55,0.55L2.335,7.015
	c-0.081-0.083-0.214-0.083-0.296,0c-0.082,0.082-0.082,0.214,0,0.296L3.867,9.14l0.148,0.148l3.722,3.722
	c-0.753,0.905-0.716,2.25,0.132,3.099l4.15,4.147l0.149,0.149l1.829,1.827c0.083,0.083,0.215,0.083,0.296,0
	c0.084-0.081,0.084-0.214,0-0.297l-1.827-1.827l0.549-0.551l1.828,1.829c0.082,0.082,0.215,0.082,0.297,0
	c0.082-0.083,0.082-0.216,0-0.297l-1.828-1.828l0.55-0.55l1.827,1.826c0.084,0.084,0.215,0.084,0.299,0
	c0.082-0.081,0.082-0.214,0-0.296l-1.83-1.826l0.551-0.55l1.826,1.827c0.084,0.083,0.217,0.083,0.297,0
	c0.084-0.082,0.084-0.215,0-0.296l-1.826-1.829l0.551-0.553l1.828,1.827c0.082,0.083,0.215,0.083,0.297,0
	c0.082-0.081,0.082-0.214,0-0.296l-1.828-1.828l0.549-0.55l1.828,1.828c0.082,0.082,0.215,0.082,0.295,0
	c0.084-0.082,0.084-0.216,0-0.297l-1.826-1.828l0.551-0.55l1.828,1.827c0.082,0.083,0.215,0.083,0.297,0
	c0.082-0.082,0.082-0.216,0-0.296l-1.828-1.827l0.549-0.551l1.828,1.827c0.082,0.082,0.217,0.082,0.297,0
	C20.303,16.219,20.303,16.086,20.223,16.006z M13.625,13.706c0.266,0.122,0.488,0.272,0.648,0.433
	c0.109,0.109,0.285,0.323,0.232,0.521c-0.076,0.281-0.596,0.442-1.24,0.386l-0.248-0.02l0.021,0.247
	c0.055,0.644-0.109,1.166-0.388,1.24c-0.196,0.053-0.41-0.122-0.522-0.23c-0.158-0.161-0.31-0.386-0.433-0.649l-0.105-0.226
	l-0.205,0.143c-0.528,0.369-1.062,0.491-1.267,0.286c-0.205-0.205-0.084-0.738,0.286-1.268l0.144-0.204l-0.035-0.017l0.682-0.681
	c-0.123,0.302-0.061,0.664,0.184,0.907c0.327,0.329,0.857,0.329,1.186,0c0.327-0.327,0.327-0.857,0-1.186
	c-0.245-0.243-0.604-0.306-0.908-0.183l0.68-0.682l0.017,0.033l0.205-0.143c0.528-0.371,1.061-0.491,1.266-0.288
	c0.205,0.207,0.086,0.739-0.285,1.269l-0.144,0.205L13.625,13.706z M11.677,13.686c0.164-0.162,0.431-0.162,0.593,0
	c0.162,0.163,0.162,0.431,0,0.593c-0.163,0.163-0.43,0.163-0.593,0C11.515,14.116,11.515,13.849,11.677,13.686z M8.437,11.187
	c-0.205-0.206-0.085-0.738,0.287-1.267l0.143-0.205L8.639,9.61C8.375,9.487,8.153,9.336,7.992,9.176
	c-0.111-0.11-0.287-0.324-0.233-0.521c0.075-0.28,0.597-0.441,1.24-0.386L9.248,8.29L9.226,8.041
	C9.17,7.397,9.332,6.876,9.612,6.801c0.198-0.053,0.412,0.124,0.521,0.233c0.16,0.159,0.31,0.383,0.434,0.647l0.105,0.227
	l0.205-0.143c0.529-0.37,1.063-0.491,1.268-0.287c0.204,0.206,0.085,0.738-0.287,1.267L11.716,8.95l0.226,0.105
	c0.264,0.123,0.489,0.273,0.648,0.433c0.111,0.11,0.286,0.324,0.232,0.521c-0.078,0.28-0.596,0.442-1.239,0.387l-0.249-0.022
	l0.02,0.249c0.056,0.645-0.106,1.166-0.386,1.24c-0.199,0.053-0.412-0.123-0.522-0.233c-0.158-0.159-0.309-0.384-0.431-0.647
	l-0.106-0.227L9.704,10.9C9.175,11.27,8.641,11.391,8.437,11.187z M10.883,9.926c0.327-0.327,0.327-0.858,0-1.186
	c-0.327-0.328-0.858-0.328-1.186,0c-0.327,0.327-0.327,0.858,0,1.186C10.025,10.253,10.554,10.253,10.883,9.926z M9.994,9.037
	c0.164-0.163,0.431-0.163,0.592,0c0.165,0.163,0.165,0.43,0,0.593c-0.162,0.163-0.429,0.163-0.592,0
	C9.83,9.467,9.83,9.199,9.994,9.037z"/>
</svg>
