<?xml version="1.0" encoding="UTF-8" standalone="no"?>
<!-- Generator: Adobe Illustrator 16.0.0, SVG Export Plug-In . SVG Version: 6.00 Build 0)  -->

<svg
   xmlns:dc="http://purl.org/dc/elements/1.1/"
   xmlns:cc="http://creativecommons.org/ns#"
   xmlns:rdf="http://www.w3.org/1999/02/22-rdf-syntax-ns#"
   xmlns:svg="http://www.w3.org/2000/svg"
   xmlns="http://www.w3.org/2000/svg"
   xmlns:sodipodi="http://sodipodi.sourceforge.net/DTD/sodipodi-0.dtd"
   xmlns:inkscape="http://www.inkscape.org/namespaces/inkscape"
   version="1.1"
   id="Capa_1"
   x="0px"
   y="0px"
   width="24"
   height="24"
   viewBox="0 0 24.000001 24.000001"
   xml:space="preserve"
   inkscape:version="0.48.5 r10040"
   sodipodi:docname="fast-food8.svg"><metadata
     id="metadata3189"><rdf:RDF><cc:Work
         rdf:about=""><dc:format>image/svg+xml</dc:format><dc:type
           rdf:resource="http://purl.org/dc/dcmitype/StillImage" /><dc:title></dc:title></cc:Work></rdf:RDF></metadata><defs
     id="defs3187" /><sodipodi:namedview
     pagecolor="#ffffff"
     bordercolor="#666666"
     borderopacity="1"
     objecttolerance="10"
     gridtolerance="10"
     guidetolerance="10"
     inkscape:pageopacity="0"
     inkscape:pageshadow="2"
     inkscape:window-width="657"
     inkscape:window-height="480"
     id="namedview3185"
     showgrid="false"
     inkscape:zoom="7.8290873"
     inkscape:cx="15.072"
     inkscape:cy="15.072"
     inkscape:window-x="190"
     inkscape:window-y="209"
     inkscape:window-maximized="0"
     inkscape:current-layer="Capa_1" /><g
     id="g3137"
     transform="matrix(0.7732743,0,0,0.7732743,0.34571808,0.34518351)"><g
       id="g3139"><g
         id="g3141"><circle
           cx="8.8669996"
           cy="18.122"
           r="0.87800002"
           id="circle3143"
           sodipodi:cx="8.8669996"
           sodipodi:cy="18.122"
           sodipodi:rx="0.87800002"
           sodipodi:ry="0.87800002"
           d="m 9.7449996,18.122 c 0,0.484906 -0.393094,0.878 -0.878,0.878 -0.484906,0 -0.878,-0.393094 -0.878,-0.878 0,-0.484906 0.393094,-0.878 0.878,-0.878 0.484906,0 0.878,0.393094 0.878,0.878 z" /><path
           d="m 12.204,16.724 c -0.452,0 -0.82,0.369 -0.82,0.823 0,0.455 0.368,0.822 0.82,0.822 0.456,0 0.825,-0.367 0.825,-0.822 0,-0.454 -0.369,-0.823 -0.825,-0.823 z"
           id="path3145"
           inkscape:connector-curvature="0" /><circle
           cx="11.009"
           cy="19.424"
           r="0.74900001"
           id="circle3147"
           sodipodi:cx="11.009"
           sodipodi:cy="19.424"
           sodipodi:rx="0.74900001"
           sodipodi:ry="0.74900001"
           d="m 11.758,19.424 c 0,0.413661 -0.335339,0.749 -0.749,0.749 -0.413661,0 -0.749,-0.335339 -0.749,-0.749 0,-0.413661 0.335339,-0.749 0.749,-0.749 0.413661,0 0.749,0.335339 0.749,0.749 z" /><circle
           cx="15.011"
           cy="18.774"
           r="0.65100002"
           id="circle3149"
           sodipodi:cx="15.011"
           sodipodi:cy="18.774"
           sodipodi:rx="0.65100002"
           sodipodi:ry="0.65100002"
           d="m 15.662,18.774 c 0,0.359538 -0.291463,0.651 -0.651,0.651 -0.359538,0 -0.651,-0.291462 -0.651,-0.651 0,-0.359537 0.291462,-0.651 0.651,-0.651 0.359537,0 0.651,0.291463 0.651,0.651 z" /><circle
           cx="6.7870002"
           cy="19.813"
           r="0.56800002"
           id="circle3151"
           sodipodi:cx="6.7870002"
           sodipodi:cy="19.813"
           sodipodi:rx="0.56800002"
           sodipodi:ry="0.56800002"
           d="m 7.3550002,19.813 c 0,0.313697 -0.2543023,0.568 -0.568,0.568 -0.3136978,0 -0.568,-0.254303 -0.568,-0.568 0,-0.313698 0.2543022,-0.568 0.568,-0.568 0.3136977,0 0.568,0.254302 0.568,0.568 z" /><path
           d="M 27.782,8.335 C 27.595,8.122 27.324,8 27.04,8 H 20.413 V 0.99 c 0,-0.328 -0.162,-0.634 -0.433,-0.818 -0.271,-0.184 -0.614,-0.223 -0.921,-0.104 l -7.215,2.83 c -0.51,0.2 -0.762,0.775 -0.561,1.285 0.199,0.51 0.775,0.761 1.284,0.561 L 18.428,2.445 V 8 h -6.626 c -0.279,0 -0.545,0.117 -0.733,0.323 -0.188,0.206 -0.28,0.482 -0.253,0.761 l 0.505,5.336 c -0.013,0 -0.026,-0.002 -0.039,-0.002 -4.121,0 -7.561,3.222 -7.829,7.336 -0.011,0.156 0.012,0.311 0.05,0.461 -0.803,0.253 -1.389,0.996 -1.389,1.882 0,0.931 0.643,1.705 1.506,1.918 -0.075,0.233 -0.099,0.48 -0.053,0.729 0.179,0.957 0.534,1.864 1.056,2.701 0.272,0.437 0.749,0.699 1.262,0.699 h 10.792 c 0.425,0 0.816,-0.188 1.096,-0.496 h 6.823 c 0.501,0 0.923,-0.372 0.981,-0.869 L 28.02,9.112 C 28.058,8.831 27.97,8.548 27.782,8.335 z m -16.499,7.569 c 3.372,0 6.125,2.628 6.343,5.946 H 4.938 c 0.217,-3.318 2.969,-5.946 6.345,-5.946 z m 5.396,12.753 H 5.885 C 5.474,27.998 5.178,27.261 5.03,26.469 h 12.504 c -0.148,0.793 -0.445,1.53 -0.855,2.188 z m 0.732,-4.063 H 12.286 5.152 c -0.274,0 -0.496,-0.222 -0.496,-0.496 0,-0.273 0.222,-0.496 0.496,-0.496 h 7.04 5.219 c 0.274,0 0.496,0.223 0.496,0.496 0,0.274 -0.221,0.496 -0.496,0.496 z"
           id="path3153"
           inkscape:connector-curvature="0" /></g></g></g><g
     id="g3155"
     transform="translate(0,-6.1439994)" /><g
     id="g3157"
     transform="translate(0,-6.1439994)" /><g
     id="g3159"
     transform="translate(0,-6.1439994)" /><g
     id="g3161"
     transform="translate(0,-6.1439994)" /><g
     id="g3163"
     transform="translate(0,-6.1439994)" /><g
     id="g3165"
     transform="translate(0,-6.1439994)" /><g
     id="g3167"
     transform="translate(0,-6.1439994)" /><g
     id="g3169"
     transform="translate(0,-6.1439994)" /><g
     id="g3171"
     transform="translate(0,-6.1439994)" /><g
     id="g3173"
     transform="translate(0,-6.1439994)" /><g
     id="g3175"
     transform="translate(0,-6.1439994)" /><g
     id="g3177"
     transform="translate(0,-6.1439994)" /><g
     id="g3179"
     transform="translate(0,-6.1439994)" /><g
     id="g3181"
     transform="translate(0,-6.1439994)" /><g
     id="g3183"
     transform="translate(0,-6.1439994)" /></svg>