<?xml version="1.0" encoding="UTF-8" standalone="no"?>
<!-- Generated by IcoMoon.io -->

<svg
   xmlns:dc="http://purl.org/dc/elements/1.1/"
   xmlns:cc="http://creativecommons.org/ns#"
   xmlns:rdf="http://www.w3.org/1999/02/22-rdf-syntax-ns#"
   xmlns:svg="http://www.w3.org/2000/svg"
   xmlns="http://www.w3.org/2000/svg"
   xmlns:sodipodi="http://sodipodi.sourceforge.net/DTD/sodipodi-0.dtd"
   xmlns:inkscape="http://www.inkscape.org/namespaces/inkscape"
   version="1.1"
   width="24"
   height="24"
   viewBox="0 0 24 24"
   id="svg3086"
   inkscape:version="0.48.5 r10040"
   sodipodi:docname="female.svg">
  <metadata
     id="metadata3094">
    <rdf:RDF>
      <cc:Work
         rdf:about="">
        <dc:format>image/svg+xml</dc:format>
        <dc:type
           rdf:resource="http://purl.org/dc/dcmitype/StillImage" />
      </cc:Work>
    </rdf:RDF>
  </metadata>
  <defs
     id="defs3092" />
  <sodipodi:namedview
     pagecolor="#ffffff"
     bordercolor="#666666"
     borderopacity="1"
     objecttolerance="10"
     gridtolerance="10"
     guidetolerance="10"
     inkscape:pageopacity="0"
     inkscape:pageshadow="2"
     inkscape:window-width="657"
     inkscape:window-height="480"
     id="namedview3090"
     showgrid="false"
     inkscape:zoom="8.4285714"
     inkscape:cx="10"
     inkscape:cy="14"
     inkscape:window-x="0"
     inkscape:window-y="27"
     inkscape:window-maximized="0"
     inkscape:current-layer="svg3086" />
  <path
     d="m 20.274331,13.861311 q 0,0.517146 -0.362416,0.878734 -0.362416,0.361588 -0.878734,0.362416 -0.659464,0 -1.034291,-0.556035 l -2.934905,-4.408564 h -0.581686 v 1.706995 l 3.193064,5.313775 q 0.116669,0.193619 0.116669,0.426955 0,0.335938 -0.245748,0.581686 -0.245748,0.245747 -0.581686,0.245747 h -2.482299 v 3.516591 q 0,0.594924 -0.426955,1.021053 -0.426956,0.426128 -1.021053,0.426955 h -2.068582 q -0.594925,0 -1.0210529,-0.426955 -0.426128,-0.426956 -0.4269555,-1.021053 V 18.41302 H 7.0354014 q -0.3359379,0 -0.5816855,-0.245747 -0.2457476,-0.245748 -0.2457476,-0.581686 0,-0.232508 0.116668,-0.426955 L 9.5177006,11.844857 V 10.137862 H 8.9360152 L 6.00111,14.546426 q -0.3748272,0.556035 -1.0342914,0.556035 -0.5171456,0 -0.8787339,-0.362416 -0.3615883,-0.362416 -0.3624157,-0.878734 0,-0.374827 0.2068583,-0.685115 L 7.2422596,8.2115981 Q 8.1863608,6.8281299 9.5177006,6.8281299 h 4.9645984 q 1.33134,0 2.275441,1.3834682 l 3.309733,4.9645979 q 0.206858,0.310288 0.206858,0.685115 z M 14.896016,3.5183976 q 0,1.2022602 -0.846464,2.0495517 Q 13.203088,6.4152408 12,6.4144134 10.796912,6.413586 9.9504481,5.5679493 9.1039841,4.7223127 9.1039841,3.5183976 q 0,-1.2039152 0.846464,-2.0495518 Q 10.796912,0.62320915 12,0.62238165 q 1.203088,-8.274e-4 2.049552,0.84646415 0.846464,0.8472915 0.846464,2.0495518 z"
     id="path3088"
     inkscape:connector-curvature="0"
     style="fill:#444444" />
</svg>
