<?xml version="1.0" encoding="UTF-8" standalone="no"?>
<!-- Generated by IcoMoon.io -->

<svg
   xmlns:dc="http://purl.org/dc/elements/1.1/"
   xmlns:cc="http://creativecommons.org/ns#"
   xmlns:rdf="http://www.w3.org/1999/02/22-rdf-syntax-ns#"
   xmlns:svg="http://www.w3.org/2000/svg"
   xmlns="http://www.w3.org/2000/svg"
   xmlns:sodipodi="http://sodipodi.sourceforge.net/DTD/sodipodi-0.dtd"
   xmlns:inkscape="http://www.inkscape.org/namespaces/inkscape"
   version="1.1"
   width="24"
   height="24"
   viewBox="0 0 24 24"
   id="svg3096"
   inkscape:version="0.48.5 r10040"
   sodipodi:docname="fire.svg">
  <metadata
     id="metadata3104">
    <rdf:RDF>
      <cc:Work
         rdf:about="">
        <dc:format>image/svg+xml</dc:format>
        <dc:type
           rdf:resource="http://purl.org/dc/dcmitype/StillImage" />
      </cc:Work>
    </rdf:RDF>
  </metadata>
  <defs
     id="defs3102" />
  <sodipodi:namedview
     pagecolor="#ffffff"
     bordercolor="#666666"
     borderopacity="1"
     objecttolerance="10"
     gridtolerance="10"
     guidetolerance="10"
     inkscape:pageopacity="0"
     inkscape:pageshadow="2"
     inkscape:window-width="657"
     inkscape:window-height="480"
     id="namedview3100"
     showgrid="false"
     inkscape:zoom="7.375"
     inkscape:cx="16"
     inkscape:cy="16"
     inkscape:window-x="0"
     inkscape:window-y="27"
     inkscape:window-maximized="0"
     inkscape:current-layer="svg3096" />
  <path
     d="M 7.8062702,23.051347 C 6.3330335,19.986075 7.1176547,18.229657 8.2496917,16.57546 9.489476,14.763095 9.8092644,12.96938 9.8092644,12.96938 c 0,0 0.9745606,1.266721 0.5850126,3.248304 1.721884,-1.916659 2.046507,-4.970189 1.786809,-6.139523 3.892024,2.719928 5.5552,8.608731 3.313919,12.973186 11.92265,-6.745946 2.965813,-16.838964 1.40624,-17.9765265 0.520088,1.1368718 0.618165,3.0618183 -0.43168,3.995628 C 14.692426,2.3300278 10.29689,0.94865255 10.29689,0.94865255 10.816978,4.4248834 8.412694,8.2257375 6.0947463,11.065845 6.0132451,9.6796345 5.9269092,8.7230326 5.1982337,7.3969123 5.0345408,9.9151595 3.110285,11.967192 2.5895065,14.490274 c -0.7058827,3.416141 0.5283761,5.917811 5.2181451,8.560382 z"
     id="path3098"
     inkscape:connector-curvature="0"
     style="fill:#444444" />
</svg>
