<?xml version="1.0" encoding="utf-8"?>
<!-- Generator: Adobe Illustrator 15.1.0, SVG Export Plug-In . SVG Version: 6.00 Build 0)  -->
<!DOCTYPE svg PUBLIC "-//W3C//DTD SVG 1.1//EN" "http://www.w3.org/Graphics/SVG/1.1/DTD/svg11.dtd">
<svg version="1.1" id="Layer_1" xmlns="http://www.w3.org/2000/svg" xmlns:xlink="http://www.w3.org/1999/xlink" x="0px" y="0px"
	 width="24px" height="24px" viewBox="0 0 24 24" enable-background="new 0 0 24 24" xml:space="preserve">
<path id="path3118" inkscape:connector-curvature="0" fill="#1D1D1B" d="M4.823,14.623c0,3.689,2.991,6.681,6.681,6.681h0.394
	c3.69,0,6.682-2.991,6.682-6.681c0-0.83-0.119-1.624-0.394-2.359c-2.283,0-4.296,1.146-5.502,2.889v-2.986
	c2.243-0.457,3.93-2.437,3.93-4.815V3.216c0-0.428-0.354-0.778-0.785-0.778c-0.222,0-0.421,0.09-0.563,0.236l-1.492,1.478
	l-1.482-1.478c-0.314-0.314-0.822-0.314-1.133,0L9.653,4.175L8.136,2.674C7.994,2.529,7.794,2.438,7.574,2.438
	c-0.432,0-0.786,0.35-0.786,0.778v4.135c0,2.378,1.687,4.358,3.93,4.815v2.986c-1.206-1.743-3.219-2.889-5.502-2.889
	C4.94,12.999,4.823,13.793,4.823,14.623z"/>
</svg>
