<?xml version="1.0" encoding="utf-8"?>
<!-- Generator: Adobe Illustrator 15.1.0, SVG Export Plug-In . SVG Version: 6.00 Build 0)  -->
<!DOCTYPE svg PUBLIC "-//W3C//DTD SVG 1.1//EN" "http://www.w3.org/Graphics/SVG/1.1/DTD/svg11.dtd">
<svg version="1.1"
	 id="svg3126" xmlns:rdf="http://www.w3.org/1999/02/22-rdf-syntax-ns#" xmlns:sodipodi="http://sodipodi.sourceforge.net/DTD/sodipodi-0.dtd" xmlns:inkscape="http://www.inkscape.org/namespaces/inkscape" xmlns:cc="http://creativecommons.org/ns#" xmlns:svg="http://www.w3.org/2000/svg" xmlns:dc="http://purl.org/dc/elements/1.1/" inkscape:version="0.48.5 r10040" sodipodi:docname="food.svg"
	 xmlns="http://www.w3.org/2000/svg" xmlns:xlink="http://www.w3.org/1999/xlink" x="0px" y="0px" width="24px" height="24px"
	 viewBox="0 0 24 24" enable-background="new 0 0 24 24" xml:space="preserve">
<sodipodi:namedview  id="namedview3130" inkscape:window-maximized="0" borderopacity="1" inkscape:zoom="4.9166667" objecttolerance="10" bordercolor="#666666" guidetolerance="10" inkscape:cx="24" inkscape:cy="24" pagecolor="#ffffff" showgrid="false" gridtolerance="10" inkscape:window-height="480" inkscape:window-x="0" inkscape:current-layer="svg3126" inkscape:pageshadow="2" inkscape:pageopacity="0" inkscape:window-y="27" inkscape:window-width="657">
	</sodipodi:namedview>
<path d="M15.59,10.826c0.987,0.589,2.888,0.41,4.331-1.203c1.434-1.598,1.977-3.935,0.621-5.496V4.125
	c-0.005-0.007-0.029-0.032-0.035-0.039v0.001c-1.399-1.511-3.494-0.907-4.927,0.691c-1.446,1.612-1.607,3.731-1.079,4.832
	c-0.137,0.902-1.245,1.879-2.239,2.515c-0.767-0.528-1.733-1.46-1.834-3.334c0.073-0.749-0.148-1.527-0.662-2.101
	C9.718,6.638,9.583,6.51,9.583,6.51L5.838,3.256l-0.342,0.38L9.561,7.89L9.12,8.381L5.183,3.989L4.821,4.392l3.937,4.393
	L8.386,9.199L4.449,4.809L4.12,5.172l3.913,4.365L7.585,10.04l-3.802-4.49L3.41,5.968l3.108,4.368c0,0,0.074,0.085,0.105,0.116
	c0.452,0.441,1.021,0.648,1.582,0.632c0.004,0,0.011,0.001,0.012,0.001c1.48,0.016,2.394,1.02,2.969,1.886
	c-1.407,1.57-5.773,6.44-5.773,6.44l0.001,0.002c-0.004,0.004-0.01,0.008-0.014,0.013c-0.356,0.396-0.356,1.041,0,1.437
	c0.018,0.02,0.087,0.097,0.104,0.116c0.354,0.396,0.932,0.396,1.288,0.001c0.004-0.005,0.008-0.01,0.011-0.016l0,0.002
	c0,0,4.056-4.524,5.61-6.258c1.479,1.65,5.583,6.225,5.583,6.225l0.001-0.001c0.002,0.003,0.003,0.009,0.009,0.017
	c0.35,0.389,0.92,0.389,1.27-0.002c0.352-0.392,0.352-1.025,0-1.417c-0.006-0.006-0.01-0.008-0.015-0.012l0.001-0.001
	c0,0-4.53-5.055-5.786-6.456C14.042,12.028,14.846,10.965,15.59,10.826z M15.108,7.808c0.022-0.27,0.07-0.577,0.149-0.904
	C15.3,6.742,15.35,6.575,15.41,6.407c0.068-0.172,0.139-0.333,0.241-0.499c0.196-0.321,0.438-0.57,0.675-0.779
	c0.236-0.212,0.477-0.376,0.687-0.501c0.212-0.127,0.401-0.21,0.538-0.257c0.136-0.051,0.215-0.057,0.215-0.057
	S17.7,4.369,17.603,4.471c-0.102,0.104-0.243,0.252-0.413,0.429c-0.328,0.357-0.795,0.82-1.128,1.325
	c-0.078,0.115-0.149,0.267-0.213,0.405c-0.067,0.142-0.127,0.29-0.182,0.435c-0.114,0.289-0.208,0.568-0.289,0.811
	c-0.079,0.241-0.14,0.445-0.177,0.591c-0.039,0.146-0.034,0.232-0.026,0.232c-0.004,0.005-0.054-0.079-0.067-0.239
	C15.09,8.3,15.086,8.076,15.108,7.808z"/>
</svg>
