<?xml version="1.0" encoding="UTF-8" standalone="yes"?>
<svg xmlns="http://www.w3.org/2000/svg" xmlns:xlink="http://www.w3.org/1999/xlink" width="24px" height="24px" viewBox="0 0 18 18" version="1.1">
  <g id="surface1">
    <path style=" stroke:none;fill-rule:nonzero;fill:rgb(0%,0%,0%);fill-opacity:1;" d="M 17.773438 8.078125 L 16.902344 6.433594 L 16.640625 4.589844 C 16.546875 3.945312 16.140625 3.382812 15.550781 3.097656 L 13.882812 2.277344 L 12.589844 0.941406 C 12.136719 0.472656 11.476562 0.257812 10.828125 0.371094 L 9 0.691406 L 7.171875 0.371094 C 6.523438 0.257812 5.863281 0.472656 5.410156 0.941406 L 4.117188 2.277344 L 2.449219 3.097656 C 1.859375 3.382812 1.453125 3.945312 1.359375 4.589844 L 1.097656 6.433594 L 0.226562 8.078125 C -0.078125 8.65625 -0.078125 9.34375 0.226562 9.921875 L 1.097656 11.566406 L 1.359375 13.410156 C 1.453125 14.054688 1.859375 14.617188 2.449219 14.902344 L 4.117188 15.722656 L 5.410156 17.058594 C 5.863281 17.527344 6.523438 17.742188 7.171875 17.628906 L 9 17.308594 L 10.828125 17.628906 C 10.941406 17.648438 11.058594 17.65625 11.171875 17.65625 C 11.699219 17.65625 12.214844 17.445312 12.589844 17.058594 L 13.882812 15.722656 L 15.550781 14.902344 C 16.140625 14.617188 16.546875 14.054688 16.640625 13.410156 L 16.902344 11.566406 L 17.773438 9.921875 C 18.078125 9.34375 18.074219 8.65625 17.773438 8.078125 Z M 9 15.214844 C 5.566406 15.214844 2.785156 12.433594 2.785156 9 C 2.785156 5.566406 5.566406 2.785156 9 2.785156 C 12.433594 2.785156 15.214844 5.566406 15.214844 9 C 15.214844 12.433594 12.433594 15.214844 9 15.214844 Z M 9 15.214844 "/>
    <path style=" stroke:none;fill-rule:nonzero;fill:rgb(0%,0%,0%);fill-opacity:1;" d="M 8.945312 12.3125 C 8.945312 12.679688 8.648438 12.980469 8.277344 12.980469 C 7.910156 12.980469 7.613281 12.679688 7.613281 12.3125 C 7.613281 11.945312 7.910156 11.648438 8.277344 11.648438 C 8.648438 11.648438 8.945312 11.945312 8.945312 12.3125 Z M 8.945312 12.3125 "/>
    <path style=" stroke:none;fill-rule:nonzero;fill:rgb(0%,0%,0%);fill-opacity:1;" d="M 11.394531 12.3125 C 11.394531 12.679688 11.09375 12.980469 10.726562 12.980469 C 10.359375 12.980469 10.0625 12.679688 10.0625 12.3125 C 10.0625 11.945312 10.359375 11.648438 10.726562 11.648438 C 11.09375 11.648438 11.394531 11.945312 11.394531 12.3125 Z M 11.394531 12.3125 "/>
    <path style=" stroke:none;fill-rule:nonzero;fill:rgb(0%,0%,0%);fill-opacity:1;" d="M 12.839844 7.003906 L 6.882812 7.003906 L 6.542969 6.128906 C 6.496094 6.015625 6.417969 5.917969 6.3125 5.855469 L 5.683594 5.464844 C 5.421875 5.300781 5.074219 5.382812 4.910156 5.648438 C 4.746094 5.910156 4.828125 6.257812 5.09375 6.421875 L 5.5625 6.710938 L 7.1875 10.917969 C 7.234375 11.046875 7.359375 11.132812 7.496094 11.132812 L 11.507812 11.132812 C 11.648438 11.132812 11.769531 11.046875 11.820312 10.917969 L 13.152344 7.453125 C 13.191406 7.351562 13.179688 7.238281 13.117188 7.148438 C 13.054688 7.054688 12.949219 7.003906 12.839844 7.003906 Z M 12.839844 7.003906 "/>
  </g>
</svg>