<?xml version="1.0" encoding="utf-8"?>
<!-- Generator: Adobe Illustrator 15.1.0, SVG Export Plug-In . SVG Version: 6.00 Build 0)  -->
<!DOCTYPE svg PUBLIC "-//W3C//DTD SVG 1.1//EN" "http://www.w3.org/Graphics/SVG/1.1/DTD/svg11.dtd">
<svg version="1.1"
	 id="svg2990" xmlns:rdf="http://www.w3.org/1999/02/22-rdf-syntax-ns#" xmlns:sodipodi="http://sodipodi.sourceforge.net/DTD/sodipodi-0.dtd" xmlns:inkscape="http://www.inkscape.org/namespaces/inkscape" xmlns:cc="http://creativecommons.org/ns#" xmlns:svg="http://www.w3.org/2000/svg" xmlns:dc="http://purl.org/dc/elements/1.1/" inkscape:version="0.48.5 r10040" sodipodi:docname="gas.svg"
	 xmlns="http://www.w3.org/2000/svg" xmlns:xlink="http://www.w3.org/1999/xlink" x="0px" y="0px" width="24px" height="24px"
	 viewBox="0 0 24 24" enable-background="new 0 0 24 24" xml:space="preserve">
<path id="path2992" inkscape:connector-curvature="0" fill="#444444" d="M15.497,19.146v-8.275h0.562
	c0.312,0,0.562,0.252,0.562,0.564v5.267c0,1.351,1.09,2.444,2.435,2.444s2.435-1.094,2.435-2.444V6.575
	c0-0.53-0.218-1.008-0.565-1.351l-1.985-1.982c-0.358-0.362-0.939-0.362-1.3,0c-0.359,0.361-0.359,0.944,0,1.305l1.288,1.298
	l-0.951,0.997c-0.312,0.32-0.312,0.836,0,1.155c0.153,0.166,0.36,0.244,0.565,0.241l1.075-0.004v8.469
	c0,0.313-0.25,0.565-0.562,0.565s-0.563-0.253-0.563-0.565v-5.267c0-1.351-1.089-2.445-2.434-2.445h-0.562V4.476
	c0-0.832-0.671-1.505-1.499-1.505H6.134c-0.827,0-1.498,0.673-1.498,1.505v14.67H4.449c-0.517,0-0.936,0.423-0.936,0.941
	c0,0.521,0.419,0.941,0.936,0.941h11.236c0.517,0,0.936-0.421,0.936-0.941c0-0.519-0.419-0.941-0.936-0.941H15.497z M7.333,4.851
	H12.8c0.457,0,0.824,0.369,0.824,0.828v3.988c0,0.459-0.367,0.827-0.824,0.827H7.333c-0.457,0-0.824-0.368-0.824-0.827V5.679
	C6.509,5.22,6.875,4.851,7.333,4.851z"/>
</svg>
