<?xml version="1.0" encoding="UTF-8" standalone="yes"?>
<svg xmlns="http://www.w3.org/2000/svg" xmlns:xlink="http://www.w3.org/1999/xlink" width="24px" height="24px" viewBox="0 0 18 18" version="1.1">
  <g id="surface1">
    <path style=" stroke:none;fill-rule:nonzero;fill:rgb(0%,0%,0%);fill-opacity:1;" d="M 5.96875 3 L 12.023438 3 L 12.023438 6.335938 L 5.96875 6.335938 Z M 5.96875 3 "/>
    <path style=" stroke:none;fill-rule:nonzero;fill:rgb(0%,0%,0%);fill-opacity:1;" d="M 4.78125 7.808594 L 13.210938 7.808594 C 13.398438 7.808594 13.550781 7.65625 13.550781 7.46875 L 13.550781 1.867188 C 13.550781 1.679688 13.398438 1.527344 13.210938 1.527344 L 10.019531 1.527344 L 9.296875 0.179688 C 9.238281 0.0742188 9.132812 0.00390625 9.011719 0 C 8.890625 -0.0078125 8.777344 0.0546875 8.710938 0.15625 L 7.820312 1.527344 L 4.78125 1.527344 C 4.59375 1.527344 4.441406 1.679688 4.441406 1.867188 L 4.441406 7.46875 C 4.441406 7.65625 4.59375 7.808594 4.78125 7.808594 Z M 8.96875 1.007812 L 9.25 1.527344 L 8.632812 1.527344 Z M 5.289062 2.660156 C 5.289062 2.472656 5.441406 2.320312 5.628906 2.320312 L 12.363281 2.320312 C 12.550781 2.320312 12.703125 2.472656 12.703125 2.660156 L 12.703125 6.675781 C 12.703125 6.863281 12.550781 7.015625 12.363281 7.015625 L 5.628906 7.015625 C 5.441406 7.015625 5.289062 6.863281 5.289062 6.675781 Z M 5.289062 2.660156 "/>
    <path style=" stroke:none;fill-rule:nonzero;fill:rgb(0%,0%,0%);fill-opacity:1;" d="M 12.421875 10.863281 C 12.234375 10.863281 12.082031 11.015625 12.082031 11.203125 C 12.082031 12.949219 10.660156 14.371094 8.914062 14.371094 C 7.164062 14.371094 5.742188 12.949219 5.742188 11.203125 C 5.742188 11.015625 5.589844 10.863281 5.402344 10.863281 C 5.28125 10.863281 5.179688 10.929688 5.121094 11.027344 L 5.121094 10.613281 C 5.386719 10.488281 5.574219 10.21875 5.574219 9.902344 C 5.574219 9.464844 5.21875 9.109375 4.78125 9.109375 C 4.34375 9.109375 3.988281 9.464844 3.988281 9.902344 C 3.988281 10.21875 4.175781 10.488281 4.441406 10.613281 L 4.441406 17.652344 C 4.441406 17.839844 4.59375 17.992188 4.78125 17.992188 C 4.96875 17.992188 5.121094 17.839844 5.121094 17.652344 L 5.121094 11.835938 C 5.425781 13.65625 7.007812 15.050781 8.914062 15.050781 C 11.035156 15.050781 12.761719 13.324219 12.761719 11.203125 C 12.757812 11.015625 12.609375 10.863281 12.421875 10.863281 Z M 12.421875 10.863281 "/>
    <path style=" stroke:none;fill-rule:nonzero;fill:rgb(0%,0%,0%);fill-opacity:1;" d="M 3.933594 10.863281 C 3.746094 10.863281 3.59375 11.015625 3.59375 11.203125 C 3.59375 12.949219 2.171875 14.371094 0.425781 14.371094 C 0.238281 14.371094 0.0859375 14.523438 0.0859375 14.710938 C 0.0859375 14.898438 0.238281 15.050781 0.425781 15.050781 C 2.546875 15.050781 4.273438 13.324219 4.273438 11.203125 C 4.273438 11.015625 4.121094 10.863281 3.933594 10.863281 Z M 3.933594 10.863281 "/>
    <path style=" stroke:none;fill-rule:nonzero;fill:rgb(0%,0%,0%);fill-opacity:1;" d="M 14.003906 9.902344 C 14.003906 9.464844 13.648438 9.109375 13.210938 9.109375 C 12.777344 9.109375 12.421875 9.464844 12.421875 9.902344 C 12.421875 10.21875 12.605469 10.488281 12.875 10.617188 L 12.875 17.65625 C 12.875 17.839844 13.023438 17.992188 13.210938 17.992188 C 13.398438 17.992188 13.550781 17.839844 13.550781 17.65625 L 13.550781 10.613281 C 13.820312 10.488281 14.003906 10.21875 14.003906 9.902344 Z M 14.003906 9.902344 "/>
    <path style=" stroke:none;fill-rule:nonzero;fill:rgb(0%,0%,0%);fill-opacity:1;" d="M 17.570312 14.371094 C 15.820312 14.371094 14.402344 12.949219 14.402344 11.203125 C 14.402344 11.015625 14.25 10.863281 14.0625 10.863281 C 13.875 10.863281 13.722656 11.015625 13.722656 11.203125 C 13.722656 13.324219 15.449219 15.050781 17.570312 15.050781 C 17.757812 15.050781 17.910156 14.898438 17.910156 14.710938 C 17.910156 14.523438 17.757812 14.371094 17.570312 14.371094 Z M 17.570312 14.371094 "/>
  </g>
</svg>