<?xml version="1.0" encoding="utf-8"?>
<!-- Generator: Adobe Illustrator 15.1.0, SVG Export Plug-In . SVG Version: 6.00 Build 0)  -->
<!DOCTYPE svg PUBLIC "-//W3C//DTD SVG 1.1//EN" "http://www.w3.org/Graphics/SVG/1.1/DTD/svg11.dtd">
<svg version="1.1" id="Layer_1" xmlns="http://www.w3.org/2000/svg" xmlns:xlink="http://www.w3.org/1999/xlink" x="0px" y="0px"
	 width="24px" height="24px" viewBox="0 0 24 24" enable-background="new 0 0 24 24" xml:space="preserve">
<path fill="#030104" d="M16.224,4.537c-0.915,0-7.598,0-8.407,0c-5.548,0-8.728,14.926-4.577,14.926
	c3.502,0,3.973-4.365,8.768-4.365c3.879,0,6.155,4.31,8.743,4.31C24.897,19.407,21.773,4.537,16.224,4.537z M7.854,11.999
	c-1.536,0-2.781-1.245-2.781-2.778c0-1.533,1.245-2.778,2.781-2.778c1.534,0,2.779,1.245,2.779,2.778S9.388,11.999,7.854,11.999z
	 M14.752,9.66c-0.454-0.141-0.707-0.625-0.563-1.079c0.142-0.453,0.625-0.705,1.079-0.562c0.453,0.14,0.708,0.623,0.563,1.075
	C15.689,9.551,15.206,9.801,14.752,9.66z M17.356,11.722c-0.216,0.691-0.952,1.079-1.645,0.86c-0.692-0.216-1.077-0.952-0.858-1.646
	c0.215-0.691,0.953-1.079,1.644-0.86C17.189,10.293,17.574,11.03,17.356,11.722z M16.861,8.699
	c-0.638-0.203-0.993-0.884-0.793-1.521c0.201-0.64,0.881-0.997,1.52-0.794c0.64,0.199,0.995,0.88,0.793,1.519
	C18.184,8.541,17.503,8.899,16.861,8.699z M19.244,10.466c-0.146,0.455-0.627,0.706-1.08,0.565
	c-0.452-0.142-0.707-0.625-0.565-1.081c0.144-0.455,0.628-0.705,1.079-0.565C19.133,9.53,19.385,10.01,19.244,10.466z M9.258,9.261
	c0,0.793-0.64,1.435-1.431,1.435c-0.793,0-1.433-0.641-1.433-1.435c0-0.788,0.64-1.43,1.433-1.43
	C8.618,7.831,9.258,8.473,9.258,9.261z"/>
</svg>
