<?xml version="1.0" encoding="UTF-8" standalone="yes"?>
<svg xmlns="http://www.w3.org/2000/svg" xmlns:xlink="http://www.w3.org/1999/xlink" width="24px" height="24px" viewBox="0 0 18 18" version="1.1">
  <g id="surface1">
    <path style=" stroke:none;fill-rule:nonzero;fill:rgb(0%,0%,0%);fill-opacity:1;" d="M 17.886719 5.878906 L 15.949219 3.859375 L 16.792969 3.320312 L 16.839844 2.902344 L 16.449219 2.878906 L 15.433594 3.609375 L 14.167969 3.609375 L 13.394531 3.136719 L 13.117188 3.191406 L 13.121094 3.5 L 13.621094 4.054688 L 13.554688 4.34375 L 7.675781 4.976562 L 1.582031 4.804688 L 0.925781 5.082031 L 0.445312 5.695312 L 0.195312 7.132812 L 0.152344 8.164062 L 0 9.128906 L 0.0429688 10.089844 L 0.210938 10.125 L 0.457031 9.855469 L 0.65625 8.953125 L 0.496094 7.703125 L 0.550781 7.695312 L 0.933594 9.597656 L 0.671875 11.25 L 0.910156 14.546875 L 0.933594 14.910156 L 1.164062 15.109375 L 2.1875 15.109375 L 2.519531 15.011719 L 1.601562 13.519531 L 2.058594 11.628906 L 2.292969 11.628906 L 3.125 14.144531 L 3.550781 14.789062 L 3.761719 14.921875 L 4.890625 14.921875 L 5.039062 14.742188 L 4.058594 14.140625 L 3.398438 12.097656 L 3.5625 11.765625 L 3.953125 11.804688 L 4.195312 12.402344 L 4.550781 11.816406 L 4.894531 12.402344 L 5.183594 11.769531 L 6.039062 11.109375 L 9.074219 10.820312 L 9.585938 11.441406 L 10.015625 14.488281 L 10.242188 14.925781 L 11.273438 14.925781 L 11.386719 14.761719 L 10.757812 13.886719 L 10.683594 12.21875 L 11.023438 12.40625 L 11.378906 13.515625 L 11.835938 14.953125 L 12.039062 15.109375 L 12.964844 15.109375 L 13.039062 14.902344 L 12.769531 14.652344 L 11.898438 12.945312 L 12.097656 11.160156 L 13.078125 10.433594 L 14.5 7.789062 L 16.140625 7.03125 L 17.648438 6.859375 L 17.777344 6.71875 L 17.988281 6.125 Z M 17.886719 5.878906 "/>
  </g>
</svg>