<?xml version="1.0" encoding="UTF-8" standalone="no"?>
<!-- Generator: Adobe Illustrator 15.1.0, SVG Export Plug-In . SVG Version: 6.00 Build 0)  -->

<svg
   xmlns:dc="http://purl.org/dc/elements/1.1/"
   xmlns:cc="http://creativecommons.org/ns#"
   xmlns:rdf="http://www.w3.org/1999/02/22-rdf-syntax-ns#"
   xmlns:svg="http://www.w3.org/2000/svg"
   xmlns="http://www.w3.org/2000/svg"
   xmlns:sodipodi="http://sodipodi.sourceforge.net/DTD/sodipodi-0.dtd"
   xmlns:inkscape="http://www.inkscape.org/namespaces/inkscape"
   version="1.1"
   id="Layer_1"
   x="0px"
   y="0px"
   width="24"
   height="24"
   viewBox="0 0 24 24"
   enable-background="new 0 0 500 500"
   xml:space="preserve"
   inkscape:version="0.48.5 r10040"
   sodipodi:docname="mehre_iran.svg"><metadata
     id="metadata3287"><rdf:RDF><cc:Work
         rdf:about=""><dc:format>image/svg+xml</dc:format><dc:type
           rdf:resource="http://purl.org/dc/dcmitype/StillImage" /><dc:title></dc:title></cc:Work></rdf:RDF></metadata><defs
     id="defs3285" /><sodipodi:namedview
     pagecolor="#ffffff"
     bordercolor="#666666"
     borderopacity="1"
     objecttolerance="10"
     gridtolerance="10"
     guidetolerance="10"
     inkscape:pageopacity="0"
     inkscape:pageshadow="2"
     inkscape:window-width="657"
     inkscape:window-height="480"
     id="namedview3283"
     showgrid="false"
     inkscape:zoom="5.3400704"
     inkscape:cx="15.060533"
     inkscape:cy="8.2901502"
     inkscape:window-x="0"
     inkscape:window-y="27"
     inkscape:window-maximized="0"
     inkscape:current-layer="Layer_1" /><path
     clip-rule="evenodd"
     d="m 17.043535,5.4871179 c -0.692931,0.84336 -1.100983,1.64186 -1.942211,2.38077 0,0.12531 0,0.25061 0,0.37592 -0.626206,0.35667 -0.656279,1.45866 -1.31569,1.9422101 -0.228993,0.81516 -0.451846,1.63653 -1.065083,2.06751 -1.222152,-1.82906 -2.7773613,-3.9861701 -5.5760233,-3.8217701 0.343583,0.60271 0.887026,1.36143 0.939779,2.4434301 0.316768,0.53624 0.203431,1.29796 0.626519,1.8169 -0.176929,0.7549 0.536551,1.45779 0.438564,2.13017 0.9639003,1.50039 1.8385843,3.08999 3.5085093,3.88442 0.132697,-0.138836 0.243215,-0.299727 0.375911,-0.43856 0,-0.35505 0,-0.71004 0,-1.06509 0.05983,-0.10726 0.20788,-0.12624 0.250608,-0.2506 0.137333,-1.27303 0.365324,-2.21644 0.939779,-2.94465 0.109391,-0.91396 0.37942,-1.66723 0.939779,-2.13016 0,-0.14617 0,-0.2924 0,-0.43857 0.571887,-0.49733 0.756836,-1.5235001 1.503647,-2.0048601 0,-0.10444 0,-0.20882 0,-0.31326 1.722302,-1.76891 3.341291,-3.96323 5.889281,-4.69889 0.0351,0.0902 0.0977,0.15287 0.18796,0.18795 0.0869,0.59764 -0.42328,0.92543 -0.56387,1.50365 -0.10682,0.43925 -0.0709,1.08369 -0.43856,1.25304 -0.0517,0.17705 0.0883,0.16233 0.0627,0.31326 -0.58392,0.79436 -0.36495,2.3917401 -1.00243,3.1326001 0,0.22974 0,0.45942 0,0.68917 -0.27711,0.53743 -0.456861,1.17209 -0.501218,1.94221 -0.0837,0.0625 -0.123049,0.16935 -0.250608,0.18795 -0.04548,0.19166 0.108137,0.18426 0.06265,0.37591 -0.214144,0.0783 -0.292209,0.29259 -0.250608,0.62652 -0.521201,0.63009 -0.527153,1.3915 -1.127735,1.94221 0,0.10445 0,0.20882 0,0.31326 -0.138022,0.19617 -0.396649,0.2716 -0.375911,0.62652 -1.649376,1.587604 -3.269492,3.204588 -6.077239,3.633816 -0.138899,-0.03452 -0.08922,0.119603 -0.187956,0.125304 -1.002431,0 -2.004862,0 -3.0072933,0 -4.843998,-1.254104 -8.044823,-4.15157 -7.831493,-10.46287 0.777385,-4.2974301 3.305266,-6.8443501 7.267625,-7.9568001 0.930382,-0.15563 2.0386953,-0.1332 3.1325983,-0.12531 2.308661,0.4063 4.194485,1.23531 5.388067,2.75669 z"
     id="path3281"
     inkscape:connector-curvature="0"
     style="fill-rule:evenodd" /></svg>