<?xml version="1.0" encoding="UTF-8" standalone="no"?>
<!-- Generator: Adobe Illustrator 16.0.0, SVG Export Plug-In . SVG Version: 6.00 Build 0)  -->

<svg
   xmlns:dc="http://purl.org/dc/elements/1.1/"
   xmlns:cc="http://creativecommons.org/ns#"
   xmlns:rdf="http://www.w3.org/1999/02/22-rdf-syntax-ns#"
   xmlns:svg="http://www.w3.org/2000/svg"
   xmlns="http://www.w3.org/2000/svg"
   xmlns:sodipodi="http://sodipodi.sourceforge.net/DTD/sodipodi-0.dtd"
   xmlns:inkscape="http://www.inkscape.org/namespaces/inkscape"
   version="1.1"
   id="Capa_1"
   x="0px"
   y="0px"
   width="24"
   height="24"
   viewBox="0 0 24.000001 24.000001"
   xml:space="preserve"
   inkscape:version="0.48.5 r10040"
   sodipodi:docname="chai_ghahvekhane.svg"><metadata
     id="metadata3065"><rdf:RDF><cc:Work
         rdf:about=""><dc:format>image/svg+xml</dc:format><dc:type
           rdf:resource="http://purl.org/dc/dcmitype/StillImage" /><dc:title></dc:title></cc:Work></rdf:RDF></metadata><defs
     id="defs3063" /><sodipodi:namedview
     pagecolor="#ffffff"
     bordercolor="#666666"
     borderopacity="1"
     objecttolerance="10"
     gridtolerance="10"
     guidetolerance="10"
     inkscape:pageopacity="0"
     inkscape:pageshadow="2"
     inkscape:window-width="657"
     inkscape:window-height="480"
     id="namedview3061"
     showgrid="false"
     inkscape:zoom="2.4794409"
     inkscape:cx="22.532485"
     inkscape:cy="36.899581"
     inkscape:window-x="0"
     inkscape:window-y="27"
     inkscape:window-maximized="0"
     inkscape:current-layer="Capa_1" /><g
     id="g3027"
     transform="matrix(0.0603809,0,0,0.0603809,0.5055638,0.50560189)"><path
       d="m 325.833,343.204 c 7.203,-0.058 15.243,-9.806 20.03,-18.392 14.094,-1.94 34.693,-18.892 34.867,-38.063 0.059,-7.25 -2.963,-10.99 -5.507,-12.85 -5.008,-3.73 -11.862,-2.986 -16.963,-1.766 0.162,-3.963 0.14,-7.506 -0.023,-10.248 -6.448,0 -15.093,0 -23.807,0 -0.987,-10.41 -2.37,-23.877 -3.881,-32.881 -2.776,-16.533 -13.315,-28.152 -21.366,-37.227 -4.915,-5.565 -10.562,-8.4 -14.198,-9.783 1.649,-2.196 2.638,-3.509 2.638,-3.509 0,0 -2.092,-16.528 -28.024,-25.997 -25.991,-9.469 -60.604,15.714 -60.604,15.714 0,0 8.9,-31.55 -33.642,-70.363 l 4.514,-9.911 c 7.291,1.086 14.953,-1.673 19.711,-7.994 6.919,-9.185 5.106,-22.261 -4.113,-29.198 -9.172,-6.919 -22.249,-5.089 -29.174,4.107 -4.677,6.198 -5.281,14.099 -2.44,20.739 l -8.162,6.576 C 128.93,63.485 107.947,59.227 92,60.818 84.506,41.56 72.097,21.437 53.606,24.701 29.219,28.949 -0.908,57.467 0.021,83.411 c 0.384,11.125 6.96,19.333 14.756,25.212 5.223,3.939 10.991,6.809 15.848,8.819 -5.263,16.295 -5.24,34.025 8.267,47.218 l -4.13,5.472 93.716,70.63 4.119,-5.449 c 28.483,10.295 59.366,-19.334 79.071,-32.765 19.926,-13.628 46.765,-39.039 72.732,-6.553 1.441,-1.894 2.766,-3.671 4.031,-5.321 4.439,8.354 14.279,29.697 9.807,47.602 -2.289,9.19 -4.717,17.207 -6.832,23.609 -10.387,0 -29.662,0 -43.547,0 -1.021,18.659 6.158,79.007 33.428,81.33 0,1.336 0,2.406 0,3.126 h -52.703 v 10.038 h 152.135 v -10.038 h -54.886 c 0,-0.731 0,-1.8 0,-3.137 z m 31.661,-60.068 c 5.948,-1.777 9.875,-2.138 11.571,-0.895 1.069,0.802 1.29,2.847 1.255,4.416 -0.081,10.654 -10.178,20.762 -18.811,25.375 3.196,-9.515 5.032,-19.74 5.985,-28.896 z M 36.585,103.174 C 27.383,99.392 15.834,92.456 15.474,82.853 14.87,65.687 38.903,42.96 56.273,39.928 c 1.359,-0.238 3.556,-0.238 6.925,2.689 5.153,4.427 9.708,12.751 13.42,21.82 -8.366,3.201 -14.599,7.651 -18.881,10.753 -5.223,3.794 -14.303,14.588 -21.152,27.984 z m 76.19,-25.044 c -3.108,1.191 -7.39,3.259 -12.252,6.094 -9.638,5.612 -21.86,14.43 -29.424,25.828 -1.632,2.614 -3.997,6.46 -5.438,9.277 -1.597,3.178 -3.224,6.355 -4.595,9.475 -2.684,6.303 -4.805,12.345 -6.176,17.689 -1.272,5.315 -1.736,9.899 -1.411,13.112 0.261,3.224 1.388,4.996 1.388,4.996 0,0 -0.401,-0.296 -1.162,-0.872 -0.703,-0.616 -1.812,-1.685 -2.632,-3.306 -1.83,-3.201 -3.329,-8.435 -3.416,-14.622 -0.151,-6.21 0.772,-13.443 3.05,-20.774 1.104,-3.689 2.423,-7.401 4.224,-11.061 1.998,-3.974 3.34,-6.89 5.949,-10.759 C 65.754,96.02 72.214,90.356 78.784,86.232 85.36,82.127 92,79.403 97.879,77.822 c 5.868,-1.632 10.934,-2.155 14.512,-2.033 3.643,0.012 5.595,1.249 5.415,1.342 0,-0.203 -1.912,-0.284 -5.031,0.999 z m 155.092,240.932 c -5.938,-13.711 -10.201,-50.844 -10.201,-50.844 0,0 12.049,33.369 14.779,42.617 2.73,9.26 14.732,22.389 14.732,22.389 0,0 -13.373,-0.465 -19.31,-14.162 z"
       id="path3029"
       inkscape:connector-curvature="0" /></g><g
     id="g3031"
     transform="translate(0,-356.731)" /><g
     id="g3033"
     transform="translate(0,-356.731)" /><g
     id="g3035"
     transform="translate(0,-356.731)" /><g
     id="g3037"
     transform="translate(0,-356.731)" /><g
     id="g3039"
     transform="translate(0,-356.731)" /><g
     id="g3041"
     transform="translate(0,-356.731)" /><g
     id="g3043"
     transform="translate(0,-356.731)" /><g
     id="g3045"
     transform="translate(0,-356.731)" /><g
     id="g3047"
     transform="translate(0,-356.731)" /><g
     id="g3049"
     transform="translate(0,-356.731)" /><g
     id="g3051"
     transform="translate(0,-356.731)" /><g
     id="g3053"
     transform="translate(0,-356.731)" /><g
     id="g3055"
     transform="translate(0,-356.731)" /><g
     id="g3057"
     transform="translate(0,-356.731)" /><g
     id="g3059"
     transform="translate(0,-356.731)" /></svg>