<?xml version="1.0" encoding="UTF-8" standalone="yes"?>
<svg xmlns="http://www.w3.org/2000/svg" xmlns:xlink="http://www.w3.org/1999/xlink" width="24px" height="24px" viewBox="0 0 18 18" version="1.1">
  <g id="surface1">
    <path style=" stroke:none;fill-rule:nonzero;fill:rgb(0%,0%,0%);fill-opacity:1;" d="M 5.925781 4.835938 C 4.875 4.835938 4.019531 5.691406 4.019531 6.742188 C 4.019531 7.792969 4.875 8.648438 5.925781 8.648438 C 6.976562 8.648438 7.832031 7.792969 7.832031 6.742188 C 7.832031 5.691406 6.976562 4.835938 5.925781 4.835938 Z M 5.925781 8.0625 C 5.199219 8.0625 4.605469 7.46875 4.605469 6.742188 C 4.605469 6.011719 5.199219 5.421875 5.925781 5.421875 C 6.65625 5.421875 7.246094 6.011719 7.246094 6.742188 C 7.246094 7.46875 6.65625 8.0625 5.925781 8.0625 Z M 5.925781 8.0625 "/>
    <path style=" stroke:none;fill-rule:nonzero;fill:rgb(0%,0%,0%);fill-opacity:1;" d="M 5.925781 5.925781 C 5.476562 5.925781 5.109375 6.289062 5.109375 6.742188 C 5.109375 7.191406 5.476562 7.558594 5.925781 7.558594 C 6.375 7.558594 6.742188 7.191406 6.742188 6.742188 C 6.742188 6.289062 6.375 5.925781 5.925781 5.925781 Z M 5.925781 6.972656 C 5.800781 6.972656 5.695312 6.867188 5.695312 6.742188 C 5.695312 6.613281 5.800781 6.511719 5.925781 6.511719 C 6.054688 6.511719 6.15625 6.613281 6.15625 6.742188 C 6.15625 6.867188 6.054688 6.972656 5.925781 6.972656 Z M 5.925781 6.972656 "/>
    <path style=" stroke:none;fill-rule:nonzero;fill:rgb(0%,0%,0%);fill-opacity:1;" d="M 17.984375 10.03125 C 17.960938 9.949219 17.90625 9.890625 17.835938 9.855469 C 17.832031 9.847656 17.832031 9.835938 17.828125 9.828125 C 17.308594 8.527344 15.789062 8.089844 15.726562 8.074219 C 15.71875 8.070312 15.710938 8.070312 15.703125 8.070312 C 15.972656 7.574219 16.128906 7.089844 16.167969 6.625 C 16.179688 6.59375 16.179688 6.558594 16.179688 6.527344 C 16.199219 6.164062 16.148438 5.808594 16.027344 5.464844 C 15.449219 3.84375 13.46875 3.121094 13.386719 3.089844 C 13.347656 3.078125 13.300781 3.070312 13.257812 3.074219 L 5.898438 3.808594 C 4.292969 3.824219 2.992188 5.132812 2.992188 6.742188 C 2.992188 8.359375 4.308594 9.675781 5.925781 9.675781 C 6.019531 9.675781 6.113281 9.667969 6.207031 9.660156 C 5.921875 9.945312 5.699219 10.289062 5.550781 10.671875 C 5.066406 9.714844 4.078125 9.054688 2.933594 9.054688 C 1.316406 9.054688 0 10.371094 0 11.988281 C 0 12.847656 0.371094 13.617188 0.960938 14.152344 C 0.960938 14.15625 0.964844 14.15625 0.964844 14.15625 C 0.964844 14.160156 0.964844 14.160156 0.964844 14.160156 C 1.101562 14.28125 1.246094 14.390625 1.398438 14.484375 C 1.40625 14.492188 1.417969 14.496094 1.425781 14.5 C 1.867188 14.765625 2.382812 14.921875 2.933594 14.921875 C 4.179688 14.921875 5.242188 14.140625 5.667969 13.046875 C 6.152344 14.003906 7.140625 14.664062 8.285156 14.664062 C 8.5625 14.664062 8.832031 14.621094 9.085938 14.550781 C 9.085938 14.546875 9.085938 14.546875 9.085938 14.546875 L 17.144531 12.894531 C 17.226562 12.878906 17.296875 12.828125 17.339844 12.757812 C 17.890625 11.84375 18.089844 11.007812 17.949219 10.269531 C 17.992188 10.199219 18.011719 10.113281 17.984375 10.03125 Z M 17.386719 11.03125 C 17.324219 11.015625 17.261719 11.011719 17.199219 11.035156 C 15.933594 11.535156 14.410156 12.148438 14.066406 12.347656 C 13.804688 12.40625 12.394531 12.351562 11.710938 12.324219 C 11.488281 12.316406 11.308594 12.308594 11.160156 12.304688 C 11.199219 12.117188 11.21875 11.925781 11.21875 11.730469 C 11.21875 11.664062 11.214844 11.597656 11.210938 11.53125 C 12.265625 11.226562 13.46875 10.988281 13.695312 11.09375 C 14.117188 11.375 15.863281 10.960938 17.394531 10.511719 C 17.414062 10.679688 17.410156 10.851562 17.386719 11.03125 Z M 9.605469 11.730469 C 9.605469 12.457031 9.011719 13.050781 8.285156 13.050781 C 7.558594 13.050781 6.964844 12.457031 6.964844 11.730469 C 6.964844 11 7.558594 10.410156 8.285156 10.410156 C 8.453125 10.410156 8.613281 10.445312 8.761719 10.5 L 8.515625 10.949219 C 8.441406 10.925781 8.367188 10.910156 8.285156 10.910156 C 7.835938 10.910156 7.46875 11.277344 7.46875 11.730469 C 7.46875 12.179688 7.835938 12.546875 8.285156 12.546875 C 8.734375 12.546875 9.101562 12.179688 9.101562 11.730469 C 9.101562 11.675781 9.09375 11.621094 9.085938 11.570312 L 9.503906 11.226562 C 9.570312 11.382812 9.605469 11.550781 9.605469 11.730469 Z M 8.230469 11.949219 C 8.128906 11.921875 8.054688 11.835938 8.054688 11.730469 C 8.054688 11.628906 8.117188 11.546875 8.207031 11.515625 L 8.164062 11.585938 C 8.101562 11.707031 8.128906 11.855469 8.230469 11.949219 Z M 9.625 10.375 C 9.601562 10.347656 9.570312 10.324219 9.542969 10.300781 L 9.761719 9.90625 C 9.835938 9.964844 9.902344 10.03125 9.96875 10.097656 Z M 15.035156 4.914062 C 13.585938 5.339844 11.9375 5.714844 11.664062 5.617188 C 11.222656 5.324219 9.75 5.671875 8.75 5.960938 C 8.699219 5.773438 8.628906 5.59375 8.542969 5.421875 L 10.636719 5.421875 C 10.660156 5.421875 10.683594 5.417969 10.703125 5.414062 L 12.53125 4.96875 L 14.53125 4.421875 C 14.710938 4.566406 14.882812 4.730469 15.035156 4.914062 Z M 15.476562 5.667969 C 15.550781 5.875 15.585938 6.09375 15.59375 6.316406 C 12.527344 7.054688 11.875 7.277344 11.710938 7.359375 C 11.457031 7.417969 10.042969 7.363281 9.355469 7.335938 C 9.128906 7.328125 8.949219 7.320312 8.804688 7.316406 C 8.839844 7.128906 8.859375 6.9375 8.859375 6.742188 C 8.859375 6.675781 8.855469 6.609375 8.851562 6.542969 C 9.90625 6.238281 11.113281 6 11.339844 6.105469 C 11.792969 6.40625 13.769531 5.90625 15.375 5.425781 C 15.410156 5.503906 15.445312 5.582031 15.476562 5.667969 Z M 8.621094 7.898438 C 8.796875 7.902344 9.058594 7.914062 9.332031 7.921875 C 10.191406 7.957031 10.765625 7.972656 11.152344 7.972656 C 11.75 7.972656 11.910156 7.933594 12.007812 7.863281 C 12.25 7.753906 13.914062 7.328125 15.527344 6.9375 C 15.457031 7.226562 15.335938 7.527344 15.164062 7.839844 L 8.015625 8.796875 C 8.269531 8.539062 8.476562 8.234375 8.621094 7.898438 Z M 16.867188 9.414062 C 17.011719 9.566406 17.140625 9.742188 17.238281 9.945312 C 15.828125 10.351562 14.289062 10.699219 14.023438 10.605469 C 13.582031 10.3125 12.109375 10.660156 11.109375 10.949219 C 11.058594 10.761719 10.988281 10.578125 10.902344 10.410156 L 12.996094 10.410156 C 13.015625 10.410156 13.039062 10.40625 13.0625 10.402344 L 14.890625 9.957031 Z M 10.980469 12.886719 C 11.15625 12.890625 11.417969 12.898438 11.691406 12.910156 C 12.566406 12.945312 13.144531 12.960938 13.53125 12.960938 C 13.71875 12.960938 13.855469 12.957031 13.964844 12.949219 L 10.484375 13.664062 C 10.6875 13.433594 10.855469 13.171875 10.980469 12.886719 Z M 16.292969 8.964844 L 14.742188 9.390625 L 12.960938 9.820312 L 10.511719 9.820312 C 10.3125 9.589844 10.078125 9.390625 9.816406 9.230469 L 15.617188 8.652344 C 15.722656 8.6875 15.992188 8.785156 16.292969 8.964844 Z M 13.898438 3.988281 L 12.386719 4.402344 L 10.601562 4.835938 L 8.152344 4.835938 C 7.953125 4.601562 7.71875 4.402344 7.457031 4.242188 L 13.246094 3.667969 C 13.355469 3.710938 13.601562 3.816406 13.898438 3.988281 Z M 3.578125 6.742188 C 3.578125 5.449219 4.632812 4.394531 5.925781 4.394531 C 7.21875 4.394531 8.273438 5.449219 8.273438 6.742188 C 8.273438 8.035156 7.21875 9.089844 5.925781 9.089844 C 4.632812 9.089844 3.578125 8.035156 3.578125 6.742188 Z M 2.789062 11.8125 C 2.8125 11.792969 2.839844 11.78125 2.871094 11.773438 Z M 2.796875 12.792969 C 2.84375 12.800781 2.886719 12.804688 2.933594 12.804688 C 3.382812 12.804688 3.75 12.441406 3.75 11.988281 C 3.75 11.539062 3.382812 11.171875 2.933594 11.171875 C 2.484375 11.171875 2.117188 11.539062 2.117188 11.988281 C 2.117188 12.046875 2.121094 12.097656 2.132812 12.152344 L 1.679688 12.382812 C 1.640625 12.257812 1.613281 12.128906 1.613281 11.988281 C 1.613281 11.261719 2.207031 10.667969 2.933594 10.667969 C 3.660156 10.667969 4.253906 11.261719 4.253906 11.988281 C 4.253906 12.71875 3.660156 13.308594 2.933594 13.308594 C 2.734375 13.308594 2.546875 13.261719 2.378906 13.183594 Z M 2.933594 14.335938 C 2.566406 14.335938 2.21875 14.25 1.910156 14.097656 L 2.003906 13.652344 C 2.28125 13.808594 2.597656 13.894531 2.933594 13.894531 C 3.984375 13.894531 4.839844 13.039062 4.839844 11.988281 C 4.839844 10.9375 3.984375 10.082031 2.933594 10.082031 C 1.882812 10.082031 1.027344 10.9375 1.027344 11.988281 C 1.027344 12.382812 1.148438 12.75 1.351562 13.054688 L 1.308594 13.210938 L 1.113281 13.46875 C 0.785156 13.066406 0.585938 12.550781 0.585938 11.988281 C 0.585938 10.695312 1.640625 9.640625 2.933594 9.640625 C 4.226562 9.640625 5.28125 10.695312 5.28125 11.988281 C 5.28125 13.285156 4.226562 14.335938 2.933594 14.335938 Z M 5.9375 11.730469 C 5.9375 10.433594 6.992188 9.382812 8.285156 9.382812 C 8.632812 9.382812 8.964844 9.460938 9.261719 9.597656 L 9.050781 9.984375 C 8.816406 9.878906 8.554688 9.820312 8.285156 9.820312 C 7.234375 9.820312 6.378906 10.675781 6.378906 11.730469 C 6.378906 12.78125 7.234375 13.636719 8.285156 13.636719 C 9.335938 13.636719 10.191406 12.78125 10.191406 11.730469 C 10.191406 11.410156 10.113281 11.113281 9.976562 10.847656 L 10.320312 10.566406 C 10.519531 10.910156 10.632812 11.304688 10.632812 11.730469 C 10.632812 13.023438 9.578125 14.074219 8.285156 14.074219 C 6.992188 14.074219 5.9375 13.023438 5.9375 11.730469 Z M 16.898438 12.347656 L 14.335938 12.875 C 14.351562 12.863281 14.363281 12.855469 14.378906 12.84375 C 14.546875 12.730469 16.085938 12.105469 17.226562 11.65625 C 17.144531 11.878906 17.035156 12.109375 16.898438 12.347656 Z M 16.898438 12.347656 "/>
  </g>
</svg>