<?xml version="1.0" encoding="UTF-8" standalone="no"?>
<!-- Generator: Adobe Illustrator 18.1.1, SVG Export Plug-In . SVG Version: 6.00 Build 0)  -->

<svg
   xmlns:dc="http://purl.org/dc/elements/1.1/"
   xmlns:cc="http://creativecommons.org/ns#"
   xmlns:rdf="http://www.w3.org/1999/02/22-rdf-syntax-ns#"
   xmlns:svg="http://www.w3.org/2000/svg"
   xmlns="http://www.w3.org/2000/svg"
   xmlns:sodipodi="http://sodipodi.sourceforge.net/DTD/sodipodi-0.dtd"
   xmlns:inkscape="http://www.inkscape.org/namespaces/inkscape"
   version="1.1"
   id="Capa_1"
   x="0px"
   y="0px"
   viewBox="0 0 24 24"
   xml:space="preserve"
   inkscape:version="0.48.5 r10040"
   width="100%"
   height="100%"
   sodipodi:docname="ghasabi.svg"><metadata
     id="metadata3513"><rdf:RDF><cc:Work
         rdf:about=""><dc:format>image/svg+xml</dc:format><dc:type
           rdf:resource="http://purl.org/dc/dcmitype/StillImage" /><dc:title></dc:title></cc:Work></rdf:RDF></metadata><defs
     id="defs3511" /><sodipodi:namedview
     pagecolor="#ffffff"
     bordercolor="#666666"
     borderopacity="1"
     objecttolerance="10"
     gridtolerance="10"
     guidetolerance="10"
     inkscape:pageopacity="0"
     inkscape:pageshadow="2"
     inkscape:window-width="657"
     inkscape:window-height="480"
     id="namedview3509"
     showgrid="false"
     inkscape:zoom="3.7689521"
     inkscape:cx="12.662029"
     inkscape:cy="3.1736483"
     inkscape:window-x="0"
     inkscape:window-y="27"
     inkscape:window-maximized="0"
     inkscape:current-layer="Capa_1" /><g
     id="g3471"
     transform="matrix(0.04480802,0,0,0.04480802,0.77705895,0.7770768)"><g
       id="g3473"><path
         style="fill:#010002"
         d="m 184.573,351.806 c 0.943,0.415 2.024,0.764 3.219,1.04 63.216,14.737 94.6,24.215 110.126,30.1 9.218,3.495 20.842,3.284 28.133,-3.349 l 47.129,-42.854 c 7.291,-6.633 7.169,-17.371 1.528,-25.459 -19.078,-27.353 -23.183,-65.386 -23.817,-87.472 -0.049,-1.569 -0.276,-2.894 -0.585,-4.105 4.235,-43.984 -7.877,-92.162 -37.375,-134.073 C 254.081,1.993 148.36,-25.002 76.804,25.346 5.248,75.694 -5.042,184.317 53.817,267.968 c 33.425,47.495 81.952,76.661 130.756,83.838 z m 4.739,-311.788 c 76.929,25.288 106.899,91.511 123.668,165.571 5.788,25.572 -33.912,34.278 -39.7,8.722 C 259.835,154.932 239.514,99.316 176.81,78.702 151.937,70.525 164.349,31.817 189.312,40.018 z"
         id="path3475"
         inkscape:connector-curvature="0" /><path
         style="fill:#010002"
         d="m 433.072,359.163 c -9.746,0.081 -19.005,2.829 -27.036,7.917 l -16.298,-16.038 -52.868,53.754 15.631,15.387 c -5.877,8.592 -9.047,18.769 -8.966,29.344 0.236,28.58 23.679,51.641 52.259,51.405 24.012,-0.195 42.195,-20.899 47.731,-43.366 22.898,-5.519 42,-22.467 41.797,-46.999 -0.227,-28.579 -23.67,-51.64 -52.25,-51.404 z m 0.577,76.88 -15.298,-3.699 2.024,16.972 c -0.114,13.591 -11.234,24.735 -24.784,24.841 -13.819,0.114 -25.15,-11.039 -25.264,-24.849 -0.065,-7.43 3.3,-14.493 9.226,-19.403 l 11.421,-9.454 -16.233,-15.965 15.314,-15.582 15.688,15.436 9.372,-10.218 c 4.796,-5.227 11.258,-8.137 18.184,-8.194 13.81,-0.114 25.15,11.039 25.264,24.849 0.106,13.829 -11.039,25.152 -24.914,25.266 z"
         id="path3477"
         inkscape:connector-curvature="0" /></g></g><g
     id="g3479"
     transform="translate(0,-476.935)" /><g
     id="g3481"
     transform="translate(0,-476.935)" /><g
     id="g3483"
     transform="translate(0,-476.935)" /><g
     id="g3485"
     transform="translate(0,-476.935)" /><g
     id="g3487"
     transform="translate(0,-476.935)" /><g
     id="g3489"
     transform="translate(0,-476.935)" /><g
     id="g3491"
     transform="translate(0,-476.935)" /><g
     id="g3493"
     transform="translate(0,-476.935)" /><g
     id="g3495"
     transform="translate(0,-476.935)" /><g
     id="g3497"
     transform="translate(0,-476.935)" /><g
     id="g3499"
     transform="translate(0,-476.935)" /><g
     id="g3501"
     transform="translate(0,-476.935)" /><g
     id="g3503"
     transform="translate(0,-476.935)" /><g
     id="g3505"
     transform="translate(0,-476.935)" /><g
     id="g3507"
     transform="translate(0,-476.935)" /></svg>