<?xml version="1.0" encoding="UTF-8" standalone="yes"?>
<svg xmlns="http://www.w3.org/2000/svg" xmlns:xlink="http://www.w3.org/1999/xlink" width="24px" height="24px" viewBox="0 0 18 18" version="1.1">
  <g id="surface1">
    <path style=" stroke:none;fill-rule:nonzero;fill:rgb(0%,0%,0%);fill-opacity:1;" d="M 16.355469 2.101562 C 16.054688 2.03125 15.753906 2.222656 15.683594 2.523438 L 14.554688 7.375 C 14.519531 7.390625 14.484375 7.410156 14.449219 7.429688 L 14.449219 6.777344 C 14.449219 5.808594 13.664062 5.015625 12.695312 5.011719 C 12.699219 4.988281 12.703125 4.964844 12.703125 4.941406 C 12.703125 4.589844 12.417969 4.304688 12.066406 4.304688 L 3.59375 4.304688 C 3.242188 4.304688 2.957031 4.589844 2.957031 4.941406 C 2.957031 4.964844 2.964844 4.988281 2.964844 5.011719 C 1.996094 5.015625 1.210938 5.804688 1.210938 6.777344 L 1.210938 8.472656 C 1.210938 9.445312 2.003906 10.238281 2.976562 10.238281 L 5.871094 10.238281 C 6.84375 10.238281 7.636719 9.445312 7.636719 8.472656 L 7.636719 7.835938 L 8.027344 7.835938 L 8.027344 8.472656 C 8.027344 9.445312 8.816406 10.238281 9.792969 10.238281 L 12.683594 10.238281 C 13.003906 10.238281 13.300781 10.152344 13.558594 10.003906 L 12.929688 12.707031 C 12.714844 13.632812 11.789062 14.210938 10.863281 13.996094 C 10 13.796875 9.441406 12.976562 9.542969 12.113281 L 9.835938 12.183594 C 10.203125 12.269531 10.570312 12.039062 10.660156 11.671875 C 10.746094 11.300781 10.515625 10.933594 10.144531 10.847656 L 7.882812 10.320312 C 7.511719 10.234375 7.144531 10.464844 7.058594 10.832031 C 6.972656 11.203125 7.203125 11.570312 7.570312 11.65625 L 7.714844 11.691406 C 7.382812 13.558594 8.574219 15.386719 10.441406 15.816406 C 12.371094 16.265625 14.300781 15.058594 14.75 13.132812 L 15.839844 8.441406 C 15.910156 8.144531 15.828125 7.847656 15.644531 7.628906 L 16.773438 2.777344 C 16.84375 2.472656 16.65625 2.171875 16.355469 2.101562 Z M 12.683594 9.53125 L 9.792969 9.53125 C 9.207031 9.53125 8.734375 9.054688 8.734375 8.472656 L 8.734375 7.484375 C 8.734375 7.285156 8.574219 7.128906 8.378906 7.128906 L 7.285156 7.128906 C 7.089844 7.128906 6.929688 7.285156 6.929688 7.484375 L 6.929688 8.472656 C 6.929688 9.054688 6.457031 9.53125 5.871094 9.53125 L 2.976562 9.53125 C 2.390625 9.53125 1.917969 9.054688 1.917969 8.472656 L 1.917969 6.777344 C 1.917969 6.191406 2.390625 5.714844 2.976562 5.714844 L 12.683594 5.714844 C 13.269531 5.714844 13.746094 6.191406 13.746094 6.777344 L 13.746094 8.472656 C 13.746094 9.054688 13.269531 9.53125 12.683594 9.53125 Z M 12.683594 9.53125 "/>
  </g>
</svg>