<?xml version="1.0" encoding="UTF-8" standalone="yes"?>
<svg xmlns="http://www.w3.org/2000/svg" xmlns:xlink="http://www.w3.org/1999/xlink" width="24px" height="24px" viewBox="0 0 18 18" version="1.1">
  <g id="surface1">
    <path style=" stroke:none;fill-rule:nonzero;fill:rgb(0%,0%,0%);fill-opacity:1;" d="M 17.9375 10.851562 C 17.894531 10.808594 17.832031 10.785156 17.773438 10.792969 L 0.191406 12.398438 C 0.132812 12.402344 0.0742188 12.433594 0.0390625 12.484375 C 0.00390625 12.535156 -0.0078125 12.601562 0.0078125 12.660156 C 0.289062 13.773438 3.238281 15.191406 4.214844 15.101562 C 4.667969 15.058594 4.9375 14.925781 5.25 14.777344 C 5.710938 14.550781 6.1875 14.320312 7.140625 14.320312 C 8.09375 14.320312 8.574219 14.550781 9.035156 14.777344 C 9.425781 14.964844 9.738281 15.117188 10.425781 15.117188 C 11.128906 15.117188 11.617188 14.871094 11.8125 14.777344 C 12.273438 14.550781 12.753906 14.320312 13.707031 14.320312 C 13.765625 14.320312 13.828125 14.320312 13.890625 14.324219 C 13.914062 14.324219 13.941406 14.320312 13.964844 14.3125 C 16.410156 13.460938 17.917969 12.226562 18.003906 11.019531 C 18.007812 10.957031 17.984375 10.894531 17.9375 10.851562 Z M 17.9375 10.851562 "/>
    <path style=" stroke:none;fill-rule:nonzero;fill:rgb(0%,0%,0%);fill-opacity:1;" d="M 8.125 4.105469 C 8.40625 5.777344 8.667969 8.210938 8.320312 10.300781 C 8.308594 10.363281 8.328125 10.429688 8.375 10.480469 C 8.414062 10.523438 8.46875 10.546875 8.527344 10.546875 C 8.535156 10.546875 8.542969 10.546875 8.546875 10.546875 L 14.894531 9.964844 C 14.957031 9.960938 15.011719 9.929688 15.050781 9.875 C 15.085938 9.824219 15.097656 9.761719 15.078125 9.699219 C 14.957031 9.234375 14.574219 7.996094 13.710938 6.539062 C 12.75 4.914062 10.941406 2.621094 7.804688 0.960938 C 7.730469 0.921875 7.640625 0.929688 7.574219 0.980469 C 7.507812 1.035156 7.480469 1.121094 7.5 1.203125 C 7.640625 1.730469 7.910156 2.808594 8.125 4.105469 Z M 8.125 4.105469 "/>
    <path style=" stroke:none;fill-rule:nonzero;fill:rgb(0%,0%,0%);fill-opacity:1;" d="M 2.878906 11.0625 C 2.886719 11.0625 2.894531 11.0625 2.898438 11.0625 L 6.835938 10.703125 C 6.929688 10.695312 7.007812 10.621094 7.027344 10.527344 C 7.332031 8.84375 6.988281 5.9375 6.824219 4.765625 C 6.816406 4.691406 6.765625 4.625 6.695312 4.597656 C 6.621094 4.570312 6.542969 4.582031 6.484375 4.628906 C 3.582031 6.941406 2.832031 9.945312 2.671875 10.8125 C 2.660156 10.875 2.679688 10.945312 2.722656 10.992188 C 2.765625 11.039062 2.820312 11.0625 2.878906 11.0625 Z M 2.878906 11.0625 "/>
    <path style=" stroke:none;fill-rule:nonzero;fill:rgb(0%,0%,0%);fill-opacity:1;" d="M 13.707031 15.117188 C 12.753906 15.117188 12.253906 15.359375 11.8125 15.574219 C 11.421875 15.761719 11.113281 15.914062 10.425781 15.914062 C 9.734375 15.914062 9.425781 15.761719 9.035156 15.574219 C 8.59375 15.359375 8.09375 15.117188 7.140625 15.117188 C 6.1875 15.117188 5.691406 15.359375 5.25 15.574219 C 4.859375 15.761719 4.546875 15.914062 3.859375 15.914062 C 3.171875 15.914062 2.863281 15.761719 2.472656 15.574219 C 2.03125 15.359375 1.53125 15.117188 0.578125 15.117188 L 0.578125 16.269531 C 1.265625 16.269531 1.574219 16.421875 1.96875 16.613281 C 2.40625 16.824219 2.90625 17.066406 3.859375 17.066406 C 4.8125 17.066406 5.3125 16.824219 5.753906 16.613281 C 6.144531 16.421875 6.453125 16.269531 7.140625 16.269531 C 7.828125 16.269531 8.140625 16.421875 8.53125 16.613281 C 8.972656 16.824219 9.472656 17.066406 10.425781 17.066406 C 11.378906 17.066406 11.875 16.824219 12.316406 16.613281 C 12.707031 16.421875 13.019531 16.269531 13.707031 16.269531 C 14.394531 16.269531 14.703125 16.421875 15.09375 16.613281 C 15.535156 16.824219 16.035156 17.066406 16.988281 17.066406 L 16.988281 15.914062 C 16.300781 15.914062 15.992188 15.761719 15.597656 15.574219 C 15.160156 15.359375 14.660156 15.117188 13.707031 15.117188 Z M 13.707031 15.117188 "/>
  </g>
</svg>