<?xml version="1.0" encoding="UTF-8" standalone="no"?>
<!-- Generated by IcoMoon.io -->

<svg
   xmlns:dc="http://purl.org/dc/elements/1.1/"
   xmlns:cc="http://creativecommons.org/ns#"
   xmlns:rdf="http://www.w3.org/1999/02/22-rdf-syntax-ns#"
   xmlns:svg="http://www.w3.org/2000/svg"
   xmlns="http://www.w3.org/2000/svg"
   xmlns:sodipodi="http://sodipodi.sourceforge.net/DTD/sodipodi-0.dtd"
   xmlns:inkscape="http://www.inkscape.org/namespaces/inkscape"
   version="1.1"
   width="24"
   height="24"
   viewBox="0 0 24 24"
   id="svg3000"
   inkscape:version="0.48.5 r10040"
   sodipodi:docname="glasses.svg">
  <metadata
     id="metadata3008">
    <rdf:RDF>
      <cc:Work
         rdf:about="">
        <dc:format>image/svg+xml</dc:format>
        <dc:type
           rdf:resource="http://purl.org/dc/dcmitype/StillImage" />
      </cc:Work>
    </rdf:RDF>
  </metadata>
  <defs
     id="defs3006" />
  <sodipodi:namedview
     pagecolor="#ffffff"
     bordercolor="#666666"
     borderopacity="1"
     objecttolerance="10"
     gridtolerance="10"
     guidetolerance="10"
     inkscape:pageopacity="0"
     inkscape:pageshadow="2"
     inkscape:window-width="657"
     inkscape:window-height="480"
     id="namedview3004"
     showgrid="false"
     inkscape:zoom="7.1777778"
     inkscape:cx="22.5"
     inkscape:cy="16"
     inkscape:window-x="0"
     inkscape:window-y="27"
     inkscape:window-maximized="0"
     inkscape:current-layer="svg3000" />
  <path
     d="m 7.3081443,7.775492 c 0.8869635,0 1.1088337,0.4432233 1.6994531,0.3692663 C 9.598734,8.0708013 9.0815541,7.036442 8.5643743,6.2979091 8.0471944,5.5593762 6.8654384,5.9286427 5.9784749,6.4458225 5.0920286,6.9630024 0.38207148,9.8261103 0.38207148,9.8261103 H 4.500892 c 0,-5.17e-4 1.920806,-2.0506183 2.8072523,-2.0506183 z M 0.363453,10.360874 v 6.723338 c 0,0.570967 0.46287599,1.03436 1.0343597,1.03436 0,0 3.9874569,0 8.317804,0 0.7768043,0 1.4868923,-2.413678 2.2843833,-2.413678 0.692504,0 1.213304,2.413678 1.895982,2.413678 4.59928,0 8.705688,0 8.705688,0 0.571484,0 1.034877,-0.463393 1.034877,-1.03436 V 10.360874 H 0.363453 z m 9.3092377,4.655136 c 0,0.85645 -0.6950897,1.55154 -1.5515396,1.55154 H 3.4665322 c -0.856967,0 -1.5515396,-0.69509 -1.5515396,-1.55154 v -1.55154 c 0,-0.856967 0.6945726,-1.551539 1.5515396,-1.551539 h 4.6546189 c 0.8564499,0 1.5515396,0.694572 1.5515396,1.551539 v 1.55154 z m 12.4123173,0 c 0,0.85645 -0.69509,1.55154 -1.55154,1.55154 h -4.654619 c -0.856967,0 -1.551539,-0.69509 -1.551539,-1.55154 v -1.55154 c 0,-0.856967 0.694572,-1.551539 1.551539,-1.551539 h 4.654619 c 0.85645,0 1.55154,0.694572 1.55154,1.551539 v 1.55154 z M 14.991886,8.1447583 c 0.591136,0.07396 0.812489,-0.3692663 1.699453,-0.3692663 0.886963,0 2.807769,2.0501013 2.807769,2.0501013 h 4.118821 c 0,0 -4.709957,-2.8631081 -5.596404,-3.3802879 -0.886963,-0.5171799 -2.068719,-0.8864463 -2.585899,-0.1479135 -0.51718,0.7385329 -1.03436,1.7734094 -0.44374,1.8473664 z"
     id="path3002"
     inkscape:connector-curvature="0"
     style="fill:#444444" />
</svg>
