<?xml version="1.0" encoding="UTF-8" standalone="yes"?>
<svg xmlns="http://www.w3.org/2000/svg" xmlns:xlink="http://www.w3.org/1999/xlink" width="24px" height="24px" viewBox="0 0 18 18" version="1.1">
  <g id="surface1">
    <path style=" stroke:none;fill-rule:nonzero;fill:rgb(1.176471%,0.392157%,1.568627%);fill-opacity:1;" d="M 16.980469 0.253906 C 16.882812 0.253906 16.777344 0.265625 16.667969 0.292969 C 15.238281 0.648438 12.335938 1.242188 9 1.242188 C 5.664062 1.242188 2.765625 0.648438 1.332031 0.292969 C 1.222656 0.265625 1.121094 0.253906 1.019531 0.253906 C 0.417969 0.253906 0 0.691406 0 1.316406 L 0 11.195312 C 0 11.871094 0.441406 12.699219 1.003906 13.074219 L 7.539062 17.441406 C 7.835938 17.636719 8.226562 17.746094 8.640625 17.746094 L 9.355469 17.746094 C 9.773438 17.746094 10.164062 17.636719 10.460938 17.441406 L 16.996094 13.074219 C 17.558594 12.699219 18 11.871094 18 11.195312 L 18 1.316406 C 18 0.691406 17.582031 0.253906 16.980469 0.253906 Z M 17.546875 11.195312 C 17.546875 11.71875 17.179688 12.40625 16.742188 12.699219 L 10.207031 17.0625 C 9.996094 17.203125 9.6875 17.285156 9.351562 17.285156 L 8.648438 17.285156 C 8.3125 17.285156 8.003906 17.203125 7.792969 17.0625 L 1.257812 12.699219 C 0.820312 12.40625 0.453125 11.71875 0.453125 11.195312 L 0.453125 1.316406 C 0.453125 0.945312 0.675781 0.707031 1.019531 0.707031 C 1.082031 0.707031 1.152344 0.714844 1.222656 0.734375 C 2.675781 1.09375 5.617188 1.695312 9 1.695312 C 12.382812 1.695312 15.324219 1.09375 16.777344 0.734375 C 16.847656 0.714844 16.917969 0.707031 16.980469 0.707031 C 17.324219 0.707031 17.546875 0.945312 17.546875 1.316406 Z M 1.675781 2.925781 C 1.777344 2.925781 1.859375 2.847656 1.859375 2.746094 L 1.859375 2.203125 C 1.859375 2.101562 1.777344 2.019531 1.675781 2.019531 C 1.578125 2.019531 1.496094 2.101562 1.496094 2.203125 L 1.496094 2.746094 C 1.496094 2.847656 1.578125 2.925781 1.675781 2.925781 Z M 1.675781 5.167969 C 1.777344 5.167969 1.859375 5.085938 1.859375 4.988281 L 1.859375 3.867188 C 1.859375 3.765625 1.777344 3.683594 1.675781 3.683594 C 1.578125 3.683594 1.496094 3.765625 1.496094 3.867188 L 1.496094 4.988281 C 1.496094 5.085938 1.578125 5.167969 1.675781 5.167969 Z M 1.675781 9.648438 C 1.777344 9.648438 1.859375 9.570312 1.859375 9.46875 L 1.859375 8.347656 C 1.859375 8.25 1.777344 8.167969 1.675781 8.167969 C 1.578125 8.167969 1.496094 8.25 1.496094 8.347656 L 1.496094 9.46875 C 1.496094 9.570312 1.578125 9.648438 1.675781 9.648438 Z M 1.675781 7.410156 C 1.777344 7.410156 1.859375 7.328125 1.859375 7.226562 L 1.859375 6.109375 C 1.859375 6.007812 1.777344 5.925781 1.675781 5.925781 C 1.578125 5.925781 1.496094 6.007812 1.496094 6.109375 L 1.496094 7.226562 C 1.496094 7.328125 1.578125 7.410156 1.675781 7.410156 Z M 1.859375 11.039062 L 1.859375 10.589844 C 1.859375 10.488281 1.777344 10.410156 1.675781 10.410156 C 1.578125 10.410156 1.496094 10.488281 1.496094 10.589844 L 1.496094 11.230469 L 2.023438 11.589844 C 2.054688 11.609375 2.089844 11.621094 2.125 11.621094 C 2.183594 11.621094 2.242188 11.59375 2.277344 11.542969 C 2.332031 11.457031 2.3125 11.347656 2.230469 11.289062 Z M 6.761719 14.371094 C 6.679688 14.3125 6.566406 14.335938 6.507812 14.417969 C 6.453125 14.5 6.472656 14.613281 6.558594 14.667969 L 7.464844 15.285156 C 7.496094 15.304688 7.53125 15.316406 7.566406 15.316406 C 7.621094 15.316406 7.679688 15.289062 7.714844 15.238281 C 7.769531 15.15625 7.75 15.042969 7.667969 14.984375 Z M 4.949219 13.136719 C 4.867188 13.082031 4.753906 13.101562 4.695312 13.183594 C 4.640625 13.269531 4.660156 13.382812 4.742188 13.4375 L 5.652344 14.054688 C 5.683594 14.074219 5.71875 14.085938 5.753906 14.085938 C 5.808594 14.085938 5.867188 14.058594 5.902344 14.003906 C 5.957031 13.921875 5.9375 13.808594 5.855469 13.753906 C 5.855469 13.753906 4.949219 13.136719 4.949219 13.136719 Z M 3.136719 11.90625 C 3.054688 11.851562 2.941406 11.871094 2.882812 11.953125 C 2.828125 12.035156 2.847656 12.148438 2.933594 12.207031 L 3.839844 12.820312 C 3.871094 12.84375 3.90625 12.851562 3.941406 12.851562 C 3.996094 12.851562 4.054688 12.824219 4.089844 12.773438 C 4.144531 12.691406 4.125 12.578125 4.042969 12.519531 Z M 9.300781 15.628906 L 8.929688 15.84375 L 8.574219 15.601562 C 8.492188 15.546875 8.378906 15.566406 8.320312 15.648438 C 8.265625 15.730469 8.285156 15.84375 8.371094 15.902344 L 8.914062 16.273438 L 9.484375 15.941406 C 9.570312 15.890625 9.597656 15.78125 9.546875 15.691406 C 9.496094 15.605469 9.386719 15.578125 9.300781 15.628906 Z M 11.125 14.566406 L 10.210938 15.097656 C 10.125 15.148438 10.097656 15.257812 10.144531 15.34375 C 10.179688 15.402344 10.242188 15.433594 10.304688 15.433594 C 10.335938 15.433594 10.367188 15.425781 10.394531 15.410156 L 11.304688 14.878906 C 11.394531 14.828125 11.421875 14.71875 11.371094 14.632812 C 11.320312 14.546875 11.210938 14.515625 11.125 14.566406 Z M 12.949219 13.503906 L 12.035156 14.035156 C 11.949219 14.085938 11.921875 14.195312 11.96875 14.285156 C 12.003906 14.34375 12.066406 14.375 12.128906 14.375 C 12.160156 14.375 12.191406 14.367188 12.21875 14.351562 L 13.128906 13.820312 C 13.21875 13.769531 13.246094 13.660156 13.195312 13.570312 C 13.144531 13.484375 13.035156 13.457031 12.949219 13.503906 Z M 14.773438 12.445312 L 13.859375 12.976562 C 13.773438 13.027344 13.742188 13.136719 13.792969 13.222656 C 13.828125 13.28125 13.890625 13.3125 13.953125 13.3125 C 13.980469 13.3125 14.011719 13.304688 14.042969 13.289062 L 14.953125 12.757812 C 15.042969 12.707031 15.070312 12.597656 15.019531 12.511719 C 14.96875 12.425781 14.859375 12.394531 14.773438 12.445312 Z M 16.246094 11.074219 C 16.144531 11.074219 16.0625 11.15625 16.0625 11.253906 L 16.0625 11.695312 L 15.683594 11.914062 C 15.597656 11.964844 15.566406 12.078125 15.617188 12.164062 C 15.652344 12.222656 15.710938 12.253906 15.773438 12.253906 C 15.804688 12.253906 15.835938 12.246094 15.867188 12.230469 L 16.425781 11.902344 L 16.425781 11.253906 C 16.425781 11.152344 16.347656 11.074219 16.246094 11.074219 Z M 16.246094 8.640625 C 16.144531 8.640625 16.0625 8.722656 16.0625 8.824219 L 16.0625 10.039062 C 16.0625 10.140625 16.144531 10.21875 16.246094 10.21875 C 16.34375 10.21875 16.425781 10.140625 16.425781 10.039062 L 16.425781 8.824219 C 16.425781 8.722656 16.347656 8.640625 16.246094 8.640625 Z M 16.246094 3.78125 C 16.144531 3.78125 16.0625 3.859375 16.0625 3.960938 L 16.0625 5.175781 C 16.0625 5.277344 16.144531 5.359375 16.246094 5.359375 C 16.34375 5.359375 16.425781 5.277344 16.425781 5.175781 L 16.425781 3.960938 C 16.425781 3.859375 16.347656 3.78125 16.246094 3.78125 Z M 16.246094 6.210938 C 16.144531 6.210938 16.0625 6.292969 16.0625 6.390625 L 16.0625 7.609375 C 16.0625 7.707031 16.144531 7.789062 16.246094 7.789062 C 16.34375 7.789062 16.425781 7.707031 16.425781 7.609375 L 16.425781 6.390625 C 16.425781 6.292969 16.347656 6.210938 16.246094 6.210938 Z M 16.246094 2.019531 C 16.144531 2.019531 16.0625 2.101562 16.0625 2.203125 L 16.0625 2.746094 C 16.0625 2.847656 16.144531 2.925781 16.246094 2.925781 C 16.34375 2.925781 16.425781 2.847656 16.425781 2.746094 L 16.425781 2.203125 C 16.425781 2.101562 16.347656 2.019531 16.246094 2.019531 Z M 16.246094 2.019531 "/>
  </g>
</svg>