<?xml version="1.0" encoding="utf-8"?>
<!-- Generator: Adobe Illustrator 15.1.0, SVG Export Plug-In . SVG Version: 6.00 Build 0)  -->
<!DOCTYPE svg PUBLIC "-//W3C//DTD SVG 1.1//EN" "http://www.w3.org/Graphics/SVG/1.1/DTD/svg11.dtd">
<svg version="1.1" id="Layer_1" xmlns="http://www.w3.org/2000/svg" xmlns:xlink="http://www.w3.org/1999/xlink" x="0px" y="0px"
	 width="24px" height="24px" viewBox="0 0 24 24" enable-background="new 0 0 24 24" xml:space="preserve">
<path d="M13.308,22.096c-1.448,0-3.092-0.451-4.888-1.338c-1.442-0.716-2.936-0.941-4.251-1.144
	c-1.347-0.206-2.717-0.418-3.537-1.212c0.087,3.208,4.212,1.764,8.164,3.719c4.865,2.405,7.846,1.081,8.298-1.739
	C16.307,21.465,14.987,22.096,13.308,22.096z M4.789,17.958c1.252,0.175,2.671,0.37,4.098,1.008
	c1.487,0.665,2.824,1.003,3.976,1.003l0,0c1.025,0,1.87-0.278,2.443-0.807c0.553-0.512,0.846-1.243,0.846-2.114
	c0-2.634-3.296-4.775-7.346-4.775c-4.56,0-7.174,1.354-7.174,3.719C1.632,17.521,2.888,17.696,4.789,17.958z M6.289,14.303
	c0.884,0,1.599,0.472,1.599,1.055c0,0.582-0.715,1.054-1.599,1.054c-0.882,0-1.599-0.472-1.599-1.054
	C4.69,14.774,5.407,14.303,6.289,14.303z M8.795,20.204c5.296,2.617,8.363,0.819,8.363-2.522c0-3.344-3.744-6.054-8.363-6.054
	c-4.618,0-8.167,1.414-8.167,4.757C0.628,19.728,4.801,18.228,8.795,20.204z M8.806,11.972c4.243,0,7.698,2.276,7.698,5.076
	c0,0.948-0.327,1.751-0.941,2.317c-0.642,0.589-1.574,0.903-2.7,0.903l0,0c-1.208,0-2.602-0.351-4.139-1.036
	c-1.375-0.616-2.765-0.809-3.99-0.978c-1.928-0.268-3.451-0.478-3.451-2.264C1.281,13.437,4.023,11.972,8.806,11.972z M6.251,14.816
	c0.437,0,0.791,0.231,0.791,0.521c0,0.288-0.354,0.521-0.791,0.521c-0.435,0-0.789-0.233-0.789-0.521
	C5.462,15.048,5.816,14.816,6.251,14.816z M19.97,13.327c0.445,0.4,0.538,0.641,0.447,1.092c-0.201,1.006-0.605,2.943-0.316,4.525
	c0.287,1.585,1.065,2.172,0.7,2.663c-0.865,1.167,0.931,2.219,1.506,0.574c0.71-2.035,0.276-3.535,0.18-4.468
	c-0.097-0.931-0.372-3.205-0.408-4.45l-1.062,0.032L19.97,13.327z M20.672,22.964c-0.334-0.314-0.477-0.896-0.041-1.482
	c0.112-0.151,0.048-0.331-0.169-0.802c-0.182-0.396-0.43-0.939-0.57-1.697c-0.287-1.581,0.096-3.494,0.303-4.521l0.018-0.084
	c0.066-0.34,0.03-0.507-0.32-0.837l-0.063-0.06c-0.054-0.058-0.086-0.149-0.056-0.229c0.03-0.08,0.106-0.135,0.19-0.138l2.109-0.062
	c0.111-0.004,0.214,0.094,0.216,0.205c0.03,1.001,0.215,2.673,0.336,3.778l0.071,0.653c0.017,0.156,0.04,0.329,0.07,0.518
	c0.137,0.918,0.345,2.305-0.263,4.04c-0.246,0.705-0.675,0.906-0.91,0.963C21.265,23.29,20.922,23.199,20.672,22.964z
	 M20.443,13.521c0.212,0.286,0.257,0.558,0.18,0.94l-0.018,0.084c-0.199,0.999-0.573,2.862-0.299,4.362
	c0.13,0.706,0.354,1.2,0.536,1.597c0.223,0.483,0.396,0.862,0.127,1.228c-0.302,0.405-0.203,0.745-0.009,0.927
	c0.144,0.137,0.343,0.19,0.533,0.144c0.261-0.063,0.479-0.309,0.613-0.689c0.573-1.639,0.383-2.912,0.242-3.842
	c-0.028-0.195-0.054-0.373-0.071-0.537l-0.072-0.651c-0.115-1.039-0.284-2.575-0.331-3.603L20.443,13.521z M15.774,13.627
	c-0.107-0.103-0.203-0.239-0.287-0.411c-1.039-2.106-0.895-11.354-0.074-12.455c0.638-0.854,5.79-0.054,5.843-0.046
	c1.038,0.17,1.502,0.965,1.374,2.361c-0.083,0.919-0.349,9.253-0.321,10.134c0,0.006,0,0.013,0,0.019c0,0.005,0,0.011,0,0.016
	c0.007,0.231-0.175,0.424-0.408,0.432c-0.205,0.005-0.605,0.02-1.103,0.037c-1.547,0.054-3.883,0.133-4.515,0.126
	C16.094,13.837,15.924,13.766,15.774,13.627z M16.069,1.301c-0.216,0.426-0.494,2.695-0.468,5.941
	c0.034,3.751,0.46,5.497,0.733,5.758c0.678,0.004,3.02-0.077,4.434-0.126c0.265-0.011,0.501-0.018,0.695-0.025
	c0.015-1.956,0.259-9.076,0.329-9.847c0.099-1.101-0.196-1.377-0.674-1.455C19.56,1.29,16.601,1.085,16.069,1.301z M17.341,13.688
	c-0.015-0.015-0.026-0.031-0.039-0.047c-1.138-1.586-1.08-11.65-0.225-12.821c0.103-0.141,0.3-0.171,0.441-0.068
	c0.141,0.105,0.171,0.301,0.066,0.441c-0.715,0.98-0.769,10.689,0.229,12.08c0.103,0.142,0.068,0.339-0.072,0.441
	C17.616,13.803,17.447,13.789,17.341,13.688z M19.671,3.692c-0.171-0.162-0.27-0.379-0.274-0.613
	c-0.015-0.484,0.368-0.889,0.852-0.904c0.469-0.014,0.891,0.384,0.903,0.853c0.007,0.235-0.077,0.458-0.239,0.627
	c-0.161,0.172-0.379,0.27-0.614,0.277C20.064,3.938,19.842,3.852,19.671,3.692z M20.587,2.719c-0.09-0.084-0.204-0.128-0.326-0.125
	c-0.252,0.007-0.451,0.219-0.444,0.472c0.008,0.244,0.227,0.452,0.469,0.443c0.124-0.003,0.237-0.056,0.32-0.144
	c0.084-0.089,0.129-0.205,0.126-0.326C20.728,2.917,20.677,2.803,20.587,2.719z"/>
</svg>
