<?xml version="1.0" encoding="UTF-8" standalone="no"?>
<!-- Generator: Adobe Illustrator 15.1.0, SVG Export Plug-In . SVG Version: 6.00 Build 0)  -->

<svg
   xmlns:dc="http://purl.org/dc/elements/1.1/"
   xmlns:cc="http://creativecommons.org/ns#"
   xmlns:rdf="http://www.w3.org/1999/02/22-rdf-syntax-ns#"
   xmlns:svg="http://www.w3.org/2000/svg"
   xmlns="http://www.w3.org/2000/svg"
   xmlns:sodipodi="http://sodipodi.sourceforge.net/DTD/sodipodi-0.dtd"
   xmlns:inkscape="http://www.inkscape.org/namespaces/inkscape"
   version="1.1"
   id="Layer_1"
   x="0px"
   y="0px"
   width="24"
   height="24"
   viewBox="0 0 24 24"
   enable-background="new 0 0 595 842"
   xml:space="preserve"
   inkscape:version="0.48.5 r10040"
   sodipodi:docname="Abfaa.svg"><metadata
     id="metadata17"><rdf:RDF><cc:Work
         rdf:about=""><dc:format>image/svg+xml</dc:format><dc:type
           rdf:resource="http://purl.org/dc/dcmitype/StillImage" /><dc:title></dc:title></cc:Work></rdf:RDF></metadata><defs
     id="defs15" /><sodipodi:namedview
     pagecolor="#ffffff"
     bordercolor="#666666"
     borderopacity="1"
     objecttolerance="10"
     gridtolerance="10"
     guidetolerance="10"
     inkscape:pageopacity="0"
     inkscape:pageshadow="2"
     inkscape:window-width="1920"
     inkscape:window-height="942"
     id="namedview13"
     showgrid="false"
     inkscape:zoom="6.3421264"
     inkscape:cx="85.556828"
     inkscape:cy="22.916304"
     inkscape:window-x="0"
     inkscape:window-y="27"
     inkscape:window-maximized="1"
     inkscape:current-layer="Layer_1" /><path
     id="path11"
     d="m 5.3619871,4.0256817 -0.00151,0.00937 -0.00151,0.00776 -0.00151,0.0062 -0.00302,0.0063 -0.1105386,0.066952 -0.1167464,0.070096 -0.029578,0.020206 -0.023381,0.020206 -0.020206,0.018594 -0.014008,0.018695 -0.0062,0.00937 -0.00454,0.00932 -0.00302,0.00937 -0.00151,0.00781 -0.00151,0.00932 v 0.00781 l 0.00151,0.00776 0.00302,0.00781 0.104255,0.1743513 0.0389,0.068484 0.028017,0.054461 0.020206,0.0389 0.010884,0.023381 0.012496,0.032703 0.00932,0.029578 0.0062,0.029578 0.0063,0.028017 0.00302,0.026504 V 4.871092 4.895984 L 5.2643071,4.917802 5.2564971,4.903794 5.2456131,4.880413 5.2300431,4.852396 5.2098371,4.818131 5.1849451,4.776157 5.1553671,4.727884 5.1226641,4.673419 5.0837641,4.611143 5.0525731,4.559736 5.0246071,4.513075 4.9996141,4.472613 4.9794081,4.438399 4.9623261,4.410332 4.9498301,4.388514 4.9420201,4.371332 4.9374801,4.362062 4.9344601,4.351128 4.9314401,4.335558 4.9299301,4.312177 4.9284201,4.28416 V 4.265466 4.248384 l 0.00151,-0.017082 0.00302,-0.014008 0.00454,-0.014008 0.00932,-0.014008 0.010884,-0.014008 0.014008,-0.01557 0.017082,-0.01557 0.020206,-0.017082 0.023381,-0.017082 0.026504,-0.018695 0.018695,-0.012496 0.01557,-0.010884 0.023381,-0.017082 0.018694,-0.014008 0.012396,-0.010884 0.00781,-0.00937 -0.00302,-0.00932 -0.071628,-0.032652 -0.020206,-0.00937 -0.01557,-0.00454 -0.014008,-0.00302 -0.010884,-0.00151 -0.0063,0.0063 -0.00605,0.00902 -0.00937,0.012497 -0.010884,0.017082 -0.024892,0.043587 -0.029578,0.059137 -0.026504,-0.077831 0.0062,-0.034214 0.00781,-0.034265 0.00937,-0.035776 0.012396,-0.035776 0.010884,-0.032703 0.012496,-0.028016 0.012496,-0.021818 0.010884,-0.017082 0.0063,-0.00151 0.0062,-0.00151 0.00781,0.00151 0.00932,0.00151 0.024892,0.0062 0.031191,0.014008 0.037288,0.017182 0.043587,0.023381 0.049784,0.028016 0.057605,0.032703 0.00454,0.00454 0.0063,0.00151 0.0062,0.00151 0.0063,0.00151 h 0.014008 l 0.014008,-0.00302 0.00302,-0.00781 0.00302,-0.0062 0.00454,-0.0062 0.0062,-0.00454 0.1120704,-0.060669 0.1136022,-0.062276 0.018695,-0.012396 0.01557,-0.012496 0.014008,-0.00937 0.010884,-0.00937 0.00932,-0.00932 0.0062,-0.00781 0.00302,-0.0062 V 3.69296 L 5.6282457,3.678952 5.6204357,3.663382 5.6080397,3.649374 5.5956437,3.633804 5.5784617,3.616722 5.5597667,3.601152 5.5379987,3.58407 5.5146177,3.565376 5.5100777,3.521789 5.5085677,3.476691 v -0.04671 l 0.00151,-0.048273 0.0389,0.034265 0.035877,0.035776 0.03109,0.034265 0.028017,0.035776 0.024892,0.034214 0.020206,0.035776 0.00932,0.017082 0.00937,0.018695 0.00781,0.017082 0.0062,0.018694 0.0063,0.017082 0.00454,0.01557 0.00302,0.01557 0.00151,0.014008 0.00151,0.012396 v 0.010884 l -0.00151,0.010884 -0.00302,0.00937 -0.00781,0.01557 -0.00937,0.01557 -0.012496,0.01557 -0.014008,0.01557 -0.017082,0.01557 -0.018694,0.01557 -0.021818,0.01557 -0.023381,0.014008 -0.1618649,0.091849 -0.070091,0.037288 -0.00937,0.00302 -0.00635,0.00202 0,0 z M 5.82276,4.1346934 5.763623,4.1301534 5.668629,4.1176564 5.659259,4.2250557 5.5176203,4.2110477 l -0.00454,0.031191 -0.00302,0.034214 -0.00151,0.037389 -0.00151,0.041974 0.160328,0.020206 0.010884,-0.1105436 0.1384994,0.018694 0.00302,-0.037288 0.00302,-0.037389 v -0.037288 -0.037388 l 8.06e-5,0 z m 0.443691,-0.6568771 -0.00781,0.017082 -0.010884,0.018695 -0.014008,0.021818 -0.020206,0.023381 -0.048273,0.043587 -0.046711,0.037288 -0.023381,0.01557 -0.021818,0.01557 -0.021818,0.014008 -0.021768,0.012396 -0.01557,0.00932 -0.01557,0.0062 -0.01557,0.0062 -0.014008,0.00454 -0.012396,0.00151 -0.012396,0.00151 -0.010884,-0.00151 -0.010934,-0.00151 -0.00937,-0.00454 -0.00937,-0.0062 -0.00937,-0.00781 -0.00932,-0.010884 -0.00781,-0.012496 -0.0062,-0.013958 -0.00781,-0.017182 -0.0062,-0.018694 -0.00781,-0.029578 -0.0062,-0.029578 -0.00302,-0.029578 v -0.031191 l 0.00302,-0.021818 0.00302,-0.01557 0.00302,-0.012497 0.00454,-0.0062 0.0062,0.00781 0.00454,0.026404 0.01557,0.049784 0.00454,0.014008 0.00781,0.00932 0.00302,0.00302 0.00454,0.00302 0.00454,0.00302 0.0062,0.00151 0.010884,0.00151 0.012497,-0.00302 0.01557,-0.00454 0.015621,-0.00781 0.077826,-0.043587 0.059142,-0.049784 0.031091,-0.024993 0.021818,-0.023381 0.00932,-0.00937 0.00781,-0.00937 0.00454,-0.00781 0.00302,-0.00771 L 6.164095,3.3510253 6.145401,3.3167603 6.125195,3.2841083 6.101814,3.2498943 6.07531,3.2156293 6.045732,3.1814153 6.013029,3.1472013 5.978815,3.1114253 5.975795,3.0896073 5.974285,3.0662263 5.972775,3.0413343 v -0.024892 l 0.00151,-0.026504 0.00151,-0.026404 0.00302,-0.029578 0.00302,-0.029578 0.1541251,0.242835 0.034265,0.057605 0.029578,0.051402 0.021818,0.043587 0.018694,0.037288 0.1136022,-0.049784 0.1152147,-0.051322 0.020206,-0.010884 0.017182,-0.00937 0.013958,-0.00932 0.010934,-0.00937 0.00932,-0.00781 0.0062,-0.0062 0.00454,-0.00781 v -0.0063 L 6.546932,3.1549173 6.539122,3.1393473 6.528238,3.1237773 6.515842,3.1065953 6.500272,3.0895133 6.481679,3.0708183 6.461473,3.0522253 6.438092,3.0320193 6.436582,2.9884323 v -0.046711 l 0.00302,-0.046661 0.00454,-0.046711 0.035776,0.037389 0.034214,0.0389 0.029578,0.037288 0.026504,0.037288 0.021818,0.037389 0.020206,0.037389 0.00781,0.018695 0.00781,0.018593 0.0062,0.018695 0.0062,0.018695 0.00454,0.017082 0.00302,0.017182 0.00302,0.01557 0.00151,0.014008 v 0.012496 l -0.00151,0.010884 -0.00151,0.010884 -0.00302,0.00937 -0.00781,0.014008 -0.010884,0.014008 -0.012496,0.01557 -0.014008,0.014008 -0.018594,0.014008 -0.020206,0.012496 -0.021818,0.014008 -0.024892,0.014008 -0.1650041,0.074687 -0.07316,0.031191 -0.0062,0.00151 -0.00645,0.00202 0,0 z M 6.356688,2.5438648 v 0.040462 0.037389 L 6.352148,2.6590038 6.347608,2.6932688 6.18728,2.6636908 6.2028,2.517376 6.3569302,2.54388 l 0,0 z m 0.5105621,0.336211 -0.1229443,-0.3626401 -0.012396,-0.040462 -0.014008,-0.045199 -0.01557,-0.046661 -0.014008,-0.051407 -0.015621,-0.054461 -0.017082,-0.05761 -0.01552,-0.062281 -0.017082,-0.06542 -0.052934,0.1930457 0.2085906,0.6179616 0.088786,0.3190486 0.01557,-0.057604 0.012396,-0.048273 0.00302,-0.020206 0.00302,-0.017082 0.00151,-0.014008 v -0.012396 l -0.00302,-0.026504 -0.0062,-0.0389 -0.010884,-0.048273 -0.015772,-0.060668 0,0 z m 0.5929888,-0.1073993 0.00302,0.020206 0.00454,0.017082 0.00151,0.017182 0.00151,0.01557 v 0.014008 l -0.00151,0.014008 -0.00151,0.010884 -0.00302,0.010884 -0.00454,0.00937 -0.0062,0.00937 -0.0062,0.010884 -0.00932,0.00932 -0.010884,0.010884 -0.010884,0.010934 -0.014008,0.010884 -0.01552,0.012396 -0.08871,0.054465 -0.077826,0.045098 -0.017082,0.0062 -0.01557,0.00454 -0.01557,0.00302 -0.014008,0.00302 h -0.013958 l -0.012496,-0.00151 -0.012497,-0.00302 -0.010884,-0.00454 -0.00932,-0.0062 -0.00937,-0.00781 -0.00932,-0.00937 -0.00776,-0.010934 -0.00781,-0.012396 -0.0063,-0.014008 -0.00454,-0.01557 -0.0063,-0.017082 -0.0062,-0.03109 -0.00302,-0.031191 -0.00151,-0.028067 0.00151,-0.026403 0.00454,-0.023381 0.00302,-0.017082 0.00302,-0.0062 0.00151,-0.0063 0.00302,-0.00302 0.00302,-0.00302 0.00454,0.00151 0.01557,0.085646 0.00302,0.0062 0.00151,0.0063 0.00454,0.0062 0.00302,0.00454 0.00454,0.00302 0.0062,0.00302 0.00454,0.00302 0.00781,0.00151 H 7.12611 l 0.018694,-0.00151 0.020206,-0.0063 0.021769,-0.00781 0.032703,-0.01557 0.032703,-0.018694 0.032703,-0.020206 0.034265,-0.023381 0.031191,-0.021818 0.020206,-0.017082 0.00776,-0.00781 0.00454,-0.0062 0.00302,-0.00454 0.00151,-0.00454 L 7.373372,2.7459315 7.357802,2.7101555 7.337596,2.6743795 7.31739,2.6370915 7.292498,2.5997025 7.265994,2.5623135 7.236416,2.5234135 7.203764,2.4861255 7.202254,2.4627445 v -0.023381 l 0.00151,-0.023381 0.00151,-0.024892 0.00151,-0.026504 0.00454,-0.026404 0.00302,-0.028067 0.0062,-0.029578 0.1369676,0.2599976 0.020206,0.0389 0.017082,0.035826 0.01557,0.032652 0.014008,0.031191 0.010884,0.028016 0.00937,0.024892 0.00781,0.021818 0.00589,0.018593 0,0 z M 8.0985024,2.666809 v 0.029578 l -0.00151,0.03109 -0.00302,0.031191 -0.00454,0.032652 -0.00776,0.031191 -0.00781,0.032703 -0.010884,0.032703 -0.010884,0.032652 -0.00932,0.021818 -0.00937,0.021818 -0.010884,0.020206 -0.00932,0.020206 -0.010884,0.018694 -0.012497,0.017082 -0.010884,0.01557 -0.012396,0.01557 -0.012496,0.014008 -0.012396,0.012396 -0.012497,0.012496 -0.014008,0.010884 -0.014008,0.00937 -0.014008,0.00781 -0.01557,0.00781 -0.014008,0.0062 -0.017082,0.00454 -0.017082,0.00302 H 7.8062024 L 7.7859964,3.157047 7.7657904,3.152507 7.7439724,3.144697 7.7205914,3.135327 7.6972104,3.122931 7.6738294,3.110435 7.6536234,3.097939 7.6365414,3.087055 7.6209714,3.076171 7.6100874,3.065287 l -0.00937,-0.00932 -0.0062,-0.00937 -0.00302,-0.00937 0.00454,-0.012396 0.073154,0.00937 0.017182,0.00302 0.017082,0.00151 h 0.01557 0.01557 l 0.014008,-0.00151 0.01557,-0.00302 0.012497,-0.00302 0.014008,-0.00454 0.012396,-0.00454 0.014008,-0.00776 0.012496,-0.0063 0.014008,-0.00937 0.012496,-0.00932 0.012396,-0.010884 0.012497,-0.010884 0.010884,-0.012496 0.023381,-0.028017 0.023381,-0.031091 0.021768,-0.035826 0.020206,-0.0389 0.01557,-0.034265 0.013958,-0.032703 0.010934,-0.028017 0.00932,-0.026504 0.0062,-0.023381 0.00302,-0.021818 V 2.637483 L 8.0380874,2.621913 8.0335474,2.607905 8.0241774,2.590723 8.0101694,2.573641 7.9915754,2.553435 7.9697574,2.531617 7.9417404,2.506725 7.9106504,2.480221 7.8748744,2.452204 l 0.018594,-0.15413 0.01557,0.010884 0.01557,0.010884 0.01557,0.010884 0.01557,0.010884 0.014008,0.012396 0.012496,0.014008 0.012396,0.012496 0.012497,0.014008 0.010884,0.014008 0.00937,0.01557 0.010884,0.01557 0.00781,0.01557 0.00932,0.017082 0.00781,0.017182 0.0062,0.017082 0.0063,0.018695 h 0.00151 l 0.00151,-0.00151 0.1541301,-0.042075 0.1493734,-0.043587 0.073155,-0.024892 0.052934,-0.020206 0.017082,-0.00776 0.012496,-0.0063 0.00781,-0.0062 0.00151,-0.00302 -0.00781,-0.010884 -0.024892,-0.020206 -0.0389,-0.031191 -0.056073,-0.041974 -0.2458986,-0.1680679 -0.014008,0.059137 -0.032703,-0.023381 -0.028067,-0.021768 -0.023381,-0.020206 -0.020206,-0.018695 -0.017082,-0.018593 -0.012497,-0.017082 -0.00454,-0.00781 -0.00302,-0.00781 -0.00302,-0.00781 -0.00151,-0.0062 -0.00454,-0.026504 -0.00151,-0.023381 0.00151,-0.021818 0.00151,-0.021818 0.00454,-0.020206 0.0063,-0.017082 0.00932,-0.017082 0.010884,-0.01557 0.4327364,-0.4638315 -0.00151,0.1805542 -0.2132669,0.1992485 -0.068484,0.063808 -0.049784,0.051402 -0.017182,0.018594 -0.014008,0.01557 -0.00781,0.012396 -0.00302,0.00937 0.5525415,0.3891448 0.010884,0.082502 v 0.010884 0.00937 l -0.00151,0.00932 -0.00151,0.00937 -0.00302,0.00937 -0.00302,0.00781 -0.00454,0.00937 -0.00454,0.00781 -0.018594,0.012396 -0.021818,0.012497 -0.024993,0.012396 -0.026404,0.012497 -0.03109,0.014008 -0.034265,0.012396 -0.035776,0.014008 -0.0389,0.012396 -0.09652,0.023381 -0.085646,0.029578 -0.1244812,0.034265 h -0.00302 l -0.00302,0.00202 0,0 z m 0.3035034,-1.3697466 -0.3549054,0.3813295 0.00454,0.079363 0.3564373,-0.3719874 -0.0062,-0.088705 0,0 z m 1.0258008,0.7720061 0.00302,0.059142 -0.00151,0.043587 -0.00302,0.0389 -0.00454,0.032703 -0.0062,0.028067 -0.00781,0.023381 -0.0062,0.00932 -0.00629,0.00937 -0.00932,0.00781 -0.010884,0.00781 -0.012496,0.0063 -0.01557,0.0062 -0.017082,0.0062 -0.018695,0.00454 -0.029578,0.0063 -0.028067,0.00454 -0.024892,0.00302 -0.024993,0.00302 h -0.021771 l -0.021818,-0.00151 -0.018694,-0.00302 -0.017082,-0.00454 -0.01557,-0.0062 -0.014008,-0.0062 -0.010884,-0.00932 -0.010884,-0.010884 -0.00781,-0.012496 -0.00781,-0.012496 -0.00454,-0.01552 -0.00302,-0.017082 -0.00151,-0.024892 v -0.029578 l 0.00454,-0.032703 0.0062,-0.035776 0.00932,-0.040462 0.010884,-0.043587 0.01557,-0.046711 0.017082,-0.049784 -0.00605,-0.00957 -0.00454,-0.010884 -0.0062,-0.014008 -0.00454,-0.01557 -0.00151,-0.01557 0.00151,-0.017082 0.00454,-0.018695 0.00781,-0.020206 0.00937,-0.021818 0.014008,-0.023381 0.014008,-0.023381 0.018694,-0.026504 0.00302,0.018694 0.00454,0.017082 0.0062,0.017082 0.00937,0.01557 0.00932,0.01557 0.012396,0.01557 0.012496,0.014008 0.01557,0.014008 0.1198857,0.065339 0.01557,0.012496 0.014008,0.012496 0.012496,0.014008 0.00932,0.014008 0.00937,0.017082 0.00781,0.017082 0.00454,0.018695 0.00302,0.020408 0,0 z m -0.068484,0.080976 -0.00937,-0.010884 -0.020206,-0.018695 -0.032703,-0.024892 -0.043587,-0.032703 -0.1042549,-0.063808 -0.010884,0.026504 -0.00932,0.026404 -0.00937,0.023381 -0.0062,0.021818 -0.00302,0.018695 -0.00302,0.017082 -0.00151,0.01562 0.00151,0.013958 0.00151,0.00781 0.00302,0.00781 0.0062,0.00781 0.0063,0.0062 0.00937,0.0063 0.00937,0.0062 0.012497,0.00454 0.014008,0.00454 0.014008,0.00151 0.014008,0.00151 0.014008,0.00151 h 0.01557 l 0.028017,-0.00151 0.029578,-0.0062 0.018695,-0.00454 0.01557,-0.0063 0.014008,-0.0062 0.00932,-0.0062 0.00937,-0.00937 0.00454,-0.00781 0.00302,-0.00937 v -0.011035 l -2.42e-4,0 z m 0.6211059,-0.010884 -0.00937,0.010884 -0.012396,0.010884 -0.01557,0.012396 -0.017182,0.010934 -0.027966,0.014008 -0.028016,0.010884 -0.026504,0.010884 -0.026404,0.00937 -0.024892,0.00781 -0.024892,0.00781 -0.023381,0.0062 -0.023381,0.00454 -0.017182,0.00302 -0.017082,0.00151 h -0.014008 l -0.01557,-0.00151 -0.012396,-0.00151 -0.012496,-0.00302 -0.010884,-0.00454 -0.00937,-0.0062 -0.00781,-0.00781 -0.00781,-0.00932 -0.00771,-0.010884 -0.00629,-0.012496 -0.00454,-0.014008 -0.00454,-0.017082 -0.00302,-0.018695 -0.00302,-0.020206 -0.00151,-0.03109 v -0.03109 l 0.00302,-0.029578 0.0062,-0.029578 0.00629,-0.020206 0.0062,-0.014008 0.0062,-0.010884 0.00454,-0.00454 0.0062,0.00932 -0.00302,0.028016 0.0062,0.052934 0.00302,0.01557 0.00454,0.010884 0.00302,0.0063 0.00302,0.00302 0.00454,0.00454 0.00454,0.00302 0.010884,0.00454 0.012396,0.00302 h 0.01557 l 0.017082,-0.00151 0.082502,-0.01557 0.068484,-0.028017 0.034214,-0.013958 0.026504,-0.014008 0.00927,-0.0062 0.00932,-0.00781 0.00629,-0.0062 0.00454,-0.00454 -0.00781,-0.037288 -0.010884,-0.0389 -0.014008,-0.0389 -0.017082,-0.041974 -0.018594,-0.041974 -0.021818,-0.043587 -0.023381,-0.043587 -0.026504,-0.04671 0.00151,-0.021818 0.00151,-0.023381 0.00454,-0.023381 0.00454,-0.023381 0.0062,-0.026404 0.0062,-0.024892 0.00932,-0.028017 0.00937,-0.026504 0.1011914,0.2864216 0.014008,0.043587 0.012496,0.0389 0.010884,0.037389 0.00937,0.032652 0.00781,0.029578 0.0062,0.026504 0.00454,0.024892 0.00151,0.018695 0.1229491,-0.00781 0.121418,-0.010884 0.02021,-0.00302 0.01859,-0.00454 0.01557,-0.00302 0.01249,-0.00454 0.01088,-0.00454 0.0078,-0.00454 0.0045,-0.00454 0.0015,-0.0063 -0.003,-0.01557 -0.003,-0.017082 -0.0078,-0.018695 -0.0093,-0.021818 -0.01088,-0.021818 -0.01401,-0.023381 -0.01557,-0.026504 -0.01859,-0.026403 0.0062,-0.043587 0.0094,-0.043587 0.0124,-0.045098 0.0124,-0.043587 0.02801,0.049784 0.02489,0.048273 0.02182,0.04671 0.01859,0.045098 0.01401,0.043587 0.01088,0.041974 0.0094,0.041974 0.0045,0.040462 v 0.018695 0.017082 0.01557 l -0.0015,0.014008 -0.0015,0.012496 -0.003,0.010884 -0.0045,0.00937 -0.0045,0.0062 -0.01088,0.012496 -0.01249,0.00937 -0.01557,0.010884 -0.01718,0.00781 -0.01869,0.00776 -0.02176,0.0063 -0.02489,0.00454 -0.02651,0.00454 -0.174351,0.01557 -0.0763,0.00454 -0.0045,0.00151 -0.0045,-0.00151 h -0.00454 l -0.00302,-0.00302 -0.00771,-0.0062 -0.00589,-0.00917 0,0 z m 0.2879535,-0.8529813 -0.0078,0.0389 -0.0094,0.035776 -0.0093,0.034265 -0.01088,0.031191 -0.149454,-0.082502 0.04208,-0.1354408 0.144784,0.077831 0,0 z m 0.575902,-0.049784 -0.0093,0.0389 -0.0094,0.037288 -0.01088,0.032703 -0.0124,0.031091 -0.146316,-0.090237 0.0452,-0.133904 0.14309,0.084115 0,0 z m 0.225677,0.6988512 v 0.020206 0.021818 0.021818 l -0.003,0.020206 -0.0015,0.021818 -0.0045,0.020206 -0.003,0.021769 -0.0063,0.020206 -0.0062,0.021818 -0.0062,0.020206 -0.0078,0.020206 -0.0078,0.020206 -0.02021,0.041974 -0.02338,0.040462 -0.0124,0.020206 -0.0125,0.017182 -0.01401,0.018695 -0.0124,0.01557 -0.01401,0.01552 -0.0124,0.012396 -0.01401,0.014008 -0.01401,0.010884 -0.01401,0.010934 -0.01557,0.00771 -0.01401,0.00937 -0.01557,0.0063 -0.01557,0.00454 -0.01401,0.00454 -0.01557,0.00302 -0.01708,0.00302 h -0.01557 l -0.01708,-0.00302 -0.01859,-0.00454 -0.01869,-0.00781 -0.01869,-0.010884 -0.02021,-0.012396 -0.02021,-0.01557 -0.02177,-0.018695 -0.02182,-0.018695 -0.01718,-0.018695 -0.01557,-0.01557 -0.01249,-0.01557 -0.0094,-0.012496 -0.0078,-0.012396 -0.0045,-0.010884 -0.0015,-0.00932 0.0062,-0.010884 0.07162,0.029578 0.01708,0.00776 0.01557,0.0062 0.01708,0.00454 0.01401,0.00302 0.01557,0.00302 0.01401,0.00151 h 0.0124 0.0125 l 0.01395,-0.00151 0.01401,-0.00302 0.01401,-0.00454 0.01395,-0.00454 0.01401,-0.0063 0.01401,-0.0062 0.01401,-0.00781 0.01401,-0.00937 0.0124,-0.00932 0.01401,-0.010884 0.01401,-0.012496 0.0124,-0.012396 0.02651,-0.028017 0.0264,-0.034214 0.02182,-0.028067 0.01859,-0.028017 0.01557,-0.024892 0.0124,-0.023381 0.0093,-0.020206 0.0062,-0.020206 0.003,-0.017082 0.0015,-0.01557 -0.003,-0.01562 -0.0063,-0.018695 -0.01088,-0.021818 -0.01401,-0.023381 -0.01859,-0.028016 -0.02338,-0.031091 -0.02651,-0.034265 -0.03109,-0.037288 0.04197,-0.1463148 0.01718,0.017082 0.01557,0.017182 0.01401,0.017082 0.01401,0.017182 0.0125,0.018593 0.01249,0.018695 0.01088,0.020206 0.0094,0.018695 0.0093,0.020206 0.0077,0.020206 0.0062,0.021818 0.0063,0.021818 0.0045,0.021818 0.003,0.021818 0.003,0.023381 0.0015,0.02328 0,0 z m 0.533928,-0.216406 0.0015,0.062281 -0.0015,0.051322 -0.003,0.040462 -0.003,0.026504 -0.003,0.010884 -0.0045,0.014008 -0.0063,0.01557 -0.0078,0.017133 -0.02338,0.040462 -0.02807,0.048273 -0.01088,-0.3393553 -0.05446,-0.673959 0.09491,-0.16186485 0.0015,0.068487 0.0015,0.0654249 0.0015,0.062276 0.0015,0.05753 0.003,0.056073 0.003,0.051322 0.003,0.04671 0.003,0.045098 0.03094,0.3953528 0,0 z m 0.64753,0.2085903 v 0.021818 l -0.0015,0.020206 -0.0015,0.021818 -0.003,0.020206 -0.003,0.021818 -0.0045,0.020206 -0.0063,0.020206 -0.0062,0.020206 -0.0063,0.020206 -0.0078,0.020206 -0.0093,0.020206 -0.0094,0.018594 -0.01093,0.020206 -0.01088,0.018695 -0.0124,0.020206 -0.01401,0.018695 -0.0124,0.018695 -0.01401,0.017082 -0.01401,0.01557 -0.01395,0.01552 -0.01401,0.014008 -0.01401,0.012496 -0.01401,0.010884 -0.01558,0.010884 -0.01401,0.00781 -0.01557,0.00776 -0.01557,0.00781 -0.01401,0.00454 -0.01556,0.00454 -0.01557,0.00302 -0.01719,0.00151 h -0.01558 l -0.01556,-0.00151 -0.01708,-0.00302 -0.01708,-0.00781 -0.01869,-0.00937 -0.01869,-0.012396 -0.02021,-0.014008 -0.01869,-0.018695 -0.02182,-0.020206 -0.01869,-0.020206 -0.01708,-0.018594 -0.01557,-0.018695 -0.01088,-0.01557 -0.0093,-0.014008 -0.0063,-0.012496 -0.0045,-0.012396 -0.0015,-0.00932 0.0078,-0.00937 0.06849,0.035776 0.01708,0.00937 0.01557,0.00781 0.01401,0.0063 0.01557,0.00454 0.01401,0.00302 0.01401,0.00302 0.01401,0.00151 0.01401,0.00151 0.01401,-0.00151 0.01395,-0.00151 0.01401,-0.00151 0.01401,-0.00454 0.01401,-0.00302 0.01557,-0.0062 0.01396,-0.0062 0.01401,-0.00781 0.01401,-0.00937 0.01401,-0.00937 0.01401,-0.010884 0.01401,-0.010884 0.02801,-0.026504 0.02801,-0.029578 0.02177,-0.028017 0.02021,-0.024892 0.01708,-0.023381 0.01401,-0.021818 0.0094,-0.020206 0.0078,-0.018594 0.0045,-0.017082 0.0015,-0.01557 -0.0015,-0.01557 -0.0062,-0.018593 -0.0094,-0.023381 -0.0124,-0.026504 -0.01708,-0.029578 -0.02182,-0.032703 -0.02499,-0.035776 -0.02802,-0.040462 0.04827,-0.1416387 0.01557,0.018695 0.01556,0.017082 0.01401,0.018695 0.0124,0.020206 0.0124,0.018695 0.01093,0.020206 0.0093,0.020206 0.0078,0.020206 0.0078,0.021818 0.0078,0.020206 0.0045,0.021818 0.0045,0.021818 0.003,0.023381 0.003,0.021818 0.0015,0.023381 v 0.023027 l 0,0 z m 1.228108,-0.2458937 -0.003,0.01557 -0.0062,0.020206 -0.0094,0.024892 -0.0124,0.028017 -0.02338,0.0389 -0.003,0.0062 -0.0062,-0.010884 -0.0078,-0.00937 -0.0078,-0.00781 -0.0078,-0.0062 -0.0094,-0.0062 -0.0093,-0.00454 -0.01093,-0.00302 -0.0124,-0.00151 -0.01869,-0.00151 h -0.02021 l -0.02021,0.00302 -0.02182,0.0062 -0.02338,0.00781 -0.02328,0.00932 -0.02338,0.012396 -0.02499,0.014008 -0.02338,0.01557 -0.02021,0.01557 -0.01708,0.014008 -0.01558,0.014008 -0.01088,0.012496 -0.0079,0.012396 -0.0062,0.010884 -0.0015,0.010884 0.0015,0.00454 0.0078,0.0062 0.0124,0.00781 0.01869,0.00937 0.0514,0.023381 0.07163,0.028017 0.0389,0.01557 0.03421,0.01557 0.02801,0.01557 0.02338,0.01557 0.0093,0.00771 0.0078,0.00781 0.0062,0.0063 0.0062,0.00776 0.003,0.00781 0.003,0.00781 0.0015,0.00781 v 0.00781 l -0.003,0.032703 -0.0045,0.03109 -0.0045,0.026504 -0.0078,0.023381 -0.0062,0.021818 -0.0093,0.018695 -0.0094,0.014008 -0.01088,0.012496 -0.01708,0.01557 -0.02031,0.01557 -0.02182,0.01557 -0.02489,0.01557 -0.02651,0.014008 -0.02948,0.014008 -0.03271,0.013958 -0.03426,0.014008 -0.04198,0.012496 -0.04052,0.010884 -0.03578,0.00937 -0.03426,0.0062 -0.06687,0.00454 -0.06542,-0.00302 -0.02958,-0.00454 -0.02812,-0.00781 -0.02489,-0.00937 -0.02338,-0.012396 -0.02182,-0.014008 -0.02021,-0.017082 -0.01713,-0.018694 -0.01547,-0.021818 -0.01401,-0.023381 -0.01093,-0.024993 -0.0093,-0.028017 -0.0078,-0.028017 -0.0045,-0.031191 -0.003,-0.032652 V 2.154948 l 0.0015,-0.035776 0.0045,-0.0389 0.0062,-0.040462 0.0093,-0.040462 0.01088,-0.040462 0.01401,-0.041974 0.01719,-0.043587 0.02021,-0.043587 0.02338,-0.043587 0.02182,-0.037288 0.02021,-0.031191 0.01718,-0.028017 0.01547,-0.021818 0.0124,-0.017082 0.0125,-0.010884 0.0045,-0.00454 0.0045,-0.00151 0.0045,-0.00151 h 0.003 l 0.0063,0.010884 -0.0063,0.014008 -0.0124,0.031191 -0.02338,0.048273 -0.03109,0.06542 -0.01719,0.035776 -0.01401,0.034265 -0.01401,0.032703 -0.01088,0.029578 -0.0078,0.028016 -0.0062,0.026504 -0.0063,0.024892 -0.0015,0.021818 -0.0015,0.031191 v 0.027966 l 0.0015,0.026504 0.003,0.023381 0.0062,0.023381 0.0062,0.021818 0.0094,0.020206 0.0093,0.017182 0.0124,0.01557 0.01401,0.01552 0.01557,0.012496 0.01708,0.010884 0.01869,0.00937 0.02182,0.00781 0.02182,0.0062 0.02489,0.00454 0.02499,0.00151 0.02801,0.00151 0.02801,-0.00151 0.02958,-0.00302 0.03266,-0.00454 0.0327,-0.00776 0.03421,-0.00781 0.03578,-0.010884 0.09653,-0.035776 0.03885,-0.020206 0.03739,-0.021768 -0.0093,-0.00454 -0.0094,-0.00454 -0.0327,-0.014008 -0.0326,-0.01557 -0.03119,-0.014008 -0.03266,-0.012496 -0.03421,-0.012396 -0.02958,-0.012396 -0.02499,-0.012496 -0.02021,-0.010884 -0.01718,-0.010934 -0.01088,-0.00937 -0.0045,-0.00454 -0.0015,-0.00454 -0.003,-0.00454 v -0.00454 l 0.003,-0.028017 0.003,-0.026504 0.0062,-0.026454 0.0045,-0.024892 0.0078,-0.024892 0.0078,-0.023381 0.0093,-0.023381 0.01093,-0.021768 0.0124,-0.021818 0.0124,-0.020206 0.01401,-0.020206 0.01557,-0.020206 0.01556,-0.018594 0.01708,-0.017133 0.01869,-0.017082 0.01859,-0.017082 0.03271,-0.021818 0.03119,-0.018695 0.01547,-0.00932 0.01557,-0.0062 0.01556,-0.00781 0.01557,-0.00454 0.01557,-0.00454 0.01556,-0.00454 0.01396,-0.00151 0.01557,-0.00302 h 0.01557 0.01557 0.01401 l 0.01557,0.00151 0.0124,0.00302 0.0124,0.00454 0.0093,0.0063 0.0062,0.00781 0.0063,0.00937 0.003,0.010884 0.0015,0.012396 v 0.013756 l 5.04e-4,0 z m 0.495017,-0.2226139 -0.01401,0.035776 -0.01557,0.032703 -0.01557,0.029578 -0.01708,0.026454 -0.129233,-0.1276205 0.06542,-0.1182783 0.126013,0.1214176 0,0 z m 0.09024,0.834292 -0.0093,0.028017 -0.0124,0.026504 -0.01249,0.026504 -0.01401,0.026454 -0.01558,0.024993 -0.01708,0.023381 -0.01869,0.024892 -0.02182,0.023381 -0.01557,0.01557 -0.01395,0.014008 -0.01557,0.014008 -0.01557,0.012496 -0.01557,0.010884 -0.01556,0.00937 -0.01558,0.00932 -0.01557,0.0063 -0.01547,0.0062 -0.01557,0.00454 -0.01557,0.00454 -0.01557,0.00151 -0.01557,0.00151 h -0.01557 -0.01708 l -0.01557,-0.00302 -0.01557,-0.00454 -0.01718,-0.0062 -0.01547,-0.010934 -0.01718,-0.012396 -0.01719,-0.01557 -0.01859,-0.018594 -0.01708,-0.020206 -0.01869,-0.024892 -0.01718,-0.023381 -0.01547,-0.023381 -0.01249,-0.020206 -0.0093,-0.017082 -0.0078,-0.01557 -0.0045,-0.014008 -0.003,-0.012496 v -0.00937 l 0.0078,-0.00781 0.06542,0.048273 0.01556,0.010884 0.01547,0.010884 0.01401,0.00937 0.01401,0.00781 0.01411,0.0062 0.01401,0.00454 0.0124,0.00454 0.0124,0.00302 0.01401,0.00151 0.01401,0.00151 h 0.01401 0.01558 l 0.01401,-0.00302 0.01401,-0.00302 0.01557,-0.00302 0.01401,-0.00454 0.01556,-0.0062 0.01401,-0.0063 0.01557,-0.00781 0.01557,-0.00937 0.02948,-0.021818 0.03119,-0.024892 0.02499,-0.021818 0.02328,-0.021818 0.01869,-0.020206 0.01547,-0.018594 0.01249,-0.018694 0.0093,-0.017082 0.0062,-0.01557 0.003,-0.01557 v -0.01557 l -0.003,-0.020206 -0.0078,-0.023381 -0.0094,-0.028017 -0.01401,-0.032703 -0.01718,-0.037389 -0.02182,-0.040462 -0.02328,-0.045098 0.0622,-0.1307648 0.02499,0.037389 0.02021,0.037389 0.0094,0.018594 0.0077,0.018695 0.0078,0.020206 0.0062,0.018593 0.0045,0.018695 0.0062,0.020206 0.003,0.020206 0.003,0.018594 0.003,0.020206 0.0015,0.020206 v 0.020206 0.020206 h 0.003 l 0.0045,0.00151 0.118353,0.0389 0.118274,0.035776 0.02031,0.00454 0.01859,0.00454 0.01557,0.00151 0.01401,0.00151 h 0.01088 l 0.0078,-0.00302 0.0063,-0.00302 0.003,-0.00302 0.0015,-0.017082 -0.0015,-0.018695 -0.0015,-0.020206 -0.0045,-0.023381 -0.0062,-0.026404 -0.0082,-0.028118 -0.0093,-0.029578 -0.0124,-0.032652 0.01719,-0.0389 0.01859,-0.0389 0.02021,-0.037389 0.02338,-0.037288 0.01401,0.054465 0.0124,0.052934 0.01093,0.051402 0.0062,0.048273 0.0045,0.045199 0.003,0.043587 v 0.041974 l -0.003,0.0389 0.147846,0.056078 0.272485,0.09652 0.14317,0.046711 0.0015,-0.00937 -0.04348,-0.071629 -0.0389,-0.060668 -0.03421,-0.051322 -0.03119,-0.042075 -0.0124,-0.014008 -0.01401,-0.012396 -0.01093,-0.010884 -0.0124,-0.00937 -0.0124,-0.00781 -0.01093,-0.00781 -0.0124,-0.00454 -0.01088,-0.00454 -0.0078,-0.00151 -0.0093,-0.00151 -0.0094,-0.00151 h -0.01088 l -0.0124,0.00151 -0.01249,0.00151 -0.01401,0.00302 -0.01401,0.00302 -0.03578,0.0062 -0.0124,0.00151 -0.0015,-0.0063 0.02489,-0.045098 0.02499,-0.031191 0.0045,-0.00454 0.0045,-0.00454 0.0045,-0.00454 0.0062,-0.00302 0.01718,-0.010884 0.01708,-0.00932 0.01718,-0.0062 0.01718,-0.00454 0.01708,-0.00151 h 0.01869 l 0.01708,0.00302 0.01869,0.00454 0.0093,0.00302 0.01093,0.0062 0.01088,0.0062 0.01249,0.00937 0.02328,0.021768 0.02651,0.026504 0.02646,0.032703 0.02958,0.0389 0.02958,0.045098 0.03266,0.051402 0.04052,0.062281 0.03265,0.051402 0.02801,0.040462 0.02021,0.028017 0.0094,0.010884 0.01093,0.010884 0.01088,0.00937 0.01088,0.00937 0.01249,0.00781 0.0124,0.0062 0.01401,0.0063 0.01557,0.00454 L 15.305982,2.67164 15.084899,2.604683 14.871718,2.542407 14.666267,2.46772 14.476366,2.397624 l -0.0062,-0.00302 -0.0062,-0.00302 -0.0045,-0.0062 -0.003,-0.00454 -0.0124,0.00302 -0.01411,0.00302 -0.01547,0.00151 h -0.01557 l -0.01869,-0.00151 -0.02021,-0.00302 -0.0202,-0.00302 -0.02338,-0.0062 -0.169595,-0.051402 -0.07476,-0.026504 -0.0045,-0.00151 -0.0036,-0.00202 0,0 z m 0.317522,0.443691 -0.0451,-0.051402 -0.07163,-0.084034 -0.05455,0.08097 -0.109007,-0.1229493 -0.01708,0.021818 -0.01718,0.026504 -0.0186,0.028016 -0.02031,0.032703 0.121412,0.1416386 0.05769,-0.08089 0.102644,0.1229494 0.02021,-0.026504 0.01869,-0.028016 0.01708,-0.029578 0.01572,-0.031241 0,0 z m 0.591533,0.018695 -0.104336,-0.1369626 -0.05446,0.070011 -0.08879,-0.1167414 -0.01859,0.023381 -0.01869,0.023381 -0.01547,0.026404 -0.01557,0.026504 0.101196,0.1276205 0.05293,-0.068484 0.09185,0.1167414 0.06993,-0.091849 0,0 z m -0.06696,0.2007804 -0.06542,0.085646 -0.09491,-0.1120753 0.0124,-0.018695 0.01401,-0.021818 0.01708,-0.026504 0.02182,-0.027966 0.09499,0.1214175 0,0 z m 1.239067,0.1089261 -0.0124,0.021818 -0.01411,0.021818 -0.01547,0.020206 -0.01557,0.018695 -0.01869,0.020206 -0.0186,0.017082 -0.02021,0.017082 -0.02021,0.017082 -0.01718,0.012496 -0.01718,0.010884 -0.01708,0.00937 -0.01718,0.00781 -0.01708,0.00781 -0.01557,0.0062 -0.01713,0.00454 -0.01557,0.00302 -0.01708,0.00302 -0.01556,0.00151 h -0.01557 l -0.01557,-0.00151 -0.01556,-0.00302 -0.01547,-0.00302 -0.01557,-0.00454 -0.01557,-0.0062 -0.01557,-0.00781 -0.01401,-0.010884 -0.01557,-0.014008 -0.01557,-0.01557 -0.01401,-0.020206 -0.01557,-0.021818 -0.01547,-0.024892 -0.01401,-0.028017 -0.01411,-0.028067 -0.0124,-0.024993 -0.0093,-0.023381 -0.0078,-0.018695 -0.0045,-0.018695 -0.003,-0.013958 -0.0015,-0.012497 0.0015,-0.00937 0.0093,-0.0063 0.05607,0.062281 0.01401,0.01557 0.0124,0.012396 0.0124,0.012396 0.01401,0.010884 0.0124,0.00937 0.01249,0.00937 0.0124,0.0062 0.01401,0.0063 0.01249,0.0062 0.01396,0.00454 0.01401,0.00302 0.01557,0.00151 0.01401,0.00151 0.01411,0.00151 0.01547,-0.00151 0.01557,-0.00151 0.01557,-0.00151 0.01557,-0.00302 0.01557,-0.00454 0.01547,-0.0062 0.01718,-0.0063 0.01557,-0.0062 0.01708,-0.00776 0.01718,-0.00937 0.02801,-0.017082 0.02499,-0.01557 0.02021,-0.01557 0.01859,-0.01557 0.01557,-0.015519 0.01093,-0.014008 0.0077,-0.014008 0.0063,-0.014008 0.0015,-0.01557 -0.0015,-0.020206 -0.003,-0.026504 -0.0078,-0.029578 -0.0093,-0.035776 -0.01093,-0.0389 -0.01557,-0.045098 -0.01859,-0.049784 0.07936,-0.1152146 0.01088,0.021818 0.0094,0.021818 0.0078,0.021818 0.0078,0.021768 0.0062,0.021818 0.0062,0.021769 0.0045,0.021818 0.003,0.021818 0.003,0.021818 0.0015,0.020206 0.0015,0.021818 v 0.020206 l -0.0015,0.021818 -0.0015,0.021818 -0.0015,0.020206 -0.0045,0.020206 0.06534,0.035826 0.05914,0.032703 0.05455,0.034265 0.04827,0.032703 v -0.0389 l 0.0078,-0.04671 0.0062,-0.018695 0.0078,-0.018695 0.0094,-0.017082 0.0093,-0.017182 0.01093,-0.01552 0.0124,-0.017082 0.01401,-0.01557 0.01557,-0.014008 0.01547,-0.014008 0.01557,-0.010884 0.01557,-0.00781 0.01401,-0.0062 0.01401,-0.00302 0.01411,-0.00151 h 0.01396 l 0.01411,0.00454 -0.0063,-0.01557 -0.003,-0.014008 -0.003,-0.014008 -0.003,-0.013958 v -0.014017 -0.012496 l 0.0015,-0.012496 0.003,-0.010884 0.01401,-0.029578 0.01401,-0.024892 0.01401,-0.020206 0.0124,-0.017082 0.0063,-0.00454 0.0062,-0.0062 0.0045,-0.00302 0.0062,-0.00302 0.0062,-0.00151 h 0.0045 0.0045 l 0.0062,0.00302 0.0078,0.00454 0.0093,0.00781 0.0078,0.00781 0.0078,0.00932 0.0078,0.012396 0.0077,0.012496 0.0063,0.014008 0.0078,0.017182 0.0124,0.035776 0.01088,0.042075 0.0093,0.049784 0.0078,0.054465 0.0062,0.056073 0.0045,0.054465 0.003,0.049784 v 0.048273 l -0.003,0.046711 -0.0045,0.041974 -0.0078,0.040462 -0.0078,0.037389 -0.02182,0.055997 -0.0062,0.012396 -0.0078,0.012496 -0.0093,0.014008 -0.0093,0.012497 -0.0093,0.010884 -0.0078,0.00937 -0.0062,0.00781 -0.0078,0.0062 -0.0062,0.00302 -0.0078,0.00302 -0.0045,0.00151 h -0.0062 l -0.0125,-0.00932 -0.01708,-0.014008 -0.02182,-0.023381 -0.02651,-0.028067 -0.09805,-0.1042549 -0.01088,0.00302 h -0.01249 l -0.01557,-0.00151 -0.01547,-0.00151 -0.01718,-0.00302 -0.01859,-0.00454 -0.02182,-0.0062 -0.02182,-0.00781 -0.09499,-0.049885 -0.151228,-0.067279 0,0 z m 0.599353,0.1836984 0.0045,-0.035776 0.0015,-0.040462 V 3.130794 l -0.003,-0.045098 -0.0062,-0.049784 -0.0078,-0.051402 -0.01088,-0.056073 -0.01401,-0.059142 -0.003,-0.00151 v 0.00932 l -0.0015,0.012396 -0.003,0.018694 -0.003,0.023381 -0.003,0.024993 -0.003,0.021818 -0.0045,0.018694 -0.003,0.01557 -0.0094,0.028067 -0.0124,0.029578 -0.01557,0.029578 -0.01708,0.032652 0.115134,0.1166608 0,0 z m -0.115215,-0.2304242 0.003,-0.014008 0.0015,-0.014008 0.0015,-0.017082 -0.0015,-0.018694 -0.003,-0.01557 -0.0045,-0.013958 -0.0015,-0.00454 -0.0045,-0.00454 -0.003,-0.00454 -0.0045,-0.00302 h -0.003 -0.0045 -0.0062 l -0.0078,0.00151 -0.02021,0.0062 -0.02499,0.010884 -0.02182,0.014008 -0.01708,0.012496 -0.0062,0.00776 -0.0045,0.0063 -0.003,0.00454 -0.003,0.0063 v 0.00302 0.00454 l 0.0015,0.00454 0.003,0.0063 0.0094,0.01552 0.0124,0.018695 0.01411,0.020206 0.01547,0.01557 0.01401,0.012396 0.01401,0.00932 0.0045,0.00151 h 0.003 0.003 0.0045 l 0.0078,-0.00454 0.0062,-0.0063 0.0078,-0.010884 0.0062,-0.012396 0.0062,-0.017082 0.0064,-0.020307 0,0 z m 1.290308,0.9573169 -0.0094,0.023381 -0.0093,0.020206 -0.0078,0.014008 -0.0078,0.012497 -0.0078,0.00932 -0.01094,0.00937 -0.01088,0.00781 -0.01557,0.00781 -0.0045,0.00151 h -0.0078 l -0.0078,0.00151 h -0.0094 l -0.02328,-0.00302 -0.02651,-0.00454 -0.04979,-0.01557 -0.04827,-0.017082 -0.04671,-0.020206 -0.04666,-0.020206 -0.0452,-0.023381 -0.0452,-0.024892 -0.04509,-0.026504 -0.04359,-0.028017 -0.03578,-0.024892 -0.03271,-0.026504 -0.02958,-0.024892 -0.02801,-0.026504 -0.02328,-0.026504 -0.02031,-0.026403 -0.0186,-0.026504 -0.01401,-0.026504 -0.01249,-0.026454 -0.0078,-0.028017 -0.0062,-0.026504 -0.0015,-0.028017 v -0.028017 l 0.003,-0.028017 0.0063,-0.028017 0.0093,-0.029578 0.0078,-0.01557 0.0062,-0.014008 0.0078,-0.014008 0.0078,-0.012396 0.0094,-0.012496 0.01088,-0.012396 0.01249,-0.012496 0.01396,-0.014008 0.02338,-0.020206 0.01718,-0.01557 0.0078,-0.00454 0.0062,-0.00302 0.003,-0.00151 0.003,0.00151 0.0045,0.0063 -0.01859,0.032652 -0.02801,0.048273 -0.02182,0.043587 -0.0045,0.017082 -0.0045,0.018695 v 0.018694 l 0.0015,0.018594 0.003,0.018695 0.0063,0.018694 0.0078,0.018695 0.01088,0.018695 0.0124,0.018694 0.01557,0.020206 0.01869,0.018694 0.01859,0.020206 0.02338,0.020206 0.02338,0.020206 0.02802,0.020206 0.02958,0.020206 0.115134,0.071628 0.02812,0.018594 0.01859,0.010884 0.02801,0.010884 0.0265,0.012496 0.02176,0.00932 0.01869,0.00781 0.06542,0.029578 0.04827,0.018694 0.0186,0.0062 0.01249,0.00454 0.0093,0.00151 h 0.0063 l 0.003,-0.010884 0.0045,-0.014008 0.003,-0.017082 0.0015,-0.018695 v -0.020206 l -0.0015,-0.021818 -0.003,-0.024892 -0.0062,-0.024892 -0.0062,-0.026504 0.03119,-0.040462 0.0264,-0.03109 0.02182,-0.023381 0.01718,-0.012396 0.003,0.035776 0.0015,0.037388 v 0.040462 0.043587 l -0.003,0.023381 -0.0045,0.021818 -0.003,0.020206 -0.0045,0.018695 -0.0045,0.017082 -0.0045,0.01557 -0.0045,0.01557 -0.0059,0.015722 0,0 z m -0.474711,0.2692591 -0.08878,-0.1680678 -0.09185,0.082502 0.09185,0.1774148 0.02182,-0.018694 0.02328,-0.021769 0.02182,-0.023381 0.02182,-0.028016 0,0 z m 1.207887,-0.8607161 -0.0124,0.017082 -0.0124,0.014008 -0.01411,0.012396 -0.01547,0.00937 -0.01557,0.00781 -0.01557,0.0062 -0.01719,0.00302 h -0.01708 -0.01718 l -0.0186,-0.00302 -0.0202,-0.0062 -0.02031,-0.00781 -0.02021,-0.00937 -0.02182,-0.012396 -0.02182,-0.014008 -0.02338,-0.017082 -0.0093,-0.0063 -0.0078,-0.0062 -0.0094,-0.00454 -0.0094,-0.00302 -0.0093,-0.00151 -0.0078,-0.00151 h -0.0093 l -0.0094,0.00151 h -0.0062 l -0.0078,0.00302 -0.0078,0.00151 -0.0062,0.00302 -0.0124,0.00937 -0.0124,0.012396 -0.003,-0.010884 -0.0015,-0.010884 -0.0015,-0.00937 v -0.00937 l 0.0015,-0.00932 0.0015,-0.00937 0.0015,-0.00937 0.003,-0.00937 0.0045,-0.00932 0.0062,-0.00937 0.0062,-0.00781 0.0078,-0.00781 0.0094,-0.0062 0.0078,-0.0062 0.01088,-0.0062 0.01093,-0.00454 0.01088,-0.00302 0.01093,-0.00302 h 0.01088 0.0094 l 0.0093,0.00151 0.0094,0.00302 0.0094,0.00454 0.0078,0.0062 0.04197,0.031191 0.04197,0.032703 0.01401,0.010884 0.01401,0.00781 0.0124,0.00776 0.01411,0.0063 0.0124,0.00454 0.0124,0.00454 0.0124,0.00151 0.01093,0.00151 h 0.01088 l 0.01249,-0.00151 0.01088,-0.00302 0.0093,-0.00454 0.01088,-0.00454 0.0094,-0.00781 0.0093,-0.00781 0.0093,-0.00932 -0.0045,0.048323 0,0 z m -0.498156,0.7985158 -0.01401,0.03109 -0.0124,0.024892 -0.01088,0.017082 -0.0078,0.00932 -0.0045,0.0063 -0.0078,0.00776 -0.0093,0.00781 -0.01249,0.00781 -0.02801,0.01552 -0.03739,0.017082 0.102723,-0.2521772 0.182166,-0.5229732 0.12295,-0.062281 -0.242916,0.6475299 -0.0124,0.026504 -0.0077,0.018694 0,0 z m 0.761293,-0.1852252 -0.02338,0.026504 -0.02338,0.023381 -0.02338,0.018694 -0.02338,0.017082 -0.08242,-0.1836984 0.09499,-0.076218 0.08089,0.1742705 0,0 z m -0.105948,0.7471138 -0.0094,0.018694 -0.0093,0.017082 -0.0093,0.017082 -0.01088,0.01557 -0.01093,0.01557 -0.01088,0.01557 -0.0125,0.014008 -0.01401,0.012496 -0.01401,0.014008 -0.01401,0.010884 -0.01556,0.012396 -0.01557,0.00932 -0.01547,0.010884 -0.01713,0.00932 -0.0186,0.00781 -0.01869,0.00937 -0.0186,0.0063 -0.01719,0.0062 -0.0186,0.00454 -0.01719,0.00302 -0.01859,0.00302 -0.01719,0.00151 h -0.01557 l -0.01708,-0.00151 -0.01557,-0.00151 -0.01557,-0.00302 -0.01557,-0.00454 -0.01557,-0.00454 -0.01556,-0.00781 -0.01401,-0.00781 -0.01395,-0.00776 -0.01411,-0.010934 -0.01401,-0.012396 -0.01401,-0.014008 -0.0124,-0.017082 -0.0124,-0.020206 -0.01093,-0.023381 -0.01088,-0.026504 -0.01093,-0.028017 -0.01088,-0.031191 -0.0094,-0.03109 -0.0062,-0.028016 -0.0062,-0.024892 -0.0045,-0.021818 -0.0015,-0.018695 -0.0015,-0.01557 0.0015,-0.012396 0.0015,-0.00781 0.01088,-0.00454 0.0452,0.077831 0.02338,0.035776 0.02177,0.029578 0.01093,0.012396 0.01088,0.012396 0.01093,0.00932 0.01088,0.00932 0.01249,0.00937 0.0124,0.00781 0.0124,0.00781 0.01401,0.0062 0.01401,0.00454 0.01401,0.00454 0.01558,0.00454 0.01556,0.00151 0.01401,0.00302 h 0.01718 0.01547 0.01719 l 0.01557,-0.00151 0.0186,-0.00302 0.01718,-0.00302 0.01719,-0.00454 0.03109,-0.00781 0.0264,-0.00932 0.02338,-0.00937 0.02031,-0.00937 0.01708,-0.010884 0.0124,-0.010884 0.01093,-0.012497 0.0078,-0.012396 0.003,-0.014008 0.003,-0.020206 v -0.026454 l -0.0015,-0.03109 -0.0045,-0.037389 -0.0045,-0.041974 -0.0078,-0.048273 -0.0093,-0.052934 0.09499,-0.090317 0.0078,0.026504 0.0045,0.024892 0.0045,0.024892 0.0045,0.026454 0.003,0.023381 0.0015,0.024892 v 0.023381 0.024892 0.021818 l -0.003,0.023381 -0.003,0.023381 -0.0045,0.021818 -0.0045,0.021818 -0.0062,0.020206 -0.0078,0.021818 -0.0081,0.020206 0,0 z m 0.200775,0.00781 0.126094,-0.3611083 0.01401,-0.040513 0.01557,-0.041974 0.01708,-0.046661 0.02021,-0.048273 0.02021,-0.051402 0.02338,-0.054465 0.02338,-0.057605 0.0264,-0.059137 -0.144778,0.073155 -0.214798,0.6148225 -0.122949,0.2988274 0.04359,-0.021818 0.03432,-0.020206 0.01401,-0.00937 0.0124,-0.00781 0.0093,-0.00776 0.0062,-0.00781 0.01401,-0.021818 0.01708,-0.031191 0.02031,-0.043587 0.02489,-0.054304 z m -5.091458,13.0222419 0.03577,0.05446 0.0389,0.05446 0.04052,0.05293 0.04504,0.05293 0.02338,0.02646 0.02338,0.02641 0.02651,0.02651 0.0264,0.02651 0.02801,0.0264 0.02958,0.02651 0.02958,0.02485 0.03109,0.0266 0.03427,0.02479 0.03427,0.0264 0.03582,0.02499 0.03729,0.02646 0.039,0.02499 0.04046,0.02485 0.04359,0.02499 0.04359,0.02479 0.04672,0.02499 0.04817,0.02338 0.04988,0.02479 0.05293,0.02343 0.05446,0.02479 0.056,0.02338 0.05761,0.02338 0.06227,0.02338 -0.05768,0.112071 -0.07622,0.101196 -0.09338,0.09177 -0.110458,0.08097 -0.124556,0.07315 -0.140113,0.06381 -0.150985,0.05446 -0.165004,0.04671 -0.174352,0.04046 -0.183698,0.03119 -0.19296,0.02641 -0.199249,0.0188 -0.206978,0.01395 -0.210202,0.0078 -0.21488,0.003 -0.217857,-0.0015 -0.217938,-0.0045 -0.219389,-0.01088 -0.217938,-0.0125 -0.216411,-0.01547 -0.21318,-0.01874 -0.210204,-0.02021 -0.203919,-0.02176 -0.196105,-0.02338 -0.189901,-0.02338 -0.180554,-0.02489 -0.171212,-0.02338 -0.158801,-0.02328 -0.281746,-0.0452 -0.2225333,-0.03739 0.2428351,-0.05293 0.2428352,-0.05446 0.242755,-0.05446 0.23969,-0.05608 0.119886,-0.02958 0.119805,-0.02948 0.119886,-0.02958 0.118278,-0.03119 0.118354,-0.0327 0.116741,-0.03266 0.116746,-0.03426 0.116747,-0.03432 0.11521,-0.03568 0.115133,-0.03593 0.113602,-0.03885 0.113683,-0.039 0.112071,-0.04036 0.110458,-0.04207 0.110544,-0.04359 0.109006,-0.0452 0.108931,-0.04671 0.107399,-0.04817 0.105868,-0.04827 0.105787,-0.0514 0.102803,-0.05438 0.102724,-0.05455 0.101196,-0.05761 0.101196,-0.05761 0.02021,-0.01547 0.02021,-0.01411 0.02021,-0.01401 0.02021,-0.01088 0.02021,-0.01079 0.02177,-0.01093 0.02031,-0.0078 0.02021,-0.0077 0.02021,-0.0078 0.0202,-0.0045 0.02021,-0.0062 0.02021,-0.003 0.04213,-0.0062 0.04046,-0.003 0.04046,0 0.04207,0.003 0.04046,0.0045 0.04046,0.0062 0.04197,0.0094 0.04052,0.0094 0.04046,0.0124 z m 4.026823,-1.169052 -0.0763,0.116827 -0.07621,0.115135 -0.07791,0.113601 -0.07936,0.113683 -0.08089,0.112071 -0.08097,0.11207 -0.08404,0.108927 -0.08411,0.109011 -0.08557,0.107399 -0.08871,0.104336 -0.09032,0.104255 -0.09185,0.102723 -0.09337,0.09958 -0.09652,0.09805 -0.04979,0.04827 -0.04979,0.04833 -0.04988,0.04666 -0.05132,0.04671 -0.04208,0.01079 -0.04046,0.0078 -0.04197,0.0045 -0.04052,0.003 -0.04046,0 -0.04046,-0.0015 -0.04052,-0.0045 -0.04046,-0.0062 -0.0389,-0.0094 -0.04046,-0.01079 -0.039,-0.01254 -0.03885,-0.01401 -0.0389,-0.01698 -0.039,-0.01719 -0.03885,-0.01869 -0.039,-0.02176 -0.115136,-0.08096 -0.116741,-0.08258 -0.115134,-0.08242 -0.115215,-0.0825 -0.115215,-0.0825 -0.116742,-0.0825 -0.115214,-0.08089 -0.115134,-0.08258 -0.11521,-0.08243 -0.116746,-0.0825 -0.115214,-0.0825 -0.11521,-0.0825 -0.115134,-0.08097 -0.116747,-0.0825 -0.115128,-0.0825 -0.115296,-0.0825 -0.03427,-0.01869 -0.03416,-0.01547 -0.03421,-0.01411 -0.03427,-0.0124 -0.03432,-0.0094 -0.03578,-0.0077 -0.03421,-0.0062 -0.03577,-0.003 -0.03588,-0.0015 -0.03578,0.0015 -0.03578,0.003 -0.03739,0.0045 -0.03582,0.0078 -0.03723,0.01088 -0.03739,0.01088 -0.03739,0.01401 -0.270872,0.10426 -0.270871,0.104336 -0.270772,0.105867 -0.270792,0.104173 -0.270871,0.104336 -0.272484,0.104255 -0.270791,0.104336 -0.270871,0.10426 -0.270872,0.104335 -0.270795,0.104256 -0.272399,0.104335 -0.270876,0.104255 -0.2707914,0.105787 -0.2708715,0.104335 -0.2708716,0.10426 -0.2707909,0.104336 -0.060749,0.01093 -0.059137,0.0093 -0.060749,0.0062 -0.059056,0.0062 -0.059218,0.003 -0.05761,0.003 -0.059137,0 -0.057524,-0.003 -0.05761,-0.0045 -0.057604,-0.0062 -0.057605,-0.0094 -0.055997,-0.01249 -0.056078,-0.01401 -0.055992,-0.01708 -0.056078,-0.02021 -0.054461,-0.02338 -0.1073993,-0.05607 -0.1027283,-0.05761 -0.1011913,-0.05753 -0.098052,-0.05922 -0.09652,-0.05914 -0.094913,-0.06067 -0.09193,-0.06236 -0.090237,-0.0622 -0.087173,-0.06228 -0.087178,-0.0638 -0.084034,-0.06381 -0.080971,-0.0638 -0.080889,-0.06542 -0.077831,-0.06688 -0.077906,-0.06696 -0.074611,-0.06696 -0.073236,-0.06687 -0.071542,-0.06857 -0.070015,-0.07001 -0.070177,-0.06849 -0.066872,-0.07009 -0.066952,-0.07002 -0.065339,-0.07163 -0.062281,-0.07001 -0.063813,-0.07154 -0.060749,-0.07323 -0.060668,-0.07155 -0.059137,-0.07315 -0.059137,-0.07323 -0.057605,-0.07307 -0.05761,-0.07324 -0.055992,-0.07315 0.2661148,0.01401 0.2646687,0.01093 0.2661198,0.0062 0.2646687,0.0015 0.2661199,-0.0015 0.2662005,-0.0045 0.2661954,-0.01088 0.2661198,-0.01562 0.2677324,-0.02021 0.2661954,-0.02328 0.2677323,-0.03119 0.2677273,-0.03427 0.2677323,-0.04046 0.2677262,-0.04511 0.2677323,-0.05141 0.2692595,-0.05599 0.267732,-0.06389 0.269339,-0.06849 0.269259,-0.07469 0.269346,-0.08097 0.27079,-0.08717 0.26934,-0.09338 0.270791,-0.101196 0.270791,-0.107395 0.272404,-0.113602 0.270871,-0.121417 0.272404,-0.129233 0.272403,-0.135355 0.272403,-0.143251 0.272404,-0.150986 0.273935,-0.15872 0.274011,-0.166617 0.04197,-0.0077 0.04052,-0.0045 0.03885,0 0.03739,0.0015 0.03427,0.0045 0.03426,0.0062 0.03271,0.0094 0.02958,0.01249 0.02963,0.01401 0.02796,0.01557 0.02807,0.01708 0.0264,0.02031 0.02499,0.02021 0.02328,0.02177 0.02489,0.02338 0.02182,0.02338 -0.0045,0.03427 0.01401,0.04359 0.02948,0.05293 0.0452,0.0622 0.06074,0.06857 0.07316,0.07783 0.08556,0.08243 0.09805,0.08717 0.105867,0.09338 0.115135,0.0966 0.123029,0.09958 0.130765,0.102722 0.133823,0.102724 0.140107,0.10434 0.141639,0.104256 0.144783,0.102722 0.144783,0.102729 0.14317,0.09805 0.14317,0.09652 0.140193,0.09185 0.136882,0.08717 0.130765,0.08097 0.124562,0.07469 0.118272,0.06849 0.108932,0.05914 0.09958,0.05141 0.08879,0.04197 0.07783,0.03119 0.06381,0.02021 0.04827,0.0077 0.03588,-0.0045 z m 0.426533,-0.781353 0.0622,-0.06381 0.06075,-0.06534 0.05914,-0.06542 0.05607,-0.06535 0.05438,-0.06696 0.05302,-0.06849 0.04979,-0.06849 0.04979,-0.07001 0.04666,-0.0701 0.04368,-0.07163 0.04349,-0.07154 0.04052,-0.07323 0.03885,-0.07308 0.03739,-0.07476 0.03582,-0.07622 0.0327,-0.0763 0.03109,-0.0763 0.02958,-0.07783 0.02801,-0.07936 0.02489,-0.07936 0.02328,-0.08097 0.02192,-0.08098 0.0186,-0.0825 0.0186,-0.08243 0.01562,-0.08404 0.01401,-0.08411 0.01088,-0.08556 0.01088,-0.08565 0.0078,-0.08717 0.0062,-0.08871 0.003,-0.08879 0.003,-0.08871 -0.169647,-0.03427 -0.158802,-0.0389 -0.147846,-0.04046 -0.138575,-0.04666 -0.129153,-0.04833 -0.119886,-0.05293 -0.110543,-0.05753 -0.104336,-0.06075 -0.0933,-0.0638 -0.08717,-0.06696 -0.07936,-0.07163 -0.07316,-0.07461 -0.06542,-0.07791 -0.05914,-0.0825 -0.05293,-0.08556 -0.0467,-0.08879 -0.04036,-0.09177 -0.03582,-0.09499 -0.03271,-0.09805 -0.0264,-0.102723 -0.02182,-0.104341 -0.0186,-0.108926 -0.01401,-0.112071 -0.01249,-0.113602 -0.0078,-0.118278 -0.0062,-0.121413 -0.003,-0.12303 -0.0015,-0.12762 0,-0.129233 0.0015,-0.133823 0.003,-0.135436 0.003,-0.13858 -0.189902,-0.08242 -0.200855,-0.06228 -0.210122,-0.04671 -0.21947,-0.02796 -0.228737,-0.01249 -0.236627,0.003 -0.244447,0.01719 -0.249038,0.02948 -0.256854,0.04359 -0.261524,0.05293 -0.266039,0.06534 -0.26934,0.07476 -0.272403,0.0825 -0.273935,0.09185 -0.275548,0.09805 -0.277075,0.102723 -0.275542,0.109012 -0.276999,0.113603 -0.27401,0.116741 -0.272323,0.118273 -0.269345,0.121418 -0.264588,0.121417 -0.261525,0.119885 -0.255321,0.119806 -0.494932,0.230348 -0.463916,0.216406 -0.21947,0.09805 -0.210123,0.09338 -0.2007753,0.08404 -0.1883746,0.07791 -0.1805541,0.05438 -0.1805542,0.04988 -0.1805542,0.04827 -0.1790223,0.04509 -0.1790223,0.04208 -0.1790274,0.0389 -0.1774098,0.03416 -0.1758832,0.0328 -0.1774098,0.02948 -0.1759637,0.02651 -0.1742707,0.02338 -0.1743512,0.02021 -0.1743513,0.01708 -0.1727388,0.01401 -0.1728195,0.01249 -0.1727387,0.0078 -0.1712876,0.0062 -0.171212,0.0045 -0.171207,0 -0.1696752,-0.0015 -0.1696802,-0.0045 -0.1680902,-0.0077 -0.1696752,-0.0094 -0.1681483,-0.01249 -0.166536,-0.01557 -0.1680677,-0.01708 -0.1650041,-0.02031 -0.1666165,-0.02177 -0.1649235,-0.02489 -0.165004,-0.0264 -0.1650042,-0.02963 -0.1650041,-0.03265 0.012396,0.09024 0.012497,0.08871 0.014008,0.0887 0.014008,0.08879 0.017182,0.08871 0.016981,0.0887 0.018695,0.08879 0.020307,0.0871 0.021768,0.08879 0.021818,0.0871 0.024892,0.08717 0.024892,0.08717 0.028017,0.08565 0.027966,0.08718 0.031191,0.08556 0.03109,0.08726 0.034315,0.08556 0.035676,0.08565 0.035826,0.08404 0.0389,0.08556 0.042075,0.08411 0.041974,0.08404 0.043587,0.08404 0.046711,0.08404 0.048273,0.0825 0.051326,0.08411 0.051402,0.0825 0.054465,0.08097 0.057605,0.08242 0.059137,0.08097 0.060749,0.08089 0.063813,0.08097 0.2069782,0.0078 0.2070639,0.003 0.2085099,0 0.2070639,-0.003 0.2085906,-0.0062 0.2069833,-0.0094 0.2086712,-0.0124 0.2068976,-0.01557 0.2085957,-0.01869 0.2070588,-0.02182 0.2085957,-0.02338 0.2070589,-0.02796 0.208515,-0.02958 0.2070588,-0.03427 0.2085957,-0.03582 0.2069782,-0.0389 0.2085957,-0.04198 0.2069782,-0.04359 0.2085957,-0.04827 0.2070588,-0.04979 0.2085906,-0.0514 0.2070638,-0.05599 0.2085097,-0.05761 0.207064,-0.05922 0.20851,-0.0638 0.207065,-0.06534 0.20859,-0.06696 0.206983,-0.07001 0.208591,-0.07316 0.207063,-0.07469 0.208591,-0.0763 0.206983,-0.07936 0.154125,-0.07323 0.152598,-0.07316 0.15405,-0.07469 0.152513,-0.07315 0.154129,-0.07315 0.152599,-0.07316 0.154044,-0.07315 0.152518,-0.07315 0.15413,-0.07316 0.152518,-0.07315 0.154125,-0.07469 0.152598,-0.07315 0.154044,-0.07324 0.154131,-0.07308 0.152518,-0.07323 0.154125,-0.07316 0.03109,-0.02328 0.03109,-0.02021 0.03119,-0.01869 0.03119,-0.01718 0.02958,-0.01708 0.02796,-0.01401 0.02962,-0.01249 0.02787,-0.01088 0.02651,-0.0094 0.02801,-0.0062 0.02641,-0.0062 0.02499,-0.0045 0.0264,-0.0015 0.02338,-0.0015 0.02489,0.0015 0.02338,0.0015 0.02338,0.0045 0.02176,0.0062 0.02182,0.0062 0.02176,0.0094 0.02182,0.01088 0.02021,0.01249 0.01869,0.01401 0.02021,0.01708 0.0186,0.01718 0.01718,0.01869 0.01708,0.02177 0.01719,0.02176 0.01718,0.02338 0.01547,0.0264 0.01562,0.02812 0.01401,0.02796 0.08404,0.121417 0.08403,0.118278 0.08565,0.11521 0.08557,0.110544 0.08879,0.109006 0.0887,0.104255 0.09032,0.102728 0.09177,0.09958 0.09346,0.09499 0.09491,0.09338 0.09491,0.09024 0.09652,0.08717 0.09813,0.08411 0.09805,0.08089 0.09958,0.07783 0.101191,0.0763 0.102728,0.07154 0.102723,0.0701 0.104336,0.06849 0.105787,0.06381 0.107399,0.06227 0.107399,0.05915 0.109007,0.0576 0.108931,0.05446 0.110539,0.0514 0.11207,0.04827 0.11207,0.04666 0.113683,0.0452 0.115053,0.04198 0.115295,0.0389 0.116661,0.03739 z m 2.283399,-11.9855684 -0.119806,0.1291522 -0.119805,0.1277011 -0.118354,0.1276204 -0.119805,0.1276204 -0.119885,0.1276205 -0.119891,0.127701 -0.119806,0.1291522 -0.119804,0.1276205 -0.119967,0.127701 -0.119805,0.1276205 -0.118354,0.1276254 -0.11981,0.1292279 -0.119804,0.1276204 -0.119967,0.1276255 -0.119806,0.1276204 -0.119804,0.1277011 0.15872,0.2739301 0.158721,0.2724034 0.155737,0.2724034 0.155582,0.2724034 0.150986,0.2739352 0.149453,0.2754619 0.143171,0.2786063 0.136968,0.278692 0.132372,0.2832769 0.124561,0.28489 0.116742,0.289486 0.107319,0.294236 0.09813,0.29722 0.08717,0.30358 0.07469,0.3082553 0.0638,0.314382 0.04988,0.320661 0.03729,0.326869 0.02021,0.334685 0.0063,0.342413 -0.01093,0.350235 -0.02807,0.358045 -0.04666,0.368848 -0.06534,0.376738 -0.08569,0.387533 -0.107314,0.396965 -0.1277,0.407839 -0.150986,0.420245 -0.174352,0.431124 -0.197636,0.442079 -0.222613,0.456101 -0.250565,0.468589 -0.225758,0.262975 -0.2272,0.258466 -0.231961,0.25516 -0.233408,0.250731 -0.236707,0.244362 -0.242835,0.238084 -0.245818,0.231955 -0.252177,0.222614 -0.258466,0.214793 -0.264588,0.205452 -0.272403,0.194654 -0.280219,0.185149 -0.287953,0.172819 -0.298828,0.160328 -0.306723,0.147847 -0.317442,0.133823 -0.330013,0.118354 -0.339355,0.10426 -0.351761,0.08717 -0.365784,0.07163 -0.378266,0.05446 -0.392209,0.03427 -0.406232,0.01713 -0.421938,-0.003 -0.437326,-0.02498 -0.454592,-0.04508 -0.470035,-0.06696 -0.488809,-0.08879 L 9.8776048,20.172066 9.3530997,20.035099 8.8082124,19.873234 8.244797,19.684865 7.7373738,19.334716 7.2517037,18.973527 6.7925433,18.606211 6.3566676,18.229472 5.9457648,17.844998 5.5596837,17.454322 5.1985753,17.05583 4.863891,16.649522 4.5557164,16.238619 4.2739659,15.819907 4.0171932,15.396517 3.7899083,14.965393 3.5875205,14.531044 3.414701,14.092105 3.2699987,13.646963 3.1532523,13.198681 l -0.088705,-0.452957 -0.059217,-0.456102 -0.029578,-0.460773 0,-0.462299 0.029578,-0.465369 0.059217,-0.468588 L 3.1563163,9.9625587 3.2778141,9.4909067 3.4303318,9.0177277 3.615557,8.5429367 3.8318874,8.0666139 4.0810059,7.5919033 4.3626709,7.1155804 4.677134,6.6392574 5.0243047,6.1629346 5.4056342,5.6882241 5.2733427,5.5558469 5.1409655,5.4235554 5.0102008,5.2927906 4.8779093,5.1605798 4.7456178,5.0282026 4.6132406,4.8959111 4.4809492,4.7636146 4.3486526,4.6313231 4.2179685,4.5005583 4.085677,4.3682669 3.9532998,4.2359704 3.8210084,4.1036789 3.688717,3.9713017 3.5564204,3.8390102 3.4256556,3.7082455 3.2933642,3.575954 2.4917041,4.6904597 1.823953,5.8158444 1.285349,6.9459002 0.87291924,8.0744292 0.57868275,9.1982817 l -0.1774153,1.1144253 -0.066955,1.099042 0.038897,1.080261 0.1401071,1.053762 0.2365511,1.025801 0.32686875,0.991561 0.4156549,0.951034 0.496544,0.908973 0.5743751,0.859265 0.6459175,0.806331 0.7160137,0.747113 0.7782946,0.683388 0.8358995,0.614817 0.890365,0.543275 0.9386277,0.465368 0.9837461,0.38133 1.0211246,0.294237 1.0584329,0.202387 1.086549,0.105788 1.112899,0.003 1.131588,-0.104336 1.148831,-0.216329 1.159544,-0.333067 1.165907,-0.452958 1.167444,-0.580578 1.162769,-0.711424 1.156479,-0.848391 0.403169,-0.554068 0.372068,-0.552541 0.339274,-0.549478 0.308255,-0.544807 0.278607,-0.543275 0.249038,-0.540135 0.217938,-0.536986 0.191433,-0.533933 0.16186,-0.530783 0.135435,-0.527725 0.107399,-0.522974 0.0825,-0.51991 0.05608,-0.516769 0.03109,-0.513626 0.0078,-0.509031 -0.01719,-0.507423 -0.0389,-0.501221 -0.06228,-0.498076 L 23.463278,9.8845838 23.357465,9.3942887 23.231372,8.9086997 23.085143,8.4260927 22.920053,7.9467114 22.734828,7.4735277 22.532521,7.0034127 22.313051,6.5379637 22.076419,6.0772714 21.82271,5.6195622 21.553451,5.1682171 21.268556,4.7199306 20.969728,4.2778521 z"
     inkscape:connector-curvature="0" /></svg>