<?xml version="1.0" encoding="UTF-8" standalone="no"?>
<!-- Generated by IcoMoon.io -->

<svg
   xmlns:dc="http://purl.org/dc/elements/1.1/"
   xmlns:cc="http://creativecommons.org/ns#"
   xmlns:rdf="http://www.w3.org/1999/02/22-rdf-syntax-ns#"
   xmlns:svg="http://www.w3.org/2000/svg"
   xmlns="http://www.w3.org/2000/svg"
   xmlns:sodipodi="http://sodipodi.sourceforge.net/DTD/sodipodi-0.dtd"
   xmlns:inkscape="http://www.inkscape.org/namespaces/inkscape"
   version="1.1"
   width="24"
   height="24"
   viewBox="0 0 24 24"
   id="svg3010"
   inkscape:version="0.48.5 r10040"
   sodipodi:docname="graduate.svg">
  <metadata
     id="metadata3018">
    <rdf:RDF>
      <cc:Work
         rdf:about="">
        <dc:format>image/svg+xml</dc:format>
        <dc:type
           rdf:resource="http://purl.org/dc/dcmitype/StillImage" />
      </cc:Work>
    </rdf:RDF>
  </metadata>
  <defs
     id="defs3016" />
  <sodipodi:namedview
     pagecolor="#ffffff"
     bordercolor="#666666"
     borderopacity="1"
     objecttolerance="10"
     gridtolerance="10"
     guidetolerance="10"
     inkscape:pageopacity="0"
     inkscape:pageshadow="2"
     inkscape:window-width="657"
     inkscape:window-height="480"
     id="namedview3014"
     showgrid="false"
     inkscape:zoom="7.375"
     inkscape:cx="21"
     inkscape:cy="16"
     inkscape:window-x="0"
     inkscape:window-y="27"
     inkscape:window-maximized="0"
     inkscape:current-layer="svg3010" />
  <path
     d="m 18.546023,12.882679 c 0,0 -2.596581,-2.647474 -6.1748,-2.647474 -3.4962258,0 -6.9523047,2.647474 -6.9523047,2.647474 l -1.941217,-0.810301 v 2.377185 c 0.3059127,0.104045 0.529834,0.385643 0.529834,0.726614 0,0.344364 -0.228445,0.626527 -0.5388814,0.72831 l 0.5739398,1.600811 H 2.3484818 L 2.9275107,15.890916 C 2.6493054,15.772735 2.4547879,15.497922 2.4547879,15.176177 c 0,-0.31496 0.1888629,-0.582987 0.4585863,-0.705126 V 11.836582 L 0.09004275,10.659299 12.512587,5.0833186 l 11.39737,5.6460974 -5.363934,2.153263 z m -6.316164,-1.306207 c 3.599705,0 5.363934,1.905593 5.363934,1.905593 v 3.952551 c 0,0 -1.834911,1.482065 -5.646097,1.482065 -3.8111869,0 -5.0817708,-1.482065 -5.0817708,-1.482065 v -3.952551 c 0,0 1.7642287,-1.905593 5.3639338,-1.905593 z m -0.07068,6.493153 c 2.4948,0 4.517442,-0.506085 4.517442,-1.129219 0,-0.623135 -2.022643,-1.12922 -4.517443,-1.12922 -2.4947995,0 -4.5168771,0.506085 -4.5168771,1.12922 0,0.623134 2.0220776,1.129219 4.5168771,1.129219 z"
     id="path3012"
     inkscape:connector-curvature="0"
     style="fill:#444444" />
</svg>
