<?xml version="1.0" encoding="UTF-8" standalone="no"?>
<!-- Generator: Adobe Illustrator 16.0.0, SVG Export Plug-In . SVG Version: 6.00 Build 0)  -->

<svg
   xmlns:dc="http://purl.org/dc/elements/1.1/"
   xmlns:cc="http://creativecommons.org/ns#"
   xmlns:rdf="http://www.w3.org/1999/02/22-rdf-syntax-ns#"
   xmlns:svg="http://www.w3.org/2000/svg"
   xmlns="http://www.w3.org/2000/svg"
   xmlns:sodipodi="http://sodipodi.sourceforge.net/DTD/sodipodi-0.dtd"
   xmlns:inkscape="http://www.inkscape.org/namespaces/inkscape"
   version="1.1"
   id="Capa_1"
   x="0px"
   y="0px"
   width="24"
   height="24"
   viewBox="0 0 24 24.000001"
   xml:space="preserve"
   inkscape:version="0.48.5 r10040"
   sodipodi:docname="hakaki.svg"><metadata
     id="metadata3397"><rdf:RDF><cc:Work
         rdf:about=""><dc:format>image/svg+xml</dc:format><dc:type
           rdf:resource="http://purl.org/dc/dcmitype/StillImage" /><dc:title></dc:title></cc:Work></rdf:RDF></metadata><defs
     id="defs3395" /><sodipodi:namedview
     pagecolor="#ffffff"
     bordercolor="#666666"
     borderopacity="1"
     objecttolerance="10"
     gridtolerance="10"
     guidetolerance="10"
     inkscape:pageopacity="0"
     inkscape:pageshadow="2"
     inkscape:window-width="657"
     inkscape:window-height="480"
     id="namedview3393"
     showgrid="false"
     inkscape:zoom="4.400194"
     inkscape:cx="17.314588"
     inkscape:cy="24.463617"
     inkscape:window-x="0"
     inkscape:window-y="27"
     inkscape:window-maximized="0"
     inkscape:current-layer="Capa_1" /><g
     id="g3333"
     transform="matrix(0.10454015,0,0,0.10454015,0.78623946,0.78623996)"><g
       id="g3335"><path
         d="M 1.752,191.518 C 0.785,191.518 0,190.734 0,189.765 v -31.833 c 0,-0.965 0.785,-1.752 1.752,-1.752 h 47.853 c 0.094,-0.096 0.203,-0.209 0.311,-0.325 2.745,-2.851 11.091,-11.536 9.563,-21.665 -1.135,-7.512 -7.43,-14.483 -18.712,-20.719 -13.766,-7.612 -24.022,-9.224 -29.675,-4.646 -5.501,4.455 -5.736,14.209 -4.16,19.4 1.33,4.377 3.491,7.039 6.427,7.918 6.964,2.099 16.527,-5.759 16.618,-5.838 0.739,-0.623 1.843,-0.523 2.467,0.223 0.62,0.739 0.519,1.845 -0.221,2.464 -0.448,0.373 -11.067,9.113 -19.862,6.509 -4.136,-1.238 -7.089,-4.688 -8.783,-10.26 -1.906,-6.289 -1.523,-17.62 5.309,-23.144 6.938,-5.619 18.24,-4.173 33.575,4.309 12.282,6.789 19.176,14.619 20.483,23.264 1.787,11.834 -7.465,21.453 -10.502,24.612 -0.33,0.346 -0.582,0.605 -0.722,0.773 -0.333,0.396 -0.823,0.629 -1.347,0.629 H 3.504 v 30.081 c 0,0.969 -0.78,1.753 -1.752,1.753 z"
         id="path3337"
         inkscape:connector-curvature="0" /></g><g
       id="g3339"><polygon
         points="1.752,189.765 59.135,189.765 212.448,189.765 212.448,169.759 59.135,169.759 59.135,157.932 1.752,157.932 1.752,169.759 "
         id="polygon3341" /><path
         d="M 214.2,191.518 H 0 V 156.18 h 60.887 v 11.827 H 214.2 v 23.511 z M 3.504,188.013 H 210.695 V 171.511 H 57.383 V 159.684 H 3.504 v 28.329 z"
         id="path3343"
         inkscape:connector-curvature="0" /></g><g
       id="g3345"><polygon
         points="111.262,111.063 117.394,99.388 129.221,111.063 116.518,115.881 61.421,166.255 61.421,157.932 "
         id="polygon3347" /><path
         d="m 59.669,170.232 v -13.056 l 50.181,-47.188 7.093,-13.509 15.451,15.258 -14.945,5.664 -57.78,52.831 z m 3.504,-11.54 v 3.587 l 52.726,-48.037 10.153,-3.852 -8.206,-8.099 -5.38,10.044 -49.293,46.357 z"
         id="path3349"
         inkscape:connector-curvature="0" /></g><g
       id="g3351"><polygon
         points="120.022,93.541 135.354,109.311 145.428,101.426 129.221,83.466 "
         id="polygon3353" /><path
         d="m 135.192,111.665 -17.58,-18.084 11.612,-12.72 18.764,20.792 -12.796,10.012 z m -12.76,-18.162 13.086,13.456 7.351,-5.756 -13.65,-15.129 -6.787,7.429 z"
         id="path3355"
         inkscape:connector-curvature="0" /></g><g
       id="g3357"><polygon
         points="212.448,40.101 198.431,24.769 190.108,24.769 160.321,55.87 132.726,79.086 150.247,99.388 177.843,72.515 208.943,47.547 "
         id="polygon3359" /><path
         d="M 150.137,101.939 130.24,78.887 159.192,54.528 189.358,23.017 h 9.846 l 15.331,16.769 -4.175,8.874 -31.416,25.219 -28.807,28.06 z m -14.927,-22.656 15.146,17.551 26.265,-25.576 30.905,-24.825 2.837,-6.02 -12.706,-13.896 H 190.86 L 161.588,57.08 135.21,79.283 z"
         id="path3361"
         inkscape:connector-curvature="0" /></g></g><g
     id="g3363"
     transform="translate(0,-190.536)" /><g
     id="g3365"
     transform="translate(0,-190.536)" /><g
     id="g3367"
     transform="translate(0,-190.536)" /><g
     id="g3369"
     transform="translate(0,-190.536)" /><g
     id="g3371"
     transform="translate(0,-190.536)" /><g
     id="g3373"
     transform="translate(0,-190.536)" /><g
     id="g3375"
     transform="translate(0,-190.536)" /><g
     id="g3377"
     transform="translate(0,-190.536)" /><g
     id="g3379"
     transform="translate(0,-190.536)" /><g
     id="g3381"
     transform="translate(0,-190.536)" /><g
     id="g3383"
     transform="translate(0,-190.536)" /><g
     id="g3385"
     transform="translate(0,-190.536)" /><g
     id="g3387"
     transform="translate(0,-190.536)" /><g
     id="g3389"
     transform="translate(0,-190.536)" /><g
     id="g3391"
     transform="translate(0,-190.536)" /></svg>