<?xml version="1.0" encoding="UTF-8" standalone="yes"?>
<svg xmlns="http://www.w3.org/2000/svg" xmlns:xlink="http://www.w3.org/1999/xlink" width="24px" height="24px" viewBox="0 0 18 18" version="1.1">
  <g id="surface1">
    <path style=" stroke:none;fill-rule:nonzero;fill:rgb(0%,0%,0%);fill-opacity:1;" d="M 16.558594 15.875 C 16.558594 16.226562 16.273438 16.511719 15.921875 16.511719 L 15.390625 16.511719 C 14.402344 16.308594 13.789062 15.582031 13.457031 15.007812 C 16.738281 14.96875 17.25 13.625 17.25 13.625 C 17.25 11.257812 15.984375 9.761719 13.484375 9.761719 C 11.34375 9.761719 9.964844 8.523438 9.265625 6.761719 C 8.753906 5.464844 9 2.003906 9 0.046875 C 6.375 0.046875 5.25 0.664062 5.25 2.332031 C 3.195312 2.332031 2.25 3.046875 2.25 4.941406 L 2.25 7.5625 C 2.25 9.804688 1.5 10.210938 1.5 12.933594 C 1.5 13.65625 1.660156 14.105469 1.660156 14.105469 C 1.660156 14.105469 2.097656 14.253906 3.414062 14.261719 C 3.226562 15.53125 2.277344 16.308594 1.242188 16.511719 L 0 16.511719 L 0 18.011719 L 15.921875 18.011719 C 17.097656 18.011719 18.058594 17.054688 18.058594 15.875 Z M 12 10.511719 C 12.414062 10.511719 12.75 10.847656 12.75 11.261719 C 12.75 11.675781 12.414062 12.011719 12 12.011719 C 11.585938 12.011719 11.25 11.675781 11.25 11.261719 C 11.25 10.847656 11.585938 10.511719 12 10.511719 Z M 9 9.011719 C 9.414062 9.011719 9.75 9.347656 9.75 9.761719 C 9.75 10.175781 9.414062 10.511719 9 10.511719 C 8.585938 10.511719 8.25 10.175781 8.25 9.761719 C 8.25 9.347656 8.585938 9.011719 9 9.011719 Z M 8.25 7.511719 C 8.25 7.925781 7.914062 8.261719 7.5 8.261719 C 7.085938 8.261719 6.75 7.925781 6.75 7.511719 C 6.75 7.097656 7.085938 6.761719 7.5 6.761719 C 7.914062 6.761719 8.25 7.097656 8.25 7.511719 Z M 6.75 4.097656 C 7.164062 4.097656 7.5 4.433594 7.5 4.847656 C 7.5 5.261719 7.164062 5.597656 6.75 5.597656 C 6.335938 5.597656 6 5.261719 6 4.847656 C 6 4.433594 6.335938 4.097656 6.75 4.097656 Z M 4.820312 14.28125 C 8.050781 14.367188 10.15625 14.757812 11.886719 14.929688 C 12.015625 15.261719 12.3125 15.902344 12.839844 16.511719 L 3.863281 16.511719 C 4.371094 15.925781 4.726562 15.175781 4.820312 14.28125 Z M 4.820312 14.28125 "/>
  </g>
</svg>