<?xml version="1.0" encoding="UTF-8" standalone="yes"?>
<svg xmlns="http://www.w3.org/2000/svg" xmlns:xlink="http://www.w3.org/1999/xlink" width="24px" height="24px" viewBox="0 0 18 18" version="1.1">
  <g id="surface1">
    <path style=" stroke:none;fill-rule:nonzero;fill:rgb(0.392157%,0%,0.784314%);fill-opacity:1;" d="M 13.71875 8.523438 L 3.851562 8.523438 C 3.851562 6.855469 5.203125 5.5 6.875 5.5 L 7.722656 5.5 L 7.722656 1.738281 L 9.847656 1.738281 L 9.847656 5.5 L 10.695312 5.5 C 12.363281 5.5 13.71875 6.855469 13.71875 8.523438 Z M 9.289062 9.730469 L 9.289062 9.726562 C 9.289062 9.449219 9.0625 9.226562 8.785156 9.226562 C 8.503906 9.226562 8.28125 9.453125 8.28125 9.730469 C 8.28125 10.007812 8.503906 10.234375 8.785156 10.234375 C 9.0625 10.234375 9.289062 10.007812 9.289062 9.730469 Z M 9.289062 13.921875 L 9.289062 13.910156 C 9.289062 13.628906 9.0625 13.410156 8.785156 13.410156 C 8.503906 13.410156 8.28125 13.640625 8.28125 13.921875 C 8.28125 14.199219 8.503906 14.425781 8.785156 14.425781 C 9.0625 14.425781 9.289062 14.199219 9.289062 13.921875 Z M 9.289062 11.828125 L 9.289062 11.816406 C 9.289062 11.539062 9.0625 11.316406 8.785156 11.316406 C 8.503906 11.316406 8.28125 11.546875 8.28125 11.828125 C 8.28125 12.101562 8.503906 12.328125 8.785156 12.328125 C 9.0625 12.328125 9.289062 12.101562 9.289062 11.828125 Z M 9.289062 16.011719 L 9.289062 16.003906 C 9.289062 15.726562 9.0625 15.503906 8.785156 15.503906 C 8.503906 15.503906 8.28125 15.730469 8.28125 16.011719 C 8.28125 16.289062 8.503906 16.515625 8.785156 16.515625 C 9.0625 16.515625 9.289062 16.289062 9.289062 16.011719 Z M 14.707031 15.910156 C 14.964844 15.808594 15.089844 15.515625 14.984375 15.257812 L 14.980469 15.246094 C 14.878906 14.988281 14.589844 14.863281 14.332031 14.972656 C 14.066406 15.074219 13.945312 15.371094 14.050781 15.628906 C 14.128906 15.828125 14.316406 15.949219 14.515625 15.949219 C 14.582031 15.949219 14.644531 15.9375 14.707031 15.910156 Z M 14.007812 14.011719 C 14.265625 13.90625 14.390625 13.613281 14.292969 13.355469 L 14.289062 13.34375 C 14.183594 13.085938 13.890625 12.960938 13.632812 13.070312 C 13.375 13.171875 13.25 13.472656 13.351562 13.726562 C 13.433594 13.925781 13.621094 14.046875 13.824219 14.046875 C 13.882812 14.046875 13.949219 14.035156 14.007812 14.011719 Z M 13.273438 12.121094 C 13.539062 12.042969 13.691406 11.761719 13.609375 11.496094 L 13.609375 11.484375 C 13.523438 11.214844 13.25 11.070312 12.976562 11.152344 C 12.710938 11.230469 12.558594 11.515625 12.644531 11.78125 C 12.707031 12.003906 12.910156 12.140625 13.125 12.140625 C 13.171875 12.140625 13.226562 12.136719 13.273438 12.121094 Z M 12.617188 10.203125 C 12.875 10.101562 13 9.808594 12.902344 9.550781 L 12.898438 9.539062 C 12.792969 9.28125 12.5 9.160156 12.242188 9.265625 C 11.984375 9.367188 11.859375 9.667969 11.964844 9.925781 C 12.042969 10.117188 12.230469 10.238281 12.433594 10.238281 C 12.492188 10.238281 12.558594 10.226562 12.617188 10.203125 Z M 11.734375 16.234375 C 12.007812 16.179688 12.1875 15.914062 12.128906 15.644531 L 12.128906 15.632812 C 12.074219 15.359375 11.804688 15.183594 11.535156 15.242188 C 11.261719 15.296875 11.085938 15.566406 11.144531 15.839844 C 11.191406 16.078125 11.398438 16.246094 11.632812 16.246094 C 11.671875 16.246094 11.703125 16.242188 11.734375 16.234375 Z M 11.375 14.242188 C 11.652344 14.214844 11.855469 13.96875 11.824219 13.6875 L 11.824219 13.679688 C 11.796875 13.402344 11.554688 13.199219 11.273438 13.234375 C 10.996094 13.261719 10.792969 13.511719 10.824219 13.789062 C 10.847656 14.046875 11.066406 14.242188 11.324219 14.242188 C 11.339844 14.242188 11.359375 14.242188 11.375 14.242188 Z M 11.109375 12.230469 C 11.382812 12.179688 11.5625 11.914062 11.503906 11.640625 L 11.503906 11.628906 C 11.453125 11.355469 11.183594 11.183594 10.914062 11.238281 C 10.640625 11.292969 10.464844 11.5625 10.519531 11.835938 C 10.566406 12.078125 10.777344 12.242188 11.011719 12.242188 C 11.046875 12.242188 11.082031 12.238281 11.109375 12.230469 Z M 10.800781 10.230469 C 11.074219 10.175781 11.253906 9.910156 11.195312 9.640625 L 11.195312 9.628906 C 11.140625 9.355469 10.867188 9.179688 10.601562 9.238281 C 10.328125 9.292969 10.152344 9.5625 10.207031 9.835938 C 10.257812 10.074219 10.464844 10.238281 10.699219 10.238281 C 10.734375 10.238281 10.769531 10.234375 10.800781 10.230469 Z M 3.519531 15.628906 L 3.523438 15.621094 C 3.628906 15.363281 3.5 15.074219 3.242188 14.972656 C 2.988281 14.867188 2.6875 14.996094 2.585938 15.257812 C 2.480469 15.515625 2.605469 15.808594 2.867188 15.910156 C 2.925781 15.9375 2.992188 15.949219 3.054688 15.949219 C 3.253906 15.949219 3.441406 15.828125 3.519531 15.628906 Z M 4.214844 13.726562 L 4.21875 13.71875 C 4.320312 13.460938 4.195312 13.171875 3.9375 13.070312 C 3.683594 12.964844 3.382812 13.09375 3.28125 13.355469 C 3.179688 13.613281 3.304688 13.90625 3.5625 14.011719 C 3.621094 14.035156 3.6875 14.046875 3.746094 14.046875 C 3.949219 14.046875 4.136719 13.925781 4.214844 13.726562 Z M 4.925781 11.78125 L 4.929688 11.773438 C 5.011719 11.503906 4.855469 11.230469 4.589844 11.152344 C 4.320312 11.066406 4.042969 11.226562 3.960938 11.496094 C 3.882812 11.761719 4.03125 12.042969 4.300781 12.121094 C 4.347656 12.136719 4.398438 12.140625 4.445312 12.140625 C 4.660156 12.140625 4.863281 12.003906 4.925781 11.78125 Z M 5.605469 9.925781 L 5.609375 9.914062 C 5.710938 9.65625 5.589844 9.367188 5.328125 9.261719 C 5.074219 9.15625 4.777344 9.289062 4.671875 9.550781 C 4.570312 9.804688 4.695312 10.101562 4.953125 10.199219 C 5.015625 10.226562 5.078125 10.238281 5.140625 10.238281 C 5.339844 10.238281 5.527344 10.117188 5.605469 9.925781 Z M 6.425781 15.835938 L 6.429688 15.828125 C 6.484375 15.554688 6.304688 15.292969 6.03125 15.242188 C 5.765625 15.183594 5.496094 15.367188 5.4375 15.640625 C 5.386719 15.910156 5.5625 16.179688 5.835938 16.234375 C 5.867188 16.242188 5.902344 16.246094 5.933594 16.246094 C 6.167969 16.246094 6.378906 16.082031 6.425781 15.835938 Z M 6.746094 13.789062 L 6.75 13.777344 C 6.777344 13.503906 6.574219 13.261719 6.296875 13.234375 C 6.019531 13.199219 5.773438 13.414062 5.746094 13.6875 C 5.71875 13.96875 5.917969 14.210938 6.195312 14.242188 C 6.210938 14.242188 6.230469 14.242188 6.246094 14.242188 C 6.503906 14.242188 6.71875 14.050781 6.746094 13.789062 Z M 7.050781 11.835938 L 7.050781 11.824219 C 7.109375 11.554688 6.929688 11.292969 6.65625 11.238281 C 6.386719 11.179688 6.117188 11.367188 6.0625 11.636719 C 6.007812 11.914062 6.183594 12.179688 6.457031 12.234375 C 6.488281 12.238281 6.523438 12.242188 6.554688 12.242188 C 6.792969 12.242188 7.003906 12.078125 7.050781 11.835938 Z M 7.363281 9.835938 L 7.363281 9.824219 C 7.417969 9.550781 7.242188 9.289062 6.96875 9.238281 C 6.699219 9.179688 6.425781 9.363281 6.375 9.636719 C 6.316406 9.910156 6.496094 10.175781 6.769531 10.230469 C 6.800781 10.234375 6.835938 10.238281 6.867188 10.238281 C 7.105469 10.238281 7.3125 10.074219 7.363281 9.835938 Z M 7.363281 9.835938 "/>
  </g>
</svg>