<?xml version="1.0" encoding="UTF-8" standalone="yes"?>
<svg xmlns="http://www.w3.org/2000/svg" xmlns:xlink="http://www.w3.org/1999/xlink" width="24px" height="24px" viewBox="0 0 18 18" version="1.1">
  <g id="surface1">
    <path style=" stroke:none;fill-rule:nonzero;fill:rgb(0%,0%,0%);fill-opacity:1;" d="M 14.261719 0 L 3.738281 0 C 1.675781 0 0 1.675781 0 3.738281 L 0 14.261719 C 0 16.324219 1.675781 18 3.738281 18 L 14.261719 18 C 16.324219 18 18 16.324219 18 14.261719 L 18 3.738281 C 18 1.675781 16.324219 0 14.261719 0 Z M 17.316406 14.261719 C 17.316406 15.945312 15.945312 17.316406 14.261719 17.316406 L 3.738281 17.316406 C 2.054688 17.316406 0.683594 15.945312 0.683594 14.261719 L 0.683594 3.738281 C 0.683594 2.054688 2.054688 0.683594 3.738281 0.683594 L 14.261719 0.683594 C 15.945312 0.683594 17.316406 2.054688 17.316406 3.738281 Z M 17.316406 14.261719 "/>
    <path style=" stroke:none;fill-rule:nonzero;fill:rgb(0%,0%,0%);fill-opacity:1;" d="M 2.980469 6.886719 L 3.402344 6.886719 L 3.1875 7.3125 C 3.152344 7.386719 3.132812 7.472656 3.132812 7.558594 L 3.132812 8.378906 C 3.132812 8.640625 3.308594 8.855469 3.550781 8.914062 L 3.550781 9.257812 C 3.550781 9.347656 3.625 9.421875 3.71875 9.421875 L 4.25 9.421875 C 4.339844 9.421875 4.414062 9.347656 4.414062 9.257812 L 4.414062 8.929688 L 7.207031 8.929688 L 7.207031 9.257812 C 7.207031 9.347656 7.28125 9.421875 7.375 9.421875 L 7.90625 9.421875 C 7.996094 9.421875 8.070312 9.347656 8.070312 9.257812 L 8.070312 8.914062 C 8.3125 8.855469 8.492188 8.640625 8.492188 8.378906 L 8.492188 7.558594 C 8.492188 7.472656 8.472656 7.386719 8.433594 7.3125 L 8.21875 6.886719 L 8.640625 6.886719 C 8.6875 6.886719 8.726562 6.847656 8.726562 6.800781 L 8.726562 6.421875 C 8.726562 6.375 8.6875 6.335938 8.640625 6.335938 L 8.183594 6.335938 C 8.152344 6.335938 8.121094 6.359375 8.105469 6.390625 L 8.050781 6.546875 L 7.640625 5.589844 C 7.554688 5.386719 7.355469 5.257812 7.136719 5.257812 L 4.484375 5.257812 C 4.265625 5.257812 4.066406 5.386719 3.980469 5.589844 L 3.574219 6.546875 L 3.515625 6.390625 C 3.503906 6.359375 3.472656 6.335938 3.4375 6.335938 L 2.980469 6.335938 C 2.933594 6.335938 2.898438 6.375 2.898438 6.421875 L 2.898438 6.800781 C 2.898438 6.847656 2.933594 6.886719 2.980469 6.886719 Z M 7.695312 7.566406 C 7.738281 7.566406 7.769531 7.597656 7.769531 7.640625 L 7.769531 7.980469 C 7.769531 8.023438 7.738281 8.054688 7.695312 8.054688 L 6.90625 8.054688 C 6.863281 8.054688 6.832031 8.023438 6.832031 7.980469 L 6.832031 7.640625 C 6.832031 7.597656 6.863281 7.566406 6.90625 7.566406 Z M 4.566406 5.75 L 7.058594 5.75 L 7.449219 6.664062 L 4.175781 6.664062 Z M 3.851562 7.640625 C 3.851562 7.597656 3.882812 7.566406 3.925781 7.566406 L 4.714844 7.566406 C 4.757812 7.566406 4.789062 7.597656 4.789062 7.640625 L 4.789062 7.980469 C 4.789062 8.023438 4.757812 8.054688 4.714844 8.054688 L 3.925781 8.054688 C 3.882812 8.054688 3.851562 8.023438 3.851562 7.980469 Z M 3.851562 7.640625 "/>
    <path style=" stroke:none;fill-rule:nonzero;fill:rgb(0%,0%,0%);fill-opacity:1;" d="M 9.359375 6.886719 L 9.78125 6.886719 L 9.566406 7.3125 C 9.527344 7.386719 9.507812 7.472656 9.507812 7.558594 L 9.507812 8.378906 C 9.507812 8.640625 9.6875 8.855469 9.929688 8.914062 L 9.929688 9.257812 C 9.929688 9.347656 10.003906 9.421875 10.09375 9.421875 L 10.625 9.421875 C 10.71875 9.421875 10.792969 9.347656 10.792969 9.257812 L 10.792969 8.929688 L 13.585938 8.929688 L 13.585938 9.257812 C 13.585938 9.347656 13.660156 9.421875 13.75 9.421875 L 14.28125 9.421875 C 14.375 9.421875 14.449219 9.347656 14.449219 9.257812 L 14.449219 8.914062 C 14.691406 8.855469 14.867188 8.640625 14.867188 8.378906 L 14.867188 7.558594 C 14.871094 7.472656 14.847656 7.386719 14.8125 7.3125 L 14.597656 6.886719 L 15.019531 6.886719 C 15.066406 6.886719 15.101562 6.847656 15.101562 6.800781 L 15.101562 6.421875 C 15.101562 6.375 15.066406 6.335938 15.019531 6.335938 L 14.5625 6.335938 C 14.527344 6.335938 14.496094 6.359375 14.484375 6.390625 L 14.429688 6.546875 L 14.019531 5.589844 C 13.933594 5.386719 13.734375 5.257812 13.515625 5.257812 L 10.863281 5.257812 C 10.644531 5.257812 10.445312 5.386719 10.359375 5.589844 L 9.949219 6.546875 L 9.894531 6.390625 C 9.878906 6.359375 9.847656 6.335938 9.816406 6.335938 L 9.359375 6.335938 C 9.3125 6.335938 9.273438 6.375 9.273438 6.421875 L 9.273438 6.800781 C 9.273438 6.847656 9.3125 6.886719 9.359375 6.886719 Z M 14.074219 7.566406 C 14.117188 7.566406 14.148438 7.597656 14.148438 7.640625 L 14.148438 7.980469 C 14.148438 8.023438 14.117188 8.054688 14.074219 8.054688 L 13.285156 8.054688 C 13.242188 8.054688 13.210938 8.023438 13.210938 7.980469 L 13.210938 7.640625 C 13.210938 7.597656 13.242188 7.566406 13.285156 7.566406 Z M 10.941406 5.75 L 13.433594 5.75 L 13.824219 6.664062 L 10.550781 6.664062 Z M 10.230469 7.640625 C 10.230469 7.597656 10.261719 7.566406 10.304688 7.566406 L 11.09375 7.566406 C 11.136719 7.566406 11.167969 7.597656 11.167969 7.640625 L 11.167969 7.980469 C 11.167969 8.023438 11.136719 8.054688 11.09375 8.054688 L 10.304688 8.054688 C 10.261719 8.054688 10.230469 8.023438 10.230469 7.980469 Z M 10.230469 7.640625 "/>
    <path style=" stroke:none;fill-rule:nonzero;fill:rgb(0%,0%,0%);fill-opacity:1;" d="M 15.46875 9.4375 C 15.265625 9.671875 14.996094 9.789062 14.652344 9.789062 L 3.347656 9.789062 C 3.003906 9.789062 2.734375 9.671875 2.53125 9.4375 C 1.921875 8.742188 1.980469 7.160156 2.054688 6.609375 L 1.304688 6.503906 C 1.292969 6.601562 1 8.835938 1.957031 9.933594 C 2.1875 10.199219 2.9375 11.15625 4.839844 11.789062 C 4.945312 11.746094 5.039062 11.667969 5.167969 11.5625 C 5.492188 11.296875 5.9375 10.9375 6.765625 10.9375 C 7.59375 10.9375 8.035156 11.296875 8.359375 11.5625 C 8.601562 11.757812 8.710938 11.847656 9 11.847656 C 9.289062 11.847656 9.398438 11.757812 9.636719 11.5625 C 9.960938 11.296875 10.40625 10.9375 11.234375 10.9375 C 12.0625 10.9375 12.507812 11.296875 12.832031 11.5625 C 12.960938 11.667969 13.054688 11.746094 13.160156 11.789062 C 15.0625 11.15625 15.8125 10.199219 16.042969 9.933594 C 17 8.835938 16.707031 6.601562 16.695312 6.503906 L 15.945312 6.609375 C 16.019531 7.15625 16.082031 8.738281 15.46875 9.4375 Z M 15.46875 9.4375 "/>
    <path style=" stroke:none;fill-rule:nonzero;fill:rgb(0%,0%,0%);fill-opacity:1;" d="M 13.46875 12.390625 C 13.035156 12.390625 12.832031 12.226562 12.574219 12.015625 C 12.28125 11.777344 11.917969 11.480469 11.234375 11.480469 C 10.550781 11.480469 10.1875 11.777344 9.894531 12.015625 C 9.636719 12.226562 9.433594 12.390625 9 12.390625 C 8.566406 12.390625 8.363281 12.226562 8.105469 12.015625 C 7.8125 11.777344 7.449219 11.480469 6.765625 11.480469 C 6.082031 11.480469 5.71875 11.777344 5.425781 12.015625 C 5.167969 12.226562 4.964844 12.390625 4.53125 12.390625 C 4.097656 12.390625 3.894531 12.226562 3.636719 12.015625 C 3.34375 11.777344 2.980469 11.480469 2.296875 11.480469 L 2.296875 12.183594 C 2.730469 12.183594 2.933594 12.351562 3.191406 12.558594 C 3.484375 12.796875 3.847656 13.09375 4.53125 13.09375 C 5.214844 13.09375 5.578125 12.796875 5.871094 12.558594 C 6.128906 12.351562 6.332031 12.183594 6.765625 12.183594 C 7.199219 12.183594 7.402344 12.351562 7.660156 12.558594 C 7.953125 12.796875 8.316406 13.09375 9 13.09375 C 9.683594 13.09375 10.046875 12.796875 10.339844 12.558594 C 10.597656 12.347656 10.800781 12.183594 11.234375 12.183594 C 11.667969 12.183594 11.871094 12.351562 12.128906 12.558594 C 12.421875 12.796875 12.785156 13.09375 13.46875 13.09375 C 14.152344 13.09375 14.515625 12.796875 14.808594 12.558594 C 15.066406 12.351562 15.269531 12.183594 15.703125 12.183594 L 15.703125 11.480469 C 15.019531 11.480469 14.65625 11.777344 14.363281 12.015625 C 14.105469 12.226562 13.902344 12.390625 13.46875 12.390625 Z M 13.46875 12.390625 "/>
  </g>
</svg>