<?xml version="1.0" encoding="UTF-8" standalone="no"?>
<!-- Generator: Adobe Illustrator 16.0.0, SVG Export Plug-In . SVG Version: 6.00 Build 0)  -->

<svg
   xmlns:dc="http://purl.org/dc/elements/1.1/"
   xmlns:cc="http://creativecommons.org/ns#"
   xmlns:rdf="http://www.w3.org/1999/02/22-rdf-syntax-ns#"
   xmlns:svg="http://www.w3.org/2000/svg"
   xmlns="http://www.w3.org/2000/svg"
   xmlns:sodipodi="http://sodipodi.sourceforge.net/DTD/sodipodi-0.dtd"
   xmlns:inkscape="http://www.inkscape.org/namespaces/inkscape"
   version="1.1"
   id="Capa_1"
   x="0px"
   y="0px"
   width="24"
   height="24"
   viewBox="0 0 24 24"
   xml:space="preserve"
   inkscape:version="0.48.5 r10040"
   sodipodi:docname="hamrah_tajhizat.svg"><metadata
     id="metadata3163"><rdf:RDF><cc:Work
         rdf:about=""><dc:format>image/svg+xml</dc:format><dc:type
           rdf:resource="http://purl.org/dc/dcmitype/StillImage" /><dc:title></dc:title></cc:Work></rdf:RDF></metadata><defs
     id="defs3161" /><sodipodi:namedview
     pagecolor="#ffffff"
     bordercolor="#666666"
     borderopacity="1"
     objecttolerance="10"
     gridtolerance="10"
     guidetolerance="10"
     inkscape:pageopacity="0"
     inkscape:pageshadow="2"
     inkscape:window-width="657"
     inkscape:window-height="480"
     id="namedview3159"
     showgrid="false"
     inkscape:zoom="3.3712566"
     inkscape:cx="14.773973"
     inkscape:cy="8.2169491"
     inkscape:window-x="0"
     inkscape:window-y="27"
     inkscape:window-maximized="0"
     inkscape:current-layer="Capa_1" /><g
     id="g3125"
     transform="matrix(0.02937643,0,0,0.02937643,0.36693372,0.36693372)"><path
       d="m 557.75,792 c 0,0 71.889,0 71.889,-71.997 V 71.997 C 629.639,0 557.75,0 557.75,0 h -323.5 c 0,0 -71.889,0 -71.889,71.997 V 720.003 C 162.361,792 234.25,792 234.25,792 h 323.5 z M 396,762.022 c -19.841,0 -35.944,-16.104 -35.944,-35.944 0,-19.842 16.103,-35.944 35.944,-35.944 19.841,0 35.945,16.103 35.945,35.944 0,19.841 -16.103,35.944 -35.945,35.944 z M 306.139,43.888 c 0,-4.457 3.559,-7.944 7.944,-7.944 h 163.8 c 4.385,0 7.979,3.559 7.979,7.944 v 2.121 c 0,4.493 -3.559,7.944 -7.943,7.944 H 314.083 c -4.349,0 -7.944,-3.559 -7.944,-7.944 V 43.888 z M 198.306,89.861 H 593.695 V 664.972 H 198.306 V 89.861 z"
       id="path3127"
       inkscape:connector-curvature="0" /></g><g
     id="g3129"
     transform="translate(0,-768)" /><g
     id="g3131"
     transform="translate(0,-768)" /><g
     id="g3133"
     transform="translate(0,-768)" /><g
     id="g3135"
     transform="translate(0,-768)" /><g
     id="g3137"
     transform="translate(0,-768)" /><g
     id="g3139"
     transform="translate(0,-768)" /><g
     id="g3141"
     transform="translate(0,-768)" /><g
     id="g3143"
     transform="translate(0,-768)" /><g
     id="g3145"
     transform="translate(0,-768)" /><g
     id="g3147"
     transform="translate(0,-768)" /><g
     id="g3149"
     transform="translate(0,-768)" /><g
     id="g3151"
     transform="translate(0,-768)" /><g
     id="g3153"
     transform="translate(0,-768)" /><g
     id="g3155"
     transform="translate(0,-768)" /><g
     id="g3157"
     transform="translate(0,-768)" /></svg>