<?xml version="1.0" encoding="UTF-8" standalone="yes"?>
<svg xmlns="http://www.w3.org/2000/svg" xmlns:xlink="http://www.w3.org/1999/xlink" width="24px" height="24px" viewBox="0 0 18 18" version="1.1">
  <g id="surface1">
    <path style=" stroke:none;fill-rule:nonzero;fill:rgb(0%,0%,0%);fill-opacity:1;" d="M 11.433594 1.914062 C 10.648438 1.914062 10.011719 1.914062 10.011719 1.914062 L 9.570312 0.5625 C 9.328125 -0.1875 8.933594 -0.1875 8.691406 0.5625 C 8.445312 1.308594 8.25 1.914062 8.25 1.914062 L 6.824219 1.914062 C 6.039062 1.914062 5.917969 2.292969 6.550781 2.753906 C 7.191406 3.214844 7.707031 3.589844 7.707031 3.589844 L 7.265625 4.945312 C 7.023438 5.691406 7.339844 5.925781 7.976562 5.460938 C 8.613281 5 9.128906 4.625 9.128906 4.625 L 10.28125 5.460938 C 10.917969 5.925781 11.234375 5.691406 10.992188 4.945312 C 10.75 4.195312 10.554688 3.589844 10.554688 3.589844 L 11.707031 2.753906 C 12.34375 2.292969 12.21875 1.914062 11.433594 1.914062 Z M 11.433594 1.914062 "/>
    <path style=" stroke:none;fill-rule:nonzero;fill:rgb(0%,0%,0%);fill-opacity:1;" d="M 6.140625 6.75 C 6.140625 6.75 5.605469 7.109375 5.414062 8.855469 C 6.417969 10.152344 7.660156 9.941406 8.210938 9.761719 C 8.257812 9.742188 8.324219 9.660156 8.324219 9.609375 C 8.398438 8.363281 7.367188 6.699219 6.996094 6.144531 C 6.699219 6.261719 6.410156 6.457031 6.140625 6.75 Z M 6.140625 6.75 "/>
    <path style=" stroke:none;fill-rule:nonzero;fill:rgb(0%,0%,0%);fill-opacity:1;" d="M 11.390625 3.507812 L 11.570312 4.058594 C 11.6875 4.421875 11.707031 4.730469 11.640625 4.992188 C 13.714844 5.984375 15.15625 8.097656 15.15625 10.546875 C 15.15625 13.945312 12.390625 16.710938 8.992188 16.710938 C 8.957031 16.710938 8.921875 16.703125 8.882812 16.703125 L 8.875 16.472656 C 8.871094 16.371094 8.945312 16.257812 9.039062 16.222656 L 10.234375 15.777344 C 10.234375 15.777344 10.792969 15.808594 11.023438 15.386719 C 11.140625 15.175781 11.253906 15.027344 11.332031 14.933594 C 11.398438 14.855469 11.398438 14.742188 11.324219 14.671875 C 11.078125 14.433594 10.589844 13.917969 10.542969 13.523438 C 10.480469 12.996094 9.738281 12.5625 8.773438 12.5 C 8.773438 12.5 8.261719 12.105469 8.226562 11.425781 C 8.222656 11.324219 8.144531 11.222656 8.046875 11.246094 C 7.789062 11.308594 7.351562 11.640625 7.328125 13.148438 C 7.328125 13.148438 5.960938 13.84375 5.835938 15.828125 C 5.726562 15.765625 5.617188 15.699219 5.511719 15.628906 C 5.5625 15.023438 5.714844 14.542969 5.894531 14.179688 C 6.246094 13.457031 6.746094 13.058594 7 12.886719 C 7.054688 11.398438 7.539062 10.964844 7.941406 10.863281 C 8.066406 10.832031 8.195312 10.859375 8.296875 10.9375 C 8.414062 11.023438 8.492188 11.167969 8.5 11.324219 C 8.519531 11.722656 8.757812 12.003906 8.867188 12.117188 C 9.050781 12.132812 9.222656 12.160156 9.386719 12.203125 L 9.402344 12.0625 L 9.527344 10.847656 C 9.546875 10.640625 9.734375 10.46875 9.9375 10.441406 C 10.710938 10.328125 12.433594 9.871094 12.546875 8.007812 C 12.558594 7.800781 12.386719 7.59375 12.183594 7.546875 L 10.542969 7.144531 C 10.542969 7.144531 10.496094 6.75 10.03125 6.585938 C 9.691406 6.46875 8.523438 5.796875 7.371094 6.03125 C 7.808594 6.695312 8.773438 8.328125 8.699219 9.632812 C 8.6875 9.835938 8.523438 10.050781 8.328125 10.113281 C 8.140625 10.175781 7.800781 10.261719 7.390625 10.261719 C 6.792969 10.261719 6.046875 10.082031 5.371094 9.375 C 5.359375 9.597656 5.351562 9.839844 5.347656 10.105469 C 5.339844 11.453125 3.625 12.738281 3.625 12.738281 L 3.421875 13.160156 C 3.046875 12.367188 2.832031 11.484375 2.832031 10.546875 C 2.832031 8.035156 4.34375 5.871094 6.503906 4.914062 C 6.457031 4.671875 6.480469 4.386719 6.585938 4.058594 L 6.789062 3.441406 C 3.757812 4.382812 1.554688 7.214844 1.554688 10.546875 C 1.554688 14.648438 4.890625 17.984375 8.992188 17.984375 C 13.09375 17.984375 16.429688 14.648438 16.429688 10.546875 C 16.429688 7.285156 14.320312 4.507812 11.390625 3.507812 Z M 9.835938 13.617188 C 9.953125 13.617188 10.046875 13.710938 10.046875 13.824219 C 10.046875 13.941406 9.953125 14.035156 9.835938 14.035156 C 9.71875 14.035156 9.625 13.941406 9.625 13.824219 C 9.625 13.710938 9.71875 13.617188 9.835938 13.617188 Z M 9.625 7.558594 C 9.742188 7.558594 9.835938 7.652344 9.835938 7.769531 C 9.835938 7.886719 9.742188 7.980469 9.625 7.980469 C 9.511719 7.980469 9.417969 7.886719 9.417969 7.769531 C 9.417969 7.652344 9.511719 7.558594 9.625 7.558594 Z M 9.625 7.558594 "/>
  </g>
</svg>