<?xml version="1.0" encoding="utf-8"?>
<!-- Generator: Adobe Illustrator 15.1.0, SVG Export Plug-In . SVG Version: 6.00 Build 0)  -->
<!DOCTYPE svg PUBLIC "-//W3C//DTD SVG 1.1//EN" "http://www.w3.org/Graphics/SVG/1.1/DTD/svg11.dtd">
<svg version="1.1" id="Layer_1" xmlns="http://www.w3.org/2000/svg" xmlns:xlink="http://www.w3.org/1999/xlink" x="0px" y="0px"
	 width="24px" height="24px" viewBox="0 0 24 24" enable-background="new 0 0 24 24" xml:space="preserve">
<path d="M22.055,19.576c0.026-0.1,0.041-0.207,0.041-0.317V7.546c0-0.555-0.358-1.006-0.799-1.006h-4.45v12.466
	c0,0.199-0.027,0.392-0.078,0.57h-0.521c0.026-0.1,0.042-0.207,0.042-0.317V3.172c0-0.554-0.358-1.005-0.8-1.005H8.511
	c-0.441,0-0.799,0.451-0.799,1.005v16.087c0,0.11,0.015,0.218,0.042,0.317H7.232c-0.05-0.179-0.08-0.371-0.08-0.57V6.54H2.811
	c-0.441,0-0.799,0.451-0.799,1.006v11.713c0,0.11,0.015,0.218,0.042,0.317H1.708v2.077h20.76v-2.077H22.055L22.055,19.576z
	 M4.409,15.471H3.264v-1.44h1.145V15.471z M4.409,12.941H3.264V11.5h1.145V12.941z M4.409,10.495H3.264V9.054h1.145V10.495z
	 M6.194,15.471H5.048v-1.44h1.146V15.471z M6.194,12.941H5.048V11.5h1.146V12.941z M6.194,10.495H5.048V9.054h1.146V10.495z
	 M13.777,19.51h-3.362V14.23h3.362V19.51z M12.001,9.707c-1.557,0-2.817-1.586-2.817-3.543c0-1.958,1.262-3.544,2.817-3.544
	s2.816,1.587,2.816,3.544C14.817,8.12,13.557,9.707,12.001,9.707z M19.271,15.471h-1.145v-1.44h1.145V15.471z M19.271,12.941h-1.145
	V11.5h1.145V12.941z M19.271,10.495h-1.145V9.054h1.145V10.495z M21.057,15.471H19.91v-1.44h1.146V15.471z M21.057,12.941H19.91
	V11.5h1.146V12.941z M21.057,10.495H19.91V9.054h1.146V10.495z M12.699,5.285h1.078v1.757h-1.078v1.359h-1.397V7.042h-1.08V5.285
	h1.08V3.926h1.397V5.285z"/>
</svg>
