<?xml version="1.0" encoding="UTF-8" standalone="no"?>
<!-- Generated by IcoMoon.io -->

<svg
   xmlns:dc="http://purl.org/dc/elements/1.1/"
   xmlns:cc="http://creativecommons.org/ns#"
   xmlns:rdf="http://www.w3.org/1999/02/22-rdf-syntax-ns#"
   xmlns:svg="http://www.w3.org/2000/svg"
   xmlns="http://www.w3.org/2000/svg"
   xmlns:sodipodi="http://sodipodi.sourceforge.net/DTD/sodipodi-0.dtd"
   xmlns:inkscape="http://www.inkscape.org/namespaces/inkscape"
   version="1.1"
   width="24"
   height="24"
   viewBox="0 0 24 24"
   id="svg3058"
   inkscape:version="0.48.5 r10040"
   sodipodi:docname="icecream.svg">
  <metadata
     id="metadata3066">
    <rdf:RDF>
      <cc:Work
         rdf:about="">
        <dc:format>image/svg+xml</dc:format>
        <dc:type
           rdf:resource="http://purl.org/dc/dcmitype/StillImage" />
      </cc:Work>
    </rdf:RDF>
  </metadata>
  <defs
     id="defs3064" />
  <sodipodi:namedview
     pagecolor="#ffffff"
     bordercolor="#666666"
     borderopacity="1"
     objecttolerance="10"
     gridtolerance="10"
     guidetolerance="10"
     inkscape:pageopacity="0"
     inkscape:pageshadow="2"
     inkscape:window-width="657"
     inkscape:window-height="480"
     id="namedview3062"
     showgrid="false"
     inkscape:zoom="7.375"
     inkscape:cx="16"
     inkscape:cy="16"
     inkscape:window-x="0"
     inkscape:window-y="27"
     inkscape:window-maximized="0"
     inkscape:current-layer="svg3058" />
  <path
     d="M 15.739459,7.3980262 C 16.8666,4.5801735 14.346879,4.1154614 14.346879,4.1489331 15.142416,2.1593111 13.551341,0.8328965 12.092597,0.8328965 c -1.458745,0 -1.39258,0.6639857 -1.39258,0.6639857 0,0 0.795537,-0.1658018 0.795537,0.4639338 0,0.630514 -0.73015,0.5970423 -1.458744,1.3264146 -0.7301509,0.7293724 -0.3814219,0.630514 -0.4312409,0.630514 1.5163479,-0.099637 2.4037379,1.4673073 4.0781029,0.8943958 -1.658019,0.8290092 -2.055787,-0.4888429 -3.8461359,-0.555008 -0.231967,0 -1.558381,-0.2568761 -1.558381,2.2791914 1.9398029,0.2241827 2.7851589,1.5583815 5.4045169,1.2602495 -2.950962,1.0936694 -6.6476418,-3.43202 -7.1613939,1.5249098 0,1.0609759 0.794759,1.5941879 0.794759,1.5941879 0,0 9.1844869,0 9.1517939,0 1.823042,-0.795537 0.928646,-3.6834466 -0.729372,-3.5176448 z M 12.056011,23.167103 16.203392,11.437207 H 7.8175561 l 4.2384549,11.729896 z"
     id="path3060"
     inkscape:connector-curvature="0"
     style="fill:#444444" />
</svg>
