<?xml version="1.0" encoding="UTF-8" standalone="no"?>
<!-- Generated by IcoMoon.io -->

<svg
   xmlns:dc="http://purl.org/dc/elements/1.1/"
   xmlns:cc="http://creativecommons.org/ns#"
   xmlns:rdf="http://www.w3.org/1999/02/22-rdf-syntax-ns#"
   xmlns:svg="http://www.w3.org/2000/svg"
   xmlns="http://www.w3.org/2000/svg"
   xmlns:sodipodi="http://sodipodi.sourceforge.net/DTD/sodipodi-0.dtd"
   xmlns:inkscape="http://www.inkscape.org/namespaces/inkscape"
   version="1.1"
   width="24"
   height="24"
   viewBox="0 0 24 24"
   id="svg3068"
   inkscape:version="0.48.5 r10040"
   sodipodi:docname="injection.svg">
  <metadata
     id="metadata3076">
    <rdf:RDF>
      <cc:Work
         rdf:about="">
        <dc:format>image/svg+xml</dc:format>
        <dc:type
           rdf:resource="http://purl.org/dc/dcmitype/StillImage" />
      </cc:Work>
    </rdf:RDF>
  </metadata>
  <defs
     id="defs3074" />
  <sodipodi:namedview
     pagecolor="#ffffff"
     bordercolor="#666666"
     borderopacity="1"
     objecttolerance="10"
     gridtolerance="10"
     guidetolerance="10"
     inkscape:pageopacity="0"
     inkscape:pageshadow="2"
     inkscape:window-width="657"
     inkscape:window-height="480"
     id="namedview3072"
     showgrid="false"
     inkscape:zoom="7.375"
     inkscape:cx="16"
     inkscape:cy="16"
     inkscape:window-x="0"
     inkscape:window-y="27"
     inkscape:window-maximized="0"
     inkscape:current-layer="svg3068" />
  <path
     d="m 18.480587,6.343594 c 0.299127,0.2983355 0.299127,0.7826362 0,1.081763 -0.299127,0.2991269 -0.542068,0.5412772 -0.542068,0.5412772 l 0.542068,0.5412772 c 0.597463,0.5974624 0.597463,1.5660636 0,2.1643176 l -8.115201,8.113619 c -0.598254,0.598253 -1.5668549,0.598253 -2.1643172,0 l -0.5412772,-0.541277 -2.1635261,2.165108 1.081763,1.081763 c 0.2991269,0.298336 0.2991269,0.781845 0,1.081763 -0.2991268,0.298336 -0.7834275,0.298336 -1.081763,0 L 1.1676306,18.243779 c -0.29833549,-0.298335 -0.29833549,-0.781845 0,-1.081763 0.2991269,-0.298335 0.7834276,-0.298335 1.0817631,0 l 1.081763,1.081763 2.1643174,-2.163526 -0.5412771,-0.541277 c -0.5982538,-0.596671 -0.5982538,-1.566064 0,-2.163526 l 8.115992,-8.1144104 c 0.598254,-0.5982537 1.566064,-0.5982537 2.163527,0 l 0.541277,0.5412772 c 0,0 0.242941,-0.2429417 0.541277,-0.5412772 0.299127,-0.2991268 0.783427,-0.2991268 1.081763,0 l 0.270639,0.2706386 4.328634,-4.3286348 v 1.081763 L 18.209949,6.0721641 18.480587,6.343594 z M 14.69323,5.8023168 c -0.298336,-0.2991269 -0.782637,-0.2991269 -1.081763,0 L 11.988426,7.425357 13.070189,8.5071201 12.528912,9.0483973 11.447149,7.9666342 9.824109,9.5896745 10.905872,10.672229 10.364595,11.213506 9.28204,10.130952 8.7407633,10.672229 10.905081,12.835755 10.363803,13.377033 8.1994861,11.213506 6.5780285,12.834964 8.7415546,14.99849 8.2002774,15.539767 6.0367513,13.376241 5.4954741,13.917518 c -0.2991268,0.298336 -0.2991268,0.783428 0,1.081763 l 3.2460805,3.246081 c 0.2991264,0.299918 0.7834274,0.299918 1.0825544,0 l 8.11441,-8.11441 c 0.299918,-0.2983359 0.299918,-0.7826365 0,-1.0817634 L 14.69323,5.8023168 z m -2.163526,1.0817631 0.541277,-0.5412772 2.163526,2.163526 -0.541277,0.5412772 -2.163526,-2.163526 z m 0,4.3278441 -2.163526,-2.1643181 0.541277,-0.5412772 2.163526,2.1643173 -0.541277,0.541278 z m -5.4103983,1.082554 0.5412772,-0.541277 1.081763,1.081763 -0.5412771,0.541277 -1.0817631,-1.081763 z M 23.056121,6.485244 c 0,0.5737222 -0.465309,1.0382393 -1.03824,1.0382393 -0.574513,0 -1.03903,-0.4653084 -1.03903,-1.0382393 0,-0.5745135 1.03903,-2.1429512 1.03903,-2.1429512 0,0 1.03824,1.5692291 1.03824,2.1429512 z"
     id="path3070"
     inkscape:connector-curvature="0"
     style="fill:#444444" />
</svg>
