<?xml version="1.0" encoding="utf-8"?>
<!-- Generator: Adobe Illustrator 15.1.0, SVG Export Plug-In . SVG Version: 6.00 Build 0)  -->
<!DOCTYPE svg PUBLIC "-//W3C//DTD SVG 1.1//EN" "http://www.w3.org/Graphics/SVG/1.1/DTD/svg11.dtd">
<svg version="1.1" id="Layer_1" xmlns="http://www.w3.org/2000/svg" xmlns:xlink="http://www.w3.org/1999/xlink" x="0px" y="0px"
	 width="24px" height="24px" viewBox="0 0 24 24" enable-background="new 0 0 24 24" xml:space="preserve">
<path d="M20.984,15.195c-0.384,1.121-1.347,1.697-2.274,2.488c-1.311,1.115-2.489,2.09-3.819,3.219
	c-1.041,0.883-2.008,1.998-3.52,1.545c-0.747-0.223-1.447-0.916-2.06-1.416c-1.318-1.074-2.523-2.07-3.82-3.133
	c-0.939-0.771-2.146-1.424-2.446-2.746c-0.182-0.803-0.053-2.277-0.042-2.833c0.032-1.775-0.253-3.355,0.472-4.377
	c0.369-0.519,1.4-1.227,1.931-1.673c1.343-1.132,2.469-2.065,3.906-3.262c0.82-0.682,1.727-1.917,3.348-1.459
	c0.721,0.204,1.426,0.985,2.061,1.502c1.301,1.06,2.637,2.135,3.947,3.176c0.874,0.694,2.017,1.383,2.274,2.532
	c0.217,0.958,0.044,2.138,0.044,3.218C20.984,13.072,20.984,14.16,20.984,15.195z M9.44,5.495C8.295,6.432,7.015,7.451,5.921,8.328
	C5.364,8.774,4.689,9.273,4.333,9.958c-0.421,0.809-0.35,1.421-0.343,2.104c0.003,0.414-0.028,1.018,0.085,1.459
	c0.285,1.104,1.118,1.545,1.974,2.23c1.409,1.133,2.354,1.943,3.819,3.047c0.657,0.492,1.264,1.252,2.146,1.287
	c0.892,0.035,1.749-0.908,2.317-1.371c1.476-1.209,2.548-2.045,3.992-3.221c0.667-0.543,1.396-1.162,1.631-1.973
	c0.136-0.473,0.098-1.092,0.086-1.717c-0.011-0.546,0.05-0.934-0.13-1.502c-0.343-1.09-1.527-1.723-2.317-2.36
	c-1.154-0.932-2.139-1.737-3.348-2.661c-0.771-0.59-1.456-1.459-2.617-1.245C10.819,4.187,9.985,5.049,9.44,5.495z M17.938,13.605
	c1.183-4.324-2.15-7.851-6.095-7.81c-4.079,0.042-6.878,4.107-5.666,7.982c0.643,2.055,2.187,3.453,4.377,4.119
	c-0.291-1.475,0.68-5.273-0.729-5.494c-1.253-0.195-1.067,1.183-1.116,2.189c-0.417-0.588-0.817-1.188-0.901-2.018
	c-0.274-2.668,1.286-4.348,3.133-4.806c4.333-1.076,6.993,4.392,4.162,7.038c-0.095-0.633,0.148-1.303-0.043-1.846
	c-0.196-0.554-0.982-0.76-1.459-0.385c-0.481,0.381-0.345,1.617-0.345,2.531c0,1.016,0.003,2.029,0,2.789
	C15.682,17.293,17.321,15.855,17.938,13.605z M10.856,10.388c0.288,0.763,1.384,0.878,1.889,0.429
	c0.891-0.793,0.052-2.104-0.858-2.017C10.922,8.892,10.586,9.672,10.856,10.388z M8.625,11.246c0.025,1.27,1.98,1.27,2.017,0
	c0.019-0.636-0.412-1.104-1.16-0.987C8.955,10.342,8.613,10.657,8.625,11.246z M13.303,10.602c-0.909,1.242,1.348,2.349,1.802,0.902
	C15.371,10.225,13.833,9.876,13.303,10.602z M12.958,15.152c0-1.609,0.337-3.524-0.987-3.52c-1.289,0.005-0.943,1.881-0.943,3.389
	c0,1.098,0,2.17,0,2.963c0.673,0.07,1.138,0.137,1.889,0C12.991,17.279,12.958,16.225,12.958,15.152z"/>
</svg>
