<?xml version="1.0" encoding="utf-8"?>
<!-- Generator: Adobe Illustrator 15.1.0, SVG Export Plug-In . SVG Version: 6.00 Build 0)  -->
<!DOCTYPE svg PUBLIC "-//W3C//DTD SVG 1.1//EN" "http://www.w3.org/Graphics/SVG/1.1/DTD/svg11.dtd">
<svg version="1.1" id="Layer_1" xmlns="http://www.w3.org/2000/svg" xmlns:xlink="http://www.w3.org/1999/xlink" x="0px" y="0px"
	 width="24px" height="24px" viewBox="0 0 24 24" enable-background="new 0 0 24 24" xml:space="preserve">
<path d="M20.387,15.167c-0.359,1.047-1.259,1.585-2.123,2.323c-1.225,1.039-2.324,1.951-3.565,3.005
	c-0.972,0.824-1.875,1.865-3.286,1.441c-0.697-0.207-1.351-0.854-1.923-1.321c-1.23-1.003-2.355-1.933-3.565-2.925
	c-0.877-0.72-2.003-1.329-2.284-2.563c-0.17-0.749-0.049-2.126-0.039-2.646c0.03-1.656-0.236-3.131,0.441-4.086
	C4.386,7.912,5.349,7.25,5.845,6.835C7.098,5.777,8.149,4.907,9.491,3.79c0.765-0.636,1.612-1.79,3.125-1.362
	c0.673,0.191,1.331,0.92,1.923,1.402c1.215,0.989,2.462,1.994,3.685,2.965c0.816,0.647,1.884,1.291,2.122,2.363
	c0.204,0.895,0.042,1.997,0.042,3.005C20.387,13.186,20.387,14.201,20.387,15.167z M9.609,6.112
	C8.541,6.986,7.347,7.938,6.325,8.757c-0.52,0.416-1.15,0.882-1.482,1.521c-0.393,0.755-0.327,1.326-0.32,1.964
	c0.002,0.386-0.027,0.951,0.079,1.362c0.266,1.03,1.044,1.442,1.842,2.081c1.315,1.058,2.197,1.813,3.565,2.844
	c0.613,0.46,1.18,1.169,2.003,1.201c0.833,0.033,1.633-0.848,2.163-1.279c1.377-1.129,2.378-1.909,3.727-3.007
	c0.622-0.507,1.303-1.085,1.522-1.841c0.127-0.442,0.091-1.02,0.08-1.604c-0.01-0.509,0.047-0.872-0.121-1.402
	c-0.321-1.018-1.426-1.608-2.163-2.203c-1.077-0.871-1.997-1.622-3.125-2.485c-0.72-0.551-1.359-1.362-2.443-1.161
	C10.896,4.892,10.118,5.695,9.609,6.112z M14.406,3.758c-2.569,0.55-2.904,4.636-2.217,6.451c0.252-1.359,1.485-1.739,1.611-3.226
	c1.223-1.465,3.872-1.503,4.636-3.427C17.158,4.775,15.887,3.441,14.406,3.758z M12.591,4.766c-1.095,0.586-3.294,1.81-3.427,4.032
	C10.121,7.269,11.531,6.192,12.591,4.766z M5.939,12.627c0.839-0.659,1.407-0.117,2.015-1.006c0.035,0.301-0.071,0.743,0.202,0.806
	c0.104-1.342,1.158-2.463,0.806-3.628C7.179,9.166,5.858,11.066,5.939,12.627z M5.133,15.046c-0.097,3.444,2.116,6.53,4.636,7.258
	c-1.869-1.013-1.383-6.099-3.427-5.645c0-0.27,0-0.538,0-0.808C5.381,16.116,6.148,15.431,5.133,15.046z M9.971,22.504
	c0.277,0.009,0.442-0.095,0.604-0.2c0.546-4.04,2.829-7.918,1.412-11.691c-0.586,0.153,0.182,1.661-0.404,1.814
	c-0.323-0.348-0.098-1.246-0.604-1.411c-0.008,1.066,0.082,0.976-0.604,0.605c-0.132,1.2-0.391,0.784-0.604,2.417
	c-0.063-0.609,0.224-1.567-0.403-1.612c-0.129,0.81,0.261,2.143-0.202,2.62c-0.209-0.604-0.08-2.597-0.403-2.419
	c0,0.27,0,0.538,0,0.807c-0.355-0.612-0.624,0.551-0.806,0c-0.044-0.156-0.005-0.397-0.201-0.403
	C7.849,16.43,8.492,19.948,9.971,22.504z"/>
</svg>
