<?xml version="1.0" encoding="UTF-8" standalone="no"?>
<!-- Generator: Adobe Illustrator 15.1.0, SVG Export Plug-In . SVG Version: 6.00 Build 0)  -->

<svg
   xmlns:dc="http://purl.org/dc/elements/1.1/"
   xmlns:cc="http://creativecommons.org/ns#"
   xmlns:rdf="http://www.w3.org/1999/02/22-rdf-syntax-ns#"
   xmlns:svg="http://www.w3.org/2000/svg"
   xmlns="http://www.w3.org/2000/svg"
   xmlns:sodipodi="http://sodipodi.sourceforge.net/DTD/sodipodi-0.dtd"
   xmlns:inkscape="http://www.inkscape.org/namespaces/inkscape"
   version="1.1"
   id="Layer_1"
   x="0px"
   y="0px"
   width="24"
   height="24"
   viewBox="0 0 24 24"
   enable-background="new 0 0 595 842"
   xml:space="preserve"
   inkscape:version="0.48.5 r10040"
   sodipodi:docname="Alborz.Insurance.Jointstock.svg"><metadata
     id="metadata3055"><rdf:RDF><cc:Work
         rdf:about=""><dc:format>image/svg+xml</dc:format><dc:type
           rdf:resource="http://purl.org/dc/dcmitype/StillImage" /><dc:title></dc:title></cc:Work></rdf:RDF></metadata><defs
     id="defs3053" /><sodipodi:namedview
     pagecolor="#ffffff"
     bordercolor="#666666"
     borderopacity="1"
     objecttolerance="10"
     gridtolerance="10"
     guidetolerance="10"
     inkscape:pageopacity="0"
     inkscape:pageshadow="2"
     inkscape:window-width="1920"
     inkscape:window-height="942"
     id="namedview3051"
     showgrid="false"
     inkscape:zoom="8.9691211"
     inkscape:cx="42.302034"
     inkscape:cy="8.3460395"
     inkscape:window-x="0"
     inkscape:window-y="27"
     inkscape:window-maximized="1"
     inkscape:current-layer="Layer_1" /><path
     id="polygon3049"
     style="fill-rule:evenodd"
     d="m 3.3163317,14.120051 -0.00386,0.01416 -0.00379,0.01548 -0.010359,0.02968 -0.012839,0.03216 -0.014161,0.03356 -0.018081,0.03604 -0.010285,0.018 -0.010359,0.01816 -0.011599,0.018 -0.012846,0.01672 -0.014161,0.01676 -0.014161,0.01676 -0.015483,0.01548 -0.015475,0.01548 -0.010285,0.009 -0.00904,0.009 -0.00904,0.0065 -0.00896,0.0051 -0.0078,0.0052 -0.00772,0.0027 -0.00646,0.0026 -0.00646,0 -0.00512,0 -0.00512,-0.0026 -0.00646,-0.0039 -0.00904,-0.0051 -0.019322,-0.01423 -0.024445,-0.01925 -0.025834,-0.02196 -0.024445,-0.02064 -0.023124,-0.01932 -0.023198,-0.01676 -0.020718,-0.01676 -0.019322,-0.01548 -0.01676,-0.01676 -0.01676,-0.0154 -0.012839,-0.01423 -0.010359,-0.01285 -0.00267,-0.0065 -0.00267,-0.0064 -0.00148,-0.0052 0,-0.0051 0.014235,-0.03092 0.011525,-0.02712 0.010359,-0.02445 0.00904,-0.01932 0.024445,-0.05155 0.020636,-0.04516 0.01676,-0.03604 0.014161,-0.02968 0.023198,-0.03863 0.023198,-0.0387 0.021883,-0.03995 0.023198,-0.03995 0.00646,-0.009 0.00646,-0.01028 0.00904,-0.01292 0.00896,-0.01416 0.015483,0.01416 0.015483,0.0116 0.00772,0.0051 0.00904,0.0065 0.011599,0.0065 0.011599,0.0078 0.04898,0.03988 0.039876,0.03612 0.01676,0.01548 0.014235,0.01409 0.012839,0.01416 0.010359,0.01167 0.00772,0.01153 0.00772,0.01292 0.0078,0.0116 0.00512,0.01416 0.00512,0.01284 0.00512,0.01416 0.00386,0.01424 0.00267,0.0154 0.00267,0.01285 0.00111,0.01292 0,0.01285 0,0.01423 -0.00267,0.01416 z m -0.313199,1.458913 -0.00512,0.03224 -0.00646,0.03348 -0.00646,0.03604 -0.00639,0.03348 -0.00646,0.03224 -0.00512,0.03224 -0.00646,0.03092 -0.00646,0.02968 -0.00639,0.02836 -0.00646,0.02701 -0.061908,0.248793 -0.011525,0.0348 -0.011673,0.03092 -0.011525,0.03092 -0.010359,0.02708 -0.010285,0.02445 -0.00904,0.02188 -0.0078,0.02064 -0.00896,0.01808 -0.021883,0.04509 -0.021958,0.04252 -0.020636,0.03736 -0.019322,0.03224 -0.019321,0.02836 -0.019396,0.02576 -0.00896,0.0116 -0.010359,0.01028 -0.010285,0.009 -0.010359,0.009 -0.023124,0.018 -0.030995,0.0194 -0.038628,0.02188 -0.043841,0.02452 -0.182997,0.076 -0.018081,0.0065 -0.024445,0.0065 -0.034804,0.009 -0.042519,0.009 -0.042593,0.009 -0.034722,0.0065 -0.02576,0.0039 -0.01676,0.0011 -0.00646,-0.0011 -0.00512,0 -0.00386,-0.0015 -0.00512,-0.0027 -0.00267,-0.0027 -0.00379,-0.0026 -0.00149,-0.0039 -0.00149,-0.0038 -0.00111,-0.009 0.00111,-0.01036 0.00267,-0.0116 0.00639,-0.01284 0.00772,-0.0116 0.010359,-0.01292 0.012839,-0.01416 0.014161,-0.01544 0.018081,-0.01672 0.019396,-0.0168 0.023124,-0.01932 0.024445,-0.01932 0.025834,-0.02064 0.02576,-0.02064 0.02576,-0.01932 0.02576,-0.01932 0.02576,-0.02064 0.025722,-0.01932 0.02576,-0.01932 0.025834,-0.01932 0.054118,-0.05038 0.047658,-0.04501 0.038703,-0.03869 0.032242,-0.03348 0.020562,-0.02196 0.019396,-0.02312 0.019321,-0.02452 0.019322,-0.02576 0.019321,-0.02576 0.018082,-0.02836 0.018,-0.02836 0.018081,-0.02968 0.00904,-0.01672 0.010359,-0.0232 0.011525,-0.02836 0.012921,-0.03604 0.00772,-0.02196 0.0078,-0.02445 0.010285,-0.02712 0.010285,-0.03092 0.011599,-0.03348 0.012921,-0.03604 0.012846,-0.04002 0.01552,-0.04384 0.060578,-0.182997 0.00646,-0.02056 0.00639,-0.02452 0.00772,-0.02576 0.010359,-0.02836 0.00512,-0.01285 0.00512,-0.0116 0.00646,-0.01036 0.00646,-0.009 0.00639,-0.0052 0.00646,-0.0051 0.00646,-0.0027 0.00772,-0.0011 0.011599,0.01676 0.00772,0.01416 0.0052,0.0116 0.00111,0.009 0,0.01544 -0.00111,0.01932 -0.0026,0.02196 -0.00267,0.02445 -0.00379,0.02576 z m 2.1174704,1.748829 -0.00386,0.01416 -0.00379,0.0154 -0.010359,0.02968 -0.012921,0.03224 -0.015401,0.03356 -0.01676,0.03604 -0.010359,0.01808 -0.011525,0.018 -0.011599,0.01808 -0.011599,0.01676 -0.014235,0.01676 -0.014086,0.01548 -0.015475,0.01672 -0.015482,0.01548 -0.010285,0.009 -0.00904,0.009 -0.00904,0.0065 -0.00904,0.0051 -0.00772,0.0051 -0.00772,0.0027 -0.00646,0.0026 -0.00639,0 -0.0052,0 -0.00512,-0.0026 -0.0078,-0.0039 -0.00765,-0.0052 -0.019396,-0.01409 -0.024445,-0.0194 -0.025834,-0.02188 -0.024445,-0.02064 -0.023198,-0.01932 -0.023198,-0.01676 -0.020562,-0.01676 -0.019396,-0.01548 -0.01676,-0.01672 -0.01676,-0.01548 -0.012846,-0.01416 -0.010359,-0.01285 -0.00267,-0.0065 -0.00267,-0.0065 -0.00149,-0.0051 -0.00111,-0.0051 0.014161,-0.03092 0.012846,-0.02708 0.010359,-0.02445 0.00896,-0.0194 0.023272,-0.05155 0.020562,-0.04509 0.018082,-0.03736 0.014161,-0.02836 0.023198,-0.03863 0.023198,-0.03869 0.021883,-0.03995 0.023198,-0.0412 0.00646,-0.0078 0.00646,-0.01028 0.00772,-0.01292 0.010359,-0.01409 0.015438,0.01409 0.014161,0.0116 0.00904,0.0051 0.00896,0.0065 0.011673,0.0065 0.011599,0.0065 0.04898,0.0412 0.03995,0.03612 0.016723,0.0154 0.014161,0.01424 0.012846,0.01409 0.00904,0.0116 0.00904,0.0116 0.00772,0.01292 0.00646,0.0116 0.00646,0.01285 0.00512,0.01416 0.00512,0.01416 0.00386,0.01416 0.00267,0.01548 0.0026,0.01292 0.00149,0.01284 0,0.01292 -0.00149,0.01409 -0.00149,0.01292 z m 0.011599,-1.515602 -0.015475,0 -0.018,0.0015 -0.076077,0 -0.020636,-0.0027 -0.018,-0.0011 -0.015482,-0.0011 -0.011599,0 -0.024445,0 -0.02452,0.0011 -0.02452,0.0011 -0.023124,0.0027 -0.021883,0.0038 -0.021958,0.0039 -0.021883,0.0039 -0.020643,0.0051 -0.020636,0.0065 -0.021883,0.0077 -0.023198,0.0077 -0.024445,0.01036 -0.025834,0.01028 -0.02576,0.01036 -0.028359,0.01284 -0.028358,0.01416 -0.023123,0.01292 -0.02452,0.01416 -0.024445,0.01548 -0.02452,0.018 -0.02576,0.01932 -0.024445,0.02196 -0.025834,0.02188 -0.027044,0.02452 -0.02576,0.02576 -0.027044,0.02704 -0.027081,0.02968 -0.028359,0.03092 -0.028396,0.03216 -0.028284,0.0348 -0.028433,0.0348 -0.028358,0.03736 -0.00646,0.009 -0.014161,0.02064 -0.020562,0.02968 -0.02968,0.0412 -0.036044,0.05155 -0.042519,0.06316 -0.051623,0.07218 -0.057942,0.08379 -0.041272,0.05544 -0.042519,0.0528 -0.042519,0.05147 -0.043767,0.04898 -0.043841,0.04773 -0.045163,0.04509 -0.046336,0.04384 -0.046485,0.0412 -0.027044,0.0232 -0.032235,0.02576 -0.036044,0.02839 -0.041197,0.03092 -0.045163,0.03348 -0.050227,0.03612 -0.054118,0.03995 -0.059338,0.0412 -0.028358,0.02064 -0.029599,0.01932 -0.028358,0.01807 -0.027081,0.01932 -0.028359,0.01808 -0.027081,0.01672 -0.02576,0.01676 -0.027044,0.0168 -0.02576,0.01541 -0.027081,0.01544 -0.027081,0.01423 -0.028284,0.01416 -0.028433,0.01416 -0.029606,0.01416 -0.02968,0.01285 -0.02968,0.01292 -0.011525,0.0051 -0.014235,0.0065 -0.018,0.0065 -0.019321,0.0077 -0.011673,0.0038 -0.00896,0.0015 -0.010359,0.0027 -0.00772,0 -0.00904,0 -0.00772,-0.0027 -0.00772,-0.0015 -0.00646,-0.0038 -0.00148,-0.0027 -0.00111,-0.0038 0.00111,-0.0051 0.00148,-0.0051 0.00772,-0.01292 0.012921,-0.01672 0.020562,-0.02064 0.030995,-0.02704 0.03995,-0.03356 0.051549,-0.03995 0.037396,-0.02576 0.037284,-0.02576 0.038695,-0.02445 0.037358,-0.02576 0.037358,-0.02583 0.037396,-0.02568 0.037358,-0.02452 0.036118,-0.02576 0.051482,-0.03995 0.052871,-0.04252 0.052796,-0.04641 0.0542,-0.05023 0.055366,-0.05287 0.05544,-0.05669 0.057942,-0.05926 0.058017,-0.06315 0.033556,-0.03736 0.034722,-0.0387 0.036118,-0.04252 0.034722,-0.04384 0.036118,-0.04641 0.036044,-0.04758 0.036118,-0.05162 0.036044,-0.05405 0.033482,-0.04516 0.032242,-0.04773 0.030995,-0.04634 0.03092,-0.04898 0.054118,-0.07733 0.047665,-0.06829 0.043841,-0.06191 0.037358,-0.05412 0.033482,-0.04509 0.027044,-0.03736 0.023198,-0.0296 0.018082,-0.02196 0.023198,-0.02961 0.024445,-0.02708 0.024519,-0.02836 0.023198,-0.02576 0.02576,-0.02712 0.024445,-0.02445 0.02452,-0.02452 0.02576,-0.02445 0.02576,-0.0232 0.02576,-0.02188 0.02576,-0.02196 0.02576,-0.02056 0.027044,-0.02064 0.027081,-0.01932 0.027118,-0.0194 0.027044,-0.01808 0.036044,-0.02569 0.037396,-0.02452 0.036118,-0.02188 0.037359,-0.02196 0.036118,-0.018 0.037321,-0.01808 0.036118,-0.01548 0.036044,-0.01416 0.037396,-0.01285 0.036044,-0.01036 0.036118,-0.01028 0.037396,-0.0064 0.036044,-0.0065 0.036044,-0.0039 0.036118,-0.0027 0.036044,-0.0015 0.00512,0.02712 0.0052,0.03092 0.00379,0.0348 0.00386,0.03736 0.00379,0.03736 0.00267,0.03604 0.00111,0.03224 0,0.02836 0,0.04384 -0.00111,0.03863 -0.00267,0.0348 -0.00379,0.03092 -0.00386,0.02576 -0.00379,0.0232 -0.0052,0.02064 -0.00512,0.01676 -0.00896,0.0039 -0.010359,0.0051 -0.011599,0.0027 -0.012921,0.0039 -0.014086,0.0011 z m 0.2577524,-0.515509 0.021883,-0.0027 0.023198,-0.0038 0.011599,-0.0027 0.010285,-0.0038 0.011599,-0.0051 0.010359,-0.0078 0.011599,-0.009 0.010285,-0.01028 0.010359,-0.0116 0.010285,-0.01284 0.010285,-0.01028 0.00904,-0.01167 0.00904,-0.01285 0.00772,-0.01416 0.0078,-0.01548 0.00639,-0.0154 0.0078,-0.01676 0.00512,-0.01807 0.00646,-0.02064 0.00512,-0.02452 0.00512,-0.0296 0.00512,-0.03348 0.00512,-0.03736 0.0052,-0.04252 0.00379,-0.04516 0.0052,-0.05155 0.00379,-0.05155 0.00386,-0.05155 0.00267,-0.05023 0.00267,-0.04898 0.0026,-0.04773 0.00149,-0.04766 0,-0.04641 0.00111,-0.04509 0,-0.05412 0.00267,-0.05155 0.00267,-0.04898 0.00386,-0.04641 0.00646,-0.04384 0.00646,-0.0412 0.00896,-0.03863 0.00904,-0.03612 0.00648,-0.01932 0.010282,-0.02576 0.012918,-0.03224 0.01676,-0.03736 0.019321,-0.04509 0.021957,-0.0503 0.025761,-0.0567 0.029678,-0.06316 0.07079,-0.15208 0.012918,-0.01285 0.0078,-0.0078 0.00512,-0.0051 0.0038,-0.0051 0.00264,0.0015 0.00264,0.0051 0.00264,0.0077 0.00264,0.0116 0.00264,0.01284 0,0.01424 0,0.01672 -0.00264,0.01676 -0.029678,0.233299 0,0.02312 -0.00151,0.0232 0,0.02576 0,0.02712 -0.00113,0.0296 -0.00151,0.02968 0,0.03224 -0.00113,0.03348 -0.00151,0.0348 -0.00113,0.03348 -0.00151,0.03224 0,0.03348 -0.00151,0.03224 0,0.03092 0,0.03099 0,0.03092 -0.00113,0.0528 -0.00151,0.05155 -0.0038,0.05155 -0.00512,0.0503 -0.00524,0.04766 -0.00772,0.04773 -0.00904,0.04766 -0.010282,0.04509 -0.010281,0.04509 -0.012918,0.04516 -0.012918,0.04509 -0.015442,0.04509 -0.01548,0.04641 -0.015404,0.04509 -0.018078,0.04641 -0.018078,0.04509 -0.015404,0.0348 -0.01548,0.0348 -0.01676,0.0348 -0.018078,0.03348 -0.018082,0.0348 -0.020562,0.03348 -0.021958,0.03356 -0.021883,0.03348 -0.023198,0.03348 -0.024519,0.03348 -0.02576,0.03224 -0.027044,0.03224 -0.027044,0.03348 -0.02968,0.03224 -0.02968,0.03224 -0.03092,0.03092 -0.011599,0.01028 -0.015483,0.01416 -0.021883,0.0194 -0.028359,0.02188 -0.028358,0.0232 -0.023198,0.01932 -0.019322,0.01416 -0.015482,0.01036 0,-0.498764 0.041272,0.0027 0.037396,0.0011 0.034722,0.0015 0.02968,0 0.020636,0 z m 1.1805257,-0.483266 0.0064,-0.0077 0.00904,-0.009 0.00772,0.0116 0.00388,0.01029 0.00264,0.01036 0.00151,0.0077 -0.024518,0.172715 -0.03092,0.284779 -0.056693,0.452353 -0.00516,0.03736 -0.0052,0.03612 -0.00516,0.03348 -0.0064,0.03216 -0.00648,0.031 -0.00648,0.02961 -0.0064,0.02708 -0.00648,0.02576 -0.0078,0.02445 -0.00772,0.02576 -0.00772,0.02583 -0.00904,0.02576 -0.010282,0.02705 -0.00911,0.02576 -0.011525,0.02836 -0.010357,0.02712 -0.1172726,0.244827 -0.0348,0.06059 -0.03092,0.04898 -0.024518,0.03869 -0.019245,0.02701 -0.0078,0.01036 -0.00772,0.0077 -0.0078,0.0077 -0.00772,0.0065 -0.00772,0.0051 -0.0064,0.0027 -0.00648,0.0026 -0.00648,0 -0.01548,-0.0348 0.010282,-0.03472 0.010357,-0.03356 0.00904,-0.03348 0.010282,-0.03348 0.00904,-0.03348 0.00904,-0.03356 0.00904,-0.03224 0.00904,-0.03348 0.00896,-0.03092 0.00772,-0.02968 0.0078,-0.02836 0.00644,-0.02576 0.00648,-0.0232 0.00516,-0.0232 0.0038,-0.02064 0.0052,-0.018 0.011525,-0.05801 0.0116,-0.05544 0.010357,-0.05544 0.00904,-0.05148 0.00904,-0.05155 0.0064,-0.04898 0.0078,-0.04773 0.00516,-0.04641 0.00512,-0.04377 0.00388,-0.04384 0.00512,-0.04252 0.00516,-0.03995 0.00388,-0.03995 0.0038,-0.0387 0.00388,-0.03736 0.00512,-0.03604 0.055442,-0.158472 0.1572209,-0.371206 0.00904,-0.01548 0.010282,-0.018 0.012918,-0.02064 0.014086,-0.02188 0.00264,-0.0052 z m 1.9292536,1.029688 0.055442,0.01036 0,0.009 0.00113,0.009 0.00264,0.0077 0.00264,0.009 0.00388,0.0077 0.00388,0.0077 0.00512,0.0078 0.0064,0.0077 0.0052,0.0065 0.00904,0.01028 0.014161,0.0116 0.019321,0.01548 0.020639,0.0154 0.015404,0.01292 0.012918,0.0116 0.010282,0.0077 0.012918,0.01285 0.011525,0.01167 0.00911,0.01153 0.00772,0.01036 0.00648,0.01028 0.0038,0.009 0.00264,0.0078 0.00151,0.009 -0.00151,0.01676 -0.00264,0.0168 -0.00512,0.01932 -0.00772,0.01932 -0.00904,0.01932 -0.0116,0.02196 -0.012843,0.02056 -0.015479,0.0232 -0.015479,0.01932 -0.012843,0.0168 -0.0116,0.01544 -0.0116,0.01416 -0.015479,0.009 -0.014161,0.009 -0.010282,0.0027 -0.0116,0.0027 -0.015404,0.0015 -0.019396,0.0011 -0.015479,-0.0011 -0.019321,-0.0039 -0.025761,-0.0051 -0.03092,-0.0077 -0.029602,-0.0078 -0.024518,-0.0051 -0.019321,-0.0038 -0.012918,-0.0015 -0.016722,0.0015 -0.018078,0.0011 -0.01676,0.0027 -0.015442,0.0039 -0.015479,0.0051 -0.015442,0.0064 -0.014236,0.0065 -0.014161,0.009 -0.00904,0.0065 -0.00896,0.0077 -0.0116,0.0116 -0.012918,0.01292 -0.028359,0.03348 -0.033481,0.04252 -0.036118,0.04384 -0.032239,0.03995 -0.029602,0.0348 -0.027079,0.03092 -0.0232,0.02576 -0.0232,0.0232 -0.023124,0.02188 -0.0232,0.02064 -0.0232,0.01808 -0.024443,0.01808 -0.023275,0.01544 -0.024443,0.01292 -0.024443,0.01284 -0.024518,0.01028 -0.024443,0.009 -0.024518,0.0077 -0.024443,0.0052 -0.025761,0.0039 -0.024518,0.0027 -0.025761,0.0011 -0.014161,-0.0011 -0.012843,0 -0.014161,-0.0027 -0.012918,-0.0015 -0.014161,-0.0027 -0.012843,-0.0039 -0.012918,-0.0039 -0.012843,-0.0051 -0.05287,-0.02056 -0.043842,-0.01424 -0.01676,-0.0051 -0.015442,-0.0027 -0.012918,-0.0027 -0.010282,-0.0011 -0.0232,0.0011 -0.021882,0.0015 -0.020639,0.0027 -0.020639,0.0026 -0.020639,0.0051 -0.019321,0.0051 -0.018078,0.0065 -0.018078,0.0065 -0.018003,0.0077 -0.018078,0.009 -0.018003,0.01028 -0.018153,0.01036 -0.037324,0.02445 -0.038702,0.02708 -0.018003,0.01416 -0.018078,0.01028 -0.01548,0.01036 -0.015404,0.0065 -0.014161,0.0051 -0.012918,0.0027 -0.0116,0.0015 -0.010282,-0.0015 -0.00388,-0.0027 -0.00264,-0.0027 -0.00264,-0.0026 -0.00264,-0.0052 -0.00151,-0.0116 0,-0.01416 0,-0.0077 0.00264,-0.009 0.00264,-0.0077 0.00264,-0.009 0.00904,-0.01808 0.010357,-0.01676 0.024443,-0.03092 0.0232,-0.02968 0.021882,-0.02836 0.021957,-0.02576 0.021882,-0.02452 0.020639,-0.02312 0.020639,-0.02196 0.019321,-0.01932 0.024518,-0.02576 0.027004,-0.02576 0.03092,-0.02704 0.033481,-0.02843 0.046411,-0.04252 0.042517,-0.03604 0.020714,-0.01548 0.018003,-0.01416 0.018078,-0.01285 0.018003,-0.01036 0.027079,-0.01676 0.028359,-0.0154 0.028359,-0.0116 0.028359,-0.01036 0.029678,-0.0077 0.028359,-0.0051 0.028359,-0.0039 0.029678,-0.0011 0.015404,0.0011 0.01548,0.0015 0.01676,0.0011 0.016722,0.0039 0.01676,0.0039 0.018078,0.0051 0.01676,0.0051 0.019396,0.0065 0.032163,0.01285 0.024518,0.0077 0.018003,0.0052 0.00904,0.0027 0.029678,-0.0015 0.028359,-0.0027 0.027041,-0.0039 0.025761,-0.0064 0.025836,-0.0065 0.023125,-0.01029 0.021957,-0.01036 0.021882,-0.01284 0.019321,-0.01423 0.021957,-0.01669 0.021882,-0.01808 0.021882,-0.02064 0.021957,-0.0232 0.0232,-0.02576 0.0232,-0.02712 0.024443,-0.0296 0.1160259,-0.15722 0.051548,-0.05155 0.045089,-0.03995 0.01676,-0.0116 0.015404,-0.009 0.012918,-0.0065 z m -0.3982289,2.011798 0.00264,0.01284 0.00113,0.01285 v 0.01292 0.01285 l -0.00264,0.01416 -0.00151,0.01416 -0.00388,0.01416 -0.00388,0.01416 -0.010281,0.03092 -0.012918,0.03223 -0.014161,0.03348 -0.018078,0.03604 -0.010357,0.01808 -0.010357,0.01808 -0.0116,0.01676 -0.012843,0.01807 -0.014161,0.01676 -0.014161,0.01548 -0.015442,0.01676 -0.01548,0.01416 -0.010281,0.01036 -0.00904,0.0077 -0.00904,0.0077 -0.00904,0.0051 -0.00772,0.0051 -0.00772,0.0027 -0.00648,0.0027 h -0.00648 l -0.00512,-0.0015 -0.00512,-0.0015 -0.00648,-0.0039 -0.00904,-0.0051 -0.019321,-0.01416 -0.024518,-0.0194 -0.025761,-0.02312 -0.024443,-0.0194 -0.0232,-0.01932 -0.0232,-0.01808 -0.020639,-0.0154 -0.019321,-0.01676 -0.016835,-0.0154 -0.01676,-0.01548 -0.012843,-0.01416 -0.010357,-0.01416 -0.00264,-0.0051 -0.00264,-0.0064 -0.00151,-0.0051 v -0.0051 l 0.014161,-0.03223 0.0116,-0.02712 0.010282,-0.0232 0.00904,-0.01932 0.024443,-0.05287 0.020639,-0.04384 0.016798,-0.03736 0.014161,-0.02961 0.0232,-0.03736 0.0232,-0.03995 0.021882,-0.03863 0.0232,-0.04127 0.00648,-0.0077 0.0064,-0.0116 0.00772,-0.0116 0.010281,-0.01416 0.01548,0.01416 0.015404,0.01036 0.00772,0.0065 0.00904,0.0051 0.0116,0.0064 0.0116,0.0077 0.04898,0.04127 0.039948,0.0348 0.01676,0.01676 0.014161,0.01416 0.012843,0.01285 0.010357,0.01284 0.00772,0.0116 0.00772,0.0116 0.00772,0.01292 0.00512,0.01285 0.00516,0.01416 0.00512,0.01416 0.00388,0.01416 0.00301,0.01563 0,0 z m 0.5232146,-0.03092 0.00264,0.01285 0.00151,0.01292 v 0.01285 0.01416 l -0.00151,0.01416 -0.00264,0.01284 -0.00264,0.01416 -0.0038,0.01548 -0.010357,0.0296 -0.012843,0.03224 -0.015479,0.03356 -0.018078,0.03604 -0.010282,0.01808 -0.010357,0.01808 -0.0116,0.01808 -0.012843,0.01672 -0.012918,0.01676 -0.014161,0.01672 -0.015404,0.01548 -0.01676,0.01544 -0.00904,0.009 -0.010282,0.009 -0.00904,0.0065 -0.00772,0.0051 -0.00904,0.0051 -0.00648,0.0027 -0.00772,0.0027 h -0.00648 -0.00388 l -0.0064,-0.0027 -0.00648,-0.0038 -0.00772,-0.0039 -0.019321,-0.0154 -0.024443,-0.01932 -0.027117,-0.02188 -0.024443,-0.02064 -0.0232,-0.01932 -0.021882,-0.01676 -0.020639,-0.0168 -0.019321,-0.01544 -0.018078,-0.01676 -0.015479,-0.01548 -0.014161,-0.01416 -0.00904,-0.01285 -0.00388,-0.0065 -0.00264,-0.0065 -0.00151,-0.0051 v -0.0051 l 0.014161,-0.03092 0.012918,-0.02704 0.010282,-0.02452 0.00772,-0.01932 0.024443,-0.05155 0.020639,-0.04509 0.01676,-0.03604 0.015404,-0.02968 0.021882,-0.0387 0.0232,-0.03863 0.023124,-0.03995 0.0232,-0.03995 0.00516,-0.009 0.00648,-0.01028 0.00904,-0.01292 0.00904,-0.01416 0.015479,0.01416 0.015404,0.0116 0.00772,0.0051 0.010357,0.0065 0.010357,0.0065 0.0116,0.0064 0.04898,0.04127 0.039949,0.03604 0.016722,0.01548 0.015479,0.01416 0.0116,0.01416 0.010282,0.0116 0.00772,0.0116 0.00772,0.01285 0.00772,0.0116 0.0064,0.01416 0.00512,0.01285 0.00388,0.01416 0.0038,0.01416 0.00264,0.01544 z m 0.2319765,-2.08391 -0.010281,-0.0052 -0.00904,-0.0065 -0.019321,-0.01028 -0.018078,-0.009 -0.018078,-0.0064 -0.018003,-0.0039 -0.015479,-0.0015 -0.015404,0 -0.016798,0.0027 -0.01676,0.0051 -0.015404,0.0064 -0.018078,0.009 -0.01676,0.01028 -0.018078,0.01292 -0.01676,0.01416 -0.014161,0.01416 -0.0116,0.01292 -0.010357,0.01416 -0.00772,0.01285 -0.00648,0.01292 -0.00264,0.01292 -0.00113,0.01284 -0.2087728,0.112136 0.00896,-0.02708 0.011675,-0.02836 0.014161,-0.03224 0.01676,-0.0348 0.010281,-0.02188 0.012843,-0.0232 0.01548,-0.02708 0.01676,-0.0296 0.021957,-0.03224 0.0232,-0.03092 0.0232,-0.02968 0.025761,-0.02828 0.024443,-0.02843 0.027079,-0.02576 0.027041,-0.02445 0.028359,-0.0232 0.028359,-0.02196 0.027117,-0.018 0.027041,-0.01552 0.025761,-0.01285 0.025761,-0.01028 0.024518,-0.0078 0.0116,-0.0026 0.012843,-0.0015 0.011675,-0.0011 0.011525,0 0.050226,0.0051 0.0052,0.0154 0.00516,0.0194 0.00388,0.02064 0.00388,0.02312 0.0038,0.02196 0.00113,0.02056 0.00264,0.01683 0,0.01416 0,0.02712 -0.00264,0.02568 -0.00113,0.02583 -0.0038,0.02312 -0.00388,0.02196 -0.00388,0.018 -0.00516,0.0168 -0.0052,0.01409 -0.010282,0 -0.010281,-0.0011 -0.00904,-0.0027 -0.010357,-0.0027 -0.010281,-0.0039 z m 0.5747704,1.35706 -0.0038,0.01416 -0.00388,0.01416 -0.010282,0.03092 -0.0116,0.03223 -0.01548,0.03348 -0.018003,0.03604 -0.010357,0.01807 -0.010282,0.01808 -0.0116,0.01808 -0.012918,0.01676 -0.014161,0.01672 -0.014086,0.01548 -0.014236,0.01676 -0.01676,0.0154 -0.010281,0.009 -0.00904,0.0077 -0.00904,0.0078 -0.00904,0.0051 -0.00772,0.0051 -0.0078,0.0027 -0.0064,0.0027 -0.00648,0 -0.00512,0 -0.00516,-0.0027 -0.00648,-0.0038 -0.00904,-0.0052 -0.019321,-0.01416 -0.024518,-0.01932 -0.025761,-0.02196 -0.024443,-0.02056 -0.0232,-0.01932 -0.021882,-0.01808 -0.021957,-0.01548 -0.019321,-0.01676 -0.01676,-0.01544 -0.01676,-0.01548 -0.012918,-0.01416 -0.00904,-0.01416 -0.00388,-0.0051 -0.00264,-0.0065 -0.00151,-0.0051 0,-0.0051 0.014161,-0.03092 0.0116,-0.02843 0.010282,-0.0232 0.00904,-0.01932 0.024518,-0.0528 0.020639,-0.04384 0.01676,-0.03736 0.014161,-0.02843 0.0232,-0.03863 0.023125,-0.03995 0.023275,-0.03863 0.021882,-0.04127 0.00648,-0.0077 0.0064,-0.01036 0.00911,-0.01284 0.00896,-0.01416 0.015479,0.01416 0.015442,0.0116 0.00772,0.0051 0.00911,0.0051 0.011525,0.0078 0.0116,0.0064 0.04898,0.04127 0.039948,0.0348 0.01676,0.01676 0.014161,0.01416 0.012918,0.01285 0.010282,0.01292 0.0078,0.0116 0.00772,0.0116 0.00772,0.01285 0.00516,0.01292 0.0052,0.01416 0.00516,0.01416 0.00388,0.01416 0.00264,0.01548 0.00264,0.01284 0.00113,0.01292 0,0.01284 0,0.01416 -0.00113,0.01292 z m -0.425259,-1.631628 0.010357,0.0039 0.0064,0 0.0116,0 0.010357,-0.0015 0.010282,-0.0026 0.010357,-0.0038 0.010282,-0.0051 0.00904,-0.0052 0.00896,-0.0065 0.0078,-0.0076 0.01676,-0.0194 0.018003,-0.02188 0.019396,-0.02712 0.019321,-0.03092 0.010281,-0.0154 0.00904,-0.01292 0.00904,-0.0116 0.00772,-0.009 0.0078,-0.0065 0.0064,-0.0038 0.00648,-0.0027 0.0052,0 0.0038,0.0027 0.00388,0.0011 0.00264,0.0039 0.00264,0.0027 0.00264,0.0039 0.00151,0.0051 0.00113,0.0051 0.00151,0.0065 -0.00151,0.01416 -0.00264,0.01672 -0.0038,0.01932 -0.00648,0.02064 -0.014236,0.03348 -0.011525,0.02712 -0.00904,0.02056 -0.00648,0.01548 -0.01676,0.03224 -0.018078,0.02968 -0.015404,0.02576 -0.015479,0.02445 -0.032239,0.03995 -0.03092,0.03612 -0.015404,0.01544 -0.015479,0.01416 -0.014161,0.01292 -0.014161,0.0116 -0.014161,0.009 -0.012918,0.009 -0.012843,0.0078 -0.012918,0.0065 -0.012843,0.0038 -0.0116,0.0039 -0.012918,0.0027 -0.011525,0 0,-0.324795 0.014086,0.0027 0.014161,0.0051 0.016798,0.0051 0.019321,0.0065 0.01676,0.0077 z m 2.1999356,0.645707 0.01416,0.01292 0.01676,0.01285 0.0194,0.01285 0.02312,0.01416 0.0348,0.01939 0.03612,0.01932 0.03472,0.0194 0.03612,0.018 0.01548,0.0116 0.01409,0.0116 0.01292,0.01028 0.0116,0.0116 0.01036,0.0116 0.0077,0.01036 0.0064,0.01153 0.0052,0.01036 0.0038,0.0116 0.0039,0.0116 0.0038,0.0116 0.0026,0.01285 0.0027,0.02712 0.0011,0.02961 0,0.06059 0,0.02968 -0.0011,0.02968 -0.0027,0.02961 -0.0026,0.03092 -0.0038,0.031 -0.0039,0.03092 -0.0051,0.03224 -0.0065,0.03216 -0.0064,0.03224 -0.0078,0.03224 -0.0077,0.03224 -0.009,0.03348 -0.02056,0.06829 -0.02452,0.06962 -0.02576,0.06829 -0.02712,0.06697 -0.0296,0.06572 -0.02968,0.06316 -0.03092,0.06059 -0.03224,0.05933 -0.03356,0.05794 -0.03472,0.05544 -0.0232,0.03092 -0.0232,0.02968 -0.0232,0.02836 -0.0232,0.02836 -0.02445,0.02712 -0.0232,0.02576 -0.02576,0.02445 -0.02445,0.0232 -0.02452,0.0232 -0.02576,0.02196 -0.02576,0.02056 -0.02576,0.02064 -0.02576,0.01932 -0.02704,0.01676 -0.02708,0.01808 -0.02712,0.0154 -0.02704,0.01548 -0.02836,0.01416 -0.02836,0.01285 -0.02836,0.01167 -0.02843,0.0116 -0.02836,0.01028 -0.02961,0.009 -0.02968,0.009 -0.0296,0.0064 -0.031,0.0065 -0.0296,0.0051 -0.031,0.0052 -0.03092,0.0027 -0.03092,0.0027 -0.03224,0.0011 -0.03224,0.0015 -0.03348,-0.0015 -0.03216,-0.0027 -0.031,-0.0038 -0.03092,-0.0065 -0.0296,-0.0077 -0.02843,-0.01036 -0.02704,-0.01036 -0.02712,-0.01409 -0.02576,-0.01416 -0.02576,-0.0168 -0.0232,-0.018 -0.0232,-0.02064 -0.023125,-0.02188 -0.020714,-0.0232 -0.020564,-0.02576 -0.019396,-0.02708 -0.019321,-0.02836 -0.01676,-0.0296 -0.015479,-0.03099 -0.015404,-0.03092 -0.014161,-0.03348 -0.0116,-0.03356 -0.0116,-0.03472 -0.010282,-0.03612 -0.00904,-0.03736 -0.0078,-0.03736 -0.0064,-0.03994 -0.00512,-0.03995 -0.00388,-0.0412 -0.00388,-0.04259 -0.00113,-0.04377 -0.00151,-0.04384 0.00151,-0.03092 0.00113,-0.03224 0.00151,-0.03224 0.00388,-0.03348 0.0038,-0.03348 0.00512,-0.03348 0.00516,-0.03612 0.00644,-0.03604 0.0078,-0.03612 0.00772,-0.03736 0.00904,-0.03736 0.010282,-0.03863 0.0232,-0.0799 0.025761,-0.08247 0.021882,-0.06191 0.0232,-0.06448 0.025761,-0.06697 0.027117,-0.06829 0.029602,-0.07094 0.032239,-0.07343 0.033557,-0.076 0.03604,-0.07732 0.0116,-0.02452 0.01028,-0.02445 0.0116,-0.02452 0.01036,-0.02445 0.01152,-0.02452 0.01036,-0.02576 0.01036,-0.02445 0.01028,-0.02576 0.01544,-0.0348 0.01416,-0.0296 0.01416,-0.02583 0.0116,-0.02188 0.0116,-0.01676 0.009,-0.0116 0.0039,-0.0051 0.0038,-0.0039 0.0039,-0.0011 0.0039,-0.0015 0.0026,0.02445 0.0015,0.02583 0,0.02576 0.0011,0.02576 -0.009,0.02968 -0.01028,0.03216 -0.01292,0.03612 -0.01416,0.03988 -0.01548,0.04259 -0.018,0.04641 -0.02064,0.05023 -0.02188,0.0528 -0.0348,0.08386 -0.03092,0.07468 -0.02708,0.06705 -0.02452,0.05926 -0.019321,0.05023 -0.015442,0.04259 -0.012918,0.03348 -0.00772,0.02576 -0.012843,0.04634 -0.0116,0.04384 -0.00904,0.04259 -0.00904,0.03995 -0.00516,0.03863 -0.0052,0.03736 -0.00264,0.03348 0,0.03348 0,0.03224 0.00151,0.03224 0.00264,0.03099 0.00388,0.02961 0.00516,0.02968 0.0064,0.02836 0.00648,0.02705 0.00904,0.02712 0.00904,0.02576 0.010357,0.02445 0.011525,0.02452 0.012918,0.02312 0.012843,0.02196 0.015479,0.02188 0.01548,0.02064 0.01672,0.0194 0.01808,0.01932 0.018,0.018 0.0194,0.01548 0.02056,0.01548 0.02064,0.01416 0.02188,0.01284 0.02196,0.0116 0.0232,0.01036 0.0232,0.009 0.02444,0.0078 0.02576,0.0064 0.02576,0.0051 0.02576,0.0039 0.02836,0.0039 0.02836,0.0011 0.02843,0.0015 0.03863,-0.0015 0.03863,-0.0011 0.0374,-0.0027 0.03604,-0.0026 0.0348,-0.0051 0.03488,-0.0052 0.03348,-0.0051 0.03348,-0.0077 0.03224,-0.009 0.03224,-0.009 0.03224,-0.0116 0.03216,-0.01284 0.03216,-0.01292 0.03224,-0.01672 0.031,-0.01676 0.03216,-0.01807 0.0374,-0.0232 0.03612,-0.02704 0.03472,-0.02712 0.03356,-0.03092 0.03092,-0.03224 0.03092,-0.03348 0.0284,-0.03612 0.02704,-0.03863 0.02576,-0.03863 0.02188,-0.03612 0.01807,-0.0348 0.01416,-0.03216 0.0116,-0.02968 0.009,-0.02836 0.0026,-0.01292 0.0027,-0.01285 0.0015,-0.01167 0,-0.01153 0,-0.009 -0.0015,-0.009 -0.0027,-0.0077 -0.0026,-0.0077 -0.0039,-0.0065 -0.0052,-0.0065 -0.0052,-0.0065 -0.0077,-0.0064 -0.009,-0.0065 -0.01284,-0.009 -0.018,-0.01028 -0.02196,-0.0116 -0.02704,-0.01424 -0.03099,-0.01544 -0.03604,-0.01808 -0.03863,-0.01932 -0.01816,-0.009 -0.0154,-0.009 -0.01416,-0.01036 -0.01416,-0.009 -0.0116,-0.01029 -0.0116,-0.0116 -0.009,-0.01036 -0.0077,-0.0116 -0.0116,-0.01676 -0.009,-0.018 -0.0077,-0.0194 -0.0065,-0.02056 -0.0051,-0.02196 -0.0039,-0.02196 -0.0011,-0.02445 -0.0015,-0.02452 0.0015,-0.018 0.0011,-0.01932 0.0039,-0.02196 0.0051,-0.02576 0.0065,-0.02568 0.0077,-0.02968 0.009,-0.03224 0.0116,-0.03348 0.0116,-0.0348 0.01284,-0.03348 0.01292,-0.03224 0.01548,-0.03092 0.01544,-0.031 0.0154,-0.0296 0.0168,-0.02836 0.01808,-0.02836 0.01932,-0.02708 0.018,-0.02712 0.0194,-0.02569 0.01932,-0.02576 0.018,-0.02452 0.0194,-0.02576 0.01932,-0.0232 0.02064,-0.02445 0.03863,-0.04516 0.04002,-0.04252 0.0412,-0.03863 0.03995,-0.03612 0.0374,-0.03216 0.02968,-0.02712 0.0232,-0.02188 0.01676,-0.01808 0.01028,-0.01416 0.009,-0.01416 0.0026,-0.0051 0.0015,-0.0065 0.0011,-0.0051 0.0015,-0.0051 -0.0015,-0.0051 -0.0027,-0.0039 -0.0026,-0.0039 -0.0051,-0.0051 -0.01416,-0.0116 -0.02064,-0.0116 -0.01036,-0.0065 -0.009,-0.0064 -0.0065,-0.0078 -0.0064,-0.0077 -0.0026,-0.0078 -0.0027,-0.0077 0,-0.009 0.0015,-0.0077 0.101782,-0.224267 0.02836,-0.0528 0.02196,-0.04252 0.01548,-0.031 0.01153,-0.02056 0.0116,-0.01932 0.01284,-0.01548 0.01292,-0.01416 0.01292,-0.01028 0.01285,-0.0065 0.01285,-0.0052 0.0065,-0.0011 0.0065,0 0.0052,0 0.0064,0 0.03995,0.009 0.03736,0.009 0.03604,0.01028 0.03224,0.0116 0.03092,0.01292 0.02968,0.01285 0.02708,0.01548 0.02445,0.0154 0.02196,0.01676 0.01932,0.01672 0.0154,0.0168 0.01292,0.018 0.0065,0.0077 0.0038,0.009 0.0039,0.009 0.0039,0.0091 0.0027,0.0077 0.0011,0.009 0.0011,0.009 0.0015,0.009 -0.0015,0.02452 -0.0051,0.02445 -0.0065,0.02576 -0.009,0.02701 -0.01292,0.02712 -0.01416,0.02708 -0.018,0.02836 -0.0194,0.02968 -0.02188,0.02704 -0.02196,0.02712 -0.02312,0.02312 -0.02196,0.02196 -0.02312,0.02064 -0.02452,0.018 -0.0232,0.01548 -0.0232,0.01416 -0.03995,0.02188 -0.03604,0.02064 -0.03348,0.01808 -0.03099,0.018 -0.02836,0.01548 -0.02445,0.01416 -0.02196,0.01285 -0.01932,0.01036 -0.03348,0.02064 -0.03224,0.02064 -0.03092,0.02056 -0.03092,0.02064 -0.02836,0.02188 -0.02708,0.02064 -0.02576,0.02196 -0.02452,0.02056 -0.02056,0.0194 -0.02576,0.02704 -0.03224,0.03356 -0.03612,0.03995 -0.01932,0.02188 -0.0154,0.01932 -0.01292,0.01939 -0.0116,0.01672 -0.009,0.01544 -0.0052,0.01423 -0.0038,0.01152 -0.0015,0.0116 0,0.0051 0.0015,0.0052 0.0011,0.0051 0.0027,0.0051 0.0078,0.0116 z m 1.355737,-0.0374 -0.01021,0.03216 -0.01036,0.03224 -0.01416,0.03224 -0.01548,0.02836 -0.0077,0.0116 -0.0077,0.01167 -0.0078,0.01028 -0.0077,0.009 -0.009,0.0078 -0.0077,0.0077 -0.009,0.0051 -0.009,0.0052 -0.009,0.0038 -0.009,0.0027 -0.009,0.0015 -0.01036,0.0011 0.0015,-0.02188 0.0027,-0.0348 0.0052,-0.04766 0.0051,-0.05933 0.0077,-0.07343 0.01036,-0.08504 0.0116,-0.09796 0.01285,-0.112135 0.01292,-0.113382 0.01416,-0.106991 0.0116,-0.100532 0.0116,-0.09407 0.0116,-0.08636 0.01028,-0.0799 0.01036,-0.07218 0.009,-0.06573 0.0026,-0.0077 0.0039,-0.01285 0.0077,-0.01816 0.009,-0.02312 0.01036,-0.02836 0.01409,-0.0348 0.01547,-0.0387 0.01808,-0.04509 0.01808,-0.04509 0.01808,-0.04252 0.01668,-0.03995 0.01548,-0.03743 0.01548,-0.03348 0.01285,-0.03216 0.01292,-0.02836 0.01284,-0.02576 0.01036,-0.0039 0.009,-0.0051 0.0026,0.01028 -0.0011,0.01676 -0.0015,0.02452 -0.0051,0.02968 -0.01932,0.131449 -0.08636,0.619855 -0.0065,0.04641 -0.0064,0.04509 -0.0052,0.04252 -0.0038,0.04252 -0.0039,0.04002 -0.0038,0.0374 -0.0039,0.03728 -0.0027,0.0348 -0.0027,0.03348 -0.0015,0.03099 -0.0026,0.02836 -0.0011,0.02576 -0.0015,0.0232 0,0.02056 -0.0011,0.0194 0,0.01676 -0.01036,0.03224 -0.01036,0.03348 -0.01021,0.03224 -0.009,0.03224 -0.01036,0.03348 z m 1.092916,0.600543 -0.01808,0.05155 -0.018,0.05287 -0.01036,0.03224 -0.01028,0.02836 -0.01036,0.0232 -0.009,0.01932 -0.009,0.0154 -0.0078,0.01036 -0.0038,0.0039 -0.0039,0.0027 -0.0026,0.0011 -0.0039,0.0011 -0.0065,-0.0011 -0.0051,-0.0011 -0.0039,-0.0027 -0.0039,-0.0039 -0.0027,-0.0051 -0.0011,-0.0065 -0.0015,-0.0078 -0.0011,-0.0077 0.0051,-0.03092 0.0051,-0.03092 0.0051,-0.03224 0.0051,-0.03348 0.02576,-0.193274 -0.0011,-0.02843 -0.0015,-0.02836 -0.0039,-0.02445 -0.0051,-0.0232 -0.0065,-0.02196 -0.0077,-0.01932 -0.009,-0.01676 -0.0116,-0.01548 -0.01167,-0.01285 -0.01416,-0.0116 -0.01409,-0.009 -0.0168,-0.0077 -0.018,-0.0065 -0.0194,-0.0038 -0.02064,-0.0027 -0.02188,-0.0015 -0.01292,0 -0.01152,0.0027 -0.01292,0.0026 -0.0116,0.0039 -0.01292,0.0051 -0.0116,0.0065 -0.01284,0.0077 -0.01285,0.009 -0.01167,0.01028 -0.01285,0.01028 -0.01285,0.01292 -0.01292,0.01292 -0.01285,0.0154 -0.01292,0.01548 -0.01285,0.01676 -0.01284,0.01808 -0.02583,0.03604 -0.0232,0.03348 -0.02188,0.03092 -0.02064,0.02708 -0.01932,0.02445 -0.01676,0.02196 -0.01548,0.01932 -0.01416,0.01548 -0.01416,0.01416 -0.01416,0.01416 -0.01416,0.01285 -0.01548,0.01167 -0.01548,0.01152 -0.01544,0.01028 -0.01676,0.01036 -0.01676,0.009 -0.01808,0.009 -0.01807,0.0064 -0.018,0.0065 -0.02064,0.0051 -0.01932,0.0039 -0.02196,0.0027 -0.02188,0.0015 -0.02188,0.0011 -0.01932,-0.0011 -0.01808,-0.0015 -0.01807,-0.0027 -0.01672,-0.0039 -0.01808,-0.0051 -0.0154,-0.0065 -0.01676,-0.0064 -0.01548,-0.009 -0.01416,-0.009 -0.01548,-0.01036 -0.01416,-0.01153 -0.01285,-0.01292 -0.01292,-0.01416 -0.01285,-0.01544 -0.01292,-0.01548 -0.01153,-0.01808 -0.01036,-0.01807 -0.01036,-0.01932 -0.01029,-0.01932 -0.009,-0.02064 -0.0078,-0.02188 -0.0077,-0.0232 -0.0065,-0.0232 -0.0065,-0.02445 -0.0051,-0.02452 -0.0052,-0.02712 -0.0038,-0.02701 -0.0027,-0.02704 -0.0026,-0.02968 -0.0027,-0.02968 0,-0.02961 -0.0015,-0.03099 0.213985,-0.39691 0.0011,0.04641 0.0039,0.04509 0.0011,0.02188 0.0039,0.02064 0.0039,0.02064 0.0039,0.01932 0.005,0.01932 0.0051,0.01807 0.0052,0.01808 0.0064,0.01676 0.0078,0.01672 0.0065,0.01676 0.009,0.01548 0.0077,0.01416 0.01036,0.01416 0.009,0.01416 0.0116,0.0116 0.01153,0.0116 0.01167,0.01028 0.01285,0.01036 0.01416,0.009 0.01416,0.0078 0.01548,0.0064 0.01676,0.0052 0.01672,0.0051 0.0168,0.0051 0.01925,0.0027 0.01816,0.0027 0.02056,0.0011 0.02064,0 0.02961,0 0.02843,-0.0027 0.02576,-0.0039 0.02569,-0.0051 0.02327,-0.0065 0.02188,-0.0077 0.01932,-0.009 0.0194,-0.01028 0.01668,-0.01292 0.02583,-0.0232 0.0348,-0.03348 0.04377,-0.04252 0.02576,-0.02576 0.02576,-0.02576 0.02445,-0.02452 0.02583,-0.02576 0.018,-0.01284 0.01808,-0.0116 0.018,-0.009 0.01808,-0.009 0.0194,-0.0051 0.018,-0.0051 0.0194,-0.0027 0.01932,0 0.0116,0 0.01292,0.0011 0.01284,0.0015 0.0116,0.0027 0.0116,0.0026 0.0116,0.0039 0.0116,0.0038 0.01153,0.0052 0.01036,0.0064 0.0116,0.0065 0.01036,0.0065 0.01021,0.0077 0.02072,0.01808 0.01925,0.02064 0.02327,0.02829 0.018,0.02716 0.0065,0.01152 0.0065,0.0116 0.0051,0.01036 0.0039,0.01028 0.0065,0.01676 0.0051,0.01548 0.0065,0.01292 0.005,0.01028 0.0039,0.009 0.0051,0.009 0.0027,0.01036 0.0039,0.01028 0.0015,0.01284 0.0011,0.01423 0,0.01544 0,0.01548 -0.0027,0.0154 -0.0011,0.01548 -0.0027,0.01416 -0.0011,0.01292 -0.02056,0.04509 -0.0194,0.04641 -0.02056,0.04766 -0.0194,0.04773 -0.01808,0.05023 z m 0.229408,-0.4536 0.02188,-0.02712 0.0194,-0.0232 0.018,-0.02188 0.01672,-0.01808 0.01552,-0.01548 0.01416,-0.01284 0.01285,-0.01028 0.01167,-0.0077 0.01028,-0.0065 0.0116,-0.0052 0.01028,-0.0038 0.01036,-0.0039 0.01028,-0.0026 0.01028,-0.0027 0.01036,-0.0011 0.01028,0 0.02576,0.0026 0.02576,0.0011 0.02445,0.0011 0.02583,0 0.01409,-0.0064 0.01548,-0.01036 0.01676,-0.01416 0.0194,-0.018 0.01932,-0.01672 0.01544,-0.01548 0.01292,-0.0116 0.009,-0.009 0.01292,-0.01285 0.01285,-0.01036 0.01416,-0.01028 0.01416,-0.01036 0.0154,-0.0077 0.01552,-0.0078 0.01548,-0.0064 0.0154,-0.0051 0.01548,-0.0077 0.01409,-0.0116 0.01548,-0.01416 0.01683,-0.0168 0.01808,-0.02056 0.01669,-0.0232 0.0194,-0.02708 0.01932,-0.0296 0.01808,-0.03099 0.01676,-0.03092 0.01285,-0.03092 0.0116,-0.03092 0.0091,-0.03092 0.0051,-0.031 0.0038,-0.02961 0.0015,-0.031 0,-0.01152 -0.0027,-0.01423 -0.0027,-0.01676 -0.0051,-0.018 -0.0052,0 -0.0051,0.0039 -0.0051,0.0038 -0.0065,0.0077 -0.0052,0.0078 -0.0064,0.01028 -0.0051,0.01292 -0.0065,0.01409 -0.01548,0.03356 -0.01409,0.02836 -0.01548,0.02445 -0.01416,0.02064 -0.0065,0.0078 -0.0064,0.0077 -0.0078,0.0064 -0.0065,0.0052 -0.0064,0.0038 -0.0065,0.0027 -0.0065,0.0015 -0.0065,0 -0.04641,-0.009 -0.01932,0.02712 -0.01676,0.02445 -0.01548,0.0232 -0.01409,0.02064 -0.01423,0.01932 -0.01416,0.01672 -0.01416,0.01292 -0.01416,0.0116 -0.01548,0.0077 -0.01409,0.0051 -0.0078,0.0027 -0.0077,0.0015 -0.0078,0 -0.0077,0 -0.08636,-0.01028 -0.01409,0 -0.01423,0.0027 -0.01416,0.0038 -0.0154,0.0051 -0.01548,0.0065 -0.01548,0.0078 -0.01668,0.009 -0.01548,0.01036 -0.0168,0.01284 -0.01669,0.01285 -0.01808,0.01548 -0.01808,0.01672 -0.01808,0.01808 -0.01808,0.01932 -0.018,0.02064 -0.0194,0.02196 -0.0116,0.01416 -0.01409,0.018 -0.01548,0.02196 -0.01932,0.02576 -0.02196,0.02961 -0.02444,0.03224 -0.02576,0.03604 -0.02961,0.04002 -0.05544,0.07732 0.08628,0.121095 0.0065,-0.01416 0.009,-0.01676 0.01167,-0.01808 0.01276,-0.02064 0.03232,-0.04509 z m 2.703837,-1.023305 0.0026,0.01292 0.0015,0.01285 v 0.01416 0.01292 l -0.0015,0.01416 -0.0026,0.01416 -0.0039,0.01416 -0.0039,0.01416 -0.01028,0.0296 -0.0116,0.03216 -0.01548,0.0348 -0.018,0.03612 -0.01036,0.018 -0.01036,0.01808 -0.0116,0.01676 -0.01284,0.01672 -0.01416,0.0168 -0.01416,0.01676 -0.0154,0.0154 -0.01548,0.01548 -0.01036,0.01028 -0.009,0.0077 -0.009,0.0065 -0.009,0.0065 -0.0077,0.0039 -0.0077,0.0039 -0.0065,0.0015 -0.0065,0.0015 -0.0051,-0.0015 -0.0051,-0.0027 -0.0065,-0.0027 -0.0077,-0.0051 -0.02064,-0.01416 -0.02445,-0.02064 -0.02576,-0.02196 -0.02452,-0.02056 -0.02312,-0.0194 -0.02196,-0.01672 -0.02188,-0.01676 -0.0194,-0.01548 -0.0168,-0.01544 -0.01676,-0.01548 -0.01292,-0.0154 -0.009,-0.01292 -0.0039,-0.0064 -0.0027,-0.0051 -0.0015,-0.0065 v -0.0051 l 0.01409,-0.03092 0.0116,-0.02712 0.01036,-0.0232 0.009,-0.02064 0.02445,-0.05155 0.02064,-0.04509 0.01676,-0.03604 0.01416,-0.02968 0.02312,-0.03863 0.0232,-0.03869 0.02312,-0.03995 0.02196,-0.03995 0.0065,-0.009 0.0064,-0.01028 0.009,-0.01285 0.009,-0.01416 0.01548,0.01416 0.0154,0.0116 0.0077,0.0051 0.009,0.0064 0.0116,0.0065 0.01153,0.0077 0.04898,0.03995 0.03995,0.03604 0.01683,0.01548 0.01416,0.01544 0.01285,0.01285 0.01036,0.0116 0.0077,0.0116 0.0077,0.01285 0.0077,0.01285 0.0051,0.01292 0.0051,0.01285 0.0051,0.01416 0.0039,0.0154 0.003,0.01431 0,0 z m 0.524536,-0.02961 0.0015,0.01285 0.0015,0.01285 v 0.01292 0.01285 l -0.0015,0.01416 -0.0027,0.01416 -0.0027,0.01416 -0.0039,0.01416 -0.01036,0.03092 -0.01292,0.03216 -0.0154,0.03348 -0.01808,0.03612 -0.01036,0.01808 -0.01028,0.01808 -0.0116,0.01676 -0.01292,0.01808 -0.01292,0.01676 -0.01409,0.01544 -0.01548,0.01548 -0.01683,0.0154 -0.009,0.01028 -0.01036,0.0077 -0.009,0.0077 -0.0077,0.0051 -0.009,0.0051 -0.0065,0.0027 -0.0076,0.0027 h -0.0065 l -0.0039,-0.0015 -0.0065,-0.0015 -0.0065,-0.0039 -0.0077,-0.0051 -0.01932,-0.01416 -0.02452,-0.01932 -0.02576,-0.0232 -0.02583,-0.02064 -0.02312,-0.01808 -0.02196,-0.01808 -0.02056,-0.0154 -0.0194,-0.01676 -0.018,-0.0154 -0.01548,-0.0154 -0.01416,-0.01416 -0.009,-0.01416 -0.0039,-0.0051 -0.0027,-0.0065 -0.0015,-0.0051 v -0.0051 l 0.01409,-0.03224 0.01292,-0.02712 0.01036,-0.0232 0.0077,-0.01932 0.02445,-0.0528 0.02064,-0.04384 0.018,-0.03736 0.01416,-0.02968 0.02196,-0.0374 0.02312,-0.03995 0.0232,-0.03995 0.02312,-0.03995 0.0051,-0.0077 0.0077,-0.0116 0.0076,-0.0116 0.0091,-0.01416 0.01544,0.01416 0.01548,0.01028 0.0077,0.0065 0.01028,0.0051 0.01036,0.0065 0.01292,0.0077 0.04891,0.04127 0.04002,0.0348 0.01676,0.01676 0.01416,0.01416 0.0116,0.01292 0.01036,0.01285 0.009,0.0116 0.0077,0.0116 0.0065,0.01292 0.0065,0.01285 0.0051,0.01416 0.0039,0.01416 0.0039,0.01416 0.0042,0.01571 z m 1.375126,0.744838 -0.02072,0.01036 -0.01925,0.01153 -0.01939,0.01292 -0.018,0.01548 -0.0168,0.01676 -0.01808,0.01807 -0.018,0.02056 -0.01808,0.0232 -0.01932,0.02576 -0.02064,0.02968 -0.02056,0.03092 -0.02196,0.03224 -0.02188,0.02968 -0.02064,0.02836 -0.02188,0.02704 -0.02452,0.02708 -0.02836,0.02836 -0.03356,0.03216 -0.03863,0.0348 -0.03348,0.02576 -0.03348,0.02445 -0.0348,0.02327 -0.0348,0.02188 -0.03612,0.02196 -0.03728,0.01932 -0.03612,0.018 -0.03869,0.01808 -0.03995,0.01548 -0.04252,0.01676 -0.04641,0.01672 -0.05015,0.01548 -0.05288,0.01544 -0.05676,0.01548 -0.05926,0.0154 -0.06316,0.01548 -0.06705,0.01548 -0.07211,0.01416 -0.07476,0.01409 -0.07997,0.01292 -0.08372,0.01292 -0.08893,0.01285 -0.09282,0.0116 -0.09664,0.01036 -0.09796,0.01029 -0.094,0.009 -0.09157,0.0077 -0.08886,0.0051 -0.08635,0.0051 -0.08247,0.0039 -0.07872,0.0015 -0.07725,0.0011 -0.08636,0 -0.06573,-0.0011 -0.06183,-0.0015 -0.05802,-0.0011 -0.05419,-0.0027 -0.05155,-0.0038 -0.04634,-0.0039 -0.04384,-0.0051 -0.03995,-0.0065 -0.0348,-0.0065 -0.03348,-0.0064 -0.03348,-0.0078 -0.03099,-0.0077 -0.0296,-0.009 -0.02836,-0.009 -0.02712,-0.01028 -0.02701,-0.01028 -0.02452,-0.01167 -0.0232,-0.01285 -0.02196,-0.01284 -0.02181,-0.01292 -0.0194,-0.01416 -0.018,-0.01545 -0.0168,-0.01548 -0.01676,-0.01548 -0.01028,-0.01285 -0.01036,-0.01292 -0.01028,-0.01416 -0.009,-0.01416 -0.0077,-0.01416 -0.0077,-0.01676 -0.0065,-0.0154 -0.0065,-0.01808 -0.0051,-0.01808 -0.0052,-0.01808 -0.0038,-0.01932 -0.0027,-0.01939 -0.0027,-0.02056 -0.0027,-0.02196 0,-0.02181 -0.0011,-0.02196 0,-0.04509 0.0011,-0.04126 0,-0.03995 0.0015,-0.03604 0.0011,-0.0348 0.0027,-0.03224 0.0011,-0.02836 0.0027,-0.02708 0.0015,-0.04641 0.0039,-0.04252 0.0011,-0.01932 0.0039,-0.018 0.0039,-0.01683 0.0038,-0.01672 0.0039,-0.01545 0.0051,-0.01292 0.0052,-0.01028 0.0038,-0.009 0.0052,-0.0077 0.0051,-0.0039 0.0051,-0.0039 0.0052,-0.0011 0.0051,0.0011 0.0065,0.0026 0.0051,0.0039 0.0039,0.0051 0.0051,0.0077 0.0026,0.009 0.0039,0.01036 0.0027,0.0116 0.0168,0.06954 0.01292,0.05419 0.009,0.03472 0.0077,0.0194 0.0078,0.01285 0.009,0.0116 0.009,0.0116 0.01153,0.01028 0.0116,0.01036 0.0116,0.009 0.01416,0.009 0.01416,0.009 0.01548,0.0078 0.01544,0.009 0.01808,0.0078 0.01939,0.0077 0.04377,0.01548 0.04773,0.01544 0.04891,0.01416 0.04905,0.0116 0.05147,0.01036 0.05155,0.009 0.05287,0.009 0.05287,0.0065 0.05412,0.0052 0.05537,0.0038 0.05802,0.0027 0.05933,0.0026 0.06176,0.0027 0.06448,0.0015 0.06697,0.0011 0.06837,0.0015 0.07211,0 0.07351,0 0.04384,0 0.04509,0 0.04384,-0.0015 0.04384,0 0.04377,-0.0027 0.04384,-0.0011 0.04252,-0.0027 0.04384,-0.0015 0.04252,-0.0027 0.03995,-0.0027 0.03863,-0.0027 0.03604,-0.0027 0.0348,-0.0027 0.03356,-0.0026 0.0296,-0.0027 0.02968,-0.0027 0.05412,-0.0011 0.05676,-0.0027 0.06059,-0.0052 0.06308,-0.0064 0.06705,-0.0078 0.07086,-0.01028 0.07343,-0.0116 0.0774,-0.01416 0.07732,-0.01416 0.07601,-0.01672 0.07218,-0.01808 0.06954,-0.01932 0.06697,-0.02064 0.0658,-0.02188 0.06191,-0.02452 0.05926,-0.02445 0.05155,-0.0232 0.04634,-0.0232 0.02196,-0.01284 0.02056,-0.0116 0.0194,-0.01292 0.01808,-0.01292 0.01932,-0.01409 0.02196,-0.01816 0.02444,-0.02312 0.02572,-0.02576 0.01292,-0.01416 0.0194,-0.02196 0.02445,-0.0296 0.02968,-0.03863 0.03224,-0.03744 0.02828,-0.03092 0.01292,-0.01285 0.0116,-0.0116 0.0116,-0.009 0.01028,-0.0078 0.02064,-0.01152 0.01932,-0.009 0.0194,-0.0077 0.018,-0.0065 0.0194,-0.0039 0.01676,-0.0027 0.018,0 0.0168,0.0011 0.0051,0.01292 0.0077,0.01672 0.0077,0.02196 0.009,0.02704 0.009,0.02708 0.0065,0.02188 0.0039,0.01676 0.0011,0.01292 -0.0011,0.01153 -0.0027,0.01423 -0.0052,0.01672 -0.0065,0.018 -0.0077,0.02072 -0.009,0.01932 -0.009,0.01932 -0.009,0.018 -0.0619,-0.0051 -0.02445,0 -0.02452,0.0039 -0.02445,0.0039 -0.0232,0.0077 z m 1.1676,-2.836532 0.09407,-0.04252 0.103101,-0.04516 0.09664,-0.0412 0.09539,-0.04126 0.09539,-0.0412 0.09539,-0.04127 0.09664,-0.04127 0.09539,-0.04252 0.09531,-0.0412 0.09664,-0.04259 0.06837,-0.03092 0.06822,-0.03216 0.06836,-0.03224 0.06697,-0.03224 0.06704,-0.03224 0.06573,-0.03216 0.06572,-0.03356 0.0644,-0.03348 0.04773,-0.02576 0.0528,-0.02712 0.05545,-0.02961 0.05926,-0.03224 0.06316,-0.0348 0.0658,-0.03736 0.07086,-0.03863 0.07468,-0.04127 0.108316,-0.05926 0.09539,-0.05155 0.07982,-0.04384 0.0658,-0.03604 0.05147,-0.02968 0.03612,-0.02064 0.02188,-0.01416 0.009,-0.0065 -0.0051,0.0116 -0.0039,0.0116 -0.0065,0.009 -0.0065,0.009 -0.01021,0.01676 -0.01292,0.0194 -0.01416,0.01932 -0.018,0.02188 -0.0194,0.0232 -0.0232,0.02576 -0.02452,0.02576 -0.02829,0.02836 -0.05544,0.05412 -0.04898,0.04641 -0.04509,0.03863 -0.03869,0.03099 -0.02704,0.01925 -0.02708,0.02071 -0.02836,0.01932 -0.02708,0.02064 -0.02836,0.01932 -0.02828,0.01932 -0.02976,0.01932 -0.02961,0.0194 -0.05544,0.0348 -0.0503,0.03085 -0.04377,0.02712 -0.03736,0.02188 -0.02576,0.01423 -0.02836,0.01544 -0.03348,0.01808 -0.0374,0.01932 -0.04127,0.02064 -0.04509,0.0232 -0.04898,0.02445 -0.05287,0.02576 -0.04377,0.02196 -0.04898,0.0232 -0.05288,0.02576 -0.05926,0.02836 -0.06448,0.03092 -0.06822,0.03224 -0.07483,0.03472 -0.07857,0.03743 -0.05676,0.02569 -0.05537,0.02452 -0.0528,0.02445 -0.05155,0.02196 -0.0503,0.02188 -0.04898,0.02064 -0.04641,0.02056 -0.04509,0.01808 -0.05934,0.02445 -0.06051,0.02452 -0.05934,0.02445 -0.05926,0.02327 -0.05927,0.02445 -0.05926,0.0232 -0.05802,0.0232 -0.05926,0.02445 -0.411154,0.171394 -0.04509,0.01932 -0.04252,0.01808 -0.04252,0.01808 -0.03995,0.01676 -0.0194,0.0078 -0.01676,0.0051 -0.01416,0.0051 -0.0116,0.0027 -0.009,0.0011 -0.0077,-0.0011 -0.0026,0 -0.0027,-0.0015 -0.0011,-0.0011 -0.0015,-0.0027 0.0348,-0.04641 0.03472,-0.04509 0.03612,-0.04127 0.03612,-0.03863 0.01925,-0.01807 0.01816,-0.01808 0.01925,-0.01672 0.0194,-0.01548 0.01932,-0.01409 0.01932,-0.01416 0.0194,-0.01292 0.02056,-0.0116 0.03995,-0.0232 0.04898,-0.02704 0.05676,-0.02968 0.06697,-0.03348 0.07608,-0.03604 z m -0.823563,2.522091 0.0065,-0.0039 0.0078,-0.0064 0.0077,-0.0078 0.0077,-0.01028 0.0077,-0.01292 0.009,-0.01416 0.0078,-0.01676 0.009,-0.01932 0.0051,-0.01292 0.0051,-0.01409 0.0052,-0.01808 0.0038,-0.01808 0.009,-0.04509 0.0078,-0.05412 0.0065,-0.05676 0.0051,-0.04898 0.0027,-0.04377 0.0015,-0.0387 -0.0051,-0.692043 0.116026,-0.365994 0.101778,-0.259075 0.01036,-0.0051 0.01028,-0.0051 0.0027,0.01028 0.0011,0.01416 0.0015,0.01808 0,0.0232 0,0.02445 0,0.02452 -0.0015,0.02576 -0.0011,0.02836 -0.0015,0.02836 -0.0011,0.03092 -0.0027,0.03099 -0.0027,0.03348 -0.0027,0.03348 -0.0011,0.03224 -0.0027,0.03224 -0.0027,0.03085 -0.0011,0.031 -0.0015,0.02968 -0.0027,0.02828 -0.0015,0.02843 -0.01932,0.488407 -0.0015,0.03736 0,0.03604 -0.0015,0.03743 -0.0027,0.03736 -0.0026,0.03732 -0.0027,0.0387 -0.0039,0.0374 -0.0038,0.03863 -0.0051,0.03736 -0.0051,0.03612 -0.0065,0.0348 -0.0051,0.0348 -0.0078,0.03216 -0.0077,0.03224 -0.0077,0.02968 -0.009,0.02961 -0.009,0.02836 -0.01036,0.02843 -0.01028,0.02704 -0.01152,0.02704 -0.01292,0.02708 -0.01292,0.02576 -0.01409,0.02712 -0.01548,0.02445 -0.03092,0.05023 -0.031,0.04641 -0.03348,0.04509 -0.03348,0.04127 -0.0168,0.01932 -0.01669,0.0168 -0.0168,0.01416 -0.01548,0.0116 -0.0154,0.009 -0.01548,0.0065 -0.01416,0.0038 -0.01409,0.0015 -0.01808,-0.0027 -0.01424,-0.0027 -0.01152,-0.0026 -0.0065,-0.0027 0,-0.295128 0.06573,0.01036 0.03356,-0.0015 0.02704,-0.0015 0.02188,-0.0038 z m 2.675564,-1.810735 0.0026,0.01292 0.0015,0.01285 v 0.01285 l -0.0015,0.01416 -0.0015,0.01285 -0.0011,0.01416 -0.0039,0.01416 -0.0039,0.01416 -0.01028,0.03092 -0.01292,0.03224 -0.01548,0.03348 -0.01676,0.03604 -0.01036,0.01808 -0.01036,0.01808 -0.01284,0.01808 -0.0116,0.0168 -0.01416,0.01676 -0.01416,0.0154 -0.0154,0.01676 -0.01548,0.0154 -0.01036,0.009 -0.009,0.0077 -0.009,0.0077 -0.009,0.0051 -0.0077,0.0051 -0.0077,0.0027 -0.0065,0.0026 h -0.0065 -0.005 l -0.0051,-0.0026 -0.0077,-0.0039 -0.0077,-0.0051 -0.01939,-0.01416 -0.02445,-0.01932 -0.02576,-0.0232 -0.02452,-0.01932 -0.02312,-0.01932 -0.0232,-0.01808 -0.02056,-0.0154 -0.0194,-0.0168 -0.0168,-0.01545 -0.01676,-0.01544 -0.01292,-0.01416 -0.01036,-0.01416 -0.0027,-0.0051 -0.0027,-0.0065 -0.0015,-0.0051 -0.0015,-0.0051 0.01544,-0.03092 0.0116,-0.02836 0.01036,-0.0232 0.009,-0.01932 0.02312,-0.05287 0.02064,-0.04384 0.018,-0.03736 0.01416,-0.02836 0.02312,-0.03863 0.0232,-0.03995 0.02188,-0.03863 0.0232,-0.04127 0.0065,-0.0077 0.0064,-0.0116 0.0077,-0.0116 0.01036,-0.01416 0.01548,0.01416 0.01409,0.01029 0.009,0.0065 0.009,0.0051 0.0116,0.0077 0.0116,0.0065 0.04891,0.04127 0.03995,0.0348 0.0168,0.01683 0.01416,0.01416 0.01285,0.01292 0.01036,0.01284 0.0077,0.0116 0.0077,0.0116 0.0065,0.01292 0.0065,0.01284 0.0051,0.01416 0.0051,0.01416 0.0038,0.01416 0.003,0.01544 0,0 z m 0.523218,-0.03092 0.0027,0.01285 0.0015,0.01285 v 0.01292 0.01416 l -0.0015,0.01416 -0.0027,0.01285 -0.0027,0.0154 -0.0051,0.01416 -0.01036,0.02968 -0.0116,0.03216 -0.0154,0.03348 -0.01807,0.03612 -0.01036,0.01808 -0.01028,0.01808 -0.0116,0.01808 -0.01292,0.01683 -0.01292,0.01676 -0.01544,0.01676 -0.01416,0.0154 -0.0168,0.01548 -0.01028,0.009 -0.009,0.009 -0.009,0.0065 -0.0077,0.0064 -0.009,0.0039 -0.0076,0.0027 -0.0065,0.0027 h -0.0065 -0.0051 l -0.0051,-0.0027 -0.0065,-0.0039 -0.0077,-0.0039 -0.02056,-0.0154 -0.0232,-0.01932 -0.02704,-0.02188 -0.02445,-0.02064 -0.0232,-0.01932 -0.02188,-0.01672 -0.02196,-0.01683 -0.018,-0.0154 -0.01808,-0.01676 -0.0168,-0.01548 -0.01292,-0.01416 -0.009,-0.01284 -0.0039,-0.0065 -0.0027,-0.0065 -0.0015,-0.0051 v -0.0051 l 0.01416,-0.03092 0.01152,-0.02708 0.0116,-0.02445 0.0077,-0.01932 0.02445,-0.05155 0.02064,-0.04509 0.01676,-0.03604 0.01416,-0.02961 0.0232,-0.0387 0.02312,-0.03863 0.0232,-0.03995 0.02188,-0.03995 0.0065,-0.009 0.0065,-0.01036 0.009,-0.01285 0.009,-0.01416 0.01544,0.01416 0.01548,0.0116 0.0077,0.0051 0.01028,0.0065 0.01036,0.0065 0.0116,0.0077 0.04898,0.03995 0.03995,0.03612 0.0168,0.0154 0.01544,0.01416 0.0116,0.01416 0.01036,0.0116 0.0077,0.0116 0.0076,0.01292 0.0077,0.0116 0.0051,0.01416 0.0065,0.01292 0.0039,0.01416 0.0039,0.01416 0.0026,0.01525 0,0 z m -0.264215,-0.630209 -0.0027,-0.0154 -0.0039,-0.01416 -0.0051,-0.01416 -0.0051,-0.01416 -0.0051,-0.01292 -0.0077,-0.01292 -0.0077,-0.0116 -0.0077,-0.0116 -0.01028,-0.0116 -0.01292,-0.01416 -0.01409,-0.01416 -0.01683,-0.01552 -0.03994,-0.03604 -0.04899,-0.04127 -0.0116,-0.0065 -0.0116,-0.0065 -0.009,-0.0065 -0.0078,-0.0051 -0.0154,-0.0116 -0.01545,-0.01416 -0.009,0.01416 -0.009,0.01292 -0.0065,0.01028 -0.0065,0.0077 -0.02188,0.04127 -0.0232,0.03995 -0.0232,0.03862 -0.02312,0.0387 -0.01416,0.02836 -0.01676,0.03736 -0.02064,0.04509 -0.02445,0.05155 -0.009,0.01932 -0.01036,0.02452 -0.0116,0.02704 -0.01409,0.03092 v 0.0051 l 0.0015,0.0051 0.0027,0.0065 0.0039,0.0065 0.009,0.01285 0.01292,0.01416 0.01683,0.01548 0.01676,0.01676 0.0194,0.01676 0.02056,0.01808 0.0232,0.018 0.02312,0.0194 0.02452,0.01932 0.02576,0.02188 0.02452,0.01808 0.01939,0.01416 0.009,0.0051 0.0065,0.0027 0.0051,0.0027 h 0.0051 0.0065 l 0.0065,-0.0027 0.0076,-0.0027 0.0077,-0.0051 0.009,-0.0051 0.009,-0.0065 0.009,-0.009 0.01028,-0.009 0.01548,-0.01548 0.01544,-0.01676 0.01416,-0.0154 0.01416,-0.01676 0.01292,-0.01672 0.0116,-0.01808 0.01028,-0.01808 0.01036,-0.01808 0.018,-0.03604 0.01416,-0.03356 0.01292,-0.03224 0.01036,-0.0296 0.0039,-0.01548 0.0039,-0.01416 0.0027,-0.01416 0.0015,-0.01292 v -0.01416 -0.01285 l -0.0015,-0.01292 -0.003,-0.01262 z m 0.198419,1.853251 -0.01416,0.02188 -0.01409,0.02064 -0.01423,0.01932 -0.01292,0.01808 -0.01152,0.01416 -0.0116,0.01292 -0.009,0.01028 -0.009,0.0065 -0.0077,0.0051 -0.0077,0.0026 -0.01292,0.0027 -0.0116,0.0015 -0.01285,0.0011 -0.01292,0 -0.01416,0.0015 -0.01548,0.0027 -0.01932,0.0039 -0.01932,0.0051 -0.02064,0.0065 -0.01932,0.0064 -0.0154,0.0077 -0.01424,0.0078 -0.01676,0.01036 -0.01808,0.01285 -0.01676,0.01416 -0.01672,0.01548 -0.01676,0.018 -0.01548,0.01808 -0.01548,0.02064 -0.0154,0.02188 -0.172719,0.253863 -0.03604,0.0503 -0.03348,0.04898 -0.03224,0.04634 -0.03092,0.04516 -0.01548,0.02188 -0.01416,0.01676 -0.01416,0.01416 -0.01285,0.0116 -0.01423,0.009 -0.0116,0.0051 -0.0064,0.0015 -0.0065,0 -0.0051,0 -0.0065,0 -0.172644,-0.01036 -0.04259,0.0015 -0.04252,0.0039 -0.04252,0.0065 -0.04377,0.0077 -0.04384,0.0116 -0.04509,0.01416 -0.04516,0.01672 -0.04509,0.01932 -0.0232,0.01028 -0.02188,0.01036 -0.02196,0.0116 -0.02056,0.0116 -0.02064,0.01285 -0.01932,0.01292 -0.0194,0.01285 -0.01808,0.01416 -0.01932,0.01423 -0.01676,0.01416 -0.01676,0.01544 -0.01676,0.01548 -0.01683,0.01676 -0.01409,0.01672 -0.01548,0.01676 -0.01416,0.01672 -0.03224,0.04252 -0.03216,0.04002 -0.02975,0.03988 -0.0296,0.03995 -0.02704,0.03743 -0.02708,0.03863 -0.02576,0.03604 -0.02452,0.03604 -0.01932,0.02968 -0.01932,0.0284 -0.01932,0.02836 -0.0194,0.0296 -0.01932,0.02836 -0.018,0.0284 -0.0194,0.02836 -0.01932,0.02704 -0.03604,0.0503 -0.0387,0.04766 -0.03995,0.04898 -0.04252,0.04641 -0.04516,0.04634 -0.04634,0.04641 -0.04898,0.04509 -0.05155,0.04384 -0.05412,0.04384 -0.05544,0.04384 -0.05801,0.04252 -0.05919,0.0412 -0.06322,0.04127 -0.0644,0.0412 -0.06572,0.0387 -0.06962,0.03994 -0.07218,0.0387 -0.06316,0.03224 -0.05412,0.02568 -0.04634,0.0194 -0.02072,0.0064 -0.01669,0.0052 -0.0168,0.0038 -0.01292,0.0026 -0.01152,0.0015 -0.009,-0.0015 -0.0065,-0.0026 -0.0051,-0.0051 0.0015,-0.0027 0.0051,-0.0051 0.0077,-0.0078 0.01284,-0.01028 0.03488,-0.02836 0.05015,-0.03995 0.06448,-0.04898 0.07865,-0.06059 0.09407,-0.07086 0.108241,-0.08122 0.03736,-0.02704 0.0348,-0.02708 0.03488,-0.02576 0.03085,-0.02576 0.03092,-0.02445 0.02836,-0.02452 0.02712,-0.0232 0.02445,-0.0232 0.02452,-0.02188 0.02445,-0.02445 0.02583,-0.02452 0.02445,-0.02704 0.02576,-0.02712 0.02576,-0.02968 0.02568,-0.0296 0.02716,-0.03092 0.02181,-0.02712 0.02975,-0.03863 0.03604,-0.0503 0.04384,-0.06183 0.04898,-0.07351 0.05662,-0.08504 0.06323,-0.09539 0.07079,-0.106919 0.0387,-0.05933 0.0387,-0.05537 0.03736,-0.0528 0.03604,-0.05162 0.03604,-0.04773 0.03488,-0.04634 0.0348,-0.04252 0.03348,-0.04127 0.04509,-0.04898 0.04384,-0.04634 0.04377,-0.04259 0.04252,-0.03995 0.04127,-0.03604 0.03863,-0.03092 0.03612,-0.02708 0.03348,-0.0232 0.03736,-0.02445 0.0374,-0.02188 0.03736,-0.02064 0.03863,-0.01808 0.0374,-0.01672 0.0387,-0.01416 0.03995,-0.01292 0.0387,-0.01028 0.03863,-0.009 0.03736,-0.0077 0.03604,-0.0065 0.03488,-0.0051 0.03472,-0.0051 0.03224,-0.0027 0.03092,-0.0015 0.02968,-0.0011 0.03216,0.0027 0.02576,0.0011 0.02063,0.0015 0.01292,0 0.0064,0 0.0077,-0.0015 0.0065,-0.0011 0.0078,-0.0027 0.01416,-0.0078 0.01409,-0.01036 0.01548,-0.01285 0.01423,-0.01544 0.01548,-0.01808 0.0154,-0.02196 0.02188,-0.03092 0.01932,-0.02836 0.01808,-0.02576 0.01683,-0.02188 0.02961,-0.0387 0.02704,-0.0348 0.02583,-0.03092 0.02445,-0.02704 0.02188,-0.02576 0.02064,-0.02188 0.02196,-0.0194 0.02056,-0.01676 0.02064,-0.01416 0.02064,-0.0116 0.01028,-0.0039 0.01036,-0.0038 0.01028,-0.0027 0.01028,-0.0027 0.03995,-0.0078 0.03743,-0.0065 0.03604,-0.0064 0.03348,-0.0051 0.01548,-0.02196 0.01285,-0.02056 0.0116,-0.02064 0.0116,-0.01808 0.02056,-0.03092 0.01683,-0.0232 0.0077,-0.009 0.0065,-0.0065 0.0052,-0.0038 0.0038,-0.0026 0.0065,0 0.0052,0 0.0038,0.0026 0.0039,0.0038 0.0026,0.0051 0.0027,0.0065 0.0015,0.0078 0,0.01028 0,0.01028 -0.0027,0.01292 -0.0015,0.01416 -0.0038,0.0154 -0.0091,0.03612 -0.01409,0.04252 -0.01036,0.02576 -0.01028,0.02445 -0.0116,0.0232 -0.01285,0.02452 -0.01292,0.02188 z m -10.527853,-7.7455047 -0.06316,0.0078 -0.06448,0.00904 -0.06705,0.0116 -0.06829,0.012843 -0.07086,0.015479 -0.07218,0.016722 -0.07343,0.019321 -0.07476,0.021882 -0.07733,0.025836 -0.07608,0.027041 -0.07857,0.03092 -0.07865,0.033557 -0.07857,0.037286 -0.0799,0.039945 -0.07989,0.045164 -0.0799,0.047658 -0.07997,0.052874 -0.0799,0.055367 -0.07989,0.060584 L 9.935438,7.8707613 9.85811,7.9403763 9.780786,8.0151323 9.704708,8.0950293 9.628702,8.1800633 9.555268,8.2703173 9.48309,8.3657015 9.305234,8.627273 9.1273743,8.8901664 8.9495183,9.1531314 8.7716624,9.4160248 8.592556,9.6789183 8.4147001,9.9418117 8.2368404,10.204705 8.0576625,10.467674 7.879878,10.730564 7.7007001,10.993457 7.5228442,11.2576 7.3437378,11.520566 7.1658819,11.783459 6.986704,12.046353 l -0.177856,0.264215 -0.1777844,0.262894 -1.8636086,0 L 7.3991088,8.611775 7.5241661,8.435241 7.6465795,8.2638478 7.7664245,8.0988422 7.8849474,7.9391206 8.0009733,7.7857187 8.1143554,7.6375293 8.2278089,7.4957274 8.338694,7.3603882 8.4481855,7.2302653 8.5551763,7.1052796 8.6620993,6.9866851 8.7677681,6.8732277 8.8734407,6.7649865 8.9766163,6.6632082 9.0809632,6.5665671 9.1827453,6.4750705 9.2859209,6.388711 9.3876992,6.308814 9.4894775,6.234058 9.5913311,6.163121 9.6931094,6.098718 9.7962097,6.040707 l 0.1018537,-0.05412 0.1043506,-0.04898 0.1031,-0.043767 0.104423,-0.038702 0.105672,-0.033482 0.106995,-0.028359 0.106919,-0.0232 0.109563,-0.019321 0.110885,-0.012918 0.11206,-0.00904 5.238849,0 -1.127726,1.4807948 -3.215448,0 -0.09532,0.00516 -0.106991,0.0078 -0.05802,0.00512 z m 1.152102,3.8340567 0.06183,-0.0077 0.0658,-0.009 0.06697,-0.0116 0.06837,-0.01292 0.07079,-0.01548 0.07218,-0.01676 0.07351,-0.01932 0.07468,-0.02188 0.07608,-0.02576 0.07732,-0.02712 0.07865,-0.03092 0.07857,-0.03348 0.07865,-0.03736 0.0799,-0.04002 0.0799,-0.04501 0.07989,-0.04773 0.0799,-0.0528 0.07997,-0.05544 0.07982,-0.06058 0.07865,-0.06572 0.07733,-0.06961 0.07732,-0.07468 0.07601,-0.07997 0.07608,-0.08503 0.07351,-0.09018 0.07211,-0.095391 0.17786,-0.2628935 0.177856,-0.2616431 0.177856,-0.2628934 0.177784,-0.2629688 0.179178,-0.2628934 0.177856,-0.2628934 0.17786,-0.2628935 0.179102,-0.2628934 0.17786,-0.2628935 0.179102,-0.2628934 0.17786,-0.2642154 0.179178,-0.2628934 0.177856,-0.262965 0.179107,-0.2641438 0.177855,-0.2629649 0.177856,-0.2628935 1.863609,0 -2.631725,3.9616865 -0.124986,0.176534 -0.122414,0.1713927 -0.119845,0.16501 -0.118594,0.159789 -0.115954,0.153406 -0.113454,0.146867 -0.113382,0.143049 -0.110885,0.135339 -0.109492,0.130198 -0.10699,0.124986 -0.10692,0.118595 -0.105748,0.113382 -0.105668,0.108241 -0.104351,0.101778 -0.1031,0.09671 -0.101854,0.0915 -0.103029,0.08636 -0.101853,0.0799 -0.10185,0.07476 -0.101853,0.06954 -0.10303,0.06448 -0.101853,0.05926 -0.103101,0.05412 -0.103028,0.04898 -0.103176,0.04377 -0.104347,0.0387 -0.105672,0.03356 -0.106994,0.02836 -0.106992,0.02312 -0.109491,0.01939 -0.110885,0.01285 -0.11206,0.009 -5.2388496,0 1.1276513,-1.480795 3.2154523,0 0.09539,-0.0051 0.106919,-0.0077 0.05802,-0.0052 z m 5.059671,-0.421364 0.04002,0.01284 0.03863,0.01548 0.03736,0.01676 0.03604,0.0194 0.03488,0.02056 0.03465,0.02196 0.03356,0.0232 0.03224,0.02576 0.03092,0.02576 0.02843,0.02828 0.02828,0.02968 0.02708,0.031 0.02445,0.03092 0.02452,0.03348 0.02188,0.0348 0.0194,0.0348 0.01932,0.03736 0.01676,0.03732 0.01548,0.03744 0.01284,0.03988 0.0116,0.04002 0.009,0.0412 0.0078,0.04127 0.0051,0.04252 0.0039,0.04252 0.0011,0.04384 -0.0011,0.04252 -0.0039,0.04252 -0.0051,0.04252 -0.0078,0.04252 -0.009,0.03995 -0.0116,0.03995 -0.01284,0.04002 -0.01548,0.03863 -0.01676,0.03736 -0.01932,0.03612 -0.0194,0.03472 -0.02188,0.0348 -0.02452,0.03348 -0.02445,0.03224 -0.02708,0.02968 -0.02828,0.02968 -0.02843,0.02836 -0.03092,0.02704 -0.03224,0.02445 -0.03356,0.0232 -0.03465,0.02196 -0.03488,0.02056 -0.03604,0.01939 -0.03736,0.01676 -0.03863,0.01548 -0.04002,0.01285 -0.03995,0.0116 -0.03995,0.009 -0.04252,0.0077 -0.04127,0.0051 -0.04377,0.0039 -0.04252,0.0015 -0.04384,-0.0015 -0.04252,-0.0039 -0.04252,-0.0051 -0.04127,-0.0077 -0.0412,-0.009 -0.03995,-0.0116 -0.03994,-0.01285 -0.0374,-0.01548 -0.03743,-0.01676 -0.03736,-0.01939 -0.03472,-0.02056 -0.0348,-0.02196 -0.03224,-0.0232 -0.03224,-0.02445 -0.03092,-0.02704 -0.02968,-0.02836 -0.02836,-0.02968 -0.02568,-0.02968 -0.02583,-0.03224 -0.02312,-0.03348 -0.02196,-0.0348 -0.02056,-0.03472 -0.01939,-0.03612 -0.01683,-0.03736 -0.01409,-0.03863 -0.01416,-0.04002 -0.01167,-0.03995 -0.009,-0.03995 -0.0077,-0.04252 -0.0051,-0.04252 -0.0039,-0.04252 0,-0.04252 0,-0.04384 0.0039,-0.04252 0.0051,-0.04252 0.0077,-0.04127 0.009,-0.0412 0.01167,-0.04002 0.01416,-0.03988 0.01409,-0.03744 0.01683,-0.03732 0.01939,-0.03736 0.02056,-0.0348 0.02196,-0.0348 0.02312,-0.03348 0.02583,-0.03092 0.02568,-0.031 0.02836,-0.02968 0.02968,-0.02828 0.03092,-0.02576 0.03224,-0.02576 0.03224,-0.0232 0.0348,-0.02196 0.03472,-0.02056 0.03736,-0.0194 0.03743,-0.01676 0.0374,-0.01548 0.03994,-0.01284 0.03995,-0.0116 0.0412,-0.009 0.04127,-0.0077 0.04252,-0.0051 0.04252,-0.0039 0.04384,-0.0011 0.04252,0.0011 0.04377,0.0039 0.04127,0.0051 0.04252,0.0077 0.03995,0.009 z m -5.385717,-2.3030325 0.03863,0.012918 0.0387,0.01548 0.03736,0.016685 0.0374,0.019396 0.0348,0.020639 0.0348,0.021882 0.03216,0.0232 0.03232,0.025761 0.03085,0.025723 0.02968,0.028435 0.02836,0.029602 0.02576,0.03092 0.02576,0.030996 0.0232,0.033481 0.02188,0.0348 0.02064,0.0348 0.01808,0.037286 0.018,0.037436 0.01423,0.037286 0.01409,0.040023 0.0116,0.039949 0.009,0.041195 0.0078,0.04127 0.0051,0.042517 0.0039,0.042592 0,0.043768 0,0.042517 -0.0039,0.042521 -0.0051,0.042592 -0.0078,0.041195 -0.009,0.04127 -0.0116,0.039948 -0.01409,0.039949 -0.01423,0.038626 -0.018,0.037361 -0.01808,0.036043 -0.02064,0.0348 -0.02188,0.034875 -0.0232,0.033481 -0.02576,0.03092 -0.02576,0.03092 -0.02836,0.029678 -0.02968,0.028284 -0.03085,0.027117 -0.03232,0.024518 -0.03216,0.0232 -0.0348,0.021882 -0.0348,0.020639 -0.0374,0.019321 -0.03736,0.016722 -0.0387,0.01548 -0.03863,0.012843 -0.03995,0.0116 -0.0412,0.00904 -0.04127,0.00772 -0.04259,0.0052 -0.04252,0.0038 -0.04377,0.00151 -0.04252,-0.00151 -0.04384,-0.0038 -0.04127,-0.0052 -0.04252,-0.00772 -0.03995,-0.00904 -0.04127,-0.0116 -0.03863,-0.012843 -0.03863,-0.01548 -0.03744,-0.016722 -0.03604,-0.019321 -0.03604,-0.020639 -0.03356,-0.021882 -0.03348,-0.0232 -0.03224,-0.024518 -0.03092,-0.027117 -0.02836,-0.028284 -0.02836,-0.029678 -0.02708,-0.03092 -0.02445,-0.03092 -0.02452,-0.033481 -0.02188,-0.034875 -0.02064,-0.0348 -0.018,-0.036043 -0.01676,-0.037361 -0.01548,-0.038626 -0.01292,-0.039949 -0.01152,-0.039948 -0.01036,-0.04127 -0.0065,-0.041195 -0.0051,-0.042592 -0.0038,-0.042521 -0.0015,-0.042517 0.0015,-0.043768 0.0038,-0.042592 0.0051,-0.042517 0.0065,-0.04127 0.01036,-0.041195 0.01152,-0.039949 0.01292,-0.040023 0.01548,-0.037286 0.01676,-0.037436 0.018,-0.037286 0.02064,-0.0348 0.02188,-0.0348 0.02452,-0.033481 0.02445,-0.030996 0.02708,-0.03092 0.02836,-0.029602 0.02836,-0.028435 0.03092,-0.025723 0.03224,-0.025761 0.03348,-0.0232 0.03356,-0.021882 0.03604,-0.020639 0.03604,-0.019396 0.03744,-0.016685 0.03863,-0.01548 0.03863,-0.012918 0.04127,-0.0116 0.03995,-0.00896 0.04252,-0.0078 0.04127,-0.00512 0.04384,-0.00388 0.04252,-0.00151 0.04377,0.00151 0.04252,0.00388 0.04259,0.00512 0.04127,0.0078 0.0412,0.00896 z m -5.2375273,-2.3030359 0.038626,0.012918 0.038702,0.015404 0.037361,0.016798 0.036118,0.019245 0.036043,0.020714 0.033482,0.021882 0.033482,0.0232 0.032239,0.025761 0.03092,0.025761 0.029678,0.028359 0.027041,0.029678 0.027079,0.03092 0.024443,0.03092 0.024518,0.033481 0.021882,0.0348 0.020639,0.0348 0.018078,0.037361 0.016722,0.037361 0.015442,0.037361 0.014161,0.039948 0.010357,0.039949 0.010282,0.041199 0.0078,0.041267 0.00512,0.042521 0.00264,0.042517 0.00113,0.043839 -0.00113,0.042521 -0.00264,0.042517 -0.00512,0.042521 -0.0078,0.041266 -0.010282,0.04127 -0.010357,0.039949 -0.014161,0.039949 -0.015442,0.038626 -0.016722,0.037399 -0.018078,0.036118 -0.020639,0.0348 -0.021882,0.034725 -0.024518,0.033557 -0.024443,0.03092 -0.027079,0.03092 -0.027041,0.029602 -0.029678,0.028435 -0.03092,0.027041 -0.032239,0.024518 -0.033482,0.0232 -0.033482,0.021882 -0.036043,0.020639 -0.036118,0.019321 -0.037361,0.01676 -0.038702,0.01548 -0.038626,0.012843 -0.04002,0.0116 -0.041199,0.00904 -0.041266,0.00772 -0.042521,0.0052 -0.042517,0.00388 -0.043843,0.00113 -0.043764,-0.00113 -0.042521,-0.00388 -0.042517,-0.0052 -0.04127,-0.00772 -0.041195,-0.00904 -0.040024,-0.0116 -0.038626,-0.012843 -0.038698,-0.01548 -0.037324,-0.01676 -0.036118,-0.019321 -0.036043,-0.020639 -0.033557,-0.021882 -0.033482,-0.0232 -0.032239,-0.024518 -0.03092,-0.027041 -0.029678,-0.028435 -0.027041,-0.029602 -0.027079,-0.03092 -0.024443,-0.03092 -0.024518,-0.033557 -0.021882,-0.034725 -0.020639,-0.0348 -0.018078,-0.036118 -0.01676,-0.037399 -0.015404,-0.038626 -0.014161,-0.039949 -0.010357,-0.039949 -0.010282,-0.04127 -0.00772,-0.041266 -0.0052,-0.042521 -0.00264,-0.042517 -0.00113,-0.042521 0.00113,-0.043839 0.00264,-0.042517 0.0052,-0.042521 0.00772,-0.041267 0.010282,-0.041199 0.010357,-0.039949 0.014161,-0.039948 0.015404,-0.037361 0.01676,-0.037361 0.018078,-0.037361 0.020639,-0.0348 0.021882,-0.0348 0.024518,-0.033481 0.024443,-0.03092 0.027079,-0.03092 0.027041,-0.029678 0.029678,-0.028359 0.03092,-0.025761 0.032239,-0.025761 0.033482,-0.0232 0.033557,-0.021882 0.036043,-0.020714 0.036118,-0.019245 0.037324,-0.016798 0.038698,-0.015404 0.038626,-0.012918 0.040024,-0.0116 0.041195,-0.00904 0.04127,-0.00772 0.042517,-0.00516 0.042521,-0.00388 0.043764,-0.00113 0.043843,0.00113 0.042517,0.00388 0.042521,0.00516 0.041266,0.00772 0.041199,0.00904 z m -5.3354867,6.5701324 1.8622828,0 2.8520262,-4.2078351 -1.8622824,0 z m 15.905932,-2.6741701 1.862283,0 2.851955,-4.2078354 -1.862211,0 z"
     inkscape:connector-curvature="0" /></svg>