<?xml version="1.0" encoding="utf-8"?>
<!-- Generator: Adobe Illustrator 15.1.0, SVG Export Plug-In . SVG Version: 6.00 Build 0)  -->
<!DOCTYPE svg PUBLIC "-//W3C//DTD SVG 1.1//EN" "http://www.w3.org/Graphics/SVG/1.1/DTD/svg11.dtd">
<svg version="1.1" id="Layer_1" xmlns="http://www.w3.org/2000/svg" xmlns:xlink="http://www.w3.org/1999/xlink" x="0px" y="0px"
	 width="24px" height="24px" viewBox="0 0 24 24" enable-background="new 0 0 24 24" xml:space="preserve">
<path d="M5.906,2.647c2.958,0.151,5.879-0.202,8.69,0c1.913,0.137,3.679,1.016,4.856,2.129c1.173,1.108,2.119,2.835,2.259,4.729
	c0.203,2.753-0.15,5.785,0,8.903c-0.967,0-1.932,0-2.896,0c-0.248-2.928,0.185-6.047-0.043-8.646
	c-0.14-1.584-1.375-3.119-2.684-3.749c-1.246-0.6-3.005-0.469-4.899-0.469c-1.811,0-3.71,0-5.325,0c0-0.923,0-1.846,0-2.769
	C5.86,2.714,5.856,2.654,5.906,2.647z M2.839,5.714c0.028,5.197-0.057,10.508,0.043,15.634c5.268,0,10.536,0,15.804,0
	c-0.027-0.967,0.057-2.044-0.042-2.94c-4.287,0-8.577,0-12.865,0c0-4.272,0-8.548,0-12.822c-0.966,0-1.931,0-2.896,0
	C2.832,5.594,2.836,5.654,2.839,5.714z M8.505,12.445c0.077,3.189,4.146,4.311,5.964,2.087c0.448-0.548,0.789-1.321,0.768-2.258
	c-0.022-0.895-0.63-1.969-1.023-2.342c-0.62-0.59-1.688-1.031-2.854-0.852C9.807,9.317,8.459,10.554,8.505,12.445z"/>
</svg>
