<?xml version="1.0" encoding="utf-8"?>
<!-- Generator: Adobe Illustrator 15.1.0, SVG Export Plug-In . SVG Version: 6.00 Build 0)  -->
<!DOCTYPE svg PUBLIC "-//W3C//DTD SVG 1.1//EN" "http://www.w3.org/Graphics/SVG/1.1/DTD/svg11.dtd">
<svg version="1.1" id="Layer_1" xmlns="http://www.w3.org/2000/svg" xmlns:xlink="http://www.w3.org/1999/xlink" x="0px" y="0px"
	 width="24px" height="24px" viewBox="0 0 24 24" enable-background="new 0 0 24 24" xml:space="preserve">
<path d="M22.121,10.043c-2.162-0.07-3.867,0.315-5.369,0.903c0.213-1.083,0.225-3.01-0.271-3.926
	c-2.682-0.364-4.91,0.421-6.182,1.759C8.838,7.472,6.415,6.856,3.62,7.156c-1.095,2.169-0.382,5.179,0.722,6.678
	c1.193,1.619,3.182,2.646,5.416,3.068c0.174-0.367,0.276-0.807,0.316-1.309c-3.175-0.838-6.203-2.682-5.37-7.04
	c5.209-0.265,7.021,3.314,6.498,8.485c-0.038,0.217,0.261,0.1,0.271,0.27c-0.502,1.363-0.715,3.016-0.903,4.693
	c-2.504-0.238-4.369-1.531-5.866-3.068c-1.496-1.535-2.59-3.658-2.798-6.229c-0.034-0.427-0.038-0.937,0-1.398
	c0.339-4.072,2.762-6.988,5.776-8.483c1.793-0.889,4.629-1.339,7.04-0.722C18.494,3.068,21.268,6.143,22.121,10.043z M11.337,9.908
	c0.522,0.968,1.173,2.197,1.265,3.747c1.934-0.715,3.092-2.523,2.752-5.235C13.76,8.331,12.056,8.832,11.337,9.908z M21.174,11.533
	c-6.141-0.044-8.746,4.79-9.07,10.649c0.487,0.008,0.936-0.027,1.355-0.09c0.105-0.176-0.105-0.496,0-0.676
	c4.861-1.125,7.971-4.002,8.166-9.793C21.453,11.542,21.328,11.535,21.174,11.533z"/>
</svg>
