<?xml version="1.0" encoding="utf-8"?>
<!-- Generator: Adobe Illustrator 15.1.0, SVG Export Plug-In . SVG Version: 6.00 Build 0)  -->
<!DOCTYPE svg PUBLIC "-//W3C//DTD SVG 1.1//EN" "http://www.w3.org/Graphics/SVG/1.1/DTD/svg11.dtd">
<svg version="1.1" id="Layer_1" xmlns="http://www.w3.org/2000/svg" xmlns:xlink="http://www.w3.org/1999/xlink" x="0px" y="0px"
	 width="24px" height="24px" viewBox="0 0 24 24" enable-background="new 0 0 24 24" xml:space="preserve">
<path d="M7.642,3.789c-1.47,1.614-3.125,3.044-4.581,4.673c-0.117,1.316,0.002,3.907,0,5.737c-0.001,0.545-0.107,1.08,0,1.389
	c0.134,0.383,0.736,0.781,1.11,1.156c0.434,0.434,0.799,0.844,1.111,1.156c0.782,0.781,1.615,1.471,2.175,2.268
	c-1.009-0.158-1.859,0.213-2.684,0c-0.266-0.068-0.724-0.629-0.972-0.879c-0.92-0.938-1.921-1.896-2.776-2.777
	c0-2.961,0-5.922,0-8.883c1.218-1.341,2.523-2.596,3.84-3.84C5.611,3.787,6.892,3.796,7.642,3.789z M20.272,10.59
	c0-0.558,0.121-1.226,0-1.666c-0.118-0.43-0.934-0.976-1.248-1.295c-0.986-0.996-1.56-1.604-2.546-2.59
	c-0.378-0.378-1-1.145-1.342-1.25c-0.325-0.099-0.959,0-1.435,0c-1.532,0-3.457-0.114-4.765,0.046
	C8.534,3.884,7.974,4.659,7.595,5.038c-1.009,1.01-1.668,1.669-2.59,2.59c-0.333,0.333-1.156,0.957-1.25,1.342
	c-0.106,0.438,0,1.097,0,1.619c0,1.13,0,2.154,0,3.24c0,0.471-0.118,1.186,0,1.617c0.094,0.344,0.805,0.854,1.157,1.203
	c0.882,0.881,1.472,1.471,2.359,2.359c0.374,0.375,0.836,1.057,1.25,1.158c1.465,0.352,1.817-0.432,2.359-0.973
	c0.38-0.379,0.709-0.641,0.973-1.063c-0.982-0.166-1.732,0.221-2.545,0c-0.25-0.07-0.66-0.568-0.926-0.834
	c-0.678-0.678-1.106-1.107-1.758-1.758c-0.247-0.248-0.772-0.723-0.833-0.973c-0.149-0.613,0-1.625,0-2.406
	c0-0.71-0.161-1.822,0-2.405C5.866,9.483,6.436,9.02,6.716,8.74c0.781-0.781,1.207-1.207,1.989-1.99
	C8.992,6.463,9.534,5.882,9.77,5.824c0.684-0.166,1.522,0,2.267,0c0.829,0,1.674-0.163,2.268,0c0.257,0.072,0.691,0.599,1.017,0.926
	c0.729,0.728,1.254,1.298,1.942,1.99c0.257,0.256,0.88,0.666,0.974,1.018c0.185,0.698,0,1.685,0,2.452c0,0.843,0,1.626,0,2.453
	c-0.807,0.828-1.715,1.76-2.591,2.637c-0.244,0.242-0.686,0.768-0.926,0.834c-0.781,0.209-1.7-0.193-2.592,0.045
	c0.344,0.26,0.605,0.633,0.973,1.018c0.208,0.221,0.805,0.898,1.063,0.973c0.426,0.119,0.878-0.088,1.481,0
	c1.521-1.563,3.072-3.098,4.626-4.627C20.272,13.9,20.272,12.212,20.272,10.59z M16.385,3.927c1.004,1.092,2.271,2.27,3.425,3.424
	c0.387,0.386,1.018,0.821,1.11,1.204c0.119,0.49,0,1.191,0,1.758c0,1.818,0,3.541,0,5.32c-1.245,1.318-2.727,2.701-3.979,3.98
	c-0.181,0.184-0.488,0.396-0.416,0.555c0.911,0,1.821,0,2.729,0c0.868-0.826,1.854-1.84,2.776-2.777
	c0.34-0.344,0.794-0.621,0.879-0.971c0.144-0.592,0-1.459,0-2.174c0-1.635,0-2.798,0-4.396c0-0.725,0.148-1.677,0-2.221
	c-0.13-0.476-1.573-1.62-1.897-1.943c-0.459-0.46-1.414-1.749-1.987-1.896c-0.521-0.134-2.149,0.104-2.685,0
	C16.327,3.861,16.357,3.896,16.385,3.927z M11.99,6.842c-1.862,1.854-3.767,3.667-5.552,5.599c1.604,1.543,3.267,3.266,4.858,4.858
	c0.159,0.158,0.646,0.697,0.74,0.693c0.058-0.002,0.557-0.559,0.693-0.693c0.76-0.744,1.432-1.393,2.13-2.082
	c1.002-0.994,1.859-1.879,2.728-2.869C15.688,10.547,13.93,8.604,11.99,6.842z"/>
</svg>
