<?xml version="1.0" encoding="utf-8"?>
<!-- Generator: Adobe Illustrator 15.1.0, SVG Export Plug-In . SVG Version: 6.00 Build 0)  -->
<!DOCTYPE svg PUBLIC "-//W3C//DTD SVG 1.1//EN" "http://www.w3.org/Graphics/SVG/1.1/DTD/svg11.dtd">
<svg version="1.1" id="Layer_1" xmlns="http://www.w3.org/2000/svg" xmlns:xlink="http://www.w3.org/1999/xlink" x="0px" y="0px"
	 width="24px" height="24px" viewBox="0 0 24 24" enable-background="new 0 0 24 24" xml:space="preserve">
<path d="M17.271,6.628c-3.345,0.047-7.258,0.083-10.798,0C7.014,5.6,8.061,4.872,8.916,3.993c0.919-0.944,1.864-1.84,2.7-2.828
	c0.492,0.052,1.146,0.802,1.607,1.286C14.516,3.808,16.186,5.339,17.271,6.628z M17.465,17.813c0.371-0.022,0.492-0.423,0.707-0.643
	c1.164-1.188,2.31-2.202,3.471-3.406c0.268-0.277,1.309-1.085,1.285-1.479c-0.006-0.099-0.287-0.432-0.578-0.707
	c-0.803-0.761-1.393-1.311-2.057-1.993c-1.152-1.185-1.895-2.065-2.828-2.7C17.459,10.459,17.469,14.09,17.465,17.813z
	 M0.688,12.414c1.206,1.151,2.265,2.448,3.6,3.471c0.192,0.397,0.532,0.729,0.835,1.028c0.299,0.296,0.587,0.7,1.028,0.836
	c0.026-3.392,0.124-7.697-0.064-10.799c-0.043,0-0.086,0-0.129,0C4.252,8.821,2.259,10.406,0.688,12.414z M11.166,6.95
	c-3.101,0.384-5.87,3.979-4.307,7.585c0.235,0.542,0.618,1.109,1.157,1.479c0.345-0.191,0.658-0.414,0.771-0.836
	c-0.641-0.897-1.231-1.722-1.286-3.085c-0.118-2.959,2.139-4.677,4.756-5.078C11.927,6.96,11.571,6.93,11.166,6.95z M13.029,17.62
	c1.596-0.238,3.508-2.062,3.922-3.856c0.478-2.072-0.135-3.952-1.414-5.078c-0.316,0.242-0.627,0.487-0.836,0.835
	c0.703,0.843,1.301,1.76,1.35,3.085c0.098,2.659-1.801,4.407-3.921,4.949C12.431,17.596,12.684,17.672,13.029,17.62z M8.402,11.642
	c-0.147,1.031,0.252,2.968,0.9,3.021c0.22,0.019,0.579-0.28,0.579-0.578c0-0.248-0.371-0.489-0.45-0.644
	c-0.466-0.899-0.319-1.976-0.064-2.828c0.438-0.441,0.82-0.937,1.35-1.286c0.231,0.018,0.444,0.016,0.386-0.257
	C9.87,9.114,8.599,10.265,8.402,11.642z M14.315,11.707c0.469,2.143-0.7,3.522-2.314,3.985c2.755,0.382,4.334-3.987,2.185-5.656
	C13.273,10.391,13.986,11.191,14.315,11.707z M6.474,17.941c-0.092,0.307,0.279,0.604,0.45,0.771
	c1.173,1.154,2.226,2.254,3.407,3.406c0.265,0.259,1.116,1.286,1.479,1.286c0.357,0,1.248-0.986,1.479-1.222
	c1.452-1.488,2.788-2.807,4.049-4.242C13.627,17.936,9.972,17.934,6.474,17.941z"/>
</svg>
