<?xml version="1.0" encoding="utf-8"?>
<!-- Generator: Adobe Illustrator 15.1.0, SVG Export Plug-In . SVG Version: 6.00 Build 0)  -->
<!DOCTYPE svg PUBLIC "-//W3C//DTD SVG 1.1//EN" "http://www.w3.org/Graphics/SVG/1.1/DTD/svg11.dtd">
<svg version="1.1" id="Layer_1" xmlns="http://www.w3.org/2000/svg" xmlns:xlink="http://www.w3.org/1999/xlink" x="0px" y="0px"
	 width="24px" height="24px" viewBox="0 0 24 24" enable-background="new 0 0 24 24" xml:space="preserve">
<path d="M5.416,2.234c1.93-0.171,4.177-0.042,6.431-0.042c1.035,0,2.128,0,3.216,0c1.082,0,2.23-0.124,3.051,0.124
	c0.852,0.256,1.529,0.97,1.814,1.731c0.33,0.883,0.206,2.518,0.206,3.958c0,2.843,0,5.263,0,8.246c0,1.282,0.159,2.969-0.124,3.917
	c-0.24,0.804-1.006,1.56-1.855,1.813c-0.718,0.215-2.152,0.083-3.256,0.083c-2.248,0-4.365,0-6.68,0
	c-1.095,0-2.385,0.14-3.257-0.083c-0.91-0.231-1.682-0.967-1.979-1.855c-0.325-0.971-0.165-2.491-0.165-3.957
	c0-2.891,0-5.231,0-8.164c0-1.142-0.19-2.997,0.124-3.958C3.282,3.009,4.299,2.333,5.416,2.234z M3.354,5.12
	c-0.256,2.496,0.195,6.51,0,8.823c0.508-0.691,1.246-1.193,1.608-2.021c0.628-1.435-0.03-3.572,0.206-5.442
	C5.417,4.512,7.492,4.079,8.384,2.77C5.719,2.537,3.576,2.953,3.354,5.12z M10.363,3.677c0.23-0.333,0.619-0.508,0.783-0.907
	c-0.577,0.028-1.264-0.055-1.772,0.042C9.671,3.132,9.986,3.436,10.363,3.677z M13.207,3.842c-0.432,0.516-0.82,1.076-1.401,1.443
	c-0.526-0.339-0.92-0.811-1.484-1.113C9.876,4.318,9.384,5.39,8.878,5.368c-0.483-0.022-0.889-1.039-1.36-1.072
	c-1.381,0.914-0.632,3.958-0.825,6.061c0.789-0.085,1.74-0.048,2.268,0.248c1.169,0.656,1.072,2.336,0.454,3.381
	c-0.089,0.15-0.269,0.279-0.248,0.453c1.34-0.749,2.48-1.697,2.721-3.545c-0.903-0.175-1.586-0.05-2.061-0.536
	c-1.107-1.131,0.467-3.875,1.566-3.917c0.707-0.027,1.132,0.524,1.36,0.825c1.373,1.793,0.536,5.179-0.66,6.514
	c-0.188,0.21-0.558,0.358-0.66,0.659c-0.102,0.304-0.06,0.824-0.082,1.278c-0.073,1.468-0.109,3.171,1.071,3.38
	c0.904-1.77,1.976-4.535,4.164-4.988c1.172-0.242,2.284,0.266,3.051,0.619c0-2.431,0-5.16,0-7.586c0-0.859,0.083-1.771-0.082-2.474
	c-0.228-0.969-1.18-1.795-2.268-1.896c-1.435-0.133-3.431,0.099-5.071,0C12.443,3.232,12.988,3.374,13.207,3.842z M7.395,13.902
	c0.256-0.207,0.936-0.62,0.907-0.949c-0.035-0.399-0.825-0.53-1.319-0.495c-1.046,0.077-1.686,0.881-2.309,1.567
	c-0.445,0.49-0.861,1.035-1.072,1.608C5.24,15.453,6.347,14.747,7.395,13.902z M3.354,17.941c-0.125,1.49,0.222,2.484,0.948,3.052
	c1.344,1.049,4.137,0.312,6.432,0.536c-0.113-0.263-0.355-0.439-0.495-0.742c-0.611-1.331-0.234-3.664-0.207-5.112
	c-0.002-0.025-0.006-0.05-0.041-0.041C8.327,16.951,6.058,17.664,3.354,17.941z M15.764,16.211
	c-1.053,0.453-1.988,2.113-2.268,2.885c2.021-0.151,3.395-1.303,4.329-2.68C17.305,16.127,16.355,15.955,15.764,16.211z
	 M14.856,21.488c1.81,0.157,3.295,0.092,4.123-0.867c0.795-0.919,0.715-2.529,0.618-4.246c-0.002-0.024-0.006-0.049-0.041-0.041
	C18.498,18.561,16.98,20.326,14.856,21.488z M17.248,6.439c0.383,0.219,0.531,1.458,0.041,1.69c0.424,0.161,0.472,0.877,0.041,1.072
	c-0.051,0.182,0.191,0.208,0.248,0.413c0.156,0.566-0.127,1.1-0.578,1.195c0.045,0.134,0.202,0.156,0.289,0.248
	c0.012,0.41-0.016,0.781-0.206,0.989c-0.792,0.064-0.919-0.538-1.196-0.989c-0.273,0.186-0.475-0.07-0.576-0.289
	c0.551-0.122,1.21-0.136,1.607-0.413c0.057-0.246,0.094-0.762-0.041-0.948c-0.637,0.041-1-0.297-0.865-0.824
	c0.104-0.412,0.727-0.409,0.947-0.701c0.076-0.777-0.047-1.355-0.701-1.402c0.119-0.218,0.297-0.096,0.454-0.207
	c0.371-0.258,0.274-0.848,0.165-1.319c-0.346-0.043-0.389,0.217-0.619,0.289c-0.137-0.124-0.313-0.208-0.453-0.33
	c0.643-0.623,2.155-0.298,1.773,1.072C17.478,6.147,17.377,6.307,17.248,6.439z M16.3,8.831c0.302,0.186,0.91,0.056,0.866-0.371
	C16.848,8.259,16.3,8.449,16.3,8.831z M16.258,10.975c0.061,0.284,0.166,0.522,0.371,0.66c0.135-0.12,0.2-0.68,0.083-0.783
	C16.58,10.912,16.445,10.969,16.258,10.975z M18.154,5.079c0.058,0.122,0.191,0.167,0.248,0.289c0.406-0.135,0.406-0.484,0-0.619
	C18.35,4.889,18.174,4.905,18.154,5.079z M18.154,6.274c0.122,0.057,0.168,0.19,0.289,0.248c0.053-0.14,0.229-0.156,0.248-0.33
	c-0.122-0.057-0.168-0.191-0.289-0.248C18.35,6.085,18.174,6.101,18.154,6.274z M18.154,6.934c0.041,0.166,0.181,0.232,0.289,0.33
	c0.053-0.14,0.229-0.156,0.248-0.33c-0.141-0.052-0.156-0.229-0.33-0.247C18.318,6.795,18.23,6.858,18.154,6.934z"/>
</svg>
