<?xml version="1.0" encoding="utf-8"?>
<!-- Generator: Adobe Illustrator 15.1.0, SVG Export Plug-In . SVG Version: 6.00 Build 0)  -->
<!DOCTYPE svg PUBLIC "-//W3C//DTD SVG 1.1//EN" "http://www.w3.org/Graphics/SVG/1.1/DTD/svg11.dtd">
<svg version="1.1" id="Layer_1" xmlns="http://www.w3.org/2000/svg" xmlns:xlink="http://www.w3.org/1999/xlink" x="0px" y="0px"
	 width="24px" height="24px" viewBox="0 0 24 24" enable-background="new 0 0 24 24" xml:space="preserve">
<path d="M2.251,2.664c5.841,0.1,13.592,0.016,19.676,0.043c-0.028,3.068,0.059,6.253-0.043,9.25c-0.641,0-1.28,0-1.92,0
	C19.832,9.542,18.856,7.88,17.39,6.59c-1.489-1.31-3.33-2.206-6.107-2.006c-4.118,0.294-6.9,3.373-7.243,7.373
	c-0.629-0.025-1.362,0.053-1.919-0.044c-0.073-2.952-0.073-6.209,0-9.162C2.152,2.71,2.199,2.685,2.251,2.664z M11.326,6.328
	c-1.128-0.035-2.054,0.321-1.658,1.396c0.217,0.591,0.884,1.446,1.091,1.876c0.374-0.12,0.813-0.176,1.178-0.306
	C11.895,8.313,12.147,6.674,11.326,6.328z M14.511,7.725c0.067-0.185,0.095-0.414,0.087-0.567C14.557,6.378,12.9,6.029,12.46,6.634
	c-0.41,0.564-0.147,1.829-0.262,2.617c0.322,0.186,0.8,0.219,1.178,0.35C13.649,9.115,14.287,8.331,14.511,7.725z M9.144,7.681
	c-0.69-0.541-1.877,0.241-1.92,0.917c-0.04,0.636,0.704,0.945,1.178,1.221c0.442,0.257,0.842,0.557,1.222,0.698
	c0.316-0.266,0.665-0.499,0.873-0.873C10.072,9.202,9.721,8.133,9.144,7.681z M14.511,10.517c0.222,0.022,0.719-0.308,1.003-0.479
	c0.331-0.201,0.731-0.425,0.916-0.567c0.711-0.548,0.374-1.399-0.217-1.789c-1.276-0.841-2.044,1.349-2.575,2.051
	C13.995,9.914,14.117,10.476,14.511,10.517z M6.701,9.644c-0.531,0.157-0.866,1.239-0.523,1.876
	c0.675,0.412,2.175,0.379,3.054,0.306c0.02-0.416,0.178-0.694,0.262-1.047C8.898,10.52,7.56,9.39,6.701,9.644z M18.044,11.389
	c0.274-0.626-0.149-1.496-0.567-1.658c-0.662-0.257-1.289,0.233-1.788,0.48c-0.436,0.215-0.928,0.369-1.048,0.654
	c0.11,0.312,0.203,0.641,0.263,1.004C15.903,11.818,17.708,12.156,18.044,11.389z M10.497,13.701
	c1.293,1.066,3.597,0.371,3.883-1.222c0.409-2.29-2.128-3.279-3.84-2.224C9.463,11.104,9.504,12.885,10.497,13.701z M10.453,11.607
	c0.272-1.102,1.976-1.5,2.792-0.698c1.315,1.295-0.462,3.289-2.051,2.445C10.752,13.117,10.355,12.525,10.453,11.607z
	 M10.977,12.828c0.524,0.613,1.746,0.604,2.225-0.086c0.546-0.789-0.033-1.785-0.785-2.007
	C10.936,10.496,10.247,11.976,10.977,12.828z M2.077,12.218c0.029,3.024-0.059,6.165,0.043,9.118c6.588,0,13.176,0,19.764,0
	c0.102-2.98,0.015-6.15,0.043-9.206c-0.583-0.1-1.351-0.016-2.006-0.043c-0.03,2.444,0.058,5.002-0.045,7.374
	c-5.235-0.029-10.586,0.057-15.749-0.045c-0.102-2.418,0.014-5.01-0.044-7.329c-0.64,0-1.279,0-1.919,0
	C2.109,12.105,2.074,12.143,2.077,12.218z M6.046,12.611c-0.098,1.02,0.215,1.893,1.222,1.701C8,14.172,9.106,13.408,9.493,13.178
	c-0.154-0.297-0.196-0.705-0.306-1.047C8.039,12.11,6.654,11.955,6.046,12.611z M18.044,12.697
	c-0.346-0.817-1.979-0.393-3.011-0.567c-0.051,0.021-0.099,0.047-0.13,0.088c-0.065,0.372-0.223,0.651-0.263,1.047
	c0.879,0.408,1.701,1.264,2.923,1.047C17.88,13.941,18.275,13.246,18.044,12.697z M9.493,13.484
	c-0.647,0.412-2.182,1.018-2.269,1.701c-0.076,0.594,0.649,1.375,1.309,1.352c0.923-0.033,1.511-1.742,1.919-2.27
	C10.265,14.176,9.727,13.334,9.493,13.484z M13.638,14.313c-0.031,0.244,0.434,0.773,0.61,1.047
	c0.207,0.318,0.508,0.801,0.698,0.959c0.926,0.77,2.463-0.701,1.658-1.57c-0.386-0.416-1.703-0.967-2.138-1.264
	C14.288,13.828,13.686,13.949,13.638,14.313z M10.846,14.443c-0.018-0.074-0.057,0.01-0.131,0c-0.44,0.811-1.126,1.375-1.178,2.574
	c0.288,0.523,1.465,0.965,2.007,0.479c0.584-0.521,0.253-1.9,0.349-2.791C11.563,14.598,11.174,14.551,10.846,14.443z
	 M12.591,17.584c0.479,0.316,1.481,0.08,1.789-0.35c0.434-0.604-0.146-1.268-0.437-1.787c-0.227-0.406-0.37-0.953-0.698-1.004
	c-0.353-0.055-0.671,0.287-1.047,0.262C12.235,15.629,11.93,17.148,12.591,17.584z"/>
</svg>
