<?xml version="1.0" encoding="utf-8"?>
<!-- Generator: Adobe Illustrator 15.1.0, SVG Export Plug-In . SVG Version: 6.00 Build 0)  -->
<!DOCTYPE svg PUBLIC "-//W3C//DTD SVG 1.1//EN" "http://www.w3.org/Graphics/SVG/1.1/DTD/svg11.dtd">
<svg version="1.1" id="Layer_1" xmlns="http://www.w3.org/2000/svg" xmlns:xlink="http://www.w3.org/1999/xlink" x="0px" y="0px"
	 width="24px" height="24px" viewBox="0 0 24 24" enable-background="new 0 0 24 24" xml:space="preserve">
<path d="M11.101,1.187c3.359-0.199,5.811,0.975,7.709,2.604c2.171,1.86,3.968,5.022,3.595,9.117
	c-0.243,2.672-1.558,4.841-3.177,6.408c-1.63,1.576-3.791,2.812-6.513,3.021c-3.253,0.25-6.051-0.928-7.97-2.709
	c-1.925-1.787-3.24-3.936-3.542-7.138C0.908,9.367,2.324,6.341,3.86,4.676C4.65,3.821,5.626,2.97,6.829,2.333
	C7.978,1.723,9.577,1.276,11.101,1.187z M8.027,2.645C5.476,3.728,3.634,5.646,2.662,8.167c-1.696,4.396,0.076,8.507,2.448,10.73
	c2.909,2.729,7.315,3.371,10.834,1.771c3.096-1.406,5.593-4.593,5.73-8.804c0.099-2.98-1.441-5.558-2.708-6.876
	c-1.709-1.778-4.356-3.313-7.919-3.021C9.869,2.064,8.856,2.294,8.027,2.645z M10.11,2.697c0.298,1.247,0.487,2.604,0.782,3.855
	c0.395,0.023,1.159-0.017,1.718,0c0.338-1.245,0.806-2.634,1.044-3.803C12.718,2.445,11.119,2.487,10.11,2.697z M9.434,2.905
	C8.281,3.091,7.073,3.67,6.308,4.417C7.159,5.405,7.823,6.582,8.756,7.49c0.41-0.302,0.927-0.497,1.406-0.729
	C9.92,5.475,9.624,4.244,9.434,2.905z M14.488,2.905c-0.477,1.175-0.739,2.563-1.148,3.804c0.489,0.24,1.038,0.421,1.46,0.728
	c0.878-0.997,1.81-1.94,2.604-3.021C16.602,3.743,15.579,3.29,14.488,2.905z M5.631,4.833c-0.796,0.82-1.602,1.628-2.083,2.762
	c1.17,0.582,2.329,1.177,3.542,1.718c0.324-0.441,0.64-0.888,0.989-1.302C7.294,6.921,6.532,5.808,5.631,4.833z M17.977,4.937
	c-0.826,0.998-1.713,1.933-2.554,2.917c0.328,0.542,0.843,0.895,1.095,1.511c1.26-0.529,2.51-1.068,3.646-1.719
	C19.561,6.617,18.951,5.595,17.977,4.937z M11.048,7.49C8.38,7.986,6.56,10.457,7.61,13.741c1.483-0.566,2.753-1.344,4.219-1.928
	c1.344,0.6,2.557,1.334,3.96,1.877C17.308,10.335,14.53,6.842,11.048,7.49z M3.182,8.271c-0.38,0.975-0.747,2.239-0.677,3.491
	c1.236,0.122,2.602-0.073,3.958,0c0.032-0.646,0.164-1.192,0.313-1.72C5.611,9.419,4.418,8.824,3.182,8.271z M20.479,8.427
	c-1.238,0.535-2.516,1.029-3.596,1.719c0.159,0.483,0.205,1.08,0.313,1.616c1.271,0.034,2.801,0.076,3.959,0.051
	C21.144,10.471,20.883,9.377,20.479,8.427z M2.505,12.595c0.093,1.261,0.421,2.288,0.833,3.23c1.239-0.549,2.409-1.168,3.595-1.771
	c-0.176-0.466-0.334-0.951-0.417-1.512C5.242,12.417,3.768,12.537,2.505,12.595z M17.144,12.49
	c-0.131,0.614-0.308,1.186-0.521,1.719c1.168,0.603,2.318,1.224,3.595,1.721c0.447-0.925,0.849-2.172,0.885-3.335
	C19.712,12.633,18.482,12.507,17.144,12.49z M10.162,14.002c-0.011-0.042-0.043-0.061-0.104-0.053
	c-1.371,0.039-2.25,0.267-3.125,0.679c-1.192,0.559-2.284,1.199-3.438,1.718c0.193,0.415,0.452,0.763,0.781,1.043
	c1.403-0.594,2.772-1.224,4.22-1.772c0.341,0.187,0.663,0.423,1.042,0.677c0.314,0.213,0.739,0.623,1.093,0.677
	c0.209,0.033,0.509-0.082,0.781-0.103c2.347-0.187,5.783-0.336,8.23-0.47c-0.671-0.528-1.502-0.768-2.29-1.146
	c-1.163-0.559-2.159-1.293-3.855-1.249c0.03,0.385,0.271,0.561,0.313,0.938c-0.45-0.227-0.642-0.713-1.095-0.938
	c-0.122,0.415-0.13,0.944-0.312,1.302c-0.298-0.344-0.274-1.012-0.574-1.354c-0.315,0.31-0.391,0.858-0.782,1.095
	c0-0.33,0-0.66,0-0.99c-0.489,0.204-0.776,0.612-1.302,0.781C9.85,14.522,10.085,14.342,10.162,14.002z M8.235,16.188
	c-1.225,0.529-2.387,1.122-3.646,1.616c1.664,2.532,6.077,3.874,10.263,2.761C12.748,19.004,10.454,17.636,8.235,16.188z
	 M11.361,17.439c0.248,0.336,0.642,0.555,0.988,0.781c1.098,0.719,2.181,1.379,3.231,2.084c1.638-0.742,2.985-1.771,3.802-3.335
	c-0.034,0-0.069,0-0.104,0C16.711,17.198,14.007,17.291,11.361,17.439z"/>
</svg>
