<?xml version="1.0" encoding="utf-8"?>
<!-- Generator: Adobe Illustrator 15.1.0, SVG Export Plug-In . SVG Version: 6.00 Build 0)  -->
<!DOCTYPE svg PUBLIC "-//W3C//DTD SVG 1.1//EN" "http://www.w3.org/Graphics/SVG/1.1/DTD/svg11.dtd">
<svg version="1.1" id="Layer_1" xmlns="http://www.w3.org/2000/svg" xmlns:xlink="http://www.w3.org/1999/xlink" x="0px" y="0px"
	 width="24px" height="24px" viewBox="0 0 24 24" enable-background="new 0 0 24 24" xml:space="preserve">
<path d="M14.648,3.286c2.248-0.123,4.149,0.339,5.667,1.421c1.291,0.92,2.441,2.183,2.415,4.69
	c-0.029,2.791-1.588,5.031-3.158,6.633c-1.7,1.734-3.827,3.024-5.899,3.79c-2.366,0.875-5.571,1.318-8.175,0.427
	c-2.209-0.757-4.178-2.522-4.227-5.496c-0.03-1.789,0.704-3.398,1.533-4.69c1.945-3.03,5.039-5.353,9.058-6.396
	C12.713,3.443,13.681,3.338,14.648,3.286z M12.001,4.091c-3.945,0.98-6.972,3.222-8.872,6.112c-0.803,1.222-1.515,2.78-1.486,4.595
	c0.059,3.765,3.433,5.447,6.549,5.591c2.589,0.12,4.914-0.654,6.689-1.516c1.615-0.785,3.396-2.019,4.737-3.506
	c1.298-1.438,2.543-3.28,2.694-5.639c0.284-4.425-3.769-6.327-7.664-6.064C13.567,3.737,12.796,3.894,12.001,4.091z M10.793,4.707
	c-0.288,0.838-0.656,1.591-0.79,2.7c-0.124,1.028,0.048,2.306-0.279,3.27c-0.178,0.526-0.747,1.31-1.068,1.848
	c-0.374,0.625-0.842,1.171-1.115,1.753c-1.475,0.881-2.926,2.037-3.344,3.838c0.285,0.061,0.444-0.228,0.604-0.38
	c0.527-0.499,1.075-0.912,1.858-1.279c1.068-0.5,2.243-0.607,3.019-1.184c0.438-0.326,1.138-1.195,1.068-1.848
	c-0.07-0.656-0.944-0.711-1.44-1.043c0.28-0.457,0.577-0.896,0.836-1.374c0.397,0.869,1.592,1.085,2.461,0.521
	c0.528-0.342,0.903-1.171,1.347-1.279c0.242-0.059,0.598,0.089,0.836,0.048c1.171-0.2,1.46-2.029,2.323-2.18
	c0.367-0.064,0.61,0.143,0.929,0.095c1.319-0.198,0.857-2.357,0-2.653c-0.186,0.565-0.675,0.848-1.068,1.327
	c-0.731,0.891-0.911,2.238-2.369,2.322c0.055-0.545,0.539-0.708,0.418-1.327c-0.111-0.572-1.104-0.649-1.719-0.474
	c-0.695,0.199-1.159,0.731-1.346,1.232c0.521-0.038,1.204,0.052,1.115,0.664c-0.128,0.869-1.81,0.271-2.044-0.143
	c-0.658-1.164,0.046-3.189,0.093-4.548c4.873-1.776,11.434-0.094,10.776,5.591c-0.329,2.847-2.29,5.095-4.413,6.728
	c-2.246,1.728-4.862,2.938-7.85,3.127c-2.424,0.152-4.496-0.41-5.806-1.517c-0.945-0.798-1.807-2.192-1.812-3.933
	C2.007,11.797,3.636,9.78,5.08,8.308C6.674,6.682,8.569,5.559,10.793,4.707z M13.487,6.033c0.274,0.319,0.677,0.025,0.836-0.189
	c0.028,0.145,0.103,0.242,0.278,0.237c0.356-0.079,0.433-0.443,0.418-0.9c-0.211,0.053-0.133,0.401-0.418,0.379
	c-0.174-0.012-0.141-0.235-0.278-0.284c-0.136,0.162-0.241,0.354-0.558,0.332c-0.113-0.106-0.004-0.438-0.186-0.474
	C13.413,5.369,13.463,5.7,13.487,6.033z M17.854,9.587c-2.015-0.791-2.021,2.58-3.576,2.984c-0.303,0.079-0.816-0.183-1.254-0.142
	c-0.516,0.047-0.924,0.5-1.301,0.853c-0.423,0.395-0.891,0.727-0.929,1.279c0.581-0.066,0.794-0.583,1.44-0.568
	c0.345,0.007,0.552,0.216,0.882,0.236c1.246,0.079,1.564-1.617,2.369-1.753c0.262-0.044,0.57,0.194,0.836,0.143
	c0.377-0.073,0.648-0.627,0.604-0.9c-0.065-0.402-0.682-0.492-0.65-0.853c0.187-0.248,0.276-0.46,0.604-0.474
	c0.246-0.011,0.449,0.216,0.696,0.189c0.665-0.071,0.873-0.939,1.068-1.611C18.276,8.889,18.275,9.569,17.854,9.587z M14.695,18.541
	c0.45-0.014,0.879-0.972,0.929-1.421c0.102-0.915-0.686-1.423-1.161-1.658c-0.368,0.667-0.717,1.354-1.021,2.084
	C13.85,17.777,14.19,18.557,14.695,18.541z M9.818,18.825c0.512-0.337,1.036-1.099,0.929-1.848c-0.09-0.635-0.718-0.919-1.161-1.231
	c-0.4,0.634-0.739,1.331-1.022,2.084C8.886,18.23,9.4,18.68,9.818,18.825z M12.233,18.825c0.462-0.016,1.005-1.175,0.976-1.705
	c-0.045-0.797-0.77-1.062-1.208-1.374c-0.389,0.646-0.706,1.364-1.022,2.084C11.27,18.037,11.827,18.839,12.233,18.825z"/>
</svg>
