<?xml version="1.0" encoding="utf-8"?>
<!-- Generator: Adobe Illustrator 15.1.0, SVG Export Plug-In . SVG Version: 6.00 Build 0)  -->
<!DOCTYPE svg PUBLIC "-//W3C//DTD SVG 1.1//EN" "http://www.w3.org/Graphics/SVG/1.1/DTD/svg11.dtd">
<svg version="1.1" id="Layer_1" xmlns="http://www.w3.org/2000/svg" xmlns:xlink="http://www.w3.org/1999/xlink" x="0px" y="0px"
	 width="24px" height="24px" viewBox="0 0 24 24" enable-background="new 0 0 24 24" xml:space="preserve">
<path d="M4.888,2.89c3.739-0.082,7.93-0.045,11.877-0.045c1.18,0,2.983-0.215,3.779,0.135c0.337,0.148,0.779,0.582,0.944,0.944
	c0.381,0.845,0.135,2.751,0.135,3.959c0,2.629,0,5.396,0,8.188c0,1.136,0.216,2.985-0.135,3.914
	c-0.155,0.409-0.482,0.806-0.855,0.99c-0.816,0.402-2.647,0.18-3.914,0.18c-3.171,0-5.055,0-8.188,0
	c-1.256,0-3.095,0.213-3.959-0.135c-0.429-0.174-0.881-0.54-1.08-1.125c-0.339-0.999-0.09-2.746-0.09-3.959c0-2.737,0-5.328,0-8.099
	c0-1.055-0.179-2.958,0.18-3.824C3.845,3.385,4.142,3.106,4.888,2.89z M5.383,4.78C5.148,5.292,5.248,5.895,5.248,6.489
	c0,3.125,0,6.103,0,9.223c0,0.739-0.223,3.184,0.136,3.509c0.211,0.192,1.089,0.135,1.665,0.135c3.154,0,6.091,0,9.133,0
	c1.209,0,2.451,0.104,3.509-0.135c0.235-0.469,0.135-1.062,0.135-1.618c0-3.066,0-6.214,0-9.224c0-1.253,0.107-2.484-0.135-3.599
	C15.272,4.631,9.819,4.63,5.383,4.78z M15.641,6.669c-1.938,2.448-3.947,5.036-5.849,7.467c-0.26,0.334-0.524,0.734-0.899,0.945
	c-0.088-0.487-0.027-1.418-0.045-2.114c-0.557,0.009-1.295-0.013-1.709,0c0.03,1.47-0.06,3.06,0.045,4.455
	c0.728,0.096,1.41-0.029,2.069,0.043c2.933-3.561,5.763-7.224,8.592-10.886C17.134,6.634,16.203,6.467,15.641,6.669z"/>
</svg>
