<?xml version="1.0" encoding="utf-8"?>
<!-- Generator: Adobe Illustrator 15.1.0, SVG Export Plug-In . SVG Version: 6.00 Build 0)  -->
<!DOCTYPE svg PUBLIC "-//W3C//DTD SVG 1.1//EN" "http://www.w3.org/Graphics/SVG/1.1/DTD/svg11.dtd">
<svg version="1.1" id="Layer_1" xmlns="http://www.w3.org/2000/svg" xmlns:xlink="http://www.w3.org/1999/xlink" x="0px" y="0px"
	 width="24px" height="24px" viewBox="0 0 24 24" enable-background="new 0 0 24 24" xml:space="preserve">
<path d="M9.352,16.063c0.249,0.617,0.678,1.247,1.057,1.797c0.38,0.552,0.886,1.042,1.004,1.691c-1.22,0.242-2.886,0.038-4.28,0.105
	c-1.255-1.662-2.618-3.666-3.91-5.602c-0.377-0.564-1.317-1.537-1.215-2.325c0.042-0.32,0.5-0.877,0.792-1.321
	c1.934-2.927,4.144-6.133,6.024-8.93c0.364-0.049,0.763,0.656,1.11,1.163c1.787,2.609,3.54,5.095,5.284,7.714
	c0.345,0.517,0.939,0.958,0.846,1.638c-0.052,0.381-0.383,0.754-0.635,1.109c-0.352,0.501-0.646,0.99-1.004,1.533
	c-0.217,0.332-0.723,1.313-1.109,1.426c-0.555,0.164-2.619,0.094-3.223,0.053C9.833,16.099,9.574,15.83,9.352,16.063z M7.08,8.824
	c-0.089,1.129-0.086,2.621,0,3.751c1.172,0.076,2.843,0.106,3.857,0c0.086-1.13,0.089-2.622,0-3.751
	C9.769,8.746,8.088,8.722,7.08,8.824z M15.64,20.185c1.54-2.218,2.967-4.396,4.438-6.764c0.396-0.637,1.074-1.052,0.898-1.902
	c-0.105-0.51-0.824-1.293-1.162-1.797c-0.879-1.308-1.495-2.201-2.378-3.54c-0.332-0.503-0.859-1.514-1.321-1.691
	c-0.605-0.232-3.398-0.006-3.91,0.053c0.292,0.651,0.725,1.178,1.109,1.744c0.794,1.164,1.473,2.247,2.325,3.435
	c0.492,0.687,1.34,1.452,1.109,2.537c-0.072,0.341-0.515,0.918-0.793,1.321c-1.502,2.176-2.925,4.292-4.279,6.393
	c-0.574,0.891-1.175,1.724-1.638,2.643c0.953,0.352,2.541,0.066,3.752,0.158C14.535,22.103,14.998,21.109,15.64,20.185z
	 M18.916,19.92c1.172,0.059,2.823,0.15,3.91-0.053c0.117-0.966,0.033-2.751,0.053-3.805c-0.881-0.457-2.581-0.096-3.805-0.211
	C18.598,16.714,18.941,18.669,18.916,19.92z"/>
</svg>
