<?xml version="1.0" encoding="utf-8"?>
<!-- Generator: Adobe Illustrator 15.1.0, SVG Export Plug-In . SVG Version: 6.00 Build 0)  -->
<!DOCTYPE svg PUBLIC "-//W3C//DTD SVG 1.1//EN" "http://www.w3.org/Graphics/SVG/1.1/DTD/svg11.dtd">
<svg version="1.1" id="Layer_1" xmlns="http://www.w3.org/2000/svg" xmlns:xlink="http://www.w3.org/1999/xlink" x="0px" y="0px"
	 width="24px" height="24px" viewBox="0 0 24 24" enable-background="new 0 0 24 24" xml:space="preserve">
<path d="M18.575,5.725c-1.276,1.534-2.807,2.814-4.214,4.215c-0.048,0.19-0.103,0.372-0.19,0.521
	c0.181,1.918,0.033,5.574,0.142,7.625c-1.627,0.123-2.761,0.06-4.546,0.095c0.01,1.597,0.002,2.687,0,4.31
	c-0.874-0.01-1.343-0.426-2.083-0.568c-2.243-1.136-4.04-2.716-4.926-5.21c0-0.11,0-0.222,0-0.331
	c-0.65-1.533-0.268-4.266,0.379-5.636C3.97,9.321,4.99,8.084,6.451,7.288c0.064-0.046,0.062-0.16,0.142-0.19
	c0.927-0.485,2.136-1.15,3.031-1.231c0.048,1.218-0.007,2.671,0.047,4.262c1.666,0.104,3.097,0.02,4.452,0
	c0.009-0.306-0.236-0.4-0.379-0.426c-0.371-0.557-1.172-0.974-1.563-1.658c-0.508-0.219-1.006-0.885-1.468-1.326
	c-0.326-0.31-0.595-0.539-0.899-0.899c0.727-0.805,1.456-1.606,2.32-2.273c0.601-0.74,1.31-1.373,1.989-2.037
	C15.663,2.858,17.153,4.258,18.575,5.725z M9.53,10.224c-1.442,0.822-2.805,1.938-2.89,3.931c0.169,0.285,0.147,0.885,0.238,1.373
	c0.139,0.208,0.318,0.376,0.331,0.71c0.684,0.754,1.388,1.485,2.462,1.848c0.206-2.724,0.02-5.035,0-7.815
	C9.611,10.269,9.606,10.21,9.53,10.224z M17.723,10.129c-1.048,0.094-2.335-0.186-3.315,0.142c1.27,0.664,2.672,1.692,2.889,3.411
	c0.089,0.699-0.132,1.257-0.237,1.941c-0.362,0.701-0.797,1.191-1.372,1.753c-0.422,0.225-0.855,0.439-1.185,0.756
	c2.083,0.021,3.729-0.003,5.967,0c0.821-1.219,1.298-3.11,1.042-5.208c-0.288-0.991-0.557-2-1.042-2.795
	C19.612,10.116,18.554,10.055,17.723,10.129z"/>
</svg>
