<?xml version="1.0" encoding="utf-8"?>
<!-- Generator: Adobe Illustrator 15.1.0, SVG Export Plug-In . SVG Version: 6.00 Build 0)  -->
<!DOCTYPE svg PUBLIC "-//W3C//DTD SVG 1.1//EN" "http://www.w3.org/Graphics/SVG/1.1/DTD/svg11.dtd">
<svg version="1.1" id="Layer_1" xmlns="http://www.w3.org/2000/svg" xmlns:xlink="http://www.w3.org/1999/xlink" x="0px" y="0px"
	 width="24px" height="24px" viewBox="0 0 24 24" enable-background="new 0 0 24 24" xml:space="preserve">
<path fill-rule="evenodd" clip-rule="evenodd" d="M8.825,14.258c-0.153,0.023-0.22-0.119-0.288-0.199
	c-0.353-0.424-0.693-0.924-0.932-1.468c-0.147-0.335-0.293-0.634-0.406-1.021c-0.07-0.238-0.131-0.467-0.179-0.754
	c-0.083-0.5-0.146-1.203-0.069-1.785c0.088-0.665,0.244-1.192,0.486-1.706C7.515,7.161,7.586,6.994,7.685,6.85
	c0.102-0.148,0.178-0.299,0.287-0.437C8.29,6.012,8.613,5.619,9.072,5.333C9.224,5.238,9.356,5.12,9.509,5.036
	c0.783-0.435,1.677-0.729,2.846-0.784c0.523-0.024,1.238,0.004,1.695,0.109c0.081,0.019,0.16,0.059,0.248,0.08
	c0.082,0.019,0.171,0.02,0.248,0.04c0.104,0.026,0.211,0.068,0.328,0.099c0.303,0.079,0.644,0.227,0.911,0.357
	c0.386,0.187,0.771,0.368,1.091,0.595c0.309,0.218,0.655,0.437,0.952,0.734c0.206,0.206,0.415,0.414,0.636,0.634
	c0.109,0.11,0.192,0.184,0.147,0.228c-0.061,0.059-0.215-0.054-0.268-0.089c-0.405-0.275-0.803-0.497-1.309-0.674
	C16.937,6.33,16.836,6.3,16.737,6.265c-0.099-0.036-0.191-0.095-0.277-0.119c-0.078-0.022-0.17-0.02-0.248-0.04
	c-0.153-0.04-0.303-0.103-0.466-0.129c-0.165-0.026-0.333-0.071-0.496-0.089c-0.366-0.042-0.737-0.003-1.09-0.021
	c-0.368-0.017-0.701,0.021-1.022,0.09c-0.158,0.034-0.318,0.051-0.466,0.099c-0.438,0.144-0.835,0.281-1.219,0.466
	C10.602,6.932,9.879,7.596,9.33,8.347C9.12,8.635,8.946,8.925,8.785,9.289c-0.094,0.213-0.203,0.44-0.268,0.664
	c-0.038,0.131-0.059,0.276-0.099,0.417c-0.079,0.271-0.092,0.55-0.119,0.892c-0.013,0.158-0.032,0.31-0.03,0.457
	c0.002,0.144,0.032,0.294,0.04,0.446c0.026,0.577,0.147,1.042,0.308,1.497c0.022,0.063,0.03,0.143,0.059,0.217
	C8.724,14.004,8.833,14.08,8.825,14.258z M7.139,6.106c-0.19,0.103-0.396,0.353-0.555,0.536C6.402,6.85,6.22,7.023,6.068,7.217
	C5.902,7.429,5.75,7.63,5.603,7.841C5.449,8.059,5.338,8.298,5.205,8.545C5.078,8.783,4.964,9.028,4.869,9.299
	c-0.094,0.265-0.218,0.54-0.278,0.823c-0.061,0.289-0.108,0.604-0.159,0.932c-0.023,0.15-0.016,0.311-0.03,0.476
	c-0.015,0.177-0.041,0.363-0.03,0.526c0.011,0.167,0.043,0.335,0.06,0.506c0.047,0.493,0.156,0.995,0.317,1.378
	c0.114,0.27,0.214,0.529,0.367,0.764c0.037,0.057,0.085,0.098,0.119,0.158c0.104,0.191,0.221,0.346,0.347,0.516
	c0.156,0.211,0.356,0.393,0.556,0.576c0.197,0.18,0.408,0.35,0.634,0.496C7,16.594,7.25,16.717,7.506,16.846
	C7.697,16.941,7.924,17,8.141,17.064c0.076,0.021,0.143,0.063,0.208,0.078c0.134,0.033,0.3,0.051,0.456,0.068
	c0.156,0.02,0.311,0.07,0.457,0.08c0.349,0.021,0.69,0.008,1.051,0c0.317-0.008,0.629-0.088,0.932-0.129
	c0.152-0.021,0.287-0.07,0.427-0.109c0.15-0.039,0.289-0.08,0.416-0.119c0.784-0.24,1.488-0.633,2.122-1.07
	c0.141-0.098,0.337-0.219,0.477-0.328c0.03-0.023,0.131-0.098,0.099-0.146c-0.057-0.09-0.226,0.016-0.278,0.039
	c-0.236,0.1-0.315,0.145-0.545,0.207c-0.322,0.088-0.613,0.176-0.962,0.219c-0.264,0.031-0.563,0.076-0.862,0.09
	c-0.427,0.018-0.822-0.023-1.19-0.061c-0.375-0.037-0.714-0.141-1.021-0.248c-0.253-0.088-0.48-0.16-0.684-0.268
	c-0.076-0.039-0.116-0.104-0.179-0.139c-0.051-0.029-0.118-0.025-0.168-0.049c-0.354-0.174-0.651-0.414-0.942-0.654
	c-0.32-0.266-0.602-0.605-0.863-0.953c-0.193-0.258-0.377-0.541-0.505-0.852c-0.044-0.109-0.106-0.203-0.148-0.308
	c-0.176-0.428-0.3-0.917-0.387-1.438C5.98,10.568,6,10.071,6.019,9.676c0.01-0.206,0.04-0.405,0.08-0.605
	c0.041-0.202,0.054-0.409,0.099-0.595c0.047-0.195,0.142-0.436,0.218-0.645C6.5,7.599,6.584,7.397,6.673,7.217
	C6.809,6.939,6.919,6.62,7.109,6.354c0.026-0.037,0.211-0.204,0.08-0.258c-0.01-0.004-0.018,0.01-0.02,0.01
	C7.162,6.106,7.145,6.103,7.139,6.106z M17.689,17.857c0.063-0.066,0.127-0.143,0.188-0.199c0.405-0.375,0.779-0.771,1.091-1.23
	c0.366-0.541,0.7-1.111,0.932-1.773c0.034-0.094,0.088-0.178,0.119-0.27c0.02-0.057,0.021-0.125,0.04-0.188
	c0.024-0.082,0.071-0.158,0.089-0.238c0.022-0.1,0.021-0.191,0.04-0.287c0.023-0.113,0.054-0.213,0.069-0.328
	c0.046-0.342,0.093-0.727,0.079-1.1c-0.019-0.501-0.031-0.984-0.148-1.438c-0.11-0.423-0.256-0.809-0.427-1.17
	c-0.18-0.379-0.376-0.684-0.615-0.992c-0.236-0.306-0.527-0.537-0.813-0.783c-0.143-0.124-0.304-0.23-0.476-0.328
	c-0.175-0.099-0.354-0.2-0.525-0.277c-0.365-0.165-0.756-0.299-1.2-0.396c-0.221-0.048-0.438-0.114-0.685-0.119
	c-0.637-0.013-1.346-0.05-1.884,0.099c-0.114,0.032-0.228,0.042-0.337,0.069c-0.208,0.053-0.416,0.13-0.615,0.199
	c-0.104,0.035-0.206,0.053-0.308,0.099c-0.103,0.046-0.207,0.059-0.307,0.099c-0.094,0.038-0.179,0.1-0.278,0.139
	c-0.604,0.238-1.103,0.622-1.597,0.962C10.045,8.46,9.92,8.521,9.935,8.645c0.172,0.007,0.337-0.123,0.496-0.178
	c0.855-0.297,1.824-0.452,2.835-0.387c0.495,0.031,0.974,0.128,1.379,0.258c0.411,0.131,0.799,0.298,1.14,0.496
	c1.286,0.743,2.258,1.854,2.688,3.44c0.148,0.555,0.271,1.299,0.227,1.984c-0.016,0.25-0.068,0.521-0.108,0.781
	c-0.041,0.264-0.064,0.537-0.14,0.754c-0.031,0.096-0.084,0.182-0.118,0.277c-0.206,0.594-0.454,1.17-0.773,1.637
	c-0.052,0.074-0.137,0.168-0.109,0.277C17.561,18.006,17.627,17.922,17.689,17.857z M11.135,9.497
	c-0.117,0.234-0.188,0.588-0.119,0.922c0.024,0.114,0.086,0.249,0.149,0.347c0.169,0.268,0.518,0.561,0.883,0.615
	c0.266,0.04,0.648,0.007,0.842-0.07c0.212-0.083,0.311-0.161,0.466-0.317c0.204-0.204,0.442-0.522,0.417-0.932
	c-0.019-0.31-0.135-0.575-0.277-0.753c-0.065-0.083-0.162-0.184-0.248-0.248c-0.16-0.12-0.423-0.254-0.624-0.277
	c-0.102-0.012-0.276,0.003-0.348,0.01C11.743,8.839,11.306,9.158,11.135,9.497z M15.855,9.696c-0.024,0.14,0.064,0.26,0.108,0.376
	c0.098,0.257,0.188,0.516,0.258,0.803c0.035,0.142,0.086,0.284,0.109,0.426c0.034,0.21,0.043,0.437,0.06,0.655
	c0.018,0.232,0.047,0.452,0.029,0.665c-0.036,0.441-0.08,0.867-0.179,1.258c-0.092,0.371-0.241,0.715-0.396,1.043
	c-0.313,0.66-0.738,1.174-1.22,1.645c-0.239,0.234-0.523,0.428-0.813,0.625c-0.503,0.342-1.104,0.574-1.755,0.754
	c-0.095,0.025-0.186,0.072-0.278,0.09c-0.526,0.102-1.167,0.174-1.765,0.119c-0.204-0.02-0.417-0.006-0.615-0.029
	c-0.123-0.016-0.247-0.068-0.377-0.09c-0.768-0.131-1.542-0.391-2.102-0.734c-0.104-0.063-0.218-0.1-0.318-0.158
	c-0.135-0.08-0.238-0.221-0.417-0.219c-0.003,0.133,0.122,0.201,0.198,0.277c0.082,0.082,0.174,0.166,0.248,0.248
	c0.466,0.514,1.061,0.963,1.686,1.299c0.208,0.111,0.428,0.246,0.655,0.338c0.235,0.096,0.467,0.203,0.713,0.277
	c0.75,0.225,1.604,0.432,2.579,0.387c0.318-0.016,0.635-0.014,0.933-0.061c0.423-0.064,0.82-0.188,1.18-0.307
	c0.606-0.201,1.132-0.523,1.586-0.902c0.178-0.146,0.362-0.305,0.516-0.477c0.258-0.285,0.467-0.564,0.664-0.9
	c0.209-0.357,0.41-0.793,0.516-1.211c0.146-0.572,0.226-1.238,0.179-1.924c-0.016-0.236-0.067-0.445-0.109-0.645
	c-0.021-0.109-0.002-0.215-0.029-0.346c-0.016-0.078-0.059-0.154-0.079-0.238c-0.146-0.601-0.39-1.086-0.646-1.577
	c-0.271-0.522-0.661-1.101-1.08-1.487C15.881,9.681,15.869,9.69,15.855,9.696z M14.327,11.5c-0.58,0-1.254-0.035-1.784,0
	c-0.856,0.056-1.74-0.043-2.578,0.039c0.02,0.2,0.176,0.343,0.277,0.496c0.107,0.162,0.225,0.312,0.337,0.466
	c0.561,0.768,1.082,1.576,1.636,2.35c0.066,0.092,0.257,0.422,0.387,0.416c0.081-0.002,0.119-0.096,0.179-0.188
	c0.151-0.236,0.297-0.484,0.437-0.695c0.191-0.289,0.39-0.645,0.555-0.941c0.268-0.482,0.58-0.935,0.854-1.397
	c0.091-0.155,0.225-0.305,0.238-0.496C14.708,11.469,14.512,11.5,14.327,11.5z"/>
</svg>
