<?xml version="1.0" encoding="utf-8"?>
<!-- Generator: Adobe Illustrator 15.1.0, SVG Export Plug-In . SVG Version: 6.00 Build 0)  -->
<!DOCTYPE svg PUBLIC "-//W3C//DTD SVG 1.1//EN" "http://www.w3.org/Graphics/SVG/1.1/DTD/svg11.dtd">
<svg version="1.1" id="Layer_1" xmlns="http://www.w3.org/2000/svg" xmlns:xlink="http://www.w3.org/1999/xlink" x="0px" y="0px"
	 width="24px" height="24px" viewBox="0 0 24 24" enable-background="new 0 0 24 24" xml:space="preserve">
<path fill-rule="evenodd" clip-rule="evenodd" d="M9.016,4.328c2.067,0,4.135,0,6.202,0c0.202,1.981,0.03,4.337,0.088,6.464
	c-0.751-2.326-5.432-2.584-6.203-0.087C8.899,8.753,9.074,6.424,9.016,4.328z M5.871,11.666c0.757,0,1.514,0,2.271,0
	c0.145-2.069,0.146-4.746,0-6.814C7.427,7.165,6.583,9.348,5.871,11.666z M12.946,15.334c3.368-0.724,2.399-6.46-1.31-5.853
	C7.804,10.11,8.867,16.21,12.946,15.334z M5.521,12.714c-0.928,2.479-1.736,5.077-2.621,7.6c1.724-0.004,3.659,0.239,5.329,0
	c0-2.533,0-5.066,0-7.6C7.327,12.714,6.424,12.714,5.521,12.714z M16.092,12.714c-0.157,1.926-0.123,5.549,0,7.25
	c0.771-2.46,1.629-4.835,2.445-7.25C17.722,12.714,16.906,12.714,16.092,12.714z M9.54,14.811c-0.179-0.187-0.268-0.65-0.524-0.524
	c0,2.038,0,4.076,0,6.114c2.097,0,4.193,0,6.29,0c-0.059-2.097,0.116-4.426-0.088-6.377C14.285,16.362,10.95,16.272,9.54,14.811z
	 M16.092,11.666c0.913-0.031,2.289,0.076,2.795-0.087c0.928-2.275,1.54-4.866,2.533-7.076c-1.429-0.406-3.609-0.06-5.328-0.175
	C15.946,6.571,15.946,9.421,16.092,11.666z"/>
</svg>
