<?xml version="1.0" encoding="utf-8"?>
<!-- Generator: Adobe Illustrator 15.1.0, SVG Export Plug-In . SVG Version: 6.00 Build 0)  -->
<!DOCTYPE svg PUBLIC "-//W3C//DTD SVG 1.1//EN" "http://www.w3.org/Graphics/SVG/1.1/DTD/svg11.dtd">
<svg version="1.1" id="Layer_1" xmlns="http://www.w3.org/2000/svg" xmlns:xlink="http://www.w3.org/1999/xlink" x="0px" y="0px"
	 width="24px" height="24px" viewBox="0 0 24 24" enable-background="new 0 0 24 24" xml:space="preserve">
<path d="M21.838,8.792c-0.837,0.23-2.096,0.039-3.1,0.102C17.678,5.41,12.875,2.884,8.574,5.031
	C7.146,6.042,5.973,7.307,5.272,9.045c-0.704,0.043-2.22,0.155-2.999-0.051c1.31-4.517,4.231-7.423,9.604-7.876
	C17.448,1.425,20.426,4.326,21.838,8.792z M18.688,9.909c-0.13,3.062,1.281,9.164-2.592,9.248c-0.705-0.683-1.306-1.47-2.134-2.031
	c-0.648,0.622-1.065,1.477-1.931,1.88c-0.765-0.506-1.232-1.311-1.982-1.83c-0.642,0.663-1.173,1.437-1.931,1.981
	c-0.013-0.079-0.111-0.034-0.152,0c-3.695-0.266-2.419-5.464-2.642-9.044c-0.869-0.122-2.117-0.024-2.999-0.051
	c0.054,4.785-1.219,11.091,4.014,11.128c0.697-0.573,1.083-1.458,1.931-1.879c0.754,0.499,1.235,1.271,1.982,1.776
	c0.689-0.546,1.111-1.359,1.88-1.827c0.802,0.449,1.17,1.337,1.98,1.778c0.787-0.501,1.164-1.413,2.033-1.83
	c0.672,0.618,1.194,1.38,1.982,1.879c2.136-0.168,3.155-1.45,3.71-3.201c0.032-2.173,0.035-5.559-0.051-8.028
	C20.86,9.865,19.451,9.833,18.688,9.909z M14.621,9.96c-0.155,1.993,0.056,4.306,0,6.2c0.869-0.013,2.254,0.053,3.201-0.05
	c-0.208-1.795-0.004-4.204-0.151-6.201C16.866,9.935,15.342,9.841,14.621,9.96z M6.338,10.062c0.005,2.153,0.001,4.022,0,6.2
	c0.813,0.114,2.195,0.064,3.151,0c0.1-2.208-0.045-4.067-0.051-6.2C8.61,9.71,7.369,10.131,6.338,10.062z M10.505,9.96
	c-0.208,1.712,0.021,4.485,0.051,6.302c0.792-0.002,2.202,0.014,2.998,0c0.095-2.17,0.015-4.254,0-6.302
	C12.6,9.865,11.338,9.894,10.505,9.96z"/>
</svg>
