<?xml version="1.0" encoding="utf-8"?>
<!-- Generator: Adobe Illustrator 15.1.0, SVG Export Plug-In . SVG Version: 6.00 Build 0)  -->
<!DOCTYPE svg PUBLIC "-//W3C//DTD SVG 1.1//EN" "http://www.w3.org/Graphics/SVG/1.1/DTD/svg11.dtd">
<svg version="1.1" id="Layer_1" xmlns="http://www.w3.org/2000/svg" xmlns:xlink="http://www.w3.org/1999/xlink" x="0px" y="0px"
	 width="24px" height="24px" viewBox="0 0 24 24" enable-background="new 0 0 24 24" xml:space="preserve">
<path d="M7.297,8.978c-0.176,0.468-0.445,0.842-0.681,1.249c-0.669,0.125-1.565,0.024-2.328,0.056
	C4.451,9.784,4.71,9.38,4.969,8.978C5.768,8.997,6.829,8.947,7.297,8.978z M8.489,8.921C8.159,9.258,7.8,9.853,7.751,10.283
	c0.552-0.054,1.633,0.085,2.271-0.056c0.244-0.418,0.561-0.765,0.682-1.306C10.137,8.948,9.229,8.902,8.489,8.921z M12.122,8.921
	c-0.392,0.294-0.712,0.947-0.795,1.362c0.595-0.044,1.698,0.071,2.385-0.056c0.091-0.502,0.561-0.907,0.567-1.306
	C13.708,8.94,12.711,8.919,12.122,8.921z M11.895,6.537c1.698,0.077,3.225,0.581,4.655,1.192c1.12,0.479,2.205,0.753,3.463,0.964
	c0.406,0.068,0.985,0.137,1.021,0.228c-1.864,0.314-2.642,1.653-3.405,3.065c-0.4,0.739-0.688,1.629-1.193,2.043
	c-0.383,0.315-1.367,0.744-1.985,0.454c0.688-1.274,1.607-2.573,2.1-3.859c-1.105,0.165-2.808-0.104-4.03,0.113
	c-1.042,0.185-1.829,0.729-2.441,1.362c-0.576,0.597-1.479,1.616-1.306,2.555c0.107,0.579,1.557,1.337,2.214,0.795
	c0.047-0.039,0.113-0.083,0.114-0.171c0.072-0.356-0.37-0.198-0.341-0.511c0.979-1.152,1.299-3.698,3.179-3.519
	c-0.992,1.883-2.15,3.601-3.065,5.563c0.656,0.063,1.671-0.013,2.214,0c0.433-0.514,0.669-1.224,1.136-1.703
	c0.617,0.36,1.188,0.564,2.044,0.454c2.246-0.29,3.01-2.115,3.917-3.803c0.431-0.806,0.832-1.796,1.475-2.271
	c0.293-0.216,0.635-0.3,0.852-0.567c-0.075-0.171-0.39,0.176-0.396-0.114c0.288,0.009,0.313-0.015,0.112-0.114
	c0.301-0.009,0.47-0.096,0.738,0c-0.905-0.961-2.383-1.702-3.917-2.327c-3.8-1.548-8.416-1.329-11.92,0.227
	C6.052,7.07,5.135,7.821,4.288,8.41C4.05,8.576,3.537,8.705,3.607,9.091C5.634,7.778,8.463,6.381,11.895,6.537z M4.118,10.68
	c-0.955,1.434-1.91,3.207-2.781,4.711c-0.317,0.548-0.722,1.076-0.681,1.477c0.461-0.108,1.632-0.029,2.157-0.057
	c0.596-0.54,0.754-1.518,1.363-2.044c0.531,0.357,1.47,0.722,2.441,0.795c0.654,0.049,1.732,0.229,1.874-0.454
	c-1.623,0.005-3.164-0.704-2.952-2.498c0.09-0.759,0.546-1.223,0.795-1.93C5.518,10.563,5.042,10.729,4.118,10.68z"/>
</svg>
