<?xml version="1.0" encoding="utf-8"?>
<!-- Generator: Adobe Illustrator 15.1.0, SVG Export Plug-In . SVG Version: 6.00 Build 0)  -->
<!DOCTYPE svg PUBLIC "-//W3C//DTD SVG 1.1//EN" "http://www.w3.org/Graphics/SVG/1.1/DTD/svg11.dtd">
<svg version="1.1" id="Layer_1" xmlns="http://www.w3.org/2000/svg" xmlns:xlink="http://www.w3.org/1999/xlink" x="0px" y="0px"
	 width="24px" height="24px" viewBox="0 0 24 24" enable-background="new 0 0 24 24" xml:space="preserve">
<path d="M15.736,5.801c0,1.378,0,2.756,0,4.134c-1.161,0.806-2.477,1.457-3.705,2.196c-1.265-0.673-2.468-1.408-3.703-2.11
	c0-1.378,0-2.756,0-4.135c1.034-0.823,2.509-1.429,3.531-2.153c0.072,0.021,0.099-0.073,0.172-0.043
	C13.223,4.171,14.6,5.22,15.736,5.801z M1.739,15.061c-0.062,0.023-0.105,0.066-0.129,0.129c0.133,0.735-0.2,1.975,0.043,2.713
	c0.131,0.4,0.449,0.456,0.689,0.689c0.901,0.008,2.16,0.202,2.756-0.216c0.424,0.379,1.206,0.163,1.981,0.216
	c0.749-0.213,0.688-1.235,0.731-2.153c-0.196-0.192-0.18-0.45-0.43-0.646C6.66,15.23,4.584,15.56,4.194,16.051
	c-0.129,0.445-0.153,0.995-0.129,1.594c-0.333,0.258-1.078,0.127-1.206-0.216C2.92,16.143,2.971,15.018,1.739,15.061z M6.563,16.481
	c0.033,0.204,0.108,0.928-0.043,1.206c-0.298,0.159-0.935,0.091-1.249,0c-0.048-0.199-0.04-0.663-0.043-1.12
	C5.419,16.284,6.244,16.374,6.563,16.481z M12.334,16.051c-0.479-0.775-2.092-0.469-3.058-0.345
	c-0.635,0.32-0.597,1.941-0.258,2.584c0.494,0.438,1.966,0.422,2.498,0.086c0.616,0.367,2.417,0.357,3.059,0
	c0.436,0.337,1.885,0.321,2.324,0c0.637,0.383,1.666,0.303,2.324,0c0.662,0.395,1.82,0.236,2.672,0.13
	c0.707-0.362,0.57-2.006,0.43-2.929c-1.064-0.046-1.277,0.761-1.162,1.895c-0.182-0.072-0.082,0.103-0.172,0.173
	c-0.289,0.223-1.02,0.158-1.334,0.043c0.061-0.582,0.191-1.512,0-2.067c-1.107-0.238-1.322,0.867-1.164,1.809
	c-0.168,0.325-0.762,0.44-1.248,0.301c0.035-1.008,0.115-1.985-0.906-2.152c-0.994-0.163-2.564-0.085-2.756,0.731
	c-0.107,0.467,0.113,0.821-0.043,1.336c-0.227,0.23-0.77,0.109-1.033,0C12.377,17.035,12.577,16.446,12.334,16.051z M11.257,16.481
	c0,0.431,0,0.861,0,1.292c-0.438-0.021-0.981,0.062-1.292-0.086c0.054-0.449-0.155-1.16,0.215-1.293
	C10.543,16.42,11.024,16.327,11.257,16.481z M15.994,16.395c0.143,0.289,0.068,0.792,0.086,1.206
	c-0.275,0.261-0.973,0.177-1.334,0.129c-0.098-0.306-0.018-0.786-0.045-1.162C14.892,16.27,15.551,16.439,15.994,16.395z
	 M17.416,18.85c-0.195,0.259-0.689,0.352-0.689,0.732c0,0.274,0.545,0.71,0.775,0.688c0.268-0.023,0.291-0.4,0.602-0.474
	c0.115,0.245,0.33,0.39,0.561,0.518c0.238-0.266,0.59-0.415,0.689-0.818c-0.242-0.203-0.412-0.479-0.689-0.646
	c-0.295,0.093-0.406,0.37-0.646,0.518C17.885,19.128,17.652,18.985,17.416,18.85z M20.473,18.85c-0.18,0.194-0.35,0.397-0.602,0.518
	c0.006,0.105,0.006,0.207-0.043,0.258c0.164,0.236,0.414,0.39,0.559,0.646c0.508-0.009,0.637-0.396,0.861-0.688
	C21.045,19.283,20.855,18.972,20.473,18.85z"/>
</svg>
