<?xml version="1.0" encoding="utf-8"?>
<!-- Generator: Adobe Illustrator 15.1.0, SVG Export Plug-In . SVG Version: 6.00 Build 0)  -->
<!DOCTYPE svg PUBLIC "-//W3C//DTD SVG 1.1//EN" "http://www.w3.org/Graphics/SVG/1.1/DTD/svg11.dtd">
<svg version="1.1" id="Layer_1" xmlns="http://www.w3.org/2000/svg" xmlns:xlink="http://www.w3.org/1999/xlink" x="0px" y="0px"
	 width="24px" height="24px" viewBox="0 0 24 24" enable-background="new 0 0 24 24" xml:space="preserve">
<path d="M12.039,17.708c-1.778,0.738-3.775,1.938-6.472,1.471c-1.82-0.314-3.688-2.186-3-4.647
	C4.336,8.198,10.58,4.273,15.863,1.882c0.1-0.021,0.11,0.046,0.117,0.118C11.178,4.513,6.574,7.224,4.626,12.59
	c-0.126,0.889-0.251,1.767,0,2.647C5.416,18.001,8.683,18.478,12.039,17.708z M11.097,8.295c-0.204,0.31-0.164,0.729,0,1.059
	C12.465,10.089,12.489,7.544,11.097,8.295z M11.097,9.943c-0.084,0.032-0.143,0.091-0.176,0.176c0.144,1.66,0.01,3.847,0.059,5.413
	c0.278,0.085,0.984,0.135,1.176-0.059c0.001-1.541,0.004-4.121,0-5.471C11.909,9.876,11.44,9.973,11.097,9.943z M14.568,5.824
	c2.971,0.313,4.729,2.419,3.824,5.825c-2.109,5.225-6.83,7.838-11.531,10.472c6.023-2.836,12.58-6.407,13.885-14.002
	c-0.465-1.954-1.5-3.233-3.589-3.471c-2.405-0.274-4.687,0.88-6.295,1.588C12.093,6.077,13.306,5.691,14.568,5.824z"/>
</svg>
