<?xml version="1.0" encoding="UTF-8" standalone="no"?>
<!-- Generator: Adobe Illustrator 18.1.1, SVG Export Plug-In . SVG Version: 6.00 Build 0)  -->

<svg
   xmlns:dc="http://purl.org/dc/elements/1.1/"
   xmlns:cc="http://creativecommons.org/ns#"
   xmlns:rdf="http://www.w3.org/1999/02/22-rdf-syntax-ns#"
   xmlns:svg="http://www.w3.org/2000/svg"
   xmlns="http://www.w3.org/2000/svg"
   xmlns:sodipodi="http://sodipodi.sourceforge.net/DTD/sodipodi-0.dtd"
   xmlns:inkscape="http://www.inkscape.org/namespaces/inkscape"
   version="1.1"
   id="Capa_1"
   x="0px"
   y="0px"
   viewBox="0 0 24 24"
   xml:space="preserve"
   inkscape:version="0.48.5 r10040"
   width="100%"
   height="100%"
   sodipodi:docname="internet.svg"><metadata
     id="metadata3210"><rdf:RDF><cc:Work
         rdf:about=""><dc:format>image/svg+xml</dc:format><dc:type
           rdf:resource="http://purl.org/dc/dcmitype/StillImage" /><dc:title></dc:title></cc:Work></rdf:RDF></metadata><defs
     id="defs3208" /><sodipodi:namedview
     pagecolor="#ffffff"
     bordercolor="#666666"
     borderopacity="1"
     objecttolerance="10"
     gridtolerance="10"
     guidetolerance="10"
     inkscape:pageopacity="0"
     inkscape:pageshadow="2"
     inkscape:window-width="657"
     inkscape:window-height="480"
     id="namedview3206"
     showgrid="false"
     inkscape:zoom="9.0769231"
     inkscape:cx="13"
     inkscape:cy="13"
     inkscape:window-x="0"
     inkscape:window-y="27"
     inkscape:window-maximized="0"
     inkscape:current-layer="Capa_1" /><g
     id="g3166"
     transform="matrix(0.90212023,0,0,0.90212023,0.27264494,0.27243701)"><path
       style="fill:#030104"
       d="M 8.083,11.222 6.419,15 C 6.378,15.094 6.275,15.154 6.162,15.154 H 5.31 C 5.197,15.154 5.094,15.093 5.054,15 L 4.264,13.197 C 4.187,13.019 4.117,12.849 4.051,12.68 3.978,12.866 3.903,13.039 3.828,13.205 l -0.833,1.8 C 2.953,15.096 2.851,15.154 2.74,15.154 H 1.888 c -0.117,0 -0.219,-0.063 -0.259,-0.158 L 0.072,11.217 C 0.042,11.143 0.054,11.061 0.106,10.996 0.158,10.931 0.241,10.893 0.331,10.893 H 1.29 c 0.121,0 0.227,0.069 0.263,0.169 l 0.684,1.92 c 0.057,0.162 0.11,0.315 0.159,0.461 0.06,-0.146 0.125,-0.3 0.194,-0.463 L 3.432,11.048 C 3.473,10.955 3.575,10.893 3.688,10.893 H 4.48 c 0.115,0 0.217,0.063 0.258,0.157 l 0.798,1.89 c 0.072,0.17 0.136,0.329 0.195,0.479 0.049,-0.142 0.106,-0.296 0.171,-0.465 l 0.737,-1.898 c 0.038,-0.098 0.143,-0.164 0.26,-0.164 h 0.926 c 0.091,0 0.175,0.039 0.227,0.104 0.053,0.068 0.063,0.151 0.031,0.226 z m 8.922,0 L 15.341,15 c -0.041,0.094 -0.144,0.154 -0.256,0.154 h -0.854 c -0.113,0 -0.215,-0.061 -0.256,-0.154 l -0.789,-1.803 c -0.078,-0.178 -0.148,-0.348 -0.214,-0.517 -0.073,0.186 -0.148,0.359 -0.223,0.525 l -0.833,1.8 c -0.042,0.091 -0.143,0.149 -0.255,0.149 h -0.853 c -0.116,0 -0.219,-0.063 -0.259,-0.158 L 8.992,11.217 C 8.962,11.143 8.974,11.061 9.026,10.996 9.078,10.932 9.162,10.893 9.251,10.893 h 0.959 c 0.121,0 0.227,0.069 0.263,0.169 l 0.683,1.92 c 0.057,0.162 0.11,0.315 0.161,0.461 0.059,-0.146 0.123,-0.3 0.192,-0.463 l 0.843,-1.932 c 0.04,-0.093 0.142,-0.155 0.256,-0.155 H 13.4 c 0.115,0 0.218,0.063 0.258,0.157 l 0.799,1.89 c 0.071,0.17 0.135,0.329 0.193,0.479 0.051,-0.142 0.106,-0.296 0.172,-0.465 l 0.737,-1.898 c 0.038,-0.098 0.144,-0.164 0.261,-0.164 h 0.926 c 0.092,0 0.177,0.039 0.227,0.104 0.053,0.068 0.065,0.151 0.032,0.226 z m 8.921,0 L 24.263,15 c -0.042,0.094 -0.144,0.154 -0.257,0.154 H 23.153 C 23.04,15.154 22.937,15.093 22.897,15 L 22.108,13.197 C 22.03,13.019 21.96,12.849 21.894,12.68 c -0.073,0.186 -0.149,0.359 -0.224,0.525 l -0.833,1.8 c -0.042,0.091 -0.144,0.149 -0.255,0.149 H 19.73 c -0.117,0 -0.22,-0.063 -0.26,-0.158 l -1.557,-3.779 c -0.029,-0.074 -0.019,-0.156 0.033,-0.221 0.052,-0.065 0.136,-0.103 0.226,-0.103 h 0.96 c 0.121,0 0.227,0.069 0.262,0.169 l 0.684,1.92 c 0.057,0.162 0.11,0.315 0.16,0.461 0.059,-0.146 0.123,-0.3 0.192,-0.463 l 0.843,-1.932 c 0.041,-0.093 0.143,-0.155 0.257,-0.155 h 0.791 c 0.115,0 0.218,0.063 0.258,0.157 l 0.798,1.89 c 0.072,0.17 0.137,0.329 0.196,0.479 0.049,-0.142 0.106,-0.296 0.171,-0.465 l 0.738,-1.898 c 0.037,-0.098 0.142,-0.164 0.26,-0.164 h 0.926 c 0.092,0 0.176,0.039 0.227,0.104 0.051,0.068 0.063,0.151 0.031,0.226 z"
       id="path3168"
       inkscape:connector-curvature="0" /><g
       id="g3170"><path
         style="fill:#030104"
         d="M 2.71,9 C 2.993,8.282 3.347,7.599 3.767,6.963 3.829,6.975 3.887,7 3.952,7 h 1.88 C 5.633,7.634 5.477,8.309 5.342,9 H 7.397 C 7.552,8.301 7.732,7.624 7.959,7 h 9.986 c 0.227,0.624 0.407,1.301 0.562,2 h 2.055 C 20.427,8.309 20.271,7.634 20.072,7 h 1.88 c 0.065,0 0.123,-0.025 0.186,-0.037 0.418,0.636 0.773,1.319 1.056,2.037 h 2.121 C 23.624,3.784 18.724,0 12.952,0 7.18,0 2.28,3.784 0.588,9 H 2.71 z M 20.478,5 H 19.29 C 19.032,4.457 18.748,3.95 18.439,3.481 19.179,3.909 19.861,4.419 20.478,5 z M 12.952,2 c 1.551,0 2.983,1.154 4.062,3 H 8.89 C 9.969,3.154 11.401,2 12.952,2 z M 7.463,3.481 C 7.155,3.95 6.871,4.457 6.613,5 H 5.426 C 6.043,4.419 6.725,3.909 7.463,3.481 z"
         id="path3172"
         inkscape:connector-curvature="0" /><path
         style="fill:#030104"
         d="m 23.194,17 c -0.283,0.719 -0.638,1.4 -1.057,2.037 C 22.075,19.025 22.017,19 21.952,19 h -1.881 c 0.199,-0.634 0.355,-1.309 0.49,-2 h -2.055 c -0.154,0.699 -0.335,1.377 -0.562,2 H 7.959 C 7.732,18.377 7.552,17.699 7.397,17 H 5.343 c 0.135,0.691 0.291,1.366 0.49,2 H 3.952 C 3.887,19 3.829,19.025 3.767,19.037 3.348,18.4 2.993,17.719 2.71,17 H 0.588 c 1.692,5.216 6.592,9 12.364,9 5.772,0 10.672,-3.784 12.363,-9 H 23.194 z M 5.426,21 h 1.188 c 0.258,0.543 0.542,1.051 0.85,1.519 C 6.725,22.091 6.043,21.581 5.426,21 z m 7.526,3 C 11.401,24 9.969,22.846 8.89,21 h 8.123 c -1.078,1.846 -2.51,3 -4.061,3 z M 18.44,22.519 C 18.749,22.051 19.033,21.543 19.291,21 h 1.188 c -0.618,0.581 -1.3,1.091 -2.039,1.519 z"
         id="path3174"
         inkscape:connector-curvature="0" /></g></g><g
     id="g3176"
     transform="translate(0,-2)" /><g
     id="g3178"
     transform="translate(0,-2)" /><g
     id="g3180"
     transform="translate(0,-2)" /><g
     id="g3182"
     transform="translate(0,-2)" /><g
     id="g3184"
     transform="translate(0,-2)" /><g
     id="g3186"
     transform="translate(0,-2)" /><g
     id="g3188"
     transform="translate(0,-2)" /><g
     id="g3190"
     transform="translate(0,-2)" /><g
     id="g3192"
     transform="translate(0,-2)" /><g
     id="g3194"
     transform="translate(0,-2)" /><g
     id="g3196"
     transform="translate(0,-2)" /><g
     id="g3198"
     transform="translate(0,-2)" /><g
     id="g3200"
     transform="translate(0,-2)" /><g
     id="g3202"
     transform="translate(0,-2)" /><g
     id="g3204"
     transform="translate(0,-2)" /></svg>