<?xml version="1.0" encoding="UTF-8" standalone="no"?>
<!-- Generator: Adobe Illustrator 17.0.0, SVG Export Plug-In . SVG Version: 6.00 Build 0)  -->

<svg
   xmlns:dc="http://purl.org/dc/elements/1.1/"
   xmlns:cc="http://creativecommons.org/ns#"
   xmlns:rdf="http://www.w3.org/1999/02/22-rdf-syntax-ns#"
   xmlns:svg="http://www.w3.org/2000/svg"
   xmlns="http://www.w3.org/2000/svg"
   xmlns:sodipodi="http://sodipodi.sourceforge.net/DTD/sodipodi-0.dtd"
   xmlns:inkscape="http://www.inkscape.org/namespaces/inkscape"
   version="1.1"
   id="Capa_1"
   x="0px"
   y="0px"
   width="24"
   height="24"
   viewBox="0 0 24 24"
   enable-background="new 0 0 23.02 21.135"
   xml:space="preserve"
   inkscape:version="0.48.5 r10040"
   sodipodi:docname="island.svg"><metadata
     id="metadata3085"><rdf:RDF><cc:Work
         rdf:about=""><dc:format>image/svg+xml</dc:format><dc:type
           rdf:resource="http://purl.org/dc/dcmitype/StillImage" /></cc:Work></rdf:RDF></metadata><defs
     id="defs3083" /><sodipodi:namedview
     pagecolor="#ffffff"
     bordercolor="#666666"
     borderopacity="1"
     objecttolerance="10"
     gridtolerance="10"
     guidetolerance="10"
     inkscape:pageopacity="0"
     inkscape:pageshadow="2"
     inkscape:window-width="657"
     inkscape:window-height="480"
     id="namedview3081"
     showgrid="false"
     inkscape:zoom="11.166312"
     inkscape:cx="11.51"
     inkscape:cy="10.5675"
     inkscape:window-x="0"
     inkscape:window-y="27"
     inkscape:window-maximized="0"
     inkscape:current-layer="Capa_1" /><path
     d="m 18.689139,9.5117512 c 1.221176,0 2.208394,0.9883108 2.208394,2.2116738 0,1.216804 -0.987218,2.206208 -2.208394,2.206208 -1.21899,0 -2.206208,-0.989404 -2.206208,-2.206208 0,-1.223363 0.987218,-2.2116738 2.206208,-2.2116738 z m -2.155918,12.2697068 0.01859,-0.09839 c 0.05138,-0.411068 0.08199,-0.815576 0.102766,-1.224457 0.03498,-0.807922 0.0066,-1.613658 -0.07872,-2.407368 -0.168361,-1.587423 -0.581615,-3.140952 -1.253973,-4.560009 -0.58599,-1.249601 -2.530907,-4.3664982 -3.717099,-5.8008614 0.37171,-0.2011606 1.107477,-0.5641244 1.36986,-0.6690778 0.605669,-0.2591037 1.258348,-0.4209068 1.928519,-0.4602644 0.674544,-0.041544 1.367674,0.039358 2.043311,0.2427048 0.674544,0.2077202 1.328316,0.5356995 1.940544,0.9456737 C 18.389584,7.208243 17.817807,6.7206471 17.156382,6.3292584 16.500423,5.9455225 15.757003,5.6612738 14.970946,5.5235225 14.187076,5.3835846 13.366034,5.3901442 12.566858,5.5191494 12.249811,5.5683463 11.94151,5.6448748 11.635396,5.7312427 L 11.798293,5.2217815 C 12.028971,4.6029938 12.349298,4.0159108 12.778951,3.4977034 13.21079,2.975123 13.741024,2.5236048 14.352158,2.1726669 14.963293,1.8151694 15.64877,1.5680916 16.363765,1.3975424 15.631278,1.3953524 14.883485,1.4773504 14.149905,1.6960036 13.418511,1.9102834 12.706795,2.260128 12.072702,2.7433509 11.429863,3.2167344 10.877764,3.822403 10.421873,4.4947606 10.195567,4.8336726 9.997686,5.1911701 9.818391,5.5650665 9.729831,5.7520147 9.647841,5.9455225 9.575686,6.1379371 L 9.484945,6.393761 9.2892507,6.3653361 C 9.0815304,6.3390978 8.8738102,6.3216055 8.6671832,6.3106729 8.2561158,6.2953672 7.8472349,6.3073931 7.4449135,6.3511237 6.6358978,6.4374916 5.8421878,6.6484916 5.11954,6.9884968 4.4012653,7.3295954 3.759519,7.8018856 3.2281925,8.3496113 2.6957727,8.8962436 2.2715861,9.5183112 1.9337674,10.168803 2.4115239,9.6156112 2.9581562,9.1225493 3.5561718,8.7475596 4.152001,8.3714766 4.8024933,8.1047199 5.4628251,7.9735281 6.1209703,7.832497 6.7933279,7.8215644 7.4460068,7.906839 7.6089032,7.927611 7.955468,7.99102 8.2976598,8.0588028 l -0.084181,0.096207 c -0.5116478,0.6319071 -0.921622,1.3414364 -1.190565,2.0925082 -0.2711296,0.748886 -0.392482,1.53385 -0.3804561,2.298042 0.00765,0.766379 0.1508705,1.505425 0.3738965,2.206208 C 6.9616906,14.018187 6.9977684,13.28898 7.1562917,12.59913 7.310442,11.90928 7.5859447,11.268627 7.9543748,10.70341 8.327178,10.139285 8.7896288,9.6538762 9.311116,9.2570208 9.504624,9.1105234 10.018458,8.7563057 10.394541,8.5146943 c 0.551005,0.6012954 1.052814,1.2332019 1.473721,1.9022797 0.74014,1.174166 1.260534,2.445633 1.528383,3.742245 0.268943,1.297704 0.291902,2.613995 0.123539,3.896394 -0.08418,0.63956 -0.474477,2.666472 -0.650492,3.273234 l -0.148684,0.453705 H 0.452394 V 22.6025 h 23.095212 v -0.819948 c 0,-0.0011 -7.014385,-0.0011 -7.014385,-0.0011 z"
     id="path3079"
     inkscape:connector-curvature="0"
     style="fill:#231f20" /></svg>