<?xml version="1.0" encoding="UTF-8" standalone="yes"?>
<svg xmlns="http://www.w3.org/2000/svg" xmlns:xlink="http://www.w3.org/1999/xlink" width="24px" height="24px" viewBox="0 0 18 18" version="1.1">
  <g id="surface1">
    <path style=" stroke:none;fill-rule:nonzero;fill:rgb(0%,0%,0%);fill-opacity:1;" d="M 14.660156 6.488281 C 14.628906 6.492188 14.601562 6.503906 14.574219 6.523438 L 6.132812 13.09375 C 5.558594 13.539062 5.011719 13.90625 4.917969 13.910156 C 4.859375 13.910156 4.800781 13.910156 4.742188 13.914062 C 4.496094 13.917969 4.234375 13.925781 3.960938 13.929688 C 2.929688 13.945312 2.101562 13.671875 1.527344 13.105469 C 0.886719 12.480469 0.660156 11.609375 0.660156 11 C 0.660156 10.914062 0.648438 8.867188 3.195312 8.644531 C 4.804688 8.503906 5.265625 9.222656 5.28125 9.246094 C 5.296875 9.273438 5.3125 9.296875 5.335938 9.316406 C 5.765625 9.746094 6 10.316406 6 10.925781 C 6 11.53125 5.765625 12.101562 5.335938 12.53125 C 5.003906 12.863281 4.5625 13.046875 4.097656 13.046875 C 3.628906 13.046875 3.1875 12.863281 2.855469 12.53125 C 2.335938 12.011719 2.335938 11.164062 2.855469 10.640625 C 3.046875 10.453125 3.296875 10.347656 3.566406 10.347656 C 3.832031 10.347656 4.085938 10.453125 4.273438 10.644531 C 4.347656 10.714844 4.402344 10.800781 4.4375 10.890625 C 4.40625 10.828125 4.359375 10.769531 4.308594 10.71875 C 3.964844 10.375 3.410156 10.375 3.070312 10.71875 C 2.875 10.910156 2.773438 11.164062 2.773438 11.433594 C 2.773438 11.703125 2.878906 11.960938 3.070312 12.152344 C 3.292969 12.375 3.589844 12.496094 3.90625 12.496094 C 4.222656 12.496094 4.519531 12.375 4.742188 12.152344 C 5.007812 11.886719 5.152344 11.535156 5.152344 11.164062 C 5.152344 10.789062 5.007812 10.4375 4.742188 10.175781 C 4.429688 9.863281 4.011719 9.6875 3.566406 9.6875 C 3.121094 9.6875 2.703125 9.859375 2.390625 10.175781 C 1.609375 10.953125 1.609375 12.222656 2.390625 13 C 2.84375 13.457031 3.453125 13.707031 4.097656 13.707031 C 4.742188 13.707031 5.347656 13.457031 5.804688 13 C 6.359375 12.445312 6.664062 11.707031 6.664062 10.925781 C 6.664062 10.152344 6.367188 9.425781 5.828125 8.875 C 5.679688 8.664062 4.980469 7.824219 3.136719 7.984375 C -0.0195312 8.265625 0 10.988281 0 11.007812 C 0 11.746094 0.277344 12.808594 1.0625 13.578125 C 1.773438 14.273438 2.757812 14.617188 3.972656 14.589844 C 4.246094 14.585938 4.507812 14.582031 4.757812 14.574219 C 7.210938 14.519531 8.441406 14.488281 9.648438 15.554688 C 9.710938 15.609375 9.789062 15.636719 9.867188 15.636719 C 9.957031 15.636719 10.046875 15.601562 10.113281 15.527344 C 10.128906 15.507812 10.136719 15.484375 10.148438 15.464844 C 10.171875 15.457031 10.195312 15.449219 10.214844 15.429688 L 17.929688 8.484375 C 17.992188 8.429688 18.003906 8.335938 17.953125 8.269531 C 17.898438 8.191406 16.554688 6.316406 14.660156 6.488281 Z M 3.535156 11.683594 C 3.46875 11.617188 3.433594 11.527344 3.433594 11.433594 C 3.433594 11.339844 3.46875 11.253906 3.535156 11.1875 C 3.578125 11.144531 3.632812 11.121094 3.6875 11.121094 C 3.742188 11.121094 3.796875 11.144531 3.839844 11.1875 C 3.867188 11.210938 3.871094 11.242188 3.871094 11.261719 C 3.871094 11.277344 3.867188 11.308594 3.839844 11.335938 C 3.710938 11.464844 3.710938 11.671875 3.839844 11.804688 C 3.851562 11.816406 3.863281 11.824219 3.878906 11.835938 C 3.75 11.828125 3.628906 11.773438 3.535156 11.683594 Z M 3.535156 11.683594 "/>
    <path style=" stroke:none;fill-rule:nonzero;fill:rgb(0%,0%,0%);fill-opacity:1;" d="M 14.613281 6.023438 C 14.640625 6 14.664062 5.972656 14.671875 5.9375 C 14.6875 5.882812 15.042969 4.597656 13.628906 3.386719 C 12.535156 2.449219 11.445312 2.347656 11.03125 2.347656 C 10.902344 2.347656 10.828125 2.355469 10.828125 2.355469 C 10.800781 2.359375 10.777344 2.367188 10.753906 2.382812 L 3.019531 7.675781 C 5.027344 7.5 5.933594 8.402344 6.132812 8.640625 C 6.734375 9.253906 7.066406 10.0625 7.066406 10.925781 C 7.066406 11.304688 7 11.671875 6.875 12.019531 Z M 14.613281 6.023438 "/>
  </g>
</svg>