<?xml version="1.0" encoding="UTF-8" standalone="yes"?>
<svg xmlns="http://www.w3.org/2000/svg" xmlns:xlink="http://www.w3.org/1999/xlink" width="24px" height="24px" viewBox="0 0 18 18" version="1.1">
  <g id="surface1">
    <path style=" stroke:none;fill-rule:nonzero;fill:rgb(0%,0%,0%);fill-opacity:1;" d="M 14.964844 13.300781 L 9.5 16.453125 L 9.5 12.382812 L 9.328125 12.46875 C 9.207031 12.515625 9.082031 12.539062 8.960938 12.539062 C 8.84375 12.539062 8.722656 12.515625 8.601562 12.472656 L 8.574219 12.46875 L 8.480469 12.425781 L 8.425781 12.394531 L 8.425781 16.453125 L 2.960938 13.300781 L 2.960938 9.644531 L 1.882812 9.101562 L 1.882812 13.609375 C 1.882812 13.800781 1.988281 13.980469 2.152344 14.074219 L 8.695312 17.851562 C 8.777344 17.902344 8.871094 17.925781 8.960938 17.925781 C 9.054688 17.925781 9.148438 17.902344 9.230469 17.851562 L 15.769531 14.074219 C 15.9375 13.980469 16.039062 13.800781 16.039062 13.609375 L 16.039062 9.101562 L 14.964844 9.640625 Z M 14.964844 13.300781 "/>
    <path style=" stroke:none;fill-rule:nonzero;fill:rgb(0%,0%,0%);fill-opacity:1;" d="M 9.351562 2.507812 L 9.128906 2.4375 C 9.023438 2.398438 8.902344 2.398438 8.792969 2.4375 L 8.574219 2.507812 C 8.71875 2.839844 8.847656 3.171875 8.960938 3.484375 C 9.078125 3.171875 9.207031 2.839844 9.351562 2.507812 Z M 9.351562 2.507812 "/>
    <path style=" stroke:none;fill-rule:nonzero;fill:rgb(0%,0%,0%);fill-opacity:1;" d="M 16.792969 5.328125 C 16.792969 5.328125 16.792969 5.324219 16.792969 5.320312 C 16.792969 5.308594 16.789062 5.296875 16.789062 5.285156 C 16.785156 5.25 16.777344 5.214844 16.765625 5.179688 C 16.761719 5.164062 16.753906 5.148438 16.746094 5.132812 C 16.734375 5.101562 16.71875 5.074219 16.699219 5.046875 C 16.691406 5.03125 16.679688 5.015625 16.667969 5.003906 C 16.648438 4.976562 16.625 4.953125 16.597656 4.933594 C 16.585938 4.921875 16.574219 4.910156 16.5625 4.902344 C 16.558594 4.898438 16.554688 4.894531 16.550781 4.894531 C 16.511719 4.867188 16.472656 4.847656 16.425781 4.832031 L 15.070312 4.386719 C 15.007812 4.457031 14.945312 4.523438 14.886719 4.582031 C 14.265625 5.199219 13.222656 5.714844 12.253906 6.097656 L 13.40625 6.566406 L 13.40625 9.222656 L 11.808594 10.027344 L 11.808594 7.253906 L 9.980469 6.285156 C 10.453125 6.160156 13.367188 5.339844 14.503906 4.199219 C 14.835938 3.867188 15.277344 3.355469 15.246094 2.71875 C 15.21875 2.085938 14.777344 1.714844 14.421875 1.417969 C 14.320312 1.332031 14.210938 1.242188 14.109375 1.140625 C 14.003906 1.039062 13.914062 0.929688 13.828125 0.828125 C 13.539062 0.480469 13.136719 0 12.46875 0 C 11.859375 0 11.367188 0.425781 11.046875 0.742188 C 9.90625 1.886719 9.089844 4.804688 8.960938 5.269531 C 8.835938 4.804688 8.015625 1.886719 6.875 0.742188 C 6.554688 0.425781 6.0625 0 5.453125 0 C 4.785156 0 4.386719 0.476562 4.09375 0.828125 C 4.007812 0.929688 3.917969 1.039062 3.816406 1.140625 C 3.714844 1.242188 3.605469 1.332031 3.503906 1.417969 C 3.148438 1.714844 2.703125 2.085938 2.675781 2.71875 C 2.648438 3.355469 3.085938 3.867188 3.417969 4.199219 C 4.558594 5.339844 7.472656 6.160156 7.945312 6.285156 L 6.113281 7.253906 L 6.113281 10.027344 L 4.515625 9.222656 L 4.515625 6.566406 L 5.671875 6.097656 C 4.699219 5.714844 3.65625 5.199219 3.039062 4.582031 C 2.980469 4.523438 2.917969 4.457031 2.855469 4.386719 L 1.5 4.832031 C 1.5 4.832031 1.5 4.832031 1.496094 4.832031 C 1.453125 4.847656 1.414062 4.867188 1.371094 4.894531 C 1.367188 4.894531 1.367188 4.898438 1.363281 4.902344 C 1.351562 4.910156 1.339844 4.921875 1.328125 4.929688 C 1.300781 4.953125 1.277344 4.976562 1.253906 5.003906 C 1.242188 5.015625 1.234375 5.03125 1.222656 5.046875 C 1.207031 5.074219 1.191406 5.101562 1.175781 5.132812 C 1.171875 5.148438 1.164062 5.164062 1.160156 5.179688 C 1.148438 5.214844 1.140625 5.25 1.136719 5.285156 C 1.136719 5.296875 1.132812 5.308594 1.128906 5.320312 C 1.128906 5.324219 1.132812 5.324219 1.132812 5.328125 C 1.132812 5.335938 1.128906 5.339844 1.128906 5.34375 L 1.128906 7.789062 C 1.128906 7.992188 1.246094 8.179688 1.425781 8.269531 L 8.71875 11.941406 C 8.726562 11.945312 8.734375 11.945312 8.742188 11.949219 C 8.8125 11.976562 8.886719 12 8.960938 12 C 9.039062 12 9.109375 11.976562 9.179688 11.949219 C 9.1875 11.945312 9.195312 11.945312 9.203125 11.941406 L 16.5 8.269531 C 16.679688 8.175781 16.792969 7.992188 16.792969 7.789062 L 16.792969 5.34375 C 16.792969 5.339844 16.792969 5.335938 16.792969 5.328125 Z M 11.621094 1.316406 C 12.671875 0.265625 12.898438 1.074219 13.539062 1.710938 C 14.179688 2.351562 14.984375 2.578125 13.933594 3.628906 C 12.882812 4.679688 9.734375 5.515625 9.734375 5.515625 C 9.734375 5.515625 10.570312 2.367188 11.621094 1.316406 Z M 4.386719 1.710938 C 5.027344 1.074219 5.253906 0.265625 6.304688 1.316406 C 7.355469 2.367188 8.191406 5.515625 8.191406 5.515625 C 8.191406 5.515625 5.039062 4.683594 3.988281 3.632812 C 2.9375 2.582031 3.746094 2.351562 4.386719 1.710938 Z M 4.386719 1.710938 "/>
  </g>
</svg>