<?xml version="1.0" encoding="UTF-8" standalone="yes"?>
<svg xmlns="http://www.w3.org/2000/svg" xmlns:xlink="http://www.w3.org/1999/xlink" width="24px" height="24px" viewBox="0 0 18 18" version="1.1">
  <g id="surface1">
    <path style=" stroke:none;fill-rule:nonzero;fill:rgb(0%,0%,0%);fill-opacity:1;" d="M 16.867188 15.085938 L 16.867188 14.097656 C 16.867188 13.429688 16.472656 13.035156 15.804688 13.035156 L 9.121094 13.035156 C 8.222656 13.035156 7.757812 13.464844 7.757812 14.097656 L 7.757812 15.378906 C 7.757812 16.042969 8.203125 16.375 9.121094 16.375 L 15.804688 16.375 C 16.472656 16.375 16.867188 15.929688 16.867188 15.085938 Z M 15.652344 15.160156 L 8.972656 15.160156 L 8.972656 14.25 L 15.652344 14.25 Z M 11.703125 6.054688 L 11.703125 8.957031 L 12.089844 10 L 11.441406 10 L 5.089844 1.152344 L 3.6875 1.996094 L 4.113281 2.738281 L 4.113281 6.660156 L 3.664062 6.660156 L 3.96875 8.785156 L 4.113281 8.785156 L 4.113281 9.425781 C 3.839844 9.550781 3.535156 9.816406 3.535156 10.296875 C 3.535156 10.617188 3.664062 10.851562 3.847656 11.011719 L 2.199219 12.429688 L 2.664062 12.429688 L 4.121094 11.171875 C 4.253906 11.222656 4.398438 11.253906 4.535156 11.253906 C 4.675781 11.253906 4.816406 11.214844 4.941406 11.148438 L 6.523438 12.429688 L 6.996094 12.429688 L 7 12.421875 L 5.179688 10.949219 C 5.304688 10.800781 5.386719 10.601562 5.386719 10.347656 C 5.386719 10.179688 5.25 10.042969 5.082031 10.042969 C 4.914062 10.042969 4.777344 10.179688 4.777344 10.347656 C 4.777344 10.457031 4.75 10.523438 4.710938 10.566406 L 4.628906 10.5 C 4.570312 10.453125 4.488281 10.457031 4.433594 10.503906 L 4.320312 10.601562 C 4.222656 10.554688 4.144531 10.46875 4.144531 10.296875 C 4.144531 10.023438 4.417969 9.957031 4.46875 9.945312 C 4.617188 9.921875 4.722656 9.792969 4.722656 9.648438 L 4.722656 8.785156 L 5.058594 8.785156 L 5.484375 6.660156 L 5.023438 6.660156 L 5.023438 4.457031 L 8.667969 11.46875 L 8.667969 11.820312 L 9.882812 11.820312 L 9.882812 12.429688 L 14.4375 12.429688 L 14.4375 11.820312 L 16.257812 11.820312 L 16.257812 6.054688 Z M 9.078125 7.632812 L 9.082031 7.636719 L 7.84375 8.441406 L 8.480469 6.808594 Z M 4.722656 6.660156 L 4.417969 6.660156 L 4.417969 3.3125 L 4.722656 3.882812 Z M 4.984375 3.566406 L 4.460938 2.570312 L 5.277344 2.03125 Z M 5.695312 2.652344 L 6.277344 3.664062 L 5.339844 4.269531 Z M 5.789062 4.847656 L 6.675781 4.273438 L 6.328125 5.851562 Z M 7.050781 4.789062 L 7.703125 5.742188 L 6.71875 6.367188 Z M 6.949219 7.09375 L 8.046875 6.34375 L 7.421875 8.015625 Z M 8.574219 9.984375 L 8.042969 9.046875 L 9.355469 8.109375 Z M 8.984375 10.644531 L 9.882812 8.710938 L 10.613281 9.707031 Z M 15.046875 9.089844 L 12.917969 9.089844 L 12.917969 7.265625 L 15.046875 7.265625 Z M 2.292969 14.25 L 1.988281 14.25 L 1.988281 14.859375 L 6.847656 14.859375 L 6.847656 14.25 L 6.238281 14.25 L 6.238281 13.339844 L 6.847656 13.339844 L 6.847656 12.734375 L 1.988281 12.734375 L 1.988281 13.339844 L 2.597656 13.339844 L 2.597656 14.25 Z M 2.292969 14.25 "/>
  </g>
</svg>