<?xml version="1.0" encoding="UTF-8" standalone="no"?>
<!-- Generator: Adobe Illustrator 16.0.0, SVG Export Plug-In . SVG Version: 6.00 Build 0)  -->

<svg
   xmlns:dc="http://purl.org/dc/elements/1.1/"
   xmlns:cc="http://creativecommons.org/ns#"
   xmlns:rdf="http://www.w3.org/1999/02/22-rdf-syntax-ns#"
   xmlns:svg="http://www.w3.org/2000/svg"
   xmlns="http://www.w3.org/2000/svg"
   xmlns:sodipodi="http://sodipodi.sourceforge.net/DTD/sodipodi-0.dtd"
   xmlns:inkscape="http://www.inkscape.org/namespaces/inkscape"
   version="1.1"
   id="Capa_1"
   x="0px"
   y="0px"
   width="24"
   height="24"
   viewBox="0 0 24 24"
   xml:space="preserve"
   inkscape:version="0.48.5 r10040"
   sodipodi:docname="jazebe_toristi.svg"><metadata
     id="metadata3588"><rdf:RDF><cc:Work
         rdf:about=""><dc:format>image/svg+xml</dc:format><dc:type
           rdf:resource="http://purl.org/dc/dcmitype/StillImage" /><dc:title></dc:title></cc:Work></rdf:RDF></metadata><defs
     id="defs3586" /><sodipodi:namedview
     pagecolor="#ffffff"
     bordercolor="#666666"
     borderopacity="1"
     objecttolerance="10"
     gridtolerance="10"
     guidetolerance="10"
     inkscape:pageopacity="0"
     inkscape:pageshadow="2"
     inkscape:window-width="657"
     inkscape:window-height="480"
     id="namedview3584"
     showgrid="false"
     inkscape:zoom="3.9177196"
     inkscape:cx="13.970403"
     inkscape:cy="10.242655"
     inkscape:window-x="0"
     inkscape:window-y="27"
     inkscape:window-maximized="0"
     inkscape:current-layer="Capa_1" /><g
     id="g3516"
     transform="matrix(0.04872747,0,0,0.04872747,0.25880431,0.25883143)"><g
       id="g3518"><path
         d="m 339.003,290.848 c 3.711,0 7.231,-1.649 9.606,-4.502 l 62.443,-74.996 c 3.104,-3.727 3.771,-8.911 1.713,-13.303 -2.058,-4.391 -6.47,-7.195 -11.318,-7.195 h -147.99 v -33.367 h 1.43 c 6.903,0 12.5,-5.597 12.5,-12.5 0,-6.903 -5.597,-12.5 -12.5,-12.5 h -27.86 c -6.903,0 -12.5,5.597 -12.5,12.5 0,6.903 5.597,12.5 12.5,12.5 h 1.43 v 33.367 H 80.464 c -4.849,0 -9.261,2.805 -11.318,7.195 -2.059,4.392 -1.391,9.576 1.712,13.303 l 62.445,74.996 c 2.375,2.853 5.895,4.502 9.606,4.502 h 37.747 v 91.068 h -37.748 c -3.711,0 -7.231,1.649 -9.606,4.502 l -62.445,74.996 c -3.103,3.727 -3.771,8.911 -1.712,13.303 2.057,4.392 6.469,7.195 11.318,7.195 h 320.985 c 4.849,0 9.261,-2.805 11.318,-7.195 2.059,-4.392 1.391,-9.576 -1.713,-13.303 L 348.61,386.418 c -2.375,-2.853 -5.896,-4.502 -9.606,-4.502 h -37.747 v -91.068 h 37.746 z m -50.247,116.069 h 44.391 l 41.629,49.996 H 107.138 l 41.629,-49.996 h 44.39 c 6.904,0 12.5,-5.597 12.5,-12.5 V 278.348 c 0,-6.903 -5.596,-12.5 -12.5,-12.5 h -44.39 l -41.629,-49.996 h 267.638 l -41.629,49.996 h -44.391 c -6.904,0 -12.5,5.597 -12.5,12.5 v 116.068 c 0,6.904 5.596,12.501 12.5,12.501 z"
         id="path3520"
         inkscape:connector-curvature="0" /><path
         d="m 421.743,94.591 c -0.003,-10e-4 -1.339,-0.823 -5.812,-0.823 -3.458,0 -7.211,0.481 -10.438,1.05 1.626,8.654 4.094,14.346 5.463,15.298 1.593,1.105 3.452,1.69 5.378,1.69 3.103,0 6.011,-1.518 7.778,-4.06 2.972,-4.278 1.91,-10.18 -2.369,-13.155 z"
         id="path3522"
         inkscape:connector-curvature="0" /><path
         d="m 357.42,76.491 c 6.803,6.489 12.632,9.976 14.924,9.997 l 0.077,-0.002 c 2.753,-0.083 5.343,-1.249 7.256,-3.281 1.913,-2.033 2.92,-4.69 2.836,-7.48 -0.177,-5.804 -4.922,-10.313 -10.756,-10.13 -2.236,0.068 -8.015,4.113 -14.337,10.896 z"
         id="path3524"
         inkscape:connector-curvature="0" /><path
         d="m 306.144,90.562 c 4.094,1.187 10.255,2.687 15.229,2.687 3.014,0 4.177,-0.578 4.38,-0.694 2.654,-1.519 4.56,-3.98 5.362,-6.932 0.802,-2.951 0.408,-6.039 -1.111,-8.694 -2.035,-3.557 -5.851,-5.767 -9.956,-5.767 -1.977,0 -3.938,0.524 -5.67,1.516 -2.554,1.462 -5.923,8.841 -8.234,17.884 z"
         id="path3526"
         inkscape:connector-curvature="0" /><path
         d="m 263.282,95.272 c -3.338,3.082 -4.654,14.053 -4.687,22.617 1.959,0.147 4.438,0.276 7.083,0.276 11.566,0 15.062,-2.398 15.857,-3.134 2.64,-2.438 4.171,-5.757 4.312,-9.347 0.144,-3.591 -1.122,-7.021 -3.561,-9.659 -2.576,-2.789 -6.087,-4.325 -9.887,-4.325 -3.386,10e-4 -6.626,1.27 -9.117,3.572 z"
         id="path3528"
         inkscape:connector-curvature="0" /><path
         d="m 76.421,94.817 c -3.229,-0.568 -6.981,-1.05 -10.439,-1.05 -4.473,0 -5.809,0.822 -5.812,0.823 -4.279,2.976 -5.342,8.877 -2.368,13.155 1.768,2.542 4.676,4.06 7.778,4.06 1.926,0 3.785,-0.585 5.378,-1.69 1.369,-0.952 3.837,-6.643 5.463,-15.298 z"
         id="path3530"
         inkscape:connector-curvature="0" /><path
         d="m 109.491,86.486 0.077,0.002 c 2.292,-0.021 8.121,-3.508 14.924,-9.997 -6.321,-6.783 -12.101,-10.828 -14.337,-10.896 -5.834,-0.183 -10.579,4.326 -10.756,10.13 -0.084,2.79 0.923,5.447 2.836,7.48 1.913,2.032 4.503,3.198 7.256,3.281 z"
         id="path3532"
         inkscape:connector-curvature="0" /><path
         d="m 156.159,92.555 c 0.203,0.116 1.366,0.694 4.38,0.694 4.976,0 11.137,-1.5 15.229,-2.687 -2.311,-9.043 -5.68,-16.423 -8.234,-17.885 -1.732,-0.991 -3.693,-1.516 -5.67,-1.516 -4.105,0 -7.921,2.21 -9.956,5.767 -1.52,2.655 -1.913,5.743 -1.111,8.694 0.804,2.952 2.708,5.414 5.362,6.933 z"
         id="path3534"
         inkscape:connector-curvature="0" /><path
         d="m 216.233,118.166 c 2.646,0 5.124,-0.129 7.083,-0.276 -0.031,-8.564 -1.349,-19.535 -4.686,-22.617 -2.492,-2.303 -5.731,-3.571 -9.121,-3.571 -3.799,0 -7.31,1.536 -9.886,4.325 -2.438,2.639 -3.703,6.068 -3.561,9.659 0.142,3.59 1.673,6.909 4.313,9.347 0.797,0.735 4.292,3.133 15.858,3.133 z"
         id="path3536"
         inkscape:connector-curvature="0" /><path
         d="m 398.658,35.243 c 1.795,0.731 3.736,0.897 5.617,0.478 3.026,-0.676 5.534,-2.791 6.705,-5.658 1.971,-4.823 -0.354,-10.351 -5.179,-12.322 -0.004,0 -1.485,-0.512 -5.852,0.463 -3.375,0.754 -6.934,2.042 -9.959,3.301 3.474,8.091 7.123,13.107 8.668,13.738 z"
         id="path3538"
         inkscape:connector-curvature="0" /><path
         d="m 355.826,20.6 0.075,-0.019 c 2.668,-0.682 4.941,-2.384 6.365,-4.784 1.425,-2.401 1.828,-5.214 1.138,-7.919 -1.438,-5.625 -7.05,-8.991 -12.706,-7.542 -2.167,0.555 -6.925,5.762 -11.617,13.76 8.053,4.85 14.502,6.982 16.745,6.504 z"
         id="path3540"
         inkscape:connector-curvature="0" /><path
         d="m 307.553,38.308 c 2.941,-0.657 3.95,-1.475 4.123,-1.632 2.261,-2.061 3.582,-4.879 3.723,-7.935 0.14,-3.055 -0.918,-5.982 -2.979,-8.243 -2.762,-3.027 -6.967,-4.353 -10.974,-3.457 -1.93,0.43 -3.729,1.369 -5.203,2.715 -2.175,1.983 -3.855,9.92 -4.14,19.249 4.254,0.266 10.595,0.388 15.45,-0.697 z"
         id="path3542"
         inkscape:connector-curvature="0" /><path
         d="m 258.628,74.765 c 11.289,-2.521 14.177,-5.623 14.793,-6.515 2.045,-2.954 2.814,-6.527 2.171,-10.063 -0.644,-3.535 -2.625,-6.606 -5.58,-8.65 -3.122,-2.16 -6.883,-2.895 -10.591,-2.066 -3.308,0.739 -6.193,2.683 -8.124,5.474 -2.584,3.735 -1.479,14.729 0.355,23.095 1.948,-0.284 4.394,-0.698 6.976,-1.275 z"
         id="path3544"
         inkscape:connector-curvature="0" /><path
         d="m 77.638,35.721 c 1.88,0.42 3.823,0.254 5.617,-0.478 1.544,-0.631 5.193,-5.647 8.666,-13.739 -3.026,-1.259 -6.584,-2.547 -9.959,-3.301 -4.365,-0.975 -5.849,-0.463 -5.851,-0.463 -4.825,1.972 -7.148,7.499 -5.179,12.322 1.171,2.868 3.679,4.983 6.706,5.659 z"
         id="path3546"
         inkscape:connector-curvature="0" /><path
         d="m 126.012,20.581 0.075,0.019 c 2.242,0.479 8.691,-1.653 16.745,-6.504 -4.692,-7.998 -9.45,-13.205 -11.617,-13.76 -5.654,-1.449 -11.268,1.917 -12.705,7.542 -0.69,2.705 -0.288,5.518 1.137,7.919 1.423,2.4 3.697,4.102 6.365,4.784 z"
         id="path3548"
         inkscape:connector-curvature="0" /><path
         d="m 174.359,38.308 c 4.856,1.085 11.196,0.964 15.449,0.697 -0.284,-9.329 -1.964,-17.266 -4.139,-19.249 -1.475,-1.346 -3.274,-2.285 -5.203,-2.715 -4.007,-0.896 -8.212,0.43 -10.974,3.457 -2.062,2.261 -3.119,5.188 -2.979,8.243 0.141,3.056 1.463,5.874 3.723,7.935 0.173,0.157 1.182,0.974 4.123,1.632 z"
         id="path3550"
         inkscape:connector-curvature="0" /><path
         d="m 223.284,74.765 c 2.582,0.577 5.029,0.991 6.973,1.274 1.836,-8.365 2.941,-19.359 0.356,-23.095 -1.93,-2.791 -4.816,-4.734 -8.124,-5.474 -3.708,-0.828 -7.469,-0.094 -10.591,2.066 -2.955,2.044 -4.936,5.115 -5.58,8.65 -0.645,3.535 0.126,7.108 2.171,10.063 0.617,0.893 3.506,3.995 14.795,6.516 z"
         id="path3552"
         inkscape:connector-curvature="0" /></g></g><g
     id="g3554"
     transform="translate(0,-457.913)" /><g
     id="g3556"
     transform="translate(0,-457.913)" /><g
     id="g3558"
     transform="translate(0,-457.913)" /><g
     id="g3560"
     transform="translate(0,-457.913)" /><g
     id="g3562"
     transform="translate(0,-457.913)" /><g
     id="g3564"
     transform="translate(0,-457.913)" /><g
     id="g3566"
     transform="translate(0,-457.913)" /><g
     id="g3568"
     transform="translate(0,-457.913)" /><g
     id="g3570"
     transform="translate(0,-457.913)" /><g
     id="g3572"
     transform="translate(0,-457.913)" /><g
     id="g3574"
     transform="translate(0,-457.913)" /><g
     id="g3576"
     transform="translate(0,-457.913)" /><g
     id="g3578"
     transform="translate(0,-457.913)" /><g
     id="g3580"
     transform="translate(0,-457.913)" /><g
     id="g3582"
     transform="translate(0,-457.913)" /></svg>