<?xml version="1.0" encoding="UTF-8" standalone="no"?>
<!-- Generator: Adobe Illustrator 16.0.0, SVG Export Plug-In . SVG Version: 6.00 Build 0)  -->

<svg
   xmlns:dc="http://purl.org/dc/elements/1.1/"
   xmlns:cc="http://creativecommons.org/ns#"
   xmlns:rdf="http://www.w3.org/1999/02/22-rdf-syntax-ns#"
   xmlns:svg="http://www.w3.org/2000/svg"
   xmlns="http://www.w3.org/2000/svg"
   xmlns:sodipodi="http://sodipodi.sourceforge.net/DTD/sodipodi-0.dtd"
   xmlns:inkscape="http://www.inkscape.org/namespaces/inkscape"
   version="1.1"
   id="Capa_1"
   x="0px"
   y="0px"
   width="24"
   height="24"
   viewBox="0 0 24 24"
   xml:space="preserve"
   inkscape:version="0.48.5 r10040"
   sodipodi:docname="jegar.svg"><metadata
     id="metadata3153"><rdf:RDF><cc:Work
         rdf:about=""><dc:format>image/svg+xml</dc:format><dc:type
           rdf:resource="http://purl.org/dc/dcmitype/StillImage" /><dc:title></dc:title></cc:Work></rdf:RDF></metadata><defs
     id="defs3151" /><sodipodi:namedview
     pagecolor="#ffffff"
     bordercolor="#666666"
     borderopacity="1"
     objecttolerance="10"
     gridtolerance="10"
     guidetolerance="10"
     inkscape:pageopacity="0"
     inkscape:pageshadow="2"
     inkscape:window-width="657"
     inkscape:window-height="480"
     id="namedview3149"
     showgrid="false"
     inkscape:zoom="5.3792391"
     inkscape:cx="14.428925"
     inkscape:cy="18.9331"
     inkscape:window-x="0"
     inkscape:window-y="27"
     inkscape:window-maximized="0"
     inkscape:current-layer="Capa_1" /><g
     id="g3068"
     transform="matrix(0.06464699,0,0,0.06464699,0.65504855,0.65512188)"><g
       id="g3070"><g
         id="Layer_5_43_"><g
           id="g3073"><g
             id="g3075"><g
               id="g3077"><path
                 d="M 260.254,22.591 C 259.423,21.87 259.333,20.6 260.056,19.77 L 276.618,0.686 c 0.722,-0.831 1.991,-0.92 2.821,-0.199 l 3.649,3.168 c 0.831,0.721 0.921,1.991 0.198,2.821 L 266.724,25.56 c -0.722,0.831 -1.99,0.92 -2.821,0.199 l -3.649,-3.168 z"
                 id="path3079"
                 inkscape:connector-curvature="0" /><path
                 d="m 33.761,283.547 c -0.831,-0.723 -0.921,-1.992 -0.2,-2.822 L 69.31,239.537 c 0.721,-0.83 1.991,-0.92 2.822,-0.197 l 3.65,3.168 c 0.831,0.721 0.92,1.99 0.2,2.82 l -35.749,41.188 c -0.721,0.83 -1.99,0.92 -2.821,0.199 l -3.651,-3.168 z"
                 id="path3081"
                 inkscape:connector-curvature="0" /></g><path
               d="m 201.277,80.745 c -6.23,-5.408 -6.904,-14.93 -1.496,-21.161 l 9.504,-10.951 c 5.407,-6.23 14.931,-6.904 21.16,-1.496 l 13.352,11.588 c 6.229,5.408 6.903,14.93 1.495,21.161 l -9.504,10.951 c -5.407,6.23 -14.93,6.904 -21.159,1.496 L 201.277,80.745 z"
               id="path3083"
               inkscape:connector-curvature="0" /><path
               d="m 146.758,143.558 c -6.23,-5.408 -6.904,-14.93 -1.496,-21.16 l 9.504,-10.951 c 5.408,-6.23 14.93,-6.904 21.161,-1.496 l 13.352,11.588 c 6.229,5.408 6.903,14.93 1.496,21.16 l -9.504,10.951 c -5.409,6.23 -14.931,6.904 -21.162,1.496 l -13.351,-11.588 z"
               id="path3085"
               inkscape:connector-curvature="0" /><path
               d="m 176.075,96.05 c -2.492,-2.163 -2.762,-5.972 -0.599,-8.464 l 3.594,-4.14 c 2.163,-2.492 5.972,-2.762 8.464,-0.599 l 26.945,23.387 c 2.492,2.163 2.762,5.972 0.599,8.464 l -3.593,4.141 c -2.163,2.492 -5.973,2.761 -8.464,0.598 L 176.075,96.05 z"
               id="path3087"
               inkscape:connector-curvature="0" /><path
               d="m 121.557,158.864 c -2.492,-2.163 -2.761,-5.972 -0.598,-8.464 l 3.593,-4.14 c 2.163,-2.492 5.972,-2.761 8.464,-0.598 l 26.945,23.386 c 2.492,2.163 2.762,5.972 0.599,8.464 l -3.594,4.141 c -2.163,2.49 -5.972,2.762 -8.464,0.598 l -26.945,-23.387 z"
               id="path3089"
               inkscape:connector-curvature="0" /><path
               d="m 92.24,206.369 c -6.23,-5.406 -6.904,-14.93 -1.496,-21.158 l 9.504,-10.952 c 5.408,-6.23 14.93,-6.904 21.16,-1.496 l 13.351,11.588 c 6.23,5.408 6.904,14.93 1.496,21.16 l -9.504,10.951 c -5.408,6.23 -14.93,6.902 -21.16,1.496 L 92.24,206.369 z"
               id="path3091"
               inkscape:connector-curvature="0" /><path
               d="m 67.039,221.676 c -2.492,-2.162 -2.762,-5.973 -0.599,-8.463 l 3.594,-4.141 c 2.163,-2.492 5.972,-2.764 8.464,-0.6 l 26.945,23.387 c 2.492,2.164 2.761,5.973 0.598,8.465 l -3.593,4.141 c -2.163,2.49 -5.972,2.762 -8.464,0.6 L 67.039,221.676 z"
               id="path3093"
               inkscape:connector-curvature="0" /><path
               d="m 230.592,33.236 c -2.491,-2.163 -2.762,-5.972 -0.599,-8.464 l 3.594,-4.14 c 2.162,-2.493 5.973,-2.762 8.464,-0.599 l 26.944,23.387 c 2.492,2.163 2.762,5.972 0.6,8.464 L 266,56.024 c -2.162,2.492 -5.972,2.762 -8.464,0.599 L 230.592,33.236 z"
               id="path3095"
               inkscape:connector-curvature="0" /></g><g
             id="g3097"><g
               id="g3099"><path
                 d="m 316.916,195.572 c -0.477,-0.99 -0.057,-2.191 0.936,-2.67 l 22.767,-10.963 c 0.991,-0.477 2.192,-0.057 2.67,0.934 l 2.098,4.355 c 0.479,0.99 0.058,2.191 -0.935,2.67 l -22.767,10.963 c -0.991,0.479 -2.193,0.059 -2.67,-0.936 l -2.099,-4.353 z"
                 id="path3101"
                 inkscape:connector-curvature="0" /><path
                 d="m 5.594,345.492 c -0.478,-0.99 -0.057,-2.191 0.934,-2.668 L 55.666,319.16 c 0.991,-0.479 2.192,-0.057 2.669,0.936 l 2.097,4.354 c 0.477,0.992 0.057,2.191 -0.934,2.67 L 10.36,350.783 c -0.991,0.477 -2.192,0.057 -2.67,-0.936 l -2.096,-4.355 z"
                 id="path3103"
                 inkscape:connector-curvature="0" /></g><path
               d="m 239.729,225.615 c -3.58,-7.434 -0.428,-16.443 7.006,-20.023 l 13.063,-6.291 c 7.434,-3.58 16.442,-0.426 20.021,7.006 l 7.67,15.93 c 3.58,7.434 0.426,16.441 -7.007,20.021 l -13.063,6.291 c -7.434,3.58 -16.442,0.426 -20.021,-7.006 l -7.669,-15.928 z"
               id="path3105"
               inkscape:connector-curvature="0" /><path
               d="m 164.793,261.701 c -3.58,-7.434 -0.426,-16.443 7.007,-20.023 l 13.064,-6.291 c 7.434,-3.58 16.442,-0.426 20.021,7.006 l 7.67,15.93 c 3.58,7.434 0.428,16.441 -7.006,20.021 l -13.063,6.291 c -7.434,3.58 -16.443,0.428 -20.022,-7.006 l -7.671,-15.928 z"
               id="path3107"
               inkscape:connector-curvature="0" /><path
               d="m 210.528,229.688 c -1.433,-2.973 -0.171,-6.576 2.802,-8.01 l 4.938,-2.377 c 2.974,-1.434 6.577,-0.172 8.01,2.803 l 15.479,32.146 c 1.433,2.973 0.172,6.576 -2.803,8.008 l -4.938,2.379 c -2.974,1.434 -6.577,0.17 -8.01,-2.803 l -15.478,-32.146 z"
               id="path3109"
               inkscape:connector-curvature="0" /><path
               d="m 135.59,265.775 c -1.432,-2.975 -0.171,-6.578 2.803,-8.01 l 4.939,-2.379 c 2.973,-1.432 6.578,-0.17 8.009,2.803 l 15.48,32.146 c 1.432,2.973 0.17,6.576 -2.803,8.008 l -4.939,2.379 c -2.973,1.432 -6.577,0.17 -8.009,-2.803 l -15.48,-32.144 z"
               id="path3111"
               inkscape:connector-curvature="0" /><path
               d="m 89.855,297.787 c -3.579,-7.434 -0.426,-16.443 7.007,-20.021 l 13.064,-6.291 c 7.433,-3.58 16.443,-0.428 20.023,7.006 l 7.67,15.928 c 3.58,7.434 0.427,16.443 -7.006,20.023 l -13.064,6.291 c -7.433,3.58 -16.443,0.428 -20.023,-7.006 l -7.671,-15.93 z"
               id="path3113"
               inkscape:connector-curvature="0" /><path
               d="m 60.654,301.861 c -1.432,-2.975 -0.17,-6.578 2.803,-8.01 l 4.939,-2.379 c 2.974,-1.432 6.578,-0.17 8.009,2.803 l 15.48,32.146 c 1.432,2.975 0.17,6.578 -2.803,8.01 l -4.939,2.379 c -2.974,1.432 -6.578,0.17 -8.009,-2.805 l -15.48,-32.144 z"
               id="path3115"
               inkscape:connector-curvature="0" /><path
               d="m 285.463,193.602 c -1.433,-2.973 -0.17,-6.576 2.804,-8.008 l 4.938,-2.379 c 2.975,-1.432 6.577,-0.17 8.01,2.803 l 15.479,32.146 c 1.432,2.975 0.171,6.578 -2.803,8.01 l -4.939,2.379 c -2.973,1.434 -6.578,0.17 -8.009,-2.803 l -15.48,-32.148 z"
               id="path3117"
               inkscape:connector-curvature="0" /></g></g></g></g></g><g
     id="g3119"
     transform="translate(0,-326.979)" /><g
     id="g3121"
     transform="translate(0,-326.979)" /><g
     id="g3123"
     transform="translate(0,-326.979)" /><g
     id="g3125"
     transform="translate(0,-326.979)" /><g
     id="g3127"
     transform="translate(0,-326.979)" /><g
     id="g3129"
     transform="translate(0,-326.979)" /><g
     id="g3131"
     transform="translate(0,-326.979)" /><g
     id="g3133"
     transform="translate(0,-326.979)" /><g
     id="g3135"
     transform="translate(0,-326.979)" /><g
     id="g3137"
     transform="translate(0,-326.979)" /><g
     id="g3139"
     transform="translate(0,-326.979)" /><g
     id="g3141"
     transform="translate(0,-326.979)" /><g
     id="g3143"
     transform="translate(0,-326.979)" /><g
     id="g3145"
     transform="translate(0,-326.979)" /><g
     id="g3147"
     transform="translate(0,-326.979)" /></svg>