<?xml version="1.0" encoding="UTF-8" standalone="yes"?>
<svg xmlns="http://www.w3.org/2000/svg" xmlns:xlink="http://www.w3.org/1999/xlink" width="24px" height="24px" viewBox="0 0 18 18" version="1.1">
  <g id="surface1">
    <path style=" stroke:none;fill-rule:nonzero;fill:rgb(0%,0%,0%);fill-opacity:1;" d="M 7.238281 6.351562 C 7.828125 6.355469 8.308594 5.878906 8.3125 5.289062 C 8.316406 4.699219 7.839844 4.214844 7.25 4.214844 C 6.65625 4.210938 6.175781 4.6875 6.171875 5.277344 C 6.171875 5.867188 6.644531 6.347656 7.238281 6.351562 Z M 7.238281 6.351562 "/>
    <path style=" stroke:none;fill-rule:nonzero;fill:rgb(0%,0%,0%);fill-opacity:1;" d="M 1.496094 11.238281 L 1.789062 11.238281 C 2.632812 10.855469 3.679688 10.9375 4.425781 11.496094 C 4.867188 11.175781 5.40625 11 5.953125 11.003906 C 5.953125 11.003906 5.957031 11.003906 5.957031 11.003906 C 6.503906 11.003906 7.039062 11.1875 7.476562 11.511719 C 8.355469 10.871094 9.652344 10.875 10.535156 11.53125 C 11.417969 10.882812 12.714844 10.890625 13.589844 11.546875 C 13.984375 11.257812 14.460938 11.109375 14.945312 11.082031 L 16.710938 9.148438 C 16.804688 9.042969 16.832031 8.894531 16.773438 8.765625 C 16.71875 8.636719 16.59375 8.554688 16.453125 8.554688 L 13.605469 8.539062 L 10.722656 6.140625 C 10.476562 5.933594 10.164062 5.820312 9.84375 5.816406 L 9.410156 5.816406 C 9.191406 5.816406 8.992188 5.941406 8.898438 6.132812 C 8.804688 6.332031 8.832031 6.566406 8.964844 6.734375 L 10.394531 8.519531 L 8.421875 8.507812 L 9.195312 8.191406 C 9.425781 8.097656 9.539062 7.835938 9.441406 7.605469 C 9.351562 7.378906 9.089844 7.265625 8.859375 7.359375 L 8.050781 7.691406 L 7.15625 6.984375 C 7.152344 6.980469 7.152344 6.976562 7.152344 6.972656 C 7.046875 6.742188 6.859375 6.5625 6.621094 6.472656 L 6.617188 6.46875 C 6.128906 6.285156 5.578125 6.53125 5.390625 7.019531 L 4.832031 8.488281 L 2.929688 8.480469 L 2.175781 8.472656 C 1.9375 8.472656 1.71875 8.617188 1.625 8.835938 L 0.949219 10.40625 C 0.871094 10.589844 0.890625 10.800781 1 10.96875 C 1.109375 11.136719 1.296875 11.238281 1.496094 11.238281 Z M 9.40625 6.414062 L 9.84375 6.417969 C 10.023438 6.417969 10.203125 6.480469 10.339844 6.597656 L 12.664062 8.53125 L 11.15625 8.523438 Z M 6.867188 8.5 L 7.042969 8.039062 L 7.632812 8.503906 Z M 6.867188 8.5 "/>
    <path style=" stroke:none;fill-rule:nonzero;fill:rgb(0%,0%,0%);fill-opacity:1;" d="M 17.828125 12.457031 C 17.59375 12.222656 17.214844 12.21875 16.980469 12.453125 C 16.792969 12.640625 16.484375 12.636719 16.300781 12.449219 C 15.671875 11.816406 14.558594 11.808594 13.925781 12.433594 L 13.917969 12.445312 C 13.734375 12.617188 13.421875 12.609375 13.246094 12.433594 C 12.613281 11.792969 11.507812 11.789062 10.871094 12.417969 C 10.6875 12.601562 10.371094 12.597656 10.1875 12.414062 L 10.15625 12.382812 C 9.523438 11.777344 8.441406 11.785156 7.8125 12.402344 C 7.632812 12.582031 7.316406 12.582031 7.132812 12.398438 C 6.824219 12.085938 6.390625 11.902344 5.949219 11.898438 C 5.507812 11.898438 5.074219 12.074219 4.757812 12.386719 C 4.578125 12.5625 4.257812 12.5625 4.078125 12.382812 C 3.449219 11.742188 2.34375 11.738281 1.707031 12.367188 C 1.515625 12.554688 1.207031 12.550781 1.023438 12.363281 C 0.792969 12.128906 0.410156 12.128906 0.175781 12.359375 C -0.0585938 12.59375 -0.0585938 12.972656 0.171875 13.207031 C 0.824219 13.863281 1.886719 13.871094 2.546875 13.21875 C 2.730469 13.039062 3.046875 13.039062 3.226562 13.222656 C 3.859375 13.859375 4.964844 13.867188 5.601562 13.234375 C 5.691406 13.148438 5.816406 13.097656 5.941406 13.097656 L 5.945312 13.097656 C 6.070312 13.097656 6.191406 13.148438 6.285156 13.242188 C 6.601562 13.558594 7.019531 13.734375 7.464844 13.738281 C 7.914062 13.742188 8.335938 13.570312 8.65625 13.253906 C 8.839844 13.074219 9.15625 13.074219 9.335938 13.253906 L 9.371094 13.289062 C 10.003906 13.894531 11.085938 13.890625 11.710938 13.269531 C 11.894531 13.089844 12.210938 13.089844 12.394531 13.273438 C 13.023438 13.910156 14.128906 13.917969 14.765625 13.285156 L 14.773438 13.277344 C 14.957031 13.105469 15.269531 13.109375 15.449219 13.289062 C 16.097656 13.949219 17.164062 13.953125 17.824219 13.304688 C 18.058594 13.070312 18.058594 12.691406 17.828125 12.457031 Z M 17.828125 12.457031 "/>
  </g>
</svg>