<?xml version="1.0" encoding="utf-8"?>
<!-- Generator: Adobe Illustrator 15.1.0, SVG Export Plug-In . SVG Version: 6.00 Build 0)  -->
<!DOCTYPE svg PUBLIC "-//W3C//DTD SVG 1.1//EN" "http://www.w3.org/Graphics/SVG/1.1/DTD/svg11.dtd">
<svg version="1.1"
	 id="svg3175" xmlns:svg="http://www.w3.org/2000/svg" xmlns:inkscape="http://www.inkscape.org/namespaces/inkscape" xmlns:sodipodi="http://sodipodi.sourceforge.net/DTD/sodipodi-0.dtd" xmlns:rdf="http://www.w3.org/1999/02/22-rdf-syntax-ns#" xmlns:dc="http://purl.org/dc/elements/1.1/" xmlns:cc="http://creativecommons.org/ns#" inkscape:version="0.48.5 r10040" sodipodi:docname="office.svg"
	 xmlns="http://www.w3.org/2000/svg" xmlns:xlink="http://www.w3.org/1999/xlink" x="0px" y="0px" width="24px" height="24px"
	 viewBox="0 0 24 24" enable-background="new 0 0 24 24" xml:space="preserve">
<path id="path3089" inkscape:connector-curvature="0" d="M17.415,5.956l-2.579,5.724h-0.75l2.75-6.094h-4.247v14.198
	c0.876,0.032,5.341,1.48,5.341,1.48v0.698H5.928v-0.744c0,0,4.565-1.436,5.251-1.436V5.586H7.068L9.82,11.68H9.068L6.49,5.956
	l-2.58,5.724H3.16l2.768-6.127V4.846h4.617c0-0.925,0.619-1.68,1.342-1.68c0.764,0,1.342,0.798,1.342,1.68h4.702v0.606l2.813,6.228
	h-0.75L17.415,5.956z M9.867,12.378c0,1.842-1.277,3.611-3.376,3.611c-2.051,0-3.376-1.77-3.376-3.611
	C3.114,12.381,9.867,12.381,9.867,12.378z M14.134,12.378c0,0.003,6.751,0.003,6.751,0c0,1.842-1.276,3.611-3.374,3.611
	C15.457,15.989,14.134,14.22,14.134,12.378z"/>
</svg>
