<?xml version="1.0" encoding="utf-8"?>
<!-- Generator: Adobe Illustrator 15.1.0, SVG Export Plug-In . SVG Version: 6.00 Build 0)  -->
<!DOCTYPE svg PUBLIC "-//W3C//DTD SVG 1.1//EN" "http://www.w3.org/Graphics/SVG/1.1/DTD/svg11.dtd">
<svg version="1.1"
	 id="Layer_1" inkscape:version="0.48.5 r10040" sodipodi:docname="bank-kar-afarin.svg" xmlns:dc="http://purl.org/dc/elements/1.1/" xmlns:cc="http://creativecommons.org/ns#" xmlns:rdf="http://www.w3.org/1999/02/22-rdf-syntax-ns#" xmlns:svg="http://www.w3.org/2000/svg" xmlns:sodipodi="http://sodipodi.sourceforge.net/DTD/sodipodi-0.dtd" xmlns:inkscape="http://www.inkscape.org/namespaces/inkscape"
	 xmlns="http://www.w3.org/2000/svg" xmlns:xlink="http://www.w3.org/1999/xlink" x="0px" y="0px" width="24px" height="24px"
	 viewBox="0 0 24 24" enable-background="new 0 0 24 24" xml:space="preserve">
<path d="M7.468,15.07c0,0,0.548-0.642,1.082-0.676c0.532-0.035,3.213,1.056,5.909,0.761c2.695-0.296,5.053-1.216,6.473-2.313
	c0,0,0.178-0.291,0.032-0.84l-0.122,0.011c-0.357,0.281-3.342,2.524-7.209,2.524c-0.275,0-0.553-0.012-0.824-0.035
	c-1.865-0.159-2.866-0.402-3.465-0.548c-0.321-0.079-0.535-0.131-0.708-0.131c-0.224,0-0.43,0.09-0.881,0.383L7.67,14.262
	l-0.101-0.007L3.144,13.95c-0.08,0.284-0.146,0.695,0.03,0.958C3.464,15.344,7.468,15.07,7.468,15.07z M3.245,13.654l4.345,0.299
	c0.487-0.316,0.746-0.432,1.046-0.432c0.583,0,1.326,0.434,4.198,0.681c0.27,0.022,0.535,0.033,0.798,0.033
	c3.088,0,5.634-1.497,6.617-2.167c0.282-0.192,0.437-0.316,0.437-0.316s-0.699-0.806-2.479-0.806c-0.811,0-1.494,0.032-2.021,0.032
	c-0.632,0-1.037-0.046-1.159-0.249c-0.222-0.373-1.685-0.807-1.685-0.807c-0.455-1.005-2.431-1.129-3.373-1.129
	c-0.307,0-0.504,0.012-0.504,0.012v1.023c-0.731,0.579-1.583,0.772-2.392,0.772c-1.621,0-3.075-0.772-3.075-0.772
	c-1.462,1.396-0.922,3.814-0.922,3.814L3.245,13.654z M10.508,10.822l0.634-1.078c0.044-0.077,0.116-0.13,0.201-0.153
	c0.085-0.022,0.174-0.009,0.25,0.035l0.442,0.26c0.047-0.051,0.122-0.066,0.185-0.029c0.063,0.037,0.086,0.11,0.064,0.176
	l0.441,0.26c0.157,0.092,0.21,0.295,0.117,0.451l-0.634,1.078c-0.045,0.076-0.115,0.129-0.202,0.152
	c-0.026,0.007-0.055,0.01-0.083,0.01c-0.058,0-0.115-0.015-0.166-0.045l0.077-0.13l0.076-0.131c0.012,0.007,0.03,0.001,0.037-0.009
	l0.634-1.078c0.007-0.013,0.003-0.031-0.01-0.038l-0.436-0.256l-0.271,0.459c-0.028,0.048-0.079,0.075-0.131,0.075
	c-0.026,0-0.053-0.007-0.076-0.021c-0.072-0.042-0.096-0.135-0.055-0.207l0.271-0.46l-0.437-0.257l-0.037,0.01l-0.635,1.078
	c-0.007,0.013-0.002,0.03,0.011,0.037l-0.076,0.13l-0.077,0.13C10.469,11.181,10.415,10.979,10.508,10.822z"/>
</svg>
