<?xml version="1.0" encoding="utf-8"?>
<!-- Generator: Adobe Illustrator 15.1.0, SVG Export Plug-In . SVG Version: 6.00 Build 0)  -->
<!DOCTYPE svg PUBLIC "-//W3C//DTD SVG 1.1//EN" "http://www.w3.org/Graphics/SVG/1.1/DTD/svg11.dtd">
<svg version="1.1"
	 id="Layer_1" inkscape:version="0.48.5 r10040" sodipodi:docname="bank-kar-afarin.svg" xmlns:dc="http://purl.org/dc/elements/1.1/" xmlns:cc="http://creativecommons.org/ns#" xmlns:rdf="http://www.w3.org/1999/02/22-rdf-syntax-ns#" xmlns:svg="http://www.w3.org/2000/svg" xmlns:sodipodi="http://sodipodi.sourceforge.net/DTD/sodipodi-0.dtd" xmlns:inkscape="http://www.inkscape.org/namespaces/inkscape"
	 xmlns="http://www.w3.org/2000/svg" xmlns:xlink="http://www.w3.org/1999/xlink" x="0px" y="0px" width="24px" height="24px"
	 viewBox="0 0 24 24" enable-background="new 0 0 24 24" xml:space="preserve">
<path d="M18.646,5.411c0,0-2.873,2.731-6.006,8.801c0,0-1.006,1.825-2.547,1.813c0,0-1.52,0-2.097-1.405c0,0-5.063,1.348-4.94,2.938
	c0,0,0.028,1.03,1.742,1.03h6.045c0,0,1.86,0.042,2.52-0.864c0,0,1.297-1.668,2.668-3.943c0,0,0.559-0.932,1.221-0.932
	c0,0,0.777-0.051,0.777,1.1v4.64h1.07v-4.714c0,0,1.844-2.643,1.844-4.577C20.943,9.298,21.09,5.831,18.646,5.411z"/>
</svg>
