<?xml version="1.0" encoding="utf-8"?>
<!-- Generator: Adobe Illustrator 15.1.0, SVG Export Plug-In . SVG Version: 6.00 Build 0)  -->
<!DOCTYPE svg PUBLIC "-//W3C//DTD SVG 1.1//EN" "http://www.w3.org/Graphics/SVG/1.1/DTD/svg11.dtd">
<svg version="1.1" id="Layer_1" xmlns="http://www.w3.org/2000/svg" xmlns:xlink="http://www.w3.org/1999/xlink" x="0px" y="0px"
	 width="24px" height="24px" viewBox="0 0 24 24" enable-background="new 0 0 24 24" xml:space="preserve">
<path d="M13.893,3.96c-0.054-0.034-0.073-0.106-0.038-0.162l0.788-1.263c0.035-0.054,0.108-0.072,0.163-0.038l0.245,0.149
	c0.057,0.033,0.074,0.106,0.04,0.161L14.304,4.07c-0.034,0.054-0.108,0.072-0.164,0.038L13.893,3.96z M3.121,21.218
	c-0.057-0.033-0.073-0.106-0.04-0.162l1.701-2.724c0.034-0.055,0.108-0.071,0.164-0.037l0.246,0.146
	c0.055,0.034,0.073,0.106,0.038,0.163l-1.7,2.723c-0.035,0.055-0.108,0.071-0.163,0.039L3.121,21.218z M11.804,5.388
	c-0.167-0.101-0.219-0.319-0.116-0.484l0.171-0.273c0.102-0.165,0.323-0.217,0.491-0.116l1.809,1.096
	c0.169,0.1,0.223,0.317,0.119,0.483l-0.172,0.274c-0.102,0.165-0.324,0.216-0.491,0.116L11.804,5.388z M11.18,6.409
	c-0.166-0.101-0.219-0.319-0.116-0.484l0.17-0.274c0.104-0.166,0.324-0.217,0.493-0.116l1.809,1.096
	c0.169,0.1,0.222,0.317,0.118,0.483l-0.172,0.274c-0.102,0.165-0.322,0.216-0.492,0.116L11.18,6.409z M10.559,7.398
	c-0.166-0.102-0.219-0.319-0.116-0.484l0.171-0.273c0.102-0.164,0.323-0.217,0.491-0.115l1.809,1.096
	c0.17,0.1,0.223,0.317,0.118,0.483l-0.171,0.274c-0.102,0.165-0.323,0.216-0.492,0.116L10.559,7.398z M10.065,8.337
	c-0.167-0.102-0.22-0.319-0.117-0.484L10.12,7.58c0.102-0.164,0.323-0.216,0.491-0.115L12.42,8.56
	c0.169,0.101,0.223,0.318,0.119,0.484l-0.172,0.273c-0.102,0.165-0.323,0.216-0.492,0.116L10.065,8.337z M9.452,9.308
	c-0.167-0.101-0.22-0.319-0.116-0.484L9.507,8.55C9.608,8.385,9.83,8.333,9.998,8.434l1.81,1.096c0.168,0.1,0.22,0.317,0.116,0.483
	l-0.17,0.274c-0.102,0.165-0.323,0.216-0.492,0.116L9.452,9.308z M8.821,10.185c-0.167-0.101-0.219-0.318-0.116-0.483l0.17-0.274
	c0.103-0.165,0.324-0.217,0.492-0.116l1.81,1.096c0.167,0.1,0.221,0.317,0.118,0.483l-0.171,0.274
	c-0.102,0.165-0.324,0.216-0.492,0.115L8.821,10.185z M8.401,11.144c-0.166-0.101-0.219-0.318-0.116-0.483l0.172-0.274
	c0.102-0.165,0.322-0.217,0.49-0.116l1.81,1.097c0.168,0.1,0.221,0.317,0.117,0.483l-0.171,0.273
	c-0.102,0.165-0.324,0.216-0.492,0.115L8.401,11.144z M7.665,11.991c-0.167-0.102-0.22-0.318-0.116-0.483l0.171-0.274
	c0.102-0.165,0.323-0.216,0.491-0.116l1.81,1.096c0.168,0.1,0.221,0.317,0.118,0.483l-0.171,0.273
	c-0.102,0.166-0.324,0.216-0.492,0.116L7.665,11.991z M7.042,13.006c-0.169-0.102-0.221-0.319-0.119-0.484l0.172-0.273
	c0.102-0.166,0.324-0.217,0.491-0.115l1.81,1.095c0.167,0.101,0.221,0.317,0.117,0.483l-0.17,0.273
	c-0.104,0.167-0.325,0.218-0.492,0.116L7.042,13.006z M6.48,13.976c-0.168-0.103-0.22-0.321-0.118-0.484l0.171-0.275
	C6.636,13.052,6.858,13,7.025,13.102l1.811,1.096c0.167,0.1,0.22,0.319,0.117,0.482l-0.171,0.273
	c-0.103,0.167-0.324,0.22-0.491,0.116L6.48,13.976z M5.883,14.938c-0.168-0.103-0.221-0.32-0.119-0.485l0.172-0.273
	c0.102-0.165,0.324-0.218,0.491-0.114l1.811,1.095c0.167,0.102,0.221,0.318,0.118,0.483l-0.171,0.273
	c-0.104,0.166-0.325,0.218-0.492,0.116L5.883,14.938z M5.338,15.859c-0.168-0.102-0.221-0.319-0.118-0.484l0.171-0.272
	c0.103-0.166,0.325-0.219,0.492-0.115l1.81,1.094c0.167,0.102,0.22,0.319,0.117,0.484l-0.171,0.273
	c-0.104,0.166-0.324,0.217-0.491,0.116L5.338,15.859z M4.834,16.807c-0.167-0.102-0.22-0.319-0.117-0.482l0.17-0.275
	c0.104-0.166,0.324-0.217,0.492-0.115l1.81,1.095c0.168,0.102,0.221,0.32,0.118,0.483l-0.171,0.274
	c-0.102,0.165-0.323,0.217-0.491,0.114L4.834,16.807z M4.213,17.712c-0.167-0.102-0.22-0.319-0.117-0.482l0.171-0.275
	c0.102-0.166,0.323-0.217,0.491-0.115l1.811,1.095c0.167,0.102,0.221,0.32,0.117,0.483l-0.17,0.274
	c-0.103,0.165-0.324,0.217-0.492,0.115L4.213,17.712z M12.455,4.502c-0.169-0.101-0.221-0.318-0.118-0.483l0.171-0.274
	c0.102-0.165,0.325-0.217,0.49-0.116l1.811,1.096c0.168,0.101,0.221,0.318,0.118,0.484l-0.171,0.274
	c-0.104,0.164-0.324,0.216-0.491,0.115L12.455,4.502z M18.136,4.729c-0.054-0.036-0.07-0.109-0.033-0.163l0.83-1.234
	c0.036-0.054,0.112-0.069,0.167-0.034l0.238,0.157c0.056,0.035,0.07,0.108,0.034,0.163l-0.83,1.235
	c-0.037,0.054-0.111,0.068-0.165,0.033L18.136,4.729z M6.776,21.617c-0.055-0.035-0.07-0.107-0.033-0.16l1.793-2.667
	c0.036-0.056,0.11-0.067,0.163-0.035l0.242,0.159c0.054,0.034,0.068,0.107,0.033,0.161L7.18,21.739
	c-0.036,0.056-0.11,0.069-0.165,0.036L6.776,21.617z M13.683,9.777c-0.165-0.106-0.21-0.327-0.102-0.487l0.181-0.268
	c0.107-0.161,0.331-0.205,0.494-0.1l1.771,1.155c0.164,0.106,0.211,0.327,0.1,0.488l-0.178,0.269
	c-0.109,0.16-0.334,0.205-0.496,0.098L13.683,9.777z M13.037,10.795c-0.165-0.106-0.21-0.326-0.102-0.487l0.181-0.268
	c0.107-0.161,0.331-0.205,0.495-0.1l1.771,1.156c0.165,0.105,0.211,0.326,0.1,0.488l-0.178,0.268
	c-0.108,0.16-0.334,0.205-0.496,0.098L13.037,10.795z M12.409,11.797c-0.166-0.106-0.21-0.327-0.101-0.487l0.18-0.268
	c0.108-0.161,0.332-0.205,0.495-0.1l1.771,1.155c0.164,0.107,0.211,0.327,0.101,0.488l-0.178,0.269
	c-0.11,0.159-0.334,0.204-0.496,0.099L12.409,11.797z M11.789,12.74c-0.166-0.104-0.21-0.326-0.102-0.486l0.182-0.268
	c0.107-0.16,0.33-0.205,0.495-0.099l1.771,1.154c0.162,0.106,0.209,0.326,0.1,0.487l-0.181,0.27c-0.107,0.16-0.33,0.204-0.495,0.099
	L11.789,12.74z M10.372,14.714c-0.165-0.105-0.209-0.328-0.102-0.488l0.181-0.268c0.109-0.159,0.331-0.205,0.495-0.099l1.771,1.155
	c0.162,0.105,0.209,0.325,0.101,0.488l-0.18,0.268c-0.109,0.159-0.332,0.205-0.496,0.099L10.372,14.714z M9.762,15.713
	c-0.165-0.105-0.209-0.327-0.102-0.488l0.181-0.269c0.108-0.159,0.331-0.203,0.495-0.098l1.771,1.153
	c0.164,0.107,0.21,0.327,0.101,0.488l-0.18,0.269c-0.108,0.161-0.332,0.206-0.496,0.1L9.762,15.713z M9.095,16.722
	c-0.166-0.107-0.21-0.326-0.103-0.487l0.182-0.269c0.108-0.16,0.33-0.205,0.495-0.099l1.77,1.154
	c0.165,0.106,0.21,0.326,0.101,0.487l-0.18,0.269c-0.108,0.159-0.332,0.205-0.495,0.1L9.095,16.722z M10.998,13.703
	c-0.164-0.107-0.208-0.325-0.101-0.488l0.181-0.267c0.108-0.161,0.331-0.206,0.495-0.101l1.771,1.154
	c0.163,0.109,0.209,0.327,0.1,0.488l-0.179,0.269c-0.108,0.163-0.331,0.207-0.494,0.1L10.998,13.703z M8.263,17.77
	c-0.165-0.107-0.209-0.327-0.099-0.488l0.179-0.269c0.109-0.161,0.332-0.206,0.496-0.098l1.771,1.153
	c0.163,0.107,0.208,0.328,0.101,0.488l-0.181,0.268c-0.108,0.161-0.331,0.204-0.495,0.099L8.263,17.77z M16.824,5.167
	c-0.165-0.107-0.211-0.326-0.102-0.488l0.181-0.267c0.108-0.163,0.331-0.207,0.495-0.099l1.773,1.154
	c0.161,0.107,0.205,0.326,0.099,0.488l-0.182,0.267c-0.107,0.163-0.331,0.207-0.494,0.101L16.824,5.167z M16.225,6.124
	c-0.163-0.107-0.209-0.326-0.099-0.489l0.18-0.267c0.108-0.163,0.33-0.207,0.494-0.1l1.772,1.155
	c0.163,0.106,0.208,0.326,0.102,0.487l-0.183,0.268c-0.107,0.162-0.33,0.206-0.495,0.1L16.225,6.124z M15.584,7.075
	c-0.165-0.106-0.211-0.325-0.101-0.488l0.179-0.267c0.108-0.163,0.332-0.207,0.495-0.1l1.772,1.154
	c0.164,0.107,0.207,0.326,0.1,0.487l-0.182,0.269c-0.106,0.162-0.331,0.205-0.493,0.1L15.584,7.075z M14.929,7.957
	c-0.164-0.106-0.209-0.325-0.1-0.488l0.179-0.266c0.11-0.163,0.332-0.207,0.494-0.1l1.774,1.155c0.163,0.106,0.206,0.326,0.1,0.487
	l-0.183,0.268c-0.106,0.162-0.33,0.206-0.494,0.101L14.929,7.957z M14.33,8.825c-0.164-0.106-0.21-0.325-0.1-0.488l0.18-0.267
	c0.108-0.163,0.331-0.207,0.494-0.099l1.773,1.154c0.163,0.107,0.208,0.326,0.1,0.489L16.596,9.88
	c-0.106,0.162-0.331,0.206-0.494,0.1L14.33,8.825z M16.186,16.325c-0.237-0.335-0.156-0.799,0.179-1.034l0.593-0.412
	c0.336-0.235,0.806-0.152,1.043,0.183l0.509,0.717c0.237,0.335,0.156,0.801-0.182,1.036l-0.591,0.412
	c-0.337,0.234-0.806,0.152-1.042-0.183L16.186,16.325z M14.267,17.888c-0.237-0.335-0.155-0.801,0.181-1.035l0.59-0.413
	c0.339-0.233,0.809-0.151,1.044,0.184l0.51,0.717c0.237,0.335,0.155,0.802-0.181,1.036l-0.593,0.411
	c-0.336,0.236-0.805,0.153-1.043-0.183L14.267,17.888z M16.938,18.943c-0.236-0.335-0.156-0.802,0.181-1.036l0.593-0.411
	c0.336-0.236,0.805-0.152,1.044,0.182l0.507,0.718c0.238,0.335,0.158,0.802-0.181,1.035l-0.591,0.413
	c-0.337,0.234-0.805,0.151-1.043-0.185L16.938,18.943z"/>
</svg>
