<?xml version="1.0" encoding="utf-8"?>
<!-- Generator: Adobe Illustrator 15.1.0, SVG Export Plug-In . SVG Version: 6.00 Build 0)  -->
<!DOCTYPE svg PUBLIC "-//W3C//DTD SVG 1.1//EN" "http://www.w3.org/Graphics/SVG/1.1/DTD/svg11.dtd">
<svg version="1.1" id="Layer_1" xmlns="http://www.w3.org/2000/svg" xmlns:xlink="http://www.w3.org/1999/xlink" x="0px" y="0px"
	 width="24px" height="24px" viewBox="0 0 24 24" enable-background="new 0 0 24 24" xml:space="preserve">
<path d="M23.341,3.852l-0.852-2.708h-4.28L17.576,4.63l-0.931,0.97l-3.417-3.557l-1.442,0.433l-0.417,1.5l0.176,0.183l-1.441,0.432
	L9.688,6.094l0.176,0.183L8.422,6.709l-0.417,1.5l0.177,0.183L6.74,8.826l-0.416,1.5L6.5,10.509l-1.442,0.434l-0.415,1.498
	l0.069,0.075l-1.315,0.522l-0.417,1.5l2.089,3.107L1.194,21.68l0.062,1.562l1.501,0.065l3.876-4.033l2.986,2.175l1.441-0.434
	l0.503-1.37l0.07,0.074l1.441-0.436l0.415-1.499l0.177,0.183l1.441-0.434l0.416-1.499l0.176,0.183l1.442-0.433l0.417-1.5
	l0.176,0.183l1.44-0.433l0.416-1.5l0.177,0.184l1.441-0.434l0.417-1.501l-3.419-3.557l2.346-2.441l-0.781-0.813V2.771h1.153
	l0.23,0.731L23.341,3.852L23.341,3.852z M13.512,3.874l1.141,1.998l0.394,0.565l0.199,0.283l0.203,0.277l0.398,0.537l0.383,0.491
	L16.32,8.14l0.092,0.109l0.171,0.208l0.31,0.356l0.132,0.146l0.117,0.119l0.223,0.228l-0.259-0.182l-0.137-0.096l-0.155-0.121
	L16.44,8.614L16.231,8.44l-0.108-0.091l-0.111-0.098l-0.468-0.417l-0.492-0.458L14.8,7.139l-0.25-0.245l-0.493-0.488l-0.473-0.481
	l-0.035-0.035l-0.291-0.309L12.682,4.96l-0.217-0.24L13.512,3.874L13.512,3.874z M13.646,5.993l-0.064-0.069L13.646,5.993
	L13.646,5.993z M10.664,7.522l0.687,1.187l0.284,0.383l0.289,0.378l0.288,0.361l0.275,0.332l0.253,0.291l0.221,0.24l0.094,0.099
	l0.083,0.08l0.159,0.151l-0.175-0.131l-0.093-0.07l-0.104-0.085l-0.251-0.211l-0.287-0.259L12.071,9.97l-0.329-0.325l-0.335-0.342
	l-0.698-0.779l-0.383-0.441l-0.145-0.168L10.664,7.522L10.664,7.522z M7.716,10.278l0.155,0.293l0.817,1.274l0.29,0.379l0.286,0.361
	l0.275,0.333l0.253,0.29l0.222,0.238l0.093,0.101l0.084,0.079l0.157,0.153l-0.175-0.133l-0.093-0.068l-0.104-0.086l-0.25-0.211
	l-0.288-0.26l-0.315-0.298l-0.331-0.325l-0.334-0.342l-0.697-0.779l-0.384-0.44l-0.145-0.17L7.716,10.278L7.716,10.278z
	 M7.528,16.827l-0.092-0.07L7.332,16.67l-0.25-0.209L6.793,16.2l-0.314-0.296l-0.33-0.325l-0.335-0.343l-0.329-0.348l-0.752-0.873
	l-0.145-0.17l0.483-0.39l0.688,1.186l0.284,0.384l0.29,0.378l0.286,0.361l0.275,0.331l0.253,0.293l0.222,0.237l0.094,0.099
	l0.083,0.081l0.157,0.15L7.528,16.827L7.528,16.827z M11.691,18.144l-0.243-0.236l-0.627-0.626l-0.416-0.419l0.042,0.043
	l-0.485-0.512l-0.494-0.536l-0.246-0.271l-0.241-0.271L8.521,14.78l-0.111-0.13l-0.106-0.13l-0.205-0.25L8,14.15l-0.093-0.118
	l-0.176-0.228l-0.296-0.403l-0.123-0.17l-0.097-0.148l-0.184-0.281l0.228,0.244l0.119,0.127l0.148,0.145l0.357,0.339l0.208,0.188
	l0.109,0.1l0.115,0.1l0.241,0.208l0.124,0.106l0.129,0.105l0.537,0.438l0.279,0.22l0.285,0.221l0.567,0.434l2.029,1.279
	L11.691,18.144L11.691,18.144z M14.018,16.313l-0.162-0.15l-0.424-0.397l-0.589-0.574l-0.327-0.329l0.024,0.026l-0.185-0.199
	l-0.314-0.343l-0.285-0.328l-0.249-0.3l-0.202-0.26l-0.084-0.109l-0.067-0.097l-0.125-0.182l0.146,0.166l0.077,0.086l0.095,0.099
	l0.229,0.23l0.28,0.263l0.321,0.285l0.347,0.3l1.696,1.188l0.175,0.125L14.018,16.313L14.018,16.313z M15.19,15.294l-0.235-0.217
	L14.344,14.5l-0.403-0.391l-0.445-0.439l-0.455-0.45l-0.24-0.251l-0.236-0.254l-0.452-0.496l-0.413-0.473l-0.096-0.112l-0.091-0.111
	l-0.173-0.211l-0.292-0.375l-0.121-0.158l-0.096-0.138l-0.181-0.264l0.211,0.238l0.11,0.125l0.138,0.14l0.331,0.334l0.194,0.185
	l0.102,0.098l0.108,0.098l0.46,0.413l0.502,0.431l0.261,0.218l0.266,0.217l2.147,1.512l0.252,0.184L15.19,15.294L15.19,15.294z
	 M18.224,12.55l-0.814,1.091l-0.23-0.227l-0.597-0.6l-0.395-0.403l-0.397-0.428l-0.47-0.514l-0.233-0.259l-0.229-0.261l-0.44-0.513
	l-0.4-0.487l-0.094-0.116l-0.088-0.115L13.67,9.501l-0.283-0.385L13.27,8.953l-0.091-0.141l-0.175-0.27l0.217,0.231l0.116,0.122
	l0.142,0.137l0.342,0.323l0.198,0.18l0.104,0.093l0.111,0.095l0.474,0.398l0.514,0.415l0.268,0.21l0.271,0.209l2.207,1.424
	L18.224,12.55L18.224,12.55z"/>
</svg>
