<?xml version="1.0" encoding="UTF-8" standalone="yes"?>
<svg xmlns="http://www.w3.org/2000/svg" xmlns:xlink="http://www.w3.org/1999/xlink" width="24px" height="24px" viewBox="0 0 18 18" version="1.1">
  <g id="surface1">
    <path style=" stroke:none;fill-rule:nonzero;fill:rgb(0%,0%,0%);fill-opacity:1;" d="M 17.117188 9.28125 L 17.117188 0.867188 L 0.867188 0.867188 L 0.867188 9.28125 L 0 9.28125 L 0 15.945312 L 17.984375 15.945312 L 17.984375 9.28125 Z M 12.765625 1.445312 L 16.25 1.445312 L 16.25 8.703125 L 12.765625 8.703125 Z M 5.652344 1.445312 L 12.316406 1.445312 L 12.316406 8.703125 L 5.652344 8.703125 Z M 1.734375 1.445312 L 5.21875 1.445312 L 5.21875 8.703125 L 1.734375 8.703125 Z M 5.796875 14.789062 L 0.867188 14.789062 L 0.867188 10.4375 L 5.796875 10.4375 Z M 11.320312 14.789062 L 6.664062 14.789062 L 6.664062 13.054688 L 11.304688 13.054688 L 11.304688 14.789062 Z M 11.320312 12.1875 L 6.664062 12.1875 L 6.664062 10.4375 L 11.304688 10.4375 L 11.304688 12.1875 Z M 17.117188 14.789062 L 12.1875 14.789062 L 12.1875 10.4375 L 17.117188 10.4375 Z M 17.117188 14.789062 "/>
    <path style=" stroke:none;fill-rule:nonzero;fill:rgb(0%,0%,0%);fill-opacity:1;" d="M 16.828125 10.726562 L 12.476562 10.726562 L 12.476562 14.5 L 16.828125 14.5 Z M 15.910156 13.070312 C 15.71875 13.070312 15.542969 12.910156 15.542969 12.699219 C 15.542969 12.507812 15.703125 12.332031 15.910156 12.332031 C 16.105469 12.332031 16.28125 12.492188 16.28125 12.699219 C 16.28125 12.910156 16.121094 13.070312 15.910156 13.070312 Z M 15.910156 13.070312 "/>
    <path style=" stroke:none;fill-rule:nonzero;fill:rgb(0%,0%,0%);fill-opacity:1;" d="M 2.023438 1.734375 L 4.929688 1.734375 L 4.929688 8.398438 L 2.023438 8.398438 Z M 2.023438 1.734375 "/>
    <path style=" stroke:none;fill-rule:nonzero;fill:rgb(0%,0%,0%);fill-opacity:1;" d="M 13.054688 1.734375 L 15.960938 1.734375 L 15.960938 8.398438 L 13.054688 8.398438 Z M 13.054688 1.734375 "/>
    <path style=" stroke:none;fill-rule:nonzero;fill:rgb(0%,0%,0%);fill-opacity:1;" d="M 8.847656 1.734375 L 5.941406 1.734375 L 5.941406 8.398438 L 8.847656 8.398438 Z M 8.238281 5.234375 C 8.042969 5.234375 7.867188 5.074219 7.867188 4.863281 C 7.867188 4.65625 8.027344 4.496094 8.238281 4.496094 C 8.445312 4.496094 8.605469 4.65625 8.605469 4.863281 C 8.589844 5.074219 8.429688 5.234375 8.238281 5.234375 Z M 8.238281 5.234375 "/>
    <path style=" stroke:none;fill-rule:nonzero;fill:rgb(0%,0%,0%);fill-opacity:1;" d="M 12.042969 1.734375 L 9.136719 1.734375 L 9.136719 8.398438 L 12.042969 8.398438 Z M 9.730469 5.234375 C 9.539062 5.234375 9.359375 5.074219 9.359375 4.863281 C 9.359375 4.65625 9.519531 4.496094 9.730469 4.496094 C 9.921875 4.496094 10.097656 4.65625 10.097656 4.863281 C 10.097656 5.074219 9.9375 5.234375 9.730469 5.234375 Z M 9.730469 5.234375 "/>
    <path style=" stroke:none;fill-rule:nonzero;fill:rgb(0%,0%,0%);fill-opacity:1;" d="M 1.15625 10.726562 L 1.15625 14.5 L 5.507812 14.5 L 5.507812 10.726562 Z M 4.609375 12.347656 C 4.800781 12.347656 4.976562 12.507812 4.976562 12.714844 C 4.976562 12.910156 4.816406 13.085938 4.609375 13.085938 C 4.398438 13.085938 4.238281 12.925781 4.238281 12.714844 C 4.238281 12.507812 4.398438 12.347656 4.609375 12.347656 Z M 4.609375 12.347656 "/>
    <path style=" stroke:none;fill-rule:nonzero;fill:rgb(0%,0%,0%);fill-opacity:1;" d="M 0.578125 16.539062 L 2.023438 16.539062 L 2.023438 17.117188 L 0.578125 17.117188 Z M 0.578125 16.539062 "/>
    <path style=" stroke:none;fill-rule:nonzero;fill:rgb(0%,0%,0%);fill-opacity:1;" d="M 15.960938 16.539062 L 17.40625 16.539062 L 17.40625 17.117188 L 15.960938 17.117188 Z M 15.960938 16.539062 "/>
  </g>
</svg>