<?xml version="1.0" encoding="UTF-8" standalone="yes"?>
<svg xmlns="http://www.w3.org/2000/svg" xmlns:xlink="http://www.w3.org/1999/xlink" width="24px" height="24px" viewBox="0 0 18 18" version="1.1">
  <g id="surface1">
    <path style=" stroke:none;fill-rule:nonzero;fill:rgb(0%,0%,0%);fill-opacity:1;" d="M 14.324219 12.472656 L 13.421875 12.472656 C 13.292969 12.472656 13.1875 12.578125 13.1875 12.710938 L 13.1875 15.511719 C 13.1875 15.640625 13.292969 15.746094 13.421875 15.746094 L 14.324219 15.746094 C 14.457031 15.746094 14.5625 15.640625 14.5625 15.511719 L 14.5625 12.710938 C 14.5625 12.578125 14.457031 12.472656 14.324219 12.472656 Z M 14.089844 15.273438 L 13.660156 15.273438 L 13.660156 12.945312 L 14.089844 12.945312 Z M 14.089844 15.273438 "/>
    <path style=" stroke:none;fill-rule:nonzero;fill:rgb(0%,0%,0%);fill-opacity:1;" d="M 17.019531 7.804688 C 17.203125 6.953125 17.398438 6.074219 17.394531 5.324219 C 17.386719 4.40625 16.953125 3.089844 16.28125 1.980469 C 15.523438 0.722656 14.644531 0 13.875 0 C 13.101562 0 12.222656 0.722656 11.464844 1.980469 C 10.796875 3.089844 10.359375 4.40625 10.355469 5.324219 C 10.351562 6.273438 10.566406 7.199219 10.753906 8.015625 C 10.898438 8.636719 11.035156 9.222656 11.039062 9.683594 C 11.046875 10.875 10.871094 14.433594 10.867188 14.46875 C 10.867188 14.472656 10.867188 14.476562 10.867188 14.480469 C 10.867188 15.449219 11.136719 16.328125 11.621094 16.949219 C 12.164062 17.636719 12.941406 18 13.875 18 C 14.804688 18 15.585938 17.636719 16.125 16.949219 C 16.613281 16.328125 16.878906 15.449219 16.878906 14.480469 C 16.878906 14.476562 16.878906 14.472656 16.878906 14.46875 C 16.878906 14.433594 16.703125 10.875 16.710938 9.683594 C 16.714844 9.195312 16.859375 8.519531 17.019531 7.804688 Z M 16.554688 7.703125 C 16.394531 8.441406 16.242188 9.140625 16.238281 9.679688 C 16.230469 10.871094 16.398438 14.269531 16.410156 14.488281 C 16.40625 15.890625 15.742188 17.527344 13.875 17.527344 C 12.007812 17.527344 11.339844 15.890625 11.339844 14.488281 C 11.351562 14.269531 11.519531 10.871094 11.511719 9.679688 C 11.507812 9.167969 11.367188 8.554688 11.214844 7.910156 C 11.183594 7.765625 11.066406 7.28125 10.992188 6.890625 C 10.898438 6.382812 10.824219 5.855469 10.828125 5.328125 C 10.835938 3.527344 12.566406 0.472656 13.875 0.472656 C 15.179688 0.472656 16.910156 3.527344 16.921875 5.328125 C 16.921875 5.785156 16.84375 6.3125 16.734375 6.855469 C 16.683594 7.136719 16.578125 7.605469 16.554688 7.703125 Z M 16.554688 7.703125 "/>
    <path style=" stroke:none;fill-rule:nonzero;fill:rgb(0%,0%,0%);fill-opacity:1;" d="M 14.472656 10.753906 L 14.128906 10.753906 L 14.128906 9.527344 L 14.941406 9.527344 C 15.070312 9.527344 15.175781 9.425781 15.175781 9.292969 C 15.175781 9.164062 15.070312 9.058594 14.941406 9.058594 L 14.128906 9.058594 L 14.128906 7.976562 L 14.941406 7.976562 C 15.070312 7.976562 15.175781 7.871094 15.175781 7.742188 C 15.175781 7.613281 15.070312 7.507812 14.941406 7.507812 L 14.128906 7.507812 L 14.128906 6.425781 L 14.941406 6.425781 C 15.070312 6.425781 15.175781 6.320312 15.175781 6.191406 C 15.175781 6.058594 15.070312 5.957031 14.941406 5.957031 L 14.128906 5.957031 L 14.128906 4.871094 L 14.941406 4.871094 C 15.070312 4.871094 15.175781 4.765625 15.175781 4.636719 C 15.175781 4.507812 15.070312 4.402344 14.941406 4.402344 L 14.128906 4.402344 L 14.128906 3.539062 C 14.128906 3.410156 14.023438 3.304688 13.894531 3.304688 C 13.765625 3.304688 13.660156 3.410156 13.660156 3.539062 L 13.660156 4.402344 L 12.847656 4.402344 C 12.71875 4.402344 12.613281 4.507812 12.613281 4.636719 C 12.613281 4.765625 12.71875 4.871094 12.847656 4.871094 L 13.660156 4.871094 L 13.660156 5.957031 L 12.847656 5.957031 C 12.71875 5.957031 12.613281 6.058594 12.613281 6.191406 C 12.613281 6.320312 12.71875 6.425781 12.847656 6.425781 L 13.660156 6.425781 L 13.660156 7.507812 L 12.847656 7.507812 C 12.71875 7.507812 12.613281 7.613281 12.613281 7.742188 C 12.613281 7.871094 12.71875 7.976562 12.847656 7.976562 L 13.660156 7.976562 L 13.660156 9.058594 L 12.847656 9.058594 C 12.71875 9.058594 12.613281 9.164062 12.613281 9.292969 C 12.613281 9.425781 12.71875 9.527344 12.847656 9.527344 L 13.660156 9.527344 L 13.660156 10.753906 L 13.320312 10.753906 C 12.621094 10.753906 12.054688 11.320312 12.054688 12.019531 L 12.054688 15.589844 C 12.054688 16.285156 12.621094 16.855469 13.320312 16.855469 L 14.472656 16.855469 C 15.167969 16.855469 15.738281 16.285156 15.738281 15.589844 L 15.738281 12.019531 C 15.738281 11.320312 15.167969 10.753906 14.472656 10.753906 Z M 15.269531 15.589844 C 15.269531 16.027344 14.910156 16.386719 14.472656 16.386719 L 13.320312 16.386719 C 12.878906 16.386719 12.523438 16.027344 12.523438 15.589844 L 12.523438 12.019531 C 12.523438 11.578125 12.878906 11.222656 13.320312 11.222656 L 14.472656 11.222656 C 14.910156 11.222656 15.269531 11.578125 15.269531 12.019531 Z M 15.269531 15.589844 "/>
    <path style=" stroke:none;fill-rule:nonzero;fill:rgb(0%,0%,0%);fill-opacity:1;" d="M 3.4375 12.710938 L 3.4375 15.511719 C 3.4375 15.640625 3.542969 15.746094 3.675781 15.746094 L 4.578125 15.746094 C 4.707031 15.746094 4.8125 15.640625 4.8125 15.511719 L 4.8125 12.710938 C 4.8125 12.578125 4.707031 12.472656 4.578125 12.472656 L 3.675781 12.472656 C 3.542969 12.472656 3.4375 12.578125 3.4375 12.710938 Z M 3.910156 12.945312 L 4.339844 12.945312 L 4.339844 15.273438 L 3.910156 15.273438 Z M 3.910156 12.945312 "/>
    <path style=" stroke:none;fill-rule:nonzero;fill:rgb(0%,0%,0%);fill-opacity:1;" d="M 4.125 0 C 3.355469 0 2.476562 0.722656 1.71875 1.980469 C 1.046875 3.089844 0.613281 4.40625 0.605469 5.324219 C 0.601562 6.074219 0.796875 6.953125 0.980469 7.804688 C 1.140625 8.519531 1.285156 9.195312 1.289062 9.683594 C 1.296875 10.875 1.121094 14.433594 1.121094 14.46875 C 1.121094 14.472656 1.121094 14.476562 1.121094 14.480469 C 1.121094 15.449219 1.386719 16.328125 1.875 16.949219 C 2.414062 17.636719 3.191406 18 4.125 18 C 5.058594 18 5.835938 17.636719 6.375 16.949219 C 6.863281 16.328125 7.132812 15.449219 7.132812 14.480469 C 7.132812 14.476562 7.132812 14.472656 7.132812 14.46875 C 7.128906 14.433594 6.953125 10.875 6.960938 9.683594 C 6.964844 9.222656 7.101562 8.636719 7.246094 8.015625 C 7.433594 7.199219 7.648438 6.273438 7.644531 5.324219 C 7.640625 4.40625 7.203125 3.089844 6.535156 1.980469 C 5.777344 0.722656 4.898438 0 4.125 0 Z M 7.007812 6.890625 C 6.933594 7.28125 6.816406 7.765625 6.785156 7.910156 C 6.636719 8.554688 6.492188 9.167969 6.488281 9.679688 C 6.480469 10.871094 6.648438 14.269531 6.660156 14.488281 C 6.660156 15.890625 5.992188 17.527344 4.125 17.527344 C 2.257812 17.527344 1.59375 15.890625 1.589844 14.488281 C 1.601562 14.269531 1.769531 10.871094 1.761719 9.679688 C 1.757812 9.140625 1.605469 8.441406 1.445312 7.703125 C 1.421875 7.605469 1.316406 7.136719 1.265625 6.855469 C 1.15625 6.3125 1.078125 5.785156 1.078125 5.328125 C 1.089844 3.527344 2.820312 0.472656 4.125 0.472656 C 5.433594 0.472656 7.164062 3.527344 7.171875 5.328125 C 7.175781 5.855469 7.101562 6.382812 7.007812 6.890625 Z M 7.007812 6.890625 "/>
    <path style=" stroke:none;fill-rule:nonzero;fill:rgb(0%,0%,0%);fill-opacity:1;" d="M 4.339844 4.402344 L 4.339844 3.539062 C 4.339844 3.410156 4.234375 3.304688 4.105469 3.304688 C 3.976562 3.304688 3.871094 3.410156 3.871094 3.539062 L 3.871094 4.402344 L 3.058594 4.402344 C 2.929688 4.402344 2.824219 4.507812 2.824219 4.636719 C 2.824219 4.765625 2.929688 4.871094 3.058594 4.871094 L 3.871094 4.871094 L 3.871094 5.957031 L 3.058594 5.957031 C 2.929688 5.957031 2.824219 6.058594 2.824219 6.191406 C 2.824219 6.320312 2.929688 6.425781 3.058594 6.425781 L 3.871094 6.425781 L 3.871094 7.507812 L 3.058594 7.507812 C 2.929688 7.507812 2.824219 7.613281 2.824219 7.742188 C 2.824219 7.871094 2.929688 7.976562 3.058594 7.976562 L 3.871094 7.976562 L 3.871094 9.058594 L 3.058594 9.058594 C 2.929688 9.058594 2.824219 9.164062 2.824219 9.292969 C 2.824219 9.425781 2.929688 9.527344 3.058594 9.527344 L 3.871094 9.527344 L 3.871094 10.753906 L 3.527344 10.753906 C 2.832031 10.753906 2.261719 11.320312 2.261719 12.019531 L 2.261719 15.589844 C 2.261719 16.285156 2.832031 16.855469 3.527344 16.855469 L 4.679688 16.855469 C 5.378906 16.855469 5.945312 16.285156 5.945312 15.589844 L 5.945312 12.019531 C 5.945312 11.320312 5.378906 10.753906 4.679688 10.753906 L 4.339844 10.753906 L 4.339844 9.527344 L 5.152344 9.527344 C 5.28125 9.527344 5.386719 9.425781 5.386719 9.292969 C 5.386719 9.164062 5.28125 9.058594 5.152344 9.058594 L 4.339844 9.058594 L 4.339844 7.976562 L 5.152344 7.976562 C 5.28125 7.976562 5.386719 7.871094 5.386719 7.742188 C 5.386719 7.613281 5.28125 7.507812 5.152344 7.507812 L 4.339844 7.507812 L 4.339844 6.425781 L 5.152344 6.425781 C 5.28125 6.425781 5.386719 6.320312 5.386719 6.191406 C 5.386719 6.058594 5.28125 5.957031 5.152344 5.957031 L 4.339844 5.957031 L 4.339844 4.871094 L 5.152344 4.871094 C 5.28125 4.871094 5.386719 4.765625 5.386719 4.636719 C 5.386719 4.507812 5.28125 4.402344 5.152344 4.402344 Z M 4.679688 11.222656 C 5.121094 11.222656 5.476562 11.578125 5.476562 12.019531 L 5.476562 15.589844 C 5.476562 16.027344 5.121094 16.386719 4.679688 16.386719 L 3.527344 16.386719 C 3.089844 16.386719 2.730469 16.027344 2.730469 15.589844 L 2.730469 12.019531 C 2.730469 11.578125 3.089844 11.222656 3.527344 11.222656 Z M 4.679688 11.222656 "/>
  </g>
</svg>