<?xml version="1.0" encoding="UTF-8" standalone="yes"?>
<svg xmlns="http://www.w3.org/2000/svg" xmlns:xlink="http://www.w3.org/1999/xlink" width="24px" height="24px" viewBox="0 0 18 18" version="1.1">
  <g id="surface1">
    <path style=" stroke:none;fill-rule:nonzero;fill:rgb(0%,0%,0%);fill-opacity:1;" d="M 9.390625 9.90625 L 1.226562 9.90625 C 0.546875 9.90625 0 10.460938 0 11.136719 L 0 13.480469 C 0 14.175781 0.558594 14.75 1.25 14.75 L 9.75 14.75 C 10.445312 14.75 10.984375 14.171875 10.984375 13.480469 L 10.984375 11.523438 C 10.984375 10.632812 10.28125 9.90625 9.390625 9.90625 Z M 9.390625 9.90625 "/>
    <path style=" stroke:none;fill-rule:nonzero;fill:rgb(0%,0%,0%);fill-opacity:1;" d="M 16.671875 3.183594 L 8.230469 3.183594 C 7.539062 3.183594 7 3.710938 7 4.402344 L 7 6.519531 C 7.082031 6.492188 7.226562 6.472656 7.363281 6.460938 L 7.707031 5.433594 C 7.851562 4.992188 8.257812 4.703125 8.722656 4.703125 L 10.847656 4.703125 C 11.195312 4.703125 11.519531 4.863281 11.71875 5.144531 C 11.921875 5.421875 11.976562 5.78125 11.867188 6.109375 L 11.746094 6.472656 C 12.03125 6.476562 12.316406 6.476562 12.59375 6.480469 L 12.882812 5.601562 C 13.03125 5.164062 13.441406 4.871094 13.902344 4.871094 L 16.03125 4.871094 C 16.375 4.871094 16.699219 5.035156 16.902344 5.3125 C 17.101562 5.59375 17.15625 5.953125 17.046875 6.28125 L 16.945312 6.59375 C 17.34375 6.707031 17.65625 6.917969 17.933594 7.203125 L 17.933594 4.402344 C 17.929688 3.710938 17.367188 3.183594 16.671875 3.183594 Z M 16.671875 3.183594 "/>
    <path style=" stroke:none;fill-rule:nonzero;fill:rgb(0%,0%,0%);fill-opacity:1;" d="M 16.695312 7.335938 L 16.582031 7.675781 C 16.4375 8.113281 16.027344 8.410156 15.5625 8.410156 L 13.4375 8.410156 C 13.09375 8.410156 12.765625 8.242188 12.566406 7.964844 C 12.421875 7.761719 12.351562 7.515625 12.367188 7.273438 L 11.480469 7.265625 L 11.402344 7.503906 C 11.253906 7.945312 10.847656 8.246094 10.382812 8.246094 L 8.257812 8.246094 C 7.914062 8.246094 7.585938 8.074219 7.386719 7.792969 C 7.277344 7.640625 7.210938 7.460938 7.191406 7.28125 C 6.921875 7.332031 6.660156 7.433594 6.421875 7.578125 L 3.824219 9.160156 L 9.390625 9.160156 C 10.71875 9.160156 11.789062 10.199219 11.789062 11.523438 L 11.789062 13.480469 C 11.789062 13.777344 11.730469 14.058594 11.613281 14.3125 L 17.316406 10.898438 C 17.683594 10.679688 17.929688 10.277344 17.929688 9.847656 L 17.929688 8.902344 C 17.929688 8.144531 17.402344 7.511719 16.695312 7.335938 Z M 16.695312 7.335938 "/>
    <path style=" stroke:none;fill-rule:nonzero;fill:rgb(0%,0%,0%);fill-opacity:1;" d="M 8.257812 7.636719 L 10.386719 7.636719 C 10.59375 7.636719 10.777344 7.507812 10.84375 7.308594 L 11.308594 5.917969 C 11.355469 5.769531 11.332031 5.609375 11.242188 5.484375 C 11.152344 5.359375 11.003906 5.285156 10.847656 5.285156 L 8.722656 5.285156 C 8.515625 5.285156 8.328125 5.417969 8.261719 5.613281 L 7.800781 7.003906 C 7.75 7.152344 7.773438 7.3125 7.867188 7.4375 C 7.957031 7.566406 8.101562 7.636719 8.257812 7.636719 Z M 8.257812 7.636719 "/>
    <path style=" stroke:none;fill-rule:nonzero;fill:rgb(0%,0%,0%);fill-opacity:1;" d="M 13.4375 7.804688 L 15.566406 7.804688 C 15.773438 7.804688 15.957031 7.675781 16.023438 7.480469 L 16.488281 6.09375 C 16.535156 5.945312 16.511719 5.78125 16.421875 5.65625 C 16.332031 5.527344 16.183594 5.449219 16.027344 5.449219 L 13.902344 5.449219 C 13.695312 5.449219 13.507812 5.585938 13.445312 5.785156 L 12.980469 7.179688 C 12.929688 7.328125 12.953125 7.484375 13.046875 7.609375 C 13.136719 7.734375 13.28125 7.804688 13.4375 7.804688 Z M 13.4375 7.804688 "/>
  </g>
</svg>