<?xml version="1.0" encoding="UTF-8" standalone="no"?>
<!-- Generator: Adobe Illustrator 16.0.0, SVG Export Plug-In . SVG Version: 6.00 Build 0)  -->

<svg
   xmlns:dc="http://purl.org/dc/elements/1.1/"
   xmlns:cc="http://creativecommons.org/ns#"
   xmlns:rdf="http://www.w3.org/1999/02/22-rdf-syntax-ns#"
   xmlns:svg="http://www.w3.org/2000/svg"
   xmlns="http://www.w3.org/2000/svg"
   xmlns:sodipodi="http://sodipodi.sourceforge.net/DTD/sodipodi-0.dtd"
   xmlns:inkscape="http://www.inkscape.org/namespaces/inkscape"
   version="1.1"
   id="Capa_1"
   x="0px"
   y="0px"
   width="24"
   height="24"
   viewBox="0 0 23.999999 24.000001"
   xml:space="preserve"
   inkscape:version="0.48.5 r10040"
   sodipodi:docname="kale_pacheh.svg"><metadata
     id="metadata3263"><rdf:RDF><cc:Work
         rdf:about=""><dc:format>image/svg+xml</dc:format><dc:type
           rdf:resource="http://purl.org/dc/dcmitype/StillImage" /><dc:title></dc:title></cc:Work></rdf:RDF></metadata><defs
     id="defs3261" /><sodipodi:namedview
     pagecolor="#ffffff"
     bordercolor="#666666"
     borderopacity="1"
     objecttolerance="10"
     gridtolerance="10"
     guidetolerance="10"
     inkscape:pageopacity="0"
     inkscape:pageshadow="2"
     inkscape:window-width="657"
     inkscape:window-height="480"
     id="namedview3259"
     showgrid="false"
     inkscape:zoom="3.5648953"
     inkscape:cx="23.020761"
     inkscape:cy="-1.8892742"
     inkscape:window-x="0"
     inkscape:window-y="27"
     inkscape:window-maximized="0"
     inkscape:current-layer="Capa_1" /><g
     id="g3219"
     transform="matrix(0.06103238,0,0,0.06103238,0.57201025,0.57199953)"><g
       id="g3221"><path
         d="m 313.061,109.143 c -0.349,-16.349 -14.49,-29.65 -31.527,-29.65 -0.24,0 -0.479,0.002 -0.718,0.007 -0.044,0.001 -0.087,0.002 -0.131,0.004 l -6.896,0.267 -1.454,-6.175 c -3.212,-13.648 -16.147,-23.555 -30.761,-23.555 -0.238,0 -0.478,0.002 -0.719,0.007 -4.984,0.106 -9.739,1.297 -14.133,3.54 l -6.817,3.478 -3.526,-6.79 C 211,39.917 200.183,33.482 188.146,33.482 c -0.247,0 -0.492,0.002 -0.741,0.008 l -0.158,0.004 -0.162,-0.004 c -12.332,-0.272 -23.483,6.216 -28.971,16.786 l -3.527,6.792 -6.816,-3.479 c -4.395,-2.242 -9.149,-3.433 -14.135,-3.54 -0.239,-0.005 -0.48,-0.007 -0.718,-0.007 -14.611,0 -27.549,9.906 -30.761,23.555 l -1.453,6.173 -7.091,-0.271 c -0.175,-0.003 -0.416,-0.006 -0.655,-0.006 -17.037,0 -31.18,13.301 -31.527,29.649 -0.159,7.43 2.528,14.642 7.567,20.307 l 9.216,10.36 c 0.854,0.96 2.077,1.509 3.362,1.509 h 0.47 c 0.68,0 6.667,0.201 7.729,7.15 0.063,0.414 0.152,1.027 0.269,1.827 7.179,49.464 17.402,84.759 24.715,105.66 13.575,38.801 37.172,85.053 72.488,85.053 35.306,0 58.897,-46.229 72.472,-85.012 7.313,-20.892 17.539,-56.185 24.73,-105.682 0.117,-0.809 0.208,-1.43 0.271,-1.842 1.064,-6.954 7.053,-7.154 7.73,-7.154 h 0.469 c 1.285,0 2.509,-0.549 3.362,-1.51 l 9.214,-10.359 c 5.037,-5.665 7.725,-12.877 7.566,-20.306 z"
         id="path3223"
         inkscape:connector-curvature="0" /><path
         d="m 69.366,141.085 -4.427,1.003 c -15.029,3.406 -43.612,19.53 -60.754,49.99 -6.445,11.453 -4.599,24.848 -0.155,32.446 3.275,5.601 7.917,8.687 13.069,8.687 7.37,0 16.154,-6.023 24.734,-16.961 11.782,-15.021 22.822,-38.371 32.811,-69.396 0.496,-1.539 0.128,-3.225 -0.964,-4.417 -1.09,-1.194 -2.737,-1.709 -4.314,-1.352 z"
         id="path3225"
         inkscape:connector-curvature="0" /><path
         d="m 370.303,192.078 c -17.141,-30.459 -45.725,-46.583 -60.754,-49.99 l -4.424,-1.003 c -1.58,-0.356 -3.224,0.158 -4.313,1.351 -1.093,1.192 -1.46,2.878 -0.965,4.417 9.988,31.024 21.026,54.371 32.81,69.393 8.581,10.938 17.365,16.963 24.736,16.965 h 0.001 c 5.152,0 9.795,-3.084 13.067,-8.684 4.443,-7.599 6.288,-20.994 -0.158,-32.449 z"
         id="path3227"
         inkscape:connector-curvature="0" /></g></g><g
     id="g3229"
     transform="translate(0,-350.49)" /><g
     id="g3231"
     transform="translate(0,-350.49)" /><g
     id="g3233"
     transform="translate(0,-350.49)" /><g
     id="g3235"
     transform="translate(0,-350.49)" /><g
     id="g3237"
     transform="translate(0,-350.49)" /><g
     id="g3239"
     transform="translate(0,-350.49)" /><g
     id="g3241"
     transform="translate(0,-350.49)" /><g
     id="g3243"
     transform="translate(0,-350.49)" /><g
     id="g3245"
     transform="translate(0,-350.49)" /><g
     id="g3247"
     transform="translate(0,-350.49)" /><g
     id="g3249"
     transform="translate(0,-350.49)" /><g
     id="g3251"
     transform="translate(0,-350.49)" /><g
     id="g3253"
     transform="translate(0,-350.49)" /><g
     id="g3255"
     transform="translate(0,-350.49)" /><g
     id="g3257"
     transform="translate(0,-350.49)" /></svg>