<?xml version="1.0" encoding="UTF-8" standalone="yes"?>
<svg xmlns="http://www.w3.org/2000/svg" xmlns:xlink="http://www.w3.org/1999/xlink" width="24px" height="24px" viewBox="0 0 18 18" version="1.1">
  <g id="surface1">
    <path style=" stroke:none;fill-rule:nonzero;fill:rgb(0%,0%,0%);fill-opacity:1;" d="M 16.210938 2.125 C 15.753906 2.125 15.378906 2.496094 15.378906 2.957031 C 15.378906 3.019531 15.386719 3.078125 15.398438 3.136719 L 14.085938 4.082031 C 13.421875 4.5625 12.597656 4.691406 12.199219 4.429688 C 11.804688 4.171875 11.859375 3.480469 12.359375 2.832031 L 13.265625 1.652344 C 13.304688 1.660156 13.351562 1.664062 13.394531 1.664062 C 13.855469 1.664062 14.226562 1.292969 14.226562 0.832031 C 14.226562 0.375 13.855469 0 13.394531 0 C 12.933594 0 12.5625 0.371094 12.5625 0.832031 C 12.5625 0.960938 12.59375 1.082031 12.644531 1.191406 L 11.621094 2.527344 C 11.121094 3.175781 10.433594 3.601562 10.070312 3.523438 C 9.855469 3.476562 9.632812 3.441406 9.410156 3.417969 C 9.410156 3.417969 9 3.40625 8.835938 3.414062 C 8.667969 3.414062 8.386719 3.4375 8.273438 3.445312 C 8.160156 3.453125 7.828125 3.476562 7.710938 3.5 C 7.65625 3.511719 7.578125 3.515625 7.507812 3.523438 C 7.394531 3.535156 7.152344 3.59375 6.960938 3.648438 C 6.847656 3.679688 6.722656 3.714844 6.613281 3.757812 C 6.429688 3.820312 6.09375 3.941406 5.929688 4.03125 C 5.777344 4.101562 5.59375 4.191406 5.441406 4.285156 L 5.132812 4.476562 C 3.246094 5.714844 2.117188 7.796875 2.117188 10.050781 C 2.117188 10.355469 2.152344 10.785156 2.230469 11.238281 C 2.25 11.355469 2.261719 11.472656 2.269531 11.589844 C 2.320312 11.878906 2.367188 12.167969 2.433594 12.449219 C 2.265625 12.59375 2.054688 12.761719 1.816406 12.933594 C 1.25 13.335938 0.867188 13.765625 0.957031 13.890625 C 1.015625 13.972656 1.25 13.933594 1.550781 13.804688 C 1.867188 13.671875 2.332031 13.382812 2.601562 13.203125 C 2.648438 13.167969 2.6875 13.140625 2.730469 13.113281 C 2.726562 13.09375 2.71875 13.078125 2.710938 13.0625 C 2.691406 13.023438 2.585938 12.46875 2.507812 11.589844 C 2.21875 9.230469 3.277344 7.3125 4.144531 6.257812 C 4.664062 5.625 5.203125 5.300781 5.1875 5.375 C 5.175781 5.453125 4.738281 6.023438 4.308594 6.71875 C 3.039062 8.765625 2.789062 10.640625 2.804688 11.871094 C 2.816406 12.6875 3.015625 13.398438 3.0625 13.472656 C 3.109375 13.542969 2.804688 14.046875 2.382812 14.597656 C 1.960938 15.148438 1.71875 15.671875 1.839844 15.765625 C 1.921875 15.828125 2.132812 15.722656 2.382812 15.511719 C 2.648438 15.292969 3.007812 14.882812 3.214844 14.628906 C 3.429688 14.363281 3.566406 14.171875 3.550781 14.148438 C 3.527344 14.109375 3.410156 13.417969 3.421875 12.597656 C 3.433594 11.46875 3.613281 9.839844 4.347656 8.160156 C 4.675781 7.410156 5.03125 7.085938 5.046875 7.382812 C 5.0625 7.675781 4.734375 8.46875 4.414062 9.222656 C 3.847656 10.554688 3.65625 11.851562 3.605469 12.800781 C 3.5625 13.617188 3.734375 14.414062 3.871094 14.566406 C 4.007812 14.714844 4.109375 14.164062 4.144531 13.34375 C 4.179688 12.46875 4.3125 11.371094 4.726562 10.195312 C 5 9.421875 5.394531 9.027344 5.503906 9.238281 C 5.613281 9.453125 5.316406 10.140625 5.011719 10.898438 C 4.65625 11.773438 4.476562 12.71875 4.382812 13.484375 C 4.285156 14.296875 4.402344 15.074219 4.554688 15.203125 C 4.710938 15.335938 4.859375 14.761719 4.949219 13.949219 C 5.035156 13.1875 5.195312 12.269531 5.507812 11.425781 C 5.617188 11.128906 5.769531 10.882812 5.925781 10.707031 C 6.195312 10.398438 6.625 10.722656 6.472656 11.101562 C 6.378906 11.335938 6.25 11.609375 6.105469 11.902344 C 5.738281 12.636719 5.484375 13.441406 5.316406 14.105469 C 5.113281 14.898438 5.128906 15.632812 5.265625 15.71875 C 5.398438 15.800781 5.628906 15.207031 5.839844 14.414062 C 6.015625 13.742188 6.257812 12.945312 6.640625 12.238281 C 7.15625 11.285156 7.613281 11.105469 7.769531 11.191406 C 7.925781 11.28125 7.683594 11.90625 7.28125 12.617188 C 6.898438 13.296875 6.546875 13.996094 6.265625 14.574219 C 5.90625 15.308594 5.722656 15.976562 5.839844 16.03125 C 5.957031 16.089844 6.363281 15.535156 6.757812 14.816406 C 7.066406 14.257812 7.445312 13.578125 7.84375 12.921875 C 8.269531 12.222656 8.621094 11.898438 8.691406 11.847656 C 8.832031 11.75 8.996094 11.714844 9.109375 11.773438 C 9.203125 11.824219 9.246094 12.007812 9.222656 12.105469 C 9.183594 12.277344 9.082031 12.652344 8.570312 13.292969 C 8.074219 13.921875 7.566406 14.539062 7.148438 15.046875 C 6.625 15.675781 6.304688 16.242188 6.4375 16.292969 C 6.574219 16.347656 7.140625 15.894531 7.6875 15.285156 C 8.121094 14.800781 8.644531 14.207031 9.144531 13.605469 C 9.667969 12.976562 10.210938 12.527344 10.382812 12.632812 C 10.558594 12.738281 10.269531 13.335938 9.6875 13.910156 C 9.125 14.464844 8.5 15.019531 7.980469 15.46875 C 7.359375 16.003906 6.953125 16.460938 7.097656 16.5 C 7.242188 16.539062 7.914062 16.191406 8.5625 15.691406 C 9.078125 15.296875 9.679688 14.804688 10.234375 14.285156 C 10.828125 13.722656 11.386719 13.304688 11.542969 13.4375 C 11.703125 13.570312 11.382812 14.183594 10.726562 14.675781 C 10.113281 15.132812 9.414062 15.5625 8.824219 15.902344 C 8.117188 16.308594 7.675781 16.640625 7.871094 16.664062 C 8.0625 16.683594 8.839844 16.441406 9.574219 16.078125 C 10.074219 15.828125 10.644531 15.515625 11.171875 15.148438 C 11.84375 14.679688 12.367188 14.277344 12.460938 14.410156 C 12.550781 14.542969 12.078125 15.046875 11.363281 15.445312 C 10.84375 15.734375 10.261719 16.023438 9.722656 16.25 C 8.96875 16.570312 8.566406 16.71875 8.882812 16.714844 C 9.050781 16.710938 9.246094 16.703125 9.457031 16.683594 C 9.859375 16.640625 10.789062 16.359375 11.648438 15.964844 C 12.03125 15.792969 12.558594 15.488281 13.113281 15.023438 C 13.320312 15.429688 13.722656 15.839844 14.386719 15.800781 C 14.433594 16.046875 14.480469 16.34375 14.441406 16.414062 C 14.441406 16.414062 14.375 16.4375 14.171875 16.367188 C 13.109375 15.996094 11.230469 15.917969 10.8125 16.644531 C 10.597656 17.015625 10.773438 17.445312 11.332031 17.925781 C 11.382812 17.96875 11.449219 17.992188 11.511719 17.992188 C 11.589844 17.992188 11.667969 17.957031 11.722656 17.894531 C 11.824219 17.777344 11.8125 17.601562 11.695312 17.5 C 11.355469 17.210938 11.25 17 11.292969 16.921875 C 11.476562 16.605469 12.953125 16.53125 13.988281 16.890625 C 14.121094 16.9375 14.527344 17.078125 14.800781 16.839844 C 15.070312 16.601562 15.027344 16.171875 14.933594 15.699219 C 15.542969 15.535156 15.941406 15.25 16.039062 14.910156 C 16.097656 14.695312 16.039062 14.484375 15.871094 14.328125 C 15.613281 14.089844 15.035156 13.859375 14.628906 14.042969 C 14.472656 14.113281 14.214844 14.304688 14.226562 14.796875 C 14.230469 14.9375 14.25 15.089844 14.277344 15.242188 C 13.832031 15.214844 13.628906 14.847656 13.550781 14.628906 C 13.9375 14.25 14.324219 13.792969 14.667969 13.242188 C 15.113281 12.53125 15.355469 11.703125 15.425781 10.789062 C 15.457031 10.378906 15.417969 9.714844 15.351562 9.3125 C 15.3125 9.09375 15.261719 8.839844 15.1875 8.570312 C 15.003906 7.894531 14.71875 7.253906 14.355469 6.667969 C 13.921875 5.96875 13.992188 5.105469 14.65625 4.625 L 15.902344 3.726562 C 16 3.765625 16.105469 3.789062 16.214844 3.789062 C 16.671875 3.789062 17.046875 3.417969 17.046875 2.957031 C 17.046875 2.496094 16.671875 2.125 16.210938 2.125 Z M 14.859375 14.550781 C 14.886719 14.539062 14.921875 14.535156 14.960938 14.535156 C 15.128906 14.535156 15.378906 14.632812 15.503906 14.75 C 15.503906 14.789062 15.371094 14.996094 14.828125 15.152344 C 14.804688 15.019531 14.789062 14.894531 14.785156 14.785156 C 14.78125 14.695312 14.792969 14.582031 14.859375 14.550781 Z M 9.972656 5.175781 C 10.324219 5.472656 10.738281 5.820312 11.199219 6.199219 C 12.433594 7.214844 13.121094 7.953125 13.71875 9.101562 C 14.09375 9.828125 14.023438 9.859375 13.542969 9.195312 C 12.8125 8.191406 11.945312 7.390625 10.859375 6.445312 C 10.445312 6.082031 10.078125 5.714844 9.769531 5.367188 C 9.226562 4.757812 9.347656 4.648438 9.972656 5.175781 Z M 8.972656 5.472656 C 9.355469 5.929688 9.835938 6.441406 10.417969 6.949219 C 11.5625 7.945312 12.453125 8.773438 13.1875 9.867188 C 13.644531 10.546875 13.59375 10.570312 13.066406 9.945312 C 12.277344 9 11.328125 8.261719 10.207031 7.390625 C 9.542969 6.867188 9.054688 6.226562 8.707031 5.628906 C 8.292969 4.925781 8.445312 4.847656 8.972656 5.472656 Z M 12.148438 13.070312 C 11.320312 12.335938 10.261719 11.773438 9.226562 11.222656 C 8.234375 10.699219 7.296875 10.199219 6.59375 9.578125 C 5.824219 8.898438 5.660156 7.714844 5.699219 6.664062 C 5.730469 5.84375 5.847656 5.863281 6.011719 6.664062 C 6.1875 7.515625 6.566406 8.425781 7.332031 9.105469 C 7.972656 9.667969 8.734375 10.164062 9.476562 10.644531 C 10.515625 11.320312 11.582031 12.011719 12.347656 12.925781 C 12.871094 13.554688 12.761719 13.613281 12.148438 13.070312 Z M 12.335938 11.929688 C 11.597656 11.222656 10.710938 10.644531 9.839844 10.082031 C 9.085938 9.59375 8.375 9.132812 7.777344 8.601562 C 6.964844 7.882812 6.671875 6.816406 6.582031 5.921875 C 6.5 5.105469 6.59375 4.441406 6.605469 4.4375 C 6.617188 4.433594 6.691406 5.097656 6.949219 5.875 C 7.226562 6.714844 7.710938 7.679688 8.566406 8.4375 C 9.039062 8.855469 9.546875 9.242188 10.023438 9.617188 C 10.914062 10.3125 11.773438 10.988281 12.46875 11.832031 C 12.992188 12.460938 12.929688 12.496094 12.335938 11.929688 Z M 13.238281 11.726562 C 12.445312 10.664062 11.429688 9.867188 10.4375 9.085938 C 9.96875 8.71875 9.480469 8.335938 9.023438 7.933594 C 8.292969 7.289062 7.867188 6.449219 7.621094 5.710938 C 7.363281 4.933594 7.308594 4.265625 7.3125 4.261719 C 7.320312 4.261719 7.515625 4.902344 7.898438 5.625 C 8.292969 6.367188 8.890625 7.226562 9.773438 7.914062 C 11.363281 9.148438 12.527344 10.054688 13.402344 11.617188 C 13.804688 12.332031 14.015625 12.96875 14.011719 12.980469 C 14.003906 12.988281 13.730469 12.378906 13.238281 11.726562 Z M 14.355469 8.195312 C 14.640625 8.964844 14.464844 9.011719 14.042969 8.308594 C 13.460938 7.335938 12.753906 6.609375 11.625 5.679688 C 11.292969 5.40625 10.988281 5.152344 10.714844 4.921875 C 10.210938 4.5 10.472656 4.261719 11.207031 4.628906 C 12.621094 5.332031 13.777344 6.640625 14.355469 8.195312 Z M 14.355469 8.195312 "/>
  </g>
</svg>