<?xml version="1.0" encoding="UTF-8" standalone="yes"?>
<svg xmlns="http://www.w3.org/2000/svg" xmlns:xlink="http://www.w3.org/1999/xlink" width="24px" height="24px" viewBox="0 0 18 18" version="1.1">
  <g id="surface1">
    <path style=" stroke:none;fill-rule:nonzero;fill:rgb(0%,0%,0%);fill-opacity:1;" d="M 17.859375 14.023438 C 17.855469 14.027344 17.328125 14.203125 16.765625 14.203125 C 15.910156 14.203125 15.46875 13.800781 15.457031 13.007812 C 15.46875 12.210938 15.910156 11.808594 16.765625 11.808594 C 17.324219 11.808594 17.855469 11.984375 17.859375 11.988281 C 17.871094 11.992188 17.882812 11.992188 17.894531 11.992188 C 17.953125 11.996094 18 11.945312 18 11.886719 C 18 11.871094 17.996094 11.851562 17.988281 11.839844 C 17.960938 11.773438 17.820312 11.453125 17.503906 11.132812 C 17.183594 10.808594 16.613281 10.421875 15.726562 10.421875 C 14.324219 10.421875 13.707031 11.589844 13.519531 12.046875 L 9.644531 12.046875 L 9.644531 10.15625 L 11.605469 10.15625 C 11.71875 10.15625 11.808594 10.066406 11.808594 9.957031 L 11.808594 7.535156 C 11.808594 7.425781 11.71875 7.335938 11.605469 7.335938 L 6.429688 7.335938 C 6.316406 7.335938 6.226562 7.425781 6.226562 7.535156 L 6.226562 9.957031 C 6.226562 10.066406 6.316406 10.15625 6.429688 10.15625 L 8.453125 10.15625 L 8.453125 12.046875 L 4.480469 12.046875 C 4.289062 11.589844 3.671875 10.421875 2.273438 10.421875 C 1.382812 10.421875 0.816406 10.808594 0.496094 11.132812 C 0.148438 11.484375 0.0117188 11.835938 0.0078125 11.851562 C -0.0078125 11.886719 0 11.929688 0.03125 11.960938 C 0.0585938 11.988281 0.101562 12 0.140625 11.988281 C 0.144531 11.984375 0.671875 11.808594 1.230469 11.808594 C 2.089844 11.808594 2.53125 12.210938 2.542969 13.003906 C 2.53125 13.800781 2.089844 14.203125 1.230469 14.203125 C 0.671875 14.203125 0.144531 14.027344 0.140625 14.023438 C 0.101562 14.011719 0.0585938 14.023438 0.03125 14.050781 C 0 14.082031 -0.0078125 14.125 0.0078125 14.160156 C 0.0117188 14.175781 0.148438 14.527344 0.496094 14.878906 C 0.816406 15.203125 1.382812 15.589844 2.273438 15.589844 C 3.671875 15.589844 4.289062 14.421875 4.480469 13.964844 L 8.453125 13.964844 L 8.453125 16.53125 C 8.453125 16.589844 8.5 16.636719 8.558594 16.636719 L 9.539062 16.636719 C 9.597656 16.636719 9.644531 16.589844 9.644531 16.53125 L 9.644531 13.964844 L 13.519531 13.964844 C 13.707031 14.421875 14.324219 15.589844 15.726562 15.589844 C 16.613281 15.589844 17.183594 15.203125 17.503906 14.878906 C 17.851562 14.527344 17.988281 14.175781 17.992188 14.160156 C 18.007812 14.125 18 14.082031 17.96875 14.050781 C 17.941406 14.023438 17.898438 14.011719 17.859375 14.023438 Z M 17.859375 14.023438 "/>
    <path style=" stroke:none;fill-rule:nonzero;fill:rgb(0%,0%,0%);fill-opacity:1;" d="M 0.484375 10.25 C 0.59375 10.296875 0.722656 10.28125 0.816406 10.210938 C 0.824219 10.203125 1.554688 9.726562 2.417969 9.726562 C 3.105469 9.726562 3.6875 10.011719 4.152344 10.726562 C 4.214844 10.820312 4.320312 10.875 4.429688 10.875 C 4.433594 10.875 4.4375 10.875 4.445312 10.875 C 4.621094 10.867188 4.761719 10.722656 4.761719 10.546875 C 4.761719 10.53125 4.761719 10.515625 4.757812 10.503906 C 4.691406 9.40625 4.957031 7.886719 5.894531 6.886719 C 6.617188 6.121094 7.644531 5.730469 8.960938 5.730469 L 9.007812 5.730469 C 10.34375 5.730469 11.386719 6.121094 12.105469 6.886719 C 13.257812 8.117188 13.242188 9.902344 13.207031 10.417969 C 13.199219 10.570312 13.289062 10.707031 13.433594 10.753906 C 13.578125 10.804688 13.734375 10.746094 13.816406 10.621094 C 14.265625 9.929688 14.824219 9.695312 15.480469 9.695312 C 16.363281 9.695312 17.136719 10.199219 17.144531 10.203125 C 17.238281 10.28125 17.367188 10.300781 17.480469 10.253906 C 17.59375 10.207031 17.671875 10.101562 17.683594 9.980469 C 17.691406 9.90625 17.863281 8.125 17.234375 6.714844 C 17.164062 6.550781 16.972656 6.472656 16.808594 6.539062 L 16.703125 6.582031 C 16.3125 6.738281 15.429688 7.097656 14.929688 7.296875 C 14.855469 7.152344 14.742188 6.960938 14.566406 6.703125 C 14.46875 6.554688 14.367188 6.414062 14.289062 6.300781 C 14.601562 6 15.203125 5.421875 15.636719 4.992188 C 15.746094 4.882812 15.765625 4.710938 15.683594 4.578125 C 14.636719 2.921875 13.296875 2.136719 12.359375 1.769531 C 11.332031 1.367188 10.554688 1.363281 10.523438 1.363281 C 10.355469 1.363281 10.214844 1.484375 10.195312 1.648438 L 9.945312 3.472656 L 8.023438 3.472656 L 7.773438 1.648438 C 7.75 1.484375 7.613281 1.363281 7.445312 1.363281 C 7.414062 1.363281 6.632812 1.367188 5.609375 1.769531 C 4.667969 2.136719 3.332031 2.921875 2.285156 4.578125 C 2.203125 4.710938 2.222656 4.878906 2.332031 4.988281 C 2.761719 5.421875 3.363281 6 3.679688 6.300781 C 3.597656 6.414062 3.5 6.554688 3.402344 6.703125 C 3.226562 6.960938 3.113281 7.152344 3.039062 7.296875 C 2.523438 7.089844 1.589844 6.714844 1.234375 6.570312 L 1.160156 6.539062 C 0.996094 6.472656 0.804688 6.550781 0.734375 6.714844 C 0.105469 8.125 0.277344 9.90625 0.285156 9.980469 C 0.296875 10.097656 0.371094 10.203125 0.484375 10.25 Z M 1.222656 7.28125 C 1.804688 7.515625 2.875 7.945312 3.113281 8.039062 C 3.214844 8.078125 3.410156 8.125 3.5625 7.746094 C 3.714844 7.367188 4.019531 6.949219 4.382812 6.464844 C 4.484375 6.328125 4.46875 6.140625 4.347656 6.023438 C 4.339844 6.015625 3.582031 5.292969 2.992188 4.710938 C 3.730469 3.628906 4.679688 2.851562 5.824219 2.398438 C 6.386719 2.171875 6.871094 2.085938 7.160156 2.050781 L 7.40625 3.847656 C 7.429688 4.011719 7.570312 4.132812 7.734375 4.132812 L 10.234375 4.132812 C 10.398438 4.132812 10.539062 4.011719 10.5625 3.847656 L 10.808594 2.050781 C 11.539062 2.136719 13.519531 2.574219 14.976562 4.710938 C 14.386719 5.292969 13.628906 6.015625 13.621094 6.023438 C 13.5 6.140625 13.484375 6.328125 13.585938 6.464844 C 13.949219 6.949219 14.265625 7.40625 14.40625 7.746094 C 14.542969 8.085938 14.753906 8.078125 14.855469 8.039062 C 15.09375 7.945312 16.15625 7.519531 16.746094 7.28125 C 17 8.011719 17.046875 8.828125 17.046875 9.355469 C 16.664062 9.144531 16.101562 9.035156 15.480469 9.035156 C 15.027344 9.035156 14.429688 9.046875 13.859375 9.554688 C 13.785156 8.671875 13.507812 7.410156 12.589844 6.433594 C 11.738281 5.527344 10.535156 5.066406 9.007812 5.066406 L 8.960938 5.066406 C 7.457031 5.066406 6.261719 5.527344 5.414062 6.433594 C 4.464844 7.445312 4.179688 8.746094 4.109375 9.652344 C 3.515625 9.117188 2.890625 9.0625 2.417969 9.0625 C 1.824219 9.0625 1.289062 9.1875 0.921875 9.375 C 0.917969 8.847656 0.964844 8.023438 1.222656 7.28125 Z M 1.222656 7.28125 "/>
  </g>
</svg>