<?xml version="1.0" encoding="UTF-8" standalone="yes"?>
<svg xmlns="http://www.w3.org/2000/svg" xmlns:xlink="http://www.w3.org/1999/xlink" width="24px" height="24px" viewBox="0 0 18 18" version="1.1">
  <g id="surface1">
    <path style=" stroke:none;fill-rule:nonzero;fill:rgb(0%,0%,0%);fill-opacity:1;" d="M 11.761719 17.132812 C 11.761719 17.59375 12.136719 17.96875 12.601562 17.96875 C 13.0625 17.96875 13.4375 17.59375 13.4375 17.132812 L 13.4375 13.835938 L 11.761719 15.207031 Z M 11.761719 17.132812 "/>
    <path style=" stroke:none;fill-rule:nonzero;fill:rgb(0%,0%,0%);fill-opacity:1;" d="M 14.101562 13.292969 L 14.101562 17.132812 C 14.101562 17.59375 14.476562 17.96875 14.9375 17.96875 C 15.402344 17.96875 15.777344 17.59375 15.777344 17.132812 L 15.777344 12.089844 C 16.050781 11.988281 16.261719 11.753906 16.332031 11.464844 L 15.503906 12.140625 Z M 14.101562 13.292969 "/>
    <path style=" stroke:none;fill-rule:nonzero;fill:rgb(0%,0%,0%);fill-opacity:1;" d="M 17.628906 10.378906 L 16.355469 6.460938 L 16.355469 6.007812 C 16.355469 5.5625 16.109375 5.160156 15.714844 4.957031 C 15.515625 4.859375 15.292969 4.804688 15.070312 4.804688 C 14.917969 4.804688 14.765625 4.828125 14.621094 4.875 C 14.492188 4.917969 14.378906 4.984375 14.269531 5.0625 L 13.269531 5.0625 C 13.160156 4.984375 13.042969 4.917969 12.917969 4.875 C 12.773438 4.828125 12.621094 4.804688 12.46875 4.804688 C 12.246094 4.804688 12.023438 4.855469 11.824219 4.957031 C 11.425781 5.160156 11.179688 5.5625 11.179688 6.007812 L 11.179688 6.464844 L 9.90625 10.378906 C 9.757812 10.835938 10.007812 11.328125 10.464844 11.476562 C 10.554688 11.507812 10.648438 11.519531 10.738281 11.519531 C 10.902344 11.519531 11.058594 11.46875 11.191406 11.382812 C 11.238281 11.710938 11.460938 11.976562 11.761719 12.089844 L 11.761719 12.953125 L 12.75 12.144531 L 13.460938 11.5625 L 12.0625 11.5625 C 11.894531 11.5625 11.761719 11.429688 11.761719 11.265625 L 11.761719 11.066406 L 13.476562 11.066406 L 13.476562 11.546875 L 15.484375 9.902344 L 14.058594 9.902344 L 14.058594 9.410156 L 15.777344 9.410156 L 15.777344 9.667969 L 15.910156 9.554688 C 16.042969 9.449219 16.199219 9.386719 16.355469 9.367188 C 16.644531 9.332031 16.941406 9.4375 17.136719 9.679688 C 17.441406 10.050781 17.386719 10.601562 17.015625 10.90625 L 16.390625 11.414062 C 16.59375 11.523438 16.835938 11.554688 17.070312 11.476562 C 17.527344 11.328125 17.777344 10.835938 17.628906 10.378906 Z M 11.761719 6.09375 L 11.761719 6.007812 C 11.761719 5.785156 11.886719 5.578125 12.089844 5.476562 C 12.207031 5.414062 12.335938 5.382812 12.46875 5.382812 C 12.558594 5.382812 12.648438 5.398438 12.734375 5.425781 C 12.945312 5.5 13.121094 5.652344 13.21875 5.855469 L 13.472656 6.394531 L 13.476562 8.246094 L 11.761719 8.246094 Z M 11.761719 9.902344 L 11.761719 9.410156 L 13.476562 9.410156 L 13.476562 9.902344 Z M 14.054688 8.246094 L 14.054688 6.394531 L 14.320312 5.855469 C 14.417969 5.652344 14.59375 5.5 14.804688 5.425781 C 14.890625 5.398438 14.980469 5.382812 15.070312 5.382812 C 15.199219 5.382812 15.332031 5.414062 15.449219 5.476562 C 15.648438 5.578125 15.777344 5.785156 15.777344 6.007812 L 15.777344 8.246094 Z M 14.054688 8.246094 "/>
    <path style=" stroke:none;fill-rule:nonzero;fill:rgb(0%,0%,0%);fill-opacity:1;" d="M 11.949219 2.753906 C 11.976562 3.734375 12.777344 4.527344 13.769531 4.527344 C 14.757812 4.527344 15.5625 3.734375 15.589844 2.75 C 15.585938 2.75 15.582031 2.753906 15.582031 2.753906 Z M 11.949219 2.753906 "/>
    <path style=" stroke:none;fill-rule:nonzero;fill:rgb(0%,0%,0%);fill-opacity:1;" d="M 11.945312 2.171875 L 15.582031 2.171875 C 15.78125 2.171875 15.941406 2.007812 15.941406 1.808594 C 15.941406 1.609375 15.78125 1.449219 15.582031 1.449219 L 15.546875 1.449219 C 15.375 0.621094 14.640625 0 13.761719 0 C 12.886719 0 12.152344 0.621094 11.980469 1.449219 L 11.945312 1.449219 C 11.746094 1.449219 11.585938 1.609375 11.585938 1.808594 C 11.585938 2.007812 11.746094 2.171875 11.945312 2.171875 Z M 11.945312 2.171875 "/>
    <path style=" stroke:none;fill-rule:nonzero;fill:rgb(0%,0%,0%);fill-opacity:1;" d="M 10.8125 15.980469 L 10.535156 15.640625 L 16.738281 10.566406 C 16.925781 10.414062 16.953125 10.140625 16.800781 9.953125 C 16.648438 9.769531 16.375 9.742188 16.1875 9.894531 L 9.984375 14.96875 L 9.707031 14.628906 L 9.546875 14.433594 C 9.46875 14.339844 9.359375 14.285156 9.238281 14.28125 C 9.121094 14.277344 9.003906 14.324219 8.921875 14.410156 L 7.472656 15.96875 C 7.328125 16.121094 7.320312 16.351562 7.453125 16.511719 L 8.523438 17.820312 C 8.652344 17.980469 8.882812 18.015625 9.058594 17.910156 L 10.871094 16.792969 C 10.972656 16.730469 11.042969 16.625 11.0625 16.507812 C 11.082031 16.390625 11.050781 16.269531 10.972656 16.175781 Z M 10.8125 15.980469 "/>
    <path style=" stroke:none;fill-rule:nonzero;fill:rgb(0%,0%,0%);fill-opacity:1;" d="M 4.941406 12.921875 C 4.703125 12.390625 4.175781 12.050781 3.59375 12.050781 C 3.011719 12.050781 2.484375 12.390625 2.25 12.921875 L 0.382812 17.109375 C 0.292969 17.308594 0.3125 17.53125 0.429688 17.710938 C 0.546875 17.890625 0.742188 18 0.957031 18 L 6.230469 18 C 6.445312 18 6.640625 17.890625 6.761719 17.710938 C 6.875 17.53125 6.894531 17.308594 6.804688 17.109375 Z M 6.335938 17.4375 C 6.3125 17.472656 6.273438 17.496094 6.230469 17.496094 L 0.957031 17.496094 C 0.914062 17.496094 0.875 17.472656 0.851562 17.4375 C 0.828125 17.402344 0.824219 17.355469 0.84375 17.316406 L 2.710938 13.128906 C 2.863281 12.78125 3.210938 12.554688 3.59375 12.554688 C 3.976562 12.554688 4.324219 12.78125 4.480469 13.128906 L 6.34375 17.316406 C 6.363281 17.355469 6.359375 17.402344 6.335938 17.4375 Z M 6.335938 17.4375 "/>
    <path style=" stroke:none;fill-rule:nonzero;fill:rgb(0%,0%,0%);fill-opacity:1;" d="M 4.203125 13.390625 C 4.203125 13.605469 4.03125 13.773438 3.820312 13.773438 C 3.609375 13.773438 3.4375 13.605469 3.4375 13.390625 C 3.4375 13.179688 3.609375 13.007812 3.820312 13.007812 C 4.03125 13.007812 4.203125 13.179688 4.203125 13.390625 Z M 4.203125 13.390625 "/>
    <path style=" stroke:none;fill-rule:nonzero;fill:rgb(0%,0%,0%);fill-opacity:1;" d="M 4.683594 14.421875 C 4.683594 14.238281 4.535156 14.089844 4.351562 14.089844 C 4.167969 14.089844 4.019531 14.238281 4.019531 14.421875 C 4.019531 14.605469 4.167969 14.753906 4.351562 14.753906 C 4.535156 14.753906 4.683594 14.605469 4.683594 14.421875 Z M 4.683594 14.421875 "/>
    <path style=" stroke:none;fill-rule:nonzero;fill:rgb(0%,0%,0%);fill-opacity:1;" d="M 5.171875 15.433594 C 5.171875 15.617188 5.023438 15.765625 4.839844 15.765625 C 4.65625 15.765625 4.507812 15.617188 4.507812 15.433594 C 4.507812 15.25 4.65625 15.101562 4.839844 15.101562 C 5.023438 15.101562 5.171875 15.25 5.171875 15.433594 Z M 5.171875 15.433594 "/>
    <path style=" stroke:none;fill-rule:nonzero;fill:rgb(0%,0%,0%);fill-opacity:1;" d="M 3.515625 14.28125 C 3.515625 14.464844 3.367188 14.613281 3.183594 14.613281 C 3 14.613281 2.851562 14.464844 2.851562 14.28125 C 2.851562 14.097656 3 13.949219 3.183594 13.949219 C 3.367188 13.949219 3.515625 14.097656 3.515625 14.28125 Z M 3.515625 14.28125 "/>
    <path style=" stroke:none;fill-rule:nonzero;fill:rgb(0%,0%,0%);fill-opacity:1;" d="M 4.019531 15.289062 C 4.019531 15.472656 3.871094 15.621094 3.6875 15.621094 C 3.503906 15.621094 3.355469 15.472656 3.355469 15.289062 C 3.355469 15.109375 3.503906 14.960938 3.6875 14.960938 C 3.871094 14.960938 4.019531 15.109375 4.019531 15.289062 Z M 4.019531 15.289062 "/>
  </g>
</svg>