<?xml version="1.0" encoding="UTF-8" standalone="yes"?>
<svg xmlns="http://www.w3.org/2000/svg" xmlns:xlink="http://www.w3.org/1999/xlink" width="24px" height="24px" viewBox="0 0 18 18" version="1.1">
  <g id="surface1">
    <path style=" stroke:none;fill-rule:nonzero;fill:rgb(0%,0%,0%);fill-opacity:1;" d="M 0 14.695312 C 0 15.257812 0.445312 15.722656 1.007812 15.722656 L 16.96875 15.722656 C 17.53125 15.722656 17.988281 15.257812 17.988281 14.695312 L 17.988281 12.984375 L 0 12.984375 Z M 10.164062 13.761719 L 16.425781 13.761719 C 16.746094 13.761719 17.011719 14.015625 17.011719 14.34375 C 17.011719 14.664062 16.75 14.921875 16.425781 14.921875 L 10.164062 14.921875 C 9.839844 14.921875 9.578125 14.664062 9.578125 14.34375 C 9.578125 14.015625 9.839844 13.761719 10.164062 13.761719 Z M 10.164062 13.761719 "/>
    <path style=" stroke:none;fill-rule:nonzero;fill:rgb(0%,0%,0%);fill-opacity:1;" d="M 16.96875 4.367188 L 12.46875 4.367188 L 12.46875 5.433594 C 12.46875 5.898438 12.253906 6.328125 11.886719 6.613281 C 11.628906 6.816406 11.300781 6.925781 10.96875 6.925781 C 10.933594 6.925781 10.894531 6.925781 10.855469 6.921875 L 11.242188 7.792969 C 11.410156 8.171875 11.332031 8.609375 11.046875 8.902344 C 10.855469 9.101562 10.589844 9.210938 10.316406 9.210938 C 10.1875 9.210938 10.058594 9.1875 9.941406 9.140625 L 9.867188 9.109375 L 9.839844 9.1875 C 9.695312 9.570312 9.335938 9.828125 8.921875 9.839844 L 8.890625 9.839844 C 8.492188 9.839844 8.128906 9.605469 7.96875 9.242188 L 6.828125 6.675781 L 5.691406 9.238281 C 5.53125 9.605469 5.167969 9.839844 4.765625 9.839844 L 4.734375 9.839844 C 4.320312 9.828125 3.960938 9.570312 3.820312 9.183594 L 3.792969 9.109375 L 3.71875 9.136719 C 3.597656 9.1875 3.472656 9.210938 3.339844 9.210938 C 3.066406 9.210938 2.804688 9.097656 2.613281 8.90625 C 2.328125 8.605469 2.25 8.171875 2.417969 7.792969 L 2.804688 6.921875 C 2.765625 6.925781 2.726562 6.925781 2.6875 6.925781 C 2.359375 6.925781 2.027344 6.8125 1.765625 6.609375 C 1.40625 6.332031 1.1875 5.890625 1.1875 5.433594 L 1.1875 4.367188 L 1.007812 4.367188 C 0.445312 4.367188 0 4.824219 0 5.386719 L 0 10.636719 L 17.988281 10.636719 L 17.988281 5.386719 C 17.988281 4.824219 17.53125 4.367188 16.96875 4.367188 Z M 16.96875 4.367188 "/>
    <path style=" stroke:none;fill-rule:nonzero;fill:rgb(0%,0%,0%);fill-opacity:1;" d="M 8.683594 8.925781 C 8.71875 9.011719 8.800781 9.0625 8.890625 9.0625 C 8.894531 9.0625 8.894531 9.0625 8.898438 9.0625 C 8.992188 9.0625 9.074219 9 9.105469 8.914062 L 9.332031 8.304688 C 9.351562 8.246094 9.394531 8.199219 9.453125 8.171875 C 9.480469 8.160156 9.511719 8.152344 9.542969 8.152344 C 9.574219 8.152344 9.601562 8.160156 9.628906 8.171875 L 10.234375 8.414062 C 10.261719 8.425781 10.289062 8.429688 10.320312 8.429688 C 10.378906 8.429688 10.4375 8.40625 10.480469 8.359375 C 10.546875 8.292969 10.5625 8.195312 10.527344 8.109375 L 9.902344 6.703125 L 7.921875 6.195312 C 7.804688 6.269531 7.683594 6.332031 7.550781 6.375 Z M 8.683594 8.925781 "/>
    <path style=" stroke:none;fill-rule:nonzero;fill:rgb(0%,0%,0%);fill-opacity:1;" d="M 3.132812 8.109375 C 3.09375 8.195312 3.113281 8.292969 3.175781 8.359375 C 3.222656 8.40625 3.28125 8.429688 3.339844 8.429688 C 3.371094 8.429688 3.398438 8.425781 3.425781 8.414062 L 4.03125 8.171875 C 4.058594 8.160156 4.085938 8.152344 4.113281 8.152344 C 4.144531 8.152344 4.175781 8.160156 4.207031 8.171875 C 4.261719 8.199219 4.308594 8.246094 4.328125 8.300781 L 4.554688 8.914062 C 4.585938 9 4.667969 9.0625 4.761719 9.0625 C 4.761719 9.0625 4.765625 9.0625 4.765625 9.0625 C 4.855469 9.0625 4.9375 9.011719 4.976562 8.925781 L 6.105469 6.375 C 5.976562 6.332031 5.851562 6.269531 5.738281 6.195312 L 3.757812 6.703125 Z M 3.132812 8.109375 "/>
    <path style=" stroke:none;fill-rule:nonzero;fill:rgb(0%,0%,0%);fill-opacity:1;" d="M 2.257812 5.992188 C 2.429688 6.128906 2.652344 6.175781 2.867188 6.121094 L 5.164062 5.535156 C 5.066406 5.328125 5.011719 5.09375 5.011719 4.847656 L 5.011719 3.628906 C 5.011719 3.359375 5.074219 3.105469 5.195312 2.882812 L 2.867188 2.289062 C 2.652344 2.234375 2.429688 2.28125 2.257812 2.417969 C 2.082031 2.550781 1.984375 2.757812 1.984375 2.976562 L 1.984375 5.433594 C 1.984375 5.652344 2.082031 5.859375 2.257812 5.992188 Z M 2.257812 5.992188 "/>
    <path style=" stroke:none;fill-rule:nonzero;fill:rgb(0%,0%,0%);fill-opacity:1;" d="M 8.667969 4.847656 C 8.667969 5.09375 8.605469 5.328125 8.503906 5.535156 L 10.792969 6.121094 C 11.007812 6.175781 11.238281 6.128906 11.414062 5.992188 C 11.585938 5.859375 11.695312 5.652344 11.695312 5.433594 L 11.695312 2.976562 C 11.695312 2.757812 11.585938 2.550781 11.414062 2.417969 C 11.238281 2.28125 11.011719 2.234375 10.796875 2.289062 L 8.476562 2.882812 C 8.597656 3.105469 8.667969 3.359375 8.667969 3.628906 Z M 8.667969 4.847656 "/>
    <path style=" stroke:none;fill-rule:nonzero;fill:rgb(0%,0%,0%);fill-opacity:1;" d="M 6.613281 5.675781 L 7.042969 5.675781 C 7.496094 5.675781 7.867188 5.304688 7.867188 4.847656 L 7.867188 3.621094 C 7.867188 3.164062 7.496094 2.792969 7.042969 2.792969 L 6.613281 2.792969 C 6.15625 2.792969 5.785156 3.164062 5.785156 3.621094 L 5.785156 4.847656 C 5.785156 5.304688 6.15625 5.675781 6.613281 5.675781 Z M 6.613281 5.675781 "/>
  </g>
</svg>