<?xml version="1.0" encoding="UTF-8" standalone="yes"?>
<svg xmlns="http://www.w3.org/2000/svg" xmlns:xlink="http://www.w3.org/1999/xlink" width="24px" height="24px" viewBox="0 0 18 18" version="1.1">
  <g id="surface1">
    <path style=" stroke:none;fill-rule:nonzero;fill:rgb(0%,0%,0%);fill-opacity:1;" d="M 4.824219 3.761719 L 4.824219 1.0625 C 4.824219 0.476562 4.347656 0 3.761719 0 L 1.0625 0 C 0.480469 0 0.00390625 0.476562 0.00390625 1.0625 L 0.00390625 3.761719 C 0.00390625 4.34375 0.480469 4.820312 1.0625 4.820312 L 3.761719 4.820312 C 4.347656 4.820312 4.824219 4.34375 4.824219 3.761719 Z M 4.824219 3.761719 "/>
    <path style=" stroke:none;fill-rule:nonzero;fill:rgb(0%,0%,0%);fill-opacity:1;" d="M 10.816406 3.761719 L 10.816406 1.0625 C 10.816406 0.476562 10.339844 0 9.757812 0 L 7.058594 0 C 6.476562 0 6 0.476562 6 1.0625 L 6 3.761719 C 6 4.34375 6.476562 4.820312 7.058594 4.820312 L 9.757812 4.820312 C 10.339844 4.820312 10.816406 4.34375 10.816406 3.761719 Z M 10.816406 3.761719 "/>
    <path style=" stroke:none;fill-rule:nonzero;fill:rgb(0%,0%,0%);fill-opacity:1;" d="M 16.8125 3.761719 L 16.8125 1.0625 C 16.8125 0.476562 16.335938 0 15.753906 0 L 13.054688 0 C 12.472656 0 11.992188 0.476562 11.992188 1.0625 L 11.992188 3.761719 C 11.992188 4.34375 12.472656 4.820312 13.054688 4.820312 L 15.753906 4.820312 C 16.335938 4.820312 16.8125 4.34375 16.8125 3.761719 Z M 16.8125 3.761719 "/>
    <path style=" stroke:none;fill-rule:nonzero;fill:rgb(0%,0%,0%);fill-opacity:1;" d="M 4.824219 9.757812 L 4.824219 7.058594 C 4.824219 6.476562 4.347656 6 3.761719 6 L 1.0625 6 C 0.480469 6 0.00390625 6.476562 0.00390625 7.058594 L 0.00390625 9.757812 C 0.00390625 10.339844 0.480469 10.820312 1.0625 10.820312 L 3.761719 10.820312 C 4.347656 10.820312 4.824219 10.339844 4.824219 9.757812 Z M 4.824219 9.757812 "/>
    <path style=" stroke:none;fill-rule:nonzero;fill:rgb(0%,0%,0%);fill-opacity:1;" d="M 10.816406 9.757812 L 10.816406 7.058594 C 10.816406 6.476562 10.339844 6 9.757812 6 L 7.058594 6 C 6.476562 6 6 6.476562 6 7.058594 L 6 9.757812 C 6 10.339844 6.476562 10.820312 7.058594 10.820312 L 9.757812 10.820312 C 10.339844 10.820312 10.816406 10.339844 10.816406 9.757812 Z M 10.816406 9.757812 "/>
    <path style=" stroke:none;fill-rule:nonzero;fill:rgb(0%,0%,0%);fill-opacity:1;" d="M 16.8125 9.757812 L 16.8125 7.058594 C 16.8125 6.476562 16.335938 6 15.753906 6 L 13.054688 6 C 12.472656 6 11.992188 6.476562 11.992188 7.058594 L 11.992188 9.757812 C 11.992188 10.339844 12.472656 10.820312 13.054688 10.820312 L 15.753906 10.820312 C 16.335938 10.820312 16.8125 10.339844 16.8125 9.757812 Z M 16.8125 9.757812 "/>
    <path style=" stroke:none;fill-rule:nonzero;fill:rgb(0%,0%,0%);fill-opacity:1;" d="M 4.824219 15.753906 L 4.824219 13.058594 C 4.824219 12.472656 4.347656 11.996094 3.761719 11.996094 L 1.0625 11.996094 C 0.480469 11.996094 0.00390625 12.472656 0.00390625 13.058594 L 0.00390625 15.753906 C 0.00390625 16.335938 0.480469 16.816406 1.0625 16.816406 L 3.761719 16.816406 C 4.347656 16.816406 4.824219 16.335938 4.824219 15.753906 Z M 4.824219 15.753906 "/>
    <path style=" stroke:none;fill-rule:nonzero;fill:rgb(0%,0%,0%);fill-opacity:1;" d="M 10.816406 15.753906 L 10.816406 13.058594 C 10.816406 12.472656 10.339844 11.996094 9.757812 11.996094 L 7.058594 11.996094 C 6.476562 11.996094 6 12.472656 6 13.058594 L 6 15.753906 C 6 16.335938 6.476562 16.816406 7.058594 16.816406 L 9.757812 16.816406 C 10.339844 16.816406 10.816406 16.335938 10.816406 15.753906 Z M 10.816406 15.753906 "/>
    <path style=" stroke:none;fill-rule:nonzero;fill:rgb(0%,0%,0%);fill-opacity:1;" d="M 17.988281 16.929688 L 17.988281 14.234375 C 17.988281 13.652344 17.515625 13.171875 16.929688 13.171875 L 14.230469 13.171875 C 13.648438 13.171875 13.171875 13.648438 13.171875 14.234375 L 13.171875 16.929688 C 13.171875 17.515625 13.648438 17.992188 14.230469 17.992188 L 16.929688 17.992188 C 17.515625 17.992188 17.988281 17.515625 17.988281 16.929688 Z M 17.988281 16.929688 "/>
  </g>
</svg>