<?xml version="1.0" encoding="utf-8"?>
<!-- Generator: Adobe Illustrator 15.1.0, SVG Export Plug-In . SVG Version: 6.00 Build 0)  -->
<!DOCTYPE svg PUBLIC "-//W3C//DTD SVG 1.1//EN" "http://www.w3.org/Graphics/SVG/1.1/DTD/svg11.dtd">
<svg version="1.1" id="Layer_1" xmlns="http://www.w3.org/2000/svg" xmlns:xlink="http://www.w3.org/1999/xlink" x="0px" y="0px"
	 width="24px" height="24px" viewBox="0 0 24 24" enable-background="new 0 0 24 24" xml:space="preserve">
<path d="M21.371,10.118h-1.55c-1.281,0-2.323,1.042-2.323,2.323v2.324h-4.84c-0.321,0-0.583,0.261-0.583,0.58v5.809
	c0,0.319,0.262,0.581,0.583,0.581h6.582c0.319,0,0.581-0.262,0.581-0.581v-5.809c0-0.319-0.262-0.58-0.581-0.58h-0.192v-2.324
	c0-0.427,0.347-0.774,0.773-0.774h1.55c0.428,0,0.773,0.347,0.773,0.774v2.324h1.55v-2.324
	C23.694,11.161,22.652,10.118,21.371,10.118z M16.724,20.187h-1.549l0.336-1.685c-0.202-0.14-0.336-0.373-0.336-0.639
	c0-0.428,0.347-0.775,0.774-0.775s0.774,0.348,0.774,0.775c0,0.266-0.134,0.499-0.338,0.639L16.724,20.187z M4.074,16.328
	l2.048,1.001l-0.595,1.22l-1.094-0.535c-0.146-0.071-0.323-0.01-0.395,0.137c-0.071,0.146-0.01,0.322,0.136,0.395l1.094,0.534
	l-0.492,1.005l-1.093-0.535c-0.146-0.07-0.324-0.009-0.395,0.137c-0.071,0.147-0.011,0.324,0.136,0.396l1.093,0.535l-0.323,0.659
	l-2.048-1L4.074,16.328z M12.076,6.8v3.896c0,0.343-0.278,0.621-0.621,0.621H9.937v1.229l-0.642,0.642
	c-0.244,0.243-0.244,0.637,0,0.879l0.642,0.643v0.28l-0.539,0.54c-0.242,0.242-0.242,0.636,0,0.878l0.539,0.54v0.528l-0.642,0.643
	c-0.244,0.244-0.244,0.637,0,0.88l0.642,0.643v1.135l-1.097,1.43H8.767l-1.098-1.43v-9.459H6.151c-0.343,0-0.622-0.278-0.622-0.621
	V9.621C5.129,9.552,4.75,9.415,4.404,9.222c0.084,0.37,0.353,0.755,0.752,1.065v0.486c0,0.549,0.446,0.994,0.995,0.994h1.144v0.514
	c-0.487,0.184-1.022,0.242-1.551,0.155L1.933,20.24c-0.152,0.309-0.523,0.437-0.832,0.285l-0.448-0.218
	c-0.308-0.149-0.436-0.523-0.285-0.831l3.812-7.803c-0.884-0.818-1.213-2.108-0.782-3.27C2.787,7.701,2.413,6.763,2.413,5.734
	c0-2.171,1.663-3.938,3.708-3.938s3.709,1.767,3.709,3.938c0,0.15-0.01,0.298-0.025,0.444h1.649
	C11.798,6.178,12.076,6.458,12.076,6.8z M6.151,6.178h3.03c0.017-0.146,0.028-0.293,0.028-0.444c0-1.828-1.385-3.316-3.087-3.316
	S3.034,3.906,3.034,5.734c0,0.779,0.252,1.495,0.672,2.061c0.366-0.558,0.892-0.964,1.487-1.183
	C5.169,6.697,5.156,6.785,5.156,6.877v1.191c-0.299,0.08-0.536,0.241-0.668,0.477c0.314,0.21,0.665,0.363,1.041,0.442V6.8
	C5.529,6.458,5.808,6.178,6.151,6.178z M6.689,8.992c0.786-0.157,1.467-0.635,1.922-1.301h-1.3c-0.342,0-0.622,0.278-0.622,0.622
	V8.992L6.689,8.992z M8.305,11.441h-0.29v8.703h0.29V11.441L8.305,11.441L8.305,11.441z M10.854,8.313
	c0-0.343-0.278-0.621-0.622-0.621H9.337C8.801,8.683,7.869,9.403,6.771,9.61c0.106,0.189,0.307,0.319,0.54,0.319h2.922
	c0.343,0,0.621-0.279,0.621-0.622V8.313z"/>
</svg>
