<?xml version="1.0" encoding="utf-8"?>
<!-- Generator: Adobe Illustrator 15.1.0, SVG Export Plug-In . SVG Version: 6.00 Build 0)  -->
<!DOCTYPE svg PUBLIC "-//W3C//DTD SVG 1.1//EN" "http://www.w3.org/Graphics/SVG/1.1/DTD/svg11.dtd">
<svg version="1.1" id="Layer_1" xmlns="http://www.w3.org/2000/svg" xmlns:xlink="http://www.w3.org/1999/xlink" x="0px" y="0px"
	 width="24px" height="24px" viewBox="0 0 24 24" enable-background="new 0 0 24 24" xml:space="preserve">
<path d="M22.377,8.205c-0.387-0.082-0.859,0.222-1.187,0.398c-0.11,0.06-0.292,0.215-0.422,0.218
	c-0.234,0.005-0.479-0.04-0.709-0.06c-0.944-0.084-1.891-0.18-2.842-0.154c-1.91,0.051-3.517,0.798-4.65,2.359
	c0.032-0.137,0.063-0.224,0.063-0.224c1.3-3.128,6.141-2.399,6.141-2.399c0.515,0.06,1.084,0.167,1.603,0.065
	c0.62-0.123,0.477-0.686,0.479-1.186c0.002-0.347,0.012-1.053-0.445-1.145c-0.493-0.098-1.057,0.416-1.438,0.66
	c-0.987,0.636-2.079,0.397-3.171,0.224c-1.163-0.186-2.305-0.206-3.482-0.195c-2.266,0.021-4.62,0.258-6.211,2.05
	c-0.739,0.833-1.274,1.817-1.72,2.831c-0.419,0.952-0.896,2.087-0.512,3.125c0.039,0.103,0.084,0.202,0.137,0.298
	c-1.007,0.295-1.628,0.655-1.878,1.09l0.753,1.59c1.065,0.57,2.354,0.761,3.537,0.92c1.478,0.199,2.97,0.273,4.458,0.273
	c1.448,0,2.9-0.071,4.338-0.258c1.222-0.157,2.559-0.346,3.656-0.936l0.753-1.589c-0.247-0.43-0.854-0.786-1.835-1.079
	c0.451-0.481,0.885-0.979,1.328-1.468c0.451-0.497,1.691-1.04,1.005-1.802l-1.237-1.245c-0.741,0.87-2.04,1.497-3.167,1.583
	c-0.619,0.068-1.222-0.112-1.843-0.014l-0.012-0.046c0.606-0.151,1.222-0.026,1.827-0.149c0.853-0.141,1.634-0.579,2.27-1.154
	c0.637-0.576,1.223-1.056,2.117-0.703c0.484,0.191,1.692,1.104,2.146,0.459c0.244-0.345,0.202-0.85,0.24-1.252
	C22.495,9.031,22.816,8.295,22.377,8.205C22.209,8.171,22.536,8.237,22.377,8.205z M18.763,16.23
	c-0.13,0.168-0.361,0.271-0.55,0.355c-0.619,0.273-1.299,0.421-1.961,0.546c-1.767,0.329-3.577,0.431-5.37,0.431
	c-1.757,0-3.53-0.1-5.262-0.412c-0.679-0.123-1.372-0.27-2.011-0.541c-0.205-0.089-0.468-0.195-0.61-0.381
	c0.061-0.077,0.338-0.352,1.394-0.646c0.766,0.796,1.921,1.148,2.973,1.363c1.324,0.271,2.691,0.334,4.04,0.296
	c1.215-0.032,2.438-0.146,3.627-0.401c0.408-0.086,0.814-0.188,1.198-0.347c0.46-0.192,0.755-0.564,1.099-0.922
	C18.418,15.87,18.703,16.151,18.763,16.23C18.689,16.327,18.703,16.151,18.763,16.23z"/>
</svg>
