<?xml version="1.0" encoding="utf-8"?>
<!-- Generator: Adobe Illustrator 15.1.0, SVG Export Plug-In . SVG Version: 6.00 Build 0)  -->
<!DOCTYPE svg PUBLIC "-//W3C//DTD SVG 1.1//EN" "http://www.w3.org/Graphics/SVG/1.1/DTD/svg11.dtd">
<svg version="1.1" id="Layer_1" xmlns="http://www.w3.org/2000/svg" xmlns:xlink="http://www.w3.org/1999/xlink" x="0px" y="0px"
	 width="24px" height="24px" viewBox="0 0 24 24" enable-background="new 0 0 24 24" xml:space="preserve">
<path d="M21.006,15.761l-0.194-0.566c-0.107-0.313-0.448-0.567-0.761-0.567h-0.704c-0.528-1.482-1.175-3.271-1.363-3.691
	c-0.291-0.651-1.225-0.946-1.738-1.089c0,0-0.856-0.326-3.717-0.326c-2.859,0-3.717,0.326-3.717,0.326
	c-0.601,0.201-1.437,0.485-1.769,1.118c-0.155,0.298-0.812,2.138-1.345,3.662h-0.69c-0.313,0-0.654,0.254-0.761,0.567l-0.195,0.566
	c-0.108,0.314,0.06,0.566,0.373,0.566h0.681c-0.088,0.256-0.141,0.41-0.141,0.41C4.909,16.83,4.87,17.254,4.87,17.368v3.215v0.224
	v1.729c0,0.331,0.269,0.601,0.601,0.601h2.202c0.332,0,0.601-0.27,0.601-0.601v-1.102h8.509v1.102c0,0.331,0.271,0.601,0.601,0.601
	h2.203c0.332,0,0.601-0.27,0.601-0.601v-1.729v-0.224v-3.215c0-0.114-0.039-0.539-0.094-0.631c0,0-0.055-0.154-0.144-0.41h0.683
	C20.945,16.327,21.113,16.075,21.006,15.761z M8.261,18.926h-0.91c-0.816,0-1.63-0.109-1.63-0.627v-0.626
	c0-0.604,0.352-0.628,0.73-0.628c0.37,0,1.103,0.313,1.585,0.529c0.526,0.235,1.115,0.432,1.115,0.824
	C9.151,18.759,8.947,18.926,8.261,18.926z M6.992,14.855c0.448-1.861,0.936-2.911,1.043-3.204c0.085-0.212,0.169-0.87,4.494-0.87
	c4.324,0,4.426,0.75,4.436,0.759c0.134,0.398,0.663,1.599,1.085,3.314c0,0-1.825,0.622-5.522,0.622
	C8.832,15.477,6.992,14.855,6.992,14.855z M15.905,18.396c0-0.392,0.589-0.588,1.114-0.823c0.482-0.215,1.216-0.529,1.585-0.529
	c0.379,0,0.73,0.022,0.73,0.628v0.627h0.001c0,0.518-0.814,0.626-1.629,0.626h-0.912C16.109,18.926,15.905,18.759,15.905,18.396z
	 M6.255,7.866c-0.137,0-0.274-0.052-0.379-0.157L4.278,6.11v1.22c0,0.296-0.24,0.536-0.536,0.536c-0.295,0-0.536-0.24-0.536-0.536
	V4.817c0,0,0-0.001,0-0.002V2.396c0-0.296,0.24-0.536,0.536-0.536c0.163,0,0.309,0.072,0.407,0.187
	C4.383,1.927,4.647,1.86,4.927,1.86c0.949,0,1.721,0.772,1.721,1.721c0,0.93-0.741,1.69-1.664,1.721l1.649,1.649
	c0.209,0.209,0.209,0.548,0,0.757C6.53,7.813,6.392,7.866,6.255,7.866z M4.278,3.581c0,0.358,0.291,0.649,0.649,0.649
	s0.649-0.291,0.649-0.649c0-0.358-0.292-0.649-0.649-0.649C4.569,2.932,4.278,3.223,4.278,3.581z M16.556,7.67
	c-0.17,0-0.337-0.082-0.441-0.231l-2.315-3.344v3.015c0,0.295-0.239,0.536-0.535,0.536c-0.297,0-0.537-0.24-0.537-0.536v-4.65
	c0-0.203,0.113-0.38,0.281-0.471c0.242-0.16,0.569-0.098,0.736,0.142l2.314,3.344V2.461c0-0.295,0.24-0.536,0.536-0.536
	s0.536,0.24,0.536,0.536v4.65c0,0.204-0.114,0.38-0.282,0.471C16.759,7.641,16.656,7.67,16.556,7.67z M20.105,7.646
	c-0.296,0-0.535-0.24-0.535-0.536V2.997h-1.13c-0.296,0-0.536-0.24-0.536-0.536c0-0.295,0.24-0.536,0.536-0.536h3.331
	c0.296,0,0.536,0.24,0.536,0.536c0,0.296-0.24,0.536-0.536,0.536h-1.13v4.114C20.642,7.406,20.401,7.646,20.105,7.646z
	 M11.343,7.646H8.702c-0.296,0-0.536-0.24-0.536-0.536v-4.65l0,0l0,0c0-0.296,0.239-0.536,0.536-0.536h2.641
	c0.296,0,0.536,0.24,0.536,0.536c0,0.296-0.24,0.536-0.536,0.536H9.238v1.318h1.225c0.296,0,0.536,0.24,0.536,0.536
	c0,0.295-0.24,0.536-0.536,0.536H9.238v1.188h2.104c0.296,0,0.536,0.239,0.536,0.535C11.878,7.406,11.639,7.646,11.343,7.646z"/>
</svg>
