<?xml version="1.0" encoding="UTF-8" standalone="yes"?>
<svg xmlns="http://www.w3.org/2000/svg" xmlns:xlink="http://www.w3.org/1999/xlink" width="24px" height="24px" viewBox="0 0 18 18" version="1.1">
  <g id="surface1">
    <path style=" stroke:none;fill-rule:nonzero;fill:rgb(0%,0%,0%);fill-opacity:1;" d="M 9.203125 0.109375 C 9.15625 0.0390625 9.082031 0 9 0 C 8.917969 0 8.84375 0.0390625 8.796875 0.109375 C 8.355469 0.765625 7.335938 2.390625 7.335938 3.429688 C 7.335938 4.757812 8.082031 5.832031 9 5.832031 C 9.917969 5.832031 10.660156 4.757812 10.660156 3.429688 C 10.660156 2.390625 9.644531 0.765625 9.203125 0.109375 Z M 9.203125 0.109375 "/>
    <path style=" stroke:none;fill-rule:nonzero;fill:rgb(0%,0%,0%);fill-opacity:1;" d="M 13.53125 8.507812 C 14.265625 7.773438 14.695312 5.90625 14.847656 5.125 C 14.863281 5.046875 14.839844 4.964844 14.78125 4.90625 C 14.722656 4.851562 14.640625 4.824219 14.5625 4.839844 C 13.785156 4.992188 11.917969 5.421875 11.179688 6.15625 C 10.242188 7.09375 10.007812 8.382812 10.65625 9.03125 C 11.308594 9.679688 12.59375 9.445312 13.53125 8.507812 Z M 13.53125 8.507812 "/>
    <path style=" stroke:none;fill-rule:nonzero;fill:rgb(0%,0%,0%);fill-opacity:1;" d="M 15.894531 10.4375 C 15.839844 10.382812 15.757812 10.355469 15.675781 10.371094 C 14.769531 10.542969 12.335938 11.082031 11.398438 12.019531 C 10.230469 13.183594 9.941406 14.78125 10.746094 15.585938 C 11.550781 16.394531 13.148438 16.101562 14.3125 14.9375 C 15.253906 13.996094 15.789062 11.5625 15.960938 10.65625 C 15.976562 10.578125 15.953125 10.496094 15.894531 10.4375 Z M 15.894531 10.4375 "/>
    <path style=" stroke:none;fill-rule:nonzero;fill:rgb(0%,0%,0%);fill-opacity:1;" d="M 3.4375 4.839844 C 3.359375 4.824219 3.277344 4.851562 3.21875 4.90625 C 3.160156 4.964844 3.136719 5.046875 3.152344 5.125 C 3.304688 5.90625 3.734375 7.773438 4.46875 8.507812 C 5.40625 9.445312 6.691406 9.679688 7.34375 9.03125 C 7.992188 8.382812 7.757812 7.09375 6.816406 6.15625 C 6.082031 5.421875 4.214844 4.992188 3.4375 4.839844 Z M 3.4375 4.839844 "/>
    <path style=" stroke:none;fill-rule:nonzero;fill:rgb(0%,0%,0%);fill-opacity:1;" d="M 2.320312 10.371094 C 2.242188 10.355469 2.160156 10.382812 2.105469 10.4375 C 2.046875 10.496094 2.023438 10.578125 2.039062 10.65625 C 2.210938 11.5625 2.746094 13.996094 3.6875 14.9375 C 4.851562 16.101562 6.449219 16.394531 7.253906 15.585938 C 8.058594 14.78125 7.769531 13.183594 6.601562 12.019531 C 5.664062 11.082031 3.226562 10.542969 2.320312 10.371094 Z M 2.320312 10.371094 "/>
    <path style=" stroke:none;fill-rule:nonzero;fill:rgb(0%,0%,0%);fill-opacity:1;" d="M 9 6.484375 C 8.664062 6.484375 8.394531 6.753906 8.394531 7.085938 L 8.394531 17.394531 C 8.394531 17.730469 8.664062 18 9 18 C 9.332031 18 9.605469 17.730469 9.605469 17.394531 L 9.605469 7.085938 C 9.605469 6.753906 9.332031 6.484375 9 6.484375 Z M 9 6.484375 "/>
  </g>
</svg>