<?xml version="1.0" encoding="UTF-8" standalone="yes"?>
<svg xmlns="http://www.w3.org/2000/svg" xmlns:xlink="http://www.w3.org/1999/xlink" width="24px" height="24px" viewBox="0 0 18 18" version="1.1">
  <g id="surface1">
    <path style=" stroke:none;fill-rule:nonzero;fill:rgb(0%,0%,0%);fill-opacity:1;" d="M 1.808594 0 L 1.808594 17.996094 L 3.070312 17.996094 L 3.070312 14.101562 L 15.011719 14.101562 L 15.011719 17.996094 L 16.1875 17.996094 L 16.1875 0 Z M 15.011719 13.425781 L 11.480469 13.425781 L 11.480469 10.777344 L 10.511719 10.777344 L 10.511719 13.425781 L 10.132812 13.425781 L 10.132812 10.777344 L 9.167969 10.777344 L 9.167969 13.425781 L 8.832031 13.425781 L 8.832031 10.777344 L 7.863281 10.777344 L 7.863281 13.425781 L 7.464844 13.425781 L 7.464844 10.777344 L 6.496094 10.777344 L 6.496094 13.425781 L 6.117188 13.425781 L 6.117188 10.777344 L 5.152344 10.777344 L 5.152344 13.425781 L 4.816406 13.425781 L 4.816406 10.777344 L 3.847656 10.777344 L 3.847656 13.425781 L 3.070312 13.425781 L 3.070312 9.585938 L 15.011719 9.585938 Z M 15.011719 8.914062 L 14.328125 8.914062 L 14.53125 8.867188 L 13.910156 6.132812 L 12.96875 6.347656 L 13.550781 8.914062 L 12.96875 8.914062 L 12.96875 6.207031 L 12 6.207031 L 12 8.914062 L 7.484375 8.914062 L 7.484375 6.195312 L 6.519531 6.195312 L 6.519531 8.914062 L 6.140625 8.914062 L 6.140625 6.195312 L 5.171875 6.195312 L 5.171875 8.914062 L 4.835938 8.914062 L 4.835938 6.195312 L 3.867188 6.195312 L 3.867188 8.914062 L 3.070312 8.914062 L 3.070312 5.328125 L 15.011719 5.328125 Z M 15.011719 4.652344 L 14.613281 4.652344 L 14.613281 1.851562 L 13.644531 1.851562 L 13.644531 4.652344 L 13.265625 4.652344 L 13.265625 1.851562 L 12.300781 1.851562 L 12.300781 4.652344 L 11.960938 4.652344 L 11.960938 1.851562 L 10.996094 1.851562 L 10.996094 4.652344 L 6.195312 4.652344 L 6.820312 4.511719 L 6.199219 1.777344 L 5.257812 1.992188 L 5.859375 4.652344 L 5.257812 4.652344 L 5.257812 1.851562 L 4.289062 1.851562 L 4.289062 4.652344 L 3.070312 4.652344 L 3.070312 0.671875 L 15.011719 0.671875 Z M 15.011719 4.652344 "/>
  </g>
</svg>