<?xml version="1.0" encoding="utf-8"?>
<!-- Generator: Adobe Illustrator 15.1.0, SVG Export Plug-In . SVG Version: 6.00 Build 0)  -->
<!DOCTYPE svg PUBLIC "-//W3C//DTD SVG 1.1//EN" "http://www.w3.org/Graphics/SVG/1.1/DTD/svg11.dtd">
<svg version="1.1" id="Layer_1" xmlns="http://www.w3.org/2000/svg" xmlns:xlink="http://www.w3.org/1999/xlink" x="0px" y="0px"
	 width="24px" height="24px" viewBox="0 0 24 24" enable-background="new 0 0 24 24" xml:space="preserve">
<path fill="#010002" d="M9.216,18.892c-1.009,0-1.828,0.819-1.828,1.831c0,1.008,0.819,1.829,1.828,1.829
	c1.013,0,1.83-0.821,1.83-1.829C11.046,19.711,10.229,18.892,9.216,18.892z M17.206,18.892c-1.011,0-1.83,0.819-1.83,1.831
	c0,1.008,0.819,1.829,1.83,1.829c1.012,0,1.828-0.821,1.828-1.829C19.035,19.711,18.218,18.892,17.206,18.892z M21.869,8.856h-0.583
	L20.7,10.692l-0.568,1.921l-0.183,0.588l-1.34-4.878c-0.001-0.004-0.001-0.004-0.001-0.004c-0.032-0.111-0.149-0.179-0.26-0.147
	c-0.051,0.013-0.09,0.043-0.117,0.083c-0.122,0.129-0.983,0.982-1.807,0.515c-0.077-0.046-0.167-0.036-0.234,0.015
	c-0.067,0.053-0.096,0.141-0.073,0.223l1.716,6.237c0.029,0.113,0.146,0.18,0.257,0.149l1.326-0.366l-0.324,1.096H8.811
	l-0.682-5.431L7.91,8.856c0,0-0.2-1.692-0.312-2.393c-0.113-0.702-1.87-1.582-5.646-3.361c-0.889-0.371-1.63,1.253,0,2.104
	l2.977,1.39c0,0,0.692,0.403,0.751,0.943c0.061,0.541,1.269,9.5,1.269,9.5s0.048,1.244,1.18,1.244c1.133,0,10.415,0,11.364,0
	c0.95,0,1.136-0.992,1.136-0.992l2.25-6.688C22.88,10.602,23.551,8.856,21.869,8.856z M18.181,15.063l-1.613-5.869
	c0.273,0.062,0.537,0.041,0.777-0.025l1.221,4.435c0.022,0.083,0.104,0.128,0.186,0.106c0.081-0.022,0.127-0.104,0.104-0.187
	L17.63,9.066c0.271-0.12,0.502-0.285,0.668-0.423l1.442,5.244l-0.134,0.436l0.02-0.002l-0.109,0.373L18.181,15.063z M16.113,13.205
	c-0.034-0.079-0.109-0.13-0.196-0.13H9.45c-0.118,0-0.212,0.096-0.212,0.21v2.164c0,0.116,0.094,0.209,0.212,0.209h6.466
	c0.003,0,0.003,0,0.003,0c0.118,0,0.213-0.093,0.213-0.209c0-0.051-0.019-0.098-0.049-0.134c-0.092-0.155-0.688-1.209-0.018-1.88
	C16.128,13.375,16.145,13.284,16.113,13.205z M9.532,15.273v-1.815h6.086c-0.133,0.249-0.185,0.507-0.185,0.758h-4.6
	c-0.084,0-0.15,0.066-0.15,0.15s0.065,0.15,0.15,0.15h4.625c0.043,0.294,0.14,0.562,0.23,0.757H9.532z M9.428,12.725h6.468
	c0.002,0,0.002,0,0.002,0c0.117,0,0.213-0.094,0.213-0.211c0-0.052-0.019-0.097-0.051-0.133c-0.092-0.152-0.687-1.208-0.018-1.88
	c0.063-0.06,0.08-0.152,0.048-0.231c-0.032-0.076-0.11-0.128-0.194-0.128H9.428c-0.118,0-0.211,0.094-0.211,0.21v2.163
	C9.216,12.63,9.31,12.725,9.428,12.725z M9.51,10.525h6.085c-0.131,0.247-0.184,0.506-0.184,0.757h-4.6
	c-0.084,0-0.15,0.065-0.15,0.149c0,0.083,0.065,0.151,0.15,0.151h4.623c0.045,0.295,0.144,0.561,0.23,0.756H9.509L9.51,10.525
	L9.51,10.525z"/>
</svg>
