<?xml version="1.0" encoding="UTF-8" standalone="yes"?>
<svg xmlns="http://www.w3.org/2000/svg" xmlns:xlink="http://www.w3.org/1999/xlink" width="24px" height="24px" viewBox="0 0 18 18" version="1.1">
  <g id="surface1">
    <path style=" stroke:none;fill-rule:nonzero;fill:rgb(0%,0%,0%);fill-opacity:1;" d="M 2.476562 3.410156 L 4.921875 3.410156 L 4.921875 4.632812 L 2.476562 4.632812 Z M 2.476562 5.121094 L 4.921875 5.121094 L 4.921875 13.4375 L 2.476562 13.4375 Z M 2.921875 11.898438 C 2.921875 12.320312 3.265625 12.664062 3.6875 12.664062 C 4.109375 12.664062 4.453125 12.320312 4.453125 11.898438 C 4.453125 11.476562 4.109375 11.132812 3.6875 11.132812 C 3.265625 11.132812 2.921875 11.476562 2.921875 11.898438 Z M 2.476562 14.90625 L 4.921875 14.90625 L 4.921875 13.925781 L 2.476562 13.925781 Z M 5.410156 13.757812 L 5.410156 14.90625 L 8.589844 14.90625 L 8.589844 13.75 C 8.460938 13.65625 8.054688 13.4375 7.121094 13.4375 C 6.234375 13.4375 5.671875 13.636719 5.410156 13.757812 Z M 5.410156 6.71875 C 5.671875 6.839844 6.238281 7.035156 7.121094 7.035156 C 8.050781 7.035156 8.457031 6.820312 8.589844 6.722656 L 8.589844 5.855469 L 5.410156 5.855469 Z M 5.410156 7.25 L 5.410156 13.226562 C 5.765625 13.09375 6.332031 12.949219 7.121094 12.949219 C 7.835938 12.949219 8.296875 13.066406 8.589844 13.195312 L 8.589844 7.28125 C 8.296875 7.40625 7.835938 7.527344 7.121094 7.527344 C 6.332031 7.527344 5.765625 7.382812 5.410156 7.25 Z M 13.777344 3.355469 L 12.101562 3.699219 L 12.347656 4.898438 L 14.023438 4.550781 Z M 15.792969 13.175781 L 14.113281 13.523438 L 12.441406 5.375 L 14.121094 5.03125 Z M 15.210938 11.726562 C 15.125 11.3125 14.792969 11.03125 14.472656 11.097656 C 14.148438 11.164062 13.957031 11.554688 14.042969 11.964844 C 14.128906 12.378906 14.460938 12.660156 14.78125 12.59375 C 15.101562 12.527344 15.296875 12.140625 15.210938 11.726562 Z M 15.890625 13.65625 L 14.214844 14 L 14.410156 14.960938 L 16.085938 14.617188 Z M 9.324219 4.632812 L 11.769531 4.632812 L 11.769531 3.410156 L 9.324219 3.410156 Z M 9.324219 14.90625 L 11.769531 14.90625 L 11.769531 13.925781 L 9.324219 13.925781 Z M 9.324219 12.214844 L 11.769531 12.214844 L 11.769531 6.34375 L 9.324219 6.34375 Z M 9.324219 13.4375 L 11.769531 13.4375 L 11.769531 12.703125 L 9.324219 12.703125 Z M 9.324219 5.855469 L 11.769531 5.855469 L 11.769531 5.121094 L 9.324219 5.121094 Z M 9.324219 5.855469 "/>
  </g>
</svg>