<?xml version="1.0" encoding="UTF-8" standalone="yes"?>
<svg xmlns="http://www.w3.org/2000/svg" xmlns:xlink="http://www.w3.org/1999/xlink" width="24px" height="24px" viewBox="0 0 18 18" version="1.1">
  <g id="surface1">
    <path style=" stroke:none;fill-rule:nonzero;fill:rgb(0%,0%,0%);fill-opacity:1;" d="M 15.679688 3.253906 L 5.671875 3.253906 L 5.671875 1.917969 C 5.671875 1.824219 5.597656 1.75 5.503906 1.75 C 5.410156 1.75 5.335938 1.824219 5.335938 1.917969 L 5.335938 3.253906 L 2.335938 3.253906 L 2.335938 1.917969 C 2.335938 1.824219 2.261719 1.75 2.167969 1.75 C 2.078125 1.75 2 1.824219 2 1.917969 L 2 3.34375 C 1.804688 3.460938 1.667969 3.671875 1.667969 3.917969 L 1.667969 4.585938 L 2 4.585938 L 2 4.921875 L 1.667969 4.921875 L 1.667969 5.585938 C 1.667969 5.832031 1.804688 6.046875 2 6.160156 L 2 12.683594 C 1.804688 12.800781 1.667969 13.011719 1.667969 13.261719 L 1.667969 13.925781 L 2 13.925781 L 2 14.261719 L 1.667969 14.261719 L 1.667969 14.929688 C 1.667969 15.175781 1.804688 15.386719 2 15.503906 L 2 17.261719 C 2 17.355469 2.078125 17.429688 2.167969 17.429688 C 2.261719 17.429688 2.335938 17.355469 2.335938 17.261719 L 2.335938 16.261719 L 5.335938 16.261719 L 5.335938 17.261719 C 5.335938 17.355469 5.410156 17.429688 5.503906 17.429688 C 5.597656 17.429688 5.671875 17.355469 5.671875 17.261719 L 5.671875 15.59375 L 15.679688 15.59375 C 16.046875 15.59375 16.34375 15.296875 16.34375 14.925781 L 16.34375 14.261719 L 5.671875 14.261719 L 5.671875 13.925781 L 16.34375 13.925781 L 16.34375 13.257812 C 16.34375 12.890625 16.046875 12.59375 15.679688 12.59375 L 5.671875 12.59375 L 5.671875 6.253906 L 15.679688 6.253906 C 16.046875 6.253906 16.34375 5.957031 16.34375 5.585938 L 16.34375 4.921875 L 5.671875 4.921875 L 5.671875 4.585938 L 16.34375 4.585938 L 16.34375 3.917969 C 16.34375 3.550781 16.046875 3.253906 15.679688 3.253906 Z M 5.335938 15.929688 L 2.335938 15.929688 L 2.335938 15.59375 L 5.335938 15.59375 Z M 5.335938 14.261719 L 2.335938 14.261719 L 2.335938 13.925781 L 5.335938 13.925781 Z M 5.335938 12.59375 L 2.335938 12.59375 L 2.335938 12.257812 L 5.335938 12.257812 Z M 5.335938 11.925781 L 2.335938 11.925781 L 2.335938 10.925781 L 5.335938 10.925781 Z M 5.335938 10.589844 L 2.335938 10.589844 L 2.335938 9.589844 L 5.335938 9.589844 Z M 5.335938 9.257812 L 2.335938 9.257812 L 2.335938 8.257812 L 5.335938 8.257812 Z M 5.335938 7.921875 L 2.335938 7.921875 L 2.335938 6.921875 L 5.335938 6.921875 Z M 5.335938 6.589844 L 2.335938 6.589844 L 2.335938 6.253906 L 5.335938 6.253906 Z M 5.335938 4.921875 L 2.335938 4.921875 L 2.335938 4.585938 L 5.335938 4.585938 Z M 5.335938 4.921875 "/>
    <path style=" stroke:none;fill-rule:nonzero;fill:rgb(0%,0%,0%);fill-opacity:1;" d="M 0.75 0.582031 L 0.582031 0.582031 C 0.261719 0.582031 0 0.84375 0 1.167969 L 0 16.679688 C 0 17 0.261719 17.261719 0.582031 17.261719 L 0.75 17.261719 C 1.074219 17.261719 1.335938 17 1.335938 16.679688 L 1.335938 1.167969 C 1.335938 0.84375 1.074219 0.582031 0.75 0.582031 Z M 0.75 0.582031 "/>
    <path style=" stroke:none;fill-rule:nonzero;fill:rgb(0%,0%,0%);fill-opacity:1;" d="M 17.429688 0.582031 L 17.261719 0.582031 C 16.941406 0.582031 16.679688 0.84375 16.679688 1.167969 L 16.679688 16.679688 C 16.679688 17 16.941406 17.261719 17.261719 17.261719 L 17.429688 17.261719 C 17.75 17.261719 18.011719 17 18.011719 16.679688 L 18.011719 1.167969 C 18.011719 0.84375 17.75 0.582031 17.429688 0.582031 Z M 17.429688 0.582031 "/>
    <path style=" stroke:none;fill-rule:nonzero;fill:rgb(0%,0%,0%);fill-opacity:1;" d="M 16.011719 2.460938 C 16.011719 1.957031 15.601562 1.585938 15.097656 1.585938 L 13.726562 1.585938 C 13.222656 1.585938 12.675781 1.957031 12.675781 2.460938 L 12.675781 2.917969 L 16.011719 2.917969 Z M 16.011719 2.460938 "/>
    <path style=" stroke:none;fill-rule:nonzero;fill:rgb(0%,0%,0%);fill-opacity:1;" d="M 13.726562 10.925781 C 13.222656 10.925781 12.675781 11.296875 12.675781 11.800781 L 12.675781 12.257812 L 16.011719 12.257812 L 16.011719 11.800781 C 16.011719 11.296875 15.601562 10.925781 15.097656 10.925781 Z M 13.726562 10.925781 "/>
  </g>
</svg>