<?xml version="1.0" encoding="UTF-8" standalone="yes"?>
<svg xmlns="http://www.w3.org/2000/svg" xmlns:xlink="http://www.w3.org/1999/xlink" width="24px" height="24px" viewBox="0 0 18 18" version="1.1">
  <g id="surface1">
    <path style=" stroke:none;fill-rule:nonzero;fill:rgb(0%,0%,0%);fill-opacity:1;" d="M 6.761719 5.242188 C 6.621094 4.679688 6.335938 4.144531 5.894531 3.703125 C 4.601562 2.414062 2.511719 2.414062 1.21875 3.703125 C -0.0703125 4.996094 -0.0703125 7.085938 1.21875 8.378906 C 1.660156 8.820312 2.195312 9.105469 2.757812 9.246094 L 2.171875 9.828125 L 5.429688 13.082031 L 6.660156 11.851562 L 13.269531 17.6875 C 13.695312 18.109375 14.46875 18.019531 15.003906 17.488281 C 15.539062 16.953125 15.628906 16.179688 15.203125 15.753906 L 9.371094 9.144531 L 10.601562 7.910156 L 7.34375 4.65625 Z M 10.027344 7.914062 L 9.101562 8.839844 L 6.355469 11.582031 L 5.429688 12.511719 L 2.746094 9.828125 L 3.246094 9.332031 L 7.34375 5.234375 Z M 5.230469 7.714844 C 4.851562 8.09375 4.703125 8.617188 4.773438 9.113281 C 4.824219 9.449219 4.972656 9.769531 5.230469 10.027344 C 5.519531 10.316406 5.890625 10.46875 6.269531 10.496094 C 6.726562 10.527344 7.195312 10.375 7.542969 10.027344 C 7.894531 9.679688 8.042969 9.210938 8.011719 8.753906 C 7.984375 8.375 7.835938 8 7.542969 7.710938 C 7.289062 7.457031 6.964844 7.308594 6.628906 7.257812 C 6.132812 7.183594 5.609375 7.332031 5.230469 7.714844 Z M 6.519531 7.5 C 6.558594 7.503906 6.601562 7.503906 6.640625 7.511719 L 6.398438 7.753906 C 6.394531 7.753906 6.390625 7.75 6.386719 7.746094 C 6.25 7.671875 6.109375 7.609375 5.964844 7.558594 C 6.144531 7.503906 6.332031 7.484375 6.519531 7.5 Z M 7.664062 8.339844 L 7.371094 8.632812 C 7.292969 8.523438 7.207031 8.421875 7.113281 8.320312 L 7.445312 7.992188 C 7.535156 8.101562 7.609375 8.214844 7.664062 8.339844 Z M 7.050781 9.714844 L 7.265625 9.929688 C 7.230469 9.957031 7.199219 9.992188 7.160156 10.015625 C 7.050781 9.992188 6.945312 9.960938 6.84375 9.925781 C 6.746094 9.886719 6.65625 9.847656 6.566406 9.800781 L 6.851562 9.511719 Z M 6.339844 9.664062 C 6.226562 9.589844 6.121094 9.507812 6.019531 9.417969 L 6.386719 9.050781 L 6.671875 9.332031 Z M 5.109375 9.398438 L 5.402344 9.105469 C 5.480469 9.214844 5.566406 9.320312 5.65625 9.417969 L 5.328125 9.75 C 5.238281 9.640625 5.164062 9.523438 5.109375 9.398438 Z M 5.507812 7.8125 C 5.542969 7.78125 5.578125 7.75 5.613281 7.726562 C 5.820312 7.773438 6.019531 7.84375 6.210938 7.941406 L 5.925781 8.226562 Z M 6.753906 8.324219 L 6.386719 8.691406 L 6.105469 8.410156 L 6.433594 8.078125 C 6.546875 8.152344 6.652344 8.230469 6.753906 8.324219 Z M 5.925781 8.585938 L 6.207031 8.871094 L 5.839844 9.242188 C 5.746094 9.140625 5.664062 9.035156 5.585938 8.921875 Z M 5.507812 9.929688 L 5.839844 9.597656 C 5.941406 9.6875 6.046875 9.773438 6.160156 9.847656 L 5.859375 10.148438 C 5.730469 10.09375 5.613281 10.019531 5.507812 9.929688 Z M 6.566406 8.871094 L 6.933594 8.5 C 7.027344 8.601562 7.109375 8.707031 7.1875 8.816406 L 6.847656 9.152344 Z M 6.933594 8.144531 C 6.832031 8.054688 6.726562 7.96875 6.617188 7.894531 L 6.917969 7.59375 C 7.039062 7.648438 7.15625 7.722656 7.265625 7.8125 Z M 5.742188 8.40625 L 5.449219 8.703125 C 5.347656 8.519531 5.277344 8.324219 5.226562 8.125 C 5.253906 8.078125 5.292969 8.035156 5.328125 7.992188 Z M 5.066406 8.480469 C 5.117188 8.617188 5.183594 8.746094 5.253906 8.875 C 5.257812 8.878906 5.261719 8.882812 5.265625 8.890625 L 5.03125 9.125 C 5.023438 9.082031 5.023438 9.042969 5.019531 9.003906 C 5 8.828125 5.015625 8.652344 5.066406 8.480469 Z M 6.527344 10.238281 C 6.394531 10.25 6.261719 10.25 6.132812 10.226562 L 6.375 9.988281 C 6.464844 10.035156 6.554688 10.074219 6.648438 10.113281 C 6.703125 10.136719 6.753906 10.164062 6.808594 10.179688 C 6.714844 10.210938 6.621094 10.230469 6.527344 10.238281 Z M 7.230469 9.535156 L 7.027344 9.332031 L 7.324219 9.035156 C 7.375 9.125 7.414062 9.21875 7.453125 9.3125 C 7.492188 9.410156 7.523438 9.515625 7.546875 9.617188 C 7.519531 9.664062 7.480469 9.707031 7.445312 9.75 Z M 7.707031 9.261719 C 7.691406 9.210938 7.664062 9.167969 7.644531 9.121094 C 7.605469 9.03125 7.5625 8.9375 7.511719 8.851562 L 7.746094 8.617188 C 7.769531 8.746094 7.769531 8.878906 7.757812 9.011719 C 7.746094 9.09375 7.730469 9.179688 7.707031 9.261719 Z M 16.492188 5.074219 L 14.6875 5.074219 L 12.792969 6.972656 L 12.792969 5.074219 L 9.566406 5.074219 L 9.566406 0 L 16.492188 0 Z M 17.703125 9.285156 L 16.746094 9.285156 L 15.742188 10.289062 L 15.742188 9.285156 L 14.035156 9.285156 L 14.035156 6.59375 L 17.703125 6.59375 Z M 17.703125 9.285156 "/>
  </g>
</svg>