<?xml version="1.0" encoding="UTF-8" standalone="yes"?>
<svg xmlns="http://www.w3.org/2000/svg" xmlns:xlink="http://www.w3.org/1999/xlink" width="24px" height="24px" viewBox="0 0 18 18" version="1.1">
  <g id="surface1">
    <path style=" stroke:none;fill-rule:nonzero;fill:rgb(0%,0%,0%);fill-opacity:1;" d="M 3.1875 5.25 L 5.890625 8.742188 L 11.484375 9.082031 L 11.484375 8.414062 L 13.585938 9.15625 L 18 9.519531 L 15.6875 8.441406 L 14.097656 6.648438 L 2.992188 4.847656 L 0 9.132812 L 0.53125 9.101562 Z M 13.8125 7.253906 L 15.070312 8.644531 L 14.828125 8.640625 L 13.824219 7.523438 L 12.980469 8.640625 L 12.765625 8.640625 Z M 8.523438 6.398438 L 9.917969 8.429688 L 9.683594 8.429688 L 8.527344 6.707031 L 7.367188 8.429688 L 7.15625 8.429688 Z M 8.523438 6.398438 "/>
    <path style=" stroke:none;fill-rule:nonzero;fill:rgb(0%,0%,0%);fill-opacity:1;" d="M 13.550781 9.328125 L 11.65625 8.65625 L 11.65625 9.261719 L 5.800781 8.910156 L 3.195312 5.539062 L 0.695312 9.167969 L 0.695312 12.683594 L 5.84375 13.144531 L 5.84375 13.152344 L 11.386719 12.652344 L 13.351562 12.769531 L 13.359375 12.769531 L 13.378906 12.773438 L 13.378906 12.769531 L 17.386719 12.347656 L 17.386719 9.640625 Z M 2.398438 7.871094 L 3.773438 7.710938 L 3.773438 8.894531 L 2.398438 8.988281 Z M 2.640625 11.644531 L 1.238281 11.585938 L 1.238281 10.152344 L 2.640625 10.121094 Z M 5.164062 11.734375 L 3.464844 11.667969 L 3.464844 10.089844 L 5.164062 10.050781 Z M 8.324219 11.621094 L 6.554688 11.6875 L 6.554688 10.0625 L 8.324219 10.101562 Z M 10.804688 11.464844 L 9.378906 11.511719 L 9.378906 10.058594 L 10.804688 10.09375 Z M 15.324219 11.472656 L 14.425781 11.511719 L 14.425781 10.363281 L 15.324219 10.378906 Z M 16.746094 11.382812 L 15.984375 11.414062 L 15.984375 10.363281 L 16.746094 10.375 Z M 16.746094 11.382812 "/>
  </g>
</svg>