<?xml version="1.0" encoding="UTF-8" standalone="yes"?>
<svg xmlns="http://www.w3.org/2000/svg" xmlns:xlink="http://www.w3.org/1999/xlink" width="24px" height="24px" viewBox="0 0 18 18" version="1.1">
  <g id="surface1">
    <path style=" stroke:none;fill-rule:nonzero;fill:rgb(0%,0%,0%);fill-opacity:1;" d="M 18.007812 12.085938 L 18.007812 1.644531 L 0 1.644531 L 0 12.085938 L 6.300781 12.085938 L 6.300781 14.378906 L 4.363281 14.378906 L 4.363281 16.363281 L 13.203125 16.363281 L 13.203125 14.378906 L 11.710938 14.378906 L 11.710938 12.085938 Z M 0.882812 11.203125 L 0.882812 2.527344 L 17.125 2.527344 L 17.125 11.203125 Z M 0.882812 11.203125 "/>
    <path style=" stroke:none;fill-rule:nonzero;fill:rgb(0%,0%,0%);fill-opacity:1;" d="M 4.375 8.550781 L 4.375 4.859375 L 3.507812 4.859375 C 3.5 5.011719 3.464844 5.140625 3.398438 5.242188 C 3.332031 5.347656 3.25 5.429688 3.144531 5.492188 C 3.042969 5.554688 2.929688 5.597656 2.800781 5.625 C 2.675781 5.652344 2.542969 5.664062 2.410156 5.660156 L 2.410156 6.425781 L 3.273438 6.425781 L 3.273438 8.550781 Z M 4.375 8.550781 "/>
    <path style=" stroke:none;fill-rule:nonzero;fill:rgb(0%,0%,0%);fill-opacity:1;" d="M 10.050781 4.882812 C 10.050781 4.523438 10 4.226562 9.898438 3.984375 C 9.800781 3.746094 9.671875 3.550781 9.515625 3.40625 C 9.359375 3.257812 9.191406 3.152344 9.007812 3.089844 C 8.824219 3.027344 8.644531 2.992188 8.476562 2.992188 C 8.3125 2.992188 8.136719 3.027344 7.953125 3.089844 C 7.769531 3.152344 7.597656 3.257812 7.445312 3.40625 C 7.292969 3.550781 7.164062 3.746094 7.0625 3.984375 C 6.960938 4.226562 6.914062 4.523438 6.914062 4.882812 C 6.914062 5.238281 6.960938 5.539062 7.0625 5.777344 C 7.164062 6.019531 7.292969 6.210938 7.445312 6.359375 C 7.597656 6.503906 7.769531 6.609375 7.953125 6.671875 C 8.140625 6.738281 8.316406 6.769531 8.480469 6.769531 C 8.648438 6.769531 8.824219 6.738281 9.007812 6.671875 C 9.195312 6.609375 9.363281 6.503906 9.519531 6.359375 C 9.671875 6.210938 9.800781 6.019531 9.898438 5.777344 C 10 5.539062 10.050781 5.238281 10.050781 4.882812 Z M 9.03125 5.214844 C 9.023438 5.339844 9 5.457031 8.960938 5.566406 C 8.925781 5.675781 8.867188 5.769531 8.792969 5.84375 C 8.714844 5.921875 8.609375 5.957031 8.476562 5.957031 C 8.34375 5.957031 8.238281 5.921875 8.164062 5.84375 C 8.089844 5.769531 8.035156 5.675781 7.996094 5.566406 C 7.960938 5.457031 7.9375 5.339844 7.929688 5.214844 C 7.921875 5.085938 7.917969 4.976562 7.917969 4.882812 C 7.917969 4.78125 7.921875 4.667969 7.929688 4.542969 C 7.9375 4.417969 7.960938 4.300781 7.996094 4.191406 C 8.035156 4.082031 8.089844 3.992188 8.164062 3.917969 C 8.242188 3.84375 8.347656 3.804688 8.488281 3.804688 C 8.617188 3.804688 8.722656 3.84375 8.796875 3.917969 C 8.875 3.996094 8.929688 4.089844 8.964844 4.199219 C 9 4.3125 9.023438 4.429688 9.03125 4.554688 C 9.039062 4.675781 9.042969 4.785156 9.042969 4.882812 C 9.042969 4.980469 9.039062 5.09375 9.03125 5.214844 Z M 9.03125 5.214844 "/>
    <path style=" stroke:none;fill-rule:nonzero;fill:rgb(0%,0%,0%);fill-opacity:1;" d="M 2.933594 9.011719 C 2.878906 8.960938 2.820312 8.921875 2.753906 8.902344 C 2.691406 8.878906 2.632812 8.867188 2.570312 8.867188 C 2.515625 8.867188 2.453125 8.878906 2.390625 8.902344 C 2.324219 8.921875 2.269531 8.960938 2.214844 9.011719 C 2.160156 9.0625 2.117188 9.128906 2.082031 9.210938 C 2.046875 9.296875 2.03125 9.398438 2.03125 9.523438 C 2.03125 9.648438 2.046875 9.75 2.082031 9.832031 C 2.117188 9.917969 2.160156 9.984375 2.214844 10.035156 C 2.265625 10.085938 2.328125 10.121094 2.390625 10.144531 C 2.457031 10.167969 2.515625 10.175781 2.574219 10.175781 C 2.632812 10.175781 2.691406 10.167969 2.757812 10.144531 C 2.820312 10.121094 2.878906 10.085938 2.933594 10.035156 C 2.984375 9.984375 3.03125 9.917969 3.066406 9.832031 C 3.101562 9.75 3.117188 9.648438 3.117188 9.523438 C 3.117188 9.398438 3.101562 9.296875 3.066406 9.210938 C 3.03125 9.128906 2.984375 9.0625 2.933594 9.011719 Z M 2.761719 9.636719 C 2.761719 9.683594 2.753906 9.722656 2.738281 9.757812 C 2.726562 9.796875 2.707031 9.828125 2.679688 9.855469 C 2.65625 9.882812 2.617188 9.894531 2.570312 9.894531 C 2.523438 9.894531 2.488281 9.882812 2.464844 9.855469 C 2.4375 9.828125 2.417969 9.796875 2.40625 9.757812 C 2.390625 9.722656 2.382812 9.679688 2.382812 9.636719 C 2.378906 9.59375 2.378906 9.554688 2.378906 9.523438 C 2.378906 9.488281 2.378906 9.449219 2.382812 9.40625 C 2.382812 9.363281 2.390625 9.320312 2.40625 9.285156 C 2.417969 9.246094 2.4375 9.214844 2.464844 9.1875 C 2.492188 9.160156 2.527344 9.148438 2.574219 9.148438 C 2.621094 9.148438 2.65625 9.164062 2.683594 9.1875 C 2.707031 9.214844 2.730469 9.246094 2.742188 9.285156 C 2.753906 9.324219 2.761719 9.367188 2.761719 9.410156 C 2.765625 9.453125 2.769531 9.488281 2.769531 9.523438 C 2.769531 9.558594 2.765625 9.59375 2.761719 9.636719 Z M 2.761719 9.636719 "/>
    <path style=" stroke:none;fill-rule:nonzero;fill:rgb(0%,0%,0%);fill-opacity:1;" d="M 8.234375 9.292969 C 8.289062 9.242188 8.332031 9.175781 8.367188 9.09375 C 8.402344 9.011719 8.421875 8.90625 8.421875 8.78125 C 8.421875 8.660156 8.402344 8.554688 8.367188 8.472656 C 8.332031 8.390625 8.289062 8.320312 8.234375 8.269531 C 8.179688 8.21875 8.121094 8.183594 8.058594 8.160156 C 7.996094 8.140625 7.933594 8.128906 7.875 8.128906 C 7.816406 8.128906 7.757812 8.140625 7.691406 8.160156 C 7.628906 8.183594 7.570312 8.21875 7.515625 8.269531 C 7.464844 8.320312 7.421875 8.390625 7.386719 8.472656 C 7.351562 8.554688 7.332031 8.660156 7.332031 8.78125 C 7.332031 8.90625 7.351562 9.011719 7.386719 9.09375 C 7.421875 9.175781 7.464844 9.242188 7.515625 9.292969 C 7.570312 9.34375 7.628906 9.382812 7.695312 9.402344 C 7.757812 9.425781 7.820312 9.4375 7.878906 9.4375 C 7.933594 9.4375 7.996094 9.425781 8.058594 9.402344 C 8.125 9.382812 8.183594 9.34375 8.234375 9.292969 Z M 7.984375 9.117188 C 7.957031 9.140625 7.921875 9.15625 7.875 9.15625 C 7.828125 9.15625 7.792969 9.140625 7.765625 9.117188 C 7.742188 9.089844 7.722656 9.058594 7.707031 9.019531 C 7.695312 8.980469 7.6875 8.941406 7.683594 8.898438 C 7.683594 8.855469 7.679688 8.816406 7.679688 8.78125 C 7.679688 8.746094 7.683594 8.707031 7.683594 8.664062 C 7.6875 8.621094 7.695312 8.582031 7.707031 8.542969 C 7.722656 8.503906 7.742188 8.472656 7.765625 8.449219 C 7.792969 8.421875 7.832031 8.410156 7.878906 8.410156 C 7.925781 8.410156 7.960938 8.421875 7.984375 8.449219 C 8.011719 8.476562 8.03125 8.507812 8.042969 8.546875 C 8.054688 8.585938 8.0625 8.625 8.066406 8.667969 C 8.070312 8.710938 8.070312 8.75 8.070312 8.78125 C 8.070312 8.816406 8.070312 8.855469 8.066406 8.898438 C 8.0625 8.941406 8.054688 8.980469 8.042969 9.019531 C 8.03125 9.058594 8.011719 9.089844 7.984375 9.117188 Z M 7.984375 9.117188 "/>
    <path style=" stroke:none;fill-rule:nonzero;fill:rgb(0%,0%,0%);fill-opacity:1;" d="M 5.03125 9.511719 C 4.976562 9.460938 4.917969 9.425781 4.855469 9.402344 C 4.789062 9.378906 4.730469 9.371094 4.671875 9.371094 C 4.613281 9.371094 4.550781 9.378906 4.488281 9.402344 C 4.425781 9.425781 4.367188 9.460938 4.3125 9.511719 C 4.261719 9.5625 4.214844 9.628906 4.179688 9.714844 C 4.144531 9.796875 4.128906 9.902344 4.128906 10.023438 C 4.128906 10.148438 4.144531 10.25 4.179688 10.335938 C 4.214844 10.417969 4.261719 10.484375 4.3125 10.535156 C 4.367188 10.585938 4.425781 10.621094 4.488281 10.644531 C 4.554688 10.667969 4.613281 10.679688 4.671875 10.679688 C 4.730469 10.679688 4.792969 10.667969 4.855469 10.644531 C 4.917969 10.621094 4.980469 10.585938 5.03125 10.535156 C 5.085938 10.484375 5.128906 10.417969 5.164062 10.335938 C 5.199219 10.25 5.214844 10.148438 5.214844 10.023438 C 5.214844 9.902344 5.199219 9.796875 5.164062 9.714844 C 5.128906 9.628906 5.085938 9.5625 5.03125 9.511719 Z M 4.863281 10.140625 C 4.859375 10.183594 4.851562 10.222656 4.839844 10.261719 C 4.824219 10.296875 4.804688 10.332031 4.78125 10.359375 C 4.753906 10.382812 4.714844 10.398438 4.671875 10.398438 C 4.625 10.398438 4.585938 10.382812 4.5625 10.359375 C 4.535156 10.332031 4.515625 10.296875 4.503906 10.261719 C 4.492188 10.222656 4.484375 10.183594 4.480469 10.136719 C 4.476562 10.09375 4.476562 10.058594 4.476562 10.023438 C 4.476562 9.988281 4.476562 9.949219 4.480469 9.90625 C 4.484375 9.863281 4.492188 9.824219 4.503906 9.785156 C 4.515625 9.746094 4.535156 9.714844 4.5625 9.6875 C 4.589844 9.664062 4.625 9.652344 4.675781 9.652344 C 4.71875 9.652344 4.753906 9.664062 4.78125 9.691406 C 4.808594 9.714844 4.828125 9.75 4.839844 9.789062 C 4.851562 9.824219 4.859375 9.867188 4.863281 9.910156 C 4.867188 9.953125 4.867188 9.992188 4.867188 10.023438 C 4.867188 10.058594 4.867188 10.097656 4.863281 10.140625 Z M 4.863281 10.140625 "/>
    <path style=" stroke:none;fill-rule:nonzero;fill:rgb(0%,0%,0%);fill-opacity:1;" d="M 12.847656 9.667969 C 12.792969 9.617188 12.734375 9.578125 12.671875 9.558594 C 12.609375 9.535156 12.546875 9.523438 12.488281 9.523438 C 12.429688 9.523438 12.367188 9.535156 12.304688 9.558594 C 12.242188 9.578125 12.183594 9.617188 12.128906 9.667969 C 12.078125 9.71875 12.03125 9.785156 11.996094 9.867188 C 11.964844 9.949219 11.945312 10.054688 11.945312 10.179688 C 11.945312 10.300781 11.964844 10.40625 11.996094 10.488281 C 12.03125 10.570312 12.078125 10.640625 12.128906 10.691406 C 12.183594 10.742188 12.242188 10.777344 12.304688 10.800781 C 12.371094 10.820312 12.433594 10.832031 12.488281 10.832031 C 12.546875 10.832031 12.609375 10.820312 12.671875 10.800781 C 12.738281 10.777344 12.796875 10.742188 12.847656 10.691406 C 12.902344 10.640625 12.945312 10.570312 12.980469 10.488281 C 13.015625 10.40625 13.035156 10.300781 13.035156 10.179688 C 13.035156 10.054688 13.015625 9.949219 12.980469 9.867188 C 12.945312 9.785156 12.902344 9.71875 12.847656 9.667969 Z M 12.679688 10.292969 C 12.675781 10.335938 12.667969 10.375 12.65625 10.414062 C 12.640625 10.453125 12.625 10.484375 12.597656 10.511719 C 12.570312 10.539062 12.535156 10.550781 12.488281 10.550781 C 12.441406 10.550781 12.402344 10.539062 12.378906 10.511719 C 12.351562 10.484375 12.332031 10.453125 12.320312 10.414062 C 12.308594 10.375 12.300781 10.335938 12.296875 10.292969 C 12.296875 10.25 12.292969 10.210938 12.292969 10.179688 C 12.292969 10.144531 12.296875 10.105469 12.296875 10.0625 C 12.300781 10.019531 12.308594 9.976562 12.320312 9.9375 C 12.335938 9.902344 12.351562 9.871094 12.378906 9.84375 C 12.40625 9.816406 12.441406 9.804688 12.492188 9.804688 C 12.535156 9.804688 12.574219 9.816406 12.597656 9.84375 C 12.625 9.871094 12.644531 9.902344 12.65625 9.941406 C 12.667969 9.980469 12.675781 10.019531 12.679688 10.0625 C 12.683594 10.105469 12.683594 10.144531 12.683594 10.179688 C 12.683594 10.210938 12.683594 10.25 12.679688 10.292969 Z M 12.679688 10.292969 "/>
    <path style=" stroke:none;fill-rule:nonzero;fill:rgb(0%,0%,0%);fill-opacity:1;" d="M 2.570312 4.859375 C 2.605469 4.894531 2.640625 4.917969 2.683594 4.933594 C 2.726562 4.949219 2.765625 4.953125 2.804688 4.953125 C 2.84375 4.953125 2.882812 4.945312 2.925781 4.933594 C 2.964844 4.917969 3.003906 4.894531 3.039062 4.859375 C 3.074219 4.828125 3.105469 4.785156 3.125 4.730469 C 3.148438 4.675781 3.160156 4.605469 3.160156 4.523438 C 3.160156 4.445312 3.148438 4.375 3.125 4.320312 C 3.101562 4.265625 3.074219 4.222656 3.039062 4.191406 C 3.003906 4.15625 2.964844 4.132812 2.921875 4.117188 C 2.882812 4.101562 2.84375 4.097656 2.804688 4.097656 C 2.765625 4.097656 2.726562 4.101562 2.683594 4.117188 C 2.640625 4.132812 2.605469 4.15625 2.570312 4.191406 C 2.535156 4.222656 2.503906 4.265625 2.480469 4.320312 C 2.457031 4.375 2.445312 4.445312 2.445312 4.527344 C 2.445312 4.605469 2.457031 4.675781 2.480469 4.730469 C 2.503906 4.785156 2.535156 4.828125 2.570312 4.859375 Z M 2.679688 4.449219 C 2.679688 4.421875 2.6875 4.394531 2.695312 4.367188 C 2.703125 4.34375 2.714844 4.324219 2.734375 4.304688 C 2.75 4.289062 2.773438 4.28125 2.804688 4.28125 C 2.835938 4.28125 2.859375 4.289062 2.875 4.304688 C 2.894531 4.324219 2.90625 4.34375 2.914062 4.371094 C 2.921875 4.394531 2.925781 4.421875 2.929688 4.449219 C 2.929688 4.480469 2.933594 4.503906 2.933594 4.527344 C 2.933594 4.546875 2.929688 4.574219 2.929688 4.601562 C 2.925781 4.628906 2.921875 4.65625 2.914062 4.679688 C 2.90625 4.707031 2.890625 4.726562 2.875 4.746094 C 2.859375 4.761719 2.832031 4.769531 2.804688 4.769531 C 2.773438 4.769531 2.75 4.761719 2.730469 4.742188 C 2.714844 4.726562 2.703125 4.707031 2.695312 4.679688 C 2.683594 4.65625 2.679688 4.628906 2.679688 4.601562 C 2.675781 4.570312 2.675781 4.546875 2.675781 4.523438 C 2.675781 4.503906 2.675781 4.476562 2.679688 4.449219 Z M 2.679688 4.449219 "/>
    <path style=" stroke:none;fill-rule:nonzero;fill:rgb(0%,0%,0%);fill-opacity:1;" d="M 11.710938 7.53125 C 11.675781 7.5 11.640625 7.472656 11.597656 7.460938 C 11.554688 7.445312 11.515625 7.4375 11.476562 7.4375 C 11.4375 7.4375 11.398438 7.445312 11.355469 7.460938 C 11.316406 7.472656 11.277344 7.5 11.242188 7.53125 C 11.207031 7.566406 11.175781 7.609375 11.15625 7.664062 C 11.132812 7.71875 11.121094 7.785156 11.121094 7.867188 C 11.121094 7.949219 11.132812 8.015625 11.15625 8.070312 C 11.179688 8.125 11.207031 8.171875 11.242188 8.203125 C 11.277344 8.238281 11.316406 8.261719 11.359375 8.273438 C 11.398438 8.289062 11.441406 8.296875 11.476562 8.296875 C 11.515625 8.296875 11.554688 8.289062 11.597656 8.273438 C 11.640625 8.261719 11.675781 8.238281 11.710938 8.203125 C 11.746094 8.171875 11.777344 8.125 11.800781 8.070312 C 11.824219 8.015625 11.832031 7.949219 11.832031 7.867188 C 11.832031 7.785156 11.824219 7.71875 11.800781 7.664062 C 11.777344 7.609375 11.75 7.566406 11.710938 7.53125 Z M 11.601562 7.945312 C 11.601562 7.972656 11.59375 7.996094 11.585938 8.023438 C 11.578125 8.046875 11.566406 8.070312 11.546875 8.085938 C 11.53125 8.105469 11.507812 8.113281 11.476562 8.113281 C 11.445312 8.113281 11.421875 8.105469 11.40625 8.085938 C 11.386719 8.070312 11.375 8.046875 11.367188 8.023438 C 11.359375 7.996094 11.355469 7.972656 11.351562 7.941406 C 11.351562 7.914062 11.351562 7.890625 11.351562 7.867188 C 11.351562 7.84375 11.351562 7.820312 11.351562 7.789062 C 11.355469 7.761719 11.359375 7.734375 11.367188 7.710938 C 11.375 7.683594 11.390625 7.664062 11.40625 7.648438 C 11.421875 7.628906 11.449219 7.621094 11.480469 7.621094 C 11.507812 7.621094 11.53125 7.632812 11.550781 7.648438 C 11.566406 7.664062 11.578125 7.6875 11.585938 7.710938 C 11.59375 7.738281 11.601562 7.765625 11.601562 7.792969 C 11.605469 7.820312 11.605469 7.84375 11.605469 7.867188 C 11.605469 7.890625 11.605469 7.914062 11.601562 7.945312 Z M 11.601562 7.945312 "/>
    <path style=" stroke:none;fill-rule:nonzero;fill:rgb(0%,0%,0%);fill-opacity:1;" d="M 15.90625 8.539062 C 15.949219 8.523438 15.988281 8.5 16.023438 8.46875 C 16.058594 8.433594 16.085938 8.390625 16.109375 8.335938 C 16.132812 8.28125 16.144531 8.210938 16.144531 8.132812 C 16.144531 8.050781 16.132812 7.980469 16.109375 7.925781 C 16.085938 7.871094 16.058594 7.828125 16.023438 7.796875 C 15.988281 7.761719 15.949219 7.738281 15.90625 7.722656 C 15.863281 7.710938 15.824219 7.703125 15.785156 7.703125 C 15.746094 7.703125 15.707031 7.710938 15.667969 7.722656 C 15.625 7.738281 15.585938 7.761719 15.550781 7.796875 C 15.515625 7.828125 15.488281 7.871094 15.464844 7.925781 C 15.441406 7.980469 15.429688 8.050781 15.429688 8.132812 C 15.429688 8.210938 15.441406 8.28125 15.464844 8.335938 C 15.488281 8.390625 15.515625 8.433594 15.550781 8.46875 C 15.585938 8.5 15.625 8.523438 15.667969 8.539062 C 15.707031 8.554688 15.75 8.558594 15.785156 8.558594 C 15.824219 8.558594 15.863281 8.554688 15.90625 8.539062 Z M 15.714844 8.351562 C 15.695312 8.332031 15.683594 8.3125 15.675781 8.285156 C 15.667969 8.261719 15.664062 8.234375 15.660156 8.207031 C 15.660156 8.175781 15.660156 8.152344 15.660156 8.128906 C 15.660156 8.109375 15.660156 8.082031 15.660156 8.054688 C 15.664062 8.023438 15.667969 8 15.675781 7.972656 C 15.683594 7.949219 15.699219 7.925781 15.714844 7.910156 C 15.734375 7.894531 15.757812 7.886719 15.789062 7.886719 C 15.816406 7.886719 15.839844 7.894531 15.859375 7.910156 C 15.875 7.929688 15.886719 7.949219 15.894531 7.976562 C 15.90625 8 15.910156 8.027344 15.910156 8.054688 C 15.914062 8.082031 15.914062 8.109375 15.914062 8.128906 C 15.914062 8.152344 15.914062 8.179688 15.910156 8.207031 C 15.910156 8.234375 15.90625 8.261719 15.894531 8.285156 C 15.886719 8.3125 15.875 8.332031 15.855469 8.351562 C 15.839844 8.367188 15.816406 8.375 15.785156 8.375 C 15.753906 8.375 15.730469 8.367188 15.714844 8.351562 Z M 15.714844 8.351562 "/>
    <path style=" stroke:none;fill-rule:nonzero;fill:rgb(0%,0%,0%);fill-opacity:1;" d="M 13.839844 8.789062 C 13.804688 8.753906 13.765625 8.730469 13.722656 8.71875 C 13.679688 8.703125 13.640625 8.695312 13.601562 8.695312 C 13.566406 8.695312 13.523438 8.703125 13.484375 8.71875 C 13.441406 8.730469 13.402344 8.753906 13.367188 8.789062 C 13.332031 8.824219 13.304688 8.867188 13.28125 8.921875 C 13.257812 8.976562 13.246094 9.042969 13.246094 9.125 C 13.246094 9.207031 13.257812 9.273438 13.28125 9.328125 C 13.304688 9.382812 13.332031 9.429688 13.367188 9.460938 C 13.402344 9.496094 13.441406 9.519531 13.484375 9.53125 C 13.527344 9.546875 13.566406 9.554688 13.605469 9.554688 C 13.640625 9.554688 13.683594 9.546875 13.722656 9.53125 C 13.765625 9.519531 13.804688 9.496094 13.839844 9.460938 C 13.875 9.429688 13.902344 9.382812 13.925781 9.328125 C 13.949219 9.273438 13.960938 9.207031 13.960938 9.125 C 13.960938 9.042969 13.949219 8.976562 13.925781 8.921875 C 13.902344 8.867188 13.875 8.824219 13.839844 8.789062 Z M 13.730469 9.203125 C 13.726562 9.230469 13.722656 9.253906 13.714844 9.28125 C 13.703125 9.304688 13.691406 9.328125 13.675781 9.34375 C 13.65625 9.363281 13.632812 9.371094 13.601562 9.371094 C 13.574219 9.371094 13.550781 9.363281 13.53125 9.34375 C 13.515625 9.328125 13.503906 9.304688 13.496094 9.28125 C 13.484375 9.253906 13.480469 9.230469 13.480469 9.199219 C 13.476562 9.171875 13.476562 9.148438 13.476562 9.125 C 13.476562 9.101562 13.476562 9.078125 13.480469 9.046875 C 13.480469 9.019531 13.484375 8.992188 13.496094 8.96875 C 13.503906 8.941406 13.515625 8.921875 13.53125 8.90625 C 13.550781 8.886719 13.574219 8.878906 13.605469 8.878906 C 13.636719 8.878906 13.660156 8.890625 13.675781 8.90625 C 13.691406 8.921875 13.707031 8.945312 13.714844 8.96875 C 13.722656 8.996094 13.726562 9.023438 13.730469 9.050781 C 13.730469 9.078125 13.730469 9.101562 13.730469 9.125 C 13.730469 9.148438 13.730469 9.171875 13.730469 9.203125 Z M 13.730469 9.203125 "/>
    <path style=" stroke:none;fill-rule:nonzero;fill:rgb(0%,0%,0%);fill-opacity:1;" d="M 16.660156 5.574219 C 16.605469 5.523438 16.546875 5.488281 16.484375 5.464844 C 16.417969 5.445312 16.359375 5.433594 16.300781 5.433594 C 16.242188 5.433594 16.179688 5.445312 16.117188 5.464844 C 16.054688 5.488281 15.996094 5.523438 15.941406 5.574219 C 15.890625 5.625 15.84375 5.695312 15.808594 5.777344 C 15.773438 5.859375 15.757812 5.964844 15.757812 6.085938 C 15.757812 6.210938 15.773438 6.316406 15.808594 6.398438 C 15.84375 6.480469 15.890625 6.546875 15.941406 6.597656 C 15.996094 6.652344 16.054688 6.6875 16.121094 6.707031 C 16.183594 6.730469 16.242188 6.742188 16.300781 6.742188 C 16.359375 6.742188 16.421875 6.730469 16.484375 6.707031 C 16.550781 6.6875 16.609375 6.652344 16.660156 6.597656 C 16.714844 6.546875 16.757812 6.480469 16.792969 6.398438 C 16.828125 6.316406 16.84375 6.210938 16.84375 6.085938 C 16.84375 5.964844 16.828125 5.859375 16.792969 5.777344 C 16.757812 5.695312 16.714844 5.625 16.660156 5.574219 Z M 16.492188 6.203125 C 16.488281 6.246094 16.480469 6.285156 16.46875 6.324219 C 16.453125 6.363281 16.433594 6.394531 16.410156 6.421875 C 16.382812 6.449219 16.34375 6.460938 16.300781 6.460938 C 16.253906 6.460938 16.21875 6.449219 16.191406 6.421875 C 16.164062 6.394531 16.144531 6.363281 16.132812 6.324219 C 16.121094 6.285156 16.113281 6.246094 16.109375 6.203125 C 16.105469 6.160156 16.105469 6.121094 16.105469 6.085938 C 16.105469 6.054688 16.105469 6.015625 16.109375 5.96875 C 16.113281 5.925781 16.121094 5.886719 16.132812 5.847656 C 16.144531 5.808594 16.164062 5.777344 16.191406 5.753906 C 16.21875 5.726562 16.253906 5.714844 16.304688 5.714844 C 16.347656 5.714844 16.382812 5.726562 16.410156 5.753906 C 16.4375 5.78125 16.457031 5.8125 16.46875 5.851562 C 16.480469 5.890625 16.488281 5.929688 16.492188 5.972656 C 16.496094 6.015625 16.496094 6.054688 16.496094 6.085938 C 16.496094 6.121094 16.496094 6.160156 16.492188 6.203125 Z M 16.492188 6.203125 "/>
    <path style=" stroke:none;fill-rule:nonzero;fill:rgb(0%,0%,0%);fill-opacity:1;" d="M 10.445312 7.042969 C 10.5 7.09375 10.558594 7.128906 10.621094 7.152344 C 10.6875 7.171875 10.746094 7.183594 10.804688 7.183594 C 10.863281 7.183594 10.921875 7.171875 10.988281 7.152344 C 11.050781 7.128906 11.109375 7.09375 11.164062 7.042969 C 11.21875 6.992188 11.261719 6.921875 11.296875 6.839844 C 11.332031 6.757812 11.347656 6.652344 11.347656 6.53125 C 11.347656 6.40625 11.332031 6.300781 11.296875 6.21875 C 11.261719 6.136719 11.214844 6.070312 11.164062 6.019531 C 11.109375 5.96875 11.050781 5.929688 10.988281 5.910156 C 10.921875 5.886719 10.863281 5.875 10.804688 5.875 C 10.746094 5.875 10.683594 5.886719 10.621094 5.910156 C 10.558594 5.929688 10.5 5.96875 10.445312 6.019531 C 10.390625 6.070312 10.347656 6.136719 10.3125 6.21875 C 10.277344 6.300781 10.261719 6.40625 10.261719 6.53125 C 10.261719 6.652344 10.277344 6.757812 10.3125 6.839844 C 10.347656 6.921875 10.390625 6.992188 10.445312 7.042969 Z M 10.613281 6.414062 C 10.617188 6.371094 10.625 6.328125 10.636719 6.289062 C 10.648438 6.253906 10.667969 6.222656 10.695312 6.195312 C 10.722656 6.167969 10.757812 6.15625 10.808594 6.15625 C 10.851562 6.15625 10.886719 6.167969 10.914062 6.195312 C 10.941406 6.222656 10.960938 6.253906 10.972656 6.292969 C 10.984375 6.332031 10.992188 6.371094 10.996094 6.414062 C 11 6.457031 11 6.496094 11 6.53125 C 11 6.5625 11 6.601562 10.996094 6.644531 C 10.992188 6.6875 10.984375 6.730469 10.972656 6.765625 C 10.957031 6.804688 10.9375 6.835938 10.914062 6.863281 C 10.886719 6.890625 10.847656 6.902344 10.804688 6.902344 C 10.757812 6.902344 10.71875 6.890625 10.695312 6.863281 C 10.667969 6.835938 10.648438 6.804688 10.636719 6.765625 C 10.625 6.730469 10.617188 6.6875 10.613281 6.644531 C 10.609375 6.601562 10.609375 6.5625 10.609375 6.53125 C 10.609375 6.496094 10.609375 6.457031 10.613281 6.414062 Z M 10.613281 6.414062 "/>
    <path style=" stroke:none;fill-rule:nonzero;fill:rgb(0%,0%,0%);fill-opacity:1;" d="M 11.269531 8.546875 C 11.167969 8.453125 11.058594 8.382812 10.945312 8.34375 C 10.824219 8.304688 10.714844 8.28125 10.605469 8.28125 C 10.5 8.28125 10.386719 8.304688 10.269531 8.34375 C 10.152344 8.382812 10.046875 8.453125 9.949219 8.546875 C 9.851562 8.640625 9.769531 8.761719 9.703125 8.914062 C 9.640625 9.070312 9.605469 9.257812 9.605469 9.488281 C 9.605469 9.714844 9.640625 9.90625 9.703125 10.058594 C 9.769531 10.210938 9.847656 10.335938 9.949219 10.429688 C 10.046875 10.523438 10.152344 10.589844 10.273438 10.628906 C 10.390625 10.671875 10.503906 10.691406 10.609375 10.691406 C 10.714844 10.691406 10.828125 10.671875 10.945312 10.628906 C 11.0625 10.589844 11.171875 10.523438 11.269531 10.429688 C 11.367188 10.335938 11.449219 10.210938 11.511719 10.058594 C 11.578125 9.90625 11.609375 9.714844 11.609375 9.488281 C 11.609375 9.257812 11.578125 9.070312 11.511719 8.914062 C 11.449219 8.761719 11.367188 8.640625 11.269531 8.546875 Z M 10.957031 9.699219 C 10.953125 9.777344 10.9375 9.855469 10.914062 9.921875 C 10.890625 9.992188 10.855469 10.050781 10.804688 10.101562 C 10.757812 10.148438 10.691406 10.171875 10.605469 10.171875 C 10.519531 10.171875 10.453125 10.148438 10.40625 10.101562 C 10.359375 10.050781 10.324219 9.992188 10.300781 9.921875 C 10.277344 9.855469 10.261719 9.777344 10.257812 9.699219 C 10.253906 9.617188 10.25 9.546875 10.25 9.488281 C 10.25 9.425781 10.253906 9.351562 10.257812 9.273438 C 10.261719 9.191406 10.277344 9.117188 10.300781 9.046875 C 10.324219 8.976562 10.359375 8.917969 10.40625 8.871094 C 10.457031 8.824219 10.523438 8.800781 10.613281 8.800781 C 10.695312 8.800781 10.761719 8.824219 10.808594 8.875 C 10.859375 8.921875 10.894531 8.980469 10.914062 9.050781 C 10.9375 9.125 10.953125 9.199219 10.957031 9.277344 C 10.964844 9.355469 10.96875 9.425781 10.96875 9.488281 C 10.96875 9.550781 10.964844 9.621094 10.957031 9.699219 Z M 10.957031 9.699219 "/>
    <path style=" stroke:none;fill-rule:nonzero;fill:rgb(0%,0%,0%);fill-opacity:1;" d="M 6.226562 7.59375 C 6.3125 7.511719 6.382812 7.40625 6.4375 7.277344 C 6.492188 7.144531 6.519531 6.984375 6.519531 6.789062 C 6.519531 6.59375 6.492188 6.433594 6.4375 6.300781 C 6.382812 6.171875 6.3125 6.066406 6.226562 5.984375 C 6.140625 5.90625 6.050781 5.847656 5.949219 5.8125 C 5.851562 5.777344 5.753906 5.761719 5.660156 5.761719 C 5.570312 5.761719 5.476562 5.777344 5.375 5.8125 C 5.277344 5.847656 5.183594 5.90625 5.101562 5.984375 C 5.015625 6.066406 4.949219 6.171875 4.894531 6.300781 C 4.839844 6.433594 4.808594 6.59375 4.808594 6.789062 C 4.808594 6.984375 4.839844 7.144531 4.894531 7.277344 C 4.949219 7.40625 5.015625 7.511719 5.101562 7.59375 C 5.183594 7.671875 5.277344 7.730469 5.378906 7.765625 C 5.480469 7.800781 5.574219 7.816406 5.664062 7.816406 C 5.753906 7.816406 5.851562 7.800781 5.953125 7.765625 C 6.050781 7.730469 6.144531 7.671875 6.226562 7.59375 Z M 5.832031 7.3125 C 5.792969 7.355469 5.734375 7.375 5.660156 7.375 C 5.589844 7.375 5.53125 7.355469 5.492188 7.3125 C 5.449219 7.269531 5.421875 7.222656 5.402344 7.160156 C 5.378906 7.101562 5.367188 7.039062 5.363281 6.96875 C 5.359375 6.902344 5.359375 6.839844 5.359375 6.789062 C 5.359375 6.734375 5.359375 6.675781 5.363281 6.605469 C 5.367188 6.539062 5.378906 6.472656 5.402344 6.414062 C 5.421875 6.355469 5.449219 6.304688 5.492188 6.265625 C 5.535156 6.222656 5.59375 6.203125 5.667969 6.203125 C 5.738281 6.203125 5.792969 6.222656 5.835938 6.265625 C 5.878906 6.308594 5.90625 6.359375 5.925781 6.417969 C 5.945312 6.480469 5.957031 6.542969 5.964844 6.609375 C 5.96875 6.675781 5.96875 6.738281 5.96875 6.789062 C 5.96875 6.84375 5.96875 6.902344 5.964844 6.972656 C 5.957031 7.039062 5.945312 7.101562 5.925781 7.160156 C 5.90625 7.222656 5.875 7.269531 5.832031 7.3125 Z M 5.832031 7.3125 "/>
    <path style=" stroke:none;fill-rule:nonzero;fill:rgb(0%,0%,0%);fill-opacity:1;" d="M 15.980469 4.890625 C 16.078125 4.855469 16.171875 4.800781 16.253906 4.71875 C 16.339844 4.640625 16.410156 4.535156 16.464844 4.40625 C 16.519531 4.273438 16.546875 4.109375 16.546875 3.917969 C 16.546875 3.722656 16.519531 3.558594 16.464844 3.429688 C 16.410156 3.296875 16.339844 3.191406 16.253906 3.113281 C 16.167969 3.03125 16.078125 2.976562 15.976562 2.941406 C 15.875 2.90625 15.78125 2.890625 15.6875 2.890625 C 15.597656 2.890625 15.503906 2.90625 15.402344 2.941406 C 15.304688 2.976562 15.210938 3.03125 15.128906 3.113281 C 15.042969 3.191406 14.976562 3.296875 14.921875 3.429688 C 14.863281 3.558594 14.835938 3.722656 14.835938 3.917969 C 14.835938 4.109375 14.863281 4.273438 14.921875 4.40625 C 14.976562 4.535156 15.042969 4.640625 15.128906 4.71875 C 15.210938 4.800781 15.304688 4.855469 15.40625 4.890625 C 15.503906 4.925781 15.601562 4.945312 15.691406 4.945312 C 15.78125 4.945312 15.878906 4.925781 15.980469 4.890625 Z M 15.519531 4.441406 C 15.476562 4.398438 15.449219 4.347656 15.425781 4.289062 C 15.40625 4.230469 15.394531 4.164062 15.390625 4.097656 C 15.386719 4.027344 15.386719 3.96875 15.386719 3.917969 C 15.386719 3.863281 15.386719 3.800781 15.390625 3.734375 C 15.394531 3.664062 15.40625 3.601562 15.425781 3.542969 C 15.449219 3.480469 15.476562 3.433594 15.519531 3.390625 C 15.5625 3.351562 15.617188 3.332031 15.695312 3.332031 C 15.765625 3.332031 15.820312 3.351562 15.863281 3.394531 C 15.90625 3.433594 15.933594 3.484375 15.953125 3.546875 C 15.972656 3.605469 15.984375 3.671875 15.988281 3.738281 C 15.996094 3.804688 15.996094 3.863281 15.996094 3.917969 C 15.996094 3.96875 15.996094 4.03125 15.988281 4.097656 C 15.984375 4.164062 15.972656 4.230469 15.953125 4.289062 C 15.933594 4.347656 15.902344 4.398438 15.859375 4.441406 C 15.820312 4.480469 15.761719 4.503906 15.6875 4.503906 C 15.613281 4.503906 15.558594 4.480469 15.519531 4.441406 Z M 15.519531 4.441406 "/>
    <path style=" stroke:none;fill-rule:nonzero;fill:rgb(0%,0%,0%);fill-opacity:1;" d="M 13.75 6.75 C 13.839844 6.75 13.9375 6.734375 14.039062 6.699219 C 14.140625 6.664062 14.230469 6.605469 14.3125 6.527344 C 14.398438 6.445312 14.46875 6.34375 14.523438 6.210938 C 14.578125 6.082031 14.605469 5.917969 14.605469 5.722656 C 14.605469 5.527344 14.578125 5.367188 14.523438 5.234375 C 14.46875 5.105469 14.398438 5 14.3125 4.917969 C 14.226562 4.839844 14.136719 4.78125 14.035156 4.746094 C 13.9375 4.710938 13.839844 4.695312 13.75 4.695312 C 13.65625 4.695312 13.5625 4.710938 13.460938 4.746094 C 13.363281 4.78125 13.269531 4.839844 13.1875 4.917969 C 13.101562 5 13.035156 5.105469 12.980469 5.234375 C 12.925781 5.367188 12.898438 5.527344 12.898438 5.722656 C 12.898438 5.917969 12.925781 6.082031 12.980469 6.210938 C 13.035156 6.34375 13.101562 6.445312 13.1875 6.527344 C 13.269531 6.605469 13.363281 6.664062 13.464844 6.699219 C 13.5625 6.734375 13.660156 6.75 13.75 6.75 Z M 13.445312 5.722656 C 13.445312 5.667969 13.445312 5.609375 13.449219 5.539062 C 13.453125 5.472656 13.464844 5.40625 13.488281 5.347656 C 13.507812 5.289062 13.539062 5.238281 13.578125 5.199219 C 13.621094 5.15625 13.679688 5.136719 13.753906 5.136719 C 13.824219 5.136719 13.882812 5.160156 13.921875 5.199219 C 13.964844 5.242188 13.996094 5.292969 14.015625 5.351562 C 14.03125 5.414062 14.046875 5.476562 14.050781 5.542969 C 14.054688 5.613281 14.058594 5.671875 14.058594 5.722656 C 14.058594 5.777344 14.054688 5.839844 14.050781 5.90625 C 14.046875 5.972656 14.03125 6.035156 14.011719 6.097656 C 13.992188 6.15625 13.960938 6.207031 13.921875 6.246094 C 13.878906 6.289062 13.820312 6.308594 13.75 6.308594 C 13.675781 6.308594 13.617188 6.289062 13.578125 6.246094 C 13.539062 6.207031 13.507812 6.15625 13.488281 6.097656 C 13.464844 6.035156 13.453125 5.972656 13.449219 5.902344 C 13.445312 5.835938 13.445312 5.777344 13.445312 5.722656 Z M 13.445312 5.722656 "/>
    <path style=" stroke:none;fill-rule:nonzero;fill:rgb(0%,0%,0%);fill-opacity:1;" d="M 14.253906 7.355469 C 14.1875 7.460938 14.105469 7.542969 14 7.605469 C 13.898438 7.667969 13.785156 7.710938 13.65625 7.738281 C 13.53125 7.765625 13.398438 7.777344 13.265625 7.773438 L 13.265625 8.535156 L 14.128906 8.535156 L 14.128906 10.664062 L 15.230469 10.664062 L 15.230469 6.972656 L 14.363281 6.972656 C 14.355469 7.125 14.320312 7.253906 14.253906 7.355469 Z M 14.253906 7.355469 "/>
    <path style=" stroke:none;fill-rule:nonzero;fill:rgb(0%,0%,0%);fill-opacity:1;" d="M 5.242188 5.273438 L 5.898438 5.273438 L 5.898438 3.078125 L 5.378906 3.078125 C 5.375 3.167969 5.355469 3.242188 5.316406 3.304688 C 5.277344 3.367188 5.226562 3.417969 5.167969 3.453125 C 5.105469 3.492188 5.039062 3.515625 4.960938 3.53125 C 4.886719 3.546875 4.808594 3.554688 4.730469 3.554688 L 4.730469 4.007812 L 5.242188 4.007812 Z M 5.242188 5.273438 "/>
    <path style=" stroke:none;fill-rule:nonzero;fill:rgb(0%,0%,0%);fill-opacity:1;" d="M 12 6.09375 L 12.589844 6.09375 L 12.589844 4.128906 L 12.125 4.128906 C 12.121094 4.210938 12.101562 4.277344 12.066406 4.332031 C 12.03125 4.390625 11.988281 4.433594 11.933594 4.464844 C 11.878906 4.5 11.816406 4.523438 11.75 4.535156 C 11.679688 4.550781 11.613281 4.558594 11.539062 4.554688 L 11.539062 4.960938 L 12 4.960938 Z M 12 6.09375 "/>
    <path style=" stroke:none;fill-rule:nonzero;fill:rgb(0%,0%,0%);fill-opacity:1;" d="M 8.179688 9.738281 C 8.164062 9.765625 8.140625 9.789062 8.109375 9.808594 C 8.082031 9.824219 8.050781 9.835938 8.015625 9.84375 C 7.980469 9.851562 7.941406 9.855469 7.902344 9.855469 L 7.902344 10.066406 L 8.144531 10.066406 L 8.144531 10.664062 L 8.453125 10.664062 L 8.453125 9.628906 L 8.210938 9.628906 C 8.210938 9.671875 8.199219 9.707031 8.179688 9.738281 Z M 8.179688 9.738281 "/>
    <path style=" stroke:none;fill-rule:nonzero;fill:rgb(0%,0%,0%);fill-opacity:1;" d="M 2.097656 8.285156 L 2.40625 8.285156 L 2.40625 7.253906 L 2.164062 7.253906 C 2.160156 7.296875 2.152344 7.332031 2.132812 7.363281 C 2.113281 7.390625 2.089844 7.414062 2.0625 7.429688 C 2.03125 7.449219 2 7.460938 1.964844 7.46875 C 1.929688 7.476562 1.894531 7.480469 1.855469 7.476562 L 1.855469 7.691406 L 2.097656 7.691406 Z M 2.097656 8.285156 "/>
    <path style=" stroke:none;fill-rule:nonzero;fill:rgb(0%,0%,0%);fill-opacity:1;" d="M 6.992188 6.867188 C 6.976562 6.898438 6.949219 6.921875 6.921875 6.9375 C 6.894531 6.953125 6.863281 6.96875 6.824219 6.976562 C 6.789062 6.980469 6.753906 6.984375 6.714844 6.984375 L 6.714844 7.195312 L 6.957031 7.195312 L 6.957031 7.792969 L 7.265625 7.792969 L 7.265625 6.757812 L 7.023438 6.757812 C 7.023438 6.800781 7.011719 6.839844 6.992188 6.867188 Z M 6.992188 6.867188 "/>
    <path style=" stroke:none;fill-rule:nonzero;fill:rgb(0%,0%,0%);fill-opacity:1;" d="M 10.90625 4.089844 L 11.21875 4.089844 L 11.21875 3.054688 L 10.972656 3.054688 C 10.972656 3.097656 10.960938 3.132812 10.945312 3.164062 C 10.925781 3.191406 10.902344 3.214844 10.871094 3.234375 C 10.84375 3.25 10.8125 3.261719 10.777344 3.269531 C 10.742188 3.277344 10.703125 3.28125 10.667969 3.28125 L 10.667969 3.492188 L 10.90625 3.492188 Z M 10.90625 4.089844 "/>
    <path style=" stroke:none;fill-rule:nonzero;fill:rgb(0%,0%,0%);fill-opacity:1;" d="M 13.863281 4.210938 L 14.1875 4.210938 L 14.1875 3.125 L 13.929688 3.125 C 13.929688 3.167969 13.917969 3.207031 13.898438 3.238281 C 13.878906 3.269531 13.855469 3.292969 13.824219 3.308594 C 13.796875 3.328125 13.761719 3.339844 13.722656 3.347656 C 13.6875 3.355469 13.648438 3.359375 13.609375 3.359375 L 13.609375 3.585938 L 13.863281 3.585938 Z M 13.863281 4.210938 "/>
    <path style=" stroke:none;fill-rule:nonzero;fill:rgb(0%,0%,0%);fill-opacity:1;" d="M 15.972656 9.351562 C 15.953125 9.378906 15.929688 9.402344 15.898438 9.421875 C 15.871094 9.4375 15.839844 9.449219 15.804688 9.457031 C 15.769531 9.464844 15.730469 9.46875 15.695312 9.46875 L 15.695312 9.679688 L 15.933594 9.679688 L 15.933594 10.277344 L 16.246094 10.277344 L 16.246094 9.242188 L 16 9.242188 C 16 9.285156 15.988281 9.320312 15.972656 9.351562 Z M 15.972656 9.351562 "/>
    <path style=" stroke:none;fill-rule:nonzero;fill:rgb(0%,0%,0%);fill-opacity:1;" d="M 1.984375 4.640625 L 2.296875 4.640625 L 2.296875 3.609375 L 2.050781 3.609375 C 2.050781 3.652344 2.039062 3.6875 2.019531 3.714844 C 2.003906 3.746094 1.980469 3.769531 1.949219 3.785156 C 1.921875 3.804688 1.890625 3.816406 1.855469 3.824219 C 1.820312 3.832031 1.78125 3.832031 1.746094 3.832031 L 1.746094 4.046875 L 1.984375 4.046875 Z M 1.984375 4.640625 "/>
    <path style=" stroke:none;fill-rule:nonzero;fill:rgb(0%,0%,0%);fill-opacity:1;" d="M 6.292969 9.058594 C 6.257812 9.113281 6.214844 9.15625 6.160156 9.191406 C 6.105469 9.222656 6.042969 9.246094 5.976562 9.261719 C 5.90625 9.273438 5.839844 9.28125 5.765625 9.277344 L 5.765625 9.683594 L 6.226562 9.683594 L 6.226562 10.820312 L 6.816406 10.820312 L 6.816406 8.851562 L 6.351562 8.851562 C 6.347656 8.933594 6.328125 9 6.292969 9.058594 Z M 6.292969 9.058594 "/>
    <path style=" stroke:none;fill-rule:nonzero;fill:rgb(0%,0%,0%);fill-opacity:1;" d="M 8.863281 7.136719 C 8.828125 7.191406 8.78125 7.238281 8.730469 7.269531 C 8.671875 7.300781 8.613281 7.324219 8.542969 7.339844 C 8.476562 7.355469 8.40625 7.359375 8.335938 7.359375 L 8.335938 7.765625 L 8.796875 7.765625 L 8.796875 8.898438 L 9.382812 8.898438 L 9.382812 6.933594 L 8.921875 6.933594 C 8.917969 7.011719 8.898438 7.082031 8.863281 7.136719 Z M 8.863281 7.136719 "/>
  </g>
</svg>