<?xml version="1.0" encoding="UTF-8" standalone="yes"?>
<svg xmlns="http://www.w3.org/2000/svg" xmlns:xlink="http://www.w3.org/1999/xlink" width="24px" height="24px" viewBox="0 0 18 18" version="1.1">
  <g id="surface1">
    <path style=" stroke:none;fill-rule:nonzero;fill:rgb(0%,0%,0%);fill-opacity:1;" d="M 13.792969 3.199219 C 12.773438 2.609375 11.367188 2.585938 10.121094 3.132812 C 8.972656 3.644531 8.144531 4.761719 7.652344 5.601562 C 7.433594 5.550781 7.195312 5.652344 7.09375 5.867188 C 6.996094 6.070312 7.054688 6.308594 7.214844 6.449219 C 7.171875 6.550781 7.144531 6.617188 7.132812 6.644531 L 4.753906 11.871094 C 4.515625 11.761719 4.230469 11.859375 4.109375 12.097656 C 3.988281 12.339844 4.089844 12.636719 4.332031 12.757812 L 4.347656 12.765625 L 3.8125 13.941406 L 2.480469 13.941406 C 2.210938 13.941406 1.992188 14.160156 1.992188 14.429688 C 1.992188 14.703125 2.210938 14.921875 2.480469 14.921875 L 4.9375 14.921875 C 5.207031 14.921875 5.429688 14.703125 5.429688 14.429688 C 5.429688 14.160156 5.210938 13.941406 4.9375 13.941406 L 4.890625 13.941406 L 5.230469 13.191406 C 5.277344 13.207031 5.324219 13.214844 5.367188 13.214844 C 5.546875 13.214844 5.722656 13.113281 5.808594 12.941406 C 5.917969 12.714844 5.839844 12.445312 5.632812 12.3125 L 8.101562 6.894531 C 8.164062 6.925781 8.234375 6.941406 8.304688 6.941406 C 8.488281 6.941406 8.664062 6.835938 8.746094 6.660156 C 8.859375 6.425781 8.769531 6.148438 8.546875 6.023438 C 8.964844 5.316406 9.640625 4.421875 10.519531 4.03125 C 11.464844 3.613281 12.558594 3.621094 13.300781 4.050781 C 13.847656 4.363281 14.160156 4.867188 14.234375 5.539062 C 14.371094 6.800781 14.253906 7.648438 13.886719 8.054688 C 13.855469 8.09375 13.816406 8.125 13.777344 8.15625 L 13.777344 9.253906 C 14.082031 9.152344 14.371094 8.988281 14.617188 8.710938 C 15.1875 8.078125 15.378906 7.007812 15.207031 5.433594 C 15.105469 4.457031 14.601562 3.664062 13.792969 3.199219 Z M 12.390625 11.484375 C 12.714844 11.484375 13.015625 11.558594 13.289062 11.683594 L 13.289062 7.800781 C 13.289062 7.527344 13.3125 7.554688 13.042969 7.554688 L 12.082031 7.554688 C 11.808594 7.554688 9.070312 7.78125 8.347656 11.355469 L 7.882812 14.308594 C 7.882812 14.578125 8.105469 14.921875 8.375 14.921875 L 10.707031 14.921875 C 10.425781 14.5625 10.257812 14.109375 10.257812 13.617188 C 10.257812 12.441406 11.214844 11.484375 12.390625 11.484375 Z M 13.535156 12.441406 C 13.457031 12.367188 13.378906 12.300781 13.289062 12.242188 C 13.03125 12.074219 12.722656 11.976562 12.394531 11.976562 C 11.488281 11.976562 10.75 12.710938 10.75 13.617188 C 10.75 14.148438 11.007812 14.621094 11.398438 14.921875 C 11.535156 15.027344 11.691406 15.109375 11.855469 15.167969 C 12.023438 15.226562 12.203125 15.257812 12.394531 15.257812 C 12.582031 15.257812 12.761719 15.226562 12.929688 15.167969 C 13.105469 15.105469 13.265625 15.019531 13.40625 14.90625 C 13.542969 14.800781 13.660156 14.675781 13.753906 14.535156 C 13.929688 14.273438 14.035156 13.957031 14.035156 13.617188 C 14.035156 13.292969 13.941406 12.996094 13.78125 12.742188 C 13.710938 12.632812 13.628906 12.53125 13.535156 12.441406 Z M 12.390625 12.792969 C 12.847656 12.792969 13.214844 13.164062 13.214844 13.617188 C 13.214844 14.074219 12.847656 14.441406 12.390625 14.441406 C 11.9375 14.441406 11.566406 14.074219 11.566406 13.617188 C 11.566406 13.164062 11.9375 12.792969 12.390625 12.792969 Z M 12.390625 12.792969 "/>
  </g>
</svg>