<?xml version="1.0" encoding="UTF-8" standalone="yes"?>
<svg xmlns="http://www.w3.org/2000/svg" xmlns:xlink="http://www.w3.org/1999/xlink" width="24px" height="24px" viewBox="0 0 18 18" version="1.1">
  <g id="surface1">
    <path style=" stroke:none;fill-rule:nonzero;fill:rgb(0%,0%,0%);fill-opacity:1;" d="M 5.921875 3.957031 C 5.910156 3.914062 5.894531 3.859375 5.878906 3.792969 C 5.859375 3.722656 5.851562 3.671875 5.84375 3.644531 C 5.839844 3.671875 5.828125 3.714844 5.816406 3.777344 C 5.800781 3.84375 5.769531 3.964844 5.71875 4.152344 L 5.972656 4.152344 Z M 11.105469 3.695312 L 11.042969 3.695312 L 11.042969 3.964844 L 11.101562 3.964844 C 11.214844 3.964844 11.269531 3.917969 11.269531 3.816406 C 11.269531 3.734375 11.214844 3.695312 11.105469 3.695312 Z M 8.898438 3.945312 C 8.929688 3.914062 8.941406 3.878906 8.941406 3.832031 C 8.941406 3.753906 8.898438 3.710938 8.808594 3.710938 L 8.726562 3.710938 L 8.726562 3.984375 L 8.785156 3.984375 C 8.832031 3.984375 8.871094 3.96875 8.898438 3.945312 Z M 9.960938 3.695312 C 9.800781 3.695312 9.722656 3.8125 9.722656 4.042969 C 9.722656 4.273438 9.800781 4.386719 9.960938 4.386719 C 10.039062 4.386719 10.101562 4.359375 10.140625 4.304688 C 10.179688 4.25 10.199219 4.164062 10.199219 4.042969 C 10.199219 3.925781 10.179688 3.839844 10.140625 3.78125 C 10.097656 3.722656 10.039062 3.695312 9.960938 3.695312 Z M 4.753906 3.710938 L 4.671875 3.710938 L 4.671875 3.984375 L 4.730469 3.984375 C 4.777344 3.984375 4.816406 3.96875 4.84375 3.941406 C 4.871094 3.914062 4.886719 3.878906 4.886719 3.832031 C 4.886719 3.75 4.839844 3.710938 4.753906 3.710938 Z M 13.839844 1.371094 C 13.824219 1.371094 13.804688 1.371094 13.789062 1.371094 L 4.023438 1.996094 C 3.710938 2.023438 3.464844 2.277344 3.464844 2.566406 L 3.464844 2.625 C 3.453125 2.65625 3.445312 2.691406 3.445312 2.726562 L 3.445312 16.320312 C 3.445312 16.492188 3.585938 16.628906 3.757812 16.628906 L 13.222656 16.628906 C 13.394531 16.628906 13.53125 16.492188 13.53125 16.320312 L 13.53125 15.925781 L 13.828125 15.90625 C 14.140625 15.878906 14.386719 15.625 14.386719 15.332031 L 14.386719 1.882812 C 14.386719 1.59375 14.144531 1.371094 13.839844 1.371094 Z M 4.671875 4.636719 L 4.351562 4.636719 L 4.351562 3.453125 L 4.761719 3.453125 C 4.910156 3.453125 5.023438 3.484375 5.097656 3.550781 C 5.171875 3.617188 5.210938 3.710938 5.210938 3.832031 C 5.210938 3.960938 5.171875 4.066406 5.09375 4.136719 C 5.015625 4.207031 4.902344 4.246094 4.761719 4.246094 L 4.671875 4.246094 Z M 7.132812 6.023438 C 7.273438 5.96875 7.34375 6.046875 7.289062 6.1875 C 7.136719 6.617188 7.019531 7.121094 6.9375 7.660156 C 6.914062 7.8125 6.777344 7.949219 6.625 7.972656 C 6.085938 8.054688 5.582031 8.171875 5.15625 8.324219 C 5.011719 8.375 4.933594 8.308594 4.988281 8.164062 C 5.371094 7.183594 6.148438 6.402344 7.132812 6.023438 Z M 5.242188 4.636719 L 5.628906 3.449219 L 6.054688 3.449219 L 6.449219 4.636719 L 6.097656 4.636719 L 6.039062 4.414062 L 5.652344 4.414062 L 5.59375 4.636719 Z M 6.988281 4.261719 C 6.980469 4.25 6.964844 4.238281 6.945312 4.226562 C 6.925781 4.214844 6.875 4.1875 6.789062 4.148438 C 6.710938 4.113281 6.652344 4.078125 6.613281 4.046875 C 6.574219 4.015625 6.546875 3.976562 6.527344 3.933594 C 6.511719 3.890625 6.5 3.839844 6.5 3.78125 C 6.5 3.671875 6.539062 3.589844 6.621094 3.527344 C 6.699219 3.464844 6.808594 3.4375 6.945312 3.4375 C 7.070312 3.4375 7.195312 3.464844 7.320312 3.519531 L 7.222656 3.765625 C 7.113281 3.71875 7.019531 3.691406 6.9375 3.691406 C 6.894531 3.691406 6.867188 3.699219 6.847656 3.714844 C 6.828125 3.726562 6.816406 3.746094 6.816406 3.765625 C 6.816406 3.789062 6.832031 3.8125 6.855469 3.832031 C 6.878906 3.847656 6.945312 3.882812 7.050781 3.929688 C 7.152344 3.976562 7.222656 4.027344 7.261719 4.078125 C 7.304688 4.132812 7.324219 4.195312 7.324219 4.277344 C 7.324219 4.351562 7.304688 4.417969 7.265625 4.472656 C 7.230469 4.53125 7.175781 4.574219 7.105469 4.605469 C 7.035156 4.636719 6.953125 4.652344 6.859375 4.652344 C 6.777344 4.652344 6.714844 4.648438 6.660156 4.636719 C 6.605469 4.625 6.550781 4.605469 6.492188 4.578125 L 6.492188 4.292969 C 6.554688 4.324219 6.617188 4.351562 6.683594 4.367188 C 6.75 4.382812 6.808594 4.394531 6.863281 4.394531 C 6.910156 4.394531 6.945312 4.386719 6.96875 4.367188 C 6.992188 4.351562 7.003906 4.332031 7.003906 4.304688 C 7.003906 4.289062 6.996094 4.273438 6.988281 4.261719 Z M 7.917969 4.261719 C 7.910156 4.25 7.894531 4.238281 7.875 4.226562 C 7.855469 4.214844 7.804688 4.1875 7.71875 4.148438 C 7.640625 4.113281 7.582031 4.078125 7.542969 4.046875 C 7.507812 4.015625 7.476562 3.976562 7.457031 3.933594 C 7.4375 3.890625 7.429688 3.839844 7.429688 3.78125 C 7.429688 3.671875 7.46875 3.589844 7.550781 3.527344 C 7.628906 3.464844 7.738281 3.4375 7.878906 3.4375 C 8 3.4375 8.125 3.464844 8.253906 3.519531 L 8.152344 3.765625 C 8.042969 3.71875 7.949219 3.691406 7.867188 3.691406 C 7.824219 3.691406 7.796875 3.699219 7.777344 3.710938 C 7.757812 3.726562 7.75 3.746094 7.75 3.765625 C 7.75 3.789062 7.761719 3.8125 7.785156 3.828125 C 7.808594 3.847656 7.875 3.882812 7.980469 3.929688 C 8.082031 3.976562 8.152344 4.023438 8.191406 4.078125 C 8.234375 4.128906 8.253906 4.195312 8.253906 4.277344 C 8.253906 4.351562 8.234375 4.414062 8.195312 4.472656 C 8.160156 4.53125 8.105469 4.574219 8.035156 4.605469 C 7.964844 4.636719 7.882812 4.652344 7.789062 4.652344 C 7.707031 4.652344 7.640625 4.648438 7.589844 4.636719 C 7.535156 4.625 7.480469 4.605469 7.421875 4.578125 L 7.421875 4.292969 C 7.484375 4.324219 7.546875 4.351562 7.613281 4.367188 C 7.679688 4.382812 7.738281 4.394531 7.792969 4.394531 C 7.839844 4.394531 7.875 4.386719 7.898438 4.367188 C 7.921875 4.351562 7.933594 4.332031 7.933594 4.304688 C 7.933594 4.289062 7.925781 4.273438 7.917969 4.261719 Z M 7.789062 6.0625 C 7.851562 5.921875 8.035156 5.792969 8.183594 5.78125 C 8.285156 5.773438 8.386719 5.769531 8.488281 5.769531 C 8.59375 5.769531 8.691406 5.773438 8.792969 5.78125 C 8.945312 5.792969 9.128906 5.921875 9.1875 6.0625 C 9.359375 6.457031 9.511719 6.988281 9.613281 7.617188 C 9.636719 7.765625 9.53125 7.878906 9.378906 7.867188 C 9.082031 7.847656 8.785156 7.835938 8.488281 7.835938 C 8.191406 7.835938 7.894531 7.847656 7.597656 7.867188 C 7.445312 7.878906 7.339844 7.765625 7.363281 7.617188 C 7.46875 6.988281 7.617188 6.457031 7.789062 6.0625 Z M 8.40625 4.636719 L 8.40625 3.453125 L 8.816406 3.453125 C 8.96875 3.453125 9.078125 3.484375 9.152344 3.550781 C 9.230469 3.617188 9.265625 3.710938 9.265625 3.832031 C 9.265625 3.960938 9.226562 4.066406 9.148438 4.136719 C 9.070312 4.210938 8.960938 4.246094 8.816406 4.246094 L 8.726562 4.246094 L 8.726562 4.636719 Z M 11.738281 4.636719 L 11.375 4.636719 L 11.125 4.207031 L 11.042969 4.207031 L 11.042969 4.636719 L 10.722656 4.636719 L 10.722656 3.453125 L 11.109375 3.453125 C 11.433594 3.453125 11.59375 3.570312 11.59375 3.804688 C 11.59375 3.941406 11.527344 4.046875 11.390625 4.121094 Z M 11.992188 8.164062 C 12.046875 8.304688 11.96875 8.375 11.824219 8.324219 C 11.394531 8.171875 10.890625 8.054688 10.351562 7.972656 C 10.199219 7.949219 10.0625 7.8125 10.039062 7.660156 C 9.957031 7.121094 9.839844 6.617188 9.6875 6.1875 C 9.636719 6.046875 9.703125 5.96875 9.847656 6.023438 C 10.828125 6.402344 11.609375 7.183594 11.992188 8.164062 Z M 10.390625 4.5 C 10.292969 4.601562 10.148438 4.652344 9.960938 4.652344 C 9.773438 4.652344 9.632812 4.601562 9.53125 4.496094 C 9.433594 4.394531 9.382812 4.242188 9.382812 4.042969 C 9.382812 3.84375 9.433594 3.695312 9.53125 3.589844 C 9.628906 3.484375 9.773438 3.433594 9.960938 3.433594 C 10.152344 3.433594 10.292969 3.484375 10.390625 3.589844 C 10.488281 3.691406 10.535156 3.84375 10.535156 4.042969 C 10.535156 4.242188 10.488281 4.394531 10.390625 4.5 Z M 7.550781 8.285156 C 7.847656 8.261719 8.164062 8.25 8.488281 8.25 C 8.8125 8.25 9.128906 8.261719 9.425781 8.285156 C 9.578125 8.296875 9.714844 8.429688 9.726562 8.582031 C 9.75 8.882812 9.761719 9.195312 9.761719 9.523438 C 9.761719 9.847656 9.75 10.164062 9.726562 10.460938 C 9.714844 10.613281 9.582031 10.75 9.429688 10.761719 C 9.128906 10.78125 8.816406 10.796875 8.488281 10.796875 C 8.164062 10.796875 7.851562 10.78125 7.550781 10.761719 C 7.398438 10.75 7.265625 10.613281 7.253906 10.460938 C 7.230469 10.164062 7.21875 9.847656 7.21875 9.523438 C 7.21875 9.195312 7.230469 8.882812 7.253906 8.582031 C 7.261719 8.429688 7.398438 8.296875 7.550781 8.285156 Z M 9.613281 11.429688 C 9.507812 12.058594 9.359375 12.589844 9.1875 12.984375 C 9.125 13.125 8.945312 13.253906 8.792969 13.265625 C 8.691406 13.273438 8.589844 13.277344 8.488281 13.277344 C 8.386719 13.277344 8.285156 13.273438 8.183594 13.265625 C 8.035156 13.253906 7.851562 13.125 7.789062 12.984375 C 7.617188 12.589844 7.46875 12.058594 7.363281 11.429688 C 7.339844 11.28125 7.449219 11.167969 7.601562 11.179688 C 7.894531 11.199219 8.191406 11.210938 8.488281 11.210938 C 8.785156 11.210938 9.085938 11.199219 9.378906 11.179688 C 9.53125 11.167969 9.636719 11.28125 9.613281 11.429688 Z M 4.746094 9.828125 C 4.738281 9.726562 4.734375 9.625 4.734375 9.523438 C 4.734375 9.421875 4.738281 9.320312 4.746094 9.21875 C 4.757812 9.066406 4.886719 8.886719 5.027344 8.824219 C 5.421875 8.652344 5.953125 8.503906 6.582031 8.398438 C 6.730469 8.375 6.84375 8.480469 6.832031 8.632812 C 6.8125 8.929688 6.800781 9.226562 6.800781 9.523438 C 6.800781 9.820312 6.8125 10.117188 6.832031 10.414062 C 6.84375 10.566406 6.730469 10.671875 6.582031 10.648438 C 5.953125 10.546875 5.421875 10.394531 5.027344 10.222656 C 4.886719 10.160156 4.757812 9.980469 4.746094 9.828125 Z M 5.15625 10.722656 C 5.582031 10.875 6.085938 10.992188 6.628906 11.074219 C 6.777344 11.097656 6.914062 11.234375 6.9375 11.386719 C 7.019531 11.925781 7.136719 12.429688 7.292969 12.855469 C 7.34375 13 7.273438 13.078125 7.132812 13.023438 C 6.152344 12.644531 5.371094 11.863281 4.988281 10.882812 C 4.933594 10.738281 5.011719 10.667969 5.15625 10.722656 Z M 11.34375 15.671875 L 5.636719 15.675781 L 5.636719 14.9375 L 11.34375 14.9375 Z M 11.992188 10.882812 C 11.609375 11.863281 10.828125 12.644531 9.847656 13.023438 C 9.707031 13.078125 9.636719 13 9.6875 12.855469 C 9.839844 12.429688 9.957031 11.925781 10.039062 11.382812 C 10.0625 11.234375 10.199219 11.09375 10.351562 11.074219 C 10.890625 10.992188 11.394531 10.871094 11.824219 10.71875 C 11.96875 10.671875 12.046875 10.738281 11.992188 10.882812 Z M 12.230469 9.828125 C 12.21875 9.980469 12.089844 10.160156 11.953125 10.222656 C 11.554688 10.394531 11.023438 10.542969 10.398438 10.648438 C 10.246094 10.671875 10.136719 10.566406 10.144531 10.414062 C 10.164062 10.117188 10.175781 9.816406 10.175781 9.523438 C 10.175781 9.226562 10.164062 8.925781 10.144531 8.632812 C 10.136719 8.480469 10.246094 8.371094 10.398438 8.398438 C 11.023438 8.503906 11.554688 8.652344 11.953125 8.824219 C 12.089844 8.882812 12.21875 9.066406 12.230469 9.21875 C 12.238281 9.316406 12.246094 9.421875 12.246094 9.519531 C 12.242188 9.625 12.238281 9.726562 12.230469 9.828125 Z M 12.628906 3.714844 L 12.339844 3.714844 L 12.339844 4.636719 L 12.019531 4.636719 L 12.019531 3.714844 L 11.730469 3.714844 L 11.730469 3.453125 L 12.628906 3.453125 Z M 13.921875 15.332031 C 13.921875 15.378906 13.859375 15.433594 13.789062 15.441406 L 13.53125 15.460938 L 13.53125 2.726562 C 13.53125 2.554688 13.390625 2.414062 13.222656 2.414062 L 4.734375 2.414062 L 13.820312 1.835938 L 13.839844 1.835938 C 13.878906 1.835938 13.917969 1.851562 13.917969 1.882812 L 13.917969 15.332031 Z M 13.921875 15.332031 "/>
  </g>
</svg>