<?xml version="1.0" encoding="UTF-8" standalone="yes"?>
<svg xmlns="http://www.w3.org/2000/svg" xmlns:xlink="http://www.w3.org/1999/xlink" width="24px" height="24px" viewBox="0 0 18 18" version="1.1">
  <g id="surface1">
    <path style=" stroke:none;fill-rule:nonzero;fill:rgb(0%,0%,0%);fill-opacity:1;" d="M 4.371094 8.71875 C 4.347656 8.863281 4.445312 9 4.589844 9.023438 C 4.605469 9.027344 4.621094 9.027344 4.636719 9.027344 C 4.761719 9.027344 4.875 8.933594 4.898438 8.804688 C 4.90625 8.773438 5.050781 8.003906 5.980469 7.757812 C 6.125 7.722656 6.210938 7.574219 6.171875 7.433594 C 6.132812 7.289062 5.988281 7.207031 5.84375 7.242188 C 4.566406 7.578125 4.378906 8.671875 4.371094 8.71875 Z M 5.6875 6.707031 C 5.832031 6.671875 5.917969 6.523438 5.878906 6.382812 C 5.84375 6.238281 5.699219 6.15625 5.550781 6.191406 C 3.457031 6.742188 3.152344 8.515625 3.140625 8.589844 C 3.117188 8.734375 3.214844 8.871094 3.363281 8.894531 C 3.378906 8.898438 3.390625 8.898438 3.40625 8.898438 C 3.535156 8.898438 3.648438 8.804688 3.671875 8.675781 C 3.679688 8.613281 3.941406 7.167969 5.6875 6.707031 Z M 5.476562 5.496094 C 5.617188 5.457031 5.707031 5.3125 5.667969 5.167969 C 5.628906 5.023438 5.484375 4.941406 5.339844 4.976562 C 2.425781 5.742188 2.003906 8.199219 1.988281 8.304688 C 1.964844 8.449219 2.0625 8.585938 2.207031 8.609375 C 2.222656 8.613281 2.238281 8.613281 2.25 8.613281 C 2.378906 8.613281 2.496094 8.519531 2.515625 8.386719 C 2.519531 8.367188 2.894531 6.171875 5.476562 5.496094 Z M 9.480469 0.71875 C 11.066406 0.71875 12.351562 2.003906 12.351562 3.589844 C 12.351562 5.179688 11.066406 6.464844 9.480469 6.464844 C 7.890625 6.464844 6.605469 5.179688 6.605469 3.589844 C 6.605469 2.003906 7.890625 0.71875 9.480469 0.71875 Z M 6.179688 16.152344 C 6.203125 15.242188 6.273438 14.453125 6.382812 13.757812 L 6.382812 10.292969 C 6.382812 9.832031 6.753906 9.460938 7.214844 9.460938 L 8.460938 9.460938 L 7.070312 7.558594 C 5.777344 8.449219 3.9375 10.671875 3.816406 16.15625 Z M 10.886719 6.777344 L 10.207031 7.0625 C 10.066406 6.824219 9.8125 6.660156 9.511719 6.660156 C 9.214844 6.660156 8.960938 6.820312 8.820312 7.058594 L 8.136719 6.765625 C 8.039062 6.722656 7.933594 6.730469 7.84375 6.792969 C 7.753906 6.851562 7.710938 6.953125 7.710938 7.0625 L 7.710938 7.910156 C 7.710938 8.011719 7.746094 8.109375 7.828125 8.167969 C 7.910156 8.230469 8.011719 8.25 8.109375 8.21875 C 8.375 8.136719 8.707031 8.035156 8.894531 7.976562 C 9.042969 8.15625 9.261719 8.273438 9.515625 8.273438 C 9.753906 8.273438 9.96875 8.164062 10.117188 7.996094 C 10.3125 8.054688 10.648438 8.15625 10.921875 8.234375 C 11.019531 8.265625 11.101562 8.246094 11.183594 8.1875 C 11.265625 8.125 11.292969 8.03125 11.292969 7.925781 L 11.292969 7.074219 C 11.292969 6.964844 11.261719 6.863281 11.171875 6.804688 C 11.078125 6.742188 10.984375 6.734375 10.886719 6.777344 Z M 12.328125 7.183594 C 12.324219 7.183594 12.324219 7.183594 12.320312 7.179688 L 10.554688 9.460938 L 11.902344 9.460938 C 11.914062 9.46875 14.167969 11.128906 13.613281 12.328125 C 13.378906 12.839844 13.066406 12.984375 12.851562 13.050781 C 12.839844 13.054688 12.832031 13.054688 12.820312 13.058594 C 12.351562 13.183594 11.773438 13.089844 11.273438 12.933594 C 11.246094 12.921875 11.230469 12.898438 11.234375 12.871094 C 11.242188 12.84375 11.261719 12.824219 11.289062 12.824219 C 11.484375 12.824219 11.660156 12.820312 11.8125 12.8125 C 11.964844 12.804688 12.085938 12.679688 12.085938 12.523438 L 12.085938 10.773438 C 12.085938 10.488281 11.855469 10.257812 11.570312 10.257812 L 7.429688 10.257812 C 7.144531 10.257812 6.910156 10.488281 6.910156 10.773438 L 6.910156 16.152344 L 12.09375 16.152344 L 12.085938 16.03125 C 10.382812 15.886719 9.574219 15.050781 9.253906 14.585938 C 9.226562 14.550781 9.230469 14.503906 9.257812 14.46875 C 9.289062 14.4375 9.335938 14.429688 9.375 14.449219 C 9.90625 14.730469 11.082031 15.261719 12.335938 15.261719 C 12.484375 15.261719 12.632812 15.25 12.777344 15.234375 C 13.003906 15.210938 13.234375 15.171875 13.460938 15.105469 C 14.402344 14.824219 15.132812 14.171875 15.566406 13.210938 C 16.773438 10.527344 14.097656 8.160156 12.328125 7.183594 Z M 7.855469 11.5625 C 7.671875 11.5625 7.519531 11.410156 7.519531 11.226562 C 7.519531 11.042969 7.671875 10.894531 7.855469 10.894531 C 8.039062 10.894531 8.191406 11.042969 8.191406 11.226562 C 8.191406 11.410156 8.039062 11.5625 7.855469 11.5625 Z M 7.855469 11.5625 "/>
  </g>
</svg>