<?xml version="1.0" encoding="UTF-8" standalone="no"?>
<!-- Generator: Adobe Illustrator 18.0.0, SVG Export Plug-In . SVG Version: 6.00 Build 0)  -->

<svg
   xmlns:dc="http://purl.org/dc/elements/1.1/"
   xmlns:cc="http://creativecommons.org/ns#"
   xmlns:rdf="http://www.w3.org/1999/02/22-rdf-syntax-ns#"
   xmlns:svg="http://www.w3.org/2000/svg"
   xmlns="http://www.w3.org/2000/svg"
   xmlns:sodipodi="http://sodipodi.sourceforge.net/DTD/sodipodi-0.dtd"
   xmlns:inkscape="http://www.inkscape.org/namespaces/inkscape"
   version="1.1"
   id="Capa_1"
   x="0px"
   y="0px"
   viewBox="0 0 24 24"
   xml:space="preserve"
   inkscape:version="0.48.5 r10040"
   width="100%"
   height="100%"
   sodipodi:docname="khadamat_shabake.svg"><metadata
     id="metadata3249"><rdf:RDF><cc:Work
         rdf:about=""><dc:format>image/svg+xml</dc:format><dc:type
           rdf:resource="http://purl.org/dc/dcmitype/StillImage" /><dc:title></dc:title></cc:Work></rdf:RDF></metadata><defs
     id="defs3247" /><sodipodi:namedview
     pagecolor="#ffffff"
     bordercolor="#666666"
     borderopacity="1"
     objecttolerance="10"
     gridtolerance="10"
     guidetolerance="10"
     inkscape:pageopacity="0"
     inkscape:pageshadow="2"
     inkscape:window-width="657"
     inkscape:window-height="480"
     id="namedview3245"
     showgrid="false"
     inkscape:zoom="4.0662576"
     inkscape:cx="19.360581"
     inkscape:cy="5.080793"
     inkscape:window-x="0"
     inkscape:window-y="27"
     inkscape:window-maximized="0"
     inkscape:current-layer="Capa_1" /><path
     d="m 22.807644,4.1779414 h -9.028729 c -0.27818,0 -0.504515,0.226287 -0.504515,0.5044194 V 6.9662822 H 10.7256 V 4.6823119 c 0,-0.2781322 -0.226336,-0.5044192 -0.504517,-0.5044192 H 1.1924038 C 0.91417387,4.1779414 0.68788687,4.4041797 0.68788687,4.6823119 V 10.28399 c 0,0.278181 0.226287,0.504468 0.50451693,0.504468 H 4.294447 v 0.281056 H 3.8837778 c -0.2781323,0 -0.5044194,0.226336 -0.5044194,0.504517 0,0.278132 0.2262871,0.504419 0.5044194,0.504419 h 1.7284846 v 2.668181 c 0,0.333584 0.2715055,0.604942 0.6052352,0.604942 H 10.232193 V 15.79372 H 9.6650621 c -0.3336804,0 -0.6050888,0.271455 -0.6050888,0.605088 0,0.333681 0.2714084,0.605137 0.6050888,0.605137 h 1.9451719 v 1.031547 h -1.071988 c -0.214934,0 -0.389814,0.17488 -0.389814,0.389814 v 0.11368 H 3.4403644 c -0.2149339,0 -0.3898143,0.174879 -0.3898143,0.389814 0,0.214934 0.1748804,0.389813 0.3898143,0.389813 h 6.7080186 v 0.113681 c 0,0.214934 0.17488,0.389813 0.389814,0.389813 h 2.923606 c 0.214933,0 0.389814,-0.174879 0.389814,-0.389813 v -0.113681 h 6.708018 c 0.214934,0 0.389815,-0.174879 0.389815,-0.389813 0,-0.214935 -0.174881,-0.389814 -0.389815,-0.389814 h -6.708018 v -0.11368 c 0,-0.214934 -0.174881,-0.389814 -0.389814,-0.389814 h -1.071989 v -1.031547 h 1.945172 c 0.333633,0 0.60504,-0.271456 0.60504,-0.605137 0,-0.333633 -0.271407,-0.605088 -0.60504,-0.605088 h -0.56713 V 15.351573 H 17.7826 c 0.333729,0 0.605186,-0.271358 0.605186,-0.604942 V 12.07845 h 1.728484 c 0.278133,0 0.50442,-0.226287 0.50442,-0.504419 0,-0.278181 -0.226239,-0.504517 -0.50442,-0.504517 H 19.7056 v -0.281056 h 3.102044 c 0.278181,0 0.504469,-0.226336 0.504469,-0.504468 V 4.6823119 C 23.312162,4.4041797 23.085825,4.1779414 22.807644,4.1779414 z M 5.6122624,7.571371 V 9.4211852 H 1.696677 V 5.1868294 H 9.7167127 V 6.9662822 H 6.2174487 C 5.8837679,6.9662334 5.6122624,7.2376898 5.6122624,7.571371 z M 12,15.004736 c -0.214788,0 -0.389814,-0.174783 -0.389814,-0.389815 0,-0.215031 0.175026,-0.389814 0.389814,-0.389814 0.214787,0 0.389814,0.174783 0.389814,0.389814 0,0.215032 -0.174978,0.389815 -0.389814,0.389815 z m 5.177461,-1.322249 H 6.8225378 V 8.1764598 H 17.177461 V 13.682486 z M 22.303322,9.4211852 H 18.387786 V 7.571371 c 0,-0.3336812 -0.271457,-0.6051376 -0.605186,-0.6051376 h -3.499264 v -1.779404 h 8.020036 v 4.2343558 z"
     id="path3213"
     inkscape:connector-curvature="0" /><g
     id="g3215"
     transform="translate(0,-440.30901)" /><g
     id="g3217"
     transform="translate(0,-440.30901)" /><g
     id="g3219"
     transform="translate(0,-440.30901)" /><g
     id="g3221"
     transform="translate(0,-440.30901)" /><g
     id="g3223"
     transform="translate(0,-440.30901)" /><g
     id="g3225"
     transform="translate(0,-440.30901)" /><g
     id="g3227"
     transform="translate(0,-440.30901)" /><g
     id="g3229"
     transform="translate(0,-440.30901)" /><g
     id="g3231"
     transform="translate(0,-440.30901)" /><g
     id="g3233"
     transform="translate(0,-440.30901)" /><g
     id="g3235"
     transform="translate(0,-440.30901)" /><g
     id="g3237"
     transform="translate(0,-440.30901)" /><g
     id="g3239"
     transform="translate(0,-440.30901)" /><g
     id="g3241"
     transform="translate(0,-440.30901)" /><g
     id="g3243"
     transform="translate(0,-440.30901)" /></svg>