<?xml version="1.0" encoding="UTF-8" standalone="yes"?>
<svg xmlns="http://www.w3.org/2000/svg" xmlns:xlink="http://www.w3.org/1999/xlink" width="24px" height="24px" viewBox="0 0 18 18" version="1.1">
  <g id="surface1">
    <path style=" stroke:none;fill-rule:nonzero;fill:rgb(0%,0%,0%);fill-opacity:1;" d="M 8.414062 2.984375 C 8.398438 3.097656 8.351562 3.195312 8.28125 3.277344 C 10.65625 5.292969 11.476562 3.417969 8.414062 2.984375 Z M 8.414062 2.984375 "/>
    <path style=" stroke:none;fill-rule:nonzero;fill:rgb(0%,0%,0%);fill-opacity:1;" d="M 8.265625 3.351562 C 8.257812 3.34375 8.25 3.335938 8.238281 3.324219 C 8.246094 3.335938 8.257812 3.34375 8.265625 3.351562 Z M 8.265625 3.351562 "/>
    <path style=" stroke:none;fill-rule:nonzero;fill:rgb(0%,0%,0%);fill-opacity:1;" d="M 7.777344 2.339844 C 7.390625 -0.753906 5.675781 -0.0507812 7.507812 2.445312 C 7.585938 2.390625 7.675781 2.351562 7.777344 2.339844 Z M 7.777344 2.339844 "/>
    <path style=" stroke:none;fill-rule:nonzero;fill:rgb(0%,0%,0%);fill-opacity:1;" d="M 8.308594 2.566406 C 8.367188 2.648438 8.402344 2.742188 8.414062 2.847656 C 11.507812 2.507812 10.8125 0.746094 8.308594 2.566406 Z M 8.308594 2.566406 "/>
    <path style=" stroke:none;fill-rule:nonzero;fill:rgb(0%,0%,0%);fill-opacity:1;" d="M 8.304688 2.488281 C 8.292969 2.5 8.28125 2.507812 8.269531 2.519531 C 8.269531 2.519531 8.269531 2.519531 8.269531 2.523438 C 8.28125 2.511719 8.292969 2.5 8.304688 2.488281 Z M 8.304688 2.488281 "/>
    <path style=" stroke:none;fill-rule:nonzero;fill:rgb(0%,0%,0%);fill-opacity:1;" d="M 7.429688 3.296875 C 7.417969 3.304688 7.410156 3.316406 7.398438 3.324219 C 7.410156 3.316406 7.417969 3.308594 7.429688 3.296875 Z M 7.429688 3.296875 "/>
    <path style=" stroke:none;fill-rule:nonzero;fill:rgb(0%,0%,0%);fill-opacity:1;" d="M 7.230469 2.898438 C 7.246094 2.898438 7.257812 2.902344 7.273438 2.902344 C 7.273438 2.902344 7.273438 2.898438 7.273438 2.898438 C 7.257812 2.898438 7.246094 2.902344 7.230469 2.898438 Z M 7.230469 2.898438 "/>
    <path style=" stroke:none;fill-rule:nonzero;fill:rgb(0%,0%,0%);fill-opacity:1;" d="M 7.277344 2.839844 C 7.292969 2.726562 7.335938 2.625 7.40625 2.542969 C 5.039062 0.601562 4.21875 2.472656 7.277344 2.839844 Z M 7.277344 2.839844 "/>
    <path style=" stroke:none;fill-rule:nonzero;fill:rgb(0%,0%,0%);fill-opacity:1;" d="M 7.914062 2.339844 C 8.027344 2.351562 8.128906 2.398438 8.210938 2.46875 C 10.164062 0.0976562 8.289062 -0.722656 7.914062 2.339844 Z M 7.914062 2.339844 "/>
    <path style=" stroke:none;fill-rule:nonzero;fill:rgb(0%,0%,0%);fill-opacity:1;" d="M 7.382812 3.242188 C 7.328125 3.167969 7.292969 3.074219 7.28125 2.976562 C 4.175781 3.371094 4.835938 5.082031 7.382812 3.242188 Z M 7.382812 3.242188 "/>
    <path style=" stroke:none;fill-rule:nonzero;fill:rgb(0%,0%,0%);fill-opacity:1;" d="M 7.460938 2.484375 C 7.449219 2.472656 7.441406 2.460938 7.429688 2.449219 C 7.441406 2.460938 7.449219 2.472656 7.460938 2.484375 Z M 7.460938 2.484375 "/>
    <path style=" stroke:none;fill-rule:nonzero;fill:rgb(0%,0%,0%);fill-opacity:1;" d="M 7.582031 2.945312 C 7.589844 2.988281 7.605469 3.027344 7.628906 3.058594 C 7.632812 3.070312 7.636719 3.078125 7.644531 3.085938 C 7.648438 3.089844 7.648438 3.09375 7.652344 3.097656 C 7.660156 3.105469 7.667969 3.109375 7.675781 3.113281 C 7.714844 3.144531 7.757812 3.164062 7.804688 3.171875 C 7.820312 3.171875 7.828125 3.179688 7.84375 3.179688 C 7.84375 3.179688 7.84375 3.179688 7.847656 3.179688 C 7.851562 3.179688 7.851562 3.175781 7.855469 3.175781 C 7.863281 3.175781 7.871094 3.171875 7.878906 3.171875 C 7.925781 3.167969 7.964844 3.152344 8 3.125 C 8.007812 3.121094 8.019531 3.117188 8.027344 3.109375 C 8.03125 3.105469 8.035156 3.105469 8.039062 3.101562 C 8.042969 3.09375 8.046875 3.085938 8.054688 3.078125 C 8.085938 3.039062 8.101562 2.996094 8.109375 2.949219 C 8.113281 2.933594 8.117188 2.921875 8.117188 2.910156 C 8.117188 2.910156 8.121094 2.90625 8.121094 2.90625 C 8.121094 2.902344 8.117188 2.898438 8.117188 2.898438 C 8.117188 2.886719 8.113281 2.882812 8.113281 2.875 C 8.105469 2.828125 8.089844 2.789062 8.066406 2.753906 C 8.058594 2.746094 8.054688 2.738281 8.050781 2.730469 C 8.046875 2.726562 8.046875 2.722656 8.042969 2.71875 C 8.035156 2.710938 8.023438 2.703125 8.015625 2.695312 C 7.976562 2.667969 7.933594 2.648438 7.882812 2.640625 C 7.875 2.640625 7.863281 2.636719 7.855469 2.636719 C 7.851562 2.636719 7.847656 2.632812 7.847656 2.632812 C 7.84375 2.632812 7.84375 2.632812 7.84375 2.632812 C 7.832031 2.636719 7.820312 2.640625 7.808594 2.640625 C 7.765625 2.648438 7.726562 2.664062 7.691406 2.6875 C 7.683594 2.691406 7.675781 2.695312 7.671875 2.703125 C 7.667969 2.707031 7.664062 2.707031 7.660156 2.710938 C 7.648438 2.71875 7.644531 2.730469 7.636719 2.738281 C 7.605469 2.777344 7.589844 2.820312 7.582031 2.871094 C 7.582031 2.878906 7.578125 2.886719 7.578125 2.898438 C 7.578125 2.898438 7.574219 2.902344 7.574219 2.90625 C 7.574219 2.90625 7.574219 2.910156 7.574219 2.910156 C 7.574219 2.921875 7.582031 2.933594 7.582031 2.945312 Z M 7.582031 2.945312 "/>
    <path style=" stroke:none;fill-rule:nonzero;fill:rgb(0%,0%,0%);fill-opacity:1;" d="M 15.640625 6.175781 C 18.78125 4.820312 16.492188 2.550781 15.15625 5.691406 C 16.492188 2.550781 13.003906 2.550781 14.417969 5.691406 C 13.003906 2.550781 10.8125 4.820312 13.949219 6.175781 C 10.8125 4.820312 10.8125 8.308594 13.949219 6.914062 C 10.8125 8.308594 13.003906 10.523438 14.417969 7.382812 C 13.832031 8.6875 14.089844 9.445312 14.496094 9.667969 L 14.496094 10.917969 C 14.332031 10.699219 14.136719 10.609375 13.9375 10.582031 C 13.589844 10.535156 13.078125 10.800781 12.488281 10.410156 C 12.542969 11.921875 13.859375 12.355469 14.257812 12.101562 C 14.351562 12.042969 14.429688 11.984375 14.496094 11.929688 L 14.496094 12.878906 L 10.265625 12.878906 L 10.265625 12.613281 C 10.320312 12.628906 10.375 12.644531 10.441406 12.65625 C 10.808594 12.722656 11.640625 12.015625 11.234375 10.894531 C 10.933594 11.335938 10.515625 11.320312 10.265625 11.433594 L 10.265625 10.980469 C 10.441406 10.757812 10.511719 10.324219 10.265625 9.675781 L 10.265625 9.65625 C 11.191406 11.632812 12.664062 10.152344 10.546875 9.210938 C 12.707031 10.171875 12.707031 7.773438 10.546875 8.703125 C 12.707031 7.773438 11.128906 6.214844 10.210938 8.371094 C 11.128906 6.214844 8.734375 6.214844 9.703125 8.371094 C 8.734375 6.214844 7.226562 7.773438 9.382812 8.703125 C 8.832031 8.464844 8.421875 8.445312 8.152344 8.53125 L 8.152344 4.660156 C 8.714844 6.332031 9.726562 5.527344 8.179688 3.371094 C 8.171875 3.378906 8.164062 3.382812 8.152344 3.390625 C 8.082031 3.4375 7.996094 3.484375 7.910156 3.492188 C 7.890625 3.496094 7.871094 3.519531 7.851562 3.519531 C 7.847656 3.519531 7.847656 3.5 7.847656 3.5 C 7.820312 3.5 7.796875 3.488281 7.769531 3.484375 C 7.691406 3.472656 7.617188 3.441406 7.550781 3.402344 C 7.523438 3.386719 7.5 3.363281 7.476562 3.34375 C 5.722656 5.417969 6.929688 6.300781 7.550781 4.453125 L 7.550781 12.878906 L 3.925781 12.878906 L 3.925781 11.574219 C 4 11.644531 4.101562 11.71875 4.226562 11.800781 C 4.625 12.054688 5.9375 11.621094 5.996094 10.105469 C 5.402344 10.5 4.894531 10.234375 4.546875 10.28125 C 4.320312 10.308594 4.097656 10.421875 3.925781 10.714844 L 3.925781 9.621094 C 4.292969 9.347656 4.503906 8.605469 3.984375 7.382812 C 5.320312 10.523438 7.609375 8.308594 4.46875 6.914062 C 7.609375 8.308594 7.609375 4.820312 4.46875 6.175781 C 7.609375 4.820312 5.320312 2.550781 3.984375 5.691406 C 5.320312 2.550781 1.832031 2.550781 3.242188 5.691406 C 1.832031 2.550781 -0.363281 4.820312 2.777344 6.175781 C -0.363281 4.820312 -0.363281 8.308594 2.777344 6.914062 C -0.363281 8.308594 1.832031 10.523438 3.242188 7.382812 C 2.660156 8.6875 2.914062 9.445312 3.320312 9.667969 L 3.320312 10.355469 C 3.238281 10.316406 3.152344 10.292969 3.066406 10.28125 C 2.71875 10.234375 2.207031 10.5 1.617188 10.105469 C 1.671875 11.546875 2.863281 12.007812 3.320312 11.828125 L 3.320312 12.878906 L 0.605469 12.878906 C 0.269531 12.878906 0 13.148438 0 13.484375 L 0 17.109375 C 0 17.441406 0.269531 17.710938 0.605469 17.710938 L 16.304688 17.710938 C 16.640625 17.710938 16.910156 17.441406 16.910156 17.109375 L 16.910156 13.484375 C 16.910156 13.148438 16.640625 12.878906 16.304688 12.878906 L 15.097656 12.878906 L 15.097656 9.621094 C 15.464844 9.347656 15.675781 8.605469 15.15625 7.382812 C 16.492188 10.523438 18.78125 8.308594 15.640625 6.914062 C 18.78125 8.308594 18.78125 4.820312 15.640625 6.175781 Z M 3.195312 6.53125 C 3.195312 6.296875 3.386719 6.105469 3.621094 6.105469 C 3.851562 6.105469 4.042969 6.296875 4.042969 6.53125 C 4.042969 6.765625 3.851562 6.953125 3.621094 6.953125 C 3.386719 6.953125 3.195312 6.765625 3.195312 6.53125 Z M 10.214844 8.945312 C 10.214844 9.085938 10.101562 9.199219 9.960938 9.199219 C 9.820312 9.199219 9.707031 9.085938 9.707031 8.945312 C 9.707031 8.804688 9.820312 8.691406 9.960938 8.691406 C 10.101562 8.691406 10.214844 8.804688 10.214844 8.945312 Z M 8.152344 9.402344 C 8.421875 9.480469 8.832031 9.457031 9.382812 9.210938 C 7.253906 10.15625 8.691406 11.648438 9.664062 9.621094 L 9.664062 9.632812 C 9.359375 10.363281 9.453125 10.832031 9.664062 11.035156 L 9.664062 12.878906 L 8.152344 12.878906 Z M 15.402344 13.484375 C 15.734375 13.484375 16.003906 13.753906 16.003906 14.089844 C 16.003906 14.421875 15.734375 14.691406 15.402344 14.691406 L 1.511719 14.691406 C 1.175781 14.691406 0.90625 14.421875 0.90625 14.089844 C 0.90625 13.753906 1.175781 13.484375 1.511719 13.484375 L 3.320312 13.484375 L 3.320312 14.390625 L 3.925781 14.390625 L 3.925781 13.484375 L 7.550781 13.484375 L 7.550781 14.390625 L 8.152344 14.390625 L 8.152344 13.484375 L 9.664062 13.484375 L 9.664062 14.390625 L 10.265625 14.390625 L 10.265625 13.484375 L 14.496094 13.484375 L 14.496094 14.390625 L 15.097656 14.390625 L 15.097656 13.484375 Z M 14.792969 6.953125 C 14.558594 6.953125 14.371094 6.765625 14.371094 6.53125 C 14.371094 6.296875 14.558594 6.105469 14.792969 6.105469 C 15.027344 6.105469 15.214844 6.296875 15.214844 6.53125 C 15.214844 6.765625 15.027344 6.953125 14.792969 6.953125 Z M 14.792969 6.953125 "/>
  </g>
</svg>