<?xml version="1.0" encoding="UTF-8" standalone="yes"?>
<svg xmlns="http://www.w3.org/2000/svg" xmlns:xlink="http://www.w3.org/1999/xlink" width="24px" height="24px" viewBox="0 0 18 18" version="1.1">
  <g id="surface1">
    <path style=" stroke:none;fill-rule:nonzero;fill:rgb(0%,0%,0%);fill-opacity:1;" d="M 14.449219 15.3125 L 14.449219 2.6875 C 14.449219 2.28125 14.121094 1.953125 13.714844 1.953125 L 4.285156 1.953125 C 3.878906 1.953125 3.550781 2.28125 3.550781 2.6875 L 3.550781 15.3125 C 3.550781 15.71875 3.878906 16.046875 4.285156 16.046875 L 13.714844 16.046875 C 14.121094 16.042969 14.449219 15.71875 14.449219 15.3125 Z M 6.554688 14.363281 C 6.554688 14.566406 6.390625 14.726562 6.1875 14.726562 L 5.34375 14.726562 C 5.140625 14.726562 4.976562 14.5625 4.976562 14.363281 L 4.976562 13.515625 C 4.976562 13.3125 5.140625 13.148438 5.34375 13.148438 L 6.1875 13.148438 C 6.390625 13.148438 6.554688 13.3125 6.554688 13.515625 Z M 6.554688 12.1875 C 6.554688 12.390625 6.390625 12.554688 6.1875 12.554688 L 5.34375 12.554688 C 5.140625 12.554688 4.976562 12.390625 4.976562 12.1875 L 4.976562 11.34375 C 4.976562 11.140625 5.140625 10.976562 5.34375 10.976562 L 6.1875 10.976562 C 6.390625 10.976562 6.554688 11.140625 6.554688 11.34375 Z M 6.554688 10.015625 C 6.554688 10.21875 6.390625 10.382812 6.1875 10.382812 L 5.34375 10.382812 C 5.140625 10.382812 4.976562 10.21875 4.976562 10.015625 L 4.976562 9.171875 C 4.976562 8.96875 5.140625 8.804688 5.34375 8.804688 L 6.1875 8.804688 C 6.390625 8.804688 6.554688 8.96875 6.554688 9.171875 Z M 6.554688 7.839844 C 6.554688 8.042969 6.390625 8.207031 6.1875 8.207031 L 5.34375 8.207031 C 5.140625 8.207031 4.976562 8.042969 4.976562 7.839844 L 4.976562 6.996094 C 4.976562 6.792969 5.140625 6.628906 5.34375 6.628906 L 6.1875 6.628906 C 6.390625 6.628906 6.554688 6.792969 6.554688 6.996094 Z M 8.714844 14.363281 C 8.714844 14.566406 8.550781 14.726562 8.347656 14.726562 L 7.5 14.726562 C 7.300781 14.726562 7.136719 14.5625 7.136719 14.363281 L 7.136719 13.515625 C 7.136719 13.3125 7.300781 13.148438 7.5 13.148438 L 8.347656 13.148438 C 8.550781 13.148438 8.714844 13.3125 8.714844 13.515625 Z M 8.714844 12.1875 C 8.714844 12.390625 8.550781 12.554688 8.347656 12.554688 L 7.5 12.554688 C 7.300781 12.554688 7.136719 12.390625 7.136719 12.1875 L 7.136719 11.34375 C 7.136719 11.140625 7.300781 10.976562 7.5 10.976562 L 8.347656 10.976562 C 8.550781 10.976562 8.714844 11.140625 8.714844 11.34375 Z M 8.714844 10.015625 C 8.714844 10.21875 8.550781 10.382812 8.347656 10.382812 L 7.5 10.382812 C 7.300781 10.382812 7.136719 10.21875 7.136719 10.015625 L 7.136719 9.171875 C 7.136719 8.96875 7.300781 8.804688 7.5 8.804688 L 8.347656 8.804688 C 8.550781 8.804688 8.714844 8.96875 8.714844 9.171875 Z M 8.714844 7.839844 C 8.714844 8.042969 8.550781 8.207031 8.347656 8.207031 L 7.5 8.207031 C 7.300781 8.207031 7.136719 8.042969 7.136719 7.839844 L 7.136719 6.996094 C 7.136719 6.792969 7.300781 6.628906 7.5 6.628906 L 8.347656 6.628906 C 8.550781 6.628906 8.714844 6.792969 8.714844 6.996094 Z M 10.871094 14.363281 C 10.871094 14.566406 10.707031 14.726562 10.507812 14.726562 L 9.664062 14.726562 C 9.460938 14.726562 9.296875 14.5625 9.296875 14.363281 L 9.296875 13.515625 C 9.296875 13.3125 9.460938 13.148438 9.664062 13.148438 L 10.507812 13.148438 C 10.710938 13.148438 10.875 13.3125 10.875 13.515625 L 10.875 14.363281 Z M 10.871094 12.1875 C 10.871094 12.390625 10.707031 12.554688 10.507812 12.554688 L 9.664062 12.554688 C 9.460938 12.554688 9.296875 12.390625 9.296875 12.1875 L 9.296875 11.34375 C 9.296875 11.140625 9.460938 10.976562 9.664062 10.976562 L 10.507812 10.976562 C 10.710938 10.976562 10.875 11.140625 10.875 11.34375 L 10.875 12.1875 Z M 10.871094 10.015625 C 10.871094 10.21875 10.707031 10.382812 10.507812 10.382812 L 9.664062 10.382812 C 9.460938 10.382812 9.296875 10.21875 9.296875 10.015625 L 9.296875 9.171875 C 9.296875 8.96875 9.460938 8.804688 9.664062 8.804688 L 10.507812 8.804688 C 10.710938 8.804688 10.875 8.96875 10.875 9.171875 L 10.875 10.015625 Z M 10.871094 7.839844 C 10.871094 8.042969 10.707031 8.207031 10.507812 8.207031 L 9.664062 8.207031 C 9.460938 8.207031 9.296875 8.042969 9.296875 7.839844 L 9.296875 6.996094 C 9.296875 6.792969 9.460938 6.628906 9.664062 6.628906 L 10.507812 6.628906 C 10.710938 6.628906 10.875 6.792969 10.875 6.996094 L 10.875 7.839844 Z M 13.03125 14.363281 C 13.03125 14.566406 12.867188 14.726562 12.664062 14.726562 L 11.820312 14.726562 C 11.617188 14.726562 11.453125 14.5625 11.453125 14.363281 L 11.453125 11.34375 C 11.453125 11.140625 11.617188 10.976562 11.820312 10.976562 L 12.664062 10.976562 C 12.867188 10.976562 13.03125 11.140625 13.03125 11.34375 Z M 13.03125 10.015625 C 13.03125 10.21875 12.867188 10.382812 12.664062 10.382812 L 11.820312 10.382812 C 11.617188 10.382812 11.453125 10.21875 11.453125 10.015625 L 11.453125 9.171875 C 11.453125 8.96875 11.617188 8.804688 11.820312 8.804688 L 12.664062 8.804688 C 12.867188 8.804688 13.03125 8.96875 13.03125 9.171875 Z M 13.03125 7.839844 C 13.03125 8.042969 12.867188 8.207031 12.664062 8.207031 L 11.820312 8.207031 C 11.617188 8.207031 11.453125 8.042969 11.453125 7.839844 L 11.453125 6.996094 C 11.453125 6.792969 11.617188 6.628906 11.820312 6.628906 L 12.664062 6.628906 C 12.867188 6.628906 13.03125 6.792969 13.03125 6.996094 Z M 13.03125 4.890625 C 13.03125 5.09375 12.867188 5.257812 12.664062 5.257812 L 5.332031 5.257812 C 5.128906 5.257812 4.964844 5.09375 4.964844 4.890625 L 4.964844 3.625 C 4.964844 3.421875 5.128906 3.257812 5.332031 3.257812 L 12.664062 3.257812 C 12.867188 3.257812 13.03125 3.421875 13.03125 3.625 Z M 13.03125 4.890625 "/>
  </g>
</svg>