<?xml version="1.0" encoding="UTF-8" standalone="yes"?>
<svg xmlns="http://www.w3.org/2000/svg" xmlns:xlink="http://www.w3.org/1999/xlink" width="24px" height="24px" viewBox="0 0 18 18" version="1.1">
  <g id="surface1">
    <path style=" stroke:none;fill-rule:nonzero;fill:rgb(0.392157%,0%,0.784314%);fill-opacity:1;" d="M 2.257812 13.257812 L 2.980469 12.578125 L 5.015625 7.371094 L 7.050781 12.578125 L 7.777344 13.257812 L 8.785156 15.027344 L 8.335938 13.027344 L 8.414062 12.105469 L 7.207031 8.824219 L 7.878906 8.824219 L 7.878906 9.355469 L 8.203125 9.355469 L 8.203125 7.96875 L 7.878906 7.96875 L 7.878906 8.5 L 7.089844 8.5 L 6.308594 6.375 C 6.390625 6.1875 6.4375 5.980469 6.4375 5.761719 C 6.4375 4.992188 5.863281 4.359375 5.121094 4.261719 L 5.121094 2.453125 L 4.710938 2.453125 L 4.710938 4.261719 C 3.96875 4.359375 3.394531 4.992188 3.394531 5.761719 C 3.394531 6.070312 3.488281 6.359375 3.644531 6.597656 L 2.945312 8.5 L 2.125 8.5 L 2.125 7.96875 L 1.796875 7.96875 L 1.796875 9.355469 L 2.125 9.355469 L 2.125 8.828125 L 2.824219 8.828125 L 1.621094 12.105469 L 1.695312 13.027344 L 1.246094 15.027344 Z M 4.941406 4.714844 C 5.519531 4.714844 5.992188 5.183594 5.992188 5.765625 C 5.992188 6.347656 5.523438 6.816406 4.941406 6.816406 C 4.359375 6.816406 3.886719 6.347656 3.886719 5.765625 C 3.886719 5.183594 4.359375 4.714844 4.941406 4.714844 Z M 4.941406 6.296875 C 5.226562 6.296875 5.460938 6.066406 5.460938 5.78125 C 5.460938 5.492188 5.226562 5.261719 4.941406 5.261719 C 4.652344 5.261719 4.421875 5.492188 4.421875 5.78125 C 4.421875 6.066406 4.652344 6.296875 4.941406 6.296875 Z M 1.789062 15.070312 L 1.671875 15.308594 C 1.695312 15.320312 3.136719 16 5.105469 16 C 6.09375 16 7.21875 15.824219 8.359375 15.308594 L 8.25 15.066406 C 4.960938 16.554688 1.820312 15.085938 1.789062 15.070312 Z M 11.589844 11.210938 C 11.34375 11.210938 11.105469 11.242188 10.867188 11.296875 L 11.214844 10.953125 C 11.335938 10.9375 11.460938 10.929688 11.589844 10.929688 C 13.195312 10.929688 14.605469 12.066406 14.945312 13.636719 L 14.984375 13.804688 L 8.359375 13.804688 L 8.640625 13.523438 L 14.628906 13.523438 C 14.257812 12.175781 13.003906 11.210938 11.589844 11.210938 Z M 7.34375 14.917969 L 7.636719 14.917969 L 7.632812 14.53125 L 7.660156 14.507812 L 7.734375 14.507812 L 7.734375 14.917969 L 7.996094 14.917969 L 7.996094 14.507812 L 8.09375 14.507812 L 8.09375 14.917969 L 8.335938 14.917969 L 8.335938 14.089844 L 8.433594 14.089844 L 8.433594 14.917969 L 8.664062 14.917969 L 8.664062 14.507812 L 8.761719 14.507812 L 8.761719 14.917969 L 9.050781 14.917969 L 9.050781 14.507812 L 9.148438 14.507812 L 9.148438 14.917969 L 9.414062 14.917969 L 9.414062 14.507812 L 9.511719 14.507812 L 9.511719 14.917969 L 9.777344 14.917969 L 9.777344 14.089844 L 9.875 14.089844 L 9.875 14.917969 L 10.140625 14.917969 L 10.140625 14.507812 L 10.238281 14.507812 L 10.238281 14.917969 L 10.527344 14.917969 L 10.527344 14.507812 L 10.625 14.507812 L 10.625 14.917969 L 10.886719 14.917969 L 10.886719 14.507812 L 10.984375 14.507812 L 10.984375 14.917969 L 11.253906 14.917969 L 11.253906 14.089844 L 11.347656 14.089844 L 11.347656 14.917969 L 11.589844 14.917969 L 11.589844 14.507812 L 11.6875 14.507812 L 11.6875 14.917969 L 11.980469 14.917969 L 11.980469 14.507812 L 12.078125 14.507812 L 12.078125 14.917969 L 12.339844 14.917969 L 12.339844 14.507812 L 12.4375 14.507812 L 12.4375 14.917969 L 12.679688 14.917969 L 12.679688 14.089844 L 12.777344 14.089844 L 12.777344 14.917969 L 13.007812 14.917969 L 13.007812 14.507812 L 13.105469 14.507812 L 13.105469 14.917969 L 13.398438 14.917969 L 13.398438 14.507812 L 13.492188 14.507812 L 13.492188 14.917969 L 13.757812 14.917969 L 13.757812 14.507812 L 13.855469 14.507812 L 13.855469 14.917969 L 14.121094 14.917969 L 14.121094 14.089844 L 14.21875 14.089844 L 14.21875 14.917969 L 14.484375 14.917969 L 14.484375 14.507812 L 14.582031 14.507812 L 14.582031 14.917969 L 14.871094 14.917969 L 14.871094 14.507812 L 14.96875 14.507812 L 14.96875 14.917969 L 15.234375 14.917969 L 15.234375 14.507812 L 15.332031 14.507812 L 15.332031 14.917969 L 15.597656 14.917969 L 15.597656 14.089844 L 15.695312 14.089844 L 15.695312 14.917969 L 16.140625 14.917969 L 16.140625 14.363281 C 16.140625 12.09375 14.46875 10.214844 12.292969 9.875 L 12.539062 9.628906 C 14.75 10.070312 16.417969 12.023438 16.417969 14.363281 L 16.417969 15.199219 L 6.996094 15.199219 L 7.339844 14.824219 L 7.339844 14.917969 Z M 9.375 8.390625 L 9.769531 7.996094 L 9.644531 7.871094 L 9.449219 8.066406 L 9.402344 8.015625 L 9.597656 7.824219 L 9.457031 7.6875 L 9.265625 7.878906 L 9.214844 7.832031 L 9.410156 7.636719 L 9.285156 7.511719 L 9.089844 7.707031 L 9.046875 7.660156 L 9.238281 7.464844 L 9.109375 7.335938 L 8.714844 7.730469 L 8.667969 7.683594 L 9.0625 7.289062 L 8.972656 7.199219 L 8.78125 7.394531 L 8.734375 7.347656 L 8.925781 7.152344 L 8.789062 7.015625 L 8.597656 7.210938 L 8.550781 7.164062 L 8.742188 6.972656 L 8.617188 6.84375 L 8.425781 7.039062 L 8.378906 6.992188 L 8.570312 6.796875 L 8.453125 6.683594 L 8.058594 7.078125 L 8.015625 7.027344 L 8.40625 6.636719 L 8.296875 6.527344 L 8.105469 6.71875 L 8.058594 6.671875 L 8.25 6.480469 L 8.113281 6.339844 L 7.917969 6.535156 L 7.871094 6.488281 L 8.066406 6.292969 L 7.9375 6.167969 L 7.746094 6.363281 L 7.699219 6.3125 L 7.890625 6.121094 L 7.765625 5.992188 L 7.371094 6.386719 L 7.324219 6.339844 L 7.71875 5.945312 L 7.59375 5.820312 L 7.398438 6.015625 L 7.351562 5.96875 L 7.546875 5.773438 L 7.40625 5.636719 L 7.214844 5.828125 L 7.167969 5.78125 L 7.359375 5.585938 L 7.234375 5.464844 L 7.039062 5.65625 L 6.992188 5.609375 L 7.1875 5.414062 L 7.058594 5.289062 L 6.664062 5.683594 L 6.621094 5.632812 L 7.011719 5.242188 L 6.578125 4.808594 L 6.578125 11.246094 L 6.324219 11.503906 L 6.324219 4.5 C 6.324219 4.449219 6.351562 4.398438 6.402344 4.378906 C 6.449219 4.359375 6.503906 4.371094 6.539062 4.410156 L 9.980469 7.847656 L 9.40625 8.421875 Z M 7.347656 10.480469 L 7.347656 6.972656 C 7.347656 6.921875 7.378906 6.875 7.425781 6.855469 C 7.476562 6.835938 7.53125 6.847656 7.566406 6.882812 L 9.253906 8.574219 L 9.074219 8.753906 L 7.605469 7.28125 L 7.605469 10.222656 Z M 4.777344 13.609375 L 6.339844 15.175781 C 6.433594 15.265625 6.578125 15.265625 6.667969 15.175781 L 13.269531 8.570312 C 13.359375 8.480469 13.359375 8.335938 13.269531 8.246094 L 11.707031 6.683594 C 11.617188 6.59375 11.46875 6.59375 11.382812 6.683594 L 4.777344 13.285156 C 4.6875 13.375 4.6875 13.523438 4.777344 13.609375 Z M 4.933594 13.449219 L 11.542969 6.835938 L 13.117188 8.410156 L 12.691406 8.832031 L 11.507812 7.648438 L 11.371094 7.785156 L 12.554688 8.972656 L 12.175781 9.347656 L 11.585938 8.757812 L 11.445312 8.894531 L 12.039062 9.484375 L 11.667969 9.859375 L 11.074219 9.265625 L 10.9375 9.402344 L 11.53125 9.996094 L 11.117188 10.40625 L 10.527344 9.8125 L 10.390625 9.949219 L 10.980469 10.542969 L 10.609375 10.914062 L 9.425781 9.730469 L 9.289062 9.871094 L 10.472656 11.054688 L 10.09375 11.429688 L 9.503906 10.839844 L 9.367188 10.976562 L 9.957031 11.566406 L 9.585938 11.9375 L 8.992188 11.347656 L 8.855469 11.484375 L 9.449219 12.074219 L 9.039062 12.484375 L 8.449219 11.894531 L 8.308594 12.03125 L 8.902344 12.625 L 8.578125 12.945312 L 7.398438 11.761719 L 7.261719 11.898438 L 8.441406 13.082031 L 8.097656 13.425781 L 7.507812 12.835938 L 7.367188 12.972656 L 7.960938 13.566406 L 7.589844 13.9375 L 6.996094 13.34375 L 6.859375 13.484375 L 7.449219 14.074219 L 7.039062 14.484375 L 6.449219 13.894531 L 6.3125 14.03125 L 6.902344 14.621094 L 6.503906 15.019531 Z M 4.933594 13.449219 "/>
  </g>
</svg>