<?xml version="1.0" encoding="UTF-8" standalone="yes"?>
<svg xmlns="http://www.w3.org/2000/svg" xmlns:xlink="http://www.w3.org/1999/xlink" width="24px" height="24px" viewBox="0 0 18 18" version="1.1">
  <g id="surface1">
    <path style=" stroke:none;fill-rule:nonzero;fill:rgb(0%,0%,0%);fill-opacity:1;" d="M 12.375 13.160156 L 12.910156 12.625 L 12.910156 15.472656 C 12.910156 15.816406 12.628906 16.097656 12.285156 16.097656 L 2.84375 16.097656 C 2.503906 16.097656 2.222656 15.816406 2.222656 15.472656 L 2.222656 3.003906 C 2.222656 2.660156 2.503906 2.378906 2.84375 2.378906 L 4.84375 2.378906 L 4.769531 2.707031 C 4.761719 2.734375 4.761719 2.757812 4.761719 2.78125 L 4.761719 4.207031 C 4.761719 4.402344 4.921875 4.5625 5.117188 4.5625 L 10.015625 4.5625 C 10.210938 4.5625 10.371094 4.402344 10.371094 4.207031 L 10.371094 2.78125 C 10.371094 2.757812 10.367188 2.734375 10.363281 2.707031 L 10.289062 2.378906 L 12.285156 2.378906 C 12.628906 2.378906 12.910156 2.660156 12.910156 3.003906 L 12.910156 7.238281 L 12.375 7.773438 L 12.375 3.003906 C 12.375 2.953125 12.335938 2.914062 12.285156 2.914062 L 10.90625 2.914062 L 10.90625 4.207031 C 10.90625 4.699219 10.507812 5.097656 10.015625 5.097656 L 5.117188 5.097656 C 4.625 5.097656 4.226562 4.699219 4.226562 4.207031 L 4.226562 2.914062 L 2.847656 2.914062 C 2.796875 2.914062 2.757812 2.953125 2.757812 3.003906 L 2.757812 15.472656 C 2.757812 15.523438 2.796875 15.5625 2.847656 15.5625 L 12.289062 15.5625 C 12.335938 15.5625 12.378906 15.523438 12.378906 15.472656 L 12.378906 13.160156 Z M 5.410156 4.226562 L 9.722656 4.226562 C 9.894531 4.226562 10.035156 4.089844 10.035156 3.914062 L 10.035156 2.660156 C 10.035156 2.488281 9.894531 2.347656 9.722656 2.347656 L 8.546875 2.347656 C 8.546875 1.828125 8.105469 1.40625 7.5625 1.40625 C 7.015625 1.40625 6.574219 1.828125 6.574219 2.347656 L 5.410156 2.347656 C 5.238281 2.347656 5.097656 2.488281 5.097656 2.660156 L 5.097656 3.914062 C 5.097656 4.089844 5.238281 4.226562 5.410156 4.226562 Z M 6.828125 9.816406 L 5.136719 8.128906 L 4.445312 8.820312 L 6.828125 11.203125 L 10.6875 7.339844 L 9.996094 6.648438 Z M 15.589844 8.382812 L 14.378906 7.167969 C 14.199219 6.988281 13.882812 7.015625 13.675781 7.226562 L 13.007812 7.894531 L 14.867188 9.753906 L 15.535156 9.085938 C 15.746094 8.875 15.769531 8.558594 15.589844 8.382812 Z M 12.695312 8.203125 L 14.558594 10.066406 L 10.121094 14.5 C 10.101562 14.523438 10.042969 14.578125 9.964844 14.597656 C 9.957031 14.601562 9.945312 14.605469 9.9375 14.609375 L 7.621094 15.347656 C 7.558594 15.367188 7.492188 15.355469 7.449219 15.3125 C 7.40625 15.269531 7.394531 15.203125 7.414062 15.140625 L 8.152344 12.824219 C 8.15625 12.816406 8.160156 12.808594 8.164062 12.796875 C 8.183594 12.71875 8.242188 12.660156 8.261719 12.640625 Z M 9.550781 14.359375 L 8.402344 13.214844 L 8.097656 14.179688 L 8.585938 14.664062 Z M 12.625 8.945312 C 12.558594 8.878906 12.453125 8.878906 12.386719 8.945312 L 8.929688 12.402344 C 8.863281 12.46875 8.863281 12.574219 8.929688 12.640625 C 8.992188 12.707031 9.101562 12.707031 9.167969 12.640625 L 12.625 9.183594 C 12.691406 9.117188 12.691406 9.007812 12.625 8.945312 Z M 12.625 8.945312 "/>
  </g>
</svg>