<?xml version="1.0" encoding="utf-8"?>
<!-- Generator: Adobe Illustrator 15.1.0, SVG Export Plug-In . SVG Version: 6.00 Build 0)  -->
<!DOCTYPE svg PUBLIC "-//W3C//DTD SVG 1.1//EN" "http://www.w3.org/Graphics/SVG/1.1/DTD/svg11.dtd">
<svg version="1.1" id="Layer_1" xmlns="http://www.w3.org/2000/svg" xmlns:xlink="http://www.w3.org/1999/xlink" x="0px" y="0px"
	 width="24px" height="24px" viewBox="0 0 24 24" enable-background="new 0 0 24 24" xml:space="preserve">
<path d="M10.95,5.928l-0.063-0.038l-0.074-0.019c-0.051-0.013-1.269-0.33-3.225-0.33c-1.955,0-3.172,0.316-3.225,0.33L4.291,5.891
	L4.226,5.928c-0.39,0.233-0.672,0.713-0.672,1.145v13.578c0,0.53,0.462,0.961,1.033,0.961h6.002c0.57,0,1.033-0.431,1.033-0.961
	V7.073C11.623,6.642,11.34,6.162,10.95,5.928z M11.106,20.651c0,0.219-0.161,0.396-0.376,0.453v-10.16
	c0-0.088-0.078-0.234-0.159-0.312c-0.319-0.072-1.406-0.285-2.983-0.285s-2.664,0.212-2.983,0.285
	c-0.08,0.078-0.158,0.224-0.158,0.312v10.16C4.232,21.047,4.07,20.87,4.07,20.651V7.073c0-0.265,0.196-0.597,0.435-0.74
	c0,0,1.178-0.313,3.083-0.313c1.906,0,3.083,0.313,3.083,0.313c0.24,0.142,0.435,0.474,0.435,0.74L11.106,20.651L11.106,20.651
	L11.106,20.651z M5.12,2.271h4.937v2.794H5.12V2.271z M17.258,7.501h2.154c0.567,0,1.033-0.114,1.033-0.256
	c0-0.141-0.466-0.255-1.033-0.255h-1.948c0.296-0.503,0.789-0.838,1.347-0.838c0.897,0,1.634-0.143,1.634-0.317
	c0-0.174-0.93-0.317-2.065-0.317h-2.41c-1.135,0-2.065,0.865-2.065,1.923v12.228c0,1.057,0.931,1.922,2.065,1.922h2.41
	c1.136,0,2.065-0.142,2.065-0.316c0-0.176-0.736-0.318-1.634-0.318c-0.559,0-1.053-0.333-1.347-0.837h1.948
	c0.567,0,1.033-0.114,1.033-0.256c0-0.141-0.466-0.256-1.033-0.256h-2.154c-0.05-0.183-0.084-0.374-0.084-0.573v-0.178h2.238
	c0.566,0,1.032-0.115,1.032-0.256s-0.465-0.255-1.032-0.255h-2.238v-0.751h2.238c0.566,0,1.032-0.115,1.032-0.255
	c0-0.143-0.465-0.256-1.032-0.256h-2.238v-0.751h2.238c0.566,0,1.032-0.116,1.032-0.256c0-0.143-0.465-0.256-1.032-0.256h-2.238
	v-0.751h2.238c0.566,0,1.032-0.114,1.032-0.256c0-0.14-0.465-0.255-1.032-0.255h-2.238v-0.75h2.238c0.566,0,1.032-0.114,1.032-0.256
	s-0.465-0.256-1.032-0.256h-2.238v-0.752h2.238c0.566,0,1.032-0.113,1.032-0.255s-0.465-0.255-1.032-0.255h-2.238v-0.751h2.238
	c0.566,0,1.032-0.114,1.032-0.255c0-0.141-0.465-0.256-1.032-0.256h-2.238v-0.75h2.238c0.566,0,1.032-0.115,1.032-0.256
	c0-0.141-0.465-0.255-1.032-0.255h-2.238V8.759h2.238c0.566,0,1.032-0.114,1.032-0.255c0-0.142-0.465-0.255-1.032-0.255h-2.238
	V8.076C17.174,7.875,17.208,7.685,17.258,7.501z"/>
</svg>
