<?xml version="1.0" encoding="UTF-8" standalone="yes"?>
<svg xmlns="http://www.w3.org/2000/svg" xmlns:xlink="http://www.w3.org/1999/xlink" width="24px" height="24px" viewBox="0 0 18 18" version="1.1">
  <g id="surface1">
    <path style=" stroke:none;fill-rule:nonzero;fill:rgb(0%,0%,0%);fill-opacity:1;" d="M 11.460938 7.929688 C 12.167969 7.929688 12.742188 7.355469 12.742188 6.648438 C 12.742188 5.945312 12.167969 5.371094 11.460938 5.371094 C 10.757812 5.371094 10.183594 5.945312 10.183594 6.648438 C 10.183594 7.355469 10.757812 7.929688 11.460938 7.929688 Z M 4.433594 11.640625 C 4.332031 11.667969 4.222656 11.683594 4.117188 11.683594 C 4.015625 11.683594 3.917969 11.671875 3.816406 11.644531 C 3.597656 11.585938 3.402344 11.460938 3.253906 11.285156 L 2.878906 11.285156 C 2.75 11.285156 2.644531 11.183594 2.644531 11.054688 L 2.644531 10.269531 C 2.453125 9.917969 2.464844 9.507812 2.644531 9.179688 L 2.644531 8.625 C 2.46875 8.296875 2.453125 7.890625 2.644531 7.539062 L 2.644531 3.789062 C 2.644531 3.660156 2.75 3.554688 2.878906 3.554688 L 8.390625 3.554688 C 8.5 3.480469 8.621094 3.421875 8.753906 3.382812 C 8.859375 3.355469 8.96875 3.339844 9.074219 3.339844 C 9.269531 3.339844 9.457031 3.386719 9.628906 3.472656 C 9.652344 3.09375 9.847656 2.765625 10.136719 2.550781 L 2.878906 2.550781 C 2.199219 2.550781 1.644531 3.105469 1.644531 3.785156 L 1.644531 11.054688 C 1.644531 11.734375 2.199219 12.289062 2.878906 12.289062 L 4.875 12.289062 C 4.660156 12.132812 4.5 11.90625 4.433594 11.640625 Z M 15.3125 2.550781 L 12.789062 2.550781 C 13.078125 2.765625 13.273438 3.09375 13.296875 3.472656 C 13.46875 3.386719 13.65625 3.34375 13.847656 3.34375 C 14.09375 3.34375 14.328125 3.421875 14.527344 3.554688 L 15.3125 3.554688 C 15.441406 3.554688 15.546875 3.660156 15.546875 3.789062 L 15.546875 5.050781 C 15.6875 5.328125 15.726562 5.640625 15.644531 5.9375 C 15.621094 6.023438 15.585938 6.105469 15.546875 6.183594 L 15.546875 7.121094 C 15.722656 7.464844 15.734375 7.882812 15.546875 8.25 L 15.546875 11.054688 C 15.546875 11.183594 15.441406 11.289062 15.3125 11.289062 L 8.769531 11.289062 C 8.621094 11.457031 8.425781 11.585938 8.203125 11.644531 C 8.109375 11.671875 8.007812 11.6875 7.90625 11.6875 C 7.800781 11.6875 7.695312 11.671875 7.59375 11.640625 C 7.578125 11.691406 7.5625 11.742188 7.542969 11.789062 C 7.433594 12.058594 7.222656 12.277344 6.960938 12.398438 L 6.960938 13.058594 C 6.175781 13.144531 5.558594 13.804688 5.558594 14.613281 L 5.558594 15.070312 C 5.558594 15.28125 5.726562 15.449219 5.933594 15.449219 L 12.257812 15.449219 C 12.464844 15.449219 12.632812 15.28125 12.632812 15.070312 L 12.632812 14.613281 C 12.632812 13.804688 12.019531 13.144531 11.230469 13.058594 L 11.230469 12.289062 L 15.3125 12.289062 C 15.992188 12.289062 16.546875 11.734375 16.546875 11.054688 L 16.546875 3.789062 C 16.546875 3.105469 15.992188 2.550781 15.3125 2.550781 Z M 11.882812 14.609375 L 11.882812 14.695312 L 6.308594 14.695312 L 6.308594 14.609375 C 6.308594 14.160156 6.675781 13.792969 7.128906 13.792969 L 11.0625 13.792969 C 11.515625 13.792969 11.882812 14.160156 11.882812 14.609375 Z M 9.320312 4.160156 C 9.246094 4.117188 9.160156 4.09375 9.074219 4.09375 C 9.03125 4.09375 8.992188 4.097656 8.949219 4.109375 C 8.820312 4.144531 8.714844 4.226562 8.652344 4.339844 L 8.054688 5.371094 C 7.917969 5.605469 8 5.90625 8.234375 6.039062 L 8.683594 6.300781 C 8.675781 6.339844 8.671875 6.378906 8.667969 6.421875 C 8.753906 6.5 8.835938 6.589844 8.894531 6.691406 L 9.371094 7.511719 C 9.519531 7.777344 9.5625 8.085938 9.480469 8.382812 C 9.425781 8.582031 9.320312 8.761719 9.171875 8.902344 C 9.242188 8.96875 9.296875 9.042969 9.347656 9.125 L 9.769531 8.882812 C 9.957031 9.027344 10.15625 9.152344 10.378906 9.246094 L 10.378906 9.75 C 10.378906 10.019531 10.597656 10.238281 10.867188 10.238281 L 12.058594 10.238281 C 12.328125 10.238281 12.546875 10.019531 12.546875 9.75 L 12.546875 9.246094 C 12.769531 9.152344 12.96875 9.027344 13.15625 8.882812 L 13.605469 9.140625 C 13.679688 9.183594 13.765625 9.207031 13.851562 9.207031 C 13.894531 9.207031 13.933594 9.199219 13.976562 9.191406 C 14.101562 9.15625 14.210938 9.074219 14.277344 8.960938 L 14.871094 7.929688 C 15.003906 7.695312 14.925781 7.394531 14.691406 7.261719 L 14.242188 7 C 14.257812 6.882812 14.277344 6.769531 14.277344 6.648438 C 14.277344 6.53125 14.257812 6.414062 14.242188 6.300781 L 14.691406 6.039062 C 14.804688 5.976562 14.886719 5.867188 14.917969 5.742188 C 14.953125 5.617188 14.933594 5.480469 14.871094 5.371094 L 14.277344 4.339844 C 14.183594 4.179688 14.019531 4.09375 13.851562 4.09375 C 13.769531 4.09375 13.683594 4.113281 13.605469 4.160156 L 13.15625 4.417969 C 12.96875 4.273438 12.769531 4.148438 12.546875 4.054688 L 12.546875 3.550781 C 12.546875 3.28125 12.328125 3.058594 12.058594 3.058594 L 10.867188 3.058594 C 10.597656 3.058594 10.375 3.28125 10.375 3.550781 L 10.375 4.054688 C 10.15625 4.148438 9.953125 4.273438 9.765625 4.417969 Z M 11.460938 4.871094 C 12.441406 4.871094 13.242188 5.667969 13.242188 6.648438 C 13.242188 7.632812 12.441406 8.429688 11.460938 8.429688 C 10.480469 8.429688 9.683594 7.632812 9.683594 6.648438 C 9.683594 5.671875 10.480469 4.871094 11.460938 4.871094 Z M 6.875 11.363281 L 6.875 10.960938 C 7.050781 10.890625 7.207031 10.789062 7.359375 10.675781 L 7.714844 10.878906 C 7.773438 10.914062 7.839844 10.933594 7.910156 10.933594 C 7.941406 10.933594 7.976562 10.925781 8.007812 10.917969 C 8.109375 10.890625 8.195312 10.824219 8.246094 10.738281 L 8.71875 9.917969 C 8.828125 9.730469 8.761719 9.496094 8.578125 9.386719 L 8.21875 9.179688 C 8.230469 9.089844 8.246094 8.996094 8.246094 8.902344 C 8.246094 8.808594 8.230469 8.714844 8.21875 8.625 L 8.578125 8.421875 C 8.664062 8.367188 8.730469 8.28125 8.757812 8.183594 C 8.785156 8.082031 8.769531 7.976562 8.71875 7.886719 L 8.246094 7.070312 C 8.171875 6.945312 8.042969 6.875 7.90625 6.875 C 7.839844 6.875 7.773438 6.890625 7.714844 6.925781 L 7.359375 7.132812 C 7.210938 7.019531 7.050781 6.917969 6.875 6.84375 L 6.875 6.441406 C 6.875 6.226562 6.699219 6.054688 6.484375 6.054688 L 5.539062 6.054688 C 5.324219 6.054688 5.148438 6.226562 5.148438 6.441406 L 5.148438 6.84375 C 4.976562 6.917969 4.816406 7.019531 4.667969 7.132812 L 4.3125 6.925781 C 4.253906 6.890625 4.1875 6.875 4.117188 6.875 C 4.085938 6.875 4.050781 6.878906 4.015625 6.886719 C 3.917969 6.914062 3.832031 6.980469 3.78125 7.070312 L 3.308594 7.886719 C 3.199219 8.074219 3.261719 8.3125 3.449219 8.421875 L 3.808594 8.625 C 3.796875 8.71875 3.777344 8.808594 3.777344 8.902344 C 3.777344 9 3.796875 9.089844 3.808594 9.179688 L 3.449219 9.386719 C 3.265625 9.496094 3.199219 9.734375 3.308594 9.917969 L 3.78125 10.738281 C 3.832031 10.828125 3.917969 10.894531 4.015625 10.921875 C 4.050781 10.929688 4.082031 10.933594 4.117188 10.933594 C 4.1875 10.933594 4.253906 10.917969 4.3125 10.882812 L 4.667969 10.675781 C 4.816406 10.789062 4.976562 10.890625 5.152344 10.964844 L 5.152344 11.367188 C 5.152344 11.582031 5.324219 11.753906 5.542969 11.753906 L 6.488281 11.753906 C 6.699219 11.753906 6.875 11.578125 6.875 11.363281 Z M 4.9375 8.902344 C 4.9375 8.3125 5.421875 7.828125 6.011719 7.828125 C 6.605469 7.828125 7.085938 8.3125 7.085938 8.902344 C 7.085938 9.496094 6.605469 9.976562 6.011719 9.976562 C 5.421875 9.976562 4.9375 9.496094 4.9375 8.902344 Z M 4.9375 8.902344 "/>
  </g>
</svg>