<?xml version="1.0" encoding="UTF-8" standalone="yes"?>
<svg xmlns="http://www.w3.org/2000/svg" xmlns:xlink="http://www.w3.org/1999/xlink" width="24px" height="24px" viewBox="0 0 18 18" version="1.1">
  <g id="surface1">
    <path style=" stroke:none;fill-rule:nonzero;fill:rgb(0%,0%,0%);fill-opacity:1;" d="M 16.742188 6.742188 L 10.707031 0.707031 C 10.253906 0.25 9.644531 0 9 0 C 8.355469 0 7.746094 0.25 7.292969 0.707031 L 1.257812 6.742188 C 0.3125 7.683594 0.3125 9.21875 1.257812 10.160156 C 1.578125 10.484375 1.980469 10.703125 2.414062 10.804688 L 2.414062 15.582031 C 2.414062 16.914062 3.5 18 4.832031 18 L 13.167969 18 C 14.5 18 15.585938 16.914062 15.585938 15.582031 L 15.585938 10.804688 C 16.019531 10.703125 16.421875 10.484375 16.742188 10.160156 C 17.6875 9.21875 17.6875 7.683594 16.742188 6.742188 Z M 10.542969 12.96875 C 9.976562 13.347656 9.441406 13.707031 9.332031 14.097656 C 9.289062 14.242188 9.15625 14.34375 9.007812 14.347656 C 9.003906 14.347656 9.003906 14.347656 9 14.347656 C 8.851562 14.347656 8.71875 14.25 8.671875 14.109375 C 8.539062 13.707031 8.007812 13.347656 7.441406 12.96875 C 6.4375 12.292969 5.1875 11.453125 5.1875 9.753906 C 5.1875 8.453125 6.246094 7.390625 7.546875 7.390625 C 8.082031 7.390625 8.585938 7.566406 9 7.890625 C 9.414062 7.566406 9.917969 7.390625 10.453125 7.390625 C 11.753906 7.390625 12.8125 8.453125 12.8125 9.753906 C 12.8125 11.445312 11.554688 12.292969 10.542969 12.96875 Z M 10.542969 12.96875 "/>
  </g>
</svg>