<?xml version="1.0" encoding="utf-8"?>
<!-- Generator: Adobe Illustrator 15.1.0, SVG Export Plug-In . SVG Version: 6.00 Build 0)  -->
<!DOCTYPE svg PUBLIC "-//W3C//DTD SVG 1.1//EN" "http://www.w3.org/Graphics/SVG/1.1/DTD/svg11.dtd">
<svg version="1.1" id="Layer_1" xmlns="http://www.w3.org/2000/svg" xmlns:xlink="http://www.w3.org/1999/xlink" x="0px" y="0px"
	 width="24px" height="24px" viewBox="0 0 24 24" enable-background="new 0 0 24 24" xml:space="preserve">
<path fill="#010002" d="M17.479,2.415H6.375c-0.667,0-1.209,0.542-1.209,1.209v2.913h13.523V3.625
	C18.688,2.957,18.146,2.415,17.479,2.415z M18.029,5.878H5.825V3.625c0-0.303,0.247-0.55,0.55-0.55h11.104
	c0.303,0,0.551,0.247,0.551,0.55V5.878L18.029,5.878z M5.165,18.195v0.164v2.748c0,0.667,0.542,1.21,1.209,1.21h11.104
	c0.667,0,1.21-0.543,1.21-1.21v-2.748v-0.164V7.026H5.165V18.195z M5.825,7.685h12.205v10.51H5.825V7.685z M5.825,18.854h12.205
	v2.253c0,0.303-0.248,0.551-0.551,0.551H6.375c-0.303,0-0.55-0.248-0.55-0.551V18.854z M9.379,3.771H6.778
	c-0.364,0-0.66,0.296-0.66,0.661v0.513c0,0.364,0.296,0.66,0.66,0.66h2.602c0.364,0,0.66-0.295,0.66-0.66V4.431
	C10.039,4.066,9.744,3.771,9.379,3.771z M9.6,4.944c0,0.121-0.099,0.221-0.22,0.221H6.778c-0.121,0-0.22-0.099-0.22-0.221V4.431
	c0-0.122,0.099-0.22,0.22-0.22h2.602c0.122,0,0.22,0.099,0.22,0.22V4.944z M11.285,4.174c-0.282,0-0.512,0.23-0.512,0.513
	c0,0.283,0.23,0.513,0.512,0.513c0.283,0,0.514-0.23,0.514-0.513C11.799,4.404,11.568,4.174,11.285,4.174z M11.285,4.98
	c-0.161,0-0.293-0.131-0.293-0.293c0-0.161,0.132-0.293,0.293-0.293c0.162,0,0.293,0.132,0.293,0.293
	C11.578,4.849,11.447,4.98,11.285,4.98z M12.578,4.174c-0.283,0-0.514,0.23-0.514,0.513c0,0.283,0.23,0.513,0.514,0.513
	s0.513-0.23,0.513-0.513C13.091,4.404,12.861,4.174,12.578,4.174z M12.578,4.98c-0.162,0-0.293-0.131-0.293-0.293
	c0-0.161,0.131-0.293,0.293-0.293c0.161,0,0.293,0.132,0.293,0.293C12.871,4.849,12.739,4.98,12.578,4.98z M13.84,4.174
	c-0.284,0-0.515,0.23-0.515,0.513c0,0.283,0.23,0.513,0.515,0.513c0.281,0,0.512-0.23,0.512-0.513
	C14.353,4.404,14.121,4.174,13.84,4.174z M13.84,4.98c-0.162,0-0.294-0.131-0.294-0.293c0-0.161,0.131-0.293,0.294-0.293
	c0.16,0,0.292,0.132,0.292,0.293C14.133,4.849,14,4.98,13.84,4.98z M16.196,3.771c-0.505,0-0.915,0.412-0.915,0.917
	c0,0.506,0.41,0.916,0.915,0.916c0.506,0,0.917-0.41,0.917-0.916C17.112,4.182,16.701,3.771,16.196,3.771z M16.196,5.164
	c-0.263,0-0.477-0.214-0.477-0.477s0.214-0.476,0.477-0.476c0.264,0,0.478,0.213,0.478,0.476C16.673,4.95,16.458,5.164,16.196,5.164
	z M16.737,12.585H16.4c-0.194-2.29-2.117-4.096-4.456-4.096c-2.466,0-4.472,2.006-4.472,4.474c0,2.466,2.006,4.473,4.472,4.473
	c2.275,0,4.156-1.708,4.435-3.908h0.358c0.071,0,0.128-0.058,0.128-0.129v-0.686C16.865,12.642,16.809,12.585,16.737,12.585z
	 M11.944,17.029c-2.242,0-4.066-1.823-4.066-4.065c0-2.243,1.824-4.067,4.066-4.067c2.114,0,3.854,1.623,4.046,3.688h-0.408
	c-0.19-1.842-1.747-3.281-3.638-3.281c-2.018,0-3.659,1.642-3.659,3.66s1.642,3.66,3.659,3.66c1.825,0,3.342-1.346,3.613-3.095
	h0.412C15.694,15.502,13.996,17.029,11.944,17.029z M14.964,13.527h0.389c-0.271,1.64-1.692,2.893-3.408,2.893
	c-1.905,0-3.456-1.55-3.456-3.456s1.55-3.457,3.456-3.457c1.777,0,3.242,1.35,3.433,3.078h-0.413c-0.071,0-0.13,0.059-0.13,0.128
	v0.687C14.834,13.47,14.893,13.527,14.964,13.527z M16.608,13.271h-1.517v-0.428h1.517V13.271z M10.13,10.515
	c-1.083,0.693-1.204,1.752-1.208,1.795c-0.007,0.071,0.044,0.135,0.114,0.143c0.005,0,0.01,0,0.014,0
	c0.065,0,0.121-0.049,0.128-0.114c0.001-0.01,0.116-0.982,1.091-1.604c0.06-0.039,0.077-0.118,0.039-0.178
	C10.27,10.494,10.19,10.478,10.13,10.515z"/>
</svg>
