<?xml version="1.0" encoding="utf-8"?>
<!-- Generator: Adobe Illustrator 15.1.0, SVG Export Plug-In . SVG Version: 6.00 Build 0)  -->
<!DOCTYPE svg PUBLIC "-//W3C//DTD SVG 1.1//EN" "http://www.w3.org/Graphics/SVG/1.1/DTD/svg11.dtd">
<svg version="1.1" id="Layer_1" xmlns="http://www.w3.org/2000/svg" xmlns:xlink="http://www.w3.org/1999/xlink" x="0px" y="0px"
	 width="24px" height="24px" viewBox="0 0 24 24" enable-background="new 0 0 24 24" xml:space="preserve">
<path d="M18.103,10.737c0.213,0.364,0.506,0.94,0.412,1.416C18.211,11.846,18.061,11.386,18.103,10.737z M15.746,14.743
	c0.005-0.79,0.127-1.74,0.233-2.357C15.421,12.882,15.503,13.983,15.746,14.743z M14.86,14.509c0.121-0.509,0.15-1.093-0.061-1.592
	C14.566,13.488,14.632,13.956,14.86,14.509z M19.045,15.038c-0.004-0.578,0.249-1.477-0.236-1.71
	C18.926,13.86,18.761,14.675,19.045,15.038z M20.516,15.098c0.014-0.817-0.074-1.534-0.649-1.77
	C20.032,13.974,20.249,14.559,20.516,15.098z M18.218,15.687c-0.071-0.537-0.107-1.11-0.293-1.533
	C17.702,14.679,17.795,15.474,18.218,15.687z M14.271,16.749c-0.094-0.8-0.129-1.809-0.118-2.535
	C13.675,14.923,13.897,16.099,14.271,16.749z M21.399,16.569c0.197-0.784,0.176-2.106-0.469-2.177
	C21.336,14.867,21.113,15.98,21.399,16.569z M19.752,16.455c0.081-0.427,0.146-1.27-0.117-1.532
	C19.49,15.403,19.456,16.107,19.752,16.455z M15.449,17.575c-0.038-0.632-0.322-1.471-0.473-2.183
	C14.771,16.315,15.026,17.105,15.449,17.575z M20.225,18.222c0.277-0.39,0.249-1.066,0.055-1.531
	C20.126,17.024,20.11,17.812,20.225,18.222z M19.572,19.575c-0.071-0.852-0.099-1.746-0.294-2.477
	C19.227,18.001,19.111,19.051,19.572,19.575z M15.449,19.107c-0.482-0.54-0.725-1.319-1.239-1.826
	C14.239,18.131,14.991,19.006,15.449,19.107z M20.516,19.401c0.182-0.502,0.796-1.025,0.415-1.712
	C20.886,18.318,20.336,18.743,20.516,19.401z M16.923,19.635c-0.069-0.618-0.499-0.876-0.767-1.299
	C16.102,19.082,16.542,19.329,16.923,19.635z M14.743,11.386c-2.513,2.614-2.669,9.252,2.533,8.427
	c0.146,0.108,0.229,0.28,0.473,0.292c0.224-0.049,0.282-0.267,0.587-0.237c0.873,0.472,2.133,0.301,2.77-0.234
	c2.133-1.778,1.525-6.313-0.118-7.954c-0.93-0.932-2.228-1.193-3.004-2.063c-0.076-0.197-0.074-0.476-0.177-0.646
	C17.528,10.335,15.697,10.392,14.743,11.386z M18.043,10.147c-0.687,1.151-1.432,3.855-1.18,6.129
	c0.082,0.723,0.403,2.374,0.766,2.946c0.133,0.206,0.28,0.354,0.53,0.412c-0.179,0.095-0.236,0.314-0.471,0.354
	c-0.101-0.156-0.005-0.505-0.116-0.647c-1.452-2.548-0.701-7.179,0.177-9.783c0.727,1.262,2.395,1.485,3.356,2.948
	c1.213,1.843,1.376,7.152-1.533,7.364c-0.769,0.059-1.259-0.206-1.766-0.529c-1.014-2.583-0.616-6.647,0.236-9.133
	C18.043,10.188,18.043,10.167,18.043,10.147z M17.218,10.147c0.049-0.011,0.056,0.024,0.059,0.059
	c-1.237,2.381-1.627,7.174,0.116,9.313c-2.001,0.618-3.65-0.983-3.828-2.715c-0.19-1.836,0.578-4.199,1.649-5.302
	C15.853,10.845,16.658,10.699,17.218,10.147z M16.039,10.972c-0.176,0.375-0.683,0.731-0.59,1.181
	c0.431-0.258,0.704-0.985,0.942-1.239C16.386,11.043,16.144,10.937,16.039,10.972z M18.692,18.161
	c-0.312-0.575-0.596-1.176-0.827-1.825C17.515,17.123,18.339,17.9,18.692,18.161z M9.58,3.344C9.277,3.956,8.459,3.775,7.707,3.918
	C5.402,4.357,3.77,7.133,3.632,9.519c-0.099,1.655,0.776,2.719,2.097,3.958c-1.468-0.709-2.217-1.76-2.498-2.904
	C2.788,8.76,3.649,6.039,5.255,4.595C5.84,4.072,6.824,3.68,7.548,3.577C8.289,3.47,8.985,3.802,9.58,3.344z M12.574,7.096
	c0.408,1.908-0.87,5.9-3.263,6.474c-0.988,0.235-1.99-0.036-3.033,0.255c1.306,0.082,2.545,0.452,3.611,0.036
	c2.488-0.975,4.015-5.12,2.897-7.449c-0.209-0.433-0.626-0.813-0.813-1.267c-0.098-0.246,0.04-0.529-0.263-0.659
	C11.753,5.453,12.358,6.097,12.574,7.096z M11.021,5.193c-0.261-0.769-1.713-1.116-2.104-0.798c0.123-0.162,0.443-0.426,0.397-0.657
	C8.073,4.959,6.873,6.314,6.219,8.049c-0.86,2.276,0.118,3.902-0.18,5.721c0.664-0.732,0.649-1.765,1.091-2.817
	c0.587-1.39,1.537-2.373,2.384-3.418c0.852-1.051,1.905-2.039,2.089-2.841C11.399,4.827,11.25,5.126,11.021,5.193z M10.278,7.063
	c0.097-0.096,0.115-0.362,0.004-0.132c-0.872,2.008-3.59,3.775-3.13,5.549C7.263,10.296,9.629,9.32,10.278,7.063z"/>
</svg>
