<?xml version="1.0" encoding="utf-8"?>
<!-- Generator: Adobe Illustrator 15.1.0, SVG Export Plug-In . SVG Version: 6.00 Build 0)  -->
<!DOCTYPE svg PUBLIC "-//W3C//DTD SVG 1.1//EN" "http://www.w3.org/Graphics/SVG/1.1/DTD/svg11.dtd">
<svg version="1.1" id="Layer_1" xmlns="http://www.w3.org/2000/svg" xmlns:xlink="http://www.w3.org/1999/xlink" x="0px" y="0px"
	 width="24px" height="24px" viewBox="0 0 24 24" enable-background="new 0 0 24 24" xml:space="preserve">
<path d="M4.915,19.895h6.072v-2.43H4.915V19.895z M8.103,18.098c0.279,0,0.506,0.227,0.506,0.506s-0.227,0.506-0.506,0.506
	s-0.506-0.227-0.506-0.506S7.823,18.098,8.103,18.098z M4.915,15.846h6.072v-2.428H4.915V15.846z M8.103,14.049
	c0.279,0,0.506,0.228,0.506,0.507s-0.227,0.506-0.506,0.506s-0.506-0.227-0.506-0.506S7.823,14.049,8.103,14.049z M13.012,19.895
	h6.071V3.702h-6.071V19.895z M14.175,10.811c0.279,0,0.506,0.227,0.506,0.506s-0.227,0.506-0.506,0.506s-0.507-0.227-0.507-0.506
	S13.896,10.811,14.175,10.811z M4.915,11.798h6.072V3.702H4.915V11.798z M9.722,7.573c0.279,0,0.506,0.227,0.506,0.506
	s-0.227,0.506-0.506,0.506c-0.28,0-0.506-0.227-0.506-0.506S9.442,7.573,9.722,7.573z M2.891,20.704v1.215v1.214h1.214v-1.214h7.287
	v1.214h1.215v-1.214h7.286v1.214h1.215v-1.214v-1.215V2.083H2.891V20.704z M12.606,3.297h6.882v17.002h-6.882V3.297z M4.51,3.297
	h6.882v8.906H4.51V3.297z M4.51,13.012h6.882v3.239H4.51V13.012z M4.51,17.061h6.882v3.238H4.51V17.061z M2.891,1.678h18.217
	l0.81-0.81H2.081L2.891,1.678z"/>
</svg>
