<?xml version="1.0" encoding="UTF-8" standalone="yes"?>
<svg xmlns="http://www.w3.org/2000/svg" xmlns:xlink="http://www.w3.org/1999/xlink" width="24px" height="24px" viewBox="0 0 18 18" version="1.1">
  <g id="surface1">
    <path style=" stroke:none;fill-rule:nonzero;fill:rgb(0%,0%,0%);fill-opacity:1;" d="M 17.820312 14.417969 C 16.476562 12.523438 12.351562 6.660156 12.351562 6.660156 C 12.25 6.519531 12.09375 6.429688 11.925781 6.414062 C 11.753906 6.394531 11.582031 6.453125 11.457031 6.570312 L 10.375 7.582031 L 7.839844 2.875 C 7.734375 2.683594 7.539062 2.5625 7.324219 2.5625 C 7.109375 2.550781 6.90625 2.671875 6.796875 2.859375 L 0.078125 14.546875 C -0.0273438 14.730469 -0.0273438 14.957031 0.078125 15.144531 C 0.1875 15.328125 0.382812 15.441406 0.59375 15.441406 L 17.394531 15.441406 C 17.398438 15.4375 17.402344 15.441406 17.40625 15.441406 C 17.734375 15.441406 18 15.171875 18 14.84375 C 18 14.679688 17.910156 14.546875 17.820312 14.417969 Z M 10.625 8.980469 L 11.769531 7.90625 L 14.046875 11.136719 L 12.117188 9.125 C 12.085938 9.089844 12.042969 9.070312 11.996094 9.070312 C 11.953125 9.070312 11.910156 9.089844 11.878906 9.121094 L 10.5 10.496094 C 10.453125 10.542969 10.378906 10.558594 10.316406 10.53125 C 10.253906 10.507812 10.214844 10.445312 10.214844 10.378906 L 10.21875 9.125 C 10.367188 9.125 10.515625 9.082031 10.625 8.980469 Z M 7.296875 4.378906 L 8.773438 7.121094 L 7.664062 8.097656 C 7.632812 8.128906 7.585938 8.144531 7.539062 8.140625 C 7.492188 8.136719 7.453125 8.113281 7.421875 8.078125 L 6.710938 7.175781 C 6.679688 7.132812 6.625 7.109375 6.574219 7.113281 C 6.519531 7.113281 6.46875 7.144531 6.4375 7.191406 L 5.363281 8.902344 C 5.332031 8.957031 5.269531 8.988281 5.207031 8.980469 C 5.144531 8.976562 5.089844 8.933594 5.066406 8.875 L 4.921875 8.511719 Z M 7.296875 4.378906 "/>
  </g>
</svg>