<?xml version="1.0" encoding="UTF-8" standalone="yes"?>
<svg xmlns="http://www.w3.org/2000/svg" xmlns:xlink="http://www.w3.org/1999/xlink" width="24px" height="24px" viewBox="0 0 18 18" version="1.1">
  <g id="surface1">
    <path style=" stroke:none;fill-rule:nonzero;fill:rgb(0%,0%,0%);fill-opacity:1;" d="M 1.648438 4.441406 L 1.566406 5.203125 L 3.515625 7.523438 L 3.855469 5.023438 C 3.871094 4.90625 3.90625 4.796875 3.9375 4.6875 Z M 1.648438 4.441406 "/>
    <path style=" stroke:none;fill-rule:nonzero;fill:rgb(0%,0%,0%);fill-opacity:1;" d="M 3.308594 9.074219 L 3.410156 8.320312 L 1.476562 6.023438 L 1.191406 8.703125 C 1.121094 9.367188 1.601562 9.960938 2.265625 10.03125 L 3.421875 10.15625 C 3.304688 9.816406 3.257812 9.453125 3.308594 9.074219 Z M 3.308594 9.074219 "/>
    <path style=" stroke:none;fill-rule:nonzero;fill:rgb(0%,0%,0%);fill-opacity:1;" d="M 7.320312 4.535156 C 7.152344 4.070312 6.640625 3.828125 6.175781 3.996094 C 5.710938 4.164062 5.472656 4.675781 5.640625 5.140625 L 6.722656 8.140625 C 6.820312 8.414062 7.046875 8.625 7.328125 8.699219 L 10.136719 9.472656 C 10.214844 9.496094 10.292969 9.503906 10.375 9.503906 C 10.765625 9.503906 11.125 9.246094 11.234375 8.847656 C 11.363281 8.371094 11.085938 7.882812 10.609375 7.75 L 8.246094 7.101562 Z M 7.320312 4.535156 "/>
    <path style=" stroke:none;fill-rule:nonzero;fill:rgb(0%,0%,0%);fill-opacity:1;" d="M 10.261719 14.289062 L 9.894531 11.753906 C 9.851562 11.460938 9.6875 11.199219 9.441406 11.035156 L 7.953125 10.042969 L 7.429688 9.695312 C 7.429688 9.679688 7.433594 9.660156 7.4375 9.632812 L 7.476562 9.359375 L 7.167969 9.273438 C 6.703125 9.144531 6.328125 8.800781 6.164062 8.34375 L 5.824219 7.402344 L 3.996094 8.4375 C 3.996094 8.4375 3.921875 8.976562 3.898438 9.15625 C 3.878906 9.304688 3.871094 9.804688 3.941406 10.019531 C 4.046875 10.359375 4.363281 11.378906 4.363281 11.378906 L 4.933594 13.203125 L 4.136719 16.234375 C 3.992188 16.789062 4.324219 17.359375 4.878906 17.507812 C 4.96875 17.527344 5.058594 17.539062 5.144531 17.539062 C 5.605469 17.539062 6.03125 17.230469 6.152344 16.761719 L 7.023438 13.445312 C 7.074219 13.257812 7.070312 13.058594 7.011719 12.871094 L 6.636719 11.671875 L 7.898438 12.511719 L 8.199219 14.585938 C 8.273438 15.105469 8.71875 15.480469 9.226562 15.480469 C 9.277344 15.480469 9.328125 15.476562 9.378906 15.46875 C 9.949219 15.386719 10.34375 14.855469 10.261719 14.289062 Z M 10.261719 14.289062 "/>
    <path style=" stroke:none;fill-rule:nonzero;fill:rgb(0%,0%,0%);fill-opacity:1;" d="M 16.953125 7.765625 C 16.691406 7.570312 16.316406 7.621094 16.117188 7.882812 L 13.882812 10.855469 C 13.839844 10.914062 13.804688 10.980469 13.785156 11.050781 L 12.867188 14.304688 L 11.453125 14.507812 C 11.378906 14.515625 11.308594 14.542969 11.246094 14.578125 L 7.15625 16.886719 C 6.871094 17.046875 6.769531 17.410156 6.929688 17.699219 C 7.039062 17.890625 7.242188 18 7.449219 18 C 7.550781 18 7.648438 17.976562 7.742188 17.921875 L 11.734375 15.671875 L 13.417969 15.429688 C 13.652344 15.394531 13.84375 15.230469 13.90625 15 L 14.902344 11.480469 L 17.070312 8.601562 C 17.269531 8.339844 17.214844 7.964844 16.953125 7.765625 Z M 16.953125 7.765625 "/>
    <path style=" stroke:none;fill-rule:nonzero;fill:rgb(0%,0%,0%);fill-opacity:1;" d="M 1.890625 4.128906 L 4.058594 4.359375 L 4.332031 4.390625 C 4.46875 4.402344 4.601562 4.390625 4.730469 4.359375 C 4.585938 4.578125 4.484375 4.828125 4.445312 5.101562 L 4.09375 7.695312 L 5.617188 6.832031 L 5.078125 5.34375 C 4.9375 4.945312 4.976562 4.523438 5.152344 4.171875 C 5.175781 4.15625 5.199219 4.144531 5.21875 4.128906 C 5.371094 4.007812 5.484375 3.847656 5.5625 3.675781 C 5.613281 3.5625 5.648438 3.441406 5.664062 3.316406 C 5.671875 3.21875 5.667969 3.125 5.65625 3.03125 C 5.585938 2.488281 5.15625 2.046875 4.589844 1.984375 L 2.148438 1.722656 C 1.828125 1.691406 1.507812 1.785156 1.261719 1.984375 C 1.011719 2.1875 0.851562 2.480469 0.816406 2.796875 C 0.746094 3.460938 1.226562 4.058594 1.890625 4.128906 Z M 1.890625 4.128906 "/>
    <path style=" stroke:none;fill-rule:nonzero;fill:rgb(0%,0%,0%);fill-opacity:1;" d="M 9.074219 1.734375 C 9.074219 2.695312 8.296875 3.46875 7.339844 3.46875 C 6.378906 3.46875 5.601562 2.695312 5.601562 1.734375 C 5.601562 0.777344 6.378906 0 7.339844 0 C 8.296875 0 9.074219 0.777344 9.074219 1.734375 Z M 9.074219 1.734375 "/>
  </g>
</svg>