<?xml version="1.0" encoding="UTF-8" standalone="yes"?>
<svg xmlns="http://www.w3.org/2000/svg" xmlns:xlink="http://www.w3.org/1999/xlink" width="24px" height="24px" viewBox="0 0 18 18" version="1.1">
  <g id="surface1">
    <path style=" stroke:none;fill-rule:nonzero;fill:rgb(0%,0%,0%);fill-opacity:1;" d="M 14.1875 14.019531 L 7.550781 3.921875 C 7.417969 3.71875 7.210938 3.601562 6.992188 3.601562 C 6.765625 3.601562 6.5625 3.722656 6.425781 3.933594 L 0.117188 14.019531 C -0.0195312 14.242188 -0.0390625 14.480469 0.0703125 14.675781 C 0.179688 14.875 0.390625 14.988281 0.652344 14.988281 L 13.664062 14.988281 C 13.925781 14.988281 14.136719 14.875 14.242188 14.675781 C 14.351562 14.476562 14.328125 14.234375 14.1875 14.019531 Z M 6.996094 4.390625 C 7.0625 4.390625 7.101562 4.453125 7.101562 4.453125 L 11.121094 10.441406 C 11.382812 10.90625 11.207031 11.050781 10.714844 10.574219 C 10.714844 10.574219 9.261719 8.886719 8.71875 8.382812 C 8.582031 8.253906 8.300781 8.222656 8.148438 8.324219 C 7.746094 8.597656 7.042969 9.28125 6.636719 9.542969 C 6.480469 9.644531 6.265625 9.558594 6.222656 9.375 C 6.078125 8.777344 5.953125 7.546875 5.800781 6.949219 C 5.753906 6.769531 5.578125 6.734375 5.429688 6.847656 C 5.390625 6.875 5.3125 6.921875 5.273438 6.945312 C 5.226562 6.972656 5.25 6.933594 5.25 6.933594 L 6.898438 4.449219 C 6.898438 4.449219 6.925781 4.390625 6.996094 4.390625 Z M 6.996094 4.390625 "/>
    <path style=" stroke:none;fill-rule:nonzero;fill:rgb(0%,0%,0%);fill-opacity:1;" d="M 17.898438 12.609375 L 11.789062 3.320312 C 11.667969 3.132812 11.480469 3.023438 11.277344 3.023438 C 11.070312 3.023438 10.878906 3.136719 10.757812 3.332031 L 9.480469 5.371094 C 9.480469 5.371094 9.433594 5.441406 9.46875 5.523438 C 9.511719 5.617188 9.628906 5.78125 9.691406 5.859375 C 9.742188 5.921875 9.804688 5.820312 9.804688 5.820312 L 11.199219 3.699219 C 11.199219 3.699219 11.238281 3.644531 11.28125 3.644531 C 11.328125 3.644531 11.363281 3.703125 11.363281 3.703125 L 15.339844 9.582031 C 15.453125 9.746094 15.152344 9.75 14.890625 9.539062 C 14.5 9.222656 13.71875 8.582031 13.324219 8.269531 C 13.191406 8.160156 12.945312 8.125 12.800781 8.21875 C 12.589844 8.351562 12.082031 8.75 11.875 8.941406 C 11.765625 9.042969 11.84375 9.140625 11.84375 9.140625 L 14.625 13.367188 C 14.625 13.367188 14.703125 13.503906 14.828125 13.503906 C 15.476562 13.503906 17.414062 13.503906 17.414062 13.503906 C 17.65625 13.503906 17.851562 13.398438 17.949219 13.214844 C 18.046875 13.03125 18.027344 12.8125 17.898438 12.609375 Z M 17.898438 12.609375 "/>
  </g>
</svg>