<?xml version="1.0" encoding="UTF-8" standalone="yes"?>
<svg xmlns="http://www.w3.org/2000/svg" xmlns:xlink="http://www.w3.org/1999/xlink" width="24px" height="24px" viewBox="0 0 18 18" version="1.1">
  <g id="surface1">
    <path style=" stroke:none;fill-rule:nonzero;fill:rgb(0%,0%,0%);fill-opacity:1;" d="M 17.984375 4.441406 C 18.09375 3.496094 14.242188 0.847656 14.203125 0.820312 C 13.421875 0.292969 12.632812 0.527344 11.855469 1.515625 C 11.34375 2.164062 5.824219 8.308594 5.746094 8.433594 C 4.164062 10.542969 0.824219 12.585938 0.152344 14.09375 C -0.121094 14.703125 0.0351562 15.097656 0.152344 15.277344 C 0.316406 15.535156 0.597656 15.683594 0.90625 15.683594 C 1.316406 15.683594 1.765625 15.394531 1.84375 14.742188 C 1.863281 14.574219 4.894531 13.648438 6.445312 10.433594 C 6.445312 10.433594 6.714844 9.824219 6.964844 10.035156 C 7.847656 10.925781 8.910156 11.996094 9.316406 12.378906 C 9.320312 12.734375 9.292969 13.089844 9.246094 13.441406 C 9.171875 14.039062 9.042969 14.636719 8.925781 15.234375 C 8.867188 15.507812 8.800781 15.777344 8.722656 16.046875 C 8.597656 16.632812 8.773438 17.390625 9.253906 17.4375 C 9.84375 17.492188 9.988281 16.910156 10.058594 16.402344 C 10.09375 16.148438 10.082031 15.847656 10.042969 15.515625 C 10 15.238281 9.949219 14.964844 9.898438 14.699219 C 9.742188 14.015625 9.601562 13.34375 9.714844 12.597656 C 9.757812 12.605469 9.796875 12.609375 9.839844 12.609375 C 9.972656 12.609375 10.117188 12.578125 10.28125 12.519531 C 10.414062 12.46875 10.570312 12.390625 10.734375 12.292969 C 10.847656 12.890625 10.429688 13.546875 10.964844 13.96875 C 11.277344 14.230469 11.773438 14.175781 12.046875 13.894531 C 12.203125 13.707031 12.21875 13.460938 12.164062 13.246094 C 11.992188 12.761719 11.296875 12.546875 11.472656 12.03125 C 11.492188 11.96875 11.53125 11.847656 11.578125 11.707031 C 11.71875 11.597656 11.863281 11.480469 12.015625 11.359375 C 12.019531 11.660156 11.863281 11.972656 12.132812 12.1875 C 12.308594 12.332031 12.585938 12.300781 12.742188 12.144531 C 12.832031 12.035156 12.839844 11.898438 12.808594 11.777344 C 12.710938 11.503906 12.320312 11.382812 12.417969 11.09375 C 12.425781 11.066406 12.4375 11.027344 12.453125 10.980469 C 12.660156 10.800781 12.867188 10.609375 13.078125 10.410156 C 12.988281 10.796875 12.898438 11.160156 13.214844 11.46875 C 13.503906 11.757812 14 11.753906 14.300781 11.5 C 14.476562 11.328125 14.511719 11.085938 14.480469 10.867188 C 14.359375 10.375 13.703125 10.089844 13.910156 9.605469 C 15.921875 7.585938 17.902344 5.164062 17.984375 4.441406 Z M 2.667969 13.273438 C 2.515625 13.40625 2.28125 13.390625 2.152344 13.238281 C 2.019531 13.085938 2.035156 12.851562 2.1875 12.722656 C 2.339844 12.589844 2.570312 12.605469 2.703125 12.757812 C 2.835938 12.910156 2.820312 13.140625 2.667969 13.273438 Z M 3.496094 12.554688 C 3.34375 12.6875 3.113281 12.671875 2.980469 12.519531 C 2.847656 12.367188 2.863281 12.136719 3.015625 12.003906 C 3.167969 11.871094 3.398438 11.886719 3.53125 12.039062 C 3.664062 12.191406 3.648438 12.421875 3.496094 12.554688 Z M 4.324219 11.835938 C 4.171875 11.96875 3.941406 11.953125 3.808594 11.800781 C 3.675781 11.648438 3.691406 11.417969 3.84375 11.285156 C 3.996094 11.152344 4.226562 11.167969 4.359375 11.320312 C 4.492188 11.472656 4.476562 11.707031 4.324219 11.835938 Z M 13.558594 1.722656 C 13.945312 1.722656 14.253906 2.03125 14.253906 2.414062 C 14.253906 2.796875 13.945312 3.109375 13.558594 3.109375 C 13.175781 3.109375 12.867188 2.796875 12.867188 2.414062 C 12.867188 2.03125 13.175781 1.722656 13.558594 1.722656 Z M 13.558594 1.722656 "/>
  </g>
</svg>