<?xml version="1.0" encoding="UTF-8" standalone="no"?>
<!-- Generator: Adobe Illustrator 16.0.0, SVG Export Plug-In . SVG Version: 6.00 Build 0)  -->

<svg
   xmlns:dc="http://purl.org/dc/elements/1.1/"
   xmlns:cc="http://creativecommons.org/ns#"
   xmlns:rdf="http://www.w3.org/1999/02/22-rdf-syntax-ns#"
   xmlns:svg="http://www.w3.org/2000/svg"
   xmlns="http://www.w3.org/2000/svg"
   xmlns:sodipodi="http://sodipodi.sourceforge.net/DTD/sodipodi-0.dtd"
   xmlns:inkscape="http://www.inkscape.org/namespaces/inkscape"
   version="1.1"
   id="Capa_1"
   x="0px"
   y="0px"
   width="24"
   height="24"
   viewBox="0 0 24.000001 24"
   xml:space="preserve"
   inkscape:version="0.48.5 r10040"
   sodipodi:docname="koze_sofal.svg"><metadata
     id="metadata3532"><rdf:RDF><cc:Work
         rdf:about=""><dc:format>image/svg+xml</dc:format><dc:type
           rdf:resource="http://purl.org/dc/dcmitype/StillImage" /><dc:title></dc:title></cc:Work></rdf:RDF></metadata><defs
     id="defs3530" /><sodipodi:namedview
     pagecolor="#ffffff"
     bordercolor="#666666"
     borderopacity="1"
     objecttolerance="10"
     gridtolerance="10"
     guidetolerance="10"
     inkscape:pageopacity="0"
     inkscape:pageshadow="2"
     inkscape:window-width="657"
     inkscape:window-height="480"
     id="namedview3528"
     showgrid="false"
     inkscape:zoom="6.893936"
     inkscape:cx="11.296935"
     inkscape:cy="7.4430074"
     inkscape:window-x="0"
     inkscape:window-y="27"
     inkscape:window-maximized="0"
     inkscape:current-layer="Capa_1" /><g
     id="g3494"
     transform="matrix(0.10592754,0,0,0.10592754,1.7435664,1.74346)"><path
       d="m 166.826,155.95 c 0,-28.705 -24.946,-50.706 -34.376,-86.621 9.401,-1.272 16.707,-9.279 16.707,-19.027 0,-9.287 -6.592,-17.054 -15.332,-18.883 2.938,-6.792 6.752,-14.021 9.665,-25.559 0,-7.812 -93.333,-7.812 -93.333,0 6.051,25.034 16.823,28.946 12.713,53.501 -6.826,40.898 -36.046,65.307 -36.046,96.589 0,8.263 9.694,15.637 24.916,20.59 -6.774,1.779 -10.91,3.955 -10.91,6.332 0,5.951 25.058,10.779 55.99,10.779 30.926,0 55.992,-4.805 55.992,-10.779 0,-2.377 -4.124,-4.553 -10.908,-6.332 15.232,-4.954 24.922,-12.328 24.922,-20.59 z M 143.768,50.31 c 0,7.2 -5.566,12.936 -12.588,13.642 -0.316,-1.521 -0.669,-3.016 -0.922,-4.577 -1.606,-9.858 -0.597,-16.433 1.495,-22.584 6.757,0.95 12.015,6.524 12.015,13.519 z"
       id="path3496"
       inkscape:connector-curvature="0" /></g><g
     id="g3498"
     transform="translate(0,-169.65101)" /><g
     id="g3500"
     transform="translate(0,-169.65101)" /><g
     id="g3502"
     transform="translate(0,-169.65101)" /><g
     id="g3504"
     transform="translate(0,-169.65101)" /><g
     id="g3506"
     transform="translate(0,-169.65101)" /><g
     id="g3508"
     transform="translate(0,-169.65101)" /><g
     id="g3510"
     transform="translate(0,-169.65101)" /><g
     id="g3512"
     transform="translate(0,-169.65101)" /><g
     id="g3514"
     transform="translate(0,-169.65101)" /><g
     id="g3516"
     transform="translate(0,-169.65101)" /><g
     id="g3518"
     transform="translate(0,-169.65101)" /><g
     id="g3520"
     transform="translate(0,-169.65101)" /><g
     id="g3522"
     transform="translate(0,-169.65101)" /><g
     id="g3524"
     transform="translate(0,-169.65101)" /><g
     id="g3526"
     transform="translate(0,-169.65101)" /></svg>