<?xml version="1.0" encoding="utf-8"?>
<!-- Generator: Adobe Illustrator 15.1.0, SVG Export Plug-In . SVG Version: 6.00 Build 0)  -->
<!DOCTYPE svg PUBLIC "-//W3C//DTD SVG 1.1//EN" "http://www.w3.org/Graphics/SVG/1.1/DTD/svg11.dtd">
<svg version="1.1" id="Layer_1" xmlns="http://www.w3.org/2000/svg" xmlns:xlink="http://www.w3.org/1999/xlink" x="0px" y="0px"
	 width="24px" height="24px" viewBox="0 0 24 24" enable-background="new 0 0 24 24" xml:space="preserve">
<path fill="#030104" d="M1.195,3.283L2.27,2.458c0.192-0.148,0.435-0.213,0.675-0.18c0.24,0.031,0.458,0.157,0.604,0.349
	l0.303,0.395L1.329,4.957L1.026,4.562C0.72,4.162,0.795,3.589,1.195,3.283z M12.292,20.558c0,0.28-0.226,0.506-0.506,0.506
	c-3.672,0-6.956,0-10.629,0c-0.279,0-0.506-0.226-0.506-0.506c0-0.55,0-0.969,0-1.519c0-0.279,0.227-0.506,0.506-0.506
	c0.162,0,0.324,0,0.488,0c0.28,0,0.358-0.172,0.21-0.409c-1.566-2.511-0.262-6.949,2.511-8.007c0.261-0.1,0.375-0.345,0.233-0.585
	C3.865,8.282,2.95,7.028,2.114,5.839l2.444-1.874c2.001,2.74,5.338,6.887,5.662,7.377l-0.832,0.59l0.645,0.841
	c0.091,0.118,0.131,0.267,0.111,0.416c-0.02,0.147-0.097,0.281-0.215,0.372l-0.237,0.183c-0.246,0.188-0.6,0.142-0.79-0.105
	l-0.676-0.881l-0.868,0.616c-0.293-0.349-0.825-1.027-1.298-1.666c-0.167-0.225-0.516-0.344-0.773-0.233
	c-1.656,0.719-2.691,2.303-2.675,3.87c0.041,3.718,4.757,3.224,9.175,3.153c0.279-0.004,0.504,0.222,0.504,0.502
	C12.292,19.458,12.292,19.983,12.292,20.558z M11.353,15.799c-1.416,0.985-2.787,1.465-3.063,1.069
	c-0.275-0.396,0.649-1.517,2.065-2.502c1.416-0.985,2.787-1.465,3.063-1.068C13.695,13.692,12.77,14.813,11.353,15.799z
	 M20.207,13.997c0,0-0.678,1.158-1.544,0c-0.841-1.089-1.451,0-1.451,0l-2.024,5.338c-0.059,0.291,0.07,0.59,0.287,0.667h6.724
	c0.216-0.077,0.346-0.375,0.287-0.667L20.207,13.997z M23.308,19.062l-3.252-7.321v-0.014l-0.006-4.29h0.225
	c0.336,0,0.611-0.366,0.611-0.817s-0.275-0.816-0.611-0.816h-3.259c-0.336,0-0.609,0.365-0.609,0.816s0.273,0.817,0.609,0.817h0.196
	l-0.006,4.291l-2.814,7.334c-0.174,0.873,0.213,1.769,0.863,2.002h7.188C23.095,20.83,23.481,19.935,23.308,19.062z M22.335,20.517
	l-6.972-0.01c-0.435-0.156-0.691-0.755-0.575-1.334l2.831-7.424l0.009-4.857h-0.61c-0.112,0-0.204-0.123-0.204-0.273
	s0.092-0.273,0.204-0.273h3.257c0.113,0,0.204,0.123,0.204,0.273s-0.091,0.273-0.204,0.273h-0.609l0.01,4.839l3.234,7.452
	C23.026,19.765,22.768,20.36,22.335,20.517z M10.821,15.844c0.376,0,0.681-0.332,0.681-0.741c0-0.408-0.304-0.741-0.681-0.741
	c-0.375,0-0.679,0.333-0.679,0.741C10.142,15.512,10.446,15.844,10.821,15.844z"/>
</svg>
