<?xml version="1.0" encoding="utf-8"?>
<!-- Generator: Adobe Illustrator 15.1.0, SVG Export Plug-In . SVG Version: 6.00 Build 0)  -->
<!DOCTYPE svg PUBLIC "-//W3C//DTD SVG 1.1//EN" "http://www.w3.org/Graphics/SVG/1.1/DTD/svg11.dtd">
<svg version="1.1" id="Layer_1" xmlns="http://www.w3.org/2000/svg" xmlns:xlink="http://www.w3.org/1999/xlink" x="0px" y="0px"
	 width="24px" height="24px" viewBox="0 0 24 24" enable-background="new 0 0 24 24" xml:space="preserve">
<path fill="#010002" d="M23.234,16.329h0.061v-0.01H23.4v-0.951h-0.119l-5.797-3.528l-0.018-0.011l-0.053,0.005
	c-3.262,0.255-4.631,2.944-4.891,3.534h-0.056v7.154H23.4V21.8h-0.166c-0.387,0-0.701-0.314-0.701-0.701
	c0-0.377,0.309-0.713,0.734-0.797l0.133-0.027v-0.59h-0.105v-0.01h-0.061c-0.922,0-1.672-0.752-1.672-1.674
	C21.563,17.081,22.313,16.329,23.234,16.329z M17.387,12.169l5.254,3.199h-9.75C13.25,14.624,14.553,12.419,17.387,12.169z
	 M12.799,22.19V15.7h10.27v0.303c-1.035,0.086-1.838,0.959-1.838,1.998c0,1.041,0.803,1.912,1.838,2v0.008
	c-0.512,0.156-0.867,0.604-0.867,1.09c0,0.506,0.373,0.941,0.867,1.021v0.07H16.4c-0.018-0.617-0.523-1.111-1.143-1.111
	s-1.125,0.494-1.143,1.111 M15.932,17.433c-0.463,0-0.84,0.377-0.84,0.838c0,0.465,0.377,0.84,0.84,0.84s0.84-0.375,0.84-0.84
	C16.771,17.81,16.395,17.433,15.932,17.433z M19.244,19.321c-0.629,0-1.145,0.512-1.145,1.146c0,0.631,0.516,1.145,1.145,1.145
	c0.633,0,1.146-0.514,1.146-1.145C20.391,19.833,19.877,19.321,19.244,19.321z M17.672,12.952c-0.654,0-1.17,0.367-1.17,0.832
	c0,0.467,0.516,0.832,1.17,0.832c0.656,0,1.168-0.365,1.168-0.832C18.84,13.319,18.328,12.952,17.672,12.952z M10.854,5.148
	l0.352-0.282L10.638,3.29l-1.11,2.8L10.854,5.148z M0.599,22.79h7.894V7.316H0.599V22.79z M4.547,12.006
	c1.449,0,2.623,0.85,2.623,1.897c0,1.049-1.174,1.9-2.623,1.9c-1.449,0-2.624-0.852-2.624-1.9
	C1.923,12.855,3.098,12.006,4.547,12.006z M2.196,1.21h7.896v1.423H2.196V1.21z M2.092,3.286L0.753,6.664h7.845l1.34-3.378H2.092z
	 M9.147,7.159v15.276l2.19-1.756V5.606L9.147,7.159z"/>
</svg>
