<?xml version="1.0" encoding="UTF-8" standalone="yes"?>
<svg xmlns="http://www.w3.org/2000/svg" xmlns:xlink="http://www.w3.org/1999/xlink" width="24px" height="24px" viewBox="0 0 18 18" version="1.1">
  <g id="surface1">
    <path style=" stroke:none;fill-rule:nonzero;fill:rgb(0%,0%,0%);fill-opacity:1;" d="M 15.199219 13.210938 L 14.613281 11.25 C 14.59375 11.1875 14.550781 11.136719 14.496094 11.105469 C 14.4375 11.074219 14.371094 11.066406 14.308594 11.085938 L 12.347656 11.675781 C 12.253906 11.703125 12.1875 11.785156 12.179688 11.882812 C 12.167969 11.980469 12.21875 12.074219 12.304688 12.121094 L 13.023438 12.507812 C 12.324219 13.796875 11.054688 14.667969 9.605469 14.863281 L 9.605469 6.84375 L 11.074219 6.84375 C 11.253906 7.070312 11.53125 7.21875 11.84375 7.21875 C 12.386719 7.21875 12.828125 6.777344 12.828125 6.238281 C 12.828125 5.695312 12.386719 5.253906 11.84375 5.253906 C 11.53125 5.253906 11.253906 5.402344 11.074219 5.628906 L 9.605469 5.628906 L 9.605469 3.957031 C 10.425781 3.699219 11.023438 2.929688 11.023438 2.023438 C 11.023438 0.910156 10.117188 0 9 0 C 7.882812 0 6.976562 0.910156 6.976562 2.023438 C 6.976562 2.929688 7.574219 3.699219 8.394531 3.957031 L 8.394531 5.628906 L 6.925781 5.628906 C 6.746094 5.402344 6.46875 5.253906 6.15625 5.253906 C 5.613281 5.253906 5.171875 5.695312 5.171875 6.238281 C 5.171875 6.777344 5.613281 7.21875 6.15625 7.21875 C 6.46875 7.21875 6.746094 7.070312 6.925781 6.84375 L 8.394531 6.84375 L 8.394531 14.863281 C 6.945312 14.667969 5.675781 13.796875 4.976562 12.507812 L 5.695312 12.121094 C 5.78125 12.074219 5.832031 11.980469 5.824219 11.882812 C 5.8125 11.785156 5.746094 11.703125 5.652344 11.675781 L 3.691406 11.085938 C 3.628906 11.066406 3.5625 11.074219 3.503906 11.105469 C 3.449219 11.136719 3.40625 11.1875 3.386719 11.25 L 2.800781 13.210938 C 2.769531 13.304688 2.800781 13.40625 2.878906 13.46875 C 2.921875 13.503906 2.976562 13.523438 3.03125 13.523438 C 3.070312 13.523438 3.109375 13.511719 3.148438 13.492188 L 3.90625 13.085938 C 4.378906 13.984375 5.082031 14.679688 5.9375 15.238281 C 7.417969 16.207031 8.230469 16.753906 8.566406 17.621094 C 8.628906 17.785156 8.730469 18 9 18 C 9.269531 18 9.371094 17.785156 9.433594 17.621094 C 9.769531 16.753906 10.582031 16.207031 12.0625 15.238281 C 12.917969 14.679688 13.621094 13.984375 14.09375 13.085938 L 14.851562 13.492188 C 14.890625 13.511719 14.929688 13.523438 14.96875 13.523438 C 15.023438 13.523438 15.078125 13.503906 15.121094 13.46875 C 15.199219 13.40625 15.230469 13.304688 15.199219 13.210938 Z M 9 2.835938 C 8.550781 2.835938 8.1875 2.472656 8.1875 2.023438 C 8.1875 1.578125 8.550781 1.210938 9 1.210938 C 9.449219 1.210938 9.8125 1.578125 9.8125 2.023438 C 9.8125 2.472656 9.449219 2.835938 9 2.835938 Z M 9 2.835938 "/>
  </g>
</svg>