<?xml version="1.0" encoding="UTF-8" standalone="yes"?>
<svg xmlns="http://www.w3.org/2000/svg" xmlns:xlink="http://www.w3.org/1999/xlink" width="24px" height="24px" viewBox="0 0 18 18" version="1.1">
  <g id="surface1">
    <path style=" stroke:none;fill-rule:nonzero;fill:rgb(0%,0%,0%);fill-opacity:1;" d="M 16.089844 1.28125 C 16.089844 0.9375 15.8125 0.660156 15.46875 0.660156 L 11.734375 0.660156 C 11.667969 0.660156 11.605469 0.667969 11.546875 0.6875 L 11.546875 0.660156 L 11.332031 0.660156 C 11.207031 0.28125 10.71875 0 10.132812 0 C 9.457031 0 8.90625 0.378906 8.90625 0.847656 C 8.90625 1.152344 9.148438 1.421875 9.503906 1.570312 L 9.503906 1.839844 C 8.566406 1.710938 7.582031 1.78125 6.738281 2.222656 C 6.265625 2.46875 5.847656 2.882812 5.632812 3.375 C 5.40625 3.894531 5.410156 4.457031 5.488281 5.007812 C 5.566406 5.550781 5.746094 6.070312 5.859375 6.605469 C 5.988281 7.210938 6.082031 7.820312 6.148438 8.4375 C 6.265625 9.558594 6.324219 10.757812 5.992188 11.851562 C 5.867188 12.265625 5.695312 12.667969 5.492188 13.054688 L 4.882812 12.648438 L 1.90625 16.398438 L 4.292969 17.996094 L 6.636719 13.820312 L 6.027344 13.414062 C 6.324219 12.859375 6.554688 12.265625 6.703125 11.667969 C 6.988281 10.507812 6.882812 9.222656 6.742188 8.050781 C 6.667969 7.445312 6.578125 6.832031 6.429688 6.242188 C 6.296875 5.722656 6.132812 5.203125 6.082031 4.664062 C 6.042969 4.246094 6.089844 3.832031 6.300781 3.464844 C 6.503906 3.109375 6.859375 2.859375 7.222656 2.691406 C 7.910156 2.371094 8.753906 2.359375 9.503906 2.480469 L 9.503906 2.84375 C 8.382812 3.300781 7.59375 4.402344 7.59375 5.6875 L 7.59375 17.296875 C 7.59375 17.683594 7.90625 17.996094 8.289062 17.996094 L 13.039062 17.996094 C 13.425781 17.996094 13.738281 17.683594 13.738281 17.296875 L 13.738281 5.6875 C 13.738281 4.296875 12.8125 3.121094 11.546875 2.742188 L 11.546875 2.011719 L 14.730469 3.773438 C 15.03125 3.9375 15.410156 3.828125 15.578125 3.527344 C 15.742188 3.226562 15.632812 2.847656 15.332031 2.683594 L 13.925781 1.90625 L 15.46875 1.90625 C 15.8125 1.902344 16.089844 1.625 16.089844 1.28125 Z M 9.089844 0.847656 C 9.089844 0.480469 9.558594 0.183594 10.132812 0.183594 C 10.609375 0.183594 11.007812 0.382812 11.136719 0.660156 L 9.503906 0.660156 L 9.503906 1.375 C 9.25 1.253906 9.089844 1.0625 9.089844 0.847656 Z M 12.144531 12.296875 L 11.082031 12.296875 C 11.105469 12.230469 11.125 12.164062 11.148438 12.097656 C 11.285156 11.679688 11.40625 11.320312 10.917969 10.980469 L 10.902344 10.996094 C 11.195312 11.40625 10.980469 11.84375 10.707031 12.296875 L 10.03125 12.296875 C 10.011719 12.101562 9.949219 11.925781 9.898438 11.816406 C 9.730469 11.546875 9.597656 11.285156 9.769531 11.039062 L 9.761719 11.03125 C 9.476562 11.226562 9.546875 11.4375 9.628906 11.679688 C 9.644531 11.726562 9.660156 11.773438 9.671875 11.820312 C 9.691406 11.996094 9.640625 12.09375 9.597656 12.144531 C 9.550781 12.195312 9.488281 12.222656 9.417969 12.222656 C 9.371094 12.222656 9.328125 12.210938 9.292969 12.183594 C 9.121094 12.039062 9.035156 11.882812 9.042969 11.71875 C 9.050781 11.394531 9.40625 11.136719 9.410156 11.136719 C 9.839844 10.859375 10.0625 10.421875 9.933594 10.09375 C 9.917969 10.039062 9.890625 9.992188 9.859375 9.945312 C 9.785156 9.820312 9.699219 9.679688 9.765625 9.332031 L 9.753906 9.328125 C 9.644531 9.515625 9.671875 9.726562 9.695312 9.929688 C 9.730469 10.242188 9.765625 10.535156 9.320312 10.726562 C 9.3125 10.730469 9.292969 10.738281 9.273438 10.746094 C 9.113281 10.8125 8.6875 10.988281 8.636719 11.53125 C 8.601562 11.867188 8.640625 12.121094 8.691406 12.296875 L 8.183594 12.296875 L 8.183594 8.113281 L 10.917969 8.113281 C 11.007812 8.671875 10.871094 8.910156 10.746094 9.113281 C 10.695312 9.199219 10.648438 9.277344 10.617188 9.371094 C 10.398438 9.933594 10.78125 10.6875 11.523438 11.160156 C 11.527344 11.164062 12.132812 11.605469 12.152344 12.164062 C 12.15625 12.207031 12.152344 12.253906 12.144531 12.296875 Z M 13.183594 8.113281 L 13.183594 12.296875 L 12.871094 12.296875 C 12.871094 12.15625 12.863281 12.003906 12.84375 11.84375 C 12.757812 10.90625 12.027344 10.605469 11.753906 10.492188 C 11.71875 10.476562 11.691406 10.464844 11.671875 10.457031 C 10.910156 10.132812 10.96875 9.625 11.03125 9.089844 C 11.070312 8.761719 11.109375 8.425781 10.960938 8.113281 Z M 13.183594 8.113281 "/>
  </g>
</svg>