<?xml version="1.0" encoding="UTF-8" standalone="no"?>
<!-- Generator: Adobe Illustrator 16.0.0, SVG Export Plug-In . SVG Version: 6.00 Build 0)  -->

<svg
   xmlns:dc="http://purl.org/dc/elements/1.1/"
   xmlns:cc="http://creativecommons.org/ns#"
   xmlns:rdf="http://www.w3.org/1999/02/22-rdf-syntax-ns#"
   xmlns:svg="http://www.w3.org/2000/svg"
   xmlns="http://www.w3.org/2000/svg"
   xmlns:sodipodi="http://sodipodi.sourceforge.net/DTD/sodipodi-0.dtd"
   xmlns:inkscape="http://www.inkscape.org/namespaces/inkscape"
   version="1.1"
   id="Capa_1"
   x="0px"
   y="0px"
   width="24"
   height="24"
   viewBox="0 0 24 24"
   xml:space="preserve"
   inkscape:version="0.48.5 r10040"
   sodipodi:docname="lavazem_arayesh.svg"><metadata
     id="metadata3235"><rdf:RDF><cc:Work
         rdf:about=""><dc:format>image/svg+xml</dc:format><dc:type
           rdf:resource="http://purl.org/dc/dcmitype/StillImage" /><dc:title></dc:title></cc:Work></rdf:RDF></metadata><defs
     id="defs3233" /><sodipodi:namedview
     pagecolor="#ffffff"
     bordercolor="#666666"
     borderopacity="1"
     objecttolerance="10"
     gridtolerance="10"
     guidetolerance="10"
     inkscape:pageopacity="0"
     inkscape:pageshadow="2"
     inkscape:window-width="657"
     inkscape:window-height="480"
     id="namedview3231"
     showgrid="false"
     inkscape:zoom="8.1264418"
     inkscape:cx="14.5205"
     inkscape:cy="14.5205"
     inkscape:window-x="0"
     inkscape:window-y="27"
     inkscape:window-maximized="0"
     inkscape:current-layer="Capa_1" /><g
     id="g3197"
     transform="matrix(0.80920093,0,0,0.80920093,0.2499979,0.2499979)"><path
       d="m 12.961,27.735 h 8.185 v 1.306 h -8.185 v -1.306 z m 7.393,-21.69 h 0.789 v 21.26 H 12.96 V 6.044 h 0.977 V 4.295 h 0.484 V 3.724 h 1.547 V 1.379 l 2.574,0.002 v 0.461 h 0.209 v 1.312 h -0.209 v 0.57 h 1.361 v 0.572 h 0.449 l 0,0 v 1.749 h 0.002 z M 15.006,7.538 H 13.97 v 18.483 h 1.036 V 7.538 z M 2.589,9.047 h 7.716 V 29.041 H 2.589 V 9.047 z m 0.583,6.842 H 9.723 V 9.629 H 3.172 v 6.26 z M 8.898,4.582 H 4.045 v 3.592 h 4.854 l -10e-4,-3.592 0,0 z M 26.325,0.289 26.243,0 19.084,2.032 19.166,2.321 26.325,0.289 z m -7.032,2.467 -0.082,0.289 7.16,2.032 0.081,-0.289 -7.159,-2.032 z m -0.035,-0.039 6.726,-0.068 -0.002,-0.301 -6.727,0.069 0.003,0.3 z"
       id="path3199"
       inkscape:connector-curvature="0" /></g><g
     id="g3201"
     transform="translate(0,-5.0410004)" /><g
     id="g3203"
     transform="translate(0,-5.0410004)" /><g
     id="g3205"
     transform="translate(0,-5.0410004)" /><g
     id="g3207"
     transform="translate(0,-5.0410004)" /><g
     id="g3209"
     transform="translate(0,-5.0410004)" /><g
     id="g3211"
     transform="translate(0,-5.0410004)" /><g
     id="g3213"
     transform="translate(0,-5.0410004)" /><g
     id="g3215"
     transform="translate(0,-5.0410004)" /><g
     id="g3217"
     transform="translate(0,-5.0410004)" /><g
     id="g3219"
     transform="translate(0,-5.0410004)" /><g
     id="g3221"
     transform="translate(0,-5.0410004)" /><g
     id="g3223"
     transform="translate(0,-5.0410004)" /><g
     id="g3225"
     transform="translate(0,-5.0410004)" /><g
     id="g3227"
     transform="translate(0,-5.0410004)" /><g
     id="g3229"
     transform="translate(0,-5.0410004)" /></svg>