<?xml version="1.0" encoding="UTF-8" standalone="yes"?>
<svg xmlns="http://www.w3.org/2000/svg" xmlns:xlink="http://www.w3.org/1999/xlink" width="24px" height="24px" viewBox="0 0 18 18" version="1.1">
  <g id="surface1">
    <path style=" stroke:none;fill-rule:nonzero;fill:rgb(0%,0%,0%);fill-opacity:1;" d="M 17.722656 10.78125 C 17.683594 10.554688 17.488281 10.273438 17.273438 10.195312 C 16.9375 10.070312 16.359375 9.929688 15.464844 9.929688 C 14.636719 9.929688 13.46875 9.609375 12.453125 9.125 C 12.289062 9.046875 12.019531 9.035156 11.859375 9.117188 C 11.632812 9.238281 11.347656 9.414062 10.992188 9.679688 C 10.9375 9.71875 10.871094 9.742188 10.808594 9.742188 C 10.710938 9.742188 10.617188 9.699219 10.558594 9.613281 C 10.453125 9.476562 10.484375 9.28125 10.621094 9.179688 C 10.84375 9.011719 11.046875 8.875 11.230469 8.761719 C 11.386719 8.667969 11.394531 8.515625 11.25 8.402344 C 11.21875 8.378906 11.1875 8.355469 11.160156 8.332031 C 11.019531 8.21875 10.78125 8.183594 10.628906 8.28125 C 10.464844 8.382812 10.28125 8.507812 10.074219 8.660156 C 10.019531 8.699219 9.953125 8.722656 9.890625 8.722656 C 9.796875 8.722656 9.699219 8.675781 9.640625 8.59375 C 9.535156 8.457031 9.566406 8.261719 9.703125 8.160156 C 9.894531 8.015625 10.070312 7.898438 10.230469 7.792969 C 10.386719 7.695312 10.5 7.601562 10.484375 7.570312 C 10.476562 7.554688 10.46875 7.535156 10.460938 7.519531 C 10.40625 7.410156 10.355469 7.28125 10.304688 7.136719 C 10.242188 6.964844 10.070312 6.894531 9.914062 6.988281 C 9.757812 7.089844 9.582031 7.207031 9.382812 7.355469 C 9.328125 7.394531 9.261719 7.417969 9.199219 7.417969 C 9.101562 7.417969 9.007812 7.375 8.949219 7.292969 C 8.84375 7.152344 8.875 6.957031 9.011719 6.855469 C 9.285156 6.652344 9.527344 6.492188 9.738281 6.367188 C 9.898438 6.277344 9.992188 6.066406 9.949219 5.886719 C 9.9375 5.832031 9.925781 5.777344 9.914062 5.722656 C 9.871094 5.542969 9.703125 5.453125 9.542969 5.539062 C 9.316406 5.65625 9.027344 5.835938 8.671875 6.101562 C 8.617188 6.140625 8.550781 6.160156 8.488281 6.160156 C 8.390625 6.160156 8.296875 6.117188 8.238281 6.035156 C 8.132812 5.898438 8.164062 5.703125 8.300781 5.601562 C 8.75 5.265625 9.117188 5.046875 9.410156 4.910156 C 9.574219 4.828125 9.6875 4.636719 9.652344 4.457031 C 9.542969 3.871094 9.457031 3.34375 9.40625 3 C 9.371094 2.773438 9.15625 2.605469 8.933594 2.667969 C 8.660156 2.742188 8.296875 2.886719 8.011719 3.167969 C 7.847656 3.332031 7.761719 3.683594 7.761719 3.914062 L 7.761719 4.40625 C 7.761719 4.40625 7.035156 4.640625 5.242188 4.613281 C 3.453125 4.585938 3.453125 4.585938 3.453125 4.585938 C 3.453125 4.585938 3.515625 3.484375 2.914062 2.488281 C 2.792969 2.292969 2.515625 2.242188 2.316406 2.359375 L 1.683594 2.734375 C 1.484375 2.851562 1.445312 3.085938 1.5625 3.285156 C 1.84375 3.78125 2.226562 4.800781 1.773438 6.230469 C 1.480469 7.164062 1.066406 7.761719 0.710938 8.285156 C 2.082031 8.71875 5.128906 10 5.128906 12.769531 L 4.507812 12.769531 C 4.507812 10.324219 1.507812 9.179688 0.367188 8.832031 C 0.113281 9.277344 -0.0429688 9.734375 0.0117188 10.382812 C 0.148438 12.042969 0.355469 12.664062 0.355469 12.664062 L 0.328125 13.957031 C 0.324219 14.121094 0.453125 14.292969 0.613281 14.328125 C 1.09375 14.441406 2.097656 14.625 2.96875 14.515625 C 3.132812 14.492188 3.265625 14.328125 3.265625 14.164062 L 3.265625 14.105469 C 3.265625 13.941406 3.398438 13.800781 3.5625 13.792969 L 3.855469 13.78125 C 4.019531 13.777344 4.152344 13.90625 4.152344 14.070312 L 4.152344 14.25 C 4.152344 14.414062 4.28125 14.589844 4.445312 14.617188 C 4.761719 14.679688 5.316406 14.738281 5.964844 14.617188 C 6.125 14.585938 6.257812 14.414062 6.257812 14.25 L 6.257812 14.199219 C 6.257812 14.035156 6.386719 13.925781 6.546875 13.964844 C 6.941406 14.054688 7.640625 14.246094 8.136719 14.523438 C 8.277344 14.605469 8.382812 14.8125 8.382812 14.96875 C 8.382812 15.125 8.511719 15.28125 8.675781 15.316406 C 9.058594 15.402344 9.730469 15.527344 10.132812 15.480469 C 10.296875 15.460938 10.40625 15.246094 10.40625 15.082031 L 10.40625 14.925781 C 10.40625 14.761719 10.542969 14.628906 10.707031 14.628906 L 10.808594 14.628906 C 10.972656 14.628906 11.109375 14.761719 11.109375 14.925781 L 11.109375 15.191406 C 11.109375 15.359375 11.230469 15.542969 11.390625 15.585938 C 11.714844 15.675781 12.277344 15.765625 12.902344 15.589844 C 13.058594 15.542969 13.183594 15.359375 13.183594 15.191406 L 13.183594 14.980469 C 13.183594 14.8125 13.316406 14.675781 13.480469 14.667969 L 13.585938 14.664062 C 13.75 14.660156 13.882812 14.789062 13.882812 14.953125 L 13.882812 15.003906 C 13.882812 15.167969 14.015625 15.292969 14.179688 15.269531 C 14.457031 15.226562 14.875 15.132812 15.222656 14.929688 C 15.363281 14.847656 15.464844 14.640625 15.464844 14.496094 C 15.464844 14.355469 15.59375 14.203125 15.753906 14.15625 L 16.085938 14.0625 C 16.246094 14.015625 16.375 14.113281 16.375 14.277344 L 16.375 14.304688 C 16.375 14.46875 16.507812 14.585938 16.667969 14.546875 C 17.09375 14.449219 17.847656 14.183594 17.957031 13.539062 C 18.070312 12.871094 17.847656 11.472656 17.722656 10.78125 Z M 17.722656 10.78125 "/>
  </g>
</svg>