<?xml version="1.0" encoding="utf-8"?>
<!-- Generator: Adobe Illustrator 15.1.0, SVG Export Plug-In . SVG Version: 6.00 Build 0)  -->
<!DOCTYPE svg PUBLIC "-//W3C//DTD SVG 1.1//EN" "http://www.w3.org/Graphics/SVG/1.1/DTD/svg11.dtd">
<svg version="1.1" id="Layer_1" xmlns="http://www.w3.org/2000/svg" xmlns:xlink="http://www.w3.org/1999/xlink" x="0px" y="0px"
	 width="24px" height="24px" viewBox="0 0 24 24" enable-background="new 0 0 24 24" xml:space="preserve">
<path d="M4.003,16.879c0.405-0.291,0.632-0.731,0.673-1.189l2.702-1.942c0.296,0.172,0.49,0.492,0.475,0.864
	c-0.018,0.563,0.397,0.862,0.925,0.67c0.529-0.193,1.092,0.089,1.256,0.627c0.166,0.536,0.655,0.688,1.091,0.329
	c0.436-0.353,1.062-0.271,1.393,0.186c0.328,0.455,0.842,0.436,1.139-0.039c0.298-0.477,0.918-0.603,1.377-0.279
	c0.459,0.325,0.939,0.142,1.066-0.406c0.126-0.549,0.672-0.865,1.211-0.711c0.539,0.159,0.935-0.172,0.876-0.73
	c-0.059-0.558,0.354-1.038,0.914-1.063c0.563-0.025,0.828-0.465,0.59-0.976c-0.234-0.511-0.001-1.097,0.522-1.304
	c0.521-0.208,0.631-0.71,0.241-1.116c-0.39-0.404-0.358-1.036,0.065-1.402c0.428-0.366,0.369-0.877-0.132-1.133
	C19.891,7.006,19.714,6.398,20,5.913c0.283-0.484,0.062-0.947-0.493-1.026c-0.557-0.083-0.92-0.599-0.809-1.149
	s-0.247-0.917-0.801-0.813c-0.553,0.104-1.063-0.265-1.137-0.824c-0.074-0.557-0.533-0.786-1.023-0.508
	c-0.487,0.279-1.092,0.094-1.34-0.41c-0.251-0.502-0.761-0.57-1.132-0.148c-0.371,0.42-1.003,0.442-1.402,0.047
	c-0.403-0.395-0.906-0.293-1.119,0.227c-0.216,0.52-0.806,0.746-1.313,0.501C8.927,1.565,8.483,1.825,8.449,2.385
	c-0.036,0.562-0.523,0.965-1.079,0.9C6.813,3.22,6.477,3.609,6.628,4.15c0.148,0.542-0.18,1.083-0.729,1.201
	C5.352,5.47,5.16,5.948,5.477,6.41c0.317,0.464,0.182,1.083-0.299,1.375c-0.479,0.29-0.504,0.802-0.055,1.138
	c0.451,0.336,0.522,0.964,0.164,1.394c-0.361,0.431-0.219,0.924,0.316,1.097c0.275,0.086,0.48,0.28,0.587,0.518L3.414,13.93
	c-0.45-0.104-0.939-0.028-1.344,0.262c-0.742,0.532-0.912,1.568-0.377,2.311C2.227,17.241,3.26,17.412,4.003,16.879z M9.692,12.083
	l2.01-1.445c0.635,0.261,1.382,0.202,1.98-0.227c0.654-0.47,0.941-1.252,0.821-1.999l-1.11,0.798
	c-0.394,0.284-0.95,0.183-1.243-0.227c-0.294-0.409-0.214-0.967,0.179-1.252l1.111-0.798c-0.666-0.352-1.5-0.329-2.156,0.143
	c-0.597,0.428-0.89,1.118-0.845,1.804L8.5,10.275C8.238,9.554,8.147,8.758,8.28,7.95c0.411-2.522,2.799-4.237,5.32-3.826
	c2.521,0.412,4.237,2.799,3.824,5.32c-0.413,2.521-2.799,4.237-5.321,3.824C11.164,13.115,10.339,12.689,9.692,12.083z
	 M8.721,12.781l0.407-0.292c0.755,0.747,1.738,1.275,2.865,1.458c2.895,0.475,5.637-1.497,6.111-4.392
	c0.475-2.897-1.497-5.639-4.393-6.113C10.815,2.971,8.073,4.94,7.6,7.837c-0.163,0.999-0.03,1.976,0.323,2.85l-0.41,0.297
	c-0.422-0.983-0.583-2.092-0.397-3.226c0.517-3.169,3.505-5.318,6.674-4.8c3.169,0.518,5.318,3.507,4.8,6.675
	c-0.518,3.169-3.507,5.319-6.676,4.8C10.65,14.229,9.556,13.627,8.721,12.781z M2.33,16.043l-0.086-0.868l0.707-0.509l0.794,0.36
	l0.086,0.866l-0.706,0.509L2.33,16.043z M19.442,15.771l-0.377,0.256c-0.313,0.214-0.858,0.272-1.211,0.133l-0.424-0.168
	c-0.353-0.141-0.7,0.051-0.771,0.422l-0.086,0.449c-0.071,0.371-0.414,0.8-0.763,0.95l-0.419,0.182
	c-0.348,0.148-0.458,0.529-0.246,0.844l0.256,0.377c0.214,0.313,0.272,0.859,0.133,1.211l-0.169,0.425
	c-0.14,0.351,0.052,0.698,0.424,0.771l0.448,0.084c0.372,0.072,0.8,0.415,0.949,0.764l0.183,0.42
	c0.15,0.347,0.529,0.458,0.845,0.246l0.376-0.257c0.314-0.212,0.858-0.27,1.212-0.132l0.424,0.17c0.353,0.138,0.7-0.053,0.771-0.423
	l0.087-0.449c0.071-0.372,0.414-0.8,0.763-0.95l0.419-0.181c0.348-0.151,0.459-0.53,0.247-0.845l-0.256-0.377
	c-0.213-0.314-0.272-0.859-0.133-1.212l0.168-0.423c0.141-0.354-0.05-0.701-0.423-0.771l-0.447-0.087
	c-0.372-0.071-0.8-0.414-0.95-0.763l-0.182-0.419C20.137,15.67,19.757,15.56,19.442,15.771z M20.541,20.205
	c-0.416,0.948-1.52,1.376-2.466,0.961c-0.945-0.415-1.376-1.517-0.96-2.465c0.415-0.945,1.519-1.375,2.465-0.961
	C20.524,18.155,20.955,19.26,20.541,20.205z M30.802,6.289l0.31,0.194l-2.043,3.259l-3.26-2.044l0.194-0.309l-0.919-0.576
	l-0.777,1.24l0.919,0.576l0.193-0.31l3.261,2.043l-2.044,3.26l-0.31-0.195l-0.576,0.92l1.24,0.777l0.576-0.92l-0.311-0.194
	l2.043-3.259l3.261,2.044l-0.195,0.31l0.919,0.575l0.776-1.24l-0.918-0.575l-0.194,0.31l-3.259-2.044l2.042-3.259l0.31,0.194
	l0.576-0.918l-1.238-0.777L30.802,6.289z"/>
</svg>
