<?xml version="1.0" encoding="UTF-8" standalone="yes"?>
<svg xmlns="http://www.w3.org/2000/svg" xmlns:xlink="http://www.w3.org/1999/xlink" width="24px" height="24px" viewBox="0 0 18 18" version="1.1">
  <g id="surface1">
    <path style=" stroke:none;fill-rule:nonzero;fill:rgb(0%,0%,0%);fill-opacity:1;" d="M 9.128906 3.316406 C 9.128906 1.488281 7.640625 0 5.8125 0 C 3.980469 0 2.496094 1.488281 2.496094 3.316406 C 2.496094 4.96875 3.710938 6.34375 5.296875 6.59375 L 5.296875 10.027344 C 4.863281 10.222656 4.558594 10.660156 4.558594 11.167969 L 4.558594 16.734375 C 4.558594 17.425781 5.121094 17.988281 5.8125 17.988281 C 6.503906 17.988281 7.0625 17.425781 7.0625 16.734375 L 7.0625 11.167969 C 7.0625 10.660156 6.761719 10.222656 6.328125 10.027344 L 6.328125 6.59375 C 7.914062 6.34375 9.128906 4.96875 9.128906 3.316406 Z M 3.675781 3.316406 C 3.675781 2.136719 4.632812 1.179688 5.8125 1.179688 C 6.992188 1.179688 7.949219 2.136719 7.949219 3.316406 C 7.949219 4.496094 6.992188 5.457031 5.8125 5.457031 C 4.632812 5.457031 3.675781 4.496094 3.675781 3.316406 Z M 3.675781 3.316406 "/>
    <path style=" stroke:none;fill-rule:nonzero;fill:rgb(0%,0%,0%);fill-opacity:1;" d="M 4.917969 4.433594 C 4.835938 4.304688 4.742188 4.160156 4.664062 4 C 4.625 3.921875 4.589844 3.839844 4.5625 3.753906 C 4.535156 3.675781 4.515625 3.582031 4.507812 3.511719 C 4.507812 3.496094 4.503906 3.464844 4.503906 3.441406 L 4.503906 3.421875 C 4.503906 3.429688 4.503906 3.414062 4.503906 3.414062 L 4.503906 3.378906 C 4.507812 3.332031 4.503906 3.289062 4.511719 3.242188 C 4.515625 3.152344 4.53125 3.0625 4.546875 2.972656 C 4.582031 2.796875 4.628906 2.632812 4.675781 2.484375 C 4.722656 2.339844 4.769531 2.21875 4.800781 2.128906 C 4.835938 2.039062 4.855469 1.988281 4.855469 1.988281 C 4.855469 1.988281 4.804688 2.015625 4.730469 2.078125 C 4.652344 2.136719 4.554688 2.234375 4.449219 2.363281 C 4.347656 2.496094 4.242188 2.664062 4.167969 2.867188 C 4.148438 2.917969 4.132812 2.96875 4.121094 3.023438 C 4.105469 3.078125 4.09375 3.132812 4.085938 3.1875 C 4.074219 3.246094 4.066406 3.304688 4.066406 3.363281 L 4.0625 3.40625 C 4.0625 3.417969 4.0625 3.414062 4.0625 3.4375 L 4.0625 3.457031 C 4.066406 3.484375 4.0625 3.503906 4.066406 3.542969 C 4.082031 3.679688 4.113281 3.792969 4.160156 3.90625 C 4.207031 4.015625 4.265625 4.117188 4.328125 4.203125 C 4.457031 4.378906 4.601562 4.511719 4.738281 4.609375 C 4.871094 4.707031 4.992188 4.773438 5.082031 4.8125 C 5.167969 4.851562 5.222656 4.867188 5.222656 4.867188 C 5.222656 4.867188 5.191406 4.820312 5.136719 4.742188 C 5.082031 4.667969 5.003906 4.5625 4.917969 4.433594 Z M 4.917969 4.433594 "/>
    <path style=" stroke:none;fill-rule:nonzero;fill:rgb(0%,0%,0%);fill-opacity:1;" d="M 11.957031 9.695312 L 11.957031 4.785156 L 15.492188 0.320312 L 15.390625 0.238281 L 10.921875 4.691406 L 10.921875 9.699219 C 10.488281 9.894531 10.1875 10.332031 10.1875 10.839844 L 10.1875 16.402344 C 10.1875 17.097656 10.746094 17.65625 11.4375 17.65625 C 12.132812 17.65625 12.691406 17.09375 12.691406 16.402344 L 12.691406 10.839844 C 12.691406 10.332031 12.390625 9.894531 11.957031 9.695312 Z M 11.957031 9.695312 "/>
  </g>
</svg>