<?xml version="1.0" encoding="UTF-8" standalone="yes"?>
<svg xmlns="http://www.w3.org/2000/svg" xmlns:xlink="http://www.w3.org/1999/xlink" width="24px" height="24px" viewBox="0 0 18 18" version="1.1">
  <g id="surface1">
    <path style=" stroke:none;fill-rule:nonzero;fill:rgb(0%,0%,0%);fill-opacity:1;" d="M 0 15.816406 L 0 17.675781 L 0.929688 17.675781 L 0.929688 17.058594 L 7.753906 17.058594 L 7.753906 17.675781 L 8.683594 17.675781 L 8.683594 11.785156 L 0 11.785156 Z M 2.480469 13.027344 L 6.511719 13.027344 L 6.511719 13.335938 L 2.480469 13.335938 Z M 2.480469 13.027344 "/>
    <path style=" stroke:none;fill-rule:nonzero;fill:rgb(0%,0%,0%);fill-opacity:1;" d="M 0 11.476562 L 8.683594 11.476562 L 8.683594 0.308594 L 0 0.308594 Z M 7.132812 4.808594 C 7.132812 4.722656 7.203125 4.652344 7.289062 4.652344 C 7.375 4.652344 7.441406 4.722656 7.441406 4.808594 L 7.441406 8.21875 C 7.441406 8.304688 7.375 8.375 7.289062 8.375 C 7.203125 8.375 7.132812 8.304688 7.132812 8.21875 Z M 7.132812 4.808594 "/>
    <path style=" stroke:none;fill-rule:nonzero;fill:rgb(0%,0%,0%);fill-opacity:1;" d="M 9.304688 15.816406 L 9.304688 17.675781 L 10.234375 17.675781 L 10.234375 17.058594 L 17.058594 17.058594 L 17.058594 17.675781 L 17.988281 17.675781 L 17.988281 12.09375 L 9.304688 12.09375 Z M 11.785156 13.027344 L 15.816406 13.027344 L 15.816406 13.335938 L 11.785156 13.335938 Z M 11.785156 13.027344 "/>
    <path style=" stroke:none;fill-rule:nonzero;fill:rgb(0%,0%,0%);fill-opacity:1;" d="M 10.234375 7.132812 L 15.195312 7.132812 L 15.195312 10.542969 L 10.234375 10.542969 Z M 10.234375 7.132812 "/>
    <path style=" stroke:none;fill-rule:nonzero;fill:rgb(0%,0%,0%);fill-opacity:1;" d="M 9.304688 11.476562 L 17.988281 11.476562 L 17.988281 6.203125 L 9.304688 6.203125 Z M 16.707031 9.148438 C 16.496094 9.148438 16.320312 8.976562 16.320312 8.761719 C 16.320312 8.546875 16.496094 8.375 16.707031 8.375 C 16.921875 8.375 17.097656 8.546875 17.097656 8.761719 C 17.097656 8.976562 16.921875 9.148438 16.707031 9.148438 Z M 16.128906 6.824219 L 17.367188 6.824219 L 17.367188 7.753906 L 16.128906 7.753906 Z M 9.925781 6.824219 L 15.507812 6.824219 L 15.507812 10.855469 L 9.925781 10.855469 Z M 9.925781 6.824219 "/>
    <path style=" stroke:none;fill-rule:nonzero;fill:rgb(0%,0%,0%);fill-opacity:1;" d="M 9.304688 5.582031 L 17.988281 5.582031 L 17.988281 0.308594 L 9.304688 0.308594 Z M 16.707031 0.929688 C 16.921875 0.929688 17.097656 1.105469 17.097656 1.316406 C 17.097656 1.53125 16.921875 1.707031 16.707031 1.707031 C 16.496094 1.707031 16.320312 1.53125 16.320312 1.316406 C 16.320312 1.105469 16.496094 0.929688 16.707031 0.929688 Z M 16.707031 2.171875 C 16.921875 2.171875 17.097656 2.34375 17.097656 2.558594 C 17.097656 2.773438 16.921875 2.945312 16.707031 2.945312 C 16.496094 2.945312 16.320312 2.773438 16.320312 2.558594 C 16.320312 2.34375 16.496094 2.171875 16.707031 2.171875 Z M 9.925781 0.929688 L 15.507812 0.929688 L 15.507812 4.960938 L 9.925781 4.960938 Z M 9.925781 0.929688 "/>
    <path style=" stroke:none;fill-rule:nonzero;fill:rgb(0%,0%,0%);fill-opacity:1;" d="M 10.234375 1.242188 L 15.195312 1.242188 L 15.195312 4.652344 L 10.234375 4.652344 Z M 10.234375 1.242188 "/>
  </g>
</svg>