<?xml version="1.0" encoding="UTF-8" standalone="yes"?>
<svg xmlns="http://www.w3.org/2000/svg" xmlns:xlink="http://www.w3.org/1999/xlink" width="24px" height="24px" viewBox="0 0 18 18" version="1.1">
  <g id="surface1">
    <path style=" stroke:none;fill-rule:nonzero;fill:rgb(0%,0%,0%);fill-opacity:1;" d="M 14.113281 14.039062 L 14.113281 9.648438 C 14.113281 9.410156 13.953125 9.214844 13.75 9.214844 L 13.734375 9.214844 L 13.734375 5.457031 L 13.363281 5.457031 C 13.363281 4.835938 13.371094 4.320312 13.371094 3.890625 C 13.386719 2.367188 13.386719 2.007812 13.207031 1.824219 C 13.144531 1.757812 13.0625 1.726562 12.972656 1.726562 C 12.851562 1.726562 12.734375 1.789062 12.582031 1.863281 C 12.449219 1.929688 12.285156 2.015625 12.082031 2.078125 C 10.746094 2.492188 10.589844 3.613281 10.582031 3.664062 L 10.582031 5.457031 L 10.222656 5.457031 L 10.222656 9.214844 L 10.207031 9.214844 C 10.007812 9.214844 9.84375 9.410156 9.84375 9.648438 L 9.84375 14.039062 C 9.84375 14.277344 10.007812 14.472656 10.207031 14.472656 L 13.75 14.472656 C 13.953125 14.472656 14.113281 14.277344 14.113281 14.039062 Z M 13.304688 9.214844 L 10.65625 9.214844 L 10.65625 5.929688 L 13.304688 5.960938 Z M 2.253906 9.792969 C 2.527344 11.785156 2.882812 13.683594 3.257812 14.113281 C 3.53125 14.429688 4.207031 14.472656 4.539062 14.472656 C 4.628906 14.472656 4.695312 14.46875 4.71875 14.46875 C 4.746094 14.46875 4.8125 14.472656 4.902344 14.472656 C 5.234375 14.472656 5.910156 14.429688 6.183594 14.113281 C 6.558594 13.683594 6.914062 11.785156 7.1875 9.792969 C 7.328125 8.785156 6.875 8.308594 6.300781 8.078125 L 6.300781 8.152344 C 6.300781 8.175781 6.296875 8.199219 6.292969 8.222656 C 6.289062 8.269531 6.277344 8.316406 6.265625 8.359375 C 6.425781 8.429688 6.574219 8.527344 6.683594 8.65625 C 6.90625 8.910156 6.984375 9.28125 6.921875 9.753906 C 6.460938 13.082031 6.109375 13.789062 5.980469 13.9375 C 5.835938 14.101562 5.421875 14.203125 4.898438 14.203125 C 4.820312 14.203125 4.757812 14.199219 4.734375 14.199219 L 4.71875 14.195312 L 4.703125 14.199219 C 4.679688 14.199219 4.621094 14.203125 4.539062 14.203125 C 4.015625 14.203125 3.601562 14.097656 3.460938 13.9375 C 3.328125 13.789062 2.976562 13.082031 2.519531 9.753906 C 2.453125 9.28125 2.53125 8.910156 2.753906 8.65625 C 2.847656 8.546875 2.96875 8.460938 3.101562 8.394531 C 3.085938 8.351562 3.078125 8.304688 3.070312 8.257812 C 3.066406 8.222656 3.058594 8.1875 3.058594 8.152344 L 3.058594 8.113281 C 2.523438 8.355469 2.121094 8.835938 2.253906 9.792969 Z M 2.910156 10.253906 C 3.109375 11.839844 3.371094 13.34375 3.644531 13.6875 C 3.847656 13.941406 4.34375 13.972656 4.589844 13.972656 C 4.652344 13.972656 4.699219 13.96875 4.71875 13.96875 C 4.738281 13.96875 4.789062 13.972656 4.851562 13.972656 C 5.097656 13.972656 5.59375 13.941406 5.796875 13.6875 C 6.070312 13.34375 6.328125 11.839844 6.53125 10.253906 C 6.644531 9.378906 6.230469 9.007812 5.753906 8.847656 C 5.699219 8.863281 5.640625 8.871094 5.578125 8.871094 L 3.777344 8.871094 C 3.738281 8.871094 3.695312 8.867188 3.652344 8.859375 C 3.191406 9.023438 2.800781 9.398438 2.910156 10.253906 Z M 3.777344 8.511719 L 5.578125 8.511719 C 5.746094 8.511719 5.886719 8.398438 5.925781 8.242188 C 5.933594 8.214844 5.941406 8.183594 5.941406 8.152344 L 5.941406 4.371094 C 5.941406 4.171875 5.78125 4.007812 5.582031 4.007812 L 3.777344 4.007812 C 3.578125 4.007812 3.417969 4.171875 3.417969 4.371094 L 3.417969 8.148438 C 3.417969 8.1875 3.425781 8.226562 3.4375 8.261719 C 3.484375 8.40625 3.621094 8.511719 3.777344 8.511719 Z M 3.777344 8.511719 "/>
  </g>
</svg>