<?xml version="1.0" encoding="UTF-8" standalone="yes"?>
<svg xmlns="http://www.w3.org/2000/svg" xmlns:xlink="http://www.w3.org/1999/xlink" width="24px" height="24px" viewBox="0 0 18 18" version="1.1">
  <g id="surface1">
    <path style=" stroke:none;fill-rule:nonzero;fill:rgb(0%,0%,0%);fill-opacity:1;" d="M 12.511719 2.511719 L 11.621094 3.523438 L 12.769531 3.835938 Z M 12.910156 4.90625 L 10.96875 4.378906 L 10.066406 7.699219 L 12.148438 7.699219 Z M 4.832031 6.019531 C 4.730469 6.019531 4.617188 6.015625 4.496094 6.003906 L 4.84375 7.699219 L 5.847656 7.699219 L 5.480469 5.90625 C 5.277344 6.003906 5.03125 6.019531 4.832031 6.019531 Z M 7.597656 1.996094 L 9.582031 1.996094 L 9.582031 7.699219 L 7.597656 7.699219 Z M 4.125 7.949219 L 4.125 14.410156 C 4.125 15.289062 4.839844 16.003906 5.71875 16.003906 L 11.703125 16.003906 C 12.585938 16.003906 13.300781 15.289062 13.300781 14.410156 L 13.300781 7.949219 Z M 4.714844 5.769531 C 4.753906 5.769531 4.792969 5.773438 4.832031 5.773438 C 5.105469 5.773438 5.296875 5.730469 5.425781 5.648438 C 5.910156 5.332031 5.394531 4.375 4.167969 2.429688 C 4.167969 2.429688 2.804688 5.613281 4.496094 5.757812 C 4.574219 5.765625 4.644531 5.769531 4.714844 5.769531 Z M 4.714844 5.769531 "/>
  </g>
</svg>