<?xml version="1.0" encoding="utf-8"?>
<!-- Generator: Adobe Illustrator 15.1.0, SVG Export Plug-In . SVG Version: 6.00 Build 0)  -->
<!DOCTYPE svg PUBLIC "-//W3C//DTD SVG 1.1//EN" "http://www.w3.org/Graphics/SVG/1.1/DTD/svg11.dtd">
<svg version="1.1" id="Layer_1" xmlns="http://www.w3.org/2000/svg" xmlns:xlink="http://www.w3.org/1999/xlink" x="0px" y="0px"
	 width="24px" height="24px" viewBox="0 0 24 24" enable-background="new 0 0 24 24" xml:space="preserve">
<path d="M5.705,16.75V9.744l0.381,0.001l0-0.466c0,0-0.529-1.162-0.037-2.943c0-0.376,0-5.154,0-5.154H6.046
	c0-0.005,0.002-0.009,0.002-0.014c0-0.353-0.286-0.64-0.64-0.64c-0.354,0-0.641,0.286-0.641,0.64c0,0.005,0.001,0.008,0.001,0.013
	L4.768,1.181c0,0,0,4.707,0,5.143C5.139,8.479,4.686,9.28,4.686,9.28v0.464h0.38v7.007c-1.709,0.16-3.049,1.598-3.049,3.351
	c0.001,1.861,1.509,3.369,3.369,3.369c1.86,0,3.37-1.508,3.37-3.369C8.754,18.35,7.416,16.912,5.705,16.75z M4.703,18.144
	c0.116,0,0.21,0.094,0.21,0.21c0,0.117-0.095,0.211-0.21,0.211c-0.116,0-0.211-0.094-0.211-0.211
	C4.492,18.237,4.587,18.144,4.703,18.144z M4.317,17.38c0.116,0,0.212,0.094,0.212,0.211c0,0.116-0.095,0.21-0.211,0.21
	s-0.211-0.094-0.211-0.21C4.106,17.474,4.202,17.378,4.317,17.38z M4.655,20.19c0,0.117-0.094,0.211-0.21,0.211
	c-0.116,0-0.211-0.094-0.21-0.211c-0.001-0.116,0.094-0.21,0.21-0.21C4.561,19.98,4.655,20.074,4.655,20.19z M4.107,18.52
	c0.115,0,0.21,0.094,0.211,0.212c-0.001,0.115-0.095,0.209-0.211,0.209s-0.211-0.094-0.21-0.209
	C3.896,18.613,3.991,18.52,4.107,18.52z M3.971,19.396c0,0.114-0.094,0.211-0.211,0.211c-0.115,0-0.21-0.097-0.211-0.211
	c0-0.116,0.095-0.211,0.212-0.211S3.971,19.279,3.971,19.396z M3.76,20.103c0,0.116-0.094,0.212-0.212,0.212
	c-0.115,0-0.21-0.094-0.21-0.212c0-0.116,0.095-0.211,0.21-0.211C3.666,19.892,3.759,19.986,3.76,20.103z M3.508,18.014
	c0.115,0,0.21,0.094,0.21,0.21c0.001,0.115-0.094,0.211-0.21,0.211s-0.212-0.094-0.211-0.211
	C3.296,18.107,3.392,18.014,3.508,18.014z M2.922,18.92c0.116,0,0.211,0.094,0.211,0.209c0,0.116-0.094,0.21-0.211,0.21
	c-0.115,0-0.21-0.094-0.21-0.21C2.712,19.014,2.807,18.92,2.922,18.92z M2.476,20.155c0-0.117,0.095-0.211,0.211-0.211
	c0.117-0.002,0.211,0.094,0.211,0.209c0,0.116-0.094,0.212-0.211,0.212C2.571,20.365,2.476,20.27,2.476,20.155z M2.934,21.486
	c-0.116,0-0.211-0.094-0.211-0.211c0-0.116,0.094-0.21,0.211-0.21c0.115,0,0.21,0.094,0.21,0.21
	C3.145,21.393,3.05,21.486,2.934,21.486z M3.492,22.232c-0.116,0-0.211-0.094-0.211-0.21c0-0.115,0.094-0.213,0.211-0.211
	c0.117,0,0.21,0.094,0.21,0.211C3.703,22.139,3.608,22.232,3.492,22.232z M3.629,20.99c-0.115,0-0.211-0.095-0.211-0.213
	c0-0.114,0.095-0.211,0.211-0.209c0.116-0.002,0.211,0.095,0.211,0.211C3.841,20.894,3.745,20.99,3.629,20.99z M3.897,21.486
	c0-0.116,0.094-0.211,0.211-0.211c0.115,0,0.21,0.095,0.21,0.211s-0.094,0.211-0.211,0.211C3.991,21.697,3.896,21.603,3.897,21.486z
	 M4.317,22.85c-0.115-0.002-0.21-0.094-0.21-0.213c-0.001-0.114,0.094-0.208,0.21-0.208c0.116,0,0.211,0.094,0.211,0.208
	C4.529,22.756,4.434,22.85,4.317,22.85z M4.655,22.098c-0.115,0-0.21-0.095-0.21-0.209c0-0.116,0.094-0.211,0.21-0.211
	c0.117,0,0.212,0.093,0.212,0.211C4.866,22.005,4.772,22.098,4.655,22.098z M4.762,21.065c-0.116,0-0.212-0.095-0.211-0.211
	c-0.001-0.114,0.095-0.211,0.211-0.211c0.116,0,0.21,0.095,0.21,0.211S4.877,21.065,4.762,21.065z M4.762,19.725
	c-0.116,0-0.211-0.094-0.211-0.211c-0.001-0.114,0.095-0.21,0.211-0.21c0.116,0,0.21,0.094,0.21,0.21
	C4.972,19.631,4.877,19.725,4.762,19.725z M7.215,19.339c0.116,0,0.211,0.094,0.211,0.211c0,0.114-0.094,0.211-0.211,0.211
	c-0.116,0-0.21-0.095-0.211-0.211C7.004,19.433,7.099,19.339,7.215,19.339z M6.505,17.414c0.116-0.002,0.212,0.092,0.212,0.21
	c0,0.117-0.095,0.211-0.212,0.211c-0.115,0-0.21-0.094-0.211-0.211C6.295,17.506,6.39,17.412,6.505,17.414z M6.158,18.224
	c0.116,0,0.21,0.095,0.211,0.211c-0.001,0.117-0.095,0.211-0.211,0.211c-0.117,0-0.211-0.094-0.211-0.211
	C5.947,18.318,6.042,18.224,6.158,18.224z M6.417,19.944c0.115,0,0.21,0.093,0.21,0.211c0,0.114-0.095,0.21-0.21,0.21
	c-0.117,0-0.211-0.094-0.211-0.21C6.205,20.038,6.299,19.942,6.417,19.944z M6.099,19.268c0.116,0,0.212,0.094,0.212,0.211
	c0,0.116-0.095,0.212-0.212,0.212c-0.115,0-0.21-0.094-0.21-0.212C5.889,19.361,5.983,19.268,6.099,19.268z M5.437,0.89
	c0.199,0,0.359,0.16,0.359,0.358S5.635,2.123,5.437,2.123c-0.199,0-0.359-0.675-0.359-0.875C5.078,1.049,5.238,0.89,5.437,0.89z
	 M5.428,18.426c-0.116,0-0.21-0.095-0.21-0.209c0-0.119,0.094-0.213,0.21-0.213c0.118,0,0.211,0.094,0.211,0.211
	C5.639,18.331,5.546,18.426,5.428,18.426z M5.597,19.227c0,0.114-0.094,0.21-0.211,0.21c-0.117,0-0.21-0.094-0.211-0.21
	c0.001-0.117,0.095-0.211,0.211-0.213C5.503,19.016,5.597,19.109,5.597,19.227z M5.176,17.354c0-0.114,0.094-0.209,0.211-0.211
	c0.115,0.002,0.21,0.097,0.211,0.213c0,0.114-0.095,0.211-0.211,0.211C5.27,17.566,5.175,17.47,5.176,17.354z M5.387,23.06
	c-0.116-0.001-0.211-0.094-0.211-0.21c0-0.117,0.094-0.213,0.211-0.213c0.115,0.002,0.211,0.095,0.211,0.213
	C5.598,22.966,5.502,23.06,5.387,23.06z M5.387,22.232c-0.117,0-0.211-0.094-0.211-0.21c0-0.117,0.095-0.211,0.211-0.211
	c0.116,0,0.211,0.094,0.211,0.211C5.598,22.139,5.503,22.232,5.387,22.232z M5.52,21.275c-0.116,0-0.21-0.094-0.21-0.21
	c0-0.117,0.094-0.211,0.21-0.211s0.211,0.094,0.211,0.211C5.731,21.182,5.636,21.275,5.52,21.275z M5.428,20.456
	c-0.167,0-0.302-0.136-0.302-0.303s0.135-0.301,0.302-0.301c0.167,0,0.302,0.135,0.302,0.303C5.73,20.32,5.595,20.456,5.428,20.456z
	 M6.1,20.608c0.115,0,0.211,0.094,0.211,0.21c0,0.117-0.095,0.211-0.211,0.211s-0.211-0.092-0.211-0.211
	C5.889,20.702,5.983,20.608,6.1,20.608z M5.889,21.889c0-0.116,0.095-0.211,0.211-0.211s0.211,0.093,0.211,0.211
	c0,0.114-0.095,0.209-0.211,0.209S5.889,22.003,5.889,21.889z M6.417,22.921c-0.117,0-0.213-0.094-0.211-0.211
	c-0.001-0.116,0.093-0.21,0.211-0.21c0.115,0,0.21,0.094,0.21,0.21C6.627,22.827,6.532,22.921,6.417,22.921z M6.715,21.697
	c-0.115,0-0.21-0.095-0.21-0.211c0-0.116,0.095-0.211,0.211-0.211c0.116,0,0.211,0.095,0.211,0.211S6.833,21.697,6.715,21.697z
	 M6.716,19.089c-0.116,0-0.211-0.094-0.211-0.21c0.001-0.117,0.095-0.211,0.211-0.211s0.211,0.094,0.211,0.211
	C6.927,18.995,6.833,19.089,6.716,19.089z M7.003,20.956c0.001-0.116,0.095-0.213,0.211-0.213c0.117,0,0.211,0.095,0.211,0.213
	c0,0.114-0.093,0.211-0.211,0.211C7.099,21.165,7.004,21.07,7.003,20.956z M7.333,22.308c-0.116,0-0.211-0.092-0.21-0.21
	c-0.001-0.117,0.094-0.211,0.21-0.211c0.117,0,0.21,0.094,0.211,0.211C7.543,22.214,7.45,22.308,7.333,22.308z M7.333,20.456
	c-0.116,0-0.211-0.094-0.21-0.211c0-0.116,0.094-0.21,0.21-0.21c0.116-0.002,0.211,0.092,0.211,0.21
	C7.543,20.362,7.45,20.456,7.333,20.456z M7.386,18.435c-0.116,0-0.212-0.094-0.211-0.211c-0.001-0.116,0.094-0.212,0.211-0.212
	c0.115,0,0.21,0.094,0.21,0.212C7.596,18.341,7.5,18.435,7.386,18.435z M8.003,21.33c-0.115,0-0.21-0.094-0.211-0.21
	c0.001-0.117,0.095-0.213,0.211-0.213c0.117,0,0.212,0.094,0.211,0.213C8.215,21.236,8.12,21.33,8.003,21.33z M8.365,20.063
	c0,0.115-0.095,0.211-0.211,0.211c-0.116,0-0.212-0.094-0.211-0.211c0-0.114,0.094-0.21,0.211-0.21
	C8.27,19.853,8.365,19.946,8.365,20.063z M8.154,19.089C8.152,19.206,8.059,19.3,7.942,19.3c-0.116,0.002-0.211-0.094-0.211-0.211
	c0-0.116,0.094-0.21,0.211-0.21S8.152,18.973,8.154,19.089z M12.361,16.309V9.976h0.48V9.499c0,0-0.54-1.191-0.037-3.017
	c0-0.387,0-5.287,0-5.287h-0.002c0-0.004,0.003-0.008,0.003-0.013c-0.001-0.362-0.297-0.657-0.657-0.657
	c-0.363,0-0.658,0.294-0.657,0.657c0,0.005,0,0.009,0,0.013h-0.001c0,0,0.001,4.827,0.001,5.274C11.87,8.68,11.407,9.5,11.407,9.5
	v0.477h0.481v6.315c0,0-1.957,1.561-1.96,2.003c-0.002,0.439-0.014,2.152,0,2.341c0.013,0.191-0.072,2.839,1.11,2.839
	c0.339,0,0.946,0,1.066,0c0.013,0,0.021,0.002,0.021,0.002c0.116-0.002,0.714-0.002,1.065,0c1.115,0,1.099-2.649,1.11-2.841
	c0.014-0.188,0.002-1.901,0-2.341C14.299,17.88,12.578,16.483,12.361,16.309z M10.775,22.848h-0.263l-0.001-4.424h0.265V22.848
	L10.775,22.848z M11.534,22.945h-0.264v-3.751h0.264V22.945z M11.809,1.264c0-0.204,0.165-0.369,0.368-0.368
	c0.204,0,0.37,0.164,0.368,0.368c0.002,0.204-0.164,0.897-0.366,0.897C11.974,2.161,11.809,1.467,11.809,1.264z M11.993,22.945
	v-3.234h0.264l0.001,3.234H11.993z M12.942,22.945h-0.266v-3.751h0.266V22.945z M13.625,22.799h-0.266v-4.424h0.266V22.799z
	 M18.986,11.667h0.25v-0.561c0,0-0.638-1.4-0.045-3.547c0-0.453,0-6.213,0-6.213l-0.002-0.001c0-0.004,0.002-0.009,0.002-0.014
	c0-0.426-0.345-0.772-0.772-0.772c-0.425,0-0.772,0.346-0.772,0.772c0,0.005,0.001,0.009,0.001,0.015h-0.001c0,0,0,5.673,0,6.198
	c0.448,2.6-0.1,3.564-0.1,3.564v0.561h0.31c-0.049,0.939-0.565,2.447-1.119,4.046c-0.663,1.92-1.351,3.905-1.251,5.071
	c0.108,1.26,0.674,1.908,1.132,2.231c0.392,0.278,0.857,0.425,1.312,0.425c0.168,0,0.339-0.021,0.501-0.063l0.229-0.061
	c0.083,0.012,0.164,0.016,0.246,0.018c0.454-0.002,0.919-0.149,1.311-0.426c0.456-0.323,1.024-0.972,1.132-2.231
	c0.1-1.166-0.586-3.151-1.252-5.071C19.564,14.065,19.066,12.611,18.986,11.667z M18.452,0.993c0.242,0,0.436,0.195,0.436,0.433
	c0,0.241-0.194,1.055-0.434,1.055c-0.238,0-0.433-0.814-0.433-1.054C18.021,1.188,18.216,0.993,18.452,0.993z M16.799,22.763
	c-0.403-0.285-0.904-0.864-1.002-2.006c-0.094-1.1,0.581-3.054,1.234-4.943c0.134-0.387,0.267-0.771,0.392-1.143
	c-0.534,2.423-1.181,5.415-1.212,5.838c-0.048,1.392,1.006,2.235,1.648,2.617C17.491,23.11,17.112,22.984,16.799,22.763z
	 M16.521,20.521c0.025-0.327,0.47-2.425,0.925-4.507c-0.269,2.078-0.523,4.155-0.523,4.602c0,0.596,0.569,1.614,1.056,2.222
	C17.394,22.482,16.479,21.732,16.521,20.521z M17.231,20.616c0-0.508,0.354-3.291,0.668-5.671c-0.161,3.593-0.144,4.241-0.123,4.922
	c0.008,0.219,0.014,0.444,0.014,0.773c0,0.872,0.222,1.528,0.409,1.968C17.79,22.086,17.231,21.196,17.231,20.616z M18.397,22.269
	c-0.15-0.402-0.299-0.946-0.299-1.628c0-0.335-0.006-0.561-0.013-0.782c-0.023-0.833-0.046-1.623,0.27-7.947
	c0.023-0.107,0.043-0.186,0.055-0.245h0.04c0.01,0.042,0.019,0.085,0.03,0.136c0.315,6.327,0.294,7.117,0.271,7.948
	c-0.008,0.222-0.015,0.447-0.015,0.782C18.738,21.279,18.563,21.856,18.397,22.269z M18.638,22.502
	c0.188-0.438,0.411-1.097,0.411-1.967c0-0.331,0.006-0.555,0.013-0.774c0.018-0.68,0.039-1.33-0.125-4.921
	c0.316,2.382,0.67,5.163,0.67,5.669C19.605,21.09,19.045,21.979,18.638,22.502z M18.854,22.732c0.173-0.214,0.32-0.438,0.372-0.513
	c0.256-0.394,0.688-1.14,0.687-1.711c0.001-0.447-0.253-2.523-0.522-4.602c0.454,2.082,0.899,4.177,0.925,4.504
	C20.355,21.622,19.438,22.376,18.854,22.732z M21.041,20.649c-0.098,1.142-0.601,1.721-1.003,2.007
	c-0.313,0.222-0.691,0.348-1.061,0.362c0.641-0.382,1.694-1.229,1.647-2.627c-0.031-0.417-0.678-3.404-1.213-5.826
	c0.125,0.37,0.258,0.754,0.393,1.141C20.458,17.596,21.134,19.552,21.041,20.649z"/>
</svg>
