<?xml version="1.0" encoding="utf-8"?>
<!-- Generator: Adobe Illustrator 15.1.0, SVG Export Plug-In . SVG Version: 6.00 Build 0)  -->
<!DOCTYPE svg PUBLIC "-//W3C//DTD SVG 1.1//EN" "http://www.w3.org/Graphics/SVG/1.1/DTD/svg11.dtd">
<svg version="1.1" id="Layer_1" xmlns="http://www.w3.org/2000/svg" xmlns:xlink="http://www.w3.org/1999/xlink" x="0px" y="0px"
	 width="24px" height="24px" viewBox="0 0 24 24" enable-background="new 0 0 24 24" xml:space="preserve">
<path fill="#010002" d="M7.995,16.961l2.857-5.056v10.626h-7.57V11.905h4.44l-2.276,4.039l1.733-0.307L7.995,16.961z M10.716,11.06
	H2.029L2.017,6.837h4.627C5.964,6.487,5.472,6.056,5.16,5.565C4.91,5.175,4.795,4.742,4.795,4.333c0-0.707,0.328-1.695,0.795-2.134
	c0.469-0.44,1.097-0.73,1.779-0.73c0.689,0,1.33,0.236,1.876,0.606c0.549,0.36,1.017,0.855,1.406,1.413
	c0.226,0.32,0.422,1.024,0.59,1.375l0.069-0.138c0.461-0.91,1.104-2.105,1.929-2.65c0.546-0.37,1.184-0.606,1.873-0.606
	c0.648,0,1.251,0.236,1.705,0.631c0.453,0.396,0.764,1.338,0.764,2.002c0.004,0.806-0.472,1.615-1.365,2.255
	c-0.232,0.168-0.495,0.328-0.788,0.48h5.027l0.012,4.222h-8.694V6.837h-1.057V11.06L10.716,11.06z M11.998,6.582
	c1.708-0.333,2.817-0.814,3.458-1.276c0.675-0.489,0.823-1.159,0.827-1.449c0-0.242-0.108-0.589-0.324-0.779
	c-0.211-0.187-0.518-0.313-0.842-0.313h-0.004C14.73,2.767,14.343,2.9,13.959,3.153c-0.38,0.257-0.751,0.993-1.065,1.44
	C12.477,5.188,12.164,5.908,11.998,6.582z M10.465,6.489c-0.104-0.391-0.251-0.794-0.448-1.174C9.643,4.559,9.101,3.531,8.524,3.153
	C8.139,2.9,7.759,2.767,7.37,2.765H7.364c-0.303,0-0.632,0.145-0.882,0.378C6.233,3.378,6.087,3.879,6.091,4.16
	c0,0.173,0.044,0.518,0.168,0.719c0.127,0.192,0.339,0.416,0.684,0.637C7.596,5.928,8.726,6.31,10.465,6.489z M17.05,15.93
	l-1.73-0.292l-0.817,1.347l-2.817-5.01v10.557h7.529V11.905h-4.438L17.05,15.93z"/>
</svg>
