<?xml version="1.0" encoding="UTF-8" standalone="yes"?>
<svg xmlns="http://www.w3.org/2000/svg" xmlns:xlink="http://www.w3.org/1999/xlink" width="24px" height="24px" viewBox="0 0 18 18" version="1.1">
  <g id="surface1">
    <path style=" stroke:none;fill-rule:nonzero;fill:rgb(0%,0%,0%);fill-opacity:1;" d="M 9.574219 1.152344 C 9.351562 1.152344 9.128906 1.160156 8.910156 1.179688 L 8.910156 2.929688 C 8.910156 3.355469 8.574219 3.710938 8.148438 3.734375 C 7.574219 3.765625 7.019531 3.898438 6.5 4.132812 C 5.980469 4.367188 5.507812 4.691406 5.101562 5.101562 C 4.691406 5.507812 4.367188 5.980469 4.132812 6.5 C 3.898438 7.019531 3.765625 7.574219 3.734375 8.148438 C 3.710938 8.574219 3.355469 8.910156 2.929688 8.910156 L 1.179688 8.910156 C 1.160156 9.128906 1.152344 9.351562 1.152344 9.574219 C 1.152344 14.226562 4.925781 18 9.574219 18 C 14.226562 18 18 14.226562 18 9.574219 C 18 4.925781 14.226562 1.152344 9.574219 1.152344 Z M 13.191406 13.191406 C 12.226562 14.160156 10.941406 14.691406 9.574219 14.691406 C 8.210938 14.691406 6.925781 14.160156 5.960938 13.191406 C 4.992188 12.226562 4.460938 10.941406 4.460938 9.574219 C 4.460938 8.210938 4.992188 6.925781 5.960938 5.960938 C 6.925781 4.992188 8.210938 4.460938 9.574219 4.460938 C 10.941406 4.460938 12.226562 4.992188 13.191406 5.960938 C 14.160156 6.925781 14.691406 8.210938 14.691406 9.574219 C 14.691406 10.941406 14.160156 12.226562 13.191406 13.191406 Z M 13.191406 13.191406 "/>
    <path style=" stroke:none;fill-rule:nonzero;fill:rgb(0%,0%,0%);fill-opacity:1;" d="M 9.574219 5.445312 C 7.296875 5.445312 5.445312 7.296875 5.445312 9.574219 C 5.445312 11.855469 7.296875 13.707031 9.574219 13.707031 C 11.855469 13.707031 13.707031 11.855469 13.707031 9.574219 C 13.707031 7.296875 11.855469 5.445312 9.574219 5.445312 Z M 9.574219 6.335938 C 9.832031 6.335938 10.039062 6.542969 10.039062 6.800781 C 10.039062 7.054688 9.832031 7.261719 9.574219 7.261719 C 9.320312 7.261719 9.113281 7.054688 9.113281 6.800781 C 9.113281 6.542969 9.320312 6.335938 9.574219 6.335938 Z M 6.773438 10.066406 C 6.515625 10.066406 6.308594 9.859375 6.308594 9.601562 C 6.308594 9.347656 6.515625 9.140625 6.773438 9.140625 C 7.027344 9.140625 7.234375 9.347656 7.234375 9.601562 C 7.234375 9.859375 7.027344 10.066406 6.773438 10.066406 Z M 9.574219 12.871094 C 9.320312 12.871094 9.113281 12.660156 9.113281 12.40625 C 9.113281 12.152344 9.320312 11.945312 9.574219 11.945312 C 9.832031 11.945312 10.039062 12.152344 10.039062 12.40625 C 10.039062 12.660156 9.832031 12.871094 9.574219 12.871094 Z M 9.574219 11.050781 C 8.761719 11.050781 8.101562 10.390625 8.101562 9.574219 C 8.101562 8.761719 8.761719 8.101562 9.574219 8.101562 C 10.390625 8.101562 11.050781 8.761719 11.050781 9.574219 C 11.050781 10.390625 10.390625 11.050781 9.574219 11.050781 Z M 12.839844 9.601562 C 12.839844 9.859375 12.632812 10.066406 12.378906 10.066406 C 12.125 10.066406 11.917969 9.859375 11.917969 9.601562 C 11.917969 9.347656 12.125 9.140625 12.378906 9.140625 C 12.632812 9.140625 12.839844 9.347656 12.839844 9.601562 Z M 12.839844 9.601562 "/>
    <path style=" stroke:none;fill-rule:nonzero;fill:rgb(0%,0%,0%);fill-opacity:1;" d="M 0.316406 8.417969 L 2.929688 8.417969 C 3.09375 8.417969 3.234375 8.285156 3.242188 8.121094 C 3.3125 6.847656 3.84375 5.660156 4.753906 4.753906 C 5.660156 3.84375 6.847656 3.3125 8.121094 3.242188 C 8.285156 3.234375 8.417969 3.09375 8.417969 2.929688 L 8.417969 0.316406 C 8.417969 0.140625 8.277344 0 8.105469 0 C 8.101562 0 8.097656 0 8.09375 0 C 3.699219 0.167969 0.167969 3.699219 0 8.09375 C -0.0078125 8.269531 0.136719 8.417969 0.316406 8.417969 Z M 0.316406 8.417969 "/>
  </g>
</svg>