<?xml version="1.0" encoding="utf-8"?>
<!-- Generator: Adobe Illustrator 15.1.0, SVG Export Plug-In . SVG Version: 6.00 Build 0)  -->
<!DOCTYPE svg PUBLIC "-//W3C//DTD SVG 1.1//EN" "http://www.w3.org/Graphics/SVG/1.1/DTD/svg11.dtd">
<svg version="1.1" id="Layer_1" xmlns="http://www.w3.org/2000/svg" xmlns:xlink="http://www.w3.org/1999/xlink" x="0px" y="0px"
	 width="24px" height="24px" viewBox="0 0 24 24" enable-background="new 0 0 24 24" xml:space="preserve">
<path fill="#010002" d="M9.869,8.702H6.55V6.072h0.929V4.616H1.417v1.457h0.929v4.05c0,0.545,0.236,1,0.708,1.367
	c0.473,0.369,1.033,0.551,1.682,0.551h5.134v0.71h1.814v-4.76H9.869V8.702L9.869,8.702z M21.622,14.67v-4.05
	c0-0.545-0.235-1-0.707-1.367c-0.472-0.367-1.033-0.551-1.682-0.551H14.1V7.991h-1.815v4.76H14.1v-0.71h3.318v2.629h-0.93v1.421
	h6.063V14.67H21.622z M21.18,20.069c0-0.213-0.141-0.551-0.421-1.013c-0.279-0.461-0.56-0.869-0.84-1.225l-0.421-0.533
	c-1.092,1.349-1.637,2.273-1.637,2.771c0,0.355,0.162,0.663,0.486,0.923c0.325,0.262,0.716,0.393,1.173,0.393
	s0.849-0.131,1.173-0.393C21.019,20.732,21.18,20.425,21.18,20.069z"/>
</svg>
