<?xml version="1.0" encoding="UTF-8" standalone="yes"?>
<svg xmlns="http://www.w3.org/2000/svg" xmlns:xlink="http://www.w3.org/1999/xlink" width="24px" height="24px" viewBox="0 0 18 18" version="1.1">
  <g id="surface1">
    <path style=" stroke:none;fill-rule:nonzero;fill:rgb(0%,0%,0%);fill-opacity:1;" d="M 0.667969 8.507812 L 4.671875 8.507812 L 4.671875 17.847656 L 0.667969 17.847656 Z M 0.667969 8.507812 "/>
    <path style=" stroke:none;fill-rule:nonzero;fill:rgb(0%,0%,0%);fill-opacity:1;" d="M 8.671875 0.832031 L 18.011719 0.832031 L 18.011719 4.503906 L 8.671875 4.503906 Z M 8.671875 0.832031 "/>
    <path style=" stroke:none;fill-rule:nonzero;fill:rgb(0%,0%,0%);fill-opacity:1;" d="M 7.003906 0.832031 C 7.003906 0.832031 5.058594 0.832031 3.863281 0.832031 C 0.667969 0.832031 0.667969 3.835938 0.667969 3.835938 L 0.667969 6.839844 L 0 6.839844 L 0 7.839844 L 5.335938 7.839844 L 5.335938 6.839844 L 4.671875 6.839844 L 4.671875 5.585938 C 4.671875 5.585938 4.558594 4.503906 5.671875 4.503906 C 6.78125 4.503906 7.003906 4.503906 7.003906 4.503906 L 7.003906 5.171875 L 8.003906 5.171875 L 8.003906 0.167969 L 7.003906 0.167969 Z M 7.003906 0.832031 "/>
  </g>
</svg>