<?xml version="1.0" encoding="UTF-8" standalone="yes"?>
<svg xmlns="http://www.w3.org/2000/svg" xmlns:xlink="http://www.w3.org/1999/xlink" width="24px" height="24px" viewBox="0 0 18 18" version="1.1">
  <g id="surface1">
    <path style=" stroke:none;fill-rule:nonzero;fill:rgb(0%,0%,0%);fill-opacity:1;" d="M 8.289062 10.230469 L 9.699219 10.230469 L 9.699219 16.226562 L 8.289062 16.226562 Z M 8.289062 10.230469 "/>
    <path style=" stroke:none;fill-rule:nonzero;fill:rgb(0%,0%,0%);fill-opacity:1;" d="M 11.109375 10.230469 L 11.109375 11.246094 C 10.734375 11.378906 10.464844 11.730469 10.464844 12.148438 C 10.464844 12.679688 10.894531 13.109375 11.421875 13.109375 C 11.953125 13.109375 12.382812 12.679688 12.382812 12.148438 C 12.382812 11.761719 12.148438 11.429688 11.816406 11.277344 L 11.816406 10.230469 Z M 11.109375 10.230469 "/>
    <path style=" stroke:none;fill-rule:nonzero;fill:rgb(0%,0%,0%);fill-opacity:1;" d="M 9.699219 9.523438 L 15.929688 9.523438 L 15.136719 0 L 2.851562 0 L 2.058594 9.523438 Z M 9.699219 9.523438 "/>
    <path style=" stroke:none;fill-rule:nonzero;fill:rgb(0%,0%,0%);fill-opacity:1;" d="M 4.410156 17.28125 L 4.410156 17.636719 C 4.410156 17.828125 4.566406 17.988281 4.761719 17.988281 L 12.875 17.988281 C 13.070312 17.988281 13.226562 17.828125 13.226562 17.636719 L 13.226562 17.28125 C 13.226562 17.089844 13.070312 16.929688 12.875 16.929688 L 4.761719 16.929688 C 4.566406 16.929688 4.410156 17.089844 4.410156 17.28125 Z M 4.410156 17.28125 "/>
  </g>
</svg>