<?xml version="1.0" encoding="UTF-8" standalone="yes"?>
<svg xmlns="http://www.w3.org/2000/svg" xmlns:xlink="http://www.w3.org/1999/xlink" width="24px" height="24px" viewBox="0 0 18 18" version="1.1">
  <g id="surface1">
    <path style=" stroke:none;fill-rule:nonzero;fill:rgb(0%,0%,0%);fill-opacity:1;" d="M 15.195312 2.359375 C 15.1875 2.34375 15.175781 2.328125 15.15625 2.316406 L 14.152344 1.683594 C 14.105469 1.65625 14.046875 1.664062 14.007812 1.703125 L 13.785156 1.953125 L 13.5625 1.199219 C 13.554688 1.175781 13.539062 1.15625 13.523438 1.140625 L 12.25 0.175781 C 12.21875 0.152344 12.175781 0.148438 12.140625 0.164062 L 10.96875 0.664062 L 9.640625 0.878906 L 8.488281 0.320312 C 8.484375 0.316406 8.480469 0.3125 8.472656 0.3125 L 7.523438 0.00390625 C 7.488281 -0.00390625 7.453125 0 7.421875 0.0234375 L 6.585938 0.640625 L 5.507812 0.605469 C 5.484375 0.605469 5.460938 0.613281 5.441406 0.625 L 4.269531 1.445312 C 4.238281 1.464844 4.21875 1.5 4.21875 1.535156 L 4.21875 1.902344 L 3.449219 2.539062 C 3.449219 2.542969 3.445312 2.546875 3.441406 2.546875 L 1.867188 4.175781 L 16.164062 4.183594 Z M 15.195312 2.359375 "/>
    <path style=" stroke:none;fill-rule:nonzero;fill:rgb(0%,0%,0%);fill-opacity:1;" d="M 16.679688 5.003906 L 1.335938 5.003906 C 1.128906 5.003906 0.960938 5.171875 0.960938 5.378906 L 0.960938 9.238281 C 0.960938 9.28125 0.96875 9.324219 0.984375 9.367188 L 2.441406 13.359375 C 2.496094 13.507812 2.636719 13.605469 2.792969 13.605469 L 15.222656 13.605469 C 15.378906 13.605469 15.519531 13.507812 15.574219 13.359375 L 17.03125 9.367188 C 17.046875 9.324219 17.054688 9.28125 17.054688 9.238281 L 17.054688 5.378906 C 17.054688 5.171875 16.886719 5.003906 16.679688 5.003906 Z M 14.460938 10.242188 C 14.460938 10.347656 14.375 10.429688 14.273438 10.429688 L 3.742188 10.429688 C 3.636719 10.429688 3.554688 10.347656 3.554688 10.242188 L 3.554688 9.492188 C 3.554688 9.386719 3.636719 9.304688 3.742188 9.304688 L 14.273438 9.304688 C 14.375 9.304688 14.460938 9.386719 14.460938 9.492188 Z M 14.460938 7.40625 C 14.460938 7.511719 14.375 7.59375 14.273438 7.59375 L 3.742188 7.59375 C 3.636719 7.59375 3.554688 7.511719 3.554688 7.40625 L 3.554688 6.65625 C 3.554688 6.550781 3.636719 6.46875 3.742188 6.46875 L 14.273438 6.46875 C 14.375 6.46875 14.460938 6.550781 14.460938 6.65625 Z M 14.460938 7.40625 "/>
    <path style=" stroke:none;fill-rule:nonzero;fill:rgb(0%,0%,0%);fill-opacity:1;" d="M 16.085938 14.546875 L 1.929688 14.546875 C 1.621094 14.546875 1.367188 14.800781 1.367188 15.109375 C 1.367188 15.421875 1.621094 15.675781 1.929688 15.675781 L 2.785156 15.675781 C 2.675781 15.890625 2.613281 16.140625 2.613281 16.398438 C 2.613281 17.292969 3.335938 18.015625 4.226562 18.015625 C 5.117188 18.015625 5.839844 17.292969 5.839844 16.398438 C 5.839844 16.140625 5.777344 15.890625 5.667969 15.675781 L 6.988281 15.675781 L 6.988281 16.675781 C 6.988281 16.78125 7.074219 16.863281 7.175781 16.863281 L 10.835938 16.863281 C 10.941406 16.863281 11.023438 16.78125 11.023438 16.675781 L 11.023438 15.675781 L 12.347656 15.675781 C 12.234375 15.890625 12.171875 16.140625 12.171875 16.398438 C 12.171875 17.292969 12.894531 18.015625 13.789062 18.015625 C 14.679688 18.015625 15.402344 17.292969 15.402344 16.398438 C 15.402344 16.140625 15.339844 15.890625 15.230469 15.675781 L 16.082031 15.675781 C 16.394531 15.675781 16.648438 15.421875 16.648438 15.109375 C 16.648438 14.800781 16.394531 14.546875 16.085938 14.546875 Z M 16.085938 14.546875 "/>
  </g>
</svg>