<?xml version="1.0" encoding="utf-8"?>
<!-- Generator: Adobe Illustrator 15.1.0, SVG Export Plug-In . SVG Version: 6.00 Build 0)  -->
<!DOCTYPE svg PUBLIC "-//W3C//DTD SVG 1.1//EN" "http://www.w3.org/Graphics/SVG/1.1/DTD/svg11.dtd">
<svg version="1.1"
	 id="Layer_1" inkscape:version="0.48.5 r10040" sodipodi:docname="bank-kar-afarin.svg" xmlns:dc="http://purl.org/dc/elements/1.1/" xmlns:cc="http://creativecommons.org/ns#" xmlns:rdf="http://www.w3.org/1999/02/22-rdf-syntax-ns#" xmlns:svg="http://www.w3.org/2000/svg" xmlns:sodipodi="http://sodipodi.sourceforge.net/DTD/sodipodi-0.dtd" xmlns:inkscape="http://www.inkscape.org/namespaces/inkscape"
	 xmlns="http://www.w3.org/2000/svg" xmlns:xlink="http://www.w3.org/1999/xlink" x="0px" y="0px" width="24px" height="24px"
	 viewBox="0 0 24 24" enable-background="new 0 0 24 24" xml:space="preserve">
<path d="M21.272,8.276L17.2,12.204l-0.834-0.887l3.08-2.972c0.299-0.286,0.306-0.762,0.02-1.06l-2.75-2.854
	c-0.141-0.143-0.329-0.226-0.528-0.228c-0.199-0.005-0.392,0.071-0.534,0.208l-2.428,2.341l2.11,2.184
	c0.17,0.18,0.158,0.478-0.023,0.654c-0.126,0.122-0.313,0.16-0.47,0.107l-3.059-3.242l4.003-3.862
	c0.242-0.232,0.632-0.219,0.865,0.022l4.627,4.797C21.513,7.654,21.513,8.043,21.272,8.276z M7.449,19.916
	c-0.142,0.139-0.334,0.215-0.532,0.209c-0.2-0.004-0.39-0.086-0.527-0.227l-2.751-2.855c-0.286-0.299-0.278-0.768,0.02-1.057
	l1.265,1.314c0.173,0.182,0.46,0.186,0.641,0.014c0.181-0.172,0.184-0.457,0.01-0.639L4.31,15.357l0.336-0.326l1.265,1.316
	c0.174,0.18,0.46,0.186,0.642,0.012c0.18-0.174,0.185-0.459,0.01-0.641l-1.264-1.313l0.337-0.326l1.264,1.313
	c0.174,0.182,0.462,0.186,0.641,0.014c0.183-0.174,0.185-0.459,0.013-0.641l-1.266-1.313l0.337-0.326l1.266,1.313
	c0.172,0.184,0.459,0.188,0.64,0.014c0.068-0.064,0.111-0.146,0.129-0.229l-2.341-2.489l-4.482,4.321
	c-0.241,0.232-0.241,0.623-0.008,0.863l4.625,4.799c0.233,0.242,0.623,0.254,0.863,0.02l4.415-4.256l-0.834-0.885L7.449,19.916z
	 M15.534,8.124c-0.583-0.603-0.567-1.569,0.038-2.15c0.603-0.583,1.568-0.565,2.149,0.038c0.584,0.604,0.563,1.57-0.039,2.151
	C17.082,8.746,16.117,8.728,15.534,8.124z M16.188,7.496c0.234,0.24,0.621,0.247,0.867,0.014c0.242-0.234,0.247-0.623,0.014-0.865
	c-0.235-0.242-0.621-0.251-0.865-0.018C15.959,6.862,15.952,7.25,16.188,7.496z M18.645,15.285l-3.982,3.752L5.788,9.621L9.771,5.87
	L18.645,15.285z M10.439,8.496c0.002-0.09-0.03-0.179-0.094-0.245L9.912,7.792C9.783,7.656,9.565,7.649,9.429,7.777L9.193,7.999
	C9.055,8.125,9.049,8.345,9.177,8.481l0.433,0.462C9.672,9.009,9.758,9.049,9.85,9.05c0.091,0.004,0.481-0.314,0.481-0.314
	C10.396,8.673,10.435,8.586,10.439,8.496z M16.604,15.393c0.14-0.131,0.146-0.348,0.014-0.486l-4.984-5.289
	c-0.063-0.067-0.147-0.105-0.24-0.107c-0.089-0.004-0.179,0.03-0.244,0.092l-0.235,0.223c-0.139,0.129-0.146,0.346-0.016,0.483
	l4.986,5.291c0.063,0.064,0.147,0.105,0.24,0.107c0.091,0.004,0.179-0.031,0.245-0.094L16.604,15.393z M5.385,9.193l3.981-3.754
	L8.339,4.348L4.357,8.103L5.385,9.193z M2.582,6.216C2.365,5.987,2.25,5.684,2.259,5.369c0.01-0.314,0.143-0.61,0.372-0.826
	l2.256-2.126c0.476-0.452,1.225-0.429,1.674,0.048l1.399,1.484L3.979,7.7L2.582,6.216z M3.292,5.4l0.73,0.777l2.414-2.274
	L5.704,3.127L3.292,5.4z M20.663,20.645c0.068,0.217,0.007,0.453-0.156,0.607c-0.165,0.156-0.403,0.201-0.614,0.121l-4.728-1.805
	l3.979-3.752L20.663,20.645z M19.401,19.025l-0.599-1.898l-2.312,2.18l1.86,0.709L19.401,19.025z"/>
</svg>
