<?xml version="1.0" encoding="utf-8"?>
<!-- Generator: Adobe Illustrator 15.1.0, SVG Export Plug-In . SVG Version: 6.00 Build 0)  -->
<!DOCTYPE svg PUBLIC "-//W3C//DTD SVG 1.1//EN" "http://www.w3.org/Graphics/SVG/1.1/DTD/svg11.dtd">
<svg version="1.1" id="Layer_1" xmlns="http://www.w3.org/2000/svg" xmlns:xlink="http://www.w3.org/1999/xlink" x="0px" y="0px"
	 width="24px" height="24px" viewBox="0 0 24 24" enable-background="new 0 0 24 24" xml:space="preserve">
<path d="M22.198,3.459c-1.852-1.851-5.333-1.851-8.635-0.153c-0.12,1.618,0.487,3.349,1.803,4.664
	c1.034,1.033,2.321,1.626,3.612,1.779C21.491,6.716,22.812,4.074,22.198,3.459z M18.708,4.628c-0.284,0.284-0.746,0.284-1.028,0.001
	c-0.285-0.284-0.285-0.746,0-1.029c0.282-0.285,0.744-0.285,1.028,0C18.992,3.884,18.992,4.345,18.708,4.628z M12.367,4.002
	c-0.244,0.159-0.484,0.327-0.724,0.505l-0.565-0.299c-0.495-0.258-1.102-0.168-1.496,0.225L5.6,8.416
	C5.313,8.704,5.183,9.112,5.245,9.513c0.062,0.4,0.311,0.749,0.669,0.938l0.904,0.473c-0.905,2.11-1.396,4.177-1.53,5.487
	l-3.931,1.353c-0.177,0.061-0.3,0.222-0.31,0.409c-0.01,0.188,0.094,0.362,0.264,0.44l1.714,0.808
	c0.335,0.157,0.604,0.428,0.763,0.764l0.807,1.714c0.08,0.168,0.254,0.272,0.441,0.264c0.187-0.011,0.35-0.134,0.41-0.31
	l1.354-3.938c1.846-0.304,5.048-1.716,7.829-3.84l0.31,0.961c0.058,0.174,0.2,0.305,0.378,0.348s0.362-0.012,0.493-0.14l0.332-0.335
	c0.256-0.256,0.414-0.597,0.439-0.958l0.118-1.69c0.484-0.49,0.945-0.979,1.38-1.464c-1.281-0.298-2.524-0.961-3.552-1.987
	C13.169,7.45,12.442,5.711,12.367,4.002z"/>
</svg>
