<?xml version="1.0" encoding="UTF-8" standalone="yes"?>
<svg xmlns="http://www.w3.org/2000/svg" xmlns:xlink="http://www.w3.org/1999/xlink" width="24px" height="24px" viewBox="0 0 18 18" version="1.1">
  <g id="surface1">
    <path style=" stroke:none;fill-rule:nonzero;fill:rgb(0.392157%,0%,0.784314%);fill-opacity:1;" d="M 10.328125 1.347656 C 9.644531 0.660156 8.5625 0.625 7.828125 1.226562 C 7.777344 1.265625 7.726562 1.300781 7.679688 1.347656 L 0.273438 8.753906 C -0.0898438 9.117188 -0.0898438 9.710938 0.273438 10.078125 C 0.320312 10.125 0.371094 10.164062 0.421875 10.199219 C 0.578125 10.300781 0.757812 10.351562 0.9375 10.351562 C 1.117188 10.351562 1.25 10.296875 1.40625 10.191406 C 1.457031 10.160156 1.476562 10.125 1.523438 10.078125 L 2.058594 9.464844 L 2.058594 13.746094 C 2.058594 15.636719 3.878906 17.199219 5.855469 17.199219 L 12.453125 17.199219 C 14.386719 17.199219 15.808594 15.667969 15.808594 13.746094 L 15.808594 9.625 L 16.335938 10.078125 C 16.519531 10.261719 16.796875 10.351562 17.039062 10.351562 C 17.277344 10.351562 17.539062 10.261719 17.71875 10.078125 C 18.085938 9.710938 18.097656 9.117188 17.730469 8.753906 Z M 13.933594 13.746094 C 13.933594 14.632812 13.355469 15.324219 12.453125 15.324219 L 5.855469 15.324219 C 4.914062 15.324219 3.933594 14.605469 3.933594 13.746094 L 3.933594 7.589844 L 8.855469 2.671875 L 13.933594 7.75 Z M 13.933594 13.746094 "/>
    <path style=" stroke:none;fill-rule:nonzero;fill:rgb(0.392157%,0%,0.784314%);fill-opacity:1;" d="M 5.371094 9.777344 C 5.371094 9.847656 5.375 9.914062 5.378906 9.984375 C 5.394531 10.109375 5.417969 10.226562 5.449219 10.34375 C 5.453125 10.363281 5.457031 10.382812 5.464844 10.402344 C 5.46875 10.417969 5.472656 10.433594 5.480469 10.449219 C 6.078125 12.371094 9.007812 13.871094 9.007812 13.871094 C 9.007812 13.871094 11.9375 12.367188 12.539062 10.449219 C 12.542969 10.433594 12.546875 10.417969 12.550781 10.402344 C 12.558594 10.382812 12.5625 10.363281 12.566406 10.34375 C 12.597656 10.226562 12.625 10.109375 12.636719 9.984375 C 12.640625 9.914062 12.644531 9.847656 12.644531 9.777344 C 12.644531 8.585938 11.679688 7.621094 10.492188 7.621094 C 9.914062 7.621094 9.394531 7.847656 9.007812 8.214844 C 8.621094 7.847656 8.101562 7.621094 7.527344 7.621094 C 6.335938 7.621094 5.371094 8.585938 5.371094 9.777344 Z M 5.371094 9.777344 "/>
  </g>
</svg>