<?xml version="1.0" encoding="UTF-8" standalone="yes"?>
<svg xmlns="http://www.w3.org/2000/svg" xmlns:xlink="http://www.w3.org/1999/xlink" width="24px" height="24px" viewBox="0 0 18 18" version="1.1">
  <g id="surface1">
    <path style=" stroke:none;fill-rule:nonzero;fill:rgb(0%,0%,0%);fill-opacity:1;" d="M 17.105469 14.359375 C 17.105469 14.078125 16.660156 13.847656 16.117188 13.847656 C 16.117188 13.847656 15.78125 13.847656 15.371094 13.847656 C 14.960938 13.847656 14.648438 13.78125 14.660156 13.695312 C 14.667969 13.648438 14.671875 13.597656 14.671875 13.542969 L 14.671875 9.753906 C 14.671875 9.207031 14.789062 8.765625 14.929688 8.765625 C 15.074219 8.765625 15.1875 8.535156 15.1875 8.25 C 15.1875 8.222656 15.183594 8.195312 15.175781 8.171875 C 15.160156 8.128906 15.359375 8.097656 15.628906 8.097656 L 16.117188 8.097656 C 16.660156 8.097656 17.105469 7.78125 17.105469 7.394531 C 17.105469 7.003906 16.726562 6.460938 16.257812 6.183594 L 9.878906 2.363281 C 9.410156 2.082031 8.648438 2.082031 8.179688 2.363281 L 1.800781 6.183594 C 1.332031 6.464844 0.953125 7.003906 0.953125 7.394531 C 0.953125 7.78125 1.394531 8.097656 1.941406 8.097656 C 1.941406 8.097656 2.160156 8.097656 2.429688 8.097656 C 2.699219 8.097656 2.898438 8.128906 2.882812 8.171875 C 2.875 8.195312 2.871094 8.222656 2.871094 8.25 C 2.871094 8.535156 2.984375 8.765625 3.125 8.765625 C 3.269531 8.765625 3.382812 9.207031 3.382812 9.753906 L 3.382812 13.542969 C 3.382812 13.597656 3.390625 13.648438 3.394531 13.695312 C 3.410156 13.78125 3.09375 13.847656 2.683594 13.847656 L 1.941406 13.847656 C 1.394531 13.847656 0.953125 14.078125 0.953125 14.359375 C 0.953125 14.644531 0.738281 14.875 0.476562 14.875 C 0.214844 14.875 0 15.105469 0 15.390625 C 0 15.675781 0.441406 15.90625 0.988281 15.90625 L 17.070312 15.90625 C 17.617188 15.90625 18.058594 15.675781 18.058594 15.390625 C 18.058594 15.105469 17.84375 14.875 17.582031 14.875 C 17.316406 14.875 17.105469 14.644531 17.105469 14.359375 Z M 13.027344 9.753906 L 13.027344 13.542969 C 13.027344 13.59375 13.03125 13.648438 13.035156 13.695312 C 13.050781 13.78125 12.613281 13.84375 12.050781 13.84375 L 10.828125 13.84375 C 10.265625 13.84375 9.828125 13.78125 9.839844 13.695312 C 9.847656 13.648438 9.851562 13.59375 9.851562 13.542969 L 9.851562 9.753906 C 9.851562 9.207031 9.96875 8.765625 10.109375 8.765625 C 10.253906 8.765625 10.367188 8.535156 10.367188 8.25 C 10.367188 8.222656 10.363281 8.195312 10.355469 8.171875 C 10.339844 8.128906 10.777344 8.097656 11.339844 8.097656 L 11.539062 8.097656 C 12.101562 8.097656 12.539062 8.128906 12.523438 8.171875 C 12.515625 8.195312 12.507812 8.222656 12.507812 8.25 C 12.507812 8.53125 12.625 8.765625 12.765625 8.765625 C 12.910156 8.765625 13.027344 9.207031 13.027344 9.753906 Z M 5.03125 9.753906 C 5.03125 9.207031 5.148438 8.765625 5.289062 8.765625 C 5.433594 8.765625 5.546875 8.535156 5.546875 8.25 C 5.546875 8.222656 5.542969 8.195312 5.53125 8.171875 C 5.519531 8.128906 5.953125 8.097656 6.515625 8.097656 L 6.71875 8.097656 C 7.28125 8.097656 7.71875 8.128906 7.703125 8.171875 C 7.695312 8.195312 7.691406 8.222656 7.691406 8.25 C 7.691406 8.53125 7.804688 8.765625 7.949219 8.765625 C 8.089844 8.765625 8.203125 9.207031 8.203125 9.753906 L 8.203125 13.542969 C 8.203125 13.59375 8.210938 13.648438 8.214844 13.695312 C 8.230469 13.78125 7.792969 13.84375 7.230469 13.84375 L 6.007812 13.84375 C 5.445312 13.84375 5.007812 13.78125 5.019531 13.695312 C 5.027344 13.648438 5.03125 13.59375 5.03125 13.542969 Z M 5.03125 9.753906 "/>
  </g>
</svg>