<?xml version="1.0" encoding="UTF-8" standalone="no"?>
<!-- Generated by IcoMoon.io -->

<svg
   xmlns:dc="http://purl.org/dc/elements/1.1/"
   xmlns:cc="http://creativecommons.org/ns#"
   xmlns:rdf="http://www.w3.org/1999/02/22-rdf-syntax-ns#"
   xmlns:svg="http://www.w3.org/2000/svg"
   xmlns="http://www.w3.org/2000/svg"
   xmlns:sodipodi="http://sodipodi.sourceforge.net/DTD/sodipodi-0.dtd"
   xmlns:inkscape="http://www.inkscape.org/namespaces/inkscape"
   version="1.1"
   width="24"
   height="24"
   viewBox="0 0 24 24"
   id="svg3117"
   inkscape:version="0.48.5 r10040"
   sodipodi:docname="male.svg">
  <metadata
     id="metadata3125">
    <rdf:RDF>
      <cc:Work
         rdf:about="">
        <dc:format>image/svg+xml</dc:format>
        <dc:type
           rdf:resource="http://purl.org/dc/dcmitype/StillImage" />
      </cc:Work>
    </rdf:RDF>
  </metadata>
  <defs
     id="defs3123" />
  <sodipodi:namedview
     pagecolor="#ffffff"
     bordercolor="#666666"
     borderopacity="1"
     objecttolerance="10"
     gridtolerance="10"
     guidetolerance="10"
     inkscape:pageopacity="0"
     inkscape:pageshadow="2"
     inkscape:window-width="657"
     inkscape:window-height="480"
     id="namedview3121"
     showgrid="false"
     inkscape:zoom="8.4285714"
     inkscape:cx="8"
     inkscape:cy="14"
     inkscape:window-x="0"
     inkscape:window-y="27"
     inkscape:window-maximized="0"
     inkscape:current-layer="svg3117" />
  <path
     d="m 18.653929,9.296841 v 5.406317 q 0,0.519838 -0.364303,0.883309 -0.364303,0.363471 -0.883309,0.364303 -0.519007,8.32e-4 -0.883309,-0.364303 -0.364303,-0.365134 -0.364303,-0.883309 v -4.574576 h -0.831741 v 11.852311 q 0,0.598022 -0.429178,1.026369 -0.429179,0.428347 -1.026369,0.429178 -0.59719,8.32e-4 -1.026368,-0.429178 -0.429179,-0.43001 -0.429179,-1.026369 V 15.95077 h -0.831741 v 6.030123 q 0,0.598022 -0.429178,1.026369 -0.429179,0.428347 -1.026369,0.429178 -0.59719,8.32e-4 -1.0263684,-0.429178 -0.4291785,-0.43001 -0.4291785,-1.026369 V 10.128582 H 7.841294 v 4.574576 q 0,0.519838 -0.3643027,0.883309 Q 7.1126887,15.949938 6.5936822,15.95077 6.0746757,15.951602 5.7103731,15.586467 5.3460705,15.221333 5.3460705,14.703158 V 9.296841 q 0,-1.0396764 0.7277735,-1.7674499 0.7277735,-0.7277735 1.76745,-0.7277735 h 8.317411 q 1.039677,0 1.76745,0.7277735 0.727774,0.7277735 0.727774,1.7674499 z M 14.911094,3.4746529 q 0,1.2085199 -0.850871,2.0602229 Q 13.209351,6.3865787 12,6.385747 10.790648,6.3849152 9.9397769,5.5348758 9.0889057,4.6848363 9.0889057,3.4746529 q 0,-1.2101834 0.8508712,-2.0602228 Q 10.790648,0.56439055 12,0.56355885 q 1.209351,-8.318e-4 2.060223,0.85087125 0.850871,0.8517029 0.850871,2.0602228 z"
     id="path3119"
     inkscape:connector-curvature="0"
     style="fill:#444444" />
</svg>
