<?xml version="1.0" encoding="UTF-8" standalone="yes"?>
<svg xmlns="http://www.w3.org/2000/svg" xmlns:xlink="http://www.w3.org/1999/xlink" width="24px" height="24px" viewBox="0 0 18 18" version="1.1">
  <g id="surface1">
    <path style=" stroke:none;fill-rule:nonzero;fill:rgb(0%,0%,0%);fill-opacity:1;" d="M 14.597656 8.488281 L 14.597656 2.359375 L 13.023438 1.859375 L 13.023438 1.261719 L 9.238281 0 L 6.09375 0.894531 L 6.09375 1.433594 L 4.582031 1.84375 L 4.582031 7.5625 L 1.203125 8.023438 L 1.203125 17.414062 L 5.957031 17.992188 L 5.96875 17.976562 L 6.808594 17.875 L 6.808594 15.214844 L 8.136719 15.136719 L 8.136719 17.714844 L 9.042969 17.597656 L 9.042969 15.078125 L 10.234375 15.007812 L 10.234375 17.453125 L 10.8125 17.390625 L 10.804688 12.75 L 13.0625 12.75 L 13.0625 16.96875 L 13.890625 16.867188 L 13.890625 14.714844 L 14.800781 14.664062 L 14.800781 16.753906 L 15.425781 16.679688 L 15.425781 14.625 L 16.257812 14.578125 L 16.257812 16.578125 L 16.789062 16.511719 L 16.789062 8.773438 Z M 2.242188 14.375 L 1.550781 14.347656 L 1.550781 13.730469 L 2.242188 13.75 Z M 2.242188 13.289062 L 1.550781 13.28125 L 1.550781 12.664062 L 2.242188 12.660156 Z M 2.246094 12.226562 L 1.554688 12.238281 L 1.554688 11.621094 L 2.246094 11.597656 Z M 2.246094 11.175781 L 1.554688 11.203125 L 1.554688 10.585938 L 2.246094 10.546875 Z M 2.246094 10.070312 L 1.554688 10.121094 L 1.554688 9.503906 L 2.246094 9.441406 Z M 3.34375 14.402344 L 2.609375 14.375 L 2.609375 13.738281 L 3.34375 13.757812 Z M 3.34375 13.285156 L 2.609375 13.277344 L 2.609375 12.644531 L 3.34375 12.640625 Z M 3.347656 12.191406 L 2.617188 12.203125 L 2.617188 11.566406 L 3.347656 11.542969 Z M 3.347656 11.109375 L 2.617188 11.140625 L 2.617188 10.507812 L 3.347656 10.460938 Z M 3.347656 9.972656 L 2.617188 10.027344 L 2.617188 9.390625 L 3.347656 9.328125 Z M 4.453125 14.457031 L 3.679688 14.421875 L 3.679688 13.773438 L 4.453125 13.789062 Z M 4.453125 13.304688 L 3.679688 13.296875 L 3.679688 12.644531 L 4.453125 12.640625 Z M 4.460938 12.179688 L 3.6875 12.191406 L 3.6875 11.539062 L 4.460938 11.511719 Z M 4.460938 11.066406 L 3.6875 11.101562 L 3.6875 10.449219 L 4.460938 10.402344 Z M 4.460938 9.898438 L 3.6875 9.953125 L 3.6875 9.300781 L 4.460938 9.234375 Z M 5.199219 2.648438 L 6.082031 2.429688 L 6.082031 3.78125 L 5.199219 3.972656 Z M 5.199219 4.773438 L 6.082031 4.601562 L 6.082031 5.953125 L 5.199219 6.097656 Z M 5.65625 14.507812 L 4.835938 14.472656 L 4.835938 13.804688 L 5.65625 13.824219 Z M 5.65625 13.324219 L 4.835938 13.3125 L 4.835938 12.644531 L 5.65625 12.640625 Z M 5.664062 12.164062 L 4.84375 12.175781 L 4.84375 11.503906 L 5.664062 11.476562 Z M 5.664062 11.015625 L 4.84375 11.050781 L 4.84375 10.382812 L 5.664062 10.332031 Z M 5.664062 9.8125 L 4.84375 9.871094 L 4.84375 9.203125 L 5.664062 9.128906 Z M 6.089844 7.429688 L 5.878906 7.402344 L 5.207031 7.484375 L 5.207031 6.941406 L 6.089844 6.816406 Z M 8.707031 11.132812 L 8.707031 10.457031 L 9.429688 10.5 L 9.429688 11.164062 Z M 9.417969 11.566406 L 9.417969 12.230469 L 8.695312 12.222656 L 8.695312 11.542969 Z M 9.425781 9.414062 L 9.425781 10.078125 L 8.699219 10.027344 L 8.699219 9.347656 Z M 8.859375 7.78125 L 7.855469 7.652344 L 7.855469 6.582031 L 8.859375 6.4375 Z M 7.851562 2.007812 L 8.851562 1.761719 L 8.851562 3.203125 L 7.851562 3.417969 Z M 7.847656 4.269531 L 8.851562 4.074219 L 8.851562 5.519531 L 7.847656 5.679688 Z M 6.523438 2.324219 L 7.464844 2.089844 L 7.464844 3.488281 L 6.523438 3.691406 Z M 6.523438 4.515625 L 7.464844 4.332031 L 7.464844 5.734375 L 6.523438 5.886719 Z M 6.378906 9.128906 L 7.191406 9.203125 L 7.191406 9.90625 L 6.378906 9.847656 Z M 6.402344 10.320312 L 7.210938 10.367188 L 7.210938 11.070312 L 6.402344 11.035156 Z M 7.21875 11.464844 L 7.21875 12.164062 L 6.410156 12.152344 L 6.410156 11.4375 Z M 6.410156 12.636719 L 7.21875 12.640625 L 7.21875 13.34375 L 6.410156 13.351562 Z M 7.234375 14.492188 L 6.425781 14.527344 L 6.425781 13.808594 L 7.234375 13.789062 Z M 7.472656 7.605469 L 6.53125 7.484375 L 6.53125 6.757812 L 7.472656 6.621094 Z M 7.613281 9.25 L 8.375 9.320312 L 8.375 10 L 7.613281 9.945312 Z M 7.617188 10.386719 L 8.382812 10.433594 L 8.382812 11.117188 L 7.617188 11.082031 Z M 8.390625 11.511719 L 8.390625 12.191406 L 7.625 12.179688 L 7.625 11.484375 Z M 7.625 12.648438 L 8.390625 12.652344 L 8.390625 13.335938 L 7.625 13.34375 Z M 8.398438 14.441406 L 7.636719 14.472656 L 7.636719 13.777344 L 8.398438 13.761719 Z M 8.695312 12.675781 L 9.417969 12.679688 L 9.417969 13.34375 L 8.695312 13.355469 Z M 9.4375 14.40625 L 8.710938 14.4375 L 8.710938 13.761719 L 9.4375 13.742188 Z M 9.703125 1.769531 L 10.675781 2.050781 L 10.675781 3.414062 L 9.703125 3.164062 Z M 9.734375 4.140625 L 10.707031 4.363281 L 10.707031 5.726562 L 9.734375 5.535156 Z M 10.453125 10.144531 L 9.769531 10.097656 L 9.769531 9.4375 L 10.453125 9.496094 Z M 10.460938 10.554688 L 10.460938 11.199219 L 9.773438 11.171875 L 9.773438 10.515625 Z M 10.449219 11.59375 L 10.449219 12.242188 L 9.761719 12.230469 L 9.761719 11.570312 Z M 10.449219 12.675781 L 10.449219 13.324219 L 9.761719 13.332031 L 9.761719 12.675781 Z M 10.460938 14.378906 L 9.777344 14.40625 L 9.777344 13.75 L 10.460938 13.734375 Z M 10.710938 8 L 9.742188 7.867188 L 9.742188 6.476562 L 10.710938 6.636719 Z M 15.914062 9.960938 L 16.394531 10.003906 L 16.394531 10.546875 L 15.914062 10.511719 Z M 16.402344 10.890625 L 16.402344 11.433594 L 15.921875 11.410156 L 15.921875 10.859375 Z M 15.910156 11.746094 L 16.390625 11.761719 L 16.390625 12.304688 L 15.910156 12.296875 Z M 15.171875 9.898438 L 15.675781 9.945312 L 15.675781 10.5 L 15.171875 10.460938 Z M 15.679688 10.851562 L 15.679688 11.40625 L 15.175781 11.382812 L 15.175781 10.820312 Z M 15.164062 11.726562 L 15.667969 11.746094 L 15.667969 12.300781 L 15.164062 12.292969 Z M 12.347656 2.53125 L 13.1875 2.777344 L 13.1875 4.050781 L 12.347656 3.828125 Z M 13.214844 4.929688 L 13.214844 6.199219 L 12.375 6.035156 L 12.375 4.738281 Z M 12.023438 6.859375 L 12.023438 8.175781 L 11.121094 8.050781 L 11.121094 6.707031 Z M 12.015625 5.980469 L 11.113281 5.800781 L 11.113281 4.457031 L 12.015625 4.664062 Z M 11.085938 2.171875 L 11.984375 2.4375 L 11.984375 3.75 L 11.085938 3.515625 Z M 13.082031 12.273438 L 10.8125 12.25 L 10.8125 11.613281 L 13.082031 11.671875 Z M 13.105469 11.328125 L 10.804688 11.210938 L 10.804688 10.574219 L 13.105469 10.726562 Z M 13.117188 10.320312 L 10.808594 10.171875 L 10.808594 9.53125 L 13.117188 9.71875 Z M 13.21875 8.320312 L 12.378906 8.207031 L 12.378906 6.910156 L 13.21875 7.050781 Z M 13.554688 2.886719 L 14.339844 3.117188 L 14.339844 4.347656 L 13.554688 4.140625 Z M 14.367188 5.199219 L 14.367188 6.425781 L 13.582031 6.269531 L 13.582031 5.019531 Z M 13.574219 9.746094 L 14.128906 9.796875 L 14.128906 10.378906 L 13.574219 10.335938 Z M 13.589844 10.726562 L 14.144531 10.761719 L 14.144531 11.339844 L 13.589844 11.316406 Z M 14.148438 11.667969 L 14.148438 12.246094 L 13.59375 12.238281 L 13.59375 11.644531 Z M 13.59375 12.636719 L 14.148438 12.640625 L 14.148438 13.222656 L 13.59375 13.230469 Z M 14.160156 14.175781 L 13.605469 14.195312 L 13.605469 13.605469 L 14.160156 13.59375 Z M 14.371094 8.476562 L 13.585938 8.367188 L 13.585938 7.117188 L 14.371094 7.246094 Z M 14.417969 9.828125 L 14.945312 9.875 L 14.945312 10.445312 L 14.417969 10.40625 Z M 14.421875 10.773438 L 14.949219 10.804688 L 14.949219 11.371094 L 14.421875 11.347656 Z M 14.957031 11.699219 L 14.957031 12.269531 L 14.425781 12.257812 L 14.425781 11.683594 Z M 14.429688 12.648438 L 14.957031 12.652344 L 14.957031 13.21875 L 14.429688 13.226562 Z M 14.960938 14.140625 L 14.433594 14.160156 L 14.433594 13.585938 L 14.960938 13.570312 Z M 15.164062 12.671875 L 15.667969 12.675781 L 15.667969 13.230469 L 15.164062 13.234375 Z M 15.683594 14.117188 L 15.179688 14.136719 L 15.179688 13.574219 L 15.683594 13.5625 Z M 15.910156 12.667969 L 16.390625 12.671875 L 16.390625 13.214844 L 15.910156 13.222656 Z M 16.402344 14.101562 L 15.921875 14.121094 L 15.921875 13.570312 L 16.402344 13.558594 Z M 16.402344 14.101562 "/>
  </g>
</svg>