<?xml version="1.0" encoding="utf-8"?>
<!-- Generator: Adobe Illustrator 15.1.0, SVG Export Plug-In . SVG Version: 6.00 Build 0)  -->
<!DOCTYPE svg PUBLIC "-//W3C//DTD SVG 1.1//EN" "http://www.w3.org/Graphics/SVG/1.1/DTD/svg11.dtd">
<svg version="1.1" id="Layer_1" xmlns="http://www.w3.org/2000/svg" xmlns:xlink="http://www.w3.org/1999/xlink" x="0px" y="0px"
	 width="24px" height="24px" viewBox="0 0 24 24" enable-background="new 0 0 24 24" xml:space="preserve">
<path fill="#030104" d="M12,5.962c-0.698,0-1.357,0.682-1.853,1.178l-6.158,6.161v7.061c0,0.773,0.628,1.4,1.402,1.4h13.22
	c0.773,0,1.4-0.627,1.4-1.4v-7.061L13.853,7.14C13.358,6.644,12.698,5.962,12,5.962z M16.272,16.381h-2.834v2.836h-2.877v-2.836
	H7.726v-2.875h2.836V10.67h2.877v2.835h2.834V16.381z M22.03,10.437l-6.982-6.978c-1.63-1.63-4.466-1.63-6.099,0l-6.979,6.978
	c-0.445,0.446-0.445,1.166,0,1.613c0.43,0.428,1.181,0.428,1.609,0l6.979-6.981c0.77-0.771,2.111-0.771,2.879,0l6.98,6.981
	c0.214,0.214,0.501,0.331,0.804,0.331s0.59-0.117,0.808-0.331C22.475,11.603,22.475,10.883,22.03,10.437z"/>
</svg>
