<?xml version="1.0" encoding="utf-8"?>
<!-- Generator: Adobe Illustrator 15.1.0, SVG Export Plug-In . SVG Version: 6.00 Build 0)  -->
<!DOCTYPE svg PUBLIC "-//W3C//DTD SVG 1.1//EN" "http://www.w3.org/Graphics/SVG/1.1/DTD/svg11.dtd">
<svg version="1.1" id="Layer_1" xmlns="http://www.w3.org/2000/svg" xmlns:xlink="http://www.w3.org/1999/xlink" x="0px" y="0px"
	 width="24px" height="24px" viewBox="0 0 24 24" enable-background="new 0 0 24 24" xml:space="preserve">
<g>
	<g>
		<polygon points="12.076,3 1.353,7.767 1.353,21.754 3.642,21.754 3.642,9.358 20.356,9.358 20.356,21.754 22.646,21.754 
			22.646,7.767 		"/>
	</g>
</g>
<g>
	<path d="M17.697,16.797l-0.129-0.381c-0.072-0.211-0.303-0.382-0.512-0.382h-0.475c-0.354-0.996-0.789-2.198-0.914-2.48
		c-0.197-0.438-0.824-0.636-1.17-0.732c0,0-0.576-0.219-2.497-0.219c-1.922,0-2.499,0.219-2.499,0.219
		c-0.404,0.135-0.965,0.326-1.188,0.752c-0.104,0.2-0.546,1.437-0.905,2.461H6.946c-0.21,0-0.44,0.171-0.512,0.382l-0.131,0.381
		c-0.072,0.211,0.04,0.381,0.25,0.381h0.458c-0.059,0.172-0.095,0.275-0.095,0.275c-0.037,0.063-0.063,0.348-0.063,0.424v2.161v0.15
		v1.162c0,0.223,0.181,0.403,0.404,0.403h1.48c0.223,0,0.404-0.181,0.404-0.403v-0.74h5.718v0.74c0,0.223,0.182,0.403,0.404,0.403
		h1.48c0.223,0,0.404-0.181,0.404-0.403v-1.162v-0.15v-2.161c0-0.076-0.027-0.362-0.064-0.424c0,0-0.035-0.104-0.096-0.275h0.459
		C17.658,17.178,17.77,17.008,17.697,16.797z M9.132,18.924H8.521c-0.548,0-1.095-0.073-1.095-0.421v-0.422
		c0-0.406,0.236-0.421,0.491-0.421c0.249,0,0.741,0.21,1.065,0.355c0.354,0.158,0.749,0.29,0.749,0.554
		C9.731,18.813,9.594,18.924,9.132,18.924z M8.28,16.188c0.301-1.25,0.628-1.956,0.701-2.153c0.058-0.143,0.114-0.585,3.021-0.585
		c2.905,0,2.974,0.505,2.981,0.511c0.09,0.268,0.445,1.075,0.729,2.228c0,0-1.227,0.418-3.711,0.418S8.28,16.188,8.28,16.188z
		 M14.27,18.568c0-0.264,0.396-0.396,0.75-0.553c0.324-0.146,0.816-0.356,1.064-0.356c0.256,0,0.492,0.015,0.492,0.422v0.422l0,0
		c0,0.348-0.547,0.421-1.096,0.421h-0.613C14.408,18.924,14.27,18.813,14.27,18.568z"/>
</g>
</svg>
