<?xml version="1.0" encoding="UTF-8" standalone="yes"?>
<svg xmlns="http://www.w3.org/2000/svg" xmlns:xlink="http://www.w3.org/1999/xlink" width="24px" height="24px" viewBox="0 0 18 18" version="1.1">
  <g id="surface1">
    <path style=" stroke:none;fill-rule:nonzero;fill:rgb(0%,0%,0%);fill-opacity:1;" d="M 5.550781 16.078125 L 10.59375 16.078125 C 10.480469 15.824219 10.414062 15.539062 10.414062 15.242188 C 10.414062 14.136719 11.3125 13.238281 12.417969 13.238281 C 12.640625 13.238281 12.851562 13.277344 13.050781 13.34375 L 13.566406 5.140625 C 13.566406 4.785156 13.28125 4.515625 12.925781 4.515625 L 4.910156 4.515625 C 4.554688 4.515625 4.269531 4.785156 4.269531 5.140625 L 4.910156 15.378906 C 4.910156 15.734375 5.195312 16.078125 5.550781 16.078125 Z M 8.6875 12.042969 L 7.339844 12.042969 L 7.339844 10.96875 L 8.6875 10.96875 Z M 12.210938 10.230469 C 12.210938 10.230469 12.101562 11.640625 11.0625 12.175781 C 10.96875 12.175781 10.839844 12.175781 10.707031 12.175781 C 10.457031 12.175781 10.207031 12.175781 10.207031 12.175781 L 10.09375 13.019531 L 9.144531 11.414062 L 10.285156 10.121094 L 10.21875 10.921875 L 10.671875 11.011719 L 11.058594 10.816406 L 12.207031 10.234375 Z M 12.15625 9.984375 L 12.101562 10.011719 L 10.945312 10.597656 L 10.554688 9.835938 L 10.457031 9.648438 L 10.574219 9.589844 L 11.664062 9.03125 Z M 9.3125 6.421875 C 9.640625 6.421875 9.992188 6.488281 10.3125 6.6875 C 10.453125 6.914062 10.757812 7.421875 10.757812 7.421875 L 11.535156 7.078125 L 10.660156 8.722656 L 8.964844 8.417969 L 9.675781 8.058594 L 9.523438 7.628906 L 9.15625 7.398438 L 8.058594 6.71875 L 8.054688 6.714844 C 8.054688 6.714844 8.628906 6.421875 9.3125 6.421875 Z M 7.871094 6.890625 L 7.921875 6.921875 L 9.027344 7.609375 L 8.578125 8.335938 L 8.46875 8.515625 L 8.359375 8.445312 L 7.3125 7.804688 Z M 7.574219 8.765625 L 8.171875 10.371094 L 7.445312 9.949219 L 7.070312 10.308594 L 7.070312 12.039062 C 7.070312 12.039062 5.945312 11.292969 5.945312 10.125 C 6.0625 9.886719 6.402344 9.363281 6.402344 9.363281 L 5.707031 8.878906 Z M 4.117188 3.007812 L 4.117188 3.335938 C 4.117188 3.691406 4.402344 3.976562 4.753906 3.976562 L 12.613281 3.976562 C 12.96875 3.976562 13.253906 3.691406 13.253906 3.335938 L 13.253906 3.007812 C 13.253906 2.652344 12.96875 2.367188 12.613281 2.367188 L 11.363281 2.367188 C 11.367188 2.332031 11.371094 2.296875 11.371094 2.261719 L 11.371094 1.929688 C 11.371094 1.578125 11.085938 1.289062 10.734375 1.289062 L 7.175781 1.289062 C 6.820312 1.289062 6.535156 1.578125 6.535156 1.929688 L 6.535156 2.261719 C 6.535156 2.296875 6.539062 2.332031 6.546875 2.367188 L 4.753906 2.367188 C 4.402344 2.367188 4.117188 2.652344 4.117188 3.007812 Z M 13.886719 15.242188 C 13.886719 14.648438 13.527344 14.132812 13.019531 13.902344 C 12.835938 13.820312 12.632812 13.773438 12.417969 13.773438 C 11.609375 13.773438 10.949219 14.433594 10.949219 15.242188 C 10.949219 15.550781 11.046875 15.839844 11.210938 16.078125 C 11.476562 16.457031 11.917969 16.710938 12.417969 16.710938 C 13.226562 16.710938 13.886719 16.050781 13.886719 15.242188 Z M 13.886719 15.242188 "/>
  </g>
</svg>