<?xml version="1.0" encoding="UTF-8" standalone="yes"?>
<svg xmlns="http://www.w3.org/2000/svg" xmlns:xlink="http://www.w3.org/1999/xlink" width="24px" height="24px" viewBox="0 0 18 18" version="1.1">
  <g id="surface1">
    <path style=" stroke:none;fill-rule:nonzero;fill:rgb(0%,0%,0%);fill-opacity:1;" d="M 17.363281 8.746094 C 16.9375 8.660156 16.511719 8.945312 16.425781 9.371094 L 16.007812 11.429688 C 15.996094 11.441406 15.988281 11.453125 15.980469 11.460938 C 15.933594 11.515625 15.875 11.554688 15.804688 11.515625 C 15.726562 11.480469 15.707031 11.414062 15.722656 11.335938 C 15.726562 11.316406 15.730469 11.300781 15.734375 11.285156 C 15.964844 10.148438 17.0625 4.726562 17.382812 3.152344 C 17.425781 2.953125 17.402344 2.765625 17.304688 2.589844 C 17.144531 2.300781 16.898438 2.160156 16.578125 2.160156 C 16.183594 2.164062 15.886719 2.429688 15.804688 2.828125 C 15.636719 3.652344 14.996094 6.804688 14.84375 7.554688 C 14.820312 7.667969 14.757812 7.714844 14.667969 7.699219 C 14.578125 7.683594 14.539062 7.609375 14.558594 7.5 C 14.574219 7.421875 15.589844 2.40625 15.8125 1.316406 C 15.898438 0.886719 15.613281 0.464844 15.183594 0.378906 C 14.746094 0.289062 14.324219 0.566406 14.234375 0.996094 C 14.109375 1.617188 13.042969 6.867188 13.007812 7.039062 C 12.996094 7.113281 12.960938 7.167969 12.886719 7.179688 C 12.777344 7.203125 12.699219 7.109375 12.722656 6.984375 C 12.804688 6.558594 13.570312 2.808594 13.714844 2.070312 C 13.789062 1.703125 13.59375 1.390625 13.300781 1.230469 C 12.828125 0.96875 12.242188 1.246094 12.132812 1.78125 C 12.097656 1.957031 12.039062 2.238281 11.96875 2.582031 C 12.375 2.738281 12.652344 3.054688 12.753906 3.492188 C 12.828125 3.796875 12.789062 4.097656 12.644531 4.386719 C 12.230469 5.199219 11.203125 7.234375 10.308594 8.996094 C 10.328125 8.996094 10.34375 8.996094 10.359375 8.996094 C 10.558594 8.996094 10.753906 9.042969 10.929688 9.128906 C 11.230469 9.28125 11.457031 9.546875 11.5625 9.871094 C 11.667969 10.199219 11.644531 10.542969 11.492188 10.84375 L 11.445312 10.933594 L 11.4375 10.953125 L 11.175781 11.46875 L 10.914062 11.988281 C 10.839844 12.136719 10.761719 12.285156 10.6875 12.425781 C 10.539062 12.707031 10.390625 13 10.257812 13.285156 C 10.191406 13.425781 10.121094 13.554688 10.046875 13.675781 C 9.683594 14.277344 9.1875 14.679688 8.480469 14.949219 C 8.417969 14.972656 8.355469 14.992188 8.292969 15.015625 C 8.367188 15.277344 8.445312 15.46875 8.5 15.589844 C 8.523438 15.648438 8.53125 15.714844 8.519531 15.78125 L 8.394531 16.402344 C 8.359375 16.574219 8.46875 16.742188 8.644531 16.777344 C 8.644531 16.777344 10.160156 16.863281 10.660156 16.964844 C 11.214844 17.078125 12.859375 17.632812 12.859375 17.632812 C 13.03125 17.667969 13.203125 17.554688 13.238281 17.382812 L 13.445312 16.351562 C 13.449219 16.335938 13.453125 16.320312 13.457031 16.304688 C 13.464844 16.285156 13.472656 16.261719 13.480469 16.238281 C 13.519531 16.082031 13.601562 15.953125 13.714844 15.84375 C 14.476562 15.128906 15.511719 14.765625 16.355469 14.148438 C 16.890625 13.757812 17.191406 13.332031 17.351562 12.765625 C 17.386719 12.644531 17.414062 12.515625 17.4375 12.382812 C 17.519531 11.898438 17.632812 11.421875 17.730469 10.941406 C 17.925781 9.980469 17.765625 10.765625 17.960938 9.804688 C 17.96875 9.765625 17.976562 9.726562 17.984375 9.6875 C 18.070312 9.261719 17.789062 8.835938 17.363281 8.746094 Z M 17.363281 8.746094 "/>
    <path style=" stroke:none;fill-rule:nonzero;fill:rgb(0%,0%,0%);fill-opacity:1;" d="M 4.160156 16.964844 C 4.277344 16.964844 4.386719 16.902344 4.445312 16.789062 L 4.917969 15.851562 C 4.925781 15.839844 4.933594 15.824219 4.945312 15.808594 C 4.957031 15.792969 4.96875 15.773438 4.980469 15.753906 C 5.0625 15.609375 5.175781 15.507812 5.316406 15.433594 C 6.195312 14.96875 7.234375 14.878906 8.175781 14.546875 C 8.222656 14.53125 8.265625 14.515625 8.308594 14.5 C 8.925781 14.265625 9.332031 13.933594 9.636719 13.429688 C 9.703125 13.320312 9.765625 13.207031 9.820312 13.082031 C 10.027344 12.636719 10.265625 12.207031 10.484375 11.773438 C 10.925781 10.898438 10.566406 11.609375 11.007812 10.734375 C 11.027344 10.699219 11.046875 10.664062 11.0625 10.628906 C 11.257812 10.242188 11.097656 9.753906 10.710938 9.558594 C 10.601562 9.5 10.480469 9.472656 10.359375 9.472656 C 10.066406 9.472656 9.78125 9.632812 9.644531 9.910156 L 8.695312 11.785156 C 8.683594 11.792969 8.671875 11.800781 8.65625 11.808594 C 8.625 11.832031 8.589844 11.847656 8.554688 11.847656 C 8.527344 11.847656 8.5 11.839844 8.472656 11.816406 C 8.410156 11.757812 8.40625 11.691406 8.445312 11.617188 C 8.453125 11.601562 8.460938 11.589844 8.46875 11.574219 C 8.789062 10.941406 9.839844 8.863281 10.777344 7.011719 C 10.945312 6.675781 11.113281 6.347656 11.269531 6.035156 C 11.667969 5.246094 12.011719 4.570312 12.214844 4.167969 C 12.308594 3.988281 12.335938 3.800781 12.289062 3.605469 C 12.226562 3.347656 12.085938 3.167969 11.871094 3.0625 C 11.820312 3.035156 11.761719 3.015625 11.703125 3 C 11.628906 2.980469 11.558594 2.972656 11.488281 2.972656 C 11.4375 2.972656 11.382812 2.976562 11.332031 2.988281 C 11.101562 3.039062 10.902344 3.195312 10.777344 3.4375 C 10.527344 3.933594 9.808594 5.355469 9.246094 6.457031 C 8.960938 7.023438 8.714844 7.507812 8.597656 7.738281 C 8.5625 7.8125 8.511719 7.851562 8.457031 7.851562 C 8.4375 7.851562 8.414062 7.84375 8.390625 7.832031 C 8.308594 7.792969 8.289062 7.710938 8.339844 7.609375 C 8.355469 7.578125 8.867188 6.566406 9.460938 5.394531 C 9.941406 4.445312 10.472656 3.390625 10.839844 2.671875 C 10.988281 2.375 11.109375 2.136719 11.1875 1.980469 C 11.386719 1.59375 11.222656 1.105469 10.832031 0.910156 C 10.710938 0.851562 10.585938 0.820312 10.460938 0.820312 C 10.167969 0.820312 9.890625 0.980469 9.75 1.253906 C 9.464844 1.820312 7.046875 6.597656 6.96875 6.757812 C 6.9375 6.820312 6.894531 6.859375 6.824219 6.859375 C 6.820312 6.859375 6.816406 6.859375 6.8125 6.859375 C 6.699219 6.851562 6.648438 6.742188 6.707031 6.625 C 6.898438 6.238281 8.628906 2.824219 8.964844 2.152344 C 9.132812 1.820312 9.03125 1.464844 8.789062 1.234375 C 8.632812 1.078125 8.433594 1.007812 8.238281 1.007812 C 7.949219 1.007812 7.664062 1.164062 7.515625 1.453125 C 7.09375 2.289062 5.425781 5.585938 5.015625 6.394531 C 4.980469 6.46875 4.929688 6.503906 4.875 6.503906 C 4.851562 6.503906 4.828125 6.496094 4.804688 6.484375 C 4.726562 6.445312 4.707031 6.367188 4.753906 6.269531 C 4.933594 5.914062 6.03125 3.757812 6.394531 3.027344 C 6.59375 2.625 6.417969 2.15625 6.015625 1.957031 C 5.902344 1.902344 5.78125 1.875 5.664062 1.875 C 5.375 1.875 5.09375 2.035156 4.949219 2.3125 C 4.824219 2.550781 1.113281 9.929688 1.0625 10.054688 C 0.164062 11.832031 0.285156 13.339844 0.351562 13.804688 C 0.359375 13.871094 0.347656 13.9375 0.320312 13.996094 L 0.0351562 14.558594 C -0.046875 14.714844 0.0195312 14.910156 0.175781 14.988281 C 0.175781 14.988281 1.75 15.429688 2.214844 15.667969 C 2.707031 15.917969 4.015625 16.929688 4.015625 16.929688 C 4.0625 16.953125 4.109375 16.964844 4.160156 16.964844 Z M 4.160156 16.964844 "/>
  </g>
</svg>