<?xml version="1.0" encoding="UTF-8" standalone="yes"?>
<svg xmlns="http://www.w3.org/2000/svg" xmlns:xlink="http://www.w3.org/1999/xlink" width="24px" height="24px" viewBox="0 0 18 18" version="1.1">
  <g id="surface1">
    <path style=" stroke:none;fill-rule:nonzero;fill:rgb(0.392157%,0%,0.784314%);fill-opacity:1;" d="M 14.316406 15.550781 L 14.960938 16.300781 L 2.972656 16.304688 L 3.117188 15.378906 L 4.433594 14.648438 L 4.230469 13.097656 L 5.976562 12.945312 L 6.066406 12.136719 L 8.097656 11.960938 L 8.214844 10.511719 L 8.5625 10.046875 L 9.375 10.222656 L 9.46875 10.996094 L 10.765625 10.914062 L 10.847656 12.371094 L 12.308594 12.941406 L 12.390625 14.078125 C 12.515625 14.253906 13.152344 13.972656 13.265625 14.136719 C 13.375 14.300781 13.164062 13.976562 13.265625 14.136719 C 13.121094 14.808594 14.117188 14.925781 14.117188 14.925781 Z M 12.726562 10.675781 L 12.117188 10.46875 C 11.910156 10.628906 11.828125 10.796875 11.890625 10.96875 L 12.195312 11.324219 L 12.660156 11.167969 C 12.824219 11.113281 12.882812 11.007812 12.832031 10.859375 C 12.816406 10.808594 12.78125 10.746094 12.726562 10.675781 Z M 12.339844 9.046875 C 12.203125 8.984375 12.0625 8.972656 11.914062 9.023438 C 11.832031 9.046875 11.75 9.101562 11.65625 9.179688 L 11.679688 9.90625 L 12.382812 9.816406 C 12.570312 9.609375 12.636719 9.4375 12.597656 9.308594 C 12.558594 9.203125 12.476562 9.117188 12.339844 9.046875 Z M 14.492188 10.054688 L 14.496094 10.070312 C 14.46875 10.078125 14.34375 10.050781 14.113281 9.976562 C 14.003906 9.941406 13.890625 9.898438 13.777344 9.855469 C 13.621094 9.90625 13.523438 10.066406 13.484375 10.328125 C 13.445312 10.589844 13.46875 10.855469 13.558594 11.117188 C 13.578125 11.191406 13.636719 11.265625 13.722656 11.355469 L 13.871094 11.496094 L 14.132812 11.484375 C 14.425781 11.355469 14.589844 11.285156 14.632812 11.269531 C 14.738281 11.207031 14.8125 11.074219 14.847656 10.878906 C 14.882812 10.675781 14.867188 10.488281 14.804688 10.304688 C 14.734375 10.09375 14.632812 10.007812 14.492188 10.054688 Z M 13.359375 12.214844 L 13.207031 12.761719 C 13.320312 12.863281 13.480469 12.929688 13.699219 12.964844 L 14.210938 12.792969 L 13.953125 12.015625 Z M 15.96875 11.21875 L 15.816406 11.769531 C 15.929688 11.871094 16.089844 11.9375 16.3125 11.972656 L 16.824219 11.800781 L 16.5625 11.023438 Z M 16.347656 15.355469 L 16.195312 15.90625 C 16.308594 16.003906 16.472656 16.074219 16.6875 16.105469 L 17.203125 15.933594 L 16.941406 15.15625 Z M 16.203125 12.910156 C 15.90625 12.582031 15.539062 12.488281 15.101562 12.632812 L 15.035156 12.65625 C 14.828125 12.839844 14.65625 13.105469 14.511719 13.453125 C 14.371094 13.78125 14.332031 14.042969 14.394531 14.234375 C 14.402344 14.25 14.539062 14.371094 14.800781 14.609375 C 15.082031 14.839844 15.238281 14.992188 15.273438 15.070312 L 16.101562 14.792969 C 16.199219 14.761719 16.292969 14.714844 16.378906 14.65625 C 16.472656 14.601562 16.546875 14.53125 16.605469 14.457031 C 16.667969 14.386719 16.714844 14.3125 16.742188 14.238281 C 16.769531 14.164062 16.773438 14.09375 16.75 14.027344 C 16.566406 13.488281 16.386719 13.117188 16.203125 12.910156 Z M 7.71875 9.378906 C 7.578125 10.210938 7.152344 10.976562 7.152344 10.976562 C 7.152344 10.976562 6.277344 11.042969 5.464844 10.824219 C 4.652344 10.601562 3.40625 8.542969 3.40625 8.542969 L 4.6875 7.722656 L 3.144531 5.171875 L 1.945312 4.90625 L 1.410156 4.074219 L 1.175781 4.222656 L 0.859375 3.730469 L 3.339844 2.140625 L 3.65625 2.632812 L 3.421875 2.78125 L 3.960938 3.617188 L 3.695312 4.828125 L 5.234375 7.375 L 6.507812 6.554688 C 6.507812 6.554688 7.859375 8.550781 7.71875 9.378906 Z M 2.203125 4.535156 L 3.28125 4.773438 L 3.515625 3.699219 L 3.074219 3.003906 L 1.761719 3.847656 Z M 2.203125 4.535156 "/>
  </g>
</svg>