<?xml version="1.0" encoding="UTF-8" standalone="yes"?>
<svg xmlns="http://www.w3.org/2000/svg" xmlns:xlink="http://www.w3.org/1999/xlink" width="24px" height="24px" viewBox="0 0 18 18" version="1.1">
  <g id="surface1">
    <path style=" stroke:none;fill-rule:nonzero;fill:rgb(0%,0%,0%);fill-opacity:1;" d="M 4.953125 10.554688 C 4.214844 10.554688 3.617188 11.519531 3.617188 12.710938 C 3.617188 13.898438 4.214844 14.863281 4.953125 14.863281 C 5.691406 14.863281 6.289062 13.898438 6.289062 12.710938 C 6.289062 11.519531 5.691406 10.554688 4.953125 10.554688 Z M 4.953125 13.886719 C 4.550781 13.886719 4.226562 13.359375 4.226562 12.710938 C 4.226562 12.0625 4.550781 11.535156 4.953125 11.535156 C 5.355469 11.535156 5.683594 12.0625 5.683594 12.710938 C 5.683594 13.359375 5.355469 13.886719 4.953125 13.886719 Z M 4.953125 12.15625 C 4.765625 12.15625 4.609375 12.402344 4.609375 12.710938 C 4.609375 13.015625 4.765625 13.265625 4.953125 13.265625 C 5.144531 13.265625 5.296875 13.015625 5.296875 12.710938 C 5.296875 12.402344 5.144531 12.15625 4.953125 12.15625 Z M 10.949219 10.554688 C 10.210938 10.554688 9.613281 11.519531 9.613281 12.710938 C 9.613281 13.898438 10.210938 14.863281 10.949219 14.863281 C 11.6875 14.863281 12.285156 13.898438 12.285156 12.710938 C 12.285156 11.519531 11.6875 10.554688 10.949219 10.554688 Z M 10.949219 13.886719 C 10.546875 13.886719 10.21875 13.359375 10.21875 12.710938 C 10.21875 12.0625 10.546875 11.535156 10.949219 11.535156 C 11.351562 11.535156 11.679688 12.0625 11.679688 12.710938 C 11.675781 13.359375 11.351562 13.886719 10.949219 13.886719 Z M 10.949219 12.15625 C 10.757812 12.15625 10.605469 12.402344 10.605469 12.710938 C 10.605469 13.015625 10.757812 13.265625 10.949219 13.265625 C 11.140625 13.265625 11.292969 13.015625 11.292969 12.710938 C 11.292969 12.402344 11.140625 12.15625 10.949219 12.15625 Z M 16.253906 14.019531 L 15.019531 9.96875 L 14.21875 10.554688 L 14.21875 11.839844 L 13.925781 13.136719 C 13.925781 13.136719 14.65625 15.878906 16.679688 14.019531 Z M 13.925781 10.554688 L 13.316406 9.679688 L 12.554688 8.59375 L 11.46875 8.59375 L 10.605469 7.320312 L 9.246094 7.320312 L 8.574219 4.046875 L 8.878906 4.046875 L 8.882812 3.511719 L 5.835938 3.511719 L 5.835938 4.046875 L 6.054688 4.046875 L 6.054688 7.320312 L 4.953125 7.320312 C 4.953125 5.851562 4.609375 4.480469 4.609375 4.480469 L 4.347656 4.480469 C 4.523438 5.328125 4.519531 6.648438 4.546875 7.320312 L 2.96875 7.320312 L 2.183594 8.226562 L 2.089844 10.554688 L 1.796875 10.554688 C 1.796875 10.554688 1.410156 12.777344 1.796875 13.265625 L 2.953125 13.265625 C 2.933594 13.085938 2.925781 12.898438 2.925781 12.710938 C 2.925781 10.902344 3.835938 9.441406 4.953125 9.441406 C 6.074219 9.441406 6.984375 10.902344 6.984375 12.710938 C 6.984375 12.898438 6.972656 13.085938 6.953125 13.265625 L 8.949219 13.265625 C 8.929688 13.085938 8.921875 12.898438 8.921875 12.710938 C 8.921875 10.902344 9.828125 9.441406 10.949219 9.441406 C 11.257812 9.441406 11.546875 9.550781 11.808594 9.746094 C 12.257812 10.085938 12.617188 10.6875 12.8125 11.421875 C 12.953125 12.144531 12.933594 12.886719 12.933594 13.265625 L 13.539062 13.265625 L 13.925781 11.761719 Z M 6.554688 7.285156 L 6.554688 4.046875 L 8.109375 4.046875 L 8.710938 7.285156 Z M 6.554688 7.285156 "/>
  </g>
</svg>