<?xml version="1.0" encoding="UTF-8" standalone="yes"?>
<svg xmlns="http://www.w3.org/2000/svg" xmlns:xlink="http://www.w3.org/1999/xlink" width="24px" height="24px" viewBox="0 0 18 18" version="1.1">
  <g id="surface1">
    <path style=" stroke:none;fill-rule:nonzero;fill:rgb(0%,0%,0%);fill-opacity:1;" d="M 6.960938 13.679688 C 7.113281 13.679688 7.238281 13.554688 7.238281 13.402344 C 7.238281 13.25 7.113281 13.125 6.960938 13.125 C 6.808594 13.125 6.683594 13.25 6.683594 13.402344 C 6.683594 13.554688 6.808594 13.679688 6.960938 13.679688 Z M 5.09375 13.648438 C 5.226562 13.648438 5.335938 13.539062 5.335938 13.402344 C 5.335938 13.265625 5.226562 13.15625 5.09375 13.15625 C 4.957031 13.15625 4.847656 13.265625 4.847656 13.402344 C 4.847656 13.539062 4.957031 13.648438 5.09375 13.648438 Z M 8.910156 13.648438 C 9.042969 13.648438 9.15625 13.539062 9.15625 13.402344 C 9.15625 13.265625 9.042969 13.15625 8.910156 13.15625 C 8.773438 13.15625 8.664062 13.265625 8.664062 13.402344 C 8.664062 13.539062 8.773438 13.648438 8.910156 13.648438 Z M 3.039062 13.648438 C 3.171875 13.648438 3.285156 13.539062 3.285156 13.402344 C 3.285156 13.265625 3.171875 13.15625 3.039062 13.15625 C 2.902344 13.15625 2.792969 13.265625 2.792969 13.402344 C 2.792969 13.539062 2.902344 13.648438 3.039062 13.648438 Z M 11.402344 14.417969 L 11.402344 14.351562 C 11.875 14.289062 12.238281 13.886719 12.238281 13.402344 C 12.238281 12.917969 11.875 12.515625 11.402344 12.457031 L 11.402344 12.386719 L 2.308594 12.386719 L 2.308594 12.457031 C 1.839844 12.515625 1.472656 12.914062 1.472656 13.402344 C 1.472656 13.886719 1.839844 14.289062 2.308594 14.351562 L 2.308594 14.417969 Z M 3.039062 12.917969 C 3.261719 12.917969 3.453125 13.074219 3.503906 13.285156 L 4.625 13.285156 C 4.679688 13.074219 4.867188 12.917969 5.09375 12.917969 C 5.316406 12.917969 5.507812 13.074219 5.558594 13.285156 L 6.460938 13.285156 C 6.515625 13.054688 6.71875 12.886719 6.960938 12.886719 C 7.207031 12.886719 7.410156 13.054688 7.464844 13.285156 L 8.441406 13.285156 C 8.496094 13.074219 8.683594 12.917969 8.910156 12.917969 C 9.136719 12.917969 9.324219 13.074219 9.378906 13.285156 L 10.371094 13.285156 C 10.425781 13.074219 10.613281 12.917969 10.835938 12.917969 C 11.105469 12.917969 11.320312 13.136719 11.320312 13.402344 C 11.320312 13.671875 11.105469 13.886719 10.835938 13.886719 C 10.613281 13.886719 10.425781 13.730469 10.371094 13.523438 L 9.378906 13.523438 C 9.324219 13.730469 9.136719 13.886719 8.910156 13.886719 C 8.683594 13.886719 8.496094 13.730469 8.441406 13.523438 L 7.460938 13.523438 C 7.410156 13.75 7.203125 13.921875 6.960938 13.921875 C 6.71875 13.921875 6.511719 13.75 6.460938 13.523438 L 5.558594 13.523438 C 5.503906 13.730469 5.316406 13.886719 5.09375 13.886719 C 4.867188 13.886719 4.679688 13.730469 4.625 13.523438 L 3.503906 13.523438 C 3.453125 13.730469 3.265625 13.886719 3.039062 13.886719 C 2.769531 13.886719 2.554688 13.671875 2.554688 13.402344 C 2.554688 13.136719 2.769531 12.917969 3.039062 12.917969 Z M 10.835938 13.648438 C 10.972656 13.648438 11.082031 13.539062 11.082031 13.402344 C 11.082031 13.265625 10.972656 13.15625 10.835938 13.15625 C 10.703125 13.15625 10.59375 13.265625 10.59375 13.402344 C 10.59375 13.539062 10.703125 13.648438 10.835938 13.648438 Z M 10.59375 9.453125 L 9.785156 8.050781 L 7.238281 8.050781 L 7.238281 9.332031 L 5.832031 9.394531 L 5.832031 9.066406 L 3.953125 9.035156 L 3.953125 9.332031 L 3.285156 9.332031 L 3.285156 10.175781 L 5.832031 10.175781 L 5.832031 10.527344 L 3.285156 10.527344 L 3.285156 11.617188 L 10.59375 11.617188 Z M 10.085938 10.179688 L 7.710938 10.179688 L 7.710938 8.472656 L 9.488281 8.472656 L 10.085938 9.328125 Z M 9.457031 6.351562 L 11.90625 4.503906 L 11.90625 3.460938 L 8.910156 5.25 L 7.710938 7.695312 L 9.457031 7.695312 Z M 16.136719 9.273438 L 12.710938 3.042969 L 12.238281 3.460938 L 12.238281 4.324219 L 15.304688 9.273438 Z M 15.511719 9.835938 C 15.535156 11.570312 13.902344 11.617188 13.902344 11.617188 C 17.210938 12.917969 16.136719 9.835938 16.136719 9.835938 Z M 15.511719 9.835938 "/>
  </g>
</svg>