<?xml version="1.0" encoding="UTF-8" standalone="yes"?>
<svg xmlns="http://www.w3.org/2000/svg" xmlns:xlink="http://www.w3.org/1999/xlink" width="24px" height="24px" viewBox="0 0 18 18" version="1.1">
  <g id="surface1">
    <path style=" stroke:none;fill-rule:nonzero;fill:rgb(1.176471%,0.392157%,1.568627%);fill-opacity:1;" d="M 13.242188 6.328125 L 13.242188 3.734375 L 11.933594 3.734375 L 11.933594 10.058594 C 10.730469 10.738281 9.425781 9.964844 9.425781 9.964844 C 9.425781 9.964844 8.96875 2.1875 5.488281 2.1875 C 2.007812 2.1875 1.816406 2.1875 1.816406 2.1875 L 1.816406 9.339844 C 1.277344 9.339844 0.828125 9.339844 0.558594 9.339844 C -0.699219 9.339844 0.558594 13.785156 0.558594 13.785156 L 1.335938 13.785156 C 1.390625 12.683594 2.304688 11.796875 3.421875 11.796875 C 4.539062 11.796875 5.453125 12.679688 5.507812 13.785156 L 8.050781 13.785156 C 8.050781 13.777344 8.050781 13.765625 8.050781 13.757812 C 8.050781 12.53125 9.046875 11.535156 10.273438 11.535156 C 11.5 11.535156 12.496094 12.53125 12.496094 13.757812 C 12.496094 13.898438 12.480469 14.039062 12.453125 14.171875 L 13.242188 14.171875 L 13.242188 7.40625 L 18 7.40625 L 18 6.921875 Z M 6.648438 10.210938 L 5.488281 8.179688 L 2.976562 8.179688 L 2.976562 3.347656 L 5.488281 3.347656 C 6.523438 3.347656 7.097656 4.792969 7.398438 6.003906 C 7.589844 6.78125 8.175781 9.597656 8.230469 10.210938 Z M 6.648438 10.210938 "/>
    <path style=" stroke:none;fill-rule:nonzero;fill:rgb(1.176471%,0.392157%,1.568627%);fill-opacity:1;" d="M 3.84375 5.472656 L 3.265625 5.472656 L 3.265625 7.601562 L 5.390625 7.601562 L 5.390625 7.019531 L 3.84375 7.019531 Z M 3.84375 5.472656 "/>
    <path style=" stroke:none;fill-rule:nonzero;fill:rgb(1.176471%,0.392157%,1.568627%);fill-opacity:1;" d="M 10.28125 11.792969 C 9.21875 11.792969 8.351562 12.65625 8.351562 13.722656 C 8.351562 14.789062 9.21875 15.652344 10.28125 15.652344 C 11.347656 15.652344 12.210938 14.789062 12.210938 13.722656 C 12.210938 12.65625 11.347656 11.792969 10.28125 11.792969 Z M 10.28125 14.839844 C 9.667969 14.839844 9.164062 14.335938 9.164062 13.722656 C 9.164062 13.105469 9.667969 12.605469 10.28125 12.605469 C 10.898438 12.605469 11.398438 13.105469 11.398438 13.722656 C 11.398438 14.335938 10.898438 14.839844 10.28125 14.839844 Z M 10.28125 14.839844 "/>
    <path style=" stroke:none;fill-rule:nonzero;fill:rgb(1.176471%,0.392157%,1.568627%);fill-opacity:1;" d="M 3.367188 12.148438 C 2.355469 12.148438 1.535156 12.96875 1.535156 13.980469 C 1.535156 14.992188 2.355469 15.8125 3.367188 15.8125 C 4.378906 15.8125 5.199219 14.992188 5.199219 13.980469 C 5.199219 12.96875 4.378906 12.148438 3.367188 12.148438 Z M 3.367188 15.039062 C 2.785156 15.039062 2.308594 14.566406 2.308594 13.980469 C 2.308594 13.394531 2.785156 12.917969 3.367188 12.917969 C 3.953125 12.917969 4.429688 13.394531 4.429688 13.980469 C 4.429688 14.566406 3.953125 15.039062 3.367188 15.039062 Z M 3.367188 15.039062 "/>
  </g>
</svg>