<?xml version="1.0" encoding="utf-8"?>
<!-- Generator: Adobe Illustrator 15.1.0, SVG Export Plug-In . SVG Version: 6.00 Build 0)  -->
<!DOCTYPE svg PUBLIC "-//W3C//DTD SVG 1.1//EN" "http://www.w3.org/Graphics/SVG/1.1/DTD/svg11.dtd">
<svg version="1.1" id="Layer_1" xmlns="http://www.w3.org/2000/svg" xmlns:xlink="http://www.w3.org/1999/xlink" x="0px" y="0px"
	 width="24px" height="24px" viewBox="0 0 24 24" enable-background="new 0 0 24 24" xml:space="preserve">
<path d="M23.008,21.795c0.096-0.369,0.018-0.773-0.232-1.203c-0.672-1.148-2.521-2.406-5.209-3.545
	c-2.811-1.258-7.524-2.264-8.943-2.422c-4.33-0.574-7.253-0.039-7.63,1.398c-0.097,0.369-0.019,0.775,0.232,1.203l0,0
	c1.042,1.783,5.01,3.838,9.875,5.111c2.971,0.779,5.827,1.158,8.038,1.068C21.385,23.314,22.76,22.74,23.008,21.795z M7.459,18.363
	c-0.126-0.6-0.181-1.398-0.153-2.248c0.012-0.377,0.043-0.76,0.093-1.139c0.325,0.029,0.662,0.066,1.004,0.109
	c0.019,0.348,0.022,0.707,0.011,1.066c-0.028,0.848-0.134,1.641-0.3,2.232c-0.165,0.592-0.32,0.73-0.352,0.754
	C7.73,19.113,7.592,18.994,7.459,18.363z M13.031,20.461c-0.014,0-0.082-0.033-0.174-0.189c-0.08-0.139-0.199-0.41-0.307-0.912
	c-0.168-0.807-0.243-1.879-0.205-3.02c0.005-0.162,0.016-0.328,0.026-0.494c0.543,0.135,1.088,0.285,1.614,0.441
	c0,0.035,0,0.072-0.002,0.107c-0.037,1.139-0.18,2.203-0.402,2.998C13.357,20.197,13.109,20.463,13.031,20.461z M18.16,20.711
	c0,0-0.037-0.018-0.09-0.111c-0.059-0.1-0.145-0.295-0.223-0.67c-0.127-0.6-0.182-1.396-0.154-2.248
	c0.002-0.018,0.002-0.033,0.004-0.051c0.379,0.168,0.744,0.336,1.082,0.506C18.668,19.881,18.26,20.699,18.16,20.711z M12.289,1.926
	c0.069-0.116,0.097-0.287,0.055-0.417s-0.123-0.257-0.248-0.325c-0.12-0.063-0.286-0.109-0.419-0.055
	c-0.666,0.273-1.271,0.681-1.732,1.24C9.545,2.851,9.24,3.408,9.075,4.009C9.063,4.055,9.08,4.102,9.117,4.129
	c0.107,0.074,0.208,0.157,0.301,0.247C9.461,4.416,9.53,4.417,9.572,4.377c0.127-0.121,0.266-0.229,0.417-0.322
	c0.083-0.051,0.171-0.099,0.261-0.141c0.001-0.003,0.003-0.007,0.003-0.011c0.112-0.254,0.254-0.494,0.418-0.718
	c0.176-0.219,0.376-0.417,0.596-0.594c0.232-0.173,0.718-0.42,0.746-0.434l0.003-0.001C12.127,2.103,12.222,2.042,12.289,1.926z
	 M20.389,3.088c-0.049-0.118-0.184-0.194-0.301-0.229c-0.121-0.037-0.252-0.009-0.363,0.047c-0.109,0.056-0.199,0.182-0.229,0.3
	c-0.029,0.117-0.012,0.215,0.029,0.319c0.389,0.956,0.225,2.074-0.377,2.898c-0.025,0.032-0.053,0.062-0.078,0.094
	c-0.02,0.021-0.029,0.049-0.027,0.078c0.01,0.178-0.012,0.354-0.061,0.525c-0.023,0.083,0.051,0.161,0.135,0.137h0.002
	c0.135-0.035,0.27-0.053,0.406-0.053c0.055,0,0.107,0.003,0.16,0.007c0.035,0.004,0.07-0.01,0.094-0.037
	c0.088-0.102,0.17-0.209,0.248-0.322c0.391-0.553,0.609-1.209,0.674-1.881C20.762,4.324,20.637,3.683,20.389,3.088z M8.355,12.605
	c0.359,0,0.783-0.057,1.068-0.296c0.041-0.035,0.1-0.035,0.141-0.002c0.161,0.135,0.382,0.23,0.691,0.271
	c0.129,0.02,0.254,0.027,0.379,0.027c0.31,0,0.604-0.055,0.883-0.154c0.025-0.009,0.044-0.026,0.059-0.049
	c0.21-0.358,0.555-0.635,0.986-0.748l0.004-0.002c0.084-0.021,0.111-0.125,0.051-0.185c-0.202-0.199-0.351-0.453-0.427-0.741
	c-0.109-0.417-0.047-0.853,0.171-1.225c0.219-0.374,0.569-0.638,0.987-0.748c0.002,0,0.002,0,0.004,0
	c0.084-0.021,0.111-0.125,0.051-0.187c-0.199-0.199-0.35-0.451-0.424-0.74c-0.201-0.776,0.197-1.569,0.908-1.885
	c0.055-0.025,0.078-0.088,0.057-0.143c-0.402-0.959-1.199-1.625-2.471-1.625c-0.567,0-1.062,0.182-1.437,0.496
	C9.857,4.818,9.708,4.998,9.59,5.201c-0.042,0.072-0.147,0.072-0.189,0c-0.12-0.207-0.273-0.386-0.453-0.538
	C8.574,4.353,8.082,4.174,7.52,4.174C2.999,4.176,4.477,12.605,8.355,12.605z M7.024,0.58C6.889,0.576,6.772,0.675,6.753,0.809
	C6.67,1.435,6.652,3.115,8.902,2.956c0.136-0.009,0.244-0.122,0.245-0.259C9.159,2.111,8.988,0.634,7.024,0.58z M19.109,4.594
	c0.012-0.587-0.158-2.063-2.123-2.119c-0.135-0.003-0.252,0.095-0.271,0.229c-0.082,0.626-0.1,2.307,2.15,2.148
	C19.002,4.843,19.107,4.729,19.109,4.594z M19.883,11.424c-0.135-0.518-0.604-0.882-1.139-0.882c-0.1,0-0.199,0.013-0.297,0.039
	c-0.303,0.079-0.559,0.271-0.717,0.543c-0.16,0.271-0.205,0.589-0.127,0.892c0.137,0.519,0.604,0.882,1.141,0.882
	c0.098,0,0.197-0.014,0.297-0.039C19.666,12.697,20.045,12.053,19.883,11.424z M15.857,11.293c-0.1,0-0.199,0.012-0.297,0.039
	c-0.627,0.164-1.006,0.808-0.842,1.435c0.135,0.52,0.604,0.883,1.139,0.883c0.1,0,0.199-0.014,0.297-0.041
	c0.303-0.078,0.559-0.271,0.717-0.543s0.205-0.587,0.125-0.891C16.861,11.657,16.395,11.293,15.857,11.293z M17.658,10.167
	c0.158-0.271,0.203-0.588,0.125-0.892c-0.137-0.518-0.604-0.881-1.141-0.881c-0.098,0-0.199,0.012-0.295,0.039
	c-0.627,0.164-1.006,0.807-0.842,1.435c0.135,0.519,0.602,0.882,1.137,0.882c0.1,0,0.201-0.012,0.297-0.039
	C17.242,10.632,17.498,10.438,17.658,10.167z M14.645,6.25c-0.168-0.015-0.371,0.016-0.527,0.075
	c-0.549,0.213-0.863,0.812-0.713,1.393c0.104,0.397,0.402,0.702,0.777,0.823c0.211,0.069,0.441,0.076,0.658,0.02
	c0.305-0.079,0.559-0.271,0.717-0.543c0.16-0.271,0.205-0.588,0.127-0.892C15.555,6.639,15.137,6.29,14.645,6.25z M20.541,9.418
	c0.16-0.271,0.203-0.589,0.127-0.892c-0.137-0.519-0.604-0.882-1.141-0.882c-0.221,0-0.467,0.074-0.65,0.198
	c-0.404,0.271-0.617,0.777-0.486,1.276C18.527,9.637,18.994,10,19.529,10c0.1,0,0.199-0.012,0.297-0.039
	C20.127,9.882,20.383,9.688,20.541,9.418z M18.436,7.261c0.154-0.257,0.215-0.573,0.133-0.887c-0.135-0.518-0.604-0.881-1.139-0.881
	c-0.1,0-0.199,0.012-0.297,0.038c-0.303,0.08-0.559,0.272-0.717,0.543s-0.203,0.589-0.125,0.892
	c0.135,0.518,0.604,0.881,1.139,0.881C17.854,7.849,18.227,7.607,18.436,7.261z M12.744,9.727c-0.158,0.271-0.205,0.588-0.125,0.892
	c0.256,0.983,1.635,1.185,2.152,0.3c0.158-0.272,0.205-0.589,0.125-0.892c-0.158-0.612-0.818-1.003-1.436-0.843
	C13.158,9.263,12.902,9.455,12.744,9.727z M12.641,12.094c-0.572,0.178-0.968,0.806-0.809,1.423
	c0.137,0.518,0.604,0.881,1.139,0.881c0.1,0,0.199-0.012,0.297-0.039c0.303-0.078,0.559-0.271,0.717-0.543s0.203-0.588,0.125-0.893
	c-0.133-0.511-0.611-0.88-1.139-0.88C12.857,12.044,12.746,12.063,12.641,12.094z"/>
</svg>
