<?xml version="1.0" encoding="UTF-8" standalone="yes"?>
<svg xmlns="http://www.w3.org/2000/svg" xmlns:xlink="http://www.w3.org/1999/xlink" width="24px" height="24px" viewBox="0 0 18 18" version="1.1">
  <g id="surface1">
    <path style=" stroke:none;fill-rule:nonzero;fill:rgb(0%,0%,0%);fill-opacity:1;" d="M 15.675781 16.625 C 15.675781 17.378906 15.0625 17.992188 14.304688 17.992188 L 3.6875 17.992188 C 2.933594 17.992188 2.320312 17.378906 2.320312 16.625 C 2.320312 16.550781 2.332031 16.476562 2.359375 16.410156 L 6.035156 6.773438 C 6.039062 6.757812 6.039062 6.742188 6.042969 6.726562 L 6.042969 1.203125 L 5.605469 1.203125 C 5.273438 1.203125 5.003906 0.933594 5.003906 0.601562 C 5.003906 0.269531 5.273438 0 5.605469 0 L 6.644531 0 C 6.976562 0 7.246094 0.269531 7.246094 0.601562 L 7.246094 6.773438 C 7.246094 6.808594 7.242188 6.84375 7.238281 6.875 C 7.238281 6.949219 7.21875 7.046875 7.191406 7.117188 L 4.976562 12.921875 L 12.964844 12.921875 L 10.675781 7.125 C 10.652344 7.0625 10.636719 6.996094 10.632812 6.929688 L 10.628906 6.890625 C 10.625 6.867188 10.625 6.84375 10.625 6.820312 L 10.625 0.601562 C 10.625 0.269531 10.894531 0 11.226562 0 L 12.289062 0 C 12.625 0 12.890625 0.269531 12.890625 0.601562 C 12.890625 0.933594 12.625 1.203125 12.289062 1.203125 L 11.828125 1.203125 L 11.828125 6.765625 L 15.632812 16.402344 C 15.660156 16.472656 15.675781 16.546875 15.675781 16.625 Z M 7.832031 11.582031 C 7.832031 11.332031 8.03125 11.128906 8.28125 11.128906 C 8.53125 11.128906 8.734375 11.332031 8.734375 11.582031 C 8.734375 11.828125 8.53125 12.03125 8.28125 12.03125 C 8.03125 12.03125 7.832031 11.828125 7.832031 11.582031 Z M 8.132812 11.582031 C 8.132812 11.664062 8.199219 11.730469 8.28125 11.730469 C 8.363281 11.730469 8.433594 11.664062 8.433594 11.582031 C 8.433594 11.496094 8.363281 11.429688 8.28125 11.429688 C 8.199219 11.429688 8.132812 11.496094 8.132812 11.582031 Z M 10.164062 11.128906 C 10.164062 10.878906 10.367188 10.675781 10.613281 10.675781 C 10.863281 10.675781 11.066406 10.878906 11.066406 11.128906 C 11.066406 11.378906 10.863281 11.582031 10.613281 11.582031 C 10.367188 11.582031 10.164062 11.378906 10.164062 11.128906 Z M 10.464844 11.128906 C 10.464844 11.210938 10.53125 11.277344 10.613281 11.277344 C 10.695312 11.277344 10.765625 11.210938 10.765625 11.128906 C 10.765625 11.046875 10.695312 10.976562 10.613281 10.976562 C 10.53125 10.976562 10.464844 11.046875 10.464844 11.128906 Z M 8.910156 9.625 C 8.910156 9.277344 9.191406 8.996094 9.535156 8.996094 C 9.882812 8.996094 10.164062 9.277344 10.164062 9.625 C 10.164062 9.96875 9.882812 10.25 9.535156 10.25 C 9.191406 10.25 8.910156 9.96875 8.910156 9.625 Z M 9.210938 9.625 C 9.210938 9.804688 9.355469 9.949219 9.535156 9.949219 C 9.714844 9.949219 9.863281 9.804688 9.863281 9.625 C 9.863281 9.445312 9.714844 9.296875 9.535156 9.296875 C 9.355469 9.296875 9.210938 9.445312 9.210938 9.625 Z M 9.210938 9.625 "/>
  </g>
</svg>