<?xml version="1.0" encoding="utf-8"?>
<!-- Generator: Adobe Illustrator 15.1.0, SVG Export Plug-In . SVG Version: 6.00 Build 0)  -->
<!DOCTYPE svg PUBLIC "-//W3C//DTD SVG 1.1//EN" "http://www.w3.org/Graphics/SVG/1.1/DTD/svg11.dtd">
<svg version="1.1" id="Layer_1" xmlns="http://www.w3.org/2000/svg" xmlns:xlink="http://www.w3.org/1999/xlink" x="0px" y="0px"
	 width="24px" height="24px" viewBox="0 0 24 24" enable-background="new 0 0 24 24" xml:space="preserve">
<path d="M21.395,9.716c-0.466-0.652-1.372-0.805-2.024-0.34l-2.234,1.592c0,0-0.629-1.248-1.171-2.327
	c-0.466-0.926-1.181-1.689-2.076-2.218c-0.367-0.228-0.785-0.31-1.184-0.259c-0.524,0.065-1.016,0.358-1.317,0.841l-4.451,7.156
	c-0.839,1.351-0.558,3.142,0.656,4.167l1.527,1.29H5.225c-1.003,0-1.815,0.813-1.815,1.814c0,1.004,0.812,1.816,1.815,1.816h8.859
	c0.763,0,1.44-0.476,1.704-1.19c0.262-0.717,0.048-1.521-0.534-2.011l-3.577-3.022l2.714-5.063l0.871,1.817
	c0.184,0.386,0.53,0.672,0.945,0.778c0.12,0.031,0.242,0.047,0.364,0.047c0.3,0,0.593-0.093,0.842-0.27l3.642-2.594
	C21.707,11.276,21.859,10.37,21.395,9.716z M17.561,6.759c1.451,0,2.628-1.177,2.628-2.628s-1.177-2.627-2.628-2.627
	s-2.628,1.176-2.628,2.627S16.109,6.759,17.561,6.759z"/>
</svg>
