<?xml version="1.0" encoding="utf-8"?>
<!-- Generator: Adobe Illustrator 15.1.0, SVG Export Plug-In . SVG Version: 6.00 Build 0)  -->
<!DOCTYPE svg PUBLIC "-//W3C//DTD SVG 1.1//EN" "http://www.w3.org/Graphics/SVG/1.1/DTD/svg11.dtd">
<svg version="1.1" id="Layer_1" xmlns="http://www.w3.org/2000/svg" xmlns:xlink="http://www.w3.org/1999/xlink" x="0px" y="0px"
	 width="24px" height="24px" viewBox="0 0 24 24" enable-background="new 0 0 24 24" xml:space="preserve">
<path fill="#010202" d="M13.508,20.77c-0.271,0.263-0.864,0.787-1.506,0.787c-0.643,0-1.234-0.524-1.508-0.787
	c-0.364-0.348-1.575-1.702-1.575-1.702c-2.425-2.545-5.434-5.707-5.848-8.521C2.779,8.56,3.062,6.919,3.914,5.673
	C4.771,4.416,6.077,3.7,7.905,3.48c0.179-0.019,0.336-0.027,0.497-0.027c1.291,0,2.597,0.536,3.599,1.446
	c1-0.909,2.305-1.446,3.597-1.446c0.162,0,0.322,0.008,0.498,0.028c1.828,0.22,3.133,0.938,3.989,2.192
	c0.852,1.246,1.135,2.887,0.845,4.874c-0.417,2.813-3.424,5.977-5.848,8.522C15.085,19.069,13.872,20.422,13.508,20.77z
	 M15.106,10.312h-1.686V8.375c0-0.672-0.478-1.217-1.066-1.217h-0.614h-0.096c-0.587,0-1.064,0.545-1.064,1.217v1.937H8.892
	c-0.587,0-1.064,0.547-1.064,1.217v0.814c0,0.673,0.475,1.224,1.064,1.224h1.688v1.935c0,0.672,0.477,1.215,1.064,1.215h0.096h0.614
	c0.588,0,1.066-0.543,1.066-1.215v-1.935h1.686c0.59,0,1.066-0.551,1.066-1.224v-0.814C16.173,10.859,15.696,10.312,15.106,10.312z"
	/>
</svg>
