<?xml version="1.0" encoding="utf-8"?>
<!-- Generator: Adobe Illustrator 15.1.0, SVG Export Plug-In . SVG Version: 6.00 Build 0)  -->
<!DOCTYPE svg PUBLIC "-//W3C//DTD SVG 1.1//EN" "http://www.w3.org/Graphics/SVG/1.1/DTD/svg11.dtd">
<svg version="1.1" id="Layer_1" xmlns="http://www.w3.org/2000/svg" xmlns:xlink="http://www.w3.org/1999/xlink" x="0px" y="0px"
	 width="24px" height="24px" viewBox="0 0 24 24" enable-background="new 0 0 24 24" xml:space="preserve">
<path d="M2.32,9.051c0.143,0.214,0.396,0.348,0.662,0.348c0.118,0,0.234-0.026,0.337-0.077l1.392-0.678v3.418
	c0,0.202,0.164,0.367,0.367,0.367H19.12c0.203,0,0.368-0.165,0.368-0.367V8.639l1.015,0.494c0.344,0.168,0.799,0.031,0.994-0.295
	l0.752-1.253c0.102-0.17,0.13-0.37,0.078-0.56s-0.177-0.347-0.352-0.442l-9.379-5.108C12.42,1.38,12.232,1.36,12.105,1.36
	c-0.186,0-0.365,0.043-0.505,0.123L1.84,6.958C1.667,7.055,1.542,7.22,1.496,7.409C1.451,7.598,1.487,7.801,1.598,7.967L2.32,9.051z
	 M11.817,11.426c0,0.203-0.164,0.367-0.367,0.367h-1.172c-0.203,0-0.367-0.165-0.367-0.367v-1.172c0-0.203,0.165-0.367,0.367-0.367
	h1.172c0.203,0,0.367,0.165,0.367,0.367V11.426z M11.817,8.956c0,0.203-0.164,0.367-0.367,0.367h-1.172
	c-0.203,0-0.367-0.164-0.367-0.367V7.784c0-0.203,0.165-0.367,0.367-0.367h1.172c0.203,0,0.367,0.165,0.367,0.367V8.956z
	 M14.288,11.426c0,0.203-0.164,0.367-0.367,0.367h-1.172c-0.202,0-0.367-0.165-0.367-0.367v-1.172c0-0.203,0.165-0.367,0.367-0.367
	h1.172c0.203,0,0.367,0.165,0.367,0.367V11.426z M14.288,8.956c0,0.203-0.164,0.367-0.367,0.367h-1.172
	c-0.202,0-0.367-0.164-0.367-0.367V7.784c0-0.203,0.165-0.367,0.367-0.367h1.172c0.203,0,0.367,0.165,0.367,0.367V8.956z
	 M11.959,2.123c0.052-0.029,0.243-0.026,0.287-0.002l9.374,5.087l-0.752,1.253c-0.003,0.006-0.019,0.014-0.044,0.013L12.59,4.465
	c-0.176-0.085-0.363-0.104-0.49-0.104c-0.126,0-0.314,0.018-0.49,0.104L2.998,8.662c-0.005,0.002-0.06-0.006-0.067-0.018
	l-0.706-1.06L11.959,2.123z M18.09,22.641h1.03c0.203,0,0.368-0.165,0.368-0.367v-6.795c0-0.203-0.165-0.368-0.368-0.368H5.078
	c-0.203,0-0.367,0.165-0.367,0.368v6.795c0,0.202,0.165,0.366,0.367,0.366h8.537c0.202,0,0.366-0.164,0.366-0.366v-5.525
	c0-0.202,0.165-0.367,0.367-0.367h3.007c0.203,0,0.368,0.165,0.368,0.367v5.525C17.724,22.476,17.887,22.641,18.09,22.641z
	 M7.699,19.033c0,0.203-0.165,0.366-0.367,0.366H6.513c-0.202,0-0.367-0.163-0.367-0.366v-2.285c0-0.202,0.165-0.367,0.367-0.367
	h0.819c0.203,0,0.367,0.165,0.367,0.367V19.033z M9.958,19.033c0,0.203-0.165,0.366-0.367,0.366h-0.96
	c-0.202,0-0.367-0.163-0.367-0.366v-2.285c0-0.202,0.165-0.367,0.367-0.367h0.96c0.203,0,0.367,0.165,0.367,0.367V19.033z
	 M12.1,19.033c0,0.203-0.165,0.366-0.367,0.366H10.89c-0.202,0-0.367-0.163-0.367-0.366v-2.285c0-0.202,0.165-0.367,0.367-0.367
	h0.843c0.202,0,0.367,0.165,0.367,0.367V19.033z M4.711,14.57l0.443-0.659l-0.443-0.659V14.57z M5.264,13.746l0.506-0.753H4.759
	L5.264,13.746z M4.759,14.829h1.012l-0.506-0.754L4.759,14.829z M5.841,13.217l-0.466,0.694l0.466,0.693V13.217z M6.97,13.746
	l0.506-0.753H6.464L6.97,13.746z M6.123,12.993v1.836h0.12l0.617-0.918l-0.617-0.918H6.123z M7.817,14.829v-1.836H7.697L7.08,13.911
	l0.617,0.918H7.817z M6.464,14.829h1.012L6.97,14.075L6.464,14.829z M8.1,12.993v1.836H8.22l0.616-0.918L8.22,12.993H8.1z
	 M8.947,13.746l0.506-0.753H8.441L8.947,13.746z M9.793,14.829v-1.836h-0.12l-0.617,0.918l0.617,0.918H9.793z M8.441,14.829h1.012
	l-0.506-0.754L8.441,14.829z M11.77,14.829v-1.836h-0.12l-0.616,0.918l0.616,0.918H11.77z M10.076,12.993v1.836h0.12l0.616-0.918
	l-0.616-0.918H10.076z M10.923,13.746l0.506-0.753h-1.012L10.923,13.746z M10.417,14.829h1.012l-0.506-0.754L10.417,14.829z
	 M12.9,13.684l0.463-0.69h-0.928L12.9,13.684z M12.053,12.993v1.836h0.078l0.659-0.98l-0.575-0.855H12.053z M12.352,14.829h1.097
	L12.9,14.013L12.352,14.829z M13.747,14.829v-1.836h-0.162l-0.575,0.855l0.658,0.98H13.747z M14.876,13.836l0.566-0.843H14.31
	L14.876,13.836z M14.029,12.993v1.836h0.181L14.766,14l-0.677-1.007H14.029z M15.723,14.829v-1.836h-0.059L14.986,14l0.557,0.829
	H15.723z M14.431,14.829h0.892l-0.446-0.664L14.431,14.829z M16.853,13.684l0.463-0.69h-0.927L16.853,13.684z M16.006,12.993v1.836
	h0.078l0.658-0.98l-0.575-0.855H16.006z M17.699,14.829v-1.836h-0.162l-0.574,0.855l0.658,0.98H17.699z M16.305,14.829H17.4
	l-0.548-0.816L16.305,14.829z M19.488,12.993H19.48l-0.636,0.945l0.599,0.891h0.045V12.993z M17.982,12.993v1.836h0.045l0.597-0.891
	l-0.634-0.945H17.982z M19.222,14.829l-0.487-0.727l-0.487,0.727H19.222z M18.211,12.993l0.523,0.78l0.525-0.78H18.211z"/>
</svg>
