<?xml version="1.0" encoding="utf-8"?>
<!-- Generator: Adobe Illustrator 15.1.0, SVG Export Plug-In . SVG Version: 6.00 Build 0)  -->
<!DOCTYPE svg PUBLIC "-//W3C//DTD SVG 1.1//EN" "http://www.w3.org/Graphics/SVG/1.1/DTD/svg11.dtd">
<svg version="1.1" id="Layer_1" xmlns="http://www.w3.org/2000/svg" xmlns:xlink="http://www.w3.org/1999/xlink" x="0px" y="0px"
	 width="24px" height="24px" viewBox="0 0 24 24" enable-background="new 0 0 24 24" xml:space="preserve">
<path d="M14.719,12.54l2.65,8.74c0,0-5.67,3.273-11.13-0.334l2.517-8.406H14.719z M16.146,2.58l-1.893-0.112
	c-0.668-1.002-1.719-0.977-2.352-1.003C10.007,1.387,9.244,2.58,9.244,2.58L7.338,3.345L6.128,9.37l-1.67,5.677l0.445,0.11
	l1.669,0.446l1.57-5.279l0.604-2.684l0.108,4.29h2.577V3.193c-0.692-0.064-1.208-0.301-1.208-0.586c0-0.333,0.707-0.605,1.578-0.605
	c0.871,0,1.577,0.272,1.577,0.605c0,0.32-0.653,0.58-1.476,0.6v8.724h2.838l0.181-5.028l1.446,2.133l-0.778,5.343l1.671,0.558
	l1.446-7.125L16.146,2.58z"/>
</svg>
