<?xml version="1.0" encoding="UTF-8" standalone="yes"?>
<svg xmlns="http://www.w3.org/2000/svg" xmlns:xlink="http://www.w3.org/1999/xlink" width="24px" height="24px" viewBox="0 0 18 18" version="1.1">
  <g id="surface1">
    <path style=" stroke:none;fill-rule:nonzero;fill:rgb(0.392157%,0%,0.784314%);fill-opacity:1;" d="M 12.289062 3.214844 C 12.289062 1.441406 11.128906 0 9 0 C 6.867188 0 5.785156 1.441406 5.785156 3.214844 L 5.785156 3.980469 L 12.289062 3.980469 C 12.289062 3.980469 12.289062 3.214844 12.289062 3.214844 Z M 9 11.570312 C 11.128906 11.570312 12.289062 10.132812 12.289062 8.359375 L 12.289062 4.542969 L 5.785156 4.542969 L 5.785156 8.359375 C 5.785156 10.132812 6.867188 11.570312 9 11.570312 Z M 13.5 3.859375 L 13.5 8.359375 C 13.5 10.839844 11.835938 12.859375 9 12.859375 C 6.164062 12.859375 4.5 10.839844 4.5 8.359375 L 4.5 3.859375 C 3.785156 3.140625 3.214844 3.859375 3.214844 3.859375 L 3.214844 8.347656 C 3.214844 8.351562 3.214844 8.355469 3.214844 8.359375 C 3.214844 11.335938 5.464844 13.785156 8.359375 14.105469 L 8.359375 16.101562 L 5.796875 16.109375 L 5.140625 18 L 12.648438 18 L 12.007812 16.101562 L 9.644531 16.101562 L 9.644531 14.105469 C 12.535156 13.785156 14.785156 11.335938 14.785156 8.359375 L 14.785156 3.859375 C 14 3.070312 13.5 3.859375 13.5 3.859375 Z M 13.5 3.859375 "/>
  </g>
</svg>