<?xml version="1.0" encoding="UTF-8" standalone="no"?>
<!-- Generated by IcoMoon.io -->

<svg
   xmlns:dc="http://purl.org/dc/elements/1.1/"
   xmlns:cc="http://creativecommons.org/ns#"
   xmlns:rdf="http://www.w3.org/1999/02/22-rdf-syntax-ns#"
   xmlns:svg="http://www.w3.org/2000/svg"
   xmlns="http://www.w3.org/2000/svg"
   xmlns:sodipodi="http://sodipodi.sourceforge.net/DTD/sodipodi-0.dtd"
   xmlns:inkscape="http://www.inkscape.org/namespaces/inkscape"
   version="1.1"
   width="24"
   height="24"
   viewBox="0 0 24 24"
   id="svg3147"
   inkscape:version="0.48.5 r10040"
   sodipodi:docname="microscope.svg">
  <metadata
     id="metadata3155">
    <rdf:RDF>
      <cc:Work
         rdf:about="">
        <dc:format>image/svg+xml</dc:format>
        <dc:type
           rdf:resource="http://purl.org/dc/dcmitype/StillImage" />
      </cc:Work>
    </rdf:RDF>
  </metadata>
  <defs
     id="defs3153" />
  <sodipodi:namedview
     pagecolor="#ffffff"
     bordercolor="#666666"
     borderopacity="1"
     objecttolerance="10"
     gridtolerance="10"
     guidetolerance="10"
     inkscape:pageopacity="0"
     inkscape:pageshadow="2"
     inkscape:window-width="657"
     inkscape:window-height="480"
     id="namedview3151"
     showgrid="false"
     inkscape:zoom="7.375"
     inkscape:cx="12"
     inkscape:cy="16"
     inkscape:window-x="0"
     inkscape:window-y="27"
     inkscape:window-maximized="0"
     inkscape:current-layer="svg3147" />
  <path
     d="m 17.244788,20.644068 c 1.942754,-0.422119 3.39928,-2.251059 3.39928,-4.322034 0,-1.315339 -0.599322,-2.478686 -1.527839,-3.2725 0.0533,-0.343602 0.08716,-0.692246 0.08716,-1.049534 0,-2.3598303 -1.123009,-4.4545763 -2.881356,-5.7627119 l 1.440679,-1.440678 V 3.3559322 L 19.20339,1.9152542 17.762712,0.47457627 16.322034,1.9152542 H 14.881356 L 9.1186439,7.6779661 6.2372879,9.118644 V 12 l 1.440678,1.440678 H 10.559322 L 12,10.559322 14.161017,8.3983051 C 15.410085,9.150339 16.322034,10.433983 16.322034,12 13.93483,12 12,13.934831 12,16.322034 H 3.355932 v 1.440678 h 4.3220339 c 0.4307627,0.320551 0.9465254,0.497754 1.440678,0.720339 v 2.161017 H 6.2372879 L 3.355932,23.525424 h 17.288136 l -2.881356,-2.881356 h -0.517924 z m -2.363432,-4.322034 c 0,-0.795974 0.644703,-1.440678 1.440678,-1.440678 0.795974,0 1.440678,0.644704 1.440678,1.440678 0,0.795254 -0.644704,1.440678 -1.440678,1.440678 -0.795975,0 -1.440678,-0.645424 -1.440678,-1.440678 z"
     id="path3149"
     inkscape:connector-curvature="0"
     style="fill:#444444" />
</svg>
