<?xml version="1.0" encoding="UTF-8" standalone="no"?>
<!-- Generator: Adobe Illustrator 18.1.1, SVG Export Plug-In . SVG Version: 6.00 Build 0)  -->

<svg
   xmlns:dc="http://purl.org/dc/elements/1.1/"
   xmlns:cc="http://creativecommons.org/ns#"
   xmlns:rdf="http://www.w3.org/1999/02/22-rdf-syntax-ns#"
   xmlns:svg="http://www.w3.org/2000/svg"
   xmlns="http://www.w3.org/2000/svg"
   xmlns:sodipodi="http://sodipodi.sourceforge.net/DTD/sodipodi-0.dtd"
   xmlns:inkscape="http://www.inkscape.org/namespaces/inkscape"
   version="1.1"
   id="Capa_1"
   x="0px"
   y="0px"
   viewBox="0 0 24 24"
   xml:space="preserve"
   inkscape:version="0.48.5 r10040"
   width="100%"
   height="100%"
   sodipodi:docname="mive_foroshi.svg"><metadata
     id="metadata3636"><rdf:RDF><cc:Work
         rdf:about=""><dc:format>image/svg+xml</dc:format><dc:type
           rdf:resource="http://purl.org/dc/dcmitype/StillImage" /><dc:title></dc:title></cc:Work></rdf:RDF></metadata><defs
     id="defs3634" /><sodipodi:namedview
     pagecolor="#ffffff"
     bordercolor="#666666"
     borderopacity="1"
     objecttolerance="10"
     gridtolerance="10"
     guidetolerance="10"
     inkscape:pageopacity="0"
     inkscape:pageshadow="2"
     inkscape:window-width="657"
     inkscape:window-height="480"
     id="namedview3632"
     showgrid="false"
     inkscape:zoom="4.059281"
     inkscape:cx="23.048762"
     inkscape:cy="8.2527998"
     inkscape:window-x="0"
     inkscape:window-y="27"
     inkscape:window-maximized="0"
     inkscape:current-layer="Capa_1" /><g
     id="g3580"
     transform="matrix(0.04784122,0,0,0.04784122,0.8743808,0.87433282)"><g
       id="g3582"><path
         style="fill:#010002"
         d="m 73.538,465.107 c 25.321,0 47.325,-14.371 58.371,-35.367 -10.941,-9.787 -19.094,-22.565 -23.175,-37.083 -5.422,1.195 -11.03,1.87 -16.802,1.87 -28.873,0 -54.071,-15.778 -67.597,-39.115 -10.38,11.656 -16.745,26.954 -16.745,43.756 -0.007,36.359 29.581,65.939 65.948,65.939 z"
         id="path3584"
         inkscape:connector-curvature="0" /><path
         style="fill:#010002"
         d="m 30.863,341.211 c 0.788,1.935 1.674,3.829 2.642,5.666 11.03,21.045 33.059,35.457 58.42,35.457 4.95,0 9.762,-0.593 14.412,-1.634 -0.35,-2.999 -0.577,-6.04 -0.577,-9.128 0,-9.462 1.772,-18.493 4.869,-26.889 0.723,-1.951 1.504,-3.869 2.374,-5.747 0.853,-1.845 1.74,-3.666 2.731,-5.43 4.698,-8.381 10.876,-15.818 18.208,-21.939 -33.173,-1.683 -60.972,-24.052 -70.564,-54.518 -22.085,10.673 -37.391,33.221 -37.391,59.347 0,6.544 0.992,12.859 2.772,18.834 0.609,2.039 1.316,4.03 2.104,5.981 z"
         id="path3586"
         inkscape:connector-curvature="0" /><path
         style="fill:#010002"
         d="m 169.642,324.491 c -2.544,-4.934 -4.552,-10.169 -6.007,-15.639 -0.024,0.008 -0.041,0.016 -0.065,0.024 -2.032,0.658 -4.024,1.414 -5.966,2.26 -13.786,6.023 -25.117,16.615 -32.083,29.864 -0.984,1.87 -1.878,3.78 -2.674,5.747 -0.845,2.065 -1.577,4.186 -2.211,6.357 -1.715,5.869 -2.682,12.055 -2.682,18.476 0,1.78 0.13,3.52 0.268,5.259 0.171,2.13 0.447,4.219 0.813,6.283 0.358,2.024 0.813,4.016 1.357,5.966 3.008,10.9 8.714,20.687 16.412,28.556 1.569,1.609 3.211,3.146 4.942,4.585 1.626,1.357 3.316,2.634 5.072,3.829 10.575,7.226 23.345,11.461 37.091,11.461 36.359,0 65.939,-29.58 65.939,-65.947 0,-1.829 -0.13,-3.625 -0.276,-5.422 -3.438,0.463 -6.926,0.788 -10.486,0.788 -30.239,0 -56.454,-17.281 -69.444,-42.447 z"
         id="path3588"
         inkscape:connector-curvature="0" /><path
         style="fill:#010002"
         d="m 73.303,246.871 c 0.415,2.008 0.935,3.975 1.52,5.909 8.226,27.044 33.384,46.788 63.086,46.788 5.926,0 11.64,-0.862 17.103,-2.333 1.975,-0.536 3.918,-1.154 5.82,-1.861 0.146,-0.057 0.285,-0.106 0.431,-0.154 -0.171,-2.122 -0.325,-4.251 -0.325,-6.413 0,-2.731 0.146,-5.43 0.423,-8.096 1.935,-18.696 10.51,-35.432 23.296,-47.869 -7.909,-11.096 -12.989,-24.313 -14.184,-38.643 -9.925,4.576 -20.931,7.202 -32.563,7.202 -17.151,0 -32.986,-5.625 -45.886,-15.038 -12.347,11.99 -20.053,28.726 -20.053,47.26 0,2.439 0.154,4.837 0.415,7.21 0.217,2.039 0.51,4.063 0.917,6.038 z"
         id="path3590"
         inkscape:connector-curvature="0" /><path
         style="fill:#010002"
         d="m 259.325,351.535 c 12.242,-3.967 22.931,-11.404 30.88,-21.175 -17.159,-14.347 -28.109,-35.888 -28.109,-59.948 0,-2.016 0.154,-3.999 0.301,-5.983 -4.593,0.845 -9.299,1.349 -14.127,1.349 -12.908,0 -25.069,-3.203 -35.806,-8.763 -1.87,-0.967 -3.674,-2.032 -5.454,-3.138 -1.837,-1.146 -3.617,-2.374 -5.349,-3.666 -3.268,-2.439 -6.365,-5.08 -9.21,-7.99 -11.933,11.941 -19.322,28.417 -19.322,46.593 0,0.154 0.024,0.309 0.024,0.463 0.008,1.674 0.114,3.316 0.252,4.958 0.057,0.65 0.089,1.301 0.163,1.943 0.154,1.382 0.39,2.739 0.626,4.097 0.138,0.772 0.244,1.544 0.406,2.309 0.26,1.236 0.61,2.439 0.943,3.65 7.665,27.922 33.213,48.528 63.533,48.528 2.837,0 5.609,-0.244 8.356,-0.593 2.04,-0.26 4.056,-0.593 6.031,-1.04 1.985,-0.456 3.944,-0.977 5.862,-1.594 z"
         id="path3592"
         inkscape:connector-curvature="0" /><path
         style="fill:#010002"
         d="m 96.648,174.624 c 1.691,1.357 3.447,2.634 5.267,3.82 10.364,6.787 22.719,10.762 35.993,10.762 11.86,0 22.963,-3.186 32.587,-8.689 0.122,-1.301 0.317,-2.569 0.504,-3.845 0.309,-2.178 0.675,-4.324 1.162,-6.438 0.463,-2.016 0.943,-4.024 1.561,-5.983 5.259,-16.729 16.021,-31.019 30.124,-40.814 0,-0.057 0.008,-0.114 0.008,-0.179 0,-36.359 -29.588,-65.939 -65.947,-65.939 -36.359,0 -65.939,29.58 -65.939,65.939 0,18.525 7.706,35.27 20.053,47.26 1.473,1.44 3.017,2.814 4.627,4.106 z"
         id="path3594"
         inkscape:connector-curvature="0" /><path
         style="fill:#010002"
         d="m 184.949,169.398 c -0.154,0.553 -0.285,1.114 -0.431,1.666 -0.561,2.146 -1.008,4.333 -1.349,6.552 -0.098,0.626 -0.211,1.244 -0.285,1.87 -0.228,1.861 -0.358,3.747 -0.431,5.657 -0.033,0.772 -0.114,1.536 -0.114,2.325 0,0.057 -0.008,0.122 -0.008,0.179 0,13.892 4.341,26.776 11.713,37.416 1.154,1.666 2.365,3.276 3.658,4.82 1.317,1.577 2.699,3.089 4.154,4.536 0.602,0.593 1.252,1.13 1.878,1.707 1.861,1.707 3.804,3.308 5.853,4.796 1.805,1.317 3.674,2.536 5.609,3.666 9.738,5.682 21.02,8.99 33.083,8.99 5.617,0 11.039,-0.78 16.249,-2.105 1.731,-6.917 4.349,-13.477 7.787,-19.533 1.008,-1.772 2.04,-3.536 3.178,-5.227 1.138,-1.683 2.382,-3.284 3.65,-4.877 8.868,-11.136 20.712,-19.752 34.319,-24.743 0.447,-3.097 0.756,-6.243 0.756,-9.462 0,-17.631 -6.999,-33.636 -18.314,-45.479 0.821,-2.081 1.609,-4.17 2.512,-6.186 0.862,-1.935 1.829,-3.788 2.764,-5.666 C 325.159,82.106 371.947,53.241 421.198,32.668 440.251,24.71 431.895,-6.764 412.557,1.316 354.389,25.619 302.309,58.467 273.42,113.733 c -0.935,1.788 -1.788,3.658 -2.674,5.487 -0.886,1.845 -1.837,3.625 -2.674,5.519 -6.251,-1.975 -12.9,-3.048 -19.801,-3.048 -11.851,0 -22.955,3.186 -32.579,8.689 -2.349,1.341 -4.593,2.845 -6.755,4.454 -2.731,2.04 -5.324,4.243 -7.698,6.665 -7.56,7.715 -13.218,17.258 -16.29,27.899 z"
         id="path3596"
         inkscape:connector-curvature="0" /><path
         style="fill:#010002"
         d="m 297.066,320.15 c 1.553,1.349 3.17,2.617 4.845,3.82 1.642,1.179 3.341,2.276 5.088,3.3 9.771,5.739 21.11,9.08 33.238,9.08 36.359,0 65.939,-29.58 65.939,-65.939 0,-36.367 -29.588,-65.947 -65.939,-65.947 -5.617,0 -11.039,0.78 -16.249,2.105 -2.325,0.593 -4.609,1.309 -6.828,2.138 -2.65,0.992 -5.243,2.113 -7.722,3.43 -7.852,4.17 -14.77,9.868 -20.346,16.712 -1.276,1.569 -2.495,3.195 -3.625,4.877 -1.154,1.723 -2.243,3.503 -3.235,5.332 -1.195,2.203 -2.227,4.495 -3.17,6.844 -1.049,2.601 -1.894,5.292 -2.609,8.039 -0.593,2.292 -1.057,4.617 -1.406,6.999 -0.447,3.097 -0.756,6.243 -0.756,9.462 -10e-4,19.859 8.859,37.645 22.775,49.748 z"
         id="path3598"
         inkscape:connector-curvature="0" /><path
         style="fill:#010002"
         d="m 457.516,174.153 c 0,0 -50.422,-148.257 -110.557,-74.807 -60.143,73.449 68.557,103.257 110.557,74.807 z"
         id="path3600"
         inkscape:connector-curvature="0" /></g></g><g
     id="g3602"
     transform="translate(0,-441.10701)" /><g
     id="g3604"
     transform="translate(0,-441.10701)" /><g
     id="g3606"
     transform="translate(0,-441.10701)" /><g
     id="g3608"
     transform="translate(0,-441.10701)" /><g
     id="g3610"
     transform="translate(0,-441.10701)" /><g
     id="g3612"
     transform="translate(0,-441.10701)" /><g
     id="g3614"
     transform="translate(0,-441.10701)" /><g
     id="g3616"
     transform="translate(0,-441.10701)" /><g
     id="g3618"
     transform="translate(0,-441.10701)" /><g
     id="g3620"
     transform="translate(0,-441.10701)" /><g
     id="g3622"
     transform="translate(0,-441.10701)" /><g
     id="g3624"
     transform="translate(0,-441.10701)" /><g
     id="g3626"
     transform="translate(0,-441.10701)" /><g
     id="g3628"
     transform="translate(0,-441.10701)" /><g
     id="g3630"
     transform="translate(0,-441.10701)" /></svg>