<?xml version="1.0" encoding="utf-8"?>
<!-- Generator: Adobe Illustrator 15.1.0, SVG Export Plug-In . SVG Version: 6.00 Build 0)  -->
<!DOCTYPE svg PUBLIC "-//W3C//DTD SVG 1.1//EN" "http://www.w3.org/Graphics/SVG/1.1/DTD/svg11.dtd">
<svg version="1.1" id="Layer_1" xmlns="http://www.w3.org/2000/svg" xmlns:xlink="http://www.w3.org/1999/xlink" x="0px" y="0px"
	 width="24px" height="24px" viewBox="0 0 24 24" enable-background="new 0 0 24 24" xml:space="preserve">
<path d="M12.002,1.057c2.601,0.982,4.204,2.962,5.676,5.073c1-0.356,1.986-0.727,2.913-1.155c2.628,2.548,3.051,8.247,1.105,11.904
	c-1.703,3.201-5.008,5.876-9.694,5.876c-4.668,0-8.043-2.697-9.744-5.876c-1.84-3.439-1.534-9.341,1.155-11.904
	C4.319,5.408,5.318,5.748,6.276,6.13C7.822,4.076,9.369,2.023,12.002,1.057z M12.002,2.714c-0.016-0.005-0.085-0.007-0.101,0
	c-1.833,0.814-3.273,2.546-4.319,4.269c1.864,0.999,3.248,2.478,4.471,4.119c1.071-1.758,2.569-3.089,4.369-4.119
	C15.347,5.301,13.896,3.369,12.002,2.714z M4.167,16.979c1.502,2.441,4.339,4.444,7.986,4.37c3.619-0.073,6.37-2.111,7.785-4.521
	c1.457-2.482,1.921-7.077-0.15-9.593c-0.457,0.146-0.832,0.374-1.307,0.502c0.832,1.924,1.158,5.156,0.452,7.484
	c-2.254-0.877-4.482-1.779-6.981-2.41c-2.44,0.673-4.669,1.559-6.932,2.41c-0.603-2.412-0.355-5.553,0.502-7.484
	c-0.49-0.129-0.863-0.375-1.355-0.502C2.178,10.032,2.521,14.305,4.167,16.979z M7.281,8.29c-0.645,1.098-0.93,2.821-0.804,4.521
	c1.514-0.412,3.124-0.727,4.47-1.307C9.979,10.179,8.722,9.143,7.281,8.29z M16.724,8.34c-1.382,0.694-2.715,1.873-3.667,3.164
	c1.346,0.58,2.957,0.895,4.471,1.307C17.693,11.086,17.357,9.431,16.724,8.34z M9.642,15.321c-0.038,0.058-0.431,0.601-0.452,1.507
	c-0.047,1.991,1.905,3.679,4.068,2.763c1.625-0.688,2.327-3.22,0.954-4.671c-0.553-0.585-1.359-0.962-2.41-0.854
	C10.725,14.176,10.069,14.677,9.642,15.321z"/>
</svg>
