<?xml version="1.0" encoding="UTF-8" standalone="no"?>
<!-- Generator: Adobe Illustrator 15.1.0, SVG Export Plug-In . SVG Version: 6.00 Build 0)  -->

<svg
   xmlns:dc="http://purl.org/dc/elements/1.1/"
   xmlns:cc="http://creativecommons.org/ns#"
   xmlns:rdf="http://www.w3.org/1999/02/22-rdf-syntax-ns#"
   xmlns:svg="http://www.w3.org/2000/svg"
   xmlns="http://www.w3.org/2000/svg"
   xmlns:sodipodi="http://sodipodi.sourceforge.net/DTD/sodipodi-0.dtd"
   xmlns:inkscape="http://www.inkscape.org/namespaces/inkscape"
   version="1.1"
   id="Layer_1"
   x="0px"
   y="0px"
   width="24"
   height="24"
   viewBox="0 0 24 24"
   enable-background="new 0 0 500 500"
   xml:space="preserve"
   inkscape:version="0.48.5 r10040"
   sodipodi:docname="askarie.svg"><metadata
     id="metadata3055"><rdf:RDF><cc:Work
         rdf:about=""><dc:format>image/svg+xml</dc:format><dc:type
           rdf:resource="http://purl.org/dc/dcmitype/StillImage" /><dc:title></dc:title></cc:Work></rdf:RDF></metadata><defs
     id="defs3053" /><sodipodi:namedview
     pagecolor="#ffffff"
     bordercolor="#666666"
     borderopacity="1"
     objecttolerance="10"
     gridtolerance="10"
     guidetolerance="10"
     inkscape:pageopacity="0"
     inkscape:pageshadow="2"
     inkscape:window-width="657"
     inkscape:window-height="480"
     id="namedview3051"
     showgrid="false"
     inkscape:zoom="3.776"
     inkscape:cx="4.4020449"
     inkscape:cy="8.8719368"
     inkscape:window-x="0"
     inkscape:window-y="27"
     inkscape:window-maximized="0"
     inkscape:current-layer="Layer_1" /><path
     clip-rule="evenodd"
     d="m 17.467419,6.6089342 c 1.969874,0.2324237 3.585785,1.2213067 4.49851,2.7622429 0.109938,0.1855442 0.193123,0.4328045 0.315686,0.6313699 0.390108,0.632474 0.789371,2.047296 0.473527,3.156851 -0.200064,0.702791 -1.048864,1.96561 -1.578424,2.446556 -0.736415,0.668779 -1.768942,0.98328 -2.604402,1.578426 -0.289403,0 -0.578728,0 -0.868131,0 -0.48726,0.354593 -0.554344,1.129283 -0.710292,1.815189 -1.158091,1.577872 -2.195036,3.276887 -4.34067,3.867139 -0.394605,0 -0.789211,0 -1.183818,0 C 8.6005397,22.210479 6.9895212,20.296243 6.4184467,17.342221 5.9498915,17.337243 5.6821102,17.131422 5.1557063,17.18438 3.404524,16.489004 2.0433696,15.403602 1.3674888,13.632924 1.3411206,12.975274 1.1957558,12.436715 1.1307236,11.817736 1.3677237,10.292189 2.0093541,9.1712692 2.7880691,8.1873581 3.2484968,7.9374941 3.5925933,7.5712988 3.9718873,7.2403044 4.89353,7.0307668 5.5566261,6.5626859 6.5762898,6.4510911 6.6301906,5.0318498 7.2824755,4.2108326 7.7601087,3.2153218 8.6486826,2.3702331 9.821294,1.7474639 11.311564,1.2422902 c 1.456807,-0.49380945 3.077139,0.8157284 4.182823,1.4205835 1.055179,0.9178528 1.552699,2.3934432 1.973032,3.9460605 z M 11.864012,5.5829589 C 10.550604,4.6128592 8.7403086,5.1649129 7.9968707,6.4510911 7.7593963,6.8618756 7.8876442,7.3440072 7.444422,7.6349101 5.0832557,7.5661701 3.9975372,10.011938 5.0767847,11.975579 c -1.0991349,1.907526 0.039618,4.427323 2.4465588,4.261745 0.1876744,1.364391 0.7510918,2.353117 1.736267,2.920086 0.8304875,0.416468 1.7541815,-0.157841 2.6833205,-0.157841 0.842486,0 1.431396,0.402971 2.130875,0.315684 1.492084,-0.186175 2.010834,-1.283258 2.288717,-2.920086 0.362089,-0.242998 0.960234,-0.249864 1.499501,-0.315684 0.952343,-0.573443 1.698071,-1.3535 1.578427,-2.999007 -0.93498,-1.093692 0.278353,-1.910604 0,-3.3146939 C 19.149941,8.300612 17.999902,7.8704105 16.283601,7.4770664 16.121338,5.4331646 13.709506,4.5700045 11.864012,5.5829589 z m 1.025976,0.5524487 C 10.599061,5.7933625 9.4809047,6.8581685 9.8909807,8.9765714 c 0.1057535,0.2362102 0.3603543,0.3236542 0.6313703,0.3946057 0.05824,-0.3739278 -0.08879,-0.5425835 -0.07892,-0.8681322 0.642499,0.090048 0.483313,-0.6215837 1.025976,-0.6313702 0.4916,0.7150256 -0.27946,1.3568909 -0.552449,1.8151885 0.284905,0.3157618 1.778805,0.4111778 2.209794,0 -0.159418,-0.3193159 -1.489402,-1.0699373 -0.631368,-1.736267 0.430199,0.3994989 0.61314,0.4825232 1.104898,0.5524487 -0.09755,0.2470221 -0.209773,0.5263252 -0.07892,0.7892106 1.247113,-0.65394 0.409442,-2.9125889 -0.63137,-3.1568479 z M 7.444422,10.554995 c 0.1576862,0.824964 1.4861674,0.63287 2.2887156,0.631371 1.5691134,-0.003 3.0274984,-0.02314 4.4985114,-0.07892 0.54361,-0.02061 1.465805,-0.329969 1.578425,0.315686 -0.59483,0.548502 -1.783385,0.315684 -2.841164,0.315684 -1.098978,0 -2.280432,-0.06274 -3.1568508,0.07892 -0.1863315,0.656307 -0.5163032,2.308367 0.078921,2.762242 0.9097263,-0.08997 0.1373223,-1.862068 0.7102913,-2.288716 2.191328,-0.08082 3.972815,0.22461 5.919094,-0.157843 0.153815,-0.487812 0.166049,-1.467933 -0.236765,-1.657345 -2.353353,-0.04688 -6.170536,-0.255153 -8.839179,0.07892 z m -0.078922,1.420584 c 0.03512,0.38553 -0.073555,0.863712 -0.078921,1.42058 -0.00851,0.886128 -0.3068442,2.240811 0.5524514,2.367638 0.7465153,-0.662227 -0.3793761,-3.103262 0.6313669,-3.314691 0.2879855,0.527507 -0.2518374,1.882903 0.3946083,2.05195 0.7571678,-0.428225 0.2701469,-2.003177 0.078921,-2.762242 -0.5658677,0.03914 -1.3498708,-0.139691 -1.5784266,0.236765 z m 7.4975166,1.104897 c 0.216482,0.808627 -0.731362,0.828753 -0.552449,1.341659 0.487815,0.265491 1.793407,0.226269 2.288719,0 0.04127,-0.593722 -0.931667,-0.173229 -1.025978,-0.631368 -0.01128,-0.432253 0.729865,-0.111911 0.868135,-0.394608 0.04578,-0.256257 -0.05375,-0.367139 -0.07892,-0.552448 -0.478582,-0.159973 -1.230622,-0.06037 -1.499507,0.236765 z m -3.788218,1.499502 c 0.582361,-0.0831 0.560814,-1.585921 -0.07892,-1.578424 -0.269672,0.293271 -0.424674,1.421371 0.07892,1.578424 z m 0.868132,-0.07892 c 0.185309,0.02516 0.296192,0.124697 0.552451,0.07892 0.233528,-0.42799 0.04561,-0.792369 0.157841,-1.341662 -0.702635,-0.788028 -1.004667,0.591674 -0.710292,1.26274 z m 1.1049,0 c 0.185858,-0.0018 0.232342,0.135983 0.473527,0.07892 0.269043,-0.409286 0.215453,-0.980596 0.157843,-1.499502 -0.75441,-0.374797 -0.734758,0.937662 -0.63137,1.42058 z m 1.815186,0.63137 c -1.925281,0 -4.671189,-0.01074 -6.0769331,0 -0.1043332,9.26e-4 -0.072134,0.138348 -0.1578437,0.157843 0.1284834,1.048152 1.6339858,0.547872 2.6044028,0.552449 1.230537,0.0058 2.751194,0.01089 3.867139,0 0.514647,-0.005 1.20268,0.295482 1.341662,-0.315685 -0.206931,-0.585437 -1.005063,-0.394607 -1.578427,-0.394607 z"
     id="path3049"
     inkscape:connector-curvature="0"
     style="fill-rule:evenodd" /></svg>