<?xml version="1.0" encoding="UTF-8" standalone="no"?>
<!-- Generator: Adobe Illustrator 15.1.0, SVG Export Plug-In . SVG Version: 6.00 Build 0)  -->

<svg
   xmlns:dc="http://purl.org/dc/elements/1.1/"
   xmlns:cc="http://creativecommons.org/ns#"
   xmlns:rdf="http://www.w3.org/1999/02/22-rdf-syntax-ns#"
   xmlns:svg="http://www.w3.org/2000/svg"
   xmlns="http://www.w3.org/2000/svg"
   xmlns:sodipodi="http://sodipodi.sourceforge.net/DTD/sodipodi-0.dtd"
   xmlns:inkscape="http://www.inkscape.org/namespaces/inkscape"
   version="1.1"
   id="Layer_1"
   x="0px"
   y="0px"
   width="24"
   height="24"
   viewBox="0 0 24 24"
   enable-background="new 0 0 500 500"
   xml:space="preserve"
   inkscape:version="0.48.5 r10040"
   sodipodi:docname="arman.svg"><metadata
     id="metadata3046"><rdf:RDF><cc:Work
         rdf:about=""><dc:format>image/svg+xml</dc:format><dc:type
           rdf:resource="http://purl.org/dc/dcmitype/StillImage" /><dc:title></dc:title></cc:Work></rdf:RDF></metadata><defs
     id="defs3044" /><sodipodi:namedview
     pagecolor="#ffffff"
     bordercolor="#666666"
     borderopacity="1"
     objecttolerance="10"
     gridtolerance="10"
     guidetolerance="10"
     inkscape:pageopacity="0"
     inkscape:pageshadow="2"
     inkscape:window-width="657"
     inkscape:window-height="480"
     id="namedview3042"
     showgrid="false"
     inkscape:zoom="3.776"
     inkscape:cx="8.9031187"
     inkscape:cy="16.002202"
     inkscape:window-x="0"
     inkscape:window-y="27"
     inkscape:window-maximized="0"
     inkscape:current-layer="Layer_1" /><path
     clip-rule="evenodd"
     d="m 17.788945,10.832874 c 0.01513,0.487673 -0.170541,0.851582 -0.420166,1.073756 -1.160216,1.032674 -2.404186,-0.59304 -3.548063,-0.233424 -0.20504,0.06447 -0.399484,0.370119 -0.513535,0.280109 0.117787,-0.727072 0.806251,-1.282811 1.540606,-1.260496 0.971796,0.0295 2.097279,1.391868 2.941158,0.140055 z m 0.840331,3.267953 c -0.135107,-1.244296 -1.302794,-2.201573 -2.614363,-1.587292 1.890511,0.235246 0.762694,2.908712 2.100827,3.921544 0.437159,0.330904 1.372587,0.513769 1.960772,0.09337 -1.368899,-0.03203 -1.328096,-1.330384 -1.447236,-2.427622 z m -5.36878,2.147512 c 1.428796,0.684403 2.839057,-0.757792 2.287567,-2.147512 -0.257468,-0.648828 -0.957511,-1.078938 -1.820717,-0.933701 -1.677673,0.282305 -1.697281,2.491814 -0.46685,3.081213 z m 3.781488,-0.09337 c -0.581042,1.594854 -3.152734,1.388226 -4.388394,2.520992 -1.021282,0.936268 -1.336219,2.952502 -0.18674,4.014913 -0.629034,-3.15278 3.330558,-2.395082 4.668504,-4.108283 0.593274,-0.759612 0.877586,-2.411562 -0.04668,-3.361323 0.07161,0.267038 0.04351,0.68613 -0.04668,0.9337 z M 15.361323,2.5696224 c 0.319745,3.1215485 -2.544662,4.0334475 -4.154969,5.3220948 -0.879686,0.7039636 -1.6652553,1.6962073 -1.9607717,2.8477868 -0.5713782,2.226503 0.5921064,3.91963 1.8674017,4.901929 -0.28716,-0.45107 -0.453452,-1.3379 -0.28011,-2.007456 0.960498,-3.7094068 6.484272,-3.7780805 6.30248,-8.5900475 -0.07049,-1.8660011 -1.15256,-2.9506345 -2.334252,-3.7348035 0.324088,0.337487 0.50714,0.742293 0.560221,1.2604964 z M 8.2651965,13.307182 c -1.6896717,-0.830527 -3.7602462,-0.122315 -4.3417085,1.21381 0.2683455,-0.266711 0.5565789,-0.347663 0.9337009,-0.37348 3.4083811,-0.233379 2.9506344,5.101508 6.9560701,4.621819 0.934402,-0.111904 1.738365,-0.725392 2.100828,-1.353866 -3.104229,1.140796 -3.484665,-3.044518 -5.6488905,-4.108283 z"
     id="path3040"
     inkscape:connector-curvature="0"
     style="fill-rule:evenodd" /></svg>