<?xml version="1.0" encoding="UTF-8" standalone="no"?>
<!-- Generator: Adobe Illustrator 15.1.0, SVG Export Plug-In . SVG Version: 6.00 Build 0)  -->

<svg
   xmlns:dc="http://purl.org/dc/elements/1.1/"
   xmlns:cc="http://creativecommons.org/ns#"
   xmlns:rdf="http://www.w3.org/1999/02/22-rdf-syntax-ns#"
   xmlns:svg="http://www.w3.org/2000/svg"
   xmlns="http://www.w3.org/2000/svg"
   xmlns:sodipodi="http://sodipodi.sourceforge.net/DTD/sodipodi-0.dtd"
   xmlns:inkscape="http://www.inkscape.org/namespaces/inkscape"
   version="1.1"
   id="Layer_1"
   x="0px"
   y="0px"
   width="24"
   height="24"
   viewBox="0 0 24 24"
   enable-background="new 0 0 500 500"
   xml:space="preserve"
   inkscape:version="0.48.5 r10040"
   sodipodi:docname="kosar.svg"><metadata
     id="metadata3269"><rdf:RDF><cc:Work
         rdf:about=""><dc:format>image/svg+xml</dc:format><dc:type
           rdf:resource="http://purl.org/dc/dcmitype/StillImage" /><dc:title></dc:title></cc:Work></rdf:RDF></metadata><defs
     id="defs3267" /><sodipodi:namedview
     pagecolor="#ffffff"
     bordercolor="#666666"
     borderopacity="1"
     objecttolerance="10"
     gridtolerance="10"
     guidetolerance="10"
     inkscape:pageopacity="0"
     inkscape:pageshadow="2"
     inkscape:window-width="657"
     inkscape:window-height="480"
     id="namedview3265"
     showgrid="false"
     inkscape:zoom="3.776"
     inkscape:cx="22.724864"
     inkscape:cy="15.892506"
     inkscape:window-x="0"
     inkscape:window-y="27"
     inkscape:window-maximized="0"
     inkscape:current-layer="Layer_1" /><path
     clip-rule="evenodd"
     d="M 17.577805,3.7935673 C 10.163185,3.9724875 4.8144251,10.657279 7.8596618,18.262807 5.9801695,15.560727 5.4416792,11.25386 6.6718888,8.1127438 8.1475309,4.344799 12.616047,1.0188199 16.49801,0.44620375 17.142109,1.2778606 17.39219,2.5034268 17.577805,3.7935673 z m 3.887262,11.9857117 c 0.206673,2.590856 -0.822697,4.708551 -1.511716,6.910681 1.034663,0.369076 2.053339,0.754129 3.347364,0.863836 2.908318,-8.764364 -2.112401,-16.786802 -10.581984,-16.8447851 4.399947,1.182589 8.33245,3.8811011 8.746336,9.0702681 z M 11.20702,20.854313 c -4.2042851,-0.0229 -6.9343262,-3.090156 -8.8543076,-5.506949 -0.072023,0 -0.1439373,0 -0.2159597,0 -0.8252888,0.758444 -1.57649818,1.590859 -2.26756837,2.483523 2.97569607,4.565155 11.87330867,6.359663 16.73680867,2.483528 1.28733,-1.026019 2.503286,-2.389045 3.023421,-3.995239 -1.779499,2.472299 -4.702827,4.555436 -8.422394,4.535137 z m 0.431921,-3.131404 c 3.060243,1.417119 6.720418,-0.966524 5.938864,-4.967052 C 17.21154,10.881118 15.311318,9.4588108 13.042674,9.7324318 8.6213475,10.265743 8.1167601,16.091878 11.638941,17.722909 z"
     id="path3263"
     inkscape:connector-curvature="0"
     style="fill-rule:evenodd" /></svg>