<?xml version="1.0" encoding="utf-8"?>
<!-- Generator: Adobe Illustrator 15.1.0, SVG Export Plug-In . SVG Version: 6.00 Build 0)  -->
<!DOCTYPE svg PUBLIC "-//W3C//DTD SVG 1.1//EN" "http://www.w3.org/Graphics/SVG/1.1/DTD/svg11.dtd">
<svg version="1.1" id="Layer_1" xmlns="http://www.w3.org/2000/svg" xmlns:xlink="http://www.w3.org/1999/xlink" x="0px" y="0px"
	 width="24px" height="24px" viewBox="0 0 24 24" enable-background="new 0 0 24 24" xml:space="preserve">
<path d="M21.537,6.88c0.785,1.913,1.52,3.391,1.318,6.087c-0.267,3.59-2.078,6.373-4.361,8.014c-1.746,1.254-3.739,2.223-6.441,2.23
	c-3.649,0.012-6.521-1.584-8.47-3.803c-1.948-2.219-3.328-5.555-2.587-9.384c0.837-4.328,4.163-7.716,8.419-8.673
	C15.242,0.042,19.516,3.393,21.537,6.88z M4.901,5.156c-1.559,1.558-2.778,3.931-2.84,6.746c-0.039,1.747,0.377,3.239,0.963,4.464
	c1.067,2.229,2.912,4.027,5.275,4.971c1.217,0.484,2.738,0.734,4.159,0.658c3.482-0.186,5.691-1.793,7.354-3.854
	c1.384-1.717,2.306-4.196,1.979-7.203c-0.278-2.55-1.495-4.651-3.195-6.137c-1.631-1.425-3.965-2.66-6.898-2.536
	C8.674,2.393,6.455,3.603,4.901,5.156z M6.625,4.851C4.664,6.696,2.76,8.886,3.024,12.764c0.294,4.309,3.52,7.629,7.659,8.217
	c3.178,0.451,5.941-0.832,7.608-2.486c1.396-1.385,2.359-3.188,2.587-5.375c0.219-2.115-0.275-4.117-1.167-5.58
	c-1.412-2.317-3.773-4.067-7.252-4.362c-0.084,0.629-0.084,1.603,0,2.231c0.231,0.028,0.065-0.34,0.253-0.355
	c0.247,0.091,0.618,0.059,0.71,0.304c-0.063,0.14-0.148,0.258-0.152,0.457c0.26,0.262,0.516,0.729,1.015,0.457
	c0.096,0.209,0.253,0.355,0.304,0.608c0.024,0.244-0.328,0.111-0.304,0.355c0.325,0.103,1.026-0.016,1.471,0.102
	c0.854,1.827,1.558,3.741,2.384,5.681c0.254,0.595,0.782,1.361,0.812,1.927c0.044,0.845-0.582,1.483-1.015,1.825
	c-1.397,1.107-3.869,0.895-4.92-0.557c-0.746-1.034-0.242-1.923,0.203-2.993c0.746-1.789,1.471-3.253,2.131-5.021
	c-0.229-0.109-0.652-0.024-0.964-0.051c-0.148,0.174,0.272,0.103,0.202,0.355c-0.101,0.22-0.172,0.471-0.354,0.609
	c-0.143-0.043-0.208-0.164-0.405-0.152c-0.131,0.275-0.462,0.35-0.559,0.659c0.055,0.132,0.123,0.249,0.102,0.457
	c-0.188,0.117-0.413,0.195-0.659,0.254c-0.124-0.129-0.159-0.348-0.253-0.507c-0.305,0-0.609,0-0.913,0
	c-0.163,0.107-0.1,0.441-0.304,0.507c-0.279-0.06-0.546-0.131-0.66-0.355c0.063-0.123,0.126-0.247,0.152-0.406
	c-0.205-0.201-0.385-0.427-0.609-0.609C9.904,8.924,9.9,9.106,9.719,9.112c-0.13-0.208-0.273-0.403-0.304-0.71
	C9.408,8.242,9.698,8.38,9.618,8.148C9.291,8.175,8.849,8.089,8.604,8.199c0.644,1.776,1.445,3.288,2.13,5.021
	c0.239,0.604,0.646,1.246,0.659,1.775c0.021,0.798-0.633,1.495-1.065,1.825c-0.689,0.527-1.739,0.773-2.688,0.66
	c-1.351-0.162-2.742-1.424-2.638-2.587c0.02-0.225,0.217-0.633,0.355-0.964c0.134-0.32,0.288-0.684,0.406-0.963
	C6.6,10.985,7.42,9.06,8.299,7.286c0.41-0.022,0.946,0.026,1.42-0.051c0.042-0.244-0.306-0.099-0.304-0.304
	c0.04-0.281,0.152-0.491,0.304-0.659c0.509,0.272,0.712-0.234,1.015-0.457c0.006-0.226-0.125-0.314-0.152-0.507
	c0.193-0.128,0.422-0.22,0.71-0.253c0.119,0.05,0.084,0.254,0.253,0.253c-0.007-0.526,0.021-1.547,0-2.08
	C9.517,3.179,8.017,4.094,6.625,4.851z M13.422,8.046C14,5.326,9.11,6.261,10.886,8.655C11.732,9.333,13.226,8.971,13.422,8.046z
	 M5.966,14.843c1.26,0.001,3.204,0.001,4.463,0C9.79,12.947,9.01,11.19,8.198,9.467C7.401,11.173,6.536,13.078,5.966,14.843z
	 M14.284,12.662c-0.12,0.829-0.722,1.439-0.761,2.181c1.266-0.032,3.33,0.069,4.514-0.05c-0.746-1.791-1.445-3.627-2.282-5.326
	C15.17,10.438,14.885,11.708,14.284,12.662z"/>
</svg>
