<?xml version="1.0" encoding="utf-8"?>
<!-- Generator: Adobe Illustrator 15.1.0, SVG Export Plug-In . SVG Version: 6.00 Build 0)  -->
<!DOCTYPE svg PUBLIC "-//W3C//DTD SVG 1.1//EN" "http://www.w3.org/Graphics/SVG/1.1/DTD/svg11.dtd">
<svg version="1.1" id="Layer_1" xmlns="http://www.w3.org/2000/svg" xmlns:xlink="http://www.w3.org/1999/xlink" x="0px" y="0px"
	 width="24px" height="24px" viewBox="0 0 24 24" enable-background="new 0 0 24 24" xml:space="preserve">
<path d="M13.133,19.166H3.459c-0.694,0-1.257-0.563-1.257-1.258V6.714c0-0.695,0.563-1.257,1.257-1.257h16.275
	c0.694,0,1.258,0.563,1.258,1.257v3.157c0,0.695-0.563,1.258-1.258,1.258s-1.259-0.563-1.259-1.258v-1.9H4.716v8.681h8.417
	c0.695,0,1.259,0.561,1.259,1.256S13.828,19.166,13.133,19.166z M22.903,18.156c0-0.559-0.452-1.008-1.009-1.008h-5.802
	c-0.558,0-1.01,0.449-1.01,1.008c0,0.557,0.452,1.01,1.01,1.01h5.802C22.451,19.166,22.903,18.713,22.903,18.156z M22.903,15.631
	c0-0.559-0.452-1.008-1.009-1.008h-5.802c-0.558,0-1.01,0.449-1.01,1.008c0,0.557,0.452,1.008,1.01,1.008h5.802
	C22.451,16.639,22.903,16.188,22.903,15.631z M22.903,13.104c0-0.559-0.452-1.01-1.009-1.01h-5.802c-0.558,0-1.01,0.453-1.01,1.01
	s0.452,1.006,1.01,1.006h5.802C22.451,14.109,22.903,13.66,22.903,13.104z M9.784,12.117C9.051,11.93,8.87,11.839,8.87,11.56v-0.012
	c0-0.207,0.188-0.369,0.543-0.369c0.292,0,0.582,0.103,0.891,0.285c0.073,0.042,0.145,0.066,0.237,0.066
	c0.242,0,0.436-0.188,0.436-0.43c0-0.182-0.104-0.308-0.206-0.369c-0.268-0.17-0.569-0.282-0.901-0.336v-0.319
	c0-0.222-0.181-0.403-0.404-0.403s-0.403,0.181-0.403,0.403v0.316c-0.669,0.124-1.119,0.586-1.119,1.241v0.012
	c0,0.842,0.551,1.078,1.404,1.295c0.708,0.184,0.854,0.303,0.854,0.539v0.012c0,0.246-0.23,0.402-0.613,0.402
	c-0.41,0-0.762-0.148-1.083-0.383c-0.061-0.043-0.145-0.084-0.266-0.084c-0.243,0-0.436,0.188-0.436,0.43
	c0,0.145,0.072,0.277,0.175,0.348c0.329,0.238,0.7,0.387,1.083,0.457v0.332c0,0.225,0.18,0.408,0.403,0.408s0.404-0.184,0.404-0.408
	v-0.297c0.752-0.094,1.258-0.547,1.258-1.295v-0.012C11.127,12.65,10.643,12.341,9.784,12.117z"/>
</svg>
