<?xml version="1.0" encoding="utf-8"?>
<!-- Generator: Adobe Illustrator 15.1.0, SVG Export Plug-In . SVG Version: 6.00 Build 0)  -->
<!DOCTYPE svg PUBLIC "-//W3C//DTD SVG 1.1//EN" "http://www.w3.org/Graphics/SVG/1.1/DTD/svg11.dtd">
<svg version="1.1" id="Layer_1" xmlns="http://www.w3.org/2000/svg" xmlns:xlink="http://www.w3.org/1999/xlink" x="0px" y="0px"
	 width="24px" height="24px" viewBox="0 0 24 24" enable-background="new 0 0 24 24" xml:space="preserve">
<path fill-rule="evenodd" clip-rule="evenodd" d="M11.641,8.106c-0.885,0.132-0.875-1.22-1.011-2.022
	c-0.15-0.882-0.449-2.249-0.253-2.654c0.355-0.736,1.721-0.654,2.023,0.126C12.901,4.852,11.483,7.076,11.641,8.106z M13.536,6.463
	c0.346-0.632,1.174-1.631,1.139-2.149c-0.092-1.334-1.84-1.229-2.149-0.379c-0.257,0.707-0.724,4.207-0.252,4.298
	C12.878,8.179,13.105,7.252,13.536,6.463z M15.434,6.842c0.512-0.476,1.164-0.957,1.137-1.517c-0.032-0.666-0.779-1.298-1.644-0.885
	c-1.091,0.522-1.426,3.414-2.274,4.172C13.549,9.041,14.646,7.572,15.434,6.842z M5.826,5.957c-0.7-0.005-1.253,0.529-1.138,1.265
	C4.9,8.57,7.698,8.499,8.733,9.37C8.712,9.054,8.928,8.975,9.113,8.865C8.308,8.361,7.073,5.967,5.826,5.957z M18.088,7.095
	c0.04-0.673-0.627-1.139-1.139-1.138c-0.719,0.002-1.294,0.977-2.022,1.644c-0.715,0.655-1.9,1.202-1.391,1.77
	C14.441,9.125,18.014,8.32,18.088,7.095z M4.436,7.98c-0.533,0.182-0.9,0.992-0.506,1.643c0.372,0.614,4.861,1.182,4.677-0.126
	C7.28,9.554,5.872,7.487,4.436,7.98z M18.973,8.991c-0.08-2.13-4.196,0.166-5.183,0.884c0.039,0.171,0.179,0.242,0.126,0.506
	C15.624,9.956,19.041,10.794,18.973,8.991z M9.113,10.255c-0.602,2.451,1.503,2.934,2.654,2.654
	c2.243-0.542,1.623-4.548-1.137-3.918C9.732,9.196,9.206,9.876,9.113,10.255z M12.904,12.909c-0.442,0.448-1.48,1.783-1.643,1.77
	c-0.13-0.01-0.494-0.827-0.759-1.137c-1.552-1.817-5.134-4.171-8.343-2.655c1.602,0.741,2.588,0.816,3.54,1.77
	c1.775,1.781,1.428,6.241,3.413,7.332C8.614,19.911,8.964,20.683,8.859,21c1.543,0.143,4.224,0.354,5.563-0.127
	c0.151-0.74-0.221-0.959-0.632-1.138c0.573-0.074,0.957-0.635,1.011-0.885c0.809-3.739,1.572-7.15,5.814-8.09
	C17.529,9.584,14.521,11.273,12.904,12.909z M9.871,3.429c-0.723-0.479-1.71-0.014-1.77,0.885c-0.088,1.325,1.959,2.433,1.77,3.792
	C9.085,7.377,8.688,4.411,7.343,4.314C6.747,4.271,6.286,4.621,6.205,5.199c-0.232,1.67,2.467,2.143,3.034,3.413
	c0.572-0.145,0.747-0.686,1.644-0.506C10.265,7.174,10.838,4.071,9.871,3.429z"/>
</svg>
