<?xml version="1.0" encoding="utf-8"?>
<!-- Generator: Adobe Illustrator 15.1.0, SVG Export Plug-In . SVG Version: 6.00 Build 0)  -->
<!DOCTYPE svg PUBLIC "-//W3C//DTD SVG 1.1//EN" "http://www.w3.org/Graphics/SVG/1.1/DTD/svg11.dtd">
<svg version="1.1" id="Layer_1" xmlns="http://www.w3.org/2000/svg" xmlns:xlink="http://www.w3.org/1999/xlink" x="0px" y="0px"
	 width="24px" height="24px" viewBox="0 0 24 24" enable-background="new 0 0 24 24" xml:space="preserve">
<path d="M18.102,10.389c-1.395,1.191-2.91,2-4.518,3.117c-0.414,0.287-1.105,0.98-1.506,0.986c-0.311,0.004-0.881-0.512-1.195-0.727
	c-0.887-0.609-1.413-0.888-2.337-1.506c-0.36-0.241-0.856-0.769-1.143-0.779c-0.257-0.01-0.896,0.491-1.247,0.727
	c-0.89,0.602-1.437,0.943-2.337,1.559c-0.346,0.236-0.883,0.732-1.194,0.727c-0.648-0.01-1.046-0.852-1.766-1.09
	c0.416-0.51,1.008-0.826,1.558-1.195c1.053-0.707,2.129-1.344,3.272-2.129c0.445-0.306,1.248-1.021,1.662-1.039
	c0.363-0.016,0.8,0.474,1.194,0.727c0.893,0.571,1.396,0.908,2.285,1.506c0.417,0.281,0.868,0.667,1.195,0.675
	c0.374,0.009,0.891-0.436,1.246-0.675c0.438-0.293,0.765-0.468,1.039-0.831c-0.188-0.365-0.605-0.559-0.935-0.779
	c-0.345-0.231-0.698-0.442-1.039-0.675c-0.67-0.457-1.429-0.828-1.921-1.454c0.552-0.383,1.158-0.712,1.662-1.143
	c0.393,0.079,1.097,0.683,1.558,0.987C15.162,8.382,16.693,9.389,18.102,10.389z M21.167,9.091c-2.876,1.804-6.21,4.28-9.089,6.077
	c-1.614-0.984-3.067-2.127-4.727-3.064c-0.554,0.434-1.275,0.699-1.714,1.246c1.503,1.145,3.214,2.109,4.83,3.221
	c0.398,0.273,1.226,1.047,1.662,1.039c0.315-0.006,1.015-0.625,1.402-0.885c0.566-0.377,1.033-0.682,1.402-0.934
	c2.373-1.617,4.635-3.031,6.908-4.623c0.457-0.32,0.963-0.604,1.299-1.039C22.731,9.866,21.646,8.79,21.167,9.091z"/>
</svg>
