<?xml version="1.0" encoding="UTF-8" standalone="no"?>
<!-- Generator: Adobe Illustrator 15.1.0, SVG Export Plug-In . SVG Version: 6.00 Build 0)  -->

<svg
   xmlns:dc="http://purl.org/dc/elements/1.1/"
   xmlns:cc="http://creativecommons.org/ns#"
   xmlns:rdf="http://www.w3.org/1999/02/22-rdf-syntax-ns#"
   xmlns:svg="http://www.w3.org/2000/svg"
   xmlns="http://www.w3.org/2000/svg"
   xmlns:sodipodi="http://sodipodi.sourceforge.net/DTD/sodipodi-0.dtd"
   xmlns:inkscape="http://www.inkscape.org/namespaces/inkscape"
   version="1.1"
   id="Layer_1"
   x="0px"
   y="0px"
   width="24"
   height="24"
   viewBox="0 0 24 24"
   enable-background="new 0 0 500 500"
   xml:space="preserve"
   inkscape:version="0.48.5 r10040"
   sodipodi:docname="samen.svg"><metadata
     id="metadata3595"><rdf:RDF><cc:Work
         rdf:about=""><dc:format>image/svg+xml</dc:format><dc:type
           rdf:resource="http://purl.org/dc/dcmitype/StillImage" /><dc:title></dc:title></cc:Work></rdf:RDF></metadata><defs
     id="defs3593" /><sodipodi:namedview
     pagecolor="#ffffff"
     bordercolor="#666666"
     borderopacity="1"
     objecttolerance="10"
     gridtolerance="10"
     guidetolerance="10"
     inkscape:pageopacity="0"
     inkscape:pageshadow="2"
     inkscape:window-width="657"
     inkscape:window-height="480"
     id="namedview3591"
     showgrid="false"
     inkscape:zoom="5.3400704"
     inkscape:cx="15.448369"
     inkscape:cy="2.0847854"
     inkscape:window-x="0"
     inkscape:window-y="27"
     inkscape:window-maximized="0"
     inkscape:current-layer="Layer_1" /><path
     clip-rule="evenodd"
     d="m 11.15562,0.48043404 c -0.01538,-0.071248 0.03265,-0.078986 0.0838,-0.083799 4.533473,-0.89595738 5.146666,5.62681946 1.172927,5.94845366 C 10.657556,6.4871032 8.6790659,5.0489927 9.1448848,2.6587193 9.3323939,1.6964968 10.012692,1.0538135 11.07185,0.64797484 c -0.01368,-0.097435 0.0185,-0.1490447 0.0838,-0.1675597 z M 11.993438,7.015356 c -3.6662607,2.7849674 -7.3632656,5.539019 -10.9753205,8.378107 0,1.089147 0,2.178304 0,3.267461 1.0915821,-0.33194 1.9133096,-1.186262 2.7647725,-1.843185 2.6614774,-2.05322 5.2199805,-4.029369 7.959199,-5.948454 0.978397,0.948567 2.086069,1.76786 2.764772,3.016121 -1.230652,1.143192 -2.799122,1.94849 -3.9377,3.183672 0.485259,0.348199 1.243392,1.936185 1.926956,1.926965 0.325663,-0.0047 1.173191,-0.854728 1.591845,-1.172927 1.650486,-1.254461 3.61347,-2.644558 4.775517,-3.77015 -2.253789,-2.382063 -4.403613,-4.8681009 -6.870041,-7.03761 z m -6.7862718,9.634823 c 1.5944404,1.829605 3.2864856,3.533295 5.0268658,5.361985 0.355654,0.373745 1.351142,1.668501 1.843185,1.675616 0.245895,0.0038 0.999168,-0.601124 1.424277,-0.921588 3.259581,-2.457133 6.450472,-4.969301 9.467254,-7.372729 -0.05266,-1.064357 0.107409,-2.341599 -0.0838,-3.267461 -3.711075,2.404938 -6.893001,5.339025 -10.556411,7.791638 -0.982662,-0.916397 -1.94213,-1.855924 -2.7647729,-2.932342 0.3539741,-0.539463 1.2183469,-0.983002 2.0107449,-1.591835 0.596358,-0.458204 1.92923,-1.264002 1.926965,-1.759405 -0.0019,-0.3621 -1.536461,-1.748676 -2.010745,-1.843185 -2.0529744,1.6613 -4.2333735,3.195241 -6.2835827,4.859306 z"
     id="path3589"
     inkscape:connector-curvature="0"
     style="fill-rule:evenodd" /></svg>