<?xml version="1.0" encoding="UTF-8" standalone="yes"?>
<svg xmlns="http://www.w3.org/2000/svg" xmlns:xlink="http://www.w3.org/1999/xlink" width="24px" height="24px" viewBox="0 0 18 18" version="1.1">
  <g id="surface1">
    <path style=" stroke:none;fill-rule:nonzero;fill:rgb(0%,0%,0%);fill-opacity:1;" d="M 8.214844 11.097656 C 8.027344 11.035156 7.902344 10.863281 7.902344 10.660156 L 7.902344 10.5 L 10.101562 10.5 L 10.101562 10.660156 C 10.101562 10.863281 9.972656 11.035156 9.785156 11.097656 C 9.738281 11.113281 9.691406 11.128906 9.628906 11.128906 L 8.371094 11.128906 C 8.308594 11.128906 8.261719 11.113281 8.214844 11.097656 Z M 12.296875 8.617188 L 5.542969 8.617188 C 5.277344 8.617188 5.074219 8.820312 5.074219 9.089844 L 5.074219 9.714844 C 5.074219 9.984375 5.277344 10.1875 5.542969 10.1875 L 12.457031 10.1875 C 12.722656 10.1875 12.925781 9.984375 12.925781 9.714844 L 12.925781 9.246094 C 12.925781 8.898438 12.644531 8.617188 12.296875 8.617188 Z M 6.347656 7.738281 C 6.421875 8.003906 6.722656 8.300781 7.003906 8.300781 L 11.054688 8.300781 C 11.136719 8.300781 11.511719 8.269531 11.699219 7.738281 L 12.785156 3.667969 C 12.832031 3.433594 12.878906 2.789062 12.425781 2.238281 C 12.03125 1.769531 11.324219 1.484375 10.398438 1.421875 C 10.257812 1.390625 10.113281 1.390625 9.972656 1.390625 L 7.773438 1.390625 C 7.617188 1.390625 7.460938 1.390625 7.320312 1.40625 C 7.320312 1.40625 7.320312 1.40625 7.304688 1.40625 C 6.3125 1.5 5.796875 1.894531 5.527344 2.238281 C 5.167969 2.710938 5.136719 3.277344 5.230469 3.652344 Z M 4.367188 6.746094 C 4.351562 6.699219 4.320312 6.652344 4.289062 6.605469 C 4.050781 6.292969 3.394531 6.417969 3.046875 6.417969 C 2.796875 6.417969 2.589844 6.621094 2.589844 6.875 C 2.589844 7.15625 2.796875 7.359375 3.046875 7.359375 L 3.847656 7.359375 L 3.847656 9.558594 L 4.476562 9.558594 C 4.476562 9.558594 4.476562 7.328125 4.460938 7.125 C 4.445312 7 4.429688 6.859375 4.367188 6.746094 Z M 14.953125 6.417969 C 14.59375 6.417969 13.945312 6.292969 13.710938 6.605469 C 13.679688 6.652344 13.648438 6.699219 13.632812 6.746094 C 13.585938 6.871094 13.554688 7 13.554688 7.140625 C 13.523438 7.328125 13.523438 9.558594 13.523438 9.558594 L 14.152344 9.558594 L 14.152344 7.359375 L 14.953125 7.359375 C 15.203125 7.359375 15.410156 7.15625 15.410156 6.875 C 15.410156 6.621094 15.203125 6.417969 14.953125 6.417969 Z M 12.171875 14.554688 C 12.265625 14.554688 12.363281 14.570312 12.457031 14.601562 C 12.171875 13.878906 11.433594 13.296875 9.785156 13.15625 C 9.675781 13.140625 9.582031 13.140625 9.472656 13.121094 L 9.472656 11.441406 L 8.527344 11.441406 L 8.527344 13.121094 C 8.417969 13.121094 8.308594 13.140625 8.214844 13.140625 C 6.296875 13.28125 5.542969 14.003906 5.246094 14.566406 C 5.308594 14.550781 5.355469 14.550781 5.417969 14.550781 C 5.578125 14.550781 5.734375 14.601562 5.875 14.695312 C 6.125 14.316406 6.738281 13.878906 8.214844 13.765625 C 8.308594 13.765625 8.417969 13.753906 8.527344 13.753906 L 8.527344 14.695312 C 8.671875 14.601562 8.828125 14.550781 9 14.550781 C 9.171875 14.550781 9.328125 14.601562 9.472656 14.710938 L 9.472656 13.765625 C 9.582031 13.765625 9.691406 13.78125 9.785156 13.78125 C 11.027344 13.890625 11.558594 14.253906 11.796875 14.648438 C 11.921875 14.585938 12.046875 14.554688 12.171875 14.554688 Z M 9.390625 15.058594 C 9.296875 14.945312 9.15625 14.867188 9 14.867188 C 8.875 14.867188 8.78125 14.914062 8.683594 14.976562 C 8.558594 15.070312 8.480469 15.214844 8.480469 15.371094 C 8.480469 15.386719 8.480469 15.386719 8.480469 15.402344 C 8.480469 15.683594 8.714844 15.917969 9 15.917969 C 9.28125 15.917969 9.515625 15.683594 9.515625 15.402344 C 9.515625 15.386719 9.515625 15.386719 9.515625 15.371094 C 9.515625 15.246094 9.472656 15.136719 9.390625 15.058594 Z M 12.582031 15.058594 C 12.484375 14.945312 12.347656 14.867188 12.1875 14.867188 C 12.0625 14.867188 11.96875 14.914062 11.875 14.976562 C 11.746094 15.070312 11.671875 15.214844 11.671875 15.371094 C 11.671875 15.386719 11.671875 15.386719 11.671875 15.402344 C 11.671875 15.683594 11.90625 15.917969 12.1875 15.917969 C 12.46875 15.917969 12.707031 15.683594 12.707031 15.402344 C 12.707031 15.386719 12.707031 15.386719 12.707031 15.371094 C 12.691406 15.246094 12.644531 15.136719 12.582031 15.058594 Z M 5.828125 15.058594 C 5.734375 14.945312 5.59375 14.867188 5.433594 14.867188 C 5.308594 14.867188 5.214844 14.914062 5.121094 14.976562 C 4.996094 15.070312 4.917969 15.214844 4.917969 15.371094 C 4.917969 15.386719 4.917969 15.386719 4.917969 15.402344 C 4.917969 15.683594 5.152344 15.917969 5.433594 15.917969 C 5.71875 15.917969 5.953125 15.683594 5.953125 15.402344 C 5.953125 15.386719 5.953125 15.386719 5.953125 15.371094 C 5.9375 15.246094 5.890625 15.136719 5.828125 15.058594 Z M 5.828125 15.058594 "/>
  </g>
</svg>