<?xml version="1.0" encoding="UTF-8" standalone="yes"?>
<svg xmlns="http://www.w3.org/2000/svg" xmlns:xlink="http://www.w3.org/1999/xlink" width="24px" height="24px" viewBox="0 0 18 18" version="1.1">
  <g id="surface1">
    <path style=" stroke:none;fill-rule:nonzero;fill:rgb(0%,0%,0%);fill-opacity:1;" d="M 1.847656 12.542969 L 2.945312 12.542969 C 3.25 12.542969 3.496094 12.296875 3.496094 11.996094 L 15.050781 11.996094 C 15.050781 12.296875 15.296875 12.542969 15.601562 12.542969 L 16.703125 12.542969 C 17.007812 12.542969 17.253906 12.296875 17.253906 11.996094 L 17.253906 7.316406 C 17.253906 7.011719 17.007812 6.765625 16.703125 6.765625 L 15.601562 6.765625 C 15.296875 6.765625 15.050781 7.011719 15.050781 7.316406 L 15.050781 10.34375 L 3.496094 10.34375 L 3.496094 7.316406 C 3.496094 7.011719 3.25 6.765625 2.945312 6.765625 L 1.847656 6.765625 C 1.542969 6.765625 1.296875 7.011719 1.296875 7.316406 L 1.296875 11.992188 C 1.296875 12.296875 1.542969 12.542969 1.847656 12.542969 Z M 8.453125 7.589844 C 8.652344 7.589844 8.839844 7.648438 9 7.742188 L 9 5.117188 C 9 4.8125 8.753906 4.566406 8.449219 4.566406 L 4.597656 4.566406 C 4.292969 4.566406 4.046875 4.8125 4.046875 5.117188 L 4.046875 7.75 C 4.210938 7.652344 4.402344 7.589844 4.609375 7.589844 Z M 9 8.691406 C 9 8.390625 8.753906 8.144531 8.453125 8.144531 L 4.609375 8.144531 C 4.304688 8.144531 4.046875 8.390625 4.046875 8.691406 L 4.046875 9.792969 L 9 9.792969 Z M 13.957031 7.589844 C 14.15625 7.589844 14.339844 7.648438 14.5 7.742188 L 14.5 5.117188 C 14.5 4.8125 14.253906 4.566406 13.953125 4.566406 L 10.097656 4.566406 C 9.796875 4.566406 9.550781 4.8125 9.550781 5.117188 L 9.550781 7.75 C 9.714844 7.652344 9.90625 7.589844 10.113281 7.589844 Z M 14.5 8.691406 C 14.5 8.390625 14.257812 8.144531 13.953125 8.144531 L 10.113281 8.144531 C 9.808594 8.144531 9.550781 8.390625 9.550781 8.691406 L 9.550781 9.792969 L 14.503906 9.792969 L 14.503906 8.691406 Z M 14.5 8.691406 "/>
  </g>
</svg>