<?xml version="1.0" encoding="UTF-8" standalone="yes"?>
<svg xmlns="http://www.w3.org/2000/svg" xmlns:xlink="http://www.w3.org/1999/xlink" width="24px" height="24px" viewBox="0 0 18 18" version="1.1">
  <g id="surface1">
    <path style=" stroke:none;fill-rule:nonzero;fill:rgb(0%,0%,0%);fill-opacity:1;" d="M 16.671875 12.707031 L 11.199219 12.707031 C 10.707031 10.859375 12.597656 6.921875 12.597656 6.921875 C 12.917969 6.253906 13.101562 5.492188 13.101562 4.675781 C 13.101562 2.09375 11.261719 0 8.996094 0 C 6.730469 0 4.894531 2.09375 4.894531 4.675781 C 4.894531 5.492188 5.078125 6.253906 5.398438 6.921875 C 5.398438 6.921875 7.285156 10.859375 6.792969 12.707031 L 1.324219 12.707031 L 1.324219 16.527344 L 16.671875 16.527344 Z M 16.671875 12.707031 "/>
    <path style=" stroke:none;fill-rule:nonzero;fill:rgb(0%,0%,0%);fill-opacity:1;" d="M 2.34375 17.121094 L 15.648438 17.121094 L 15.648438 17.996094 L 2.34375 17.996094 Z M 2.34375 17.121094 "/>
  </g>
</svg>