<?xml version="1.0" encoding="UTF-8" standalone="yes"?>
<svg xmlns="http://www.w3.org/2000/svg" xmlns:xlink="http://www.w3.org/1999/xlink" width="24px" height="24px" viewBox="0 0 18 18" version="1.1">
  <g id="surface1">
    <path style=" stroke:none;fill-rule:nonzero;fill:rgb(0%,0%,0%);fill-opacity:1;" d="M 15.988281 4.484375 L 14.9375 2.652344 C 14.851562 2.507812 14.695312 2.414062 14.523438 2.414062 L 12.421875 2.414062 C 12.253906 2.414062 12.09375 2.507812 12.007812 2.652344 L 10.960938 4.484375 C 10.875 4.628906 10.875 4.8125 10.960938 4.960938 L 12.007812 6.789062 C 12.09375 6.9375 12.253906 7.027344 12.421875 7.027344 L 14.523438 7.027344 C 14.695312 7.027344 14.851562 6.9375 14.9375 6.789062 L 15.988281 4.960938 C 16.074219 4.8125 16.074219 4.628906 15.988281 4.484375 Z M 5.777344 3.175781 C 5.328125 3.570312 5.214844 4.195312 5.453125 4.699219 C 5.414062 4.734375 5.371094 4.765625 5.339844 4.8125 L 4.980469 5.347656 C 4.785156 5.636719 4.851562 6.023438 5.128906 6.222656 C 4.839844 6.042969 4.453125 6.128906 4.265625 6.421875 L 3.90625 6.964844 C 3.71875 7.257812 3.789062 7.644531 4.066406 7.835938 C 3.773438 7.667969 3.390625 7.773438 3.207031 8.070312 C 3.089844 8.269531 2.976562 8.460938 2.875 8.644531 C 2.703125 8.949219 2.800781 9.324219 3.09375 9.503906 C 2.773438 9.378906 2.40625 9.542969 2.269531 9.871094 C 2.171875 10.113281 2.097656 10.339844 2.039062 10.558594 C 1.949219 10.902344 2.148438 11.25 2.484375 11.328125 C 2.496094 11.328125 2.503906 11.332031 2.511719 11.335938 C 2.496094 11.335938 2.476562 11.339844 2.457031 11.34375 C 2.117188 11.429688 1.902344 11.777344 1.976562 12.117188 C 2.035156 12.371094 2.125 12.613281 2.25 12.859375 C 2.410156 13.167969 2.792969 13.28125 3.101562 13.113281 C 3.113281 13.105469 3.125 13.101562 3.132812 13.09375 L 3.132812 13.097656 C 2.882812 13.347656 2.878906 13.753906 3.125 13.996094 C 3.273438 14.144531 3.4375 14.296875 3.617188 14.453125 C 3.878906 14.679688 4.269531 14.644531 4.503906 14.378906 C 4.300781 14.664062 4.359375 15.054688 4.632812 15.257812 C 4.796875 15.378906 4.96875 15.503906 5.148438 15.632812 C 5.421875 15.816406 5.804688 15.765625 6.019531 15.492188 C 5.835938 15.78125 5.910156 16.164062 6.1875 16.355469 L 6.707031 16.707031 C 6.996094 16.902344 7.386719 16.820312 7.585938 16.527344 C 7.785156 16.230469 7.714844 15.835938 7.429688 15.640625 L 6.914062 15.289062 C 6.910156 15.289062 6.910156 15.289062 6.910156 15.285156 C 6.632812 15.101562 6.261719 15.167969 6.054688 15.4375 C 6.230469 15.148438 6.164062 14.777344 5.894531 14.582031 C 5.71875 14.457031 5.554688 14.335938 5.394531 14.222656 C 5.140625 14.003906 4.765625 14.074219 4.546875 14.320312 C 4.734375 14.054688 4.695312 13.6875 4.453125 13.472656 C 4.296875 13.335938 4.152344 13.207031 4.023438 13.078125 C 3.816406 12.875 3.5 12.84375 3.253906 12.996094 C 3.449219 12.796875 3.503906 12.496094 3.371094 12.242188 C 3.296875 12.09375 3.242188 11.953125 3.210938 11.808594 C 3.15625 11.5625 2.964844 11.382812 2.730469 11.335938 C 2.976562 11.296875 3.191406 11.113281 3.257812 10.855469 C 3.300781 10.6875 3.363281 10.511719 3.4375 10.328125 C 3.558594 10.03125 3.457031 9.714844 3.183594 9.546875 C 3.46875 9.65625 3.808594 9.535156 3.96875 9.253906 C 4.0625 9.082031 4.167969 8.902344 4.28125 8.714844 C 4.457031 8.421875 4.378906 8.050781 4.109375 7.863281 C 4.398438 8.023438 4.769531 7.933594 4.957031 7.644531 L 5.304688 7.113281 C 5.496094 6.820312 5.429688 6.4375 5.15625 6.242188 C 5.441406 6.417969 5.824219 6.332031 6.019531 6.046875 L 6.378906 5.511719 C 6.40625 5.476562 6.414062 5.4375 6.429688 5.398438 C 6.769531 5.433594 7.125 5.335938 7.410156 5.085938 M 6.234375 3.175781 C 6.734375 3.246094 6.988281 3.753906 6.902344 4.378906 C 6.945312 4.382812 6.992188 4.382812 7.03125 4.40625 L 7.484375 4.667969 C 7.734375 4.808594 7.769531 5.210938 7.570312 5.574219 C 7.785156 5.21875 8.148438 5.050781 8.394531 5.195312 L 8.847656 5.464844 C 9.09375 5.613281 9.121094 6.019531 8.921875 6.378906 C 9.144531 6.03125 9.511719 5.878906 9.75 6.035156 C 9.90625 6.144531 10.050781 6.246094 10.191406 6.347656 C 10.421875 6.519531 10.425781 6.929688 10.207031 7.289062 C 10.464844 6.960938 10.835938 6.871094 11.039062 7.089844 C 11.183594 7.25 11.308594 7.410156 11.414062 7.574219 C 11.578125 7.835938 11.484375 8.289062 11.203125 8.582031 C 11.195312 8.589844 11.1875 8.597656 11.179688 8.605469 C 11.195312 8.597656 11.214844 8.589844 11.230469 8.578125 C 11.558594 8.4375 11.835938 8.617188 11.855469 8.984375 C 11.867188 9.257812 11.84375 9.539062 11.792969 9.851562 C 11.722656 10.242188 11.410156 10.59375 11.085938 10.644531 C 11.078125 10.644531 11.070312 10.644531 11.058594 10.644531 L 11.058594 10.648438 C 11.34375 10.71875 11.449219 11.089844 11.289062 11.476562 C 11.195312 11.710938 11.082031 11.960938 10.960938 12.222656 C 10.78125 12.605469 10.417969 12.832031 10.144531 12.734375 C 10.394531 12.871094 10.441406 13.269531 10.246094 13.636719 C 10.128906 13.855469 10.003906 14.085938 9.875 14.320312 C 9.675781 14.667969 9.316406 14.875 9.058594 14.761719 C 9.292969 14.914062 9.324219 15.316406 9.121094 15.671875 L 8.742188 16.339844 C 8.527344 16.710938 8.15625 16.890625 7.902344 16.75 C 7.652344 16.605469 7.617188 16.191406 7.828125 15.824219 L 8.203125 15.160156 C 8.207031 15.160156 8.207031 15.15625 8.207031 15.15625 C 8.410156 14.804688 8.761719 14.621094 9.011719 14.734375 C 8.78125 14.585938 8.746094 14.195312 8.941406 13.839844 C 9.070312 13.605469 9.1875 13.386719 9.304688 13.175781 C 9.480469 12.808594 9.835938 12.625 10.089844 12.710938 C 9.855469 12.589844 9.796875 12.222656 9.964844 11.867188 C 10.074219 11.636719 10.167969 11.421875 10.25 11.21875 C 10.390625 10.890625 10.667969 10.65625 10.921875 10.636719 C 10.703125 10.578125 10.578125 10.335938 10.632812 10.015625 C 10.664062 9.828125 10.675781 9.660156 10.667969 9.503906 C 10.660156 9.238281 10.785156 8.949219 10.984375 8.753906 C 10.753906 8.878906 10.519531 8.847656 10.390625 8.652344 C 10.3125 8.527344 10.214844 8.402344 10.101562 8.277344 C 9.921875 8.085938 9.929688 7.722656 10.136719 7.386719 C 9.90625 7.679688 9.570312 7.789062 9.359375 7.632812 C 9.230469 7.535156 9.09375 7.4375 8.945312 7.339844 C 8.714844 7.183594 8.691406 6.785156 8.886719 6.4375 C 8.671875 6.773438 8.316406 6.929688 8.074219 6.785156 L 7.628906 6.519531 C 7.382812 6.375 7.351562 5.972656 7.546875 5.617188 C 7.335938 5.964844 6.96875 6.136719 6.722656 5.996094 L 6.269531 5.738281 C 6.238281 5.71875 6.222656 5.6875 6.195312 5.664062 C 5.902344 5.917969 5.558594 6.058594 5.242188 6.015625 "/>
  </g>
</svg>