<?xml version="1.0" encoding="UTF-8" standalone="no"?>
<!-- Generator: Adobe Illustrator 16.0.0, SVG Export Plug-In . SVG Version: 6.00 Build 0)  -->

<svg
   xmlns:dc="http://purl.org/dc/elements/1.1/"
   xmlns:cc="http://creativecommons.org/ns#"
   xmlns:rdf="http://www.w3.org/1999/02/22-rdf-syntax-ns#"
   xmlns:svg="http://www.w3.org/2000/svg"
   xmlns="http://www.w3.org/2000/svg"
   xmlns:sodipodi="http://sodipodi.sourceforge.net/DTD/sodipodi-0.dtd"
   xmlns:inkscape="http://www.inkscape.org/namespaces/inkscape"
   version="1.1"
   id="Capa_1"
   x="0px"
   y="0px"
   width="24"
   height="24"
   viewBox="0 0 24 24"
   xml:space="preserve"
   inkscape:version="0.48.5 r10040"
   sodipodi:docname="mojtama.svg"><metadata
     id="metadata3339"><rdf:RDF><cc:Work
         rdf:about=""><dc:format>image/svg+xml</dc:format><dc:type
           rdf:resource="http://purl.org/dc/dcmitype/StillImage" /><dc:title></dc:title></cc:Work></rdf:RDF></metadata><defs
     id="defs3337" /><sodipodi:namedview
     pagecolor="#ffffff"
     bordercolor="#666666"
     borderopacity="1"
     objecttolerance="10"
     gridtolerance="10"
     guidetolerance="10"
     inkscape:pageopacity="0"
     inkscape:pageshadow="2"
     inkscape:window-width="657"
     inkscape:window-height="480"
     id="namedview3335"
     showgrid="false"
     inkscape:zoom="5.4596028"
     inkscape:cx="14.409221"
     inkscape:cy="22.675457"
     inkscape:window-x="0"
     inkscape:window-y="27"
     inkscape:window-maximized="0"
     inkscape:current-layer="Capa_1" /><g
     id="g3299"
     transform="matrix(0.04701289,0,0,0.04701289,0.5040922,0.50407905)"><g
       id="g3301"><path
         d="M 453.328,1.333 H 263.583 c -19.729,0 -35.729,16.008 -35.729,35.719 V 203.81 L 15.263,289.008 c -12.457,4.996 -18.509,19.142 -13.509,31.604 3.805,9.492 12.926,15.25 22.559,15.25 3.004,0 6.066,-0.556 9.031,-1.741 l 194.512,-77.97 v 27.444 l -171.44,63.339 c -8.344,3.069 -13.887,11.043 -13.887,19.935 v 99.594 c 0,11.734 9.516,21.258 21.258,21.258 h 61.758 v -87.066 c 0,-11.734 9.516,-21.258 21.258,-21.258 h 26.324 c 11.746,0 21.258,9.522 21.258,21.258 v 87.065 h 67.355 v -0.44 h 191.59 c 19.724,0 35.724,-16.008 35.724,-35.72 V 37.051 C 489.052,17.34 473.052,1.333 453.328,1.333 z M 338.724,407.202 c 0,5.854 -4.745,10.6 -10.6,10.6 h -35.95 c -5.854,0 -10.6,-4.744 -10.6,-10.6 v -35.938 c 0,-5.854 4.745,-10.599 10.6,-10.599 h 35.95 c 5.854,0 10.6,4.744 10.6,10.599 v 35.938 z m 0,-88.774 c 0,1.522 -1.233,2.757 -2.756,2.757 h -43.79 c -5.854,0 -10.6,-4.745 -10.6,-10.6 v -35.939 c 0,-5.854 4.745,-10.599 10.6,-10.599 h 35.946 c 5.854,0 10.6,4.745 10.6,10.599 v 43.782 l 0,0 z m 0,-104.464 c 0,5.854 -4.745,10.599 -10.6,10.599 h -35.95 c -5.854,0 -10.6,-4.745 -10.6,-10.599 v -35.939 c 0,-5.854 4.745,-10.599 10.6,-10.599 h 35.95 c 5.854,0 10.6,4.745 10.6,10.599 v 35.939 z m 0,-96.605 c 0,5.854 -4.745,10.599 -10.6,10.599 h -35.946 c -5.854,0 -10.599,-4.745 -10.599,-10.599 V 81.404 c 0,-5.854 4.744,-10.599 10.599,-10.599 h 35.946 c 5.854,0 10.6,4.745 10.6,10.599 v 35.955 l 0,0 z m 96.608,289.843 c 0,5.854 -4.744,10.6 -10.599,10.6 h -35.947 c -5.854,0 -10.599,-4.744 -10.599,-10.6 v -35.938 c 0,-5.854 4.744,-10.599 10.599,-10.599 h 35.947 c 5.854,0 10.599,4.744 10.599,10.599 v 35.938 z m 0,-96.62 c 0,5.853 -4.744,10.598 -10.598,10.598 h -35.948 c -5.854,0 -10.598,-4.745 -10.598,-10.598 v -35.938 c 0,-5.853 4.744,-10.598 10.598,-10.598 h 35.948 c 5.854,0 10.598,4.745 10.598,10.598 v 35.938 z m 0,-96.618 c 0,5.854 -4.744,10.599 -10.599,10.599 h -35.947 c -5.854,0 -10.599,-4.745 -10.599,-10.599 v -35.939 c 0,-5.854 4.744,-10.599 10.599,-10.599 h 35.947 c 5.854,0 10.599,4.745 10.599,10.599 v 35.939 z m 0,-96.605 c 0,5.854 -4.744,10.599 -10.599,10.599 h -35.951 c -5.854,0 -10.6,-4.745 -10.6,-10.599 V 81.404 c 0,-5.854 4.745,-10.599 10.6,-10.599 h 35.951 c 5.854,0 10.599,4.745 10.599,10.599 v 35.955 z"
         id="path3303"
         inkscape:connector-curvature="0" /></g></g><g
     id="g3305"
     transform="translate(0,-465.05301)" /><g
     id="g3307"
     transform="translate(0,-465.05301)" /><g
     id="g3309"
     transform="translate(0,-465.05301)" /><g
     id="g3311"
     transform="translate(0,-465.05301)" /><g
     id="g3313"
     transform="translate(0,-465.05301)" /><g
     id="g3315"
     transform="translate(0,-465.05301)" /><g
     id="g3317"
     transform="translate(0,-465.05301)" /><g
     id="g3319"
     transform="translate(0,-465.05301)" /><g
     id="g3321"
     transform="translate(0,-465.05301)" /><g
     id="g3323"
     transform="translate(0,-465.05301)" /><g
     id="g3325"
     transform="translate(0,-465.05301)" /><g
     id="g3327"
     transform="translate(0,-465.05301)" /><g
     id="g3329"
     transform="translate(0,-465.05301)" /><g
     id="g3331"
     transform="translate(0,-465.05301)" /><g
     id="g3333"
     transform="translate(0,-465.05301)" /></svg>