<?xml version="1.0" encoding="utf-8"?>
<!-- Generator: Adobe Illustrator 15.1.0, SVG Export Plug-In . SVG Version: 6.00 Build 0)  -->
<!DOCTYPE svg PUBLIC "-//W3C//DTD SVG 1.1//EN" "http://www.w3.org/Graphics/SVG/1.1/DTD/svg11.dtd">
<svg version="1.1" id="Layer_1" xmlns="http://www.w3.org/2000/svg" xmlns:xlink="http://www.w3.org/1999/xlink" x="0px" y="0px"
	 width="24px" height="24px" viewBox="0 0 24 24" enable-background="new 0 0 24 24" xml:space="preserve">
<path d="M12.035,1.756c-0.052-0.037-0.137-0.04-0.19-0.003L9.256,3.578C9.204,3.615,9.176,3.591,9.176,3.527V2.263
	c0-0.064-0.081-0.098-0.145-0.098H7.349c-0.064,0-0.09,0.034-0.09,0.098V4.87c0,0.064-0.056,0.146-0.108,0.183l-6.35,4.466
	C0.748,9.556,0.751,9.6,0.815,9.6h2.822c0.064,0,0.115,0.022,0.115,0.086v12.469c0,0.063,0.053,0.118,0.117,0.118h16.123
	c0.064,0,0.127-0.054,0.127-0.118V9.686c0-0.063,0.041-0.086,0.105-0.086h2.957c0.064,0,0.074-0.044,0.021-0.081L12.035,1.756z
	 M16.254,9.026c0.482,0,0.875,0.393,0.875,0.877c0,0.483-0.393,0.875-0.875,0.875c-0.484,0-0.877-0.392-0.877-0.875
	C15.377,9.419,15.77,9.026,16.254,9.026z M12,14.188c0.351,0,0.636,0.285,0.636,0.636c0,0.352-0.285,0.636-0.636,0.636
	s-0.636-0.284-0.636-0.636C11.365,14.474,11.649,14.188,12,14.188z M7.748,9.026c0.484,0,0.876,0.393,0.876,0.877
	c0,0.483-0.393,0.875-0.876,0.875c-0.484,0-0.876-0.392-0.876-0.875C6.872,9.419,7.264,9.026,7.748,9.026z M18.672,15.034
	c-0.242,0.074-0.496-0.062-0.57-0.302l-0.682-2.224c-0.004-0.011-0.025-0.049-0.074-0.049c-0.004,0-0.096,0-0.096,0l0,0
	c-0.025-0.001-0.043,0.022-0.035,0.049l1.365,4.469c0.008,0.026,0,0.072-0.047,0.072h-0.959c-0.025,0-0.047,0.021-0.047,0.049
	l0.002,3.257c0,0.326-0.266,0.589-0.59,0.589s-0.59-0.263-0.59-0.589v-3.257c0-0.027-0.021-0.049-0.049-0.049l0,0h-0.094h-0.002
	c-0.027,0-0.049,0.021-0.049,0.049v3.257c0,0.326-0.264,0.589-0.588,0.589c-0.326,0-0.59-0.263-0.59-0.589v-3.257
	c0-0.027-0.02-0.049-0.047-0.049h-0.957c-0.047,0-0.055-0.046-0.047-0.072l1.365-4.469c0.006-0.026-0.01-0.05-0.037-0.049l0,0
	c0,0-0.092,0-0.096,0c-0.047,0-0.068,0.038-0.072,0.049l-0.748,2.453c-0.016,0.045-0.035,0.087-0.063,0.125
	c-0.131,0.234-1.027,1.842-1.027,1.842c-0.014,0.022-0.023,0.089-0.023,0.089s-0.002,3.387-0.004,3.412
	c-0.031,0.268-0.273,0.515-0.568,0.515c-0.313,0-0.539-0.26-0.543-0.545l0-1.442c0-0.027-0.021-0.048-0.048-0.048h-0.071
	c-0.027,0-0.048,0.021-0.048,0.048v1.435c-0.005,0.285-0.286,0.553-0.599,0.553c-0.312,0-0.56-0.27-0.564-0.554v-3.429
	c0-0.026-0.011-0.066-0.024-0.089l-1.029-1.78c-0.027-0.039-0.05-0.084-0.065-0.132l-0.749-2.453
	c-0.004-0.01-0.024-0.049-0.072-0.049c-0.004,0-0.096,0-0.096,0l0,0c-0.027,0-0.043,0.023-0.036,0.05l1.366,4.469
	c0.007,0.026,0,0.071-0.048,0.071H9.069c-0.027,0-0.047,0.022-0.047,0.05c0,0,0,3.256,0,3.257c0,0.325-0.264,0.589-0.589,0.589
	s-0.589-0.264-0.589-0.589v-3.257c0-0.027-0.022-0.05-0.049-0.05h0H7.701H7.7c-0.027,0-0.049,0.022-0.049,0.05v3.257
	c0,0.325-0.264,0.589-0.589,0.589s-0.589-0.264-0.589-0.589c0-0.001,0-3.257,0-3.257c0-0.027-0.02-0.05-0.047-0.05H5.468
	c-0.048,0-0.055-0.045-0.048-0.071l1.366-4.469c0.007-0.026-0.009-0.05-0.036-0.05l0,0c0,0-0.092,0-0.096,0
	c-0.048,0-0.068,0.039-0.072,0.049c0,0-0.682,2.224-0.683,2.224c-0.074,0.241-0.329,0.377-0.57,0.303
	c-0.241-0.074-0.376-0.329-0.302-0.57c0-0.001,0.682-2.226,0.684-2.233c0.104-0.363,0.358-1.188,1.076-1.188h1.924
	c0.77,0,0.969,0.825,1.074,1.188c0,0,0.621,2.036,0.733,2.405c0.088,0.154,0.604,1.059,0.604,1.059
	c0.013,0.022,0.045,0.042,0.071,0.042h1.599c0.057,0,0.086-0.019,0.113-0.064l0.574-1.036c0.002-0.003,0.004-0.007,0.006-0.01
	c0.119-0.394,0.73-2.396,0.73-2.396c0.104-0.363,0.303-1.188,1.074-1.188h1.924c0.717,0,0.971,0.825,1.076,1.188
	c0.002,0.008,0.684,2.232,0.684,2.233C19.049,14.705,18.912,14.961,18.672,15.034z"/>
</svg>
