<?xml version="1.0" encoding="UTF-8" standalone="no"?>
<!-- Generator: Adobe Illustrator 16.0.0, SVG Export Plug-In . SVG Version: 6.00 Build 0)  -->

<svg
   xmlns:dc="http://purl.org/dc/elements/1.1/"
   xmlns:cc="http://creativecommons.org/ns#"
   xmlns:rdf="http://www.w3.org/1999/02/22-rdf-syntax-ns#"
   xmlns:svg="http://www.w3.org/2000/svg"
   xmlns="http://www.w3.org/2000/svg"
   xmlns:sodipodi="http://sodipodi.sourceforge.net/DTD/sodipodi-0.dtd"
   xmlns:inkscape="http://www.inkscape.org/namespaces/inkscape"
   version="1.1"
   id="Capa_1"
   x="0px"
   y="0px"
   width="24"
   height="24"
   viewBox="0 0 24.000001 24.000001"
   xml:space="preserve"
   inkscape:version="0.48.5 r10040"
   sodipodi:docname="mokhaberat_door.svg"><metadata
     id="metadata3294"><rdf:RDF><cc:Work
         rdf:about=""><dc:format>image/svg+xml</dc:format><dc:type
           rdf:resource="http://purl.org/dc/dcmitype/StillImage" /><dc:title></dc:title></cc:Work></rdf:RDF></metadata><defs
     id="defs3292" /><sodipodi:namedview
     pagecolor="#ffffff"
     bordercolor="#666666"
     borderopacity="1"
     objecttolerance="10"
     gridtolerance="10"
     guidetolerance="10"
     inkscape:pageopacity="0"
     inkscape:pageshadow="2"
     inkscape:window-width="657"
     inkscape:window-height="480"
     id="namedview3290"
     showgrid="false"
     inkscape:zoom="7.4197506"
     inkscape:cx="15.9035"
     inkscape:cy="15.9035"
     inkscape:window-x="0"
     inkscape:window-y="27"
     inkscape:window-maximized="0"
     inkscape:current-layer="Capa_1" /><g
     id="g3252"
     transform="matrix(0.75,0,0,0.75,0.0723755,0.07237529)"><g
       id="g3254"><path
         d="m 16.373,25.265 0.377,-7.334 0.993,-0.175 c 0.028,0.058 0.05,0.113 0.082,0.173 0.274,0.518 0.29,1.33 0.305,2.19 0.024,1.429 0.052,2.905 1.259,3.397 0.861,0.352 1.574,0.512 2.229,0.547 v 0.766 h 6.016 v -2.895 h -0.375 v -0.756 h -4.924 v 0.756 h -0.717 v 1.883 c -0.623,-0.035 -1.304,-0.193 -2.136,-0.532 -1.055,-0.429 -1.078,-1.822 -1.103,-3.171 -0.017,-0.893 -0.03,-1.733 -0.334,-2.303 -0.019,-0.035 -0.03,-0.066 -0.048,-0.102 l 4.521,-0.792 -0.004,-0.006 1.92,-0.355 -2.234,-6.341 -1.488,0.54 C 20.843,9.865 20.856,8.979 20.797,8.275 20.682,6.891 20.026,6.119 18.772,5.742 18.677,5.715 18.567,5.716 18.502,5.807 18.486,5.828 18.369,5.885 18.268,5.963 18.237,5.976 18.207,5.997 18.182,6.033 18.174,6.043 18.165,6.06 18.16,6.074 18.155,6.077 18.153,6.08 18.151,6.082 c -0.002,0.006 -0.002,0.01 -0.006,0.016 -0.207,0.43 -0.593,2.199 -0.225,2.43 0.164,0.104 0.217,0.158 0.398,0.162 0.723,0.025 0.72,0.51 0.605,1.177 -0.146,0.857 -0.109,2.086 -1.24,1.8 -0.078,-0.02 -0.16,0.027 -0.211,0.082 -0.41,0.445 -0.888,1.568 -0.709,2.365 0.086,0.377 0.361,0.535 0.694,0.574 -0.013,0.154 -0.03,0.309 -0.05,0.466 -0.004,0.026 -0.008,0.054 -0.01,0.08 l -1.041,0.13 H 13.543 L 11.641,17.572 9.8,15.364 5.752,16.098 5.494,25.091 H 7.21 l 0.009,0.174 H 0 v 1.918 H 31.807 V 25.265 H 16.373 l 0,0 z m 1.283,-10.079 c 0.021,-0.163 0.039,-0.323 0.052,-0.485 0.425,-0.021 0.89,-0.192 1.174,-0.373 0.716,-0.455 1.183,-1.24 1.483,-2.129 l 0.869,2.557 -3.58,0.447 c 0,-0.007 0,-0.012 0.002,-0.017 z"
         id="path3256"
         inkscape:connector-curvature="0" /><circle
         cx="11.729"
         cy="9.6190004"
         r="4.9949999"
         id="circle3258"
         sodipodi:cx="11.729"
         sodipodi:cy="9.6190004"
         sodipodi:rx="4.9949999"
         sodipodi:ry="4.9949999"
         d="m 16.724,9.6190004 c 0,2.7586626 -2.236338,4.9949996 -4.995,4.9949996 -2.7586622,0 -4.9949998,-2.236337 -4.9949998,-4.9949996 0,-2.7586622 2.2363376,-4.9949999 4.9949998,-4.9949999 2.758662,0 4.995,2.2363377 4.995,4.9949999 z" /></g></g><g
     id="g3260"
     transform="translate(0,-7.8069995)" /><g
     id="g3262"
     transform="translate(0,-7.8069995)" /><g
     id="g3264"
     transform="translate(0,-7.8069995)" /><g
     id="g3266"
     transform="translate(0,-7.8069995)" /><g
     id="g3268"
     transform="translate(0,-7.8069995)" /><g
     id="g3270"
     transform="translate(0,-7.8069995)" /><g
     id="g3272"
     transform="translate(0,-7.8069995)" /><g
     id="g3274"
     transform="translate(0,-7.8069995)" /><g
     id="g3276"
     transform="translate(0,-7.8069995)" /><g
     id="g3278"
     transform="translate(0,-7.8069995)" /><g
     id="g3280"
     transform="translate(0,-7.8069995)" /><g
     id="g3282"
     transform="translate(0,-7.8069995)" /><g
     id="g3284"
     transform="translate(0,-7.8069995)" /><g
     id="g3286"
     transform="translate(0,-7.8069995)" /><g
     id="g3288"
     transform="translate(0,-7.8069995)" /></svg>