<?xml version="1.0" encoding="utf-8"?>
<!-- Generator: Adobe Illustrator 15.1.0, SVG Export Plug-In . SVG Version: 6.00 Build 0)  -->
<!DOCTYPE svg PUBLIC "-//W3C//DTD SVG 1.1//EN" "http://www.w3.org/Graphics/SVG/1.1/DTD/svg11.dtd">
<svg version="1.1" id="Layer_1" xmlns="http://www.w3.org/2000/svg" xmlns:xlink="http://www.w3.org/1999/xlink" x="0px" y="0px"
	 width="24px" height="24px" viewBox="0 0 24 24" enable-background="new 0 0 24 24" xml:space="preserve">
<path d="M3.349,12.898c0.959,0,1.903,0.854,2.422,2.182c-0.474,0.252-0.912,0.57-1.27,0.93c-1.319,1.328-1.64,3.191-0.791,4.416
	c-0.121,0.02-0.242,0.033-0.362,0.033c-1.535,0-2.784-1.58-2.784-3.521C0.565,15.07,1.781,12.898,3.349,12.898z M4.081,20.564
	c-0.91-1.135-0.593-2.973,0.702-4.275c0.363-0.365,0.813-0.689,1.3-0.938l0.043-0.021l-0.01-0.021
	c0.644-0.319,1.338-0.496,1.959-0.496c0.644,0,1.178,0.193,1.545,0.559c0.513,0.51,0.689,1.328,0.496,2.303
	c-0.185,0.938-0.683,1.869-1.367,2.559c-0.771,0.775-1.765,1.219-2.728,1.219c-0.704,0-1.314-0.236-1.764-0.684
	c-0.046-0.045-0.091-0.098-0.136-0.152L4.081,20.564z M22.455,5.263c-0.765-0.869-1.669-1.358-2.171-1.208
	c-1.122-1.223-2.442-1.821-2.991-1.339c-0.447,0.395-1.059,0.551-1.642,0.421c-0.335-0.074-0.685-0.114-1.042-0.114
	s-0.705,0.04-1.041,0.114c-0.578,0.129-1.184-0.027-1.629-0.42c0,0-0.001-0.001-0.001-0.001c-0.549-0.482-1.868,0.116-2.991,1.339
	c-0.5-0.15-1.405,0.339-2.169,1.208C5.906,6.253,5.55,7.362,5.98,7.74c0.323,0.283,0.997,0.075,1.681-0.465
	c0.035,0.061,0.078,0.114,0.13,0.16c0.413,0.363,1.262,0.114,2.135-0.552C9.87,7.177,9.84,7.48,9.84,7.792
	c0,0.294,0.026,0.582,0.078,0.861c0.071,0.387-0.143,0.771-0.509,0.915l0,0c-1.311,0.513-1.956,1.991-1.442,3.3
	c0.416,1.06,1.806,2.549,3.015,2.807l0.383,0.939c0.166,0.408,0.144,0.869-0.061,1.258c-0.071,0.137-0.11,0.291-0.105,0.455
	c0.014,0.512,0.439,0.916,0.951,0.902c0.385-0.01,0.708-0.254,0.839-0.592c0.326,0.156,0.729,0.113,1.016-0.143
	c0.383-0.34,0.417-0.926,0.076-1.309c-0.108-0.121-0.242-0.209-0.387-0.258c-0.416-0.145-0.748-0.467-0.906-0.877l-0.366-0.951
	c0.311-0.451,0.485-1.102,0.543-1.776c0.021-0.241,0.141-0.465,0.331-0.616c0.19-0.152,0.434-0.221,0.675-0.189
	c0.209,0.028,0.422,0.043,0.639,0.043c0.221,0,0.438-0.015,0.65-0.044c0.24-0.033,0.485,0.034,0.676,0.187s0.309,0.375,0.332,0.619
	c0.059,0.676,0.231,1.325,0.543,1.777l-0.365,0.951c-0.158,0.41-0.49,0.732-0.906,0.877c-0.145,0.049-0.279,0.137-0.388,0.258
	c-0.341,0.383-0.306,0.969,0.076,1.309c0.288,0.256,0.689,0.301,1.016,0.143c0.132,0.338,0.455,0.58,0.839,0.592
	c0.512,0.014,0.938-0.391,0.952-0.902c0.004-0.164-0.034-0.318-0.106-0.455c-0.204-0.389-0.227-0.85-0.061-1.258l0.384-0.939
	c1.208-0.258,2.599-1.747,3.015-2.807c0.513-1.31-0.133-2.787-1.441-3.3c-0.004-0.001-0.008-0.002-0.01-0.004
	c-0.369-0.143-0.583-0.526-0.512-0.916c0.05-0.278,0.076-0.565,0.076-0.857c0-0.315-0.031-0.624-0.089-0.922
	c0.879,0.675,1.736,0.929,2.151,0.564c0.051-0.045,0.095-0.099,0.129-0.16c0.685,0.541,1.359,0.749,1.682,0.465
	C23.682,7.362,23.325,6.253,22.455,5.263z"/>
</svg>
