<?xml version="1.0" encoding="UTF-8" standalone="yes"?>
<svg xmlns="http://www.w3.org/2000/svg" xmlns:xlink="http://www.w3.org/1999/xlink" width="24px" height="24px" viewBox="0 0 18 18" version="1.1">
  <g id="surface1">
    <path style=" stroke:none;fill-rule:nonzero;fill:rgb(1.176471%,0.392157%,1.568627%);fill-opacity:1;" d="M 18 3.679688 C 18.035156 3.003906 17.1875 2.71875 17.003906 2.261719 C 17.132812 2.132812 17.269531 1.320312 17.234375 1.066406 C 17.199219 0.820312 16.644531 1.382812 16.546875 1.269531 C 16.433594 1.140625 16.625 0.578125 16.417969 0.289062 C 16.3125 0.140625 16.074219 1.234375 15.894531 1.316406 C 15.761719 1.375 15.535156 1.066406 15.304688 0.640625 C 14.925781 -0.0585938 15.132812 1.441406 15.171875 1.730469 C 14.164062 1.882812 13.535156 2.550781 13.25 3.414062 C 12.941406 4.367188 12.070312 6.484375 10.46875 6.585938 C 8.542969 6.707031 6.398438 4.90625 5.386719 3.871094 C 4.847656 3.320312 4.453125 1.734375 3.507812 1.859375 C 3.082031 1.914062 2.75 2.515625 2.25 2.644531 C 2.25 2.644531 -0.3125 3.277344 0.03125 3.964844 C 0.234375 4.371094 1.355469 4.902344 2.210938 5.261719 C 2.246094 5.277344 2.269531 5.320312 2.257812 5.359375 C 2.246094 5.398438 2.203125 5.421875 2.164062 5.414062 C 1.433594 5.285156 0.703125 5.257812 1.433594 5.882812 C 1.613281 6.039062 2.289062 6.363281 2.921875 6.652344 C 2.957031 6.667969 2.976562 6.710938 2.964844 6.75 C 2.949219 6.792969 2.910156 6.8125 2.871094 6.804688 C 2.355469 6.679688 1.890625 6.625 1.917969 6.847656 C 1.980469 7.355469 3.929688 8.839844 3.929688 8.839844 C 3.683594 9.140625 4.6875 10.230469 4.847656 10.367188 C 4.617188 10.289062 4.371094 10.378906 4.695312 10.671875 C 5.179688 11.109375 5.285156 11.816406 5.695312 12.222656 C 6.90625 13.425781 8.71875 12.519531 9.65625 14.546875 C 9.703125 14.652344 9.914062 15.082031 10.097656 15.453125 C 10.152344 15.5625 10.152344 15.695312 10.097656 15.804688 C 10.042969 15.914062 9.941406 15.996094 9.820312 16.019531 L 8.609375 16.273438 C 8.433594 16.308594 8.3125 16.472656 8.328125 16.652344 C 8.347656 16.847656 8.519531 16.996094 8.714844 16.976562 L 9.914062 16.863281 C 9.953125 16.859375 9.992188 16.878906 10.007812 16.914062 C 10.027344 16.953125 10.023438 16.996094 9.996094 17.027344 L 9.902344 17.140625 C 9.777344 17.292969 9.796875 17.515625 9.949219 17.640625 C 10.015625 17.695312 10.09375 17.722656 10.175781 17.722656 C 10.277344 17.722656 10.378906 17.679688 10.449219 17.59375 L 10.953125 16.988281 C 11.046875 16.875 11.199219 16.824219 11.34375 16.855469 L 13.105469 17.234375 C 13.28125 17.269531 13.460938 17.171875 13.519531 16.996094 C 13.582031 16.8125 13.480469 16.609375 13.296875 16.546875 L 11.707031 16.015625 C 11.5625 15.964844 11.457031 15.839844 11.433594 15.6875 C 11.398438 15.40625 11.347656 15.046875 11.3125 14.773438 C 11.289062 14.589844 11.402344 14.417969 11.578125 14.363281 C 12.386719 14.121094 12.816406 13.136719 13.339844 12.472656 C 13.582031 12.164062 13.917969 11.957031 14.300781 11.878906 C 16.382812 11.457031 17.089844 9.289062 17.308594 7 C 17.441406 5.652344 16.804688 5.101562 16.46875 4.097656 C 16.890625 3.972656 17.355469 3.339844 18 3.679688 Z M 15.707031 2.925781 C 15.550781 2.925781 15.425781 2.800781 15.425781 2.644531 C 15.425781 2.488281 15.550781 2.363281 15.707031 2.363281 C 15.863281 2.363281 15.984375 2.488281 15.984375 2.644531 C 15.984375 2.800781 15.863281 2.925781 15.707031 2.925781 Z M 15.707031 2.925781 "/>
  </g>
</svg>