<?xml version="1.0" encoding="utf-8"?>
<!-- Generator: Adobe Illustrator 15.1.0, SVG Export Plug-In . SVG Version: 6.00 Build 0)  -->
<!DOCTYPE svg PUBLIC "-//W3C//DTD SVG 1.1//EN" "http://www.w3.org/Graphics/SVG/1.1/DTD/svg11.dtd">
<svg version="1.1" id="Layer_1" xmlns="http://www.w3.org/2000/svg" xmlns:xlink="http://www.w3.org/1999/xlink" x="0px" y="0px"
	 width="24px" height="24px" viewBox="0 0 24 24" enable-background="new 0 0 24 24" xml:space="preserve">
<path d="M16.271,17.473c0,0.131-0.022,0.256-0.065,0.374c0.176-0.047,0.378-0.122,0.577-0.237c0.695-0.398,1.093-1.116,1.181-2.142
	c0.025-0.282,0.153-0.547,0.363-0.738c0.21-0.194,0.481-0.298,0.767-0.298h0.007h0.151l0.004-0.55
	c0.002-0.287-0.229-0.519-0.515-0.519h-1.314c-0.282,0-0.512,0.228-0.515,0.511l-0.005,0.934c0.015,0.964-0.253,1.569-0.634,1.947
	L16.271,17.473z M20.154,15.059l-0.902-0.007h-0.151c0,0-0.003,0-0.005,0c-0.267,0-0.491,0.204-0.513,0.471
	c-0.256,2.957-2.73,3.031-2.984,3.031c-0.016,0-0.021,0-0.021,0l-4.476-0.006c-0.136,0-0.247-0.109-0.247-0.249v-0.077
	c0-0.138,0.111-0.246,0.247-0.246l0,0l4.035,0.007l0,0c0.284,0,0.513-0.229,0.515-0.514l0.003-0.304l0.005-0.841
	c0.002-0.284-0.227-0.518-0.514-0.518l-2.001-0.012c-0.181-0.002-0.36-0.051-0.516-0.143C12.127,15.357,10.84,14.7,9.274,14.7
	c-0.748,0-1.56,0.152-2.379,0.562l-0.694,0.004c0.021,0.083,0.03,0.173,0.03,0.265l0.005,4.428c0,0.079-0.009,0.159-0.025,0.233
	h2.233c0.286,0,0.57,0.027,0.85,0.081l1.101,0.209c1.246,0.236,2.511,0.356,3.78,0.365l1.676,0.011c0,0,4.475-0.211,4.807-5.25
	C20.685,15.312,20.451,15.061,20.154,15.059z M5.548,15.268c-0.077-0.129-0.204-0.219-0.356-0.245
	c-0.029-0.004-0.058-0.009-0.089-0.009l0,0h-0.22H3.909c-0.284,0-0.515,0.231-0.515,0.515l0.004,4.428
	c0,0.283,0.231,0.514,0.515,0.514l0,0h0.988h0.207c0.035,0,0.07-0.004,0.103-0.01c0.155-0.031,0.285-0.133,0.355-0.271
	c0.035-0.07,0.055-0.152,0.055-0.235l-0.004-4.428C5.62,15.435,5.594,15.343,5.548,15.268z M17.874,7.689l-1.7-1.7V4.026
	c0-0.355-0.287-0.643-0.643-0.643S14.89,3.671,14.89,4.026v0.678l-1.267-1.266c-0.626-0.625-1.713-0.624-2.337,0.001l-4.25,4.25
	c-0.251,0.251-0.251,0.658,0,0.909c0.251,0.251,0.658,0.251,0.909,0l4.249-4.25c0.139-0.138,0.383-0.138,0.521,0l4.249,4.25
	c0.127,0.126,0.291,0.188,0.455,0.188c0.165,0,0.329-0.063,0.455-0.188C18.125,8.347,18.125,7.94,17.874,7.689z M12.678,5.568
	c-0.123-0.124-0.323-0.124-0.446,0L8.494,9.305C8.435,9.364,8.401,9.444,8.401,9.529v2.725c0,0.639,0.519,1.158,1.158,1.158h1.851
	v-2.866h2.089v2.866h1.851c0.64,0,1.158-0.52,1.158-1.158V9.529c0-0.084-0.033-0.165-0.092-0.224L12.678,5.568z"/>
</svg>
