<?xml version="1.0" encoding="utf-8"?>
<!-- Generator: Adobe Illustrator 15.1.0, SVG Export Plug-In . SVG Version: 6.00 Build 0)  -->
<!DOCTYPE svg PUBLIC "-//W3C//DTD SVG 1.1//EN" "http://www.w3.org/Graphics/SVG/1.1/DTD/svg11.dtd">
<svg version="1.1" id="Layer_1" xmlns="http://www.w3.org/2000/svg" xmlns:xlink="http://www.w3.org/1999/xlink" x="0px" y="0px"
	 width="24px" height="24px" viewBox="0 0 24 24" enable-background="new 0 0 24 24" xml:space="preserve">
<path fill="#010002" d="M21.746,6.612c0-2.153-2.015-3.85-2.245-4.037l-0.116-0.094l-0.118,0.095
	c-0.23,0.186-2.245,1.883-2.245,4.036v0.182h0.237c-0.1,0.139-0.154,0.305-0.154,0.475c0,0.399,0.289,0.735,0.691,0.816v1.401
	c-1.243-2.444-5.25-4.222-5.424-4.299l-0.077-0.033l-0.074,0.034C12.045,5.265,8.04,7.042,6.797,9.486V8.087
	C7.189,8.002,7.468,7.667,7.468,7.27c0-0.17-0.054-0.335-0.154-0.475h0.255V6.613c0-2.154-2.014-3.851-2.245-4.038L5.208,2.481
	L5.089,2.576C4.998,2.649,2.844,4.415,2.844,6.612v0.182h0.218C2.964,6.933,2.909,7.1,2.909,7.269c0,0.41,0.302,0.754,0.709,0.825
	v13.583h2.928V10.552H6.82v11.125h3.703l-0.001-6.617l-0.003-0.059l0.009-0.063c0.138-0.755,1.422-1.414,1.741-1.565
	c0.318,0.151,1.602,0.807,1.74,1.556l0.006,6.693l0.002,0.057h3.734V10.552h0.274v11.125h2.949V8.091
	c0.396-0.077,0.689-0.422,0.689-0.822c0-0.17-0.054-0.335-0.154-0.475h0.238V6.612H21.746z M3.222,6.432
	c0.1-1.687,1.591-3.124,1.985-3.474c0.394,0.351,1.884,1.787,1.984,3.474H3.222z M6.857,10.389c0.546-2.502,4.832-4.557,5.438-4.834
	c0.607,0.279,4.896,2.33,5.438,4.835L6.857,10.389L6.857,10.389z M17.398,6.432c0.101-1.687,1.592-3.124,1.986-3.474
	c0.392,0.351,1.882,1.787,1.984,3.474H17.398z"/>
</svg>
