<?xml version="1.0" encoding="utf-8"?>
<!-- Generator: Adobe Illustrator 15.1.0, SVG Export Plug-In . SVG Version: 6.00 Build 0)  -->
<!DOCTYPE svg PUBLIC "-//W3C//DTD SVG 1.1//EN" "http://www.w3.org/Graphics/SVG/1.1/DTD/svg11.dtd">
<svg version="1.1"
	 id="svg2990" xmlns:svg="http://www.w3.org/2000/svg" xmlns:inkscape="http://www.inkscape.org/namespaces/inkscape" xmlns:sodipodi="http://sodipodi.sourceforge.net/DTD/sodipodi-0.dtd" xmlns:rdf="http://www.w3.org/1999/02/22-rdf-syntax-ns#" xmlns:dc="http://purl.org/dc/elements/1.1/" xmlns:cc="http://creativecommons.org/ns#" inkscape:version="0.48.5 r10040" sodipodi:docname="gas.svg"
	 xmlns="http://www.w3.org/2000/svg" xmlns:xlink="http://www.w3.org/1999/xlink" x="0px" y="0px" width="24px" height="24px"
	 viewBox="0 0 24 24" enable-background="new 0 0 24 24" xml:space="preserve">
<path d="M3.695,20.136v-7.22c0-0.165,0.095-0.309,0.231-0.35L4.445,12V9.866c0-0.021,0.001-0.04,0.003-0.059
	C4.16,9.503,3.979,9.06,3.979,8.568c0-0.79,0.507-1.542,1.156-1.646l0.02-1.475c0-0.199,0.043-0.31,0.211-0.31
	c0.167,0,0.24,0.103,0.24,0.302L5.587,6.922c0.62,0.112,1.182,0.857,1.182,1.646c0,0.492-0.18,0.935-0.468,1.239
	c0.002,0.019,0.004,0.038,0.004,0.058v2.109l2.209,0.022v-1.035c0-0.089,0.027-0.169,0.072-0.233
	c-0.24-0.627-0.365-1.31-0.365-1.997c0-2.518,1.622-4.593,3.689-4.828V3.89c0-0.2,0.139-0.937,0.307-0.937s0.301,0.737,0.301,0.937
	l0,0c2.148,0.134,3.862,2.255,3.862,4.842c0,0.689-0.125,1.37-0.364,1.997c0.045,0.063,0.07,0.144,0.07,0.233v1.037
	c0.007-0.001,0.016-0.001,0.021-0.001l2.302-0.007V9.88c0-0.02,0-0.039,0.004-0.058c-0.285-0.305-0.469-0.748-0.469-1.239
	c0-0.846,0.538-1.547,1.228-1.646l0.001-1.567c0-0.199,0.037-0.299,0.203-0.299c0.171,0,0.209,0.097,0.207,0.285v1.573
	c0.752,0.301,1.151,0.923,1.151,1.655c0,0.491-0.181,0.934-0.47,1.238c0.004,0.019,0.008,0.038,0.008,0.059v2.108h0.205
	c0.023,0,0.048,0.003,0.072,0.011L21,12.566c0.135,0.041,0.227,0.185,0.227,0.35v7.22 M21.225,20.136c0.17,0,0.305,0.16,0.305,0.36
	c0,0.199-0.135,0.361-0.305,0.361H3.686c-0.167,0-0.303-0.162-0.303-0.361s0.136-0.36,0.303-0.36 M19.019,11.99h0.646v-1.749h-0.646
	V11.99z M5.053,11.975h0.644v-1.749H5.053V11.975z M10.542,20.136h3.42v-5.001c0-0.631-1.127-1.183-1.71-1.369
	c-0.583,0.188-1.709,0.739-1.709,1.369L10.542,20.136L10.542,20.136z M17.396,20.264h2.383v-3.484c0-0.438-0.783-0.825-1.191-0.954
	c-0.404,0.129-1.191,0.517-1.191,0.954V20.264L17.396,20.264z M5.153,20.264h2.384v-3.484c0-0.438-0.786-0.825-1.191-0.954
	c-0.407,0.129-1.193,0.517-1.193,0.954V20.264L5.153,20.264z M14.918,10.708h0.514c0.021-0.083,0.033-0.176,0.033-0.271
	c0-0.33-0.13-0.6-0.29-0.6c-0.159,0-0.288,0.27-0.288,0.6C14.887,10.531,14.896,10.624,14.918,10.708z M13.477,10.708h0.517
	c0.021-0.083,0.03-0.176,0.03-0.271c0-0.33-0.131-0.6-0.289-0.6c-0.159,0-0.289,0.27-0.289,0.6
	C13.443,10.531,13.453,10.624,13.477,10.708z M12.034,10.708h0.516c0.021-0.083,0.033-0.176,0.033-0.271c0-0.33-0.132-0.6-0.292-0.6
	c-0.158,0-0.289,0.27-0.289,0.6C12.002,10.531,12.014,10.624,12.034,10.708z M10.593,10.708h0.515
	c0.022-0.083,0.033-0.176,0.033-0.271c0-0.33-0.13-0.6-0.29-0.6c-0.159,0-0.29,0.27-0.29,0.6
	C10.561,10.531,10.572,10.624,10.593,10.708z M9.151,10.708h0.516c0.02-0.083,0.032-0.176,0.032-0.271c0-0.33-0.13-0.6-0.291-0.6
	c-0.159,0-0.289,0.27-0.289,0.6C9.12,10.531,9.131,10.624,9.151,10.708z"/>
</svg>
