<?xml version="1.0" encoding="UTF-8" standalone="yes"?>
<svg xmlns="http://www.w3.org/2000/svg" xmlns:xlink="http://www.w3.org/1999/xlink" width="24px" height="24px" viewBox="0 0 18 18" version="1.1">
  <g id="surface1">
    <path style=" stroke:none;fill-rule:nonzero;fill:rgb(0.392157%,0%,0.784314%);fill-opacity:1;" d="M 3.15625 12.914062 C 6.691406 14.398438 11.433594 16.09375 17.378906 17.996094 C 17.527344 18.019531 17.605469 17.957031 17.617188 17.8125 C 17.628906 17.664062 17.574219 17.582031 17.453125 17.554688 C 11.527344 15.703125 5.984375 13.59375 0.816406 11.230469 C 0.621094 11.15625 0.488281 11.210938 0.414062 11.394531 C 0.339844 11.578125 0.390625 11.707031 0.5625 11.777344 C 0.976562 11.972656 1.351562 12.144531 1.695312 12.292969 L 0.488281 13.207031 C 0.339844 13.425781 0.378906 13.621094 0.597656 13.789062 C 0.769531 13.886719 0.9375 13.886719 1.109375 13.789062 Z M 3.15625 12.914062 "/>
    <path style=" stroke:none;fill-rule:nonzero;fill:rgb(0.392157%,0%,0.784314%);fill-opacity:1;" d="M 17.050781 7.574219 L 13.136719 3.953125 L 13.210938 3.953125 C 13.601562 3.953125 13.9375 3.816406 14.214844 3.535156 C 14.496094 3.253906 14.636719 2.914062 14.636719 2.511719 C 14.636719 2.109375 14.496094 1.765625 14.214844 1.488281 C 13.9375 1.207031 13.601562 1.066406 13.210938 1.066406 C 12.820312 1.066406 12.484375 1.207031 12.207031 1.488281 C 11.925781 1.765625 11.785156 2.113281 11.785156 2.527344 C 11.785156 2.820312 11.871094 3.089844 12.042969 3.332031 L 9.371094 2.382812 L 7.945312 0.296875 C 7.824219 0.128906 7.664062 0.03125 7.472656 0.0078125 C 7.277344 -0.0195312 7.105469 0.03125 6.960938 0.152344 C 6.8125 0.273438 6.726562 0.433594 6.703125 0.628906 C 6.703125 0.773438 6.738281 0.921875 6.8125 1.066406 L 8.273438 3.1875 C 8.347656 3.285156 8.433594 3.359375 8.53125 3.40625 L 10.214844 4.066406 L 7.433594 5.492188 C 7.019531 5.734375 6.777344 6.085938 6.703125 6.550781 L 6.703125 9.109375 L 4.144531 10.28125 C 3.800781 10.449219 3.632812 10.707031 3.632812 11.046875 C 3.632812 11.316406 3.710938 11.535156 3.871094 11.707031 C 4.027344 11.875 4.230469 11.972656 4.472656 12 C 4.617188 12 4.765625 11.960938 4.910156 11.890625 L 8.054688 10.464844 C 8.300781 10.339844 8.445312 10.144531 8.496094 9.878906 L 8.496094 8.269531 L 10.6875 10.242188 L 10.285156 13.605469 L 10.285156 13.644531 C 10.261719 13.910156 10.335938 14.136719 10.503906 14.320312 C 10.675781 14.503906 10.882812 14.59375 11.128906 14.59375 C 11.371094 14.59375 11.578125 14.519531 11.75 14.375 C 11.917969 14.230469 12.015625 14.046875 12.042969 13.828125 L 12.515625 9.988281 L 12.515625 9.949219 C 12.539062 9.683594 12.457031 9.453125 12.261719 9.257812 L 10.214844 7.464844 L 13.285156 5.964844 L 16.097656 8.5625 C 16.246094 8.707031 16.410156 8.78125 16.59375 8.78125 C 16.777344 8.78125 16.933594 8.707031 17.070312 8.5625 C 17.203125 8.414062 17.269531 8.257812 17.269531 8.085938 C 17.269531 7.867188 17.195312 7.695312 17.050781 7.574219 Z M 17.050781 7.574219 "/>
  </g>
</svg>