<?xml version="1.0" encoding="UTF-8" standalone="yes"?>
<svg xmlns="http://www.w3.org/2000/svg" xmlns:xlink="http://www.w3.org/1999/xlink" width="24px" height="24px" viewBox="0 0 18 18" version="1.1">
  <g id="surface1">
    <path style=" stroke:none;fill-rule:nonzero;fill:rgb(0%,0%,0%);fill-opacity:1;" d="M 6.285156 9.78125 L 12.921875 9.78125 C 11.324219 9.203125 10.734375 8.242188 10.734375 7.464844 C 10.734375 6.957031 10.84375 6.199219 10.949219 5.464844 C 11.035156 4.855469 11.117188 4.273438 11.117188 3.949219 C 11.117188 3.179688 10.546875 2.015625 9.6875 2.015625 C 9.476562 2.015625 9.292969 2.0625 9.125 2.152344 C 8.289062 2.613281 8.304688 3.980469 8.304688 3.992188 C 8.304688 4.882812 8.441406 5.382812 8.566406 5.824219 C 8.695312 6.300781 8.8125 6.710938 8.738281 7.464844 C 8.609375 8.75 7.199219 9.453125 6.285156 9.78125 Z M 5.425781 10.960938 L 13.625 10.960938 L 13.625 11.199219 L 5.425781 11.199219 Z M 5.425781 11.433594 L 13.625 11.433594 L 13.625 11.90625 L 5.425781 11.90625 Z M 5.425781 10.253906 L 13.625 10.253906 L 13.625 10.726562 L 5.425781 10.726562 Z M 4.097656 15.347656 C 4.019531 15.378906 3.976562 15.4375 3.996094 15.488281 C 4.027344 15.5625 4.179688 15.617188 4.414062 15.640625 C 4.699219 15.667969 5.070312 15.691406 5.492188 15.710938 C 5.5 15.710938 5.503906 15.710938 5.511719 15.710938 C 6.082031 15.730469 6.648438 15.082031 6.992188 14.578125 C 6.992188 14.578125 6.832031 15.285156 6.609375 15.742188 C 7.007812 15.753906 7.421875 15.757812 7.855469 15.757812 C 9.652344 15.757812 11.242188 15.6875 12.105469 15.574219 C 12.601562 15.507812 12.960938 15.335938 13.0625 15.105469 C 13.449219 14.261719 13.582031 12.808594 13.617188 12.378906 L 5.425781 12.378906 C 5.425781 12.894531 5.335938 14.863281 4.097656 15.347656 Z M 4.097656 15.347656 "/>
  </g>
</svg>