<?xml version="1.0" encoding="UTF-8" standalone="yes"?>
<svg xmlns="http://www.w3.org/2000/svg" xmlns:xlink="http://www.w3.org/1999/xlink" width="24px" height="24px" viewBox="0 0 18 18" version="1.1">
  <g id="surface1">
    <path style=" stroke:none;fill-rule:nonzero;fill:rgb(0%,0%,0%);fill-opacity:1;" d="M 6.539062 7.59375 L 9.539062 11.691406 C 9.582031 11.746094 9.613281 11.800781 9.636719 11.863281 C 10.050781 11.703125 10.679688 11.464844 10.734375 11.410156 C 10.789062 11.351562 10.746094 11.261719 10.722656 11.191406 C 10.671875 11.019531 10.617188 10.84375 10.5625 10.671875 C 10.550781 10.640625 10.542969 10.609375 10.53125 10.578125 C 10.519531 10.527344 10.546875 10.476562 10.597656 10.464844 C 10.597656 10.464844 11.367188 10.273438 11.367188 10.273438 C 11.390625 10.265625 11.414062 10.25 11.425781 10.226562 C 11.441406 10.203125 11.449219 10.171875 11.441406 10.148438 L 11.242188 9.34375 C 11.234375 9.292969 11.261719 9.242188 11.316406 9.230469 L 12.085938 9.039062 C 12.109375 9.035156 12.132812 9.015625 12.144531 8.996094 L 12.148438 8.988281 C 12.160156 8.964844 12.164062 8.941406 12.15625 8.917969 L 11.960938 8.109375 C 11.945312 8.058594 11.976562 8.007812 12.03125 7.996094 L 12.800781 7.804688 C 12.824219 7.800781 12.847656 7.785156 12.859375 7.761719 L 12.863281 7.753906 C 12.875 7.734375 12.878906 7.707031 12.875 7.683594 L 12.675781 6.878906 C 12.664062 6.828125 12.695312 6.777344 12.746094 6.761719 L 13.519531 6.574219 C 13.542969 6.570312 13.566406 6.550781 13.578125 6.53125 L 13.582031 6.523438 C 13.59375 6.503906 13.597656 6.476562 13.589844 6.457031 L 13.425781 5.78125 C 13.40625 5.707031 13.378906 5.609375 13.402344 5.574219 C 13.414062 5.554688 13.433594 5.539062 13.460938 5.53125 L 14.234375 5.339844 C 14.25 5.335938 14.257812 5.332031 14.269531 5.324219 C 14.285156 5.3125 14.292969 5.296875 14.296875 5.296875 L 14.296875 5.292969 C 14.308594 5.273438 14.3125 5.246094 14.304688 5.222656 L 14.109375 4.410156 C 14.09375 4.359375 14.125 4.308594 14.175781 4.296875 L 14.953125 4.105469 C 14.976562 4.101562 15 4.085938 15.011719 4.0625 C 15.023438 4.039062 15.027344 4.015625 15.023438 3.992188 L 14.820312 3.179688 C 14.808594 3.128906 14.839844 3.078125 14.890625 3.0625 L 15.648438 2.847656 C 15.722656 2.828125 15.792969 2.808594 15.792969 2.742188 C 15.789062 2.707031 15.710938 2.644531 15.652344 2.59375 L 14.828125 1.84375 C 14.773438 1.792969 14.675781 1.710938 14.601562 1.691406 C 14.488281 1.660156 14.367188 1.679688 14.273438 1.753906 L 6.441406 7.496094 C 6.476562 7.523438 6.511719 7.558594 6.539062 7.59375 Z M 1.628906 12.234375 C 1.71875 12.355469 1.851562 12.421875 1.992188 12.421875 C 2.082031 12.421875 2.175781 12.390625 2.253906 12.332031 C 2.253906 12.332031 2.292969 12.304688 2.339844 12.273438 C 2.351562 12.257812 2.371094 12.253906 2.390625 12.253906 C 2.429688 12.253906 2.472656 12.277344 2.503906 12.324219 L 4.003906 14.367188 C 4.050781 14.425781 4.046875 14.503906 4.003906 14.539062 L 3.917969 14.601562 C 3.71875 14.746094 3.675781 15.027344 3.820312 15.226562 L 4.136719 15.652344 C 4.222656 15.773438 4.359375 15.835938 4.496094 15.835938 C 4.589844 15.835938 4.679688 15.808594 4.757812 15.75 L 5.289062 15.363281 L 5.714844 15.046875 L 9.132812 12.542969 C 9.304688 12.417969 9.359375 12.195312 9.28125 12.007812 C 9.269531 11.976562 9.253906 11.945312 9.230469 11.917969 L 6.230469 7.824219 C 6.199219 7.785156 6.160156 7.765625 6.117188 7.765625 C 6.085938 7.765625 6.058594 7.777344 6.035156 7.792969 L 5.273438 8.351562 L 2.367188 10.484375 L 1.941406 10.796875 L 1.414062 11.183594 C 1.210938 11.332031 1.171875 11.609375 1.316406 11.808594 Z M 3.269531 10.855469 L 4.277344 10.113281 C 4.476562 9.96875 4.757812 10.011719 4.902344 10.210938 L 6.734375 12.710938 C 6.882812 12.910156 6.839844 13.191406 6.640625 13.339844 L 5.632812 14.078125 C 5.433594 14.222656 5.152344 14.179688 5.007812 13.980469 L 3.171875 11.480469 C 3.027344 11.28125 3.070312 11 3.269531 10.855469 Z M 3.269531 10.855469 "/>
  </g>
</svg>