<?xml version="1.0" encoding="UTF-8" standalone="yes"?>
<svg xmlns="http://www.w3.org/2000/svg" xmlns:xlink="http://www.w3.org/1999/xlink" width="22.666666666666664px" height="22.666666666666664px" viewBox="0 0 17 17" version="1.1">
  <g id="surface1">
    <path style=" stroke:none;fill-rule:nonzero;fill:rgb(0%,0%,0%);fill-opacity:1;" d="M 9.25 12.023438 L 6.699219 11.523438 C 6.734375 11.242188 6.761719 10.96875 6.777344 10.707031 L 8.527344 9.53125 C 8.828125 10.371094 9.066406 11.222656 9.25 12.023438 Z M 7.15625 6.699219 L 6.292969 7.277344 C 6.371094 7.476562 6.445312 7.683594 6.511719 7.910156 L 7.980469 8.199219 C 7.746094 7.695312 7.484375 7.210938 7.1875 6.765625 C 7.183594 6.753906 7.171875 6.730469 7.15625 6.699219 Z M 8.441406 9.304688 C 8.335938 9.019531 8.222656 8.738281 8.101562 8.460938 L 6.574219 8.164062 C 6.730469 8.800781 6.816406 9.546875 6.792969 10.414062 Z M 4.042969 5.328125 C 4.015625 5.40625 3.996094 5.488281 3.996094 5.578125 C 3.996094 5.859375 4.15625 6.097656 4.390625 6.222656 C 4.367188 6.304688 4.347656 6.390625 4.347656 6.480469 C 4.347656 6.996094 4.765625 7.410156 5.277344 7.410156 C 5.652344 7.410156 5.96875 7.191406 6.117188 6.875 C 6.144531 6.933594 6.175781 6.992188 6.203125 7.054688 L 7.058594 6.480469 C 7.039062 6.4375 7.023438 6.40625 7.015625 6.394531 C 6.960938 6.28125 6.917969 6.167969 6.878906 6.054688 C 6.984375 6.117188 7.105469 6.15625 7.238281 6.15625 C 7.640625 6.15625 7.964844 5.828125 7.964844 5.425781 C 7.964844 5.023438 7.640625 4.699219 7.238281 4.699219 C 7.035156 4.699219 6.851562 4.78125 6.71875 4.914062 C 6.796875 3.851562 7.503906 2.894531 8.605469 2.359375 C 9.621094 1.863281 10.769531 1.953125 11.671875 2.496094 C 10.777344 1.246094 9.085938 0.78125 7.65625 1.480469 C 6.816406 1.886719 6.238281 2.613281 5.988281 3.4375 C 5.984375 2.820312 6.15625 2.28125 6.632812 1.777344 C 6.707031 1.699219 6.785156 1.625 6.871094 1.550781 C 7.726562 0.8125 8.863281 0.609375 9.871094 0.90625 C 8.6875 -0.0742188 6.933594 -0.09375 5.726562 0.945312 C 5.035156 1.539062 4.660156 2.367188 4.617188 3.214844 C 4.046875 2.359375 2.988281 1.90625 1.933594 2.160156 C 0.71875 2.449219 -0.0742188 3.570312 0.00390625 4.777344 C 0.28125 3.996094 0.933594 3.371094 1.796875 3.164062 C 2.84375 2.914062 3.890625 3.355469 4.460938 4.195312 C 3.648438 3.878906 2.710938 3.886719 1.867188 4.304688 C 0.4375 5.007812 -0.230469 6.628906 0.210938 8.101562 C 0.332031 7.058594 0.964844 6.09375 1.980469 5.589844 C 2.644531 5.265625 3.367188 5.191406 4.042969 5.328125 Z M 10.457031 14.09375 L 11.640625 13.863281 C 11.625 13.730469 11.609375 13.605469 11.605469 13.480469 L 10.792969 12.9375 C 10.652344 13.328125 10.542969 13.722656 10.457031 14.09375 Z M 11.828125 11.890625 L 11.429688 11.625 C 11.421875 11.636719 11.417969 11.648438 11.414062 11.652344 C 11.277344 11.863281 11.15625 12.085938 11.046875 12.320312 L 11.726562 12.1875 C 11.757812 12.082031 11.792969 11.984375 11.828125 11.890625 Z M 10.988281 12.441406 C 10.933594 12.570312 10.882812 12.703125 10.832031 12.832031 L 11.597656 13.347656 C 11.585938 12.945312 11.625 12.601562 11.699219 12.304688 Z M 10.167969 8.9375 C 10.636719 8.800781 11.164062 8.894531 11.5625 9.238281 C 11.601562 9.269531 11.636719 9.304688 11.671875 9.34375 C 11.894531 9.574219 11.972656 9.824219 11.96875 10.113281 C 11.851562 9.730469 11.585938 9.394531 11.195312 9.203125 C 10.535156 8.878906 9.75 9.09375 9.332031 9.675781 C 9.75 9.421875 10.285156 9.378906 10.753906 9.609375 C 11.265625 9.859375 11.59375 10.300781 11.628906 10.796875 C 11.570312 10.734375 11.484375 10.695312 11.390625 10.695312 C 11.203125 10.695312 11.050781 10.847656 11.050781 11.035156 C 11.050781 11.21875 11.203125 11.371094 11.390625 11.371094 C 11.449219 11.371094 11.507812 11.355469 11.554688 11.328125 C 11.539062 11.378906 11.515625 11.429688 11.492188 11.484375 C 11.488281 11.488281 11.484375 11.503906 11.472656 11.523438 L 11.871094 11.789062 C 11.882812 11.761719 11.894531 11.734375 11.910156 11.707031 C 11.976562 11.851562 12.125 11.957031 12.296875 11.957031 C 12.539062 11.957031 12.730469 11.761719 12.730469 11.523438 C 12.730469 11.484375 12.722656 11.441406 12.710938 11.402344 C 12.816406 11.347656 12.894531 11.234375 12.894531 11.105469 C 12.894531 11.0625 12.882812 11.027344 12.871094 10.988281 C 13.183594 10.925781 13.519531 10.960938 13.828125 11.113281 C 14.300781 11.34375 14.59375 11.792969 14.648438 12.277344 C 14.855469 11.59375 14.542969 10.839844 13.882812 10.515625 C 13.488281 10.320312 13.054688 10.316406 12.675781 10.464844 C 12.941406 10.074219 13.429688 9.871094 13.914062 9.984375 C 14.3125 10.082031 14.617188 10.371094 14.742188 10.734375 C 14.78125 10.175781 14.414062 9.652344 13.847656 9.519531 C 13.359375 9.402344 12.871094 9.613281 12.605469 10.007812 C 12.585938 9.613281 12.410156 9.230469 12.089844 8.957031 C 11.53125 8.472656 10.71875 8.480469 10.167969 8.9375 Z M 12.019531 15.371094 C 11.835938 14.851562 11.71875 14.386719 11.652344 13.96875 L 10.433594 14.210938 C 10.402344 14.335938 10.378906 14.457031 10.355469 14.570312 L 11.523438 15.355469 C 11.457031 15.351562 11.386719 15.351562 11.320312 15.347656 L 10.335938 14.6875 C 10.289062 14.929688 10.257812 15.144531 10.234375 15.328125 C 10.09375 15.328125 9.953125 15.328125 9.808594 15.324219 C 9.757812 14.859375 9.667969 14.148438 9.511719 13.300781 L 6.410156 15.386719 C 6.253906 15.394531 6.105469 15.398438 5.957031 15.40625 L 9.464844 13.054688 C 9.417969 12.800781 9.363281 12.542969 9.304688 12.273438 L 6.667969 11.757812 C 6.507812 12.828125 6.179688 14.046875 5.636719 15.425781 C 3.363281 15.554688 1.828125 15.800781 1.828125 16.078125 C 1.828125 16.492188 5.226562 16.832031 9.414062 16.832031 C 13.605469 16.832031 17 16.492188 17 16.078125 C 17 15.753906 14.925781 15.476562 12.019531 15.371094 Z M 12.019531 15.371094 "/>
  </g>
</svg>