<?xml version="1.0" encoding="utf-8"?>
<!-- Generator: Adobe Illustrator 15.1.0, SVG Export Plug-In . SVG Version: 6.00 Build 0)  -->
<!DOCTYPE svg PUBLIC "-//W3C//DTD SVG 1.1//EN" "http://www.w3.org/Graphics/SVG/1.1/DTD/svg11.dtd">
<svg version="1.1" id="Layer_1" xmlns="http://www.w3.org/2000/svg" xmlns:xlink="http://www.w3.org/1999/xlink" x="0px" y="0px"
	 width="24px" height="24px" viewBox="0 0 24 24" enable-background="new 0 0 24 24" xml:space="preserve">
<path d="M16.271,17.473c0,0.131-0.022,0.256-0.065,0.374c0.176-0.047,0.378-0.122,0.577-0.237c0.695-0.398,1.093-1.116,1.181-2.142
	c0.025-0.282,0.153-0.547,0.363-0.738c0.21-0.194,0.481-0.298,0.767-0.298h0.007h0.151l0.004-0.55
	c0.002-0.287-0.229-0.519-0.515-0.519h-1.314c-0.282,0-0.512,0.228-0.515,0.511l-0.005,0.934c0.015,0.964-0.253,1.569-0.634,1.947
	L16.271,17.473z M20.154,15.059l-0.902-0.007h-0.151c0,0-0.003,0-0.005,0c-0.267,0-0.491,0.204-0.513,0.471
	c-0.256,2.957-2.73,3.031-2.984,3.031c-0.016,0-0.021,0-0.021,0l-4.476-0.006c-0.136,0-0.247-0.109-0.247-0.249v-0.077
	c0-0.138,0.111-0.246,0.247-0.246l0,0l4.035,0.007l0,0c0.284,0,0.513-0.229,0.515-0.514l0.003-0.304l0.005-0.841
	c0.002-0.284-0.227-0.518-0.514-0.518l-2.001-0.012c-0.181-0.002-0.36-0.051-0.516-0.143C12.127,15.357,10.84,14.7,9.274,14.7
	c-0.748,0-1.56,0.152-2.379,0.562l-0.694,0.004c0.021,0.083,0.03,0.173,0.03,0.265l0.005,4.428c0,0.079-0.009,0.159-0.025,0.233
	h2.233c0.286,0,0.57,0.027,0.85,0.081l1.101,0.209c1.246,0.236,2.511,0.356,3.78,0.365l1.676,0.011c0,0,4.475-0.211,4.807-5.25
	C20.685,15.312,20.451,15.061,20.154,15.059z M5.548,15.268c-0.077-0.129-0.204-0.219-0.356-0.245
	c-0.029-0.004-0.058-0.009-0.089-0.009l0,0h-0.22H3.909c-0.284,0-0.515,0.231-0.515,0.515l0.004,4.428
	c0,0.283,0.231,0.514,0.515,0.514l0,0h0.988h0.207c0.035,0,0.07-0.004,0.103-0.01c0.155-0.031,0.285-0.133,0.355-0.271
	c0.035-0.07,0.055-0.152,0.055-0.235l-0.004-4.428C5.62,15.435,5.594,15.343,5.548,15.268z M18.235,5.985
	c-0.01-0.012-0.02-0.024-0.032-0.036l-0.538-0.522c0.446-0.102,0.927-0.477,0.927-0.862c0-0.449-0.622-0.608-1.154-0.608
	c-0.553,0-0.617,0.381-0.625,0.65L15.42,3.263c-0.282-0.281-0.821-0.501-1.221-0.501h-2.712l0,0H8.771
	c-0.399,0-0.937,0.221-1.22,0.501L6.159,4.607c-0.007-0.27-0.071-0.65-0.626-0.65c-0.532,0-1.153,0.16-1.153,0.608
	c0,0.385,0.482,0.761,0.93,0.862L4.77,5.949C4.758,5.961,4.749,5.974,4.737,5.985C4.16,6.479,3.783,7.396,3.783,8.061v1.978
	c0,0.479,0.189,0.914,0.494,1.239v0.767c0,0.449,0.375,0.813,0.836,0.813h1.01c0.461,0,0.836-0.365,0.836-0.813v-0.197h4.528l0,0
	h4.526v0.197c0,0.45,0.376,0.813,0.836,0.813h1.011c0.46,0,0.833-0.366,0.833-0.813v-0.767c0.309-0.325,0.497-0.76,0.497-1.239
	V8.061C19.189,7.396,18.812,6.479,18.235,5.985z M8.063,3.859C8.26,3.697,8.602,3.573,8.771,3.573h2.716l0,0h2.712
	c0.174,0,0.514,0.124,0.708,0.287l1.828,1.772h-5.248l0,0H6.238L8.063,3.859z M4.41,7.761c0-0.485,0.381-0.88,0.85-0.88
	c0.468,0,2.004,0.902,2.004,1.389c0,0.486-1.536,0.374-2.004,0.374C4.791,8.644,4.41,8.249,4.41,7.761z M6.961,10.983H6.797H6.636
	l-0.96,0.001c-0.267-0.083-0.454-0.182-0.587-0.284c-0.068-0.053-0.119-0.108-0.16-0.162c-0.041-0.057-0.07-0.111-0.088-0.164
	c-0.12-0.339,0.128-0.649,0.128-0.649h1.638l1.094,1.256L6.961,10.983L6.961,10.983z M13.842,10.983h-2.354l0,0H9.129
	c-0.492,0-0.892-0.401-0.892-0.892h3.25l0,0h3.246C14.733,10.584,14.335,10.983,13.842,10.983z M14.052,9.482h-2.564l0,0H8.923
	c-0.534,0-0.97-0.659-0.97-1.474h3.534l0,0h3.531C15.019,8.823,14.586,9.482,14.052,9.482z M18.133,10.375
	c-0.017,0.054-0.048,0.109-0.088,0.164c-0.04,0.054-0.091,0.108-0.158,0.162c-0.135,0.103-0.324,0.201-0.587,0.284l-0.961-0.001
	h-0.162h-0.163h-0.74l1.093-1.255h1.639C18.006,9.726,18.252,10.036,18.133,10.375z M17.715,8.643c-0.471,0-2.005,0.111-2.005-0.375
	c0-0.487,1.533-1.388,2.005-1.388c0.469,0,0.847,0.395,0.847,0.881C18.562,8.249,18.182,8.643,17.715,8.643z"/>
</svg>
