<?xml version="1.0" encoding="utf-8"?>
<!-- Generator: Adobe Illustrator 15.1.0, SVG Export Plug-In . SVG Version: 6.00 Build 0)  -->
<!DOCTYPE svg PUBLIC "-//W3C//DTD SVG 1.1//EN" "http://www.w3.org/Graphics/SVG/1.1/DTD/svg11.dtd">
<svg version="1.1" id="Layer_1" xmlns="http://www.w3.org/2000/svg" xmlns:xlink="http://www.w3.org/1999/xlink" x="0px" y="0px"
	 width="24px" height="24px" viewBox="0 0 24 24" enable-background="new 0 0 24 24" xml:space="preserve">
<path d="M7.179,12.371l0.694-0.401c-0.477-0.901-0.776-1.622-2.025-1.67c-2.676,2.349-4.046,4.847-3.548,5.753
	c0.053,0.098,0.132,0.177,0.229,0.245C3.415,14.896,5.29,13.424,7.179,12.371z M12.013,10.391c0,0.002,0,0.003,0,0.004l0.892-0.2
	c0.603-0.135,1.215-0.244,1.821-0.325c1.102-0.149,2.957-0.188,3.314-0.175c1.777-1.519,2.71-2.853,2.321-3.559
	c-0.453-0.827-2.862-1.053-5.879-0.329c0.786,0.92,0.973,2.19,0.907,2.949c-0.088,1.035-0.307-2.396-2.981-2.325
	C11.869,6.625,11.32,6.85,10.77,7.104C11.84,8.023,12.087,9.532,12.013,10.391z M8.612,11.643l0.271-0.12
	c0.649-0.288,1.316-0.545,1.983-0.765l0.558-0.205c-0.328-1.48-1.029-2.431-2.451-2.51C8.372,8.396,7.803,8.772,7.271,9.161
	C8.098,9.819,8.484,10.83,8.612,11.643z M16.921,10.31c0.576,1.064,0.49,2.345,0.266,3.074c-0.306,0.992-0.345-2.509-2.424-2.901
	c-0.568,0.076-1.151,0.18-1.743,0.313c0.852,1.123,0.775,2.651,0.521,3.473c-0.305,0.994-0.182-2.376-2.476-2.935
	c-0.663,0.219-1.298,0.466-1.9,0.733c0.864,1.056,0.889,2.531,0.7,3.35c-0.233,1.012-0.163-1.886-2.33-2.538
	c-3.111,1.733-4.877,4.223-4.582,5.213c0.409,1.372,5.245,1.448,10.697-0.177c5.453-1.626,9.459-4.337,9.05-5.709
	C22.431,11.302,20.024,10.237,16.921,10.31z"/>
</svg>
