<?xml version="1.0" encoding="UTF-8" standalone="yes"?>
<svg xmlns="http://www.w3.org/2000/svg" xmlns:xlink="http://www.w3.org/1999/xlink" width="24px" height="24px" viewBox="0 0 18 18" version="1.1">
  <g id="surface1">
    <path style=" stroke:none;fill-rule:nonzero;fill:rgb(0%,0%,0%);fill-opacity:1;" d="M 11.195312 6.832031 C 10.261719 7.59375 9.496094 8.101562 9.121094 8.101562 C 7.628906 8.105469 5.953125 6.746094 4.765625 6.972656 C 3.574219 7.199219 2.8125 9.90625 2.8125 9.90625 L 0.347656 10.410156 C 4.359375 4.335938 10.734375 0.4375 18 0 C 18 0 17.429688 0.941406 16.273438 2.101562 C 15.554688 2.097656 14.796875 2.046875 14.171875 1.878906 C 14.367188 2.269531 14.800781 2.691406 15.316406 3.050781 C 15.046875 3.316406 14.765625 3.585938 14.480469 3.863281 C 13.671875 3.878906 12.78125 3.835938 12.0625 3.644531 C 12.28125 4.074219 12.78125 4.542969 13.367188 4.917969 C 13.191406 5.082031 13.015625 5.242188 12.84375 5.402344 C 11.859375 5.476562 10.382812 5.523438 9.304688 5.234375 C 9.59375 5.800781 10.371094 6.4375 11.195312 6.832031 Z M 7.875 13.5 L 5.625 13.5 L 5.625 12.375 L 6.1875 12.375 C 6.5 12.375 6.75 12.125 6.75 11.8125 C 6.75 11.5 6.5 11.25 6.1875 11.25 L 2.8125 11.25 C 2.5 11.25 2.25 11.5 2.25 11.8125 C 2.25 12.125 2.5 12.375 2.8125 12.375 L 3.375 12.375 L 3.375 13.5 L 1.125 13.5 C 0.503906 13.5 0 14.003906 0 14.625 L 0 16.875 C 0 17.496094 0.503906 18 1.125 18 L 7.875 18 C 8.496094 18 9 17.496094 9 16.875 L 9 14.625 C 9 14.003906 8.496094 13.5 7.875 13.5 Z M 7.875 13.5 "/>
  </g>
</svg>