<?xml version="1.0" encoding="UTF-8" standalone="yes"?>
<svg xmlns="http://www.w3.org/2000/svg" xmlns:xlink="http://www.w3.org/1999/xlink" width="24px" height="24px" viewBox="0 0 18 18" version="1.1">
  <g id="surface1">
    <path style=" stroke:none;fill-rule:nonzero;fill:rgb(0%,0%,0%);fill-opacity:1;" d="M 1.785156 4.648438 L 1.785156 5.640625 C 2.035156 5.203125 2.96875 4.878906 4.078125 4.878906 C 5.191406 4.878906 6.121094 5.203125 6.375 5.640625 L 6.375 4.648438 C 6.375 4.113281 5.347656 3.679688 4.078125 3.679688 C 2.8125 3.679688 1.785156 4.113281 1.785156 4.648438 Z M 1.785156 4.648438 "/>
    <path style=" stroke:none;fill-rule:nonzero;fill:rgb(0%,0%,0%);fill-opacity:1;" d="M 1.765625 17.433594 C 1.765625 17.539062 1.851562 17.625 1.953125 17.625 L 6.164062 17.625 C 6.269531 17.625 6.355469 17.539062 6.355469 17.433594 L 6.355469 6.679688 C 6.101562 6.246094 5.171875 5.917969 4.058594 5.917969 C 2.949219 5.917969 2.015625 6.246094 1.765625 6.683594 Z M 1.765625 17.433594 "/>
    <path style=" stroke:none;fill-rule:nonzero;fill:rgb(0%,0%,0%);fill-opacity:1;" d="M 0 11.558594 L 0 17.433594 C 0 17.539062 0.0859375 17.625 0.1875 17.625 L 1.199219 17.625 C 1.304688 17.625 1.386719 17.539062 1.386719 17.433594 L 1.386719 11.558594 C 1.386719 11.453125 1.304688 11.367188 1.199219 11.367188 L 0.1875 11.367188 C 0.0859375 11.367188 0 11.453125 0 11.558594 Z M 0 11.558594 "/>
    <path style=" stroke:none;fill-rule:nonzero;fill:rgb(0%,0%,0%);fill-opacity:1;" d="M 5.230469 3.054688 C 5.226562 3.097656 5.226562 3.140625 5.230469 3.175781 C 5.230469 3.191406 5.230469 3.207031 5.234375 3.222656 C 5.238281 3.238281 5.238281 3.25 5.242188 3.261719 C 5.25 3.308594 5.261719 3.335938 5.261719 3.335938 C 5.261719 3.335938 5.273438 3.3125 5.304688 3.277344 C 5.320312 3.261719 5.339844 3.242188 5.359375 3.21875 C 5.371094 3.207031 5.382812 3.195312 5.394531 3.183594 C 5.410156 3.171875 5.421875 3.160156 5.4375 3.144531 C 5.464844 3.121094 5.5 3.09375 5.535156 3.066406 C 5.554688 3.054688 5.570312 3.039062 5.589844 3.027344 C 5.613281 3.015625 5.628906 3 5.652344 2.988281 C 5.738281 2.933594 5.832031 2.886719 5.941406 2.84375 C 6.152344 2.757812 6.40625 2.691406 6.6875 2.648438 C 6.832031 2.625 6.980469 2.605469 7.132812 2.589844 C 7.171875 2.585938 7.210938 2.582031 7.25 2.578125 C 7.296875 2.574219 7.339844 2.570312 7.382812 2.566406 C 7.46875 2.558594 7.574219 2.539062 7.671875 2.523438 C 7.859375 2.488281 8.054688 2.441406 8.242188 2.375 C 8.429688 2.3125 8.609375 2.230469 8.78125 2.132812 C 8.953125 2.035156 9.109375 1.917969 9.246094 1.789062 C 9.378906 1.65625 9.488281 1.511719 9.570312 1.371094 C 9.648438 1.230469 9.699219 1.089844 9.730469 0.96875 C 9.757812 0.84375 9.769531 0.738281 9.773438 0.648438 C 9.773438 0.5625 9.769531 0.492188 9.765625 0.445312 C 9.757812 0.398438 9.753906 0.375 9.753906 0.375 C 9.753906 0.375 9.734375 0.390625 9.703125 0.421875 C 9.6875 0.441406 9.664062 0.460938 9.640625 0.480469 C 9.628906 0.492188 9.617188 0.503906 9.605469 0.519531 C 9.589844 0.53125 9.578125 0.546875 9.5625 0.558594 C 9.503906 0.613281 9.433594 0.679688 9.351562 0.746094 C 9.269531 0.808594 9.179688 0.875 9.078125 0.933594 C 8.980469 0.988281 8.871094 1.042969 8.753906 1.089844 C 8.636719 1.132812 8.507812 1.175781 8.375 1.214844 C 8.238281 1.25 8.089844 1.285156 7.9375 1.316406 C 7.785156 1.347656 7.628906 1.378906 7.46875 1.410156 C 7.386719 1.421875 7.316406 1.4375 7.222656 1.453125 L 7.15625 1.464844 L 7.09375 1.476562 C 7.089844 1.476562 7.085938 1.476562 7.082031 1.476562 C 7.109375 1.441406 7.128906 1.40625 7.148438 1.371094 C 7.230469 1.230469 7.28125 1.089844 7.308594 0.96875 C 7.339844 0.84375 7.351562 0.738281 7.351562 0.648438 C 7.355469 0.5625 7.351562 0.492188 7.34375 0.445312 C 7.339844 0.398438 7.335938 0.375 7.335938 0.375 C 7.335938 0.375 7.316406 0.390625 7.285156 0.421875 C 7.265625 0.441406 7.246094 0.460938 7.222656 0.480469 C 7.210938 0.492188 7.199219 0.503906 7.183594 0.519531 C 7.171875 0.53125 7.15625 0.546875 7.144531 0.558594 C 7.082031 0.613281 7.011719 0.679688 6.933594 0.746094 C 6.851562 0.808594 6.761719 0.875 6.660156 0.933594 C 6.558594 0.988281 6.453125 1.042969 6.335938 1.089844 C 6.21875 1.132812 6.089844 1.175781 5.953125 1.214844 C 5.816406 1.25 5.671875 1.285156 5.519531 1.316406 C 5.367188 1.347656 5.210938 1.378906 5.046875 1.410156 C 4.96875 1.421875 4.898438 1.4375 4.804688 1.453125 L 4.671875 1.476562 C 4.625 1.488281 4.578125 1.496094 4.527344 1.507812 C 4.335938 1.550781 4.144531 1.613281 3.964844 1.691406 C 3.789062 1.769531 3.621094 1.867188 3.472656 1.976562 C 3.324219 2.085938 3.199219 2.210938 3.101562 2.339844 C 3 2.46875 2.929688 2.605469 2.882812 2.726562 C 2.835938 2.851562 2.816406 2.960938 2.8125 3.054688 C 2.808594 3.097656 2.808594 3.140625 2.808594 3.175781 C 2.8125 3.191406 2.8125 3.207031 2.816406 3.222656 C 2.816406 3.238281 2.820312 3.25 2.820312 3.261719 C 2.832031 3.308594 2.839844 3.335938 2.839844 3.335938 C 2.839844 3.335938 2.855469 3.3125 2.886719 3.277344 C 2.898438 3.261719 2.917969 3.242188 2.941406 3.21875 C 2.953125 3.207031 2.964844 3.195312 2.976562 3.183594 C 2.988281 3.171875 3.003906 3.160156 3.015625 3.144531 C 3.046875 3.121094 3.078125 3.09375 3.117188 3.066406 C 3.132812 3.054688 3.152344 3.039062 3.171875 3.027344 C 3.191406 3.015625 3.210938 3 3.234375 2.988281 C 3.316406 2.933594 3.414062 2.886719 3.519531 2.84375 C 3.734375 2.757812 3.988281 2.691406 4.269531 2.648438 C 4.410156 2.625 4.558594 2.605469 4.714844 2.589844 C 4.753906 2.585938 4.792969 2.582031 4.832031 2.578125 C 4.875 2.574219 4.921875 2.570312 4.964844 2.566406 C 5.046875 2.558594 5.15625 2.539062 5.25 2.523438 C 5.304688 2.515625 5.363281 2.503906 5.417969 2.492188 C 5.367188 2.570312 5.332031 2.652344 5.300781 2.726562 C 5.257812 2.851562 5.234375 2.960938 5.230469 3.054688 Z M 5.230469 3.054688 "/>
    <path style=" stroke:none;fill-rule:nonzero;fill:rgb(0%,0%,0%);fill-opacity:1;" d="M 16.097656 17.625 L 17.808594 17.625 C 17.914062 17.625 17.996094 17.539062 17.996094 17.433594 L 17.996094 9.53125 C 17.996094 9.378906 17.828125 9.289062 17.703125 9.375 L 15.152344 11.097656 C 15.027344 11.183594 14.859375 11.09375 14.859375 10.941406 L 14.859375 9.53125 C 14.859375 9.378906 14.6875 9.289062 14.5625 9.375 L 12.011719 11.097656 C 11.886719 11.183594 11.71875 11.09375 11.71875 10.941406 L 11.71875 9.53125 C 11.71875 9.378906 11.550781 9.289062 11.421875 9.375 L 8.523438 11.335938 C 8.492188 11.355469 8.457031 11.367188 8.417969 11.367188 L 6.941406 11.367188 C 6.835938 11.367188 6.753906 11.453125 6.753906 11.558594 L 6.753906 17.433594 C 6.753906 17.539062 6.835938 17.625 6.941406 17.625 L 13.078125 17.625 C 13.179688 17.625 13.265625 17.539062 13.265625 17.433594 L 13.265625 15.714844 C 13.265625 15.609375 13.351562 15.527344 13.453125 15.527344 L 15.722656 15.527344 C 15.824219 15.527344 15.910156 15.609375 15.910156 15.714844 L 15.910156 17.433594 C 15.910156 17.539062 15.996094 17.625 16.097656 17.625 Z M 9.117188 14.152344 C 9.117188 14.253906 9.035156 14.339844 8.929688 14.339844 L 7.902344 14.339844 C 7.796875 14.339844 7.714844 14.253906 7.714844 14.152344 L 7.714844 13.125 C 7.714844 13.019531 7.796875 12.933594 7.902344 12.933594 L 8.929688 12.933594 C 9.035156 12.933594 9.117188 13.019531 9.117188 13.125 Z M 11.101562 14.152344 C 11.101562 14.253906 11.015625 14.339844 10.910156 14.339844 L 9.882812 14.339844 C 9.777344 14.339844 9.695312 14.253906 9.695312 14.152344 L 9.695312 13.125 C 9.695312 13.019531 9.777344 12.933594 9.882812 12.933594 L 10.910156 12.933594 C 11.015625 12.933594 11.101562 13.019531 11.101562 13.125 Z M 13.082031 14.152344 C 13.082031 14.253906 12.996094 14.339844 12.890625 14.339844 L 11.863281 14.339844 C 11.761719 14.339844 11.675781 14.253906 11.675781 14.152344 L 11.675781 13.125 C 11.675781 13.019531 11.761719 12.933594 11.863281 12.933594 L 12.890625 12.933594 C 12.996094 12.933594 13.082031 13.019531 13.082031 13.125 Z M 15.0625 14.152344 C 15.0625 14.253906 14.976562 14.339844 14.875 14.339844 L 13.84375 14.339844 C 13.742188 14.339844 13.65625 14.253906 13.65625 14.152344 L 13.65625 13.125 C 13.65625 13.019531 13.742188 12.933594 13.84375 12.933594 L 14.875 12.933594 C 14.976562 12.933594 15.0625 13.019531 15.0625 13.125 Z M 15.828125 14.339844 C 15.722656 14.339844 15.636719 14.253906 15.636719 14.152344 L 15.636719 13.125 C 15.636719 13.019531 15.722656 12.933594 15.828125 12.933594 L 16.855469 12.933594 C 16.957031 12.933594 17.042969 13.019531 17.042969 13.125 L 17.042969 14.152344 C 17.042969 14.253906 16.957031 14.339844 16.855469 14.339844 Z M 15.828125 14.339844 "/>
  </g>
</svg>