<?xml version="1.0" encoding="UTF-8" standalone="yes"?>
<svg xmlns="http://www.w3.org/2000/svg" xmlns:xlink="http://www.w3.org/1999/xlink" width="24px" height="24px" viewBox="0 0 18 18" version="1.1">
  <g id="surface1">
    <path style=" stroke:none;fill-rule:nonzero;fill:rgb(0%,0%,0%);fill-opacity:1;" d="M 0.65625 14.90625 L 4.964844 14.90625 L 4.292969 12.65625 L 1.332031 12.65625 Z M 5.34375 15.46875 L 0.28125 15.46875 C 0.253906 15.46875 0.226562 15.464844 0.199219 15.457031 C 0.0507812 15.414062 -0.03125 15.257812 0.0117188 15.109375 L 0.851562 12.3125 C 0.878906 12.1875 0.992188 12.09375 1.125 12.09375 L 4.5 12.09375 C 4.621094 12.09375 4.734375 12.171875 4.769531 12.292969 L 5.605469 15.089844 C 5.617188 15.121094 5.625 15.152344 5.625 15.1875 C 5.625 15.34375 5.5 15.46875 5.34375 15.46875 Z M 5.34375 15.46875 "/>
    <path style=" stroke:none;fill-rule:nonzero;fill:rgb(0%,0%,0%);fill-opacity:1;" d="M 13.035156 14.90625 L 17.339844 14.90625 L 16.667969 12.65625 L 13.707031 12.65625 Z M 17.71875 15.46875 L 12.65625 15.46875 C 12.628906 15.46875 12.601562 15.464844 12.574219 15.457031 C 12.429688 15.414062 12.34375 15.257812 12.386719 15.109375 L 13.226562 12.3125 C 13.253906 12.1875 13.367188 12.09375 13.5 12.09375 L 16.875 12.09375 C 16.996094 12.09375 17.109375 12.171875 17.144531 12.292969 L 17.980469 15.089844 C 17.992188 15.121094 18 15.152344 18 15.1875 C 18 15.34375 17.875 15.46875 17.71875 15.46875 Z M 17.71875 15.46875 "/>
    <path style=" stroke:none;fill-rule:nonzero;fill:rgb(0%,0%,0%);fill-opacity:1;" d="M 6.847656 14.90625 L 11.152344 14.90625 L 10.480469 12.65625 L 7.519531 12.65625 Z M 11.53125 15.46875 L 6.46875 15.46875 C 6.441406 15.46875 6.414062 15.464844 6.386719 15.457031 C 6.242188 15.414062 6.15625 15.257812 6.199219 15.109375 L 7.039062 12.3125 C 7.066406 12.1875 7.179688 12.09375 7.3125 12.09375 L 10.6875 12.09375 C 10.808594 12.09375 10.921875 12.171875 10.957031 12.292969 L 11.792969 15.089844 C 11.804688 15.121094 11.8125 15.152344 11.8125 15.1875 C 11.8125 15.34375 11.6875 15.46875 11.53125 15.46875 Z M 11.53125 15.46875 "/>
    <path style=" stroke:none;fill-rule:nonzero;fill:rgb(0%,0%,0%);fill-opacity:1;" d="M 3.46875 10.96875 L 7.777344 10.96875 L 7.101562 8.71875 L 4.144531 8.71875 Z M 8.15625 11.53125 L 3.09375 11.53125 C 3.066406 11.53125 3.039062 11.527344 3.011719 11.519531 C 2.863281 11.476562 2.777344 11.320312 2.824219 11.171875 L 3.664062 8.375 C 3.691406 8.25 3.804688 8.15625 3.9375 8.15625 L 7.3125 8.15625 C 7.433594 8.15625 7.542969 8.234375 7.582031 8.355469 L 8.417969 11.152344 C 8.429688 11.183594 8.4375 11.214844 8.4375 11.25 C 8.4375 11.40625 8.308594 11.53125 8.15625 11.53125 Z M 8.15625 11.53125 "/>
    <path style=" stroke:none;fill-rule:nonzero;fill:rgb(0%,0%,0%);fill-opacity:1;" d="M 10.222656 10.96875 L 14.527344 10.96875 L 13.855469 8.71875 L 10.894531 8.71875 Z M 14.90625 11.53125 L 9.84375 11.53125 C 9.816406 11.53125 9.789062 11.527344 9.761719 11.519531 C 9.617188 11.476562 9.53125 11.320312 9.574219 11.171875 L 10.414062 8.375 C 10.441406 8.25 10.554688 8.15625 10.6875 8.15625 L 14.0625 8.15625 C 14.183594 8.15625 14.296875 8.234375 14.332031 8.355469 L 15.167969 11.148438 C 15.179688 11.179688 15.1875 11.214844 15.1875 11.25 C 15.1875 11.40625 15.0625 11.53125 14.90625 11.53125 Z M 14.90625 11.53125 "/>
    <path style=" stroke:none;fill-rule:nonzero;fill:rgb(0%,0%,0%);fill-opacity:1;" d="M 11.53125 7.03125 C 11.6875 7.03125 11.8125 7.15625 11.8125 7.3125 C 11.8125 7.46875 11.6875 7.59375 11.53125 7.59375 L 6.46875 7.59375 C 6.3125 7.59375 6.1875 7.46875 6.1875 7.3125 C 6.1875 7.277344 6.191406 7.242188 6.207031 7.210938 L 7.042969 4.417969 C 7.078125 4.296875 7.191406 4.21875 7.3125 4.21875 L 8.15625 4.21875 C 8.3125 4.21875 8.4375 4.34375 8.4375 4.5 C 8.4375 4.652344 8.3125 4.78125 8.15625 4.78125 L 7.519531 4.78125 L 6.84375 7.03125 Z M 11.53125 7.03125 "/>
    <path style=" stroke:none;fill-rule:nonzero;fill:rgb(0%,0%,0%);fill-opacity:1;" d="M 11.21875 2.683594 L 11.742188 3.726562 L 12.78125 4.25 C 12.921875 4.316406 12.976562 4.488281 12.90625 4.625 C 12.878906 4.679688 12.835938 4.722656 12.78125 4.75 L 11.742188 5.273438 L 11.21875 6.3125 C 11.152344 6.449219 10.980469 6.507812 10.84375 6.4375 C 10.789062 6.410156 10.746094 6.363281 10.71875 6.3125 L 10.195312 5.273438 L 9.15625 4.75 C 9.015625 4.679688 8.960938 4.511719 9.03125 4.371094 C 9.058594 4.316406 9.105469 4.273438 9.15625 4.25 L 10.195312 3.726562 L 10.71875 2.683594 C 10.789062 2.546875 10.957031 2.492188 11.09375 2.5625 C 11.152344 2.589844 11.191406 2.632812 11.21875 2.683594 Z M 11.285156 4.058594 L 10.96875 3.433594 L 10.652344 4.058594 C 10.628906 4.113281 10.585938 4.15625 10.53125 4.183594 L 9.90625 4.5 L 10.53125 4.8125 C 10.582031 4.839844 10.625 4.882812 10.652344 4.9375 L 10.96875 5.5625 L 11.285156 4.9375 C 11.308594 4.886719 11.351562 4.84375 11.40625 4.8125 L 12.03125 4.5 L 11.410156 4.183594 C 11.355469 4.15625 11.3125 4.117188 11.285156 4.058594 Z M 11.285156 4.058594 "/>
  </g>
</svg>