<?xml version="1.0" encoding="utf-8"?>
<!-- Generator: Adobe Illustrator 15.1.0, SVG Export Plug-In . SVG Version: 6.00 Build 0)  -->
<!DOCTYPE svg PUBLIC "-//W3C//DTD SVG 1.1//EN" "http://www.w3.org/Graphics/SVG/1.1/DTD/svg11.dtd">
<svg version="1.1" id="Layer_1" xmlns="http://www.w3.org/2000/svg" xmlns:xlink="http://www.w3.org/1999/xlink" x="0px" y="0px"
	 width="24px" height="24px" viewBox="0 0 24 24" enable-background="new 0 0 24 24" xml:space="preserve">
<path d="M14.35,13.245c-0.219,0-0.383,0.16-0.461,0.256c-0.174,0.215-0.275,0.524-0.275,0.847c0,0.323,0.102,0.633,0.275,0.848
	c0.078,0.096,0.242,0.256,0.461,0.256s0.381-0.16,0.461-0.256c0.174-0.215,0.273-0.524,0.273-0.848c0-0.322-0.1-0.632-0.273-0.847
	C14.732,13.405,14.568,13.245,14.35,13.245z M9.652,10.754c0.219,0,0.383-0.161,0.461-0.257c0.174-0.215,0.275-0.524,0.275-0.846
	c0-0.323-0.101-0.632-0.275-0.846c-0.078-0.097-0.242-0.258-0.461-0.258c-0.219,0-0.383,0.161-0.461,0.258
	C9.016,9.019,8.916,9.328,8.916,9.651c0,0.322,0.101,0.631,0.275,0.846C9.269,10.593,9.433,10.754,9.652,10.754z M21.322,11.502
	L18.98,9.731l0.855-2.811c0.057-0.187,0.021-0.39-0.094-0.547c-0.113-0.158-0.297-0.253-0.492-0.257l-2.938-0.054l-0.957-2.777
	c-0.064-0.185-0.211-0.33-0.396-0.39c-0.188-0.061-0.391-0.029-0.551,0.083L12,4.661L9.593,2.977
	c-0.16-0.111-0.365-0.143-0.55-0.082C8.856,2.955,8.709,3.1,8.646,3.285L7.688,6.062L4.751,6.116
	C4.555,6.12,4.373,6.215,4.258,6.373C4.143,6.53,4.108,6.734,4.166,6.92l0.855,2.811l-2.343,1.771
	C2.521,11.62,2.43,11.804,2.43,11.999s0.092,0.38,0.248,0.498l2.343,1.771l-0.855,2.811c-0.057,0.187-0.022,0.39,0.092,0.548
	c0.115,0.158,0.298,0.253,0.493,0.256l2.937,0.055l0.958,2.778c0.064,0.185,0.21,0.329,0.396,0.39
	c0.186,0.061,0.39,0.028,0.55-0.083L12,19.337l2.408,1.685c0.105,0.073,0.23,0.113,0.357,0.113c0.064,0,0.129-0.012,0.193-0.03
	c0.186-0.061,0.332-0.205,0.396-0.39l0.957-2.778l2.938-0.055c0.195-0.003,0.379-0.098,0.492-0.256
	c0.115-0.158,0.15-0.361,0.094-0.548l-0.855-2.811l2.342-1.771c0.156-0.118,0.248-0.303,0.248-0.498S21.479,11.62,21.322,11.502z
	 M9.652,7.681c0.884,0,1.601,0.882,1.601,1.97c0,1.087-0.717,1.969-1.601,1.969c-0.884,0-1.602-0.882-1.602-1.969
	C8.049,8.563,8.768,7.681,9.652,7.681z M9.549,16.326c-0.1,0.139-0.262,0.222-0.433,0.222c-0.112,0-0.221-0.033-0.312-0.1
	c-0.238-0.172-0.293-0.507-0.122-0.746l5.769-8.03c0.1-0.139,0.262-0.223,0.434-0.223c0.113,0,0.221,0.035,0.311,0.101
	c0.24,0.171,0.295,0.506,0.123,0.745L9.549,16.326z M14.35,16.318c-0.885,0-1.602-0.882-1.602-1.971
	c0-1.088,0.717-1.969,1.602-1.969s1.602,0.881,1.602,1.969C15.951,15.437,15.234,16.318,14.35,16.318z"/>
</svg>
