<?xml version="1.0" encoding="utf-8"?>
<!-- Generator: Adobe Illustrator 15.1.0, SVG Export Plug-In . SVG Version: 6.00 Build 0)  -->
<!DOCTYPE svg PUBLIC "-//W3C//DTD SVG 1.1//EN" "http://www.w3.org/Graphics/SVG/1.1/DTD/svg11.dtd">
<svg version="1.1"
	 id="svg3175" xmlns:svg="http://www.w3.org/2000/svg" xmlns:inkscape="http://www.inkscape.org/namespaces/inkscape" xmlns:sodipodi="http://sodipodi.sourceforge.net/DTD/sodipodi-0.dtd" xmlns:rdf="http://www.w3.org/1999/02/22-rdf-syntax-ns#" xmlns:dc="http://purl.org/dc/elements/1.1/" xmlns:cc="http://creativecommons.org/ns#" inkscape:version="0.48.5 r10040" sodipodi:docname="office.svg"
	 xmlns="http://www.w3.org/2000/svg" xmlns:xlink="http://www.w3.org/1999/xlink" x="0px" y="0px" width="24px" height="24px"
	 viewBox="0 0 24 24" enable-background="new 0 0 24 24" xml:space="preserve">
<path d="M21.301,21.291c0.158,0,0.283,0.149,0.283,0.336c0,0.186-0.125,0.336-0.283,0.336H2.697c-0.155,0-0.282-0.15-0.282-0.336
	s0.126-0.336,0.282-0.336 M2.697,21.291h9.302V2.688H2.697V21.291z M8.511,5.013h2.326v2.326H8.511V5.013z M8.511,9.664h2.326v2.327
	H8.511V9.664z M8.511,14.314h2.326v2.326H8.511V14.314z M3.86,5.013h2.325v2.326H3.86V5.013z M3.86,9.664h2.325v2.327H3.86V9.664z
	 M3.86,14.314h2.325v2.326H3.86V14.314z M13.162,8.702h8.139v1.705h-8.139V8.702z M13.162,21.291h2.325v-4.65h3.489v4.65h2.324
	V10.827h-8.139V21.291z"/>
</svg>
