<?xml version="1.0" encoding="utf-8"?>
<!-- Generator: Adobe Illustrator 15.1.0, SVG Export Plug-In . SVG Version: 6.00 Build 0)  -->
<!DOCTYPE svg PUBLIC "-//W3C//DTD SVG 1.1//EN" "http://www.w3.org/Graphics/SVG/1.1/DTD/svg11.dtd">
<svg version="1.1" id="Layer_1" xmlns="http://www.w3.org/2000/svg" xmlns:xlink="http://www.w3.org/1999/xlink" x="0px" y="0px"
	 width="24px" height="24px" viewBox="0 0 24 24" enable-background="new 0 0 24 24" xml:space="preserve">
<path d="M21.521,21.511V9.268h-9.521v-8.16h-9.52v20.403H2.48v1.358l19.04,0.023v-1.36V21.511z M3.839,2.468h2.72v2.72h-2.72V2.468z
	 M3.839,6.549h2.72v2.719h-2.72V6.549z M3.839,10.629h2.72v2.719h-2.72V10.629z M3.839,14.709h2.72v2.72h-2.72V14.709z M9.28,22.358
	H5.199V18.79H9.28V22.358L9.28,22.358z M10.639,17.429H7.92v-2.72h2.719V17.429L10.639,17.429z M10.639,13.348H7.92v-2.719h2.719
	V13.348L10.639,13.348z M10.639,9.268H7.92V6.549h2.719V9.268L10.639,9.268z M10.639,5.188H7.92v-2.72h2.719V5.188L10.639,5.188z
	 M13.36,10.629h2.72v2.719h-2.72V10.629L13.36,10.629z M13.36,14.709h2.72v2.72h-2.72V14.709L13.36,14.709z M18.8,22.386h-4.08
	V18.79h4.08V22.386z M20.16,17.429h-2.72v-2.72h2.72V17.429z M20.16,13.348h-2.72v-2.719h2.72V13.348z"/>
</svg>
