<?xml version="1.0" encoding="utf-8"?>
<!-- Generator: Adobe Illustrator 15.1.0, SVG Export Plug-In . SVG Version: 6.00 Build 0)  -->
<!DOCTYPE svg PUBLIC "-//W3C//DTD SVG 1.1//EN" "http://www.w3.org/Graphics/SVG/1.1/DTD/svg11.dtd">
<svg version="1.1" id="Layer_1" xmlns="http://www.w3.org/2000/svg" xmlns:xlink="http://www.w3.org/1999/xlink" x="0px" y="0px"
	 width="24px" height="24px" viewBox="0 0 24 24" enable-background="new 0 0 24 24" xml:space="preserve">
<path d="M15.603,5.039c0.003,0.049,0.004,0.098,0.008,0.146c0.119,1.386,0.987,2.558,2.197,3.113c0.044,0.02,0.088,0.042,0.133,0.06
	c0.044,0.018,0.089,0.032,0.133,0.049c0.131,0.048,0.265,0.089,0.401,0.124l0.086-1.855l-1.834-2.783l1.944,1.068l0.234-2.73h0.732
	l0.129,3.89l2.12-0.63l-2.003,2.543L19.925,8.6c1.829-0.266,3.24-1.84,3.24-3.742c0-2.088-1.698-3.786-3.785-3.786
	c-2.088,0-3.786,1.698-3.786,3.786c0,0.012,0.002,0.023,0.002,0.035C15.596,4.943,15.601,4.991,15.603,5.039z M18.701,8.423
	l-0.006,0.122l-0.109,2.356l-0.008,0.186l-0.004,0.063l-0.077,1.691c0.381,0.268,0.618,0.611,0.729,0.797
	c0.117-0.08,0.324-0.197,0.619-0.299l-0.156-2.196l-0.005-0.064l-0.014-0.185l-0.164-2.313l-0.009-0.121l-0.009-0.121l-0.043-0.597
	l1.332-1.691l-1.418,0.421L19.245,3h-0.182l-0.217,2.53l-1.164-0.638l1.104,1.674l-0.081,1.735L18.701,8.423z M15.58,7.802
	c-0.088-0.141-0.362-0.264-0.528-0.264h-4.689c-0.167,0-0.172,0.125-0.09,0.269l8.29,14.396c0.083,0.145,0.278,0.154,0.437,0.105
	l4.521-1.43c0.16-0.049,0.217-0.236,0.129-0.377L15.58,7.802z M4.34,22.207l4-8.539v8.262c0,0.738,0.784,0.695,0.95,0.695h7.796
	c0.166,0,0.233-0.268,0.151-0.412L9.184,7.937c-0.082-0.144-0.215-0.144-0.298,0l-2.017,3.542c-0.083,0.144-0.267,0.327-0.412,0.407
	c-2.041,1.131-4.792,2.643-6.011,3.178c-0.183,0.08-0.172,0.311-0.03,0.451c0.271,0.266,0.848,0.871,1.38,1.602
	c0.309,0.424,0.58,0.898,0.802,1.369c0.071,0.15,0.058,0.391-0.025,0.535l-1.732,3.191c-0.082,0.145-0.014,0.412,0.153,0.412h2.909
	C4.069,22.625,4.265,22.355,4.34,22.207z M2.014,15.629c-0.075-0.066-0.066-0.154,0.022-0.201c0.858-0.449,4.919-2.58,6.048-3.271
	c0.085-0.053,0.116-0.024,0.071,0.064l-3.849,7.564c-0.045,0.09-0.097,0.082-0.119-0.016C4.043,19.129,3.455,16.902,2.014,15.629z
	 M1.362,3.693c0.001,0.037,0.002,0.074,0.005,0.11c0.09,1.047,0.746,1.932,1.66,2.352c0.033,0.016,0.066,0.032,0.1,0.046
	C3.16,6.214,3.195,6.225,3.228,6.237c0.099,0.037,0.2,0.067,0.304,0.093l0.064-1.401L2.211,2.827L3.68,3.634l0.177-2.062H4.41
	L4.507,4.51l1.602-0.476L4.596,5.955l0.031,0.428c1.382-0.201,2.448-1.39,2.448-2.827c0-1.577-1.283-2.86-2.859-2.86
	s-2.86,1.283-2.86,2.86c0,0.009,0.001,0.018,0.001,0.026C1.357,3.62,1.36,3.656,1.362,3.693z M3.786,6.26L3.782,6.347L3.704,8.032
	L3.698,8.164L3.696,8.208L3.64,9.417c0.272,0.192,0.443,0.438,0.521,0.57C4.245,9.93,4.394,9.846,4.604,9.773l-0.112-1.57
	L4.489,8.158L4.479,8.026L4.362,6.373L4.355,6.286L4.349,6.199l-0.03-0.427l0.952-1.208L4.257,4.864L4.175,2.382H4.046l-0.155,1.81
	L3.059,3.735l0.789,1.197L3.79,6.172L3.786,6.26z"/>
</svg>
