<?xml version="1.0" encoding="utf-8"?>
<!-- Generator: Adobe Illustrator 15.1.0, SVG Export Plug-In . SVG Version: 6.00 Build 0)  -->
<!DOCTYPE svg PUBLIC "-//W3C//DTD SVG 1.1//EN" "http://www.w3.org/Graphics/SVG/1.1/DTD/svg11.dtd">
<svg version="1.1"
	 id="Layer_1" inkscape:version="0.48.5 r10040" sodipodi:docname="bank-kar-afarin.svg" xmlns:dc="http://purl.org/dc/elements/1.1/" xmlns:cc="http://creativecommons.org/ns#" xmlns:rdf="http://www.w3.org/1999/02/22-rdf-syntax-ns#" xmlns:svg="http://www.w3.org/2000/svg" xmlns:sodipodi="http://sodipodi.sourceforge.net/DTD/sodipodi-0.dtd" xmlns:inkscape="http://www.inkscape.org/namespaces/inkscape"
	 xmlns="http://www.w3.org/2000/svg" xmlns:xlink="http://www.w3.org/1999/xlink" x="0px" y="0px" width="24px" height="24px"
	 viewBox="0 0 24 24" enable-background="new 0 0 24 24" xml:space="preserve">
<path d="M3.315,8.834C3.446,9.254,3.884,9.534,4.324,9.47l0.83-0.124l-0.708,7.951c-0.021,0.23,0.051,0.451,0.202,0.622
	c0.15,0.172,0.371,0.274,0.605,0.283c1.129,0.042,3.784,0.423,4.054,3.043c0.046,0.452,0.432,0.807,0.879,0.807h2.678
	c0.451,0,0.83-0.346,0.879-0.806c0.27-2.621,2.924-3.002,4.053-3.044c0.234-0.008,0.453-0.111,0.605-0.283
	c0.15-0.171,0.223-0.392,0.201-0.622l-0.709-7.948l0.83,0.121c0.043,0.006,0.084,0.009,0.127,0.009c0.4,0,0.764-0.265,0.881-0.645
	l1.213-3.903c0.137-0.445-0.107-0.929-0.549-1.08L14.98,1.994c-0.088-0.031-0.18-0.046-0.271-0.046c-0.375,0-0.693,0.253-0.789,0.63
	c-0.359,1.397-1.468,1.695-2.098,1.749c-0.165,0.014-0.435,0.014-0.599,0c-0.63-0.053-1.739-0.352-2.097-1.749
	c-0.096-0.377-0.414-0.63-0.79-0.63c-0.092,0-0.183,0.015-0.271,0.046L2.651,3.851c-0.44,0.151-0.686,0.636-0.548,1.08L3.315,8.834z
	 M8.188,3.041c0.595,1.907,2.247,2.253,2.949,2.313c0.213,0.018,0.56,0.018,0.773,0c0.7-0.059,2.354-0.405,2.948-2.313l5.055,1.734
	l-1.139,3.661l-1.037-0.152c-0.279-0.041-0.527,0.05-0.699,0.24c-0.148,0.162-0.219,0.379-0.197,0.608l0.717,8.051
	c-1.258,0.082-4.42,0.614-4.828,3.839h-2.412c-0.406-3.225-3.57-3.757-4.828-3.84l0.718-8.051c0.021-0.229-0.05-0.446-0.199-0.608
	C5.835,8.333,5.589,8.241,5.31,8.283L4.271,8.436L3.133,4.774L8.188,3.041z M8.618,10.779c0,1.396,1.302,2.526,2.909,2.526
	c1.608,0,2.909-1.131,2.909-2.526c0-0.361-0.088-0.703-0.244-1.014c0.266-0.238,0.434-0.583,0.434-0.966
	c0-0.718-0.584-1.301-1.301-1.301c-0.543,0-1.009,0.334-1.204,0.808c-0.191-0.035-0.391-0.053-0.594-0.053
	c-0.206,0-0.407,0.019-0.602,0.054c-0.195-0.474-0.659-0.809-1.203-0.809c-0.718,0-1.3,0.583-1.3,1.301
	c0,0.386,0.17,0.733,0.438,0.971C8.704,10.08,8.618,10.421,8.618,10.779z"/>
</svg>
