<?xml version="1.0" encoding="utf-8"?>
<!-- Generator: Adobe Illustrator 15.1.0, SVG Export Plug-In . SVG Version: 6.00 Build 0)  -->
<!DOCTYPE svg PUBLIC "-//W3C//DTD SVG 1.1//EN" "http://www.w3.org/Graphics/SVG/1.1/DTD/svg11.dtd">
<svg version="1.1"
	 id="Layer_1" inkscape:version="0.48.5 r10040" sodipodi:docname="bank-kar-afarin.svg" xmlns:dc="http://purl.org/dc/elements/1.1/" xmlns:cc="http://creativecommons.org/ns#" xmlns:rdf="http://www.w3.org/1999/02/22-rdf-syntax-ns#" xmlns:svg="http://www.w3.org/2000/svg" xmlns:sodipodi="http://sodipodi.sourceforge.net/DTD/sodipodi-0.dtd" xmlns:inkscape="http://www.inkscape.org/namespaces/inkscape"
	 xmlns="http://www.w3.org/2000/svg" xmlns:xlink="http://www.w3.org/1999/xlink" x="0px" y="0px" width="24px" height="24px"
	 viewBox="0 0 24 24" enable-background="new 0 0 24 24" xml:space="preserve">
<path fill="#030104" d="M12.254,19.189c4.533-1.59,4.185-4.408,4.185-4.408C11.624,14.781,12.254,19.189,12.254,19.189z
	 M4.992,16.77c-0.321,0.031-1.612,0.578-0.924,2.211c0.587,1.338,1.527,2.08,3.023,1.943C6.833,17.877,5.313,16.828,4.992,16.77z
	 M19.757,4.709c0.157-0.595,0.286-1.154,0.373-1.648h-6.349v0.001c0,0-0.093,0.667-0.262,1.647H19.757z M13.347,5.675
	c-0.454,2.421-1.235,5.821-2.221,7.043c-1.329,1.811-5.472,3.557-5.472,3.557c2.521,1.799,2.137,4.51,2.137,4.51l3.582-1.355
	c0,0-0.705-5.42,5.122-5.42c0,0,1.894-4.589,2.99-8.333L13.347,5.675L13.347,5.675z"/>
</svg>
