<?xml version="1.0" encoding="utf-8"?>
<!-- Generator: Adobe Illustrator 15.1.0, SVG Export Plug-In . SVG Version: 6.00 Build 0)  -->
<!DOCTYPE svg PUBLIC "-//W3C//DTD SVG 1.1//EN" "http://www.w3.org/Graphics/SVG/1.1/DTD/svg11.dtd">
<svg version="1.1"
	 id="Layer_1" inkscape:version="0.48.5 r10040" sodipodi:docname="bank-kar-afarin.svg" xmlns:dc="http://purl.org/dc/elements/1.1/" xmlns:cc="http://creativecommons.org/ns#" xmlns:rdf="http://www.w3.org/1999/02/22-rdf-syntax-ns#" xmlns:svg="http://www.w3.org/2000/svg" xmlns:sodipodi="http://sodipodi.sourceforge.net/DTD/sodipodi-0.dtd" xmlns:inkscape="http://www.inkscape.org/namespaces/inkscape"
	 xmlns="http://www.w3.org/2000/svg" xmlns:xlink="http://www.w3.org/1999/xlink" x="0px" y="0px" width="24px" height="24px"
	 viewBox="0 0 24 24" enable-background="new 0 0 24 24" xml:space="preserve">
<path d="M20.188,14.128c-0.049-0.146-1.242-3.57-2.891-4.439c-0.1-0.052-0.201-0.105-0.307-0.159
	c0.494-1.661,0.652-3.049,0.328-4.253c-0.316-1.175-1.4-2.047-2.469-1.983C13.91,3.347,13.242,4.1,13.064,5.306
	c-0.055,0.379-0.052,0.723-0.011,1.044c-0.22,0.307-0.37,0.574-0.415,0.656L4.355,20.198c-0.063,0.1-0.142,0.225-0.061,0.373
	l0.078,0.141h0.159c0.14,0,0.215-0.096,0.287-0.185l9.529-11.959c0.607,0.516,1.336,0.905,1.992,1.238
	c-0.293,0.911-0.684,1.909-1.146,3.007c-1.268,3.016-0.676,5.507,0.217,6.075c0.045,0.03,0.094,0.042,0.145,0.042
	c0.09,0,0.176-0.043,0.229-0.125c0.08-0.125,0.041-0.292-0.084-0.371c-0.629-0.4-1.186-2.612-0.008-5.413
	c0.453-1.076,0.838-2.063,1.135-2.97c0.076,0.039,0.148,0.077,0.221,0.114c1.457,0.771,2.621,4.105,2.631,4.138
	c0.049,0.141,0.203,0.216,0.344,0.167C20.162,14.421,20.236,14.269,20.188,14.128z M13.303,8.375l-0.53,0.438l0.21-0.656
	c0.062-0.192,0.178-0.533,0.33-0.898c0.121,0.26,0.271,0.497,0.447,0.714C13.557,8.163,13.385,8.308,13.303,8.375z M14.152,7.595
	c-0.232-0.3-0.408-0.64-0.506-1.028c0.262-0.465,0.574-0.841,0.902-0.841c0.092,0,0.18,0.026,0.262,0.077
	c0.133,0.085,0.211,0.214,0.221,0.372C15.057,6.565,14.605,7.13,14.152,7.595z M16.502,9.283c-0.623-0.318-1.281-0.677-1.816-1.137
	c0.359-0.462,1.061-1.476,0.967-2.219c-0.033-0.26-0.162-0.475-0.369-0.622c-0.172-0.121-0.361-0.183-0.561-0.183
	c-0.418,0-0.818,0.275-1.156,0.617c0.004-0.115,0.014-0.232,0.031-0.354c0.141-0.949,0.609-1.516,1.283-1.555
	c0.025-0.001,0.051-0.002,0.074-0.002c0.709,0,1.57,0.578,1.844,1.588C17.088,6.492,16.947,7.759,16.502,9.283z"/>
</svg>
