<?xml version="1.0" encoding="utf-8"?>
<!-- Generator: Adobe Illustrator 15.1.0, SVG Export Plug-In . SVG Version: 6.00 Build 0)  -->
<!DOCTYPE svg PUBLIC "-//W3C//DTD SVG 1.1//EN" "http://www.w3.org/Graphics/SVG/1.1/DTD/svg11.dtd">
<svg version="1.1"
	 id="Layer_1" inkscape:version="0.48.5 r10040" sodipodi:docname="bank-kar-afarin.svg" xmlns:dc="http://purl.org/dc/elements/1.1/" xmlns:cc="http://creativecommons.org/ns#" xmlns:rdf="http://www.w3.org/1999/02/22-rdf-syntax-ns#" xmlns:svg="http://www.w3.org/2000/svg" xmlns:sodipodi="http://sodipodi.sourceforge.net/DTD/sodipodi-0.dtd" xmlns:inkscape="http://www.inkscape.org/namespaces/inkscape"
	 xmlns="http://www.w3.org/2000/svg" xmlns:xlink="http://www.w3.org/1999/xlink" x="0px" y="0px" width="24px" height="24px"
	 viewBox="0 0 24 24" enable-background="new 0 0 24 24" xml:space="preserve">
<path d="M10.965,15.209H5.212c-0.136,0-0.268-0.02-0.393-0.055v2.76c0,0.526,0.426,0.952,0.952,0.952h12.457
	c0.525,0,0.952-0.426,0.952-0.952v-2.76c-0.126,0.035-0.258,0.054-0.394,0.054h-5.753c0,0.008,0.001,0.016,0.001,0.023v0.621
	c0,0.287-0.232,0.52-0.52,0.52h-1.032c-0.286,0-0.519-0.232-0.519-0.52v-0.621C10.965,15.224,10.965,15.216,10.965,15.209z
	 M4.261,8.082v5.655c0,0.386,0.229,0.718,0.559,0.867c0.12,0.055,0.253,0.085,0.393,0.085h13.575c0.141,0,0.273-0.03,0.394-0.085
	c0.329-0.149,0.559-0.481,0.559-0.867V8.082c0-0.526-0.427-0.952-0.952-0.952h-3.379V6.87V6.61V6.173
	c0-0.572-0.465-1.038-1.038-1.038H9.629c-0.572,0-1.038,0.466-1.038,1.038V6.61v0.26v0.26H5.212C4.687,7.13,4.261,7.556,4.261,8.082
	z M9.629,6.87V6.61V6.173h4.741V6.61v0.26l0.001,0.26H9.629V6.87z"/>
</svg>
