<?xml version="1.0" encoding="utf-8"?>
<!-- Generator: Adobe Illustrator 15.1.0, SVG Export Plug-In . SVG Version: 6.00 Build 0)  -->
<!DOCTYPE svg PUBLIC "-//W3C//DTD SVG 1.1//EN" "http://www.w3.org/Graphics/SVG/1.1/DTD/svg11.dtd">
<svg version="1.1"
	 id="Layer_1" inkscape:version="0.48.5 r10040" sodipodi:docname="bank-kar-afarin.svg" xmlns:dc="http://purl.org/dc/elements/1.1/" xmlns:cc="http://creativecommons.org/ns#" xmlns:rdf="http://www.w3.org/1999/02/22-rdf-syntax-ns#" xmlns:svg="http://www.w3.org/2000/svg" xmlns:sodipodi="http://sodipodi.sourceforge.net/DTD/sodipodi-0.dtd" xmlns:inkscape="http://www.inkscape.org/namespaces/inkscape"
	 xmlns="http://www.w3.org/2000/svg" xmlns:xlink="http://www.w3.org/1999/xlink" x="0px" y="0px" width="24px" height="24px"
	 viewBox="0 0 24 24" enable-background="new 0 0 24 24" xml:space="preserve">
<path d="M11.087,17.945h-6.53c-0.154,0-0.303-0.015-0.445-0.044v2.218c0,0.424,0.483,0.766,1.082,0.766h14.139
	c0.598,0,1.082-0.342,1.082-0.766v-2.218c-0.144,0.029-0.293,0.044-0.448,0.044h-6.53c0,0.006,0.002,0.012,0.002,0.019v0.499
	c0,0.23-0.264,0.417-0.589,0.417h-1.173c-0.324,0-0.589-0.187-0.589-0.417v-0.499C11.087,17.957,11.087,17.951,11.087,17.945z
	 M3.478,12.218v4.544c0,0.311,0.259,0.577,0.634,0.697c0.137,0.044,0.288,0.068,0.445,0.068h15.409c0.158,0,0.312-0.024,0.448-0.068
	c0.371-0.12,0.633-0.387,0.633-0.697v-4.544c0-0.423-0.484-0.765-1.081-0.765H16.13v-0.209v-0.208v-0.352
	c0-0.46-0.526-0.834-1.178-0.834H9.571c-0.65,0-1.178,0.375-1.178,0.834v0.352v0.208v0.209H4.557
	C3.961,11.453,3.478,11.795,3.478,12.218z M9.571,11.244v-0.208v-0.352h5.381v0.352v0.208l0.002,0.209H9.571V11.244z M7.817,8.239
	c0,0,0.571-0.613,1.101-0.626c0.529-0.012,3.138,1.18,5.819,1c2.687-0.181,5.058-0.993,6.511-2.023c0,0,0.189-0.281,0.065-0.83
	l-0.119,0.005c-0.368,0.265-3.418,2.362-7.246,2.202c-0.273-0.013-0.546-0.036-0.815-0.071c-1.843-0.235-2.823-0.519-3.41-0.686
	C9.41,7.117,9.197,7.06,9.027,7.052C8.806,7.044,8.599,7.122,8.141,7.393L8.055,7.444L7.953,7.435l-4.37-0.484
	C3.491,7.228,3.41,7.631,3.572,7.898C3.842,8.342,7.817,8.239,7.817,8.239z M3.695,6.661l4.292,0.474
	C8.48,6.843,8.741,6.741,9.041,6.753c0.578,0.022,1.296,0.483,4.128,0.849c0.267,0.035,0.528,0.056,0.79,0.066
	c3.058,0.129,5.641-1.249,6.646-1.872c0.286-0.178,0.442-0.295,0.442-0.295s-0.657-0.828-2.418-0.902
	c-0.804-0.035-1.482-0.031-2.005-0.051c-0.626-0.026-1.024-0.089-1.137-0.295c-0.203-0.378-1.636-0.869-1.636-0.869
	c-0.409-1.014-2.36-1.22-3.293-1.258c-0.306-0.013-0.5-0.009-0.5-0.009l-0.042,1.012C9.268,3.672,8.416,3.83,7.615,3.793
	C6.01,3.728,4.6,2.902,4.6,2.902c-1.504,1.321-1.07,3.739-1.07,3.739L3.695,6.661z M11.008,4.155l0.67-1.039
	c0.049-0.075,0.123-0.126,0.207-0.143c0.085-0.02,0.173-0.003,0.245,0.045l0.426,0.276c0.052-0.049,0.126-0.062,0.186-0.021
	c0.06,0.039,0.08,0.113,0.056,0.177l0.428,0.275c0.151,0.098,0.196,0.3,0.097,0.452l-0.671,1.039
	c-0.05,0.074-0.122,0.125-0.208,0.142c-0.027,0.008-0.054,0.01-0.083,0.008c-0.057-0.002-0.113-0.02-0.162-0.051L12.28,5.19
	l0.081-0.126c0.009,0.006,0.029,0.003,0.037-0.009l0.672-1.042c0.007-0.011,0.005-0.027-0.009-0.036l-0.418-0.272l-0.29,0.444
	c-0.03,0.048-0.08,0.071-0.13,0.067c-0.027,0.001-0.054-0.007-0.078-0.021c-0.067-0.048-0.087-0.14-0.042-0.209l0.285-0.444
	L11.967,3.27l-0.035,0.006L11.256,4.32c-0.007,0.012-0.004,0.03,0.009,0.037l-0.08,0.125l-0.082,0.127
	C10.953,4.512,10.91,4.307,11.008,4.155z"/>
</svg>
