<?xml version="1.0" encoding="utf-8"?>
<!-- Generator: Adobe Illustrator 15.1.0, SVG Export Plug-In . SVG Version: 6.00 Build 0)  -->
<!DOCTYPE svg PUBLIC "-//W3C//DTD SVG 1.1//EN" "http://www.w3.org/Graphics/SVG/1.1/DTD/svg11.dtd">
<svg version="1.1"
	 id="Layer_1" inkscape:version="0.48.5 r10040" sodipodi:docname="bank-kar-afarin.svg" xmlns:dc="http://purl.org/dc/elements/1.1/" xmlns:cc="http://creativecommons.org/ns#" xmlns:rdf="http://www.w3.org/1999/02/22-rdf-syntax-ns#" xmlns:svg="http://www.w3.org/2000/svg" xmlns:sodipodi="http://sodipodi.sourceforge.net/DTD/sodipodi-0.dtd" xmlns:inkscape="http://www.inkscape.org/namespaces/inkscape"
	 xmlns="http://www.w3.org/2000/svg" xmlns:xlink="http://www.w3.org/1999/xlink" x="0px" y="0px" width="24px" height="24px"
	 viewBox="0 0 24 24" enable-background="new 0 0 24 24" xml:space="preserve">
<path d="M19.852,8.029c0.167,0,0.329-0.024,0.486-0.062C20.098,6.684,19.91,5.94,19.91,5.94c-0.46-0.464-1.136-0.843-1.826-1.14
	c-0.209,0.326-0.335,0.712-0.335,1.127C17.75,7.086,18.692,8.029,19.852,8.029z M4.127,7.967c0.156,0.037,0.318,0.062,0.485,0.062
	c1.159,0,2.102-0.943,2.102-2.102c0-0.416-0.125-0.8-0.333-1.127c-0.69,0.298-1.367,0.676-1.826,1.14
	C4.555,5.94,4.366,6.683,4.127,7.967z M19.852,8.554c-1.448,0-2.627-1.178-2.627-2.627c0-0.486,0.142-0.935,0.371-1.325
	c-1.155-0.439-2.218-0.651-2.218-0.651l-0.021-1.246c-0.945-0.542-1.961-0.667-2.644-0.698c-0.241-0.011-0.723-0.011-0.963,0
	c-0.683,0.033-1.7,0.156-2.644,0.698L9.085,3.952c0,0-1.062,0.212-2.218,0.651c0.23,0.391,0.372,0.839,0.372,1.324
	c0,1.449-1.179,2.627-2.627,2.627c-0.199,0-0.392-0.026-0.579-0.068c-0.461,2.632-1.031,7.045-0.822,11.991H3.45v0.13
	c0,0.292,0.253,0.525,0.565,0.525h1.323c0.312,0,0.565-0.233,0.565-0.525v-0.13h0.245c0,0-0.252-7.766,1.091-9.755v7.274v0.654
	v1.753c0,0,2.518,0.693,4.615,0.784V3.228c0,0-1.175,0.068-1.867-0.203c0,0,0.147-0.493,1.762-0.475
	c0.241,0.002,0.722-0.004,0.963,0c1.601,0.025,1.763,0.475,1.763,0.475c-0.691,0.271-1.867,0.203-1.867,0.203v17.96
	c2.099-0.091,4.616-0.784,4.616-0.784v-1.753v-0.654v-7.275c1.342,1.99,1.091,9.755,1.091,9.755h0.243v0.13
	c0,0.291,0.252,0.525,0.564,0.525h1.324c0.313,0,0.565-0.234,0.565-0.525v-0.13h0.239c0.207-4.947-0.362-9.361-0.821-11.992
	C20.244,8.527,20.051,8.554,19.852,8.554z"/>
</svg>
