<?xml version="1.0" encoding="utf-8"?>
<!-- Generator: Adobe Illustrator 15.1.0, SVG Export Plug-In . SVG Version: 6.00 Build 0)  -->
<!DOCTYPE svg PUBLIC "-//W3C//DTD SVG 1.1//EN" "http://www.w3.org/Graphics/SVG/1.1/DTD/svg11.dtd">
<svg version="1.1"
	 id="Layer_1" inkscape:version="0.48.5 r10040" sodipodi:docname="bank-kar-afarin.svg" xmlns:dc="http://purl.org/dc/elements/1.1/" xmlns:cc="http://creativecommons.org/ns#" xmlns:rdf="http://www.w3.org/1999/02/22-rdf-syntax-ns#" xmlns:svg="http://www.w3.org/2000/svg" xmlns:sodipodi="http://sodipodi.sourceforge.net/DTD/sodipodi-0.dtd" xmlns:inkscape="http://www.inkscape.org/namespaces/inkscape"
	 xmlns="http://www.w3.org/2000/svg" xmlns:xlink="http://www.w3.org/1999/xlink" x="0px" y="0px" width="24px" height="24px"
	 viewBox="0 0 24 24" enable-background="new 0 0 24 24" xml:space="preserve">
<path d="M11.146,12.143h0.92v0.085h-0.92V12.143z M10.57,11.489c0-0.096-0.078-0.174-0.174-0.174c-0.096,0-0.174,0.077-0.174,0.174
	c0,0.097,0.078,0.174,0.174,0.174C10.492,11.664,10.57,11.586,10.57,11.489z M15.878,14.027c-0.232-0.672-0.451-1.308-0.6-1.886
	h-2.776v-1.306h2.646c0.06-1.659,0.824-5.958,0.837-6.046L15.979,2.28c0-0.067-0.027-0.13-0.074-0.177
	C15.859,2.056,15.8,2.025,15.729,2.03l-1.214,0.002c-0.138,0-0.251,0.113-0.251,0.251l0.006,2.406
	c-0.925,0.214-1.839,0.323-2.722,0.323c-1.093,0-1.856-0.17-2.173-0.256L9.329,2.194C9.327,2.059,9.214,1.948,9.078,1.948l0,0
	L7.909,1.951c-0.136,0-0.247,0.108-0.25,0.243c-0.002,0.082-0.06,2.017,0.006,2.685C7.73,5.543,7.902,6.461,8.085,7.434
	c0.231,1.235,0.468,2.504,0.521,3.403h2.256v-0.229c0-0.077,0.064-0.142,0.142-0.142h1.204c0.067,0,0.123,0.047,0.136,0.11v1.826
	c-0.014,0.063-0.07,0.109-0.136,0.109h-1.204c-0.078,0-0.142-0.063-0.142-0.14v-0.229H8.487c-0.707,1.964-2.079,8.026-2.138,8.284
	C6.328,20.52,6.363,20.62,6.44,20.681c0.077,0.06,0.182,0.067,0.269,0.024c0.277-0.143,0.606-0.214,0.979-0.214
	c1.177,0,2.402,0.711,2.404,0.711c0.779,0.55,1.698,0.826,2.731,0.826c2.244,0,4.254-1.301,4.338-1.356
	c0.072-0.047,0.115-0.13,0.113-0.218C17.201,17.856,16.468,15.733,15.878,14.027z M11.979,11.489c0-0.096-0.079-0.174-0.173-0.174
	c-0.096,0-0.174,0.077-0.174,0.174c0,0.097,0.079,0.174,0.174,0.174C11.901,11.664,11.979,11.586,11.979,11.489z M10.928,11.489
	c0,0.096,0.077,0.174,0.173,0.174c0.096,0,0.173-0.077,0.173-0.174c0-0.097-0.077-0.174-0.173-0.174
	C11.005,11.315,10.928,11.394,10.928,11.489z M12.066,10.75h-0.92v0.086h0.92V10.75z"/>
</svg>
