<?xml version="1.0" encoding="UTF-8" standalone="yes"?>
<svg xmlns="http://www.w3.org/2000/svg" xmlns:xlink="http://www.w3.org/1999/xlink" width="24px" height="24px" viewBox="0 0 18 18" version="1.1">
  <g id="surface1">
    <path style=" stroke:none;fill-rule:nonzero;fill:rgb(0%,0%,0%);fill-opacity:1;" d="M 15.605469 4.121094 L 9.675781 8.917969 C 9.359375 9.175781 8.839844 9.175781 8.523438 8.917969 L 2.59375 4.121094 C 2.390625 3.957031 2.03125 4.097656 2.03125 4.394531 L 2.03125 12.765625 C 2.03125 13.171875 2.363281 13.507812 2.773438 13.507812 L 15.453125 13.507812 C 15.859375 13.507812 16.191406 13.171875 16.191406 12.765625 L 16.191406 4.394531 C 16.191406 4.0625 15.84375 3.929688 15.605469 4.121094 Z M 3.535156 4.121094 L 8.539062 8.167969 C 8.855469 8.421875 9.375 8.421875 9.691406 8.167969 L 14.695312 4.121094 C 15.011719 3.867188 14.9375 3.65625 14.53125 3.65625 L 3.699219 3.65625 C 3.289062 3.65625 3.21875 3.867188 3.535156 4.121094 Z M 3.535156 4.121094 "/>
  </g>
</svg>