<?xml version="1.0" encoding="UTF-8" standalone="yes"?>
<svg xmlns="http://www.w3.org/2000/svg" xmlns:xlink="http://www.w3.org/1999/xlink" width="24px" height="24px" viewBox="0 0 18 18" version="1.1">
  <g id="surface1">
    <path style=" stroke:none;fill-rule:nonzero;fill:rgb(0%,0%,0%);fill-opacity:1;" d="M 17.792969 6.058594 C 17.683594 5.898438 17.195312 5.238281 14.976562 2.578125 C 14.53125 2.042969 13.863281 1.726562 13.195312 1.726562 C 12.652344 1.726562 12.160156 1.925781 11.769531 2.308594 C 10.828125 3.234375 9.949219 3.683594 9.089844 3.683594 C 8.222656 3.683594 7.28125 3.230469 6.21875 2.296875 C 5.808594 1.941406 5.3125 1.753906 4.777344 1.753906 C 4.101562 1.753906 3.460938 2.054688 3.027344 2.578125 C 0.804688 5.238281 0.316406 5.898438 0.210938 6.058594 C -0.0664062 6.363281 -0.0703125 6.847656 0.207031 7.152344 L 1.9375 9.105469 C 2.082031 9.261719 2.28125 9.355469 2.488281 9.355469 C 2.6875 9.355469 2.875 9.273438 3.015625 9.128906 C 3.015625 9.128906 3.371094 8.839844 3.371094 9.386719 C 3.371094 10.957031 3.371094 15.664062 3.371094 15.664062 C 3.371094 16.109375 3.726562 16.273438 3.953125 16.273438 L 14.058594 16.273438 C 14.289062 16.273438 14.628906 16.09375 14.628906 15.601562 C 14.628906 15.601562 14.628906 10.898438 14.628906 9.332031 C 14.628906 8.800781 14.984375 9.128906 14.984375 9.128906 C 15.125 9.273438 15.3125 9.355469 15.511719 9.355469 C 15.71875 9.355469 15.917969 9.261719 16.066406 9.105469 L 17.792969 7.15625 C 18.070312 6.847656 18.066406 6.363281 17.792969 6.058594 Z M 12.582031 8.808594 L 11.972656 8.808594 C 11.972656 8.808594 11.835938 8.8125 11.835938 8.917969 C 11.835938 9.074219 11.835938 9.550781 11.835938 9.550781 C 11.835938 9.847656 11.597656 10.089844 11.296875 10.089844 C 11 10.089844 10.757812 9.847656 10.757812 9.550781 C 10.757812 9.550781 10.757812 9.082031 10.757812 8.925781 C 10.757812 8.796875 10.640625 8.808594 10.640625 8.808594 L 10.015625 8.808594 C 9.71875 8.808594 9.476562 8.566406 9.476562 8.269531 C 9.476562 7.972656 9.71875 7.730469 10.015625 7.730469 L 10.625 7.730469 C 10.625 7.730469 10.757812 7.738281 10.757812 7.605469 C 10.757812 7.453125 10.757812 6.988281 10.757812 6.988281 C 10.757812 6.691406 11 6.449219 11.296875 6.449219 C 11.597656 6.449219 11.835938 6.691406 11.835938 6.988281 C 11.835938 6.988281 11.835938 7.484375 11.835938 7.648438 C 11.835938 7.738281 11.953125 7.730469 11.953125 7.730469 L 12.582031 7.730469 C 12.878906 7.730469 13.121094 7.972656 13.121094 8.269531 C 13.121094 8.566406 12.878906 8.808594 12.582031 8.808594 Z M 12.582031 8.808594 "/>
  </g>
</svg>