<?xml version="1.0" encoding="UTF-8" standalone="yes"?>
<svg xmlns="http://www.w3.org/2000/svg" xmlns:xlink="http://www.w3.org/1999/xlink" width="24px" height="24px" viewBox="0 0 18 18" version="1.1">
  <g id="surface1">
    <path style=" stroke:none;fill-rule:nonzero;fill:rgb(0%,0%,0%);fill-opacity:1;" d="M 0.308594 2.945312 L 13.335938 2.945312 L 13.335938 2.015625 L 1.550781 2.015625 Z M 0.308594 2.945312 "/>
    <path style=" stroke:none;fill-rule:nonzero;fill:rgb(0%,0%,0%);fill-opacity:1;" d="M 14.265625 2.015625 L 14.265625 2.945312 L 17.367188 2.945312 L 16.128906 2.015625 Z M 14.265625 2.015625 "/>
    <path style=" stroke:none;fill-rule:nonzero;fill:rgb(0%,0%,0%);fill-opacity:1;" d="M 13.335938 4.1875 L 13.335938 3.257812 L 1.550781 3.257812 L 0.308594 4.1875 Z M 13.335938 4.1875 "/>
    <path style=" stroke:none;fill-rule:nonzero;fill:rgb(0%,0%,0%);fill-opacity:1;" d="M 14.265625 3.257812 L 14.265625 4.1875 L 17.367188 4.1875 L 16.128906 3.257812 Z M 14.265625 3.257812 "/>
    <path style=" stroke:none;fill-rule:nonzero;fill:rgb(0%,0%,0%);fill-opacity:1;" d="M 13.335938 5.425781 L 13.335938 4.496094 L 1.550781 4.496094 L 0.308594 5.425781 Z M 13.335938 5.425781 "/>
    <path style=" stroke:none;fill-rule:nonzero;fill:rgb(0%,0%,0%);fill-opacity:1;" d="M 14.265625 4.496094 L 14.265625 5.425781 L 17.367188 5.425781 L 16.128906 4.496094 Z M 14.265625 4.496094 "/>
    <path style=" stroke:none;fill-rule:nonzero;fill:rgb(0%,0%,0%);fill-opacity:1;" d="M 14.265625 5.738281 L 14.265625 6.667969 L 17.367188 6.667969 L 16.128906 5.738281 Z M 14.265625 5.738281 "/>
    <path style=" stroke:none;fill-rule:nonzero;fill:rgb(0%,0%,0%);fill-opacity:1;" d="M 13.335938 6.667969 L 13.335938 5.738281 L 1.550781 5.738281 L 0.308594 6.667969 Z M 13.335938 6.667969 "/>
    <path style=" stroke:none;fill-rule:nonzero;fill:rgb(0%,0%,0%);fill-opacity:1;" d="M 13.335938 7.910156 L 13.335938 6.976562 L 1.550781 6.976562 L 0.308594 7.910156 Z M 13.335938 7.910156 "/>
    <path style=" stroke:none;fill-rule:nonzero;fill:rgb(0%,0%,0%);fill-opacity:1;" d="M 14.265625 6.976562 L 14.265625 7.910156 L 17.367188 7.910156 L 16.128906 6.976562 Z M 14.265625 6.976562 "/>
    <path style=" stroke:none;fill-rule:nonzero;fill:rgb(0%,0%,0%);fill-opacity:1;" d="M 13.335938 9.148438 L 13.335938 8.21875 L 1.550781 8.21875 L 0.308594 9.148438 Z M 13.335938 9.148438 "/>
    <path style=" stroke:none;fill-rule:nonzero;fill:rgb(0%,0%,0%);fill-opacity:1;" d="M 14.265625 8.21875 L 14.265625 9.148438 L 17.367188 9.148438 L 16.128906 8.21875 Z M 14.265625 8.21875 "/>
    <path style=" stroke:none;fill-rule:nonzero;fill:rgb(0%,0%,0%);fill-opacity:1;" d="M 13.335938 10.390625 L 13.335938 9.460938 L 1.550781 9.460938 L 0.308594 10.390625 Z M 13.335938 10.390625 "/>
    <path style=" stroke:none;fill-rule:nonzero;fill:rgb(0%,0%,0%);fill-opacity:1;" d="M 14.265625 9.460938 L 14.265625 10.390625 L 17.367188 10.390625 L 16.128906 9.460938 Z M 14.265625 9.460938 "/>
    <path style=" stroke:none;fill-rule:nonzero;fill:rgb(0%,0%,0%);fill-opacity:1;" d="M 13.335938 11.628906 L 13.335938 10.699219 L 1.550781 10.699219 L 0.308594 11.628906 Z M 13.335938 11.628906 "/>
    <path style=" stroke:none;fill-rule:nonzero;fill:rgb(0%,0%,0%);fill-opacity:1;" d="M 14.265625 10.699219 L 14.265625 11.628906 L 17.367188 11.628906 L 16.128906 10.699219 Z M 14.265625 10.699219 "/>
    <path style=" stroke:none;fill-rule:nonzero;fill:rgb(0%,0%,0%);fill-opacity:1;" d="M 14.265625 11.941406 L 14.265625 12.871094 L 17.367188 12.871094 L 16.128906 11.941406 Z M 14.265625 11.941406 "/>
    <path style=" stroke:none;fill-rule:nonzero;fill:rgb(0%,0%,0%);fill-opacity:1;" d="M 13.335938 12.871094 L 13.335938 11.941406 L 1.550781 11.941406 L 0.308594 12.871094 Z M 13.335938 12.871094 "/>
    <path style=" stroke:none;fill-rule:nonzero;fill:rgb(0%,0%,0%);fill-opacity:1;" d="M 14.265625 13.179688 L 14.265625 14.109375 L 17.367188 14.109375 L 16.128906 13.179688 Z M 14.265625 13.179688 "/>
    <path style=" stroke:none;fill-rule:nonzero;fill:rgb(0%,0%,0%);fill-opacity:1;" d="M 13.335938 14.109375 L 13.335938 13.179688 L 1.550781 13.179688 L 0.308594 14.109375 Z M 13.335938 14.109375 "/>
    <path style=" stroke:none;fill-rule:nonzero;fill:rgb(0%,0%,0%);fill-opacity:1;" d="M 13.089844 15.351562 C 13.144531 15.230469 13.230469 15.125 13.335938 15.046875 L 13.335938 14.421875 L 1.550781 14.421875 L 0.308594 15.351562 Z M 13.089844 15.351562 "/>
    <path style=" stroke:none;fill-rule:nonzero;fill:rgb(0%,0%,0%);fill-opacity:1;" d="M 14.265625 14.421875 L 14.265625 15.046875 C 14.371094 15.125 14.457031 15.230469 14.511719 15.351562 L 17.367188 15.351562 L 16.128906 14.421875 Z M 14.265625 14.421875 "/>
    <path style=" stroke:none;fill-rule:nonzero;fill:rgb(0%,0%,0%);fill-opacity:1;" d="M 14.578125 15.660156 C 14.578125 16.089844 14.230469 16.4375 13.800781 16.4375 C 13.375 16.4375 13.027344 16.089844 13.027344 15.660156 L 1.550781 15.660156 L 0.308594 16.59375 L 17.367188 16.59375 L 16.128906 15.660156 Z M 14.578125 15.660156 "/>
    <path style=" stroke:none;fill-rule:nonzero;fill:rgb(0%,0%,0%);fill-opacity:1;" d="M 1.550781 16.902344 L 0.308594 17.832031 L 17.367188 17.832031 L 16.128906 16.902344 Z M 1.550781 16.902344 "/>
    <path style=" stroke:none;fill-rule:nonzero;fill:rgb(0%,0%,0%);fill-opacity:1;" d="M 13.957031 14.902344 L 13.957031 2.015625 L 13.644531 2.015625 L 13.644531 14.902344 C 13.695312 14.890625 13.746094 14.886719 13.800781 14.886719 C 13.855469 14.886719 13.90625 14.890625 13.957031 14.902344 Z M 13.957031 14.902344 "/>
    <path style=" stroke:none;fill-rule:nonzero;fill:rgb(0%,0%,0%);fill-opacity:1;" d="M 0 1.707031 L 17.988281 1.707031 L 17.988281 0.15625 L 0 0.15625 Z M 0 1.707031 "/>
    <path style=" stroke:none;fill-rule:nonzero;fill:rgb(0%,0%,0%);fill-opacity:1;" d="M 13.457031 15.351562 C 13.382812 15.433594 13.335938 15.542969 13.335938 15.660156 C 13.335938 15.917969 13.542969 16.128906 13.800781 16.128906 C 14.058594 16.128906 14.265625 15.917969 14.265625 15.660156 C 14.265625 15.542969 14.21875 15.433594 14.144531 15.351562 C 14.09375 15.296875 14.03125 15.25 13.957031 15.226562 C 13.90625 15.207031 13.855469 15.195312 13.800781 15.195312 C 13.746094 15.195312 13.695312 15.207031 13.644531 15.226562 C 13.574219 15.25 13.507812 15.296875 13.457031 15.351562 Z M 13.457031 15.351562 "/>
  </g>
</svg>