<?xml version="1.0" encoding="utf-8"?>
<!-- Generator: Adobe Illustrator 15.1.0, SVG Export Plug-In . SVG Version: 6.00 Build 0)  -->
<!DOCTYPE svg PUBLIC "-//W3C//DTD SVG 1.1//EN" "http://www.w3.org/Graphics/SVG/1.1/DTD/svg11.dtd">
<svg version="1.1" id="Layer_1" xmlns="http://www.w3.org/2000/svg" xmlns:xlink="http://www.w3.org/1999/xlink" x="0px" y="0px"
	 width="24px" height="24px" viewBox="0 0 24 24" enable-background="new 0 0 24 24" xml:space="preserve">
<path d="M7.784,14.379c0.551,1.098,1.596,1.912,2.88,2.133l0.165,0.029l-0.105,2.309c-0.058-0.016-0.123-0.023-0.183-0.035
	c-0.063-0.014-0.126-0.029-0.194-0.039c-0.196-0.029-0.403-0.051-0.627-0.051c-0.306,0-0.587,0.041-0.846,0.111
	c0.128,0.045,0.251,0.094,0.37,0.145c0.1,0.045,0.197,0.09,0.29,0.137c0.064-0.004,0.125-0.014,0.192-0.014
	c0.217,0,0.417,0.02,0.604,0.051c0.067,0.01,0.131,0.023,0.194,0.037c0.062,0.014,0.124,0.027,0.182,0.045
	c0.549,0.154,0.943,0.42,1.21,0.664c0.074,0.068,0.139,0.133,0.194,0.193c0.112,0.125,0.183,0.229,0.221,0.287
	c0.017,0.025,0.029,0.047,0.032,0.051l0.007,0.014c0.045-0.029,0.09-0.061,0.14-0.09c0.017-0.01,0.03-0.02,0.048-0.029
	c0.075-0.043,0.162-0.082,0.246-0.121c0.275-0.525,1.178-1.896,3.2-2.324l0.005-0.104l0.014-0.285
	c-2.134,0.424-3.166,1.854-3.522,2.48c-0.057-0.07-0.131-0.152-0.215-0.238c-0.063-0.063-0.134-0.129-0.214-0.195
	c-0.061-0.051-0.121-0.104-0.191-0.154l-0.198-2.824l0.177-0.023c1.715-0.223,3.063-1.528,3.391-3.172
	c-1.854-0.807-3.178-2.598-3.318-4.709c-0.192-0.029-0.388-0.048-0.587-0.048c-0.242,0-0.478,0.025-0.708,0.066
	c0.244,1.197,0.377,2.248,0.377,2.916C11.012,13.896,9.657,14.314,7.784,14.379z M18.482,17.475l0.021,0.291l0.007,0.104
	c2.86,0.566,3.903,3.049,4.215,4.08c0.07,0.066,0.138,0.135,0.201,0.203c0.121,0.131,0.229,0.264,0.323,0.396h0.007l-0.044-0.227
	C23.203,22.277,22.375,18.186,18.482,17.475z M12.304,8.533c0.003,0.066,0.004,0.133,0.01,0.199c0.162,1.888,1.344,3.484,2.993,4.24
	c0.061,0.028,0.119,0.057,0.182,0.082c0.059,0.025,0.121,0.045,0.181,0.066c0.178,0.066,0.36,0.122,0.548,0.168l0.116-2.526
	l-2.499-3.791l2.649,1.455l0.318-3.719h0.999l0.174,5.298l2.889-0.858l-2.728,3.465l0.055,0.772
	c2.493-0.361,4.415-2.506,4.415-5.098c0-2.844-2.314-5.157-5.157-5.157s-5.157,2.313-5.157,5.157c0,0.016,0.002,0.032,0.002,0.048
	C12.294,8.402,12.3,8.467,12.304,8.533z M2.59,13.648c0.646,0.331,1.584,0.361,2.573,0.361l0.072-1.018L2.507,9.528l2.889,0.858
	l0.175-5.299h0.999l0.319,3.719l2.649-1.455l-2.499,3.791l0.027,0.587l0.098,2.203l0.008,0.266c0.016,0,0.031,0,0.045,0
	c0.066,0,0.133-0.094,0.197-0.096c0.069,0,0.136-0.049,0.204-0.051c1.839-0.041,3.016-0.386,3.016-2.438
	c0-0.716-0.129-1.733-0.355-2.845c-0.013-0.062-0.025-0.13-0.038-0.193c-0.013-0.061-0.026-0.125-0.04-0.187
	C9.449,4.945,7.821,0.693,6.125,0.693c-2.315,0-4.507,7.93-4.507,10.897C1.619,12.654,1.927,13.307,2.59,13.648z M16.584,13.559
	l-0.01,0.189l-0.17,3.68l-0.014,0.291l-0.004,0.096l-0.123,2.643c0.596,0.418,0.968,0.955,1.139,1.244
	c0.183-0.123,0.508-0.307,0.968-0.467l-0.244-3.43l-0.007-0.1l-0.021-0.289l-0.257-3.611l-0.014-0.189l-0.014-0.189l-0.066-0.933
	l2.08-2.641l-2.215,0.658l-0.179-5.422H17.15L16.812,9.04l-1.818-0.998l1.724,2.615l-0.125,2.71L16.584,13.559z M6.56,9.419
	L6.221,5.467H5.938L5.759,10.89l-2.214-0.658l2.08,2.641l-0.006,0.073L5.543,14.01L5.53,14.199l-0.014,0.189l-0.308,4.32
	c0.49-0.129,1.032-0.203,1.634-0.203c0.054,0,0.104,0.006,0.157,0.006L6.808,14.39l-0.009-0.19L6.791,14.01l-0.138-2.973
	l1.724-2.615L6.56,9.419z M22.371,22.168c-0.52-0.477-1.224-0.879-1.965-0.879c-0.659,0-1.202,0.094-1.637,0.217
	c-0.068,0.02-0.136,0.039-0.199,0.061c-0.06,0.02-0.119,0.039-0.173,0.059c-0.146,0.055-0.271,0.109-0.382,0.164
	c-0.363,0.178-0.544,0.334-0.547,0.338l-0.047,0.041l-0.143,0.127l-0.061-0.127l-0.049-0.102c-0.002-0.004-0.057-0.115-0.162-0.277
	c-0.149-0.229-0.404-0.561-0.766-0.859c-0.056-0.047-0.113-0.094-0.175-0.137c-0.062-0.045-0.126-0.09-0.192-0.131
	c-0.396-0.242-0.885-0.418-1.469-0.418c-0.822,0-1.428,0.248-1.849,0.531c-0.001,0.002-0.003,0.002-0.004,0.004
	c-0.067,0.045-0.129,0.09-0.187,0.137c-0.07,0.055-0.132,0.111-0.19,0.164c-0.063,0.059-0.119,0.117-0.167,0.17
	c-0.162,0.182-0.238,0.316-0.241,0.322l-0.193,0.352l-0.15-0.373c-0.02-0.049-0.239-0.572-0.775-1.143
	c-0.054-0.059-0.114-0.117-0.175-0.174c-0.059-0.059-0.124-0.113-0.189-0.17c-0.363-0.311-0.827-0.607-1.41-0.826
	c-0.082-0.031-0.165-0.063-0.251-0.09c-0.104-0.033-0.216-0.061-0.328-0.088c-0.279-0.068-0.576-0.121-0.9-0.148
	c-0.064-0.006-0.133-0.006-0.198-0.01c-0.061-0.004-0.121-0.008-0.183-0.008c-0.059-0.002-0.113-0.008-0.174-0.008
	c-0.622,0-1.168,0.088-1.663,0.229c-0.062,0.018-0.124,0.035-0.183,0.055c-0.069,0.021-0.139,0.041-0.206,0.066
	c-2.44,0.904-3.25,3.313-3.447,4.07h8.795h0.199h1.994h0.204h10.648c-0.064-0.213-0.225-0.484-0.451-0.758
	C22.627,22.42,22.505,22.291,22.371,22.168z"/>
</svg>
