<?xml version="1.0" encoding="UTF-8" standalone="yes"?>
<svg xmlns="http://www.w3.org/2000/svg" xmlns:xlink="http://www.w3.org/1999/xlink" width="24px" height="24px" viewBox="0 0 18 18" version="1.1">
  <g id="surface1">
    <path style=" stroke:none;fill-rule:nonzero;fill:rgb(0%,0%,0%);fill-opacity:1;" d="M 14.332031 0.757812 C 14.296875 0.644531 14.234375 0.554688 14.105469 0.523438 C 14.226562 0.75 14.167969 0.964844 14.066406 1.160156 C 13.957031 1.371094 13.886719 1.425781 13.671875 1.371094 C 13.933594 0.855469 13.859375 0.394531 13.429688 0 C 13.414062 0.0507812 13.414062 0.0976562 13.425781 0.144531 C 13.449219 0.230469 13.480469 0.3125 13.503906 0.398438 C 13.554688 0.574219 13.542969 0.742188 13.449219 0.90625 C 13.371094 1.046875 13.25 1.070312 13.125 0.964844 C 13.0625 0.910156 13.007812 0.847656 12.941406 0.804688 C 12.699219 0.644531 12.46875 0.476562 12.28125 0.257812 C 12.257812 0.230469 12.226562 0.210938 12.203125 0.1875 C 12.191406 0.195312 12.179688 0.203125 12.167969 0.210938 C 12.222656 0.355469 12.28125 0.503906 12.339844 0.65625 C 12.292969 0.648438 12.25 0.636719 12.210938 0.628906 C 12.21875 0.679688 12.234375 0.710938 12.261719 0.738281 C 12.335938 0.808594 12.410156 0.882812 12.492188 0.949219 C 12.777344 1.191406 12.972656 1.488281 13.015625 1.867188 C 13.03125 2.015625 13.035156 2.167969 13.027344 2.316406 C 13.023438 2.441406 13.019531 2.582031 12.96875 2.691406 C 12.804688 3.050781 12.617188 3.398438 12.4375 3.75 C 12.425781 3.773438 12.402344 3.789062 12.359375 3.835938 C 12.359375 3.578125 12.375 3.351562 12.355469 3.128906 C 12.339844 2.910156 12.308594 2.6875 12.183594 2.492188 C 12.171875 2.519531 12.167969 2.546875 12.167969 2.574219 C 12.160156 2.890625 12.164062 3.210938 12.136719 3.527344 C 12.109375 3.875 12.019531 4.207031 11.75 4.457031 C 11.574219 4.621094 11.398438 4.785156 11.222656 4.941406 C 11.199219 4.960938 11.152344 4.957031 11.117188 4.964844 C 11.117188 4.933594 11.105469 4.898438 11.109375 4.867188 C 11.132812 4.722656 11.171875 4.578125 11.183594 4.433594 C 11.210938 4.140625 11.230469 3.847656 11.25 3.554688 C 11.25 3.535156 11.242188 3.515625 11.230469 3.464844 C 11.113281 3.71875 11.023438 3.949219 11 4.199219 C 10.964844 4.523438 10.902344 4.832031 10.707031 5.105469 C 10.671875 5.15625 10.664062 5.230469 10.65625 5.296875 C 10.648438 5.398438 10.605469 5.460938 10.511719 5.5 C 10.289062 5.597656 10.0625 5.621094 9.820312 5.574219 C 9.710938 5.550781 9.628906 5.511719 9.570312 5.414062 C 9.488281 5.277344 9.410156 5.128906 9.304688 5.011719 C 9.160156 4.855469 9.035156 4.691406 9 4.476562 C 8.992188 4.421875 8.976562 4.371094 8.964844 4.316406 C 8.894531 4.082031 8.824219 3.847656 8.757812 3.613281 C 8.742188 3.617188 8.730469 3.617188 8.714844 3.621094 C 8.714844 4.035156 8.761719 4.445312 8.847656 4.875 C 8.777344 4.820312 8.730469 4.78125 8.679688 4.742188 C 8.433594 4.554688 8.222656 4.335938 8.144531 4.019531 C 8.105469 3.875 8.066406 3.730469 8.03125 3.582031 C 7.988281 3.410156 7.953125 3.242188 7.914062 3.070312 C 7.785156 3.359375 7.886719 3.652344 7.867188 3.949219 C 7.699219 3.664062 7.523438 3.378906 7.398438 3.074219 C 7.242188 2.695312 7.203125 2.300781 7.371094 1.898438 C 7.453125 1.707031 7.589844 1.566406 7.714844 1.410156 C 7.785156 1.328125 7.816406 1.21875 7.878906 1.101562 C 7.804688 1.101562 7.773438 1.101562 7.730469 1.101562 C 7.78125 0.851562 7.851562 0.613281 7.839844 0.359375 C 7.800781 0.378906 7.777344 0.402344 7.761719 0.429688 C 7.625 0.640625 7.492188 0.855469 7.355469 1.066406 C 7.25 1.230469 7.148438 1.394531 7.035156 1.550781 C 6.957031 1.664062 6.871094 1.6875 6.761719 1.636719 C 6.796875 1.574219 6.828125 1.511719 6.863281 1.449219 C 6.855469 1.441406 6.847656 1.4375 6.839844 1.433594 C 6.777344 1.476562 6.71875 1.519531 6.652344 1.570312 C 6.558594 1.421875 6.53125 1.269531 6.554688 1.113281 C 6.585938 0.886719 6.632812 0.664062 6.667969 0.4375 C 6.679688 0.375 6.675781 0.3125 6.679688 0.25 C 6.667969 0.25 6.65625 0.246094 6.640625 0.242188 C 6.621094 0.277344 6.59375 0.304688 6.578125 0.34375 C 6.492188 0.527344 6.414062 0.71875 6.328125 0.90625 C 6.179688 1.210938 6.207031 1.503906 6.378906 1.792969 C 6.414062 1.851562 6.417969 1.925781 6.441406 1.992188 C 6.484375 2.113281 6.527344 2.230469 6.578125 2.34375 C 6.65625 2.523438 6.765625 2.691406 6.75 2.898438 C 6.722656 3.285156 6.824219 3.632812 7.105469 3.910156 C 7.359375 4.160156 7.617188 4.402344 7.886719 4.636719 C 8.183594 4.894531 8.496094 5.136719 8.800781 5.390625 C 8.871094 5.453125 8.9375 5.523438 9.003906 5.589844 C 8.777344 5.53125 8.574219 5.441406 8.363281 5.378906 C 8.140625 5.316406 7.960938 5.207031 7.835938 5.015625 C 7.820312 4.996094 7.792969 4.984375 7.773438 4.972656 C 7.757812 4.996094 7.730469 5.027344 7.734375 5.046875 C 7.75 5.121094 7.765625 5.203125 7.808594 5.265625 C 7.984375 5.53125 8.164062 5.796875 8.355469 6.054688 C 8.4375 6.167969 8.539062 6.285156 8.660156 6.347656 C 8.753906 6.394531 8.859375 6.417969 8.921875 6.511719 C 8.964844 6.578125 9 6.648438 9.039062 6.714844 C 9.132812 6.882812 9.148438 7.046875 9.035156 7.207031 C 9.023438 7.222656 9.015625 7.242188 9.011719 7.261719 C 8.917969 7.644531 8.828125 8.027344 8.734375 8.410156 C 8.726562 8.449219 8.703125 8.492188 8.671875 8.515625 C 8.519531 8.636719 8.34375 8.71875 8.144531 8.730469 C 7.707031 8.753906 7.269531 8.78125 6.832031 8.796875 C 6.742188 8.800781 6.652344 8.773438 6.558594 8.761719 C 6.496094 8.75 6.429688 8.722656 6.367188 8.730469 C 6.113281 8.769531 5.863281 8.8125 5.613281 8.855469 C 5.527344 8.871094 5.433594 8.863281 5.355469 8.902344 C 5.164062 8.988281 4.964844 9.078125 4.792969 9.199219 C 4.582031 9.347656 4.296875 9.414062 4.164062 9.671875 C 4.15625 9.683594 4.140625 9.691406 4.128906 9.699219 C 3.886719 9.878906 3.761719 10.136719 3.691406 10.414062 C 3.613281 10.726562 3.722656 11.035156 3.730469 11.347656 C 3.730469 11.351562 3.730469 11.355469 3.730469 11.359375 C 3.824219 11.78125 3.9375 12.199219 4.003906 12.625 C 4.058594 13.003906 4.0625 13.394531 4.082031 13.777344 C 4.097656 14.109375 4.101562 14.441406 4.109375 14.773438 C 4.113281 14.820312 4.117188 14.867188 4.101562 14.910156 C 4.011719 15.191406 3.9375 15.480469 3.8125 15.742188 C 3.714844 15.941406 3.671875 16.125 3.6875 16.347656 C 3.707031 16.597656 3.664062 16.847656 3.652344 17.101562 C 3.648438 17.261719 3.652344 17.421875 3.652344 17.585938 C 3.605469 17.875 3.628906 18.015625 4.046875 17.945312 C 4.46875 17.878906 4.628906 18.15625 4.570312 17.832031 C 4.515625 17.503906 4.167969 17.339844 4.167969 17.339844 C 4.148438 17.3125 4.105469 17.28125 4.109375 17.253906 C 4.121094 17.167969 4.148438 17.082031 4.175781 16.996094 C 4.257812 16.734375 4.339844 16.476562 4.425781 16.214844 C 4.484375 16.042969 4.542969 15.871094 4.613281 15.703125 C 4.808594 15.246094 5.007812 14.789062 5.210938 14.332031 C 5.316406 14.085938 5.402344 13.824219 5.59375 13.601562 C 5.710938 13.765625 5.773438 13.5625 5.859375 13.578125 C 6.046875 13.707031 5.964844 13.90625 5.984375 14.070312 C 6.007812 14.25 6.003906 14.433594 5.910156 14.605469 C 5.738281 14.914062 5.582031 15.238281 5.402344 15.542969 C 5.304688 15.710938 5.304688 15.851562 5.386719 16.023438 C 5.546875 16.34375 5.714844 16.664062 5.832031 17 C 5.894531 17.175781 6.027344 17.304688 6.085938 17.476562 C 6.117188 17.558594 5.980469 17.863281 6.1875 17.820312 C 6.398438 17.773438 6.886719 17.898438 6.898438 17.820312 C 6.910156 17.738281 6.816406 17.386719 6.574219 17.226562 C 6.328125 17.0625 6.332031 16.53125 6.332031 16.53125 C 6.253906 16.175781 6.367188 15.878906 6.597656 15.609375 C 6.726562 15.453125 6.863281 15.296875 6.96875 15.121094 C 7.082031 14.9375 7.160156 14.734375 7.253906 14.539062 C 7.28125 14.484375 7.3125 14.429688 7.339844 14.375 C 7.375 14.300781 7.429688 14.257812 7.515625 14.269531 C 7.523438 14.269531 7.53125 14.273438 7.539062 14.269531 C 7.71875 14.210938 7.898438 14.257812 8.082031 14.28125 C 8.171875 14.296875 8.265625 14.28125 8.355469 14.289062 C 8.394531 14.292969 8.449219 14.324219 8.457031 14.355469 C 8.605469 14.875 8.78125 15.386719 8.816406 15.933594 C 8.824219 16.058594 8.894531 16.175781 8.925781 16.296875 C 8.957031 16.410156 8.914062 16.523438 8.925781 16.636719 L 8.953125 16.964844 C 8.953125 16.964844 8.828125 17.613281 8.910156 17.628906 C 8.996094 17.644531 9.214844 17.589844 9.347656 17.652344 C 9.476562 17.714844 9.785156 17.621094 9.785156 17.621094 C 9.820312 17.410156 9.460938 17.144531 9.460938 17.144531 C 9.457031 16.882812 9.441406 16.621094 9.460938 16.359375 C 9.472656 16.246094 9.539062 16.136719 9.542969 16.023438 C 9.550781 15.898438 9.53125 15.773438 9.503906 15.648438 C 9.457031 15.410156 9.386719 15.175781 9.351562 14.9375 C 9.324219 14.714844 9.335938 14.492188 9.324219 14.269531 C 9.320312 14.171875 9.355469 14.113281 9.433594 14.058594 C 9.660156 13.894531 10.136719 13.882812 10.355469 14.105469 C 10.386719 14.140625 10.464844 14.128906 10.546875 14.136719 C 10.558594 14.136719 10.566406 14.148438 10.570312 14.160156 C 10.652344 14.800781 10.738281 15.460938 10.824219 16.128906 C 10.828125 16.148438 10.960938 16.660156 10.898438 16.730469 C 10.859375 16.769531 10.882812 16.863281 10.886719 16.953125 C 10.890625 16.972656 10.738281 17.273438 10.925781 17.492188 C 11.109375 17.714844 11.738281 17.691406 11.738281 17.691406 C 11.738281 17.691406 11.714844 17.574219 11.65625 17.316406 C 11.601562 17.0625 11.507812 17.050781 11.507812 17.050781 C 11.429688 16.921875 11.4375 16.8125 11.535156 16.707031 C 11.535156 16.6875 11.539062 16.660156 11.527344 16.652344 C 11.421875 16.5625 11.457031 16.453125 11.464844 16.34375 C 11.472656 16.199219 11.464844 16.058594 11.457031 15.914062 C 11.441406 15.515625 11.394531 15.117188 11.414062 14.722656 C 11.429688 14.394531 11.527344 14.070312 11.574219 13.746094 C 11.609375 13.523438 11.621094 13.296875 11.636719 13.074219 C 11.644531 12.914062 11.683594 12.777344 11.796875 12.65625 C 11.871094 12.570312 11.929688 12.472656 11.980469 12.371094 C 12.023438 12.285156 12.042969 12.1875 12.085938 12.101562 C 12.222656 11.835938 12.351562 11.566406 12.238281 11.253906 C 12.238281 11.25 12.238281 11.238281 12.238281 11.230469 C 12.207031 10.9375 12.179688 10.640625 12.148438 10.34375 C 12.140625 10.246094 12.117188 10.148438 12.121094 10.054688 C 12.128906 9.894531 12.167969 9.738281 12.164062 9.582031 C 12.160156 9.3125 12.160156 9.035156 12.105469 8.773438 C 12.039062 8.480469 11.925781 8.191406 11.804688 7.910156 C 11.683594 7.625 11.542969 7.347656 11.386719 7.082031 C 11.28125 6.902344 11.292969 6.730469 11.328125 6.546875 C 11.339844 6.503906 11.378906 6.460938 11.414062 6.429688 C 11.566406 6.289062 11.738281 6.171875 11.800781 5.957031 C 11.820312 5.902344 11.847656 5.839844 11.886719 5.796875 C 12.03125 5.628906 12.1875 5.464844 12.332031 5.296875 C 12.390625 5.230469 12.441406 5.15625 12.484375 5.082031 C 12.503906 5.046875 12.492188 4.996094 12.496094 4.949219 C 12.449219 4.957031 12.433594 4.964844 12.421875 4.980469 C 12.328125 5.140625 12.175781 5.226562 12 5.285156 C 11.78125 5.359375 11.570312 5.453125 11.355469 5.539062 C 11.332031 5.546875 11.308594 5.546875 11.253906 5.554688 C 11.3125 5.480469 11.34375 5.425781 11.390625 5.378906 C 11.539062 5.234375 11.691406 5.089844 11.847656 4.949219 C 12.058594 4.757812 12.28125 4.574219 12.492188 4.378906 C 12.714844 4.171875 12.929688 3.953125 13.15625 3.75 C 13.507812 3.441406 13.65625 3.058594 13.59375 2.597656 C 13.558594 2.320312 13.6875 2.113281 13.84375 1.914062 C 13.90625 1.835938 13.976562 1.761719 14.050781 1.695312 C 14.09375 1.660156 14.152344 1.628906 14.207031 1.625 C 14.3125 1.613281 14.328125 1.585938 14.285156 1.484375 C 14.265625 1.4375 14.257812 1.375 14.273438 1.328125 C 14.328125 1.140625 14.394531 0.957031 14.332031 0.757812 Z M 14.332031 0.757812 "/>
  </g>
</svg>