<?xml version="1.0" encoding="utf-8"?>
<!-- Generator: Adobe Illustrator 15.1.0, SVG Export Plug-In . SVG Version: 6.00 Build 0)  -->
<!DOCTYPE svg PUBLIC "-//W3C//DTD SVG 1.1//EN" "http://www.w3.org/Graphics/SVG/1.1/DTD/svg11.dtd">
<svg version="1.1" id="Layer_1" xmlns="http://www.w3.org/2000/svg" xmlns:xlink="http://www.w3.org/1999/xlink" x="0px" y="0px"
	 width="24px" height="24px" viewBox="0 0 24 24" enable-background="new 0 0 24 24" xml:space="preserve">
<path d="M8.03,18.722c1.12,0.047,2.22-0.036,3.317-0.264c1.128-0.236,2.241-0.419,3.396-0.462c1.143-0.043,2.309,0.026,3.471,0.142
	c1.09,0.111,2.162,0.088,3.24-0.123c-1.092-0.233-2.156-0.48-3.225-0.816c-1.135-0.357-2.275-0.568-3.467-0.619
	c-0.359-0.016-0.719-0.018-1.074-0.005l0.688-2.948l4.895-0.182c0.439-0.018,0.801-0.37,0.818-0.816
	c0.018-0.469-0.348-0.863-0.816-0.882c0,0-6.38,0.415-7.498-0.2c-0.985-0.543-1.912-2.161-1.973-2.59
	C9.739,8.525,9.725,5.459,9.725,5.459C9.727,5.117,9.471,4.82,9.123,4.78C8.749,4.736,8.411,5.003,8.367,5.376L7.913,9.235
	c-0.02,0.172,0.018,0.353,0.121,0.509l0.051,0.077l1.73,2.615L8.69,17.259c-0.22,0.02-0.44,0.037-0.663,0.049
	c-0.516,0.002-1.106,0.036-1.649,0.02c-0.641-0.021-1.274-0.106-1.911-0.171c-1.059-0.108-2.092-0.062-3.138,0.131
	c1.093,0.232,2.158,0.478,3.225,0.815C5.691,18.461,6.836,18.671,8.03,18.722z M14.762,18.933c-1.121-0.048-2.227,0.035-3.326,0.266
	c-1.137,0.238-2.249,0.397-3.409,0.463c-0.516,0.002-1.106,0.036-1.649,0.02c-0.641-0.021-1.274-0.106-1.911-0.171
	c-1.059-0.108-2.092-0.061-3.138,0.131c1.093,0.232,2.158,0.479,3.225,0.815c1.138,0.359,2.283,0.568,3.476,0.619
	c1.12,0.047,2.22-0.036,3.317-0.264c1.128-0.236,2.241-0.419,3.396-0.462c1.143-0.043,2.311,0.025,3.471,0.142
	c1.09,0.111,2.162,0.088,3.24-0.122c-1.092-0.233-2.156-0.481-3.225-0.817C17.094,19.194,15.953,18.983,14.762,18.933z
	 M11.165,8.839c-0.351,1.051,0.216,2.187,1.266,2.539c1.049,0.351,2.186-0.216,2.538-1.266c0.352-1.051-0.215-2.187-1.266-2.538
	C12.652,7.222,11.516,7.79,11.165,8.839z M11.845,6.637c1.026,0,1.862-0.835,1.862-1.863c0-1.027-0.836-1.862-1.862-1.862
	c-1.027,0-1.863,0.835-1.863,1.862C9.982,5.802,10.818,6.637,11.845,6.637z M11.845,6.284c-0.187,0-0.365-0.034-0.53-0.096
	c0.009-0.047,0.018-0.095,0.029-0.144c0.292-0.277,0.709-0.277,1.002,0c0.01,0.049,0.02,0.096,0.028,0.144
	C12.209,6.25,12.031,6.284,11.845,6.284z M11.845,3.266c0.186,0,0.365,0.034,0.529,0.096c-0.008,0.047-0.018,0.095-0.028,0.144
	c-0.293,0.277-0.71,0.277-1.002,0c-0.011-0.049-0.02-0.097-0.029-0.144C11.48,3.3,11.658,3.266,11.845,3.266z M10.992,4.273
	c0.616-0.132,1.09-0.132,1.706,0c0.277,0.292,0.277,0.709,0,1.002c-0.616,0.133-1.089,0.133-1.706,0
	C10.715,4.983,10.715,4.566,10.992,4.273z"/>
</svg>
