<?xml version="1.0" encoding="utf-8"?>
<!-- Generator: Adobe Illustrator 15.1.0, SVG Export Plug-In . SVG Version: 6.00 Build 0)  -->
<!DOCTYPE svg PUBLIC "-//W3C//DTD SVG 1.1//EN" "http://www.w3.org/Graphics/SVG/1.1/DTD/svg11.dtd">
<svg version="1.1" id="Layer_1" xmlns="http://www.w3.org/2000/svg" xmlns:xlink="http://www.w3.org/1999/xlink" x="0px" y="0px"
	 width="24px" height="24px" viewBox="0 0 24 24" enable-background="new 0 0 24 24" xml:space="preserve">
<path d="M4.403,20.597c1.729,0,3.135-1.823,3.135-4.064c0-1.323-0.495-2.5-1.255-3.241l1.269-2.677l1.917,7.051
	c0.004,0.013,0.008,0.026,0.013,0.041c0.026,0.068,0.666,1.717,2.402,1.504l2.724,0.017c0.037,0.008,0.097,0.017,0.174,0.017
	c0.385,0,1.192-0.228,1.759-1.968l0.354-0.826c-0.001,0.028-0.004,0.056-0.004,0.086c0,2.238,1.406,4.062,3.135,4.062
	c1.73,0,3.136-1.823,3.136-4.062c0-1.8-0.911-3.33-2.165-3.86c0.123,0.012,0.194,0.026,0.195,0.026
	c0.018,0.004,0.032,0.005,0.05,0.005c0.164,0.021,0.298-0.167,0.298-0.379c0-0.116-0.038-0.219-0.1-0.287
	c-0.103-0.165-0.239-0.376-0.415-0.587v-0.561c0-0.21-0.132-0.379-0.294-0.379h-0.705c-0.094,0-0.175,0.061-0.229,0.151
	c-0.122-0.024-0.25-0.04-0.39-0.04c-0.628,0-1.339,0.301-2.106,0.89c-0.002,0-0.002,0.002-0.003,0.002
	c-0.003,0.002-0.005,0.004-0.008,0.006c-0.602,0.462-1.254,0.696-1.945,0.696c-1.247,0-2.24-0.769-2.402-0.904
	c-1.044-1.397-2.148-1.893-3.022-2.028l0.49-1.024h3.132v2.01c0,0.131,0.053,0.252,0.137,0.321c0.554,0.458,1.146,0.68,1.808,0.68
	l0,0c0.797,0,1.584-0.325,2.343-0.639c0.75-0.31,1.459-0.603,2.164-0.603c0.548,0,1.036,0.184,1.492,0.561
	c0.091,0.075,0.206,0.081,0.299,0.014c0.095-0.068,0.154-0.196,0.154-0.333V4.616c0-0.13-0.053-0.251-0.137-0.321
	c-0.554-0.458-1.145-0.681-1.808-0.681c-0.797,0-1.583,0.325-2.342,0.64c-0.752,0.309-1.459,0.602-2.165,0.602
	c-0.547,0-1.034-0.184-1.492-0.562c-0.09-0.073-0.205-0.079-0.299-0.013c-0.094,0.068-0.154,0.195-0.154,0.334v2.885h-2.769
	l0.385-0.804h1.211c0.163,0,0.293-0.17,0.293-0.38c0-0.21-0.131-0.381-0.293-0.381h-1.375c-0.011,0-0.021,0.007-0.032,0.007
	c-0.021,0.004-0.04,0.008-0.059,0.016c-0.018,0.009-0.034,0.018-0.05,0.029C10.836,6,10.821,6.013,10.807,6.029
	c-0.015,0.016-0.028,0.036-0.041,0.056c-0.006,0.011-0.016,0.018-0.021,0.03L9.276,9.186c-0.009,0.019-0.011,0.04-0.018,0.061
	C8.795,9.26,8.396,9.357,8.094,9.463l1.814-3.832h1.718c0.162,0,0.294-0.171,0.294-0.38c0-0.211-0.132-0.38-0.294-0.38H9.744
	c-0.011,0-0.02,0.006-0.031,0.008c-0.021,0.003-0.041,0.007-0.06,0.016C9.635,4.902,9.62,4.912,9.603,4.923s-0.031,0.023-0.046,0.04
	C9.541,4.98,9.529,5,9.517,5.019C9.51,5.031,9.5,5.038,9.494,5.05l-3.711,7.842c-0.417-0.266-0.884-0.419-1.379-0.419
	c-1.729,0-3.135,1.82-3.135,4.062C1.268,18.773,2.674,20.597,4.403,20.597z M19.359,15.856l0.414,0.877
	c0.056,0.118,0.152,0.182,0.251,0.182c0.053,0,0.104-0.019,0.152-0.055c0.14-0.11,0.182-0.346,0.098-0.523l-0.417-0.88
	c0.054-0.014,0.109-0.022,0.166-0.022c0.47,0,0.849,0.495,0.849,1.101c0,0.607-0.381,1.101-0.849,1.101s-0.851-0.493-0.851-1.101
	C19.173,16.276,19.245,16.043,19.359,15.856z M5.254,16.535c0,0.607-0.382,1.1-0.85,1.1c-0.469,0-0.85-0.494-0.85-1.1
	c0-0.608,0.381-1.101,0.85-1.101c0.057,0,0.112,0.009,0.167,0.021l-0.417,0.882c-0.084,0.177-0.041,0.412,0.097,0.523
	c0.047,0.036,0.101,0.054,0.153,0.054c0.098,0,0.195-0.064,0.25-0.184l0.415-0.874C5.183,16.043,5.254,16.276,5.254,16.535z
	 M5.905,11.271c0.013,0.001,0.026,0.003,0.038,0.003c0.101,0,0.196-0.068,0.25-0.181l1.439-3.013
	c0.055-0.117,0.059-0.264,0.007-0.385C7.586,7.574,7.488,7.501,7.383,7.501H5.943c-0.119,0-0.227,0.094-0.272,0.236
	c-0.44,1.4-0.026,3.191-0.008,3.268C5.696,11.146,5.792,11.25,5.905,11.271z"/>
</svg>
