<?xml version="1.0" encoding="UTF-8" standalone="yes"?>
<svg xmlns="http://www.w3.org/2000/svg" xmlns:xlink="http://www.w3.org/1999/xlink" width="24px" height="24px" viewBox="0 0 18 18" version="1.1">
  <g id="surface1">
    <path style=" stroke:none;fill-rule:nonzero;fill:rgb(0%,0%,0%);fill-opacity:1;" d="M 11.90625 18 L 6.09375 18 C 5.640625 18 5.269531 17.628906 5.269531 17.175781 L 5.269531 3.957031 C 5.269531 3.5625 5.546875 3.226562 5.925781 3.148438 L 7.589844 2.1875 C 7.578125 2.15625 7.570312 2.125 7.570312 2.089844 L 7.570312 0.242188 C 7.570312 0.109375 7.679688 0 7.8125 0 L 10.285156 0 C 10.417969 0 10.527344 0.109375 10.527344 0.242188 L 10.527344 2.089844 C 10.527344 2.125 10.519531 2.152344 10.507812 2.183594 L 12.078125 3.148438 C 12.453125 3.230469 12.730469 3.5625 12.730469 3.957031 L 12.730469 17.175781 C 12.730469 17.628906 12.359375 18 11.90625 18 Z M 5.753906 14.660156 L 5.753906 17.175781 C 5.753906 17.363281 5.90625 17.515625 6.09375 17.515625 L 11.90625 17.515625 C 12.09375 17.515625 12.246094 17.363281 12.246094 17.175781 L 12.246094 14.660156 Z M 5.753906 14.175781 L 12.246094 14.175781 L 12.246094 13.542969 L 5.753906 13.542969 Z M 5.753906 13.058594 L 12.246094 13.058594 L 12.246094 12.429688 L 5.753906 12.429688 Z M 5.753906 11.945312 L 12.246094 11.945312 L 12.246094 11.316406 L 5.753906 11.316406 Z M 5.753906 10.832031 L 12.246094 10.832031 L 12.246094 10.203125 L 5.753906 10.203125 Z M 5.753906 9.71875 L 12.246094 9.71875 L 12.246094 9.089844 L 5.753906 9.089844 Z M 5.753906 8.605469 L 12.246094 8.605469 L 12.246094 7.976562 L 5.753906 7.976562 Z M 5.753906 7.492188 L 12.246094 7.492188 L 12.246094 4.003906 L 5.753906 4.003906 Z M 6.253906 3.519531 L 11.753906 3.519531 L 9.828125 2.332031 L 8.304688 2.332031 Z M 9.898438 1.847656 L 10.042969 1.847656 L 10.042969 0.484375 L 8.054688 0.484375 L 8.054688 1.847656 Z M 9.898438 1.847656 "/>
  </g>
</svg>