<?xml version="1.0" encoding="UTF-8" standalone="yes"?>
<svg xmlns="http://www.w3.org/2000/svg" xmlns:xlink="http://www.w3.org/1999/xlink" width="24px" height="24px" viewBox="0 0 18 18" version="1.1">
  <g id="surface1">
    <path style=" stroke:none;fill-rule:nonzero;fill:rgb(0%,0%,0%);fill-opacity:1;" d="M 15.714844 3.199219 L 15.722656 3.195312 L 15.164062 1.515625 C 15.011719 1.007812 14.074219 0 9 0 C 3.925781 0 2.988281 1.007812 2.839844 1.515625 L 2.277344 3.195312 L 2.285156 3.199219 C 2.265625 3.253906 2.25 3.3125 2.25 3.375 C 2.25 3.953125 2.703125 4.390625 3.394531 4.722656 L 4.503906 16.367188 C 4.503906 16.382812 4.511719 16.394531 4.515625 16.410156 C 4.675781 17.949219 8.550781 18 9 18 C 9.449219 18 13.324219 17.949219 13.484375 16.410156 C 13.488281 16.394531 13.496094 16.382812 13.496094 16.367188 L 14.605469 4.722656 C 15.296875 4.390625 15.75 3.953125 15.75 3.375 C 15.75 3.3125 15.734375 3.253906 15.714844 3.199219 Z M 9 1.125 C 11.492188 1.125 13.113281 1.433594 13.789062 1.6875 C 13.113281 1.941406 11.492188 2.25 9 2.25 C 6.507812 2.25 4.886719 1.941406 4.210938 1.6875 C 4.886719 1.433594 6.507812 1.125 9 1.125 Z M 12.378906 16.234375 C 12.15625 16.464844 10.96875 16.875 9 16.875 C 7.03125 16.875 5.84375 16.464844 5.621094 16.234375 L 5.316406 13.046875 C 6.625 13.464844 8.472656 13.5 9 13.5 C 9.527344 13.5 11.375 13.464844 12.683594 13.046875 Z M 13.230469 7.332031 C 12.613281 7.574219 11.167969 7.875 9 7.875 C 6.832031 7.875 5.386719 7.574219 4.773438 7.332031 L 4.5625 5.132812 C 5.957031 5.496094 7.707031 5.625 9 5.625 C 10.292969 5.625 12.042969 5.496094 13.4375 5.132812 Z M 9 4.5 C 5.683594 4.5 3.636719 3.789062 3.394531 3.40625 L 3.652344 2.628906 C 4.453125 3.023438 6 3.375 9 3.375 C 12 3.375 13.546875 3.023438 14.347656 2.628906 L 14.601562 3.394531 C 14.328125 3.800781 12.289062 4.5 9 4.5 Z M 9 4.5 "/>
  </g>
</svg>