<?xml version="1.0" encoding="UTF-8" standalone="yes"?>
<svg xmlns="http://www.w3.org/2000/svg" xmlns:xlink="http://www.w3.org/1999/xlink" width="24px" height="24px" viewBox="0 0 18 18" version="1.1">
  <g id="surface1">
    <path style=" stroke:none;fill-rule:nonzero;fill:rgb(0%,0%,0%);fill-opacity:1;" d="M 1.148438 15.742188 L 2.597656 14.273438 L 13.128906 14.273438 C 13.289062 14.273438 13.445312 14.21875 13.566406 14.113281 L 17.8125 10.453125 C 18.09375 10.210938 18.125 9.785156 17.882812 9.503906 C 17.640625 9.222656 17.214844 9.191406 16.933594 9.433594 L 12.878906 12.933594 L 2.316406 12.933594 C 2.136719 12.933594 1.964844 13.003906 1.839844 13.132812 L 0.195312 14.800781 C -0.0664062 15.0625 -0.0625 15.488281 0.199219 15.75 C 0.464844 16.011719 0.890625 16.007812 1.148438 15.742188 Z M 1.148438 15.742188 "/>
    <path style=" stroke:none;fill-rule:nonzero;fill:rgb(0%,0%,0%);fill-opacity:1;" d="M 3.308594 6 L 5.320312 6 C 5.320312 6 6.054688 2.101562 9.347656 2.101562 C 4.40625 2.101562 3.308594 6 3.308594 6 Z M 3.308594 6 "/>
    <path style=" stroke:none;fill-rule:nonzero;fill:rgb(0%,0%,0%);fill-opacity:1;" d="M 9.347656 2.101562 C 12.640625 2.101562 13.371094 6 13.371094 6 L 15.382812 6 C 15.382812 6 14.285156 2.101562 9.347656 2.101562 Z M 9.347656 2.101562 "/>
    <path style=" stroke:none;fill-rule:nonzero;fill:rgb(0%,0%,0%);fill-opacity:1;" d="M 7.332031 6 L 11.359375 6 C 11.359375 6 10.992188 2.101562 9.34375 2.101562 C 7.699219 2.101562 7.332031 6 7.332031 6 Z M 7.332031 6 "/>
    <path style=" stroke:none;fill-rule:nonzero;fill:rgb(0%,0%,0%);fill-opacity:1;" d="M 9.09375 5.796875 L 9.597656 5.796875 L 9.597656 13.601562 L 9.09375 13.601562 Z M 9.09375 5.796875 "/>
  </g>
</svg>