<?xml version="1.0" encoding="utf-8"?>
<!-- Generator: Adobe Illustrator 15.1.0, SVG Export Plug-In . SVG Version: 6.00 Build 0)  -->
<!DOCTYPE svg PUBLIC "-//W3C//DTD SVG 1.1//EN" "http://www.w3.org/Graphics/SVG/1.1/DTD/svg11.dtd">
<svg version="1.1" id="Layer_1" xmlns="http://www.w3.org/2000/svg" xmlns:xlink="http://www.w3.org/1999/xlink" x="0px" y="0px"
	 width="24px" height="24px" viewBox="0 0 24 24" enable-background="new 0 0 24 24" xml:space="preserve">
<path d="M12.848,21.403l-2.059,0.799c0.126,0.581,0.695,0.955,1.279,0.837c0.59-0.119,0.971-0.694,0.852-1.284L12.848,21.403z
	 M12.199,18.197l-1.954,1.329l0.053,0.264l2.075-0.732L12.199,18.197z M12.707,20.708l-2.189,0.167l0.184,0.906l2.061-0.8
	L12.707,20.708z M12.458,19.479l-2.074,0.732l0.049,0.241l2.189-0.167L12.458,19.479z M17.017,12.271
	c0.095-0.124,0.161-0.272,0.184-0.438c0.07-0.517-0.291-0.992-0.808-1.063c-2.861-0.392-2.952-0.906-3.291-3.295
	c-0.006-0.039-0.018-0.074-0.027-0.11c-0.072-0.755-0.667-1.376-1.287-1.677c0,0-0.234-0.128-0.502-0.18
	c-0.256-0.048-0.553-0.05-0.553-0.05l-0.007,0C9.883,5.48,8.892,5.95,8.683,6.927l-1.125,5.248
	c-0.146,0.682,0.147,1.293,0.629,1.724L6.81,21.824c-0.117,0.671,0.333,1.31,1.004,1.426c0.072,0.013,0.143,0.019,0.212,0.019
	c0.588,0,1.11-0.423,1.214-1.022l0.718-4.134l0.201,0.993l1.955-1.33l-0.753-3.732c0.27-0.229,0.476-0.536,0.561-0.933l0.425-1.987
	c0.555,0.648,1.407,1.07,2.795,1.352l0.045,0.147l0.502,0.066c0.132,0.081,0.285,0.127,0.447,0.134v8.821h-0.081v0.451
	c-0.137,0.103-0.227,0.265-0.227,0.448v0.443h1.13v-0.443c0-0.184-0.089-0.346-0.226-0.448v-0.451h-0.103v-8.94
	C16.802,12.604,16.938,12.452,17.017,12.271z M12.328,0.731c1.343,0,2.432,1.088,2.432,2.431s-1.089,2.432-2.432,2.432
	S9.897,4.505,9.897,3.162S10.985,0.731,12.328,0.731z"/>
</svg>
