<?xml version="1.0" encoding="UTF-8" standalone="yes"?>
<svg xmlns="http://www.w3.org/2000/svg" xmlns:xlink="http://www.w3.org/1999/xlink" width="24px" height="24px" viewBox="0 0 18 18" version="1.1">
  <g id="surface1">
    <path style=" stroke:none;fill-rule:nonzero;fill:rgb(0%,0%,0%);fill-opacity:1;" d="M 11.113281 16.441406 L 12.402344 16.441406 L 12.402344 16.671875 C 12.402344 17.035156 12.699219 17.328125 13.058594 17.328125 C 13.421875 17.328125 13.714844 17.035156 13.714844 16.671875 L 13.714844 16.441406 L 16.335938 16.441406 L 16.335938 16.671875 C 16.335938 17.035156 16.628906 17.328125 16.992188 17.328125 C 17.355469 17.328125 17.648438 17.035156 17.648438 16.671875 L 17.648438 16.441406 L 17.976562 16.441406 L 17.976562 15.253906 L 11.113281 15.253906 Z M 11.113281 16.441406 "/>
    <path style=" stroke:none;fill-rule:nonzero;fill:rgb(0%,0%,0%);fill-opacity:1;" d="M 11.113281 13.539062 L 17.976562 13.539062 L 17.976562 14.648438 L 11.113281 14.648438 Z M 11.113281 13.539062 "/>
    <path style=" stroke:none;fill-rule:nonzero;fill:rgb(0%,0%,0%);fill-opacity:1;" d="M 11.113281 7.9375 L 17.976562 7.9375 L 17.976562 11.21875 L 11.113281 11.21875 Z M 11.113281 7.9375 "/>
    <path style=" stroke:none;fill-rule:nonzero;fill:rgb(0%,0%,0%);fill-opacity:1;" d="M 11.113281 11.824219 L 17.976562 11.824219 L 17.976562 12.933594 L 11.113281 12.933594 Z M 11.113281 11.824219 "/>
    <path style=" stroke:none;fill-rule:nonzero;fill:rgb(0%,0%,0%);fill-opacity:1;" d="M 9.78125 16.441406 L 10.484375 16.441406 L 10.484375 2.597656 L 3.621094 2.597656 L 3.621094 5.25 L 1.046875 4.1875 C 0.660156 4.027344 0.21875 4.210938 0.0585938 4.59375 C -0.101562 4.980469 0.0820312 5.425781 0.46875 5.582031 L 3.621094 6.886719 L 3.621094 9.484375 L 1.046875 8.421875 C 0.660156 8.261719 0.21875 8.445312 0.0585938 8.832031 C -0.101562 9.214844 0.0820312 9.660156 0.46875 9.820312 L 3.621094 11.121094 L 3.621094 16.441406 L 4.234375 16.441406 L 4.234375 16.671875 C 4.234375 17.035156 4.53125 17.328125 4.890625 17.328125 C 5.253906 17.328125 5.546875 17.035156 5.546875 16.671875 L 5.546875 16.441406 L 8.472656 16.441406 L 8.472656 16.671875 C 8.472656 17.035156 8.765625 17.328125 9.128906 17.328125 C 9.488281 17.328125 9.78125 17.035156 9.78125 16.671875 Z M 9.78125 16.441406 "/>
    <path style=" stroke:none;fill-rule:nonzero;fill:rgb(0%,0%,0%);fill-opacity:1;" d="M 16.917969 0.835938 C 16.855469 0.679688 16.675781 0.609375 16.523438 0.671875 L 11.78125 2.632812 L 11.113281 2.632812 L 11.113281 5.835938 L 17.976562 5.835938 L 17.976562 4.234375 C 17.976562 3.347656 17.207031 2.632812 16.261719 2.632812 L 13.363281 2.632812 L 16.753906 1.230469 C 16.910156 1.167969 16.980469 0.992188 16.917969 0.835938 Z M 16.917969 0.835938 "/>
  </g>
</svg>