<?xml version="1.0" encoding="UTF-8" standalone="yes"?>
<svg xmlns="http://www.w3.org/2000/svg" xmlns:xlink="http://www.w3.org/1999/xlink" width="24px" height="24px" viewBox="0 0 18 18" version="1.1">
  <g id="surface1">
    <path style=" stroke:none;fill-rule:nonzero;fill:rgb(0%,0%,0%);fill-opacity:1;" d="M 17.496094 0.0820312 L 8.824219 0.0820312 C 8.488281 0.0820312 8.210938 0.359375 8.210938 0.699219 L 8.210938 4.976562 C 8.210938 5.316406 8.488281 5.59375 8.824219 5.59375 L 10.070312 5.59375 L 10.070312 16.351562 C 10.070312 16.648438 10.28125 16.902344 10.574219 16.957031 L 13.050781 17.40625 C 13.085938 17.414062 13.125 17.417969 13.160156 17.417969 C 13.195312 17.417969 13.234375 17.414062 13.269531 17.40625 L 15.746094 16.957031 C 16.039062 16.902344 16.253906 16.648438 16.253906 16.351562 L 16.253906 5.59375 L 17.496094 5.59375 C 17.835938 5.59375 18.109375 5.316406 18.109375 4.976562 L 18.109375 0.699219 C 18.113281 0.359375 17.835938 0.0820312 17.496094 0.0820312 Z M 10.070312 4.363281 L 9.441406 4.363281 L 9.441406 1.316406 L 10.070312 1.316406 Z M 13.160156 16.175781 L 11.300781 15.835938 L 11.300781 14.324219 L 14.679688 15.898438 Z M 15.023438 14.703125 L 11.300781 12.96875 L 11.300781 12.164062 L 15.023438 13.898438 Z M 15.023438 12.539062 L 11.300781 10.804688 L 11.300781 9.890625 L 15.023438 11.628906 Z M 15.023438 10.269531 L 11.300781 8.535156 L 11.300781 7.40625 L 15.023438 9.140625 Z M 15.023438 7.785156 L 11.300781 6.050781 L 11.300781 5.59375 L 15.023438 5.59375 Z M 16.882812 4.363281 L 11.300781 4.363281 L 11.300781 1.316406 L 16.882812 1.316406 Z M 16.882812 4.363281 "/>
    <path style=" stroke:none;fill-rule:nonzero;fill:rgb(0%,0%,0%);fill-opacity:1;" d="M 7.496094 9.773438 C 7.386719 9.585938 7.183594 9.464844 6.960938 9.464844 L 2.730469 9.464844 C 2.511719 9.464844 2.308594 9.582031 2.199219 9.773438 L 0.0820312 13.4375 C -0.0273438 13.628906 -0.0273438 13.863281 0.0820312 14.054688 L 2.199219 17.71875 C 2.308594 17.910156 2.511719 18.027344 2.730469 18.027344 L 6.960938 18.027344 C 7.183594 18.027344 7.386719 17.910156 7.496094 17.71875 L 9.613281 14.054688 C 9.722656 13.863281 9.722656 13.628906 9.613281 13.4375 Z M 6.609375 16.796875 L 3.085938 16.796875 L 1.324219 13.746094 L 3.085938 10.699219 L 6.605469 10.699219 L 8.367188 13.746094 Z M 6.609375 16.796875 "/>
    <path style=" stroke:none;fill-rule:nonzero;fill:rgb(0%,0%,0%);fill-opacity:1;" d="M 4.847656 11.566406 C 3.585938 11.566406 2.558594 12.59375 2.558594 13.855469 C 2.558594 15.121094 3.585938 16.144531 4.847656 16.144531 C 6.109375 16.144531 7.136719 15.121094 7.136719 13.855469 C 7.136719 12.59375 6.109375 11.566406 4.847656 11.566406 Z M 4.847656 14.914062 C 4.261719 14.914062 3.789062 14.441406 3.789062 13.855469 C 3.789062 13.273438 4.261719 12.796875 4.847656 12.796875 C 5.429688 12.796875 5.90625 13.273438 5.90625 13.855469 C 5.90625 14.441406 5.429688 14.914062 4.847656 14.914062 Z M 4.847656 14.914062 "/>
  </g>
</svg>