<?xml version="1.0" encoding="utf-8"?>
<!-- Generator: Adobe Illustrator 15.1.0, SVG Export Plug-In . SVG Version: 6.00 Build 0)  -->
<!DOCTYPE svg PUBLIC "-//W3C//DTD SVG 1.1//EN" "http://www.w3.org/Graphics/SVG/1.1/DTD/svg11.dtd">
<svg version="1.1" id="Layer_1" xmlns="http://www.w3.org/2000/svg" xmlns:xlink="http://www.w3.org/1999/xlink" x="0px" y="0px"
	 width="24px" height="24px" viewBox="0 0 24 24" enable-background="new 0 0 24 24" xml:space="preserve">
<path d="M4.076,19.402V4.182h12.293v12.783l2.342-1.935V3.012c0-0.646-0.523-1.171-1.17-1.171H2.905
	c-0.646,0-1.171,0.524-1.171,1.171v17.562c0,0.646,0.524,1.17,1.171,1.17h10.217l-1.655-2.341H4.076z M22.082,14.429
	c-0.216-0.204-0.547-0.213-0.774-0.026l-5.37,4.438l-3.578-2.146c-0.237-0.143-0.542-0.101-0.73,0.104
	C11.44,17,11.42,17.307,11.58,17.533l3.878,5.488c0.108,0.153,0.285,0.245,0.473,0.247c0.002,0,0.004,0,0.006,0
	c0.186,0,0.361-0.088,0.472-0.239l5.745-7.83C22.326,14.962,22.297,14.632,22.082,14.429z M13.735,5.938H6.71
	c-0.646,0-1.17,0.524-1.17,1.171S6.063,8.28,6.71,8.28h7.024c0.646,0,1.171-0.524,1.171-1.171S14.382,5.938,13.735,5.938z
	 M13.735,9.45H6.71c-0.646,0-1.17,0.524-1.17,1.171s0.523,1.171,1.17,1.171h7.024c0.646,0,1.171-0.524,1.171-1.171
	C14.906,9.975,14.382,9.45,13.735,9.45z M13.735,12.963H6.71c-0.646,0-1.17,0.524-1.17,1.171s0.523,1.171,1.17,1.171h7.024
	c0.646,0,1.171-0.524,1.171-1.171C14.906,13.487,14.382,12.963,13.735,12.963z"/>
</svg>
