<?xml version="1.0" encoding="utf-8"?>
<!-- Generator: Adobe Illustrator 15.1.0, SVG Export Plug-In . SVG Version: 6.00 Build 0)  -->
<!DOCTYPE svg PUBLIC "-//W3C//DTD SVG 1.1//EN" "http://www.w3.org/Graphics/SVG/1.1/DTD/svg11.dtd">
<svg version="1.1" id="Layer_1" xmlns="http://www.w3.org/2000/svg" xmlns:xlink="http://www.w3.org/1999/xlink" x="0px" y="0px"
	 width="24px" height="24px" viewBox="0 0 24 24" enable-background="new 0 0 24 24" xml:space="preserve">
<path fill="#010002" d="M8.52,7.976c0.532,0,0.962,0.431,0.962,0.962c0,0.532-0.43,0.963-0.962,0.963
	c-0.532,0-0.962-0.431-0.962-0.963C7.558,8.408,7.988,7.976,8.52,7.976z M8.559,11.597c1.294,0,2.344,1.048,2.344,2.343
	c0,1.294-1.05,2.344-2.344,2.344c-1.295,0-2.343-1.05-2.343-2.344C6.215,12.646,7.264,11.597,8.559,11.597z M14.85,12.85
	c0.585,0,1.061,0.474,1.061,1.06c0,0.585-0.476,1.06-1.061,1.06c-0.587,0-1.06-0.475-1.06-1.06
	C13.79,13.323,14.263,12.85,14.85,12.85z M22.166,15.834l0.02-0.007c-1.05-3.132-2.818-6.079-5.312-8.574
	c-2.435-2.431-5.294-4.165-8.34-5.227C8.288,1.911,8.016,1.841,7.726,1.841c-1.056,0-1.913,0.855-1.913,1.913
	c0,0.854,0.566,1.57,1.339,1.815L1.877,22.25l16.659-5.269c0.242,0.779,0.961,1.35,1.818,1.35c1.055,0,1.911-0.857,1.911-1.913
	C22.266,16.214,22.226,16.02,22.166,15.834z M14.127,17.358c-0.063-0.074-0.127-0.153-0.197-0.225c-1.184-1.184-3.102-1.184-4.288,0
	c-0.536,0.537-0.828,1.222-0.879,1.92l-5.4,1.708L8.005,6.083c2.262,0.76,4.392,2.037,6.195,3.84
	c1.806,1.802,3.082,3.933,3.839,6.197C18.041,16.12,14.127,17.358,14.127,17.358z"/>
</svg>
