<?xml version="1.0" encoding="UTF-8" standalone="no"?>
<!-- Generated by IcoMoon.io -->

<svg
   xmlns:dc="http://purl.org/dc/elements/1.1/"
   xmlns:cc="http://creativecommons.org/ns#"
   xmlns:rdf="http://www.w3.org/1999/02/22-rdf-syntax-ns#"
   xmlns:svg="http://www.w3.org/2000/svg"
   xmlns="http://www.w3.org/2000/svg"
   xmlns:sodipodi="http://sodipodi.sourceforge.net/DTD/sodipodi-0.dtd"
   xmlns:inkscape="http://www.inkscape.org/namespaces/inkscape"
   version="1.1"
   width="24"
   height="24"
   viewBox="0 0 24 24"
   id="svg3016"
   inkscape:version="0.48.5 r10040"
   sodipodi:docname="podium.svg">
  <metadata
     id="metadata3024">
    <rdf:RDF>
      <cc:Work
         rdf:about="">
        <dc:format>image/svg+xml</dc:format>
        <dc:type
           rdf:resource="http://purl.org/dc/dcmitype/StillImage" />
      </cc:Work>
    </rdf:RDF>
  </metadata>
  <defs
     id="defs3022" />
  <sodipodi:namedview
     pagecolor="#ffffff"
     bordercolor="#666666"
     borderopacity="1"
     objecttolerance="10"
     gridtolerance="10"
     guidetolerance="10"
     inkscape:pageopacity="0"
     inkscape:pageshadow="2"
     inkscape:window-width="657"
     inkscape:window-height="480"
     id="namedview3020"
     showgrid="false"
     inkscape:zoom="7.375"
     inkscape:cx="12"
     inkscape:cy="16"
     inkscape:window-x="0"
     inkscape:window-y="27"
     inkscape:window-maximized="0"
     inkscape:current-layer="svg3016" />
  <path
     d="m 10.461017,0.4576271 c -0.7694918,0 -1.5389833,0.7694916 -1.5389833,1.5389831 0,0.7694915 0,1.538983 0,1.538983 H 7.3830507 L 2.7661015,8.1525424 v 3.0779656 h 4.6169492 l 1.538983,9.233899 -3.0779661,1.538983 v 1.538983 H 18.155932 V 22.00339 l -3.077967,-1.538983 1.538983,-9.233899 h 4.616951 V 8.1525424 L 16.616948,3.5355932 h -6.155931 v -1.538983 c 0,0 0.337037,0 0.769491,0 0.432454,0 0.769492,-0.4086 0.769492,-0.7694915 0,-0.36089156 -0.384746,-0.7694916 -0.769492,-0.7694916 -0.384746,0 0,0 -0.769491,0 z m 0,20.0067799 -1.2742782,-7.694915 h 2.8378842 l -0.02385,7.694915 H 10.461786 z M 5.0745761,8.1525424 8.1525422,5.0745763 h 0.7694915 v 1.538983 h 1.5389833 v -1.538983 h 5.38644 l 3.077966,3.0779661 H 5.0745761 z"
     id="path3018"
     inkscape:connector-curvature="0"
     style="fill:#444444" />
</svg>
