<?xml version="1.0" encoding="UTF-8" standalone="yes"?>
<svg xmlns="http://www.w3.org/2000/svg" xmlns:xlink="http://www.w3.org/1999/xlink" width="24px" height="24px" viewBox="0 0 18 18" version="1.1">
  <g id="surface1">
    <path style=" stroke:none;fill-rule:nonzero;fill:rgb(0.392157%,0%,0.784314%);fill-opacity:1;" d="M 9 0 C 5.511719 0 2.683594 2.828125 2.683594 6.316406 C 2.683594 6.582031 2.703125 6.84375 2.738281 7.101562 C 3.277344 12.035156 8.589844 17.722656 8.589844 17.722656 C 8.683594 17.828125 8.773438 17.894531 8.863281 17.941406 L 8.867188 17.945312 L 9.042969 18 L 9.222656 17.945312 L 9.226562 17.941406 C 9.3125 17.894531 9.40625 17.824219 9.5 17.722656 C 9.5 17.722656 14.734375 12.027344 15.261719 7.089844 C 15.292969 6.835938 15.316406 6.578125 15.316406 6.316406 C 15.316406 2.828125 12.488281 0 9 0 Z M 9 10.378906 C 6.757812 10.378906 4.9375 8.554688 4.9375 6.316406 C 4.9375 4.078125 6.757812 2.253906 9 2.253906 C 11.238281 2.253906 13.0625 4.078125 13.0625 6.316406 C 13.0625 8.554688 11.238281 10.378906 9 10.378906 Z M 9 10.378906 "/>
  </g>
</svg>