<?xml version="1.0" encoding="UTF-8" standalone="yes"?>
<svg xmlns="http://www.w3.org/2000/svg" xmlns:xlink="http://www.w3.org/1999/xlink" width="24px" height="24px" viewBox="0 0 18 18" version="1.1">
  <g id="surface1">
    <path style=" stroke:none;fill-rule:nonzero;fill:rgb(0%,0%,0%);fill-opacity:1;" d="M 5.726562 2.347656 L 12.335938 2.347656 L 12.335938 0.429688 C 12.335938 0.195312 12.140625 0 11.90625 0 L 5.257812 0 C 5.101562 0 4.945312 0.078125 4.867188 0.234375 C 4.789062 0.390625 4.789062 0.625 4.867188 0.78125 Z M 5.726562 2.347656 "/>
    <path style=" stroke:none;fill-rule:nonzero;fill:rgb(0%,0%,0%);fill-opacity:1;" d="M 5.257812 5.472656 L 6 5.472656 C 6.039062 7.195312 7.449219 8.5625 9.167969 8.5625 C 10.886719 8.5625 12.296875 7.195312 12.335938 5.472656 L 12.335938 3.519531 L 5.726562 3.519531 L 4.90625 4.925781 C 4.828125 5.042969 4.828125 5.121094 4.90625 5.277344 C 4.984375 5.394531 5.101562 5.472656 5.257812 5.472656 Z M 5.257812 5.472656 "/>
    <path style=" stroke:none;fill-rule:nonzero;fill:rgb(0%,0%,0%);fill-opacity:1;" d="M 12.492188 9.8125 L 6.429688 17.984375 L 14.210938 17.984375 C 14.445312 17.984375 14.640625 17.789062 14.640625 17.554688 L 14.640625 12.472656 C 14.679688 11.183594 13.742188 10.085938 12.492188 9.8125 Z M 12.492188 9.8125 "/>
    <path style=" stroke:none;fill-rule:nonzero;fill:rgb(0%,0%,0%);fill-opacity:1;" d="M 6.039062 9.773438 C 4.554688 9.773438 3.34375 10.984375 3.34375 12.472656 L 3.34375 17.515625 C 3.34375 17.75 3.539062 17.945312 3.773438 17.945312 L 4.515625 17.945312 L 10.613281 9.734375 L 6.039062 9.734375 Z M 6.039062 9.773438 "/>
  </g>
</svg>