<?xml version="1.0" encoding="utf-8"?>
<!-- Generator: Adobe Illustrator 15.1.0, SVG Export Plug-In . SVG Version: 6.00 Build 0)  -->
<!DOCTYPE svg PUBLIC "-//W3C//DTD SVG 1.1//EN" "http://www.w3.org/Graphics/SVG/1.1/DTD/svg11.dtd">
<svg version="1.1" id="Layer_1" xmlns="http://www.w3.org/2000/svg" xmlns:xlink="http://www.w3.org/1999/xlink" x="0px" y="0px"
	 width="24px" height="24px" viewBox="0 0 24 24" enable-background="new 0 0 24 24" xml:space="preserve">
<path fill-rule="evenodd" clip-rule="evenodd" d="M15.334,2.953c0,0.933,0,1.867,0,2.799c0.931,0,1.864,0,2.797,0
	c0,0.424,0,0.849,0,1.272c-0.892,0-1.781,0-2.67,0c-0.371,0.692,0.108,2.23-0.257,2.926c-0.338,0-0.678,0-1.019,0
	c-0.278-0.738-0.055-1.98-0.127-2.926c-0.943-0.072-2.187,0.152-2.925-0.128c0-0.338,0-0.677,0-1.017
	c0.738-0.28,1.981-0.055,2.925-0.128C14.122,4.528,13.571,2.06,15.334,2.953z M3.755,7.534c0.454,0.89,0.79,2.04,1.017,3.308
	c0.225,1.254,0.007,2.827,0.891,3.563c0.98-1.012,0.93-3.447,0.764-5.346C6.289,7.484,5.813,5.811,5.027,5.242
	C4.314,5.719,4.065,6.656,3.755,7.534z M9.607,8.933c-0.472,0.716-1.281,1.093-1.654,1.91c0.73,0.456,1.072,1.302,1.908,1.653
	c0.751-0.435,1.346-1.029,1.781-1.782C10.983,10.101,10.582,9.23,9.607,8.933z M16.858,10.586c-0.164,1.489,0.525,3.305-0.127,4.453
	c-1.128,0.544-1.369-0.696-1.909-1.143c-0.663,0.01-0.292,1.063-0.891,1.143c-0.508-0.041-0.705,0.228-1.272,0.127
	c-0.295-0.298-0.149-1.034-0.635-1.145c-0.466,0.172-0.189,1.084-0.764,1.145c-0.875,0.155-0.318-1.123-1.018-1.145
	c-0.464,0.216-0.202,1.154-0.891,1.145c-0.836-0.053-1.105-0.673-1.653-1.017c-0.296,0.595-0.594,1.187-0.89,1.781
	c0.491,0.316,0.919,0.692,1.145,1.273c-0.586,1.044-3.783,1.13-4.198-0.128c-0.065-0.59,0.347-1.184,0-1.656
	c-1.296,0.375-1.334,2.805-0.764,3.947c1.575,1.535,6.354,1.27,5.853-1.91c1.503-0.477,1.993,0.284,3.309-0.381
	c0.394,0.907,2.46,0.535,2.799-0.129c0.481,1.006,2.504,0.698,2.926-0.125c0.139,0.411,0.621,0.479,0.891,0.761
	c3.64,0.998,3.698-4.136,2.033-5.469c-0.347,0.542-0.83,0.95-1.015,1.654c0.269,0.452,0.771,0.67,0.888,1.271
	c-0.672,0.172-1.839,0.284-2.033-0.382c-0.085-1.696,0.169-3.73-0.128-5.216C18.011,9.874,17.403,10.197,16.858,10.586z
	 M19.53,18.985c0.086,0.295,0.426,0.34,0.509,0.633c0.493-0.015,0.502-0.514,0.889-0.633c0.214,0.255,0.345,0.59,0.767,0.633
	c0.079-0.345,0.529-0.316,0.508-0.761c-0.087-0.297-0.422-0.342-0.508-0.638c-0.495,0.018-0.505,0.517-0.894,0.638
	C20.534,18.105,19.688,18.135,19.53,18.985z M13.424,19.238c0.211,0.253,0.342,0.591,0.762,0.635
	c0.297-0.085,0.342-0.421,0.637-0.506c0.346,0.076,0.317,0.531,0.763,0.506c0.132-0.332,0.507-0.427,0.638-0.762
	c-0.265-0.159-0.478-0.371-0.638-0.637c-0.499-0.036-0.386,0.545-0.889,0.511c-0.207-0.177-0.403-0.361-0.638-0.511
	C13.868,18.75,13.423,18.772,13.424,19.238z M20.167,20.256c0.346,0.079,0.316,0.53,0.761,0.509c0.258-0.21,0.595-0.341,0.639-0.764
	C21.176,19.372,20.314,19.413,20.167,20.256z"/>
</svg>
