<?xml version="1.0" encoding="utf-8"?>
<!-- Generator: Adobe Illustrator 15.1.0, SVG Export Plug-In . SVG Version: 6.00 Build 0)  -->
<!DOCTYPE svg PUBLIC "-//W3C//DTD SVG 1.1//EN" "http://www.w3.org/Graphics/SVG/1.1/DTD/svg11.dtd">
<svg version="1.1" id="Layer_1" xmlns="http://www.w3.org/2000/svg" xmlns:xlink="http://www.w3.org/1999/xlink" x="0px" y="0px"
	 width="24px" height="24px" viewBox="0 0 24 24" enable-background="new 0 0 24 24" xml:space="preserve">
<path d="M15.24,5.678H8.682V3.747c0-0.237,0.194-0.434,0.427-0.434h6.598c0.156,0,0.311,0.079,0.389,0.237
	c0.076,0.157,0.076,0.394,0,0.552L15.24,5.678z M15.707,8.831h-0.736c-0.039,1.733-1.438,3.113-3.145,3.113
	c-1.708,0-3.105-1.379-3.144-3.113l0,0V6.859h6.559l0.816,1.419c0.078,0.118,0.078,0.197,0,0.355
	C15.979,8.752,15.863,8.831,15.707,8.831z M8.526,13.205l6.017,8.236H6.818c-0.232,0-0.427-0.197-0.427-0.434v-5.123
	C6.353,14.584,7.284,13.481,8.526,13.205z M14.932,13.165c1.475,0,2.678,1.222,2.678,2.72v5.084c0,0.236-0.195,0.433-0.428,0.433
	h-0.738l-6.054-8.275h4.542V13.165z"/>
</svg>
