<?xml version="1.0" encoding="UTF-8" standalone="no"?>
<!-- Generator: Adobe Illustrator 16.0.0, SVG Export Plug-In . SVG Version: 6.00 Build 0)  -->

<svg
   xmlns:dc="http://purl.org/dc/elements/1.1/"
   xmlns:cc="http://creativecommons.org/ns#"
   xmlns:rdf="http://www.w3.org/1999/02/22-rdf-syntax-ns#"
   xmlns:svg="http://www.w3.org/2000/svg"
   xmlns="http://www.w3.org/2000/svg"
   xmlns:sodipodi="http://sodipodi.sourceforge.net/DTD/sodipodi-0.dtd"
   xmlns:inkscape="http://www.inkscape.org/namespaces/inkscape"
   version="1.1"
   id="Capa_1"
   x="0px"
   y="0px"
   width="24"
   height="24"
   viewBox="0 0 24.000001 24.000001"
   xml:space="preserve"
   inkscape:version="0.48.5 r10040"
   sodipodi:docname="police.svg"><metadata
     id="metadata3972"><rdf:RDF><cc:Work
         rdf:about=""><dc:format>image/svg+xml</dc:format><dc:type
           rdf:resource="http://purl.org/dc/dcmitype/StillImage" /><dc:title></dc:title></cc:Work></rdf:RDF></metadata><defs
     id="defs3970" /><sodipodi:namedview
     pagecolor="#ffffff"
     bordercolor="#666666"
     borderopacity="1"
     objecttolerance="10"
     gridtolerance="10"
     guidetolerance="10"
     inkscape:pageopacity="0"
     inkscape:pageshadow="2"
     inkscape:window-width="657"
     inkscape:window-height="480"
     id="namedview3968"
     showgrid="false"
     inkscape:zoom="5.1115445"
     inkscape:cx="23.084999"
     inkscape:cy="23.084999"
     inkscape:window-x="0"
     inkscape:window-y="27"
     inkscape:window-maximized="0"
     inkscape:current-layer="Capa_1" /><g
     id="g3924"
     transform="matrix(0.51136509,0,0,0.51136509,0.19528288,0.1951374)"><g
       id="g3926"><path
         d="m 9.787,5.615 h 10.839 c 0.536,0 1.017,-0.34 1.216,-0.837 L 23.556,0.486 C 23.599,0.379 23.586,0.253 23.521,0.157 23.456,0.061 23.348,0 23.232,0 H 9.787 C 9.064,0 8.501,0.586 8.501,1.31 v 2.967 c 0.001,0.724 0.563,1.338 1.286,1.338 z"
         id="path3928"
         inkscape:connector-curvature="0" /><path
         d="m 15.264,16.296 c 3.486,0 6.36,-2.647 6.752,-6.035 h 1.229 c 0.135,0 0.259,-0.059 0.316,-0.182 C 23.619,9.956 23.6,9.831 23.512,9.727 L 21.809,7.722 C 21.809,7.721 9.799,7.744 9.799,7.744 9.126,7.744 8.561,8.23 8.496,8.9 8.475,9.109 8.465,9.309 8.465,9.524 c 0,3.755 3.043,6.772 6.799,6.772 z"
         id="path3930"
         inkscape:connector-curvature="0" /><path
         d="M 25.646,41.427 H 11.62 c -0.825,0 -1.494,-0.675 -1.494,-1.5 0,-0.825 0.668,-1.5 1.494,-1.5 h 9.869 c 0.201,0 0.385,-0.096 0.479,-0.274 0.093,-0.178 0.079,-0.385 -0.037,-0.549 0,0 -13.032,-18.646 -13.074,-18.756 L 8.205,18.841 C 6.364,18.823 4.853,20.292 4.82,22.133 L 4.468,41.501 c -0.016,0.842 0.306,1.653 0.894,2.257 0.587,0.604 1.391,0.945 2.232,0.952 -0.039,0.373 0.081,0.743 0.332,1.022 0.25,0.278 0.608,0.438 0.982,0.438 h 15.764 c 0.374,0 0.73,-0.159 0.98,-0.438 0.25,-0.277 0.372,-0.648 0.333,-1.021 l -0.339,-3.284 z"
         id="path3932"
         inkscape:connector-curvature="0" /><path
         d="m 35.534,25.136 c -0.738,-0.062 -1.471,0.173 -2.036,0.653 L 31.279,27.67 23.425,19.851 C 22.797,19.226 21.947,18.874 21.06,18.874 H 12.467 L 24.64,36.268 c 0.063,0.092 0.183,0.129 0.288,0.09 0.104,-0.039 0.171,-0.145 0.159,-0.256 l -0.792,-7.58 3.958,4.041 c 0.797,0.813 1.864,1.229 2.935,1.229 0.941,0 1.886,-0.319 2.65,-0.967 l 3.271,-2.774 c 0.565,-0.479 0.917,-1.163 0.979,-1.901 0.061,-0.738 -0.175,-1.471 -0.653,-2.035 -0.479,-0.567 -1.162,-0.92 -1.901,-0.979 z"
         id="path3934"
         inkscape:connector-curvature="0" /><path
         d="m 39.189,8.228 h -5.92 c -1.385,0 -2.505,1.123 -2.505,2.508 v 8.922 c 0,1.385 1.12,2.508 2.505,2.508 h 0.294 c 0.06,0.473 0.299,0.904 0.671,1.188 0.432,0.33 0.986,0.418 1.491,0.241 0,0 4.269,-1.548 4.392,-1.604 0.987,-0.458 1.585,-1.273 1.585,-2.332 V 10.737 C 41.701,9.351 40.574,8.228 39.189,8.228 z m -4.499,2.807 c -0.675,0.238 -1.119,0.907 -1.119,1.659 v 7.535 h -0.334 c -0.285,0 -0.537,-0.25 -0.537,-0.535 v -8.928 c 0,-0.284 0.252,-0.506 0.537,-0.506 h 3.638 l -2.185,0.775 z"
         id="path3936"
         inkscape:connector-curvature="0" /></g></g><g
     id="g3938"
     transform="translate(0,-22.169999)" /><g
     id="g3940"
     transform="translate(0,-22.169999)" /><g
     id="g3942"
     transform="translate(0,-22.169999)" /><g
     id="g3944"
     transform="translate(0,-22.169999)" /><g
     id="g3946"
     transform="translate(0,-22.169999)" /><g
     id="g3948"
     transform="translate(0,-22.169999)" /><g
     id="g3950"
     transform="translate(0,-22.169999)" /><g
     id="g3952"
     transform="translate(0,-22.169999)" /><g
     id="g3954"
     transform="translate(0,-22.169999)" /><g
     id="g3956"
     transform="translate(0,-22.169999)" /><g
     id="g3958"
     transform="translate(0,-22.169999)" /><g
     id="g3960"
     transform="translate(0,-22.169999)" /><g
     id="g3962"
     transform="translate(0,-22.169999)" /><g
     id="g3964"
     transform="translate(0,-22.169999)" /><g
     id="g3966"
     transform="translate(0,-22.169999)" /></svg>