<?xml version="1.0" encoding="UTF-8" standalone="yes"?>
<svg xmlns="http://www.w3.org/2000/svg" xmlns:xlink="http://www.w3.org/1999/xlink" width="24px" height="24px" viewBox="0 0 18 18" version="1.1">
  <g id="surface1">
    <path style=" stroke:none;fill-rule:nonzero;fill:rgb(0%,0%,0%);fill-opacity:1;" d="M 14.976562 8.664062 C 14.535156 8.582031 13.78125 8.582031 12.886719 8.414062 L 13.007812 9.152344 C 13.027344 9.277344 12.945312 9.398438 12.816406 9.417969 C 12.804688 9.417969 12.792969 9.421875 12.777344 9.421875 C 12.667969 9.421875 12.570312 9.339844 12.550781 9.226562 L 12.421875 8.460938 C 12.410156 8.375 12.332031 8.292969 12.25 8.269531 C 12.203125 8.257812 12.15625 8.242188 12.109375 8.230469 C 12.027344 8.207031 11.972656 8.253906 11.988281 8.339844 L 12.050781 8.726562 C 12.074219 8.851562 11.988281 8.972656 11.863281 8.992188 C 11.847656 8.992188 11.835938 8.996094 11.824219 8.996094 C 11.710938 8.996094 11.613281 8.914062 11.59375 8.800781 L 11.488281 8.164062 C 11.472656 8.082031 11.398438 7.988281 11.320312 7.953125 C 11.265625 7.933594 11.210938 7.90625 11.152344 7.882812 C 11.074219 7.847656 11.027344 7.886719 11.039062 7.96875 L 11.09375 8.296875 C 11.117188 8.425781 11.03125 8.542969 10.90625 8.566406 C 10.890625 8.566406 10.878906 8.566406 10.867188 8.566406 C 10.753906 8.566406 10.660156 8.488281 10.640625 8.375 L 10.527344 7.695312 C 10.511719 7.613281 10.441406 7.507812 10.367188 7.464844 C 10.300781 7.421875 10.230469 7.378906 10.160156 7.332031 C 10.089844 7.285156 10.046875 7.3125 10.058594 7.398438 L 10.136719 7.871094 C 10.160156 8 10.074219 8.117188 9.949219 8.136719 C 9.933594 8.140625 9.921875 8.140625 9.910156 8.140625 C 9.800781 8.140625 9.703125 8.0625 9.683594 7.949219 L 9.488281 6.769531 C 9.441406 6.71875 9.398438 6.667969 9.367188 6.621094 C 9.082031 6.246094 8.511719 5.554688 8.042969 5.390625 C 7.554688 5.214844 7.160156 5.570312 7.074219 5.898438 C 7.03125 6.066406 7.105469 6.339844 7.160156 6.5 C 7.191406 6.601562 7.242188 6.710938 7.324219 6.800781 C 7.433594 6.929688 7.476562 7.066406 7.347656 7.171875 C 7.042969 7.433594 6.46875 7.871094 5.816406 8.109375 C 4.53125 8.585938 4.308594 7.929688 4.308594 7.929688 C 4.308594 7.929688 4.023438 7.011719 3.570312 6.679688 C 3.433594 6.578125 3.148438 6.542969 2.980469 6.582031 C 2.921875 6.597656 2.871094 6.617188 2.816406 6.644531 C 2.917969 7.238281 3.363281 8.667969 5.308594 9.605469 C 7.832031 10.824219 12.859375 11.066406 13.804688 11.101562 C 13.886719 11.105469 13.890625 11.121094 13.804688 11.136719 C 13.191406 11.238281 10.8125 11.589844 8.449219 11.300781 C 5.542969 10.941406 2.867188 10.105469 2.164062 7.753906 C 2.152344 7.804688 2.136719 7.851562 2.125 7.894531 C 2.011719 8.25 1.90625 8.484375 1.882812 9.261719 C 1.878906 9.429688 1.808594 9.6875 1.75 9.847656 C 1.679688 10.039062 1.601562 10.320312 1.59375 10.664062 C 1.582031 11.011719 1.582031 11.308594 1.585938 11.511719 C 1.585938 11.683594 1.695312 11.914062 1.839844 12 C 1.945312 12.0625 2.078125 12.128906 2.230469 12.167969 C 2.398438 12.210938 2.652344 12.285156 2.8125 12.335938 C 2.882812 12.359375 2.964844 12.378906 3.058594 12.386719 C 3.226562 12.40625 3.425781 12.382812 3.5 12.386719 C 3.574219 12.390625 3.632812 12.429688 3.632812 12.472656 C 3.632812 12.515625 3.722656 12.554688 3.832031 12.554688 C 3.945312 12.554688 4.0625 12.507812 4.101562 12.449219 C 4.140625 12.394531 4.21875 12.347656 4.277344 12.347656 C 4.332031 12.347656 4.378906 12.394531 4.378906 12.449219 C 4.378906 12.507812 4.460938 12.554688 4.566406 12.554688 C 4.667969 12.554688 4.78125 12.503906 4.816406 12.441406 C 4.851562 12.382812 4.921875 12.332031 4.976562 12.332031 C 5.027344 12.332031 5.105469 12.382812 5.144531 12.441406 C 5.183594 12.503906 5.289062 12.554688 5.378906 12.554688 C 5.472656 12.554688 5.578125 12.507812 5.613281 12.449219 C 5.648438 12.394531 5.730469 12.394531 5.796875 12.449219 C 5.863281 12.507812 6.019531 12.554688 6.144531 12.554688 C 6.269531 12.554688 6.382812 12.515625 6.402344 12.46875 C 6.417969 12.421875 6.484375 12.386719 6.550781 12.386719 C 6.613281 12.386719 6.691406 12.421875 6.726562 12.46875 C 6.765625 12.515625 6.886719 12.535156 7.003906 12.507812 C 7.121094 12.484375 7.242188 12.410156 7.273438 12.347656 C 7.304688 12.285156 7.371094 12.273438 7.421875 12.320312 C 7.46875 12.371094 7.605469 12.425781 7.722656 12.445312 C 7.839844 12.460938 7.980469 12.441406 8.035156 12.398438 C 8.09375 12.355469 8.183594 12.328125 8.242188 12.339844 C 8.296875 12.351562 8.34375 12.402344 8.34375 12.457031 C 8.34375 12.507812 8.441406 12.554688 8.5625 12.554688 C 8.683594 12.554688 8.816406 12.523438 8.859375 12.488281 C 8.902344 12.453125 8.984375 12.433594 9.046875 12.441406 C 9.105469 12.453125 9.15625 12.492188 9.15625 12.527344 C 9.15625 12.5625 9.214844 12.589844 9.289062 12.589844 C 9.363281 12.589844 9.472656 12.566406 9.535156 12.539062 C 9.59375 12.511719 9.675781 12.492188 9.71875 12.5 C 9.761719 12.507812 9.796875 12.546875 9.796875 12.585938 C 9.796875 12.625 9.933594 12.65625 10.105469 12.65625 L 10.132812 12.65625 C 10.300781 12.65625 10.4375 12.609375 10.4375 12.550781 C 10.4375 12.496094 10.488281 12.449219 10.546875 12.449219 C 10.609375 12.449219 10.65625 12.496094 10.65625 12.550781 C 10.65625 12.609375 10.777344 12.65625 10.925781 12.65625 C 11.074219 12.65625 11.25 12.625 11.3125 12.585938 C 11.375 12.542969 11.472656 12.542969 11.523438 12.585938 C 11.578125 12.625 11.753906 12.65625 11.921875 12.65625 C 12.089844 12.65625 12.253906 12.613281 12.289062 12.566406 C 12.324219 12.515625 12.402344 12.460938 12.460938 12.441406 C 12.519531 12.425781 12.59375 12.453125 12.621094 12.5 C 12.648438 12.550781 12.808594 12.5625 12.976562 12.53125 L 13.023438 12.519531 C 13.191406 12.488281 13.34375 12.40625 13.367188 12.339844 C 13.386719 12.273438 13.4375 12.210938 13.476562 12.203125 C 13.515625 12.199219 13.582031 12.234375 13.621094 12.289062 C 13.664062 12.339844 13.792969 12.359375 13.90625 12.328125 C 14.019531 12.292969 14.125 12.1875 14.144531 12.089844 C 14.160156 11.992188 14.234375 11.890625 14.308594 11.863281 C 14.382812 11.839844 14.445312 11.878906 14.445312 11.949219 C 14.445312 12.019531 14.574219 12.027344 14.734375 11.96875 C 14.894531 11.90625 15.023438 11.800781 15.023438 11.730469 C 15.023438 11.660156 15.066406 11.585938 15.121094 11.5625 C 15.171875 11.542969 15.242188 11.550781 15.273438 11.582031 C 15.304688 11.613281 15.398438 11.589844 15.484375 11.53125 C 15.570312 11.46875 15.652344 11.375 15.664062 11.320312 C 15.679688 11.261719 15.808594 11.144531 15.933594 11.03125 C 16.191406 10.789062 16.539062 10.320312 16.371094 9.605469 C 16.113281 8.523438 15.921875 8.835938 14.976562 8.664062 Z M 14.976562 8.664062 "/>
  </g>
</svg>