<?xml version="1.0" encoding="UTF-8" standalone="yes"?>
<svg xmlns="http://www.w3.org/2000/svg" xmlns:xlink="http://www.w3.org/1999/xlink" width="24px" height="24px" viewBox="0 0 18 18" version="1.1">
  <g id="surface1">
    <path style=" stroke:none;fill-rule:nonzero;fill:rgb(0%,0%,0%);fill-opacity:1;" d="M 4.484375 4.953125 C 4.382812 5.070312 4.394531 5.246094 4.511719 5.347656 C 4.566406 5.394531 4.628906 5.414062 4.695312 5.414062 C 4.773438 5.414062 4.851562 5.382812 4.90625 5.320312 C 4.949219 5.269531 5.957031 4.085938 5.191406 3.125 C 4.769531 2.59375 5.082031 2.285156 5.148438 2.226562 C 5.269531 2.128906 5.289062 1.957031 5.191406 1.835938 C 5.097656 1.714844 4.921875 1.695312 4.800781 1.792969 C 4.507812 2.023438 4.121094 2.675781 4.753906 3.472656 C 5.230469 4.070312 4.492188 4.945312 4.484375 4.953125 Z M 6.925781 4.953125 C 6.824219 5.070312 6.839844 5.246094 6.953125 5.347656 C 7.007812 5.394531 7.070312 5.414062 7.136719 5.414062 C 7.214844 5.414062 7.292969 5.382812 7.347656 5.320312 C 7.390625 5.269531 8.398438 4.085938 7.632812 3.125 C 7.210938 2.59375 7.523438 2.285156 7.589844 2.226562 C 7.710938 2.128906 7.730469 1.957031 7.632812 1.835938 C 7.539062 1.714844 7.363281 1.695312 7.242188 1.792969 C 6.949219 2.023438 6.5625 2.675781 7.195312 3.472656 C 7.671875 4.070312 6.933594 4.945312 6.925781 4.953125 Z M 9.367188 4.953125 C 9.265625 5.070312 9.28125 5.246094 9.394531 5.347656 C 9.449219 5.394531 9.515625 5.414062 9.578125 5.414062 C 9.65625 5.414062 9.734375 5.382812 9.789062 5.320312 C 9.832031 5.269531 10.839844 4.085938 10.078125 3.125 C 9.652344 2.59375 9.964844 2.285156 10.035156 2.226562 C 10.152344 2.128906 10.171875 1.957031 10.078125 1.835938 C 9.980469 1.714844 9.804688 1.695312 9.683594 1.792969 C 9.390625 2.023438 9.003906 2.675781 9.636719 3.472656 C 10.113281 4.070312 9.375 4.945312 9.367188 4.953125 Z M 11.808594 4.953125 C 11.707031 5.070312 11.722656 5.246094 11.839844 5.347656 C 11.890625 5.394531 11.957031 5.414062 12.019531 5.414062 C 12.097656 5.414062 12.175781 5.382812 12.230469 5.320312 C 12.273438 5.269531 13.28125 4.085938 12.519531 3.125 C 12.09375 2.59375 12.40625 2.285156 12.476562 2.226562 C 12.59375 2.128906 12.613281 1.957031 12.515625 1.835938 C 12.421875 1.714844 12.246094 1.695312 12.125 1.792969 C 11.832031 2.023438 11.449219 2.675781 12.082031 3.472656 C 12.554688 4.070312 11.816406 4.945312 11.808594 4.953125 Z M 3.824219 16.269531 C 4.289062 16.269531 4.664062 15.894531 4.664062 15.429688 L 4.664062 7.28125 C 4.664062 6.816406 4.289062 6.441406 3.824219 6.441406 C 3.363281 6.441406 2.988281 6.816406 2.988281 7.28125 L 2.988281 15.429688 C 2.988281 15.894531 3.363281 16.269531 3.824219 16.269531 Z M 4.894531 7.265625 L 4.894531 15.417969 C 4.894531 15.882812 5.269531 16.257812 5.730469 16.257812 C 6.195312 16.257812 6.570312 15.882812 6.570312 15.417969 L 6.570312 7.265625 C 6.570312 6.804688 6.195312 6.429688 5.730469 6.429688 C 5.269531 6.429688 4.894531 6.804688 4.894531 7.265625 Z M 7.640625 16.246094 C 8.101562 16.246094 8.476562 15.871094 8.476562 15.40625 L 8.476562 7.253906 C 8.476562 6.792969 8.101562 6.417969 7.640625 6.417969 C 7.175781 6.417969 6.800781 6.792969 6.800781 7.253906 L 6.800781 15.40625 C 6.800781 15.871094 7.175781 16.246094 7.640625 16.246094 Z M 9.546875 16.234375 C 10.007812 16.234375 10.382812 15.859375 10.382812 15.394531 L 10.382812 7.242188 C 10.382812 6.78125 10.007812 6.40625 9.546875 6.40625 C 9.085938 6.40625 8.710938 6.78125 8.710938 7.242188 L 8.710938 15.394531 C 8.710938 15.859375 9.082031 16.234375 9.546875 16.234375 Z M 11.453125 16.21875 C 11.914062 16.21875 12.289062 15.847656 12.289062 15.382812 L 12.289062 7.230469 C 12.289062 6.769531 11.914062 6.394531 11.453125 6.394531 C 10.992188 6.394531 10.617188 6.769531 10.617188 7.230469 L 10.617188 15.382812 C 10.617188 15.847656 10.992188 16.21875 11.453125 16.21875 Z M 12.523438 7.21875 L 12.523438 15.371094 C 12.523438 15.832031 12.898438 16.207031 13.359375 16.207031 C 13.820312 16.207031 14.195312 15.832031 14.195312 15.371094 L 14.195312 9.9375 L 14.324219 9.9375 C 14.703125 9.9375 15.011719 9.460938 15.011719 8.867188 C 15.011719 8.277344 14.703125 7.800781 14.324219 7.800781 C 14.28125 7.800781 14.238281 7.800781 14.195312 7.800781 L 14.195312 7.21875 C 14.195312 6.757812 13.820312 6.382812 13.359375 6.382812 C 12.898438 6.382812 12.523438 6.757812 12.523438 7.21875 Z M 12.523438 7.21875 "/>
  </g>
</svg>