<?xml version="1.0" encoding="utf-8"?>
<!-- Generator: Adobe Illustrator 15.1.0, SVG Export Plug-In . SVG Version: 6.00 Build 0)  -->
<!DOCTYPE svg PUBLIC "-//W3C//DTD SVG 1.1//EN" "http://www.w3.org/Graphics/SVG/1.1/DTD/svg11.dtd">
<svg version="1.1" id="Layer_1" xmlns="http://www.w3.org/2000/svg" xmlns:xlink="http://www.w3.org/1999/xlink" x="0px" y="0px"
	 width="24px" height="24px" viewBox="0 0 24 24" enable-background="new 0 0 24 24" xml:space="preserve">
<path fill="#010002" d="M11.752,1.231c1.613,0,2.923,0.911,2.923,2.033c0,1.123-1.31,2.033-2.923,2.033
	c-1.614,0-2.922-0.91-2.922-2.033C8.83,2.142,10.138,1.231,11.752,1.231z M18.137,5.692H5.113c-0.476,0-0.863,0.27-0.863,0.601v6.32
	c0,0.331,0.387,0.601,0.863,0.601h3.184l0.006,1.644v6.892c0,0.612,0.675,1.11,1.387,1.11c0.714,0,1.292-0.498,1.292-1.11v-6.094
	h1.608v6.094c0,0.614,0.579,1.11,1.291,1.11s1.319-0.496,1.319-1.11l0.013-6.965v-1.57h2.922c0.476,0,0.863-0.27,0.863-0.601v-6.32
	C19,5.962,18.612,5.692,18.137,5.692z M11.972,7.744L11.972,7.744h2.669c0.091,0,0.172,0.023,0.228,0.066
	c0.054,0.042,0.076,0.101,0.066,0.163l-0.061,0.342l-2.567,0.176c-0.096,0.007-0.212,0.011-0.336,0.013L11.972,7.744L11.972,7.744z
	 M11.973,9.691c0.142-0.003,0.279-0.007,0.394-0.016l2.305-0.166l-0.101,0.585l-2.247,0.167c-0.099,0.008-0.222,0.012-0.349,0.014
	L11.973,9.691L11.973,9.691z M12.32,9.377c-0.098,0.007-0.221,0.011-0.347,0.014V8.805c0.135-0.003,0.27-0.007,0.379-0.015
	l2.472-0.17l-0.101,0.584L12.32,9.377z M11.541,11.912H9.64c-0.208,0-0.405-0.123-0.43-0.267l-0.064-0.372l2.161,0.172
	c0.07,0.005,0.151,0.009,0.234,0.012V11.912z M11.541,11.157c-0.065-0.003-0.131-0.006-0.185-0.01l-2.263-0.18l-0.097-0.569
	l2.184,0.163c0.104,0.008,0.23,0.012,0.361,0.015V11.157z M11.541,10.276c-0.114-0.002-0.225-0.006-0.316-0.014l-2.281-0.17
	l-0.1-0.584l2.332,0.167c0.106,0.008,0.234,0.012,0.365,0.015V10.276z M11.541,9.39c-0.117-0.002-0.228-0.006-0.321-0.013
	l-2.43-0.175L8.69,8.62l2.473,0.17c0.109,0.008,0.242,0.011,0.378,0.015V9.39z M11.541,8.504c-0.123-0.002-0.24-0.006-0.335-0.013
	L8.639,8.315L8.581,7.973C8.569,7.91,8.594,7.852,8.647,7.81c0.055-0.042,0.135-0.066,0.226-0.066h2.667V8.504z M11.541,7.443H8.874
	c-0.216,0-0.412,0.06-0.548,0.167C8.188,7.718,8.126,7.86,8.152,8.009l0.63,3.671c0.051,0.298,0.428,0.53,0.858,0.53h1.901v0.602
	h-4.58c-0.092-0.046-0.156-0.116-0.156-0.201V7.309c0-0.138,0.162-0.25,0.36-0.25h4.375V7.443z M11.541,6.758H7.166
	c-0.436,0-0.792,0.248-0.792,0.551v5.304c0,0.07,0.021,0.138,0.056,0.199H5.115c-0.158,0-0.288-0.09-0.288-0.199v-6.32
	c0-0.11,0.13-0.2,0.288-0.2h6.426V6.758z M11.972,10.577L11.972,10.577c0.143-0.003,0.283-0.008,0.397-0.016l2.148-0.16l-0.101,0.59
	l-1.969,0.157c-0.128,0.01-0.301,0.015-0.477,0.017L11.972,10.577L11.972,10.577z M11.973,11.464L11.973,11.464
	c0.191-0.001,0.378-0.007,0.527-0.018l1.866-0.148l-0.061,0.348c-0.025,0.144-0.224,0.267-0.43,0.267h-1.902V11.464L11.973,11.464z
	 M16.532,12.813h-4.558v-0.601h1.901c0.432,0,0.807-0.233,0.857-0.529l0.632-3.674c0.025-0.149-0.035-0.291-0.174-0.398
	c-0.138-0.108-0.333-0.167-0.549-0.167h-2.667V7.059h4.353c0.198,0,0.36,0.112,0.36,0.25v5.304l0,0
	C16.688,12.696,16.625,12.769,16.532,12.813z M18.428,12.613L18.428,12.613c0,0.109-0.131,0.199-0.288,0.199h-1.076
	c0.036-0.062,0.057-0.129,0.057-0.199V7.309c0-0.303-0.354-0.551-0.791-0.551h-4.354V6.093h6.165c0.16,0,0.289,0.09,0.289,0.2
	L18.428,12.613L18.428,12.613z"/>
</svg>
