<?xml version="1.0" encoding="UTF-8" standalone="yes"?>
<svg xmlns="http://www.w3.org/2000/svg" xmlns:xlink="http://www.w3.org/1999/xlink" width="24px" height="24px" viewBox="0 0 18 18" version="1.1">
  <g id="surface1">
    <path style=" stroke:none;fill-rule:nonzero;fill:rgb(0%,0%,0%);fill-opacity:1;" d="M 15.707031 6.707031 L 13.742188 6.707031 L 13.742188 7.691406 L 11.78125 7.691406 L 11.78125 8.671875 L 9.816406 8.671875 L 9.816406 9.652344 L 7.855469 9.652344 L 7.855469 10.636719 L 5.890625 10.636719 L 5.890625 11.617188 L 3.925781 11.617188 L 3.925781 12.597656 L 1.964844 12.597656 L 1.964844 13.582031 L 0 13.582031 L 0 14.890625 L 17.996094 14.890625 L 17.996094 5.726562 L 15.707031 5.726562 Z M 15.707031 6.707031 "/>
    <path style=" stroke:none;fill-rule:nonzero;fill:rgb(0%,0%,0%);fill-opacity:1;" d="M 12.269531 5.5625 C 12.363281 5.5625 12.433594 5.488281 12.433594 5.398438 L 12.433594 4.164062 L 13.921875 3.410156 C 13.96875 3.386719 13.988281 3.328125 13.964844 3.28125 L 13.902344 3.160156 C 13.878906 3.113281 13.820312 3.09375 13.773438 3.117188 L 3.117188 8.511719 C 3.113281 8.511719 3.113281 8.507812 3.109375 8.507812 C 3.054688 8.507812 3.007812 8.539062 2.976562 8.582031 L 0.804688 9.679688 C 0.757812 9.703125 0.738281 9.761719 0.761719 9.808594 L 0.824219 9.929688 C 0.847656 9.976562 0.90625 9.996094 0.953125 9.972656 L 2.945312 8.964844 L 2.945312 9.980469 C 2.945312 10.070312 3.019531 10.144531 3.109375 10.144531 C 3.199219 10.144531 3.273438 10.070312 3.273438 9.980469 L 3.273438 8.796875 L 7.855469 6.480469 L 7.855469 7.691406 C 7.855469 7.78125 7.925781 7.855469 8.015625 7.855469 C 8.109375 7.855469 8.179688 7.78125 8.179688 7.691406 L 8.179688 6.382812 C 8.179688 6.359375 8.175781 6.339844 8.167969 6.320312 L 12.109375 4.328125 L 12.109375 5.398438 C 12.109375 5.488281 12.179688 5.5625 12.269531 5.5625 Z M 12.269531 5.5625 "/>
  </g>
</svg>