<?xml version="1.0" encoding="utf-8"?>
<!-- Generator: Adobe Illustrator 15.1.0, SVG Export Plug-In . SVG Version: 6.00 Build 0)  -->
<!DOCTYPE svg PUBLIC "-//W3C//DTD SVG 1.1//EN" "http://www.w3.org/Graphics/SVG/1.1/DTD/svg11.dtd">
<svg version="1.1" id="Layer_1" xmlns="http://www.w3.org/2000/svg" xmlns:xlink="http://www.w3.org/1999/xlink" x="0px" y="0px"
	 width="24px" height="24px" viewBox="0 0 24 24" enable-background="new 0 0 24 24" xml:space="preserve">
<path fill="#010002" d="M15.872,18.912l-0.046-0.082c0-0.026,0.006-0.04,0.021-0.04c0.015,0,0.024-0.012,0.024-0.039
	c0.509-0.161,0.973-0.377,1.387-0.646c0.415-0.268,0.701-0.657,0.86-1.169l0.025-0.142c0.017-0.093,0.04-0.182,0.071-0.262V6.008
	c0-0.268-0.088-0.538-0.265-0.806c-0.174-0.269-0.396-0.511-0.667-0.726c-0.273-0.215-0.574-0.396-0.908-0.544
	C16.04,3.785,15.729,3.71,15.442,3.71H7.322c-0.287,0-0.599,0.067-0.933,0.202C6.054,4.046,5.75,4.221,5.479,4.437
	C5.208,4.651,4.985,4.893,4.81,5.162S4.547,5.687,4.547,5.928v10.684c0,0.188,0.047,0.377,0.143,0.565
	c0.096,0.188,0.224,0.369,0.383,0.543c0.161,0.176,0.335,0.338,0.525,0.485c0.193,0.147,0.383,0.262,0.575,0.342
	c0.095,0.027,0.247,0.074,0.454,0.143c0.207,0.066,0.311,0.113,0.311,0.14l-4.047,2.798h2.319l2.512-1.386h7.366l2.574,1.386h2.256
	L15.872,18.912z M8.482,4.638c0-0.081,0.04-0.162,0.119-0.242c0.081-0.082,0.168-0.122,0.263-0.122h4.904
	c0.031,0,0.097,0.027,0.191,0.081c0.098,0.054,0.143,0.107,0.143,0.161v1.129c0,0.081-0.04,0.148-0.12,0.202
	c-0.078,0.053-0.149,0.081-0.214,0.081H8.864C8.801,5.901,8.753,5.874,8.722,5.848C8.658,5.82,8.61,5.78,8.578,5.727
	C8.515,5.673,8.482,5.619,8.482,5.565V4.638z M6.221,7.703c0-0.135,0.032-0.283,0.095-0.444C6.413,7.124,6.524,6.99,6.651,6.855
	c0.095-0.107,0.231-0.202,0.406-0.283c0.175-0.08,0.359-0.12,0.551-0.12h7.498c0.128,0,0.287,0.04,0.479,0.12
	c0.128,0.055,0.272,0.135,0.431,0.242c0.128,0.082,0.223,0.189,0.287,0.323c0.097,0.108,0.144,0.241,0.144,0.403V9.92
	c0,0.134-0.047,0.262-0.144,0.383c-0.095,0.121-0.208,0.235-0.334,0.343c-0.159,0.108-0.319,0.188-0.48,0.243
	c-0.126,0.053-0.285,0.08-0.477,0.08H7.656c-0.033,0-0.08-0.008-0.144-0.021c-0.064-0.013-0.111-0.033-0.143-0.059
	c-0.319-0.028-0.59-0.156-0.814-0.384c-0.223-0.229-0.334-0.478-0.334-0.746V7.703z M8.684,17.016
	C8.412,17.259,8.07,17.38,7.656,17.38c-0.415,0-0.75-0.121-1.004-0.364c-0.255-0.241-0.383-0.536-0.383-0.886
	c0-0.324,0.136-0.599,0.407-0.828c0.27-0.229,0.598-0.341,0.98-0.341c0.414,0,0.757,0.107,1.028,0.32
	c0.272,0.216,0.407,0.498,0.407,0.849C9.09,16.479,8.956,16.774,8.684,17.016z M13.984,17.016c-0.272-0.241-0.409-0.536-0.409-0.886
	c0-0.351,0.146-0.633,0.431-0.849c0.287-0.213,0.623-0.32,1.006-0.32c0.415,0,0.749,0.112,1.004,0.341
	c0.256,0.229,0.384,0.504,0.384,0.828c0,0.35-0.128,0.645-0.384,0.886c-0.255,0.243-0.589,0.364-1.004,0.364
	C14.596,17.38,14.254,17.259,13.984,17.016z"/>
</svg>
