<?xml version="1.0" encoding="utf-8"?>
<!-- Generator: Adobe Illustrator 15.1.0, SVG Export Plug-In . SVG Version: 6.00 Build 0)  -->
<!DOCTYPE svg PUBLIC "-//W3C//DTD SVG 1.1//EN" "http://www.w3.org/Graphics/SVG/1.1/DTD/svg11.dtd">
<svg version="1.1" id="Layer_1" xmlns="http://www.w3.org/2000/svg" xmlns:xlink="http://www.w3.org/1999/xlink" x="0px" y="0px"
	 width="24px" height="24px" viewBox="0 0 24 24" enable-background="new 0 0 24 24" xml:space="preserve">
<path d="M20.296,14.371l-0.188-0.584c-0.104-0.325-0.433-0.588-0.734-0.588h-0.685c-0.51-1.527-1.137-3.38-1.32-3.811
	c-0.283-0.673-1.188-0.977-1.685-1.125c0,0-0.83-0.336-3.603-0.336c-2.772,0-3.603,0.336-3.603,0.336
	C7.895,8.469,7.085,8.764,6.764,9.418c-0.151,0.309-0.79,2.208-1.304,3.781H4.791c-0.303,0-0.635,0.263-0.738,0.588l-0.189,0.584
	c-0.104,0.322,0.057,0.585,0.363,0.585h0.658c-0.084,0.265-0.135,0.423-0.135,0.423c-0.053,0.094-0.091,0.533-0.091,0.65v3.323
	v0.231v1.784c0,0.342,0.262,0.62,0.583,0.62h2.135c0.321,0,0.582-0.278,0.582-0.62v-1.139h8.249v1.139
	c0,0.342,0.259,0.62,0.581,0.62h2.137c0.319,0,0.579-0.278,0.579-0.62v-1.784v-0.231v-3.323c0-0.117-0.037-0.556-0.09-0.65
	c0,0-0.053-0.159-0.141-0.423h0.666C20.24,14.956,20.4,14.691,20.296,14.371z M7.943,17.638H7.062c-0.791,0-1.58-0.113-1.58-0.646
	v-0.65c0-0.623,0.343-0.645,0.708-0.645c0.359,0,1.069,0.321,1.537,0.544c0.51,0.243,1.082,0.446,1.082,0.851
	C8.806,17.469,8.61,17.638,7.943,17.638z M6.714,13.436c0.434-1.921,0.905-3.006,1.009-3.309c0.083-0.221,0.165-0.899,4.356-0.899
	c4.194,0,4.295,0.775,4.304,0.784c0.128,0.412,0.642,1.65,1.051,3.423c0,0-1.771,0.642-5.354,0.642
	C8.497,14.076,6.714,13.436,6.714,13.436z M15.352,17.092c0-0.404,0.572-0.604,1.081-0.847c0.466-0.222,1.176-0.548,1.536-0.548
	c0.367,0,0.706,0.022,0.706,0.646v0.65h0.004c0,0.534-0.792,0.647-1.579,0.647h-0.886C15.552,17.638,15.352,17.469,15.352,17.092z
	 M6.326,6.211c-0.12,0-0.239-0.029-0.33-0.086l-1.39-0.871v0.666c0,0.161-0.21,0.292-0.468,0.292c-0.256,0-0.466-0.131-0.466-0.292
	V4.549c0,0,0-0.001,0-0.001v-1.32c0-0.161,0.21-0.292,0.466-0.292c0.142,0,0.27,0.04,0.354,0.102
	C4.697,2.972,4.927,2.936,5.17,2.936c0.827,0,1.499,0.421,1.499,0.938c0,0.508-0.646,0.922-1.448,0.938l1.433,0.9
	c0.183,0.114,0.183,0.298,0,0.413C6.564,6.183,6.446,6.211,6.326,6.211z M4.606,3.874c0,0.196,0.253,0.354,0.565,0.354
	c0.311,0,0.565-0.159,0.565-0.354c0-0.194-0.254-0.354-0.565-0.354C4.859,3.52,4.606,3.68,4.606,3.874z M15.286,6.104
	c-0.149,0-0.294-0.044-0.384-0.126l-2.016-1.823v1.644c0,0.162-0.208,0.292-0.465,0.292c-0.258,0-0.466-0.131-0.466-0.292V3.264
	c0-0.111,0.098-0.207,0.242-0.258c0.212-0.087,0.496-0.053,0.642,0.078l2.014,1.824V3.264c0-0.162,0.209-0.292,0.467-0.292
	c0.257,0,0.465,0.131,0.465,0.292v2.535c0,0.111-0.099,0.207-0.245,0.257C15.463,6.088,15.375,6.104,15.286,6.104z M18.373,6.092
	c-0.257,0-0.465-0.131-0.465-0.292V3.556h-0.983c-0.257,0-0.466-0.13-0.466-0.292s0.209-0.292,0.466-0.292h2.898
	c0.257,0,0.466,0.131,0.466,0.292s-0.209,0.292-0.466,0.292h-0.982v2.243C18.841,5.961,18.632,6.092,18.373,6.092z M10.751,6.092
	H8.455c-0.258,0-0.467-0.131-0.467-0.292V3.264l0,0l0,0c0-0.162,0.209-0.292,0.467-0.292h2.296c0.258,0,0.466,0.131,0.466,0.292
	s-0.208,0.292-0.466,0.292h-1.83v0.719h1.066c0.256,0,0.466,0.131,0.466,0.292c0,0.162-0.21,0.292-0.466,0.292H8.921v0.648h1.83
	c0.258,0,0.466,0.13,0.466,0.292S11.009,6.092,10.751,6.092z"/>
</svg>
