<?xml version="1.0" encoding="utf-8"?>
<!-- Generator: Adobe Illustrator 15.1.0, SVG Export Plug-In . SVG Version: 6.00 Build 0)  -->
<!DOCTYPE svg PUBLIC "-//W3C//DTD SVG 1.1//EN" "http://www.w3.org/Graphics/SVG/1.1/DTD/svg11.dtd">
<svg version="1.1" id="Layer_1" xmlns="http://www.w3.org/2000/svg" xmlns:xlink="http://www.w3.org/1999/xlink" x="0px" y="0px"
	 width="24px" height="24px" viewBox="0 0 24 24" enable-background="new 0 0 24 24" xml:space="preserve">
<path fill="#010202" d="M19.304,12.766H19.22V6.852c-0.258-0.118-0.489-0.277-0.685-0.477c-0.178,0.182-0.392,0.328-0.623,0.442
	v5.948H6.086V6.818C5.854,6.702,5.64,6.558,5.463,6.375C5.267,6.575,5.034,6.733,4.778,6.852v5.914H4.694
	c-0.782,0-1.417,0.634-1.417,1.416v7.123c0,0.27,0.22,0.489,0.489,0.489h16.468c0.269,0,0.488-0.22,0.488-0.489v-7.123
	C20.722,13.399,20.088,12.766,19.304,12.766z M15.749,17.961H8.25c-0.377,0-0.683-0.306-0.683-0.683
	c0-0.376,0.306-0.684,0.683-0.684h7.499c0.375,0,0.682,0.308,0.682,0.684C16.431,17.655,16.126,17.961,15.749,17.961z M18.4,19.785
	h-7.5c-0.376,0-0.683-0.306-0.683-0.681c0-0.378,0.306-0.684,0.683-0.684h7.5c0.375,0,0.682,0.306,0.682,0.684
	C19.082,19.479,18.776,19.785,18.4,19.785z M13.033,16.074H5.535c-0.376,0-0.682-0.304-0.682-0.681c0-0.378,0.306-0.684,0.682-0.684
	h7.499c0.375,0,0.682,0.306,0.682,0.684C13.715,15.771,13.41,16.074,13.033,16.074z M21.108,2.207H2.889
	c-0.383,0-0.694,0.311-0.694,0.694v1.875c0,0.903,0.731,1.634,1.634,1.634c0.903,0,1.634-0.731,1.634-1.634
	c0,0.903,0.731,1.634,1.634,1.634c0.902,0,1.634-0.731,1.634-1.634c0,0.903,0.732,1.634,1.634,1.634S12,5.679,12,4.776
	c0,0.903,0.731,1.634,1.634,1.634c0.902,0,1.635-0.731,1.635-1.634c0,0.903,0.73,1.634,1.633,1.634c0.903,0,1.635-0.731,1.635-1.634
	c0,0.903,0.731,1.634,1.635,1.634c0.902,0,1.634-0.731,1.634-1.634V2.902C21.805,2.517,21.493,2.207,21.108,2.207z"/>
</svg>
