<?xml version="1.0" encoding="UTF-8" standalone="yes"?>
<svg xmlns="http://www.w3.org/2000/svg" xmlns:xlink="http://www.w3.org/1999/xlink" width="24px" height="24px" viewBox="0 0 18 18" version="1.1">
  <g id="surface1">
    <path style=" stroke:none;fill-rule:nonzero;fill:rgb(0%,0%,0%);fill-opacity:1;" d="M 14.789062 2.347656 L 5.714844 2.347656 C 5.605469 2.347656 5.519531 2.4375 5.519531 2.546875 L 5.519531 3.339844 L 4.046875 3.339844 C 3.988281 3.339844 3.9375 3.363281 3.898438 3.40625 C 3.859375 3.449219 3.84375 3.507812 3.851562 3.5625 L 3.925781 4.132812 L 2.574219 4.132812 C 2.511719 4.132812 2.453125 4.160156 2.414062 4.210938 C 2.378906 4.261719 2.367188 4.324219 2.382812 4.386719 L 5.402344 14.730469 C 5.425781 14.820312 5.503906 14.875 5.59375 14.875 C 5.609375 14.875 14.789062 14.875 14.789062 14.875 C 14.898438 14.875 14.988281 14.785156 14.988281 14.675781 L 14.988281 2.546875 C 14.984375 2.4375 14.898438 2.347656 14.789062 2.347656 Z M 5.519531 3.734375 L 5.519531 12.921875 L 4.273438 3.734375 Z M 3.980469 4.527344 L 4.972656 11.839844 L 2.839844 4.527344 Z M 14.589844 14.480469 L 5.914062 14.480469 L 5.914062 2.746094 L 14.589844 2.746094 Z M 9.382812 4.3125 L 6.230469 4.3125 L 6.230469 3.417969 L 9.382812 3.417969 Z M 14.292969 4.3125 L 11.140625 4.3125 L 11.140625 3.417969 L 14.292969 3.417969 Z M 9.585938 3.863281 C 9.585938 3.496094 9.886719 3.199219 10.25 3.199219 C 10.617188 3.199219 10.917969 3.496094 10.917969 3.863281 C 10.917969 4.230469 10.621094 4.527344 10.25 4.527344 C 9.886719 4.527344 9.585938 4.230469 9.585938 3.863281 Z M 13.824219 8.699219 L 11.140625 8.699219 L 11.140625 5.6875 L 13.824219 5.6875 Z M 9.855469 6.128906 L 6.554688 6.128906 L 6.554688 5.796875 L 9.855469 5.796875 Z M 6.554688 7.066406 L 9.855469 7.066406 L 9.855469 7.398438 L 6.554688 7.398438 Z M 6.589844 8.367188 L 9.890625 8.367188 L 9.890625 8.695312 L 6.589844 8.695312 Z M 6.554688 9.671875 L 13.824219 9.671875 L 13.824219 10.003906 L 6.554688 10.003906 Z M 6.554688 10.976562 L 13.824219 10.976562 L 13.824219 11.308594 L 6.554688 11.308594 Z M 6.554688 12.265625 L 13.824219 12.265625 L 13.824219 12.597656 L 6.554688 12.597656 Z M 6.554688 12.265625 "/>
  </g>
</svg>