<?xml version="1.0" encoding="UTF-8" standalone="no"?>
<!-- Generator: Adobe Illustrator 18.1.1, SVG Export Plug-In . SVG Version: 6.00 Build 0)  -->

<svg
   xmlns:dc="http://purl.org/dc/elements/1.1/"
   xmlns:cc="http://creativecommons.org/ns#"
   xmlns:rdf="http://www.w3.org/1999/02/22-rdf-syntax-ns#"
   xmlns:svg="http://www.w3.org/2000/svg"
   xmlns="http://www.w3.org/2000/svg"
   xmlns:sodipodi="http://sodipodi.sourceforge.net/DTD/sodipodi-0.dtd"
   xmlns:inkscape="http://www.inkscape.org/namespaces/inkscape"
   version="1.1"
   id="Capa_1"
   x="0px"
   y="0px"
   viewBox="0 0 24 24"
   xml:space="preserve"
   inkscape:version="0.48.5 r10040"
   width="100%"
   height="100%"
   sodipodi:docname="saat_foroshi.svg"><metadata
     id="metadata3724"><rdf:RDF><cc:Work
         rdf:about=""><dc:format>image/svg+xml</dc:format><dc:type
           rdf:resource="http://purl.org/dc/dcmitype/StillImage" /><dc:title></dc:title></cc:Work></rdf:RDF></metadata><defs
     id="defs3722" /><sodipodi:namedview
     pagecolor="#ffffff"
     bordercolor="#666666"
     borderopacity="1"
     objecttolerance="10"
     gridtolerance="10"
     guidetolerance="10"
     inkscape:pageopacity="0"
     inkscape:pageshadow="2"
     inkscape:window-width="657"
     inkscape:window-height="480"
     id="namedview3720"
     showgrid="false"
     inkscape:zoom="6.2767793"
     inkscape:cx="8.6051419"
     inkscape:cy="6.0631067"
     inkscape:window-x="0"
     inkscape:window-y="27"
     inkscape:window-maximized="0"
     inkscape:current-layer="Capa_1" /><g
     id="g3680"
     transform="matrix(0.05508668,0,0,0.05508668,0.2835314,0.28350736)"><path
       d="M 400.559,192 H 389.06 c -3.427,-19 -16.517,-33.382 -29.517,-47.557 v -23.877 c 0,-1.837 -1.515,-7.566 -3.352,-7.566 h -9.648 V 10.89 C 346.543,7.216 343.247,0 339.574,0 h -86.411 c -3.675,0 -5.62,7.216 -5.62,10.89 V 113 h -10.998 c -1.837,0 -4.002,5.729 -4.002,7.566 v 22.095 c -19,17.424 -32.794,43.033 -32.794,71.612 0,28.579 13.794,54.189 32.794,71.613 v 34.091 c 0,1.837 2.165,-0.976 4.002,-0.976 h 10.998 v 104.005 c 0,3.674 1.945,1.995 5.62,1.995 h 23.265 39.882 23.265 c 3.674,0 6.969,1.679 6.969,-1.995 V 319 h 9.648 c 1.837,0 3.352,2.813 3.352,0.976 v -35.873 c 13,-14.141 26.04,-38.103 29.494,-58.103 h 11.522 c 1.837,0 4.984,1.84 4.984,0.003 v -23.304 c 0,-1.836 -3.148,-10.699 -4.985,-10.699 z m -47.015,-73 v 19.865 c 0,-1.643 -7,-3.204 -7,-4.662 V 119 h 7 z m -21,8.083 c -6,-1.845 -6,-3.306 -12,-4.515 V 13 h 12 V 127.083 z M 313.544,13 v 108.014 c -8,-1.076 -11.462,-1.701 -17.48,-1.701 -5.337,0 -9.52,0.55 -15.52,1.401 V 13 h 33 z m -54,0 h 13 v 109.064 c -6,1.103 -6,2.492 -13,4.23 V 120.566 13 z m -12.746,117.295 c -2.437,1.453 -7.254,5.445 -7.254,7.103 V 119 h 6.973 l 0.281,11.295 z M 246.516,313 h -6.973 v -21.851 c 0,1.605 4.667,1.276 7.02,2.69 L 246.516,313 z m 13.028,6.976 v -17.724 c 7,1.738 7,3.126 13,4.229 V 413 h -13 v -93.024 z m 36.519,-10.742 c 6.018,0 9.48,-0.625 17.48,-1.701 V 413 h -33 V 307.833 c 6.001,0.85 10.183,1.401 15.52,1.401 z M 320.544,413 V 305.978 c 6,-1.209 6,-2.669 12,-4.515 V 413 h -12 z m 26,-118.656 c 0,-1.458 7,-3.019 7,-4.662 V 313 h -7 v -18.656 z m -51.156,1.596 c -45.03,0 -81.666,-36.637 -81.666,-81.666 0,-45.029 36.636,-81.666 81.666,-81.666 45.03,0 81.666,36.636 81.666,81.666 0,45.03 -36.636,81.666 -81.666,81.666 z M 399.544,219 h -9.621 c 0.245,-6 0.425,-7.24 0.425,-10.078 0,-2.785 -0.182,-1.922 -0.418,-9.922 h 9.614 v 20 z"
       id="path3682"
       inkscape:connector-curvature="0" /><path
       d="m 173.339,204.679 -9.358,-4.739 c -3.945,-22.467 -16.437,-41.438 -37.437,-51.849 V 133.86 c 0,-1.837 -1.161,-7.86 -2.997,-7.86 H 113.544 V 10.89 C 113.544,7.216 110.603,0 106.929,0 H 67.047 C 63.372,0 59.544,7.216 59.544,10.89 V 126 H 50.43 c -1.837,0 -2.886,6.023 -2.886,7.86 v 21.538 c -21,13.406 -27.705,34.043 -27.705,57.2 0,23.157 6.705,43.794 27.705,57.2 v 23.59 c 0,1.837 1.049,-1.388 2.886,-1.388 h 9.114 v 131.005 c 0,3.674 3.829,1.995 7.503,1.995 h 39.882 c 3.674,0 6.615,1.679 6.615,-1.995 V 292 h 10.003 c 1.837,0 2.997,3.225 2.997,1.388 v -16.283 c 21,-10.411 33.811,-29.382 37.756,-51.849 l 8.957,-4.739 c 1.13,-0.558 1.287,-1.714 1.287,-2.973 v -9.893 c 0,-1.258 -0.076,-2.413 -1.205,-2.972 z M 120.544,137 v 7.969 c -2,-0.891 -5,-1.682 -7,-2.365 V 137 h 7 z m -21,-124 v 126.906 c 0,-0.271 -4.346,-0.424 -6.97,-0.424 -6.518,0 -12.03,0.939 -18.03,2.546 V 13 h 25 z m -46,121 h 6 v 13.015 c 0,1.123 -6,2.354 -6,3.702 V 134 z m 0,152 v -11.519 c 0,1.348 6,2.578 6,3.702 V 286 h -6 z m 21,127 V 283.169 c 6,1.607 11.512,2.546 18.03,2.546 2.624,0 6.97,-0.154 6.97,-0.423 V 413 h -25 z m 46,-122 h -7 v -7.582 -0.824 c 2,-0.683 5,-1.474 7,-2.366 V 291 z M 92.518,272.422 c -32.988,0 -59.823,-26.835 -59.823,-59.823 0,-32.988 26.835,-59.823 59.823,-59.823 32.988,0 59.823,26.835 59.823,59.823 0,32.988 -26.834,59.823 -59.823,59.823 z m 77.026,-56.935 -3.965,1.882 c 0.103,-1.585 0.149,-3.161 0.149,-4.771 0,-1.61 0,-3.187 -0.103,-4.771 l 3.919,1.882 v 5.778 z"
       id="path3684"
       inkscape:connector-curvature="0" /><path
       d="m 338.244,186.738 -42.654,30.035 -27.043,-23.135 c -1.395,-1.194 -3.486,-1.026 -4.687,0.364 -1.194,1.396 -1.032,3.492 0.364,4.687 l 29.003,24.816 c 0.624,0.532 1.389,0.798 2.162,0.798 0.669,0 1.337,-0.201 1.915,-0.604 l 44.77,-31.521 c 1.499,-1.058 1.856,-3.135 0.804,-4.635 -1.058,-1.494 -3.122,-1.857 -4.634,-0.805 z"
       id="path3686"
       inkscape:connector-curvature="0" /><path
       d="m 121.963,196.078 -29.431,20.72 -18.468,-15.799 c -1.389,-1.188 -3.486,-1.032 -4.686,0.364 -1.194,1.395 -1.032,3.492 0.363,4.686 l 20.428,17.481 c 0.623,0.532 1.389,0.798 2.162,0.798 0.669,0 1.337,-0.201 1.915,-0.604 l 31.547,-22.206 c 1.5,-1.058 1.857,-3.129 0.805,-4.635 -1.059,-1.493 -3.129,-1.863 -4.635,-0.805 z"
       id="path3688"
       inkscape:connector-curvature="0" /></g><g
     id="g3690"
     transform="translate(0,-401.383)" /><g
     id="g3692"
     transform="translate(0,-401.383)" /><g
     id="g3694"
     transform="translate(0,-401.383)" /><g
     id="g3696"
     transform="translate(0,-401.383)" /><g
     id="g3698"
     transform="translate(0,-401.383)" /><g
     id="g3700"
     transform="translate(0,-401.383)" /><g
     id="g3702"
     transform="translate(0,-401.383)" /><g
     id="g3704"
     transform="translate(0,-401.383)" /><g
     id="g3706"
     transform="translate(0,-401.383)" /><g
     id="g3708"
     transform="translate(0,-401.383)" /><g
     id="g3710"
     transform="translate(0,-401.383)" /><g
     id="g3712"
     transform="translate(0,-401.383)" /><g
     id="g3714"
     transform="translate(0,-401.383)" /><g
     id="g3716"
     transform="translate(0,-401.383)" /><g
     id="g3718"
     transform="translate(0,-401.383)" /></svg>