<?xml version="1.0" encoding="utf-8"?>
<!-- Generator: Adobe Illustrator 15.1.0, SVG Export Plug-In . SVG Version: 6.00 Build 0)  -->
<!DOCTYPE svg PUBLIC "-//W3C//DTD SVG 1.1//EN" "http://www.w3.org/Graphics/SVG/1.1/DTD/svg11.dtd">
<svg version="1.1" id="Layer_1" xmlns="http://www.w3.org/2000/svg" xmlns:xlink="http://www.w3.org/1999/xlink" x="0px" y="0px"
	 width="24px" height="24px" viewBox="0 0 24 24" enable-background="new 0 0 24 24" xml:space="preserve">
<path fill="#010002" d="M2.25,10.187c0.336,0.019,0.664,0.069,0.936,0.238c-0.477,0.636-0.884,1.337-0.852,2.207
	c0.011,0.298,0.207,0.491,0.499,0.491c0.054,0,0.109-0.009,0.166-0.021c0.02,0.091,0.042,0.182,0.072,0.268H3.07
	c0,0,0.002,0.004,0.002,0.005c0.045,0.132,0.104,0.261,0.172,0.389c0.469,1.015,1.896,3.841,4.367,6.539
	c0.335,0.422,0.704,0.797,1.091,1.115c0.001,0,0.002,0.001,0.003,0.003v-0.002c1.46,1.196,3.176,1.615,4.324,0.907
	c1.525-0.939,2.023-3.725,0.424-5.955c-0.676-0.941-1.812-1.687-2.676-2.145l0.001-0.001c-0.004,0-0.005-0.001-0.009-0.003
	c-0.245-0.13-0.491-0.236-0.736-0.321c-1.588-0.803-2.043-1.822-2.043-1.822l0,0c-0.082-0.229-0.2-0.453-0.353-0.667
	c-0.017-0.023-0.036-0.045-0.054-0.067c0.06-0.081,0.106-0.174,0.127-0.276c0.058-0.273-0.072-0.516-0.337-0.633
	c-0.837-0.371-1.725-0.543-2.793-0.543c-0.177,0-0.356,0.005-0.537,0.015c-0.021,0-0.037,0.004-0.056,0.006
	C3.532,9.457,2.882,9.322,2.25,9.284C1.672,9.25,1.676,10.152,2.25,10.187z M7.949,13.794l0.013,0.017
	c-0.008,0.004-0.016,0.006-0.024,0.009C7.942,13.811,7.945,13.802,7.949,13.794z M8.385,14.034c2.16,1.12,4.685,1.964,5.085,4.708
	c0.063,0.427-0.586,0.61-0.648,0.18c-0.371-2.542-2.787-3.273-4.775-4.305C7.662,14.418,8.001,13.834,8.385,14.034z M4.812,10.234
	c0.543,0.014,1.039,0.075,1.504,0.191c0.32,0.081,0.625,0.186,0.923,0.319c0.119,0.052,0.168,0.137,0.144,0.254
	c-0.006,0.028-0.018,0.057-0.032,0.084c-0.057,0.113-0.175,0.212-0.318,0.212c-0.046,0-0.093-0.011-0.14-0.032
	c-0.176-0.078-0.368-0.146-0.585-0.206l-0.507-0.145l0.363,0.452c0.025,0.03,0.049,0.059,0.071,0.092
	c0.062,0.09,0.071,0.177,0.029,0.256c-0.054,0.104-0.188,0.179-0.317,0.179c-0.074,0-0.179-0.023-0.258-0.142
	c-0.297-0.435-0.822-0.606-1.19-0.696L4.402,11.03l-0.067,0.073c-0.607,0.661-0.361,1.376-0.079,1.924
	c0.067,0.133,0.035,0.238-0.005,0.304c-0.063,0.104-0.186,0.177-0.299,0.177c-0.096,0-0.171-0.051-0.222-0.15
	c-0.045-0.087-0.094-0.275-0.132-0.427c-0.029-0.112-0.057-0.217-0.081-0.286l-0.1-0.275L3.23,12.593
	c-0.066,0.08-0.175,0.145-0.283,0.174c-0.039,0.011-0.079,0.018-0.115,0.018c-0.112,0-0.157-0.047-0.162-0.168
	c-0.028-0.756,0.339-1.392,0.773-1.975c0.01,0.011,0.021,0.02,0.03,0.031c0.044,0.053,0.091,0.09,0.14,0.115
	c0.258,0.132,0.561-0.104,0.599-0.394c0.007-0.051,0.004-0.103-0.007-0.155c0.126-0.004,0.251-0.009,0.376-0.009
	C4.66,10.229,4.735,10.232,4.812,10.234z M6.431,15.154l-0.005-0.007c0.003-0.002,0.007-0.003,0.012-0.004
	C6.436,15.147,6.434,15.151,6.431,15.154z M20.136,8.068c-0.185-0.826-0.518-1.585-1.077-2.23c-0.334-0.386-1.005,0.103-0.669,0.492
	c0.518,0.596,0.822,1.29,0.974,2.061c0.386-0.054,0.737-0.056,0.979-0.024c0.277,0.037,0.637,0.122,1.008,0.256
	c0.032-0.057,0.055-0.123,0.056-0.198c0.056-1.648,0.885-3.085,1.721-4.494c0.272-0.456-0.476-0.758-0.745-0.305
	c-0.409,0.689-0.794,1.372-1.102,2.078c0.172-0.721,0.401-1.432,0.675-2.119c0.197-0.489-0.547-0.799-0.743-0.306
	C20.597,4.814,20.195,6.436,20.136,8.068z M19.427,8.636c-0.545,0.074-1.157,0.26-1.603,0.607c-0.383,0.298-0.604,0.681-0.656,1.139
	l-0.006,0.491c0.743-0.457,1.539-0.763,2.473-0.701c0.525,0.034,0.383,0.836-0.139,0.801c-0.892-0.059-1.647,0.348-2.348,0.854
	l-0.016,1.105c0.64-0.336,1.326-0.545,2.109-0.492c0.524,0.034,0.383,0.835-0.141,0.801c-0.736-0.049-1.384,0.223-1.981,0.604
	l-0.017,1.179c0.535-0.229,1.108-0.359,1.744-0.318c0.526,0.034,0.384,0.837-0.139,0.802c-0.591-0.038-1.122,0.128-1.618,0.391
	l-0.078,5.487c-0.042,0.37,0.025,0.682,0.195,0.911c0.22,0.3,0.585,0.431,0.957,0.349c0.432-0.096,0.753-0.453,0.884-0.979
	l3.888-10.741c0.1-0.396,0.024-0.774-0.221-1.109c-0.365-0.497-1.023-0.813-1.584-0.998c-0.345-0.114-0.653-0.177-0.833-0.201
	C20.072,8.587,19.762,8.591,19.427,8.636z M15.494,2.959c-0.403-1.166-1.701-1.864-2.898-1.558c-0.223,0.057-0.42,0.154-0.602,0.268
	c-0.529-0.292-1.161-0.396-1.768-0.242C9.974,1.492,9.754,1.604,9.555,1.739C9.303,1.72,9.048,1.73,8.796,1.795
	C8.189,1.95,7.727,2.335,7.47,2.829c-0.225-0.01-0.452,0.002-0.674,0.059C5.599,3.194,4.956,4.389,5.36,5.557
	C5.37,5.586,5.387,5.612,5.399,5.64c-0.867,0.47-1.285,1.477-0.94,2.469c0.403,1.167,1.701,1.865,2.897,1.559
	c0.444-0.114,0.816-0.353,1.081-0.665c0.429,0.295,3.506,2.476,4.91,5.51c0.14,0.301,0.493,0.463,0.807,0.369
	c0.296-0.09,0.462-0.376,0.391-0.676c-0.758-3.243,0.418-6.482,0.584-6.92c0.419,0.137,0.869,0.166,1.313,0.052
	c1.196-0.306,1.838-1.5,1.433-2.667c-0.343-0.993-1.334-1.639-2.358-1.624C15.507,3.019,15.505,2.99,15.494,2.959z M10.783,9.501
	c0.288,0.038,0.574,0.044,0.874,0.013l0.453,1.311C11.646,10.327,11.199,9.879,10.783,9.501z M13.232,10.537l-0.457-1.32
	c0.27-0.123,0.518-0.278,0.736-0.457C13.399,9.282,13.28,9.889,13.232,10.537z"/>
</svg>
