<?xml version="1.0" encoding="UTF-8" standalone="yes"?>
<svg xmlns="http://www.w3.org/2000/svg" xmlns:xlink="http://www.w3.org/1999/xlink" width="24px" height="24px" viewBox="0 0 18 18" version="1.1">
  <g id="surface1">
    <path style=" stroke:none;fill-rule:nonzero;fill:rgb(0%,0%,0%);fill-opacity:1;" d="M 4.078125 12.660156 L 4.867188 12.660156 C 4.984375 12.660156 5.0625 12.582031 5.0625 12.460938 L 5.0625 11.671875 C 5.0625 11.554688 4.984375 11.476562 4.867188 11.476562 L 4.078125 11.476562 C 3.957031 11.476562 3.878906 11.554688 3.878906 11.671875 L 3.878906 12.460938 C 3.878906 12.542969 3.957031 12.660156 4.078125 12.660156 Z M 4.078125 12.660156 "/>
    <path style=" stroke:none;fill-rule:nonzero;fill:rgb(0%,0%,0%);fill-opacity:1;" d="M 4.078125 14.199219 L 4.867188 14.199219 C 4.984375 14.199219 5.0625 14.121094 5.0625 14.003906 L 5.0625 13.210938 C 5.0625 13.09375 4.984375 13.015625 4.867188 13.015625 L 4.078125 13.015625 C 3.957031 13.015625 3.878906 13.09375 3.878906 13.210938 L 3.878906 14.003906 C 3.878906 14.121094 3.957031 14.199219 4.078125 14.199219 Z M 4.078125 14.199219 "/>
    <path style=" stroke:none;fill-rule:nonzero;fill:rgb(0%,0%,0%);fill-opacity:1;" d="M 5.695312 12.660156 L 6.484375 12.660156 C 6.605469 12.660156 6.683594 12.582031 6.683594 12.460938 L 6.683594 11.671875 C 6.683594 11.554688 6.605469 11.476562 6.484375 11.476562 L 5.695312 11.476562 C 5.578125 11.476562 5.5 11.554688 5.5 11.671875 L 5.5 12.460938 C 5.5 12.542969 5.578125 12.660156 5.695312 12.660156 Z M 5.695312 12.660156 "/>
    <path style=" stroke:none;fill-rule:nonzero;fill:rgb(0%,0%,0%);fill-opacity:1;" d="M 5.695312 14.199219 L 6.484375 14.199219 C 6.605469 14.199219 6.683594 14.121094 6.683594 14.003906 L 6.683594 13.210938 C 6.683594 13.09375 6.605469 13.015625 6.484375 13.015625 L 5.695312 13.015625 C 5.578125 13.015625 5.5 13.09375 5.5 13.210938 L 5.5 14.003906 C 5.5 14.121094 5.578125 14.199219 5.695312 14.199219 Z M 5.695312 14.199219 "/>
    <path style=" stroke:none;fill-rule:nonzero;fill:rgb(0%,0%,0%);fill-opacity:1;" d="M 11.539062 12.660156 L 12.328125 12.660156 C 12.449219 12.660156 12.527344 12.582031 12.527344 12.460938 L 12.527344 11.671875 C 12.527344 11.554688 12.449219 11.476562 12.328125 11.476562 L 11.539062 11.476562 C 11.421875 11.476562 11.339844 11.554688 11.339844 11.671875 L 11.339844 12.460938 C 11.339844 12.542969 11.421875 12.660156 11.539062 12.660156 Z M 11.539062 12.660156 "/>
    <path style=" stroke:none;fill-rule:nonzero;fill:rgb(0%,0%,0%);fill-opacity:1;" d="M 11.539062 14.199219 L 12.328125 14.199219 C 12.449219 14.199219 12.527344 14.121094 12.527344 14.003906 L 12.527344 13.210938 C 12.527344 13.09375 12.449219 13.015625 12.328125 13.015625 L 11.539062 13.015625 C 11.421875 13.015625 11.339844 13.09375 11.339844 13.210938 L 11.339844 14.003906 C 11.339844 14.121094 11.421875 14.199219 11.539062 14.199219 Z M 11.539062 14.199219 "/>
    <path style=" stroke:none;fill-rule:nonzero;fill:rgb(0%,0%,0%);fill-opacity:1;" d="M 13.15625 12.660156 L 13.949219 12.660156 C 14.066406 12.660156 14.144531 12.582031 14.144531 12.460938 L 14.144531 11.671875 C 14.144531 11.554688 14.066406 11.476562 13.949219 11.476562 L 13.15625 11.476562 C 13.039062 11.476562 12.960938 11.554688 12.960938 11.671875 L 12.960938 12.460938 C 12.960938 12.542969 13.039062 12.660156 13.15625 12.660156 Z M 13.15625 12.660156 "/>
    <path style=" stroke:none;fill-rule:nonzero;fill:rgb(0%,0%,0%);fill-opacity:1;" d="M 13.15625 14.199219 L 13.949219 14.199219 C 14.066406 14.199219 14.144531 14.121094 14.144531 14.003906 L 14.144531 13.210938 C 14.144531 13.09375 14.066406 13.015625 13.949219 13.015625 L 13.15625 13.015625 C 13.039062 13.015625 12.960938 13.09375 12.960938 13.210938 L 12.960938 14.003906 C 12.960938 14.121094 13.039062 14.199219 13.15625 14.199219 Z M 13.15625 14.199219 "/>
    <path style=" stroke:none;fill-rule:nonzero;fill:rgb(0%,0%,0%);fill-opacity:1;" d="M 17.894531 9.222656 L 16.238281 6.382812 C 16.121094 6.183594 15.921875 6.066406 15.722656 6.066406 L 11.738281 6.066406 L 11.738281 5 L 12.132812 5.277344 C 12.25 5.355469 12.367188 5.394531 12.488281 5.394531 C 12.683594 5.394531 12.84375 5.316406 12.960938 5.15625 C 13.15625 4.882812 13.078125 4.527344 12.84375 4.328125 L 9.367188 1.800781 C 9.171875 1.644531 8.894531 1.644531 8.65625 1.800781 L 5.183594 4.328125 C 4.90625 4.527344 4.867188 4.882812 5.0625 5.15625 C 5.261719 5.433594 5.617188 5.472656 5.894531 5.277344 L 6.289062 5 L 6.289062 6.066406 L 2.300781 6.066406 C 2.101562 6.066406 1.90625 6.183594 1.785156 6.382812 L 0.0898438 9.304688 C -0.03125 9.5 -0.03125 9.699219 0.0898438 9.894531 C 0.207031 10.09375 0.40625 10.210938 0.601562 10.210938 L 1.824219 10.210938 L 1.824219 15.738281 C 1.824219 16.054688 2.101562 16.332031 2.417969 16.332031 L 15.605469 16.332031 C 15.921875 16.332031 16.199219 16.054688 16.199219 15.738281 L 16.199219 10.210938 L 17.421875 10.210938 C 17.738281 10.210938 18.015625 9.933594 18.015625 9.621094 C 18.015625 9.460938 17.976562 9.34375 17.894531 9.222656 Z M 9.011719 3.027344 L 10.550781 4.132812 C 10.550781 4.132812 10.550781 4.132812 10.550781 4.171875 L 10.550781 6.027344 L 7.472656 6.027344 L 7.472656 4.171875 C 7.472656 4.171875 7.472656 4.171875 7.472656 4.132812 Z M 15.015625 15.148438 L 10.671875 15.148438 L 10.671875 12.816406 C 10.671875 11.910156 9.921875 11.199219 9.050781 11.199219 C 8.183594 11.199219 7.433594 11.949219 7.433594 12.816406 L 7.433594 15.148438 L 3.089844 15.148438 L 3.089844 10.210938 L 15.09375 10.210938 Z M 15.015625 15.148438 "/>
  </g>
</svg>