<?xml version="1.0" encoding="UTF-8" standalone="yes"?>
<svg xmlns="http://www.w3.org/2000/svg" xmlns:xlink="http://www.w3.org/1999/xlink" width="24px" height="24px" viewBox="0 0 18 18" version="1.1">
  <g id="surface1">
    <path style=" stroke:none;fill-rule:nonzero;fill:rgb(0%,0%,0%);fill-opacity:1;" d="M 6.683594 11.003906 L 11.300781 11.003906 L 11.300781 15.007812 L 10.523438 15.007812 L 10.523438 11.933594 L 7.460938 11.933594 L 7.460938 15.007812 L 6.683594 15.007812 Z M 18 5.0625 L 15.113281 2.992188 L 2.894531 2.992188 L 0.0078125 5.0625 Z M 8.992188 5.972656 L 17.984375 5.972656 L 17.984375 14.554688 C 17.984375 14.808594 17.78125 15.007812 17.53125 15.007812 L 12.207031 15.007812 L 12.207031 11.003906 L 12.378906 11.003906 C 12.628906 11.003906 12.832031 10.800781 12.832031 10.550781 C 12.832031 10.300781 12.628906 10.097656 12.378906 10.097656 L 11.464844 10.097656 C 11.421875 10.109375 11.382812 10.117188 11.339844 10.117188 L 6.644531 10.117188 C 6.601562 10.117188 6.5625 10.109375 6.523438 10.097656 L 5.609375 10.097656 C 5.359375 10.097656 5.15625 10.300781 5.15625 10.550781 C 5.15625 10.800781 5.359375 11.003906 5.609375 11.003906 L 5.777344 11.003906 L 5.777344 15.007812 L 0.453125 15.007812 C 0.203125 15.007812 0 14.808594 0 14.554688 L 0 5.972656 Z M 4.117188 9.210938 L 4.117188 7.394531 L 1.691406 7.394531 L 1.691406 9.210938 Z M 1.691406 11.445312 L 1.691406 13.265625 L 4.117188 13.265625 L 4.117188 11.445312 Z M 13.867188 11.445312 L 13.867188 13.265625 L 16.292969 13.265625 L 16.292969 11.445312 Z M 16.292969 9.210938 L 16.292969 7.394531 L 13.867188 7.394531 L 13.867188 9.210938 Z M 7.101562 7.394531 L 7.101562 9.210938 L 10.886719 9.210938 L 10.886719 7.394531 Z M 7.101562 7.394531 "/>
  </g>
</svg>