<?xml version="1.0" encoding="UTF-8" standalone="yes"?>
<svg xmlns="http://www.w3.org/2000/svg" xmlns:xlink="http://www.w3.org/1999/xlink" width="24px" height="24px" viewBox="0 0 18 18" version="1.1">
  <g id="surface1">
    <path style=" stroke:none;fill-rule:nonzero;fill:rgb(0.392157%,0%,0.784314%);fill-opacity:1;" d="M 10.652344 7.796875 L 11.128906 5.300781 L 6.847656 5.300781 L 7.328125 7.804688 C 7.515625 7.722656 7.734375 7.667969 7.976562 7.648438 C 7.839844 7.441406 7.761719 7.195312 7.761719 6.929688 C 7.761719 6.207031 8.347656 5.621094 9.066406 5.621094 C 9.789062 5.621094 10.375 6.207031 10.375 6.929688 C 10.375 7.195312 10.292969 7.445312 10.15625 7.652344 C 10.3125 7.675781 10.484375 7.722656 10.652344 7.796875 Z M 6.1875 4.261719 L 11.789062 4.261719 L 11.789062 5.085938 L 6.1875 5.085938 Z M 9.039062 0 C 9.511719 0 9.898438 0.382812 9.898438 0.855469 C 9.898438 1.328125 9.511719 1.714844 9.039062 1.714844 C 8.566406 1.714844 8.183594 1.328125 8.183594 0.855469 C 8.183594 0.382812 8.566406 0 9.039062 0 Z M 6.953125 4.105469 L 7.675781 4.105469 L 7.675781 3.074219 L 7.902344 3.074219 L 7.902344 4.105469 L 10.070312 4.105469 L 10.070312 3.0625 L 10.300781 3.0625 L 10.300781 4.105469 L 11.023438 4.105469 L 11.023438 2.917969 C 10.945312 1.976562 9.855469 1.988281 9.855469 1.988281 L 9.273438 1.988281 L 9.039062 2.375 L 8.804688 1.988281 L 8.136719 1.988281 C 6.910156 2.011719 6.953125 2.917969 6.953125 2.917969 Z M 4.304688 5.96875 C 4.84375 5.96875 5.28125 6.40625 5.28125 6.941406 C 5.28125 7.480469 4.84375 7.914062 4.304688 7.914062 C 3.769531 7.914062 3.332031 7.480469 3.332031 6.941406 C 3.332031 6.40625 3.769531 5.96875 4.304688 5.96875 Z M 9.058594 5.96875 C 9.59375 5.96875 10.03125 6.40625 10.03125 6.941406 C 10.03125 7.480469 9.59375 7.914062 9.058594 7.914062 C 8.519531 7.914062 8.085938 7.480469 8.085938 6.941406 C 8.085938 6.40625 8.519531 5.96875 9.058594 5.96875 Z M 13.8125 7.792969 C 14.347656 7.792969 14.785156 7.355469 14.785156 6.820312 C 14.785156 6.28125 14.347656 5.84375 13.8125 5.84375 C 13.273438 5.84375 12.835938 6.28125 12.835938 6.820312 C 12.835938 7.355469 13.273438 7.792969 13.8125 7.792969 Z M 7.507812 10.199219 L 11.3125 10.199219 L 11.3125 9.28125 C 11.222656 8.214844 9.984375 8.230469 9.984375 8.230469 L 8.035156 8.230469 C 6.636719 8.253906 6.6875 9.28125 6.6875 9.28125 L 6.6875 10.199219 Z M 1.9375 10.199219 L 6.5625 10.199219 L 6.5625 9.28125 C 6.472656 8.214844 5.234375 8.230469 5.234375 8.230469 L 3.285156 8.230469 C 1.886719 8.253906 1.9375 9.28125 1.9375 9.28125 Z M 17.582031 12.230469 L 17.582031 10.621094 L 0.417969 10.621094 L 0.417969 12.230469 L 2.191406 12.230469 L 2.191406 17.109375 L 1.496094 17.109375 L 1.496094 18 L 16.398438 18 L 16.398438 17.109375 L 15.804688 17.109375 L 15.804688 12.230469 C 15.804688 12.230469 17.582031 12.230469 17.582031 12.230469 Z M 11.441406 9.15625 L 11.441406 10.199219 L 16.066406 10.199219 L 16.066406 9.15625 C 15.976562 8.089844 14.738281 8.105469 14.738281 8.105469 L 12.789062 8.105469 C 11.390625 8.132812 11.441406 9.15625 11.441406 9.15625 Z M 11.441406 9.15625 "/>
  </g>
</svg>