<?xml version="1.0" encoding="UTF-8" standalone="yes"?>
<svg xmlns="http://www.w3.org/2000/svg" xmlns:xlink="http://www.w3.org/1999/xlink" width="24px" height="24px" viewBox="0 0 18 18" version="1.1">
  <g id="surface1">
    <path style=" stroke:none;fill-rule:nonzero;fill:rgb(0%,0%,0%);fill-opacity:1;" d="M 7.363281 1.8125 C 7.414062 2.050781 7.65625 2.25 7.902344 2.25 L 10.097656 2.25 C 10.34375 2.25 10.585938 2.050781 10.636719 1.8125 L 10.902344 0.4375 C 10.953125 0.199219 10.792969 0 10.546875 0 L 7.453125 0 C 7.207031 0 7.046875 0.199219 7.097656 0.4375 Z M 7.363281 1.8125 "/>
    <path style=" stroke:none;fill-rule:nonzero;fill:rgb(0%,0%,0%);fill-opacity:1;" d="M 7.578125 2.570312 C 7.332031 2.570312 7.128906 2.773438 7.128906 3.019531 L 7.128906 3.410156 C 7.128906 3.65625 7.332031 3.855469 7.578125 3.855469 L 10.421875 3.855469 C 10.667969 3.855469 10.871094 3.65625 10.871094 3.410156 L 10.871094 3.019531 C 10.871094 2.773438 10.667969 2.570312 10.421875 2.570312 Z M 7.578125 2.570312 "/>
    <path style=" stroke:none;fill-rule:nonzero;fill:rgb(0%,0%,0%);fill-opacity:1;" d="M 13.238281 6.199219 L 11.453125 4.445312 C 11.289062 4.28125 11.0625 4.179688 10.8125 4.179688 L 7.1875 4.179688 C 6.941406 4.179688 6.714844 4.277344 6.554688 4.441406 L 4.765625 6.199219 C 4.601562 6.359375 4.5 6.585938 4.5 6.835938 L 4.5 17.101562 C 4.5 17.597656 4.902344 18 5.398438 18 L 12.601562 18 C 13.097656 18 13.5 17.597656 13.5 17.101562 L 13.5 6.835938 C 13.5 6.605469 13.414062 6.375 13.238281 6.199219 Z M 11.628906 12.953125 C 11.753906 13.078125 11.753906 13.28125 11.628906 13.40625 L 10.664062 14.371094 C 10.535156 14.496094 10.332031 14.496094 10.207031 14.371094 L 9 13.164062 L 7.792969 14.371094 C 7.667969 14.496094 7.464844 14.496094 7.335938 14.371094 L 6.375 13.40625 C 6.246094 13.28125 6.246094 13.078125 6.375 12.953125 L 7.582031 11.742188 L 6.375 10.535156 C 6.246094 10.410156 6.246094 10.207031 6.375 10.082031 L 7.335938 9.117188 C 7.464844 8.992188 7.667969 8.992188 7.792969 9.117188 L 9 10.324219 L 10.207031 9.117188 C 10.332031 8.992188 10.535156 8.992188 10.664062 9.117188 L 11.628906 10.082031 C 11.753906 10.207031 11.753906 10.410156 11.628906 10.535156 L 10.417969 11.742188 Z M 11.628906 12.953125 "/>
  </g>
</svg>