<?xml version="1.0" encoding="UTF-8" standalone="yes"?>
<svg xmlns="http://www.w3.org/2000/svg" xmlns:xlink="http://www.w3.org/1999/xlink" width="24px" height="24px" viewBox="0 0 18 18" version="1.1">
  <g id="surface1">
    <path style=" stroke:none;fill-rule:nonzero;fill:rgb(0%,0%,0%);fill-opacity:1;" d="M 14.945312 0.015625 L 12.910156 0.015625 C 11.039062 0.015625 9.515625 1.539062 9.515625 3.410156 C 9.515625 3.472656 9.515625 3.535156 9.519531 3.59375 C 9.511719 3.625 9.507812 3.65625 9.507812 3.6875 L 9.507812 10.734375 C 9.507812 11.550781 10.171875 12.21875 10.992188 12.21875 L 11.183594 12.21875 L 11.183594 17.660156 C 11.183594 17.847656 11.335938 18 11.523438 18 C 11.710938 18 11.863281 17.847656 11.863281 17.660156 L 11.863281 12.214844 C 12.640625 12.167969 13.257812 11.523438 13.257812 10.734375 L 13.257812 6.804688 L 14.945312 6.804688 C 15.695312 6.804688 16.304688 6.195312 16.304688 5.449219 L 16.304688 1.375 C 16.304688 0.625 15.695312 0.015625 14.945312 0.015625 Z M 12.910156 0.695312 L 14.253906 0.695312 L 14.253906 6.128906 L 12.910156 6.128906 C 11.410156 6.128906 10.191406 4.910156 10.191406 3.410156 C 10.191406 1.914062 11.410156 0.695312 12.910156 0.695312 Z M 11.769531 11.542969 L 10.992188 11.542969 C 10.546875 11.542969 10.183594 11.179688 10.183594 10.734375 L 10.183594 5.433594 C 10.742188 6.183594 11.601562 6.695312 12.578125 6.789062 L 12.578125 10.734375 C 12.578125 11.179688 12.214844 11.542969 11.769531 11.542969 Z M 15.625 5.449219 C 15.625 5.824219 15.320312 6.128906 14.945312 6.128906 L 14.929688 6.128906 L 14.929688 0.695312 L 14.945312 0.695312 C 15.320312 0.695312 15.625 1 15.625 1.375 Z M 15.625 5.449219 "/>
    <path style=" stroke:none;fill-rule:nonzero;fill:rgb(0%,0%,0%);fill-opacity:1;" d="M 5.089844 0 C 3.21875 0 1.695312 1.519531 1.695312 3.390625 C 1.695312 4.566406 2.300781 5.605469 3.210938 6.214844 L 3.210938 10.734375 C 3.210938 11.550781 3.878906 12.21875 4.699219 12.21875 L 4.734375 12.21875 L 4.734375 17.660156 C 4.734375 17.847656 4.882812 18 5.070312 18 C 5.257812 18 5.410156 17.847656 5.410156 17.660156 L 5.410156 12.21875 L 5.476562 12.21875 C 6.292969 12.21875 6.960938 11.550781 6.960938 10.734375 L 6.960938 6.21875 C 7.875 5.609375 8.480469 4.570312 8.480469 3.390625 C 8.480469 1.519531 6.957031 0 5.089844 0 Z M 6.28125 10.734375 C 6.28125 11.179688 5.921875 11.542969 5.476562 11.542969 L 4.699219 11.542969 C 4.25 11.542969 3.890625 11.179688 3.890625 10.734375 L 3.890625 6.5625 C 4.261719 6.707031 4.667969 6.78125 5.089844 6.78125 C 5.507812 6.78125 5.910156 6.707031 6.28125 6.566406 Z M 6.46875 5.726562 C 6.457031 5.734375 6.445312 5.738281 6.433594 5.746094 C 6.035156 5.972656 5.578125 6.105469 5.089844 6.105469 C 3.59375 6.105469 2.375 4.886719 2.375 3.390625 C 2.375 1.894531 3.59375 0.679688 5.089844 0.679688 C 6.585938 0.679688 7.800781 1.894531 7.800781 3.390625 C 7.800781 4.382812 7.265625 5.253906 6.46875 5.726562 Z M 6.46875 5.726562 "/>
    <path style=" stroke:none;fill-rule:nonzero;fill:rgb(0%,0%,0%);fill-opacity:1;" d="M 6.453125 3.390625 C 6.453125 4.144531 5.839844 4.757812 5.089844 4.757812 C 4.335938 4.757812 3.722656 4.144531 3.722656 3.390625 C 3.722656 2.640625 4.335938 2.027344 5.089844 2.027344 C 5.277344 2.027344 5.425781 1.875 5.425781 1.6875 C 5.425781 1.5 5.277344 1.347656 5.089844 1.347656 C 3.960938 1.347656 3.046875 2.265625 3.046875 3.390625 C 3.046875 4.519531 3.960938 5.433594 5.089844 5.433594 C 6.214844 5.433594 7.132812 4.519531 7.132812 3.390625 C 7.132812 3.203125 6.980469 3.050781 6.792969 3.050781 C 6.605469 3.050781 6.453125 3.203125 6.453125 3.390625 Z M 6.453125 3.390625 "/>
  </g>
</svg>