<?xml version="1.0" encoding="UTF-8" standalone="yes"?>
<svg xmlns="http://www.w3.org/2000/svg" xmlns:xlink="http://www.w3.org/1999/xlink" width="24px" height="24px" viewBox="0 0 18 18" version="1.1">
  <g id="surface1">
    <path style=" stroke:none;fill-rule:nonzero;fill:rgb(0.392157%,0%,0.784314%);fill-opacity:1;" d="M 15.320312 6.066406 C 15.671875 5.3125 15.9375 4.382812 16.0625 3.226562 C 15.734375 3.191406 15.425781 3.171875 15.128906 3.164062 C 15.117188 4.191406 14.945312 5.105469 14.617188 5.894531 C 14.851562 5.9375 15.085938 5.992188 15.320312 6.066406 Z M 15.320312 6.066406 "/>
    <path style=" stroke:none;fill-rule:nonzero;fill:rgb(0.392157%,0%,0.784314%);fill-opacity:1;" d="M 12.125 3.441406 C 12.136719 3.511719 12.144531 3.578125 12.15625 3.648438 C 12.230469 4.210938 12.230469 4.765625 12.128906 5.3125 C 12.078125 5.585938 12.003906 5.847656 11.914062 6.09375 C 12.429688 5.914062 13 5.796875 13.628906 5.796875 C 13.820312 5.796875 14.015625 5.808594 14.210938 5.832031 C 14.523438 5.121094 14.714844 4.242188 14.726562 3.160156 C 14.730469 3.09375 14.730469 3.027344 14.730469 2.960938 C 14.726562 2.894531 14.726562 2.824219 14.722656 2.757812 C 14.714844 2.460938 14.695312 2.152344 14.660156 1.828125 C 13.542969 1.953125 12.636719 2.203125 11.902344 2.539062 C 11.976562 2.773438 12.042969 3.003906 12.09375 3.238281 C 12.105469 3.304688 12.113281 3.375 12.125 3.441406 Z M 12.125 3.441406 "/>
    <path style=" stroke:none;fill-rule:nonzero;fill:rgb(0.392157%,0%,0.784314%);fill-opacity:1;" d="M 6.09375 2.550781 C 5.355469 2.21875 4.453125 1.96875 3.335938 1.84375 C 3.300781 2.171875 3.28125 2.476562 3.273438 2.777344 C 4.257812 2.785156 5.136719 2.945312 5.902344 3.246094 C 5.953125 3.015625 6.015625 2.785156 6.09375 2.550781 Z M 6.09375 2.550781 "/>
    <path style=" stroke:none;fill-rule:nonzero;fill:rgb(0.392157%,0%,0.784314%);fill-opacity:1;" d="M 3.378906 5.894531 C 3.449219 5.882812 3.519531 5.875 3.585938 5.863281 C 3.652344 5.855469 3.71875 5.839844 3.785156 5.832031 C 3.984375 5.808594 4.179688 5.796875 4.375 5.796875 C 5.003906 5.796875 5.574219 5.910156 6.085938 6.09375 C 5.996094 5.847656 5.921875 5.59375 5.871094 5.320312 C 5.769531 4.777344 5.765625 4.222656 5.839844 3.660156 C 5.148438 3.371094 4.300781 3.191406 3.269531 3.179688 C 3.234375 3.179688 3.199219 3.179688 3.164062 3.179688 C 3.136719 3.179688 3.101562 3.179688 3.070312 3.179688 C 3.003906 3.179688 2.9375 3.183594 2.867188 3.1875 C 2.570312 3.195312 2.261719 3.210938 1.9375 3.25 C 2.0625 4.394531 2.328125 5.320312 2.675781 6.066406 C 2.910156 5.992188 3.148438 5.941406 3.378906 5.894531 Z M 3.378906 5.894531 "/>
    <path style=" stroke:none;fill-rule:nonzero;fill:rgb(0.392157%,0%,0.784314%);fill-opacity:1;" d="M 2.667969 11.957031 C 2.320312 12.703125 2.0625 13.628906 1.9375 14.773438 C 2.265625 14.808594 2.570312 14.824219 2.871094 14.835938 C 2.882812 13.816406 3.046875 12.914062 3.371094 12.128906 C 3.136719 12.085938 2.902344 12.03125 2.667969 11.957031 Z M 2.667969 11.957031 "/>
    <path style=" stroke:none;fill-rule:nonzero;fill:rgb(0.392157%,0%,0.784314%);fill-opacity:1;" d="M 5.871094 14.558594 C 5.859375 14.488281 5.851562 14.421875 5.84375 14.351562 C 5.765625 13.789062 5.765625 13.234375 5.867188 12.6875 C 5.917969 12.421875 5.992188 12.175781 6.074219 11.9375 C 5.5625 12.117188 4.996094 12.230469 4.371094 12.230469 C 4.175781 12.230469 3.976562 12.21875 3.777344 12.195312 C 3.472656 12.902344 3.28125 13.773438 3.269531 14.839844 C 3.269531 14.90625 3.269531 14.972656 3.269531 15.039062 C 3.269531 15.105469 3.273438 15.175781 3.277344 15.242188 C 3.285156 15.539062 3.300781 15.847656 3.339844 16.171875 C 4.457031 16.046875 5.363281 15.796875 6.097656 15.460938 C 6.019531 15.226562 5.957031 14.992188 5.90625 14.761719 C 5.894531 14.695312 5.882812 14.625 5.871094 14.558594 Z M 5.871094 14.558594 "/>
    <path style=" stroke:none;fill-rule:nonzero;fill:rgb(0.392157%,0%,0.784314%);fill-opacity:1;" d="M 11.90625 15.449219 C 12.640625 15.78125 13.546875 16.03125 14.664062 16.152344 C 14.699219 15.828125 14.71875 15.519531 14.726562 15.222656 C 13.738281 15.214844 12.863281 15.054688 12.09375 14.75 C 12.046875 14.984375 11.984375 15.214844 11.90625 15.449219 Z M 11.90625 15.449219 "/>
    <path style=" stroke:none;fill-rule:nonzero;fill:rgb(0.392157%,0%,0.784314%);fill-opacity:1;" d="M 14.628906 12.128906 C 14.558594 12.140625 14.492188 12.152344 14.421875 12.160156 C 14.355469 12.171875 14.289062 12.1875 14.222656 12.195312 C 14.023438 12.214844 13.824219 12.230469 13.625 12.230469 C 13 12.230469 12.433594 12.117188 11.925781 11.9375 C 12.007812 12.171875 12.078125 12.417969 12.128906 12.679688 C 12.230469 13.222656 12.234375 13.777344 12.15625 14.339844 C 12.851562 14.628906 13.699219 14.808594 14.730469 14.820312 C 14.765625 14.820312 14.796875 14.824219 14.835938 14.824219 C 14.863281 14.824219 14.898438 14.820312 14.925781 14.820312 C 14.992188 14.816406 15.0625 14.816406 15.128906 14.8125 C 15.425781 14.804688 15.734375 14.785156 16.0625 14.75 C 15.9375 13.617188 15.679688 12.699219 15.332031 11.957031 C 15.097656 12.03125 14.863281 12.085938 14.628906 12.128906 Z M 14.628906 12.128906 "/>
    <path style=" stroke:none;fill-rule:nonzero;fill:rgb(0.392157%,0%,0.784314%);fill-opacity:1;" d="M 10.851562 2.910156 C 10.875 2.972656 10.898438 3.039062 10.921875 3.105469 C 11 3.3125 11.0625 3.527344 11.113281 3.738281 C 11.128906 3.8125 11.152344 3.882812 11.164062 3.953125 C 11.179688 4.027344 11.191406 4.101562 11.199219 4.175781 C 11.226562 4.355469 11.25 4.535156 11.257812 4.71875 C 11.28125 5.371094 11.175781 5.972656 11.007812 6.511719 C 11.132812 6.441406 11.261719 6.375 11.394531 6.3125 C 11.707031 5.609375 11.886719 4.777344 11.777344 3.824219 C 11.769531 3.753906 11.753906 3.679688 11.746094 3.609375 C 11.734375 3.539062 11.726562 3.472656 11.710938 3.402344 C 11.667969 3.183594 11.605469 2.957031 11.53125 2.726562 C 11.507812 2.660156 11.492188 2.597656 11.46875 2.53125 C 11.445312 2.46875 11.417969 2.402344 11.390625 2.339844 C 11.101562 1.613281 10.65625 0.835938 9.988281 0.00390625 C 9.730469 0.210938 9.5 0.417969 9.28125 0.621094 C 9.941406 1.296875 10.445312 1.992188 10.773438 2.714844 C 10.800781 2.777344 10.824219 2.84375 10.851562 2.910156 Z M 10.851562 2.910156 "/>
    <path style=" stroke:none;fill-rule:nonzero;fill:rgb(0.392157%,0%,0.784314%);fill-opacity:1;" d="M 6.996094 6.511719 C 7.089844 6.566406 7.179688 6.621094 7.265625 6.675781 C 7.371094 6.746094 7.46875 6.816406 7.566406 6.886719 C 7.589844 6.902344 7.613281 6.917969 7.632812 6.933594 C 7.886719 6.761719 8.175781 6.640625 8.484375 6.574219 C 8.519531 6.566406 8.550781 6.5625 8.585938 6.558594 C 8.621094 6.550781 8.65625 6.546875 8.695312 6.539062 C 8.726562 6.535156 8.761719 6.53125 8.792969 6.53125 C 8.828125 6.527344 8.867188 6.527344 8.902344 6.523438 C 8.9375 6.523438 8.96875 6.519531 9 6.519531 C 9 6.519531 9.003906 6.519531 9.003906 6.519531 C 9.035156 6.519531 9.066406 6.523438 9.101562 6.523438 C 9.136719 6.527344 9.175781 6.527344 9.210938 6.53125 C 9.246094 6.53125 9.277344 6.535156 9.3125 6.539062 C 9.347656 6.546875 9.382812 6.550781 9.417969 6.558594 C 9.453125 6.5625 9.488281 6.566406 9.519531 6.574219 C 9.828125 6.640625 10.117188 6.765625 10.371094 6.933594 C 10.390625 6.917969 10.414062 6.902344 10.4375 6.886719 C 10.726562 6.195312 10.917969 5.371094 10.832031 4.460938 C 10.824219 4.382812 10.8125 4.300781 10.800781 4.21875 C 10.789062 4.148438 10.777344 4.070312 10.761719 3.996094 C 10.71875 3.789062 10.667969 3.574219 10.59375 3.359375 C 10.570312 3.292969 10.542969 3.226562 10.515625 3.160156 C 10.488281 3.09375 10.46875 3.03125 10.4375 2.964844 C 10.148438 2.296875 9.683594 1.605469 8.996094 0.898438 C 8.949219 0.851562 8.902344 0.808594 8.855469 0.761719 C 8.808594 0.714844 8.757812 0.667969 8.707031 0.621094 C 8.492188 0.417969 8.261719 0.210938 8.003906 0.00390625 C 7.335938 0.839844 6.890625 1.621094 6.601562 2.347656 C 6.578125 2.410156 6.550781 2.476562 6.527344 2.539062 C 6.503906 2.605469 6.484375 2.667969 6.464844 2.734375 C 6.390625 2.964844 6.328125 3.191406 6.285156 3.410156 C 6.269531 3.480469 6.265625 3.550781 6.253906 3.617188 C 6.242188 3.691406 6.226562 3.761719 6.222656 3.832031 C 6.117188 4.785156 6.296875 5.609375 6.609375 6.308594 C 6.742188 6.375 6.871094 6.441406 6.996094 6.511719 Z M 6.996094 6.511719 "/>
    <path style=" stroke:none;fill-rule:nonzero;fill:rgb(0.392157%,0%,0.784314%);fill-opacity:1;" d="M 7.148438 15.089844 C 7.121094 15.027344 7.101562 14.960938 7.074219 14.894531 C 7 14.6875 6.933594 14.472656 6.882812 14.261719 C 6.867188 14.1875 6.847656 14.117188 6.832031 14.046875 C 6.820312 13.972656 6.808594 13.898438 6.796875 13.824219 C 6.773438 13.644531 6.75 13.464844 6.742188 13.28125 C 6.71875 12.644531 6.820312 12.054688 6.980469 11.519531 C 6.855469 11.59375 6.726562 11.660156 6.589844 11.722656 C 6.289062 12.417969 6.113281 13.238281 6.222656 14.175781 C 6.230469 14.246094 6.242188 14.320312 6.253906 14.390625 C 6.265625 14.460938 6.273438 14.527344 6.289062 14.597656 C 6.332031 14.816406 6.394531 15.042969 6.46875 15.273438 C 6.488281 15.339844 6.507812 15.402344 6.53125 15.46875 C 6.554688 15.53125 6.582031 15.597656 6.609375 15.660156 C 6.894531 16.386719 7.34375 17.164062 8.011719 17.996094 C 8.269531 17.789062 8.5 17.582031 8.714844 17.378906 C 8.058594 16.707031 7.554688 16.007812 7.226562 15.285156 C 7.199219 15.222656 7.175781 15.15625 7.148438 15.089844 Z M 7.148438 15.089844 "/>
    <path style=" stroke:none;fill-rule:nonzero;fill:rgb(0.392157%,0%,0.784314%);fill-opacity:1;" d="M 11.011719 11.519531 C 10.921875 11.46875 10.832031 11.414062 10.746094 11.355469 C 10.640625 11.289062 10.542969 11.222656 10.449219 11.152344 C 10.414062 11.128906 10.378906 11.105469 10.347656 11.078125 C 10.097656 11.242188 9.816406 11.359375 9.515625 11.425781 C 9.480469 11.433594 9.445312 11.4375 9.414062 11.441406 C 9.378906 11.449219 9.339844 11.453125 9.304688 11.460938 C 9.273438 11.464844 9.238281 11.46875 9.207031 11.46875 C 9.167969 11.472656 9.132812 11.472656 9.09375 11.476562 C 9.0625 11.476562 9.03125 11.480469 9 11.480469 C 8.996094 11.480469 8.996094 11.480469 8.996094 11.480469 C 8.960938 11.480469 8.929688 11.476562 8.898438 11.476562 C 8.863281 11.472656 8.824219 11.472656 8.789062 11.46875 C 8.753906 11.464844 8.722656 11.460938 8.6875 11.457031 C 8.652344 11.453125 8.617188 11.449219 8.582031 11.441406 C 8.546875 11.4375 8.511719 11.433594 8.480469 11.425781 C 8.179688 11.359375 7.898438 11.242188 7.648438 11.078125 C 7.617188 11.105469 7.578125 11.128906 7.546875 11.152344 C 7.265625 11.835938 7.085938 12.644531 7.167969 13.535156 C 7.175781 13.617188 7.1875 13.699219 7.199219 13.78125 C 7.210938 13.855469 7.222656 13.925781 7.238281 14.003906 C 7.28125 14.210938 7.332031 14.425781 7.40625 14.640625 C 7.429688 14.707031 7.457031 14.773438 7.484375 14.839844 C 7.511719 14.90625 7.53125 14.96875 7.5625 15.035156 C 7.851562 15.703125 8.316406 16.394531 9.003906 17.101562 C 9.050781 17.144531 9.097656 17.191406 9.144531 17.238281 C 9.191406 17.285156 9.242188 17.332031 9.292969 17.378906 C 9.507812 17.582031 9.738281 17.789062 9.996094 17.992188 C 10.664062 17.160156 11.109375 16.378906 11.398438 15.652344 C 11.421875 15.589844 11.449219 15.523438 11.472656 15.460938 C 11.496094 15.394531 11.515625 15.328125 11.535156 15.265625 C 11.609375 15.035156 11.671875 14.808594 11.714844 14.589844 C 11.726562 14.519531 11.734375 14.449219 11.746094 14.382812 C 11.757812 14.308594 11.769531 14.238281 11.777344 14.167969 C 11.882812 13.230469 11.707031 12.417969 11.40625 11.726562 C 11.269531 11.660156 11.140625 11.59375 11.011719 11.519531 Z M 11.011719 11.519531 "/>
    <path style=" stroke:none;fill-rule:nonzero;fill:rgb(0.392157%,0%,0.784314%);fill-opacity:1;" d="M 2.839844 7.179688 C 2.90625 7.152344 2.972656 7.128906 3.042969 7.101562 C 3.109375 7.078125 3.175781 7.050781 3.242188 7.03125 C 3.453125 6.957031 3.671875 6.898438 3.886719 6.855469 C 3.960938 6.839844 4.035156 6.828125 4.113281 6.816406 C 4.1875 6.804688 4.261719 6.796875 4.335938 6.785156 C 4.523438 6.765625 4.710938 6.753906 4.898438 6.753906 C 5.480469 6.753906 6.015625 6.855469 6.507812 7.007812 C 6.609375 7.039062 6.710938 7.074219 6.808594 7.109375 C 6.921875 7.152344 7.035156 7.199219 7.144531 7.246094 C 7.167969 7.257812 7.195312 7.265625 7.21875 7.277344 C 7.234375 7.261719 7.253906 7.242188 7.273438 7.222656 C 7.28125 7.214844 7.289062 7.207031 7.300781 7.199219 C 7.28125 7.183594 7.261719 7.167969 7.242188 7.15625 C 7.152344 7.089844 7.058594 7.03125 6.960938 6.96875 C 6.847656 6.898438 6.730469 6.832031 6.609375 6.769531 C 6.507812 6.714844 6.40625 6.664062 6.300781 6.617188 C 5.742188 6.367188 5.097656 6.203125 4.375 6.203125 C 4.246094 6.203125 4.113281 6.210938 3.980469 6.222656 C 3.910156 6.226562 3.835938 6.238281 3.761719 6.246094 C 3.691406 6.253906 3.621094 6.265625 3.550781 6.277344 C 3.328125 6.316406 3.097656 6.363281 2.863281 6.433594 C 2.800781 6.453125 2.734375 6.480469 2.667969 6.5 C 2.601562 6.523438 2.535156 6.546875 2.46875 6.570312 C 1.707031 6.855469 0.882812 7.316406 0 8.027344 C 0.203125 8.28125 0.40625 8.511719 0.609375 8.726562 C 1.324219 8.027344 2.070312 7.511719 2.839844 7.179688 Z M 2.839844 7.179688 "/>
    <path style=" stroke:none;fill-rule:nonzero;fill:rgb(0.392157%,0%,0.784314%);fill-opacity:1;" d="M 2.65625 11.523438 C 2.722656 11.546875 2.789062 11.570312 2.851562 11.589844 C 3.089844 11.660156 3.316406 11.710938 3.539062 11.75 C 3.609375 11.761719 3.679688 11.769531 3.75 11.777344 C 3.820312 11.789062 3.894531 11.796875 3.964844 11.804688 C 4.101562 11.816406 4.238281 11.824219 4.371094 11.824219 C 5.089844 11.824219 5.726562 11.660156 6.285156 11.414062 C 6.386719 11.367188 6.488281 11.320312 6.585938 11.265625 C 6.703125 11.207031 6.816406 11.140625 6.929688 11.074219 C 7.027344 11.011719 7.125 10.949219 7.21875 10.882812 C 7.25 10.859375 7.28125 10.835938 7.3125 10.8125 C 7.296875 10.800781 7.28125 10.785156 7.265625 10.773438 C 7.253906 10.761719 7.242188 10.75 7.230469 10.734375 C 7.214844 10.722656 7.203125 10.703125 7.1875 10.6875 C 7.152344 10.652344 7.117188 10.617188 7.085938 10.578125 C 7.074219 10.5625 7.0625 10.546875 7.050781 10.527344 C 7.019531 10.492188 6.988281 10.453125 6.960938 10.410156 C 6.949219 10.394531 6.9375 10.375 6.925781 10.355469 C 6.765625 10.113281 6.648438 9.839844 6.582031 9.546875 C 6.570312 9.5 6.5625 9.453125 6.554688 9.40625 C 6.550781 9.386719 6.546875 9.367188 6.542969 9.347656 C 6.539062 9.296875 6.53125 9.246094 6.527344 9.195312 C 6.527344 9.175781 6.527344 9.15625 6.523438 9.136719 C 6.523438 9.097656 6.519531 9.0625 6.519531 9.019531 C 6.519531 9.015625 6.515625 9.007812 6.515625 9 C 6.515625 8.996094 6.519531 8.992188 6.519531 8.988281 C 6.519531 8.949219 6.523438 8.90625 6.527344 8.867188 C 6.527344 8.847656 6.527344 8.832031 6.527344 8.8125 C 6.53125 8.761719 6.539062 8.710938 6.546875 8.660156 C 6.546875 8.640625 6.550781 8.621094 6.554688 8.605469 C 6.5625 8.554688 6.570312 8.503906 6.582031 8.457031 C 6.648438 8.160156 6.765625 7.886719 6.925781 7.640625 C 6.933594 7.628906 6.941406 7.617188 6.949219 7.605469 C 6.925781 7.59375 6.902344 7.585938 6.878906 7.574219 C 6.304688 7.335938 5.632812 7.160156 4.898438 7.160156 C 4.816406 7.160156 4.734375 7.164062 4.652344 7.167969 C 4.570312 7.171875 4.484375 7.179688 4.402344 7.1875 C 4.324219 7.195312 4.246094 7.207031 4.167969 7.21875 C 3.953125 7.253906 3.734375 7.304688 3.511719 7.371094 C 3.441406 7.394531 3.371094 7.417969 3.300781 7.441406 C 3.230469 7.464844 3.164062 7.492188 3.09375 7.519531 C 2.386719 7.804688 1.648438 8.28125 0.894531 9.019531 C 0.847656 9.0625 0.804688 9.109375 0.757812 9.15625 C 0.707031 9.207031 0.660156 9.257812 0.609375 9.308594 C 0.40625 9.523438 0.203125 9.757812 0 10.011719 C 0.878906 10.710938 1.699219 11.171875 2.457031 11.453125 C 2.523438 11.480469 2.589844 11.5 2.65625 11.523438 Z M 2.65625 11.523438 "/>
    <path style=" stroke:none;fill-rule:nonzero;fill:rgb(0.392157%,0%,0.784314%);fill-opacity:1;" d="M 11.066406 11.074219 C 11.179688 11.140625 11.292969 11.207031 11.410156 11.269531 C 11.511719 11.320312 11.609375 11.367188 11.714844 11.414062 C 12.269531 11.660156 12.90625 11.824219 13.625 11.824219 C 13.757812 11.824219 13.898438 11.816406 14.035156 11.804688 C 14.109375 11.796875 14.179688 11.785156 14.253906 11.777344 C 14.320312 11.769531 14.390625 11.757812 14.460938 11.746094 C 14.683594 11.707031 14.914062 11.660156 15.148438 11.585938 C 15.214844 11.566406 15.28125 11.542969 15.34375 11.519531 C 15.410156 11.496094 15.476562 11.476562 15.542969 11.449219 C 16.304688 11.164062 17.121094 10.703125 18 10 C 17.796875 9.746094 17.59375 9.511719 17.390625 9.300781 C 16.679688 9.996094 15.9375 10.511719 15.171875 10.839844 C 15.105469 10.867188 15.039062 10.890625 14.972656 10.917969 C 14.90625 10.941406 14.839844 10.96875 14.773438 10.992188 C 14.5625 11.066406 14.34375 11.125 14.125 11.167969 C 14.054688 11.183594 13.980469 11.195312 13.90625 11.207031 C 13.832031 11.21875 13.757812 11.230469 13.679688 11.238281 C 13.488281 11.261719 13.296875 11.273438 13.101562 11.273438 C 12.527344 11.273438 11.996094 11.175781 11.511719 11.023438 C 11.410156 10.992188 11.3125 10.960938 11.214844 10.925781 C 11.101562 10.882812 10.992188 10.839844 10.886719 10.796875 C 10.84375 10.777344 10.804688 10.757812 10.765625 10.738281 C 10.753906 10.753906 10.742188 10.765625 10.726562 10.777344 C 10.714844 10.789062 10.699219 10.800781 10.683594 10.816406 C 10.714844 10.839844 10.742188 10.859375 10.777344 10.882812 C 10.871094 10.949219 10.96875 11.011719 11.066406 11.074219 Z M 11.066406 11.074219 "/>
    <path style=" stroke:none;fill-rule:nonzero;fill:rgb(0.392157%,0%,0.784314%);fill-opacity:1;" d="M 15.332031 6.5 C 15.265625 6.480469 15.199219 6.453125 15.132812 6.433594 C 14.898438 6.363281 14.671875 6.316406 14.449219 6.277344 C 14.378906 6.265625 14.304688 6.253906 14.234375 6.246094 C 14.164062 6.238281 14.089844 6.230469 14.019531 6.222656 C 13.886719 6.210938 13.757812 6.203125 13.628906 6.203125 C 12.90625 6.203125 12.261719 6.371094 11.703125 6.621094 C 11.59375 6.667969 11.496094 6.71875 11.394531 6.773438 C 11.273438 6.835938 11.15625 6.902344 11.042969 6.972656 C 10.945312 7.035156 10.851562 7.09375 10.765625 7.15625 C 10.742188 7.171875 10.722656 7.1875 10.703125 7.203125 C 10.710938 7.210938 10.722656 7.21875 10.734375 7.230469 C 10.75 7.246094 10.769531 7.265625 10.789062 7.285156 C 10.796875 7.292969 10.804688 7.300781 10.8125 7.3125 C 10.851562 7.355469 10.890625 7.394531 10.929688 7.441406 C 10.9375 7.453125 10.941406 7.460938 10.949219 7.472656 C 10.984375 7.515625 11.019531 7.5625 11.054688 7.609375 C 11.0625 7.621094 11.066406 7.632812 11.074219 7.644531 C 11.234375 7.886719 11.351562 8.160156 11.417969 8.453125 C 11.429688 8.5 11.4375 8.546875 11.445312 8.59375 C 11.449219 8.613281 11.453125 8.632812 11.453125 8.652344 C 11.460938 8.703125 11.464844 8.753906 11.472656 8.804688 C 11.472656 8.824219 11.472656 8.84375 11.472656 8.863281 C 11.476562 8.902344 11.480469 8.9375 11.480469 8.980469 C 11.480469 8.984375 11.480469 8.992188 11.480469 9 C 11.480469 9.003906 11.480469 9.007812 11.480469 9.011719 C 11.480469 9.050781 11.476562 9.09375 11.476562 9.132812 C 11.472656 9.148438 11.472656 9.167969 11.472656 9.1875 C 11.46875 9.238281 11.460938 9.289062 11.453125 9.339844 C 11.453125 9.359375 11.449219 9.375 11.445312 9.394531 C 11.4375 9.445312 11.429688 9.492188 11.417969 9.542969 C 11.351562 9.835938 11.234375 10.113281 11.074219 10.359375 C 11.0625 10.378906 11.046875 10.394531 11.035156 10.414062 C 11.074219 10.429688 11.109375 10.445312 11.148438 10.460938 C 11.714844 10.695312 12.375 10.867188 13.101562 10.867188 C 13.191406 10.867188 13.28125 10.863281 13.371094 10.859375 C 13.453125 10.855469 13.535156 10.847656 13.617188 10.835938 C 13.695312 10.828125 13.769531 10.816406 13.847656 10.804688 C 14.0625 10.769531 14.285156 10.71875 14.507812 10.652344 C 14.574219 10.628906 14.644531 10.605469 14.714844 10.578125 C 14.785156 10.554688 14.851562 10.527344 14.921875 10.5 C 15.625 10.214844 16.355469 9.738281 17.101562 9.007812 C 17.148438 8.964844 17.195312 8.917969 17.242188 8.871094 C 17.292969 8.820312 17.339844 8.769531 17.390625 8.71875 C 17.59375 8.503906 17.792969 8.273438 17.996094 8.019531 C 17.113281 7.3125 16.292969 6.851562 15.53125 6.570312 C 15.464844 6.542969 15.398438 6.523438 15.332031 6.5 Z M 15.332031 6.5 "/>
    <path style=" stroke:none;fill-rule:nonzero;fill:rgb(0.392157%,0%,0.784314%);fill-opacity:1;" d="M 6.925781 9.039062 C 6.929688 9.097656 6.9375 9.152344 6.945312 9.210938 C 6.945312 9.222656 6.945312 9.234375 6.949219 9.246094 C 6.953125 9.300781 6.953125 9.359375 6.964844 9.414062 C 6.96875 9.425781 6.972656 9.4375 6.976562 9.453125 C 7.019531 9.652344 7.101562 9.839844 7.199219 10.015625 C 7.234375 10.078125 7.269531 10.140625 7.308594 10.199219 C 7.316406 10.210938 7.328125 10.21875 7.335938 10.230469 C 7.371094 10.273438 7.40625 10.316406 7.441406 10.359375 C 7.449219 10.367188 7.453125 10.371094 7.460938 10.378906 C 7.464844 10.382812 7.464844 10.386719 7.46875 10.394531 C 7.515625 10.441406 7.558594 10.484375 7.609375 10.53125 C 7.613281 10.535156 7.617188 10.539062 7.621094 10.542969 C 7.628906 10.546875 7.636719 10.550781 7.640625 10.554688 C 7.683594 10.59375 7.726562 10.628906 7.769531 10.664062 C 7.78125 10.671875 7.792969 10.683594 7.804688 10.691406 C 7.863281 10.734375 7.925781 10.765625 7.988281 10.800781 C 8.128906 10.878906 8.28125 10.941406 8.4375 10.988281 C 8.507812 11.007812 8.574219 11.027344 8.644531 11.039062 C 8.664062 11.042969 8.6875 11.042969 8.710938 11.042969 C 8.757812 11.050781 8.804688 11.054688 8.851562 11.058594 C 8.855469 11.058594 8.855469 11.058594 8.855469 11.058594 C 8.878906 11.0625 8.898438 11.066406 8.917969 11.066406 C 8.945312 11.066406 8.972656 11.074219 8.996094 11.074219 C 9.023438 11.074219 9.046875 11.066406 9.070312 11.066406 C 9.089844 11.066406 9.109375 11.0625 9.132812 11.0625 C 9.132812 11.0625 9.136719 11.058594 9.136719 11.058594 C 9.183594 11.058594 9.230469 11.050781 9.277344 11.046875 C 9.300781 11.042969 9.324219 11.042969 9.347656 11.039062 C 9.417969 11.027344 9.484375 11.007812 9.550781 10.988281 C 9.710938 10.945312 9.863281 10.882812 10.003906 10.804688 C 10.066406 10.769531 10.128906 10.734375 10.1875 10.695312 C 10.199219 10.6875 10.210938 10.675781 10.222656 10.667969 C 10.265625 10.632812 10.308594 10.597656 10.351562 10.558594 C 10.359375 10.554688 10.363281 10.550781 10.371094 10.542969 C 10.375 10.539062 10.378906 10.539062 10.382812 10.535156 C 10.429688 10.492188 10.476562 10.445312 10.523438 10.398438 C 10.527344 10.394531 10.53125 10.386719 10.53125 10.382812 C 10.539062 10.375 10.542969 10.367188 10.550781 10.363281 C 10.585938 10.320312 10.621094 10.277344 10.65625 10.234375 C 10.664062 10.222656 10.675781 10.210938 10.683594 10.199219 C 10.726562 10.140625 10.761719 10.078125 10.796875 10.019531 C 10.898438 9.839844 10.976562 9.648438 11.023438 9.441406 C 11.027344 9.429688 11.03125 9.417969 11.03125 9.40625 C 11.042969 9.351562 11.042969 9.292969 11.050781 9.234375 C 11.050781 9.226562 11.050781 9.214844 11.054688 9.203125 C 11.058594 9.144531 11.070312 9.089844 11.070312 9.03125 C 11.070312 9.019531 11.074219 9.011719 11.074219 9 C 11.074219 8.996094 11.074219 8.996094 11.074219 8.996094 C 11.074219 8.984375 11.070312 8.972656 11.070312 8.960938 C 11.066406 8.902344 11.058594 8.847656 11.050781 8.792969 C 11.050781 8.78125 11.050781 8.769531 11.046875 8.753906 C 11.042969 8.699219 11.042969 8.640625 11.03125 8.585938 C 11.027344 8.574219 11.023438 8.5625 11.019531 8.550781 C 10.976562 8.347656 10.894531 8.160156 10.796875 7.984375 C 10.761719 7.921875 10.726562 7.859375 10.6875 7.804688 C 10.683594 7.796875 10.679688 7.792969 10.675781 7.789062 C 10.640625 7.738281 10.597656 7.691406 10.554688 7.640625 C 10.550781 7.636719 10.546875 7.632812 10.542969 7.628906 C 10.539062 7.625 10.539062 7.625 10.539062 7.621094 C 10.492188 7.570312 10.445312 7.523438 10.394531 7.476562 C 10.390625 7.476562 10.390625 7.472656 10.386719 7.472656 C 10.382812 7.464844 10.378906 7.460938 10.371094 7.457031 C 10.324219 7.414062 10.277344 7.375 10.226562 7.335938 C 10.21875 7.332031 10.214844 7.328125 10.207031 7.324219 C 10.148438 7.28125 10.089844 7.246094 10.027344 7.210938 C 9.882812 7.125 9.722656 7.058594 9.558594 7.011719 C 9.492188 6.996094 9.425781 6.976562 9.355469 6.964844 C 9.332031 6.960938 9.308594 6.960938 9.285156 6.957031 C 9.238281 6.949219 9.191406 6.945312 9.144531 6.941406 C 9.144531 6.941406 9.140625 6.941406 9.140625 6.941406 C 9.117188 6.941406 9.097656 6.9375 9.078125 6.9375 C 9.050781 6.933594 9.027344 6.925781 9 6.925781 C 8.972656 6.925781 8.949219 6.933594 8.925781 6.933594 C 8.90625 6.9375 8.886719 6.941406 8.863281 6.941406 C 8.863281 6.941406 8.863281 6.941406 8.859375 6.941406 C 8.8125 6.945312 8.765625 6.949219 8.71875 6.957031 C 8.695312 6.957031 8.671875 6.957031 8.652344 6.960938 C 8.582031 6.972656 8.511719 6.992188 8.445312 7.011719 C 8.277344 7.058594 8.121094 7.125 7.972656 7.210938 C 7.910156 7.246094 7.847656 7.28125 7.792969 7.320312 C 7.785156 7.324219 7.78125 7.328125 7.773438 7.332031 C 7.722656 7.371094 7.675781 7.414062 7.625 7.457031 C 7.621094 7.460938 7.617188 7.464844 7.613281 7.46875 C 7.609375 7.46875 7.609375 7.472656 7.605469 7.472656 C 7.554688 7.519531 7.507812 7.566406 7.464844 7.617188 C 7.460938 7.621094 7.460938 7.621094 7.457031 7.625 C 7.453125 7.628906 7.449219 7.632812 7.445312 7.640625 C 7.402344 7.6875 7.363281 7.734375 7.324219 7.785156 C 7.320312 7.792969 7.316406 7.796875 7.3125 7.800781 C 7.269531 7.859375 7.238281 7.921875 7.199219 7.984375 C 7.097656 8.160156 7.019531 8.351562 6.972656 8.558594 C 6.972656 8.570312 6.96875 8.582031 6.964844 8.59375 C 6.953125 8.648438 6.953125 8.707031 6.949219 8.765625 C 6.945312 8.777344 6.945312 8.785156 6.945312 8.796875 C 6.9375 8.855469 6.925781 8.910156 6.925781 8.972656 C 6.925781 8.980469 6.925781 8.992188 6.925781 9 C 6.925781 9 6.925781 9.003906 6.925781 9.003906 C 6.925781 9.015625 6.925781 9.027344 6.925781 9.039062 Z M 6.925781 9.039062 "/>
  </g>
</svg>