<?xml version="1.0" encoding="utf-8"?>
<!-- Generator: Adobe Illustrator 15.1.0, SVG Export Plug-In . SVG Version: 6.00 Build 0)  -->
<!DOCTYPE svg PUBLIC "-//W3C//DTD SVG 1.1//EN" "http://www.w3.org/Graphics/SVG/1.1/DTD/svg11.dtd">
<svg version="1.1" id="Layer_1" xmlns="http://www.w3.org/2000/svg" xmlns:xlink="http://www.w3.org/1999/xlink" x="0px" y="0px"
	 width="24px" height="24px" viewBox="0 0 24 24" enable-background="new 0 0 24 24" xml:space="preserve">
<path d="M19.994,9.575H4.868c0-2.748,2.227-4.975,4.975-4.975h5.177C17.767,4.6,19.994,6.827,19.994,9.575z M4.745,15.667
	c0,2.063,1.672,3.733,3.734,3.733h7.904c2.063,0,3.733-1.671,3.733-3.733H4.745z M19.994,13.37
	c-0.379,0.067-0.763,0.108-1.142,0.135c-0.923,0.063-1.909,0.053-2.814-0.199H15.68c-1.09,0.58-2.472,0.649-3.654,0.407
	c-0.319-0.065-0.675-0.267-1.029-0.407H9.864c-0.733,0.289-1.33,0.635-2.185,0.49c-0.351-0.061-0.563-0.25-0.659-0.49H5.218
	c-0.559,0-1.015,0.454-1.015,1.015s0.456,1.015,1.015,1.015h14.423c0.562,0,1.015-0.454,1.015-1.015
	C20.656,13.884,20.381,13.513,19.994,13.37z M18.93,12.672l1.129,0.281c0.223,0.055,0.448-0.078,0.502-0.302
	c0.057-0.223-0.078-0.447-0.302-0.502l-1.271-0.318c-0.094-0.022-0.189-0.012-0.275,0.028c-0.553,0.259-1.247,0.539-1.504,0.588
	c-0.189-0.093-0.615-0.214-1.706-0.32c-0.064-0.006-0.126,0.001-0.185,0.023l-0.716,0.264l-1.262-0.278
	c-0.057-0.013-0.114-0.014-0.171-0.002l-1.507,0.297h-1.29l-1.167-0.294c-0.06-0.014-0.125-0.016-0.187-0.002
	c-0.605,0.128-1.329,0.269-1.534,0.292c-0.089-0.041-0.273-0.163-0.389-0.237c-0.4-0.264-0.664-0.437-0.938-0.346
	c-0.109,0.033-0.865,0.188-1.534,0.319c-0.225,0.043-0.372,0.262-0.328,0.486c0.043,0.225,0.261,0.371,0.486,0.328
	c0.372-0.071,1.177-0.231,1.511-0.312c0.091,0.049,0.247,0.151,0.348,0.218c0.368,0.241,0.586,0.378,0.806,0.378
	c0.224,0,1.166-0.192,1.65-0.296l1.124,0.283c0.033,0.01,0.067,0.013,0.101,0.013h1.381c0.027,0,0.054-0.003,0.081-0.009
	l1.464-0.289l1.296,0.289c0.078,0.015,0.159,0.011,0.234-0.017l0.738-0.272c0.52,0.053,1.119,0.146,1.292,0.212
	c0.065,0.061,0.146,0.112,0.315,0.112C17.396,13.287,17.896,13.148,18.93,12.672z M4.258,11.18c0.562,0.072,1.063-0.055,1.686,0.216
	c0.625,0.271,0.9,0.714,1.666,0.775c1.222,0.088,1.901-0.506,2.954-0.765c0.399-0.123,0.855-0.146,1.31-0.171
	c0.707-0.088,1.342-0.527,1.944-0.661c0.758-0.091,0.844,0.565,1.512,0.733c0.31,0.085,1.11-0.109,1.465-0.128
	c0.047-0.002,0.101-0.001,0.161,0.001c0.41,0.269,0.787,0.355,1.327,0.328c0.203-0.012,0.267,0.239,0.516,0.125
	c0.134-0.042,0.167-0.241,0.191-0.366c0.24-0.029,0.438-0.092,0.563-0.206c0.687-0.091,1.703-0.191,1.866-0.734
	c0.313-0.777-3.452-0.021-4.062-0.04c-0.711-0.013-1.292-0.44-2.052-0.399c-0.962,0.051-1.71,0.293-2.613,0.493
	c-1.555,0.336-3.335,0.277-4.799,0.406c-1.06,0.106-1.303-0.643-2.177-0.85C5.254,9.859,3.633,9.894,3.46,10.461
	C3.19,11.136,3.851,11.151,4.258,11.18z"/>
</svg>
