<?xml version="1.0" encoding="UTF-8" standalone="yes"?>
<svg xmlns="http://www.w3.org/2000/svg" xmlns:xlink="http://www.w3.org/1999/xlink" width="24px" height="24px" viewBox="0 0 18 18" version="1.1">
  <g id="surface1">
    <path style=" stroke:none;fill-rule:nonzero;fill:rgb(0%,0%,0%);fill-opacity:1;" d="M 15.195312 3.378906 L 15.195312 15.757812 L 14.070312 15.757812 L 14.070312 14.121094 L 11.253906 15.652344 L 11.25 3.292969 C 11.023438 1.84375 10.144531 0.660156 8.9375 0 L 11.816406 0 C 13.53125 0.242188 14.921875 1.625 15.195312 3.378906 Z M 10.691406 3.378906 L 10.691406 18.007812 L 9.566406 18.007812 L 9.566406 15.597656 L 9.570312 15.597656 L 3.9375 14.792969 L 3.9375 16.882812 L 2.8125 16.882812 L 2.8125 3.378906 C 3.113281 1.433594 4.785156 0 6.753906 0 C 8.71875 0 10.394531 1.433594 10.691406 3.378906 Z M 9.003906 3.375 L 4.503906 3.375 L 4.503906 5.628906 L 9.003906 5.628906 Z M 9.003906 3.375 "/>
  </g>
</svg>