<?xml version="1.0" encoding="UTF-8" standalone="yes"?>
<svg xmlns="http://www.w3.org/2000/svg" xmlns:xlink="http://www.w3.org/1999/xlink" width="24px" height="24px" viewBox="0 0 18 18" version="1.1">
  <g id="surface1">
    <path style=" stroke:none;fill-rule:nonzero;fill:rgb(0%,0%,0%);fill-opacity:1;" d="M 11.054688 2.949219 L 10.90625 3.964844 C 10.855469 3.9375 10.800781 3.910156 10.746094 3.882812 L 8.980469 2.441406 L 8.40625 2.441406 L 8.824219 3.492188 C 8.726562 3.496094 8.632812 3.5 8.539062 3.511719 L 6.59375 3.140625 L 6.085938 3.414062 L 6.878906 4.070312 C 6.773438 4.132812 6.671875 4.199219 6.574219 4.269531 L 4.6875 4.917969 L 4.382812 5.40625 L 5.394531 5.582031 C 5.316406 5.722656 5.242188 5.863281 5.179688 6.011719 L 3.917969 7.53125 L 3.90625 8.105469 L 4.863281 7.730469 C 4.867188 7.867188 4.878906 7.996094 4.894531 8.128906 L 4.5625 10.089844 L 4.84375 10.59375 L 5.484375 9.789062 C 5.550781 9.894531 5.625 10 5.699219 10.097656 L 5.808594 10.808594 L 11.6875 10.808594 L 13.347656 10.183594 L 13.640625 9.691406 L 12.628906 9.539062 C 12.679688 9.445312 12.726562 9.347656 12.769531 9.246094 L 14.050781 7.734375 L 14.0625 7.160156 L 13.105469 7.523438 C 13.101562 7.414062 13.097656 7.308594 13.085938 7.203125 L 13.476562 5.261719 L 13.207031 4.753906 L 12.546875 5.539062 C 12.457031 5.386719 12.363281 5.246094 12.257812 5.109375 L 11.554688 3.242188 Z M 8.984375 8.183594 C 8.664062 8.183594 8.410156 7.929688 8.410156 7.609375 C 8.410156 7.292969 8.664062 7.035156 8.984375 7.035156 C 9.300781 7.035156 9.558594 7.292969 9.558594 7.609375 C 9.558594 7.929688 9.300781 8.183594 8.984375 8.183594 Z M 10.714844 11.347656 L 3 11.347656 L 3 16.207031 L 14.878906 16.207031 L 14.878906 11.347656 Z M 14.171875 9.15625 L 15.859375 7.824219 L 15.105469 7.46875 Z M 16.179688 9.355469 L 14.367188 10.007812 L 16.511719 10.121094 Z M 16.179688 9.355469 "/>
  </g>
</svg>