<?xml version="1.0" encoding="utf-8"?>
<!-- Generator: Adobe Illustrator 15.1.0, SVG Export Plug-In . SVG Version: 6.00 Build 0)  -->
<!DOCTYPE svg PUBLIC "-//W3C//DTD SVG 1.1//EN" "http://www.w3.org/Graphics/SVG/1.1/DTD/svg11.dtd">
<svg version="1.1" id="Layer_1" xmlns="http://www.w3.org/2000/svg" xmlns:xlink="http://www.w3.org/1999/xlink" x="0px" y="0px"
	 width="24px" height="24px" viewBox="0 0 24 24" enable-background="new 0 0 24 24" xml:space="preserve">
<path d="M17.61,8.622l1.932,1.751c1.158,1.049,1.158,2.601,1.158,2.601l0.306-0.469c0.508-0.769,0.895-1.692,0.83-2.451
	c-0.105-1.243-0.97-2.201-1.487-2.668l-0.688-0.623l1.367-1.24l-4.95-0.16l0.176,4.486L17.61,8.622z M6.67,15.57l-1.932-1.752
	c-1.158-1.049-1.158-2.6-1.158-2.6l-0.307,0.466c-0.504,0.769-0.893,1.693-0.829,2.452c0.106,1.242,0.971,2.2,1.488,2.669
	l0.688,0.622l-1.37,1.24l4.951,0.162l-0.177-4.488L6.67,15.57z M7.468,5.622c0,0.156,0.065,0.275,0.197,0.357
	c0.131,0.082,0.331,0.146,0.598,0.19V5.096c-0.299,0.03-0.507,0.09-0.623,0.182C7.525,5.369,7.468,5.483,7.468,5.622z M9.818,7.583
	C9.692,7.504,9.5,7.443,9.242,7.402v1.05c0.509-0.06,0.764-0.231,0.764-0.514C10.006,7.782,9.942,7.663,9.818,7.583z M14.309,6.776
	c0-2.786-2.494-5.045-5.568-5.045c-3.074,0-5.566,2.26-5.566,5.045c0,2.788,2.491,5.046,5.566,5.046
	C11.815,11.822,14.309,9.563,14.309,6.776z M10.81,9.038C10.442,9.31,9.919,9.479,9.242,9.545v0.576H8.263V9.574
	C7.86,9.563,7.481,9.531,7.125,9.476C6.771,9.422,6.476,9.346,6.241,9.25V8.155c0.161,0.053,0.317,0.099,0.47,0.137
	c0.152,0.04,0.307,0.073,0.467,0.101c0.16,0.028,0.33,0.05,0.504,0.067c0.178,0.017,0.37,0.026,0.58,0.031V7.268
	C8.004,7.235,7.747,7.189,7.492,7.132C7.237,7.073,7.01,6.987,6.805,6.872C6.602,6.756,6.437,6.604,6.309,6.414
	c-0.126-0.19-0.189-0.436-0.189-0.736c0-0.248,0.048-0.465,0.147-0.657c0.099-0.192,0.24-0.357,0.425-0.498
	c0.185-0.139,0.41-0.252,0.674-0.337C7.631,4.1,7.929,4.041,8.263,4.007V3.432h0.979v0.559c0.299,0.015,0.605,0.045,0.915,0.092
	c0.31,0.046,0.594,0.111,0.853,0.193v1.105c-0.631-0.186-1.222-0.29-1.767-0.313v1.24c0.259,0.037,0.515,0.086,0.766,0.148
	c0.253,0.061,0.479,0.15,0.679,0.268c0.199,0.117,0.361,0.27,0.485,0.459c0.126,0.19,0.189,0.433,0.189,0.732
	C11.361,8.392,11.176,8.766,10.81,9.038z M15.648,12.302c-3.075,0-5.566,2.259-5.566,5.047c0,2.787,2.491,5.045,5.566,5.045
	s5.564-2.259,5.564-5.045C21.213,14.562,18.724,12.302,15.648,12.302z M17.892,20.211c-0.09,0.034-0.196,0.066-0.317,0.093
	c-0.122,0.026-0.248,0.052-0.378,0.069c-0.132,0.019-0.268,0.031-0.405,0.042c-0.138,0.009-0.27,0.013-0.397,0.013
	c-1.695,0-2.73-0.61-3.104-1.829h-0.795V17.7h0.64c-0.004-0.054-0.007-0.105-0.008-0.155c-0.002-0.05-0.005-0.102-0.005-0.151
	c0-0.119,0.008-0.237,0.019-0.347h-0.646v-0.898h0.814c0.203-0.626,0.568-1.106,1.091-1.445c0.521-0.336,1.189-0.505,2.006-0.505
	c0.126,0,0.255,0.007,0.394,0.018c0.136,0.012,0.271,0.025,0.397,0.046c0.126,0.019,0.246,0.041,0.355,0.068
	c0.111,0.027,0.204,0.058,0.28,0.085v1.118c-0.189-0.06-0.402-0.109-0.635-0.152c-0.235-0.04-0.468-0.061-0.695-0.061
	c-0.814,0-1.361,0.275-1.647,0.825h2.083v0.901h-2.309c-0.014,0.1-0.02,0.205-0.02,0.316c0,0.061,0.001,0.121,0.006,0.186
	c0.004,0.064,0.01,0.112,0.014,0.151h1.846v0.898h-1.63c0.135,0.252,0.338,0.434,0.61,0.543c0.27,0.109,0.626,0.166,1.07,0.166
	c0.102,0,0.216-0.006,0.334-0.018c0.123-0.013,0.244-0.026,0.368-0.045c0.122-0.019,0.242-0.04,0.358-0.067
	c0.111-0.024,0.217-0.055,0.307-0.084L17.892,20.211L17.892,20.211L17.892,20.211z"/>
</svg>
