<?xml version="1.0" encoding="UTF-8" standalone="yes"?>
<svg xmlns="http://www.w3.org/2000/svg" xmlns:xlink="http://www.w3.org/1999/xlink" width="24px" height="24px" viewBox="0 0 18 18" version="1.1">
  <g id="surface1">
    <path style=" stroke:none;fill-rule:nonzero;fill:rgb(0%,0%,0%);fill-opacity:1;" d="M 12.921875 3.566406 L 10.777344 3.566406 C 10.667969 2.636719 9.878906 1.914062 8.925781 1.914062 C 7.96875 1.914062 7.179688 2.636719 7.070312 3.566406 L 4.925781 3.566406 C 4.058594 3.566406 3.351562 4.269531 3.351562 5.140625 L 3.351562 5.21875 C 3.351562 5.882812 3.765625 6.453125 4.347656 6.683594 L 4.347656 14.117188 C 4.347656 14.988281 5.054688 15.691406 5.921875 15.691406 L 11.925781 15.691406 C 12.792969 15.691406 13.5 14.988281 13.5 14.117188 L 13.5 6.683594 C 14.082031 6.453125 14.492188 5.882812 14.492188 5.222656 L 14.492188 5.140625 C 14.496094 4.273438 13.789062 3.566406 12.921875 3.566406 Z M 8.921875 2.660156 C 9.46875 2.660156 9.921875 3.050781 10.023438 3.566406 L 7.824219 3.566406 C 7.925781 3.050781 8.378906 2.660156 8.921875 2.660156 Z M 12.753906 14.117188 C 12.753906 14.574219 12.382812 14.945312 11.925781 14.945312 L 5.921875 14.945312 C 5.464844 14.945312 5.09375 14.574219 5.09375 14.117188 L 5.09375 6.796875 L 12.753906 6.796875 Z M 13.75 5.21875 C 13.75 5.675781 13.378906 6.046875 12.921875 6.046875 L 4.925781 6.046875 C 4.472656 6.046875 4.097656 5.675781 4.097656 5.21875 L 4.097656 5.140625 C 4.097656 4.683594 4.46875 4.3125 4.925781 4.3125 L 12.921875 4.3125 C 13.375 4.3125 13.75 4.683594 13.75 5.140625 Z M 6.921875 13.992188 C 7.128906 13.992188 7.296875 13.824219 7.296875 13.617188 L 7.296875 9.414062 C 7.296875 9.210938 7.128906 9.042969 6.921875 9.042969 C 6.71875 9.042969 6.550781 9.210938 6.550781 9.414062 L 6.550781 13.617188 C 6.550781 13.824219 6.71875 13.992188 6.921875 13.992188 Z M 8.921875 13.992188 C 9.128906 13.992188 9.296875 13.824219 9.296875 13.617188 L 9.296875 9.414062 C 9.296875 9.210938 9.128906 9.042969 8.921875 9.042969 C 8.71875 9.042969 8.550781 9.210938 8.550781 9.417969 L 8.550781 13.621094 C 8.550781 13.824219 8.71875 13.992188 8.921875 13.992188 Z M 10.925781 13.992188 C 11.128906 13.992188 11.296875 13.824219 11.296875 13.617188 L 11.296875 9.414062 C 11.296875 9.210938 11.128906 9.042969 10.925781 9.042969 C 10.71875 9.042969 10.550781 9.210938 10.550781 9.414062 L 10.550781 13.617188 C 10.550781 13.824219 10.71875 13.992188 10.925781 13.992188 Z M 10.925781 13.992188 "/>
  </g>
</svg>