<?xml version="1.0" encoding="UTF-8" standalone="no"?>
<!-- Generator: Adobe Illustrator 16.0.0, SVG Export Plug-In . SVG Version: 6.00 Build 0)  -->

<svg
   xmlns:dc="http://purl.org/dc/elements/1.1/"
   xmlns:cc="http://creativecommons.org/ns#"
   xmlns:rdf="http://www.w3.org/1999/02/22-rdf-syntax-ns#"
   xmlns:svg="http://www.w3.org/2000/svg"
   xmlns="http://www.w3.org/2000/svg"
   xmlns:sodipodi="http://sodipodi.sourceforge.net/DTD/sodipodi-0.dtd"
   xmlns:inkscape="http://www.inkscape.org/namespaces/inkscape"
   version="1.1"
   id="Capa_1"
   x="0px"
   y="0px"
   width="24"
   height="24"
   viewBox="0 0 24 24"
   xml:space="preserve"
   inkscape:version="0.48.5 r10040"
   sodipodi:docname="seke_foroshi.svg"><metadata
     id="metadata3806"><rdf:RDF><cc:Work
         rdf:about=""><dc:format>image/svg+xml</dc:format><dc:type
           rdf:resource="http://purl.org/dc/dcmitype/StillImage" /><dc:title></dc:title></cc:Work></rdf:RDF></metadata><defs
     id="defs3804" /><sodipodi:namedview
     pagecolor="#ffffff"
     bordercolor="#666666"
     borderopacity="1"
     objecttolerance="10"
     gridtolerance="10"
     guidetolerance="10"
     inkscape:pageopacity="0"
     inkscape:pageshadow="2"
     inkscape:window-width="657"
     inkscape:window-height="480"
     id="namedview3802"
     showgrid="false"
     inkscape:zoom="2.1071429"
     inkscape:cx="56"
     inkscape:cy="56"
     inkscape:window-x="0"
     inkscape:window-y="27"
     inkscape:window-maximized="0"
     inkscape:current-layer="Capa_1" /><g
     id="g3768"
     transform="matrix(0.20762712,0,0,0.20762712,0.37277747,0.37288128)"><path
       d="M 69.697,72.334 C 69.879,73.1 70,73.873 70,74.666 c 0,2.479 0,2.189 0,4.668 C 70,89.643 54.329,98 35,98 15.671,98 0,89.643 0,79.334 0,76.855 0,77.145 0,74.666 0,73.873 0.121,73.1 0.303,72.334 2.459,81.541 17.154,88.666 35,88.666 c 17.846,0 32.541,-7.125 34.697,-16.332 z M 35,102.666 C 17.154,102.666 2.459,95.541 0.303,86.334 0.121,87.1 0,87.873 0,88.666 0,91.145 0,90.855 0,93.334 0,103.643 15.671,112 35,112 c 19.329,0 35,-8.357 35,-18.666 0,-2.479 0,-2.189 0,-4.668 C 70,87.873 69.879,87.1 69.697,86.334 67.541,95.541 52.846,102.666 35,102.666 z M 35,46.667 C 15.671,46.667 0,55.025 0,65.334 0,75.643 15.671,84 35,84 54.329,84 70,75.643 70,65.334 70,55.024 54.329,46.667 35,46.667 z M 77,84 c -0.789,0 -1.559,-0.033 -2.334,-0.057 0,4.994 0,9.062 0,9.328 0.775,0.022 1.545,0.062 2.334,0.062 19.329,0 35,-8.356 35,-18.668 0,-2.479 0,-2.188 0,-4.666 0,-0.793 -0.121,-1.567 -0.303,-2.334 C 109.541,76.874 94.846,84 77,84 z m 0,-46.667 c 19.33,0 35,-8.357 35,-18.667 C 112,8.357 96.33,0 77,0 57.67,0 42,8.357 42,18.667 42,28.976 57.67,37.333 77,37.333 z M 77,42 C 59.154,42 44.459,34.874 42.303,25.667 42.121,26.432 42,27.207 42,28 c 0,2.478 0,2.188 0,4.667 0,3.962 2.333,7.63 6.281,10.654 6.822,1.386 12.754,3.798 17.249,6.967 3.598,0.667 7.447,1.045 11.471,1.045 19.329,0 35,-8.358 35,-18.667 0,-2.478 0,-2.188 0,-4.667 0,-0.793 -0.121,-1.568 -0.303,-2.333 C 109.541,34.874 94.846,42 77,42 z m 0,14 c -1.965,0 -3.878,-0.098 -5.754,-0.266 2.17,2.898 3.402,6.114 3.416,9.54 0.773,0.022 1.549,0.062 2.338,0.062 19.329,0 35,-8.357 35,-18.667 0,-2.478 0,-2.188 0,-4.667 0,-0.793 -0.121,-1.568 -0.303,-2.333 C 109.541,48.874 94.846,56 77,56 z m 0,14 c -0.789,0 -1.559,-0.033 -2.334,-0.057 0,2.596 0,5.945 0,9.328 0.775,0.022 1.545,0.062 2.334,0.062 19.329,0 35,-8.356 35,-18.668 0,-2.479 0,-2.188 0,-4.666 0,-0.793 -0.121,-1.568 -0.303,-2.333 C 109.541,62.874 94.846,70 77,70 z"
       id="path3770"
       inkscape:connector-curvature="0" /></g><g
     id="g3772"
     transform="translate(0,-88)" /><g
     id="g3774"
     transform="translate(0,-88)" /><g
     id="g3776"
     transform="translate(0,-88)" /><g
     id="g3778"
     transform="translate(0,-88)" /><g
     id="g3780"
     transform="translate(0,-88)" /><g
     id="g3782"
     transform="translate(0,-88)" /><g
     id="g3784"
     transform="translate(0,-88)" /><g
     id="g3786"
     transform="translate(0,-88)" /><g
     id="g3788"
     transform="translate(0,-88)" /><g
     id="g3790"
     transform="translate(0,-88)" /><g
     id="g3792"
     transform="translate(0,-88)" /><g
     id="g3794"
     transform="translate(0,-88)" /><g
     id="g3796"
     transform="translate(0,-88)" /><g
     id="g3798"
     transform="translate(0,-88)" /><g
     id="g3800"
     transform="translate(0,-88)" /></svg>