<?xml version="1.0" encoding="utf-8"?>
<!-- Generator: Adobe Illustrator 15.1.0, SVG Export Plug-In . SVG Version: 6.00 Build 0)  -->
<!DOCTYPE svg PUBLIC "-//W3C//DTD SVG 1.1//EN" "http://www.w3.org/Graphics/SVG/1.1/DTD/svg11.dtd">
<svg version="1.1"
	 id="svg2" inkscape:version="0.48.5 r10040" sodipodi:docname="bank-maskansvg.svg" xmlns:dc="http://purl.org/dc/elements/1.1/" xmlns:cc="http://creativecommons.org/ns#" xmlns:rdf="http://www.w3.org/1999/02/22-rdf-syntax-ns#" xmlns:svg="http://www.w3.org/2000/svg" xmlns:sodipodi="http://sodipodi.sourceforge.net/DTD/sodipodi-0.dtd" xmlns:inkscape="http://www.inkscape.org/namespaces/inkscape"
	 xmlns="http://www.w3.org/2000/svg" xmlns:xlink="http://www.w3.org/1999/xlink" x="0px" y="0px" width="24px" height="24px"
	 viewBox="0 0 24 24" enable-background="new 0 0 24 24" xml:space="preserve">
<path fill-rule="evenodd" clip-rule="evenodd" d="M11.445,22.227c-0.803-1.434-1.787-2.467-3.099-3.364
	c-1.269-0.868-2.778-1.463-3.808-2.656c-0.439-0.51-0.718-1.235-1.063-1.992c-0.337-0.742-0.627-1.53-0.752-2.302
	c-0.31-1.914,0.096-3.794,0.752-5.18c1.363-2.877,4.21-5.347,8.677-5.047c4.537,0.304,8.339,4.223,8.058,9.297
	c-0.099,1.775-0.722,3.275-1.461,4.56c-0.694,1.206-2.262,2.105-3.542,2.833C13.663,19.253,12.304,20.68,11.445,22.227z
	 M6.974,6.555c-0.849,0.94-1.638,2.298-1.638,4.117c0,2.139,0.874,3.429,1.948,4.427c1.178,1.095,2.854,1.792,4.737,1.639
	c4.095-0.335,6.97-5.218,4.648-9.165c-0.979-1.666-2.945-3.185-5.799-2.922C9.105,4.813,7.837,5.599,6.974,6.555z M10.028,9.255
	C9.14,9.399,8.303,9.595,7.417,9.742c0.459,0.692,1.331,1.355,1.859,2.125c-0.157,0.847-0.23,1.777-0.354,2.656
	c0.864-0.36,1.657-0.792,2.523-1.151c0.837,0.373,1.645,0.776,2.479,1.151c-0.037-0.483-0.078-0.917-0.133-1.372
	c-0.054-0.438-0.261-0.959-0.178-1.329c0.073-0.325,0.702-0.785,0.93-1.018c0.37-0.377,0.661-0.728,0.93-1.063
	c-0.92-0.143-1.766-0.359-2.7-0.487c-0.448-0.821-0.861-1.678-1.373-2.435C10.961,7.649,10.552,8.509,10.028,9.255z"/>
</svg>
