<?xml version="1.0" encoding="utf-8"?>
<!-- Generator: Adobe Illustrator 15.1.0, SVG Export Plug-In . SVG Version: 6.00 Build 0)  -->
<!DOCTYPE svg PUBLIC "-//W3C//DTD SVG 1.1//EN" "http://www.w3.org/Graphics/SVG/1.1/DTD/svg11.dtd">
<svg version="1.1" id="Layer_1" xmlns="http://www.w3.org/2000/svg" xmlns:xlink="http://www.w3.org/1999/xlink" x="0px" y="0px"
	 width="24px" height="24px" viewBox="0 0 24 24" enable-background="new 0 0 24 24" xml:space="preserve">
<path d="M12.039,17.323c-0.389,0-0.773-0.032-1.148-0.093l-0.687,1.373c0.598,0.129,1.212,0.195,1.837,0.195
	s1.236-0.066,1.837-0.195l-0.687-1.373C12.812,17.291,12.428,17.323,12.039,17.323z M20.809,7.744h-0.518
	c-0.092-0.305-0.198-0.603-0.323-0.898c-0.091-0.216-0.19-0.428-0.298-0.632l0.359-0.359c0.266-0.266,0.266-0.698,0-0.964
	l-2.578-2.575c-0.266-0.266-0.698-0.266-0.964,0l-0.325,0.325c-0.249-0.137-0.507-0.262-0.772-0.373
	c-0.277-0.118-0.56-0.221-0.846-0.307V1.477c0-0.378-0.305-0.682-0.682-0.682h-3.645c-0.377,0-0.682,0.304-0.682,0.682v0.484
	C9.249,2.047,8.968,2.149,8.69,2.268C8.408,2.388,8.134,2.522,7.867,2.67L7.513,2.315c-0.266-0.266-0.698-0.266-0.964,0L3.971,4.891
	c-0.266,0.266-0.266,0.698,0,0.964l0.411,0.412C4.285,6.455,4.194,6.65,4.11,6.849c-0.134,0.32-0.25,0.646-0.346,0.975H3.189
	c-0.377,0-0.682,0.305-0.682,0.682v3.643c0,0.377,0.305,0.682,0.682,0.682h0.655c0.077,0.241,0.166,0.479,0.266,0.716
	c0.102,0.239,0.213,0.473,0.334,0.7l-0.473,0.473c-0.266,0.267-0.266,0.698,0,0.964l2.248,2.249l1.174-2.33L9.679,13.3l-4.305,8.615
	c-0.211,0.455-0.014,0.996,0.441,1.207c0.125,0.057,0.255,0.084,0.382,0.084c0.344,0,0.671-0.194,0.825-0.524l4.581-9.164
	c0.143,0.021,0.288,0.029,0.438,0.029s0.296-0.011,0.438-0.029l4.581,9.164c0.154,0.332,0.481,0.524,0.825,0.524
	c0.127,0,0.259-0.027,0.382-0.084c0.455-0.211,0.652-0.752,0.441-1.207L14.403,13.3l2.296,2.316l1.132,2.264l2.195-2.195
	c0.267-0.267,0.267-0.698,0-0.964l-0.42-0.423c0.132-0.243,0.253-0.494,0.361-0.753c0.111-0.261,0.207-0.527,0.291-0.795h0.553
	c0.377,0,0.682-0.306,0.682-0.683V8.426C21.491,8.051,21.187,7.744,20.809,7.744z M15.104,9.792
	c-0.101-0.493-0.318-0.943-0.621-1.323l2.935-2.953c1.044,1.196,1.65,2.688,1.739,4.276H15.104z M4.923,9.792
	c0.089-1.589,0.696-3.078,1.739-4.276l2.935,2.953c-0.302,0.38-0.52,0.83-0.62,1.323H4.923z M16.776,4.87l-2.96,2.979
	c-0.387-0.269-0.837-0.45-1.323-0.521V3.084C14.089,3.184,15.583,3.807,16.776,4.87z M11.584,3.084V7.33
	c-0.486,0.07-0.937,0.252-1.323,0.521L7.302,4.873C8.495,3.807,9.988,3.184,11.584,3.084z M6.742,14.966
	c-1.07-1.187-1.703-2.673-1.812-4.262h3.995c0.05,0.559,0.245,1.077,0.552,1.513L6.742,14.966z M15.152,10.701h3.995
	c-0.111,1.589-0.743,3.078-1.812,4.263l-2.733-2.751C14.907,11.778,15.105,11.263,15.152,10.701z"/>
</svg>
