<?xml version="1.0" encoding="UTF-8" standalone="yes"?>
<svg xmlns="http://www.w3.org/2000/svg" xmlns:xlink="http://www.w3.org/1999/xlink" width="24px" height="24px" viewBox="0 0 18 18" version="1.1">
  <g id="surface1">
    <path style=" stroke:none;fill-rule:nonzero;fill:rgb(11.372549%,10.980392%,10.196078%);fill-opacity:1;" d="M 5.6875 11.972656 C 5.75 12.558594 6.324219 13.050781 6.917969 12.988281 C 7.902344 12.886719 8.132812 11.726562 8.21875 11.289062 C 8.257812 11.078125 8.460938 11.003906 8.789062 10.90625 C 8.921875 10.867188 9.0625 10.824219 9.179688 10.765625 C 10.039062 10.3125 10.367188 9.378906 10.011719 8.382812 L 9.96875 8.253906 C 9.765625 7.683594 9.664062 7.398438 9.085938 7.007812 C 8.992188 6.945312 8.886719 6.878906 8.773438 6.808594 C 8.339844 6.539062 7.796875 6.203125 7.609375 5.832031 C 7.5 5.617188 7.535156 5.597656 7.738281 5.480469 L 7.804688 5.4375 C 8.207031 5.191406 8.261719 4.761719 8.308594 4.378906 C 8.355469 4.003906 8.394531 3.679688 8.714844 3.511719 C 9.046875 3.339844 9.433594 3.246094 9.839844 3.246094 C 10.636719 3.246094 11.386719 3.585938 11.851562 4.152344 C 12.289062 4.6875 12.246094 5.535156 12.148438 6.289062 C 11.691406 9.792969 10.078125 11.503906 9.386719 12.234375 C 9.078125 12.5625 8.921875 12.730469 9.042969 12.910156 C 9.085938 12.976562 9.15625 13.015625 9.242188 13.015625 C 9.757812 13.015625 11.566406 11.011719 12.074219 10 C 12.375 9.398438 12.480469 8.746094 12.582031 8.113281 L 12.605469 7.964844 C 12.628906 7.820312 12.65625 7.671875 12.683594 7.519531 C 12.960938 5.929688 13.34375 3.753906 11.53125 2.800781 C 11.105469 2.574219 10.519531 2.433594 10.074219 2.453125 C 9.074219 2.496094 7.992188 3.054688 7.3125 3.875 C 6.78125 4.507812 6.558594 5.222656 6.660156 5.933594 C 6.773438 6.753906 7.363281 7.234375 7.929688 7.699219 C 8.265625 7.976562 8.585938 8.238281 8.8125 8.566406 C 8.917969 8.71875 9.183594 9.3125 9.136719 9.570312 C 9.113281 9.515625 9.085938 9.441406 9.070312 9.402344 C 9.054688 9.351562 9.039062 9.308594 9.023438 9.28125 C 8.65625 8.507812 7.304688 8.164062 7.226562 8.164062 C 7.167969 8.164062 7.117188 8.191406 7.082031 8.238281 C 7.050781 8.28125 7.039062 8.339844 7.054688 8.394531 C 7.332031 9.269531 7.011719 9.867188 6.339844 10.625 C 6.042969 10.964844 5.628906 11.429688 5.6875 11.972656 Z M 5.6875 11.972656 "/>
    <path style=" stroke:none;fill-rule:nonzero;fill:rgb(11.372549%,10.980392%,10.196078%);fill-opacity:1;" d="M 14.410156 2.035156 C 13.507812 0.742188 12.027344 0 10.34375 0 C 9.476562 0 8.566406 0.199219 7.710938 0.578125 C 6.277344 1.214844 4.507812 3.390625 4.386719 4.398438 C 4.386719 4.425781 4.386719 4.457031 4.394531 4.5 C 4.453125 4.777344 4.644531 5.101562 4.984375 5.101562 C 5.058594 5.101562 5.132812 5.085938 5.199219 5.054688 C 5.347656 4.992188 5.464844 4.847656 5.878906 4.304688 C 6.441406 3.578125 7.378906 2.359375 8.121094 1.980469 C 8.734375 1.664062 9.359375 1.503906 9.972656 1.503906 C 11.753906 1.503906 12.964844 2.824219 13.167969 3.375 C 13.5 4.261719 14.339844 8.464844 12.066406 11.3125 C 11.746094 11.714844 11.359375 12.074219 10.851562 12.445312 C 10.183594 12.929688 9.601562 13.386719 9.25 14.09375 C 9.179688 14.234375 9.113281 14.382812 9.042969 14.527344 C 8.824219 15.011719 8.613281 15.464844 8.242188 15.800781 C 7.792969 16.207031 7.273438 16.445312 6.785156 16.46875 C 5.949219 16.5 5.132812 16.046875 4.679688 15.296875 C 4.449219 14.914062 4.1875 14.335938 4.140625 13.859375 C 4.09375 13.40625 4.105469 12.921875 4.113281 12.449219 C 4.140625 11.855469 4.179688 10.945312 4.179688 10.910156 C 4.199219 10.796875 4.175781 10.550781 4.023438 10.351562 C 3.917969 10.210938 3.769531 10.128906 3.589844 10.113281 L 3.535156 10.109375 C 3.316406 10.109375 3.039062 10.210938 2.941406 10.707031 L 2.933594 10.738281 C 2.769531 11.347656 2.019531 14.488281 3.523438 16.453125 C 4.308594 17.480469 5.554688 18 7.226562 18 C 7.949219 18 8.777344 17.660156 9.390625 17.113281 C 9.90625 16.652344 10.222656 15.859375 10.476562 15.214844 C 10.589844 14.925781 10.71875 14.605469 10.800781 14.503906 C 10.921875 14.363281 11.375 14.003906 11.816406 13.660156 C 12.53125 13.09375 13.34375 12.453125 13.609375 12.0625 C 13.953125 11.554688 14.152344 10.964844 14.351562 10.386719 L 14.375 10.324219 C 14.425781 10.175781 14.476562 10.027344 14.53125 9.882812 C 15.726562 6.660156 15.6875 3.871094 14.410156 2.035156 Z M 14.410156 2.035156 "/>
  </g>
</svg>