<?xml version="1.0" encoding="UTF-8" standalone="yes"?>
<svg xmlns="http://www.w3.org/2000/svg" xmlns:xlink="http://www.w3.org/1999/xlink" width="24px" height="24px" viewBox="0 0 18 18" version="1.1">
  <g id="surface1">
    <path style=" stroke:none;fill-rule:nonzero;fill:rgb(0%,0%,0%);fill-opacity:1;" d="M 5.640625 4.621094 L 4.042969 1.933594 C 2.972656 2.570312 2.046875 3.457031 1.359375 4.5 L 3.96875 6.21875 C 4.398438 5.570312 4.976562 5.019531 5.640625 4.621094 Z M 5.640625 4.621094 "/>
    <path style=" stroke:none;fill-rule:nonzero;fill:rgb(0%,0%,0%);fill-opacity:1;" d="M 0 9.917969 L 3.125 9.917969 L 3.125 13.238281 L 0 13.238281 Z M 0 9.917969 "/>
    <path style=" stroke:none;fill-rule:nonzero;fill:rgb(0%,0%,0%);fill-opacity:1;" d="M 0 9.039062 L 0 9.046875 L 3.125 9.046875 L 3.125 9.039062 C 3.125 8.253906 3.300781 7.496094 3.640625 6.796875 L 0.828125 5.429688 C 0.277344 6.558594 0 7.773438 0 9.039062 Z M 0 9.039062 "/>
    <path style=" stroke:none;fill-rule:nonzero;fill:rgb(0%,0%,0%);fill-opacity:1;" d="M 8.578125 3.789062 L 8.578125 0.710938 C 8.578125 0.710938 6.609375 0.777344 4.996094 1.449219 L 6.234375 4.320312 C 7.347656 3.800781 8.578125 3.789062 8.578125 3.789062 Z M 8.578125 3.789062 "/>
    <path style=" stroke:none;fill-rule:nonzero;fill:rgb(0%,0%,0%);fill-opacity:1;" d="M 0 13.980469 L 3.125 13.980469 L 3.125 17.304688 L 0 17.304688 Z M 0 13.980469 "/>
    <path style=" stroke:none;fill-rule:nonzero;fill:rgb(0%,0%,0%);fill-opacity:1;" d="M 4.183594 13.980469 L 8.40625 13.980469 L 8.40625 17.304688 L 4.183594 17.304688 Z M 4.183594 13.980469 "/>
    <path style=" stroke:none;fill-rule:nonzero;fill:rgb(0%,0%,0%);fill-opacity:1;" d="M 9.609375 13.980469 L 13.832031 13.980469 L 13.832031 17.304688 L 9.609375 17.304688 Z M 9.609375 13.980469 "/>
    <path style=" stroke:none;fill-rule:nonzero;fill:rgb(0%,0%,0%);fill-opacity:1;" d="M 13.96875 1.933594 L 12.371094 4.621094 C 13.039062 5.019531 13.617188 5.570312 14.042969 6.21875 L 16.65625 4.5 C 15.96875 3.457031 15.039062 2.570312 13.96875 1.933594 Z M 13.96875 1.933594 "/>
    <path style=" stroke:none;fill-rule:nonzero;fill:rgb(0%,0%,0%);fill-opacity:1;" d="M 14.886719 9.917969 L 18.015625 9.917969 L 18.015625 13.238281 L 14.886719 13.238281 Z M 14.886719 9.917969 "/>
    <path style=" stroke:none;fill-rule:nonzero;fill:rgb(0%,0%,0%);fill-opacity:1;" d="M 17.183594 5.429688 L 14.371094 6.796875 C 14.714844 7.496094 14.886719 8.253906 14.886719 9.039062 L 14.886719 9.046875 L 18.015625 9.046875 L 18.015625 9.039062 C 18.015625 7.773438 17.734375 6.558594 17.183594 5.429688 Z M 17.183594 5.429688 "/>
    <path style=" stroke:none;fill-rule:nonzero;fill:rgb(0%,0%,0%);fill-opacity:1;" d="M 13.015625 1.449219 C 11.402344 0.777344 9.433594 0.710938 9.433594 0.710938 L 9.433594 3.789062 C 9.433594 3.789062 10.667969 3.800781 11.78125 4.320312 Z M 13.015625 1.449219 "/>
    <path style=" stroke:none;fill-rule:nonzero;fill:rgb(0%,0%,0%);fill-opacity:1;" d="M 14.886719 13.980469 L 18.015625 13.980469 L 18.015625 17.304688 L 14.886719 17.304688 Z M 14.886719 13.980469 "/>
    <path style=" stroke:none;fill-rule:nonzero;fill:rgb(0%,0%,0%);fill-opacity:1;" d="M 9.277344 12.886719 L 10.128906 12.886719 C 10.128906 12.882812 10.132812 12.882812 10.132812 12.878906 C 10.539062 12.816406 10.964844 12.53125 11.191406 12.082031 C 11.269531 12.320312 11.210938 12.609375 11.101562 12.886719 L 11.667969 12.886719 C 12.261719 11.761719 11.257812 10.414062 11.257812 10.414062 C 11.195312 10.808594 11.019531 11.078125 10.820312 11.265625 C 10.84375 11.140625 10.859375 11.011719 10.871094 10.882812 C 10.894531 10.480469 10.871094 10.074219 10.789062 9.679688 C 10.6875 9.207031 10.515625 8.753906 10.285156 8.335938 C 10.054688 7.910156 9.769531 7.511719 9.441406 7.164062 C 9.304688 7.023438 9.164062 6.890625 9.019531 6.765625 C 8.8125 6.582031 8.605469 6.402344 8.402344 6.21875 C 8.183594 6.480469 7.964844 6.738281 7.75 7 C 7.203125 7.65625 6.726562 8.394531 6.457031 9.210938 C 6.300781 9.675781 6.191406 10.152344 6.164062 10.644531 C 6.140625 11.136719 6.1875 11.628906 6.320312 12.105469 C 6.398438 12.375 6.503906 12.636719 6.636719 12.886719 L 7.242188 12.886719 C 7.234375 12.703125 7.234375 12.519531 7.242188 12.335938 C 7.269531 11.847656 7.359375 11.363281 7.523438 10.898438 C 7.742188 10.265625 8.070312 9.683594 8.457031 9.144531 C 8.480469 9.113281 8.503906 9.082031 8.523438 9.054688 C 8.804688 9.445312 9.046875 9.871094 9.207031 10.324219 C 9.371094 10.78125 9.449219 11.261719 9.441406 11.742188 C 9.433594 12.125 9.371094 12.5 9.28125 12.871094 C 9.28125 12.875 9.277344 12.878906 9.277344 12.886719 Z M 9.277344 12.886719 "/>
  </g>
</svg>