<?xml version="1.0" encoding="utf-8"?>
<!-- Generator: Adobe Illustrator 15.1.0, SVG Export Plug-In . SVG Version: 6.00 Build 0)  -->
<!DOCTYPE svg PUBLIC "-//W3C//DTD SVG 1.1//EN" "http://www.w3.org/Graphics/SVG/1.1/DTD/svg11.dtd">
<svg version="1.1"
	 id="svg2" sodipodi:docname="bank-maskansvg.svg" inkscape:version="0.48.5 r10040" xmlns:dc="http://purl.org/dc/elements/1.1/" xmlns:cc="http://creativecommons.org/ns#" xmlns:rdf="http://www.w3.org/1999/02/22-rdf-syntax-ns#" xmlns:svg="http://www.w3.org/2000/svg" xmlns:sodipodi="http://sodipodi.sourceforge.net/DTD/sodipodi-0.dtd" xmlns:inkscape="http://www.inkscape.org/namespaces/inkscape"
	 xmlns="http://www.w3.org/2000/svg" xmlns:xlink="http://www.w3.org/1999/xlink" x="0px" y="0px" width="24px" height="24px"
	 viewBox="0 0 24 24" enable-background="new 0 0 24 24" xml:space="preserve">
<path fill="#010002" d="M20.978,19.171v-8.533c0.351-0.314,0.573-0.771,0.573-1.28l-0.006-6.433H3.813L3.805,9.358
	c0,0.493,0.21,0.939,0.543,1.253v8.559H3.639v1.904h18.018v-1.904H20.978z M18.108,5.789v3.57c0,0.627-0.511,1.141-1.14,1.141
	s-1.141-0.514-1.141-1.141v-3.57H18.108z M12.387,5.789v3.57c0,0.627-0.512,1.141-1.14,1.141c-0.623,0-1.131-0.504-1.139-1.124
	c0-0.008,0-0.013,0-0.017v-3.57H12.387z M9.526,5.789v3.57c0,0.004,0,0.01,0,0.017c-0.009,0.62-0.517,1.124-1.14,1.124
	c-0.628,0-1.14-0.514-1.14-1.141v-3.57H9.526z M4.386,9.358v-3.57h2.279v3.57c0,0.627-0.511,1.141-1.139,1.141
	C4.897,10.499,4.386,9.985,4.386,9.358z M14.317,16.304H5.895v-4.217h8.422V16.304z M15.247,9.358c0,0.627-0.511,1.141-1.139,1.141
	c-0.63,0-1.141-0.514-1.141-1.141v-3.57h2.279V9.358z M19.352,18.938h-3.626v-6.851h3.626V18.938z M20.968,9.358
	c0,0.627-0.511,1.141-1.139,1.141c-0.629,0-1.14-0.514-1.14-1.141v-3.57h2.278V9.358z"/>
</svg>
