<?xml version="1.0" encoding="UTF-8" standalone="yes"?>
<svg xmlns="http://www.w3.org/2000/svg" xmlns:xlink="http://www.w3.org/1999/xlink" width="24px" height="24px" viewBox="0 0 18 18" version="1.1">
  <g id="surface1">
    <path style=" stroke:none;fill-rule:nonzero;fill:rgb(0%,0%,0%);fill-opacity:1;" d="M 6.773438 2.714844 L 10.125 4.878906 C 10.21875 4.9375 10.335938 4.902344 10.390625 4.800781 L 10.488281 4.613281 C 10.542969 4.511719 10.507812 4.378906 10.417969 4.316406 L 7.0625 2.15625 C 6.96875 2.09375 6.851562 2.128906 6.796875 2.234375 L 6.699219 2.421875 C 6.648438 2.523438 6.679688 2.65625 6.773438 2.714844 Z M 3.867188 8.335938 L 7.222656 10.5 C 7.3125 10.558594 7.433594 10.523438 7.484375 10.421875 L 7.582031 10.234375 C 7.636719 10.128906 7.605469 10 7.511719 9.9375 L 4.15625 7.777344 C 4.0625 7.714844 3.945312 7.75 3.890625 7.855469 L 3.796875 8.042969 C 3.742188 8.144531 3.773438 8.277344 3.867188 8.335938 Z M 15.699219 10.980469 L 8.980469 7.09375 L 9.886719 5.347656 C 9.9375 5.242188 9.90625 5.113281 9.816406 5.050781 L 6.792969 3.105469 C 6.703125 3.046875 6.582031 3.082031 6.53125 3.183594 L 4.398438 7.304688 C 4.347656 7.40625 4.378906 7.542969 4.46875 7.601562 L 7.492188 9.546875 C 7.582031 9.605469 7.699219 9.570312 7.753906 9.46875 L 8.65625 7.722656 L 15.027344 12.273438 C 15.117188 12.335938 15.234375 12.304688 15.289062 12.199219 L 15.773438 11.261719 C 15.824219 11.164062 15.792969 11.035156 15.699219 10.980469 Z M 16.757812 11.523438 L 16.421875 11.308594 C 16.328125 11.25 16.210938 11.285156 16.15625 11.390625 L 15.574219 12.511719 C 15.523438 12.613281 15.554688 12.746094 15.648438 12.808594 L 15.980469 13.023438 C 16.074219 13.082031 16.191406 13.046875 16.246094 12.945312 L 16.828125 11.820312 C 16.878906 11.71875 16.847656 11.585938 16.757812 11.523438 Z M 9.507812 12.859375 L 9.101562 12.859375 C 9.152344 12.796875 9.1875 12.714844 9.1875 12.621094 L 9.1875 12.265625 C 9.1875 12.070312 9.042969 11.90625 8.867188 11.90625 L 2.480469 11.90625 C 2.304688 11.90625 2.160156 12.070312 2.160156 12.265625 L 2.160156 12.621094 C 2.160156 12.714844 2.191406 12.796875 2.246094 12.859375 L 1.839844 12.859375 C 1.664062 12.859375 1.519531 13.023438 1.519531 13.21875 L 1.519531 14.644531 C 1.519531 14.839844 1.664062 15 1.839844 15 L 9.507812 15 C 9.683594 15 9.828125 14.839844 9.828125 14.644531 L 9.828125 13.214844 C 9.828125 13.019531 9.683594 12.859375 9.507812 12.859375 Z M 9.050781 14.507812 L 2.324219 14.507812 C 2.140625 14.507812 1.988281 14.339844 1.988281 14.132812 L 1.988281 13.757812 C 1.988281 13.550781 2.140625 13.382812 2.324219 13.382812 L 9.050781 13.382812 C 9.238281 13.382812 9.386719 13.550781 9.386719 13.757812 L 9.386719 14.132812 C 9.390625 14.339844 9.238281 14.507812 9.050781 14.507812 Z M 9.050781 14.507812 "/>
  </g>
</svg>