<?xml version="1.0" encoding="UTF-8" standalone="yes"?>
<svg xmlns="http://www.w3.org/2000/svg" xmlns:xlink="http://www.w3.org/1999/xlink" width="24px" height="24px" viewBox="0 0 18 18" version="1.1">
  <g id="surface1">
    <path style=" stroke:none;fill-rule:nonzero;fill:rgb(0%,0%,0%);fill-opacity:1;" d="M 17.421875 3.523438 C 17.3125 3.492188 17.1875 3.492188 17.09375 3.433594 C 16.859375 3.292969 16.578125 3.378906 16.339844 3.253906 C 16.191406 3.171875 16.050781 3.097656 15.933594 2.96875 C 15.859375 2.886719 15.722656 2.859375 15.609375 2.808594 C 15.566406 2.792969 15.519531 2.773438 15.476562 2.765625 C 15.421875 2.757812 15.355469 2.746094 15.308594 2.769531 C 15.1875 2.828125 15.078125 2.824219 14.972656 2.742188 C 14.851562 2.648438 14.738281 2.765625 14.617188 2.753906 C 14.613281 2.753906 14.589844 2.816406 14.59375 2.847656 C 14.621094 3.058594 14.550781 3.230469 14.402344 3.378906 C 14.355469 3.425781 14.34375 3.507812 14.3125 3.582031 C 14.335938 3.585938 14.359375 3.585938 14.40625 3.59375 C 14.375 3.699219 14.351562 3.804688 14.320312 3.910156 C 14.28125 4.039062 14.242188 4.171875 14.195312 4.300781 C 14.171875 4.378906 14.15625 4.386719 14.066406 4.371094 C 14.054688 4.507812 13.992188 4.609375 13.871094 4.675781 C 13.746094 4.742188 13.699219 4.859375 13.726562 5.003906 C 13.730469 5.023438 13.726562 5.0625 13.714844 5.066406 C 13.570312 5.144531 13.5625 5.273438 13.542969 5.417969 C 13.511719 5.664062 13.324219 5.800781 13.121094 5.914062 C 13.035156 5.964844 12.941406 6.015625 12.84375 6.042969 C 12.738281 6.070312 12.625 6.078125 12.515625 6.082031 C 12.308594 6.097656 12.121094 6.011719 11.929688 5.949219 C 11.691406 5.875 11.519531 5.730469 11.355469 5.558594 C 11.308594 5.503906 11.246094 5.460938 11.179688 5.429688 C 10.953125 5.324219 10.878906 5.082031 10.714844 4.917969 C 10.582031 4.792969 10.464844 4.652344 10.320312 4.5 C 10.390625 4.464844 10.433594 4.441406 10.464844 4.421875 C 10.410156 4.359375 10.355469 4.289062 10.289062 4.222656 C 10.265625 4.203125 10.226562 4.199219 10.191406 4.191406 C 10.113281 4.183594 10.113281 4.183594 10.109375 4.078125 C 10.152344 4.074219 10.195312 4.070312 10.234375 4.066406 C 10.242188 4.054688 10.25 4.046875 10.257812 4.035156 C 10.03125 4.023438 9.996094 3.800781 9.847656 3.710938 C 9.730469 3.636719 9.597656 3.59375 9.472656 3.535156 C 9.441406 3.523438 9.402344 3.507812 9.382812 3.480469 C 9.3125 3.378906 9.222656 3.363281 9.105469 3.390625 C 8.910156 3.4375 8.714844 3.398438 8.535156 3.335938 C 8.378906 3.285156 8.230469 3.191406 8.089844 3.101562 C 8.042969 3.074219 7.996094 2.992188 8.003906 2.941406 C 8.019531 2.832031 7.953125 2.820312 7.902344 2.785156 C 7.875 2.746094 7.832031 2.707031 7.832031 2.667969 C 7.828125 2.621094 7.863281 2.574219 7.882812 2.515625 C 7.871094 2.511719 7.839844 2.496094 7.785156 2.472656 C 7.820312 2.429688 7.851562 2.386719 7.886719 2.34375 C 7.808594 2.242188 7.726562 2.136719 7.644531 2.03125 C 7.570312 2.132812 7.511719 2.128906 7.441406 2.03125 C 7.394531 1.964844 7.324219 1.910156 7.253906 1.875 C 7.191406 1.839844 7.117188 1.792969 7.042969 1.875 C 7.027344 1.890625 6.976562 1.886719 6.953125 1.875 C 6.84375 1.820312 6.734375 1.796875 6.613281 1.835938 C 6.5625 1.847656 6.503906 1.824219 6.449219 1.816406 C 6.320312 1.789062 6.191406 1.761719 6.0625 1.738281 C 6.039062 1.734375 6.011719 1.738281 5.988281 1.746094 C 5.964844 1.75 5.9375 1.765625 5.910156 1.765625 C 5.753906 1.753906 5.59375 1.734375 5.433594 1.722656 C 5.390625 1.722656 5.347656 1.734375 5.308594 1.742188 C 5.183594 1.773438 5.0625 1.804688 4.945312 1.835938 C 4.976562 1.894531 4.964844 1.933594 4.871094 1.9375 C 4.804688 1.941406 4.738281 1.957031 4.664062 1.964844 C 4.683594 2.019531 4.695312 2.046875 4.707031 2.078125 C 4.675781 2.089844 4.640625 2.101562 4.609375 2.109375 C 4.597656 2.113281 4.585938 2.113281 4.578125 2.117188 C 4.46875 2.152344 4.367188 2.207031 4.257812 2.222656 C 4.128906 2.242188 4.058594 2.316406 4.003906 2.417969 C 3.980469 2.457031 3.953125 2.5 3.921875 2.527344 C 3.773438 2.648438 3.59375 2.75 3.476562 2.894531 C 3.34375 3.058594 3.128906 3.082031 3 3.230469 C 2.988281 3.238281 2.96875 3.246094 2.957031 3.246094 C 2.789062 3.214844 2.667969 3.335938 2.527344 3.378906 C 2.378906 3.425781 2.222656 3.4375 2.070312 3.476562 C 1.945312 3.507812 1.820312 3.554688 1.699219 3.609375 C 1.53125 3.6875 1.371094 3.777344 1.25 3.84375 C 1.164062 4.039062 1.292969 4.246094 1.128906 4.375 C 0.953125 4.503906 0.894531 4.699219 0.792969 4.875 C 0.738281 4.972656 0.660156 5.054688 0.582031 5.132812 C 0.445312 5.277344 0.398438 5.460938 0.382812 5.644531 C 0.351562 5.9375 0.328125 6.230469 0.332031 6.519531 C 0.339844 6.835938 0.375 7.148438 0.402344 7.464844 C 0.421875 7.664062 0.390625 7.84375 0.25 7.996094 C 0.226562 8.019531 0.199219 8.082031 0.214844 8.097656 C 0.277344 8.191406 0.238281 8.265625 0.207031 8.355469 C 0.167969 8.457031 0.15625 8.566406 0.152344 8.679688 C 0.167969 8.644531 0.183594 8.609375 0.203125 8.578125 C 0.207031 8.578125 0.214844 8.582031 0.222656 8.582031 C 0.191406 8.6875 0.164062 8.792969 0.132812 8.898438 C 0.128906 8.917969 0.117188 8.953125 0.125 8.960938 C 0.261719 9.066406 0.179688 9.1875 0.160156 9.308594 C 0.15625 9.351562 0.164062 9.410156 0.191406 9.441406 C 0.277344 9.53125 0.28125 9.527344 0.277344 9.605469 C 0.289062 9.609375 0.300781 9.609375 0.3125 9.609375 C 0.335938 9.441406 0.359375 9.273438 0.375 9.105469 C 0.382812 9.046875 0.375 8.984375 0.476562 9 C 0.492188 9.28125 0.523438 9.566406 0.519531 9.847656 C 0.515625 10.046875 0.472656 10.25 0.421875 10.445312 C 0.335938 10.800781 0.234375 11.15625 0.132812 11.507812 C 0.105469 11.597656 0.0390625 11.675781 0.015625 11.765625 C -0.00390625 11.835938 -0.0117188 11.945312 0.0273438 11.988281 C 0.175781 12.171875 0.246094 12.382812 0.308594 12.597656 C 0.390625 12.886719 0.480469 13.175781 0.546875 13.464844 C 0.617188 13.765625 0.660156 14.074219 0.71875 14.378906 C 0.792969 14.761719 0.851562 15.148438 0.84375 15.542969 C 0.839844 15.589844 0.886719 15.644531 0.921875 15.683594 C 1.015625 15.785156 1.0625 15.886719 1 16.027344 C 0.941406 16.160156 0.980469 16.238281 1.128906 16.25 C 1.390625 16.273438 1.652344 16.273438 1.917969 16.265625 C 1.984375 16.265625 2.066406 16.226562 2.121094 16.179688 C 2.179688 16.132812 2.164062 16.054688 2.097656 16.019531 C 2.015625 15.972656 1.929688 15.925781 1.839844 15.910156 C 1.574219 15.859375 1.445312 15.691406 1.378906 15.441406 C 1.351562 15.34375 1.289062 15.253906 1.253906 15.15625 C 1.207031 15.027344 1.152344 14.898438 1.132812 14.765625 C 1.074219 14.34375 1.042969 13.921875 0.980469 13.503906 C 0.933594 13.191406 0.96875 12.886719 1.007812 12.578125 C 1.023438 12.429688 0.996094 12.273438 0.992188 12.121094 C 0.992188 12.042969 0.996094 11.96875 1 11.894531 C 1.003906 11.867188 1.015625 11.835938 1.007812 11.8125 C 0.9375 11.589844 1.035156 11.398438 1.117188 11.203125 C 1.210938 10.984375 1.25 10.757812 1.277344 10.527344 C 1.296875 10.378906 1.335938 10.238281 1.375 10.097656 C 1.382812 10.0625 1.414062 10.035156 1.445312 9.996094 C 1.46875 10.03125 1.492188 10.050781 1.492188 10.070312 C 1.488281 10.257812 1.480469 10.445312 1.472656 10.636719 C 1.464844 10.800781 1.460938 10.964844 1.441406 11.128906 C 1.421875 11.339844 1.410156 11.558594 1.355469 11.765625 C 1.316406 11.902344 1.367188 12.003906 1.417969 12.097656 C 1.601562 12.4375 1.832031 12.757812 1.996094 13.105469 C 2.222656 13.578125 2.410156 14.074219 2.609375 14.5625 C 2.695312 14.777344 2.761719 15 2.851562 15.210938 C 2.878906 15.277344 2.949219 15.328125 3.003906 15.375 C 3.078125 15.433594 3.109375 15.496094 3.082031 15.59375 C 3.039062 15.726562 3.070312 15.796875 3.207031 15.800781 C 3.507812 15.804688 3.8125 15.78125 4.117188 15.769531 C 4.136719 15.769531 4.15625 15.757812 4.171875 15.75 C 4.203125 15.570312 4.101562 15.449219 3.921875 15.445312 C 3.648438 15.4375 3.449219 15.3125 3.3125 15.070312 C 3.246094 14.945312 3.132812 14.84375 3.074219 14.71875 C 2.976562 14.511719 2.894531 14.292969 2.824219 14.070312 C 2.699219 13.691406 2.59375 13.308594 2.476562 12.925781 C 2.472656 12.910156 2.460938 12.886719 2.464844 12.871094 C 2.496094 12.589844 2.367188 12.339844 2.335938 12.074219 C 2.296875 11.742188 2.203125 11.410156 2.332031 11.070312 C 2.371094 10.957031 2.367188 10.824219 2.363281 10.703125 C 2.363281 10.464844 2.355469 10.226562 2.339844 9.988281 C 2.332031 9.835938 2.390625 9.710938 2.464844 9.585938 C 2.5625 9.410156 2.660156 9.234375 2.746094 9.054688 C 2.800781 8.945312 2.820312 8.820312 2.875 8.714844 C 2.96875 8.539062 2.964844 8.363281 2.898438 8.1875 C 2.863281 8.097656 2.875 8.019531 2.890625 7.929688 C 2.917969 7.769531 2.898438 7.605469 2.898438 7.441406 C 2.898438 7.414062 2.902344 7.386719 2.902344 7.355469 C 2.941406 7.359375 2.984375 7.351562 3.011719 7.371094 C 3.082031 7.417969 3.152344 7.46875 3.210938 7.523438 C 3.5625 7.851562 3.945312 8.136719 4.375 8.347656 C 4.699219 8.503906 5.042969 8.585938 5.394531 8.660156 C 5.742188 8.730469 6.085938 8.726562 6.4375 8.726562 C 6.648438 8.726562 6.863281 8.726562 7.078125 8.726562 C 7.085938 8.726562 7.09375 8.730469 7.101562 8.726562 C 7.304688 8.644531 7.492188 8.757812 7.6875 8.765625 C 7.914062 8.773438 8.15625 8.835938 8.359375 8.667969 C 8.375 8.660156 8.441406 8.683594 8.449219 8.703125 C 8.476562 8.777344 8.503906 8.859375 8.5 8.933594 C 8.484375 9.164062 8.453125 9.394531 8.433594 9.625 C 8.414062 9.800781 8.382812 9.980469 8.382812 10.160156 C 8.386719 10.488281 8.320312 10.800781 8.246094 11.117188 C 8.210938 11.265625 8.144531 11.40625 8.121094 11.558594 C 8.101562 11.710938 8.109375 11.871094 8.117188 12.027344 C 8.136719 12.417969 8.179688 12.804688 8.183594 13.191406 C 8.1875 13.585938 8.160156 13.980469 8.136719 14.371094 C 8.125 14.5625 8.085938 14.75 8.070312 14.941406 C 8.066406 14.992188 8.089844 15.066406 8.128906 15.101562 C 8.246094 15.207031 8.238281 15.367188 8.125 15.496094 C 7.992188 15.648438 8.011719 15.757812 8.207031 15.804688 C 8.351562 15.84375 8.503906 15.851562 8.65625 15.863281 C 8.765625 15.871094 8.796875 15.898438 8.75 16 C 8.703125 16.105469 8.730469 16.144531 8.835938 16.183594 C 9.0625 16.269531 9.296875 16.269531 9.53125 16.269531 C 9.636719 16.269531 9.742188 16.28125 9.847656 16.265625 C 9.957031 16.25 10.0625 16.207031 10.171875 16.175781 C 10.132812 15.964844 10.066406 15.902344 9.863281 15.882812 C 9.644531 15.863281 9.410156 15.59375 9.398438 15.378906 C 9.390625 15.277344 9.375 15.15625 9.316406 15.078125 C 9.199219 14.917969 9.164062 14.738281 9.132812 14.554688 C 9.058594 14.128906 9.019531 13.699219 9.035156 13.265625 C 9.042969 13.03125 9.0625 12.796875 9.171875 12.582031 C 9.324219 12.289062 9.277344 11.984375 9.253906 11.675781 C 9.238281 11.480469 9.257812 11.285156 9.265625 11.089844 C 9.265625 11.058594 9.28125 11.027344 9.277344 10.996094 C 9.253906 10.523438 9.359375 10.074219 9.484375 9.621094 C 9.570312 9.308594 9.613281 8.984375 9.699219 8.671875 C 9.71875 8.59375 9.800781 8.503906 9.878906 8.46875 C 10.101562 8.367188 10.25 8.195312 10.375 8 C 10.441406 7.894531 10.515625 7.886719 10.617188 7.917969 C 10.804688 7.976562 10.992188 8.046875 11.183594 8.089844 C 11.390625 8.136719 11.605469 8.160156 11.816406 8.191406 C 11.957031 8.214844 12.09375 8.246094 12.230469 8.238281 C 12.46875 8.222656 12.703125 8.175781 12.9375 8.148438 C 13.453125 8.097656 13.855469 7.816406 14.25 7.519531 C 14.390625 7.414062 14.484375 7.253906 14.613281 7.136719 C 14.929688 6.84375 14.980469 6.421875 15.167969 6.066406 C 15.234375 5.945312 15.34375 5.84375 15.351562 5.6875 C 15.355469 5.65625 15.417969 5.628906 15.460938 5.597656 C 15.425781 5.546875 15.363281 5.476562 15.507812 5.480469 C 15.523438 5.351562 15.511719 5.222656 15.640625 5.128906 C 15.679688 5.097656 15.675781 5.003906 15.679688 4.9375 C 15.6875 4.800781 15.734375 4.761719 15.871094 4.746094 C 16.085938 4.722656 16.300781 4.679688 16.515625 4.648438 C 16.601562 4.636719 16.683594 4.640625 16.765625 4.621094 C 16.816406 4.613281 16.855469 4.574219 16.902344 4.554688 C 17.011719 4.511719 17.121094 4.464844 17.234375 4.4375 C 17.28125 4.429688 17.34375 4.46875 17.398438 4.492188 C 17.492188 4.539062 17.574219 4.558594 17.671875 4.476562 C 17.738281 4.425781 17.839844 4.417969 17.921875 4.382812 C 17.953125 4.371094 17.996094 4.34375 18 4.320312 C 18.011719 4.070312 17.664062 3.59375 17.421875 3.523438 Z M 17.421875 3.523438 "/>
  </g>
</svg>