<?xml version="1.0" encoding="UTF-8" standalone="yes"?>
<svg xmlns="http://www.w3.org/2000/svg" xmlns:xlink="http://www.w3.org/1999/xlink" width="24px" height="24px" viewBox="0 0 18 18" version="1.1">
  <g id="surface1">
    <path style=" stroke:none;fill-rule:nonzero;fill:rgb(0%,0%,0%);fill-opacity:1;" d="M 11.417969 12.960938 L 8.1875 11.246094 C 8.285156 11.492188 8.527344 11.664062 8.828125 11.871094 C 8.972656 11.972656 9.117188 12.074219 9.269531 12.195312 C 9.410156 12.308594 9.597656 12.488281 9.5625 12.695312 C 9.523438 12.929688 9.242188 13.039062 8.9375 13.15625 C 8.59375 13.289062 7.316406 13.660156 6.757812 13.8125 L 6.542969 13.871094 C 6.007812 14.019531 5.339844 14.203125 4.707031 14.277344 C 4.328125 14.324219 3.914062 14.574219 3.578125 14.773438 C 3.292969 14.945312 2.816406 15.136719 2.769531 15.136719 L 2.710938 15.136719 C 2.609375 15.136719 2.480469 15.132812 2.351562 15.105469 L 1.816406 16 Z M 14.558594 3.433594 C 14.191406 2.914062 13.46875 2.789062 12.949219 3.160156 L 9.660156 5.488281 C 9.1875 5.824219 9.046875 6.449219 9.300781 6.953125 L 8.402344 7.589844 C 8.332031 7.640625 8.289062 7.71875 8.289062 7.804688 L 8.289062 10.421875 L 7.90625 10.773438 C 8.023438 10.851562 8.117188 10.960938 8.15625 11.148438 C 8.160156 11.179688 8.171875 11.207031 8.183594 11.238281 L 8.734375 10.730469 C 8.789062 10.683594 8.820312 10.613281 8.820312 10.539062 L 8.820312 7.941406 L 9.625 7.371094 C 10.015625 7.699219 10.59375 7.742188 11.035156 7.429688 L 14.324219 5.101562 C 14.84375 4.730469 14.96875 4.007812 14.597656 3.488281 Z M 5.027344 10.210938 C 4.722656 10.382812 4.476562 10.789062 4.476562 11.042969 C 4.476562 11.082031 4.464844 11.117188 4.460938 11.152344 C 4.425781 11.316406 4.332031 11.457031 4.203125 11.578125 C 4.023438 11.75 3.792969 11.875 3.621094 11.953125 C 2.558594 12.4375 2.058594 12.875 1.839844 13.507812 C 1.761719 13.804688 1.667969 14.398438 1.769531 14.582031 C 1.863281 14.757812 2.03125 14.835938 2.234375 14.859375 C 2.300781 14.871094 2.371094 14.875 2.445312 14.875 L 2.503906 14.875 C 2.554688 14.875 2.742188 14.808594 2.742188 14.808594 C 2.742188 14.808594 3.011719 14.671875 3.222656 14.546875 C 3.578125 14.332031 4 14.066406 4.433594 14.015625 C 5.042969 13.945312 5.691406 13.761719 6.21875 13.617188 L 6.429688 13.558594 C 6.996094 13.402344 8.257812 13.03125 8.5625 12.914062 C 8.761719 12.839844 9.027344 12.738281 9.039062 12.652344 C 9.042969 12.636719 9.042969 12.5625 8.839844 12.398438 C 8.695312 12.28125 8.554688 12.183594 8.414062 12.085938 C 8.042969 11.828125 7.722656 11.605469 7.636719 11.199219 C 7.609375 11.078125 7.542969 11.015625 7.4375 10.960938 C 7.382812 10.9375 7.320312 10.910156 7.238281 10.882812 C 7.230469 10.882812 7.226562 10.878906 7.222656 10.875 C 7.035156 10.8125 6.800781 10.730469 6.585938 10.535156 C 6.570312 10.527344 6.5625 10.519531 6.550781 10.507812 C 6.320312 10.289062 6.046875 10.152344 5.765625 10.101562 C 5.691406 10.089844 5.621094 10.082031 5.550781 10.082031 C 5.386719 10.082031 5.226562 10.113281 5.089844 10.171875 C 5.066406 10.183594 5.046875 10.199219 5.027344 10.210938 Z M 5.027344 10.210938 "/>
  </g>
</svg>