<?xml version="1.0" encoding="UTF-8" standalone="yes"?>
<svg xmlns="http://www.w3.org/2000/svg" xmlns:xlink="http://www.w3.org/1999/xlink" width="24px" height="24px" viewBox="0 0 18 18" version="1.1">
  <g id="surface1">
    <path style=" stroke:none;fill-rule:nonzero;fill:rgb(0%,0%,0%);fill-opacity:1;" d="M 15.472656 6.621094 C 15.472656 6.621094 11.023438 4.3125 9.480469 3.394531 C 9.421875 3.359375 9.320312 3.292969 9.320312 3.171875 L 9.320312 2.433594 C 9.320312 2.347656 9.382812 2.238281 9.457031 2.195312 L 11.15625 1.214844 C 11.234375 1.171875 11.234375 1.101562 11.15625 1.058594 L 9.457031 0.078125 C 9.382812 0.0351562 9.25 0 9.164062 0 L 8.828125 0 C 8.738281 0 8.667969 0.0703125 8.667969 0.160156 L 8.667969 3.171875 C 8.667969 3.292969 8.578125 3.359375 8.519531 3.394531 C 6.992188 4.335938 2.558594 6.605469 2.558594 6.605469 C 2.523438 6.625 2 6.867188 2.371094 6.867188 L 15.699219 6.867188 C 16.019531 6.867188 15.511719 6.640625 15.472656 6.621094 Z M 15.472656 6.621094 "/>
    <path style=" stroke:none;fill-rule:nonzero;fill:rgb(0%,0%,0%);fill-opacity:1;" d="M 16.390625 17.703125 L 15.480469 11.714844 C 15.433594 11.417969 15.246094 11.5 15.148438 11.53125 C 14.925781 11.601562 14.6875 11.636719 14.441406 11.636719 C 14.152344 11.636719 13.871094 11.585938 13.609375 11.484375 C 13.535156 11.457031 13.460938 11.425781 13.394531 11.390625 C 13.082031 11.222656 12.992188 11.316406 12.925781 11.359375 C 12.570312 11.585938 12.144531 11.714844 11.695312 11.714844 C 11.367188 11.714844 11.046875 11.644531 10.761719 11.519531 C 10.652344 11.472656 10.484375 11.316406 10.253906 11.5 C 9.914062 11.761719 9.457031 11.867188 9 11.867188 C 8.5625 11.867188 8.144531 11.746094 7.796875 11.53125 C 7.707031 11.476562 7.578125 11.34375 7.34375 11.46875 C 7.035156 11.632812 6.671875 11.714844 6.304688 11.714844 C 5.882812 11.714844 5.476562 11.601562 5.136719 11.398438 C 5.046875 11.347656 4.910156 11.199219 4.664062 11.359375 C 4.582031 11.414062 4.488281 11.449219 4.394531 11.484375 C 4.128906 11.585938 3.847656 11.636719 3.558594 11.636719 C 3.332031 11.636719 3.109375 11.605469 2.898438 11.542969 C 2.78125 11.511719 2.585938 11.421875 2.511719 11.777344 L 1.609375 17.703125 C 1.585938 17.855469 1.703125 18 1.863281 18 C 1.863281 18 2.890625 18 3.234375 18 C 3.511719 18 3.574219 17.804688 3.574219 17.804688 L 4.359375 15.554688 C 4.445312 15.304688 4.554688 15.316406 4.601562 15.574219 L 5 17.800781 C 5 17.800781 5.042969 18 5.3125 18 C 5.738281 18 7.027344 18 7.027344 18 C 7.226562 18 7.40625 17.875 7.476562 17.6875 L 8.773438 13.996094 C 8.851562 13.78125 9.152344 13.78125 9.226562 13.996094 L 10.523438 17.6875 C 10.59375 17.875 10.773438 18 10.972656 18 C 10.972656 18 12.21875 18 12.636719 18 C 12.96875 18 13.007812 17.757812 13.007812 17.757812 L 13.402344 15.574219 C 13.445312 15.316406 13.554688 15.304688 13.640625 15.554688 L 14.414062 17.769531 C 14.414062 17.769531 14.515625 18 14.765625 18 C 15.109375 18 16.136719 18 16.136719 18 C 16.292969 18 16.414062 17.855469 16.390625 17.703125 Z M 16.390625 17.703125 "/>
    <path style=" stroke:none;fill-rule:nonzero;fill:rgb(0%,0%,0%);fill-opacity:1;" d="M 15.679688 7.878906 C 12.324219 7.878906 5.699219 7.878906 2.246094 7.878906 C 1.9375 7.878906 1.9375 8.117188 1.9375 8.117188 L 1.9375 9.320312 C 1.9375 9.796875 2.214844 10.214844 2.640625 10.464844 C 2.902344 10.617188 3.21875 10.707031 3.558594 10.707031 C 4.03125 10.707031 4.453125 10.535156 4.75 10.261719 C 4.789062 10.222656 4.839844 10.203125 4.890625 10.203125 C 4.949219 10.203125 5.003906 10.226562 5.046875 10.269531 C 5.34375 10.582031 5.796875 10.78125 6.304688 10.78125 C 6.746094 10.78125 7.144531 10.632812 7.4375 10.386719 C 7.476562 10.355469 7.523438 10.339844 7.570312 10.339844 C 7.628906 10.339844 7.683594 10.359375 7.726562 10.40625 C 8.023438 10.726562 8.484375 10.933594 9 10.933594 C 9.515625 10.933594 9.976562 10.726562 10.273438 10.40625 C 10.316406 10.359375 10.371094 10.339844 10.429688 10.339844 C 10.476562 10.339844 10.523438 10.355469 10.5625 10.386719 C 10.855469 10.632812 11.253906 10.78125 11.695312 10.78125 C 12.203125 10.78125 12.65625 10.582031 12.953125 10.269531 C 12.996094 10.226562 13.050781 10.203125 13.109375 10.203125 C 13.160156 10.203125 13.207031 10.222656 13.25 10.261719 C 13.546875 10.535156 13.96875 10.707031 14.441406 10.707031 C 14.78125 10.707031 15.097656 10.617188 15.359375 10.464844 C 15.785156 10.214844 16.0625 9.796875 16.0625 9.320312 L 16.0625 8.207031 C 16.0625 8.207031 16.0625 7.878906 15.679688 7.878906 Z M 3.40625 9.871094 C 3.003906 9.871094 2.679688 9.546875 2.679688 9.144531 C 2.679688 8.742188 3.003906 8.417969 3.40625 8.417969 C 3.808594 8.417969 4.132812 8.742188 4.132812 9.144531 C 4.132812 9.546875 3.808594 9.871094 3.40625 9.871094 Z M 6.222656 9.871094 C 5.820312 9.871094 5.496094 9.546875 5.496094 9.144531 C 5.496094 8.742188 5.820312 8.417969 6.222656 8.417969 C 6.625 8.417969 6.949219 8.742188 6.949219 9.144531 C 6.949219 9.546875 6.625 9.871094 6.222656 9.871094 Z M 9 9.871094 C 8.597656 9.871094 8.273438 9.546875 8.273438 9.144531 C 8.273438 8.742188 8.597656 8.417969 9 8.417969 C 9.402344 8.417969 9.726562 8.742188 9.726562 9.144531 C 9.726562 9.546875 9.402344 9.871094 9 9.871094 Z M 11.722656 9.871094 C 11.320312 9.871094 10.996094 9.546875 10.996094 9.144531 C 10.996094 8.742188 11.320312 8.417969 11.722656 8.417969 C 12.125 8.417969 12.449219 8.742188 12.449219 9.144531 C 12.449219 9.546875 12.125 9.871094 11.722656 9.871094 Z M 14.554688 9.871094 C 14.152344 9.871094 13.828125 9.546875 13.828125 9.144531 C 13.828125 8.742188 14.152344 8.417969 14.554688 8.417969 C 14.957031 8.417969 15.28125 8.742188 15.28125 9.144531 C 15.28125 9.546875 14.957031 9.871094 14.554688 9.871094 Z M 14.554688 9.871094 "/>
  </g>
</svg>