<?xml version="1.0" encoding="utf-8"?>
<!-- Generator: Adobe Illustrator 15.1.0, SVG Export Plug-In . SVG Version: 6.00 Build 0)  -->
<!DOCTYPE svg PUBLIC "-//W3C//DTD SVG 1.1//EN" "http://www.w3.org/Graphics/SVG/1.1/DTD/svg11.dtd">
<svg version="1.1"
	 id="Layer_1" inkscape:version="0.48.5 r10040" sodipodi:docname="bank-kar-afarin.svg" xmlns:dc="http://purl.org/dc/elements/1.1/" xmlns:cc="http://creativecommons.org/ns#" xmlns:rdf="http://www.w3.org/1999/02/22-rdf-syntax-ns#" xmlns:svg="http://www.w3.org/2000/svg" xmlns:sodipodi="http://sodipodi.sourceforge.net/DTD/sodipodi-0.dtd" xmlns:inkscape="http://www.inkscape.org/namespaces/inkscape"
	 xmlns="http://www.w3.org/2000/svg" xmlns:xlink="http://www.w3.org/1999/xlink" x="0px" y="0px" width="24px" height="24px"
	 viewBox="0 0 24 24" enable-background="new 0 0 24 24" xml:space="preserve">
<path d="M19.613,20.236c-0.067,0.009-0.135,0.012-0.205,0.012c-1.069,0-1.937-0.868-1.937-1.938c0-0.377,0.108-0.73,0.295-1.026
	c0.317-0.506,0.584-0.808,0.309-0.862c-0.162-0.032-0.331-0.048-0.504-0.048c-0.236,0-0.464,0.033-0.682,0.093v-4.098
	c0.161-0.233,0.157-0.543-0.007-0.771c-0.014-0.06-0.056-0.105-0.114-0.123c-0.669-0.597-1.324-1.091-1.964-1.506V9.764
	c0.039,0.017,0.066,0.03,0.077,0.035c0.329,0.168,0.732,0.037,0.902-0.292c0.17-0.33,0.04-0.735-0.29-0.905
	c-0.099-0.051-1.532-0.762-3.662-0.455V3.155c0-0.371-0.301-0.672-0.673-0.672c-0.371,0-0.672,0.301-0.672,0.672v5.071
	C7.692,7.756,5.801,8.692,5.674,8.757c-0.075,0.039-0.138,0.091-0.191,0.15C5.393,8.91,5.32,8.983,5.32,9.075v0.18
	c-0.009,0.062-0.008,0.125,0,0.188v4.105c-0.547,0.082-0.969,0.549-0.969,1.119c0,0.628,0.509,1.138,1.137,1.138
	c0.628,0,1.138-0.51,1.138-1.138c0-0.57-0.422-1.037-0.97-1.119V9.941c0.188,0.105,0.424,0.118,0.631,0.013
	c0.074-0.037,0.85-0.411,2.106-0.498c-0.554,0.346-1.125,0.772-1.708,1.293c-0.276,0.247-0.3,0.672-0.052,0.949
	c0.091,0.103,0.208,0.168,0.333,0.2v4.572c-0.042,0.06-0.082,0.139-0.116,0.245c-0.158,0.482-0.286,0.874-0.286,0.874H5.643
	c-0.509,0-0.587,0.243-0.175,0.541c0.411,0.3,0.745,0.542,0.745,0.542l-0.285,0.876c-0.157,0.483,0.049,0.633,0.46,0.335
	c0.412-0.3,0.745-0.541,0.745-0.541l0.746,0.541c0.412,0.298,0.617,0.148,0.46-0.335c-0.157-0.483-0.285-0.876-0.285-0.876
	L8.8,18.131c0.412-0.299,0.333-0.541-0.176-0.541c-0.509,0-0.921,0-0.921,0l-0.285-0.874c-0.035-0.108-0.074-0.188-0.117-0.247
	v-4.57c0.101-0.026,0.198-0.073,0.281-0.148c1.24-1.109,2.405-1.722,3.424-2.039c1.043,0.271,2.212,0.777,3.463,1.65v2.926
	c-0.003,0.005-0.007,0.008-0.009,0.013c-0.188-0.059-0.393-0.066-0.597-0.008c-0.342,0.097-0.595,0.354-0.701,0.667
	c-0.308,0.095-0.483,0.415-0.395,0.726c0.087,0.31,0.405,0.49,0.717,0.409c0.254,0.212,0.605,0.299,0.947,0.2
	c0.148-0.042,0.28-0.116,0.391-0.211c0.219,0.226,0.551,0.325,0.874,0.233c0.469-0.132,0.741-0.622,0.607-1.091
	c-0.091-0.32-0.347-0.549-0.648-0.618c0.003-0.067-0.005-0.136-0.023-0.205c-0.095-0.335-0.442-0.528-0.777-0.433
	c-0.018,0.004-0.033,0.014-0.05,0.019v-2.382c0.356,0.265,0.718,0.556,1.085,0.885c0.129,0.116,0.288,0.172,0.448,0.172
	c0.073,0,0.146-0.016,0.216-0.041v3.96c-0.913,0.395-1.554,1.304-1.554,2.361c0,1.421,1.151,2.573,2.571,2.573
	c0.565,0,1.087-0.184,1.512-0.491C19.578,20.667,19.724,20.224,19.613,20.236z M14.47,9.758c-0.12-0.073-0.24-0.146-0.359-0.214
	c0.137,0.031,0.257,0.064,0.359,0.096V9.758z"/>
</svg>
