<?xml version="1.0" encoding="UTF-8" standalone="no"?>
<!-- Generator: Adobe Illustrator 16.0.0, SVG Export Plug-In . SVG Version: 6.00 Build 0)  -->

<svg
   xmlns:dc="http://purl.org/dc/elements/1.1/"
   xmlns:cc="http://creativecommons.org/ns#"
   xmlns:rdf="http://www.w3.org/1999/02/22-rdf-syntax-ns#"
   xmlns:svg="http://www.w3.org/2000/svg"
   xmlns="http://www.w3.org/2000/svg"
   xmlns:sodipodi="http://sodipodi.sourceforge.net/DTD/sodipodi-0.dtd"
   xmlns:inkscape="http://www.inkscape.org/namespaces/inkscape"
   version="1.1"
   id="Capa_1"
   x="0px"
   y="0px"
   width="24"
   height="24"
   viewBox="0 0 24 24"
   xml:space="preserve"
   inkscape:version="0.48.5 r10040"
   sodipodi:docname="sofre_khane.svg"><metadata
     id="metadata3306"><rdf:RDF><cc:Work
         rdf:about=""><dc:format>image/svg+xml</dc:format><dc:type
           rdf:resource="http://purl.org/dc/dcmitype/StillImage" /><dc:title></dc:title></cc:Work></rdf:RDF></metadata><defs
     id="defs3304" /><sodipodi:namedview
     pagecolor="#ffffff"
     bordercolor="#666666"
     borderopacity="1"
     objecttolerance="10"
     gridtolerance="10"
     guidetolerance="10"
     inkscape:pageopacity="0"
     inkscape:pageshadow="2"
     inkscape:window-width="657"
     inkscape:window-height="480"
     id="namedview3302"
     showgrid="false"
     inkscape:zoom="5.1304348"
     inkscape:cx="0.97407655"
     inkscape:cy="23"
     inkscape:window-x="0"
     inkscape:window-y="27"
     inkscape:window-maximized="0"
     inkscape:current-layer="Capa_1" /><g
     id="g3266"
     transform="matrix(0.47880561,0,0,0.47880561,0.98766822,0.9877353)"><g
       id="g3268"><path
         d="M 45.896,31.495 C 45.8,31.371 45.655,31.299 45.5,31.299 h -4.639 c -1.229,-4.321 -5.568,-8.181 -14.86,-8.181 -2.848,0 -5.88,0.499 -8.738,1.368 -0.09,-0.881 -0.395,-1.434 -0.659,-1.874 -0.27,-0.449 -0.483,-0.804 -0.483,-1.577 0,-0.773 0.213,-1.127 0.483,-1.575 0.312,-0.517 0.699,-1.16 0.699,-2.35 v -4.366 h 0.864 c 1.506,0 2.464,-0.769 3.309,-1.448 0.646,-0.52 1.205,-0.968 1.972,-1.064 C 25.957,9.918 37.756,6.802 38.257,6.669 38.791,6.528 39.11,5.981 38.968,5.446 38.826,4.912 38.28,4.592 37.745,4.735 37.624,4.767 25.576,7.949 23.198,8.247 c -1.33,0.167 -2.204,0.87 -2.975,1.49 -0.777,0.624 -1.292,1.007 -2.056,1.007 h -0.864 v -0.503 c 0,-0.414 -0.336,-0.75 -0.75,-0.75 -0.414,0 -0.75,0.336 -0.75,0.75 v 0.502 h -0.858 v -0.502 c 0,-0.414 -0.336,-0.75 -0.75,-0.75 -0.414,0 -0.75,0.336 -0.75,0.75 v 0.502 h -0.857 v -0.502 c 0,-0.414 -0.336,-0.75 -0.75,-0.75 -0.414,0 -0.75,0.336 -0.75,0.75 v 0.502 H 10.23 v -0.502 c 0,-0.414 -0.336,-0.75 -0.75,-0.75 -0.414,0 -0.75,0.336 -0.75,0.75 v 0.502 H 8 c -0.552,0 -1,0.448 -1,1 0,0.552 0.448,1 1,1 h 0.729 v 4.366 c 0,0.773 -0.213,1.127 -0.483,1.576 -0.312,0.517 -0.699,1.16 -0.699,2.349 0,1.189 0.387,1.833 0.698,2.351 0.271,0.449 0.484,0.805 0.484,1.581 0,0.773 -0.213,1.128 -0.483,1.578 -0.312,0.52 -0.699,1.162 -0.699,2.354 0,0.233 0.115,0.437 0.285,0.574 -0.642,0.583 -1.197,1.193 -1.656,1.826 H 0.5 c -0.156,0 -0.302,0.072 -0.397,0.196 -0.095,0.124 -0.126,0.284 -0.086,0.436 1.223,4.523 6.129,9.368 11.483,9.368 h 23 c 5.354,0 10.261,-4.845 11.482,-9.368 0.04,-0.151 0.01,-0.311 -0.086,-0.435 z M 15.75,30.308 c 1.839,0 3.354,0.354 4.459,0.989 h -9.504 c 1.562,-0.602 3.348,-0.989 5.045,-0.989 z m 6.794,0.99 c -1.283,-1.506 -3.529,-2.405 -6.419,-2.479 0.001,-0.047 0.007,-0.086 0.009,-0.13 1.006,-0.174 2.026,-0.278 3.032,-0.278 3.712,0 6.469,1.058 7.873,2.888 l -4.495,-0.001 0,0 z m 6.274,0 c -1.266,-2.434 -4.216,-4.388 -9.651,-4.388 -0.28,0 -0.566,0.017 -0.851,0.031 1.411,-0.273 2.852,-0.428 4.268,-0.428 5.402,0 9.214,1.775 10.671,4.783 l -4.437,0.002 0,0 z m 10.477,0 H 34.88 c -1.267,-3.389 -4.929,-6.283 -12.297,-6.283 -0.438,0 -0.881,0.017 -1.327,0.044 1.572,-0.283 3.17,-0.441 4.743,-0.441 7.047,-10e-4 11.863,2.5 13.296,6.68 z M 15.802,12.742 v 4.366 c 0,0.773 -0.213,1.127 -0.483,1.576 -0.312,0.517 -0.699,1.16 -0.699,2.349 0,1.189 0.387,1.833 0.698,2.35 0.271,0.45 0.484,0.806 0.484,1.582 -0.298,0.106 -0.593,0.218 -0.885,0.331 0.008,-0.11 0.027,-0.207 0.027,-0.331 0,-1.19 -0.387,-1.836 -0.698,-2.354 -0.27,-0.449 -0.483,-0.804 -0.483,-1.577 0,-0.773 0.213,-1.127 0.483,-1.576 0.311,-0.517 0.698,-1.16 0.698,-2.35 v -4.366 h 0.858 z m -2.358,0 v 4.366 c 0,0.773 -0.213,1.127 -0.483,1.576 -0.311,0.517 -0.698,1.16 -0.698,2.349 0,1.189 0.387,1.833 0.698,2.35 0.271,0.45 0.484,0.806 0.484,1.582 0,0.462 -0.082,0.771 -0.201,1.043 -0.311,0.146 -0.616,0.293 -0.917,0.446 0.149,-0.386 0.26,-0.856 0.26,-1.49 0,-1.19 -0.387,-1.835 -0.699,-2.354 -0.27,-0.449 -0.483,-0.804 -0.483,-1.577 0,-0.773 0.213,-1.127 0.483,-1.575 0.312,-0.517 0.699,-1.16 0.699,-2.35 v -4.366 h 0.857 z M 9.53,22.611 C 9.26,22.162 9.047,21.807 9.047,21.034 c 0,-0.773 0.213,-1.127 0.483,-1.575 0.312,-0.517 0.699,-1.16 0.699,-2.35 v -4.366 h 0.858 v 4.366 c 0,0.773 -0.213,1.127 -0.483,1.576 -0.312,0.517 -0.699,1.16 -0.699,2.349 0,1.189 0.387,1.833 0.698,2.351 0.271,0.449 0.484,0.805 0.484,1.581 0,0.773 -0.213,1.128 -0.483,1.578 -0.192,0.32 -0.404,0.706 -0.545,1.224 -0.338,0.222 -0.666,0.447 -0.979,0.682 0.067,-0.48 0.24,-0.78 0.451,-1.131 0.311,-0.519 0.698,-1.161 0.698,-2.353 0,-1.193 -0.388,-1.838 -0.699,-2.355 z"
         id="path3270"
         inkscape:connector-curvature="0" /></g></g><g
     id="g3272"
     transform="translate(0,-22)" /><g
     id="g3274"
     transform="translate(0,-22)" /><g
     id="g3276"
     transform="translate(0,-22)" /><g
     id="g3278"
     transform="translate(0,-22)" /><g
     id="g3280"
     transform="translate(0,-22)" /><g
     id="g3282"
     transform="translate(0,-22)" /><g
     id="g3284"
     transform="translate(0,-22)" /><g
     id="g3286"
     transform="translate(0,-22)" /><g
     id="g3288"
     transform="translate(0,-22)" /><g
     id="g3290"
     transform="translate(0,-22)" /><g
     id="g3292"
     transform="translate(0,-22)" /><g
     id="g3294"
     transform="translate(0,-22)" /><g
     id="g3296"
     transform="translate(0,-22)" /><g
     id="g3298"
     transform="translate(0,-22)" /><g
     id="g3300"
     transform="translate(0,-22)" /></svg>