<?xml version="1.0" encoding="utf-8"?>
<!-- Generator: Adobe Illustrator 15.1.0, SVG Export Plug-In . SVG Version: 6.00 Build 0)  -->
<!DOCTYPE svg PUBLIC "-//W3C//DTD SVG 1.1//EN" "http://www.w3.org/Graphics/SVG/1.1/DTD/svg11.dtd">
<svg version="1.1" id="Layer_1" xmlns="http://www.w3.org/2000/svg" xmlns:xlink="http://www.w3.org/1999/xlink" x="0px" y="0px"
	 width="24px" height="24px" viewBox="0 0 24 24" enable-background="new 0 0 24 24" xml:space="preserve">
<path fill="#010002" d="M2.107,3.562c-0.202,0.04-0.265,0.206-0.141,0.37l1.052,1.392C3.405,5.04,3.849,4.818,4.346,4.681
	c0.189-0.052,0.385-0.084,0.583-0.107l0.175-1.253c0.028-0.204-0.113-0.336-0.313-0.296L2.107,3.562z M21.941,18.186l-0.825,0.13
	l-0.188,0.03l-0.188,0.029c0.153-1.961-1.04-4.132-3.574-4.281c-3.546-0.211-7.362-2.703-8.139-6.452
	c-0.345-1.665-2.02-2.724-3.648-2.724c-0.167,0-0.335,0.014-0.501,0.036c-0.146,0.021-0.29,0.048-0.432,0.087
	C3.99,5.166,3.59,5.368,3.245,5.622c-1.207,0.888-1.72,2.456-1.4,3.999c1.452,7.014,8.509,11.516,15.321,11.92
	c0.091,0.005,0.178,0.008,0.265,0.008c1.179,0,2.039-0.488,2.592-1.21l0.154,0.112l0.139,0.101l1.072,0.781
	c0.166,0.121,0.331,0.055,0.367-0.147l0.488-2.691C22.279,18.29,22.145,18.152,21.941,18.186z M15.8,16.824
	c-2.773-0.067-5.087-1.271-6.989-3.252c-0.831-0.867,0.483-2.185,1.316-1.317c1.563,1.628,3.382,2.652,5.673,2.707
	C16.999,14.991,17.001,16.853,15.8,16.824z"/>
</svg>
