<?xml version="1.0" encoding="utf-8"?>
<!-- Generator: Adobe Illustrator 15.1.0, SVG Export Plug-In . SVG Version: 6.00 Build 0)  -->
<!DOCTYPE svg PUBLIC "-//W3C//DTD SVG 1.1//EN" "http://www.w3.org/Graphics/SVG/1.1/DTD/svg11.dtd">
<svg version="1.1" id="Layer_1" xmlns="http://www.w3.org/2000/svg" xmlns:xlink="http://www.w3.org/1999/xlink" x="0px" y="0px"
	 width="24px" height="24px" viewBox="0 0 24 24" enable-background="new 0 0 24 24" xml:space="preserve">
<path d="M22.045,5.312h-0.065c-0.726,0-1.315,0.589-1.315,1.315v12.933h2.696V6.627C23.36,5.901,22.772,5.312,22.045,5.312z
	 M21.988,6.083h0.048c0.248,0,0.452,0.162,0.525,0.385h-1.098C21.536,6.245,21.742,6.083,21.988,6.083z M22.562,6.852
	c-0.073,0.223-0.278,0.386-0.525,0.386h-0.048c-0.246,0-0.452-0.163-0.523-0.386H22.562z M22.036,17.947
	c-0.571,0-1.034-0.464-1.034-1.034c0-0.572,0.463-1.036,1.034-1.036s1.036,0.464,1.036,1.036
	C23.072,17.483,22.608,17.947,22.036,17.947z M22.036,14.097c-0.571,0-1.034-0.464-1.034-1.035s0.463-1.035,1.034-1.035
	s1.036,0.463,1.036,1.035C23.072,13.632,22.608,14.097,22.036,14.097z M22.036,10.246c-0.571,0-1.034-0.463-1.034-1.035
	s0.463-1.035,1.034-1.035s1.036,0.463,1.036,1.035S22.608,10.246,22.036,10.246z M2.02,5.312H1.956
	c-0.727,0-1.316,0.589-1.316,1.315v12.933h2.695V6.627C3.335,5.901,2.746,5.312,2.02,5.312z M1.963,6.083h0.048
	c0.246,0,0.453,0.162,0.525,0.385H1.439C1.511,6.245,1.717,6.083,1.963,6.083z M2.537,6.852C2.465,7.075,2.258,7.238,2.012,7.238
	H1.963c-0.246,0-0.453-0.163-0.524-0.386H2.537z M2.012,17.947c-0.571,0-1.035-0.464-1.035-1.034c0-0.572,0.464-1.036,1.035-1.036
	s1.035,0.464,1.035,1.036C3.046,17.483,2.583,17.947,2.012,17.947z M2.012,14.097c-0.571,0-1.035-0.464-1.035-1.035
	s0.464-1.035,1.035-1.035s1.035,0.463,1.035,1.035C3.046,13.632,2.583,14.097,2.012,14.097z M2.012,10.246
	c-0.571,0-1.035-0.463-1.035-1.035S1.44,8.176,2.012,8.176s1.035,0.463,1.035,1.035C3.046,9.783,2.583,10.246,2.012,10.246z
	 M22.036,8.441c0.426,0,0.771,0.345,0.771,0.77s-0.346,0.77-0.771,0.77c-0.425,0-0.77-0.345-0.77-0.77S21.611,8.441,22.036,8.441z
	 M22.036,12.292c0.426,0,0.771,0.345,0.771,0.77c0,0.426-0.346,0.771-0.771,0.771c-0.425,0-0.77-0.345-0.77-0.771
	C21.267,12.637,21.611,12.292,22.036,12.292z M22.036,16.142c0.426,0,0.771,0.346,0.771,0.771s-0.346,0.771-0.771,0.771
	c-0.425,0-0.77-0.346-0.77-0.771S21.611,16.142,22.036,16.142z M2.012,8.441c0.425,0,0.77,0.345,0.77,0.77s-0.345,0.77-0.77,0.77
	s-0.77-0.345-0.77-0.77S1.586,8.441,2.012,8.441z M2.012,12.292c0.425,0,0.77,0.345,0.77,0.77c0,0.426-0.345,0.771-0.77,0.771
	s-0.77-0.345-0.77-0.771C1.242,12.637,1.586,12.292,2.012,12.292z M2.012,16.142c0.425,0,0.77,0.346,0.77,0.771
	c0,0.424-0.345,0.77-0.77,0.77s-0.77-0.346-0.77-0.77C1.242,16.487,1.586,16.142,2.012,16.142z M9.834,4.157H4.491v8.857v6.547
	H19.51v-6.547V4.157h-5.344 M6.031,16.094H5.646c-0.106,0-0.193-0.086-0.193-0.191c0-0.106,0.086-0.193,0.193-0.193h0.384
	c0.107,0,0.193,0.087,0.193,0.193S6.138,16.094,6.031,16.094z M10.268,16.094H9.882c-0.106,0-0.193-0.086-0.193-0.191
	c0-0.106,0.086-0.193,0.193-0.193h0.385c0.106,0,0.193,0.087,0.193,0.193S10.374,16.094,10.268,16.094z M11.423,16.094h-0.385
	c-0.107,0-0.193-0.086-0.193-0.191c0-0.106,0.086-0.193,0.193-0.193h0.385c0.105,0,0.192,0.087,0.192,0.193
	S11.528,16.094,11.423,16.094z M12.578,16.094h-0.385c-0.107,0-0.193-0.086-0.193-0.191c0-0.106,0.086-0.193,0.193-0.193h0.385
	c0.106,0,0.193,0.087,0.193,0.193S12.685,16.094,12.578,16.094z M13.732,16.094h-0.385c-0.105,0-0.193-0.086-0.193-0.191
	c0-0.106,0.088-0.193,0.193-0.193h0.385c0.106,0,0.193,0.087,0.193,0.193S13.839,16.094,13.732,16.094z M18.739,4.927v6.162v3.851
	H5.261v-3.851V4.927H18.739z"/>
</svg>
