<?xml version="1.0" encoding="utf-8"?>
<!-- Generator: Adobe Illustrator 15.1.0, SVG Export Plug-In . SVG Version: 6.00 Build 0)  -->
<!DOCTYPE svg PUBLIC "-//W3C//DTD SVG 1.1//EN" "http://www.w3.org/Graphics/SVG/1.1/DTD/svg11.dtd">
<svg version="1.1" id="Layer_1" xmlns="http://www.w3.org/2000/svg" xmlns:xlink="http://www.w3.org/1999/xlink" x="0px" y="0px"
	 width="24px" height="24px" viewBox="0 0 24 24" enable-background="new 0 0 24 24" xml:space="preserve">
<path d="M21.595,16.978l0.575-4.292c-0.575,0.224-1.336,0.424-2.265,0.598c-2.168,0.404-5.043,0.63-8.097,0.63
	c-3.055,0-5.933-0.226-8.098-0.63c-0.923-0.174-1.68-0.373-2.253-0.594l0.588,4.284c0.024,0.133,0.119,0.316,0.221,0.403
	c0.775,0.652,2.447,1.435,5.726,1.781V15.61c0-0.335,0.272-0.607,0.608-0.607h6.41c0.336,0,0.607,0.272,0.607,0.607v3.557
	c3.293-0.338,4.953-1.108,5.753-1.79C21.476,17.291,21.57,17.107,21.595,16.978z M22.646,9.158
	c-0.069,0.036-0.146,0.073-0.226,0.107c-0.598,0.265-1.444,0.5-2.516,0.703c-2.168,0.406-5.043,0.63-8.097,0.63
	c-3.055,0-5.933-0.224-8.098-0.63C2.639,9.766,1.792,9.53,1.195,9.265C1.117,9.231,1.042,9.194,0.972,9.158l0.369,2.686
	c0.046,0.021,0.095,0.045,0.15,0.07c0.54,0.238,1.352,0.464,2.353,0.651c2.124,0.399,4.953,0.617,7.964,0.617
	c3.01,0,5.84-0.218,7.963-0.617c1.002-0.187,1.815-0.413,2.354-0.651c0.058-0.027,0.111-0.052,0.159-0.076L22.646,9.158z
	 M1.491,8.599c0.54,0.238,1.352,0.464,2.353,0.651l0,0c0.023-0.014,0.051-0.026,0.082-0.033c1.772-0.413,4.708-0.659,7.852-0.659
	c3.187,0,6.145,0.25,7.911,0.673c0.022,0.005,0.044,0.015,0.063,0.025c0.007,0,0.012-0.002,0.019-0.002
	c1.002-0.188,1.815-0.413,2.354-0.652c0.438-0.194,0.604-0.357,0.655-0.442c0.015-0.024,0.02-0.041,0.02-0.053
	c0-0.053-0.121-0.25-0.675-0.496c-0.238-0.104-0.53-0.209-0.868-0.307V6.925V6.545V6.074l1.847-1.099
	c0.115-0.068,0.115-0.18,0-0.248l-2.061-1.21c-0.046-0.02-0.098-0.032-0.151-0.032c-0.201,0-0.363,0.163-0.363,0.365v2.515V6.74
	v0.374c-0.238-0.056-0.491-0.106-0.757-0.157c-2.031-0.381-4.704-0.598-7.569-0.617V5.975V5.61V5.246l1.847-1.099
	c0.114-0.068,0.114-0.18,0-0.248l-2.063-1.208c-0.047-0.02-0.099-0.032-0.151-0.032c-0.202,0-0.364,0.163-0.364,0.365V5.61v0.365
	v0.365C8.585,6.354,5.885,6.573,3.842,6.957C3.596,7.002,3.365,7.051,3.144,7.1V6.726V6.351V6.069l1.847-1.099
	c0.114-0.068,0.114-0.18,0-0.247L2.928,3.516c-0.046-0.02-0.097-0.032-0.151-0.032c-0.202,0-0.364,0.163-0.364,0.364v2.678v0.376
	v0.379C2.05,7.384,1.737,7.494,1.487,7.605C0.933,7.851,0.811,8.048,0.811,8.102c0,0.012,0.005,0.029,0.021,0.053
	C0.887,8.245,1.054,8.405,1.491,8.599z M18.145,9.503c-1.704-0.25-3.965-0.391-6.363-0.391c-2.382,0-4.635,0.141-6.339,0.389
	c1.857,0.24,4.059,0.369,6.366,0.369C14.105,9.868,16.292,9.741,18.145,9.503z M8.724,15.735v3.493v0.702l-0.365,0.12l-0.364,0.122
	l-0.467,0.152c-0.126,0.041-0.231,0.186-0.231,0.319v0.454c0,0.134,0.11,0.242,0.243,0.242h8.533c0.134,0,0.242-0.108,0.242-0.242
	v-0.454c0-0.134-0.104-0.278-0.23-0.319l-0.467-0.152l-0.364-0.122l-0.364-0.12v-0.697v-3.498h-0.891v3.133H9.613v-3.133H8.724z"/>
</svg>
