<?xml version="1.0" encoding="UTF-8" standalone="no"?>
<!-- Generator: Adobe Illustrator 16.0.0, SVG Export Plug-In . SVG Version: 6.00 Build 0)  -->

<svg
   xmlns:dc="http://purl.org/dc/elements/1.1/"
   xmlns:cc="http://creativecommons.org/ns#"
   xmlns:rdf="http://www.w3.org/1999/02/22-rdf-syntax-ns#"
   xmlns:svg="http://www.w3.org/2000/svg"
   xmlns="http://www.w3.org/2000/svg"
   xmlns:sodipodi="http://sodipodi.sourceforge.net/DTD/sodipodi-0.dtd"
   xmlns:inkscape="http://www.inkscape.org/namespaces/inkscape"
   version="1.1"
   id="Layer_1"
   x="0px"
   y="0px"
   width="24"
   height="24"
   viewBox="0 0 24 24"
   enable-background="new 0 0 512 512"
   xml:space="preserve"
   inkscape:version="0.48.5 r10040"
   sodipodi:docname="store.svg"><metadata
     id="metadata9"><rdf:RDF><cc:Work
         rdf:about=""><dc:format>image/svg+xml</dc:format><dc:type
           rdf:resource="http://purl.org/dc/dcmitype/StillImage" /><dc:title></dc:title></cc:Work></rdf:RDF></metadata><defs
     id="defs7" /><sodipodi:namedview
     pagecolor="#ffffff"
     bordercolor="#666666"
     borderopacity="1"
     objecttolerance="10"
     gridtolerance="10"
     guidetolerance="10"
     inkscape:pageopacity="0"
     inkscape:pageshadow="2"
     inkscape:window-width="657"
     inkscape:window-height="480"
     id="namedview5"
     showgrid="false"
     inkscape:zoom="7.375"
     inkscape:cx="17.291785"
     inkscape:cy="18.976721"
     inkscape:window-x="0"
     inkscape:window-y="27"
     inkscape:window-maximized="0"
     inkscape:current-layer="Layer_1" /><path
     d="m 0.8135595,9.9025421 c 0,1.3013419 0.89308,2.3855959 2.0974576,2.6982929 v 9.187301 H 1.512712 c -0.3851019,0 -0.6991525,0.312697 -0.6991525,0.699152 0,0.386457 0.3140943,0.699153 0.6991525,0.699153 h 20.974575 c 0.387812,0 0.699153,-0.312696 0.699153,-0.699153 0,-0.386455 -0.311341,-0.699152 -0.699153,-0.699152 H 21.088983 V 12.600835 C 22.293406,12.288138 23.18644,11.203884 23.18644,9.9025421 V 9.2033894 H 0.8135595 V 9.9025421 z M 14.796611,12.699153 c 1.545781,0 2.796609,-1.252182 2.796609,-2.7966109 0,1.3013419 0.893081,2.3855959 2.097458,2.6982929 v 9.187301 H 9.20339 v -9.088983 c 1.545783,0 2.796611,-1.252182 2.796611,-2.7966109 0,1.5444289 1.25358,2.7966109 2.79661,2.7966109 z m -6.2923735,-0.09832 v 9.187301 H 4.3093222 v -9.187301 c 1.2044214,-0.312697 2.0974577,-1.39695 2.0974577,-2.6982927 0,1.3013427 0.8930799,2.3855957 2.0974576,2.6982927 z M 20.389831,2.9110169 H 3.6101696 L 0.8135595,8.5042367 H 23.18644 L 20.389831,2.9110169 z M 6.7208742,4.4650146 5.322569,7.2616242 c -0.062837,0.122925 -0.1857124,0.1939279 -0.3140942,0.1939279 -0.051912,0 -0.1051347,-0.010957 -0.1556926,-0.03688 C 4.6807033,7.3326323 4.6096957,7.1223617 4.6970897,6.9502834 L 6.0953947,4.1536732 C 6.1827897,3.9815943 6.3917043,3.9119849 6.5637833,3.996626 c 0.1734772,0.08604 0.241732,0.2963096 0.1570909,0.4683886 z m 2.7966101,0 -1.3983051,2.7966096 c -0.062837,0.122925 -0.1857124,0.1939279 -0.3140943,0.1939279 -0.051912,0 -0.1051346,-0.010957 -0.1556924,-0.03688 C 7.4773134,7.3326323 7.4063058,7.1223617 7.4936999,6.9502834 L 8.892005,4.1536732 C 8.9794,3.9815943 9.1897128,3.9119849 9.3603935,3.996626 9.5338707,4.082666 9.6021254,4.2929356 9.5174843,4.4650146 z m 2.8320927,2.640918 c 0,0.1939265 -0.155693,0.3495757 -0.349577,0.3495757 -0.192529,0 -0.349577,-0.1556917 -0.349577,-0.3495757 V 4.309322 c 0,-0.1939274 0.157048,-0.3495762 0.349577,-0.3495762 0.193927,0 0.349577,0.1556925 0.349577,0.3495762 v 2.7966106 z m 4.014664,0.305879 c -0.05462,0.030061 -0.111994,0.043699 -0.169327,0.043699 -0.122925,0 -0.243085,-0.065549 -0.305879,-0.1816044 L 14.35964,4.477296 c -0.09285,-0.1693259 -0.03006,-0.382349 0.139306,-0.4738506 0.166617,-0.092856 0.38235,-0.032773 0.475205,0.1379078 l 1.529396,2.7966107 c 0.09011,0.169326 0.03002,0.3823488 -0.139306,0.4738503 z m 2.782977,0.00683 c -0.04917,0.025962 -0.101075,0.03688 -0.155693,0.03688 -0.128378,0 -0.251257,-0.071014 -0.311342,-0.1939278 L 17.281879,4.4649709 c -0.0874,-0.172079 -0.01638,-0.3823491 0.155692,-0.4683886 0.169326,-0.08604 0.38235,-0.016386 0.469743,0.1570472 l 1.398305,2.7966101 c 0.08464,0.1720795 0.01638,0.3823927 -0.158401,0.4683886 z M 6.7563561,17.699769 V 16.088441 C 6.5515044,15.965516 6.4067799,15.752499 6.4067799,15.495778 c 0,-0.386456 0.3140943,-0.699153 0.6991524,-0.699153 0.3878113,0 0.6991526,0.312697 0.6991526,0.699153 0,0.256721 -0.1433699,0.469744 -0.3495762,0.592663 v 1.611328 c 0.2062063,0.122925 0.3495762,0.335943 0.3495762,0.592664 0,0.386455 -0.3113413,0.699152 -0.6991526,0.699152 -0.3851018,0 -0.6991524,-0.312697 -0.6991524,-0.699152 0,-0.256765 0.1447682,-0.469788 0.3495762,-0.592664 z M 3.6101696,1.5127119 c 0,-0.3864566 0.3140943,-0.69915258 0.6991526,-0.69915258 H 19.690678 c 0.387811,0 0.699153,0.31269598 0.699153,0.69915258 0,0.3864566 -0.311342,0.6991526 -0.699153,0.6991526 H 4.3093222 c -0.3850583,0 -0.6991526,-0.312696 -0.6991526,-0.6991526 z m 9.4576994,14.9293541 -0.494345,-0.494345 1.977291,-1.977291 0.494344,0.494346 -1.97729,1.97729 z m 0,1.97729 -0.494345,-0.494343 3.954582,-3.954583 0.494344,0.494346 -3.954581,3.95458 z m 3.460237,-2.471591 0.494343,0.494345 -1.97729,1.97729 -0.494344,-0.494344 1.977291,-1.977291 z"
     id="path3"
     inkscape:connector-curvature="0" /></svg>