<?xml version="1.0" encoding="utf-8"?>
<!-- Generator: Adobe Illustrator 15.1.0, SVG Export Plug-In . SVG Version: 6.00 Build 0)  -->
<!DOCTYPE svg PUBLIC "-//W3C//DTD SVG 1.1//EN" "http://www.w3.org/Graphics/SVG/1.1/DTD/svg11.dtd">
<svg version="1.1" id="Layer_1" xmlns="http://www.w3.org/2000/svg" xmlns:xlink="http://www.w3.org/1999/xlink" x="0px" y="0px"
	 width="24px" height="24px" viewBox="0 0 24 24" enable-background="new 0 0 24 24" xml:space="preserve">
<path d="M20.326,2.898H3.53L0.731,5.697v0.7v2.799c0,1.546,1.254,2.799,2.799,2.799v6.999c-1.545,0-2.799,1.253-2.799,2.798h22.394
	c0-1.545-1.252-2.798-2.799-2.798v-6.999c1.547,0,2.799-1.253,2.799-2.799V6.397v-0.7L20.326,2.898z M17.525,9.196
	c0,0.773-0.628,1.399-1.398,1.399c-0.771,0-1.399-0.626-1.399-1.399V6.397h2.798V9.196L17.525,9.196z M9.129,9.196
	c0,0.773-0.627,1.399-1.399,1.399S6.33,9.969,6.33,9.196V6.397h2.799V9.196z M10.529,6.397h2.799v2.799
	c0,0.773-0.629,1.399-1.4,1.399c-0.771,0-1.399-0.626-1.399-1.399V6.397L10.529,6.397z M2.13,9.196V6.397H4.93v2.799
	c0,0.773-0.627,1.399-1.399,1.399C2.759,10.596,2.13,9.969,2.13,9.196z M4.93,18.994v-7.386c0.266-0.154,0.5-0.347,0.7-0.577
	c0.515,0.586,1.26,0.964,2.1,0.964c0.841,0,1.587-0.378,2.099-0.964c0.515,0.586,1.26,0.964,2.1,0.964
	c0.514,0,0.988-0.147,1.4-0.387v7.386H4.93z M18.926,18.994h-4.198v-7.386c0.413,0.24,0.889,0.387,1.399,0.387
	c0.842,0,1.589-0.378,2.099-0.964c0.203,0.23,0.436,0.423,0.7,0.577V18.994z M21.726,9.196c0,0.773-0.63,1.399-1.399,1.399
	c-0.771,0-1.4-0.626-1.4-1.399V6.397h2.8V9.196L21.726,9.196z M16.826,14.795c0,0.388-0.312,0.7-0.699,0.7
	c-0.386,0-0.7-0.313-0.7-0.7c0-0.387,0.314-0.699,0.7-0.699C16.515,14.096,16.826,14.408,16.826,14.795z"/>
</svg>
