<?xml version="1.0" encoding="UTF-8" standalone="yes"?>
<svg xmlns="http://www.w3.org/2000/svg" xmlns:xlink="http://www.w3.org/1999/xlink" width="24px" height="24px" viewBox="0 0 18 18" version="1.1">
  <g id="surface1">
    <path style=" stroke:none;fill-rule:nonzero;fill:rgb(0%,0%,0%);fill-opacity:1;" d="M 18 3.921875 L 18 9.578125 C 18 9.578125 16.832031 9.8125 16.59375 9.847656 C 16.355469 9.878906 15.601562 10.128906 15.054688 9.585938 C 14.214844 8.75 11.226562 5.664062 11.226562 5.664062 C 11.226562 5.664062 10.710938 5.140625 9.882812 5.59375 C 9.125 6.007812 8.003906 6.613281 7.53125 6.855469 C 7.363281 6.976562 7.160156 7.046875 6.9375 7.046875 C 6.367188 7.046875 5.902344 6.566406 5.902344 5.972656 C 5.902344 5.507812 6.1875 5.113281 6.585938 4.964844 C 7.664062 4.289062 9.910156 2.980469 10.847656 2.464844 C 11.421875 2.148438 11.835938 2.121094 12.621094 2.804688 C 13.585938 3.652344 14.445312 4.421875 14.445312 4.421875 C 14.445312 4.421875 14.851562 4.613281 15.175781 4.566406 C 15.855469 4.464844 18 3.921875 18 3.921875 Z M 6.105469 13.503906 C 6.25 13.117188 6.199219 12.683594 5.921875 12.390625 C 5.675781 12.121094 5.3125 12.054688 4.964844 12.136719 C 5.058594 11.777344 5.007812 11.398438 4.753906 11.132812 C 4.503906 10.867188 4.144531 10.796875 3.796875 10.878906 C 3.890625 10.523438 3.839844 10.144531 3.589844 9.875 C 3.195312 9.457031 2.515625 9.472656 2.070312 9.914062 C 1.625 10.359375 1.339844 11.160156 1.738281 11.628906 C 2.132812 12.097656 2.585938 11.8125 2.933594 11.730469 C 2.839844 12.085938 2.546875 12.417969 2.902344 12.886719 C 3.257812 13.351562 3.753906 13.070312 4.101562 12.988281 C 4.003906 13.34375 3.726562 13.707031 4.070312 14.140625 C 4.414062 14.574219 4.980469 14.34375 5.351562 14.222656 C 5.210938 14.609375 4.902344 15.023438 5.296875 15.488281 C 5.691406 15.953125 6.605469 15.738281 7.054688 15.296875 C 7.5 14.855469 7.542969 14.15625 7.152344 13.734375 C 6.878906 13.449219 6.476562 13.382812 6.105469 13.503906 Z M 14.238281 10.546875 C 11.027344 7.214844 12.542969 8.785156 10.808594 6.980469 C 10.808594 6.980469 10.285156 6.441406 9.597656 6.753906 C 9.113281 6.976562 8.492188 7.273438 8.023438 7.503906 C 7.507812 7.78125 7.058594 7.867188 6.964844 7.867188 C 5.972656 7.867188 5.164062 7.03125 5.164062 6 C 5.164062 5.332031 5.507812 4.75 6.015625 4.421875 C 6.734375 3.90625 8.386719 2.992188 8.386719 2.992188 C 8.386719 2.992188 7.882812 2.332031 6.78125 2.332031 C 5.679688 2.332031 3.378906 3.898438 3.378906 3.898438 C 3.378906 3.898438 2.722656 4.332031 1.792969 3.941406 L 0 3.292969 L 0 9.761719 C 0 9.761719 0.511719 9.914062 0.972656 10.109375 C 1.078125 9.804688 1.242188 9.519531 1.476562 9.285156 C 2.242188 8.527344 3.503906 8.519531 4.199219 9.261719 C 4.410156 9.488281 4.554688 9.757812 4.628906 10.054688 C 4.910156 10.144531 5.164062 10.300781 5.367188 10.519531 C 5.578125 10.742188 5.722656 11.015625 5.796875 11.3125 C 6.078125 11.402344 6.328125 11.558594 6.535156 11.777344 C 6.765625 12.023438 6.917969 12.320312 6.992188 12.644531 C 7.28125 12.734375 7.546875 12.894531 7.761719 13.125 C 8.175781 13.566406 8.328125 14.171875 8.234375 14.753906 C 8.238281 14.757812 8.238281 14.757812 8.238281 14.757812 C 8.253906 14.777344 8.5 15.0625 8.652344 15.222656 C 8.960938 15.542969 9.464844 15.542969 9.773438 15.222656 C 10.078125 14.902344 10.082031 14.382812 9.773438 14.0625 C 9.761719 14.050781 9.75 14.042969 9.738281 14.035156 C 9.742188 14.03125 9.742188 14.027344 9.742188 14.027344 C 8.703125 12.949219 8.648438 12.871094 8.75 12.765625 C 8.855469 12.65625 9.007812 12.894531 10.167969 14.101562 C 10.175781 14.105469 10.179688 14.109375 10.191406 14.113281 C 10.214844 14.148438 10.238281 14.179688 10.265625 14.210938 C 10.574219 14.53125 11.074219 14.53125 11.382812 14.210938 C 11.691406 13.890625 11.691406 13.371094 11.382812 13.050781 C 11.367188 13.035156 11.347656 13.019531 11.332031 13.007812 C 11.316406 12.988281 11.300781 12.96875 11.285156 12.949219 C 10.222656 11.851562 10.101562 11.640625 10.183594 11.558594 C 10.277344 11.460938 10.769531 12.023438 11.824219 13.117188 C 11.828125 13.117188 11.828125 13.117188 11.832031 13.117188 C 12.140625 13.410156 12.621094 13.402344 12.921875 13.09375 C 13.207031 12.792969 13.222656 12.320312 12.972656 12 C 12.96875 11.976562 12.960938 11.957031 12.945312 11.945312 C 11.609375 10.558594 11.667969 10.535156 11.75 10.453125 C 11.828125 10.367188 11.835938 10.363281 13.136719 11.710938 C 13.140625 11.71875 13.144531 11.722656 13.148438 11.730469 C 13.457031 12.050781 13.960938 12.046875 14.265625 11.730469 C 14.574219 11.410156 14.574219 10.890625 14.265625 10.570312 C 14.257812 10.558594 14.25 10.554688 14.238281 10.546875 Z M 14.238281 10.546875 "/>
  </g>
</svg>