<?xml version="1.0" encoding="UTF-8" standalone="yes"?>
<svg xmlns="http://www.w3.org/2000/svg" xmlns:xlink="http://www.w3.org/1999/xlink" width="24px" height="24px" viewBox="0 0 18 18" version="1.1">
  <g id="surface1">
    <path style=" stroke:none;fill-rule:nonzero;fill:rgb(0%,0%,0%);fill-opacity:1;" d="M 3.164062 12.601562 L 2.433594 13.355469 L 12.460938 14.132812 L 12.664062 13.679688 C 12.765625 13.445312 12.847656 13.054688 12.847656 12.800781 L 12.847656 7.386719 C 12.847656 7.386719 12.695312 5.535156 13.304688 5.414062 L 3.824219 5.214844 C 3.824219 5.214844 3.304688 5.703125 3.363281 7.203125 C 3.410156 8.367188 3.382812 10.730469 3.367188 11.726562 C 3.363281 11.980469 3.273438 12.375 3.164062 12.601562 Z M 3.164062 12.601562 "/>
    <path style=" stroke:none;fill-rule:nonzero;fill:rgb(0%,0%,0%);fill-opacity:1;" d="M 0.582031 6.390625 L 2.773438 6.390625 L 2.773438 11.808594 L 1.832031 12.5625 L 1.832031 12.8125 L 2.378906 12.929688 L 3.09375 12.378906 L 3.09375 11.550781 C 3.085938 11.554688 3.085938 6.390625 3.085938 6.390625 C 3.089844 6.390625 3.007812 5.699219 3.347656 5.550781 L 0.980469 5.550781 L 1.460938 4.691406 L 14.367188 5 L 13.996094 5.90625 L 13.304688 5.863281 C 12.867188 6.390625 13.15625 7.140625 13.15625 7.140625 L 14.988281 7.234375 L 14.988281 11.78125 L 13.082031 11.78125 L 13.082031 12.332031 L 14.988281 12.332031 L 14.988281 12.585938 L 15.015625 12.585938 L 14.367188 13.527344 L 14.367188 13.914062 L 14.988281 13.914062 L 16.203125 12.242188 L 16.203125 11.691406 L 15.628906 11.691406 L 15.628906 7.265625 L 17.144531 7.34375 C 17.492188 7.363281 17.824219 7.230469 17.894531 7.050781 C 17.960938 6.871094 18.015625 6.445312 18.015625 6.097656 L 18.015625 4.890625 C 18.015625 4.546875 17.734375 4.257812 17.390625 4.25 L 1.484375 3.882812 C 1.136719 3.875 0.730469 4.117188 0.570312 4.425781 L 0.285156 4.992188 C 0.128906 5.300781 0 5.707031 0 5.902344 C 0 6.097656 0.128906 6.25 0.289062 6.246094 L 0.582031 6.238281 Z M 0.582031 6.390625 "/>
  </g>
</svg>