<?xml version="1.0" encoding="UTF-8" standalone="no"?>
<!-- Generator: Adobe Illustrator 16.0.0, SVG Export Plug-In . SVG Version: 6.00 Build 0)  -->

<svg
   xmlns:dc="http://purl.org/dc/elements/1.1/"
   xmlns:cc="http://creativecommons.org/ns#"
   xmlns:rdf="http://www.w3.org/1999/02/22-rdf-syntax-ns#"
   xmlns:svg="http://www.w3.org/2000/svg"
   xmlns="http://www.w3.org/2000/svg"
   xmlns:sodipodi="http://sodipodi.sourceforge.net/DTD/sodipodi-0.dtd"
   xmlns:inkscape="http://www.inkscape.org/namespaces/inkscape"
   version="1.1"
   id="Capa_1"
   x="0px"
   y="0px"
   width="24"
   height="24"
   viewBox="0 0 23.999999 23.999999"
   xml:space="preserve"
   inkscape:version="0.48.5 r10040"
   sodipodi:docname="tahiye_ghaza.svg"><metadata
     id="metadata3359"><rdf:RDF><cc:Work
         rdf:about=""><dc:format>image/svg+xml</dc:format><dc:type
           rdf:resource="http://purl.org/dc/dcmitype/StillImage" /><dc:title></dc:title></cc:Work></rdf:RDF></metadata><defs
     id="defs3357" /><sodipodi:namedview
     pagecolor="#ffffff"
     bordercolor="#666666"
     borderopacity="1"
     objecttolerance="10"
     gridtolerance="10"
     guidetolerance="10"
     inkscape:pageopacity="0"
     inkscape:pageshadow="2"
     inkscape:window-width="657"
     inkscape:window-height="480"
     id="namedview3355"
     showgrid="false"
     inkscape:zoom="3.559781"
     inkscape:cx="18.854651"
     inkscape:cy="11.621639"
     inkscape:window-x="0"
     inkscape:window-y="27"
     inkscape:window-maximized="0"
     inkscape:current-layer="Capa_1" /><g
     id="g3309"
     transform="matrix(0.06178762,0,0,0.06178762,0.41395572,0.41395593)"><g
       id="g3311"><rect
         x="57.558998"
         y="363.45599"
         width="243.783"
         height="11.572"
         id="rect3313" /><polygon
         points="99.142,355.473 138.442,355.473 143.055,355.473 175.988,355.473 182.344,355.473 215.259,355.473 219.884,355.473 259.178,355.473 237.219,322.535 217.583,352.011 197.947,322.535 179.166,350.721 160.378,322.535 140.749,352.011 121.107,322.535 "
         id="polygon3315" /><path
         d="m 309.464,186.125 c -4.346,1.534 -9.923,6.675 -13.56,10.369 -0.151,-9.19 -0.453,-15.58 -0.522,-17.404 h 8.062 V 167.68 H 69.067 v 11.41 h 9.138 c -0.087,1.859 -0.406,8.545 -0.534,18.102 -3.573,-3.497 -8.308,-7.604 -12.112,-8.946 -7.023,-2.475 -30.389,0 -30.389,0 v 9.458 c 0,0 22.964,-0.802 27.902,2.068 4.961,2.869 10.276,27.164 14.407,27.164 0.151,0 0.401,0 0.569,0 1.122,25.922 4.758,54.016 14.715,63.09 H 80.407 v 15.058 h 210.605 v -15.058 h -10.201 c 10.201,-9.318 13.803,-38.736 14.826,-65.182 0.72,0 1.37,0 1.882,0 4.112,0 9.458,-24.306 14.407,-27.164 4.926,-2.881 27.932,-2.092 27.932,-2.092 v -9.451 c -0.023,-0.012 -23.423,-2.463 -30.394,-0.012 z m -202.74,84.661 c -2.226,-4.393 -4.416,-9.714 -6.071,-15.639 -1.011,-2.871 -1.44,-6.193 -2.126,-9.389 -0.813,-3.3 -0.883,-6.506 -1.133,-9.62 -0.308,-2.975 -0.331,-6.6 -0.157,-9.783 0.087,-3.229 0.192,-6.366 0.442,-9.388 0.337,-3.044 0.204,-5.949 0.848,-8.737 0.534,-2.742 1.046,-5.356 1.499,-7.761 1.963,-9.656 5.211,-15.43 5.211,-15.43 0,0 -0.035,1.644 0.25,4.479 0.273,2.853 0.261,6.675 0.889,11.438 0.406,4.718 0.691,10.108 1.499,15.94 0.407,2.905 0.645,5.879 0.895,8.9 0.105,3.091 0.75,5.729 1.156,9.109 0.807,6.482 1.737,11.92 2.556,17.707 0.784,5.728 1.499,11.131 2.132,15.731 1.15,9.329 1.423,16.126 1.423,16.126 0,0 -4.887,-4.842 -9.313,-13.683 z"
         id="path3317"
         inkscape:connector-curvature="0" /><path
         d="m 135.444,94.942 c 1.365,2.568 2.295,3.283 3.498,5.02 l 3.09,3.724 c 0.569,1.237 1.499,2.237 1.917,3.619 1,2.58 2.104,5.316 2.452,8.325 0.987,5.914 0.912,12.101 0.662,17.492 -0.709,10.805 -1.761,18.688 -1.761,18.688 0,0 5.775,-5.588 10.364,-16.655 1.145,-2.748 2.26,-5.838 2.986,-9.289 0.737,-3.428 1.464,-7.186 1.295,-11.247 0,-3.997 -0.482,-8.423 -2.091,-12.716 -0.634,-2.202 -1.976,-4.224 -2.998,-6.338 -0.593,-1.04 -1.394,-1.952 -2.097,-2.928 l -1.127,-1.452 -0.558,-0.715 -0.134,-0.168 c 0.07,0.087 0.18,0.204 0.395,0.442 l -0.063,-0.07 -0.198,-0.273 c -0.964,-1.325 -2.881,-3.189 -3.084,-4.026 -0.465,-0.958 -1.116,-1.772 -1.557,-3.259 -1.046,-2.556 -1.859,-5.496 -2.271,-8.47 -0.906,-5.984 -0.785,-12.183 -0.535,-17.608 0.709,-10.817 1.65,-18.712 1.65,-18.712 0,0 -5.71,5.647 -10.3,16.679 -2.283,5.496 -4.322,12.374 -4.416,20.426 0.082,3.985 0.157,8.377 1.795,12.688 0.537,2.089 1.774,4.505 3.086,6.823 z m 15.5,-4.642 c 0.012,0.012 -0.203,-0.238 0,0 l 0,0 z"
         id="path3319"
         inkscape:connector-curvature="0" /><path
         d="m 169.446,56.629 c 1.365,2.574 2.295,3.288 3.498,5.025 l 3.09,3.724 c 0.575,1.237 1.499,2.237 1.918,3.613 0.998,2.585 2.108,5.321 2.451,8.331 0.987,5.914 0.918,12.101 0.668,17.486 -0.715,10.805 -1.76,18.694 -1.76,18.694 0,0 5.768,-5.594 10.357,-16.655 1.145,-2.748 2.26,-5.844 2.98,-9.295 0.743,-3.428 1.464,-7.186 1.301,-11.241 0,-3.997 -0.488,-8.423 -2.091,-12.722 -0.628,-2.196 -1.976,-4.218 -2.998,-6.338 -0.593,-1.034 -1.394,-1.952 -2.091,-2.928 l -1.109,-1.429 -0.559,-0.714 -0.156,-0.198 c 0.075,0.082 0.18,0.198 0.395,0.441 l -0.046,-0.075 -0.216,-0.273 c -0.964,-1.307 -2.881,-3.189 -3.084,-4.02 -0.459,-0.964 -1.115,-1.76 -1.557,-3.248 -1.046,-2.574 -1.854,-5.496 -2.271,-8.47 -0.895,-6.001 -0.773,-12.182 -0.523,-17.608 C 178.347,7.901 179.3,0 179.3,0 c 0,0 -5.717,5.653 -10.307,16.679 -2.294,5.501 -4.333,12.374 -4.426,20.432 0.093,3.985 0.156,8.377 1.807,12.682 0.54,2.09 1.777,4.507 3.072,6.836 z m 15.5,-4.647 c 0.024,0.012 -0.186,-0.227 0,0 l 0,0 z"
         id="path3321"
         inkscape:connector-curvature="0" /><path
         d="m 211.448,91.375 c 1.371,2.568 2.301,3.282 3.509,5.02 l 3.091,3.724 c 0.569,1.237 1.498,2.237 1.917,3.613 0.999,2.585 2.103,5.322 2.451,8.331 0.977,5.914 0.906,12.101 0.663,17.492 -0.709,10.799 -1.755,18.688 -1.755,18.688 0,0 5.763,-5.588 10.364,-16.655 1.139,-2.748 2.254,-5.844 2.974,-9.295 0.744,-3.422 1.464,-7.186 1.302,-11.241 0,-3.997 -0.488,-8.423 -2.092,-12.716 -0.627,-2.202 -1.975,-4.224 -2.997,-6.344 -0.604,-1.034 -1.395,-1.952 -2.092,-2.928 l -1.115,-1.423 -0.558,-0.714 -0.128,-0.18 c 0.069,0.082 0.175,0.203 0.384,0.441 l -0.07,-0.099 -0.209,-0.273 c -0.965,-1.307 -2.881,-3.189 -3.079,-4.02 -0.465,-0.964 -1.127,-1.76 -1.557,-3.248 -1.058,-2.574 -1.859,-5.496 -2.277,-8.47 -0.895,-6.001 -0.778,-12.182 -0.522,-17.608 0.72,-10.817 1.649,-18.718 1.649,-18.718 0,0 -5.704,5.653 -10.294,16.685 -2.301,5.496 -4.334,12.368 -4.427,20.426 0.093,3.985 0.151,8.377 1.801,12.682 0.534,2.084 1.777,4.495 3.067,6.83 z m 15.523,-4.653 c 0.011,0.011 -0.209,-0.227 0,0 l 0,0 z"
         id="path3323"
         inkscape:connector-curvature="0" /></g></g><g
     id="g3325"
     transform="translate(0,-351.028)" /><g
     id="g3327"
     transform="translate(0,-351.028)" /><g
     id="g3329"
     transform="translate(0,-351.028)" /><g
     id="g3331"
     transform="translate(0,-351.028)" /><g
     id="g3333"
     transform="translate(0,-351.028)" /><g
     id="g3335"
     transform="translate(0,-351.028)" /><g
     id="g3337"
     transform="translate(0,-351.028)" /><g
     id="g3339"
     transform="translate(0,-351.028)" /><g
     id="g3341"
     transform="translate(0,-351.028)" /><g
     id="g3343"
     transform="translate(0,-351.028)" /><g
     id="g3345"
     transform="translate(0,-351.028)" /><g
     id="g3347"
     transform="translate(0,-351.028)" /><g
     id="g3349"
     transform="translate(0,-351.028)" /><g
     id="g3351"
     transform="translate(0,-351.028)" /><g
     id="g3353"
     transform="translate(0,-351.028)" /></svg>