<?xml version="1.0" encoding="UTF-8" standalone="yes"?>
<svg xmlns="http://www.w3.org/2000/svg" xmlns:xlink="http://www.w3.org/1999/xlink" width="24px" height="24px" viewBox="0 0 18 18" version="1.1">
  <g id="surface1">
    <path style=" stroke:none;fill-rule:nonzero;fill:rgb(0%,0%,0%);fill-opacity:1;" d="M 11.742188 4.238281 C 11.742188 4.238281 9.179688 4.304688 8.210938 5.628906 C 7.242188 6.953125 6.652344 6.832031 6.652344 6.832031 L 7.292969 7.664062 Z M 14.757812 8.152344 C 15.242188 6.515625 15.453125 4.691406 14.101562 3.539062 C 12.9375 2.546875 12.519531 3.828125 12.335938 5.011719 L 11.980469 4.550781 L 7.53125 7.976562 L 8.949219 9.816406 L 4.96875 9.277344 C 4.828125 8.816406 4.464844 8.449219 3.988281 8.324219 C 3.9375 8.296875 3.882812 8.277344 3.820312 8.273438 C 3.789062 8.269531 3.757812 8.277344 3.726562 8.28125 C 3.722656 8.28125 3.71875 8.277344 3.714844 8.277344 L 3.714844 8.28125 C 3.324219 8.339844 2.972656 8.898438 2.902344 9.609375 C 2.863281 9.964844 2.898438 10.308594 2.992188 10.578125 C 3.105469 10.898438 3.296875 11.085938 3.53125 11.109375 C 3.601562 11.117188 3.667969 11.105469 3.734375 11.085938 C 4.277344 11.039062 4.738281 10.6875 4.929688 10.191406 L 9.738281 10.84375 L 11.496094 13.128906 L 15.945312 9.703125 Z M 3.558594 10.710938 C 3.492188 10.691406 3.417969 10.59375 3.367188 10.445312 C 3.289062 10.234375 3.265625 9.945312 3.292969 9.648438 C 3.34375 9.160156 3.523438 8.824219 3.675781 8.707031 C 3.679688 8.703125 3.683594 8.703125 3.6875 8.699219 Z M 14.480469 7.792969 L 12.675781 5.449219 C 12.699219 5.207031 12.726562 4.964844 12.765625 4.722656 C 12.824219 4.378906 12.90625 4.035156 13.089844 3.738281 C 13.476562 3.105469 14.230469 4.285156 14.382812 4.554688 C 14.925781 5.527344 14.796875 6.683594 14.480469 7.792969 Z M 1.816406 13.824219 C 1.816406 13.964844 1.929688 14.082031 2.070312 14.082031 C 2.214844 14.082031 2.328125 13.964844 2.328125 13.824219 C 2.328125 13.683594 2.070312 13.390625 2.070312 13.390625 C 2.070312 13.390625 1.816406 13.683594 1.816406 13.824219 Z M 3.554688 14.355469 C 3.554688 14.609375 3.757812 14.8125 4.015625 14.8125 C 4.265625 14.8125 4.472656 14.609375 4.472656 14.355469 C 4.472656 14.101562 4.015625 13.578125 4.015625 13.578125 C 4.015625 13.578125 3.554688 14.101562 3.554688 14.355469 Z M 3.183594 11.609375 C 3.183594 11.609375 2.75 12.105469 2.75 12.34375 C 2.75 12.582031 2.945312 12.777344 3.183594 12.777344 C 3.425781 12.777344 3.617188 12.582031 3.617188 12.34375 C 3.617188 12.105469 3.183594 11.609375 3.183594 11.609375 Z M 3.183594 11.609375 "/>
  </g>
</svg>