<?xml version="1.0" encoding="UTF-8" standalone="yes"?>
<svg xmlns="http://www.w3.org/2000/svg" xmlns:xlink="http://www.w3.org/1999/xlink" width="24px" height="24px" viewBox="0 0 18 18" version="1.1">
  <g id="surface1">
    <path style=" stroke:none;fill-rule:nonzero;fill:rgb(0%,0%,0%);fill-opacity:1;" d="M 3.5625 9.761719 L 3.054688 9.761719 C 3 9.761719 2.96875 9.773438 2.957031 9.773438 L 3.351562 11.5625 C 3.363281 11.5625 3.375 11.5625 3.40625 11.5625 L 3.652344 11.5625 C 3.441406 11.308594 3.296875 11.042969 3.296875 10.65625 C 3.289062 10.324219 3.386719 10.015625 3.5625 9.761719 Z M 5.707031 11.5625 L 6.09375 9.773438 C 6.082031 9.773438 6.0625 9.761719 5.996094 9.761719 L 5.484375 9.761719 C 5.652344 10.003906 5.75 10.3125 5.75 10.65625 C 5.75 11.042969 5.609375 11.320312 5.410156 11.5625 L 5.675781 11.5625 C 5.695312 11.5625 5.695312 11.5625 5.707031 11.5625 Z M 5.164062 11.5625 C 5.410156 11.296875 5.574219 11.042969 5.574219 10.65625 C 5.574219 10.304688 5.453125 9.992188 5.253906 9.761719 C 5.1875 9.683594 5.097656 9.609375 5.023438 9.5625 C 4.867188 9.476562 4.710938 9.421875 4.535156 9.421875 C 4.359375 9.421875 4.191406 9.476562 4.050781 9.5625 C 3.972656 9.617188 3.894531 9.683594 3.816406 9.761719 C 3.617188 9.996094 3.496094 10.304688 3.496094 10.65625 C 3.496094 11.042969 3.652344 11.285156 3.90625 11.5625 Z M 13.773438 11.851562 C 13.617188 11.894531 13.441406 11.917969 13.265625 11.917969 C 13.109375 11.917969 12.957031 11.894531 12.800781 11.863281 L 12.414062 14.878906 C 12.414062 14.921875 12.457031 14.957031 12.511719 14.957031 L 14.070312 14.957031 C 14.125 14.957031 14.160156 14.910156 14.160156 14.867188 L 13.773438 11.851562 C 13.773438 11.859375 13.773438 11.859375 13.773438 11.851562 Z M 15.1875 10.160156 L 14.390625 10.160156 L 14.390625 9.761719 L 14.503906 9.761719 C 14.558594 9.761719 14.589844 9.71875 14.589844 9.675781 L 14.589844 9.664062 C 14.589844 9.609375 14.546875 9.574219 14.503906 9.574219 L 14.070312 9.574219 C 14.015625 9.574219 13.984375 9.621094 13.984375 9.664062 L 13.984375 9.675781 C 13.984375 9.730469 14.027344 9.761719 14.070312 9.761719 L 14.179688 9.761719 L 14.179688 10.160156 L 13.652344 10.160156 L 13.539062 9.617188 C 13.519531 9.507812 13.496094 9.375 13.375 9.375 L 13.375 9.054688 C 13.375 9 13.332031 8.957031 13.273438 8.957031 C 13.21875 8.957031 13.175781 9 13.175781 9.054688 L 13.175781 9.375 C 13.054688 9.375 13 9.476562 12.964844 9.617188 L 12.855469 10.160156 L 12.191406 10.160156 L 12.191406 9.761719 L 12.300781 9.761719 C 12.359375 9.761719 12.390625 9.71875 12.390625 9.675781 L 12.390625 9.664062 C 12.390625 9.609375 12.347656 9.574219 12.300781 9.574219 L 11.894531 9.574219 C 11.839844 9.574219 11.804688 9.621094 11.804688 9.664062 L 11.804688 9.675781 C 11.804688 9.730469 11.851562 9.761719 11.894531 9.761719 L 11.992188 9.761719 L 11.992188 10.160156 L 11.398438 10.160156 C 11.34375 10.160156 11.296875 10.203125 11.296875 10.261719 C 11.296875 10.316406 11.34375 10.359375 11.398438 10.359375 L 11.675781 10.359375 C 11.707031 10.933594 12.128906 11.429688 12.714844 11.628906 C 12.878906 11.683594 13.078125 11.71875 13.277344 11.71875 C 13.488281 11.71875 13.683594 11.671875 13.863281 11.617188 C 14.4375 11.417969 14.84375 10.933594 14.867188 10.359375 L 15.199219 10.359375 C 15.253906 10.359375 15.300781 10.3125 15.300781 10.257812 C 15.296875 10.203125 15.242188 10.160156 15.1875 10.160156 Z M 4.535156 13.308594 C 4.304688 13.308594 4.082031 13.265625 3.882812 13.199219 L 3.640625 14.855469 C 3.640625 14.890625 3.695312 14.964844 3.730469 14.964844 L 5.277344 14.964844 C 5.320312 14.964844 5.367188 14.898438 5.367188 14.84375 L 5.121094 13.21875 C 4.945312 13.277344 4.746094 13.308594 4.535156 13.308594 Z M 6.25 11.960938 L 6.390625 11.960938 C 6.445312 11.960938 6.492188 11.914062 6.492188 11.859375 C 6.492188 11.804688 6.445312 11.761719 6.390625 11.761719 L 3.398438 11.761719 C 3.398438 11.761719 3.386719 11.761719 3.375 11.761719 L 2.789062 11.761719 C 2.734375 11.761719 2.710938 11.792969 2.703125 11.839844 C 2.703125 11.851562 2.703125 11.851562 2.703125 11.859375 C 2.703125 11.882812 2.714844 11.894531 2.722656 11.914062 C 2.722656 11.949219 2.757812 11.972656 2.789062 11.972656 L 2.921875 11.972656 C 3.011719 12.378906 3.308594 12.722656 3.71875 12.921875 C 3.75 12.945312 3.785156 12.953125 3.816406 12.976562 C 3.851562 12.988281 3.871094 13 3.90625 13.011719 C 4.09375 13.078125 4.304688 13.121094 4.523438 13.121094 C 4.722656 13.121094 4.921875 13.085938 5.097656 13.03125 C 5.132812 13.019531 5.15625 13.011719 5.1875 13 C 5.230469 12.988281 5.253906 12.964844 5.289062 12.953125 C 5.71875 12.753906 6.039062 12.402344 6.128906 11.972656 C 6.128906 11.960938 6.25 11.960938 6.25 11.960938 Z M 8.644531 5 L 9.34375 5.695312 C 9.429688 5.609375 9.617188 5.320312 9.652344 5.222656 L 9.121094 4.691406 C 9.042969 4.710938 8.734375 4.910156 8.644531 5 Z M 8.4375 5.628906 C 8.449219 5.628906 8.46875 5.628906 8.480469 5.605469 L 8.546875 5.539062 C 8.570312 5.519531 8.570312 5.484375 8.546875 5.472656 C 8.523438 5.453125 8.492188 5.453125 8.480469 5.472656 L 8.414062 5.539062 C 8.390625 5.5625 8.390625 5.597656 8.414062 5.605469 C 8.414062 5.628906 8.425781 5.628906 8.4375 5.628906 Z M 8.328125 5.683594 C 8.304688 5.664062 8.269531 5.664062 8.257812 5.683594 L 8.183594 5.761719 C 8.160156 5.785156 8.160156 5.816406 8.183594 5.828125 C 8.195312 5.839844 8.203125 5.851562 8.226562 5.851562 C 8.25 5.851562 8.257812 5.851562 8.269531 5.828125 L 8.335938 5.761719 C 8.347656 5.75 8.347656 5.707031 8.328125 5.683594 Z M 8.765625 5.539062 C 8.777344 5.550781 8.789062 5.5625 8.8125 5.5625 C 8.835938 5.5625 8.84375 5.5625 8.855469 5.539062 L 8.921875 5.476562 C 8.921875 5.476562 8.921875 5.464844 8.933594 5.453125 C 8.945312 5.429688 8.945312 5.410156 8.921875 5.398438 C 8.898438 5.375 8.878906 5.375 8.867188 5.386719 C 8.855469 5.386719 8.855469 5.386719 8.84375 5.398438 L 8.765625 5.464844 C 8.746094 5.484375 8.746094 5.53125 8.765625 5.539062 Z M 8.625 5.617188 L 8.546875 5.683594 C 8.523438 5.707031 8.523438 5.738281 8.546875 5.75 C 8.558594 5.761719 8.570312 5.773438 8.589844 5.773438 C 8.613281 5.773438 8.625 5.773438 8.636719 5.75 L 8.703125 5.683594 C 8.726562 5.664062 8.726562 5.628906 8.703125 5.617188 C 8.679688 5.597656 8.636719 5.597656 8.625 5.617188 Z M 8.46875 5.839844 C 8.449219 5.816406 8.414062 5.816406 8.402344 5.839844 L 8.324219 5.90625 C 8.304688 5.929688 8.304688 5.960938 8.324219 5.972656 C 8.335938 5.984375 8.347656 5.996094 8.371094 5.996094 C 8.390625 5.996094 8.402344 5.996094 8.414062 5.972656 L 8.480469 5.90625 C 8.492188 5.882812 8.492188 5.851562 8.46875 5.839844 Z M 9.011719 5.539062 C 9 5.539062 9 5.539062 8.988281 5.550781 L 8.921875 5.617188 C 8.902344 5.640625 8.902344 5.671875 8.921875 5.683594 C 8.933594 5.695312 8.945312 5.707031 8.96875 5.707031 C 8.988281 5.707031 9 5.707031 9.011719 5.683594 L 9.078125 5.617188 C 9.089844 5.605469 9.089844 5.605469 9.089844 5.597656 C 9.101562 5.574219 9.101562 5.550781 9.078125 5.539062 C 9.054688 5.53125 9.03125 5.53125 9.011719 5.539062 Z M 8.765625 5.761719 L 8.699219 5.839844 C 8.679688 5.863281 8.679688 5.894531 8.699219 5.90625 C 8.710938 5.917969 8.722656 5.929688 8.746094 5.929688 C 8.769531 5.929688 8.777344 5.929688 8.789062 5.90625 L 8.855469 5.839844 C 8.878906 5.816406 8.878906 5.785156 8.855469 5.773438 C 8.824219 5.75 8.789062 5.75 8.765625 5.761719 Z M 8.546875 5.984375 L 8.480469 6.0625 C 8.460938 6.082031 8.460938 6.117188 8.480469 6.125 C 8.492188 6.136719 8.503906 6.148438 8.523438 6.148438 C 8.546875 6.148438 8.558594 6.148438 8.570312 6.125 L 8.636719 6.0625 C 8.65625 6.039062 8.65625 6.003906 8.636719 5.996094 C 8.601562 5.960938 8.570312 5.960938 8.546875 5.984375 Z M 11.785156 4.867188 L 11.785156 7.664062 C 11.785156 7.9375 12.003906 8.160156 12.28125 8.160156 L 14.28125 8.160156 C 14.558594 8.160156 14.777344 7.9375 14.777344 7.664062 L 14.777344 4.867188 C 14.777344 4.589844 14.558594 4.371094 14.28125 4.371094 L 12.292969 4.371094 C 12.003906 4.371094 11.785156 4.589844 11.785156 4.867188 Z M 14.292969 4.570312 C 14.457031 4.570312 14.589844 4.703125 14.589844 4.867188 L 14.589844 7.664062 C 14.589844 7.828125 14.457031 7.960938 14.292969 7.960938 L 12.292969 7.960938 C 12.125 7.960938 11.996094 7.828125 11.996094 7.664062 L 11.996094 4.867188 C 11.996094 4.699219 12.128906 4.570312 12.292969 4.570312 Z M 6.789062 13.761719 L 6.789062 15.363281 L 10.992188 15.363281 L 10.992188 3.164062 L 6.789062 3.164062 Z M 6.988281 3.363281 L 10.789062 3.363281 L 10.789062 13.761719 L 10.589844 13.761719 L 10.589844 4.46875 C 10.589844 4.414062 10.546875 4.371094 10.492188 4.371094 L 10.003906 4.371094 C 9.972656 4.371094 9.949219 4.382812 9.9375 4.402344 L 9.628906 4.691406 C 9.53125 4.625 9.398438 4.65625 9.320312 4.691406 L 9.683594 5.054688 C 9.707031 5 9.71875 4.945312 9.730469 4.898438 L 10.058594 4.589844 L 10.414062 4.589844 L 10.414062 13.785156 L 6.988281 13.785156 Z M 7.640625 8.371094 L 7.542969 8.371094 C 7.355469 8.371094 7.1875 8.523438 7.1875 8.722656 L 7.1875 9.617188 C 7.1875 9.804688 7.34375 9.972656 7.542969 9.972656 L 7.640625 9.972656 C 7.828125 9.972656 7.996094 9.816406 7.996094 9.617188 L 7.996094 8.710938 C 7.996094 8.523438 7.828125 8.371094 7.640625 8.371094 Z M 7.796875 9.617188 C 7.796875 9.695312 7.730469 9.773438 7.640625 9.773438 L 7.542969 9.773438 C 7.464844 9.773438 7.386719 9.707031 7.386719 9.617188 L 7.386719 8.710938 C 7.386719 8.632812 7.453125 8.558594 7.542969 8.558594 L 7.640625 8.558594 C 7.71875 8.558594 7.796875 8.625 7.796875 8.710938 Z M 2.789062 7.164062 L 6.195312 7.164062 L 6.195312 7.761719 L 2.789062 7.761719 Z M 2.789062 4.570312 L 6.195312 4.570312 L 6.195312 5.164062 L 2.789062 5.164062 Z M 4.203125 4.371094 L 4.390625 3.164062 L 3.597656 3.164062 L 3.707031 4.371094 Z M 5.1875 6.964844 L 5.1875 6.171875 L 3.597656 6.171875 L 3.597656 6.964844 Z M 3.996094 6.570312 L 4.789062 6.570312 L 4.789062 6.765625 L 3.996094 6.765625 Z M 3.386719 5.761719 L 5.386719 5.761719 L 5.386719 5.960938 L 3.386719 5.960938 Z M 3.386719 5.761719 "/>
  </g>
</svg>