<?xml version="1.0" encoding="utf-8"?>
<!-- Generator: Adobe Illustrator 15.1.0, SVG Export Plug-In . SVG Version: 6.00 Build 0)  -->
<!DOCTYPE svg PUBLIC "-//W3C//DTD SVG 1.1//EN" "http://www.w3.org/Graphics/SVG/1.1/DTD/svg11.dtd">
<svg version="1.1" id="Layer_1" xmlns="http://www.w3.org/2000/svg" xmlns:xlink="http://www.w3.org/1999/xlink" x="0px" y="0px"
	 width="24px" height="24px" viewBox="0 0 24 24" enable-background="new 0 0 24 24" xml:space="preserve">
<path fill="#010002" d="M11.785,9.811h1.241l4.729-5.104H5.862l4.726,5.104H11.785z M11.762,9.482l-1.585-4.539h3.189L11.762,9.482z
	 M13.319,4.183h4.421l-2.852-3.647h-3.082h-3.08L5.875,4.183h3.896H13.319z M14.75,0.769l-1.426,2.813l-1.396-2.813H14.75z
	 M8.756,0.769h2.653L10.085,3.58L8.756,0.769z M18.095,6.479c-0.239-0.207-0.6-0.182-0.804,0.057
	c-0.208,0.238-0.182,0.596,0.054,0.805c1.806,1.57,2.84,3.842,2.84,6.233c0,4.553-3.702,8.257-8.257,8.257
	c-4.554,0-8.256-3.704-8.256-8.257c0-2.333,0.989-4.567,2.723-6.131c0.234-0.21,0.25-0.573,0.04-0.804
	C6.222,6.402,5.862,6.385,5.629,6.596c-1.971,1.778-3.1,4.323-3.1,6.976c0,5.183,4.217,9.398,9.399,9.398
	c5.183,0,9.398-4.216,9.398-9.398C21.326,10.85,20.15,8.265,18.095,6.479z"/>
</svg>
