<?xml version="1.0" encoding="UTF-8" standalone="yes"?>
<svg xmlns="http://www.w3.org/2000/svg" xmlns:xlink="http://www.w3.org/1999/xlink" width="24px" height="24px" viewBox="0 0 18 18" version="1.1">
  <g id="surface1">
    <path style=" stroke:none;fill-rule:nonzero;fill:rgb(0%,0%,0%);fill-opacity:1;" d="M 17.847656 2.089844 C 17.902344 2.089844 17.957031 2.097656 18.007812 2.105469 L 18.007812 1.175781 C 17.945312 1.1875 17.878906 1.195312 17.808594 1.195312 C 17.457031 1.195312 17.125 1.035156 16.917969 0.78125 C 16.695312 0.601562 16.542969 0.308594 16.507812 0 L 15.257812 0 C 15.179688 0.546875 14.714844 0.964844 14.148438 0.964844 L 13.828125 0.964844 C 13.261719 0.964844 12.796875 0.546875 12.71875 0 L 11.722656 0 C 11.644531 0.546875 11.179688 0.964844 10.613281 0.964844 L 10.289062 0.964844 C 9.722656 0.964844 9.261719 0.546875 9.179688 0 L 8.183594 0 C 8.105469 0.546875 7.640625 0.964844 7.074219 0.964844 L 6.753906 0.964844 C 6.1875 0.964844 5.722656 0.546875 5.644531 0 L 4.648438 0 C 4.566406 0.546875 4.105469 0.964844 3.539062 0.964844 L 3.214844 0.964844 C 2.648438 0.964844 2.183594 0.546875 2.105469 0 L 1.179688 0 C 1.144531 0.304688 0.984375 0.582031 0.765625 0.765625 C 0.582031 0.984375 0.304688 1.144531 0 1.179688 L 0 2.429688 C 0.542969 2.507812 0.964844 2.972656 0.964844 3.539062 L 0.964844 3.859375 C 0.964844 4.425781 0.542969 4.890625 0 4.96875 L 0 5.964844 C 0.542969 6.042969 0.964844 6.507812 0.964844 7.074219 L 0.964844 7.398438 C 0.964844 7.964844 0.542969 8.429688 0 8.507812 L 0 9.503906 C 0.542969 9.582031 0.964844 10.046875 0.964844 10.613281 L 0.964844 10.933594 C 0.964844 11.5 0.542969 11.964844 0 12.042969 L 0 13.042969 C 0.542969 13.121094 0.964844 13.585938 0.964844 14.152344 L 0.964844 14.472656 C 0.964844 15.039062 0.542969 15.503906 0 15.582031 L 0 16.5 C 0.304688 16.535156 0.582031 16.675781 0.765625 16.898438 C 1.015625 17.105469 1.1875 17.457031 1.1875 17.808594 C 1.1875 17.878906 1.179688 17.945312 1.167969 18.011719 L 2.429688 18.011719 C 2.421875 17.957031 2.410156 17.90625 2.410156 17.847656 C 2.410156 17.226562 2.914062 16.722656 3.539062 16.722656 L 3.859375 16.722656 C 4.480469 16.722656 4.984375 17.226562 4.984375 17.847656 C 4.984375 17.90625 4.976562 17.957031 4.96875 18.011719 L 5.964844 18.011719 C 5.957031 17.957031 5.949219 17.90625 5.949219 17.847656 C 5.949219 17.226562 6.453125 16.722656 7.074219 16.722656 L 7.398438 16.722656 C 8.019531 16.722656 8.523438 17.226562 8.523438 17.847656 C 8.523438 17.90625 8.515625 17.957031 8.507812 18.011719 L 9.503906 18.011719 C 9.496094 17.957031 9.488281 17.90625 9.488281 17.847656 C 9.488281 17.226562 9.992188 16.722656 10.613281 16.722656 L 10.933594 16.722656 C 11.554688 16.722656 12.058594 17.226562 12.058594 17.847656 C 12.058594 17.90625 12.050781 17.957031 12.042969 18.011719 L 13.042969 18.011719 C 13.035156 17.957031 13.023438 17.90625 13.023438 17.847656 C 13.023438 17.226562 13.527344 16.722656 14.152344 16.722656 L 14.472656 16.722656 C 15.09375 16.722656 15.597656 17.226562 15.597656 17.847656 C 15.597656 17.90625 15.589844 17.957031 15.582031 18.011719 L 16.503906 18.011719 C 16.492188 17.945312 16.484375 17.878906 16.484375 17.808594 C 16.484375 17.457031 16.648438 17.125 16.898438 16.917969 C 17.105469 16.667969 17.457031 16.496094 17.808594 16.496094 C 17.878906 16.496094 17.945312 16.503906 18.011719 16.515625 L 18.011719 15.261719 C 17.957031 15.269531 17.902344 15.277344 17.847656 15.277344 C 17.226562 15.277344 16.722656 14.773438 16.722656 14.152344 L 16.722656 13.828125 C 16.722656 13.207031 17.226562 12.703125 17.847656 12.703125 C 17.902344 12.703125 17.957031 12.710938 18.011719 12.71875 L 18.011719 11.722656 C 17.957031 11.730469 17.902344 11.738281 17.847656 11.738281 C 17.226562 11.738281 16.722656 11.234375 16.722656 10.613281 L 16.722656 10.292969 C 16.722656 9.667969 17.226562 9.164062 17.847656 9.164062 C 17.902344 9.164062 17.957031 9.175781 18.011719 9.183594 L 18.011719 8.183594 C 17.957031 8.191406 17.902344 8.199219 17.847656 8.199219 C 17.226562 8.199219 16.722656 7.695312 16.722656 7.074219 L 16.722656 6.753906 C 16.722656 6.132812 17.226562 5.628906 17.847656 5.628906 C 17.902344 5.628906 17.957031 5.636719 18.011719 5.644531 L 18.011719 4.648438 C 17.957031 4.65625 17.902344 4.664062 17.847656 4.664062 C 17.226562 4.664062 16.722656 4.160156 16.722656 3.539062 L 16.722656 3.214844 C 16.722656 2.59375 17.226562 2.089844 17.847656 2.089844 Z M 15.113281 15.113281 L 2.574219 15.113281 L 2.574219 2.574219 L 15.113281 2.574219 Z M 15.113281 15.113281 "/>
    <path style=" stroke:none;fill-rule:nonzero;fill:rgb(0%,0%,0%);fill-opacity:1;" d="M 14.148438 14.148438 L 14.148438 9.914062 C 14.148438 9.910156 13.972656 9.90625 13.847656 9.90625 C 11.84375 9.910156 10.546875 10.554688 9.710938 11.339844 C 10.636719 12.433594 10.976562 13.613281 11.082031 14.121094 Z M 14.148438 14.148438 "/>
    <path style=" stroke:none;fill-rule:nonzero;fill:rgb(0%,0%,0%);fill-opacity:1;" d="M 8.023438 14.089844 L 8.011719 14.191406 L 8.171875 14.191406 L 10.605469 14.167969 C 10.601562 14.152344 10.597656 14.132812 10.59375 14.117188 C 10.484375 13.617188 10.179688 12.613281 9.390625 11.667969 C 9.375 11.648438 9.359375 11.628906 9.339844 11.609375 C 9.3125 11.578125 9.28125 11.542969 9.253906 11.511719 C 8.246094 10.398438 6.53125 9.4375 3.605469 9.550781 L 3.566406 9.328125 L 3.539062 9.328125 L 3.539062 14.230469 L 7.980469 14.191406 Z M 8.023438 14.089844 "/>
    <path style=" stroke:none;fill-rule:nonzero;fill:rgb(0%,0%,0%);fill-opacity:1;" d="M 12.050781 3.375 C 12.9375 3.375 13.65625 4.097656 13.65625 4.984375 C 13.65625 5.871094 12.9375 6.59375 12.050781 6.59375 C 11.160156 6.59375 10.441406 5.871094 10.441406 4.984375 C 10.441406 4.097656 11.160156 3.375 12.050781 3.375 Z M 12.050781 3.375 "/>
  </g>
</svg>