<?xml version="1.0" encoding="UTF-8" standalone="no"?>
<!-- Generator: Adobe Illustrator 16.0.0, SVG Export Plug-In . SVG Version: 6.00 Build 0)  -->

<svg
   xmlns:dc="http://purl.org/dc/elements/1.1/"
   xmlns:cc="http://creativecommons.org/ns#"
   xmlns:rdf="http://www.w3.org/1999/02/22-rdf-syntax-ns#"
   xmlns:svg="http://www.w3.org/2000/svg"
   xmlns="http://www.w3.org/2000/svg"
   xmlns:sodipodi="http://sodipodi.sourceforge.net/DTD/sodipodi-0.dtd"
   xmlns:inkscape="http://www.inkscape.org/namespaces/inkscape"
   version="1.1"
   id="Capa_1"
   x="0px"
   y="0px"
   width="24"
   height="24"
   viewBox="0 0 24 24"
   xml:space="preserve"
   inkscape:version="0.48.5 r10040"
   sodipodi:docname="tamirkar.svg"><metadata
     id="metadata4225"><rdf:RDF><cc:Work
         rdf:about=""><dc:format>image/svg+xml</dc:format><dc:type
           rdf:resource="http://purl.org/dc/dcmitype/StillImage" /><dc:title></dc:title></cc:Work></rdf:RDF></metadata><defs
     id="defs4223" /><sodipodi:namedview
     pagecolor="#ffffff"
     bordercolor="#666666"
     borderopacity="1"
     objecttolerance="10"
     gridtolerance="10"
     guidetolerance="10"
     inkscape:pageopacity="0"
     inkscape:pageshadow="2"
     inkscape:window-width="657"
     inkscape:window-height="480"
     id="namedview4221"
     showgrid="false"
     inkscape:zoom="4.2930947"
     inkscape:cx="27.4865"
     inkscape:cy="27.486"
     inkscape:window-x="0"
     inkscape:window-y="27"
     inkscape:window-maximized="0"
     inkscape:current-layer="Capa_1" /><g
     id="g4179"
     transform="matrix(0.42374122,0,0,0.42374122,0.35279811,0.35305955)"><g
       id="g4181"><path
         d="M 47.91,0.841 C 46.972,-0.113 45.324,-0.123 44.373,0.819 L 31.794,13.285 c -0.541,0.536 -1.137,1.441 -1.417,2.153 l -0.645,1.638 c -0.412,1.048 -0.153,2.408 0.615,3.233 l 3.762,4.037 c 0.557,0.599 1.447,0.971 2.324,0.971 0.299,0 0.586,-0.043 0.854,-0.126 l 1.717,-0.531 c 0.751,-0.234 1.706,-0.8 2.271,-1.345 L 54.211,10.829 C 54.693,10.363 54.964,9.738 54.973,9.069 54.981,8.4 54.727,7.768 54.256,7.291 L 47.91,0.841 z m -8.719,20.316 c -0.229,0.221 -0.772,0.543 -1.076,0.638 l -1.676,0.522 h -0.004 c -0.047,0 -0.109,-0.018 -0.127,-0.018 -0.002,0 -0.004,0.001 -0.004,0.003 L 32.57,18.299 c -0.021,-0.036 -0.037,-0.125 -0.045,-0.126 l 0.645,-1.638 c 0.126,-0.321 0.491,-0.876 0.736,-1.118 L 46.125,3.305 51.757,9.028 39.191,21.157 z"
         id="path4183"
         inkscape:connector-curvature="0" /><path
         d="m 21.934,35.636 -2.032,-2.154 c -0.871,-1.046 -2.559,-1.149 -3.55,-0.213 L 8.587,40.596 C 7.828,40.388 6.891,40.684 6.2,41.374 L 5.364,42.21 c -0.467,0.468 -1.089,1.238 -1.449,1.799 l -3.417,5.315 c -0.724,1.125 -0.648,2.457 0.161,3.149 0.042,0.038 0.111,0.108 0.202,0.201 1.465,1.476 2.329,2.179 3.272,2.179 0.313,0 0.618,-0.084 0.88,-0.241 l 5.634,-3.38 c 0.579,-0.347 1.375,-0.97 1.853,-1.447 l 0.961,-0.961 c 0.734,-0.733 0.995,-1.697 0.746,-2.502 L 21.78,39.21 c 0.987,-0.924 1.081,-2.464 0.154,-3.574 z m -9.999,8.706 c -0.774,0.727 -1.053,1.729 -0.785,2.552 l -0.771,0.771 c -0.302,0.303 -0.91,0.776 -1.275,0.996 L 4.132,51.643 C 3.916,51.46 3.606,51.175 3.16,50.732 L 6.438,45.63 c 0.243,-0.377 0.732,-0.983 1.047,-1.3 l 0.651,-0.646 c 0.74,0.189 1.651,-0.092 2.338,-0.739 l 7.529,-7.109 1.404,1.488 -7.472,7.018 z"
         id="path4185"
         inkscape:connector-curvature="0" /><path
         d="m 1.883,9.949 c -1.475,0 -1.701,1.699 -1.775,2.259 C 0.036,12.748 0,13.302 0,13.853 c 0,6.823 5.551,12.375 12.375,12.375 1.002,0 2.011,-0.126 3.024,-0.377 0.1,0 0.195,0.037 0.189,0.024 3.991,4.074 23.747,24.229 24.623,25.123 0.334,0.378 2.213,2.353 4.9,2.353 l 0,0 c 1.725,0 3.354,-0.784 4.843,-2.331 3.362,-3.492 1.471,-7.305 -0.031,-8.861 L 24.403,17.168 c -0.032,-0.052 -0.058,-0.185 -0.048,-0.241 0.262,-1.012 0.395,-2.046 0.395,-3.074 0,-6.823 -5.551,-12.375 -12.375,-12.375 -0.766,0 -1.53,0.07 -2.269,0.209 C 9.152,1.864 8.506,2.214 8.186,2.73 7.964,3.086 7.894,3.558 8.008,3.962 8.076,4.204 8.169,4.535 9.2,5.503 l 4.772,4.484 c 0.037,0.049 0.075,0.18 0.076,0.212 l -1.121,4.407 c -0.025,0.054 -0.118,0.147 -0.143,0.163 L 8.37,15.895 c -0.081,0 -0.195,-0.042 -0.212,-0.05 L 3.778,11.18 C 2.89,10.232 2.618,10.084 2.246,9.992 2.13,9.962 2.005,9.949 1.883,9.949 z m 4.088,7.948 c 0.736,0.786 2.066,1.182 3.119,0.91 l 4.437,-1.131 c 1.061,-0.27 2.027,-1.237 2.299,-2.299 l 1.13,-4.437 C 17.227,9.881 16.845,8.571 16.049,7.823 l -3.56,-3.347 c 5.117,0.06 9.261,4.242 9.261,9.374 0,0.774 -0.101,1.556 -0.299,2.319 -0.281,1.079 0.057,2.357 0.822,3.104 l 25.521,24.994 c 0.229,0.238 2.185,2.399 0,4.67 -0.901,0.937 -1.804,1.411 -2.681,1.411 l 0,0 c -1.488,0 -2.645,-1.326 -2.648,-1.332 -0.025,-0.03 -0.053,-0.062 -0.081,-0.089 0,0 -20.571,-20.986 -24.652,-25.154 -0.566,-0.578 -1.438,-0.924 -2.333,-0.924 -0.265,0 -0.521,0.031 -0.762,0.093 -0.747,0.189 -1.507,0.284 -2.262,0.284 -4.856,0 -8.861,-3.71 -9.329,-8.444 l 2.925,3.115 z"
         id="path4187"
         inkscape:connector-curvature="0" /><path
         d="m 45,49.102 c 1.378,0 2.5,-1.121 2.5,-2.5 0,-1.379 -1.122,-2.5 -2.5,-2.5 -1.378,0 -2.5,1.121 -2.5,2.5 0,1.379 1.122,2.5 2.5,2.5 z m 0,-4 c 0.827,0 1.5,0.673 1.5,1.5 0,0.827 -0.673,1.5 -1.5,1.5 -0.827,0 -1.5,-0.673 -1.5,-1.5 0,-0.827 0.673,-1.5 1.5,-1.5 z"
         id="path4189"
         inkscape:connector-curvature="0" /></g></g><g
     id="g4191"
     transform="translate(0,-30.972)" /><g
     id="g4193"
     transform="translate(0,-30.972)" /><g
     id="g4195"
     transform="translate(0,-30.972)" /><g
     id="g4197"
     transform="translate(0,-30.972)" /><g
     id="g4199"
     transform="translate(0,-30.972)" /><g
     id="g4201"
     transform="translate(0,-30.972)" /><g
     id="g4203"
     transform="translate(0,-30.972)" /><g
     id="g4205"
     transform="translate(0,-30.972)" /><g
     id="g4207"
     transform="translate(0,-30.972)" /><g
     id="g4209"
     transform="translate(0,-30.972)" /><g
     id="g4211"
     transform="translate(0,-30.972)" /><g
     id="g4213"
     transform="translate(0,-30.972)" /><g
     id="g4215"
     transform="translate(0,-30.972)" /><g
     id="g4217"
     transform="translate(0,-30.972)" /><g
     id="g4219"
     transform="translate(0,-30.972)" /></svg>