<?xml version="1.0" encoding="utf-8"?>
<!-- Generator: Adobe Illustrator 15.1.0, SVG Export Plug-In . SVG Version: 6.00 Build 0)  -->
<!DOCTYPE svg PUBLIC "-//W3C//DTD SVG 1.1//EN" "http://www.w3.org/Graphics/SVG/1.1/DTD/svg11.dtd">
<svg version="1.1" id="Layer_1" xmlns="http://www.w3.org/2000/svg" xmlns:xlink="http://www.w3.org/1999/xlink" x="0px" y="0px"
	 width="24px" height="24px" viewBox="0 0 24 24" enable-background="new 0 0 24 24" xml:space="preserve">
<path d="M12.999,5.61c-0.003-1.25-0.864-2.339-2.146-2.919v2.697L8.731,6.353L6.608,5.384V2.69C5.329,3.271,4.466,4.36,4.465,5.61
	c0,1.311,0.952,2.446,2.34,3.004v0.015v11.093c0,0.439,0.224,0.836,0.589,1.124c0.364,0.287,0.867,0.463,1.424,0.465
	c1.108,0,2.009-0.71,2.013-1.589L10.822,8.544C12.122,7.967,12.997,6.868,12.999,5.61z M8.333,20.533
	c0.245,0.265,0.643,0.265,0.889,0c0.243-0.26,0.243-0.685-0.003-0.948c-0.245-0.261-0.642-0.261-0.884-0.003
	C8.088,19.849,8.088,20.273,8.333,20.533z M7.239,14.39c-0.074,0.214-0.118,0.342-0.118,0.342c-0.046,0.078-0.078,0.433-0.078,0.527
	v2.686v0.188v1.444c0,0.276,0.225,0.501,0.501,0.501h1.839c0.278,0,0.502-0.225,0.502-0.501v-0.92h7.11v0.92
	c0,0.276,0.226,0.501,0.501,0.501h1.839c0.277,0,0.503-0.225,0.503-0.501v-1.444v-0.188v-2.686c0-0.095-0.033-0.45-0.078-0.527
	c0,0-0.046-0.128-0.12-0.342h0.571c0.262,0,0.4-0.212,0.311-0.474l-0.161-0.474c-0.09-0.263-0.376-0.474-0.638-0.474h-0.586
	c-0.442-1.239-0.982-2.734-1.14-3.084c-0.244-0.544-1.023-0.79-1.452-0.91c0,0-0.717-0.272-3.104-0.272
	c-2.389,0-3.106,0.272-3.106,0.272C9.833,9.143,9.136,9.38,8.858,9.909c-0.13,0.249-0.678,1.786-1.125,3.06H7.158 M9.876,16.561
	H9.116c-0.682,0-1.362-0.093-1.362-0.523v-0.524c0-0.507,0.293-0.523,0.61-0.523c0.309,0,0.922,0.262,1.324,0.442
	c0.439,0.195,0.931,0.359,0.931,0.688C10.619,16.421,10.45,16.561,9.876,16.561z M8.817,13.159c0.374-1.555,0.78-2.431,0.87-2.677
	c0.072-0.178,0.142-0.727,3.754-0.727c3.613,0,3.697,0.626,3.706,0.634c0.112,0.333,0.554,1.336,0.906,2.768
	c0,0-1.524,0.52-4.614,0.52C10.352,13.678,8.817,13.159,8.817,13.159z M16.262,16.118c0-0.327,0.492-0.492,0.933-0.688
	c0.402-0.18,1.015-0.442,1.322-0.442c0.316,0,0.61,0.018,0.61,0.524v0.524h0.002c0,0.432-0.682,0.522-1.361,0.522h-0.762
	C16.433,16.561,16.262,16.421,16.262,16.118z"/>
</svg>
