<?xml version="1.0" encoding="UTF-8" standalone="yes"?>
<svg xmlns="http://www.w3.org/2000/svg" xmlns:xlink="http://www.w3.org/1999/xlink" width="24px" height="24px" viewBox="0 0 18 18" version="1.1">
  <g id="surface1">
    <path style=" stroke:none;fill-rule:nonzero;fill:rgb(0%,0%,0%);fill-opacity:1;" d="M 9.855469 6.933594 C 9.964844 6.933594 10.066406 6.949219 10.167969 6.976562 L 12.03125 4.695312 C 12.152344 4.546875 12.371094 4.519531 12.515625 4.644531 C 12.65625 4.761719 12.675781 4.96875 12.558594 5.113281 L 10.714844 7.371094 C 10.839844 7.542969 10.914062 7.757812 10.914062 7.988281 C 10.914062 8.417969 10.65625 8.789062 10.289062 8.953125 L 17.519531 8.953125 C 17.785156 8.953125 18 8.738281 18 8.472656 L 18 2.394531 C 18 2.128906 17.785156 1.914062 17.519531 1.914062 L 8.335938 1.914062 C 8.070312 1.914062 7.855469 2.128906 7.855469 2.394531 L 7.855469 6.382812 L 8.292969 6.933594 Z M 9.855469 6.933594 "/>
    <path style=" stroke:none;fill-rule:nonzero;fill:rgb(0%,0%,0%);fill-opacity:1;" d="M 5.835938 2.339844 C 5.835938 3.425781 4.953125 4.308594 3.867188 4.308594 C 2.78125 4.308594 1.898438 3.425781 1.898438 2.339844 C 1.898438 1.253906 2.78125 0.375 3.867188 0.375 C 4.953125 0.375 5.835938 1.253906 5.835938 2.339844 Z M 5.835938 2.339844 "/>
    <path style=" stroke:none;fill-rule:nonzero;fill:rgb(0%,0%,0%);fill-opacity:1;" d="M 5.882812 17.144531 C 5.882812 17.410156 5.667969 17.625 5.402344 17.625 L 4.597656 17.625 C 4.332031 17.625 4.117188 17.410156 4.117188 17.144531 L 4.117188 13.121094 C 4.117188 12.976562 4 12.863281 3.859375 12.863281 C 3.71875 12.863281 3.601562 12.976562 3.601562 13.121094 L 3.601562 17.125 C 3.601562 17.402344 3.378906 17.625 3.101562 17.625 L 2.3125 17.625 C 2.046875 17.625 1.832031 17.410156 1.832031 17.144531 L 1.828125 7.425781 C 1.828125 7.296875 1.722656 7.1875 1.589844 7.1875 C 1.460938 7.1875 1.351562 7.292969 1.351562 7.425781 L 1.351562 11.164062 C 1.351562 11.429688 1.136719 11.644531 0.871094 11.644531 L 0.480469 11.644531 C 0.214844 11.644531 0 11.429688 0 11.164062 L 0 6.039062 C 0 5.429688 0.492188 4.9375 1.101562 4.9375 L 5.476562 4.9375 C 5.945312 4.9375 6.386719 5.152344 6.679688 5.519531 L 7.855469 7.003906 L 8.101562 7.316406 C 8.101562 7.316406 9.21875 7.316406 9.859375 7.316406 C 10.125 7.316406 10.339844 7.535156 10.339844 7.796875 L 10.339844 8.179688 C 10.339844 8.445312 10.125 8.660156 9.859375 8.660156 L 7.78125 8.660156 C 7.574219 8.660156 7.378906 8.566406 7.253906 8.40625 L 6.378906 7.28125 C 6.332031 7.222656 6.261719 7.1875 6.191406 7.1875 L 6.128906 7.1875 C 6 7.1875 5.890625 7.292969 5.890625 7.425781 Z M 5.882812 17.144531 "/>
  </g>
</svg>