<?xml version="1.0" encoding="UTF-8" standalone="yes"?>
<svg xmlns="http://www.w3.org/2000/svg" xmlns:xlink="http://www.w3.org/1999/xlink" width="24px" height="24px" viewBox="0 0 18 18" version="1.1">
  <g id="surface1">
    <path style=" stroke:none;fill-rule:nonzero;fill:rgb(0%,0%,0%);fill-opacity:1;" d="M 12.171875 5.945312 L 10.808594 5.945312 L 10.808594 4.257812 L 9.445312 4.257812 L 9.445312 3.230469 C 10.117188 3.214844 10.785156 3.175781 11.457031 3.101562 C 12.195312 2.679688 12.195312 2.386719 11.457031 1.964844 C 10.785156 1.894531 10.117188 1.851562 9.445312 1.839844 L 9.445312 1.523438 L 8.554688 1.523438 L 8.554688 1.839844 C 7.882812 1.851562 7.214844 1.894531 6.542969 1.964844 C 5.804688 2.386719 5.804688 2.679688 6.542969 3.101562 C 7.214844 3.175781 7.882812 3.214844 8.554688 3.230469 L 8.554688 4.257812 L 7.191406 4.257812 L 7.191406 5.945312 L 5.828125 5.945312 L 5.828125 6.921875 L 12.171875 6.921875 Z M 8.046875 5.113281 L 9.953125 5.113281 L 9.953125 5.945312 L 8.046875 5.945312 Z M 8.046875 5.113281 "/>
    <path style=" stroke:none;fill-rule:nonzero;fill:rgb(0%,0%,0%);fill-opacity:1;" d="M 14.984375 11.570312 L 12.15625 11.570312 C 11.738281 11.558594 11.398438 11.21875 11.398438 10.796875 L 11.398438 9.695312 C 11.398438 9.269531 11.746094 8.921875 12.171875 8.921875 L 12.171875 7.820312 L 5.828125 7.820312 L 5.828125 8.921875 C 6.253906 8.921875 6.601562 9.269531 6.601562 9.695312 L 6.601562 10.796875 C 6.601562 11.21875 6.261719 11.558594 5.84375 11.570312 L 3.015625 11.570312 L 3.015625 10.90625 L 1.957031 10.90625 L 1.957031 16.476562 L 3.015625 16.476562 L 3.015625 15.800781 L 14.984375 15.800781 L 14.984375 16.476562 L 16.042969 16.476562 L 16.042969 10.90625 L 14.984375 10.90625 Z M 14.984375 11.570312 "/>
    <path style=" stroke:none;fill-rule:nonzero;fill:rgb(0%,0%,0%);fill-opacity:1;" d="M 16.941406 10.90625 L 18 10.90625 L 18 16.476562 L 16.941406 16.476562 Z M 16.941406 10.90625 "/>
    <path style=" stroke:none;fill-rule:nonzero;fill:rgb(0%,0%,0%);fill-opacity:1;" d="M 0 10.90625 L 1.058594 10.90625 L 1.058594 16.476562 L 0 16.476562 Z M 0 10.90625 "/>
  </g>
</svg>