<?xml version="1.0" encoding="UTF-8" standalone="no"?>
<!-- Generator: Adobe Illustrator 18.0.0, SVG Export Plug-In . SVG Version: 6.00 Build 0)  -->

<svg
   xmlns:dc="http://purl.org/dc/elements/1.1/"
   xmlns:cc="http://creativecommons.org/ns#"
   xmlns:rdf="http://www.w3.org/1999/02/22-rdf-syntax-ns#"
   xmlns:svg="http://www.w3.org/2000/svg"
   xmlns="http://www.w3.org/2000/svg"
   xmlns:sodipodi="http://sodipodi.sourceforge.net/DTD/sodipodi-0.dtd"
   xmlns:inkscape="http://www.inkscape.org/namespaces/inkscape"
   version="1.1"
   id="Capa_1"
   x="0px"
   y="0px"
   viewBox="0 0 24 24"
   xml:space="preserve"
   inkscape:version="0.48.5 r10040"
   width="100%"
   height="100%"
   sodipodi:docname="tavaoni_masraf.svg"><metadata
     id="metadata3935"><rdf:RDF><cc:Work
         rdf:about=""><dc:format>image/svg+xml</dc:format><dc:type
           rdf:resource="http://purl.org/dc/dcmitype/StillImage" /><dc:title></dc:title></cc:Work></rdf:RDF></metadata><defs
     id="defs3933" /><sodipodi:namedview
     pagecolor="#ffffff"
     bordercolor="#666666"
     borderopacity="1"
     objecttolerance="10"
     gridtolerance="10"
     guidetolerance="10"
     inkscape:pageopacity="0"
     inkscape:pageshadow="2"
     inkscape:window-width="657"
     inkscape:window-height="480"
     id="namedview3931"
     showgrid="false"
     inkscape:zoom="4.8448643"
     inkscape:cx="14.106651"
     inkscape:cy="9.4794896"
     inkscape:window-x="0"
     inkscape:window-y="27"
     inkscape:window-maximized="0"
     inkscape:current-layer="Capa_1" /><g
     id="g3893"
     transform="matrix(0.05942984,0,0,0.05942984,0.4203334,0.42036311)"><path
       d="m 152.678,30 h 3.494 c 25.314,0 45.945,20.443 46.246,45.689 H 232.42 C 232.115,33.902 198.027,0 156.172,0 h -3.494 C 110.82,0 76.732,33.902 76.43,75.689 h 30.001 C 106.731,50.443 127.361,30 152.678,30 z"
       id="path3895"
       inkscape:connector-curvature="0" /><path
       d="M 291.168,205.117 V 92.189 c 0,-3.313 -2.688,-6 -6,-6 H 23.682 c -3.314,0 -6,2.687 -6,6 v 223.869 c 0,16.542 13.457,30 30,30 h 153.074 c 16.392,26.182 45.49,43.633 78.592,43.633 51.094,0 92.662,-41.568 92.662,-92.662 0,-47.09 -35.309,-86.088 -80.842,-91.912 z M 89.049,144.02 c -9.511,0 -17.248,-7.737 -17.248,-17.248 0,-9.512 7.737,-17.249 17.248,-17.249 9.51,0 17.246,7.737 17.246,17.249 0,9.51 -7.736,17.248 -17.246,17.248 z m 113.504,-17.249 c 0,-9.512 7.736,-17.249 17.246,-17.249 9.512,0 17.25,7.737 17.25,17.249 0,9.511 -7.738,17.248 -17.25,17.248 -9.51,0.001 -17.246,-7.737 -17.246,-17.248 z m 75.461,237.92 c -37.369,0 -67.662,-30.293 -67.662,-67.662 0,-37.369 30.293,-67.662 67.662,-67.662 37.369,0 67.662,30.293 67.662,67.662 0,37.369 -30.293,67.662 -67.662,67.662 z"
       id="path3897"
       inkscape:connector-curvature="0" /><path
       d="m 300.414,270.079 -27.388,27.389 -15.68,-15.681 c -5.081,-5.08 -13.318,-5.08 -18.398,0 -5.081,5.08 -5.081,13.318 0,18.398 l 24.879,24.879 c 2.54,2.541 5.87,3.81 9.199,3.81 3.329,0 6.659,-1.27 9.199,-3.81 l 36.587,-36.586 c 5.081,-5.081 5.081,-13.318 0,-18.399 -5.081,-5.08 -13.318,-5.08 -18.398,0 z"
       id="path3899"
       inkscape:connector-curvature="0" /></g><g
     id="g3901"
     transform="translate(0,-365.691)" /><g
     id="g3903"
     transform="translate(0,-365.691)" /><g
     id="g3905"
     transform="translate(0,-365.691)" /><g
     id="g3907"
     transform="translate(0,-365.691)" /><g
     id="g3909"
     transform="translate(0,-365.691)" /><g
     id="g3911"
     transform="translate(0,-365.691)" /><g
     id="g3913"
     transform="translate(0,-365.691)" /><g
     id="g3915"
     transform="translate(0,-365.691)" /><g
     id="g3917"
     transform="translate(0,-365.691)" /><g
     id="g3919"
     transform="translate(0,-365.691)" /><g
     id="g3921"
     transform="translate(0,-365.691)" /><g
     id="g3923"
     transform="translate(0,-365.691)" /><g
     id="g3925"
     transform="translate(0,-365.691)" /><g
     id="g3927"
     transform="translate(0,-365.691)" /><g
     id="g3929"
     transform="translate(0,-365.691)" /></svg>