<?xml version="1.0" encoding="utf-8"?>
<!-- Generator: Adobe Illustrator 15.1.0, SVG Export Plug-In . SVG Version: 6.00 Build 0)  -->
<!DOCTYPE svg PUBLIC "-//W3C//DTD SVG 1.1//EN" "http://www.w3.org/Graphics/SVG/1.1/DTD/svg11.dtd">
<svg version="1.1" id="Layer_1" xmlns="http://www.w3.org/2000/svg" xmlns:xlink="http://www.w3.org/1999/xlink" x="0px" y="0px"
	 width="24px" height="24px" viewBox="0 0 24 24" enable-background="new 0 0 24 24" xml:space="preserve">
<path d="M1.953,9.959c0.324,0.269,2.385,1.996,3.09,2.591c0.04,0.033,0.343,1.849,0.478,2.7c0.126,0.789,0.669,1.438,1.607,1.409
	c0.633-0.02,4.769-0.009,6.203-0.002c0.439,0.003,0.809-0.14,1.128-0.435c0.237-0.22,5.209-4.576,5.845-5.133
	c0.043-0.037,0.099-0.054,0.155-0.046l0.805,0.111c0.098,0.014,0.191-0.049,0.216-0.146l0.314-1.277
	c0.022-0.094-0.026-0.191-0.116-0.228l-1.777-0.713c-0.054-0.021-0.113-0.019-0.163,0.008c-0.472,0.247-2.91,1.524-3.509,1.854
	c0,0-0.84-0.599-1.211-0.865c-0.291-0.208-0.615-0.348-0.991-0.343c-0.777,0.008-2.405,0.001-2.444,0.001V9.286
	c0-0.067,0.055-0.122,0.122-0.122h0.847c0.082,0,0.147-0.065,0.147-0.147V7.361c0-0.081-0.065-0.146-0.146-0.146L8.099,7.213
	c-0.081,0-0.147,0.066-0.147,0.146L7.951,9.022c0,0.081,0.065,0.147,0.147,0.147h0.778c0.067,0,0.121,0.054,0.121,0.121v0.157
	L7.216,9.449c0,0-3.075-2.535-3.346-2.641c-0.438-0.171-0.877-0.2-1.319-0.026C2.042,6.983,1.704,7.354,1.486,7.849
	C1.159,8.588,1.35,9.458,1.953,9.959z M6.722,10.497c1.198-0.007,2.396-0.003,3.595-0.003c1.195-0.001,2.389-0.001,3.583-0.001
	c0.009-0.001,0.016-0.001,0.023-0.001c0.152-0.005,0.162,0.223,0.012,0.236c-1.175,0.102-5.372,0.435-6.408,0.517
	c-0.134,0.01-0.24,0.116-0.249,0.25c0,0-0.258,3.684-0.259,3.692c-0.007,0.101-0.132,0.169-0.227,0.163
	c-0.134-0.008-0.14-0.095-0.155-0.207c-0.026-0.196-0.051-0.394-0.076-0.59c-0.071-0.547-0.141-1.094-0.212-1.642
	c-0.075-0.575-0.134-1.154-0.226-1.728C6.056,10.757,6.328,10.499,6.722,10.497z M2.385,8.265C2.599,7.742,3.22,7.452,3.702,7.846
	c0.005,0.004,2.069,1.695,2.069,1.695c-0.663,0.319-1.015,0.801-0.889,1.575c-0.146-0.123-1.651-1.379-2.27-1.903
	C2.324,8.97,2.242,8.615,2.385,8.265z M22.668,11.398c-0.101-0.106-0.209-0.201-0.333-0.278c-0.117-0.072-0.264,0.026-0.248,0.163
	c0.036,0.303-0.033,0.589-0.167,0.865c-0.397,0.824-1.193,1.843-0.484,2.729c0.412,0.514,1.241,0.651,1.766,0.255
	c0.443-0.338,0.598-0.954,0.524-1.506C23.626,12.865,23.194,11.957,22.668,11.398z"/>
</svg>
