<?xml version="1.0" encoding="UTF-8" standalone="yes"?>
<svg xmlns="http://www.w3.org/2000/svg" xmlns:xlink="http://www.w3.org/1999/xlink" width="24px" height="24px" viewBox="0 0 18 18" version="1.1">
  <g id="surface1">
    <path style=" stroke:none;fill-rule:nonzero;fill:rgb(0%,0%,0%);fill-opacity:1;" d="M 16.144531 11.1875 C 15.125 11.25 13.78125 12.273438 12.484375 12.859375 C 10.894531 13.578125 8.417969 13 8.417969 13 C 8.800781 12.820312 10.351562 12.453125 10.664062 12.3125 C 12.324219 11.585938 12.183594 10.0625 11.394531 10.074219 C 10.347656 10.089844 9.734375 10.347656 7.648438 10.632812 C 6.070312 10.847656 4.199219 10.769531 3.304688 11.109375 C 2.039062 11.59375 0 14.847656 0 14.847656 L 3.152344 17.898438 C 3.152344 17.898438 5.101562 15.980469 6.050781 15.980469 C 8.214844 15.980469 8.300781 15.949219 10.3125 15.839844 C 11.164062 15.796875 11.34375 15.761719 11.832031 15.59375 C 14.433594 14.714844 17.230469 12.371094 17.28125 12.089844 C 17.402344 11.4375 16.6875 11.15625 16.144531 11.1875 Z M 16.144531 11.1875 "/>
    <path style=" stroke:none;fill-rule:nonzero;fill:rgb(0%,0%,0%);fill-opacity:1;" d="M 11.796875 6.460938 C 11.851562 6.472656 11.90625 6.449219 11.9375 6.402344 C 12.660156 5.234375 13.753906 3.824219 15.179688 2.867188 C 13.851562 4.140625 12.910156 5.484375 12.34375 6.75 C 12.324219 6.789062 12.328125 6.832031 12.347656 6.867188 C 12.367188 6.902344 12.402344 6.929688 12.445312 6.933594 C 12.539062 6.945312 12.632812 6.953125 12.730469 6.953125 C 13.640625 6.953125 14.550781 6.398438 15.148438 5.933594 C 15.835938 5.402344 16.492188 4.699219 16.910156 4.054688 C 17.539062 3.085938 17.929688 1.894531 18.015625 0.695312 C 18.015625 0.65625 18.003906 0.621094 17.976562 0.59375 C 17.949219 0.566406 17.910156 0.550781 17.871094 0.554688 C 16.964844 0.617188 14.714844 0.910156 13.398438 2.222656 C 13.351562 2.265625 12.867188 2.710938 12.417969 3.425781 C 11.800781 4.402344 11.546875 5.414062 11.691406 6.351562 C 11.703125 6.40625 11.742188 6.453125 11.796875 6.460938 Z M 11.796875 6.460938 "/>
    <path style=" stroke:none;fill-rule:nonzero;fill:rgb(0%,0%,0%);fill-opacity:1;" d="M 8.195312 7.863281 C 8.769531 8.304688 9.632812 8.835938 10.5 8.835938 C 10.59375 8.835938 10.6875 8.828125 10.773438 8.816406 C 10.8125 8.808594 10.847656 8.785156 10.867188 8.753906 C 10.886719 8.71875 10.886719 8.675781 10.871094 8.640625 C 10.332031 7.433594 9.4375 6.15625 8.167969 4.9375 C 9.527344 5.851562 10.570312 7.199219 11.261719 8.308594 C 11.289062 8.355469 11.339844 8.375 11.390625 8.367188 C 11.445312 8.355469 11.484375 8.3125 11.492188 8.261719 C 11.628906 7.367188 11.390625 6.402344 10.800781 5.472656 C 10.371094 4.792969 9.910156 4.367188 9.867188 4.328125 C 8.613281 3.074219 6.464844 2.796875 5.601562 2.734375 C 5.566406 2.734375 5.53125 2.746094 5.503906 2.773438 C 5.476562 2.796875 5.464844 2.835938 5.46875 2.871094 C 5.546875 4.011719 5.921875 5.148438 6.519531 6.070312 C 6.914062 6.6875 7.542969 7.355469 8.195312 7.863281 Z M 8.195312 7.863281 "/>
    <path style=" stroke:none;fill-rule:nonzero;fill:rgb(0%,0%,0%);fill-opacity:1;" d="M 9.433594 3.527344 C 9.816406 3.824219 10.390625 4.175781 10.96875 4.175781 C 11.03125 4.175781 11.089844 4.171875 11.152344 4.164062 C 11.175781 4.160156 11.199219 4.144531 11.210938 4.121094 C 11.226562 4.097656 11.226562 4.070312 11.214844 4.046875 C 10.855469 3.242188 10.257812 2.390625 9.414062 1.582031 C 10.320312 2.191406 11.015625 3.085938 11.472656 3.828125 C 11.492188 3.855469 11.527344 3.871094 11.5625 3.863281 C 11.597656 3.855469 11.621094 3.828125 11.628906 3.796875 C 11.71875 3.199219 11.5625 2.554688 11.167969 1.9375 C 10.882812 1.484375 10.574219 1.199219 10.546875 1.175781 C 9.710938 0.339844 8.28125 0.15625 7.707031 0.113281 C 7.679688 0.113281 7.65625 0.121094 7.640625 0.140625 C 7.621094 0.15625 7.613281 0.179688 7.617188 0.203125 C 7.667969 0.964844 7.917969 1.722656 8.316406 2.335938 C 8.582031 2.746094 9 3.191406 9.433594 3.527344 Z M 9.433594 3.527344 "/>
  </g>
</svg>