<?xml version="1.0" encoding="utf-8"?>
<!-- Generator: Adobe Illustrator 15.1.0, SVG Export Plug-In . SVG Version: 6.00 Build 0)  -->
<!DOCTYPE svg PUBLIC "-//W3C//DTD SVG 1.1//EN" "http://www.w3.org/Graphics/SVG/1.1/DTD/svg11.dtd">
<svg version="1.1"
	 id="Layer_1" inkscape:version="0.48.5 r10040" sodipodi:docname="bank-kar-afarin.svg" xmlns:dc="http://purl.org/dc/elements/1.1/" xmlns:cc="http://creativecommons.org/ns#" xmlns:rdf="http://www.w3.org/1999/02/22-rdf-syntax-ns#" xmlns:svg="http://www.w3.org/2000/svg" xmlns:sodipodi="http://sodipodi.sourceforge.net/DTD/sodipodi-0.dtd" xmlns:inkscape="http://www.inkscape.org/namespaces/inkscape"
	 xmlns="http://www.w3.org/2000/svg" xmlns:xlink="http://www.w3.org/1999/xlink" x="0px" y="0px" width="24px" height="24px"
	 viewBox="0 0 24 24" enable-background="new 0 0 24 24" xml:space="preserve">
<path d="M5.341,17.709h2.738V18.8c0,0.328-0.267,0.595-0.595,0.595H5.304c-0.328,0-0.595-0.267-0.595-0.595v-1.712
	C4.709,17.431,4.991,17.709,5.341,17.709z M17.102,19.395h2.181c0.328,0,0.595-0.267,0.595-0.596v-1.711
	c0,0.343-0.282,0.621-0.632,0.621h-2.738v1.09C16.507,19.129,16.773,19.395,17.102,19.395z M13.979,6.202V5.664
	c0-0.329-0.267-0.595-0.595-0.595h-2.182c-0.328,0-0.595,0.267-0.595,0.595v0.538c0.463-0.027,1.019-0.045,1.686-0.045
	S13.517,6.175,13.979,6.202z M19.186,12.653h0.448c0.094,0.251,0.15,0.405,0.15,0.405c0.054,0.091,0.093,0.511,0.093,0.624v3.184
	h-3.37v0.843H8.079v-0.843h-3.37v-3.184c0-0.113,0.038-0.533,0.093-0.624c0,0,0.055-0.154,0.146-0.405H4.268
	c-0.311,0-0.476-0.252-0.369-0.563l0.192-0.561c0.106-0.311,0.444-0.563,0.754-0.563h0.719c0.521-1.42,1.146-3.092,1.298-3.381
	C7.19,6.96,8.018,6.679,8.612,6.479c0,0,0.497-0.188,1.996-0.277v0.552h3.37V6.202c1.498,0.089,1.996,0.277,1.996,0.277
	c0.507,0.142,1.433,0.434,1.722,1.079c0.181,0.406,0.795,2.03,1.312,3.41h-0.399L19.186,12.653z M8.948,14.701
	c0-0.387-0.583-0.582-1.104-0.814c-0.478-0.215-1.203-0.524-1.57-0.524c-0.375,0-0.723,0.021-0.723,0.621v0.621
	c0,0.513,0.806,0.62,1.613,0.62h0.901C8.746,15.226,8.948,15.061,8.948,14.701z M12.292,11.811c3.66,0,5.469-0.616,5.469-0.616
	c-0.418-1.698-0.942-2.642-1.074-3.036c-0.01-0.01-0.111-0.753-4.394-0.753s-4.365,0.651-4.45,0.862
	c-0.106,0.29-0.59,1.085-1.033,2.927C6.811,11.194,8.632,11.811,12.292,11.811z M19.034,14.604L19.034,14.604l-0.001-0.62
	c0-0.601-0.348-0.621-0.723-0.621c-0.366,0-1.092,0.311-1.57,0.523c-0.521,0.232-1.103,0.427-1.103,0.815
	c0,0.358,0.201,0.523,0.881,0.523h0.902C18.228,15.226,19.034,15.118,19.034,14.604z M20.688,12.091l-0.192-0.561
	c-0.106-0.312-0.444-0.563-0.755-0.563h-0.734c0.255,0.682,0.485,1.301,0.628,1.686h0.685
	C20.629,12.653,20.794,12.401,20.688,12.091z"/>
</svg>
