<?xml version="1.0" encoding="UTF-8" standalone="yes"?>
<svg xmlns="http://www.w3.org/2000/svg" xmlns:xlink="http://www.w3.org/1999/xlink" width="24px" height="24px" viewBox="0 0 18 18" version="1.1">
  <g id="surface1">
    <path style=" stroke:none;fill-rule:nonzero;fill:rgb(0%,0%,0%);fill-opacity:1;" d="M 3.644531 12.777344 L 3.628906 12.777344 L 3.425781 9.433594 L 3.046875 9.433594 L 3.046875 15.285156 L 3.425781 15.285156 L 3.535156 14.03125 L 5.390625 14.03125 L 5.542969 15.285156 L 5.761719 15.285156 L 5.761719 12.777344 Z M 5.363281 13.820312 L 3.554688 13.820312 L 3.589844 13.402344 L 5.3125 13.402344 Z M 14.316406 12.777344 L 12.03125 12.777344 L 12.03125 15.285156 L 12.402344 15.285156 L 12.558594 14.03125 L 14.414062 14.03125 L 14.523438 15.285156 L 14.953125 15.285156 L 14.953125 9.433594 L 14.523438 9.433594 Z M 14.394531 13.820312 L 12.585938 13.820312 L 12.636719 13.402344 L 14.359375 13.402344 Z M 13.285156 11.339844 L 13.285156 10.664062 C 13.285156 10.5625 13.203125 10.476562 13.097656 10.476562 L 4.902344 10.476562 C 4.800781 10.476562 4.714844 10.5625 4.714844 10.664062 L 4.714844 11.339844 C 4.714844 11.441406 4.796875 11.523438 4.902344 11.523438 L 7.226562 11.523438 L 7.226562 11.941406 L 8.058594 11.941406 L 8.058594 15.050781 C 8.058594 15.058594 8.0625 15.066406 8.0625 15.074219 L 7.222656 15.074219 L 7.222656 15.492188 L 10.777344 15.492188 L 10.777344 15.074219 L 9.9375 15.074219 C 9.9375 15.066406 9.941406 15.058594 9.941406 15.050781 L 9.941406 11.941406 L 10.777344 11.941406 L 10.777344 11.523438 L 13.101562 11.523438 C 13.203125 11.523438 13.285156 11.441406 13.285156 11.339844 Z M 7.765625 2.328125 L 7.765625 5.320312 L 7.625 5.320312 C 7.457031 5.878906 7.222656 6.355469 7.222656 7.113281 C 7.222656 7.792969 7.492188 8.375 7.554688 8.710938 L 8.285156 8.710938 C 8.414062 8.328125 8.570312 7.773438 8.570312 7.113281 C 8.570312 6.355469 8.386719 5.878906 8.21875 5.320312 L 8.046875 5.320312 L 8.046875 2.328125 Z M 9.722656 2.328125 L 9.722656 3.644531 L 9.597656 3.644531 C 9.421875 4.203125 9.234375 4.730469 9.234375 5.527344 C 9.234375 6.371094 9.496094 6.863281 9.566406 7.21875 L 10.289062 7.21875 C 10.425781 6.816406 10.59375 6.21875 10.59375 5.527344 C 10.59375 4.730469 10.394531 4.203125 10.21875 3.644531 L 10.003906 3.644531 L 10.003906 2.328125 Z M 9.722656 2.328125 "/>
  </g>
</svg>