<?xml version="1.0" encoding="UTF-8" standalone="no"?>
<!-- Generator: Adobe Illustrator 17.0.0, SVG Export Plug-In . SVG Version: 6.00 Build 0)  -->

<svg
   xmlns:dc="http://purl.org/dc/elements/1.1/"
   xmlns:cc="http://creativecommons.org/ns#"
   xmlns:rdf="http://www.w3.org/1999/02/22-rdf-syntax-ns#"
   xmlns:svg="http://www.w3.org/2000/svg"
   xmlns="http://www.w3.org/2000/svg"
   xmlns:sodipodi="http://sodipodi.sourceforge.net/DTD/sodipodi-0.dtd"
   xmlns:inkscape="http://www.inkscape.org/namespaces/inkscape"
   version="1.1"
   id="Capa_1"
   x="0px"
   y="0px"
   width="24"
   height="24"
   viewBox="0 0 24 24.000001"
   enable-background="new 0 0 23.357 21.543"
   xml:space="preserve"
   inkscape:version="0.48.5 r10040"
   sodipodi:docname="telecabin.svg"><metadata
     id="metadata3169"><rdf:RDF><cc:Work
         rdf:about=""><dc:format>image/svg+xml</dc:format><dc:type
           rdf:resource="http://purl.org/dc/dcmitype/StillImage" /></cc:Work></rdf:RDF></metadata><defs
     id="defs3167" /><sodipodi:namedview
     pagecolor="#ffffff"
     bordercolor="#666666"
     borderopacity="1"
     objecttolerance="10"
     gridtolerance="10"
     guidetolerance="10"
     inkscape:pageopacity="0"
     inkscape:pageshadow="2"
     inkscape:window-width="657"
     inkscape:window-height="480"
     id="namedview3165"
     showgrid="false"
     inkscape:zoom="10.954835"
     inkscape:cx="11.6785"
     inkscape:cy="14.422855"
     inkscape:window-x="0"
     inkscape:window-y="27"
     inkscape:window-maximized="0"
     inkscape:current-layer="Capa_1" /><path
     d="m 10.9405,7.4600004 h 3.621 v 1.063 h -3.621 v -1.063 z m -1.799,2.0580002 -3.613,6.2610004 3.614,6.251 h 7.222 l 3.61,-6.251 -3.61,-6.2610004 c 0,0 -7.223,0 -7.223,0 z m 1.742,6.8320004 h -1.895 v -0.57 h 1.893 l 0.002,0.57 0,0 z m -2.148,-1.488 1.727,-3.34 h 4.583 l 1.725,3.34 h -8.035 z m 4.677,-12.6840006 v -0.208 h -2.824 v 0.208 h -9.464 v 0.816 h 9.463 v 0.214 h 1.313 l 1.87,1.87 -1.282,1.28 0.529,0.537 1.818,-1.818 -1.866,-1.87 h 0.443 v -0.214 h 9.463 v -0.815 h -9.463 z"
     id="path3163"
     inkscape:connector-curvature="0"
     style="fill:#231f20" /></svg>