<?xml version="1.0" encoding="UTF-8" standalone="yes"?>
<svg xmlns="http://www.w3.org/2000/svg" xmlns:xlink="http://www.w3.org/1999/xlink" width="24px" height="24px" viewBox="0 0 18 18" version="1.1">
  <g id="surface1">
    <path style=" stroke:none;fill-rule:nonzero;fill:rgb(0%,0%,0%);fill-opacity:1;" d="M 15.660156 5.195312 L 8.050781 5.195312 L 8.050781 14.230469 C 8.050781 15.019531 7.410156 15.660156 6.621094 15.660156 L 3.769531 15.660156 C 2.980469 15.660156 2.34375 15.019531 2.34375 14.230469 L 2.34375 5.195312 C 1.816406 5.195312 1.390625 5.621094 1.390625 6.148438 L 1.390625 15.660156 C 1.390625 16.183594 1.816406 16.609375 2.34375 16.609375 L 15.660156 16.609375 C 16.183594 16.609375 16.609375 16.1875 16.609375 15.660156 L 16.609375 6.144531 C 16.609375 5.621094 16.183594 5.195312 15.660156 5.195312 Z M 10.425781 14.945312 C 10.035156 14.945312 9.714844 14.625 9.714844 14.230469 C 9.714844 13.839844 10.035156 13.519531 10.425781 13.519531 C 10.820312 13.519531 11.140625 13.839844 11.140625 14.230469 C 11.140625 14.625 10.820312 14.945312 10.425781 14.945312 Z M 10.425781 13.042969 C 10.035156 13.042969 9.714844 12.722656 9.714844 12.328125 C 9.714844 11.9375 10.035156 11.617188 10.425781 11.617188 C 10.820312 11.617188 11.140625 11.9375 11.140625 12.328125 C 11.140625 12.722656 10.820312 13.042969 10.425781 13.042969 Z M 10.425781 11.140625 C 10.035156 11.140625 9.714844 10.820312 9.714844 10.425781 C 9.714844 10.035156 10.035156 9.714844 10.425781 9.714844 C 10.820312 9.714844 11.140625 10.035156 11.140625 10.425781 C 11.140625 10.820312 10.820312 11.140625 10.425781 11.140625 Z M 12.328125 14.945312 C 11.933594 14.945312 11.617188 14.625 11.617188 14.230469 C 11.617188 13.839844 11.933594 13.519531 12.328125 13.519531 C 12.722656 13.519531 13.042969 13.839844 13.042969 14.230469 C 13.042969 14.625 12.722656 14.945312 12.328125 14.945312 Z M 12.328125 13.042969 C 11.933594 13.042969 11.617188 12.722656 11.617188 12.328125 C 11.617188 11.9375 11.933594 11.617188 12.328125 11.617188 C 12.722656 11.617188 13.042969 11.9375 13.042969 12.328125 C 13.042969 12.722656 12.722656 13.042969 12.328125 13.042969 Z M 12.328125 11.140625 C 11.933594 11.140625 11.617188 10.820312 11.617188 10.425781 C 11.617188 10.035156 11.933594 9.714844 12.328125 9.714844 C 12.722656 9.714844 13.042969 10.035156 13.042969 10.425781 C 13.042969 10.820312 12.722656 11.140625 12.328125 11.140625 Z M 14.230469 14.945312 C 13.839844 14.945312 13.519531 14.625 13.519531 14.230469 C 13.519531 13.839844 13.839844 13.519531 14.230469 13.519531 C 14.625 13.519531 14.945312 13.839844 14.945312 14.230469 C 14.945312 14.625 14.625 14.945312 14.230469 14.945312 Z M 14.230469 13.042969 C 13.839844 13.042969 13.519531 12.722656 13.519531 12.328125 C 13.519531 11.9375 13.839844 11.617188 14.230469 11.617188 C 14.625 11.617188 14.945312 11.9375 14.945312 12.328125 C 14.945312 12.722656 14.625 13.042969 14.230469 13.042969 Z M 14.230469 11.140625 C 13.839844 11.140625 13.519531 10.820312 13.519531 10.425781 C 13.519531 10.035156 13.839844 9.714844 14.230469 9.714844 C 14.625 9.714844 14.945312 10.035156 14.945312 10.425781 C 14.945312 10.820312 14.625 11.140625 14.230469 11.140625 Z M 14.945312 8.523438 C 14.945312 8.789062 14.734375 9 14.46875 9 L 10.191406 9 C 9.925781 9 9.714844 8.789062 9.714844 8.523438 L 9.714844 7.574219 C 9.714844 7.308594 9.925781 7.097656 10.191406 7.097656 L 14.46875 7.097656 C 14.734375 7.097656 14.945312 7.308594 14.945312 7.574219 Z M 7.097656 3.769531 L 7.097656 14.230469 C 7.097656 14.496094 6.886719 14.707031 6.621094 14.707031 L 3.769531 14.707031 C 3.503906 14.707031 3.292969 14.496094 3.292969 14.230469 L 3.292969 3.769531 C 3.292969 3.503906 3.503906 3.292969 3.769531 3.292969 L 4.246094 3.292969 L 4.246094 1.867188 C 4.246094 1.601562 4.457031 1.390625 4.71875 1.390625 C 4.984375 1.390625 5.195312 1.601562 5.195312 1.867188 L 5.195312 3.292969 L 6.621094 3.292969 C 6.886719 3.292969 7.097656 3.503906 7.097656 3.769531 Z M 7.097656 3.769531 "/>
  </g>
</svg>