<?xml version="1.0" encoding="UTF-8" standalone="no"?>
<!-- Generated by IcoMoon.io -->

<svg
   xmlns:dc="http://purl.org/dc/elements/1.1/"
   xmlns:cc="http://creativecommons.org/ns#"
   xmlns:rdf="http://www.w3.org/1999/02/22-rdf-syntax-ns#"
   xmlns:svg="http://www.w3.org/2000/svg"
   xmlns="http://www.w3.org/2000/svg"
   xmlns:sodipodi="http://sodipodi.sourceforge.net/DTD/sodipodi-0.dtd"
   xmlns:inkscape="http://www.inkscape.org/namespaces/inkscape"
   version="1.1"
   width="24"
   height="24"
   viewBox="0 0 24 24"
   id="svg3171"
   inkscape:version="0.48.5 r10040"
   sodipodi:docname="telescope.svg">
  <metadata
     id="metadata3179">
    <rdf:RDF>
      <cc:Work
         rdf:about="">
        <dc:format>image/svg+xml</dc:format>
        <dc:type
           rdf:resource="http://purl.org/dc/dcmitype/StillImage" />
      </cc:Work>
    </rdf:RDF>
  </metadata>
  <defs
     id="defs3177" />
  <sodipodi:namedview
     pagecolor="#ffffff"
     bordercolor="#666666"
     borderopacity="1"
     objecttolerance="10"
     gridtolerance="10"
     guidetolerance="10"
     inkscape:pageopacity="0"
     inkscape:pageshadow="2"
     inkscape:window-width="657"
     inkscape:window-height="480"
     id="namedview3175"
     showgrid="false"
     inkscape:zoom="7.375"
     inkscape:cx="14.5"
     inkscape:cy="16"
     inkscape:window-x="0"
     inkscape:window-y="27"
     inkscape:window-maximized="0"
     inkscape:current-layer="svg3171" />
  <path
     d="m 2.8525666,10.314279 c 0.7529083,-0.188227 5.387812,-1.3883631 5.387812,-1.3883631 -0.02334,0.1415468 -0.047433,0.4472276 -0.047433,0.4472276 0,1.6707035 1.1527026,3.0116335 3.0116334,3.0116335 1.85893,0 3.011633,-1.388363 3.011633,-3.0116335 0,-0.2590005 -0.188227,-0.5180009 -0.447228,-0.7529083 l 1.152703,0.070773 c 0,0 0.164887,-0.047433 0.729568,-0.188227 C 14.451119,8.8325553 13.11019,7.7732133 12.686302,6.1732831 12.262415,4.5733528 12.874529,2.9967628 14.098005,2.6677418 13.533324,2.8092886 13.368437,2.8559689 13.368437,2.8559689 L 9.4156685,5.4444678 C 8.615327,5.656035 8.1214191,6.52715 8.3329863,7.3267386 8.3804196,7.5383059 8.4978733,7.726533 8.615327,7.8680797 8.45044,8.1504204 8.3329863,8.4801942 8.2622129,8.8092151 7.6267583,8.785875 7.0620771,8.3619876 6.87385,7.726533 6.6622827,6.9261914 7.1328504,6.1032626 7.9324391,5.8909424 L 2.1681729,7.4200993 C 1.3678313,7.6316665 0.89726359,8.4320081 1.1095837,9.2315967 1.3219039,10.031185 2.0740593,10.502506 2.8269677,10.314279 z m 9.8585814,3.599655 H 9.699515 v 1.505817 L 2.1704316,22.948834 H 5.1820649 L 9.699515,19.937201 v 3.011633 h 3.011633 v -3.011633 l 4.51745,3.011633 h 3.011634 L 12.711148,15.419751 V 13.913934 z M 22.804637,3.373217 C 22.38075,1.7732868 21.157274,0.78471815 19.933798,1.114492 c -1.62327,0.4238874 -2.306158,0.6587948 -4.376656,1.2001358 -1.200136,0.3297739 -1.858931,1.8822709 -1.435044,3.4822011 0.423888,1.5999302 1.741477,2.7059526 2.94086,2.4002718 2.047158,-0.5413411 2.752633,-0.7762485 4.376657,-1.2001359 1.200135,-0.3297739 1.788157,-1.9997246 1.365022,-3.6237478 z m -1.64661,2.1179311 C 20.758233,5.6086018 20.169458,5.0913538 19.957891,4.2910122 19.746324,3.4906707 19.863777,2.7377623 20.263572,2.6436488 c 0.399794,-0.094114 0.988568,0.3997943 1.200136,1.2001359 0.211567,0.8003415 0.09411,1.5532499 -0.305681,1.6473634 z"
     id="path3173"
     inkscape:connector-curvature="0"
     style="fill:#444444" />
</svg>
