<?xml version="1.0" encoding="UTF-8" standalone="yes"?>
<svg xmlns="http://www.w3.org/2000/svg" xmlns:xlink="http://www.w3.org/1999/xlink" width="24px" height="24px" viewBox="0 0 18 18" version="1.1">
  <g id="surface1">
    <path style=" stroke:none;fill-rule:nonzero;fill:rgb(0%,0%,0%);fill-opacity:1;" d="M 13.972656 9.078125 L 13.195312 9.078125 C 13.195312 6.542969 11.128906 4.476562 8.59375 4.476562 L 8.59375 3.699219 C 11.558594 3.699219 13.972656 6.113281 13.972656 9.078125 Z M 8.59375 5.042969 L 8.59375 5.820312 C 10.390625 5.820312 11.851562 7.28125 11.851562 9.078125 L 12.628906 9.078125 C 12.628906 6.851562 10.820312 5.042969 8.59375 5.042969 Z M 8.4375 1.375 C 4.234375 1.375 0.8125 4.792969 0.8125 9 C 0.8125 13.203125 4.234375 16.625 8.4375 16.625 C 8.695312 16.625 8.90625 16.414062 8.90625 16.15625 C 8.90625 15.894531 8.695312 15.683594 8.4375 15.683594 C 4.75 15.683594 1.753906 12.683594 1.753906 9 C 1.753906 5.316406 4.75 2.316406 8.4375 2.316406 C 12.125 2.316406 15.121094 5.316406 15.121094 9 C 15.121094 10.539062 14.300781 12.066406 13.128906 12.714844 C 12.703125 12.949219 12.238281 13.0625 11.746094 13.070312 C 12.042969 12.894531 12.296875 12.65625 12.488281 12.355469 C 12.527344 12.300781 12.574219 12.25 12.601562 12.1875 C 12.753906 11.820312 12.765625 11.402344 12.859375 11.011719 C 12.972656 10.515625 10.683594 9.546875 10.484375 10.164062 C 10.414062 10.394531 10.304688 11.121094 10.160156 11.3125 C 10.03125 11.484375 9.714844 11.402344 9.515625 11.234375 C 8.996094 10.789062 8.414062 10.136719 7.902344 9.621094 C 7.890625 9.605469 7.875 9.59375 7.859375 9.578125 C 7.847656 9.5625 7.832031 9.546875 7.816406 9.535156 C 7.300781 9.023438 6.648438 8.441406 6.203125 7.921875 C 6.035156 7.722656 5.953125 7.40625 6.125 7.277344 C 6.316406 7.132812 7.042969 7.023438 7.273438 6.949219 C 7.890625 6.753906 6.921875 4.464844 6.425781 4.578125 C 6.035156 4.667969 5.617188 4.683594 5.25 4.835938 C 5.1875 4.863281 5.140625 4.910156 5.082031 4.949219 C 3.777344 5.777344 3.609375 7.785156 4.882812 9.285156 C 5.367188 9.859375 5.875 10.410156 6.398438 10.953125 L 6.394531 10.957031 C 6.410156 10.96875 6.425781 10.984375 6.441406 10.996094 C 6.453125 11.011719 6.46875 11.027344 6.480469 11.042969 L 6.484375 11.039062 C 7.027344 11.5625 7.667969 12.332031 8.710938 13.027344 C 10.90625 14.492188 12.589844 14.082031 13.582031 13.539062 C 15.296875 12.597656 16.0625 10.582031 16.0625 9.003906 C 16.0625 4.792969 12.640625 1.375 8.4375 1.375 Z M 8.4375 1.375 "/>
  </g>
</svg>