<?xml version="1.0" encoding="UTF-8" standalone="yes"?>
<svg xmlns="http://www.w3.org/2000/svg" xmlns:xlink="http://www.w3.org/1999/xlink" width="24px" height="24px" viewBox="0 0 18 18" version="1.1">
  <g id="surface1">
    <path style=" stroke:none;fill-rule:nonzero;fill:rgb(0%,0%,0%);fill-opacity:1;" d="M 15.792969 0 L 16.976562 10.046875 L 15.648438 10.203125 L 14.59375 1.230469 L 3.40625 1.230469 L 2.351562 10.203125 L 1.023438 10.046875 L 2.207031 0 Z M 4.5 2.25 L 13.5 2.25 L 13.5 3.375 L 4.5 3.375 Z M 4.5 4.5 L 13.5 4.5 L 13.5 5.625 L 4.5 5.625 Z M 4.5 6.75 L 13.5 6.75 L 13.5 7.875 L 4.5 7.875 Z M 4.5 9 L 13.5 9 L 13.5 10.125 L 4.5 10.125 Z M 17.4375 11.25 L 0.5625 11.25 C 0.253906 11.25 0.078125 11.488281 0.179688 11.785156 L 2.070312 17.464844 C 2.171875 17.761719 2.503906 18 2.8125 18 L 15.1875 18 C 15.496094 18 15.828125 17.761719 15.929688 17.464844 L 17.820312 11.785156 C 17.921875 11.488281 17.746094 11.25 17.4375 11.25 Z M 11.25 13.5 L 6.75 13.5 L 6.75 12.375 L 11.25 12.375 Z M 11.25 13.5 "/>
  </g>
</svg>