<?xml version="1.0" encoding="UTF-8" standalone="yes"?>
<svg xmlns="http://www.w3.org/2000/svg" xmlns:xlink="http://www.w3.org/1999/xlink" width="24px" height="24px" viewBox="0 0 18 18" version="1.1">
  <g id="surface1">
    <path style=" stroke:none;fill-rule:nonzero;fill:rgb(0%,0%,0%);fill-opacity:1;" d="M 17.84375 17.054688 L 16.898438 17.054688 L 16.898438 16.105469 L 17.84375 16.105469 L 17.84375 15.160156 L 12.570312 15.160156 L 9.742188 12.699219 C 9.761719 12.65625 9.78125 12.609375 9.800781 12.566406 C 10.003906 12.027344 9.988281 11.546875 10.398438 11.519531 C 10.863281 11.488281 10.839844 10.8125 10.175781 10.832031 C 9.925781 10.839844 9.640625 10.9375 9.328125 11.398438 C 9.214844 11.570312 9.117188 11.816406 8.957031 12.015625 L 8.636719 11.738281 C 8.515625 11.632812 8.339844 11.632812 8.222656 11.738281 L 7.777344 12.125 C 7.53125 11.898438 7.425781 11.507812 7.425781 11.082031 C 7.425781 10.597656 7.691406 10.019531 8.175781 10.019531 C 8.660156 10.019531 9 10.117188 9 10.117188 L 9 7.894531 L 8.683594 7.894531 L 8.683594 0 L 8.054688 0 L 8.054688 7.894531 L 7.738281 7.894531 L 7.738281 9.359375 C 6.789062 9.417969 6.449219 10.148438 6.449219 11.195312 C 6.449219 11.800781 6.5625 12.429688 6.9375 12.855469 L 4.289062 15.160156 L 0.15625 15.160156 L 0.15625 16.105469 L 0.789062 16.105469 L 0.789062 17.054688 L 0.15625 17.054688 L 0.15625 18.003906 L 17.84375 18.003906 Z M 7.46875 13.226562 C 7.683594 13.316406 7.9375 13.367188 8.242188 13.367188 C 8.75 13.367188 9.085938 13.292969 9.316406 13.164062 L 11.609375 15.160156 L 5.25 15.160156 Z M 7.46875 13.226562 "/>
  </g>
</svg>