<?xml version="1.0" encoding="utf-8"?>
<!-- Generator: Adobe Illustrator 15.1.0, SVG Export Plug-In . SVG Version: 6.00 Build 0)  -->
<!DOCTYPE svg PUBLIC "-//W3C//DTD SVG 1.1//EN" "http://www.w3.org/Graphics/SVG/1.1/DTD/svg11.dtd">
<svg version="1.1" id="Layer_1" xmlns="http://www.w3.org/2000/svg" xmlns:xlink="http://www.w3.org/1999/xlink" x="0px" y="0px"
	 width="24px" height="24px" viewBox="0 0 24 24" enable-background="new 0 0 24 24" xml:space="preserve">
<path d="M4.434,3.516H2.22c-0.65,0-1.177,0.528-1.177,1.177v14.614c0,0.648,0.528,1.176,1.177,1.176h19.561v0.002h-0.002
	c0.65,0,1.178-0.529,1.178-1.178V4.693c0-0.649-0.527-1.177-1.178-1.177h-2.293 M17.643,3.516H6.278 M2.492,4.965H21.51v14.07H2.492
	V4.965z M12.488,8.456h-0.429c-0.378,0-0.741,0.289-0.826,0.658l-0.724,3.142L9.859,9.12C9.781,8.747,9.422,8.455,9.042,8.455H8.563
	c-0.382,0-0.739,0.294-0.813,0.669l-0.6,3.058L6.443,9.112C6.358,8.743,5.995,8.455,5.616,8.455H5.129
	c-0.203,0-0.383,0.084-0.495,0.232C4.523,8.833,4.49,9.03,4.545,9.227l1.594,5.619c0.102,0.359,0.473,0.641,0.847,0.641h0.305
	c0.382,0,0.74-0.293,0.817-0.666l0.688-3.331l0.688,3.331c0.076,0.373,0.435,0.666,0.816,0.666h0.345
	c0.374,0,0.745-0.281,0.846-0.641l1.58-5.619c0.057-0.196,0.023-0.393-0.088-0.54S12.691,8.456,12.488,8.456z M16.486,9.982
	c0.408,0,0.703,0.112,0.9,0.343c0.059,0.069,0.115,0.163,0.166,0.277c0.133,0.3,0.484,0.518,0.836,0.518h0.402
	c0.217,0,0.418-0.098,0.541-0.262c0.111-0.149,0.145-0.341,0.092-0.523c-0.082-0.272-0.215-0.546-0.4-0.817
	c-0.549-0.788-1.422-1.188-2.59-1.188c-0.877,0-1.613,0.296-2.186,0.881c-0.648,0.663-0.977,1.609-0.977,2.812
	c0,1.113,0.287,2.008,0.859,2.656c0.578,0.656,1.379,0.99,2.377,0.99c0.814,0,1.492-0.248,2.018-0.736
	c0.4-0.371,0.689-0.834,0.857-1.377c0.057-0.188,0.027-0.381-0.086-0.533c-0.117-0.158-0.305-0.25-0.52-0.25h-0.393
	c-0.354,0-0.705,0.23-0.838,0.545c-0.053,0.127-0.111,0.229-0.174,0.309c-0.199,0.254-0.488,0.377-0.885,0.377
	c-0.385,0-0.693-0.15-0.943-0.459c-0.26-0.32-0.393-0.824-0.393-1.499c0-0.681,0.129-1.207,0.379-1.565
	C15.766,10.145,16.078,9.982,16.486,9.982z"/>
</svg>
