<?xml version="1.0" encoding="UTF-8" standalone="yes"?>
<svg xmlns="http://www.w3.org/2000/svg" xmlns:xlink="http://www.w3.org/1999/xlink" width="24px" height="24px" viewBox="0 0 18 18" version="1.1">
  <g id="surface1">
    <path style=" stroke:none;fill-rule:nonzero;fill:rgb(0%,0%,0%);fill-opacity:1;" d="M 5.199219 1.003906 C 6.988281 1.003906 8.75 2.597656 9.722656 5.078125 C 8.835938 5.546875 8.019531 6.140625 7.351562 6.8125 C 4.886719 9.292969 4.289062 12.773438 5.875 15.058594 C 5.648438 15.097656 5.421875 15.121094 5.199219 15.121094 C 2.332031 15.121094 0 12.171875 0 8.542969 C 0 5.058594 2.269531 1.003906 5.199219 1.003906 Z M 6.566406 15.316406 C 4.867188 13.199219 5.457031 9.769531 7.875 7.335938 C 8.554688 6.652344 9.394531 6.046875 10.304688 5.585938 L 10.386719 5.542969 L 10.367188 5.503906 C 11.570312 4.90625 12.863281 4.578125 14.023438 4.578125 C 15.226562 4.578125 16.226562 4.9375 16.910156 5.621094 C 17.867188 6.570312 18.199219 8.097656 17.835938 9.921875 C 17.492188 11.671875 16.5625 13.414062 15.28125 14.699219 C 13.84375 16.144531 11.988281 16.976562 10.1875 16.976562 C 8.875 16.976562 7.734375 16.535156 6.894531 15.699219 C 6.808594 15.613281 6.722656 15.515625 6.640625 15.414062 Z M 6.566406 15.316406 "/>
  </g>
</svg>