<?xml version="1.0" encoding="utf-8"?>
<!-- Generator: Adobe Illustrator 15.1.0, SVG Export Plug-In . SVG Version: 6.00 Build 0)  -->
<!DOCTYPE svg PUBLIC "-//W3C//DTD SVG 1.1//EN" "http://www.w3.org/Graphics/SVG/1.1/DTD/svg11.dtd">
<svg version="1.1" id="Layer_1" xmlns="http://www.w3.org/2000/svg" xmlns:xlink="http://www.w3.org/1999/xlink" x="0px" y="0px"
	 width="24px" height="24px" viewBox="0 0 24 24" enable-background="new 0 0 24 24" xml:space="preserve">
<path d="M7.703,16.525c-1.112,0-2.014,1.136-2.014,2.534c0,1.402,0.901,2.535,2.014,2.535c1.113,0,2.014-1.133,2.014-2.535
	C9.717,17.661,8.816,16.525,7.703,16.525z M7.703,20.161c-0.483,0-0.875-0.491-0.875-1.102c0-0.607,0.392-1.101,0.875-1.101
	s0.875,0.493,0.875,1.101C8.579,19.67,8.187,20.161,7.703,20.161z M18.321,16.525c-1.113,0-2.015,1.136-2.015,2.534
	c0,1.402,0.901,2.535,2.015,2.535c1.111,0,2.012-1.133,2.012-2.535C20.333,17.661,19.433,16.525,18.321,16.525z M18.321,20.161
	c-0.484,0-0.876-0.491-0.876-1.102c0-0.607,0.392-1.101,0.876-1.101c0.482,0,0.874,0.493,0.874,1.101
	C19.195,19.67,18.804,20.161,18.321,20.161z M9.968,8.741c0,0.355-0.231,0.644-0.513,0.644H2.377c-0.282,0-0.513-0.289-0.513-0.644
	V8.353c0-0.354,0.231-0.645,0.513-0.645h7.078c0.282,0,0.513,0.29,0.513,0.645V8.741z M22.267,12.521
	c-0.739-0.241-1.162-0.394-1.451-1.098l-0.969-2.47c-0.291-0.706-1.044-1.283-1.675-1.283h-1.326c0,0-0.178,0.005-0.178-0.221
	c0-0.518,0-2.072,0-2.072c0-0.803-0.361-1.46-1.129-1.46H4.733c-1.1,0-1.622,0.658-1.622,1.46v1.299c0,0,0,0.385,0.297,0.385
	c1.511,0,6.046,0,6.046,0c0.566,0,1.026,0.58,1.026,1.291v0.389c0,0.711-0.46,1.291-1.026,1.291H3.409c0,0-0.297-0.032-0.297,0.372
	c0,0.2,0,0.335,0,0.446c0,0.355,0.386,0.355,0.386,0.355h4.07c0.566,0,1.026,0.579,1.026,1.291v0.388
	c0,0.711-0.46,1.291-1.026,1.291H3.563c0,0-0.451-0.01-0.451,0.44c0,0.784,0,3.14,0,3.14c0,0.804,0.522,1.458,1.16,1.458
	c0,0,0.481,0,0.641,0c0.146,0,0.167-0.102,0.167-0.153c0-1.818,1.177-3.302,2.624-3.302s2.624,1.483,2.624,3.302
	c0,0.052-0.012,0.153,0.1,0.153c1.271,0,5.171,0,5.171,0c0.103,0,0.099-0.109,0.099-0.153c0-1.818,1.178-3.302,2.625-3.302
	c1.445,0,2.623,1.483,2.623,3.302c0,0.052-0.001,0.153,0.063,0.153c0.582,0,1.304,0,1.304,0c0.631,0,1.147-0.649,1.147-1.441v-2.74
	C23.458,12.721,22.879,12.721,22.267,12.521z M20.084,12.391c0,0-2.436,0-3.264,0c-0.135,0-0.152-0.165-0.152-0.165V8.805
	c0,0-0.008-0.132,0.165-0.132c0.233,0,0.932,0,0.932,0c0.561,0,1.231,0.514,1.488,1.141l0.863,2.198
	c0.036,0.089,0.075,0.168,0.117,0.238C20.264,12.3,20.212,12.391,20.084,12.391z M8.082,12.884c0,0.354-0.231,0.647-0.513,0.647
	H1.055c-0.282,0-0.513-0.293-0.513-0.647v-0.388c0-0.354,0.231-0.646,0.513-0.646h6.514c0.282,0,0.513,0.292,0.513,0.646V12.884z"/>
</svg>
