<?xml version="1.0" encoding="utf-8"?>
<!-- Generator: Adobe Illustrator 15.1.0, SVG Export Plug-In . SVG Version: 6.00 Build 0)  -->
<!DOCTYPE svg PUBLIC "-//W3C//DTD SVG 1.1//EN" "http://www.w3.org/Graphics/SVG/1.1/DTD/svg11.dtd">
<svg version="1.1" id="Layer_1" xmlns="http://www.w3.org/2000/svg" xmlns:xlink="http://www.w3.org/1999/xlink" x="0px" y="0px"
	 width="24px" height="24px" viewBox="0 0 24 24" enable-background="new 0 0 24 24" xml:space="preserve">
<path d="M15.458,8.271c-3.943,0-7.14,1.565-7.14,3.495c0,0.314,0.086,0.619,0.245,0.909c0.143,0.868,0.597,3.69,0.64,4.745
	c0.052,1.272,0.817,2.393,2.064,3.044c-0.077,0.121-0.119,0.247-0.119,0.378c0,0.884,1.882,1.601,4.204,1.601
	c2.321,0,4.203-0.717,4.203-1.601c0-0.102-0.025-0.2-0.072-0.296c1.343-0.637,2.172-1.799,2.229-3.126
	c0.048-1.087,0.546-4.047,0.678-4.816c0.135-0.269,0.207-0.549,0.207-0.838C22.598,9.836,19.401,8.271,15.458,8.271z M15.353,14.282
	c-3.135,0-5.677-1.073-5.677-2.396c0-1.324,2.542-2.397,5.677-2.397s5.677,1.073,5.677,2.397
	C21.029,13.209,18.487,14.282,15.353,14.282z M16.375,10.278c0.303,0.052,0.393,0.206,0.222,0.42c0.008,0-0.394,0.47-0.692,0.707
	c-0.281,0.223-0.744,0.492-0.739,0.491c-0.225,0.138-0.419,0.027-0.423-0.247c-0.005-0.323,0.024-0.647,0.072-0.972
	c0.043-0.274,0.143-0.465,0.584-0.464C15.722,10.215,15.993,10.212,16.375,10.278z M16.689,13.471
	c-0.39,0.058-0.563-0.096-0.44-0.426c-0.009,0.003,0.293-0.735,0.564-1.146c0.255-0.386,0.715-0.901,0.708-0.899
	c0.221-0.258,0.503-0.201,0.618,0.134c0.136,0.394,0.23,0.804,0.303,1.219c0.057,0.354,0.012,0.629-0.53,0.805
	C17.517,13.286,17.185,13.397,16.689,13.471z M14.101,12.98c-0.02,0.274-0.15,0.37-0.356,0.235c0.001,0.007-0.456-0.311-0.695-0.558
	c-0.224-0.231-0.506-0.623-0.505-0.619c-0.143-0.188-0.061-0.372,0.185-0.399c0.289-0.033,0.582-0.036,0.876-0.021
	c0.249,0.015,0.43,0.087,0.468,0.482C14.1,12.39,14.126,12.633,14.101,12.98z M4.675,8.071L4.17,8.945
	C3.416,8.627,2.41,9.057,1.834,9.987c-0.618,1.002-0.5,2.195,0.265,2.663c0.765,0.47,1.887,0.037,2.506-0.965
	c0.066-0.107,0.12-0.219,0.17-0.328c0.003,0.219,0.024,0.442,0.086,0.668c0.304,1.123,1.258,1.827,2.13,1.571
	s1.331-1.374,1.027-2.496c-0.27-0.998-1.053-1.66-1.835-1.617L5.479,8.081C7.677,8.12,9.41,8.229,9.452,8.232l0.047-0.563
	C9.23,7.65,5.058,7.387,1.401,7.557l0.027-0.065 M5.479,8.082L5.238,8.207l0.074-0.127C5.368,8.08,5.424,8.081,5.479,8.082z
	 M2.182,11.88c-0.115-0.351-0.391-1.504,0.657-2.094c0,0-0.678,0.678-0.621,2.197C2.217,11.983,2.202,11.946,2.182,11.88z
	 M4.625,9.268l0.436-0.754l0.567,1.131c-0.272,0.148-0.487,0.393-0.635,0.693C4.989,9.921,4.866,9.543,4.625,9.268z M7.067,12.923
	C7.564,11.476,7.11,10.65,7.11,10.65c0.836,0.835,0.234,1.875,0.022,2.183C7.093,12.891,7.067,12.923,7.067,12.923z M4.716,7.318
	l0.196-0.026C4.713,7.318,5.051,3.271,5.051,3.271l0.071-0.095C4.916,4.409,5.171,6.67,5.243,7.247l0.354-0.047
	C5.696,7.024,5.772,6.856,5.851,6.69l0.157,0.123c4.123-1.219,3.654-4.66,3.654-4.66C7.972,2.351,6.936,2.931,6.3,3.593
	C5.98,2.138,4.957,1.369,4.957,1.369C1.922,5.14,4.716,7.318,4.716,7.318z M8.391,3.591l0.115-0.018
	C7.703,4.164,6.648,5.428,6.07,6.157c0.08-0.224,0.145-0.44,0.193-0.648C7.131,4.688,8.391,3.591,8.391,3.591z"/>
</svg>
