<?xml version="1.0" encoding="UTF-8" standalone="no"?>
<!-- Generator: Adobe Illustrator 16.0.4, SVG Export Plug-In . SVG Version: 6.00 Build 0)  -->

<svg
   xmlns:dc="http://purl.org/dc/elements/1.1/"
   xmlns:cc="http://creativecommons.org/ns#"
   xmlns:rdf="http://www.w3.org/1999/02/22-rdf-syntax-ns#"
   xmlns:svg="http://www.w3.org/2000/svg"
   xmlns="http://www.w3.org/2000/svg"
   xmlns:sodipodi="http://sodipodi.sourceforge.net/DTD/sodipodi-0.dtd"
   xmlns:inkscape="http://www.inkscape.org/namespaces/inkscape"
   version="1.1"
   id="Capa_1"
   x="0px"
   y="0px"
   width="24"
   height="24"
   viewBox="0 0 24.000001 24"
   enable-background="new 0 0 22.168 36.438"
   xml:space="preserve"
   inkscape:version="0.48.5 r10040"
   sodipodi:docname="train.svg"><metadata
     id="metadata3235"><rdf:RDF><cc:Work
         rdf:about=""><dc:format>image/svg+xml</dc:format><dc:type
           rdf:resource="http://purl.org/dc/dcmitype/StillImage" /></cc:Work></rdf:RDF></metadata><defs
     id="defs3233" /><sodipodi:namedview
     pagecolor="#ffffff"
     bordercolor="#666666"
     borderopacity="1"
     objecttolerance="10"
     gridtolerance="10"
     guidetolerance="10"
     inkscape:pageopacity="0"
     inkscape:pageshadow="2"
     inkscape:window-width="657"
     inkscape:window-height="480"
     id="namedview3231"
     showgrid="false"
     inkscape:zoom="6.4767551"
     inkscape:cx="11.084"
     inkscape:cy="18.219"
     inkscape:window-x="0"
     inkscape:window-y="27"
     inkscape:window-maximized="0"
     inkscape:current-layer="Capa_1" /><path
     d="m 16.946959,7.0174999 c -2.062,-2.302 -6.855,-2.295 -9.2589996,-0.593 -2.575,1.823 -1.397,5.2760001 -0.976,7.8370001 0.404,2.455 0.311,4.893 0.3,7.363 -0.001,0.25 -0.001,0.5 -0.001,0.75 0,0.01 0.816,0.043 0.861,0.045 l 8.3419996,-0.045 c 0.591,-0.072 0.72,0.115 0.854,-0.484 0.145,-0.637 -0.062,-1.541 -0.078,-2.199 -0.041,-1.494 -0.043,-2.996 0.139,-4.48 0.295,-2.481 1.734,-6.0520001 -0.182,-8.1940001 z M 7.6489594,12.6095 l -0.026,-4.7920001 8.4689996,-0.051 0.025,4.7940001 -8.4679996,0.049 z m 6.1399996,1.463 2.301,-0.014 0.01,1.062 -2.305,0.014 -0.006,-1.062 z m -5.8759996,0.033 2.2949996,-0.014 0.007,1.061 -2.2969996,0.012 -0.005,-1.059 z m 3.0779996,-12.1850001 0.015,2.505 -0.565,0.003 0.002,0.672 3.073,-0.017 -0.004,-0.669 -0.525,0.001 -0.014,-2.506 1.102,-0.006 v -0.323 l -4.2839996,0.024 0.002,0.32 1.1979996,-0.004 z m 1.9,-0.009 0.014,2.507 -1.813,0.007 -0.016,-2.506 1.815,-0.008 z"
     id="path3229"
     inkscape:connector-curvature="0"
     style="fill:#231f20" /></svg>