<?xml version="1.0" encoding="UTF-8" standalone="no"?>
<!-- Generator: Adobe Illustrator 17.0.0, SVG Export Plug-In . SVG Version: 6.00 Build 0)  -->

<svg
   xmlns:dc="http://purl.org/dc/elements/1.1/"
   xmlns:cc="http://creativecommons.org/ns#"
   xmlns:rdf="http://www.w3.org/1999/02/22-rdf-syntax-ns#"
   xmlns:svg="http://www.w3.org/2000/svg"
   xmlns="http://www.w3.org/2000/svg"
   xmlns:sodipodi="http://sodipodi.sourceforge.net/DTD/sodipodi-0.dtd"
   xmlns:inkscape="http://www.inkscape.org/namespaces/inkscape"
   version="1.1"
   id="Capa_1"
   x="0px"
   y="0px"
   width="24"
   height="24"
   viewBox="0 0 23.999999 24"
   enable-background="new 0 0 20.27 22.805"
   xml:space="preserve"
   inkscape:version="0.48.5 r10040"
   sodipodi:docname="tree.svg"><metadata
     id="metadata3244"><rdf:RDF><cc:Work
         rdf:about=""><dc:format>image/svg+xml</dc:format><dc:type
           rdf:resource="http://purl.org/dc/dcmitype/StillImage" /></cc:Work></rdf:RDF></metadata><defs
     id="defs3242" /><sodipodi:namedview
     pagecolor="#ffffff"
     bordercolor="#666666"
     borderopacity="1"
     objecttolerance="10"
     gridtolerance="10"
     guidetolerance="10"
     inkscape:pageopacity="0"
     inkscape:pageshadow="2"
     inkscape:window-width="657"
     inkscape:window-height="480"
     id="namedview3240"
     showgrid="false"
     inkscape:zoom="10.348608"
     inkscape:cx="10.135"
     inkscape:cy="11.4025"
     inkscape:window-x="0"
     inkscape:window-y="27"
     inkscape:window-maximized="0"
     inkscape:current-layer="Capa_1" /><path
     d="m 12.7535,22.273 -0.03,-5.519 1.918,-0.01 -1.329,1.745 3.859999,-0.02 0.02,3.618 0.634,-0.003 -0.019,-3.619 3.858,-0.02 -2.548,-2.975 1.406,-0.008 -2.348,-2.746 1.455,-0.007 -1.93,-2.256 0.893,-0.004 L 17.1105,8.7139998 15.7985,10.439 l -2.483,-2.9010002 2.33,-0.014 -3.093,-3.613 1.432,-0.009 -2.38,-2.778 -2.1320005,2.802 1.4510005,-0.007 -2.7780005,3.644 2.2890005,-0.011 -2.9410005,3.8650001 -0.772,-0.903 0.893,-0.005 -1.483,-1.7350001 -1.332,1.7500001 0.906,-0.005 -1.731,2.276 1.429,-0.007 -2.106,2.766 1.325,-0.007 -2.288,3.003 3.86,-0.021 0.02,3.617 0.636,-0.003 -0.02,-3.617 L 10.6855,18.505 9.2054995,16.774 11.7065,16.761 l 0.03,5.518 -6.0760005,0.032 0.004,0.565 13.1669995,-0.072 -0.003,-0.563 c -0.001,0.001 -6.074999,0.032 -6.074999,0.032 z m 2.743,-9.541 0.885,-0.004 -0.418,0.549 c 0,0 -0.467,-0.545 -0.467,-0.545 z m 1.187,-2.27 -0.408,0.536 -0.455,-0.531 c 0,-0.001 0.863,-0.005 0.863,-0.005 z m -1.127,1.483 -0.345,0.455 -0.384,-0.45 0.728999,-0.005 z m -6.3750005,0.034 -0.568,0.746 -0.633,-0.739 c 0,0 1.201,-0.007 1.201,-0.007 z m -1.983,0.799 1.381,-0.009 -0.654,0.859 -0.727,-0.85 z"
     id="path3238"
     inkscape:connector-curvature="0"
     style="fill:#231f20" /></svg>