<?xml version="1.0" encoding="UTF-8" standalone="yes"?>
<svg xmlns="http://www.w3.org/2000/svg" xmlns:xlink="http://www.w3.org/1999/xlink" width="24px" height="24px" viewBox="0 0 18 18" version="1.1">
  <g id="surface1">
    <path style=" stroke:none;fill-rule:nonzero;fill:rgb(0.392157%,0%,0.784314%);fill-opacity:1;" d="M 8.949219 0.597656 C 13.550781 0.597656 17.300781 4.34375 17.300781 8.945312 L 17.300781 17.300781 L 0.597656 17.300781 L 0.597656 8.945312 C 0.597656 4.34375 4.34375 0.597656 8.949219 0.597656 M 8.949219 0 C 4.007812 0 0 4.003906 0 8.945312 L 0 17.894531 L 17.894531 17.894531 L 17.894531 8.945312 C 17.894531 4.003906 13.890625 0 8.949219 0 Z M 8.949219 1.789062 C 4.996094 1.789062 1.789062 4.996094 1.789062 8.945312 L 1.789062 16.105469 L 7.160156 10.738281 L 7.160156 8.949219 C 7.160156 7.960938 7.960938 7.15625 8.949219 7.15625 C 9.9375 7.15625 10.738281 7.960938 10.738281 8.949219 L 10.738281 10.738281 L 16.105469 16.105469 L 16.105469 8.945312 C 16.105469 4.996094 12.898438 1.789062 8.949219 1.789062 Z M 8.949219 1.789062 "/>
  </g>
</svg>