<?xml version="1.0" encoding="UTF-8" standalone="no"?>
<!-- Generator: Adobe Illustrator 16.0.0, SVG Export Plug-In . SVG Version: 6.00 Build 0)  -->

<svg
   xmlns:dc="http://purl.org/dc/elements/1.1/"
   xmlns:cc="http://creativecommons.org/ns#"
   xmlns:rdf="http://www.w3.org/1999/02/22-rdf-syntax-ns#"
   xmlns:svg="http://www.w3.org/2000/svg"
   xmlns="http://www.w3.org/2000/svg"
   xmlns:sodipodi="http://sodipodi.sourceforge.net/DTD/sodipodi-0.dtd"
   xmlns:inkscape="http://www.inkscape.org/namespaces/inkscape"
   version="1.1"
   id="Capa_1"
   x="0px"
   y="0px"
   width="24"
   height="24"
   viewBox="0 0 24 24"
   xml:space="preserve"
   inkscape:version="0.48.5 r10040"
   sodipodi:docname="tv_policabli.svg"><metadata
     id="metadata3383"><rdf:RDF><cc:Work
         rdf:about=""><dc:format>image/svg+xml</dc:format><dc:type
           rdf:resource="http://purl.org/dc/dcmitype/StillImage" /><dc:title></dc:title></cc:Work></rdf:RDF></metadata><defs
     id="defs3381" /><sodipodi:namedview
     pagecolor="#ffffff"
     bordercolor="#666666"
     borderopacity="1"
     objecttolerance="10"
     gridtolerance="10"
     guidetolerance="10"
     inkscape:pageopacity="0"
     inkscape:pageshadow="2"
     inkscape:window-width="657"
     inkscape:window-height="480"
     id="namedview3379"
     showgrid="false"
     inkscape:zoom="4.7059444"
     inkscape:cx="14.295115"
     inkscape:cy="17.328978"
     inkscape:window-x="0"
     inkscape:window-y="27"
     inkscape:window-maximized="0"
     inkscape:current-layer="Capa_1" /><g
     id="g3338"
     transform="matrix(0.03874511,0,0,0.03874511,1.0084966,1.008516)"><g
       id="Layer_1_56_"><g
         id="g3341"><path
           d="m 566.1,139.613 c 0,-43.35 -34.425,-77.775 -77.774,-77.775 H 77.775 C 34.425,61.838 0,96.263 0,139.613 v 177.225 c 0,43.35 34.425,77.775 77.775,77.775 h 150.45 v 36.975 h -91.8 c -7.65,0 -14.025,6.375 -14.025,14.025 v 45.9 c 0,7.648 6.375,14.023 14.025,14.023 h 293.25 c 7.65,0 14.025,-6.375 14.025,-14.023 v -45.9 c 0,-7.65 -6.375,-14.025 -14.025,-14.025 H 339.15 V 394.613 H 489.6 c 43.351,0 77.775,-34.426 77.775,-77.775 l -1.275,-177.225 0,0 z m -48.451,177.225 c 0,15.301 -12.75,29.324 -29.324,29.324 H 77.775 c -15.3,0 -29.325,-12.75 -29.325,-29.324 V 139.613 c 0,-15.3 12.75,-29.325 29.325,-29.325 h 410.55 c 15.3,0 29.324,12.75 29.324,29.325 v 177.225 l 0,0 z"
           id="path3343"
           inkscape:connector-curvature="0" /><path
           d="m 263.925,163.838 c 0,-8.925 -6.375,-15.3 -15.3,-15.3 H 155.55 c -8.925,0 -15.3,6.375 -15.3,15.3 0,8.925 6.375,15.3 15.3,15.3 h 28.05 v 110.924 c 0,10.201 7.65,17.85 17.85,17.85 10.2,0 17.85,-7.648 17.85,-17.85 V 179.138 h 28.05 c 10.2,-1.275 16.575,-7.65 16.575,-15.3 z"
           id="path3345"
           inkscape:connector-curvature="0" /><path
           d="m 399.075,148.538 c -7.65,0 -15.301,5.1 -17.851,12.75 l -15.3,54.825 c -5.1,17.85 -10.2,36.975 -14.025,56.101 h -1.274 C 346.8,253.089 341.7,233.964 336.6,214.839 l -15.3,-53.55 c -2.55,-7.65 -10.2,-14.025 -17.85,-14.025 -6.375,0 -11.476,2.55 -15.301,7.65 -3.824,5.1 -5.1,11.475 -2.55,16.575 l 39.525,123.674 c 2.55,7.65 8.925,12.75 16.575,12.75 h 16.574 c 7.65,0 14.025,-5.1 16.575,-12.75 l 42.075,-123.674 c 1.275,-5.1 1.275,-11.475 -2.55,-16.575 -3.823,-3.826 -8.923,-6.376 -15.298,-6.376 z"
           id="path3347"
           inkscape:connector-curvature="0" /></g></g></g><g
     id="g3349"
     transform="translate(0,-543.375)" /><g
     id="g3351"
     transform="translate(0,-543.375)" /><g
     id="g3353"
     transform="translate(0,-543.375)" /><g
     id="g3355"
     transform="translate(0,-543.375)" /><g
     id="g3357"
     transform="translate(0,-543.375)" /><g
     id="g3359"
     transform="translate(0,-543.375)" /><g
     id="g3361"
     transform="translate(0,-543.375)" /><g
     id="g3363"
     transform="translate(0,-543.375)" /><g
     id="g3365"
     transform="translate(0,-543.375)" /><g
     id="g3367"
     transform="translate(0,-543.375)" /><g
     id="g3369"
     transform="translate(0,-543.375)" /><g
     id="g3371"
     transform="translate(0,-543.375)" /><g
     id="g3373"
     transform="translate(0,-543.375)" /><g
     id="g3375"
     transform="translate(0,-543.375)" /><g
     id="g3377"
     transform="translate(0,-543.375)" /></svg>