<?xml version="1.0" encoding="utf-8"?>
<!-- Generator: Adobe Illustrator 15.1.0, SVG Export Plug-In . SVG Version: 6.00 Build 0)  -->
<!DOCTYPE svg PUBLIC "-//W3C//DTD SVG 1.1//EN" "http://www.w3.org/Graphics/SVG/1.1/DTD/svg11.dtd">
<svg version="1.1"
	 id="Layer_1" xmlns:svg="http://www.w3.org/2000/svg" xmlns:inkscape="http://www.inkscape.org/namespaces/inkscape" xmlns:sodipodi="http://sodipodi.sourceforge.net/DTD/sodipodi-0.dtd" xmlns:rdf="http://www.w3.org/1999/02/22-rdf-syntax-ns#" xmlns:dc="http://purl.org/dc/elements/1.1/" xmlns:cc="http://creativecommons.org/ns#" inkscape:version="0.48.5 r10040" sodipodi:docname="Payamnoor-Logo.svg"
	 xmlns="http://www.w3.org/2000/svg" xmlns:xlink="http://www.w3.org/1999/xlink" x="0px" y="0px" width="24px" height="24px"
	 viewBox="0 0 24 24" enable-background="new 0 0 24 24" xml:space="preserve">
<path d="M11.643,6.906c-0.047-0.577-0.106-1.247-0.231-1.9c-0.056-0.245-0.125-0.499-0.313-0.658
	c-0.053-0.046-0.122-0.071-0.197-0.073c-0.167-0.004-0.327,0.1-0.376,0.242c-0.102,0.264-0.055,0.554-0.009,0.834l0.004,0.027
	c0.213,1.275,0.73,3.424,0.943,4.289l0.014,0.057c0.071,0.291,0.219,0.442,0.441,0.447c0.104,0.003,0.304-0.078,0.4-0.399
	c0.069-0.232,0.606-2.729,0.778-4.163c0.006-0.049,0.011-0.1,0.016-0.151c0.025-0.243,0.054-0.494,0.042-0.739
	c-0.015-0.191-0.047-0.407-0.193-0.541c-0.056-0.048-0.129-0.075-0.215-0.078c-0.141-0.003-0.28,0.067-0.345,0.177
	c-0.158,0.248-0.18,0.547-0.203,0.837c-0.005,0.069-0.01,0.138-0.018,0.207c-0.102,1.48-0.11,3.055-0.11,4.415
	c0,0.08,0.002,0.321-0.152,0.329h-0.01c-0.036-0.001-0.067-0.017-0.09-0.045c-0.063-0.074-0.056-0.23-0.05-0.278
	C11.743,8.627,11.703,7.699,11.643,6.906z M10.97,10.065c0.237,0.35,0.539,0.524,0.919,0.534c0.351,0.01,0.622-0.141,0.811-0.447
	c0.193-0.317,1.558-2.827,2.129-4.253l0.023-0.06c0.111-0.299,0.228-0.607,0.142-0.908c-0.045-0.158-0.202-0.232-0.341-0.236
	c-0.101-0.003-0.19,0.028-0.258,0.088c-0.22,0.187-0.325,0.462-0.428,0.729c-0.02,0.051-0.039,0.102-0.06,0.152
	c-0.392,1.052-0.893,2.751-1.162,3.663c-0.079,0.274-0.139,0.474-0.167,0.56c-0.12,0.374-0.388,0.61-0.682,0.602
	c-0.228-0.006-0.533-0.116-0.701-0.604c-0.021-0.058-0.062-0.186-0.12-0.363c-0.237-0.74-0.794-2.469-1.235-3.522
	C9.817,5.946,9.793,5.891,9.769,5.837c-0.112-0.26-0.23-0.528-0.418-0.743c-0.118-0.13-0.237-0.197-0.354-0.2
	c-0.192,0.002-0.37,0.164-0.38,0.346C8.592,5.518,8.711,5.781,8.826,6.036c0.016,0.035,0.032,0.07,0.047,0.105
	C9.494,7.474,10.702,9.673,10.97,10.065z M7.384,6.989c0.804,0.963,2.152,2.332,2.801,2.988c0.125,0.127,0.224,0.228,0.286,0.292
	c0.471,0.487,0.916,0.711,1.439,0.725c0.591,0.017,0.931-0.288,1.314-0.688l0.022-0.024c1.737-1.818,2.587-2.85,2.995-3.395
	l0.03-0.043c0.186-0.259,0.378-0.528,0.376-0.84c-0.006-0.191-0.196-0.324-0.371-0.329c-0.054-0.001-0.103,0.007-0.146,0.027
	c-0.265,0.112-0.442,0.352-0.611,0.583l-0.043,0.057c-0.667,0.921-1.603,2.417-2.161,3.313c-0.183,0.292-0.326,0.522-0.396,0.629
	c-0.265,0.403-0.606,0.601-1.013,0.59c-0.438-0.012-0.875-0.239-1.142-0.591c-0.092-0.123-0.305-0.454-0.574-0.874
	c-0.506-0.79-1.273-1.986-1.855-2.736C8.296,6.626,8.258,6.579,8.22,6.53C8.045,6.313,7.865,6.086,7.634,5.925
	C7.517,5.844,7.406,5.802,7.308,5.798C7.268,5.797,7.23,5.803,7.194,5.814C7.02,5.878,6.906,6.068,6.942,6.239
	c0.05,0.275,0.234,0.5,0.414,0.718L7.384,6.989L7.384,6.989z M6,8.194c0.827,0.574,1.709,1.098,2.562,1.604l0.133,0.081
	c0.804,0.515,1.519,0.968,1.779,1.126c0.215,0.13,0.782,0.436,1.417,0.452c0.509,0.015,0.672-0.062,1.212-0.426
	c0.151-0.102,0.468-0.296,0.869-0.541c0.862-0.528,2.164-1.326,3.018-1.946L17.1,8.46c0.252-0.189,0.514-0.384,0.74-0.605
	c0.141-0.144,0.275-0.307,0.295-0.498c0.012-0.086-0.019-0.174-0.084-0.249c-0.087-0.1-0.222-0.153-0.341-0.134
	c-0.262,0.035-0.483,0.198-0.706,0.376c-0.989,0.797-2.251,1.977-3.005,2.683c-0.182,0.17-0.333,0.311-0.443,0.412
	c-0.56,0.515-0.979,0.851-1.67,0.832c-0.769-0.021-1.265-0.413-1.748-0.846c-0.062-0.056-0.14-0.126-0.231-0.209
	C9.279,9.651,7.971,8.466,7,7.75C6.946,7.713,6.891,7.675,6.835,7.634C6.611,7.475,6.379,7.311,6.121,7.208
	c-0.104-0.039-0.195-0.06-0.276-0.062c-0.071-0.002-0.136,0.01-0.192,0.037C5.48,7.274,5.403,7.512,5.494,7.682
	C5.604,7.907,5.813,8.064,6,8.194L6,8.194z M13.468,13.028c0.086,0.003,0.194,0.065,0.236,0.1c0.984,0.534,1.817,0.963,2.55,1.313
	c0.653,0.308,1.206,0.555,1.784,0.754c0.144,0.046,0.313,0.094,0.476,0.099c0.094,0.003,0.178-0.009,0.257-0.036
	c0.101-0.034,0.177-0.121,0.208-0.237c0.031-0.123,0.006-0.253-0.07-0.338c-0.182-0.22-0.461-0.325-0.73-0.427l-0.023-0.008
	c-1.277-0.478-3.575-1.151-4.248-1.348l-0.04-0.011c-0.086-0.025-0.163-0.039-0.233-0.041c-0.171-0.006-0.297,0.058-0.379,0.192
	c-0.055,0.087-0.086,0.3,0.148,0.542c0.17,0.177,2.099,1.89,3.262,2.751c0.041,0.026,0.081,0.057,0.122,0.086
	c0.2,0.144,0.408,0.295,0.631,0.408c0.123,0.061,0.271,0.121,0.418,0.125c0.052,0.003,0.105-0.004,0.152-0.019
	c0.092-0.031,0.17-0.11,0.21-0.213c0.042-0.108,0.035-0.228-0.017-0.317c-0.14-0.257-0.389-0.427-0.632-0.591
	c-0.058-0.039-0.117-0.078-0.172-0.118c-1.246-0.827-2.624-1.625-3.819-2.307c-0.069-0.04-0.282-0.158-0.211-0.295
	C13.359,13.069,13.394,13.026,13.468,13.028L13.468,13.028z M13.866,12.567c0.06,0.012,0.189,0.04,0.373,0.08
	c0.765,0.167,2.563,0.558,3.711,0.708c0.058,0.007,0.116,0.014,0.177,0.021c0.155,0.018,0.317,0.036,0.474,0.041
	c0.146,0.004,0.272-0.005,0.389-0.026c0.173-0.037,0.293-0.105,0.354-0.204c0.093-0.164,0.039-0.396-0.116-0.497
	c-0.23-0.16-0.521-0.191-0.802-0.219c-0.038-0.006-0.079-0.008-0.117-0.013c-0.772-0.072-1.933-0.134-3.099-0.166
	c-0.667-0.019-1.2-0.022-1.39-0.01c-0.426,0.029-0.729,0.199-0.929,0.519c-0.183,0.295-0.187,0.603-0.012,0.916
	c0.181,0.325,1.701,2.749,2.667,3.952l0.04,0.049c0.207,0.246,0.419,0.498,0.728,0.578c0.119,0.03,0.251-0.02,0.342-0.127
	c0.077-0.092,0.108-0.208,0.086-0.313c-0.054-0.28-0.243-0.51-0.426-0.729c-0.035-0.043-0.071-0.086-0.104-0.127
	c-0.729-0.865-1.969-2.144-2.635-2.832c-0.199-0.205-0.342-0.353-0.404-0.42c-0.269-0.29-0.341-0.637-0.188-0.884
	C13.157,12.589,13.457,12.486,13.866,12.567L13.866,12.567z M13.732,11.999c0.155-0.018,0.553-0.034,1.058-0.054
	c1.003-0.04,2.375-0.093,3.322-0.215c0.06-0.009,0.121-0.018,0.184-0.026c0.278-0.041,0.565-0.082,0.821-0.198
	c0.184-0.085,0.291-0.194,0.316-0.321c0.032-0.181-0.078-0.374-0.245-0.428c-0.097-0.035-0.2-0.053-0.316-0.056
	c-0.17-0.005-0.347,0.022-0.516,0.049l-0.047,0.007c-1.247,0.206-3.119,0.672-4.018,0.896c-0.177,0.044-0.314,0.079-0.402,0.099
	c-0.661,0.159-1.08,0.427-1.355,0.868c-0.31,0.498-0.212,0.94-0.052,1.468l0.009,0.032c0.729,2.397,1.209,3.64,1.482,4.26
	l0.023,0.049c0.134,0.289,0.273,0.587,0.55,0.741c0.041,0.021,0.085,0.034,0.135,0.036l0,0c0.188,0.004,0.368-0.147,0.388-0.327
	c0.033-0.283-0.089-0.554-0.206-0.815l-0.029-0.064c-0.477-1.034-1.324-2.585-1.83-3.515c-0.163-0.296-0.291-0.533-0.35-0.646
	c-0.22-0.428-0.225-0.818-0.01-1.161C12.872,12.311,13.29,12.049,13.732,11.999L13.732,11.999z M13.914,11.39
	c0.082-0.025,0.184-0.057,0.304-0.093c0.813-0.252,2.504-0.776,3.615-1.247c0.059-0.028,0.12-0.055,0.183-0.082
	c0.252-0.112,0.514-0.228,0.733-0.398c0.161-0.128,0.245-0.255,0.255-0.389c0.007-0.193-0.164-0.377-0.357-0.385
	c-0.014-0.001-0.026-0.001-0.039-0.002c-0.237-0.007-0.466,0.087-0.662,0.178c-0.911,0.417-1.805,0.904-2.67,1.375l-0.156,0.084
	c-0.851,0.428-1.604,0.812-1.876,0.957c-0.222,0.118-0.773,0.451-1.104,0.985c-0.268,0.427-0.283,0.606-0.232,1.25
	c0.015,0.181,0.025,0.548,0.041,1.016c0.032,1.002,0.082,2.513,0.199,3.553l0.017,0.129c0.039,0.313,0.081,0.636,0.161,0.943
	c0.057,0.189,0.132,0.385,0.29,0.501c0.052,0.037,0.111,0.058,0.18,0.06c0.157,0.005,0.316-0.095,0.369-0.23
	c0.099-0.241,0.067-0.514,0.021-0.793c-0.203-1.241-0.606-2.909-0.848-3.904c-0.059-0.244-0.109-0.447-0.142-0.592
	c-0.171-0.736-0.257-1.265,0.104-1.845C12.701,11.815,13.293,11.586,13.914,11.39z M9.926,13.391c-1.184,0.691-2.55,1.5-3.793,2.347
	c-0.054,0.038-0.111,0.078-0.169,0.118c-0.241,0.167-0.49,0.339-0.625,0.598c-0.052,0.091-0.057,0.21-0.015,0.316
	c0.042,0.104,0.12,0.181,0.214,0.213C5.575,16.993,5.616,17,5.656,17c0.157,0.004,0.317-0.064,0.452-0.13
	c0.218-0.116,0.425-0.267,0.624-0.413c0.042-0.031,0.082-0.062,0.123-0.091c1.154-0.87,3.06-2.604,3.229-2.781
	c0.23-0.245,0.198-0.457,0.142-0.543c-0.078-0.124-0.19-0.187-0.342-0.189c-0.08-0.003-0.171,0.013-0.272,0.043l-0.028,0.009
	c-0.671,0.201-2.958,0.897-4.244,1.393l-0.024,0.009c-0.268,0.104-0.546,0.212-0.724,0.432c-0.076,0.088-0.101,0.217-0.066,0.34
	c0.032,0.116,0.109,0.202,0.21,0.236c0.063,0.021,0.128,0.032,0.201,0.033c0.18,0.006,0.361-0.048,0.532-0.103
	c0.634-0.226,1.248-0.518,1.773-0.772c0.716-0.351,1.544-0.789,2.534-1.339c0.034-0.027,0.151-0.103,0.247-0.101
	c0.05,0,0.088,0.023,0.109,0.063C10.205,13.229,9.996,13.35,9.926,13.391L9.926,13.391z M9.917,14.171
	c-0.659,0.695-1.885,1.987-2.603,2.86c-0.033,0.043-0.067,0.084-0.103,0.127c-0.18,0.223-0.366,0.452-0.416,0.733
	c-0.022,0.101,0.007,0.209,0.079,0.3c0.091,0.115,0.228,0.167,0.354,0.134c0.306-0.081,0.515-0.337,0.717-0.582l0.043-0.054
	c0.956-1.217,2.443-3.65,2.62-3.975c0.171-0.315,0.164-0.625-0.023-0.916c-0.204-0.319-0.509-0.485-0.935-0.509
	c-0.019-0.001-0.04-0.002-0.065-0.003c-0.606-0.017-2.985,0.074-4.423,0.223c-0.037,0.005-0.076,0.009-0.115,0.013
	c-0.281,0.034-0.571,0.065-0.798,0.228c-0.156,0.103-0.206,0.336-0.11,0.5c0.061,0.097,0.181,0.166,0.355,0.199
	c0.076,0.014,0.155,0.021,0.241,0.023c0.205,0.006,0.416-0.021,0.619-0.047c0.06-0.007,0.12-0.015,0.178-0.021
	c1.144-0.162,2.938-0.571,3.704-0.746c0.182-0.041,0.312-0.07,0.37-0.082c0.104-0.021,0.204-0.032,0.294-0.029
	c0.263,0.007,0.46,0.113,0.59,0.315c0.157,0.246,0.088,0.594-0.177,0.886C10.255,13.815,10.113,13.965,9.917,14.171L9.917,14.171z
	 M10.493,14.486c-0.495,0.933-1.325,2.493-1.789,3.53l-0.029,0.067c-0.114,0.263-0.231,0.533-0.195,0.814
	c0.02,0.17,0.189,0.318,0.371,0.322c0.056,0.003,0.109-0.011,0.156-0.036c0.273-0.157,0.408-0.457,0.541-0.746l0.023-0.052
	c0.386-0.9,0.867-2.334,1.428-4.262l0.013-0.043c0.153-0.529,0.246-0.973-0.07-1.467c-0.28-0.438-0.701-0.702-1.366-0.854
	c-0.089-0.02-0.231-0.054-0.412-0.098c-0.901-0.214-2.775-0.661-4.02-0.854l-0.045-0.006c-0.138-0.021-0.28-0.042-0.419-0.044
	c-0.159-0.005-0.294,0.014-0.412,0.058c-0.169,0.057-0.277,0.251-0.242,0.433c0.027,0.125,0.135,0.232,0.32,0.317
	c0.256,0.113,0.543,0.151,0.821,0.187c0.063,0.009,0.126,0.018,0.188,0.027c0.949,0.111,2.379,0.153,3.327,0.181
	c0.503,0.015,0.9,0.026,1.055,0.043c0.443,0.046,0.863,0.303,1.096,0.668c0.217,0.34,0.218,0.731,0.002,1.162
	C10.778,13.948,10.652,14.187,10.493,14.486z M11.162,14.896c-0.229,0.996-0.612,2.665-0.8,3.904
	c-0.043,0.292-0.071,0.555,0.031,0.791c0.053,0.132,0.195,0.225,0.349,0.228c0.077,0.003,0.147-0.018,0.202-0.06
	c0.156-0.117,0.229-0.313,0.285-0.508c0.077-0.306,0.113-0.629,0.149-0.939l0.015-0.134c0.106-1.038,0.137-2.551,0.159-3.553
	c0.009-0.467,0.017-0.834,0.028-1.016c0.042-0.643,0.026-0.821-0.246-1.247c-0.338-0.53-0.894-0.858-1.117-0.973
	c-0.276-0.145-1.051-0.53-1.885-0.937l-0.141-0.075C7.315,9.913,6.409,9.43,5.487,9.02c-0.18-0.08-0.391-0.166-0.609-0.171
	c-0.031-0.001-0.063,0-0.092,0.002C4.589,8.86,4.422,9.047,4.431,9.243c0.012,0.128,0.098,0.255,0.261,0.384
	c0.221,0.168,0.485,0.281,0.741,0.391c0.062,0.026,0.122,0.052,0.182,0.079c1.118,0.462,2.82,0.969,3.637,1.213
	c0.116,0.034,0.216,0.064,0.295,0.088c0.624,0.189,1.217,0.413,1.626,1.054c0.369,0.577,0.29,1.104,0.126,1.843
	C11.267,14.441,11.22,14.648,11.162,14.896L11.162,14.896z M11.227,12.182l0,0.005c-0.002,0.019-0.004,0.038-0.006,0.058
	c-0.003,0.044-0.005,0.08-0.005,0.105c0,0.052,0.009,0.106,0.029,0.16c0.025,0.075,0.059,0.114,0.101,0.114
	c0.027,0,0.05-0.02,0.07-0.057c0.016-0.027,0.03-0.073,0.041-0.131c0.005-0.045,0.011-0.09,0.019-0.135
	c0.016-0.081,0.035-0.133,0.055-0.155c0,0.002,0,0.003,0.001,0.005v0.018c0,0.022-0.003,0.054-0.011,0.095
	c-0.008,0.043-0.012,0.075-0.012,0.095c0,0.027,0.002,0.055,0.005,0.082c0.014,0.112,0.065,0.174,0.153,0.185l0,0
	c0.061,0,0.113-0.025,0.153-0.076c0.029-0.038,0.048-0.081,0.053-0.129c0.003,0.009,0.005,0.016,0.007,0.022
	c0.029,0.092,0.089,0.14,0.179,0.14c0.049,0,0.088-0.02,0.115-0.062c0.027-0.039,0.041-0.085,0.041-0.136
	c0-0.068-0.013-0.136-0.042-0.202c-0.026-0.06-0.032-0.078-0.034-0.083c-0.004-0.013-0.006-0.022-0.009-0.028l0.049,0.041v-0.045
	l-0.113-0.194l-0.039,0.123l0.007,0.05c0.003,0.022,0.008,0.042,0.011,0.057c0.019,0.091,0.049,0.185,0.091,0.278
	c-0.015,0.029-0.033,0.044-0.078,0.053h-0.018c-0.029,0-0.059-0.017-0.088-0.053c-0.021-0.03-0.024-0.066-0.036-0.115
	c-0.008-0.023-0.016-0.066-0.024-0.125c-0.005-0.043-0.005-0.05-0.014-0.092c-0.009-0.042-0.028-0.083-0.057-0.12l-0.007-0.009
	l-0.016,0.123l0.027,0.227c0.002,0.011,0.004,0.021,0.004,0.03c0,0.02-0.004,0.04-0.012,0.057c-0.032,0.084-0.068,0.102-0.125,0.102
	c-0.004,0-0.009-0.001-0.014-0.001c-0.078-0.009-0.086-0.036-0.086-0.138c0-0.015-0.003-0.035,0.008-0.112
	c0.004-0.039,0.01-0.072,0.014-0.097l-0.015-0.111l-0.007,0.003c-0.059,0.022-0.116,0.065-0.145,0.157
	c-0.011,0.032-0.028,0.109-0.048,0.228c-0.012,0.064-0.048,0.074-0.062,0.074c-0.07,0-0.073-0.055-0.083-0.25v-0.033L11.227,12.182
	L11.227,12.182z M11.747,11.608l-0.019,0.032c-0.023,0.039-0.021,0.085-0.021,0.085s0.002,0.023,0.002,0.028
	c0.01,0.066,0.034,0.078,0.053,0.075c0.031-0.004,0.051-0.024,0.057-0.058c0.015,0.022,0.03,0.032,0.046,0.029
	c0.048-0.006,0.051-0.049,0.046-0.084s-0.019-0.075-0.042-0.118l-0.006-0.011l-0.015,0.067l0.003,0.005
	c0.015,0.022,0.023,0.042,0.025,0.056c0.002,0.017-0.001,0.024-0.011,0.026l-0.002,0.001c-0.009,0.006-0.02-0.002-0.032-0.024
	l-0.015-0.059c-0.007-0.017-0.016-0.032-0.025-0.045l-0.005-0.008l-0.018,0.06l0.004,0.004c0.011,0.011,0.02,0.033,0.024,0.064
	c0.001,0.009,0.005,0.033-0.039,0.039c-0.004,0-0.017,0.002-0.022-0.042c-0.003-0.02-0.003-0.042-0.002-0.066v-0.002
	c0-0.004,0-0.01,0.001-0.014L11.747,11.608L11.747,11.608z M11.711,11.621l-0.089-0.268l-0.043,0.125v0.001
	c0,0.013,0.002,0.027,0.004,0.043c0.002,0.021,0.004,0.042,0.004,0.06l0.06,0.747c0,0.012,0.002,0.023,0.003,0.035
	c0.003,0.042,0.011,0.088,0.008,0.143l-0.001,0.017l0.021-0.03c0.022-0.041,0.034-0.079,0.038-0.149
	c0.001-0.019,0.001-0.039,0.001-0.059l-0.05-0.676l0.043,0.06L11.711,11.621z"/>
</svg>
