<?xml version="1.0" encoding="utf-8"?>
<!-- Generator: Adobe Illustrator 15.1.0, SVG Export Plug-In . SVG Version: 6.00 Build 0)  -->
<!DOCTYPE svg PUBLIC "-//W3C//DTD SVG 1.1//EN" "http://www.w3.org/Graphics/SVG/1.1/DTD/svg11.dtd">
<svg version="1.1" id="Layer_1" xmlns="http://www.w3.org/2000/svg" xmlns:xlink="http://www.w3.org/1999/xlink" x="0px" y="0px"
	 width="24px" height="24px" viewBox="0 0 24 24" enable-background="new 0 0 24 24" xml:space="preserve">
<path fill-rule="evenodd" clip-rule="evenodd" d="M11.264,4.324c0.054-0.012,0.06,0.025,0.063,0.063
	c-0.103,3.468-0.063,7.357-0.063,11.039c0,1.179,0.195,2.476-0.255,3.445c-0.475-0.527-0.375-1.432-0.383-2.233
	c-0.023-2.53,0.09-5.691-0.064-8.167c-0.023-0.379-0.103-0.858-0.191-1.276c-0.086-0.411-0.34-0.871-0.319-1.148
	C10.094,5.482,11.12,4.67,11.264,4.324z M11.519,4.516c0.154,3.515,0.064,7.184,0.064,10.911c0,1.264-0.23,2.659,0.319,3.445
	c0.427-0.679,0.319-1.647,0.319-2.553c0-3.468-0.182-7.871,0.638-10.272c-0.41-0.611-0.786-1.255-1.34-1.723
	C11.519,4.388,11.519,4.452,11.519,4.516z M10.37,16.894c-0.167-3.489,0.17-7.771-0.574-10.528c-0.064,0-0.076-0.052-0.127-0.063
	c-0.3,0.338-0.753,0.523-0.957,0.957c1.194,2.079,1.021,6.557,1.021,9.571c0,0.674-0.213,1.562,0.383,1.978
	C10.48,18.3,10.402,17.558,10.37,16.894z M12.54,17.149c-0.027,0.598-0.306,1.275,0.318,1.658c0.396-0.532,0.256-1.283,0.256-1.978
	c0-3.409-0.112-7.509,1.021-9.635c-0.294-0.344-0.626-0.65-1.021-0.893C12.216,9.147,12.69,13.76,12.54,17.149z M9.413,14.979
	c0-2.991,0.129-5.889-1.021-7.465C8.389,7.476,8.383,7.439,8.329,7.451c-0.371,0.204-0.668,0.48-1.021,0.702
	c0.296,0.803,1.179,1.466,1.34,2.552c0.262,1.766-0.023,3.458,0.064,5.168c0.054,1.063-0.176,2.248,0.446,2.935
	C9.602,17.796,9.413,16.357,9.413,14.979z M14.518,7.451c-0.359,0.802-0.896,1.696-1.021,2.871c-0.14,1.32-0.064,2.86-0.064,4.339
	c0,1.492-0.188,3.05,0.256,4.146c0.67-0.569,0.343-1.675,0.383-2.552c0.046-1.021,0.077-2.182,0.127-3.318
	c0.035-0.801-0.12-1.632,0-2.297c0.19-1.052,1.081-1.688,1.34-2.488C15.19,7.926,14.905,7.638,14.518,7.451z"/>
</svg>
