<?xml version="1.0" encoding="utf-8"?>
<!-- Generator: Adobe Illustrator 15.1.0, SVG Export Plug-In . SVG Version: 6.00 Build 0)  -->
<!DOCTYPE svg PUBLIC "-//W3C//DTD SVG 1.1//EN" "http://www.w3.org/Graphics/SVG/1.1/DTD/svg11.dtd">
<svg version="1.1" id="Layer_1" xmlns="http://www.w3.org/2000/svg" xmlns:xlink="http://www.w3.org/1999/xlink" x="0px" y="0px"
	 width="24px" height="24px" viewBox="0 0 24 24" enable-background="new 0 0 24 24" xml:space="preserve">
<path id="path3403" inkscape:connector-curvature="0" d="M11.675,9.619l0.001,0.234l0.001,0.23l0.002,0.225l-0.002,0.216
	l-0.004,0.208l-0.004,0.199l0.059,0.17l0.045,0.158l0.031,0.146l0.018,0.135l0.009,0.122l-0.005,0.111l-0.013,0.099l-0.022,0.086
	l-0.029,0.076L11.725,12.1l-0.042,0.053l-0.046,0.043l-0.05,0.031l-0.053,0.02l-0.057,0.01l-0.055-0.002l-0.056-0.01l-0.053-0.023
	l-0.053-0.033l-0.048-0.041l-0.044-0.053l-0.039-0.063l-0.032-0.073l-0.025-0.081l-0.019-0.092l-0.008-0.102l0.001-0.109
	l0.014-0.121l0.024-0.128l0.038-0.138l0.053-0.146l0.067-0.155l0.005-0.216l0.001-0.219l0.001-0.219v-0.219L11.25,9.795l-0.001-0.22
	l-0.002-0.22l-0.003-0.221l-0.003-0.22l-0.001-0.22l-0.003-0.22V8.257v-0.22V7.818l0.003-0.218l0.004-0.216l-0.085,0.036
	l-0.086,0.044l-0.088,0.054l-0.086,0.058l-0.086,0.065l-0.088,0.073l-0.088,0.079L10.55,7.881l-0.09,0.094l-0.09,0.1l-0.09,0.107
	l-0.091,0.113l-0.091,0.12l-0.092,0.127L9.915,8.678L9.823,8.818L9.729,8.967L9.635,9.121L9.54,9.281l-0.094,0.17L9.35,9.625
	L9.253,9.807L9.156,9.994L9.06,10.189l-0.1,0.201L8.861,10.6l-0.101,0.215l-0.1,0.221L8.56,11.264l-0.103,0.234l-0.103,0.241
	L8.25,11.986l0.198,0.191l0.195,0.19l0.196,0.19l0.197,0.189l0.196,0.19l0.196,0.19l0.196,0.191l0.197,0.19l0.195,0.19l0.197,0.191
	l0.195,0.19l0.197,0.19l0.196,0.189l0.196,0.19l0.195,0.19l0.198,0.191l0.196-0.174l0.195-0.176l0.197-0.177l0.197-0.18l0.195-0.182
	l0.196-0.181l0.196-0.184l0.197-0.184l0.196-0.182l0.196-0.184l0.195-0.182l0.197-0.18l0.197-0.181l0.195-0.179l0.196-0.174
	l0.198-0.174l-0.059-0.173l-0.059-0.175l-0.059-0.174l-0.062-0.176l-0.063-0.176l-0.064-0.178l-0.066-0.176l-0.066-0.176
	l-0.07-0.176l-0.07-0.174l-0.074-0.174l-0.074-0.172l-0.079-0.17l-0.08-0.169l-0.08-0.165L13.427,9.4l-0.086-0.16L13.25,9.083
	l-0.092-0.154l-0.095-0.151l-0.1-0.146l-0.101-0.142l-0.104-0.138l-0.106-0.135l-0.11-0.128l-0.114-0.123L12.31,7.848l-0.121-0.11
	l-0.125-0.105l-0.127-0.101l-0.133-0.092l-0.135-0.085l-0.006,0.198L11.659,7.76v0.217v0.225l0.002,0.23l0.001,0.234l0.003,0.237
	l0.004,0.239l0.003,0.239L11.675,9.619z M10.272,17.465l-0.107,0.199l-0.107,0.2l-0.105,0.202l-0.105,0.206l-0.104,0.207
	L9.642,18.69l-0.1,0.212l-0.1,0.215l-0.094,0.22l-0.096,0.222l-0.09,0.225L9.075,20.01l-0.086,0.23l-0.08,0.234l-0.078,0.238
	l-0.074,0.24l-0.07,0.244L8.62,21.445L8.56,21.697l-0.057,0.256L8.45,22.212v-9.483l2.979,2.677l-0.101,0.181l-0.102,0.181
	l-0.102,0.183l-0.105,0.183l-0.211,0.373l-0.215,0.379l-0.107,0.192L10.38,17.27L10.272,17.465z M12.586,17.465l0.108,0.199
	l0.106,0.2l0.105,0.202l0.104,0.206l0.104,0.207l0.102,0.211l0.101,0.212l0.099,0.215l0.096,0.22l0.094,0.222l0.09,0.225
	l0.088,0.227l0.086,0.23l0.081,0.234l0.078,0.238l0.075,0.24l0.068,0.244l0.066,0.248l0.063,0.252l0.055,0.256l0.053,0.259v-9.483
	l-2.978,2.677l0.099,0.181l0.102,0.181l0.103,0.183l0.104,0.183l0.211,0.373l0.215,0.379l0.108,0.192l0.108,0.193L12.586,17.465z
	 M7.364,8.56l0.003,0.026l0.001,0.026v0.024v0.024L7.366,8.683L7.363,8.705L7.359,8.727l-0.005,0.02l-0.005,0.02L7.34,8.783
	L7.332,8.799l-0.01,0.017L7.312,8.83L7.299,8.844L7.287,8.857L7.272,8.869L7.257,8.88L7.241,8.89L7.224,8.898L7.206,8.907
	L7.186,8.914l-0.02,0.007L7.144,8.925L7.121,8.929L7.098,8.934H7.072L7.046,8.936H7.02l-1.577-1.25l0.001,1.129l0.004,0.057
	l0.004,0.057l0.007,0.054l0.006,0.053l0.007,0.052l0.01,0.049l0.009,0.049L5.502,9.23l0.012,0.046L5.526,9.32L5.54,9.363
	l0.015,0.041l0.016,0.041l0.017,0.039l0.018,0.038l0.018,0.036l0.019,0.035l0.021,0.035l0.021,0.033l0.021,0.032l0.021,0.031
	l0.023,0.03l0.023,0.029l0.024,0.028L5.82,9.842l0.026,0.025l0.027,0.025l0.026,0.025l0.027,0.023l0.028,0.023l0.028,0.023
	l0.03,0.021l1.999,1.613l0.061-0.183l0.063-0.182l0.064-0.179l0.068-0.176l0.07-0.174l0.072-0.174l0.074-0.17l0.079-0.17
	l0.079-0.167l0.083-0.166L8.809,9.72l0.087-0.162l0.089-0.159L9.076,9.24L9.17,9.083l0.096-0.155l0.098-0.153l0.101-0.153
	l0.102-0.149L9.67,8.322l0.106-0.146l0.109-0.146l0.11-0.144l0.112-0.144l0.115-0.141l0.115-0.139l0.119-0.139l0.121-0.137
	L10.7,7.055l0.125-0.135l0.125-0.131l0.128-0.131l-5.686-4.87l0.025,2.31l3.396,2.857L8.356,7.682L5.413,5.121v1.703l1.93,1.617
	l0.008,0.031l0.005,0.03L7.36,8.531L7.364,8.56z M15.481,8.56l-0.003,0.026l-0.001,0.026v0.024v0.024l0.002,0.021l0.003,0.022
	l0.005,0.021l0.005,0.02l0.005,0.02l0.008,0.018l0.009,0.016l0.01,0.017l0.011,0.015l0.012,0.014l0.013,0.014l0.015,0.012
	l0.015,0.011l0.017,0.01l0.016,0.009l0.02,0.009l0.019,0.007l0.022,0.007l0.021,0.004l0.021,0.004l0.023,0.005h0.026L15.8,8.936
	h0.026l1.577-1.25l-0.002,1.129l-0.004,0.057l-0.004,0.057l-0.007,0.054L17.38,9.034l-0.007,0.052l-0.009,0.049l-0.01,0.049
	L17.343,9.23l-0.012,0.046L17.319,9.32l-0.014,0.043L17.29,9.404l-0.016,0.041l-0.016,0.039l-0.018,0.038l-0.018,0.036l-0.02,0.035
	l-0.021,0.035l-0.021,0.033l-0.021,0.032L17.12,9.726l-0.023,0.03l-0.022,0.029L17.05,9.813l-0.024,0.028L17,9.867l-0.027,0.025
	l-0.025,0.025l-0.028,0.023l-0.027,0.023l-0.028,0.023l-0.03,0.021l-1.998,1.613l-0.061-0.183l-0.063-0.182l-0.064-0.179
	l-0.068-0.176l-0.07-0.174l-0.072-0.174l-0.075-0.17l-0.078-0.17l-0.08-0.167L14.12,9.884L14.037,9.72L13.95,9.558l-0.089-0.159
	L13.769,9.24l-0.093-0.157L13.58,8.928l-0.098-0.153l-0.101-0.153L13.28,8.472l-0.104-0.149l-0.106-0.146L12.96,8.031l-0.11-0.144
	l-0.112-0.144l-0.115-0.141l-0.115-0.139l-0.119-0.139l-0.121-0.137l-0.121-0.135L12.021,6.92l-0.125-0.131l-0.128-0.131l5.686-4.87
	l-0.025,2.31l-3.396,2.857l0.457,0.727l2.943-2.561v1.703l-1.93,1.617l-0.008,0.031l-0.006,0.03l-0.004,0.028L15.481,8.56z"/>
</svg>
