<?xml version="1.0" encoding="utf-8"?>
<!-- Generator: Adobe Illustrator 15.1.0, SVG Export Plug-In . SVG Version: 6.00 Build 0)  -->
<!DOCTYPE svg PUBLIC "-//W3C//DTD SVG 1.1//EN" "http://www.w3.org/Graphics/SVG/1.1/DTD/svg11.dtd">
<svg version="1.1"
	 id="Layer_1" inkscape:version="0.48.5 r10040" sodipodi:docname="bank-kar-afarin.svg" xmlns:dc="http://purl.org/dc/elements/1.1/" xmlns:cc="http://creativecommons.org/ns#" xmlns:rdf="http://www.w3.org/1999/02/22-rdf-syntax-ns#" xmlns:svg="http://www.w3.org/2000/svg" xmlns:sodipodi="http://sodipodi.sourceforge.net/DTD/sodipodi-0.dtd" xmlns:inkscape="http://www.inkscape.org/namespaces/inkscape"
	 xmlns="http://www.w3.org/2000/svg" xmlns:xlink="http://www.w3.org/1999/xlink" x="0px" y="0px" width="24px" height="24px"
	 viewBox="0 0 24 24" enable-background="new 0 0 24 24" xml:space="preserve">
<path d="M12.592,13.906l-5.977-1.839v1.81v1.264c0,1.42,2.677,2.57,5.979,2.57c3.302,0,5.98-1.15,5.98-2.57
	c0-0.012-0.005-0.023-0.005-0.035v-3.039L12.592,13.906z M2.573,9.952l2.135,0.764l0.182-0.39l0.785-0.066l0.112,0.116l-0.673,0.16
	l-0.098,0.29c0,0-1.521,3.178-1.298,4.733c0,0,0.949,0.566,1.898,0l0.252-4.25v-0.354l1.412-0.318l-0.1,0.245l-1.053,0.343
	l0.487,0.174l5.977,1.839l5.978-1.839l4.042-1.445l-10.02-3.854L2.573,9.952z"/>
</svg>
