<?xml version="1.0" encoding="UTF-8" standalone="yes"?>
<svg xmlns="http://www.w3.org/2000/svg" xmlns:xlink="http://www.w3.org/1999/xlink" width="24px" height="24px" viewBox="0 0 18 18" version="1.1">
  <g id="surface1">
    <path style=" stroke:none;fill-rule:nonzero;fill:rgb(0%,0%,0%);fill-opacity:1;" d="M 17.726562 7.917969 L 15.890625 0.34375 C 15.839844 0.140625 15.660156 0 15.445312 0 L 15.433594 0 C 15.300781 0 15.171875 0.0585938 15.089844 0.164062 L 9.238281 2.75 C 9.101562 2.671875 8.941406 2.625 8.773438 2.625 C 8.328125 2.625 7.957031 2.9375 7.859375 3.355469 L 2.542969 5.707031 C 2.535156 5.707031 2.527344 5.703125 2.515625 5.707031 L 2.503906 5.707031 C 2.113281 5.75 2.070312 6.035156 2.070312 6.035156 C 2.070312 6.042969 2.070312 6.046875 2.066406 6.050781 L 0.230469 13.625 L 0.140625 13.625 L 0.140625 13.78125 C 0.140625 14.804688 1.199219 15.636719 2.503906 15.636719 C 3.808594 15.636719 4.871094 14.804688 4.871094 13.78125 L 4.871094 13.625 L 4.796875 13.625 L 3.074219 6.613281 L 8.238281 4.332031 L 8.238281 16.371094 L 6.714844 16.371094 L 6.714844 17.941406 L 10.953125 17.941406 L 10.953125 16.371094 L 9.4375 16.371094 L 9.4375 4.226562 C 9.605469 4.058594 9.710938 3.867188 9.710938 3.605469 L 14.769531 1.339844 L 13.160156 7.917969 L 13.070312 7.917969 L 13.070312 8.074219 C 13.070312 9.097656 14.128906 9.929688 15.433594 9.929688 C 16.738281 9.929688 17.800781 9.097656 17.800781 8.074219 L 17.800781 7.917969 Z M 3.871094 13.625 L 1.15625 13.625 L 2.515625 8.027344 Z M 14.085938 7.917969 L 15.445312 2.320312 L 16.800781 7.917969 Z M 14.085938 7.917969 "/>
  </g>
</svg>