<?xml version="1.0" encoding="UTF-8" standalone="yes"?>
<svg xmlns="http://www.w3.org/2000/svg" xmlns:xlink="http://www.w3.org/1999/xlink" width="24px" height="24px" viewBox="0 0 18 18" version="1.1">
  <g id="surface1">
    <path style=" stroke:none;fill-rule:nonzero;fill:rgb(0%,0%,0%);fill-opacity:1;" d="M 9 10.425781 C 8.214844 10.425781 7.578125 9.785156 7.578125 9 C 7.578125 8.214844 8.214844 7.574219 9 7.574219 C 9.789062 7.574219 10.425781 8.214844 10.425781 9 C 10.425781 9.785156 9.789062 10.425781 9 10.425781 Z M 9 10.425781 "/>
    <path style=" stroke:none;fill-rule:nonzero;fill:rgb(0%,0%,0%);fill-opacity:1;" d="M 9 7.828125 C 8.355469 7.828125 7.828125 8.351562 7.828125 9 C 7.828125 9.644531 8.355469 10.171875 9 10.171875 C 9.648438 10.171875 10.171875 9.644531 10.171875 9 C 10.171875 8.351562 9.648438 7.828125 9 7.828125 Z M 9 7.828125 "/>
    <path style=" stroke:none;fill-rule:nonzero;fill:rgb(0%,0%,0%);fill-opacity:1;" d="M 9 0 C 4.039062 0 0 4.039062 0 9 C 0 13.964844 4.039062 18.003906 9 18.003906 C 13.964844 18.003906 18.003906 13.964844 18.003906 9 C 18.003906 4.039062 13.964844 0 9 0 Z M 7.835938 1.25 C 7.890625 1.226562 8.40625 1.011719 9.289062 1.011719 C 10.074219 1.011719 10.890625 1.179688 11.71875 1.515625 L 11.847656 1.566406 L 11.832031 1.597656 L 9.808594 5.726562 L 9.699219 5.683594 C 9.566406 5.632812 9.410156 5.605469 9.246094 5.605469 C 9.125 5.605469 9.039062 5.621094 9.027344 5.621094 L 8.910156 5.648438 L 8.902344 5.617188 L 7.734375 1.296875 Z M 9 12.039062 C 7.328125 12.039062 5.964844 10.675781 5.964844 9 C 5.964844 7.324219 7.328125 5.960938 9 5.960938 C 10.675781 5.960938 12.039062 7.324219 12.039062 9 C 12.039062 10.675781 10.675781 12.039062 9 12.039062 Z M 9 12.039062 "/>
  </g>
</svg>