<?xml version="1.0" encoding="UTF-8" standalone="no"?>
<!-- Generator: Adobe Illustrator 16.0.0, SVG Export Plug-In . SVG Version: 6.00 Build 0)  -->

<svg
   xmlns:dc="http://purl.org/dc/elements/1.1/"
   xmlns:cc="http://creativecommons.org/ns#"
   xmlns:rdf="http://www.w3.org/1999/02/22-rdf-syntax-ns#"
   xmlns:svg="http://www.w3.org/2000/svg"
   xmlns="http://www.w3.org/2000/svg"
   xmlns:sodipodi="http://sodipodi.sourceforge.net/DTD/sodipodi-0.dtd"
   xmlns:inkscape="http://www.inkscape.org/namespaces/inkscape"
   version="1.1"
   id="Capa_1"
   x="0px"
   y="0px"
   width="24"
   height="24"
   viewBox="0 0 23.999999 23.999999"
   xml:space="preserve"
   inkscape:version="0.48.5 r10040"
   sodipodi:docname="toilet7.svg"><metadata
     id="metadata4272"><rdf:RDF><cc:Work
         rdf:about=""><dc:format>image/svg+xml</dc:format><dc:type
           rdf:resource="http://purl.org/dc/dcmitype/StillImage" /><dc:title></dc:title></cc:Work></rdf:RDF></metadata><defs
     id="defs4270" /><sodipodi:namedview
     pagecolor="#ffffff"
     bordercolor="#666666"
     borderopacity="1"
     objecttolerance="10"
     gridtolerance="10"
     guidetolerance="10"
     inkscape:pageopacity="0"
     inkscape:pageshadow="2"
     inkscape:window-width="657"
     inkscape:window-height="480"
     id="namedview4268"
     showgrid="false"
     inkscape:zoom="5.1233523"
     inkscape:cx="17.789262"
     inkscape:cy="16.483095"
     inkscape:window-x="0"
     inkscape:window-y="27"
     inkscape:window-maximized="0"
     inkscape:current-layer="Capa_1" /><g
     id="g4228"
     transform="matrix(0.08941465,0,0,0.08941465,0.35038829,0.35036593)"><g
       id="g4230"><path
         d="m 235.609,260.575 c 6.992,0 12.675,-5.687 12.675,-12.674 V 90.537 c 0,-6.99 -5.688,-12.677 -12.675,-12.677 H 210.9 c -0.619,-2.003 -1.655,-3.859 -3.179,-5.377 L 139.046,3.803 c -5.07,-5.07 -13.317,-5.07 -18.382,0 L 51.99,72.472 c -1.523,1.523 -2.567,3.379 -3.182,5.382 h -23.84 c -6.995,0 -12.677,5.688 -12.677,12.678 v 157.363 c 0,6.987 5.687,12.675 12.677,12.675 H 235.61 v 0.005 z M 129.853,16.673 191.04,77.86 H 68.666 L 129.853,16.673 z M 27.89,93.459 H 232.689 V 244.976 H 27.89 V 93.459 z"
         id="path4232"
         inkscape:connector-curvature="0" /><path
         d="m 135.535,131.052 h -4.61 c -4.073,0 -7.983,3.112 -8.896,7.079 l -7.795,33.839 -7.01,-33.758 c -0.833,-4.017 -4.695,-7.165 -8.797,-7.165 h -5.149 c -4.113,0 -7.955,3.158 -8.749,7.2 l -6.464,32.931 -7.622,-33.053 c -0.917,-3.971 -4.827,-7.078 -8.904,-7.078 h -5.246 c -2.188,0 -4.128,0.908 -5.329,2.488 -1.196,1.589 -1.546,3.707 -0.952,5.819 l 17.158,60.509 c 1.097,3.869 5.096,6.896 9.123,6.896 h 3.286 c 4.108,0 7.97,-3.144 8.792,-7.166 l 7.409,-35.865 7.411,35.865 c 0.82,4.022 4.685,7.171 8.793,7.171 h 3.712 c 4.019,0 8.023,-3.032 9.11,-6.906 l 17.016,-60.504 c 0.6,-2.112 0.249,-4.23 -0.954,-5.819 -1.202,-1.58 -3.141,-2.483 -5.333,-2.483 z"
         id="path4234"
         inkscape:connector-curvature="0" /><path
         d="m 178.594,147.494 c 4.403,0 7.577,1.203 9.694,3.682 0.645,0.752 1.249,1.762 1.803,2.991 1.427,3.229 5.21,5.57 8.988,5.57 h 4.336 c 2.331,0 4.505,-1.057 5.825,-2.818 1.203,-1.615 1.563,-3.671 0.979,-5.632 -0.863,-2.92 -2.306,-5.875 -4.296,-8.795 -5.921,-8.48 -15.305,-12.781 -27.889,-12.781 -9.455,0 -17.377,3.194 -23.531,9.486 -6.992,7.145 -10.541,17.33 -10.541,30.284 0,11.979 3.117,21.603 9.262,28.604 6.23,7.059 14.848,10.639 25.613,10.639 8.754,0 16.066,-2.661 21.724,-7.912 4.321,-4.012 7.424,-8.998 9.212,-14.832 0.629,-2.021 0.305,-4.113 -0.899,-5.733 -1.265,-1.716 -3.306,-2.701 -5.601,-2.701 h -4.24 c -3.793,0 -7.592,2.473 -9.019,5.87 -0.563,1.36 -1.193,2.463 -1.874,3.311 -2.143,2.737 -5.261,4.067 -9.516,4.067 -4.145,0 -7.465,-1.614 -10.166,-4.94 -2.799,-3.453 -4.221,-8.882 -4.221,-16.139 0,-7.332 1.377,-12.999 4.073,-16.854 2.535,-3.61 5.897,-5.367 10.284,-5.367 z"
         id="path4236"
         inkscape:connector-curvature="0" /></g></g><g
     id="g4238"
     transform="translate(0,-236.575)" /><g
     id="g4240"
     transform="translate(0,-236.575)" /><g
     id="g4242"
     transform="translate(0,-236.575)" /><g
     id="g4244"
     transform="translate(0,-236.575)" /><g
     id="g4246"
     transform="translate(0,-236.575)" /><g
     id="g4248"
     transform="translate(0,-236.575)" /><g
     id="g4250"
     transform="translate(0,-236.575)" /><g
     id="g4252"
     transform="translate(0,-236.575)" /><g
     id="g4254"
     transform="translate(0,-236.575)" /><g
     id="g4256"
     transform="translate(0,-236.575)" /><g
     id="g4258"
     transform="translate(0,-236.575)" /><g
     id="g4260"
     transform="translate(0,-236.575)" /><g
     id="g4262"
     transform="translate(0,-236.575)" /><g
     id="g4264"
     transform="translate(0,-236.575)" /><g
     id="g4266"
     transform="translate(0,-236.575)" /></svg>