<?xml version="1.0" encoding="utf-8"?>
<!-- Generator: Adobe Illustrator 15.1.0, SVG Export Plug-In . SVG Version: 6.00 Build 0)  -->
<!DOCTYPE svg PUBLIC "-//W3C//DTD SVG 1.1//EN" "http://www.w3.org/Graphics/SVG/1.1/DTD/svg11.dtd">
<svg version="1.1" id="Layer_1" xmlns="http://www.w3.org/2000/svg" xmlns:xlink="http://www.w3.org/1999/xlink" x="0px" y="0px"
	 width="24px" height="24px" viewBox="0 0 24 24" enable-background="new 0 0 24 24" xml:space="preserve">
<path d="M19.679,4.202c-0.242,0-0.452,0.212-0.452,0.453v0.57c0,0.244,0.213,0.453,0.452,0.453h0.302l-5.551,5.588l-0.118-0.426
	c-0.117-0.396-0.426-0.875-1.267-0.784l-3.259,0.152L7.577,8.15c-0.271-0.27-0.753-0.601-1.45-0.426L0.36,9.272V10.3h0.03
	l2.355-0.635l0.635,2.263l-3.02,0.814v4.801c0.331,0.753,1.179,1.148,1.962,0.936c0.845-0.243,1.358-1.058,1.209-1.932l5.828-1.567
	c0.27,0.813,1.179,1.297,2.022,1.057c0.845-0.243,1.359-1.057,1.21-1.932l1.662-0.453c0.396-0.118,0.696-0.396,0.571-0.874
	l-0.152-0.572l6.55-6.545h0.937v3.925h1.479V4.202H19.679z M2.11,17.755c-0.483,0.151-0.997-0.152-1.115-0.635
	c-0.118-0.483,0.152-0.967,0.635-1.085c0.088-0.061,0.152-0.061,0.214-0.061c0.426-0.03,0.813,0.243,0.909,0.665
	C2.867,17.12,2.593,17.603,2.11,17.755z M4.377,11.623L3.776,9.33l2.171-0.571c0.118,0,0.214,0,0.332,0
	c0.3,0.031,0.57,0.183,0.753,0.361l1.449,1.423L4.377,11.623z M11.167,15.279c-0.482,0.118-0.997-0.152-1.114-0.636
	c-0.118-0.483,0.182-0.967,0.665-1.114c0.061,0.03,0.118,0.03,0.183,0c0.427-0.03,0.814,0.243,0.909,0.665
	C11.924,14.675,11.653,15.157,11.167,15.279z M18.262,11.053v4.857c0,0.452,0.117,0.814,0.844,0.814h1.027
	c0.061,0.996,0.909,1.811,1.932,1.811c0.666,0,1.241-0.332,1.567-0.845v-7.421c0.03-0.03-4.53-0.03-4.53-0.03
	C18.352,10.239,18.262,10.569,18.262,11.053z M22.064,15.521c0.57,0,1.027,0.453,1.027,1.027c0,0.571-0.453,1.058-1.027,1.058
	c-0.575,0-1.057-0.483-1.057-1.058C21.042,16.005,21.494,15.521,22.064,15.521z"/>
</svg>
