<?xml version="1.0" encoding="utf-8"?>
<!-- Generator: Adobe Illustrator 15.1.0, SVG Export Plug-In . SVG Version: 6.00 Build 0)  -->
<!DOCTYPE svg PUBLIC "-//W3C//DTD SVG 1.1//EN" "http://www.w3.org/Graphics/SVG/1.1/DTD/svg11.dtd">
<svg version="1.1" id="Layer_1" xmlns="http://www.w3.org/2000/svg" xmlns:xlink="http://www.w3.org/1999/xlink" x="0px" y="0px"
	 width="24px" height="24px" viewBox="0 0 24 24" enable-background="new 0 0 24 24" xml:space="preserve">
<path d="M14.374,5.825c0.012-0.13,0.026-0.579-0.268-0.901c-0.278-0.304-0.634-0.329-2.503-0.329c-0.186,0-0.335,0.15-0.335,0.334
	c0,0.185,0.149,0.335,0.335,0.335c1.044,0,1.915,0.008,2.009,0.111c0.081,0.088,0.106,0.265,0.096,0.39
	c-0.009,0.09-0.021,0.725,0.005,0.905c0.067,0.47,0.081,0.943,0.033,1.077c-0.044,0.122-0.094,0.26-0.509,0.231
	c-0.151-0.01-0.538-0.017-1.035-0.017c-0.374,0-0.643,0.013-0.838,0.023c-0.1,0.005-0.179,0.009-0.232,0.009
	c-0.062,0-0.115-0.004-0.161-0.013c-0.307-0.06-0.462-0.229-0.462-0.502c0-0.112,0.019-0.25,0.038-0.397
	c0.021-0.157,0.044-0.335,0.048-0.517c0.006-0.185-0.141-0.338-0.325-0.343c-0.183-0.005-0.338,0.141-0.343,0.325
	c-0.004,0.146-0.024,0.3-0.044,0.448C9.861,7.164,9.84,7.323,9.84,7.479c0,0.595,0.385,1.039,1.003,1.159
	c0.089,0.017,0.184,0.025,0.289,0.025c0.07,0,0.156-0.004,0.266-0.009c0.188-0.009,0.447-0.022,0.805-0.022
	c0.569,0,0.889,0.008,0.988,0.015c0.618,0.043,1.006-0.176,1.185-0.671c0.129-0.357,0.043-1.098,0-1.4
	C14.361,6.474,14.366,5.918,14.374,5.825z M9.103,14.524c0.012-0.13,0.026-0.579-0.268-0.9c-0.199-0.218-0.495-0.328-0.878-0.328
	c-0.006,0-0.012,0-0.018,0c-0.007,0-0.687,0.035-1.075,0.035c-0.133,0-0.304-0.011-0.47-0.021c-0.433-0.026-0.709-0.038-0.899,0.018
	c-0.178,0.052-0.279,0.236-0.228,0.414c0.051,0.178,0.236,0.279,0.414,0.228c0.094-0.026,0.456-0.005,0.672,0.009
	c0.176,0.011,0.357,0.022,0.511,0.022c0.385,0,1.014-0.031,1.101-0.036c0.128,0.001,0.294,0.021,0.376,0.111
	c0.081,0.088,0.106,0.265,0.095,0.39c-0.008,0.091-0.021,0.725,0.006,0.905c0.066,0.47,0.081,0.943,0.033,1.077
	c-0.044,0.122-0.094,0.26-0.51,0.231c-0.15-0.011-0.537-0.017-1.034-0.017c-0.375,0-0.643,0.014-0.839,0.023
	c-0.099,0.005-0.178,0.009-0.231,0.009c-0.063,0-0.115-0.005-0.162-0.014c-0.306-0.06-0.461-0.229-0.461-0.502
	c0-0.112,0.018-0.251,0.037-0.397c0.021-0.157,0.044-0.336,0.049-0.517c0-0.021,0.001-0.042,0.001-0.063
	c0.001-0.185-0.148-0.335-0.333-0.336c-0.001,0-0.001,0-0.002,0c-0.184,0-0.333,0.148-0.334,0.333c0,0.016-0.001,0.031-0.001,0.048
	c-0.004,0.146-0.024,0.3-0.043,0.448c-0.022,0.169-0.043,0.328-0.043,0.484c0,0.594,0.384,1.038,1.002,1.158
	c0.09,0.018,0.185,0.026,0.29,0.026c0.07,0,0.156-0.005,0.265-0.011c0.188-0.009,0.447-0.021,0.806-0.021
	c0.568,0,0.888,0.008,0.988,0.015c0.618,0.043,1.005-0.177,1.185-0.671c0.129-0.358,0.043-1.099-0.001-1.4
	C9.09,15.174,9.095,14.618,9.103,14.524z M23.027,16.446c-0.052-0.393-0.104-0.799-0.115-1.2c-0.013-0.449,0.027-0.906,0.066-1.348
	c0.032-0.367,0.063-0.715,0.063-1.043c0-0.892-0.478-1.396-0.877-1.663c-0.427-0.284-0.9-0.387-1.114-0.387l-0.065,0.001
	c-1.44,0.028-2.58,0.042-3.207,0.042c-0.298,0-0.663-0.008-1.027-0.019c0.271-0.224,0.476-0.531,0.619-0.927
	c0.299-0.828,0.056-2.76-0.026-3.333c-0.045-0.311-0.025-1.821-0.006-2.041c0.024-0.28,0.058-1.243-0.55-1.908
	c-0.408-0.446-1.035-0.672-1.863-0.672c-0.007,0-0.012,0-0.018,0c-0.018,0.001-1.772,0.091-2.78,0.091
	c-0.204,0-1.157,0.004-1.413,0.004c-0.604,0-1.359-0.005-1.824-0.046C8.822,1.993,8.756,1.99,8.691,1.99
	c-0.884,0-1.829,0.54-1.829,2.057c0,0.329,0.03,0.676,0.063,1.043c0.039,0.442,0.079,0.898,0.066,1.348
	c-0.011,0.401-0.064,0.808-0.115,1.2C6.821,8.052,6.771,8.444,6.771,8.809c0,0.809,0.322,1.474,0.9,1.918
	c-0.292,0.008-0.576,0.013-0.816,0.013c-0.455,0-1.012-0.012-1.55-0.024c-0.516-0.012-1.003-0.022-1.386-0.022
	c-0.134,0-0.245,0.001-0.341,0.004c-1.263,0.036-1.987,0.783-1.987,2.049c0,0.329,0.03,0.676,0.063,1.044
	c0.039,0.441,0.078,0.897,0.066,1.348c-0.011,0.401-0.064,0.808-0.116,1.199c-0.054,0.415-0.105,0.807-0.105,1.173
	c0,1.275,0.802,2.193,2.146,2.454c0.195,0.038,0.404,0.057,0.641,0.057c0.167,0,0.381-0.011,0.652-0.024
	c0.489-0.024,1.158-0.058,2.088-0.058c1.469,0,2.289,0.021,2.567,0.039c0.117,0.008,0.231,0.013,0.34,0.013l0,0
	c1.135,0,1.822-0.441,2.165-1.387c0.299-0.828,0.056-2.76-0.026-3.333c-0.045-0.311-0.026-1.821-0.006-2.042
	c0.024-0.279,0.058-1.242-0.55-1.908c-0.023-0.025-0.047-0.049-0.071-0.073c0.257-0.006,0.54-0.01,0.853-0.01
	c0.385,0,0.724,0.001,1.021,0.004c-0.071,0.058-0.14,0.12-0.201,0.187c-0.607,0.666-0.574,1.629-0.55,1.909
	c0.02,0.22,0.039,1.73-0.006,2.041c-0.082,0.572-0.325,2.505-0.026,3.333c0.375,1.036,1.165,1.467,2.505,1.374
	c0.278-0.02,1.099-0.039,2.566-0.039c0.931,0,2.573,0.081,2.741,0.081c0.235,0,0.445-0.018,0.641-0.056
	c1.344-0.261,2.146-1.179,2.146-2.455C23.133,17.253,23.081,16.86,23.027,16.446z M11.469,18.376
	c-0.179,0.491-0.487,0.945-1.536,0.945c-0.093,0-0.191-0.004-0.294-0.011c-0.289-0.02-1.128-0.041-2.613-0.041
	c-0.946,0-1.625,0.034-2.121,0.059c-0.262,0.013-0.469,0.023-0.619,0.023c-0.193,0-0.361-0.015-0.514-0.044
	c-0.482-0.094-1.604-0.457-1.604-1.798c0-0.322,0.048-0.692,0.1-1.085c0.054-0.409,0.109-0.832,0.121-1.269
	c0.013-0.488-0.028-0.964-0.069-1.425c-0.031-0.352-0.06-0.685-0.06-0.984c0-0.904,0.438-1.355,1.338-1.381
	c0.089-0.002,0.194-0.003,0.321-0.003c0.375,0,0.858,0.011,1.37,0.022c0.543,0.012,1.103,0.025,1.564,0.025
	c0.97,0,2.557-0.079,2.789-0.091c0.011,0,0.021,0,0.032,0c0.621,0.004,1.074,0.156,1.347,0.454c0.337,0.369,0.414,0.983,0.377,1.397
	c-0.021,0.226-0.046,1.809,0.01,2.196C11.529,16.211,11.678,17.796,11.469,18.376z M10.176,10.628
	c-0.203,0.01-0.372,0.019-0.509,0.022c-0.005,0-0.01,0-0.015,0c-0.006,0-0.012,0-0.018,0c-0.001,0-0.007,0-0.018,0.001
	c-0.021,0-0.041,0-0.061,0c-0.193,0-0.361-0.015-0.514-0.044c-0.482-0.094-1.604-0.457-1.604-1.798c0-0.322,0.049-0.692,0.1-1.085
	C7.593,7.315,7.648,6.892,7.66,6.456c0.013-0.488-0.028-0.964-0.068-1.425C7.561,4.679,7.531,4.346,7.531,4.047
	c0-1.208,0.727-1.388,1.16-1.388c0.046,0,0.093,0.002,0.139,0.006c0.491,0.043,1.265,0.049,1.883,0.049
	c0.257,0,1.21-0.004,1.413-0.004c0.999,0,2.654-0.084,2.806-0.092c0.629,0.001,1.087,0.154,1.361,0.454
	c0.337,0.369,0.414,0.984,0.378,1.397c-0.021,0.226-0.047,1.809,0.01,2.196c0.12,0.845,0.269,2.43,0.06,3.01
	c-0.178,0.491-0.487,0.945-1.536,0.945c-0.093,0-0.191-0.003-0.294-0.011c-0.29-0.02-1.128-0.041-2.613-0.041
	C11.351,10.569,10.672,10.604,10.176,10.628z M20.86,19.416c-0.152,0.029-2.308-0.038-3.255-0.038c-1.484,0-2.323,0.021-2.612,0.041
	c-0.103,0.007-0.201,0.01-0.294,0.01c-1.049,0-1.357-0.454-1.536-0.944c-0.209-0.58-0.061-2.165,0.06-3.01
	c0.057-0.387,0.03-1.971,0.01-2.195c-0.036-0.415,0.041-1.03,0.378-1.398c0.274-0.3,0.732-0.453,1.361-0.455
	c0.151,0.008,1.807,0.091,2.806,0.091c0.641,0,1.754-0.014,3.221-0.042l0.052-0.001c0.014,0,1.322,0.146,1.322,1.381
	c0,0.3-0.029,0.632-0.061,0.984c-0.04,0.461-0.081,0.937-0.068,1.425c0.012,0.436,0.067,0.858,0.121,1.269
	c0.052,0.393,0.1,0.763,0.1,1.084C22.464,18.959,21.343,19.322,20.86,19.416z M19.977,15.354c-0.002-0.097,0.002-0.141,0.01-0.228
	c0.002-0.023,0.004-0.049,0.006-0.078c0.016-0.184-0.121-0.346-0.306-0.36c-0.184-0.016-0.346,0.122-0.36,0.306
	c-0.002,0.027-0.005,0.051-0.007,0.072c-0.008,0.096-0.015,0.171-0.012,0.307c0.006,0.181,0.028,0.359,0.05,0.517
	c0.019,0.146,0.037,0.285,0.037,0.397c0,0.273-0.155,0.442-0.462,0.502c-0.046,0.009-0.1,0.014-0.161,0.014
	c-0.055,0-0.133-0.004-0.232-0.009c-0.195-0.011-0.464-0.023-0.838-0.023c-0.498,0-0.885,0.006-1.035,0.017
	c-0.415,0.028-0.465-0.109-0.509-0.231c-0.048-0.134-0.034-0.607,0.033-1.077c0.026-0.18,0.014-0.814,0.006-0.904
	c-0.012-0.126,0.014-0.303,0.094-0.391c0.083-0.09,0.249-0.11,0.377-0.111c0.087,0.005,0.716,0.035,1.101,0.035
	c0.153,0,0.335-0.011,0.51-0.021c0.213-0.013,0.432-0.026,0.579-0.019c0.184,0.01,0.342-0.133,0.351-0.317
	c0.01-0.185-0.132-0.342-0.316-0.352c-0.185-0.009-0.424,0.006-0.654,0.02c-0.165,0.011-0.336,0.021-0.469,0.021
	c-0.389,0-1.068-0.035-1.075-0.035c-0.006,0-0.012,0-0.018,0c-0.383,0-0.679,0.11-0.879,0.328c-0.293,0.321-0.278,0.771-0.267,0.901
	c0.008,0.093,0.013,0.648-0.001,0.75c-0.043,0.302-0.13,1.042,0,1.4c0.179,0.494,0.566,0.714,1.184,0.671
	c0.1-0.007,0.419-0.016,0.988-0.016c0.358,0,0.617,0.014,0.806,0.022c0.109,0.006,0.195,0.011,0.266,0.011
	c0.105,0,0.2-0.009,0.289-0.026c0.618-0.12,1.003-0.563,1.003-1.158c0-0.156-0.021-0.315-0.043-0.484
	C20.001,15.654,19.98,15.501,19.977,15.354z"/>
</svg>
