<?xml version="1.0" encoding="UTF-8" standalone="yes"?>
<svg xmlns="http://www.w3.org/2000/svg" xmlns:xlink="http://www.w3.org/1999/xlink" width="24px" height="24px" viewBox="0 0 18 18" version="1.1">
  <g id="surface1">
    <path style=" stroke:none;fill-rule:nonzero;fill:rgb(1.176471%,0.392157%,1.568627%);fill-opacity:1;" d="M 10.757812 10.3125 L 7.6875 7.246094 C 8.550781 6.601562 9.773438 6.664062 10.558594 7.445312 C 11.339844 8.226562 11.398438 9.449219 10.757812 10.3125 Z M 3.21875 11.667969 L 1.886719 13.003906 L 5 16.113281 L 6.332031 14.78125 Z M 14.78125 6.332031 L 16.113281 5 L 13 1.886719 L 11.667969 3.222656 Z M 0.554688 11.667969 L 1.441406 12.558594 L 3.21875 10.78125 L 7.222656 14.78125 L 5.445312 16.558594 L 6.332031 17.449219 C 7.070312 18.183594 8.261719 18.183594 9 17.449219 L 13 13.445312 L 10.753906 11.203125 C 9.644531 12.085938 8.027344 12.03125 7 11 C 5.96875 9.972656 5.914062 8.355469 6.800781 7.246094 L 4.554688 5 L 0.554688 9 C -0.183594 9.738281 -0.183594 10.929688 0.554688 11.667969 Z M 7.445312 10.558594 C 8.226562 11.339844 9.449219 11.398438 10.3125 10.757812 L 7.246094 7.6875 C 6.601562 8.550781 6.664062 9.773438 7.445312 10.558594 Z M 9 0.554688 L 5 4.554688 L 7.246094 6.800781 C 8.355469 5.914062 9.972656 5.972656 11 7 C 12.03125 8.027344 12.085938 9.644531 11.203125 10.757812 L 13.445312 13 L 17.449219 9 C 18.183594 8.265625 18.183594 7.070312 17.449219 6.332031 L 16.558594 5.445312 L 14.78125 7.222656 L 10.777344 3.222656 L 12.558594 1.441406 L 11.667969 0.554688 C 10.929688 -0.183594 9.738281 -0.183594 9 0.554688 Z M 9 0.554688 "/>
  </g>
</svg>