<?xml version="1.0" encoding="UTF-8" standalone="no"?>
<!-- Generator: Adobe Illustrator 16.0.0, SVG Export Plug-In . SVG Version: 6.00 Build 0)  -->

<svg
   xmlns:dc="http://purl.org/dc/elements/1.1/"
   xmlns:cc="http://creativecommons.org/ns#"
   xmlns:rdf="http://www.w3.org/1999/02/22-rdf-syntax-ns#"
   xmlns:svg="http://www.w3.org/2000/svg"
   xmlns="http://www.w3.org/2000/svg"
   xmlns:sodipodi="http://sodipodi.sourceforge.net/DTD/sodipodi-0.dtd"
   xmlns:inkscape="http://www.inkscape.org/namespaces/inkscape"
   version="1.1"
   id="Capa_1"
   x="0px"
   y="0px"
   width="24"
   height="24"
   viewBox="0 0 23.999999 23.999999"
   xml:space="preserve"
   inkscape:version="0.48.5 r10040"
   sodipodi:docname="zeton_torshi.svg"><metadata
     id="metadata4031"><rdf:RDF><cc:Work
         rdf:about=""><dc:format>image/svg+xml</dc:format><dc:type
           rdf:resource="http://purl.org/dc/dcmitype/StillImage" /><dc:title></dc:title></cc:Work></rdf:RDF></metadata><defs
     id="defs4029" /><sodipodi:namedview
     pagecolor="#ffffff"
     bordercolor="#666666"
     borderopacity="1"
     objecttolerance="10"
     gridtolerance="10"
     guidetolerance="10"
     inkscape:pageopacity="0"
     inkscape:pageshadow="2"
     inkscape:window-width="657"
     inkscape:window-height="480"
     id="namedview4027"
     showgrid="false"
     inkscape:zoom="2.6913295"
     inkscape:cx="1.8578179"
     inkscape:cy="43.844501"
     inkscape:window-x="0"
     inkscape:window-y="27"
     inkscape:window-maximized="0"
     inkscape:current-layer="Capa_1" /><g
     id="g3989"
     transform="matrix(0.26694916,0,0,0.26694916,0.29561022,0.29574705)"><g
       id="g3991"><path
         d="M 80.063,54.748 C 74.499,50.457 67.491,50.025 63.364,53.393 L 53.768,48.657 C 66.005,40.069 75.977,33.719 76.217,33.566 l -2.04,-3.22 C 72.624,31.321 48.614,46.61 29.21,62.16 l -0.116,-0.458 c -9.26,2.327 -27.711,4.12 -27.897,4.134 l 0.365,3.802 C 2.179,69.58 14.087,68.416 23.677,66.722 15.313,73.81 8.469,80.674 5.76,85.944 l 3.388,1.745 C 13.843,78.545 32.754,63.669 49.305,51.825 L 50.1,58.55 c -5.441,1.304 -9.213,7.642 -8.574,14.958 0.696,7.871 6.22,13.819 12.339,13.278 6.118,-0.534 10.52,-7.357 9.828,-15.229 -0.075,-0.842 -0.232,-1.656 -0.411,-2.447 0.911,1.167 1.944,2.283 3.203,3.255 6.263,4.825 14.384,4.798 18.131,-0.072 3.75,-4.866 1.703,-12.72 -4.553,-17.545 z M 53.769,48.66 52.955,50.299 52.842,49.314 c 0.313,-0.219 0.618,-0.439 0.927,-0.654 z m -2.602,33.643 c -2.06,-1.427 -8.293,-6.532 -4.946,-13.9 0,0 -0.95,6.361 5.569,14.312 0,0.006 -0.236,-0.138 -0.623,-0.412 z m 2.752,-23.838 -0.685,-5.805 7.741,3.816 c -0.891,1.893 -1.075,4.062 -0.657,6.272 -1.725,-2.224 -3.942,-3.77 -6.399,-4.283 z m 28.369,9.892 c -3.183,-9.776 -9.055,-12.401 -9.055,-12.401 8.008,1.149 8.949,9.154 9.048,11.659 0.014,0.469 0.007,0.742 0.007,0.742 z"
         id="path3993"
         inkscape:connector-curvature="0" /><path
         d="m 46.451,47.605 0.972,-0.927 C 46.438,47.618 31.755,24.484 31.755,24.484 v -0.799 c 3.906,7.464 14.55,18.613 17.305,21.426 l 1.752,-1.677 C 50.64,42.099 50.374,40.891 50.121,39.683 l 1.362,0.031 C 69.161,16.646 52.522,0 52.522,0 44.043,7.839 40.719,15.104 39.93,21.218 32.23,14.659 23.462,14.62 23.462,14.62 22.192,47.068 46.451,47.605 46.451,47.605 z m 4.962,-34.765 0.562,-0.562 c -1.998,6.393 -2.628,17.414 -2.826,23.658 -0.473,-1.528 -1,-2.947 -1.588,-4.261 1.409,-7.894 3.852,-18.835 3.852,-18.835 z"
         id="path3995"
         inkscape:connector-curvature="0" /></g></g><g
     id="g3997"
     transform="translate(0,-63.689001)" /><g
     id="g3999"
     transform="translate(0,-63.689001)" /><g
     id="g4001"
     transform="translate(0,-63.689001)" /><g
     id="g4003"
     transform="translate(0,-63.689001)" /><g
     id="g4005"
     transform="translate(0,-63.689001)" /><g
     id="g4007"
     transform="translate(0,-63.689001)" /><g
     id="g4009"
     transform="translate(0,-63.689001)" /><g
     id="g4011"
     transform="translate(0,-63.689001)" /><g
     id="g4013"
     transform="translate(0,-63.689001)" /><g
     id="g4015"
     transform="translate(0,-63.689001)" /><g
     id="g4017"
     transform="translate(0,-63.689001)" /><g
     id="g4019"
     transform="translate(0,-63.689001)" /><g
     id="g4021"
     transform="translate(0,-63.689001)" /><g
     id="g4023"
     transform="translate(0,-63.689001)" /><g
     id="g4025"
     transform="translate(0,-63.689001)" /></svg>