<?xml version="1.0" standalone="no"?>
<!DOCTYPE svg PUBLIC "-//W3C//DTD SVG 1.1//EN" "http://www.w3.org/Graphics/SVG/1.1/DTD/svg11.dtd">
<svg xmlns="http://www.w3.org/2000/svg">
<metadata>Copyright (C) 2015 by original authors @ fontello.com</metadata>
<defs>
<font id="ciyamiconfont" horiz-adv-x="1000" >
<font-face font-family="ciyamiconfont" font-weight="400" font-stretch="normal" units-per-em="1000" ascent="850" descent="-150" />
<missing-glyph horiz-adv-x="1000" />
<glyph glyph-name="abzar-foroshi" unicode="&#xe800;" d="m281 447c16 0 31 3 46 7l89-88 97 97-89 88c17 54 3 113-36 153-29 28-67 44-107 44-22 0-45-5-65-15-3-1-5-4-5-7-1-4 0-7 3-10l93-93c7-7 11-16 11-26 0-9-4-18-11-25-14-14-38-14-52 0l-93 93c-2 2-6 4-9 3-3-1-6-3-8-6-27-57-15-126 30-171 28-28 66-44 106-44z m474-173c-16 0-31-2-46-7l-98 98-98-97 98-98c-17-53-3-113 37-152 29-29 66-45 106-45 23 0 45 5 66 15 3 2 5 4 5 8 1 3 0 7-3 9l-93 93c-7 7-11 16-11 26 0 10 4 19 11 26 14 13 38 13 51 0l94-94c2-2 6-3 9-3 3 1 6 3 7 6 28 58 16 126-29 171-28 29-66 44-106 44z m-40 222c0 0 16-15 30-8 15 8 57-34 71-44 0 0 0 0 0 0l-7-8c-10-10-10-25 0-35 10-10 25-10 35 0l59 59c10 10 10 25 0 35-10 10-26 10-35 0l-10-10c-8 11-22 31-20 37 7 28-49 93-49 93-140 140-234 137-278 121-18-6-15-10 4-13 135-23 151-103 128-134-8-12 5-26 5-26l4-5-228-228c3-2 6-4 9-6l38-39c3-2 5-5 7-8l228 228 9-9z m-297-188c-9 9-23 9-32 1l-253-227c-9-8-10-21-1-29l69-69c8-9 21-8 29 1l227 253c8 9 8 24-1 32l-38 38z" horiz-adv-x="1000" />
<glyph glyph-name="a-amaken-varzeshi" unicode="&#xe801;" d="m888 104l23 161c-23-8-53-16-90-22-86-15-200-24-321-24-121 0-235 9-321 24-37 6-67 14-90 22l24-161c1-4 4-11 8-15 31-24 97-53 228-67v133c0 13 10 23 24 23h254c13 0 24-10 24-23v-133c131 13 197 42 229 67 4 4 7 10 8 15z m42 293c-3-1-6-2-9-4-23-10-57-18-100-26-86-15-200-24-321-24-121 0-235 9-321 24-43 8-77 16-100 26-3 2-6 3-9 4l15-100c1-1 3-2 6-3 21-9 53-17 93-24 84-15 197-24 316-24 120 0 232 9 316 24 40 7 72 15 93 24 3 1 5 2 7 3l14 100z m-179-13c-67 10-157 15-252 15-95 0-184-5-252-14 74-9 161-14 253-14 91 0 178 5 251 13z m-373-233v-131-26l-15-5-14-5-19-5c-5-2-9-7-9-12v-17c0-5 4-9 10-9h338c6 0 10 4 10 9v17c0 5-4 10-9 12l-19 5-14 5-15 5v26 131h-35v-117h-174v117h-35z m114 401c-15-1-30-7-41-18-12-11-18-25-20-39 17-2 34-9 49-23 14-13 22-30 24-45 15 1 29 7 41 18 11 11 17 24 19 38-16 2-34 10-48 24-14 13-22 30-24 45z m73-61c-1 16-7 31-20 43-12 12-29 18-45 18 2-13 9-28 22-40 13-12 28-19 43-21z m-134-3c1-16 7-31 20-43 12-12 29-18 45-18-2 13-10 28-22 40-13 12-28 19-43 21z m260 235c-19-8-36-19-51-34-15-15-26-32-34-51-7-18-11-38-11-58 0-20 4-39 11-58 8-19 19-36 34-50 15-15 32-26 51-34 18-8 38-11 58-11s39 3 58 11c19 8 36 19 50 34 15 14 26 31 34 50 8 19 11 38 11 58 0 20-3 40-11 58-8 19-19 36-34 51-14 15-31 26-50 34-19 7-38 11-58 11s-40-4-58-11z m-58-207c-7 4-14 10-20 16-9 26-11 54-4 81 2 5 6 11 9 16 1 2 3 3 4 5l34-21c0 0 0 0 0-1 0-18 2-37 6-55 0 0 0 0 0 0l-27-42c0 0-1 0-2 1z m104-72c6-3 12-5 18-7-27-2-54 5-78 18l58-10c1 0 1 0 2-1z m-1 11l-68 12c-8 10-15 20-22 31-1 3-3 6-4 9l27 42c0 0 1-1 2-1 16-4 33-8 51-10 1 0 2 0 2 0l32-56c-5-8-11-16-17-24-1-1-2-2-3-3z m114 24c-5-6-11-11-17-15-1 8-3 16-5 23l34 64c10 5 19 10 27 16 1 1 2 1 3 2-2-33-16-65-42-90z m-1 83c1-3 3-5 4-8l-33-62c-1 0-1 0-1 0-18-3-36-5-54-5l-33 57c5 10 10 20 15 29 3 7 7 13 10 20l69 7c8-13 16-25 23-38z m-14 73c-3-8-7-17-10-25l-67-7c-1 1-2 2-2 3-8 9-16 17-24 26 0 0 0 1 0 1-3 3-6 6-10 9l19 56c1 1 3 1 4 1 10 1 20 2 30 3 6 0 13 0 19 0l46-52c-2-5-3-10-5-15z m15 47c13-13 23-27 30-43-9 6-18 11-27 15-2 1-4 1-5 2l-45 51c0 2 0 4 0 7 17-7 34-18 47-32z m-147 34c0 0 0 0 0 0 10-4 20-9 29-15l-18-52c0 0 0 0 0-1-4-1-7-2-11-4-14-6-28-14-41-22l-35 20c0 1 1 2 1 3 2 6 5 12 7 18 2 5 4 9 7 14 2 1 3 3 5 5 16 16 36 28 56 35 0 0 0-1 0-1z m-485-194c0 0 0 0 0 0l3-16 16-3c0 0 0 0 0 0l-3 16-16 3z m142 122c-62 62-98 30-103 9-3-10-3-15-3-15-9 5-33 11-53-64l-44-54c10-17 21-31 34-45 13-13 28-24 45-34l54 44c17 8 46 12 64 30 37 37 62 73 6 129z m-88-133c-3-3-9-3-13 0-1 1-2 2-2 3l-12 3 3-12c1 0 2-1 3-2 3-4 3-10 0-13-4-4-10-4-14 0-1 1-1 1-2 3l-12 2 2-13c1 0 2-1 3-1 4-4 4-10 0-14-4-3-10-3-13 0-4 4-4 10 0 14 0 0 0 0 0 0l-3 16-16 2c0 0 0 0 0 0-4-3-10-3-13 0-4 4-4 10 0 14 3 3 9 3 13 0 1-1 1-2 2-3l12-2-2 12c-1 0-2 1-3 2-4 3-4 9 0 13 4 4 10 4 13 0 1-1 2-2 2-3l12-2-2 11c-1 1-2 2-3 2-4 4-4 10 0 14 3 3 9 3 13 0 4-4 4-10 0-14l3-15 16-3c4 3 9 3 13 0 4-4 4-10 0-14z m-96 48l-4 5-16-4c0 0 0 0 0 0l10-13 10 12z m-35-18c1 0 2 0 3-1l11 3-7 10c-1 0-2 0-3 1-5 1-8 7-6 12 1 5 6 7 11 6 2-1 3-1 4-2l11 3-7 10c-2-1-3 0-4 0-5 2-8 7-6 12s7 8 12 6c5-2 8-7 6-12l10-13 15 5c1 1 1 2 3 3 8 29 17 44 17 44s-9 26-38 14c34 17 9 42 9 42s30-22 58-34c1 0 3 0 4 0 1 0 1 0 2 0 0 2 1 3 1 5 4 15 18 31 39 34-7 16-24 33-59 44-75 25-96-13-113-64-8-24 2-51 3-70l-15-68c16-11 33-19 51-25 0 0 1 0 2-1-3 4-5 7-7 11l-3 5 9 11-7-2c0 0 0 0 0 0-2-5-7-8-12-6-5 1-8 7-6 11 1 5 7 8 12 6z" horiz-adv-x="1000" />
<glyph glyph-name="a-asb" unicode="&#xe802;" d="m546 526h-6c-1 0-1 0-1 0 2-1 5-1 7-1 1 0 1 1 0 1z m294-426c0 1 0 2 1 1 0 0 0 0 0 0 1-1 1 0 1 1-5 17-14 31-20 47 0 1 0 1 1 1 1-2 2-4 3-5 1-1 2-1 2-1 0 0-1 0-1 1-7 11-13 23-20 34-1 1-1 2 0 2 0 0 1-1 1-1 2-2 3-4 5-6 0-1 1-2 1-2 0 1 0 1 0 2-1 1-1 1-1 2 1 0 1-1 2-1 3-3 6-6 9-10 1 0 1 0 1 0-1 2-2 3-2 4-1 1-1 2-1 2 0 0 1 0 2 0 3-3 7-5 11-8 1-1 1 0 1 1s2 2 1 2c-4 1-8 6-8 6-5 9-13 18-18 27-8 12-13 26-16 40 0 2 0 4-1 6 0 1 0 1 0 0 0 0-1 0-1 1-3 10-7 20-10 30-1 1-1 2-1 2s1-1 1-2c2-3 3-6 4-9 1 0 1-1 1-1 1 0 1 1 0 2 0 0 0 0 0 1-9 17-18 35-27 52-2 4-4 7-7 10-9 8-18 16-26 24-3 3-6 6-9 9-2 1-3 3-5 4-11 8-22 17-31 28-11 15-27 25-43 35-4 2-8 4-12 6-5 3-11 5-16 6-9 2-17 1-26 2-6 1-11 3-17 5-14 5-28 10-41 15-9 3-14 11-21 16 0 1-1 1-1 2 0 1 0 2 0 2 0 0 1 0 2-1 2-1 4-2 7-3 1 0 1 0 0 1 0 1-1 1-2 2 0 1 0 1 0 2 0 0 1 0 1-1 4-1 8-3 11-5 1 0 2 0 2 0 0 0 0 1 0 2-1 0-1 1-2 2 0 1 0 1 1 1 6-3 11-5 16-7 1 0 2 0 2 0 0 0-1 0-2 1-4 2-8 4-13 7-1 0-1 1-1 1 0 0 1 0 2 0 2-1 3-1 5-2 1 0 2 0 2 0 0 0 0 1-1 1-1 1-1 1-1 2-1 0-2 1-2 1 0 0 1 0 2 0 1 0 3 0 4 0 1 0 1 0 0 1 0 0 0 0-1 1 0 0 0 1 1 1 5 2 9-1 14-1 1-1 1 0 1 0-5 4-10 7-14 10-1 1-1 1-1 1 0 0 0 0 1 0l9-4c0 0 1 0 1 0 0 0 0 1-1 1-3 2-7 4-10 6-1 1-1 1-1 2 0 0 1 0 2 0 0-1 1-1 2-1 1 0 1 0 1 1-4 5-10 6-15 10-1 1 0 1 1 1 0 0 1-1 2-1 1 0 1 0 1 0-1 1-1 1-2 1 0 1 0 1 1 1 1 1 2 1 3 1 1 0 1 0 0 0-1 1-3 1-4 2-1 0-1 1-1 1s0 0 1 0c3-1 5-1 7-1 1 0 1 0 2 0 0 1 1 2 0 2 0 1 0 1 0 2-4 1-7 2-10 5-1 0 0 1 1 1 0 0 1 0 2-1 1 0 1 1 0 1 0 0 0 0 0 0-1 1-1 1 0 1 3 2 7 3 10 4 1 1 1 1 1 1 0 0 0 1-1 1-1 0-1 0-1 0-1 0-1 0-1 1 1 1 2 3 3 4 1 1 1 2 0 2 0 1 0 1 0 1 0 1 1 2 2 3 2 0 4 1 6 2 1 0 1 1 0 1-5 0-11 0-16 0-1 0-2 1-2 1 0 0 1 1 1 1 0 0 0 1-1 1-1 0-2 0-3 0 0 1-1 1-1 1s1 1 1 1c2 0 4 0 7 0 1 0 1 0 0 1-4 0-8 1-11 1-1 1-2 1-2 1 0 1 1 1 2 1 0 0 1 0 1 0 1 1 1 1 0 2-6 3-13 7-20 11-1 1-1 1 0 1 6-1 11-2 15 0 1 1 1 1 0 1-1 1-3 1-5 1-1 0-1 1-1 1 0 0-1 1-2 1-2 1-5 1-8 2 0 1-1 1-1 1 0 1 1 1 2 1 2 0 4 1 6 1 1 0 1 0 1 0 0 0 0 1-1 1-3 0-5 0-7 1-1 0-2 0-2 1 0 0 1 0 2 1 1 0 3 0 4 0 1 0 1 1 1 1-1 1-1 1-1 2s1 0 1 1c7 1 13 3 20 4 1 1 1 1 0 1-8-1-10-1-11 0-1 0 0 1 1 2 1 1 3 1 3 4 0 1-1 2-2 2-2 0-4 0-5-1-6 0-7-1-9 4-1 1-1 2 0 2 3 1 6 3 9 4 0 0 1 1 1 1 0 0-1 0-2 0-2-1-4-2-6-2-3-1-6-3-8 1 0 0-1 0-1 0-12 4-24 8-37 12-2 1-4 2-6 3 0 1 0 1 1 1l1 0c0 0 1 0 1 0 0 0 0 1-1 1-3 2-6 4-9 5-1 1-2 1-2 1 0 0 1 1 2 0 0 0 0 0 1 0 1 0 1 0 0 1-7 3-15 6-23 10 0 0-1 1-1 1 0 0 1 1 2 1 2 0 4-1 6-1 1 0 1 0 0 1-1 0-2 0-4 0 0 1-1 1 0 2 4 2 8 3 11 5 1 1 1 1 0 1-5-1-9-2-13-3-1 0-2 0-2 1 0 0 0 1 1 1 0 0 0 1-1 1-2 1-5 2-7 2 0 0 6 2-2 3-8 2-15 5-22 9-6 3-12 6-18 8-8 2-16 4-23 6-3 1-6 2-9 2-4 1-7 1-10 0-1 0-3 1-3 1-1 1-2 2-3 2-15 0-31 0-47-5-3 0-6-2-9-3-1 0-3-1-4 0-3 2-6 5-9 8-1 1-2 2-4 3 0 1-1 1-1 1-1 0-1-1-1-2 0 0 0-1 0-1 1-3 2-6 3-9 2-6 2-6-4-8-3 0-6-1-8-3-2-2-5-2-8-2-2 0-5 0-8 0-8 0-16 1-23 5-1 0-1 0-2 0 0 0-1 0-1-1 0-1 0-1 0-1 4-6 7-10 13-13 3-1 6-3 9-5 6-3 7-7 5-13-3-9-6-18-7-27-1-5 1-10 1-14 1-2 2-4 2-7-1-18-4-37-9-55-1-3-1-6-2-8 0-1 0-2-1-3 0 0 0-1 0-1 0 0 0-1 0-1 0 0 1-1 1-2 0 0 1 0 1-1 0 0 0 0 0 0 1-2 2-3 3-4 1-1 1-2 0-3 0 0-1-1-1-1 0-1-1-1-1-2 0 0 0-1 0-1 0-1 0-1 0-1 0-1 0-2 1-3 3-2 7-3 11-5 1-1 1-2 0-2 0 0-1-1-1-1-1 0-1-1 0-2 4-3 8-2 12-2 2 1 4 0 6 0 1 0 2 0 3 1 3 3 6 3 10 3 6 1 10 8 10 13-1 7 1 13 6 18 4 4 6 11 9 16 1 2 3 3 4 4 3 1 5 0 5-3 2-7 5-14 5-20 0-11-1-21-2-31-2-12-7-21-14-31-7-10-11-22-9-35 1-7 2-15 2-22 0-2-1-4-2-4-21-12-39-27-57-42-2-3-6-5-9-8-8-6-8-15-7-25 1-2 1-4 2-6 6-8 6-17 4-26-4-15-7-29-11-44-1-4-1-8 2-11 4-8 8-16 9-25 2-8 6-14 10-20 4-5 7-10 10-15 3-4 5-5 10-3 3 2 7 5 9 8 6 9 7 19 5 29 0 3-1 5-2 6-6 6-11 11-17 16-4 3-5 8-3 13 1 2 2 5 3 8 0 3 0 7 0 10 0 1 0 2 1 1 5-4 9-8 10-14 2-11 9-16 18-19 18-5 35-10 53-9 8 0 8 0 8 8-1 13-7 23-15 32-1 1-2 2-4 2-4 0-8 0-12-1-1 0-2-1-3-2-2-2-4-4-6-6-1-1-2-1-2 0-1 0-1 1-1 1-3 7-3 7-10 7-6 0-10 3-12 7-6 10-11 20-16 30-1 1 0 4 1 5 1 3 3 5 5 7 2 2 4 2 6 2 16 1 33 1 49 2 15 1 30 3 45 5 2 0 5 1 6 2 4 5 8 5 13 2 9-4 19-9 29-13 14-6 28-11 42-17 27-11 56-15 84-21 6-1 12-2 18-2 3-1 5-2 6-4 1-4 2-8 2-11 0-14 4-26 10-38 3-4 5-8 7-12 3-10 1-18-5-26-13-16-27-29-42-42-5-4-10-8-14-12-1-2-3-4-3-6-1-13-2-25-6-36-2-8 1-16 5-23 3-6 6-12 9-19 0-1 1-1 2-1 4 5 7 8 10 12 7 8 11 17 13 27 1 3 1 6 0 9-1 4-3 8-4 12 0 1 2 4 3 4 5 2 7 6 10 10 5 7 12 14 18 20 7 7 15 13 23 17 10 5 18 11 27 16 2 2 4 4 6 7 0 0 1 1 2 0 7-3 12-9 16-17 7-17 4-32-3-47-7-13-14-26-22-40-4-8-11-13-18-19-2-1-5-3-6-5-9-14-17-30-24-45-2-4-2-6 3-6 6-1 12-1 18-1 9 0 19 3 27 10 6 5 9 11 8 19 0 0 0 1 0 1-1 7 0 12 8 15 7 2 10 7 12 12 8 16 15 32 23 47 6 12 13 24 20 36 5 8 9 15 14 23 5 7 4 14-1 20-6 10-11 19-16 29-5 8-3 17 2 23 14 16 20 36 29 54 1 1 1 3 2 4 0 1 0 1 0 0 0-1 0-2 0-3 1-12 1-25 2-38 0-6-1-12-1-18 1-9 3-17 5-26 0-2 1-4 2-6 0-1 0-1 0 0 0 1 0 2 0 3 0 1 0 1 0 0 3-14 7-28 14-41 1-1 1-1 1 0 0 1-1 1-1 1 0 1 0 1 1 1 4-6 9-11 13-17 1-1 2-1 2 0 0 1 0 1 0 2 0 1 1 1 2 1 2-1 4-2 6-3 2-1 4-3 6-5 1 0 1 0 1 0 0 1 0 1 1 1 0 0 0 0 0 0 10-8 19-17 26-28 4-8 10-14 17-20 2-2 4-5 7-6 1-1 1-1 0 0 0 1-1 2-2 3 0 1 0 2 0 2 0 0 1 0 1-1 2-2 4-4 6-6 0-1 1-1 0 0 0 0 0 0 0 0 0 1 1 1 1 1 5-3 9-6 13-9 1-1 2-1 2 0 0 2 0 3 0 5 0 0 0 1 1 1 0 0 1 0 1-1 1 0 1 0 1 0 0-1 1-2 1-2 0 0 0 1 0 2-1 1-2 3-2 4-1 1-1 2-1 2 1 0 1 0 2-1 1-1 2-3 2-4 1-1 2-1 2-1 0 0 0 1 0 2-1 2-2 5-3 8z" horiz-adv-x="1000" />
<glyph glyph-name="a-razmi" unicode="&#xe803;" d="m724 365c-1 1-1 1-1 2l-105 208-13-6-14 28c-9 17-29 24-45 15-17-8-23-28-15-45l14-28-9-5 50-99h-151c-7 0-14-1-21-2-54 72-115 142-187 213l-6 6-10-10-24 21c-14 12-35 11-47-3-12-14-11-35 3-48l20-18-12-12 5-6c81-81 145-156 199-229 1-2 2-4 3-5 1-3 1-6 2-8 0-2 0-4 0-6v-280h18l0-27c0-19 15-34 34-34 18 0 33 16 33 34l0 27h15v196c0-1 1-1 1-1 1-1 1-1 1-1 2-5 3-10 4-15 4-13 18-21 31-17 13 3 21 17 18 31-1 0-1 1-1 1 7-4 14-9 20-16 21-24 56 11 35 35-5 6-11 11-17 16h88c8 0 15 1 22 3l11-23-10 3-3-9-28 10c-17 6-36-4-42-21-6-17 3-37 20-43l30-10-4-14 108-33c17-5 36 0 48 14 11 13 14 33 7 49l-75 162z m-264-120v0c0 0 0 0 0-1 0 1 0 1 0 1z m319-81c-7-8-20-12-30-8l-92 28 17 56 29-9-32 69-7-2c-7-3-15-5-24-5h-116c-13 7-25 12-38 19 0 1-1 1-2 1-9 35-18 69-26 104-1 0-1 1-1 1h156l-55 109 52 26 98-194c0 0 0-1 1-1l75-162c4-11 3-23-5-32z m16 332c40 0 74-33 74-74 0-41-34-74-74-74-41 0-75 33-75 74 0 41 34 74 75 74z" horiz-adv-x="1000" />
<glyph glyph-name="a-basketball" unicode="&#xe804;" d="m539 660c9 11 8 36 6 57 0 1 0 2 0 3-12 1-24 2-37 2-48 0-94-9-136-25 30-14 77-39 129-76 18 15 31 29 38 39z m195-220c-19-2-35-5-48-9 65-115 91-259 97-363 65 66 106 155 110 254-45 55-104 124-159 118z m-388 99c45 9 89 32 123 57-72 49-132 75-144 80-74-40-134-105-168-182 45 18 94 27 141 36 16 3 32 6 48 9z m266-11c4-5 8-9 12-13 15-16 28-33 41-51 18 7 39 11 65 14 60 7 114-41 160-93-10 80-44 152-95 209-28-4-59-9-90-19-21-6-54-23-93-47z m-51-199c16 53 34 92 69 117-10 15-22 29-34 42-6 6-12 12-17 18-143-97-337-275-355-429 59-64 140-109 231-121 33 66 64 200 83 280 9 38 17 71 23 93z m-161 85c49 45 102 86 150 119-16 14-32 27-48 39-40-30-92-59-149-71-16-3-32-6-47-9-61-11-119-22-168-50-10-33-15-68-15-105 0-82 26-157 69-220 29 112 125 220 208 297z m183 141c45 29 85 49 111 57 23 7 45 12 66 16-49 43-109 73-176 86 2-27 2-56-14-77-8-11-21-25-38-40 17-13 34-27 51-42z m15-237c-6-20-14-53-23-91-25-111-50-211-79-275 4 0 8 0 12 0 90 0 172 31 238 82-3 110-29 264-95 379-26-19-39-49-53-95z" horiz-adv-x="1000" />
<glyph glyph-name="a-biliard" unicode="&#xe805;" d="m501 734c-210 0-381-171-381-381 0-210 171-381 381-381 210 0 380 171 380 381 0 210-170 381-380 381z m0-599c-120 0-218 97-218 217 0 120 98 218 218 218 120 0 217-98 217-218 0-120-97-217-217-217z m46 228v1c32 16 45 42 45 67 0 36-28 74-92 74-56 0-98-33-98-80 0-26 14-51 44-65v-2c-33-15-55-40-55-76 0-41 36-81 105-81 63 0 107 36 107 88 0 37-24 62-56 74z m-50 104c30 0 42-22 42-42 0-22-16-38-36-44-28 7-48 22-48 46 0 21 14 40 42 40z m1-226c-32 0-51 22-50 48 0 23 16 43 44 51 33-9 54-26 54-56 0-25-19-43-48-43z" horiz-adv-x="1000" />
<glyph glyph-name="ard-foroshi" unicode="&#xe806;" d="m829 737l-658 0 0 77 658 0 0-77z m40-99l0-686c0-37-30-66-66-66l-606 0c-36 0-65 29-65 66l0 686c0 37 29 66 65 66l606 0c36 0 66-29 66-66z m-283-201c55-55 113 119 113 119-18-5-167-65-113-119z m-88-27c23-23 80-4 50 77-27 71 12 102 12 102-19-6-113-127-62-179z m-74-74c23-23 80-4 50 76-27 72 12 103 12 103-19-6-114-127-62-179z m-75-128c-9 10-12 24-18 18l-61-75c-7-7 11-36 25-22l72 61c6 6-8 8-18 18z m48 128c-26 72 13 103 13 103-19-6-114-127-62-179 23-23 80-4 49 76z m184-69c0 0-31-39-102-12-80 30-99-27-76-50 51-51 172 43 178 62z m77 76c0 0-31-39-103-12-80 31-99-27-76-50 51-51 172 44 179 62z m74 74c0 0-32-39-103-12-80 30-99-27-76-50 51-51 172 44 179 62z" horiz-adv-x="1000" />
<glyph glyph-name="a-bowling" unicode="&#xe807;" d="m351 465h-111c0 0-74-139-74-257 0-63 27-168 27-168 20-77 33-71 106-71 67 0 86-6 101 71 0 0 23 103 23 168 0 129-72 257-72 257z m-5 86c0 0 18 59 18 95s-18 91-67 91-72-54-72-90 19-96 19-96h102z m-4-56v30h-94v-30h94l0 0z m272-54c-122 0-221-99-221-221 0-122 99-221 221-221 122 0 221 99 221 221 0 122-99 221-221 221z m-32-168c-15 0-27 12-27 27 0 14 12 26 27 26s26-12 26-26c0-15-11-27-26-27z m44 85c0 15 12 27 27 27s26-12 26-27c0-14-12-26-26-26s-27 12-27 26z m50-129c-19 0-35 16-35 35 0 20 16 36 35 36 20 0 36-16 36-36-1-19-16-35-36-35z" horiz-adv-x="1000" />
<glyph glyph-name="a-badansazi" unicode="&#xe808;" d="m870 150c-9 0-12-14-12-31v-31c0-18 3-32 12-32 8 0 12 14 12 32h23v31h-23c0 17-4 31-12 31z m-60 48c-15 0-15-14-15-32v-47h-158v47c0 18 0 32-15 32-18 0-32-14-32-32v-126c0-17 14-31 32-31 15 0 15 14 15 31v48h158v-48c0-17 0-31 15-31 18 0 32 14 32 31v126c0 18-14 32-32 32z m-248-48c9 0 13-14 13-31v-31c0-18-4-32-13-32-8 0-12 14-12 32h-23v31h23c0 17 4 31 12 31z m-124 0c-9 0-12-14-12-31v-31c0-18 3-32 12-32 8 0 12 14 12 32h23v31h-23c0 17-4 31-12 31z m-60 48c-15 0-15-14-15-32v-47h-158v47c0 18 0 32-15 32-18 0-32-14-32-32v-126c0-17 14-31 32-31 15 0 15 14 15 31v48h158v-48c0-17 0-31 15-31 18 0 32 14 32 31v126c0 18-14 32-32 32z m-248-48c9 0 13-14 13-31v-31c0-18-4-32-13-32-8 0-12 14-12 32h-23v31h23c0 17 4 31 12 31z m732 426c-20 0-28-34-28-74v-74c0-41 8-75 28-75 21 0 29 34 29 75h54v74h-54c0 40-8 74-29 74z m-139 111c-37 0-37-33-37-74v-111h-371v111c0 41 0 74-37 74-41 0-75-33-75-74v-297c0-41 34-74 75-74 37 0 37 34 37 74v112h371v-112c0-41 0-74 37-74 40 0 74 34 74 74v297c0 41-34 74-74 74z m-585-111c20 0 28-34 28-74v-74c0-41-8-75-28-75-21 0-29 34-29 75h-54v74h54c0 40 8 74 29 74z" horiz-adv-x="1000" />
<glyph glyph-name="atash-neshani" unicode="&#xe809;" d="m425-47c-3 32 0 69-1 103-54 6-81-3-130 1-54 6-101 44-112 103-7 39-3 86-3 131 0 91 0 176 0 267 0 48 7 82 25 108 22 31 54 53 103 55 106 6 206 0 314 0 35 0 76 3 102-4 57-15 93-55 99-114 7-60 1-135 1-210 0-64 4-147-1-212-5-60-38-105-92-120-34-9-74-4-112-4-18 0-38 0-58 0-19 0-42 4-57 0-16-3-37-31-46-44-15-20-22-36-32-60z m-96 609c1-115-2-235 1-348 32 0 63 0 94 0-2 80-2 147 30 189 21 28 52 47 76 71 26 26 42 54 58 90 0-117 0-234 0-350 28 0 56 0 84 0 3 114 1 234 2 351-112 3-230 0-344 1-1 0-1-2-1-4z" horiz-adv-x="1000" />
<glyph glyph-name="a-carting" unicode="&#xe80a;" d="m957 83c10 33 8 60-7 82-29 41-92 46-104 47l-24 13-2 1c-26 7-125 10-140 11-23 11-43 22-60 31-60 34-100 56-214 56-138 0-251-60-266-68-8-1-16-1-22-2l-19 26 21-3c9 0 13 4 9 11-4 6-14 12-22 13l-70 7c-9 1-13-3-9-10 3-6 13-12 22-13l11-1 24-33c-41-4-41-6-41-13 0-53-7-66-8-68l-12 9v-56l7-9c0-8 3-15 8-21 17-20 58-21 62-21 14 0 42 7 61 12-1 3-2 5-3 7-1 3-2 5-3 8-2 7-4 15-4 23 0 41 34 75 75 75 41 0 75-34 75-75 0-18-7-34-17-47-2-3-5-5-7-8-3-3-6-5-10-8 86 0 330-1 495-5-2 3-4 5-6 8-2 3-4 5-5 8-7 11-11 23-11 37 0 41 34 75 75 75s75-34 75-75c0-15-4-29-12-41-2-2-4-5-6-7-2-3-5-6-7-8 15 0 28-1 39-1 58 0 69 5 70 15 1 3 2 11-18 18z m-58 593c-6 46-149 17-149 17l-14-43-102-15c-13 21-28 39-44 50-64 40-171-33-171-33s111 118 30 80c-254-130-152-152-152-152h72l-12-18c-11 5-24 7-37 7-51 0-93-41-93-92 0-51 42-93 93-93s93 42 93 93c0 28-13 54-34 71l10 16 40-110h59 8 180 22c10-40 46-70 89-70 52 0 93 42 93 93 0 51-41 92-93 92-46 0-85-34-91-79h-1c0 0-8 29-23 66 49 16 233 80 227 120z m-579-258c-32 0-58 27-58 59 0 32 26 58 58 58 7 0 13-1 19-3l-30-49 22-13 30 48c11-10 17-25 17-41 0-32-26-59-58-59z m116 50l-34 103 14 5 34-103-14-5z m351 67c33 0 59-26 59-58 0-32-26-58-59-58-24 0-44 14-53 35h71v36h-74c6 26 29 45 56 45z" horiz-adv-x="1000" />
<glyph glyph-name="arayesh-zanane" unicode="&#xe80b;" d="m359 303c23-4 80 131 84 134 4 3 86-4 75 40-25-21-36 1-35 18 1 16 22 51 27 49 6-2 15-22 35-4-30-3-23 41-13 46 9 6 45 22 56 32 10 10 11 42 32 35 21-7 6-53 12-68 6-15 64-64 63-79-1-16-25-13-24-34 0-9 15-16 15-26 0-10-16-18-16-18 0 0 14-3 11-19-3-15-21-10-27-14-3-1 28-35 5-61-21-24-125 2-145-6-38-15-69-66-48-90 20-24 92-102 111-167 32-84-46-232-90-125-62-42 67-195 250 36 139 188 71 530 30 606-42 77-234 343-440 225-256-140-134-479 32-510z" horiz-adv-x="1000" />
<glyph glyph-name="acvarium" unicode="&#xe80c;" d="m905-2c-4 19-63 45-63 45-23-3-37 15-37 15-13 14-20-4-20-4-11-21-58-33-58-33-32-40-35-29-35-29-13 35 64 158 64 158-99 190-396 335-396 335 2 12 26 32 26 32l-5 10c-36 3-69-142-69-142-40 29-36 136-36 136-22 16-102 40-138 42-26 2-37 5-44 14-27 36 63 51 63 51 87 153 326 42 326 42 72 58 137 35 137 35 49-15 19-20 19-20-51-15-56-76-56-76 223-168 210-408 210-408 2-21 0-41 0-41 78-47 107-116 107-116 21-51 5-46 5-46z m-551 260c-125-59-226-20-226-25 0-22 101-84 226-25 124 59 225 20 225 25 0 22-101 84-225 25z m0-107c-125-59-226-20-226-25 0-22 101-84 226-25 124 59 225 20 225 25 0 22-101 84-225 25z" horiz-adv-x="1000" />
<glyph glyph-name="arayesh-mardaneh" unicode="&#xe80d;" d="m779-5c0 0-43 83-58 150-19 95 141 226 51 330-15 13 30 85 19 104-7-21-32-55-32-55 0 0-1 102-21 124 5-40 2-81 2-81 0 0-31 87-61 100 31-31 30-78 30-78 0 0-51 97-122 95 52-28 65-68 65-68 0 0-336 46-275 175-48-12-48-142-48-142 0 0-46 78 31 177-161-101-99-283-99-283 0 0-34 3-53 131-35-157 64-239 64-239 0 0-39-69-17-102 22-33-29-106-28-130 0-24 38-21 38-21 0 0-15-39 17-44-7-2-20-28 16-42-10-3-32-131 124-50 58-30 90-172 90-172l267 121z" horiz-adv-x="1000" />
<glyph glyph-name="ash" unicode="&#xe80e;" d="m520 610c-36 55 112 132 18 191-21 14-45-18-22-33 52-32-85-95-29-182 15-22 47 1 33 24z m104 0c-36 56 113 132 19 191-12 8-27 1-31-12-9-32 51-10-2-83-29-39-44-79-18-120 14-22 46 2 32 24z m-210 0c-35 56 113 132 19 191-21 14-45-18-22-33 51-32-85-95-29-182 14-22 47 1 32 24z m79-287c225 0 343 57 343 105 0 55-149 107-336 105-187 2-336-50-336-105 0-51 132-105 329-105z m4 181c1 0 1 0 2 0l0 0c0 0 1 0 1 0 0 0 1 0 1 0l0 0c1 0 1 0 2 0 141 0 285-24 285-72 0-62-223-74-287-73l0 0c0 0-2 0-2 0l0 0c-66-1-286 12-286 73 0 48 143 72 284 72z m-203-107l1 70c-43-10-66-24-66-35 0-11 23-24 65-35z m98 86c-24-2-46-5-65-8l-1-85c19-4 40-7 64-9l2 102z m96 5c-22 0-44-1-64-2l-1-108c20-1 41-2 64-2l1 112z m356-90c0 1-1 2-1 3-48-76-247-95-342-94l0 0c0 0-2 0-2 0l0 0c-121-2-299 25-342 94 0-1-1-2-1-3-37-8-53-26-52-55 1-24 32-46 73-58 26-64 74-116 135-150l-88-206c-5-12 0-26 13-32 3-1 6-2 9-2 9 0 18 6 22 15l88 204c84-32 197-35 288 0l88-204c4-9 13-15 22-15 3 0 6 1 10 2 12 6 18 20 12 32l-88 206c61 34 109 86 135 150 41 12 72 34 73 58 1 29-15 47-52 55z m-699-59c-1 13 1 21 13 26 1-17 5-32 9-47-14 5-22 12-22 21z m688-21c5 15 8 30 9 47 12-5 14-13 13-26 0-9-8-16-22-21z m-62 114c0 11-23 25-66 35l1-70c42 11 65 24 65 35z m-97-42l-1 85c-19 3-41 6-65 8l2-102c24 2 45 5 64 9z m-96-12l-2 108c-20 1-41 2-64 2l1-112c23 0 44 1 65 2z" horiz-adv-x="1000" />
<glyph glyph-name="a-football" unicode="&#xe80f;" d="m367 689c-44-18-83-44-117-78-34-34-60-73-78-117-17-43-26-88-26-134 0-45 9-90 26-133 18-44 44-83 78-117 34-34 73-60 117-78 42-17 87-26 133-26 46 0 91 9 133 26 44 18 84 44 117 78 34 34 60 73 78 117 17 43 26 88 26 133 0 46-9 91-26 134-18 44-44 83-78 117-33 34-73 60-117 78-42 17-87 26-133 26-46 0-91-9-133-26z m-133-478c-17 11-32 23-46 38-21 60-25 125-11 186 7 13 14 26 23 38 2 3 5 7 8 11l79-48c0 0 0-1 0-2 0-42 5-85 13-127 0 0 0 0 0-1l-62-97c-1 1-2 2-4 2z m238-164c14-7 28-13 43-18-62-2-125 12-180 44l134-24c1-1 2-1 3-2z m0 24l-158 29c-19 22-36 46-50 71-4 7-8 13-11 20l62 97c2-1 3-1 5-1 39-11 78-18 118-24 2 0 4-1 6-1l74-128c-13-18-26-36-39-54-3-3-5-6-7-9z m263 55c-13-13-26-24-40-34-3 19-7 37-12 54l79 148c22 10 43 21 62 35 3 2 5 4 7 6-6-76-38-151-96-209z m-4 192c3-6 6-12 9-17l-77-143c0 0-1 0-1 0-41-8-83-12-125-12l-76 132c12 22 23 44 35 66 8 15 16 30 23 45l158 16c20-28 38-57 54-87z m-32 169c-8-20-16-40-23-59l-154-16c-2 2-4 5-6 7-18 21-37 41-55 62 0 0 0 0 1 0-8 8-15 15-22 22l42 129c3 1 6 2 9 2 24 2 47 5 70 6 15 1 29 2 43 1l106-120c-3-11-7-23-11-34z m36 108c29-29 51-63 67-98-19 13-41 25-63 34-3 1-7 2-10 4l-105 117c1 5 1 10 1 15 40-16 77-40 110-72z m-341 79c0-1 0-1 1-1 24-8 45-20 66-35l-40-120c-1 0-1 0-1-1-8-3-16-6-25-10-33-15-65-31-96-51l-79 46c1 3 1 5 2 7 5 15 10 29 16 43 5 10 10 21 16 31 4 4 8 8 12 12 37 37 81 64 129 80-1-1-1-1-1-1z" horiz-adv-x="1000" />
<glyph glyph-name="a-golf" unicode="&#xe810;" d="m377 418l367 158-395 169v-183-494h28v350z m99-209c-26 0-48 0-71-3v-90c17-9 28-20 28-34 0-23-31-42-70-42-40 0-71 19-71 42 0 14 11 25 28 34v79c-101-23-169-62-169-113 0-71 144-127 325-127 180 0 324 56 324 127 0 71-144 127-324 127z m112-141c-22 0-42 11-42 28s20 28 42 28 43-11 43-28-20-28-43-28z" horiz-adv-x="1000" />
<glyph glyph-name="a-pist" unicode="&#xe811;" d="m957 83c10 33 8 60-7 82-29 41-92 46-104 47l-24 13-2 1c-26 7-125 10-140 11-23 11-43 22-60 31-60 34-100 56-214 56-138 0-251-60-266-68-8-1-16-1-22-2l-19 26 21-3c9 0 13 4 9 11-4 6-14 12-22 13l-70 7c-9 1-13-3-9-10 3-6 13-12 22-13l11-1 24-33c-41-4-41-6-41-13 0-53-7-66-8-68l-12 9v-56l7-9c0-8 3-15 8-21 17-20 58-21 62-21 14 0 42 7 61 12-1 3-2 5-3 7-1 3-2 5-3 8-2 7-4 15-4 23 0 41 34 75 75 75 41 0 75-34 75-75 0-18-7-34-17-47-2-3-5-5-7-8-3-3-6-5-10-8 86 0 330-1 495-5-2 3-4 5-6 8-2 3-4 5-5 8-7 11-11 23-11 37 0 41 34 75 75 75s75-34 75-75c0-15-4-29-12-41-2-2-4-5-6-7-2-3-5-6-7-8 15 0 28-1 39-1 58 0 69 5 70 15 1 3 2 11-18 18z m-58 593c-6 46-149 17-149 17l-14-43-102-15c-13 21-28 39-44 50-64 40-171-33-171-33s111 118 30 80c-254-130-152-152-152-152h72l-12-18c-11 5-24 7-37 7-51 0-93-41-93-92 0-51 42-93 93-93s93 42 93 93c0 28-13 54-34 71l10 16 40-110h59 8 180 22c10-40 46-70 89-70 52 0 93 42 93 93 0 51-41 92-93 92-46 0-85-34-91-79h-1c0 0-8 29-23 66 49 16 233 80 227 120z m-579-258c-32 0-58 27-58 59 0 32 26 58 58 58 7 0 13-1 19-3l-30-49 22-13 30 48c11-10 17-25 17-41 0-32-26-59-58-59z m116 50l-34 103 14 5 34-103-14-5z m351 67c33 0 59-26 59-58 0-32-26-58-59-58-24 0-44 14-53 35h71v36h-74c6 26 29 45 56 45z" horiz-adv-x="1000" />
<glyph glyph-name="airport" unicode="&#xe812;" d="m984 497c0-167-807-351-868-351-34 0-73 8-73 39 0 11 12 26 33 45l0 0-56 100c-8 14-2 31 12 37l10 3c18 7 38 6 55-2l102-55c40 24 86 49 134 73l-201 130c-16 10-15 33 1 43l16 11c27 17 60 22 92 14l333-88c104 41 198 69 254 69 14 0 29 0 44-1l-101-46-2-33 155 71c37-9 60-26 60-59z m-406-288l125-141c7-8 20-11 30-6l17 8c30 14 48 46 44 79l-16 133c-1 8-9 13-17 10l-177-62c-9-3-12-14-6-21z" horiz-adv-x="1000" />
<glyph glyph-name="asal" unicode="&#xe813;" d="m897 393l-65 268c-3 13-14 21-27 21l-622 1 0 0c-13 0-24-9-27-21l-57-245c-2-9 0-18 7-24 6-7 15-10 24-9 0 0 9 2 22 3l0-388c0-74 60-135 135-135l395 0c74 0 135 61 135 135l0 413c16-9 24-23 28-34l3-15c4-14 17-23 31-20 14 2 24 15 23 29-1 2-2 10-5 21z m-562-403l-66 58 18 87 83 28 66-59-17-86-84-28z m39 209l19 94 90 30 71-63-19-93-90-31-71 63z m229-200l-83-28-66 59 17 86 84 28 66-58-18-87z m120 138l-84-28-66 59 18 86 83 28 66-59-17-86z m89 334c-8 2-17 3-26 3-44 0-86-22-127-45-23-12-44-23-63-29-8-2-18-4-29-4-43 0-87 21-88 21-3 2-7 3-11 3-5 0-9-1-12-3-1 0-34-15-68-15-18 0-34 4-45 13-27 20-70 30-129 30-20 0-38-1-54-2l44 186 580-1 39-160c-3 1-7 2-11 3z m-591 225l527 0c38 0 69 31 69 70 0 38-31 70-69 70l-527 0c-39 0-70-32-70-70 0-39 31-70 70-70z" horiz-adv-x="1000" />
<glyph glyph-name="bank-ayandeh" unicode="&#xe814;" d="m128 752c250-2 506 3 752-2 0-87 0-173 0-259-5-8-10-15-15-22-8-5-6-20-15-23-8-15-20-28-29-42-15-5-26-15-37-24-14 1-18-7-28-10-33-4-55 5-83 7-11 9-25 13-37 20-11-2-10 8-18 10-12-3-6 11-19 7-11 9-23 16-37 20-9 9-20 16-32 22-5 5-12 8-20 10-2 8-11 7-15 12-6 3-12 7-17 10-12-2-8 10-20 8-7 2-9 10-20 10-5 3-8 9-19 7-8 11-28 8-37 17-23 1-42 5-62 8-13-3-25-6-39-8-12 1-11-11-22-10-7-3-14-6-20-10-14-8-25-19-35-32-13-7-20-22-32-32-8-13-19-23-24-39-4-7-11-11-13-20-2-3-4-7-7-10 2-4-5-10-5-5-4 79-3 190-3 284 0 32 2 63 0 89 2 3 4 6 8 7z m737-500c-9-2-7-15-15-18-9-12-19-23-27-37-23-20-43-44-71-59-11 1-14-6-23-7-26 0-52 0-78 0-22 10-43 21-65 32-19 13-44 21-61 37-21 12-42 24-62 37-10 6-24 9-32 17-13 3-24 9-32 17-16-1-22 8-34 10-30-3-46 8-74 5-8-5-21-5-35-5-6-6-19-7-22-17-17 3-16-12-27-15-17-11-33-23-49-34-6-8-13-14-18-22-3-4-7-6-7-13-6 0-10-3-10-10-4-70-3-171 0-234 61 0 124 0 187 0 62 0 125-1 185 0 129 2 257-1 382 0 6 105 1 220 3 328-7 5-12-7-15-12z" horiz-adv-x="1000" />
<glyph glyph-name="ajans-mosaferbari" unicode="&#xe815;" d="m534 348v-423c-37 3-66 24-66 50v323c0 26 29 48 66 50z m13-423h6v423h-6v-423z m322 0h7v423h-7v-423z m19 423v-423c37 3 66 24 66 50v323c0 26-29 48-66 50z m-56 0h16v-423h-12v-11h-33v11h-184v-11h-33v11h-12v423h16v67c0 7 9 13 19 13h205c10 0 18-6 18-13v-67l0 0z m-60-111c16 0 29 9 29 20 0 11-13 19-29 19-15 0-28-8-28-19 0-11 13-20 28-20z m-42 18l-57-15 32-56 57 15-32 56z m-103 93h169v55h-169v-55z m-7-144l35-5 7 24-34 5-8-24z m18-59c0-20 17-37 39-37 22 0 40 17 40 37 0 21-18 38-40 38-22 0-39-17-39-38z m76-47h-81v-66h81v66z m99 79h-81v-50h81v50z m72 568c0-102-708-215-762-215-30 0-64 5-64 24 0 6 11 16 30 27h0l-50 61c-7 9-2 19 11 23l9 2c15 4 33 4 47-2l91-33c35 15 75 30 117 45l-176 79c-14 6-14 20 0 26l14 7c24 10 53 13 81 8l292-53c91 25 174 42 223 42 13 0 26 0 38-1l-88-28-2-20 136 43c33-5 53-15 53-35z m-356-177l109-86c7-5 18-6 27-4l14 5c27 9 43 28 39 49l-13 81c-1 5-9 8-15 6l-156-38c-8-2-10-8-5-13z m-439-387c0 8 0 16 1 24 0 3 0 6 1 9 0 4 0 7 1 11 0 2 1 4 1 6l2 18c1 3 2 7 3 11 2 7 4 15 6 21l5 16c0 1 1 3 1 4 2 4 3 7 4 10 2 4 3 7 5 10 2 6 5 12 7 18l14 24c2 5 6 9 9 14l4 7c3 5 7 10 11 14l13 18c5 5 9 9 13 13 1 1 2 2 3 3l7-9c-1-1-2-2-3-3-4-4-8-8-13-13l0 0-13-15c-4-5-8-9-12-15l-13-18 0-1-14-22c-3-6-6-11-8-17-2-3-3-6-5-9-2-4-3-8-4-11-1-1-1-3-2-4l-5-15c-3-7-5-13-7-20-1-4-2-8-3-12l0-1-3-16c-1-2-1-4-1-5-1-4-2-9-2-14-1-2-1-5-1-8-1-7-2-15-2-23z m104 267c0 0-2-2-6-6-4-5-10-11-17-19-4-4-8-9-12-15-5-5-9-11-14-18-4-6-9-13-13-21-5-8-9-16-14-25-4-8-8-18-12-28-3-5-4-10-6-15-2-5-3-11-5-16-4-11-6-22-9-34-1-6-2-12-3-18 0-6-2-12-2-18-1-13-2-26-1-38 0-7 0-13 1-20 0-6 1-13 2-19 0-4 1-7 1-10l3-10c1-6 2-13 4-19l6-19c1-3 2-6 4-10l4-9c3-6 5-12 8-18l10-17c3-5 7-11 11-16 4-5 8-10 12-15 4-5 9-9 13-14 4-4 9-8 14-13 9-8 19-15 29-21 20-13 40-22 61-28 20-6 40-9 58-11 9 0 18-1 26 0 4 0 8 0 12 0 4 1 8 1 11 2 3 0 6 0 9 0 0 0 1 1 2 1 3 0 6 1 10 2 3 0 6 1 9 1 2 1 5 2 8 2 5 2 9 3 13 4 4 1 7 2 10 3 5 2 8 3 8 3s-3-1-8-3c-3 0-6-1-10-2-4-2-9-2-14-3-2-1-5-1-8-2-3 0-6-1-9-1-3-1-6-1-10-2-3 0-6 0-10 0-4-1-7-1-11-1-4 0-8 0-12 0-8 0-17 1-26 2-18 2-37 6-56 12-20 7-39 17-58 30-9 6-18 14-27 22-4 4-8 8-12 12-4 5-8 10-12 15-14 19-28 40-36 63l-4 9c-1 3-2 6-3 9l-5 18c-1 6-2 12-3 18l-2 9c-1 3-1 6-1 9 0 6-1 12-1 18-1 6 0 12 0 18-1 12 1 24 2 35 0 6 2 12 3 17 1 6 2 11 3 17 3 10 6 21 9 31 2 5 4 10 6 14 2 5 3 10 6 14 4 9 8 18 12 26 5 7 9 15 13 22 5 6 10 13 14 19 4 6 8 11 12 15 4 5 8 9 11 13 8 8 14 13 18 17 4 4 6 7 6 7l-22 25 0 0z m245-522l0 0 0 0z" horiz-adv-x="1000" />
<glyph glyph-name="a-pingpong" unicode="&#xe816;" d="m232 539c-42 0-76 34-76 76 0 41 34 75 76 75 41 0 75-34 75-75 0-42-33-76-75-76z m572 42c-133 130-303 85-412-24-39-39-63-88-73-139l321-321c52 9 100 36 140 75 109 106 154 279 24 409z m-469-315c0-9 12-63-10-84-45-43-105-85-127-106-24-22-15-52 15-82s61-40 85-21c21 24 61 81 106 127 18 18 70 12 82 9 30-12 64-18 97-18l-270 269c0-33 6-63 22-94z" horiz-adv-x="1000" />
<glyph glyph-name="bank-eghtesadenovin" unicode="&#xe817;" d="m235 726c86 10 161-58 152-150-8-78-86-145-181-117-81 25-118 131-73 206 16 28 53 55 102 61z m143-727c28 0 56 0 85 0 49 241 102 479 149 722-20-1-53 0-79 0-54-239-103-482-155-722z m115 7c126 240 258 474 383 715-78 0-157 0-235 0-51-236-103-479-148-715z m-368-7c75 0 151 0 226 0 49 231 103 466 146 696-124-232-249-463-372-696z m487 121c6-53 45-96 89-112 82-29 178 23 186 119 4 55-26 97-47 116-24 19-64 35-107 30-72-8-130-68-121-153z" horiz-adv-x="1000" />
<glyph glyph-name="a-paintball" unicode="&#xe818;" d="m500 395c25 0 44-20 44-44 0-25-19-45-44-45-24 0-44 20-44 45 0 24 20 44 44 44z m-14-374h29c12 0 21 9 21 22v37c24 3 48 9 70 19 33 14 62 33 87 58 25 25 45 54 58 87 10 22 16 46 19 70h38c12 0 21 9 21 21v30c0 12-9 21-21 21h-38c-3 24-9 48-19 70-13 33-33 62-58 87s-54 45-87 58c-22 10-46 16-70 19v38c0 12-9 21-21 21h-29c-13 0-22-9-22-21v-38c-24-3-48-9-70-19-33-13-62-33-87-58s-44-54-58-87c-10-22-16-46-19-70h-37c-13 0-22-9-22-21v-29c0-13 9-22 22-22h37c3-24 9-48 19-70 14-33 33-62 58-87 25-25 54-44 87-58 22-10 46-16 70-19v-37c0-13 9-22 22-22z m-127 188c-29 29-48 65-56 105h32c12 0 22 9 22 21v30c0 12-10 21-22 21h-32c8 40 27 76 56 105 29 30 65 49 105 56v-32c0-12 9-22 22-22h29c12 0 21 10 21 22v32c40-7 76-26 105-56 30-29 49-65 56-105h-32c-12 0-22-9-22-21v-29c0-13 10-22 22-22h32c-7-40-26-76-55-105-30-29-66-48-106-56v32c0 12-9 22-21 22h-29c-12 0-22-10-22-22v-32c-40 8-76 27-105 56z" horiz-adv-x="1000" />
<glyph glyph-name="a-lavazem-shekar" unicode="&#xe819;" d="m901 183c0-88-74-163-162-163s-162 75-162 163c0 28 14 83 60 116l42-112-47 28c-32-93 42-157 107-157 65 0 102 55 102 125 0 102-115 183-124 354-14 8-24 23-24 40 0 25 21 46 46 46 26 0 46-21 46-46 0-13-5-24-13-32 7-172 129-254 129-362z m-642-48v-46l51 29c18-4 36-6 52-6 32 0 64 6 96 18 33 12 57 25 73 38 17 12 25 21 25 26 0 4-6 10-19 21-12 10-31 21-56 33-25 12-51 20-78 24l-98 50v-54c-42-12-81-31-116-57l-81 57c-3 2-5 3-7 2-1-1-2-3-2-6 2-4 4-8 7-13 3-6 6-15 11-27s6-24 6-32c0-8-2-18-6-29-4-12-8-21-12-28l-6-12c0-3 1-5 3-6 2-1 4 0 6 2l80 57c3-2 27-16 71-41z m194 84c5 4 10 7 17 7 6 0 11-3 16-7 5-5 7-10 7-17s-2-11-7-16c-5-5-10-7-16-7-7 0-12 2-17 7-4 5-7 10-7 16s3 12 7 17z" horiz-adv-x="1000" />
<glyph glyph-name="a-tennis" unicode="&#xe81a;" d="m475 605c-59-5-117-31-162-76-45-45-71-103-76-162 65-8 134-41 190-98 57-56 90-125 98-190 59 5 117 31 162 76 45 45 71 103 76 162-65 8-134 41-190 98-57 56-90 125-98 190z m289-255c-2 65-27 129-77 179-50 50-114 75-179 77 7-57 37-118 88-168 51-51 111-81 168-88z m-528-16c2-65 28-129 77-179 50-50 114-75 179-77-7 56-37 117-88 168-50 51-111 81-168 88z" horiz-adv-x="1000" />
<glyph glyph-name="a-lavazem-varzeshi" unicode="&#xe81b;" d="m594 174l-14 5 7 21c-6 2-12 5-17 8l-10-17-13 7 10 18c-7 4-13 10-19 15l-14-14-10 11 14 14c-5 6-10 12-14 19l-19-9-6 14 18 8c-3 5-5 11-7 16l-24-6-3 15 23 6c0 2 0 5-1 8-25-2-49-13-68-32-19-19-29-43-32-68 4 0 8-1 13-2l8 24 14-5-8-23c6-2 11-5 17-8l11 20 13-8-11-19c7-5 13-10 19-15l15 15 10-11-15-15c5-6 10-12 14-18l20 9 6-13-18-9c2-5 5-10 7-16l24 6 4-15-24-5c1-4 2-8 2-12 25 2 49 13 68 32 19 19 29 43 32 68-5 0-10 1-14 2l-8-21z m-85 140c0-2 1-4 1-6l14 3 3-15-13-3c2-4 3-9 6-13l17 7 6-13-16-7c3-6 7-10 11-15l13 13 10-11-13-13c5-5 10-9 16-13l9 16 13-8-10-16c6-3 11-5 16-7l5 16 15-5-6-16c3-1 7-1 10-2-1 28-11 55-32 75-21 21-48 32-75 33z m-23-215l-3 14 13 3c-2 5-4 9-6 14l-17-8-6 14 15 6c-3 5-7 10-11 15l-12-12-10 10 12 12c-5 5-10 9-16 13l-7-14-13 7 8 14c-5 3-11 5-16 7l-4-13-14 5 4 12c-2 1-5 1-8 2 1-27 12-54 32-75 21-21 48-32 75-32 0 3-1 6-1 9l-15-3z m146 565c-27-11-51-27-72-48-21-21-37-45-48-73-11-26-16-53-16-82 0-28 5-56 16-82 11-27 27-51 48-72 21-21 45-37 72-48 26-11 54-16 83-16 28 0 56 5 82 16 27 11 51 27 72 48 21 21 37 45 48 72 11 26 16 54 16 82 0 29-5 56-16 82-11 28-27 52-48 73-21 21-45 37-72 48-26 10-54 16-82 16-29 0-57-6-83-16z m-81-295c-11 7-21 15-29 23-13 37-15 77-7 115 4 8 9 16 14 23 2 3 3 5 5 7l49-29c0 0 0-1 0-1 0-27 3-53 8-79 0 0 0 0 0 0l-38-60c-1 0-2 1-2 1z m146-101c9-4 17-8 26-11-38-2-76 7-110 27l82-15c1 0 2-1 2-1z m0 15l-98 17c-11 14-21 29-30 44-2 4-5 8-7 12l38 60c1 0 2 0 3 0 24-7 49-11 73-15 1 0 3 0 4 0l46-79c-8-12-17-23-25-34-1-2-3-3-4-5z m162 34c-8-8-16-15-24-21-2 11-4 22-8 33l49 91c13 6 26 13 39 22 1 1 2 2 3 4-3-47-23-93-59-129z m-2 118c2-4 4-7 5-11l-47-88c0 0 0 0-1 0-25-5-51-7-77-7l-47 81c7 14 15 27 22 41 5 9 10 19 14 28l98 10c12-18 23-35 33-54z m-20 104c-4-12-9-24-14-36l-95-10c-1 2-3 3-4 4-11 13-22 26-34 38 1 1 1 1 1 1-5 4-9 9-14 13l27 80c1 0 3 1 5 1 15 1 29 3 43 4 9 0 18 1 27 0l65-74c-2-7-4-14-7-21z m22 67c18-18 32-39 42-61-12 9-25 16-39 21-2 1-4 2-7 3l-64 72c1 3 1 7 1 10 24-10 47-25 67-45z m-210 49c0-1 0-1 1-1 14-5 28-12 40-21l-24-75c-1 0-1 0-1 0-5-2-10-4-15-6-20-9-40-20-59-32l-49 29c0 1 0 3 1 4 3 9 6 18 10 26 3 7 6 13 10 19 2 3 4 6 7 8 23 23 50 40 79 49 0 0 0 0 0 0z m-367-426c118 0 214 96 214 214s-96 215-214 215c-119 0-215-96-215-215s96-214 215-214z m5 31c-2-4-4-7-5-9-1-1-1-2-2-2l-3-1c0-1-1-1-2-1 0 0 0 0 0 0-4 0-7 0-9 0-21 2-41 7-59 15-3 1-4 3-3 5l2 6c0 2 3 3 5 3 16-4 33-5 51-5 6 0 12 0 18 0 2 0 4-1 5-2l2-4c1-2 1-3 0-5z m99 49c-3-9-10-22-13-29-1-1-2-1-2-2-9-4-32-13-56-18-1 0-1 0-1 0-2 0-3 0-4 1-1 2-1 4 0 5 1 4 3 6 4 9 21 44 23 88 6 131-5 14-13 27-23 38-1 2-1 4 0 5 7 19 21 37 39 53 1 1 2 1 3 1 1 0 2-1 3-2 4-4 8-9 11-14 22-28 35-59 42-91 6-30 3-59-9-87z m68 58c-5-14-10-22-17-32-5-7-9-12-14-18-1-1-2-1-4-1-1 0-1 0-2 0-2 1-3 3-2 5 1 5 2 9 3 14 7 41 0 83-22 125 0 0 0 0 0 0-7 16-22 38-33 52-1 1-1 3-1 4 1 2 2 3 3 3 19 9 34 12 43 13 2 1 3 0 4-1 19-25 32-52 41-85 7-32 8-57 1-79z m-23 168l3 4c1 2 2 3 4 3 3 0 7 0 11 0 1 0 2-1 2-1l3-2c0 0 1-1 1-1 2-3 3-6 4-8 9-19 15-39 18-59 0-2-1-7-6-8-6-2-8 3-8 5-7 21-18 42-31 62-1 1-1 3-1 5z m-51 70c1 0 1-1 2-1 9-5 28-21 44-39 2-2 2-4 1-5-1-2-2-3-4-3-4 0-7 0-10 0-48-5-87-25-117-61-9-11-16-24-21-39-1-1-2-2-4-3-5 0-10-1-15-1-16 0-33 3-50 9-1 0-2 1-2 2s-1 3-1 4c2 5 5 11 7 17 14 32 34 60 58 81 23 20 50 32 80 36 9 1 24 2 32 3z m-184-14c24 23 45 36 68 41 7 1 14 2 21 2 5 0 10 0 15-1 8-1 15-2 23-3 2-1 3-3 3-5 0-2-1-4-3-4-31-9-76-30-111-86 0 0 0 0 0 0-10-14-22-38-29-55 0-1-1-2-3-2 0 0 0 0-1 0-1 0-2 0-3 1-16 12-26 23-32 30-1 2-2 3-1 5 11 28 29 54 53 77z m-81-46c0 1 0 2 0 3 2 2 4 5 5 7 12 17 26 32 42 45 2 1 5 1 6-1l4-4c2-2 2-4 0-6-15-17-28-36-38-58-1-1-3-2-4-3l-5 0c0 0 0 0 0 0-2 0-3 1-4 3-2 3-4 6-6 9 0 1 0 2 0 2l0 3z m-21-94c0 9 4 34 12 58 0 1 2 2 4 3 1 0 3-1 4-3 2-3 4-5 5-8 28-40 65-64 111-71 14-3 29-2 44 0 2 1 4 0 5-1 12-16 21-38 25-61 1-1 0-2 0-3-1-1-2-2-3-2-6-1-12-2-18-3-10-1-19-1-28-1l0 0c-25 0-49 4-72 12-29 9-53 27-71 51-5 7-13 19-18 26 0 1 0 2 0 3z m15-86c-3 7-6 14-8 21-1 2 0 4 2 6 2 1 4 0 6-1 3-3 6-6 10-9 32-28 72-43 119-45 0 0 0 0 0 0 5 0 10-1 16-1 14 0 31 1 46 3 1 0 2 0 3-1 1-1 2-2 2-4-3-20-7-35-11-43 0-2-2-3-3-3-10-2-19-2-29-2-21 0-43 3-65 10-31 9-53 21-69 38-10 11-13 19-19 31z" horiz-adv-x="1000" />
<glyph glyph-name="ambulance" unicode="&#xe81c;" d="m394 582v-4h486c79 0 96-65 96-144v-200c0-75-57-137-131-144 2 8 3 16 3 24 0 57-47 104-104 104-57 0-104-47-104-104 0-9 1-17 3-24h-318c2 7 3 15 3 24 0 57-47 104-104 104-57 0-104-47-104-104 0-6 1-11 1-16-56 19-97 73-97 136l48 200c28 108 101 144 180 144h29v4m43-223l0 163h-101c0 0-55 4-64-45-4-11-5-17-6-20l-25-98h13 183l0 0z m396 43h-89v89h-86v-89h-89v-86h89v-89h86v89h89v86l0 0z m-584-292c0-47 39-86 87-86s86 39 86 86c0 48-38 87-86 87s-87-39-87-87z m523 0c0-47 39-86 87-86 48 0 86 39 86 86 0 48-38 87-86 87-48 0-87-39-87-87z m-265 488c0 36-25 65-56 65s-57-29-57-65" horiz-adv-x="1000" />
<glyph glyph-name="atr-odkolon" unicode="&#xe81d;" d="m500-120c149 0 217 16 217 16 4 28 100 126 100 126l-196 369-66 29 0 108c22 4 36 11 36 19 0 10-25 19-60 22 4 13 13 29 33 40l48 111c0 0 14 19-112 100-126-81-112-100-112-100l48-111c20-11 29-27 33-40-35-3-60-12-60-22 0-8 14-15 36-19l0-108-66-29-196-369c0 0 96-98 100-126 0 0 69-16 217-16z" horiz-adv-x="1000" />
<glyph glyph-name="amozesh" unicode="&#xe81e;" d="m863 642v-285c0-8-6-15-15-15h-387c-8 0-15 7-15 15v22l30 20v-27h358v255h-358v-107c-2-1-3-2-4-3l-5-3c-4 13-12 23-21 31v97c0 8 7 15 15 15h387c9 0 15-7 15-15z m-347-193l18 11h0c0 1 0 1 0 1 9 9 10 22 5 32l142 97-7 9-143-97c-5 3-10 5-15 5-7 1-15-2-21-8 0 0 0 0 0 0l-3-2-32-22v9c-6 71-88 70-88 70h-35l-30-49-30 49h-34c-92-2-89-70-89-70v-158h1c0 0-1 0-1-1 0-15 13-27 28-27 14 0 27 12 27 27 0 1 0 1 0 1h0v146h17l-1-459c0-21 17-37 37-37 20 0 36 16 36 37v296h17v-297l0 0c0-20 17-36 37-36s36 16 36 36l0 461h17v-48c0 0 0 0 0 0 0-15 13-27 27-27 5 0 9 1 13 3l0 0 46 31 25 17z m-210 116c35 0 62 28 62 62s-27 62-62 62c-34 0-61-27-61-62 0-34 27-62 61-62z" horiz-adv-x="1000" />
<glyph glyph-name="bank" unicode="&#xe81f;" d="m891 257v470h-731v-470h95c3-8 6-16 11-23-9-14-14-30-14-47 0-17 5-33 14-47-9-14-14-30-14-47 0-69 84-118 205-118 121 0 206 49 206 118 0 17-6 33-15 47h0c9 14 15 30 15 47 0 17-6 33-15 47h0c5 7 8 15 11 23h232l0 0z m-594 400c-34-47-22-74-59-74l17-176c-4-47-8 7 37-53-18-14-31-31-37-50h-49v376h639v-376h-186c-3 8-6 16-11 24 0 0 0 0 0 0h106c56 0 30 70 68 70v188c-37 0-6 71-68 71h-174c35-32 60-94 60-165 0-50-13-95-32-129-37 22-89 35-151 35-10 0-20-1-30-1 0 0 0 0 0 0-10 28-16 60-16 95 0 71 25 133 60 165m161-312c0 1-1 1-1 2 0-1 1-1 1-2z m-335 147c0 20 16 35 34 35 19 0 35-15 35-35 0-19-16-35-35-35-18 0-34 16-34 35z m160-470c-88 0-160 32-160 71 0 5 2 10 4 15 36-24 91-39 156-39 66 0 120 15 156 39 2-5 4-10 4-15 0-39-72-71-160-71z m0 94c-88 0-160 32-160 71 0 5 2 10 4 15 36-24 91-39 156-39 66 0 120 15 156 39 2-5 4-10 4-15 0-39-72-71-160-71z m0 94c-88 0-160 32-160 71 0 39 72 70 160 70 88 0 160-31 160-70 0-39-72-71-160-71z m-160 447c-56-1-30-71-68-71v-188c38 0 6-71 68-70" horiz-adv-x="1000" />
<glyph glyph-name="bank-ansar" unicode="&#xe820;" d="m493 843c1 0 2 0 3 0 29-13 52-49 76-73 27-27 55-49 73-76 60 4 139 4 199 0 0-65 0-129 0-193-96-5-193-3-296-3-32 0-71 8-95 3-21-5-64-58-79-74-63-65-119-118-188-187-14-14-30-35-38-35-9-1-33 27-38 32-15 16-22 23-35 36-17 17-64 51-65 73-2 28 57 68 73 84 31 32 51 50 76 82-6 5-9 10-11 19-8 47 8 116 3 163 55 5 141 3 187 0 58 43 103 100 155 149z m351-739c0 30-6 74 0 90 4 14 24 30 35 41 28 28 48 48 76 76 13 13 37 25 35 40-1 9-22 26-32 36-40 38-76 68-106 106-2 0-4 0-6 0-72-70-148-147-225-223-21-21-53-65-73-71-9-2-32 1-52 0-115-1-231 7-345 0-4-60-5-138 0-198 65 0 130 0 196 0 24-24 45-45 73-73 12-13 60-72 79-71 18 1 67 62 78 73 18 18 52 68 79 74 29 6 64-3 92-3 30 0 59-2 96 3 0 39 0 70 0 100z" horiz-adv-x="1000" />
<glyph glyph-name="amozeshgah" unicode="&#xe821;" d="m89 715v-474h578v41 13 19h-5l-7 146h-138v40h136 20 33l31-36 29 36 65-9 4-148h-27l-2-29h-4v-19-13-41h109v474h-822z m646-203c-44 0-80 36-80 80 0 44 36 80 80 80 45 0 80-36 80-80 0-44-36-80-80-80z" horiz-adv-x="1000" />
<glyph glyph-name="amozesh-ranandegi" unicode="&#xe822;" d="m875 282l-6 18c-3 10-14 19-23 19h-22c-16 48-36 107-42 120-9 21-37 31-53 36 0 0-26 10-114 10-87 0-113-10-113-10-19-7-44-16-55-37-4-10-25-70-41-119h-21c-9 0-20-9-23-19l-6-18c-3-10 2-19 11-19h21c-3-8-4-13-4-13-2-3-3-17-3-21v-105-7-56c0-11 8-20 18-20h68c10 0 18 9 18 20v36h261v-36c0-11 8-20 18-20h68c10 0 18 9 18 20v56 7 105c0 4-1 18-3 21 0 0-2 5-4 13h21c9 0 14 9 11 19z m-390-103h-28c-25 0-50 3-50 20v20c0 20 11 21 22 21 12 0 34-10 49-17 16-8 34-14 34-27 0-12-6-17-27-17z m-39 132c14 61 28 95 32 105 2 7 5 28 137 28 133 0 136-24 136-25 4-13 21-52 34-108 0 0-56-20-170-20-113 0-169 20-169 20z m273-115c0 13 18 19 34 27 15 7 37 17 48 17 12 0 23-1 23-21v-20h0c0-17-25-21-50-21h-28c-21 1-27 6-27 18z m-263 338c-4 3-8 4-12 4-6 1-12-1-17-6 0 0 0 0 0 0l-3-2-25-17v7c-5 56-70 55-70 55h-28l-24-39-23 39h-27c-74-1-71-55-71-55v-125h0c0-1 0-1 0-1 0-12 10-22 22-22 12 0 21 10 21 22 0 0 0 0 0 1h0v116h14l-1-366c0-16 14-29 30-29 16 0 29 13 29 29v236h13v-236l0-1c0-15 13-28 29-28s29 13 29 29l0 366h14v-38c0 0 0 0 0 0 0-12 9-22 21-22 4 0 7 1 10 3l0 0 37 25 20 13 14 9h0c0 0 0 0 0 0 7 7 8 18 4 26m-185 58c27 0 49 22 49 49 0 27-22 49-49 49-27 0-49-22-49-49 0-27 22-49 49-49z" horiz-adv-x="1000" />
<glyph glyph-name="bank-day" unicode="&#xe823;" d="m756 590c1-43-1-89 3-129-118-23-204-112-280-195-61-67-149-160-268-157-103 3-182 76-172 190 9 105 94 162 203 152 68-6 119-41 170-77-7-16-18-28-26-44-65 50-212 106-270 18-45-68-4-163 69-175 102-16 180 67 227 129 81 107 142 276 311 288 10 1 15 2 33 0z m42-481c224 8 226 372-36 345-6-38-1-87-3-129 101-5 97-152 0-152-40 0-80 32-111 52-36 23-64 44-95 67-11-16-29-25-36-44 75-51 157-143 281-139z" horiz-adv-x="1000" />
<glyph glyph-name="animal" unicode="&#xe824;" d="m256 743l29 12c42-99 182-235 189-237h284v-32l-288 1c-7 0-161 131-214 256z m604-210l57 83-311 96-106 117 32-296h328z m-95-66h-256l-333-298c-53 13-95 48-115 97l0-2c-12 35-19 17-22 2-2-8-2-16-2-25 0-76 53-140 125-160l106-210h364c0 0 11 18 20 41v1c26 77-48 84-48 84h1c-54 0-80 1-80 1 3 46 17 62 29 67l146 67 98-261h166l-199 596z" horiz-adv-x="1000" />
<glyph glyph-name="antique-ghadimi" unicode="&#xe825;" d="m820 125c3 2 7 2 10 0 3-1 5-4 5-8l-1-78-134-96-279 79 0 73c0 6 2 11 6 14 5 3 10 4 15 3l245-70c8-3 16-1 23 3l110 80z m34-125c0 6-3 11-8 14-5 3-11 2-16-1l-130-94-282 82c-6 2-12 1-18-3-5-4-8-10-8-16l0-17 308-88 154 109 0 4 0 10 0 0z m-109 224c16-5 31-14 43-25 2 29 6 75 8 101 4 41-17 67-30 78-1-5-2-10-4-15-4-13-10-22-16-29 4-8 7-17 6-30-2-20-5-53-7-80z m-66 110c25-2 48-2 62 37 16 45-33 66-33 66-41 15-70 45-85 64-3-26-7-53-14-79-7-33-18-64-30-93 33 9 79 7 100 5z m-198-150c3 34 75 56 161 48 86-8 154-42 151-76-4-34-76-56-162-48-86 8-154 42-150 76z m119-11c-1-8 15-15 35-17 20-2 37 3 38 11 1 8-15 16-35 18-20 1-37-4-38-12z m36-5c3 0 6 0 6 2 0 1-2 2-5 2-3 1-6 0-6-1 0-2 2-3 5-3z m186-13c2 2 3 5 2 7-1 3-3 5-6 5l-12 1c1-4 2-9 1-13 0-5-1-10-3-14l18 14z m-377 4c-4-3-7-9-6-15 1-5 6-10 11-12l220-65c18-5 38-1 53 11l36 28c-24-9-56-14-93-14-12 0-24 0-36 1-77 7-157 38-164 82l-21-16z m128 271c46 189-10 364-123 391-2 1-4 1-6 1-9 2-18-1-24-7-6-7-9-16-7-25 14-53 45-139 116-189 6-5 8-14 3-20-3-5-7-7-12-7-3 0-6 1-8 3-76 54-111 143-126 200-3 11-11 20-21 24-10 4-22 4-32-2-23-14-46-34-67-57-11-13-11-32-1-46 31-40 86-95 167-124 7-2 11-11 9-18-3-6-8-10-14-10-2 0-4 0-5 1-77 27-131 74-166 115-6 7-16 11-26 10-9-1-18-7-23-16-19-37-35-79-45-124-3-12 3-25 15-29 35-13 102-29 208-28 9 0 15-6 15-14 0-8-6-15-15-15-5 0-10 0-15 0-89 0-150 12-188 24-8 2-16 1-23-3-6-5-11-12-11-20-5-51-2-100 8-142 2-9 8-15 15-19 8-3 17-3 24 2 38 21 95 46 175 62 8 2 16-3 18-11 1-8-4-16-12-18-81-16-136-41-171-62-8-5-14-13-16-22-2-9 0-18 5-26 15-23 33-42 54-54 8-5 17-7 26-4 9 2 16 7 21 15 19 33 52 72 107 103 7 4 16 1 20-6 4-7 2-16-5-20-42-23-69-52-87-77-4-6-4-14 0-20 4-6 11-8 18-7 95 22 188 137 225 291z" horiz-adv-x="1000" />
<glyph glyph-name="bank-gavamin" unicode="&#xe826;" d="m600 813c40-49 110-92 151-151-154-15-335-2-499-7-23-96-10-265-10-376 10-137 306-200 348-57-37-21-56-28-95-35-81 24-156 85-129 187 5 10-13 20-10 38 44 263 542 252 585-3-2-159 4-365-3-519-184-5-366-5-541 0-52 34-98 72-133 124 29 16 71 9 111 9 116 1 263-1 389 0 20 104 8 256 6 370-24 79-81 126-164 145-89 3-164-8-183-75 24-4 35 22 66 22 55-2 70-20 114-35 36-49 53-101 57-177-20-85-74-135-139-174-70-30-168-37-257-22-58 24-104 44-139 85-109 130-47 395-66 591 10 26 22 50 47 60 165 0 329 0 494 0z" horiz-adv-x="1000" />
<glyph glyph-name="a-vallyball" unicode="&#xe827;" d="m231 476l0-5c11-13 33-39 72-66l8 2c13 33 37 80 56 108l0 1c73 113 166 151 232 162l1 10c-24 8-48 13-73 15-10 1-20 2-29 2-13 0-25-2-39-5-43-9-84-33-127-76-47-44-80-92-101-147l0-1z m78-265c42-15 87-22 134-22l0 0c17 0 34 1 52 3 12 1 24 3 37 5l3 1 4 6c-8 47-26 92-52 124l-5 2c-2 0-3-1-4-1-28-5-55-5-81-1-83 14-150 57-201 130-6 10-12 20-17 29l-10-1c-19-50-27-106-28-126l1-3c7-10 23-35 34-50 34-45 79-78 133-96z m-97 303c19 41 44 78 72 109l-7 8c-29-23-54-50-76-81-2-3-6-9-8-13l0-5c3-6 6-12 10-18l9 0z m144-87c-5-12-9-23-14-36l-1-2 3-7c33-12 68-19 101-19 11 0 23 1 33 3l4 3c1 2 1 3 2 4 9 27 22 50 39 71 53 65 124 102 212 110 8 0 15 0 25 0 3 0 6 0 9 0l4 9c-33 41-79 77-95 87l-3 1c-12-1-43-3-61-5-56-7-106-30-149-68-46-39-83-90-109-151z m456 78c-2 3-5 9-7 14l-5 2c-6 1-13 1-20 1l-4-8c25-38 45-77 58-117l5 1v-5 5l5 1c-5 36-16 72-32 106z m-356-483c-33 0-65 3-96 10l-3-10c34-14 70-23 108-26 3-1 10-1 15-1l5 3c2 4 6 10 10 17l-5 8c-11-1-23-1-34-1z m278 493l-1 1-4 2c-17-2-51-9-94-29l-2-8c22-28 52-72 66-103l0 0c40-77 54-154 40-229-3-18-8-36-14-53l8-5c18 16 34 35 49 55 14 20 23 34 31 61 14 42 13 89-2 148-15 62-40 115-77 160z m-106-83c-8 10-15 20-24 30l-2 2-7 1c-37-31-66-69-81-108l1-5c1-1 2-3 3-4 18-21 32-44 41-69 30-78 26-159-11-238-5-11-11-22-16-30l5-8c53 9 106 30 123 39l2 2c6 11 20 38 27 55 22 52 27 107 16 164-12 59-38 116-77 169z m-94-269c-28-4-64-7-93-7-11 0-21 0-29 1h0c-87 4-160 32-218 81-14 12-27 25-38 39l-9-4c5-24 12-47 23-70 10-22 18-38 36-58 30-32 71-56 129-73 41-12 82-18 122-18 18 0 37 1 56 4l1 0 4 3c6 16 18 49 22 96l-6 6z" horiz-adv-x="1000" />
<glyph glyph-name="atari" unicode="&#xe828;" d="m450 696c19-46 52-91 98-110 5-2 11-4 17-5 13 18 27 33 43 45 15 11 29 19 45 25-5 3-9 6-14 9-19 10-40 18-60 28 19-5 40-7 59-14 11-4 21-10 31-17 29 10 60 15 90 19-24 41-77 73-117 88-41 16-88 18-134 23-28 2-58 13-81 25-5 3-10-2-9-7 11-36 17-75 32-109z m490-13c-52-29-111-32-170-39-28-3-56-7-83-15-6-2-12-4-17-6-17-7-34-15-49-26-15-11-26-24-36-38-16-22-27-47-36-74-17-48-25-99-23-150 0-20 1-42 6-62 1-4 2-10 6-13 4-4 12 0 10 6-13 45-5 97 13 139 21 49 61 78 110 96 13 4 26 9 40 12 0 1 0 1 1 1 2 0 3-4 1-6-16-7-32-14-47-22-74-38-106-128-78-128 2 0 5 1 8 2 42 18 93 18 140 27 16 3 32 7 47 13 60 25 102 74 128 132 19 44 26 95 40 141 2 6-2 11-7 11-1 0-3-1-4-1z m-422-334c-15 0-30 0-46 0-201 0-364-29-377-67h-1c0 0 0 0 0-2 0-1 0-1 0-2 0 0 0-1 0-1 0-1 0-3 0-4 0-208 169-379 378-379 208 0 378 171 378 380 0 1 0 2 0 3 0 0 0 1 0 1 0 1 0 1-1 2 0 1 0 2 0 2h0c-6 19-49 35-115 47m-21-34c44-9 71-21 71-34 0-30-140-54-312-54-172 0-312 24-312 54 0 30 140 54 312 54 4 0 7 0 11 0m-8 176c-7-27-38-41-90-27-16 4-32 13-46 23 11-13 20-29 24-45 14-52-1-83-27-91-26-7-54 13-68 66-5 16-5 34-3 50-6-15-15-31-27-42-38-39-73-42-92-23-19 20-16 54 23 92 11 12 27 21 42 28-17-2-34-2-50 2-53 14-73 42-66 68 7 27 39 41 91 27 16-4 31-13 45-23-10 13-19 29-23 45-14 52 0 83 26 90 27 7 55-12 69-65 4-16 4-34 2-51 7 16 16 32 27 43 39 39 73 42 92 23 20-20 17-54-22-92-12-12-27-21-43-28 17 2 35 2 51-2 52-14 72-42 65-68z" horiz-adv-x="1000" />
<glyph glyph-name="bank-hekmat-iranian" unicode="&#xe829;" d="m510 499c-91 17-172 88-164 184 8 83 119 160 219 106 63-35 104-138 64-215-21-41-71-60-119-75z m235-133c57 4 104 59 103 112-1 67-64 133-130 127-156-17-101-248 27-239z m-487 0c69-7 126 58 122 123-3 53-71 120-136 109-146-25-100-221 14-232z m245-137c65-2 124 66 113 133-10 60-71 116-137 106-144-21-105-234 24-239z m-201-68c39 1 81 49 75 92-5 38-55 83-92 79-116-13-59-173 17-171z m406 7c113 4 62 180-27 164-107-20-52-167 27-164z m-205-137c108 4 72 188-31 164-101-23-45-166 31-164z m-170-65c68 0 34 105-21 93-66-15-16-92 21-93z m378 31c8 56-96 98-92 14 6-38 85-64 92-14z m-245-13c-36-31 5-104 54-89 54 30-12 125-54 89z" horiz-adv-x="1000" />
<glyph glyph-name="atm" unicode="&#xe82a;" d="m882 399l-49 161c-5 14-15 25-31 33-15 8-32 10-50 5-26-5-43-16-53-35-29-58-45-89-48-92-1-3-4-5-8-7l-72-25c-14-5-21-14-21-26 0-8 4-15 11-20 7-6 16-9 26-9 4 0 8 1 14 2l85 27c9 4 17 10 23 19 3 2 9 11 18 29l50-172v-266c0-15 6-26 17-36 11-9 25-13 41-13 17 0 31 4 42 13 11 10 17 21 17 34v316c-1 18-4 39-12 62z m-194 209c19 0 35 5 48 16 13 12 20 26 20 43 0 16-7 31-20 42-13 12-29 18-48 18s-35-6-49-18c-13-11-20-26-20-42 0-17 7-31 20-43 14-11 30-16 49-16z m-149-170l-137 236c-10 21-29 31-56 31h-124c-17 0-32-5-44-16-12-11-18-24-18-38v-412-265h386v437c0 11-3 20-9 27l2 0 0 0z m-95-329c-18-17-44-28-78-33v-41h-35v41c-30 2-53 11-71 27-18 16-30 38-36 67l67 5c3-11 8-21 16-29 7-9 15-15 24-19v91c-33 7-57 20-72 36-16 17-23 37-23 60 0 23 8 42 26 58 18 16 41 25 69 28v21h35v-21c27-3 48-10 65-23 16-13 26-30 31-52l-65-8c-4 18-14 30-31 35v-83c42-10 70-22 84-37 14-15 21-34 21-57 0-26-9-49-27-66z m-78 99v-84c14 2 24 7 33 15 8 8 12 17 12 29 0 9-4 17-10 24-7 7-18 12-35 16z m-59 132c-6-8-9-16-9-24 0-8 3-15 9-22 5-6 14-11 24-15v75c-10-3-19-7-24-14z" horiz-adv-x="1000" />
<glyph glyph-name="bank-shahr" unicode="&#xe82b;" d="m687 834c53 15 104-27 112-66 13-62-42-129-117-107-73 23-80 149 5 173z m-202-236c21-4 56 8 71 20 69 53 14 166-69 155-100-13-98-159-2-175z m-270-5c0-119 193-115 178 20-18 95-178 89-178-20z m650 61c-246-33-465-106-599-258-16-40-40-79-32-131 18-113 140-154 261-146 4 32 1 89 2 133-41 7-113 4-121 37-6 21 13 45 21 53 31 31 87 64 146 88 100 40 203 63 327 71-4 49 6 112-5 153z m-492-742c51 15 104 36 153 60 106 52 225 118 237 239 13 139-116 192-256 190-2 0-3-2-5-3 2-45-3-97 3-138 45-1 110-1 116-34 6-28-28-55-51-73-109-88-270-120-440-137 0-51 0-102 0-153 87 11 164 25 243 49z" horiz-adv-x="1000" />
<glyph glyph-name="bank-sina" unicode="&#xe82c;" d="m706 635c-134-65-267-133-402-198 0-61 0-123 0-185 52-39 134-62 180-100-65-38-138-68-203-105-61 30-124 59-185 90 2 138-4 268-3 405 118 61 271 131 388 191 29 14 86-25 123-43 38-19 77-34 102-55z m10-5c-49-27-104-52-155-78-15-7-35-14-45-30 58-33 124-59 180-95 0-61 0-123 0-185-116-59-244-117-357-175-15-8-37-14-43-30 51-23 101-50 153-75 14-7 43-23 55-23 19 1 54 27 75 38 79 40 156 73 228 110 32 18 71 31 100 52 2 128-4 269-3 403-64 28-121 63-188 88l0 0z m-326-189c-56-47-63-147-2-203 91-84 267-32 267 99 1 86-88 151-177 140-37-5-64-15-88-36z" horiz-adv-x="1000" />
<glyph glyph-name="bank-kar-afarin" unicode="&#xe82d;" d="m498 803c37-20 83-73 120-109 40-39 77-76 109-113 41-34 75-74 113-110 34-40 80-68 106-116-25-51-73-80-109-120-36-39-74-76-113-112-74-77-148-153-226-226-73 77-148 153-225 226-36 39-73 78-113 112-31 45-81 70-106 120 7 27 33 41 51 58 18 19 34 39 55 55 35 38 71 74 109 109 72 73 142 149 219 216 1 4 6 5 7 10 1 0 2 0 3 0z m-205-660c130-6 284-6 414 0-2 142 5 292-3 428-136 0-272 0-407 0-13-130-6-296-4-428z m27 192c16-84 69-155 158-165 83-9 138 38 178 89 54 127-17 262-151 264 0 2-3 4-3 0-118-6-174-73-182-188z" horiz-adv-x="1000" />
<glyph glyph-name="asare-tarikhi" unicode="&#xe82e;" d="m827 465l-379 0 42-106 5 0c12 0 24 0 37 0 118 0 240-9 360-28l9-1-22 94c-5 23-28 41-52 41z m-460 89l6 1-10 97c-3 24-24 44-48 44 0 0 0 0 0 0-99-4-180-59-220-92-17-13-30-43-30-67l0-86 10 6c43 27 140 76 292 97z m-302-209c0-8-1-19-4-29l-2-10 10 3c10 2 34 8 34 8l6 1-1 5c-4 45 1 81 6 83 6-4 12-39 12-77l0-7 42 8-1 5c-2 22-6 81 6 97 2 2 3 2 5 2 1 0 2 0 4-1 11-12 14-63 12-91l0-8 53 8-1 6c-4 59 2 113 13 113 10 0 24-50 30-108l1-6 46 5 0 6c-6 41-9 111 4 127 1 2 3 2 4 2 13 0 32-53 44-126l1-6 6 1c17 1 35 1 54 2l9 0-84 185-4-1c-167-23-267-81-302-104l-3-2 0-91z m-11-53l-2-3c0-1-1-2-2-3-9-15-16-44-16-66l0-83 7 2c11 3 40 9 40 9l5 1 0 6c-2 38 1 76 6 79 5-3 11-31 12-74l0-7 7 1c10 2 28 5 28 5l5 1 0 6c-4 29-6 80 5 93 1 2 2 2 4 2 0 0 1 0 3-1 11-12 13-60 12-89l0-7 51 7-1 6c-4 57 1 109 11 110 9 0 23-50 28-105l0-6 50 5-1 6c-4 37-6 99 4 111 0 1 1 1 1 1 10 0 28-51 37-109l1-6 46 3-1 7c-3 24-5 91 12 110 3 3 6 5 10 5 19 0 46-67 59-114l2-5 5 0c0 0 29 1 45 1l10 0-73 155-4 0c-207-6-351-39-404-53l-2-1z m485-114c-254 1-435-36-501-52l-4-2 0-76c0-24 19-44 43-44l14 0 0 7c-4 46 1 73 5 75 5-3 11-39 11-75l0-7 40 0-1 7c-3 27-5 75 6 88 1 2 3 2 4 2 0 0 1 0 3-1 11-11 13-60 12-89l0-7 50 0 0 7c-4 53 1 102 11 103 0 0 0 0 0 0 9 0 22-41 28-104l1-6 49 0-1 7c-4 38-6 102 6 116 0 0 0 0 0 0 8 0 25-47 37-117l0-6 50 0-1 7c-3 30-8 113 10 133 2 3 5 4 8 4 19 0 50-80 66-137l6 2 29-2c0-1 1-1 1-2l12 3c-12 48-22 104-17 115 12-6 52-66 83-120l2-3 43 0-101 174-4 0z m251 116c16 0 41-61 57-118l1-4 4-1c29-3 55-6 79-10l9-2-36 157-4 1c-123 20-247 30-368 30-10 0-19 0-27 0l-10 0 63-156 4 0c11 0 22-1 34-1l8 0-2 8c-11 42-16 91-5 106 2 3 4 4 9 5 24 0 45-71 52-116l1-5 5 0c0 0 22-2 34-2l8-1-2 9c-10 40-18 90-9 103 1 2 3 2 4 3 16 0 42-59 57-115l2-4 39-3-2 8c-9 33-20 90-9 105 1 2 2 3 4 3z m153-148l-4 1c-121 19-243 29-362 31l-11 0 104-174 34 0-2 8c-12 50-20 107-8 123 1 2 4 4 7 4 22 0 44-67 55-129l1-6 46 0-2 8c-12 48-19 102-10 116 1 1 2 2 4 2 14 0 37-51 56-121l2-5 36 0-2 8c-10 45-15 96-6 110 2 2 3 2 5 2 13 0 36-45 55-110l3-8 7 4c12 8 18 23 14 39l-22 97z" horiz-adv-x="1000" />
<glyph glyph-name="bank-keshavarzi" unicode="&#xe82f;" d="m465 823c23 0 47 0 70 0 0-17 0-34 0-51 16 0 31 0 46 0 0-34 0-68 0-102 32 0 64 0 96 0 22-14 35-37 57-51-1-7-13-3-20-4-14-19-25-41-37-62 3-6 19 1 23-4-1-9 2-21-2-25 9-5 27-2 41-3 0-11 0-23 0-34 12 0 24 0 36 0 0-24 0-49 0-73 3-5 15-1 21-2 49-30 100-58 109-128-17 11-31 25-48 36-25 0-50 0-75 0-8-5-10-15-16-22 12 0 24 0 37 0 4-6 1-19 2-28 9 0 18 0 27 0 4-6 4-25 0-32-8 0-16 0-25 0-5-4-1-19-2-27-11 0-21 0-32 0-6 1 2-13-5-12-8 0-16 0-25 0-5-59-1-128-2-191-56 0-111 0-167 0 0-26 0-52 0-78-7 0-15 0-23 0 0-18 0-35 0-53-35 0-70 0-105 0 0 17 0 34 0 51-4 5-17 0-25 2 0 26 0 52 0 78-55 0-109 0-164 0 0 63 0 126 0 189-5 5-19 1-28 2 0 4 0 8 0 12-11 0-22 0-34 0 0 9 0 18 0 27-9 0-18 0-27 0-4 7-4 26 0 32 8 0 17 0 25 0 5 5 1 19 2 28 12 0 23 0 34 0 5 5-7 14-9 22-26 0-51 0-77 0-17-8-33-30-48-34 9 67 57 95 105 123 6 3 16 3 25 3 0 25 0 50 0 75 11 0 23 0 34 0 5 7 1 24 2 34 13 0 25 0 37 0 5 6 1 21 2 30 8 0 15 0 23 0-9 23-25 40-34 64-8 0-15 0-23 0 14 21 34 37 53 55 33 0 67 0 100 0 5 29 1 69 2 102 14 0 28 0 41 0 6 13 1 35 3 51z m20-19c-1-16 3-39-2-52-15 0-31 0-46 0 0-32 0-64 0-96 42-50 20-165 25-251 7-7 22-28 28-21-13 104-5 229-7 343 10-2 26 3 32-3-2-114 6-240-7-344 7 2 25 15 30 27 0 66 0 133 0 199 8 19 20 34 27 55-1 29 3 65-2 91-15 1-37-3-48 2 0 17 0 34 0 50-10 0-20 0-30 0z m-155-150c-3-2-6-4-7-7-10-6-32-24-27-30 15 0 30 0 45 0 14-22 27-44 39-68 0-48 0-96 0-144 16-21 39-35 53-57 0-46 0-92 0-137 19 0 38 0 57 0 0 47 0 94 0 141-16 18-38 28-50 48-5 86 13 195-19 254-30 0-61 0-91 0z m336 0c-24 5-55-4-85 0-41-51-16-169-23-254-14-18-37-27-50-45 0-48 0-96 0-144 19 0 38 0 57 0 0 46 0 93 0 139 16 21 41 33 55 57 0 48 0 96 0 144 14 22 23 48 41 66 14 0 29 0 43 0-9 9-16 31-38 37z m-325-103c0-37 0-73 0-110 3-9-7-31 9-27 11 37 2 94 5 139-12 15-13 41-34 46-2-1-5 0-5-2 9-16 18-30 25-46z m304 2c0-36 0-73 0-109 3-10-7-31 7-30 10 36 1 91 4 135 6 16 28 38 23 50-2 0-4 0-7 0-11-13-19-30-27-46z m-338-141c1 5 12 1 14 0 0 13 0 27 0 41-6 0-11 0-16 0 1-13-3-32 2-41z m370 2c3-4 13 4 18-2 0 13 0 27 0 41-6 0-12 0-18 0 0-13 0-26 0-39z m-265-73c-18 19-35 40-57 55-49 0-97 0-146 0-19-22-65-28-69-57 42 5 94 0 140 2 34-39 62-84 93-126 13 0 26 0 39 0 0 42 0 84 0 126z m377 55c-49 0-98 0-146 0-19-18-38-35-55-55 0-42 0-84 0-126 13 0 26 0 39 0 31 42 58 88 93 126 47 0 93 0 140 0-12 30-51 33-71 55z m-534-80c18-28 40-56 59-82 6-9 11-27 27-21-25 38-48 78-80 110-3-2-11 2-11-3 3 0 4-2 5-4z m479 7c-26-36-52-73-78-110 29 1 38 32 51 50 13 20 30 39 41 60-5 0-9 0-14 0z m-470-80c-5 5-10 10-12 18-7 0-15 0-23 0 0-6 0-12 0-18 11 1 31-2 35 0z m475-3c6 4 16 2 29 3 0 6 0 12 0 18-20 5-31-11-29-21z m-464-54c0-54 0-107 0-160 149 0 297 0 445 0 0 55 0 111 0 167-147 0-295 0-443 0-2-1-2-4-2-7z m169-238c9-1 22 2 28-2 0-19 0-38 0-57 19 0 38 0 57 0 0 20 0 39 0 59 9 0 18 0 27 0-3 19 6 49-5 60-10-9-1-37-4-53-31 1-67-3-94 2-3 16 6 43-4 51-2 0-3 0-5 0 0-20 0-40 0-60z m75 149c-9-6-17-13-32-14-7 10 6 30 0 39-7-11-13-40-4-53 23 10 49 17 43 55 17 21 54 33 57 59-19-30-68-32-64-86z m94-28c5 3 13 15 7 21-3-2-1-9-7-7-12 55 49 56 62 94-30-24-64-43-76-85-15-6-30-12-52-11-6 1-8 7-14 9 0-6 0-12 0-19 27-12 61 3 73 19-4-6-2-21 7-21z m-9 73c3-1 6-3 9-4 7 4 6 19-4 18 0-7-6-7-5-14z m-194-13c5 5 7 18-5 18-5-6-7-18 5-18z m219-60c13-3 19 14 14 21-3-2-1-9-7-7-8 11 5 30 0 39-8-11-12-36-7-53z m-272 9c1-5 7-5 9-9-2-9-21-17-29-7-2 16 8 20 9 32-11-8-17-23-16-43 20-19 46 4 43 30 1 5-6 2-7 6 6 14 21 5 21 23-17-3-26-15-30-32z m99 9c2-1 5-2 6-4-4-5-13-5-13-14 17 2 24 12 23 32-5 0-6 3-10 2-2-5-6-9-6-16z m-69-18c19 0 25 14 25 32-9-9-14-23-25-32z m32 0c16-2 29 22 18 32 1-18-15-19-18-32z m219-36c5 5 3 17-4 18-5-7-12-19 4-18z m-148 112c12 0 15-4 25 2-4 14-4 19-14 27-3-10-9-18-11-29z" horiz-adv-x="1000" />
<glyph glyph-name="bank-khavarmiane" unicode="&#xe830;" d="m39 813c88 11 138-19 198-47 101-46 202-92 303-140-14-24-18-59-16-101-163-43-326-87-489-132 8 27 2 68 4 101 95 26 222 19 311 51-27 28-80 17-125 19-65 3-117 12-186 12-2 15 1 55 0 81 101-5 231-34 334-38-5 17-25 26-39 31-90 31-206 44-295 81 0 27 0 55 0 82z m513-159c25 18 38 49 73 58-5 40-27 63-35 101-14 0-28 0-42 0 2-12 21-28 7-43-22 7-31 25-42 43-18 0-37 0-55 0 7-28 53-34 43-66-44-1-65 55-105 66-34 9-77-3-120-4 92-51 181-106 276-155z m77 155c13-25 15-60 27-85 32 18 65 10 101 0 7 33 25 55 31 89-10 0-20 0-31 0-7-20-13-41-31-51-7 17-7 31-4 51-9 0-18 0-27 0 1-18 1-35-11-39-12 7-15 24-20 39-12-1-28 2-35-4z m249-202c10-39 13-80-4-117 24-17 60-22 85-38 6 12 6 34 0 46-19 3-40 4-38 27 9 13 19 2 38 4 8 8 3 26 0 35-63-12-56 44 0 35 3 9 10 33-4 35-19-15-55-14-77-27z m-350-109c-162-64-323-129-489-190 0-38 0-75 0-113 85 41 176 85 256 128 25 14 55 42 86 28-110-96-231-178-342-272-2-59 4-126-4-179 103 92 207 195 303 291 31 32 56 78 101 90-33-75-88-134-132-198-45-65-87-132-132-198 34 4 77-3 116 3 97 178 204 345 303 521-31 20-46 57-66 89z m330-39c-19-35-50-58-89-73 60-161 128-315 194-470 0 64 0 129 0 194-10 16-18 34-31 46-17 56-71 95-74 152 46-14 67-73 105-82 15 87-62 100-66 156 24 7 41-20 66-24 0 15 0 29 0 43-36 19-65 44-105 58z m-450-571c32-10 70 3 101-3 25 66 54 152 74 229 7 28 0 73 35 85 9-104-17-217-16-314 30 2 48 0 82 0 19 94-5 232 15 326 22-12 26-47 31-70 18-86 29-176 51-253 20-7 70-3 85-3-42 164-86 325-128 489-46-12-89 4-120 19-68-170-143-334-210-505z m373 828c40-16 59-52 89-78 32 8 56 24 89 31 4 12 11 49-4 55-29-15-62-59-101-39 33 34 75 57 109 89-1 13 3 32-4 39-74-1-76-94-136-97 8 43 42 59 55 97-76 11-64-66-97-97z" horiz-adv-x="1000" />
<glyph glyph-name="bank-refah" unicode="&#xe831;" d="m269 747c90 0 179 0 269 0 98-83 115-340 10-429-76 4-168 4-243 0 77 29 153 120 139 236-11 94-99 162-175 193z m-150-122c-39-49-79-120-78-203 0-91 43-174 91-221 254-1 509 3 754-2 97 88 100 344-3 429-84-2-176 3-256-3 92-35 181-122 162-249-11-75-63-118-119-154-112 0-223 0-335 0-53 37-107 82-117 157-17 138 79 206 168 249-78-5-178-2-267-3z m493-561c-2 96-128 140-191 76-63-64-21-204 104-185 53 16 87 55 87 109z" horiz-adv-x="1000" />
<glyph glyph-name="bank-resalat" unicode="&#xe832;" d="m615 798c4-19-10-21-7-40 65-96 165-158 230-255 0-27 0-54 0-80-18-53-99-79-168-55-161-93-230-279-423-340 16-37 54-19 73-10 88 38 179 153 255 226 28 26 54 61 80 76 60 36 168 31 190-54-85-16-133-77-190-132-40-39-79-78-109-120 48-11 88 48 120 80 50 50 92 103 161 135 73 2 123-20 131-84-8-9-16-6-29-3-17-20-42-23-62-41-40-33-77-83-117-120-32-30-70-69-124-77-58-8-109 14-131 59-73-37-130-71-219-59-48 7-85 41-106 73-7 12-7 29-18 41-19 18-53 23-73 43-24 25-27 52-37 88-2 17 18 12 19 25 14 115 59 198 153 234 13 48 43 89 95 91 109 4 100-161-4-168-18-66-101-132-172-80-8 8-5 26-14 33-42-42-36-142 25-150 29-3 55 10 77 22 94 54 188 185 277 263 46 39 100 60 168 44-22 42-133 107-164 178-27 63 37 150 113 157z" horiz-adv-x="1000" />
<glyph glyph-name="bank-saderat" unicode="&#xe833;" d="m631 266v-320l261 0v639c0 14-8 43-16 54-34 44-164 214-433 34 0 0 188 62 188-86v-155c-28 43-76 72-131 72-55 0-103-29-130-72v320h-262c0-214 1-431 1-645 0-7 3-25 6-31 22-28 156-240 442-50 0 0-187-63-187 85v155c27-43 75-72 130-72 55 0 103 29 131 72z" horiz-adv-x="1000" />
<glyph glyph-name="bank-post-bank" unicode="&#xe834;" d="m772 546c19 15 34 34 50 52-18 18-25 36-47 49-21 11-48 9-69 20-40 20-42 76-74 106 179-56 325-211 313-456-12-233-217-435-488-412-166 14-299 122-360 249-70 144-53 350 47 468 31-47 93-36 133-71 42-38 68-99 98-156 31-57 63-114 87-167 29 21 52 49 76 76-58 78-100 201-177 264-27 21-75 26-106 49-3 2-55 55-55 62 0 15 41 27 42 37 24-26 34-52 52-74 29-35 62-41 111-59 35-13 75-80 96-114 27-43 48-85 72-128 25 18 41 46 66 64-48 60-68 133-128 180-24 19-52 22-79 35-59 26-78 89-116 138 15 6 31 10 45 17 39-48 53-100 98-135 27-22 75-24 104-47 45-37 72-105 108-151 21 19 41 39 59 59-31 40-45 80-81 109-23 18-51 17-79 30-60 27-76 99-116 147-2 1-2 3-2 5 15 0 37 9 56 3 15-5 38-44 52-64 30-42 43-80 96-94 9-2 18 1 27-2 41-15 61-64 89-89z" horiz-adv-x="1000" />
<glyph glyph-name="art-gallery" unicode="&#xe835;" d="m458 683c-208 0-333-166-333-250 0-83 42-145 125-145 83 0 125-21 125-84 0-83 63-146 146-146 271 0 396 146 396 292 0 250-209 333-459 333z m-52-83c29 0 52-23 52-52 0-29-23-52-52-52-28 0-52 23-52 52 0 29 24 52 52 52z m167 0c29 0 52-23 52-52 0-29-23-52-52-52-29 0-52 23-52 52 0 29 23 52 52 52z m167-83c28 0 52-24 52-52 0-29-24-52-52-52-29 0-52 23-52 52 0 28 23 52 52 52z m-480-42c29 0 53-23 53-52 0-29-24-52-53-52-28 0-52 23-52 52 0 29 24 52 52 52z m261-208c34 0 62-28 62-63 0-34-28-62-62-62-35 0-63 28-63 62 0 35 28 63 63 63z m-63 416c-208 0-333-166-333-250 0-83 42-145 125-145 83 0 125-21 125-84 0-83 63-146 146-146 271 0 396 146 396 292 0 250-209 333-459 333z m-52-83c29 0 52-23 52-52 0-29-23-52-52-52-28 0-52 23-52 52 0 29 24 52 52 52z m167 0c29 0 52-23 52-52 0-29-23-52-52-52-29 0-52 23-52 52 0 29 23 52 52 52z m167-83c28 0 52-24 52-52 0-29-24-52-52-52-29 0-52 23-52 52 0 28 23 52 52 52z m-480-42c29 0 53-23 53-52 0-29-24-52-53-52-28 0-52 23-52 52 0 29 24 52 52 52z m261-208c34 0 62-28 62-63 0-34-28-62-62-62-35 0-63 28-63 62 0 35 28 63 63 63z" horiz-adv-x="1000" />
<glyph glyph-name="bank-parsian" unicode="&#xe836;" d="m472 801c0-49-6-92-25-121-19 14-29 34-44 51-13 15-38 29-33 59 22 15 80 35 102 11z m121-72c12 14 42 30 38 54-4 26-77 37-102 20-4-43 2-91 23-123 17 10 24 30 41 49z m-280 43c-15 29-129 9-97-43 36-14 60-41 92-59 3 29 21 73 5 102z m372 0c-4-34-5-74 5-102 33 17 56 45 92 59 23 56-71 68-97 43z m-356-115c28-27 50-61 74-92 14 24 27 50 38 77-33 36-61 77-94 113 7-33-7-69-18-98z m233-15c13-27 24-57 41-80 17 39 49 64 72 98-19 21-13 66-26 92-24-41-59-73-87-110z m-141-100c27-26 39-66 46-105 18 14 44 14 64 2 3 46 19 79 46 100-35 62-57 136-79 210-13-81-40-150-77-207z m-287 189c-1 4-4 1-5-2 88-78 152-177 154-336 17 15 16 49 43 54 11-5 15-16 21-26 17 22 46 40 79 31-50 141-133 248-292 279z m735 0c-154-27-248-137-294-281 36 14 63-8 79-29 6 11 10 24 26 26 21-9 24-36 36-54 5 159 70 258 153 338z m-720-79c-37-21-60-65-64-118-14-187 9-476 3-646 132 0 265 0 397 0-8 173 39 422-51 521-17-21-17-45-31-67-29 16-40 49-77 56-32-116 47-185 121-225 0-80 0-161 0-241-107 0-214 0-321 0 0 137 0 323 0 469 0 113-10 203 64 236-14 14-23 25-41 15z m661-13c33-25 60-55 65-105 13-167-9-434-3-602-106 2-219-4-320 2 0 81 0 161 0 241 76 36 149 102 123 223-40-7-52-42-82-59-4 14-15 71-31 70-5-1-21-31-26-41-50-107-16-346-23-477 128-6 268-1 400-3 5 94 3 207 3 321 0 112 9 228 0 323-6 53-33 121-85 125-8-4-12-13-21-18z" horiz-adv-x="1000" />
<glyph glyph-name="bank-gardeshgari" unicode="&#xe837;" d="m264 783c109 1 217 1 316-8 61-83 106-182 156-276-14-40-40-68-58-104-29 34-42 85-69 122-112 16-263 9-380 3-62-79-103-180-162-261-29 21-39 62-61 90 52 90 101 182 159 266 125 2 257-3 377 3-1 25-15 37-26 52-94 14-215 0-313 9 15 40 36 74 61 104z m632-272c-44-86-89-169-137-255-14-26-37-50-40-81 6-11 39-6 49-3 67 78 104 186 165 269 25-28 41-65 61-98-52-97-104-194-165-281-98-5-215-4-313 0-23 32-44 66-61 104 29 3 90-2 136 0 77 98 131 219 192 333-48 92-107 172-151 267 28 7 72 13 104 6 62-79 106-174 160-261z m-531-38c-9-21-21-39-34-61-12-19-35-39-35-60 0-22 30-63 43-87 45-81 101-176 148-241 85-9 210 3 304-6-6-43-30-68-49-98-94-7-200-1-298-3-80 98-127 229-206 327-46-33-16-74 9-118 36-66 86-145 115-206-33-7-78-1-115-3-60 88-109 187-163 281 50 98 106 190 165 278 38-2 83 4 116-3z m128-14c77 0 131-57 116-151-25-39-58-77-113-75-58 2-93 44-110 93-2 82 36 124 107 133z" horiz-adv-x="1000" />
<glyph glyph-name="bank-iran-zamin" unicode="&#xe838;" d="m829 22c80 122 61 329-12 433-83 120-246 179-422 128 147 130 435 106 530-72 93-176 15-390-96-489z m-505 350c-23-189 242-253 330-108 79 132-45 280-191 251-73-14-132-77-139-143z m-12 386c-142-100-163-360-48-498 0-2 3-4 4 0-11 48-23 99-16 156 33 261 309 393 565 270-96 129-355 177-505 72z m-275-442c27-218 256-339 474-251 33 14 71 31 83 56-219-68-401 53-457 219-37 108-7 254 27 338-78-92-146-211-127-362z m410-430c220-19 352 114 374 307-11 103-35 193-87 255 70-266-100-480-347-482-82-1-158 31-215 52 73-64 156-121 275-132z" horiz-adv-x="1000" />
<glyph glyph-name="book" unicode="&#xe839;" d="m209 695h-169c-16 0-29-13-29-29v-621c0-16 13-28 29-28h169c16 0 28 12 28 28v621c0 16-12 29-28 29z m-28-170h-113v57h113v-57z m311 170h-170c-15 0-28-13-28-29v-621c0-16 13-28 28-28h170c15 0 28 12 28 28v621c0 16-13 29-28 29z m-29-170h-113v57h113v-57z m224 126l-152-76c-13-7-19-24-12-38l254-505c7-14 24-19 38-12l151 76c14 7 20 24 13 38l-254 504c-7 14-24 20-38 13z m144-606c0-16-13-28-29-28-15 0-28 12-28 28 0 16 13 28 28 28 16 0 29-12 29-28z" horiz-adv-x="1000" />
<glyph glyph-name="bank-maskan" unicode="&#xe83a;" d="m71-79l0 858 858 0 0-858z m80 439l0-141 347 121 351-122 0 141-353 123z" horiz-adv-x="1000" />
<glyph glyph-name="bike" unicode="&#xe83b;" d="m709 473h-99v49h99c13 0 24-11 24-25 0-13-11-24-24-24z m-74 221c0 40-33 73-74 73h-122c-41 0-74-33-74-73v-148h-24v148c0 54 44 98 98 98h122c55 0 99-44 99-98v-148h-25v148z m-245-221h-99c-13 0-24 11-24 24 0 14 11 25 24 25h99v-49z m110-62c-47 0-86 39-86 86 0 48 39 86 86 86 48 0 86-38 86-86 0-47-39-86-86-86z m0 135c-27 0-49-22-49-49 0-27 22-49 49-49 27 0 49 22 49 49 0 27-22 49-49 49z m-83-100c17-28 48-47 83-47 35 0 66 19 83 47 44-10 77-49 77-96v-245c0-46-32-84-74-95v133c0 47-39 86-86 86-47 0-86-39-86-86v-133c-42 11-73 49-73 95v245c0 47 32 86 76 96z m83-243c34 0 61-28 61-62v-171c0-34-27-62-61-62-34 0-61 28-61 62v171c0 34 27 62 61 62z" horiz-adv-x="1000" />
<glyph glyph-name="bus-stop" unicode="&#xe83c;" d="m682-14c0-19 14-35 30-35h53c17 0 30 16 30 35v43h-113v-43z m-477 0c0-19 13-35 30-35h53c17 0 30 16 30 35v43h-113v-43z m-27 452v210c-7 5-15 9-25 12-12 2-23-8-23-22v-131c0-34 21-62 48-69z m669 222c-10-3-18-7-25-12v-210c27 7 48 35 48 69v131c0 14-11 25-23 22z m-53-482v355l1 81v125c0 19-13 35-30 35h-530c-17 0-30-16-30-35v-125-178-355-21h113 364 113l-1 118z m-527-40v75c91 0 113-75 113-75h-113z m204 224h-204l1 339h464l-1-329v-10h-161m49-224c0 0 23 75 113 75v-75h-113z" horiz-adv-x="1000" />
<glyph glyph-name="bus" unicode="&#xe83d;" d="m879 630h-59v-204h23v-94h-45v310c0 63-51 114-114 114h-375c-63 0-114-51-114-114v-304h-40v100h25v204h-59v-204h25v-110h49v-223c0-43 24-81 59-100v-60h100v46h283v-46h100v59c36 18 61 57 61 101v217h55v104h26v204l0 0z m-513 102h266v-62h-266v62z m28-623h-147v67h147v-67z m357 0h-148v67h148v-67z m0 214c0 0-29-90-257-90-228 0-252 90-252 90v314h509v-314z" horiz-adv-x="1000" />
<glyph glyph-name="cake" unicode="&#xe83e;" d="m987 72v-209h-974v209q25 0 46 7 22 8 32 15 11 8 26 21 16 14 28 20 12 6 31 6 19 0 30-6 11-6 28-20 16-14 26-21 10-7 31-15 22-7 47-7 25 0 46 8 22 8 32 14 10 7 26 21 11 10 18 14 6 5 16 9 11 3 24 3 19 0 31-6 11-6 28-20 15-13 25-21 11-7 32-15 22-7 46-7 25 0 47 7 21 8 32 15 10 8 25 21 17 14 28 20 12 6 31 6 18 0 30-6 12-6 28-20 15-13 26-21 10-7 32-15 22-7 46-7z m0 174v-105q-19 0-30 6-11 6-29 21-15 14-25 21-10 7-32 14-21 8-46 8-25 0-47-8-21-7-31-14-10-7-26-21-12-10-18-15-6-4-17-8-10-4-23-4-19 0-31 6-12 6-28 21-16 14-26 21-9 7-31 14-22 8-47 8-24 0-46-8-22-8-32-15-9-6-26-20-11-10-17-15-7-4-17-8-11-4-24-4-19 0-31 6-11 6-28 21-15 13-25 20-10 8-32 15-22 8-46 8-25 0-47-8-22-7-32-14-9-7-25-21-16-15-28-21-12-6-31-6v105q0 43 31 74 30 30 73 30h35v244h139v-244h140v244h139v-244h139v244h139v-244h35q43 0 74-30 30-31 30-74z m-696 469q0-42-19-64-20-23-50-23-29 0-49 21-21 20-21 49 0 16 5 28 6 12 13 18 8 7 17 15 9 9 17 17 7 9 13 25 5 15 5 36 20 0 45-40 24-40 24-82z m279 0q0-42-20-64-19-23-50-23-29 0-49 21-20 20-20 49 0 16 5 28 5 12 12 18 8 7 17 15 9 9 17 17 8 9 13 25 5 15 5 36 21 0 45-40 25-40 25-82z m278 0q0-42-20-64-19-23-50-23-28 0-49 21-20 20-20 49 0 16 5 28 5 12 13 18 7 7 17 15 9 9 16 17 8 9 13 25 5 15 5 36 21 0 45-40 25-40 25-82z" horiz-adv-x="1000" />
<glyph glyph-name="bank-tose-tavon" unicode="&#xe83f;" d="m613 587c-17-43-34-85-53-126-23 5-60 6-85 2-18 40-31 84-49 124 32 58 155 55 187 0z m-353-161c44-14 85-30 132-42 15 27 37 46 55 70-25 36-41 82-69 115-78-9-117-57-118-143z m397 143c-27-35-48-77-69-118 19-22 35-48 55-69 43 13 85 26 127 39 8 87-41 134-113 148z m-226-240c4-47 43-77 85-76 108 2 105 182-14 166-45-6-76-35-71-90z m-178 49c-48-53-22-162 40-183 37 24 74 49 110 74-10 25-15 56-18 88-46 4-88 13-132 21z m549-97c3 27-7 96-30 92-36-6-87-13-127-21 2-35-10-57-18-83 35-28 74-54 113-78 27 18 57 46 62 90z m-380-35c-17-14-33-27-56-48-16-15-42-34-43-46-2-16 26-51 34-58 29-27 86-39 132-23 4 44 7 91 11 136-30 10-54 24-78 39z m184-2c-22-15-46-28-76-35-1-49 9-86 7-136 78-32 153 15 171 79-34 31-64 65-102 92z" horiz-adv-x="1000" />
<glyph glyph-name="bank-mehr" unicode="&#xe840;" d="m88 522c89-20 127 28 172 73 77 77 167 169 234 237 14-13 31-28 57-53 11-12 50-46 51-51 0-12-57-57-71-71-53-53-85-88-138-141-23-22-50-55-71-67-86-52-208-5-234 73z m663 62c-47 47-97 88-82 178-72-36-118-142-73-229 12-24 44-49 68-73 69-69 152-153 217-211 32 35 66 68 101 101-68 78-154 157-231 234z m-386-304c50-100 216-110 270 0 61 120-44 233-158 217-86-13-166-111-112-217z m36-110c-13 22-43 43-67 67-68 68-153 158-212 212-36-32-68-70-104-102 68-77 155-157 231-234 47-47 98-87 82-178 70 30 120 152 70 235z m274 79c-24-16-44-47-68-71-68-68-148-141-206-209 35-34 66-71 105-101 77 70 155 159 234 237 44 44 87 90 172 73-24 76-159 124-237 71z" horiz-adv-x="1000" />
<glyph glyph-name="bank-mehreghtesad" unicode="&#xe841;" d="m130 505c80-18 114 25 155 66 68 68 149 151 210 212 13-11 28-25 51-48 10-10 45-41 45-45 1-11-50-51-63-64-48-47-77-79-124-126-21-21-45-50-64-61-77-46-187-4-210 66z m596 55c-42 42-87 79-74 160-65-32-106-128-66-205 11-22 40-45 61-66 62-62 137-138 195-190 30 31 60 62 91 91-61 70-139 142-207 210z m-348-273c45-90 195-98 244 0 54 108-40 210-142 195-78-12-150-99-102-195z m33-99c-12 20-39 39-60 61-61 60-138 141-191 190-32-29-61-63-93-91 61-70 139-142 208-211 42-42 87-78 73-160 63 27 108 137 63 211z m246 71c-21-14-39-42-61-63-61-62-133-127-185-188 31-31 60-64 94-91 70 62 140 143 210 213 40 39 79 80 155 66-21 68-142 111-213 63z" horiz-adv-x="1000" />
<glyph glyph-name="bank-meli" unicode="&#xe842;" d="m510 787c-1-6-8-4-13-4 1 9 6 4 13 4z m-11-47c5 0 6 4 13 2 1 8 5 10 2 17-6 0-7-4-11 0-1 5 3 14-2 15-4-8-2-22-2-34z m-51-30c0 17-3 31-11 41 1-16 3-32 11-41z m47 13c0-8 12-5 12-13-6-11-14-19-34-17-11 9-1 24-4 34-4-14-8-31-2-45 29-25 61 38 30 54 1-7-4-7-2-13z m127-11c6-4 15 1 15 9-3 0-3 3-6 4-3-4-10-4-9-13z m-219-27c-3 13-6 28-15 36 1-16 5-29 15-36z m8-13c17 3 17 33 15 47-9-15-3-33-15-47z m224 27c-13-2-15-19-27-23-31-9-70 17-84 32-19-30 53-50 79-34 7-10-13-17-6-28 5-7 12 2 17 2 3 10-8 5-6 13 6 13 15 24 25 34 21 3 45-12 58-4-16 5-33 10-56 8z m-273-74c38 3 28 65 5 77 13-19 25-59-11-62-9-1-6 9-13 10 1-13 10-20 19-25z m69 55c-1-5-4-8-2-15 6 2 5-3 10-2 2 7 4 14 13 9 1 4 5 6 4 13-4 0-4 6-10 4-3-9-4-11-15-9z m204-44c8-1 10 4 15 6-16 16 18 32 9 40-9-13-29-26-24-46z m-279 25c3 0 6 0 9 0 2 3 2 8 2 13-3 2-8 2-13 2 0-6-1-12 2-15z m-13-11c3 14-6 5 0 0l0 0z m279-23c0-4 3-5 3-9 10-1 16 5 12 13-8 3-8-4-15-4z m-343-113c1-4-1-4-4-4 0-10-5-13-6-21 1 0 3 0 4 0 0 8 1 5 4 2 3 5-6 8 0 10 3 0 2-3 5-4 0 2 0 4 0 6-3 0-2 4 0 0 1 0 2 0 4 0 0 4-3 5-2 9 2 0 3-3 6-2 0 3 0 6 0 8-3 0-6 0-8 0 0-2-1-3-3-4z m0 0c-1 3-2 0 0 0l0 0z m-4-4c1 2-1 2-2 2 0-2 1-2 2-2z m-64-11c-1 1 2-1 0 0l0 0z m252-30c7-11 24-2 38-2 24 0 50-8 40 28-7-6-8-19-21-19-11 0-11 11-21 13-2-8-7-12-15-13-15 0-17 13-24 21-3-10 0-19 3-28z m-201 5c5 2 12 8 7 15-1 0-2 0-2 0 2-9-7-7-5-15z m13 10c0 3 0 4-2 5 0-3 0-4 2-5z m-17-15c2 1 4 2 4 5-3 0-4-2-4-5z m0 0c-1 0-1 0-2 0 0-2 2-1 2 0z m262-21c-9 20-31 18-38-2 0-55 4-117 2-166-49 21-64 131-24 174-31-19-49-51-49-102 6-48 33-74 58-102-13-6-34-9-51-4 8-20 43-11 68-13 9-3 8-15 17-17 2 34 70 2 81 27-15-1-38 0-49 9 34 29 65 71 53 138-7 13-10 28-19 39-6 7-19 29-25 23 36-46 21-149-26-172-2 58 3 110 2 168z m-72 11c-3 0-3 2-7 2-41-26-82-51-81-120 8-36 22-66 49-83-38 69-16 167 39 201z m166-118c-4-32-14-58-26-83 29 11 49 48 54 90-4 61-38 92-83 111 25-33 56-59 55-118z m-367 73c4 1 0 3 0 0l0 0z m522-4c-8 1-6-8-6-15 6-1-2 12 6 8 0 2 0 5 0 7z m0-64c0 2 0 4 0 6-2 0-2-6 0-6z m11-28c0 5-3 7-4 11-1 0-3 0-2 2 1 0 2 0 2-2 11 2-6 10-4 17-1 0-2 0-3 0-5-12 4-22 11-28z m-21-40c-1 0-2 0-2 0-3-4-3-6 2-7 0 3 0 5 4 4 1 2 0 5 2 5 0-2 2-3 2-5 3 1 4 3 5 5-8 4-1 10-7 17-4-4 0-17-6-19z m-505-9c-6 1-4 9-9 11-2-8 4-18 9-11z m505 2c0-1 0-3 0-4 2 1 3 2 6 2 1 2 0 4 2 4 0 1 0 2 0 2-1 0-2 0-4 0 1-3-2-4-4-4z m85 2c-9 2-5-9-8-12-1 0-2 0-3 0 0-1 0-2 0-3 8-1 11 5 7 9 1 0 3 0 4 0 0 2 0 4 0 6z m-96-36c-2 0-1-3-2-4 2 0 2 2 2 4z m70-4c1-16 14-22-6-26 0-1 0-3 0-4 2 0 3 0 4 0 0 5 8 1 11 2 0 5 4 6 2 13-4 0-5 2-4 6-3 1-2 5-2 9-2 0-3 0-5 0z m-620-28c7 3 6-3 9-4 1 6-4 6-2 13-2 0-3 0-4 0 0-4-3-5-3-9z m601-11c8-2 6 6 13 5 0 1 0 3 0 4-6-1-10-4-13-9z m-588 3c1 3-1 4-4 4 1-2 2-4 4-4z m505-37c0-3 2-5 4-6 1 4-1 5-4 6z m-6-17c5-4 16-2 17 5-3 0-2 4 0 4 0 2-4 2-7 2-3-4-8-5-10-11z m8 0c2-1-1 1 0 0l0 0z m-34-38c0-3 0-7 5-6 0 1 0 4 2 4 2 0 2-2 4-2 0 2 0 4 0 6-4-1-4 2-6 2 0-3-2-4-5-4z m-437-43c4 0 4 2 5 5-4 0-4-2-5-5z m13 0c0 3-2 2-2 0 1 0 1 0 2 0z m-6 0c1-1 2-3 2-6 6-1 9 1 8 6-1 0-2 0-4 0 0-1-2-2-2 0-1 0-3 0-4 0z m15-6c-4 0-6-2-7-4 6 0 9-1 9-7 2 0 4 0 6 0-1 5-7 6-8 11z m15-17c3 1-1 2 0 0l0 0z m72 2c-1-11 9-11 11-19 4-3 8-6 10-11 5 0 5-6 9-6-2 6 6 4 4 10-4 0-3 6-8 5 0-2 0-3 0-5 3 1 5-2 2-4-2 1-3 2-2 4-2 1-5 1-5 3 1 1 2 2 5 2 0 2 0 4 0 6-3 0-3-3-7-2 0-2 0-4-2-4 1 1 0 4 2 4 0 1 0 3 0 4-10 0-12 8-17 13 0 0-1 0-2 0z m30-36c0-2 0-3 0-4 1 0 3 0 4 0 0 1 0 2 2 2 0 2 2 2 2 4-4 4-4-1-8-2z m4-4c0-3 1-6 4-5 1 2 3 2 3 5 0 2-3 1-5 2 1-2-1-2-2-2z m209-22c0 3 4 5 0 7 0-3-4-5 0-7z m62-40c1 0 2-1 2-2 3-1 5 1 6 2 0 0 0 1 0 2 0 3-5 2-8 2 0-2 0-3 0-4z m-162 890c3 1 4-2 6-2-2-6 3-5 2-10 52-52 148-60 192-120 22-36 38-80 79-98-4-15-23-15-36-21 6-16 34-17 32 6 17 3 16-11 21-21 14-4 24-26 15-40 3-8 7-15 11-22-2-16-15-21-15-38 7-9 13-19 10-38 12 1 9 17 20 19 14-7 21-36 10-49 18-21 0-38-6-58-10-7-26-10-30-23 14-4 9-27 21-32 7 1 11 6 22 4 8-19-8-32-3-49-5-3-12-4-17-8 11-7 10-24 3-35-22 3-22-16-43-14-13-9-2-17-6-32 6-6 12 4 23 2 9-21-8-55-30-51 11-21-5-29-11-45-26 5-42-8-59-17 20-26-14-42-17-69 5-7 25 0 27-10-6-14-24-24-40-21-2-12-12-16-19-22-23 1-38 7-64 2-4-4 6-11-2-17 21 5 51 7 70-2-2-10-26 1-32-6-3-7 12-13 13-22-27 7-74-5-92 11-1 7 6 6 7 11-32 1-49 20-77 19-6-11-22-14-38-15-8-5 9-8 2-13-19-16-58-13-86-6 1 7 10 6 11 13-9 7-27 5-32 17 17 4 47-7 66 0 1 5-1 17 9 19-64-5-96 22-130 47-8 1-8-3-15-2 0 14 22 23 40 25 1 9-5 11-4 19-47 25-95 49-109 107-2 6-16 1-15 11 10 5 33 6 43 0 7 2 4 18 9 27-37 30-72 61-79 120-1 6-8 5-11 8 7 15 34 2 43-2 4 7 7 14 8 24-34 25-44 86-36 140 13-8 18-23 28-34 5 11 13 18 19 28-32 37-7 102 11 138 14-3 22-12 23-27 8 2 21 18 32 25-9 12-29 12-34 28-1 6 7 4 11 6 31 30 50 72 78 105 41 46 123 51 167 96-1 3 2 4 2 8-1 4 2 4 2 6z m192-138c0 1 0 1 0 2-44 59-139 67-192 117-3-11-14-14-21-21-44-25-102-36-137-70-35-33-54-83-89-115 30-12 49-35 74-52 44 55 88 110 186 111 83-8 125-59 166-111 29 16 54 34 87 45-38 18-49 64-74 94z m34-354c1 111-41 203-94 260-19 17-40 32-64 45-23 6-44 14-75 13-2 0-2-3-6-2-127-24-196-140-207-280-9-118 26-233 101-294 84-1 172 4 249 3 57 54 94 147 96 255z m-294-381c1-3 2 0 0 0-3 11-6 39 4 45 46 6 79 6 134 2 8-6 10-17 9-32-7-10-18-14-24-24 29 7 34 38 41 66 16 12 36 21 53 32 10 3 7-7 13-8 16 12 25 43 13 66 4 9 9 19 21 21-4 22 11 41 23 53 9-4 10-15 20-19 21 22 8 58-5 79 5 9 7 20 15 26 1 8-9 6-8 15 10 5 12 18 17 29 8 5 15-9 15 0-15 14-15 41-28 56 0 19 12 42 0 66 4 2 6 5 11 6 9 0 7-12 17-13 3 4 3 9 8 11-6 14-15 27-36 26-12 14-26 25-36 40 6 21-12 27-13 47 9 5 24 0 34-2 0 9 0 18 0 28-20-5-28-22-47-28 35-67 59-153 49-258-25-134-78-240-207-271-16 0-32 0-49 0-191 32-264 346-153 525-13 13-23 30-43 36-6-14-6-33-8-51 10 4 24 16 38 8-15-41-33-78-77-91 3-6 1-17 5-22 7 7 16 13 25 17 11-66-26-96-30-142 9 9 13 22 24 29 5-7 0-18 0-27 19-37 7-90-4-126 6-7 10-17 19-21 4 12 9 24 17 34 14-43 47-84 34-141 6-6 16-8 23-13-3 12-3 37-2 45 17-17 30-38 54-49 12-20 18-46 27-68 2-1 4-2 7-2z m356 601c-2-7 5-4 4-11 6 0 4 4 8 0 4-13-1-17-4-28 9-2 8-13 13-19-4-5-4-15-11-17 2 10 6 30-4 34 3-15 4-40 0-55 12 18 24 44 6 64 6 3 9 17 0 21 1 2 2 2 2 4-9-2-8 6-14 7-1 8-3 16-9 19 1-8-1-14-4-17 7-2 4 5 8 6 1-4-2-10 5-8z m-567 6c-1 0-2 0-2 0 1-9-7-7-5-17 0 0-1 0-2 0-5-20-16-46-8-66-2-14 4-21 10-28 0 13 0 26 0 39-6-9 1-22-4-28-3 5-4 12-6 17 2 23 4 38 10 66 9-5 4 8 7 17 4 0 7-1 8-4-1-14-3-14-4-26-1 0-1 0-2 0-4-3-3-12-7-17-1 3-2 0 0 0 3-13-5-9-6-15-1-5 5-5 9-6-3 17 6 23 6 38 12 6 11 43-4 36 0-2 0-4 0-6z m526-36c0-9-9-7-4-15 21-10 22-40 45-49 6 34-12 50-5 72-8 7-26 6-23 24-9 3-18 6-24 13 0-21 0-33 11-45z m-518-73c32 18 39 71 39 113-29-19-53-64-39-113z m561 88c-1-2 0-2 2-2 9-9-11-20 0-24-1 7 11 20 0 24 0 1-1 2-2 2-6 11-11 11-22 17 0-3 0-6 0-9 12 2 12-7 22-8z m-569-2c2-9 2 8 0 0l0 0z m500-26c2-3 3 0 0 0 4 12-9 7-6 19 2 1 2 2 4 2 2-1 6-1 7-4-1-2-2-3-2-6 5 0 7 8 10 0 0 0-1 0-2 0-1-3-3-5-6-5-2-6 6-4 4-10-4 1-4-2-4-4 1 0 3 0 4 0 0-9 11-1 4 2 0-2-2-2-4-2 1 1 2 3 4 4-2 6-2 9 0 15 1 0 2 0 2 0-5 15-23 13-32 13 9-5 8-19 17-24z m-430 4c0 2 0 3 0 5-4-1-11 2-8-5-5 1-6-1-9-2 0-1 0-3 0-4-1 0-1 0-2 0 3-12-6-13-4-23-1 0-2 0-3 0-1-8-8-10-8-20-5-3-9-7-11-12-3-2 0-3 0 0 13 6 24 14 30 27 3 1 2 4 2 7 6 1 9 5 9 12 2 2 3 4 4 7 1 0 1 0 2 0-1 9 7 9 7 17-10 4-4-8-9-9z m-79 2c2-1-1 1 0 0l0 0z m507-17c-5 1-3-2 0-2 1-7 9-18 15-12-7 1-9 9-15 12 0 1 0 2 0 2 7 3-2 12 0 0z m5-2c1-1-1 1 0 0l0 0z m25-23c-2 0-2-1-2-2-5-1-4 3-4 6 3 1 0 3 0 0-2 0-3 0-4 0-2 3-3 0 0 0 0-7 8-20 12-11-3 0-4 2-4 5 2-1 2 1 2 2 7-1 11-4 13-11-2 1-4 2-6 2-2 3-3 0 0 0 0 0 0-1 0-2 11-2 16-8 23-15-5 20-28 21-28 45-5-2-9 8-12 2 6-4 15-13 10-21z m53 21c3-8 3 9 0 0l0 0z m-72-2c1-1-1 1 0 0l0 0z m9-11c1-1-1 1 0 0l0 0z m-529-2c-2 0-4 0-4-2 1 1 4 0 4 2z m567-66c5-4 11-7 13-15-3-5-14-2-13-10 4-14 14-29 2-41 17-3 10-31 15-47 7 23 16 44 25 64-7 7-8 24 0 30-18 7 3 52-19 55-9-10-13-26-23-36z m-586-28c5-25 6-53 25-63-3 45 24 83 7 123-13-18-32-29-32-60z m637 7c-6 0 0-15 2-7-2 1-2 4-2 7 9 6 6 11 11 21-9 0-6-11-11-15 2 7-4 7-2 13 7-1 6 6 11 9 9-9 1-26-5-32 4 1 8-11 0-9-1 3-2 0 0 0 1-3 6-2 9-2 3-8 2-10 4-17-9 2-11-3-11-11-2 0-4 0-6 0 2 7 2 4 0 11 1 0 3 0 4 0 0 1 0 3 0 4-3 1-4-1-4-4-1 0-1 0-2 0 1-11-8-12-9-21 7 0 7 7 11 10-1-3 2-3 2-6-1-6-9-5-11-11-2 1-1 4-4 4 2-5-8-9-2-12 1 2 3 4 6 4 0 1 0 3 0 4 13-2 14 8 15 17 4 4 8 7 11 11 5 1 1 10 2 15-3-1-3 2-6 2-5 16 8 35-2 51-8-6-12-15-20-21 5-4 8-8 9-15z m-646-51c0-5 1-7 5-7 0-11 9-13 15-19-2 5-4 10-7 15 0-2 0-4-2-4-1 4 3 12-2 13 0-7-1-8-4-5 3 5 6 14 0 17-1-4 3-12-5-10 0 6 4 4 0 8 3 2 0 3 0 0-11 16-13 39-8 62 3-1 4-4 4-8-9 2 0-7 0 0 6-11-4-27 4-37 0 23 3 49-12 56-5-30-3-66 12-81z m588 34c-3-10 7-12 3-17-10 2 2-10 0 0 10 1-1 13-3 17-3 4-3 19 0 23 1 0 2 0 3 0 0 3 6 1 6 5-11 3-18 11-26 19 11-15 6-37 15-47 1 0 2 0 2 0z m-528 25c1-3 3 1 0 0 0 3 0 4 2 5 1-7 9 2 0 0 1 2 2 3 4 4 3-3 2-8 5-11-1 0-2 0-2 0-9-4 2-6 2-15-6-4-8-25-13-17 2-8 2-10 0-19-2 0-4 0-7 0 0-5 4-7 7-8 0 2 0 5 0 8 8 13 19 32 13 51 0 0 1 0 2 0-2 6 3 17-2 19-5-5-12-8-17-12 2-15-4-22-5-34 11 4 5 27 11 29z m4-17c-3-1 0-2 0 0 3 2 0 3 0 0z m512-19c-2 0-2-2-5-2 2-5 9-12 13-8-9-26 11-39 17-56 0 17 4 40-10 43 0 3 0 6-3 6 1 4-1 6-4 7-1 4-7 5-8 10 4 6 1 17 0 19-8-6 2-7 0-19z m72 2c0 8-2 15-8 17 0-8 3-14 8-17z m-592 9c2-9 2 8 0 0l0 0z m-9-26c-7 2-6-27 0-19 1-6 0-7-4-4 1-7-3-19 2-21 0 10 5 16 6 25 1 0 2 0 3 0-1 4 2 11-5 9 0-4 3-5 2-9-1 0-2 0-4 0-1 8-3 12 0 19 4 4 3 14 4 19-8 1-2-13-4-19z m535 17c1-1-1 1 0 0l0 0z m-582-12c7-4 7 13 0 10 0-3 0-7 0-10z m584 6c2-1-1 1 0 0l0 0z m-528-179c3 58-2 107-30 134-27-49-1-106 30-134z m545 100c1-5 4-8 2-15-7-3-13-9-19-15-1-8 9-5 7-15-3-3-11-1-11-8 8-25 13-57-4-75 25 11 24 49 51 58 1 8-2 12-2 19 13 8 21 21 19 45-11 3-9 19-17 25-8-7-16-14-26-19z m-535 15c0 0-1 0-2 0-1-4-4-5-4-11 6 0 6 6 6 11 4 1 0 3 0 0z m510-23c-4-1-8 1-9-3 7-1 8-9 11-14 0 4 6 4 6 8 2 0 2 3 2 4 5-1 6 2 9 2-2 9-3 19-11 22 0 0 0 1 0 2-8-2-2-17-8-21z m-518 6c12-23 2-69 8-98 2 19 14 39 9 57-5-8 1-27-9-32 6 19-4 39 5 54 5-2-3-19 6-17 0 18-6 31-11 44-1-5-2-14-8-8z m-66-2c0-2 0-4 0-7-2 2-4 3-7 3 4-9 4-20 7-28 2 4-2 11 4 15-6-2-4 4-6 6 7 1 4 5 6 7 3-2 8-2 6-9-3-1-3 2-6 2 8-8 7-27 9-36 1 2 1 4 4 4 1-9 5-14 11-19 0-2 0-4 0-6-2-1-4-3-7-3 0 4-1 6-4 7-4 10-13 16-13 30 6 0-2 9 0 0-1 0-1 0-2 0 0-15 6-24 15-30 0-4 1-6 4-7 0-3 2-5 4-6 0-1 0-1 0-2 4-2 17-17 13-6 2 0 3 0 4 0 1-5-1-6-2-9 8-1 9-10 17-11 2-3 3 1 0 0-4 7-10 13-15 20-3 6-5 12-10 17-2 1-1 5-4 6-6 19-18 30-15 58-7-1-5 6-13 4 0 4-7 1-9 4 0-1 0-3 0-4 0-2 1-2 2-2 1 2 4 1 7 2z m660-21c-3-6-3-14-4-22-6-1-12-3-15-8 3-4 4-10 4-17-5 1-4-5-6-7-7-3-23-9-17-19 5 5 18 0 17 11 2 1 4 2 4 4 5 0 10 0 15 0 0 9 2 20-6 21 0 4 1 8-2 9-1 5 9-1 6 6 2 0 4 0 7 0 1 4-7 9 0 11 3-2-1-11 6-9 0 7-5 7-4 13 4 3 11 7 6 13 1 0 1 0 2 0 0 3 0 7 0 11-5-2-11-2-13-7 7-2-1-7 0-10z m-72-13c-6-1-2 8-6 8-3-6 2-16 6-8z m-15-15c2-11 6-18 11-26-3 17-7 35-9 43 0-5-11-17-2-17z m-558-4c2-9 2 8 0 0l0 0z m4-7c1-1-1 1 0 0l0 0z m565-19c1-1-1 1 0 0l0 0z m0-26c-3-1 0-2 0 0 0 0 1 0 2 0 6 6-1 31 0 9-2-2-2-5-2-9z m-5-6c2-1 0 1 0 0l0 0z m-458-119c-9 48-20 95-53 119-20-60 21-100 53-119z m416 91c-2-3-4 0-7 0 2-3-6-9 0-10 1 11 33 1 24 15 6 9-8 14-13 19 5-13-9-18-4-24z m-431 5c5 3 16 13 7 17-1-7-7-10-7-17z m390-122c-4 0-6-2-6-6-3-2 0-3 0 0 6-2 4 4 6 6 20 17 41 32 60 49 0 9-1 20 6 21 11 2 18-2 24 0 4 18-1 45 21 45 0 7 0 14 0 21-26-6-37-27-66-31-6-15-12-20-4-35-13-24-21-52-41-70z m-370 102c-1-4-7-3-5-10-12 3 6 13-4 15 0-9-2-1-6-2-1 6 5 10-5 10 2-4 1-9 5-10 3-8 8-26 10-28 0 5 0 10 0 15 5 0 3 6 9 4-2-2-2-5-2-9 6-3 6 10 2 9 1 4-1 7-4 6-1 12-7 18-9 28-5-9 5-20 9-28z m492 7c-2-1-2 1-2 2-2 0-3 0-5 0 0-2 0-3 0-4-6 1-6-4-12-2 2-17-3-28-5-41-2 0-3 0-4-2-2 0-2-1-2-2-10-2-15 2-23 2 1-5 3-10 2-17-6 0-7-3-9-7-6-4-13-8-17-14-5 0-7-4-8-7-6 0-8-4-11-6-3-4-16-9-11-13 3 4 16 7 11 13 7-1 9 2 11 6 5 0 6 3 8 7 9 5 21 7 28 14 9 1 17 1 23-2-3 9-17 6-23 2-4 2-9-6-11 0 5 0 7 4 9 7 10-3-4 9 4 11 6 1 24-4 17 4 2-1 2 1 2 2 3 0 4 0 4 2 3 0 2-4 5-4-1-2 0-2 2-2-1-2-2-4-5-5 1 10-8 1 0 0-3-2-4-6-6-10 3 4 17 9 11 15 0 1-1 2-2 2-2 13 3 19 8 25 3-2 8-2 13-2-1 4 2 4 2 7 1 0 1 0 2 0 2 1 5 11 0 12 2-6-2-7-2-12-7-1-3 9-11 8-1-5 10-7 3-11-8-3-2 8-7 7 0-3 0-6 0-9-10-3-5 9-6 15 5 1 11 1 10 7 3-1 6-1 7 2 7 1 9-3 13-4-1 6 7 5 2 10-5-1-8-3-15-2 0-1 0-3 0-4z m-4-9c3 0 5 2 6 5-4 0-6-2-6-5z m-567-32c-1-5 0-8 4-8 3-10 11-14 17-19 1-3 3-5 6-5 2-3 4-6 9-6 1-3 3-4 6-4 2-3 4-7 9-7 0-2 6-3 6 0 4-1 1-4 0-6 2 0 5 0 7 0 2-5 6-7 12-6 1-9 10 0 0 0-10 10-21 20-32 29-1 3-3 6-6 7 0 2-1 2-2 2-1 8-9 9-13 15-2 6-9 23-15 13-6-3 3-12 0 0 10 0 4-15 15-13-5-8 7-12 13-15 0-2 1-2 2-2 0-3-4-2-6-2 0 0 0 1 0 2-6 1-6-3-11-2 0 1 0 2 0 4 3 1 0 2 0 0-3 1-2 5-2 8-10-3-8 7-15 7-1 4 2 10-4 8 3 19-8 23-9 32 3-3 10-3 13-6 0-2 0-3 0-4-1 0-3 0-4 0-1-4 1-4 4-5 0-2 0-3 2-4 2 7 1-6 6-2 1 6-2 7-8 6 0 2 0 3 0 5 2-1 2-3 4-3 0 4 0 8 0 11-9-1-17 10-25 2 10-5 10-22 17-32z m89 9c5-4 1-13-4-7 0-3-1-8 2-8 0 2 1 4 2 4 2 0 2-2 4-2-1 4 4 15-4 13 3 16-6 7 0 0z m380 6c-2-1-4-2-5-4 0 0-1 0-2 0 7-14 7-25 7-41 4 10 6 26 0 35 3-1 6-1 6 2 2 0 2-3 2-5-6 0 2-8 0 0 10 0-1 9-2 11 0 2 0 4 0 6-2 0-4 0-6 0 0-1 0-2 0-4z m-393-2c-2-12 10-1 0 0l0 0z m5-47c-2-6 3-5 2-10 5 0 8-1 10-3 2 14 8 29 0 41-5-3 8-33-8-36-1 3 6 9 0 10 0-2-3-1-4-2 1 15 0 28-7 39 0-15 3-27 7-39z m-71 28c3-9 3 8 0 0l0 0z m75-11c1-1-1 1 0 0l0 0z m77-6c18-20 69-7 104-11 7-1 8 4 15 2 36 0 71 0 107 0 5 3 21 13 12 15-78-3-162-1-238-6z m-73-2c2-2-1 1 0 0l0 0z m375-9c2-1-1 1 0 0l0 0z m-279-4c1-8 12-7 15-13 56 0 109 4 166 2 3 7 13 6 15 13-66-1-139-4-196-2z m-38-34c1-6 4-10 10-11 1-6 5-8 9-10 0-1 0-2 0-3 4-2 3-8 8-8 4-8 9-13 15-17 1 6-5 7-4 15-5-1-8 0-11 2 0 2 0 4 0 6 7 2 3-7 9-6-1 7-2 15-9 17 2 12-7 14-12 19-1 3-4 2-7 2-2 7-10 10-17 13 0 5-4 7-6 11-1-16 2-28 15-30z m57-71c-43 27-61 78-119 90 6-63 62-86 119-90z m13 88c32-25 105-19 136 2-46 1-93-7-136-2z m211-17c-4-1-3-7-6-9-4 4-17 3-15-6-4 0-5-3-9-2 0 8-9-1 0 0 0-2 0-4 0-7-4-3-11-3-13-8 5 1 14-3 15 2-2 0-1 4-2 6 6 0 6 6 9 9 3 5 13 5 19 2-4 7 9 9 2 13-1 10-1 8 2 15-5 5-9-6-11-11 4-1 6-3 9-4z m-83-81c-11 2-3-7 0 0 39-7 59 33 87 10 9 1 3 17 11 20 10 2 12-4 19-5 8 24 24 37 28 58-18 2-31-17-56-15-3-3-1-10-6-11-9 0-9 7-17 3-2-5-1-13-4-18-3-3-12 0-15-4-4-24-28-29-47-38z m47 70c-13-4-10-24-19-32 0-3 6-1 6-4 0-4-6-3-4-9-5-2-1 15-5 7 2-8-2-9-4-13-9 2 0-6 0 0 6 0 7 3 9 6 15 10 5 32 17 45 11-1 11 15 19 4-3 9 12 0 8 9-13 0-23-3-27-13z m-141-17c-11 0-23 0-34 0-2-13 0-16-2-32 14-4 28-26 40-17 2 17-24 26-29 43 14-1 13-15 25-17 14 13 46 7 62 0 10 1 17 15 26 10-7-15-32-12-32-34 19-12 24 19 42 21 0 9 0 18 0 26-36-5-69 17-98 0z m139 7c1-2-1 0 0 0l0 0z m-275-45c2-1 2 1 2 2 2-1 2 1 2 2 4 0 5 3 9 2-2-2-3-3-3-6 4-1 4 2 7 2-3-9 14-1 6-9-3-1 0-2 0 0 6-1 4 5 7 7-6 2-11 5-17 6 0 1 0 2 0 2-4 0-11 2-9-4-2 0-2-1-2-2-2 0-2-1-2-2-5-1-8 0-9 4 12-2 3 6 0 0-3-1-4 2-4 4 9-2 0 7 0 0-11 3-17 10-26 15 14 11 19-2 32-6 0-7 9-12 11-5-7-1-4 6-11 5 0 0 0 1 0 2-7 13-27 15-40 4 25-13 45-33 77-40-11 9-22 10-30 17z m-22 17c2-2 0 1 0 0l0 0z m162-11c7-16 33 1 45-8 1 5 7 6 7 12-16 5-43 13-52-4z m220-8c0-5-15-10-4-11 2 7 19 11 19 13-7 1-10-2-15-2 0 1 2 2 2 4-12-1-26 5-32 0 8-4 17-6 24 0-1-5 3-4 6-4z m-296-11c0-1 0-2 0-2 2 0 3-1 4-2-20 1-55-2-15-2 3-3 8-3 13-3-1-3 11-3 10 0 12 4 19-2 28 5-11-2-25 8-28-5-3 0-7 0-10 0 2 5 9 5 13 9-5 0-10 0-15 0-7 5-24 12-32 8 11-2 18-9 32-8z m262 0c-7 0-14 0-22 0 0 2-2 1-2 0-3-1 1-3 0 0 1 0 2 0 2 0 1-3 7-1 7-4-4 0-6-2-7-5 10 0 12 13 22 5-1-2 1-2 2-2 4-5-1-5-2-9-5 2-10-6-4-6 0 2 3 3 4 6 6 0 9 4 8 11 1 0 2 0 2 0 0 2 0 4 0 6-3 0-6 0-6 2 5 1 5 6 0 7 2-7-6-5-4-11z m-181-6c3-21 15-24 36-24 5 8 10 15 13 26-11 13-41 17-49-2z m149 10c-16-2-25-10-39-15-4 1-24 0-12-2 7 1 10-4 17-4 20 4 45-2 57 2-15 5-41 3-57 2 10 6 24 10 34 17 4 1 11-2 8 4-4 1-8 0-8-4z m60 4c-7-2-9-2-15 0 1-7 14-7 15 0z m-320-6c1-3 2 0 0 0-1 6-9-2 0 0z m266-6c-7 6-6-8 0 0l0 0z m17-5c-3-1 0-2 0 0 1 0 2 0 2 0 1-6 9 2 0 0 1 6-2 4-2 0z m-32 3c-1-1-4-1-4-3 2 1 4 0 4 3z m-183-9c-2-3-26-1-15-4 8 1 10-3 17-2 11 4 30-1 36 8-15 2-23-3-38-2z m153-9c-17 5-39 5-59 7 9-12 43-10 59-7z m-179-6c7-5 11-14 20-17 11 13 46 2 49 23-19-1-50 0-69-6z m160-21c9 4 19 7 19 19-25-2-44 2-66 4 1-22 39-8 47-23z m-160 10c-7-6-30-5-40-2 5-7 12-9 4-19 19-2 54-6 64 7-12 2-19 9-28 14z m152-21c22-4 52 1 70 0-5 4-9 12-2 17-32-1-49-3-68-17z" horiz-adv-x="1000" />
<glyph glyph-name="bank-pasargad" unicode="&#xe843;" d="m597 814c-8-20-38-12-55-12-140 0-305-2-443 3 0 3 0 6 0 9 159 5 339 5 498 0z m-467-185c90 0 217 0 327 0 24 0 92-9 107 0-4-2 9 26 9 24 10 40 9 91 18 134-141 1-323 1-486 0 10-11 5-134 22-143 8-4 16 13 21 6-2 19 14 2 0 0-3-9-17-9-18-21z m30 34c-11 12-13 24-18 39-8 22-27 62 15 67 12 1 37-11 40-18 3-9-7-20-10-28-6-23-8-52-27-60z m94 0c-12 9-37 71-33 84 8 27 59 23 67 4 10-28-26-60-25-88 11-10 24-18 34-28-17 4-33 8-34 28-2 1-7-2-9 0z m185 0c-4 11-15 18-18 27-4 11-18 48-15 57 8 28 63 22 70 0 4-15-25-76-37-84z m100 0c-12 4-22 20-27 33-2 5-14 41-12 48 3 15 30 28 48 22-6 2 19-14 19-12 10-23-26-73-28-91z m-106-3c-1-24-40-32-61-22-9 5-11 19-18 25-2 2-13-1-15 3-9 13-11 39-18 60-2 5-10 17-9 18 2 12 29 26 48 22 1-1 21-12 22-12 11-23-26-61-25-82 2-37 51-39 76-12z m-264 0c7 0 10-3 9-10 23-21 58 2 70 6-4-23-61-32-70-6-6 0-9 3-9 10z m164 0c14-6-17-30-27-22 10 7 25 7 27 22z m118 0c6-14 26-12 31-25-17 2-28 9-31 25z m76 0c-7-14-19-23-39-25 14 7 24 18 39 25z m15 0c11 0 9-12 19-13-6-14-17 4-19 13z m-203 66c11-19 30 21 9 15-7-1-16-2-9-15z m-167 12c-4 7-10 3-15 0-25-14 31-25 15 0z m88-18c9 4 4 25-9 18-12-6 2-21 9-18z m285 18c-4 8-13 5-18 0-16-16 31-21 18 0z m-94-3c-4 7-13 5-18 0-12-12 32-21 18 0z m70-121c-121 3-280 0-388-3 0-3 0-6 0-9 150-4 285-10 431 3-8 16-30 9-43 9z m-12-394c8 110 38 247 49 367-118 1-238-2-368 0-16 0-46 4-48 3-14-9 5-93 9-116 12-73 24-155 36-224 36-195 89-353 328-334-13 21-42 27-42 61-29 2-138-48-91 12-25-5-13 24-10 33-20 0-20 22-9 31-2 6-14 4-15 12 3 6 5 11 6 18-7 4-19 3-18 15 1 9 13 7 15 15-29-5-33 21-12 28-34-9-25 11-33 24-8 11-32 13-18 27-13-1-22 1-22 12 1 12 20 5 22 16-24-11-61 4-37 24-12-1-18 4-24 9-3 11 7 9 6 18-24-5-34 20-21 31 13 10 41-13 48 6-21 6-50-10-60 3-12 14 10 30 6 39-29 31 18 44 39 21-2 21-32 9-36 28-4 13 7 26 27 30-1 23 20 39 33 33 5-2 19-52 25-57-7-10-28-5-22-28 19 33 33 6 52-9-1 18-21 20-15 37 3 8 32 20 42 6 8-12-11-21 6-31-3 21 6 29 6 46-37 7-46-20-63-12-8 3-28 44-25 54 3 8 33 26 43 19 12-11-9-48 12-55-14 45 18 84 49 49 22 17 32-4 48-16 11-7 34-6 30-27-1-9-69-54-69-15-4-6-16-4-19-12 46 6 22-65-9-40-5-9-18-15-30-9-12-27-11-64 15-76 3 19-16 25-15 43 1 19 34 45 58 30 6-4 16-37 27-54 11-17 25-31 36-46 32-41 52-86 67-124 12-31 12-84 24-103 13-20 105-46 91 18-6 28-58 42-69 63 39-15 80-27 88-66 1-8-8-39-3-46 7-11 72-6 88-15-7 65-18 124-22 191-22 2-25 23-45 27 1 5 4 8 6 13-30-1-25 40-15 54-34 4 2 34 0 52-2 12-20 19-19 30 2 12 17 24 31 24 17 1 18-16 30-12 7 2 10 14 9 15-6 12-48 10-60 6-46-12-94-67-116-121-12-31-13-67-18-100 7-4 9-14 12-21-7 4-12 10-12 21-12 16-10 34-9 55z m82 72c1-30-12-56-9-88 5-47 37-70 64-97-81 6-99 125-55 185z m-55-166c0 3 4 2 6 3 0-3-3-3-6-3z m18-13c2-2-1 2 0 0l0 0z m-179 358c-1 2 2-2 0 0l0 0z m-3-18c2 2 8 15 0 15-1-1-7-14 0-15z m40-3c7 0 10 3 9 9-7 1-10-2-9-9z m-52-21c10-4 8 18 3 18 3-9-5-9-3-18z m37 3c8-1 10 4 9 12-8 1-8-6-9-12z m-9-9c4 2-1 4 0 0l0 0z m-140-12c3-3 7-4 12-3 1 9-12 11-12 3z m18-12c5 4 3 9-6 9 3-3 2-9 6-9z m-12-31c7-2 11-7 9-18 0-10-15-5-15-15 12 7 9-6 21-6 2 7-3 22 3 24 16 3 26-16 37-9-11 12-33 14-37 33-7-8-11 0-18-9z m449-60c4-4 11-4 18-3-1 9-16 6-12 21 55-4-22-52 9-55 10-1 36 27 34 46-2 11-23 6-12 21 6-10 30-20 30 3-17 0-40 7-58 9 17 22 27-1 52-3-8 7-17 25-37 24-13 0-19-17-30-18-7 0-43 28-45-3-1-15 27-30 51-15 1 5-3 15 6 12 1-7-1-11-6-12 8-9-7-18 0-27z m-470 36c-4 3-11 3-18 3 0-12 13-9 18-3z m443-67c2-14-12-13-9-27 8 0 18 2 18-6-4-7-11-9-12-18 6-2 20 3 21-3-2-5-12-17-3-22 4 5 10 6 18 6 2-9-3-11-3-18 13-2 27 15 31 15 7 1 19-11 27-6 8 6 4 17 9 28-32-20-66 17-30 33-31 6-26-36-10-52-35 16-45 76-42 113-26 2-49-37-15-43z m-392 21c10 32-34 7 0 0l0 0z m19 13c4-5 12-3 15 3-5 4-13 2-15-3z m503-22c12 9 6 28-12 25-1-14 6-19 12-25z m-9-6c5 29-54 24-54-12 17-5 52-3 54 12z m-531-9c13-1 34 1 31-24 14-1 22-8 21-24-9-1-21 2-21-6 14-3 32 8 45-6-6 20 20 8 18 24-15-9-48-11-42 18-19-2-17 18-21 30-16-5-20-5-31-12z m43 12c-1 0 0-2 0-3 0-15 11 14 0 3z m94-66c-3-4-11-1-9-9 28-1 44-28 42-49 19 2 13-13 18-27 8-21 20-23 3-37 26 2 22-56 6-60 30 6 19-30 4-31 6-1 15-6 21 0 5 137-65 211-137 279 10-30 36-43 52-66z m-158 51c5 1 15-3 12 6-7 1-11 0-12-6z m525-6c2-23 31-21 27 6-12 1-12-10-27-6z m-15-21c10-2 10-14 24-12-6 9-13 24-24 12z m-477 3c-4-1-11 1-12-3 4-4 12-4 12 3z m97-9c-3-1-8 0-9-3 4 0 9-1 9 3z m-45-43c14 11 29-8 36-3-7 1-1 14 0 15-17 1-28-3-36-12z m-21 0c-1 0 0-2 0-3 0-15 11 14 0 3z m91-12c5 1 15-3 12 6-6 0-10-2-12-6z m-6-60c7-3 17-10 24-3 0 4 0 8 0 12-18-4-16 14-12 24-20-3-26 16-15 27-10-4-14-1-25 0 5-23 40-40 28-60z m-67 42c7-1 11 1 12 6-5-1-15 3-12-6z m48-18c-3 2-8 4-15 3 0-11 13-10 15-3z m-27-6c-1 1 2-2 0 0l0 0z m85-6c0-1 0-3 0-3 0-18 15 18 0 3z m-76-22c4-4 12-4 12 3-4 4-11 4-12-3z m22 3c-2 2 2-2 0 0l0 0z m33-21c-8 1-15 1-15-6 31 8 17-7 18-27 0-8 11-13 9-21-3-13-1-43 9-52 2 11 17 7 21 15-26-5-22 21-15 34-23 10 6 66-30 75-2-9 5-8 3-18z m24 3c18-11 7 16 0 0l0 0z m-61-15c7-1 12 1 13 6-6-1-16 3-13-6z m-15 0c5-10 8 12 0 0l0 0z m103-12c-2-1-6 0-6-3 3 1 6 0 6 3z m-69-12c4-5 16-3 15 6-8 0-15 0-15-6z m-28-6c6 0 13 0 19 0 1 12-18 4-19 0z m79-18c-1 1 2-2 0 0l0 0z m-63-13c8 1 20-2 21 6-8-5-17 6-21-6z m361-54c-21 2-53 11-85 15-39 5-77 19-100 21-37 3-64-17-61-42 1-9 22-34 27-37 59-31 221 11 291-6-33 23-101 39-154 46-26 3-108 16-116 0-11-25 74-16 116-19 29-1 51-4 72-15-47 1-123-10-175 0-14 3-43 19-43 34 0 33 45 20 70 18 75-7 168-19 224-40 10 6-13 19-3 25 13 1 21-18 34-6-28 29-55 0-97 6z m-334 27c-2-1-6 0-6-3 2 1 6 0 6 3z m443-64c-15-3-13 10-28 6 0-6 0-12 0-18 24 2 42-8 52 3-5 13-19 34-33 28 6-1 14-17 9-19z m-31-45c22 0 79-12 82 6 4 22-24 15-30 15-210 10-463 3-667 0-36 0-77 8-104 3-8-2-5-17-6-24 224-7 493-3 725 0z" horiz-adv-x="1000" />
<glyph glyph-name="bank-mellat" unicode="&#xe844;" d="m500 427c70 0 127-57 127-127 0-70-57-127-127-127-70 0-127 57-127 127 0 70 57 127 127 127m-18 211l0-176 0-1-2-1 0 0 0 0-2 0 0 0-1 0 0 0-1 0 0 0-1 0 0 0-2-1 0 0-1 0 0 0-1 0 0 0-2 0 0 0 0 0 0 0-2-1 0 0-2 0 0 0 0 0-2 0 0 0-1-1 0 0-1 0 0 0c-7-2-15-4-22-7l0 0c-2-1-3-1-5-2-1-1-2-1-4-2l0 0 0 0 0 0-1-1 0 0-2-1 0 0 0 0 0 0-2 0 0 0-1-1 0 0-1 0 0 0-1-1-1-1 0 0-1 0c-1 0-1-1-2-1l0 0-1-1 0 0 0 0 0 0 0 0-2-1 0 0-1-1 0 0 0 0-2-1 0 0-1-1 0 0 0 0 0 0c-5-3-9-6-13-9-1 0-1-1-2-2-1 0-2-1-2-2l0 0 0 0 0 0-1 0-1-1-1-1 0 0 0 0-1-1 0 0-2-1 0 0 0-1-1-1-1-1-1 0-1-1-1-1 0-1-1-1-1-1-1-1-1-1-1-1 0 0-1-1 0 0 0-1-1 0 0 0-1-1 0 0-1-1-1-1 0 0 0-1-1-1 0 0-1-1 0 0 0-1c-2-2-4-5-6-8l-1-1 0 0-1-2 0 0 0 0-1 0 0 0 0-1-1-1 0 0-1-2 0 0-1-1 0 0 0 0 0 0 0 0-1-2c0-1 0-1-1-2l0 0 0 0 0 0 0-1 0 0-1-1 0-1 0 0-1-2 0 0-1-1 0 0-1-2 0 0-1-2 0 0-1-1 0 0 0-2 0 0-1-2 0 0-1-2-1-1 0 0 0-2 0 0c-1-1-1-2-1-2l0 0 0 0 0 0 0 0 0 0-1-2c0-1 0-2-1-3l0 0 0 0 0 0-1-2 0 0 0-2-1-2 0 0 0-1 0 0 0-1 0 0-1-1 0-1 0 0 0-2-1-1 0 0 0-2-1-2 0 0c0-1 0-1 0-2l0 0 0-2 0 0-1-2 0 0 0-2 0 0-1-2 0 0 0-2 0 0 0-2 0 0 0-2 0 0-1-2 0 0 0-2 0 0 0-2 0 0 0-2 0-1 0 0 0-1 0 0 0 0 0 0 0-2 0-2 0 0-1-2 0-2 0-2 0-2 0-2 0 0 0 0 0 0 0 0 1-2 0-2 0 0 0 0 0 0 0 0 0-2 0 0 0-2 0-2 0 0 0-2 0 0 0-1c1-2 1-5 1-8l0 0 0 0 1-2 0 0 0-2 0 0 0 0 0 0 0 0 0 0 0-2 0 0 1-2 0 0 0 0 0 0c0-2 1-4 1-5l0 0 0-1 0 0 1-2 0 0 0 0 0 0 0-2 0 0 1-2 0 0 0 0c0 0 0-1 0-2l0 0 1-1 0 0 0 0 0 0 0 0 0-2 0 0 1-2 0 0 0 0 0 0 1-2 0-2 0 0 0 0 0 0 0 0 1-2 0 0 1-2 0 0 0 0 0 0 0-2 0 0 1-1 0 0 0 0 0 0 1-2-2-1-111-64-3-2 0 437c0 26 14 49 35 61l1 1 48 28 167 96 0 0c6 3 10 5 15 5l0 0c5 0 10-2 15-5l0 0 218-126c20-12 33-35 33-60l0-110-3 1-265 153c-2 2-4 2-6 2-2 0-4 0-5-1-2-1-3-2-4-3-1-2-1-4-1-7l0 0z m321-493l-152 87-1 1 0 2 0 0 0 0 1 1 0 0 1 2 0 0 0 0 0 0 0 2 0 0 1 2 0 0 0 0 0 0 1 2 0 0 0 1 0 0 0 0 0 0 1 2 0 0 0 2 0 0 1 0 0 2 0 0 1 2 0 0 0 0 0 0c2 7 4 15 5 23l0 0c0 2 0 3 0 5 0 1 1 3 1 4l0 0 0 0 0 0 0 2 0 0 0 2 0 0 0 0 0 0 0 2 0 0 0 1 0 0 0 1 0 0 0 2 0 1 0 0 0 1c0 0 0 1 0 2l0 0 0 1 0 0 0 0 0 0 0 0 0 2 0 0 0 2 0 0 0 0 0 1 0 0 0 2 0 0 0 0 0 0c0 6-1 11-2 16 0 1 0 2 0 3 0 1 0 2-1 3l0 0 0 0 0 0 0 0 0 2 0 1 0 1 0 0-1 1 0 0 0 2 0 0 0 0 0 2-1 1 0 1 0 1-1 2 0 1 0 1-1 1 0 1 0 1-1 2 0 0 0 1 0 0-1 1 0 0 0 1 0 1 0 0-1 1 0 2 0 0-1 1 0 1 0 0-1 1 0 0 0 1c-1 3-3 6-4 9l-1 1 0 0-1 2 0 0 0 0 0 1 0 0 0 1-1 1 0 0-1 1 0 0-1 2 0 0 0 0 0 0 0 0 0 1c-1 1-1 2-1 2l0 0-1 0 0 0 0 2 0 0-1 0-1 1 0 0 0 2 0 0-2 2 0-1-1 2 0 0-1 2 0 0-1 1 0 0-1 2 0 0-1 1 0 0-1 2-1 1 0 0-1 2 0 0c-1 1-1 1-2 1l0 0 0 1 0 0 0 0 0 0-1 1c-1 1-1 1-2 2l0 0 0 1 0 0-2 1 0 0-1 1-1 2 0 0-1 1 0 0-1 1 0 0-1 0 0 1 0 0-1 1-2 1 0 0-1 2-1 1 0 0c-1 0-1 1-2 2l0 0-1 1 0 0-2 1 0 0-1 1 0 0-2 2 0 0-2 1 0 0-1 1 0 0-2 1 0 0-1 2 0 0-2 1 0 0-2 1 0 0-1 1-2 1 0 0 0 0 0 0 0 0 0 0-2 1-1 1-1 1-1 0-2 1-1 1-2 1-2 1 0 0 0 0 0 0-2 1-2 1 0 0 0 0 0 0 0 0-2 1 0 0-2 1-1 1 0 0-2 1 0 0 0 0c-3 1-5 2-8 3l0 0 0 0-2 1 0 0-2 1 0 0 0 0 0 0 0 0 0 0-2 0 0 0-2 1 0 0 0 0 0 0 0 0c-2 1-3 1-5 2l0 0-1 0 0 0-1 0 0 0 0 0 0 0-2 1 0 0-2 0 0 0 0 0c-1 1-2 1-3 1l0 0-1 0 0 0 0 0 0 0 0 0-2 1 0 0-2 0 0 0 0 0 0 0-2 1-2 0 0 0 0 0 0 0 0 0-2 0 0 0-2 0 0 0 0 1 0 0-2 0 0 0-2 0 0 0 0 0 0 0-2 0 0 2 0 132 3-2 344-198 32-18c22-13 35-37 35-61l0-57 0-193 0 0c0-6-1-11-3-15l0 0c-3-4-6-8-12-11l0 0-218-126c-20-11-46-11-68 2l-32 18-61 35-3 2 3 2 265 153c2 1 4 3 5 4 1 2 1 4 1 5 0 2 0 3-1 5-1 2-3 3-5 5l0 0z m-587-32l151 88 2 1 1-2 0 0 0 0 1-1 0 0 1-2 0 0 0 0 0 0 1-1 0 0 1-1 0 0 1-1 0 0 1-1 0 0 1-1 0 0 0-1 0 0 1-1 0 0 1-1 0 0 0 0 2-2 0 0 1-1 0 0 0 0 0 0c6-6 11-11 18-16l0 0c1-1 2-2 3-3 2-1 3-2 4-3l0 0 0 0 0 0 2-1 0 0 1-1 0 0 0 0 0 0 2-1 0 0 1-1 0 0 1 0 0 0 1-1 1-1 0 0 1 0c0 0 1-1 2-1l0 0 0 0 0 0 0 0 1-1 0 0 1-1 0 1 2-1 0 0 0 0 1-1 0 0 2-1 0 0 0 0 0 0c5-2 10-5 14-6 1-1 2-1 3-2 1 0 2 0 3-1l0 0 0 0 0 0 2 0 1-1 1 0 0 0 1 0 0 0 2-1 0 0 0 0 2 0 1-1 1 0 1 0 2-1 0 0 2 0 1-1 1 0 1 0 2 0 0 0 1-1 0 0 1 0 0 0 1 0 1 0 0 0 2-1 1 0 0 0 1 0 1 0 0 0 2 0 0 0 1 0c3-1 6-1 9-1l2-1 0 0 2 0 0 0 0 0 0 0 0 0 2 0 1 0 0 0 1 0 0 0 2 0 0 0 0 0 0 0 0 0 2 0c1 0 2 0 2 0l0 0 0 0 0 0 2 0 0 0 1 0 1 0 0 0 2 0 0 0 2 0 0 0 2 0 0 0 2 1 0 0 1 0 0 0 2 0 0 0 2 0 0 0 2 0 2 1 0 0 2 0 0 0c1 0 1 0 2 0l0 0 0 0 0 0 0 0 2 1c1 0 2 0 3 0l0 0 0 0 0 0 2 1 0 0 2 0 2 0 0 0 1 1 0 0 1 0 0 0 1 0 1 0 0 0 2 1 1 0 0 0 3 1 1 1 0 0c1 0 1 0 2 0l0 0 2 1 0 0 2 0 0 1 2 0 0 0 2 1 0 0 1 1 0 0 2 0 0 0 2 1 0 0 2 1 0 0 2 1 0 0 2 1 0 0 1 0 2 1 0 0 0 0 0 0 0 0 1 0 1 1 2 1 0 0 2 1 1 1 2 1 2 1 2 1 0 0 0 0 0 0 0 0 1 1 2 1 0 0 0 0 0 0 0 0 2 2 0 0 2 1 1 1 0 0 2 1 0 0 0 0c2 2 5 3 7 5l0 0 0 0 1 1 0 0 2 2 0 0 0 0 0 0 0 0 0 0 1 1 0 0 2 1 0 0 0 0 0 0 0 0c1 2 3 3 4 4l0 0 1 1 0 0 1 1 0 0 0 0 0 0 1 1 0 0 2 2 0 0 0 0c0 0 1 1 2 2l0 0 0 0 0 1 0 0 1 0 0 0 1 1 0 0 1 2 0 0 0 0 0 0 2 1 1 2 0 0 0 0 0 0 0 0 1 1 0 0 1 2 0 0 0 0 0 0 2 1 0 0 1 2 0 0 0 0 0 0 1 1 1-1 112-64 3-2-3-1-344-199-32-18c-22-13-49-13-70-1l-1 1-49 28-166 96 0 0c-6 3-10 7-12 11l0 0c-2 4-3 9-3 16l0 0 0 251c1 23 13 46 35 58l32 19 61 35 3 2 0-3 0-306c0-3 0-5 1-7 1-2 2-3 4-4 1-1 3-1 4-1 3 0 5 1 8 2l0 0" horiz-adv-x="1000" />
<glyph glyph-name="bank-samen" unicode="&#xe845;" d="m465 830c-1 3 1 3 3 4 189 37 215-235 49-248-73-6-155 54-136 153 8 40 36 67 80 84 0 4 1 6 4 7z m35-272c-153-116-307-231-458-349 0-46 0-91 0-136 46 13 80 49 116 76 111 86 217 168 331 248 41-39 87-73 116-126-52-47-117-81-165-132 21-15 52-81 81-80 13 0 49 35 66 48 69 53 151 111 199 158-94 99-183 202-286 293z m-283-402c66-76 137-147 209-223 15-16 57-70 77-70 11 0 42 25 60 38 135 103 268 208 394 308-2 44 5 97-3 136-155-100-288-223-440-325-41 38-81 77-115 122 14 23 50 41 83 67 25 19 81 52 81 73 0 15-64 73-84 77-86-69-177-133-262-203z" horiz-adv-x="1000" />
</font>
</defs>
</svg>
